G04 #@! TF.GenerationSoftware,KiCad,Pcbnew,(5.0.0)*
G04 #@! TF.CreationDate,2018-10-13T15:30:37-04:00*
G04 #@! TF.ProjectId,GLVColoumbCounterTest,474C56436F6C6F756D62436F756E7465,rev?*
G04 #@! TF.SameCoordinates,Original*
G04 #@! TF.FileFunction,Legend,Bot*
G04 #@! TF.FilePolarity,Positive*
%FSLAX46Y46*%
G04 Gerber Fmt 4.6, Leading zero omitted, Abs format (unit mm)*
G04 Created by KiCad (PCBNEW (5.0.0)) date 10/13/18 15:30:37*
%MOMM*%
%LPD*%
G01*
G04 APERTURE LIST*
%ADD10C,0.300000*%
%ADD11C,0.500000*%
%ADD12C,0.200000*%
%ADD13C,0.010000*%
G04 APERTURE END LIST*
D10*
X100938142Y-79063428D02*
X101295285Y-77563428D01*
X101581000Y-78634857D01*
X101866714Y-77563428D01*
X102223857Y-79063428D01*
X102795285Y-77563428D02*
X102795285Y-78563428D01*
X102795285Y-79063428D02*
X102723857Y-78992000D01*
X102795285Y-78920571D01*
X102866714Y-78992000D01*
X102795285Y-79063428D01*
X102795285Y-78920571D01*
X103723857Y-77563428D02*
X103581000Y-77634857D01*
X103509571Y-77777714D01*
X103509571Y-79063428D01*
X104509571Y-77563428D02*
X104366714Y-77634857D01*
X104295285Y-77777714D01*
X104295285Y-79063428D01*
X105652428Y-77634857D02*
X105509571Y-77563428D01*
X105223857Y-77563428D01*
X105081000Y-77634857D01*
X105009571Y-77777714D01*
X105009571Y-78349142D01*
X105081000Y-78492000D01*
X105223857Y-78563428D01*
X105509571Y-78563428D01*
X105652428Y-78492000D01*
X105723857Y-78349142D01*
X105723857Y-78206285D01*
X105009571Y-78063428D01*
X106366714Y-77563428D02*
X106366714Y-78563428D01*
X106366714Y-78420571D02*
X106438142Y-78492000D01*
X106581000Y-78563428D01*
X106795285Y-78563428D01*
X106938142Y-78492000D01*
X107009571Y-78349142D01*
X107009571Y-77563428D01*
X107009571Y-78349142D02*
X107081000Y-78492000D01*
X107223857Y-78563428D01*
X107438142Y-78563428D01*
X107581000Y-78492000D01*
X107652428Y-78349142D01*
X107652428Y-77563428D01*
X109509571Y-77563428D02*
X109509571Y-79063428D01*
X109509571Y-78349142D02*
X110366714Y-78349142D01*
X110366714Y-77563428D02*
X110366714Y-79063428D01*
X111081000Y-77563428D02*
X111081000Y-78563428D01*
X111081000Y-79063428D02*
X111009571Y-78992000D01*
X111081000Y-78920571D01*
X111152428Y-78992000D01*
X111081000Y-79063428D01*
X111081000Y-78920571D01*
X112009571Y-77563428D02*
X111866714Y-77634857D01*
X111795285Y-77777714D01*
X111795285Y-79063428D01*
X112795285Y-77563428D02*
X112652428Y-77634857D01*
X112581000Y-77777714D01*
X112581000Y-79063428D01*
X113366714Y-77563428D02*
X113366714Y-78563428D01*
X113366714Y-79063428D02*
X113295285Y-78992000D01*
X113366714Y-78920571D01*
X113438142Y-78992000D01*
X113366714Y-79063428D01*
X113366714Y-78920571D01*
X114652428Y-77634857D02*
X114509571Y-77563428D01*
X114223857Y-77563428D01*
X114081000Y-77634857D01*
X114009571Y-77777714D01*
X114009571Y-78349142D01*
X114081000Y-78492000D01*
X114223857Y-78563428D01*
X114509571Y-78563428D01*
X114652428Y-78492000D01*
X114723857Y-78349142D01*
X114723857Y-78206285D01*
X114009571Y-78063428D01*
X115366714Y-77563428D02*
X115366714Y-78563428D01*
X115366714Y-78277714D02*
X115438142Y-78420571D01*
X115509571Y-78492000D01*
X115652428Y-78563428D01*
X115795285Y-78563428D01*
X105545285Y-75013428D02*
X104688142Y-75013428D01*
X105116714Y-75013428D02*
X105116714Y-76513428D01*
X104973857Y-76299142D01*
X104831000Y-76156285D01*
X104688142Y-76084857D01*
X106402428Y-75870571D02*
X106259571Y-75942000D01*
X106188142Y-76013428D01*
X106116714Y-76156285D01*
X106116714Y-76227714D01*
X106188142Y-76370571D01*
X106259571Y-76442000D01*
X106402428Y-76513428D01*
X106688142Y-76513428D01*
X106831000Y-76442000D01*
X106902428Y-76370571D01*
X106973857Y-76227714D01*
X106973857Y-76156285D01*
X106902428Y-76013428D01*
X106831000Y-75942000D01*
X106688142Y-75870571D01*
X106402428Y-75870571D01*
X106259571Y-75799142D01*
X106188142Y-75727714D01*
X106116714Y-75584857D01*
X106116714Y-75299142D01*
X106188142Y-75156285D01*
X106259571Y-75084857D01*
X106402428Y-75013428D01*
X106688142Y-75013428D01*
X106831000Y-75084857D01*
X106902428Y-75156285D01*
X106973857Y-75299142D01*
X106973857Y-75584857D01*
X106902428Y-75727714D01*
X106831000Y-75799142D01*
X106688142Y-75870571D01*
X107616714Y-75156285D02*
X107688142Y-75084857D01*
X107616714Y-75013428D01*
X107545285Y-75084857D01*
X107616714Y-75156285D01*
X107616714Y-75013428D01*
X108259571Y-76370571D02*
X108331000Y-76442000D01*
X108473857Y-76513428D01*
X108831000Y-76513428D01*
X108973857Y-76442000D01*
X109045285Y-76370571D01*
X109116714Y-76227714D01*
X109116714Y-76084857D01*
X109045285Y-75870571D01*
X108188142Y-75013428D01*
X109116714Y-75013428D01*
X109616714Y-76513428D02*
X110616714Y-76513428D01*
X109973857Y-75013428D01*
X111831000Y-76513428D02*
X111545285Y-76513428D01*
X111402428Y-76442000D01*
X111331000Y-76370571D01*
X111188142Y-76156285D01*
X111116714Y-75870571D01*
X111116714Y-75299142D01*
X111188142Y-75156285D01*
X111259571Y-75084857D01*
X111402428Y-75013428D01*
X111688142Y-75013428D01*
X111831000Y-75084857D01*
X111902428Y-75156285D01*
X111973857Y-75299142D01*
X111973857Y-75656285D01*
X111902428Y-75799142D01*
X111831000Y-75870571D01*
X111688142Y-75942000D01*
X111402428Y-75942000D01*
X111259571Y-75870571D01*
X111188142Y-75799142D01*
X111116714Y-75656285D01*
X102973857Y-73963428D02*
X102973857Y-72749142D01*
X103045285Y-72606285D01*
X103116714Y-72534857D01*
X103259571Y-72463428D01*
X103545285Y-72463428D01*
X103688142Y-72534857D01*
X103759571Y-72606285D01*
X103831000Y-72749142D01*
X103831000Y-73963428D01*
X104331000Y-73963428D02*
X104831000Y-72463428D01*
X105331000Y-73963428D01*
X105831000Y-72463428D02*
X105831000Y-73963428D01*
X106331000Y-72892000D01*
X106831000Y-73963428D01*
X106831000Y-72463428D01*
X108616714Y-72892000D02*
X109331000Y-72892000D01*
X108473857Y-72463428D02*
X108973857Y-73963428D01*
X109473857Y-72463428D01*
X109973857Y-73249142D02*
X110473857Y-73249142D01*
X110688142Y-72463428D02*
X109973857Y-72463428D01*
X109973857Y-73963428D01*
X110688142Y-73963428D01*
X112188142Y-72463428D02*
X111688142Y-73177714D01*
X111331000Y-72463428D02*
X111331000Y-73963428D01*
X111902428Y-73963428D01*
X112045285Y-73892000D01*
X112116714Y-73820571D01*
X112188142Y-73677714D01*
X112188142Y-73463428D01*
X112116714Y-73320571D01*
X112045285Y-73249142D01*
X111902428Y-73177714D01*
X111331000Y-73177714D01*
X113116714Y-73963428D02*
X113402428Y-73963428D01*
X113545285Y-73892000D01*
X113688142Y-73749142D01*
X113759571Y-73463428D01*
X113759571Y-72963428D01*
X113688142Y-72677714D01*
X113545285Y-72534857D01*
X113402428Y-72463428D01*
X113116714Y-72463428D01*
X112973857Y-72534857D01*
X112831000Y-72677714D01*
X112759571Y-72963428D01*
X112759571Y-73463428D01*
X112831000Y-73749142D01*
X112973857Y-73892000D01*
X113116714Y-73963428D01*
D11*
X129552761Y-65127142D02*
X129909904Y-64889047D01*
X130028952Y-64650952D01*
X130148000Y-64174761D01*
X130148000Y-63460476D01*
X130028952Y-62984285D01*
X129909904Y-62746190D01*
X129671809Y-62508095D01*
X128719428Y-62508095D01*
X128719428Y-67508095D01*
X129552761Y-67508095D01*
X129790857Y-67270000D01*
X129909904Y-67031904D01*
X130028952Y-66555714D01*
X130028952Y-66079523D01*
X129909904Y-65603333D01*
X129790857Y-65365238D01*
X129552761Y-65127142D01*
X128719428Y-65127142D01*
X131100380Y-63936666D02*
X132290857Y-63936666D01*
X130862285Y-62508095D02*
X131695619Y-67508095D01*
X132528952Y-62508095D01*
X133005142Y-67508095D02*
X134433714Y-67508095D01*
X133719428Y-62508095D02*
X133719428Y-67508095D01*
X134909904Y-67508095D02*
X136338476Y-67508095D01*
X135624190Y-62508095D02*
X135624190Y-67508095D01*
X137171809Y-62508095D02*
X137171809Y-67508095D01*
X138005142Y-63936666D01*
X138838476Y-67508095D01*
X138838476Y-62508095D01*
X140505142Y-67508095D02*
X140981333Y-67508095D01*
X141219428Y-67270000D01*
X141457523Y-66793809D01*
X141576571Y-65841428D01*
X141576571Y-64174761D01*
X141457523Y-63222380D01*
X141219428Y-62746190D01*
X140981333Y-62508095D01*
X140505142Y-62508095D01*
X140267047Y-62746190D01*
X140028952Y-63222380D01*
X139909904Y-64174761D01*
X139909904Y-65841428D01*
X140028952Y-66793809D01*
X140267047Y-67270000D01*
X140505142Y-67508095D01*
X142648000Y-62508095D02*
X142648000Y-67508095D01*
X144076571Y-62508095D01*
X144076571Y-67508095D01*
D10*
X155753714Y-47724285D02*
X155682285Y-47652857D01*
X155468000Y-47581428D01*
X155325142Y-47581428D01*
X155110857Y-47652857D01*
X154968000Y-47795714D01*
X154896571Y-47938571D01*
X154825142Y-48224285D01*
X154825142Y-48438571D01*
X154896571Y-48724285D01*
X154968000Y-48867142D01*
X155110857Y-49010000D01*
X155325142Y-49081428D01*
X155468000Y-49081428D01*
X155682285Y-49010000D01*
X155753714Y-48938571D01*
X156325142Y-48010000D02*
X157039428Y-48010000D01*
X156182285Y-47581428D02*
X156682285Y-49081428D01*
X157182285Y-47581428D01*
X157682285Y-47581428D02*
X157682285Y-49081428D01*
X158539428Y-47581428D01*
X158539428Y-49081428D01*
X134747142Y-55868000D02*
X134604285Y-55939428D01*
X134390000Y-55939428D01*
X134175714Y-55868000D01*
X134032857Y-55725142D01*
X133961428Y-55582285D01*
X133890000Y-55296571D01*
X133890000Y-55082285D01*
X133961428Y-54796571D01*
X134032857Y-54653714D01*
X134175714Y-54510857D01*
X134390000Y-54439428D01*
X134532857Y-54439428D01*
X134747142Y-54510857D01*
X134818571Y-54582285D01*
X134818571Y-55082285D01*
X134532857Y-55082285D01*
X135461428Y-54439428D02*
X135461428Y-55939428D01*
X136318571Y-54439428D01*
X136318571Y-55939428D01*
X137032857Y-54439428D02*
X137032857Y-55939428D01*
X137390000Y-55939428D01*
X137604285Y-55868000D01*
X137747142Y-55725142D01*
X137818571Y-55582285D01*
X137890000Y-55296571D01*
X137890000Y-55082285D01*
X137818571Y-54796571D01*
X137747142Y-54653714D01*
X137604285Y-54510857D01*
X137390000Y-54439428D01*
X137032857Y-54439428D01*
D12*
X129032000Y-53340000D02*
X129032000Y-51562000D01*
X143002000Y-53340000D02*
X129032000Y-53340000D01*
X143002000Y-51562000D02*
X143002000Y-53340000D01*
D10*
X125876857Y-64928000D02*
X125876857Y-63785142D01*
X125305428Y-64356571D02*
X126448285Y-64356571D01*
X125305428Y-62285142D02*
X125305428Y-63142285D01*
X125305428Y-62713714D02*
X126805428Y-62713714D01*
X126591142Y-62856571D01*
X126448285Y-62999428D01*
X126376857Y-63142285D01*
X126662571Y-61713714D02*
X126734000Y-61642285D01*
X126805428Y-61499428D01*
X126805428Y-61142285D01*
X126734000Y-60999428D01*
X126662571Y-60928000D01*
X126519714Y-60856571D01*
X126376857Y-60856571D01*
X126162571Y-60928000D01*
X125305428Y-61785142D01*
X125305428Y-60856571D01*
X126805428Y-60428000D02*
X125305428Y-59928000D01*
X126805428Y-59428000D01*
X125305428Y-57070857D02*
X125305428Y-57785142D01*
X126805428Y-57785142D01*
X126805428Y-56285142D02*
X126805428Y-55999428D01*
X126734000Y-55856571D01*
X126591142Y-55713714D01*
X126305428Y-55642285D01*
X125805428Y-55642285D01*
X125519714Y-55713714D01*
X125376857Y-55856571D01*
X125305428Y-55999428D01*
X125305428Y-56285142D01*
X125376857Y-56428000D01*
X125519714Y-56570857D01*
X125805428Y-56642285D01*
X126305428Y-56642285D01*
X126591142Y-56570857D01*
X126734000Y-56428000D01*
X126805428Y-56285142D01*
X125734000Y-55070857D02*
X125734000Y-54356571D01*
X125305428Y-55213714D02*
X126805428Y-54713714D01*
X125305428Y-54213714D01*
X125305428Y-53713714D02*
X126805428Y-53713714D01*
X126805428Y-53356571D01*
X126734000Y-53142285D01*
X126591142Y-52999428D01*
X126448285Y-52928000D01*
X126162571Y-52856571D01*
X125948285Y-52856571D01*
X125662571Y-52928000D01*
X125519714Y-52999428D01*
X125376857Y-53142285D01*
X125305428Y-53356571D01*
X125305428Y-53713714D01*
X120669857Y-67916285D02*
X120669857Y-66773428D01*
X120098428Y-67344857D02*
X121241285Y-67344857D01*
X120098428Y-65273428D02*
X120098428Y-66130571D01*
X120098428Y-65702000D02*
X121598428Y-65702000D01*
X121384142Y-65844857D01*
X121241285Y-65987714D01*
X121169857Y-66130571D01*
X121455571Y-64702000D02*
X121527000Y-64630571D01*
X121598428Y-64487714D01*
X121598428Y-64130571D01*
X121527000Y-63987714D01*
X121455571Y-63916285D01*
X121312714Y-63844857D01*
X121169857Y-63844857D01*
X120955571Y-63916285D01*
X120098428Y-64773428D01*
X120098428Y-63844857D01*
X121598428Y-63416285D02*
X120098428Y-62916285D01*
X121598428Y-62416285D01*
X120169857Y-60844857D02*
X120098428Y-60630571D01*
X120098428Y-60273428D01*
X120169857Y-60130571D01*
X120241285Y-60059142D01*
X120384142Y-59987714D01*
X120527000Y-59987714D01*
X120669857Y-60059142D01*
X120741285Y-60130571D01*
X120812714Y-60273428D01*
X120884142Y-60559142D01*
X120955571Y-60702000D01*
X121027000Y-60773428D01*
X121169857Y-60844857D01*
X121312714Y-60844857D01*
X121455571Y-60773428D01*
X121527000Y-60702000D01*
X121598428Y-60559142D01*
X121598428Y-60202000D01*
X121527000Y-59987714D01*
X121598428Y-59344857D02*
X120384142Y-59344857D01*
X120241285Y-59273428D01*
X120169857Y-59202000D01*
X120098428Y-59059142D01*
X120098428Y-58773428D01*
X120169857Y-58630571D01*
X120241285Y-58559142D01*
X120384142Y-58487714D01*
X121598428Y-58487714D01*
X120098428Y-57773428D02*
X121598428Y-57773428D01*
X121598428Y-57202000D01*
X121527000Y-57059142D01*
X121455571Y-56987714D01*
X121312714Y-56916285D01*
X121098428Y-56916285D01*
X120955571Y-56987714D01*
X120884142Y-57059142D01*
X120812714Y-57202000D01*
X120812714Y-57773428D01*
X120098428Y-56273428D02*
X121598428Y-56273428D01*
X121598428Y-55702000D01*
X121527000Y-55559142D01*
X121455571Y-55487714D01*
X121312714Y-55416285D01*
X121098428Y-55416285D01*
X120955571Y-55487714D01*
X120884142Y-55559142D01*
X120812714Y-55702000D01*
X120812714Y-56273428D01*
X120098428Y-54059142D02*
X120098428Y-54773428D01*
X121598428Y-54773428D01*
X120812714Y-53273428D02*
X120098428Y-53273428D01*
X121598428Y-53773428D02*
X120812714Y-53273428D01*
X121598428Y-52773428D01*
X115716857Y-71658571D02*
X115716857Y-70515714D01*
X115145428Y-71087142D02*
X116288285Y-71087142D01*
X115931142Y-69301428D02*
X115859714Y-69087142D01*
X115788285Y-69015714D01*
X115645428Y-68944285D01*
X115431142Y-68944285D01*
X115288285Y-69015714D01*
X115216857Y-69087142D01*
X115145428Y-69230000D01*
X115145428Y-69801428D01*
X116645428Y-69801428D01*
X116645428Y-69301428D01*
X116574000Y-69158571D01*
X116502571Y-69087142D01*
X116359714Y-69015714D01*
X116216857Y-69015714D01*
X116074000Y-69087142D01*
X116002571Y-69158571D01*
X115931142Y-69301428D01*
X115931142Y-69801428D01*
X115574000Y-68372857D02*
X115574000Y-67658571D01*
X115145428Y-68515714D02*
X116645428Y-68015714D01*
X115145428Y-67515714D01*
X116645428Y-67230000D02*
X116645428Y-66372857D01*
X115145428Y-66801428D02*
X116645428Y-66801428D01*
X116645428Y-66087142D02*
X116645428Y-65230000D01*
X115145428Y-65658571D02*
X116645428Y-65658571D01*
X115145428Y-62872857D02*
X115145428Y-63587142D01*
X116645428Y-63587142D01*
X115931142Y-62372857D02*
X115931142Y-61872857D01*
X115145428Y-61658571D02*
X115145428Y-62372857D01*
X116645428Y-62372857D01*
X116645428Y-61658571D01*
X115574000Y-61087142D02*
X115574000Y-60372857D01*
X115145428Y-61230000D02*
X116645428Y-60730000D01*
X115145428Y-60230000D01*
X115145428Y-59730000D02*
X116645428Y-59730000D01*
X116645428Y-59372857D01*
X116574000Y-59158571D01*
X116431142Y-59015714D01*
X116288285Y-58944285D01*
X116002571Y-58872857D01*
X115788285Y-58872857D01*
X115502571Y-58944285D01*
X115359714Y-59015714D01*
X115216857Y-59158571D01*
X115145428Y-59372857D01*
X115145428Y-59730000D01*
X115574000Y-57158571D02*
X115574000Y-56444285D01*
X115145428Y-57301428D02*
X116645428Y-56801428D01*
X115145428Y-56301428D01*
X115288285Y-54944285D02*
X115216857Y-55015714D01*
X115145428Y-55230000D01*
X115145428Y-55372857D01*
X115216857Y-55587142D01*
X115359714Y-55730000D01*
X115502571Y-55801428D01*
X115788285Y-55872857D01*
X116002571Y-55872857D01*
X116288285Y-55801428D01*
X116431142Y-55730000D01*
X116574000Y-55587142D01*
X116645428Y-55372857D01*
X116645428Y-55230000D01*
X116574000Y-55015714D01*
X116502571Y-54944285D01*
X115145428Y-54301428D02*
X116645428Y-54301428D01*
X115145428Y-53587142D02*
X116645428Y-53587142D01*
X116645428Y-53230000D01*
X116574000Y-53015714D01*
X116431142Y-52872857D01*
X116288285Y-52801428D01*
X116002571Y-52730000D01*
X115788285Y-52730000D01*
X115502571Y-52801428D01*
X115359714Y-52872857D01*
X115216857Y-53015714D01*
X115145428Y-53230000D01*
X115145428Y-53587142D01*
D13*
G04 #@! TO.C,G\002A\002A\002A*
G36*
X138090795Y-78997501D02*
X138110397Y-78869412D01*
X138129196Y-78681248D01*
X138142055Y-78498700D01*
X138159120Y-78235288D01*
X138178731Y-77974289D01*
X138197883Y-77754122D01*
X138207573Y-77660500D01*
X138241014Y-77368400D01*
X134724140Y-77368400D01*
X134747384Y-77508100D01*
X134760374Y-77610975D01*
X134779009Y-77790658D01*
X134800890Y-78022677D01*
X134823618Y-78282558D01*
X134825697Y-78307350D01*
X134847742Y-78554828D01*
X134868926Y-78763261D01*
X134887063Y-78913062D01*
X134899971Y-78984640D01*
X134901555Y-78987689D01*
X134956005Y-78982061D01*
X135040220Y-78884539D01*
X135155105Y-78693772D01*
X135301563Y-78408412D01*
X135334053Y-78341263D01*
X135441958Y-78116511D01*
X135538328Y-77915881D01*
X135611976Y-77762659D01*
X135649528Y-77684658D01*
X135673979Y-77640903D01*
X135708831Y-77610207D01*
X135770079Y-77590636D01*
X135873717Y-77580260D01*
X136035738Y-77577147D01*
X136272137Y-77579364D01*
X136490683Y-77583058D01*
X136800913Y-77590298D01*
X137023699Y-77600313D01*
X137173191Y-77614648D01*
X137263537Y-77634848D01*
X137308887Y-77662458D01*
X137316254Y-77673200D01*
X137353124Y-77746212D01*
X137424635Y-77890270D01*
X137520787Y-78085155D01*
X137631581Y-78310646D01*
X137641821Y-78331530D01*
X137779542Y-78609071D01*
X137882277Y-78806568D01*
X137957453Y-78936305D01*
X138012494Y-79010564D01*
X138054826Y-79041627D01*
X138073009Y-79044800D01*
X138090795Y-78997501D01*
X138090795Y-78997501D01*
G37*
X138090795Y-78997501D02*
X138110397Y-78869412D01*
X138129196Y-78681248D01*
X138142055Y-78498700D01*
X138159120Y-78235288D01*
X138178731Y-77974289D01*
X138197883Y-77754122D01*
X138207573Y-77660500D01*
X138241014Y-77368400D01*
X134724140Y-77368400D01*
X134747384Y-77508100D01*
X134760374Y-77610975D01*
X134779009Y-77790658D01*
X134800890Y-78022677D01*
X134823618Y-78282558D01*
X134825697Y-78307350D01*
X134847742Y-78554828D01*
X134868926Y-78763261D01*
X134887063Y-78913062D01*
X134899971Y-78984640D01*
X134901555Y-78987689D01*
X134956005Y-78982061D01*
X135040220Y-78884539D01*
X135155105Y-78693772D01*
X135301563Y-78408412D01*
X135334053Y-78341263D01*
X135441958Y-78116511D01*
X135538328Y-77915881D01*
X135611976Y-77762659D01*
X135649528Y-77684658D01*
X135673979Y-77640903D01*
X135708831Y-77610207D01*
X135770079Y-77590636D01*
X135873717Y-77580260D01*
X136035738Y-77577147D01*
X136272137Y-77579364D01*
X136490683Y-77583058D01*
X136800913Y-77590298D01*
X137023699Y-77600313D01*
X137173191Y-77614648D01*
X137263537Y-77634848D01*
X137308887Y-77662458D01*
X137316254Y-77673200D01*
X137353124Y-77746212D01*
X137424635Y-77890270D01*
X137520787Y-78085155D01*
X137631581Y-78310646D01*
X137641821Y-78331530D01*
X137779542Y-78609071D01*
X137882277Y-78806568D01*
X137957453Y-78936305D01*
X138012494Y-79010564D01*
X138054826Y-79041627D01*
X138073009Y-79044800D01*
X138090795Y-78997501D01*
G36*
X138845226Y-76301600D02*
X139207798Y-76301372D01*
X139481318Y-76295967D01*
X139678319Y-76278307D01*
X139811332Y-76241314D01*
X139892888Y-76177910D01*
X139935518Y-76081016D01*
X139951753Y-75943553D01*
X139954126Y-75758444D01*
X139954000Y-75675300D01*
X139954000Y-75234800D01*
X137718800Y-75234800D01*
X137718800Y-75684127D01*
X137719241Y-75884650D01*
X137728855Y-76036304D01*
X137760075Y-76145904D01*
X137825337Y-76220268D01*
X137937074Y-76266210D01*
X138107721Y-76290548D01*
X138349712Y-76300098D01*
X138675483Y-76301676D01*
X138845226Y-76301600D01*
X138845226Y-76301600D01*
G37*
X138845226Y-76301600D02*
X139207798Y-76301372D01*
X139481318Y-76295967D01*
X139678319Y-76278307D01*
X139811332Y-76241314D01*
X139892888Y-76177910D01*
X139935518Y-76081016D01*
X139951753Y-75943553D01*
X139954126Y-75758444D01*
X139954000Y-75675300D01*
X139954000Y-75234800D01*
X137718800Y-75234800D01*
X137718800Y-75684127D01*
X137719241Y-75884650D01*
X137728855Y-76036304D01*
X137760075Y-76145904D01*
X137825337Y-76220268D01*
X137937074Y-76266210D01*
X138107721Y-76290548D01*
X138349712Y-76300098D01*
X138675483Y-76301676D01*
X138845226Y-76301600D01*
G36*
X134222426Y-76301600D02*
X134584998Y-76301372D01*
X134858518Y-76295967D01*
X135055519Y-76278307D01*
X135188532Y-76241314D01*
X135270088Y-76177910D01*
X135312718Y-76081016D01*
X135328953Y-75943553D01*
X135331326Y-75758444D01*
X135331200Y-75675300D01*
X135331200Y-75234800D01*
X133096000Y-75234800D01*
X133096000Y-75684127D01*
X133096441Y-75884650D01*
X133106055Y-76036304D01*
X133137275Y-76145904D01*
X133202537Y-76220268D01*
X133314274Y-76266210D01*
X133484921Y-76290548D01*
X133726912Y-76300098D01*
X134052683Y-76301676D01*
X134222426Y-76301600D01*
X134222426Y-76301600D01*
G37*
X134222426Y-76301600D02*
X134584998Y-76301372D01*
X134858518Y-76295967D01*
X135055519Y-76278307D01*
X135188532Y-76241314D01*
X135270088Y-76177910D01*
X135312718Y-76081016D01*
X135328953Y-75943553D01*
X135331326Y-75758444D01*
X135331200Y-75675300D01*
X135331200Y-75234800D01*
X133096000Y-75234800D01*
X133096000Y-75684127D01*
X133096441Y-75884650D01*
X133106055Y-76036304D01*
X133137275Y-76145904D01*
X133202537Y-76220268D01*
X133314274Y-76266210D01*
X133484921Y-76290548D01*
X133726912Y-76300098D01*
X134052683Y-76301676D01*
X134222426Y-76301600D01*
G36*
X136127591Y-74777637D02*
X136524999Y-74777600D01*
X137316974Y-74777715D01*
X138013721Y-74777755D01*
X138621611Y-74777264D01*
X139147017Y-74775786D01*
X139596310Y-74772864D01*
X139975862Y-74768041D01*
X140292043Y-74760863D01*
X140551226Y-74750871D01*
X140759783Y-74737611D01*
X140924084Y-74720625D01*
X141050502Y-74699458D01*
X141145407Y-74673652D01*
X141215172Y-74642753D01*
X141266168Y-74606302D01*
X141304767Y-74563844D01*
X141337340Y-74514924D01*
X141370258Y-74459083D01*
X141388299Y-74429292D01*
X141503400Y-74244200D01*
X141503400Y-71348600D01*
X141503436Y-70709012D01*
X141502997Y-70163068D01*
X141501256Y-69702814D01*
X141497389Y-69320295D01*
X141490570Y-69007557D01*
X141479974Y-68756643D01*
X141464776Y-68559601D01*
X141444151Y-68408474D01*
X141417274Y-68295308D01*
X141383319Y-68212148D01*
X141341462Y-68151040D01*
X141290876Y-68104029D01*
X141230738Y-68063159D01*
X141160222Y-68020477D01*
X141158033Y-68019144D01*
X141127226Y-68001922D01*
X141090599Y-67986817D01*
X141041667Y-67973691D01*
X140973950Y-67962405D01*
X140880964Y-67952821D01*
X140756227Y-67944798D01*
X140593256Y-67938199D01*
X140385568Y-67932886D01*
X140126682Y-67928718D01*
X139810114Y-67925558D01*
X139429381Y-67923266D01*
X138978002Y-67921704D01*
X138449493Y-67920734D01*
X137837373Y-67920216D01*
X137135158Y-67920011D01*
X136525000Y-67919980D01*
X135748520Y-67920037D01*
X135067158Y-67920300D01*
X134474431Y-67920908D01*
X133963857Y-67922000D01*
X133528951Y-67923713D01*
X133163233Y-67926189D01*
X132860219Y-67929564D01*
X132613427Y-67933977D01*
X132416375Y-67939568D01*
X132262579Y-67946476D01*
X132145557Y-67954838D01*
X132058827Y-67964793D01*
X131995905Y-67976482D01*
X131950310Y-67990041D01*
X131915559Y-68005610D01*
X131891966Y-68019144D01*
X131821139Y-68061996D01*
X131760714Y-68102807D01*
X131709866Y-68149530D01*
X131667769Y-68210122D01*
X131633598Y-68292537D01*
X131606529Y-68404729D01*
X131585736Y-68554654D01*
X131570393Y-68750266D01*
X131559677Y-68999520D01*
X131552761Y-69310370D01*
X131548820Y-69690773D01*
X131547030Y-70148681D01*
X131546565Y-70692051D01*
X131546599Y-71328837D01*
X131546600Y-71348600D01*
X131546600Y-71729600D01*
X132638800Y-71729600D01*
X132638800Y-70967600D01*
X134975600Y-70967600D01*
X134975600Y-70971953D01*
X138019236Y-70971953D01*
X138415118Y-70957077D01*
X138811000Y-70942200D01*
X138825836Y-70548500D01*
X138840673Y-70154800D01*
X139594126Y-70154800D01*
X139623800Y-70942200D01*
X140411200Y-70971874D01*
X140411200Y-71729600D01*
X139598400Y-71729600D01*
X139598400Y-72491600D01*
X138836400Y-72491600D01*
X138836400Y-71733874D01*
X138049000Y-71704200D01*
X138034118Y-71338077D01*
X138019236Y-70971953D01*
X134975600Y-70971953D01*
X134975600Y-71729600D01*
X132638800Y-71729600D01*
X131546600Y-71729600D01*
X131546600Y-74244200D01*
X131661700Y-74429292D01*
X131697089Y-74488663D01*
X131729034Y-74540891D01*
X131763907Y-74586435D01*
X131808079Y-74625749D01*
X131867921Y-74659291D01*
X131949806Y-74687517D01*
X132060104Y-74710883D01*
X132205188Y-74729845D01*
X132391429Y-74744860D01*
X132625198Y-74756384D01*
X132912867Y-74764873D01*
X133260808Y-74770784D01*
X133675392Y-74774573D01*
X134162991Y-74776697D01*
X134729976Y-74777611D01*
X135382719Y-74777772D01*
X136127591Y-74777637D01*
X136127591Y-74777637D01*
G37*
X136127591Y-74777637D02*
X136524999Y-74777600D01*
X137316974Y-74777715D01*
X138013721Y-74777755D01*
X138621611Y-74777264D01*
X139147017Y-74775786D01*
X139596310Y-74772864D01*
X139975862Y-74768041D01*
X140292043Y-74760863D01*
X140551226Y-74750871D01*
X140759783Y-74737611D01*
X140924084Y-74720625D01*
X141050502Y-74699458D01*
X141145407Y-74673652D01*
X141215172Y-74642753D01*
X141266168Y-74606302D01*
X141304767Y-74563844D01*
X141337340Y-74514924D01*
X141370258Y-74459083D01*
X141388299Y-74429292D01*
X141503400Y-74244200D01*
X141503400Y-71348600D01*
X141503436Y-70709012D01*
X141502997Y-70163068D01*
X141501256Y-69702814D01*
X141497389Y-69320295D01*
X141490570Y-69007557D01*
X141479974Y-68756643D01*
X141464776Y-68559601D01*
X141444151Y-68408474D01*
X141417274Y-68295308D01*
X141383319Y-68212148D01*
X141341462Y-68151040D01*
X141290876Y-68104029D01*
X141230738Y-68063159D01*
X141160222Y-68020477D01*
X141158033Y-68019144D01*
X141127226Y-68001922D01*
X141090599Y-67986817D01*
X141041667Y-67973691D01*
X140973950Y-67962405D01*
X140880964Y-67952821D01*
X140756227Y-67944798D01*
X140593256Y-67938199D01*
X140385568Y-67932886D01*
X140126682Y-67928718D01*
X139810114Y-67925558D01*
X139429381Y-67923266D01*
X138978002Y-67921704D01*
X138449493Y-67920734D01*
X137837373Y-67920216D01*
X137135158Y-67920011D01*
X136525000Y-67919980D01*
X135748520Y-67920037D01*
X135067158Y-67920300D01*
X134474431Y-67920908D01*
X133963857Y-67922000D01*
X133528951Y-67923713D01*
X133163233Y-67926189D01*
X132860219Y-67929564D01*
X132613427Y-67933977D01*
X132416375Y-67939568D01*
X132262579Y-67946476D01*
X132145557Y-67954838D01*
X132058827Y-67964793D01*
X131995905Y-67976482D01*
X131950310Y-67990041D01*
X131915559Y-68005610D01*
X131891966Y-68019144D01*
X131821139Y-68061996D01*
X131760714Y-68102807D01*
X131709866Y-68149530D01*
X131667769Y-68210122D01*
X131633598Y-68292537D01*
X131606529Y-68404729D01*
X131585736Y-68554654D01*
X131570393Y-68750266D01*
X131559677Y-68999520D01*
X131552761Y-69310370D01*
X131548820Y-69690773D01*
X131547030Y-70148681D01*
X131546565Y-70692051D01*
X131546599Y-71328837D01*
X131546600Y-71348600D01*
X131546600Y-71729600D01*
X132638800Y-71729600D01*
X132638800Y-70967600D01*
X134975600Y-70967600D01*
X134975600Y-70971953D01*
X138019236Y-70971953D01*
X138415118Y-70957077D01*
X138811000Y-70942200D01*
X138825836Y-70548500D01*
X138840673Y-70154800D01*
X139594126Y-70154800D01*
X139623800Y-70942200D01*
X140411200Y-70971874D01*
X140411200Y-71729600D01*
X139598400Y-71729600D01*
X139598400Y-72491600D01*
X138836400Y-72491600D01*
X138836400Y-71733874D01*
X138049000Y-71704200D01*
X138034118Y-71338077D01*
X138019236Y-70971953D01*
X134975600Y-70971953D01*
X134975600Y-71729600D01*
X132638800Y-71729600D01*
X131546600Y-71729600D01*
X131546600Y-74244200D01*
X131661700Y-74429292D01*
X131697089Y-74488663D01*
X131729034Y-74540891D01*
X131763907Y-74586435D01*
X131808079Y-74625749D01*
X131867921Y-74659291D01*
X131949806Y-74687517D01*
X132060104Y-74710883D01*
X132205188Y-74729845D01*
X132391429Y-74744860D01*
X132625198Y-74756384D01*
X132912867Y-74764873D01*
X133260808Y-74770784D01*
X133675392Y-74774573D01*
X134162991Y-74776697D01*
X134729976Y-74777611D01*
X135382719Y-74777772D01*
X136127591Y-74777637D01*
G36*
X142719865Y-78417734D02*
X142875537Y-78369587D01*
X143090406Y-78297134D01*
X143346769Y-78206752D01*
X143626923Y-78104816D01*
X143913167Y-77997702D01*
X144187799Y-77891787D01*
X144433115Y-77793446D01*
X144500265Y-77765570D01*
X145492817Y-77319332D01*
X146389243Y-76853616D01*
X147188912Y-76368896D01*
X147891195Y-75865649D01*
X148495461Y-75344350D01*
X149001082Y-74805474D01*
X149407427Y-74249497D01*
X149600165Y-73914000D01*
X149745361Y-73618634D01*
X149849618Y-73361066D01*
X149919235Y-73112921D01*
X149960506Y-72845819D01*
X149979727Y-72531385D01*
X149983386Y-72186800D01*
X149970915Y-71735791D01*
X149931705Y-71351784D01*
X149858615Y-71002092D01*
X149744504Y-70654026D01*
X149582229Y-70274898D01*
X149551351Y-70209239D01*
X149210499Y-69606044D01*
X148776959Y-69031272D01*
X148256940Y-68490060D01*
X147656650Y-67987541D01*
X146982296Y-67528851D01*
X146240085Y-67119125D01*
X145436227Y-66763498D01*
X145341515Y-66726837D01*
X145116337Y-66641292D01*
X144969351Y-66587185D01*
X144883943Y-66559414D01*
X144843502Y-66552876D01*
X144831416Y-66562470D01*
X144830800Y-66569993D01*
X144855465Y-66620102D01*
X144921713Y-66736611D01*
X145017924Y-66899367D01*
X145080675Y-67003389D01*
X145327244Y-67468551D01*
X145482166Y-67900291D01*
X145545096Y-68296646D01*
X145515692Y-68655655D01*
X145417497Y-68930672D01*
X145272277Y-69159121D01*
X145079884Y-69348893D01*
X144819254Y-69518289D01*
X144632886Y-69612368D01*
X144269116Y-69737182D01*
X143890361Y-69774197D01*
X143489435Y-69722465D01*
X143059149Y-69581038D01*
X142592316Y-69348969D01*
X142579540Y-69341668D01*
X142163800Y-69103357D01*
X142150670Y-71921906D01*
X142137540Y-74740456D01*
X142379270Y-74982953D01*
X142713404Y-75387406D01*
X142965195Y-75842476D01*
X143128091Y-76333652D01*
X143192698Y-76784200D01*
X143184379Y-77196615D01*
X143102506Y-77565334D01*
X142938311Y-77921500D01*
X142819895Y-78108571D01*
X142720696Y-78261089D01*
X142656181Y-78375566D01*
X142637121Y-78432324D01*
X142641091Y-78435200D01*
X142719865Y-78417734D01*
X142719865Y-78417734D01*
G37*
X142719865Y-78417734D02*
X142875537Y-78369587D01*
X143090406Y-78297134D01*
X143346769Y-78206752D01*
X143626923Y-78104816D01*
X143913167Y-77997702D01*
X144187799Y-77891787D01*
X144433115Y-77793446D01*
X144500265Y-77765570D01*
X145492817Y-77319332D01*
X146389243Y-76853616D01*
X147188912Y-76368896D01*
X147891195Y-75865649D01*
X148495461Y-75344350D01*
X149001082Y-74805474D01*
X149407427Y-74249497D01*
X149600165Y-73914000D01*
X149745361Y-73618634D01*
X149849618Y-73361066D01*
X149919235Y-73112921D01*
X149960506Y-72845819D01*
X149979727Y-72531385D01*
X149983386Y-72186800D01*
X149970915Y-71735791D01*
X149931705Y-71351784D01*
X149858615Y-71002092D01*
X149744504Y-70654026D01*
X149582229Y-70274898D01*
X149551351Y-70209239D01*
X149210499Y-69606044D01*
X148776959Y-69031272D01*
X148256940Y-68490060D01*
X147656650Y-67987541D01*
X146982296Y-67528851D01*
X146240085Y-67119125D01*
X145436227Y-66763498D01*
X145341515Y-66726837D01*
X145116337Y-66641292D01*
X144969351Y-66587185D01*
X144883943Y-66559414D01*
X144843502Y-66552876D01*
X144831416Y-66562470D01*
X144830800Y-66569993D01*
X144855465Y-66620102D01*
X144921713Y-66736611D01*
X145017924Y-66899367D01*
X145080675Y-67003389D01*
X145327244Y-67468551D01*
X145482166Y-67900291D01*
X145545096Y-68296646D01*
X145515692Y-68655655D01*
X145417497Y-68930672D01*
X145272277Y-69159121D01*
X145079884Y-69348893D01*
X144819254Y-69518289D01*
X144632886Y-69612368D01*
X144269116Y-69737182D01*
X143890361Y-69774197D01*
X143489435Y-69722465D01*
X143059149Y-69581038D01*
X142592316Y-69348969D01*
X142579540Y-69341668D01*
X142163800Y-69103357D01*
X142150670Y-71921906D01*
X142137540Y-74740456D01*
X142379270Y-74982953D01*
X142713404Y-75387406D01*
X142965195Y-75842476D01*
X143128091Y-76333652D01*
X143192698Y-76784200D01*
X143184379Y-77196615D01*
X143102506Y-77565334D01*
X142938311Y-77921500D01*
X142819895Y-78108571D01*
X142720696Y-78261089D01*
X142656181Y-78375566D01*
X142637121Y-78432324D01*
X142641091Y-78435200D01*
X142719865Y-78417734D01*
G36*
X130338537Y-78415596D02*
X130326409Y-78364028D01*
X130263170Y-78268484D01*
X130236491Y-78235443D01*
X129999260Y-77877864D01*
X129847172Y-77479706D01*
X129778783Y-77053544D01*
X129792647Y-76611952D01*
X129887320Y-76167505D01*
X130061359Y-75732776D01*
X130313319Y-75320340D01*
X130611257Y-74972840D01*
X130962400Y-74621697D01*
X130962400Y-68988450D01*
X130605166Y-69219543D01*
X130109903Y-69500274D01*
X129642255Y-69683482D01*
X129201389Y-69769178D01*
X128786470Y-69757376D01*
X128396664Y-69648087D01*
X128031137Y-69441324D01*
X127812211Y-69260335D01*
X127590758Y-69001151D01*
X127458909Y-68716203D01*
X127414123Y-68394868D01*
X127453859Y-68026523D01*
X127485128Y-67892688D01*
X127551149Y-67700363D01*
X127658038Y-67454492D01*
X127790322Y-67186078D01*
X127932527Y-66926122D01*
X128069180Y-66705627D01*
X128099234Y-66662300D01*
X128144251Y-66589844D01*
X128137869Y-66558278D01*
X128067454Y-66566696D01*
X127920373Y-66614193D01*
X127838200Y-66643586D01*
X127055139Y-66963741D01*
X126319059Y-67338095D01*
X125638406Y-67760071D01*
X125021623Y-68223093D01*
X124477156Y-68720586D01*
X124013451Y-69245974D01*
X123638952Y-69792679D01*
X123521847Y-70004539D01*
X123298906Y-70473355D01*
X123140321Y-70902935D01*
X123038078Y-71325350D01*
X122984165Y-71772677D01*
X122970336Y-72212200D01*
X122972655Y-72501586D01*
X122982217Y-72718797D01*
X123002828Y-72893197D01*
X123038292Y-73054155D01*
X123092415Y-73231035D01*
X123108563Y-73279000D01*
X123372803Y-73907478D01*
X123723664Y-74490252D01*
X124165732Y-75034510D01*
X124349276Y-75223570D01*
X124948592Y-75759153D01*
X125634358Y-76269294D01*
X126409212Y-76755501D01*
X127275797Y-77219286D01*
X128236752Y-77662159D01*
X129294719Y-78085629D01*
X129463800Y-78148250D01*
X129796906Y-78268317D01*
X130043585Y-78352245D01*
X130211446Y-78402360D01*
X130308101Y-78420987D01*
X130338537Y-78415596D01*
X130338537Y-78415596D01*
G37*
X130338537Y-78415596D02*
X130326409Y-78364028D01*
X130263170Y-78268484D01*
X130236491Y-78235443D01*
X129999260Y-77877864D01*
X129847172Y-77479706D01*
X129778783Y-77053544D01*
X129792647Y-76611952D01*
X129887320Y-76167505D01*
X130061359Y-75732776D01*
X130313319Y-75320340D01*
X130611257Y-74972840D01*
X130962400Y-74621697D01*
X130962400Y-68988450D01*
X130605166Y-69219543D01*
X130109903Y-69500274D01*
X129642255Y-69683482D01*
X129201389Y-69769178D01*
X128786470Y-69757376D01*
X128396664Y-69648087D01*
X128031137Y-69441324D01*
X127812211Y-69260335D01*
X127590758Y-69001151D01*
X127458909Y-68716203D01*
X127414123Y-68394868D01*
X127453859Y-68026523D01*
X127485128Y-67892688D01*
X127551149Y-67700363D01*
X127658038Y-67454492D01*
X127790322Y-67186078D01*
X127932527Y-66926122D01*
X128069180Y-66705627D01*
X128099234Y-66662300D01*
X128144251Y-66589844D01*
X128137869Y-66558278D01*
X128067454Y-66566696D01*
X127920373Y-66614193D01*
X127838200Y-66643586D01*
X127055139Y-66963741D01*
X126319059Y-67338095D01*
X125638406Y-67760071D01*
X125021623Y-68223093D01*
X124477156Y-68720586D01*
X124013451Y-69245974D01*
X123638952Y-69792679D01*
X123521847Y-70004539D01*
X123298906Y-70473355D01*
X123140321Y-70902935D01*
X123038078Y-71325350D01*
X122984165Y-71772677D01*
X122970336Y-72212200D01*
X122972655Y-72501586D01*
X122982217Y-72718797D01*
X123002828Y-72893197D01*
X123038292Y-73054155D01*
X123092415Y-73231035D01*
X123108563Y-73279000D01*
X123372803Y-73907478D01*
X123723664Y-74490252D01*
X124165732Y-75034510D01*
X124349276Y-75223570D01*
X124948592Y-75759153D01*
X125634358Y-76269294D01*
X126409212Y-76755501D01*
X127275797Y-77219286D01*
X128236752Y-77662159D01*
X129294719Y-78085629D01*
X129463800Y-78148250D01*
X129796906Y-78268317D01*
X130043585Y-78352245D01*
X130211446Y-78402360D01*
X130308101Y-78420987D01*
X130338537Y-78415596D01*
G36*
X136542848Y-66262106D02*
X136535459Y-66197552D01*
X136504923Y-66170290D01*
X136451122Y-66183815D01*
X136430317Y-66218092D01*
X136438381Y-66283420D01*
X136475794Y-66294000D01*
X136542848Y-66262106D01*
X136542848Y-66262106D01*
G37*
X136542848Y-66262106D02*
X136535459Y-66197552D01*
X136504923Y-66170290D01*
X136451122Y-66183815D01*
X136430317Y-66218092D01*
X136438381Y-66283420D01*
X136475794Y-66294000D01*
X136542848Y-66262106D01*
G04 #@! TD*
M02*
