G04 #@! TF.GenerationSoftware,KiCad,Pcbnew,(5.0.2)-1*
G04 #@! TF.CreationDate,2019-03-06T22:55:48-05:00*
G04 #@! TF.ProjectId,v2,76322e6b-6963-4616-945f-706362585858,rev?*
G04 #@! TF.SameCoordinates,Original*
G04 #@! TF.FileFunction,Soldermask,Bot*
G04 #@! TF.FilePolarity,Negative*
%FSLAX46Y46*%
G04 Gerber Fmt 4.6, Leading zero omitted, Abs format (unit mm)*
G04 Created by KiCad (PCBNEW (5.0.2)-1) date 3/6/2019 10:55:48 PM*
%MOMM*%
%LPD*%
G01*
G04 APERTURE LIST*
%ADD10C,0.100000*%
G04 APERTURE END LIST*
D10*
G36*
X100268758Y-85948837D02*
X100268761Y-85948838D01*
X100268762Y-85948838D01*
X100527196Y-86027233D01*
X100765371Y-86154540D01*
X100806945Y-86188659D01*
X100974137Y-86325869D01*
X101145459Y-86534626D01*
X101272766Y-86772801D01*
X101351163Y-87031241D01*
X101371000Y-87232651D01*
X101371000Y-88027348D01*
X101351163Y-88228758D01*
X101351162Y-88228761D01*
X101351162Y-88228763D01*
X101272766Y-88487199D01*
X101145459Y-88725374D01*
X100974134Y-88934134D01*
X100765374Y-89105459D01*
X100582070Y-89203437D01*
X100527197Y-89232767D01*
X100268763Y-89311162D01*
X100268762Y-89311162D01*
X100268759Y-89311163D01*
X100000000Y-89337633D01*
X99731242Y-89311163D01*
X99731239Y-89311162D01*
X99731238Y-89311162D01*
X99472804Y-89232767D01*
X99234629Y-89105460D01*
X99025867Y-88934134D01*
X99025863Y-88934131D01*
X98854541Y-88725374D01*
X98727234Y-88487199D01*
X98648837Y-88228759D01*
X98629000Y-88027349D01*
X98629000Y-87232652D01*
X98648837Y-87031242D01*
X98648838Y-87031238D01*
X98727233Y-86772804D01*
X98854540Y-86534629D01*
X99025866Y-86325867D01*
X99025867Y-86325866D01*
X99025869Y-86325863D01*
X99234626Y-86154541D01*
X99472801Y-86027234D01*
X99472803Y-86027233D01*
X99731237Y-85948838D01*
X99731238Y-85948838D01*
X99731241Y-85948837D01*
X100000000Y-85922367D01*
X100268758Y-85948837D01*
X100268758Y-85948837D01*
G37*
G36*
X105383437Y-85932635D02*
X105413028Y-85941611D01*
X105440297Y-85956187D01*
X105464198Y-85975802D01*
X105483813Y-85999703D01*
X105498389Y-86026972D01*
X105507365Y-86056563D01*
X105511000Y-86093473D01*
X105511000Y-89166527D01*
X105507365Y-89203437D01*
X105498389Y-89233028D01*
X105483813Y-89260297D01*
X105464198Y-89284198D01*
X105440297Y-89303813D01*
X105413028Y-89318389D01*
X105383437Y-89327365D01*
X105346527Y-89331000D01*
X102933473Y-89331000D01*
X102896563Y-89327365D01*
X102866972Y-89318389D01*
X102839703Y-89303813D01*
X102815802Y-89284198D01*
X102796187Y-89260297D01*
X102781611Y-89233028D01*
X102772635Y-89203437D01*
X102769000Y-89166527D01*
X102769000Y-86093473D01*
X102772635Y-86056563D01*
X102781611Y-86026972D01*
X102796187Y-85999703D01*
X102815802Y-85975802D01*
X102839703Y-85956187D01*
X102866972Y-85941611D01*
X102896563Y-85932635D01*
X102933473Y-85929000D01*
X105346527Y-85929000D01*
X105383437Y-85932635D01*
X105383437Y-85932635D01*
G37*
G36*
X96038661Y-86052062D02*
X96337304Y-86175764D01*
X96606079Y-86355354D01*
X96834646Y-86583921D01*
X97014236Y-86852696D01*
X97137938Y-87151339D01*
X97201000Y-87468374D01*
X97201000Y-87791626D01*
X97137938Y-88108661D01*
X97014236Y-88407304D01*
X96834646Y-88676079D01*
X96606079Y-88904646D01*
X96337304Y-89084236D01*
X96038661Y-89207938D01*
X95721626Y-89271000D01*
X95398374Y-89271000D01*
X95081339Y-89207938D01*
X94782696Y-89084236D01*
X94513921Y-88904646D01*
X94285354Y-88676079D01*
X94105764Y-88407304D01*
X93982062Y-88108661D01*
X93919000Y-87791626D01*
X93919000Y-87468374D01*
X93982062Y-87151339D01*
X94105764Y-86852696D01*
X94285354Y-86583921D01*
X94513921Y-86355354D01*
X94782696Y-86175764D01*
X95081339Y-86052062D01*
X95398374Y-85989000D01*
X95721626Y-85989000D01*
X96038661Y-86052062D01*
X96038661Y-86052062D01*
G37*
G36*
X127810721Y-83055174D02*
X127910995Y-83096709D01*
X128001245Y-83157012D01*
X128077988Y-83233755D01*
X128138291Y-83324005D01*
X128179826Y-83424279D01*
X128201000Y-83530730D01*
X128201000Y-83639270D01*
X128179826Y-83745721D01*
X128138291Y-83845995D01*
X128077988Y-83936245D01*
X128001245Y-84012988D01*
X127910995Y-84073291D01*
X127810721Y-84114826D01*
X127704270Y-84136000D01*
X127595730Y-84136000D01*
X127489279Y-84114826D01*
X127389005Y-84073291D01*
X127298755Y-84012988D01*
X127222012Y-83936245D01*
X127161709Y-83845995D01*
X127120174Y-83745721D01*
X127099000Y-83639270D01*
X127099000Y-83530730D01*
X127120174Y-83424279D01*
X127161709Y-83324005D01*
X127222012Y-83233755D01*
X127298755Y-83157012D01*
X127389005Y-83096709D01*
X127489279Y-83055174D01*
X127595730Y-83034000D01*
X127704270Y-83034000D01*
X127810721Y-83055174D01*
X127810721Y-83055174D01*
G37*
G36*
X112770256Y-79836298D02*
X112876579Y-79857447D01*
X113177042Y-79981903D01*
X113437958Y-80156242D01*
X113447454Y-80162587D01*
X113677413Y-80392546D01*
X113858098Y-80662960D01*
X113982553Y-80963422D01*
X114046000Y-81282389D01*
X114046000Y-81607611D01*
X113982553Y-81926578D01*
X113858098Y-82227040D01*
X113677413Y-82497454D01*
X113447454Y-82727413D01*
X113447451Y-82727415D01*
X113177042Y-82908097D01*
X112876579Y-83032553D01*
X112770256Y-83053702D01*
X112557611Y-83096000D01*
X112232389Y-83096000D01*
X112019744Y-83053702D01*
X111913421Y-83032553D01*
X111612958Y-82908097D01*
X111342549Y-82727415D01*
X111342546Y-82727413D01*
X111112587Y-82497454D01*
X110931902Y-82227040D01*
X110807447Y-81926578D01*
X110744000Y-81607611D01*
X110744000Y-81282389D01*
X110807447Y-80963422D01*
X110931902Y-80662960D01*
X111112587Y-80392546D01*
X111342546Y-80162587D01*
X111352042Y-80156242D01*
X111612958Y-79981903D01*
X111913421Y-79857447D01*
X112019744Y-79836298D01*
X112232389Y-79794000D01*
X112557611Y-79794000D01*
X112770256Y-79836298D01*
X112770256Y-79836298D01*
G37*
G36*
X131590721Y-79275174D02*
X131690995Y-79316709D01*
X131781245Y-79377012D01*
X131857988Y-79453755D01*
X131918291Y-79544005D01*
X131959826Y-79644279D01*
X131981000Y-79750730D01*
X131981000Y-79859270D01*
X131959826Y-79965721D01*
X131918291Y-80065995D01*
X131857988Y-80156245D01*
X131781245Y-80232988D01*
X131690995Y-80293291D01*
X131590721Y-80334826D01*
X131484270Y-80356000D01*
X131375730Y-80356000D01*
X131269279Y-80334826D01*
X131169005Y-80293291D01*
X131078755Y-80232988D01*
X131002012Y-80156245D01*
X130941709Y-80065995D01*
X130900174Y-79965721D01*
X130879000Y-79859270D01*
X130879000Y-79750730D01*
X130900174Y-79644279D01*
X130941709Y-79544005D01*
X131002012Y-79453755D01*
X131078755Y-79377012D01*
X131169005Y-79316709D01*
X131269279Y-79275174D01*
X131375730Y-79254000D01*
X131484270Y-79254000D01*
X131590721Y-79275174D01*
X131590721Y-79275174D01*
G37*
G36*
X100268758Y-73248837D02*
X100268761Y-73248838D01*
X100268762Y-73248838D01*
X100527196Y-73327233D01*
X100765371Y-73454540D01*
X100806945Y-73488659D01*
X100974137Y-73625869D01*
X101145459Y-73834626D01*
X101272766Y-74072801D01*
X101351163Y-74331241D01*
X101371000Y-74532651D01*
X101371000Y-75327348D01*
X101351163Y-75528758D01*
X101351162Y-75528761D01*
X101351162Y-75528763D01*
X101272766Y-75787199D01*
X101145459Y-76025374D01*
X100974134Y-76234134D01*
X100765374Y-76405459D01*
X100582070Y-76503437D01*
X100527197Y-76532767D01*
X100268763Y-76611162D01*
X100268762Y-76611162D01*
X100268759Y-76611163D01*
X100000000Y-76637633D01*
X99731242Y-76611163D01*
X99731239Y-76611162D01*
X99731238Y-76611162D01*
X99472804Y-76532767D01*
X99234629Y-76405460D01*
X99025867Y-76234134D01*
X99025863Y-76234131D01*
X98854541Y-76025374D01*
X98727234Y-75787199D01*
X98648837Y-75528759D01*
X98629000Y-75327349D01*
X98629000Y-74532652D01*
X98648837Y-74331242D01*
X98648838Y-74331238D01*
X98727233Y-74072804D01*
X98854540Y-73834629D01*
X99025866Y-73625867D01*
X99025867Y-73625866D01*
X99025869Y-73625863D01*
X99234626Y-73454541D01*
X99472801Y-73327234D01*
X99472803Y-73327233D01*
X99731237Y-73248838D01*
X99731238Y-73248838D01*
X99731241Y-73248837D01*
X100000000Y-73222367D01*
X100268758Y-73248837D01*
X100268758Y-73248837D01*
G37*
G36*
X105383437Y-73232635D02*
X105413028Y-73241611D01*
X105440297Y-73256187D01*
X105464198Y-73275802D01*
X105483813Y-73299703D01*
X105498389Y-73326972D01*
X105507365Y-73356563D01*
X105511000Y-73393473D01*
X105511000Y-76466527D01*
X105507365Y-76503437D01*
X105498389Y-76533028D01*
X105483813Y-76560297D01*
X105464198Y-76584198D01*
X105440297Y-76603813D01*
X105413028Y-76618389D01*
X105383437Y-76627365D01*
X105346527Y-76631000D01*
X102933473Y-76631000D01*
X102896563Y-76627365D01*
X102866972Y-76618389D01*
X102839703Y-76603813D01*
X102815802Y-76584198D01*
X102796187Y-76560297D01*
X102781611Y-76533028D01*
X102772635Y-76503437D01*
X102769000Y-76466527D01*
X102769000Y-73393473D01*
X102772635Y-73356563D01*
X102781611Y-73326972D01*
X102796187Y-73299703D01*
X102815802Y-73275802D01*
X102839703Y-73256187D01*
X102866972Y-73241611D01*
X102896563Y-73232635D01*
X102933473Y-73229000D01*
X105346527Y-73229000D01*
X105383437Y-73232635D01*
X105383437Y-73232635D01*
G37*
G36*
X96038661Y-73352062D02*
X96337304Y-73475764D01*
X96606079Y-73655354D01*
X96834646Y-73883921D01*
X97014236Y-74152696D01*
X97137938Y-74451339D01*
X97201000Y-74768374D01*
X97201000Y-75091626D01*
X97137938Y-75408661D01*
X97014236Y-75707304D01*
X96834646Y-75976079D01*
X96606079Y-76204646D01*
X96337304Y-76384236D01*
X96038661Y-76507938D01*
X95721626Y-76571000D01*
X95398374Y-76571000D01*
X95081339Y-76507938D01*
X94782696Y-76384236D01*
X94513921Y-76204646D01*
X94285354Y-75976079D01*
X94105764Y-75707304D01*
X93982062Y-75408661D01*
X93919000Y-75091626D01*
X93919000Y-74768374D01*
X93982062Y-74451339D01*
X94105764Y-74152696D01*
X94285354Y-73883921D01*
X94513921Y-73655354D01*
X94782696Y-73475764D01*
X95081339Y-73352062D01*
X95398374Y-73289000D01*
X95721626Y-73289000D01*
X96038661Y-73352062D01*
X96038661Y-73352062D01*
G37*
M02*
