G04 #@! TF.GenerationSoftware,KiCad,Pcbnew,(5.0.2)-1*
G04 #@! TF.CreationDate,2019-03-06T22:55:48-05:00*
G04 #@! TF.ProjectId,v2,76322e6b-6963-4616-945f-706362585858,rev?*
G04 #@! TF.SameCoordinates,Original*
G04 #@! TF.FileFunction,Copper,L2,Bot*
G04 #@! TF.FilePolarity,Positive*
%FSLAX46Y46*%
G04 Gerber Fmt 4.6, Leading zero omitted, Abs format (unit mm)*
G04 Created by KiCad (PCBNEW (5.0.2)-1) date 3/6/2019 10:55:48 PM*
%MOMM*%
%LPD*%
G01*
G04 APERTURE LIST*
G04 #@! TA.AperFunction,Conductor*
%ADD10C,0.100000*%
G04 #@! TD*
G04 #@! TA.AperFunction,ComponentPad*
%ADD11C,2.640000*%
G04 #@! TD*
G04 #@! TA.AperFunction,ComponentPad*
%ADD12O,2.640000X3.300000*%
G04 #@! TD*
G04 APERTURE END LIST*
D10*
G04 #@! TO.N,Net-(J1-Pad1)*
G04 #@! TO.C,J1*
G36*
X105234504Y-85981204D02*
X105258773Y-85984804D01*
X105282571Y-85990765D01*
X105305671Y-85999030D01*
X105327849Y-86009520D01*
X105348893Y-86022133D01*
X105368598Y-86036747D01*
X105386777Y-86053223D01*
X105403253Y-86071402D01*
X105417867Y-86091107D01*
X105430480Y-86112151D01*
X105440970Y-86134329D01*
X105449235Y-86157429D01*
X105455196Y-86181227D01*
X105458796Y-86205496D01*
X105460000Y-86230000D01*
X105460000Y-89030000D01*
X105458796Y-89054504D01*
X105455196Y-89078773D01*
X105449235Y-89102571D01*
X105440970Y-89125671D01*
X105430480Y-89147849D01*
X105417867Y-89168893D01*
X105403253Y-89188598D01*
X105386777Y-89206777D01*
X105368598Y-89223253D01*
X105348893Y-89237867D01*
X105327849Y-89250480D01*
X105305671Y-89260970D01*
X105282571Y-89269235D01*
X105258773Y-89275196D01*
X105234504Y-89278796D01*
X105210000Y-89280000D01*
X103070000Y-89280000D01*
X103045496Y-89278796D01*
X103021227Y-89275196D01*
X102997429Y-89269235D01*
X102974329Y-89260970D01*
X102952151Y-89250480D01*
X102931107Y-89237867D01*
X102911402Y-89223253D01*
X102893223Y-89206777D01*
X102876747Y-89188598D01*
X102862133Y-89168893D01*
X102849520Y-89147849D01*
X102839030Y-89125671D01*
X102830765Y-89102571D01*
X102824804Y-89078773D01*
X102821204Y-89054504D01*
X102820000Y-89030000D01*
X102820000Y-86230000D01*
X102821204Y-86205496D01*
X102824804Y-86181227D01*
X102830765Y-86157429D01*
X102839030Y-86134329D01*
X102849520Y-86112151D01*
X102862133Y-86091107D01*
X102876747Y-86071402D01*
X102893223Y-86053223D01*
X102911402Y-86036747D01*
X102931107Y-86022133D01*
X102952151Y-86009520D01*
X102974329Y-85999030D01*
X102997429Y-85990765D01*
X103021227Y-85984804D01*
X103045496Y-85981204D01*
X103070000Y-85980000D01*
X105210000Y-85980000D01*
X105234504Y-85981204D01*
X105234504Y-85981204D01*
G37*
D11*
G04 #@! TD*
G04 #@! TO.P,J1,1*
G04 #@! TO.N,Net-(J1-Pad1)*
X104140000Y-87630000D03*
D12*
G04 #@! TO.P,J1,2*
G04 #@! TO.N,Net-(J1-Pad1)*
X100000000Y-87630000D03*
G04 #@! TD*
D10*
G04 #@! TO.N,Net-(J2-Pad1)*
G04 #@! TO.C,J2*
G36*
X105234504Y-73281204D02*
X105258773Y-73284804D01*
X105282571Y-73290765D01*
X105305671Y-73299030D01*
X105327849Y-73309520D01*
X105348893Y-73322133D01*
X105368598Y-73336747D01*
X105386777Y-73353223D01*
X105403253Y-73371402D01*
X105417867Y-73391107D01*
X105430480Y-73412151D01*
X105440970Y-73434329D01*
X105449235Y-73457429D01*
X105455196Y-73481227D01*
X105458796Y-73505496D01*
X105460000Y-73530000D01*
X105460000Y-76330000D01*
X105458796Y-76354504D01*
X105455196Y-76378773D01*
X105449235Y-76402571D01*
X105440970Y-76425671D01*
X105430480Y-76447849D01*
X105417867Y-76468893D01*
X105403253Y-76488598D01*
X105386777Y-76506777D01*
X105368598Y-76523253D01*
X105348893Y-76537867D01*
X105327849Y-76550480D01*
X105305671Y-76560970D01*
X105282571Y-76569235D01*
X105258773Y-76575196D01*
X105234504Y-76578796D01*
X105210000Y-76580000D01*
X103070000Y-76580000D01*
X103045496Y-76578796D01*
X103021227Y-76575196D01*
X102997429Y-76569235D01*
X102974329Y-76560970D01*
X102952151Y-76550480D01*
X102931107Y-76537867D01*
X102911402Y-76523253D01*
X102893223Y-76506777D01*
X102876747Y-76488598D01*
X102862133Y-76468893D01*
X102849520Y-76447849D01*
X102839030Y-76425671D01*
X102830765Y-76402571D01*
X102824804Y-76378773D01*
X102821204Y-76354504D01*
X102820000Y-76330000D01*
X102820000Y-73530000D01*
X102821204Y-73505496D01*
X102824804Y-73481227D01*
X102830765Y-73457429D01*
X102839030Y-73434329D01*
X102849520Y-73412151D01*
X102862133Y-73391107D01*
X102876747Y-73371402D01*
X102893223Y-73353223D01*
X102911402Y-73336747D01*
X102931107Y-73322133D01*
X102952151Y-73309520D01*
X102974329Y-73299030D01*
X102997429Y-73290765D01*
X103021227Y-73284804D01*
X103045496Y-73281204D01*
X103070000Y-73280000D01*
X105210000Y-73280000D01*
X105234504Y-73281204D01*
X105234504Y-73281204D01*
G37*
D11*
G04 #@! TD*
G04 #@! TO.P,J2,1*
G04 #@! TO.N,Net-(J2-Pad1)*
X104140000Y-74930000D03*
D12*
G04 #@! TO.P,J2,2*
G04 #@! TO.N,Net-(J2-Pad1)*
X100000000Y-74930000D03*
G04 #@! TD*
M02*
