G04 #@! TF.GenerationSoftware,KiCad,Pcbnew,(5.0.2)-1*
G04 #@! TF.CreationDate,2019-03-06T22:55:48-05:00*
G04 #@! TF.ProjectId,v2,76322e6b-6963-4616-945f-706362585858,rev?*
G04 #@! TF.SameCoordinates,Original*
G04 #@! TF.FileFunction,Legend,Top*
G04 #@! TF.FilePolarity,Positive*
%FSLAX46Y46*%
G04 Gerber Fmt 4.6, Leading zero omitted, Abs format (unit mm)*
G04 Created by KiCad (PCBNEW (5.0.2)-1) date 3/6/2019 10:55:48 PM*
%MOMM*%
%LPD*%
G01*
G04 APERTURE LIST*
%ADD10C,0.600000*%
%ADD11C,0.010000*%
%ADD12C,0.100000*%
%ADD13C,0.180000*%
%ADD14C,0.120000*%
%ADD15C,0.150000*%
G04 APERTURE END LIST*
D10*
X108204190Y-74618714D02*
X111251809Y-74618714D01*
X108204190Y-88334714D02*
X111251809Y-88334714D01*
X109728000Y-89858523D02*
X109728000Y-86810904D01*
D11*
G04 #@! TO.C,G\002A\002A\002A*
G36*
X102492149Y-79380813D02*
X102132940Y-80360427D01*
X102676576Y-80360427D01*
X102881642Y-80360846D01*
X103025832Y-80362861D01*
X103118241Y-80367611D01*
X103167965Y-80376234D01*
X103184100Y-80389869D01*
X103175739Y-80409654D01*
X103165711Y-80421653D01*
X103137708Y-80458473D01*
X103072995Y-80546537D01*
X102975622Y-80680215D01*
X102849640Y-80853877D01*
X102699100Y-81061893D01*
X102528052Y-81298633D01*
X102340547Y-81558466D01*
X102140636Y-81835763D01*
X101932370Y-82124893D01*
X101719800Y-82420227D01*
X101506975Y-82716134D01*
X101297947Y-83006985D01*
X101096767Y-83287148D01*
X100907485Y-83550995D01*
X100734153Y-83792895D01*
X100580819Y-84007217D01*
X100451537Y-84188333D01*
X100350355Y-84330611D01*
X100281326Y-84428422D01*
X100248499Y-84476136D01*
X100247780Y-84477265D01*
X100250543Y-84458674D01*
X100274309Y-84380209D01*
X100317011Y-84248056D01*
X100376583Y-84068402D01*
X100450959Y-83847431D01*
X100538072Y-83591332D01*
X100635855Y-83306288D01*
X100728841Y-83037142D01*
X100835724Y-82728551D01*
X100935231Y-82440885D01*
X101025085Y-82180757D01*
X101103006Y-81954778D01*
X101166718Y-81769560D01*
X101213942Y-81631716D01*
X101242401Y-81547858D01*
X101250138Y-81523987D01*
X101217177Y-81520836D01*
X101126394Y-81518166D01*
X100989941Y-81516186D01*
X100819966Y-81515108D01*
X100730214Y-81514973D01*
X100210291Y-81514973D01*
X100601051Y-80631570D01*
X100724594Y-80352003D01*
X100857933Y-80049805D01*
X100992710Y-79743947D01*
X101120569Y-79453400D01*
X101233154Y-79197135D01*
X101286848Y-79074683D01*
X101581883Y-78401199D01*
X102851357Y-78401199D01*
X102492149Y-79380813D01*
X102492149Y-79380813D01*
G37*
X102492149Y-79380813D02*
X102132940Y-80360427D01*
X102676576Y-80360427D01*
X102881642Y-80360846D01*
X103025832Y-80362861D01*
X103118241Y-80367611D01*
X103167965Y-80376234D01*
X103184100Y-80389869D01*
X103175739Y-80409654D01*
X103165711Y-80421653D01*
X103137708Y-80458473D01*
X103072995Y-80546537D01*
X102975622Y-80680215D01*
X102849640Y-80853877D01*
X102699100Y-81061893D01*
X102528052Y-81298633D01*
X102340547Y-81558466D01*
X102140636Y-81835763D01*
X101932370Y-82124893D01*
X101719800Y-82420227D01*
X101506975Y-82716134D01*
X101297947Y-83006985D01*
X101096767Y-83287148D01*
X100907485Y-83550995D01*
X100734153Y-83792895D01*
X100580819Y-84007217D01*
X100451537Y-84188333D01*
X100350355Y-84330611D01*
X100281326Y-84428422D01*
X100248499Y-84476136D01*
X100247780Y-84477265D01*
X100250543Y-84458674D01*
X100274309Y-84380209D01*
X100317011Y-84248056D01*
X100376583Y-84068402D01*
X100450959Y-83847431D01*
X100538072Y-83591332D01*
X100635855Y-83306288D01*
X100728841Y-83037142D01*
X100835724Y-82728551D01*
X100935231Y-82440885D01*
X101025085Y-82180757D01*
X101103006Y-81954778D01*
X101166718Y-81769560D01*
X101213942Y-81631716D01*
X101242401Y-81547858D01*
X101250138Y-81523987D01*
X101217177Y-81520836D01*
X101126394Y-81518166D01*
X100989941Y-81516186D01*
X100819966Y-81515108D01*
X100730214Y-81514973D01*
X100210291Y-81514973D01*
X100601051Y-80631570D01*
X100724594Y-80352003D01*
X100857933Y-80049805D01*
X100992710Y-79743947D01*
X101120569Y-79453400D01*
X101233154Y-79197135D01*
X101286848Y-79074683D01*
X101581883Y-78401199D01*
X102851357Y-78401199D01*
X102492149Y-79380813D01*
G36*
X96378661Y-79179988D02*
X96981818Y-79783884D01*
X96981818Y-83104646D01*
X97164802Y-83289931D01*
X97347786Y-83475217D01*
X96945759Y-83877243D01*
X96543733Y-84279270D01*
X96142654Y-83877050D01*
X95741576Y-83474830D01*
X96107162Y-83104646D01*
X96107162Y-82389628D01*
X95337465Y-82389628D01*
X95337465Y-83104646D01*
X95520449Y-83289931D01*
X95703433Y-83475217D01*
X94899380Y-84279270D01*
X94097224Y-83474830D01*
X94280016Y-83289738D01*
X94462810Y-83104646D01*
X94462810Y-81479986D01*
X95337465Y-81479986D01*
X96107162Y-81479986D01*
X96107162Y-80340990D01*
X95724087Y-79939620D01*
X95341011Y-79538251D01*
X95339238Y-80509119D01*
X95337465Y-81479986D01*
X94462810Y-81479986D01*
X94462810Y-79887422D01*
X95119157Y-79231757D01*
X95775505Y-78576091D01*
X96378661Y-79179988D01*
X96378661Y-79179988D01*
G37*
X96378661Y-79179988D02*
X96981818Y-79783884D01*
X96981818Y-83104646D01*
X97164802Y-83289931D01*
X97347786Y-83475217D01*
X96945759Y-83877243D01*
X96543733Y-84279270D01*
X96142654Y-83877050D01*
X95741576Y-83474830D01*
X96107162Y-83104646D01*
X96107162Y-82389628D01*
X95337465Y-82389628D01*
X95337465Y-83104646D01*
X95520449Y-83289931D01*
X95703433Y-83475217D01*
X94899380Y-84279270D01*
X94097224Y-83474830D01*
X94280016Y-83289738D01*
X94462810Y-83104646D01*
X94462810Y-81479986D01*
X95337465Y-81479986D01*
X96107162Y-81479986D01*
X96107162Y-80340990D01*
X95724087Y-79939620D01*
X95341011Y-79538251D01*
X95339238Y-80509119D01*
X95337465Y-81479986D01*
X94462810Y-81479986D01*
X94462810Y-79887422D01*
X95119157Y-79231757D01*
X95775505Y-78576091D01*
X96378661Y-79179988D01*
G36*
X99473136Y-79230679D02*
X100112039Y-79870283D01*
X99780765Y-80202940D01*
X99449492Y-80535597D01*
X98967859Y-80054886D01*
X98486226Y-79574174D01*
X98486226Y-81028091D01*
X99150537Y-81017882D01*
X99814849Y-81007672D01*
X99387219Y-81436254D01*
X98959590Y-81864835D01*
X98486226Y-81864835D01*
X98486226Y-82875874D01*
X98610933Y-82970994D01*
X98735641Y-83066113D01*
X99092411Y-82710558D01*
X99449180Y-82355002D01*
X99764803Y-82670625D01*
X100080425Y-82986248D01*
X99430845Y-83632566D01*
X99256340Y-83805587D01*
X99098292Y-83961125D01*
X98963385Y-84092697D01*
X98858304Y-84193821D01*
X98789732Y-84258012D01*
X98764546Y-84278884D01*
X98736135Y-84255205D01*
X98665585Y-84188800D01*
X98560039Y-84086616D01*
X98426639Y-83955602D01*
X98272526Y-83802704D01*
X98179699Y-83709972D01*
X97611570Y-83141060D01*
X97611570Y-79820604D01*
X98222902Y-79205840D01*
X98834234Y-78591075D01*
X99473136Y-79230679D01*
X99473136Y-79230679D01*
G37*
X99473136Y-79230679D02*
X100112039Y-79870283D01*
X99780765Y-80202940D01*
X99449492Y-80535597D01*
X98967859Y-80054886D01*
X98486226Y-79574174D01*
X98486226Y-81028091D01*
X99150537Y-81017882D01*
X99814849Y-81007672D01*
X99387219Y-81436254D01*
X98959590Y-81864835D01*
X98486226Y-81864835D01*
X98486226Y-82875874D01*
X98610933Y-82970994D01*
X98735641Y-83066113D01*
X99092411Y-82710558D01*
X99449180Y-82355002D01*
X99764803Y-82670625D01*
X100080425Y-82986248D01*
X99430845Y-83632566D01*
X99256340Y-83805587D01*
X99098292Y-83961125D01*
X98963385Y-84092697D01*
X98858304Y-84193821D01*
X98789732Y-84258012D01*
X98764546Y-84278884D01*
X98736135Y-84255205D01*
X98665585Y-84188800D01*
X98560039Y-84086616D01*
X98426639Y-83955602D01*
X98272526Y-83802704D01*
X98179699Y-83709972D01*
X97611570Y-83141060D01*
X97611570Y-79820604D01*
X98222902Y-79205840D01*
X98834234Y-78591075D01*
X99473136Y-79230679D01*
G36*
X105685094Y-79075121D02*
X106183195Y-79574113D01*
X106183195Y-80481495D01*
X105572357Y-81095177D01*
X105895269Y-81419437D01*
X106218182Y-81743698D01*
X106218182Y-83104646D01*
X106401166Y-83289931D01*
X106584149Y-83475217D01*
X105780096Y-84279270D01*
X104995312Y-83491694D01*
X105167904Y-83299270D01*
X105340497Y-83106846D01*
X105342011Y-82651428D01*
X105343526Y-82196011D01*
X104958678Y-81812356D01*
X104573829Y-81428700D01*
X104573829Y-83144463D01*
X104749146Y-83317144D01*
X104924464Y-83489825D01*
X104531053Y-83884355D01*
X104396179Y-84018260D01*
X104278343Y-84132693D01*
X104186396Y-84219262D01*
X104129184Y-84269577D01*
X104115023Y-84278884D01*
X104084378Y-84254858D01*
X104014426Y-84188504D01*
X103913856Y-84088412D01*
X103791358Y-83963171D01*
X103709510Y-83878024D01*
X103326618Y-83477164D01*
X103512896Y-83293200D01*
X103699173Y-83109236D01*
X103699173Y-80972343D01*
X104503857Y-80972343D01*
X104949759Y-80526440D01*
X105395662Y-80080537D01*
X104503857Y-79188732D01*
X104503857Y-80972343D01*
X103699173Y-80972343D01*
X103699173Y-79680225D01*
X103498879Y-79477818D01*
X103298585Y-79275412D01*
X103646914Y-78925771D01*
X103995244Y-78576130D01*
X105186993Y-78576130D01*
X105685094Y-79075121D01*
X105685094Y-79075121D01*
G37*
X105685094Y-79075121D02*
X106183195Y-79574113D01*
X106183195Y-80481495D01*
X105572357Y-81095177D01*
X105895269Y-81419437D01*
X106218182Y-81743698D01*
X106218182Y-83104646D01*
X106401166Y-83289931D01*
X106584149Y-83475217D01*
X105780096Y-84279270D01*
X104995312Y-83491694D01*
X105167904Y-83299270D01*
X105340497Y-83106846D01*
X105342011Y-82651428D01*
X105343526Y-82196011D01*
X104958678Y-81812356D01*
X104573829Y-81428700D01*
X104573829Y-83144463D01*
X104749146Y-83317144D01*
X104924464Y-83489825D01*
X104531053Y-83884355D01*
X104396179Y-84018260D01*
X104278343Y-84132693D01*
X104186396Y-84219262D01*
X104129184Y-84269577D01*
X104115023Y-84278884D01*
X104084378Y-84254858D01*
X104014426Y-84188504D01*
X103913856Y-84088412D01*
X103791358Y-83963171D01*
X103709510Y-83878024D01*
X103326618Y-83477164D01*
X103512896Y-83293200D01*
X103699173Y-83109236D01*
X103699173Y-80972343D01*
X104503857Y-80972343D01*
X104949759Y-80526440D01*
X105395662Y-80080537D01*
X104503857Y-79188732D01*
X104503857Y-80972343D01*
X103699173Y-80972343D01*
X103699173Y-79680225D01*
X103498879Y-79477818D01*
X103298585Y-79275412D01*
X103646914Y-78925771D01*
X103995244Y-78576130D01*
X105186993Y-78576130D01*
X105685094Y-79075121D01*
G36*
X108492292Y-79188394D02*
X109122038Y-79817412D01*
X109122038Y-82967592D01*
X107809332Y-84278934D01*
X106638016Y-83106096D01*
X106638016Y-82823625D01*
X107512672Y-82823625D01*
X107624987Y-82939504D01*
X107737301Y-83055384D01*
X107974849Y-82819656D01*
X108212397Y-82583929D01*
X108212397Y-80236663D01*
X107862534Y-79888113D01*
X107512672Y-79539564D01*
X107512672Y-82823625D01*
X106638016Y-82823625D01*
X106638016Y-79782405D01*
X107250281Y-79170890D01*
X107862545Y-78559376D01*
X108492292Y-79188394D01*
X108492292Y-79188394D01*
G37*
X108492292Y-79188394D02*
X109122038Y-79817412D01*
X109122038Y-82967592D01*
X107809332Y-84278934D01*
X106638016Y-83106096D01*
X106638016Y-82823625D01*
X107512672Y-82823625D01*
X107624987Y-82939504D01*
X107737301Y-83055384D01*
X107974849Y-82819656D01*
X108212397Y-82583929D01*
X108212397Y-80236663D01*
X107862534Y-79888113D01*
X107512672Y-79539564D01*
X107512672Y-82823625D01*
X106638016Y-82823625D01*
X106638016Y-79782405D01*
X107250281Y-79170890D01*
X107862545Y-78559376D01*
X108492292Y-79188394D01*
D12*
G04 #@! TO.C,D1*
X129040000Y-81945000D02*
X129540000Y-81445000D01*
X130040000Y-81945000D02*
X129040000Y-81945000D01*
X129540000Y-81445000D02*
X130040000Y-81945000D01*
X130040000Y-81445000D02*
X129040000Y-81445000D01*
D13*
X128290000Y-79695000D02*
X130790000Y-79695000D01*
X128290000Y-83695000D02*
X128290000Y-79695000D01*
X130790000Y-83695000D02*
X128290000Y-83695000D01*
X130790000Y-79695000D02*
X130790000Y-83695000D01*
X127000000Y-79155000D02*
X132080000Y-79155000D01*
X127000000Y-84235000D02*
X127000000Y-79155000D01*
X132080000Y-84235000D02*
X127000000Y-84235000D01*
X132080000Y-79155000D02*
X132080000Y-84235000D01*
D14*
G04 #@! TO.C,R1*
X114558578Y-88975000D02*
X114041422Y-88975000D01*
X114558578Y-87555000D02*
X114041422Y-87555000D01*
G04 #@! TO.C,R2*
X114558578Y-74855000D02*
X114041422Y-74855000D01*
X114558578Y-76275000D02*
X114041422Y-76275000D01*
G04 #@! TO.C,R3*
X118368578Y-87555000D02*
X117851422Y-87555000D01*
X118368578Y-88975000D02*
X117851422Y-88975000D01*
G04 #@! TO.C,R4*
X118368578Y-76275000D02*
X117851422Y-76275000D01*
X118368578Y-74855000D02*
X117851422Y-74855000D01*
G04 #@! TO.C,R5*
X122178578Y-88975000D02*
X121661422Y-88975000D01*
X122178578Y-87555000D02*
X121661422Y-87555000D01*
G04 #@! TO.C,R6*
X122178578Y-74855000D02*
X121661422Y-74855000D01*
X122178578Y-76275000D02*
X121661422Y-76275000D01*
G04 #@! TO.C,R7*
X125988578Y-87555000D02*
X125471422Y-87555000D01*
X125988578Y-88975000D02*
X125471422Y-88975000D01*
G04 #@! TO.C,R8*
X125988578Y-76275000D02*
X125471422Y-76275000D01*
X125988578Y-74855000D02*
X125471422Y-74855000D01*
G04 #@! TO.C,R9*
X129798578Y-88975000D02*
X129281422Y-88975000D01*
X129798578Y-87555000D02*
X129281422Y-87555000D01*
G04 #@! TO.C,R10*
X129798578Y-74855000D02*
X129281422Y-74855000D01*
X129798578Y-76275000D02*
X129281422Y-76275000D01*
G04 #@! TO.C,D1*
D15*
X124737904Y-82147380D02*
X124737904Y-81147380D01*
X124976000Y-81147380D01*
X125118857Y-81195000D01*
X125214095Y-81290238D01*
X125261714Y-81385476D01*
X125309333Y-81575952D01*
X125309333Y-81718809D01*
X125261714Y-81909285D01*
X125214095Y-82004523D01*
X125118857Y-82099761D01*
X124976000Y-82147380D01*
X124737904Y-82147380D01*
X126261714Y-82147380D02*
X125690285Y-82147380D01*
X125976000Y-82147380D02*
X125976000Y-81147380D01*
X125880761Y-81290238D01*
X125785523Y-81385476D01*
X125690285Y-81433095D01*
G04 #@! TO.C,R1*
X114133333Y-90367380D02*
X113800000Y-89891190D01*
X113561904Y-90367380D02*
X113561904Y-89367380D01*
X113942857Y-89367380D01*
X114038095Y-89415000D01*
X114085714Y-89462619D01*
X114133333Y-89557857D01*
X114133333Y-89700714D01*
X114085714Y-89795952D01*
X114038095Y-89843571D01*
X113942857Y-89891190D01*
X113561904Y-89891190D01*
X115085714Y-90367380D02*
X114514285Y-90367380D01*
X114800000Y-90367380D02*
X114800000Y-89367380D01*
X114704761Y-89510238D01*
X114609523Y-89605476D01*
X114514285Y-89653095D01*
G04 #@! TO.C,R2*
X114133333Y-77667380D02*
X113800000Y-77191190D01*
X113561904Y-77667380D02*
X113561904Y-76667380D01*
X113942857Y-76667380D01*
X114038095Y-76715000D01*
X114085714Y-76762619D01*
X114133333Y-76857857D01*
X114133333Y-77000714D01*
X114085714Y-77095952D01*
X114038095Y-77143571D01*
X113942857Y-77191190D01*
X113561904Y-77191190D01*
X114514285Y-76762619D02*
X114561904Y-76715000D01*
X114657142Y-76667380D01*
X114895238Y-76667380D01*
X114990476Y-76715000D01*
X115038095Y-76762619D01*
X115085714Y-76857857D01*
X115085714Y-76953095D01*
X115038095Y-77095952D01*
X114466666Y-77667380D01*
X115085714Y-77667380D01*
G04 #@! TO.C,R3*
X117943333Y-90367380D02*
X117610000Y-89891190D01*
X117371904Y-90367380D02*
X117371904Y-89367380D01*
X117752857Y-89367380D01*
X117848095Y-89415000D01*
X117895714Y-89462619D01*
X117943333Y-89557857D01*
X117943333Y-89700714D01*
X117895714Y-89795952D01*
X117848095Y-89843571D01*
X117752857Y-89891190D01*
X117371904Y-89891190D01*
X118276666Y-89367380D02*
X118895714Y-89367380D01*
X118562380Y-89748333D01*
X118705238Y-89748333D01*
X118800476Y-89795952D01*
X118848095Y-89843571D01*
X118895714Y-89938809D01*
X118895714Y-90176904D01*
X118848095Y-90272142D01*
X118800476Y-90319761D01*
X118705238Y-90367380D01*
X118419523Y-90367380D01*
X118324285Y-90319761D01*
X118276666Y-90272142D01*
G04 #@! TO.C,R4*
X117943333Y-77667380D02*
X117610000Y-77191190D01*
X117371904Y-77667380D02*
X117371904Y-76667380D01*
X117752857Y-76667380D01*
X117848095Y-76715000D01*
X117895714Y-76762619D01*
X117943333Y-76857857D01*
X117943333Y-77000714D01*
X117895714Y-77095952D01*
X117848095Y-77143571D01*
X117752857Y-77191190D01*
X117371904Y-77191190D01*
X118800476Y-77000714D02*
X118800476Y-77667380D01*
X118562380Y-76619761D02*
X118324285Y-77334047D01*
X118943333Y-77334047D01*
G04 #@! TO.C,R5*
X121753333Y-90367380D02*
X121420000Y-89891190D01*
X121181904Y-90367380D02*
X121181904Y-89367380D01*
X121562857Y-89367380D01*
X121658095Y-89415000D01*
X121705714Y-89462619D01*
X121753333Y-89557857D01*
X121753333Y-89700714D01*
X121705714Y-89795952D01*
X121658095Y-89843571D01*
X121562857Y-89891190D01*
X121181904Y-89891190D01*
X122658095Y-89367380D02*
X122181904Y-89367380D01*
X122134285Y-89843571D01*
X122181904Y-89795952D01*
X122277142Y-89748333D01*
X122515238Y-89748333D01*
X122610476Y-89795952D01*
X122658095Y-89843571D01*
X122705714Y-89938809D01*
X122705714Y-90176904D01*
X122658095Y-90272142D01*
X122610476Y-90319761D01*
X122515238Y-90367380D01*
X122277142Y-90367380D01*
X122181904Y-90319761D01*
X122134285Y-90272142D01*
G04 #@! TO.C,R6*
X121753333Y-77667380D02*
X121420000Y-77191190D01*
X121181904Y-77667380D02*
X121181904Y-76667380D01*
X121562857Y-76667380D01*
X121658095Y-76715000D01*
X121705714Y-76762619D01*
X121753333Y-76857857D01*
X121753333Y-77000714D01*
X121705714Y-77095952D01*
X121658095Y-77143571D01*
X121562857Y-77191190D01*
X121181904Y-77191190D01*
X122610476Y-76667380D02*
X122420000Y-76667380D01*
X122324761Y-76715000D01*
X122277142Y-76762619D01*
X122181904Y-76905476D01*
X122134285Y-77095952D01*
X122134285Y-77476904D01*
X122181904Y-77572142D01*
X122229523Y-77619761D01*
X122324761Y-77667380D01*
X122515238Y-77667380D01*
X122610476Y-77619761D01*
X122658095Y-77572142D01*
X122705714Y-77476904D01*
X122705714Y-77238809D01*
X122658095Y-77143571D01*
X122610476Y-77095952D01*
X122515238Y-77048333D01*
X122324761Y-77048333D01*
X122229523Y-77095952D01*
X122181904Y-77143571D01*
X122134285Y-77238809D01*
G04 #@! TO.C,R7*
X125563333Y-90367380D02*
X125230000Y-89891190D01*
X124991904Y-90367380D02*
X124991904Y-89367380D01*
X125372857Y-89367380D01*
X125468095Y-89415000D01*
X125515714Y-89462619D01*
X125563333Y-89557857D01*
X125563333Y-89700714D01*
X125515714Y-89795952D01*
X125468095Y-89843571D01*
X125372857Y-89891190D01*
X124991904Y-89891190D01*
X125896666Y-89367380D02*
X126563333Y-89367380D01*
X126134761Y-90367380D01*
G04 #@! TO.C,R8*
X125563333Y-77667380D02*
X125230000Y-77191190D01*
X124991904Y-77667380D02*
X124991904Y-76667380D01*
X125372857Y-76667380D01*
X125468095Y-76715000D01*
X125515714Y-76762619D01*
X125563333Y-76857857D01*
X125563333Y-77000714D01*
X125515714Y-77095952D01*
X125468095Y-77143571D01*
X125372857Y-77191190D01*
X124991904Y-77191190D01*
X126134761Y-77095952D02*
X126039523Y-77048333D01*
X125991904Y-77000714D01*
X125944285Y-76905476D01*
X125944285Y-76857857D01*
X125991904Y-76762619D01*
X126039523Y-76715000D01*
X126134761Y-76667380D01*
X126325238Y-76667380D01*
X126420476Y-76715000D01*
X126468095Y-76762619D01*
X126515714Y-76857857D01*
X126515714Y-76905476D01*
X126468095Y-77000714D01*
X126420476Y-77048333D01*
X126325238Y-77095952D01*
X126134761Y-77095952D01*
X126039523Y-77143571D01*
X125991904Y-77191190D01*
X125944285Y-77286428D01*
X125944285Y-77476904D01*
X125991904Y-77572142D01*
X126039523Y-77619761D01*
X126134761Y-77667380D01*
X126325238Y-77667380D01*
X126420476Y-77619761D01*
X126468095Y-77572142D01*
X126515714Y-77476904D01*
X126515714Y-77286428D01*
X126468095Y-77191190D01*
X126420476Y-77143571D01*
X126325238Y-77095952D01*
G04 #@! TO.C,R9*
X129373333Y-90367380D02*
X129040000Y-89891190D01*
X128801904Y-90367380D02*
X128801904Y-89367380D01*
X129182857Y-89367380D01*
X129278095Y-89415000D01*
X129325714Y-89462619D01*
X129373333Y-89557857D01*
X129373333Y-89700714D01*
X129325714Y-89795952D01*
X129278095Y-89843571D01*
X129182857Y-89891190D01*
X128801904Y-89891190D01*
X129849523Y-90367380D02*
X130040000Y-90367380D01*
X130135238Y-90319761D01*
X130182857Y-90272142D01*
X130278095Y-90129285D01*
X130325714Y-89938809D01*
X130325714Y-89557857D01*
X130278095Y-89462619D01*
X130230476Y-89415000D01*
X130135238Y-89367380D01*
X129944761Y-89367380D01*
X129849523Y-89415000D01*
X129801904Y-89462619D01*
X129754285Y-89557857D01*
X129754285Y-89795952D01*
X129801904Y-89891190D01*
X129849523Y-89938809D01*
X129944761Y-89986428D01*
X130135238Y-89986428D01*
X130230476Y-89938809D01*
X130278095Y-89891190D01*
X130325714Y-89795952D01*
G04 #@! TO.C,R10*
X128897142Y-77667380D02*
X128563809Y-77191190D01*
X128325714Y-77667380D02*
X128325714Y-76667380D01*
X128706666Y-76667380D01*
X128801904Y-76715000D01*
X128849523Y-76762619D01*
X128897142Y-76857857D01*
X128897142Y-77000714D01*
X128849523Y-77095952D01*
X128801904Y-77143571D01*
X128706666Y-77191190D01*
X128325714Y-77191190D01*
X129849523Y-77667380D02*
X129278095Y-77667380D01*
X129563809Y-77667380D02*
X129563809Y-76667380D01*
X129468571Y-76810238D01*
X129373333Y-76905476D01*
X129278095Y-76953095D01*
X130468571Y-76667380D02*
X130563809Y-76667380D01*
X130659047Y-76715000D01*
X130706666Y-76762619D01*
X130754285Y-76857857D01*
X130801904Y-77048333D01*
X130801904Y-77286428D01*
X130754285Y-77476904D01*
X130706666Y-77572142D01*
X130659047Y-77619761D01*
X130563809Y-77667380D01*
X130468571Y-77667380D01*
X130373333Y-77619761D01*
X130325714Y-77572142D01*
X130278095Y-77476904D01*
X130230476Y-77286428D01*
X130230476Y-77048333D01*
X130278095Y-76857857D01*
X130325714Y-76762619D01*
X130373333Y-76715000D01*
X130468571Y-76667380D01*
G04 #@! TO.C,M3*
X115522476Y-81897380D02*
X115522476Y-80897380D01*
X115855809Y-81611666D01*
X116189142Y-80897380D01*
X116189142Y-81897380D01*
X116570095Y-80897380D02*
X117189142Y-80897380D01*
X116855809Y-81278333D01*
X116998666Y-81278333D01*
X117093904Y-81325952D01*
X117141523Y-81373571D01*
X117189142Y-81468809D01*
X117189142Y-81706904D01*
X117141523Y-81802142D01*
X117093904Y-81849761D01*
X116998666Y-81897380D01*
X116712952Y-81897380D01*
X116617714Y-81849761D01*
X116570095Y-81802142D01*
G04 #@! TD*
M02*
