G04 #@! TF.GenerationSoftware,KiCad,Pcbnew,(5.0.2)-1*
G04 #@! TF.CreationDate,2019-03-06T22:55:48-05:00*
G04 #@! TF.ProjectId,v2,76322e6b-6963-4616-945f-706362585858,rev?*
G04 #@! TF.SameCoordinates,Original*
G04 #@! TF.FileFunction,Copper,L1,Top*
G04 #@! TF.FilePolarity,Positive*
%FSLAX46Y46*%
G04 Gerber Fmt 4.6, Leading zero omitted, Abs format (unit mm)*
G04 Created by KiCad (PCBNEW (5.0.2)-1) date 3/6/2019 10:55:48 PM*
%MOMM*%
%LPD*%
G01*
G04 APERTURE LIST*
G04 #@! TA.AperFunction,Conductor*
%ADD10C,0.100000*%
G04 #@! TD*
G04 #@! TA.AperFunction,ComponentPad*
%ADD11C,2.640000*%
G04 #@! TD*
G04 #@! TA.AperFunction,ComponentPad*
%ADD12O,2.640000X3.300000*%
G04 #@! TD*
G04 #@! TA.AperFunction,SMDPad,CuDef*
%ADD13R,1.200000X1.200000*%
G04 #@! TD*
G04 #@! TA.AperFunction,SMDPad,CuDef*
%ADD14C,0.975000*%
G04 #@! TD*
G04 #@! TA.AperFunction,Conductor*
%ADD15C,0.508000*%
G04 #@! TD*
G04 APERTURE END LIST*
D10*
G04 #@! TO.N,Net-(J1-Pad1)*
G04 #@! TO.C,J1*
G36*
X105234504Y-85981204D02*
X105258773Y-85984804D01*
X105282571Y-85990765D01*
X105305671Y-85999030D01*
X105327849Y-86009520D01*
X105348893Y-86022133D01*
X105368598Y-86036747D01*
X105386777Y-86053223D01*
X105403253Y-86071402D01*
X105417867Y-86091107D01*
X105430480Y-86112151D01*
X105440970Y-86134329D01*
X105449235Y-86157429D01*
X105455196Y-86181227D01*
X105458796Y-86205496D01*
X105460000Y-86230000D01*
X105460000Y-89030000D01*
X105458796Y-89054504D01*
X105455196Y-89078773D01*
X105449235Y-89102571D01*
X105440970Y-89125671D01*
X105430480Y-89147849D01*
X105417867Y-89168893D01*
X105403253Y-89188598D01*
X105386777Y-89206777D01*
X105368598Y-89223253D01*
X105348893Y-89237867D01*
X105327849Y-89250480D01*
X105305671Y-89260970D01*
X105282571Y-89269235D01*
X105258773Y-89275196D01*
X105234504Y-89278796D01*
X105210000Y-89280000D01*
X103070000Y-89280000D01*
X103045496Y-89278796D01*
X103021227Y-89275196D01*
X102997429Y-89269235D01*
X102974329Y-89260970D01*
X102952151Y-89250480D01*
X102931107Y-89237867D01*
X102911402Y-89223253D01*
X102893223Y-89206777D01*
X102876747Y-89188598D01*
X102862133Y-89168893D01*
X102849520Y-89147849D01*
X102839030Y-89125671D01*
X102830765Y-89102571D01*
X102824804Y-89078773D01*
X102821204Y-89054504D01*
X102820000Y-89030000D01*
X102820000Y-86230000D01*
X102821204Y-86205496D01*
X102824804Y-86181227D01*
X102830765Y-86157429D01*
X102839030Y-86134329D01*
X102849520Y-86112151D01*
X102862133Y-86091107D01*
X102876747Y-86071402D01*
X102893223Y-86053223D01*
X102911402Y-86036747D01*
X102931107Y-86022133D01*
X102952151Y-86009520D01*
X102974329Y-85999030D01*
X102997429Y-85990765D01*
X103021227Y-85984804D01*
X103045496Y-85981204D01*
X103070000Y-85980000D01*
X105210000Y-85980000D01*
X105234504Y-85981204D01*
X105234504Y-85981204D01*
G37*
D11*
G04 #@! TD*
G04 #@! TO.P,J1,1*
G04 #@! TO.N,Net-(J1-Pad1)*
X104140000Y-87630000D03*
D12*
G04 #@! TO.P,J1,2*
G04 #@! TO.N,Net-(J1-Pad1)*
X100000000Y-87630000D03*
G04 #@! TD*
D10*
G04 #@! TO.N,Net-(J2-Pad1)*
G04 #@! TO.C,J2*
G36*
X105234504Y-73281204D02*
X105258773Y-73284804D01*
X105282571Y-73290765D01*
X105305671Y-73299030D01*
X105327849Y-73309520D01*
X105348893Y-73322133D01*
X105368598Y-73336747D01*
X105386777Y-73353223D01*
X105403253Y-73371402D01*
X105417867Y-73391107D01*
X105430480Y-73412151D01*
X105440970Y-73434329D01*
X105449235Y-73457429D01*
X105455196Y-73481227D01*
X105458796Y-73505496D01*
X105460000Y-73530000D01*
X105460000Y-76330000D01*
X105458796Y-76354504D01*
X105455196Y-76378773D01*
X105449235Y-76402571D01*
X105440970Y-76425671D01*
X105430480Y-76447849D01*
X105417867Y-76468893D01*
X105403253Y-76488598D01*
X105386777Y-76506777D01*
X105368598Y-76523253D01*
X105348893Y-76537867D01*
X105327849Y-76550480D01*
X105305671Y-76560970D01*
X105282571Y-76569235D01*
X105258773Y-76575196D01*
X105234504Y-76578796D01*
X105210000Y-76580000D01*
X103070000Y-76580000D01*
X103045496Y-76578796D01*
X103021227Y-76575196D01*
X102997429Y-76569235D01*
X102974329Y-76560970D01*
X102952151Y-76550480D01*
X102931107Y-76537867D01*
X102911402Y-76523253D01*
X102893223Y-76506777D01*
X102876747Y-76488598D01*
X102862133Y-76468893D01*
X102849520Y-76447849D01*
X102839030Y-76425671D01*
X102830765Y-76402571D01*
X102824804Y-76378773D01*
X102821204Y-76354504D01*
X102820000Y-76330000D01*
X102820000Y-73530000D01*
X102821204Y-73505496D01*
X102824804Y-73481227D01*
X102830765Y-73457429D01*
X102839030Y-73434329D01*
X102849520Y-73412151D01*
X102862133Y-73391107D01*
X102876747Y-73371402D01*
X102893223Y-73353223D01*
X102911402Y-73336747D01*
X102931107Y-73322133D01*
X102952151Y-73309520D01*
X102974329Y-73299030D01*
X102997429Y-73290765D01*
X103021227Y-73284804D01*
X103045496Y-73281204D01*
X103070000Y-73280000D01*
X105210000Y-73280000D01*
X105234504Y-73281204D01*
X105234504Y-73281204D01*
G37*
D11*
G04 #@! TD*
G04 #@! TO.P,J2,1*
G04 #@! TO.N,Net-(J2-Pad1)*
X104140000Y-74930000D03*
D12*
G04 #@! TO.P,J2,2*
G04 #@! TO.N,Net-(J2-Pad1)*
X100000000Y-74930000D03*
G04 #@! TD*
D13*
G04 #@! TO.P,D1,2*
G04 #@! TO.N,Net-(D1-Pad2)*
X129540000Y-82745000D03*
G04 #@! TO.P,D1,1*
G04 #@! TO.N,Net-(D1-Pad1)*
X129540000Y-80645000D03*
G04 #@! TD*
D10*
G04 #@! TO.N,Net-(R1-Pad1)*
G04 #@! TO.C,R1*
G36*
X115505142Y-87566174D02*
X115528803Y-87569684D01*
X115552007Y-87575496D01*
X115574529Y-87583554D01*
X115596153Y-87593782D01*
X115616670Y-87606079D01*
X115635883Y-87620329D01*
X115653607Y-87636393D01*
X115669671Y-87654117D01*
X115683921Y-87673330D01*
X115696218Y-87693847D01*
X115706446Y-87715471D01*
X115714504Y-87737993D01*
X115720316Y-87761197D01*
X115723826Y-87784858D01*
X115725000Y-87808750D01*
X115725000Y-88721250D01*
X115723826Y-88745142D01*
X115720316Y-88768803D01*
X115714504Y-88792007D01*
X115706446Y-88814529D01*
X115696218Y-88836153D01*
X115683921Y-88856670D01*
X115669671Y-88875883D01*
X115653607Y-88893607D01*
X115635883Y-88909671D01*
X115616670Y-88923921D01*
X115596153Y-88936218D01*
X115574529Y-88946446D01*
X115552007Y-88954504D01*
X115528803Y-88960316D01*
X115505142Y-88963826D01*
X115481250Y-88965000D01*
X114993750Y-88965000D01*
X114969858Y-88963826D01*
X114946197Y-88960316D01*
X114922993Y-88954504D01*
X114900471Y-88946446D01*
X114878847Y-88936218D01*
X114858330Y-88923921D01*
X114839117Y-88909671D01*
X114821393Y-88893607D01*
X114805329Y-88875883D01*
X114791079Y-88856670D01*
X114778782Y-88836153D01*
X114768554Y-88814529D01*
X114760496Y-88792007D01*
X114754684Y-88768803D01*
X114751174Y-88745142D01*
X114750000Y-88721250D01*
X114750000Y-87808750D01*
X114751174Y-87784858D01*
X114754684Y-87761197D01*
X114760496Y-87737993D01*
X114768554Y-87715471D01*
X114778782Y-87693847D01*
X114791079Y-87673330D01*
X114805329Y-87654117D01*
X114821393Y-87636393D01*
X114839117Y-87620329D01*
X114858330Y-87606079D01*
X114878847Y-87593782D01*
X114900471Y-87583554D01*
X114922993Y-87575496D01*
X114946197Y-87569684D01*
X114969858Y-87566174D01*
X114993750Y-87565000D01*
X115481250Y-87565000D01*
X115505142Y-87566174D01*
X115505142Y-87566174D01*
G37*
D14*
G04 #@! TD*
G04 #@! TO.P,R1,1*
G04 #@! TO.N,Net-(R1-Pad1)*
X115237500Y-88265000D03*
D10*
G04 #@! TO.N,Net-(J1-Pad1)*
G04 #@! TO.C,R1*
G36*
X113630142Y-87566174D02*
X113653803Y-87569684D01*
X113677007Y-87575496D01*
X113699529Y-87583554D01*
X113721153Y-87593782D01*
X113741670Y-87606079D01*
X113760883Y-87620329D01*
X113778607Y-87636393D01*
X113794671Y-87654117D01*
X113808921Y-87673330D01*
X113821218Y-87693847D01*
X113831446Y-87715471D01*
X113839504Y-87737993D01*
X113845316Y-87761197D01*
X113848826Y-87784858D01*
X113850000Y-87808750D01*
X113850000Y-88721250D01*
X113848826Y-88745142D01*
X113845316Y-88768803D01*
X113839504Y-88792007D01*
X113831446Y-88814529D01*
X113821218Y-88836153D01*
X113808921Y-88856670D01*
X113794671Y-88875883D01*
X113778607Y-88893607D01*
X113760883Y-88909671D01*
X113741670Y-88923921D01*
X113721153Y-88936218D01*
X113699529Y-88946446D01*
X113677007Y-88954504D01*
X113653803Y-88960316D01*
X113630142Y-88963826D01*
X113606250Y-88965000D01*
X113118750Y-88965000D01*
X113094858Y-88963826D01*
X113071197Y-88960316D01*
X113047993Y-88954504D01*
X113025471Y-88946446D01*
X113003847Y-88936218D01*
X112983330Y-88923921D01*
X112964117Y-88909671D01*
X112946393Y-88893607D01*
X112930329Y-88875883D01*
X112916079Y-88856670D01*
X112903782Y-88836153D01*
X112893554Y-88814529D01*
X112885496Y-88792007D01*
X112879684Y-88768803D01*
X112876174Y-88745142D01*
X112875000Y-88721250D01*
X112875000Y-87808750D01*
X112876174Y-87784858D01*
X112879684Y-87761197D01*
X112885496Y-87737993D01*
X112893554Y-87715471D01*
X112903782Y-87693847D01*
X112916079Y-87673330D01*
X112930329Y-87654117D01*
X112946393Y-87636393D01*
X112964117Y-87620329D01*
X112983330Y-87606079D01*
X113003847Y-87593782D01*
X113025471Y-87583554D01*
X113047993Y-87575496D01*
X113071197Y-87569684D01*
X113094858Y-87566174D01*
X113118750Y-87565000D01*
X113606250Y-87565000D01*
X113630142Y-87566174D01*
X113630142Y-87566174D01*
G37*
D14*
G04 #@! TD*
G04 #@! TO.P,R1,2*
G04 #@! TO.N,Net-(J1-Pad1)*
X113362500Y-88265000D03*
D10*
G04 #@! TO.N,Net-(J2-Pad1)*
G04 #@! TO.C,R2*
G36*
X113630142Y-74866174D02*
X113653803Y-74869684D01*
X113677007Y-74875496D01*
X113699529Y-74883554D01*
X113721153Y-74893782D01*
X113741670Y-74906079D01*
X113760883Y-74920329D01*
X113778607Y-74936393D01*
X113794671Y-74954117D01*
X113808921Y-74973330D01*
X113821218Y-74993847D01*
X113831446Y-75015471D01*
X113839504Y-75037993D01*
X113845316Y-75061197D01*
X113848826Y-75084858D01*
X113850000Y-75108750D01*
X113850000Y-76021250D01*
X113848826Y-76045142D01*
X113845316Y-76068803D01*
X113839504Y-76092007D01*
X113831446Y-76114529D01*
X113821218Y-76136153D01*
X113808921Y-76156670D01*
X113794671Y-76175883D01*
X113778607Y-76193607D01*
X113760883Y-76209671D01*
X113741670Y-76223921D01*
X113721153Y-76236218D01*
X113699529Y-76246446D01*
X113677007Y-76254504D01*
X113653803Y-76260316D01*
X113630142Y-76263826D01*
X113606250Y-76265000D01*
X113118750Y-76265000D01*
X113094858Y-76263826D01*
X113071197Y-76260316D01*
X113047993Y-76254504D01*
X113025471Y-76246446D01*
X113003847Y-76236218D01*
X112983330Y-76223921D01*
X112964117Y-76209671D01*
X112946393Y-76193607D01*
X112930329Y-76175883D01*
X112916079Y-76156670D01*
X112903782Y-76136153D01*
X112893554Y-76114529D01*
X112885496Y-76092007D01*
X112879684Y-76068803D01*
X112876174Y-76045142D01*
X112875000Y-76021250D01*
X112875000Y-75108750D01*
X112876174Y-75084858D01*
X112879684Y-75061197D01*
X112885496Y-75037993D01*
X112893554Y-75015471D01*
X112903782Y-74993847D01*
X112916079Y-74973330D01*
X112930329Y-74954117D01*
X112946393Y-74936393D01*
X112964117Y-74920329D01*
X112983330Y-74906079D01*
X113003847Y-74893782D01*
X113025471Y-74883554D01*
X113047993Y-74875496D01*
X113071197Y-74869684D01*
X113094858Y-74866174D01*
X113118750Y-74865000D01*
X113606250Y-74865000D01*
X113630142Y-74866174D01*
X113630142Y-74866174D01*
G37*
D14*
G04 #@! TD*
G04 #@! TO.P,R2,2*
G04 #@! TO.N,Net-(J2-Pad1)*
X113362500Y-75565000D03*
D10*
G04 #@! TO.N,Net-(R2-Pad1)*
G04 #@! TO.C,R2*
G36*
X115505142Y-74866174D02*
X115528803Y-74869684D01*
X115552007Y-74875496D01*
X115574529Y-74883554D01*
X115596153Y-74893782D01*
X115616670Y-74906079D01*
X115635883Y-74920329D01*
X115653607Y-74936393D01*
X115669671Y-74954117D01*
X115683921Y-74973330D01*
X115696218Y-74993847D01*
X115706446Y-75015471D01*
X115714504Y-75037993D01*
X115720316Y-75061197D01*
X115723826Y-75084858D01*
X115725000Y-75108750D01*
X115725000Y-76021250D01*
X115723826Y-76045142D01*
X115720316Y-76068803D01*
X115714504Y-76092007D01*
X115706446Y-76114529D01*
X115696218Y-76136153D01*
X115683921Y-76156670D01*
X115669671Y-76175883D01*
X115653607Y-76193607D01*
X115635883Y-76209671D01*
X115616670Y-76223921D01*
X115596153Y-76236218D01*
X115574529Y-76246446D01*
X115552007Y-76254504D01*
X115528803Y-76260316D01*
X115505142Y-76263826D01*
X115481250Y-76265000D01*
X114993750Y-76265000D01*
X114969858Y-76263826D01*
X114946197Y-76260316D01*
X114922993Y-76254504D01*
X114900471Y-76246446D01*
X114878847Y-76236218D01*
X114858330Y-76223921D01*
X114839117Y-76209671D01*
X114821393Y-76193607D01*
X114805329Y-76175883D01*
X114791079Y-76156670D01*
X114778782Y-76136153D01*
X114768554Y-76114529D01*
X114760496Y-76092007D01*
X114754684Y-76068803D01*
X114751174Y-76045142D01*
X114750000Y-76021250D01*
X114750000Y-75108750D01*
X114751174Y-75084858D01*
X114754684Y-75061197D01*
X114760496Y-75037993D01*
X114768554Y-75015471D01*
X114778782Y-74993847D01*
X114791079Y-74973330D01*
X114805329Y-74954117D01*
X114821393Y-74936393D01*
X114839117Y-74920329D01*
X114858330Y-74906079D01*
X114878847Y-74893782D01*
X114900471Y-74883554D01*
X114922993Y-74875496D01*
X114946197Y-74869684D01*
X114969858Y-74866174D01*
X114993750Y-74865000D01*
X115481250Y-74865000D01*
X115505142Y-74866174D01*
X115505142Y-74866174D01*
G37*
D14*
G04 #@! TD*
G04 #@! TO.P,R2,1*
G04 #@! TO.N,Net-(R2-Pad1)*
X115237500Y-75565000D03*
D10*
G04 #@! TO.N,Net-(R1-Pad1)*
G04 #@! TO.C,R3*
G36*
X117440142Y-87566174D02*
X117463803Y-87569684D01*
X117487007Y-87575496D01*
X117509529Y-87583554D01*
X117531153Y-87593782D01*
X117551670Y-87606079D01*
X117570883Y-87620329D01*
X117588607Y-87636393D01*
X117604671Y-87654117D01*
X117618921Y-87673330D01*
X117631218Y-87693847D01*
X117641446Y-87715471D01*
X117649504Y-87737993D01*
X117655316Y-87761197D01*
X117658826Y-87784858D01*
X117660000Y-87808750D01*
X117660000Y-88721250D01*
X117658826Y-88745142D01*
X117655316Y-88768803D01*
X117649504Y-88792007D01*
X117641446Y-88814529D01*
X117631218Y-88836153D01*
X117618921Y-88856670D01*
X117604671Y-88875883D01*
X117588607Y-88893607D01*
X117570883Y-88909671D01*
X117551670Y-88923921D01*
X117531153Y-88936218D01*
X117509529Y-88946446D01*
X117487007Y-88954504D01*
X117463803Y-88960316D01*
X117440142Y-88963826D01*
X117416250Y-88965000D01*
X116928750Y-88965000D01*
X116904858Y-88963826D01*
X116881197Y-88960316D01*
X116857993Y-88954504D01*
X116835471Y-88946446D01*
X116813847Y-88936218D01*
X116793330Y-88923921D01*
X116774117Y-88909671D01*
X116756393Y-88893607D01*
X116740329Y-88875883D01*
X116726079Y-88856670D01*
X116713782Y-88836153D01*
X116703554Y-88814529D01*
X116695496Y-88792007D01*
X116689684Y-88768803D01*
X116686174Y-88745142D01*
X116685000Y-88721250D01*
X116685000Y-87808750D01*
X116686174Y-87784858D01*
X116689684Y-87761197D01*
X116695496Y-87737993D01*
X116703554Y-87715471D01*
X116713782Y-87693847D01*
X116726079Y-87673330D01*
X116740329Y-87654117D01*
X116756393Y-87636393D01*
X116774117Y-87620329D01*
X116793330Y-87606079D01*
X116813847Y-87593782D01*
X116835471Y-87583554D01*
X116857993Y-87575496D01*
X116881197Y-87569684D01*
X116904858Y-87566174D01*
X116928750Y-87565000D01*
X117416250Y-87565000D01*
X117440142Y-87566174D01*
X117440142Y-87566174D01*
G37*
D14*
G04 #@! TD*
G04 #@! TO.P,R3,2*
G04 #@! TO.N,Net-(R1-Pad1)*
X117172500Y-88265000D03*
D10*
G04 #@! TO.N,Net-(R3-Pad1)*
G04 #@! TO.C,R3*
G36*
X119315142Y-87566174D02*
X119338803Y-87569684D01*
X119362007Y-87575496D01*
X119384529Y-87583554D01*
X119406153Y-87593782D01*
X119426670Y-87606079D01*
X119445883Y-87620329D01*
X119463607Y-87636393D01*
X119479671Y-87654117D01*
X119493921Y-87673330D01*
X119506218Y-87693847D01*
X119516446Y-87715471D01*
X119524504Y-87737993D01*
X119530316Y-87761197D01*
X119533826Y-87784858D01*
X119535000Y-87808750D01*
X119535000Y-88721250D01*
X119533826Y-88745142D01*
X119530316Y-88768803D01*
X119524504Y-88792007D01*
X119516446Y-88814529D01*
X119506218Y-88836153D01*
X119493921Y-88856670D01*
X119479671Y-88875883D01*
X119463607Y-88893607D01*
X119445883Y-88909671D01*
X119426670Y-88923921D01*
X119406153Y-88936218D01*
X119384529Y-88946446D01*
X119362007Y-88954504D01*
X119338803Y-88960316D01*
X119315142Y-88963826D01*
X119291250Y-88965000D01*
X118803750Y-88965000D01*
X118779858Y-88963826D01*
X118756197Y-88960316D01*
X118732993Y-88954504D01*
X118710471Y-88946446D01*
X118688847Y-88936218D01*
X118668330Y-88923921D01*
X118649117Y-88909671D01*
X118631393Y-88893607D01*
X118615329Y-88875883D01*
X118601079Y-88856670D01*
X118588782Y-88836153D01*
X118578554Y-88814529D01*
X118570496Y-88792007D01*
X118564684Y-88768803D01*
X118561174Y-88745142D01*
X118560000Y-88721250D01*
X118560000Y-87808750D01*
X118561174Y-87784858D01*
X118564684Y-87761197D01*
X118570496Y-87737993D01*
X118578554Y-87715471D01*
X118588782Y-87693847D01*
X118601079Y-87673330D01*
X118615329Y-87654117D01*
X118631393Y-87636393D01*
X118649117Y-87620329D01*
X118668330Y-87606079D01*
X118688847Y-87593782D01*
X118710471Y-87583554D01*
X118732993Y-87575496D01*
X118756197Y-87569684D01*
X118779858Y-87566174D01*
X118803750Y-87565000D01*
X119291250Y-87565000D01*
X119315142Y-87566174D01*
X119315142Y-87566174D01*
G37*
D14*
G04 #@! TD*
G04 #@! TO.P,R3,1*
G04 #@! TO.N,Net-(R3-Pad1)*
X119047500Y-88265000D03*
D10*
G04 #@! TO.N,Net-(R4-Pad1)*
G04 #@! TO.C,R4*
G36*
X119315142Y-74866174D02*
X119338803Y-74869684D01*
X119362007Y-74875496D01*
X119384529Y-74883554D01*
X119406153Y-74893782D01*
X119426670Y-74906079D01*
X119445883Y-74920329D01*
X119463607Y-74936393D01*
X119479671Y-74954117D01*
X119493921Y-74973330D01*
X119506218Y-74993847D01*
X119516446Y-75015471D01*
X119524504Y-75037993D01*
X119530316Y-75061197D01*
X119533826Y-75084858D01*
X119535000Y-75108750D01*
X119535000Y-76021250D01*
X119533826Y-76045142D01*
X119530316Y-76068803D01*
X119524504Y-76092007D01*
X119516446Y-76114529D01*
X119506218Y-76136153D01*
X119493921Y-76156670D01*
X119479671Y-76175883D01*
X119463607Y-76193607D01*
X119445883Y-76209671D01*
X119426670Y-76223921D01*
X119406153Y-76236218D01*
X119384529Y-76246446D01*
X119362007Y-76254504D01*
X119338803Y-76260316D01*
X119315142Y-76263826D01*
X119291250Y-76265000D01*
X118803750Y-76265000D01*
X118779858Y-76263826D01*
X118756197Y-76260316D01*
X118732993Y-76254504D01*
X118710471Y-76246446D01*
X118688847Y-76236218D01*
X118668330Y-76223921D01*
X118649117Y-76209671D01*
X118631393Y-76193607D01*
X118615329Y-76175883D01*
X118601079Y-76156670D01*
X118588782Y-76136153D01*
X118578554Y-76114529D01*
X118570496Y-76092007D01*
X118564684Y-76068803D01*
X118561174Y-76045142D01*
X118560000Y-76021250D01*
X118560000Y-75108750D01*
X118561174Y-75084858D01*
X118564684Y-75061197D01*
X118570496Y-75037993D01*
X118578554Y-75015471D01*
X118588782Y-74993847D01*
X118601079Y-74973330D01*
X118615329Y-74954117D01*
X118631393Y-74936393D01*
X118649117Y-74920329D01*
X118668330Y-74906079D01*
X118688847Y-74893782D01*
X118710471Y-74883554D01*
X118732993Y-74875496D01*
X118756197Y-74869684D01*
X118779858Y-74866174D01*
X118803750Y-74865000D01*
X119291250Y-74865000D01*
X119315142Y-74866174D01*
X119315142Y-74866174D01*
G37*
D14*
G04 #@! TD*
G04 #@! TO.P,R4,1*
G04 #@! TO.N,Net-(R4-Pad1)*
X119047500Y-75565000D03*
D10*
G04 #@! TO.N,Net-(R2-Pad1)*
G04 #@! TO.C,R4*
G36*
X117440142Y-74866174D02*
X117463803Y-74869684D01*
X117487007Y-74875496D01*
X117509529Y-74883554D01*
X117531153Y-74893782D01*
X117551670Y-74906079D01*
X117570883Y-74920329D01*
X117588607Y-74936393D01*
X117604671Y-74954117D01*
X117618921Y-74973330D01*
X117631218Y-74993847D01*
X117641446Y-75015471D01*
X117649504Y-75037993D01*
X117655316Y-75061197D01*
X117658826Y-75084858D01*
X117660000Y-75108750D01*
X117660000Y-76021250D01*
X117658826Y-76045142D01*
X117655316Y-76068803D01*
X117649504Y-76092007D01*
X117641446Y-76114529D01*
X117631218Y-76136153D01*
X117618921Y-76156670D01*
X117604671Y-76175883D01*
X117588607Y-76193607D01*
X117570883Y-76209671D01*
X117551670Y-76223921D01*
X117531153Y-76236218D01*
X117509529Y-76246446D01*
X117487007Y-76254504D01*
X117463803Y-76260316D01*
X117440142Y-76263826D01*
X117416250Y-76265000D01*
X116928750Y-76265000D01*
X116904858Y-76263826D01*
X116881197Y-76260316D01*
X116857993Y-76254504D01*
X116835471Y-76246446D01*
X116813847Y-76236218D01*
X116793330Y-76223921D01*
X116774117Y-76209671D01*
X116756393Y-76193607D01*
X116740329Y-76175883D01*
X116726079Y-76156670D01*
X116713782Y-76136153D01*
X116703554Y-76114529D01*
X116695496Y-76092007D01*
X116689684Y-76068803D01*
X116686174Y-76045142D01*
X116685000Y-76021250D01*
X116685000Y-75108750D01*
X116686174Y-75084858D01*
X116689684Y-75061197D01*
X116695496Y-75037993D01*
X116703554Y-75015471D01*
X116713782Y-74993847D01*
X116726079Y-74973330D01*
X116740329Y-74954117D01*
X116756393Y-74936393D01*
X116774117Y-74920329D01*
X116793330Y-74906079D01*
X116813847Y-74893782D01*
X116835471Y-74883554D01*
X116857993Y-74875496D01*
X116881197Y-74869684D01*
X116904858Y-74866174D01*
X116928750Y-74865000D01*
X117416250Y-74865000D01*
X117440142Y-74866174D01*
X117440142Y-74866174D01*
G37*
D14*
G04 #@! TD*
G04 #@! TO.P,R4,2*
G04 #@! TO.N,Net-(R2-Pad1)*
X117172500Y-75565000D03*
D10*
G04 #@! TO.N,Net-(R5-Pad1)*
G04 #@! TO.C,R5*
G36*
X123125142Y-87566174D02*
X123148803Y-87569684D01*
X123172007Y-87575496D01*
X123194529Y-87583554D01*
X123216153Y-87593782D01*
X123236670Y-87606079D01*
X123255883Y-87620329D01*
X123273607Y-87636393D01*
X123289671Y-87654117D01*
X123303921Y-87673330D01*
X123316218Y-87693847D01*
X123326446Y-87715471D01*
X123334504Y-87737993D01*
X123340316Y-87761197D01*
X123343826Y-87784858D01*
X123345000Y-87808750D01*
X123345000Y-88721250D01*
X123343826Y-88745142D01*
X123340316Y-88768803D01*
X123334504Y-88792007D01*
X123326446Y-88814529D01*
X123316218Y-88836153D01*
X123303921Y-88856670D01*
X123289671Y-88875883D01*
X123273607Y-88893607D01*
X123255883Y-88909671D01*
X123236670Y-88923921D01*
X123216153Y-88936218D01*
X123194529Y-88946446D01*
X123172007Y-88954504D01*
X123148803Y-88960316D01*
X123125142Y-88963826D01*
X123101250Y-88965000D01*
X122613750Y-88965000D01*
X122589858Y-88963826D01*
X122566197Y-88960316D01*
X122542993Y-88954504D01*
X122520471Y-88946446D01*
X122498847Y-88936218D01*
X122478330Y-88923921D01*
X122459117Y-88909671D01*
X122441393Y-88893607D01*
X122425329Y-88875883D01*
X122411079Y-88856670D01*
X122398782Y-88836153D01*
X122388554Y-88814529D01*
X122380496Y-88792007D01*
X122374684Y-88768803D01*
X122371174Y-88745142D01*
X122370000Y-88721250D01*
X122370000Y-87808750D01*
X122371174Y-87784858D01*
X122374684Y-87761197D01*
X122380496Y-87737993D01*
X122388554Y-87715471D01*
X122398782Y-87693847D01*
X122411079Y-87673330D01*
X122425329Y-87654117D01*
X122441393Y-87636393D01*
X122459117Y-87620329D01*
X122478330Y-87606079D01*
X122498847Y-87593782D01*
X122520471Y-87583554D01*
X122542993Y-87575496D01*
X122566197Y-87569684D01*
X122589858Y-87566174D01*
X122613750Y-87565000D01*
X123101250Y-87565000D01*
X123125142Y-87566174D01*
X123125142Y-87566174D01*
G37*
D14*
G04 #@! TD*
G04 #@! TO.P,R5,1*
G04 #@! TO.N,Net-(R5-Pad1)*
X122857500Y-88265000D03*
D10*
G04 #@! TO.N,Net-(R3-Pad1)*
G04 #@! TO.C,R5*
G36*
X121250142Y-87566174D02*
X121273803Y-87569684D01*
X121297007Y-87575496D01*
X121319529Y-87583554D01*
X121341153Y-87593782D01*
X121361670Y-87606079D01*
X121380883Y-87620329D01*
X121398607Y-87636393D01*
X121414671Y-87654117D01*
X121428921Y-87673330D01*
X121441218Y-87693847D01*
X121451446Y-87715471D01*
X121459504Y-87737993D01*
X121465316Y-87761197D01*
X121468826Y-87784858D01*
X121470000Y-87808750D01*
X121470000Y-88721250D01*
X121468826Y-88745142D01*
X121465316Y-88768803D01*
X121459504Y-88792007D01*
X121451446Y-88814529D01*
X121441218Y-88836153D01*
X121428921Y-88856670D01*
X121414671Y-88875883D01*
X121398607Y-88893607D01*
X121380883Y-88909671D01*
X121361670Y-88923921D01*
X121341153Y-88936218D01*
X121319529Y-88946446D01*
X121297007Y-88954504D01*
X121273803Y-88960316D01*
X121250142Y-88963826D01*
X121226250Y-88965000D01*
X120738750Y-88965000D01*
X120714858Y-88963826D01*
X120691197Y-88960316D01*
X120667993Y-88954504D01*
X120645471Y-88946446D01*
X120623847Y-88936218D01*
X120603330Y-88923921D01*
X120584117Y-88909671D01*
X120566393Y-88893607D01*
X120550329Y-88875883D01*
X120536079Y-88856670D01*
X120523782Y-88836153D01*
X120513554Y-88814529D01*
X120505496Y-88792007D01*
X120499684Y-88768803D01*
X120496174Y-88745142D01*
X120495000Y-88721250D01*
X120495000Y-87808750D01*
X120496174Y-87784858D01*
X120499684Y-87761197D01*
X120505496Y-87737993D01*
X120513554Y-87715471D01*
X120523782Y-87693847D01*
X120536079Y-87673330D01*
X120550329Y-87654117D01*
X120566393Y-87636393D01*
X120584117Y-87620329D01*
X120603330Y-87606079D01*
X120623847Y-87593782D01*
X120645471Y-87583554D01*
X120667993Y-87575496D01*
X120691197Y-87569684D01*
X120714858Y-87566174D01*
X120738750Y-87565000D01*
X121226250Y-87565000D01*
X121250142Y-87566174D01*
X121250142Y-87566174D01*
G37*
D14*
G04 #@! TD*
G04 #@! TO.P,R5,2*
G04 #@! TO.N,Net-(R3-Pad1)*
X120982500Y-88265000D03*
D10*
G04 #@! TO.N,Net-(R4-Pad1)*
G04 #@! TO.C,R6*
G36*
X121250142Y-74866174D02*
X121273803Y-74869684D01*
X121297007Y-74875496D01*
X121319529Y-74883554D01*
X121341153Y-74893782D01*
X121361670Y-74906079D01*
X121380883Y-74920329D01*
X121398607Y-74936393D01*
X121414671Y-74954117D01*
X121428921Y-74973330D01*
X121441218Y-74993847D01*
X121451446Y-75015471D01*
X121459504Y-75037993D01*
X121465316Y-75061197D01*
X121468826Y-75084858D01*
X121470000Y-75108750D01*
X121470000Y-76021250D01*
X121468826Y-76045142D01*
X121465316Y-76068803D01*
X121459504Y-76092007D01*
X121451446Y-76114529D01*
X121441218Y-76136153D01*
X121428921Y-76156670D01*
X121414671Y-76175883D01*
X121398607Y-76193607D01*
X121380883Y-76209671D01*
X121361670Y-76223921D01*
X121341153Y-76236218D01*
X121319529Y-76246446D01*
X121297007Y-76254504D01*
X121273803Y-76260316D01*
X121250142Y-76263826D01*
X121226250Y-76265000D01*
X120738750Y-76265000D01*
X120714858Y-76263826D01*
X120691197Y-76260316D01*
X120667993Y-76254504D01*
X120645471Y-76246446D01*
X120623847Y-76236218D01*
X120603330Y-76223921D01*
X120584117Y-76209671D01*
X120566393Y-76193607D01*
X120550329Y-76175883D01*
X120536079Y-76156670D01*
X120523782Y-76136153D01*
X120513554Y-76114529D01*
X120505496Y-76092007D01*
X120499684Y-76068803D01*
X120496174Y-76045142D01*
X120495000Y-76021250D01*
X120495000Y-75108750D01*
X120496174Y-75084858D01*
X120499684Y-75061197D01*
X120505496Y-75037993D01*
X120513554Y-75015471D01*
X120523782Y-74993847D01*
X120536079Y-74973330D01*
X120550329Y-74954117D01*
X120566393Y-74936393D01*
X120584117Y-74920329D01*
X120603330Y-74906079D01*
X120623847Y-74893782D01*
X120645471Y-74883554D01*
X120667993Y-74875496D01*
X120691197Y-74869684D01*
X120714858Y-74866174D01*
X120738750Y-74865000D01*
X121226250Y-74865000D01*
X121250142Y-74866174D01*
X121250142Y-74866174D01*
G37*
D14*
G04 #@! TD*
G04 #@! TO.P,R6,2*
G04 #@! TO.N,Net-(R4-Pad1)*
X120982500Y-75565000D03*
D10*
G04 #@! TO.N,Net-(R6-Pad1)*
G04 #@! TO.C,R6*
G36*
X123125142Y-74866174D02*
X123148803Y-74869684D01*
X123172007Y-74875496D01*
X123194529Y-74883554D01*
X123216153Y-74893782D01*
X123236670Y-74906079D01*
X123255883Y-74920329D01*
X123273607Y-74936393D01*
X123289671Y-74954117D01*
X123303921Y-74973330D01*
X123316218Y-74993847D01*
X123326446Y-75015471D01*
X123334504Y-75037993D01*
X123340316Y-75061197D01*
X123343826Y-75084858D01*
X123345000Y-75108750D01*
X123345000Y-76021250D01*
X123343826Y-76045142D01*
X123340316Y-76068803D01*
X123334504Y-76092007D01*
X123326446Y-76114529D01*
X123316218Y-76136153D01*
X123303921Y-76156670D01*
X123289671Y-76175883D01*
X123273607Y-76193607D01*
X123255883Y-76209671D01*
X123236670Y-76223921D01*
X123216153Y-76236218D01*
X123194529Y-76246446D01*
X123172007Y-76254504D01*
X123148803Y-76260316D01*
X123125142Y-76263826D01*
X123101250Y-76265000D01*
X122613750Y-76265000D01*
X122589858Y-76263826D01*
X122566197Y-76260316D01*
X122542993Y-76254504D01*
X122520471Y-76246446D01*
X122498847Y-76236218D01*
X122478330Y-76223921D01*
X122459117Y-76209671D01*
X122441393Y-76193607D01*
X122425329Y-76175883D01*
X122411079Y-76156670D01*
X122398782Y-76136153D01*
X122388554Y-76114529D01*
X122380496Y-76092007D01*
X122374684Y-76068803D01*
X122371174Y-76045142D01*
X122370000Y-76021250D01*
X122370000Y-75108750D01*
X122371174Y-75084858D01*
X122374684Y-75061197D01*
X122380496Y-75037993D01*
X122388554Y-75015471D01*
X122398782Y-74993847D01*
X122411079Y-74973330D01*
X122425329Y-74954117D01*
X122441393Y-74936393D01*
X122459117Y-74920329D01*
X122478330Y-74906079D01*
X122498847Y-74893782D01*
X122520471Y-74883554D01*
X122542993Y-74875496D01*
X122566197Y-74869684D01*
X122589858Y-74866174D01*
X122613750Y-74865000D01*
X123101250Y-74865000D01*
X123125142Y-74866174D01*
X123125142Y-74866174D01*
G37*
D14*
G04 #@! TD*
G04 #@! TO.P,R6,1*
G04 #@! TO.N,Net-(R6-Pad1)*
X122857500Y-75565000D03*
D10*
G04 #@! TO.N,Net-(R5-Pad1)*
G04 #@! TO.C,R7*
G36*
X125060142Y-87566174D02*
X125083803Y-87569684D01*
X125107007Y-87575496D01*
X125129529Y-87583554D01*
X125151153Y-87593782D01*
X125171670Y-87606079D01*
X125190883Y-87620329D01*
X125208607Y-87636393D01*
X125224671Y-87654117D01*
X125238921Y-87673330D01*
X125251218Y-87693847D01*
X125261446Y-87715471D01*
X125269504Y-87737993D01*
X125275316Y-87761197D01*
X125278826Y-87784858D01*
X125280000Y-87808750D01*
X125280000Y-88721250D01*
X125278826Y-88745142D01*
X125275316Y-88768803D01*
X125269504Y-88792007D01*
X125261446Y-88814529D01*
X125251218Y-88836153D01*
X125238921Y-88856670D01*
X125224671Y-88875883D01*
X125208607Y-88893607D01*
X125190883Y-88909671D01*
X125171670Y-88923921D01*
X125151153Y-88936218D01*
X125129529Y-88946446D01*
X125107007Y-88954504D01*
X125083803Y-88960316D01*
X125060142Y-88963826D01*
X125036250Y-88965000D01*
X124548750Y-88965000D01*
X124524858Y-88963826D01*
X124501197Y-88960316D01*
X124477993Y-88954504D01*
X124455471Y-88946446D01*
X124433847Y-88936218D01*
X124413330Y-88923921D01*
X124394117Y-88909671D01*
X124376393Y-88893607D01*
X124360329Y-88875883D01*
X124346079Y-88856670D01*
X124333782Y-88836153D01*
X124323554Y-88814529D01*
X124315496Y-88792007D01*
X124309684Y-88768803D01*
X124306174Y-88745142D01*
X124305000Y-88721250D01*
X124305000Y-87808750D01*
X124306174Y-87784858D01*
X124309684Y-87761197D01*
X124315496Y-87737993D01*
X124323554Y-87715471D01*
X124333782Y-87693847D01*
X124346079Y-87673330D01*
X124360329Y-87654117D01*
X124376393Y-87636393D01*
X124394117Y-87620329D01*
X124413330Y-87606079D01*
X124433847Y-87593782D01*
X124455471Y-87583554D01*
X124477993Y-87575496D01*
X124501197Y-87569684D01*
X124524858Y-87566174D01*
X124548750Y-87565000D01*
X125036250Y-87565000D01*
X125060142Y-87566174D01*
X125060142Y-87566174D01*
G37*
D14*
G04 #@! TD*
G04 #@! TO.P,R7,2*
G04 #@! TO.N,Net-(R5-Pad1)*
X124792500Y-88265000D03*
D10*
G04 #@! TO.N,Net-(R7-Pad1)*
G04 #@! TO.C,R7*
G36*
X126935142Y-87566174D02*
X126958803Y-87569684D01*
X126982007Y-87575496D01*
X127004529Y-87583554D01*
X127026153Y-87593782D01*
X127046670Y-87606079D01*
X127065883Y-87620329D01*
X127083607Y-87636393D01*
X127099671Y-87654117D01*
X127113921Y-87673330D01*
X127126218Y-87693847D01*
X127136446Y-87715471D01*
X127144504Y-87737993D01*
X127150316Y-87761197D01*
X127153826Y-87784858D01*
X127155000Y-87808750D01*
X127155000Y-88721250D01*
X127153826Y-88745142D01*
X127150316Y-88768803D01*
X127144504Y-88792007D01*
X127136446Y-88814529D01*
X127126218Y-88836153D01*
X127113921Y-88856670D01*
X127099671Y-88875883D01*
X127083607Y-88893607D01*
X127065883Y-88909671D01*
X127046670Y-88923921D01*
X127026153Y-88936218D01*
X127004529Y-88946446D01*
X126982007Y-88954504D01*
X126958803Y-88960316D01*
X126935142Y-88963826D01*
X126911250Y-88965000D01*
X126423750Y-88965000D01*
X126399858Y-88963826D01*
X126376197Y-88960316D01*
X126352993Y-88954504D01*
X126330471Y-88946446D01*
X126308847Y-88936218D01*
X126288330Y-88923921D01*
X126269117Y-88909671D01*
X126251393Y-88893607D01*
X126235329Y-88875883D01*
X126221079Y-88856670D01*
X126208782Y-88836153D01*
X126198554Y-88814529D01*
X126190496Y-88792007D01*
X126184684Y-88768803D01*
X126181174Y-88745142D01*
X126180000Y-88721250D01*
X126180000Y-87808750D01*
X126181174Y-87784858D01*
X126184684Y-87761197D01*
X126190496Y-87737993D01*
X126198554Y-87715471D01*
X126208782Y-87693847D01*
X126221079Y-87673330D01*
X126235329Y-87654117D01*
X126251393Y-87636393D01*
X126269117Y-87620329D01*
X126288330Y-87606079D01*
X126308847Y-87593782D01*
X126330471Y-87583554D01*
X126352993Y-87575496D01*
X126376197Y-87569684D01*
X126399858Y-87566174D01*
X126423750Y-87565000D01*
X126911250Y-87565000D01*
X126935142Y-87566174D01*
X126935142Y-87566174D01*
G37*
D14*
G04 #@! TD*
G04 #@! TO.P,R7,1*
G04 #@! TO.N,Net-(R7-Pad1)*
X126667500Y-88265000D03*
D10*
G04 #@! TO.N,Net-(R10-Pad2)*
G04 #@! TO.C,R8*
G36*
X126935142Y-74866174D02*
X126958803Y-74869684D01*
X126982007Y-74875496D01*
X127004529Y-74883554D01*
X127026153Y-74893782D01*
X127046670Y-74906079D01*
X127065883Y-74920329D01*
X127083607Y-74936393D01*
X127099671Y-74954117D01*
X127113921Y-74973330D01*
X127126218Y-74993847D01*
X127136446Y-75015471D01*
X127144504Y-75037993D01*
X127150316Y-75061197D01*
X127153826Y-75084858D01*
X127155000Y-75108750D01*
X127155000Y-76021250D01*
X127153826Y-76045142D01*
X127150316Y-76068803D01*
X127144504Y-76092007D01*
X127136446Y-76114529D01*
X127126218Y-76136153D01*
X127113921Y-76156670D01*
X127099671Y-76175883D01*
X127083607Y-76193607D01*
X127065883Y-76209671D01*
X127046670Y-76223921D01*
X127026153Y-76236218D01*
X127004529Y-76246446D01*
X126982007Y-76254504D01*
X126958803Y-76260316D01*
X126935142Y-76263826D01*
X126911250Y-76265000D01*
X126423750Y-76265000D01*
X126399858Y-76263826D01*
X126376197Y-76260316D01*
X126352993Y-76254504D01*
X126330471Y-76246446D01*
X126308847Y-76236218D01*
X126288330Y-76223921D01*
X126269117Y-76209671D01*
X126251393Y-76193607D01*
X126235329Y-76175883D01*
X126221079Y-76156670D01*
X126208782Y-76136153D01*
X126198554Y-76114529D01*
X126190496Y-76092007D01*
X126184684Y-76068803D01*
X126181174Y-76045142D01*
X126180000Y-76021250D01*
X126180000Y-75108750D01*
X126181174Y-75084858D01*
X126184684Y-75061197D01*
X126190496Y-75037993D01*
X126198554Y-75015471D01*
X126208782Y-74993847D01*
X126221079Y-74973330D01*
X126235329Y-74954117D01*
X126251393Y-74936393D01*
X126269117Y-74920329D01*
X126288330Y-74906079D01*
X126308847Y-74893782D01*
X126330471Y-74883554D01*
X126352993Y-74875496D01*
X126376197Y-74869684D01*
X126399858Y-74866174D01*
X126423750Y-74865000D01*
X126911250Y-74865000D01*
X126935142Y-74866174D01*
X126935142Y-74866174D01*
G37*
D14*
G04 #@! TD*
G04 #@! TO.P,R8,1*
G04 #@! TO.N,Net-(R10-Pad2)*
X126667500Y-75565000D03*
D10*
G04 #@! TO.N,Net-(R6-Pad1)*
G04 #@! TO.C,R8*
G36*
X125060142Y-74866174D02*
X125083803Y-74869684D01*
X125107007Y-74875496D01*
X125129529Y-74883554D01*
X125151153Y-74893782D01*
X125171670Y-74906079D01*
X125190883Y-74920329D01*
X125208607Y-74936393D01*
X125224671Y-74954117D01*
X125238921Y-74973330D01*
X125251218Y-74993847D01*
X125261446Y-75015471D01*
X125269504Y-75037993D01*
X125275316Y-75061197D01*
X125278826Y-75084858D01*
X125280000Y-75108750D01*
X125280000Y-76021250D01*
X125278826Y-76045142D01*
X125275316Y-76068803D01*
X125269504Y-76092007D01*
X125261446Y-76114529D01*
X125251218Y-76136153D01*
X125238921Y-76156670D01*
X125224671Y-76175883D01*
X125208607Y-76193607D01*
X125190883Y-76209671D01*
X125171670Y-76223921D01*
X125151153Y-76236218D01*
X125129529Y-76246446D01*
X125107007Y-76254504D01*
X125083803Y-76260316D01*
X125060142Y-76263826D01*
X125036250Y-76265000D01*
X124548750Y-76265000D01*
X124524858Y-76263826D01*
X124501197Y-76260316D01*
X124477993Y-76254504D01*
X124455471Y-76246446D01*
X124433847Y-76236218D01*
X124413330Y-76223921D01*
X124394117Y-76209671D01*
X124376393Y-76193607D01*
X124360329Y-76175883D01*
X124346079Y-76156670D01*
X124333782Y-76136153D01*
X124323554Y-76114529D01*
X124315496Y-76092007D01*
X124309684Y-76068803D01*
X124306174Y-76045142D01*
X124305000Y-76021250D01*
X124305000Y-75108750D01*
X124306174Y-75084858D01*
X124309684Y-75061197D01*
X124315496Y-75037993D01*
X124323554Y-75015471D01*
X124333782Y-74993847D01*
X124346079Y-74973330D01*
X124360329Y-74954117D01*
X124376393Y-74936393D01*
X124394117Y-74920329D01*
X124413330Y-74906079D01*
X124433847Y-74893782D01*
X124455471Y-74883554D01*
X124477993Y-74875496D01*
X124501197Y-74869684D01*
X124524858Y-74866174D01*
X124548750Y-74865000D01*
X125036250Y-74865000D01*
X125060142Y-74866174D01*
X125060142Y-74866174D01*
G37*
D14*
G04 #@! TD*
G04 #@! TO.P,R8,2*
G04 #@! TO.N,Net-(R6-Pad1)*
X124792500Y-75565000D03*
D10*
G04 #@! TO.N,Net-(D1-Pad2)*
G04 #@! TO.C,R9*
G36*
X130745142Y-87566174D02*
X130768803Y-87569684D01*
X130792007Y-87575496D01*
X130814529Y-87583554D01*
X130836153Y-87593782D01*
X130856670Y-87606079D01*
X130875883Y-87620329D01*
X130893607Y-87636393D01*
X130909671Y-87654117D01*
X130923921Y-87673330D01*
X130936218Y-87693847D01*
X130946446Y-87715471D01*
X130954504Y-87737993D01*
X130960316Y-87761197D01*
X130963826Y-87784858D01*
X130965000Y-87808750D01*
X130965000Y-88721250D01*
X130963826Y-88745142D01*
X130960316Y-88768803D01*
X130954504Y-88792007D01*
X130946446Y-88814529D01*
X130936218Y-88836153D01*
X130923921Y-88856670D01*
X130909671Y-88875883D01*
X130893607Y-88893607D01*
X130875883Y-88909671D01*
X130856670Y-88923921D01*
X130836153Y-88936218D01*
X130814529Y-88946446D01*
X130792007Y-88954504D01*
X130768803Y-88960316D01*
X130745142Y-88963826D01*
X130721250Y-88965000D01*
X130233750Y-88965000D01*
X130209858Y-88963826D01*
X130186197Y-88960316D01*
X130162993Y-88954504D01*
X130140471Y-88946446D01*
X130118847Y-88936218D01*
X130098330Y-88923921D01*
X130079117Y-88909671D01*
X130061393Y-88893607D01*
X130045329Y-88875883D01*
X130031079Y-88856670D01*
X130018782Y-88836153D01*
X130008554Y-88814529D01*
X130000496Y-88792007D01*
X129994684Y-88768803D01*
X129991174Y-88745142D01*
X129990000Y-88721250D01*
X129990000Y-87808750D01*
X129991174Y-87784858D01*
X129994684Y-87761197D01*
X130000496Y-87737993D01*
X130008554Y-87715471D01*
X130018782Y-87693847D01*
X130031079Y-87673330D01*
X130045329Y-87654117D01*
X130061393Y-87636393D01*
X130079117Y-87620329D01*
X130098330Y-87606079D01*
X130118847Y-87593782D01*
X130140471Y-87583554D01*
X130162993Y-87575496D01*
X130186197Y-87569684D01*
X130209858Y-87566174D01*
X130233750Y-87565000D01*
X130721250Y-87565000D01*
X130745142Y-87566174D01*
X130745142Y-87566174D01*
G37*
D14*
G04 #@! TD*
G04 #@! TO.P,R9,1*
G04 #@! TO.N,Net-(D1-Pad2)*
X130477500Y-88265000D03*
D10*
G04 #@! TO.N,Net-(R7-Pad1)*
G04 #@! TO.C,R9*
G36*
X128870142Y-87566174D02*
X128893803Y-87569684D01*
X128917007Y-87575496D01*
X128939529Y-87583554D01*
X128961153Y-87593782D01*
X128981670Y-87606079D01*
X129000883Y-87620329D01*
X129018607Y-87636393D01*
X129034671Y-87654117D01*
X129048921Y-87673330D01*
X129061218Y-87693847D01*
X129071446Y-87715471D01*
X129079504Y-87737993D01*
X129085316Y-87761197D01*
X129088826Y-87784858D01*
X129090000Y-87808750D01*
X129090000Y-88721250D01*
X129088826Y-88745142D01*
X129085316Y-88768803D01*
X129079504Y-88792007D01*
X129071446Y-88814529D01*
X129061218Y-88836153D01*
X129048921Y-88856670D01*
X129034671Y-88875883D01*
X129018607Y-88893607D01*
X129000883Y-88909671D01*
X128981670Y-88923921D01*
X128961153Y-88936218D01*
X128939529Y-88946446D01*
X128917007Y-88954504D01*
X128893803Y-88960316D01*
X128870142Y-88963826D01*
X128846250Y-88965000D01*
X128358750Y-88965000D01*
X128334858Y-88963826D01*
X128311197Y-88960316D01*
X128287993Y-88954504D01*
X128265471Y-88946446D01*
X128243847Y-88936218D01*
X128223330Y-88923921D01*
X128204117Y-88909671D01*
X128186393Y-88893607D01*
X128170329Y-88875883D01*
X128156079Y-88856670D01*
X128143782Y-88836153D01*
X128133554Y-88814529D01*
X128125496Y-88792007D01*
X128119684Y-88768803D01*
X128116174Y-88745142D01*
X128115000Y-88721250D01*
X128115000Y-87808750D01*
X128116174Y-87784858D01*
X128119684Y-87761197D01*
X128125496Y-87737993D01*
X128133554Y-87715471D01*
X128143782Y-87693847D01*
X128156079Y-87673330D01*
X128170329Y-87654117D01*
X128186393Y-87636393D01*
X128204117Y-87620329D01*
X128223330Y-87606079D01*
X128243847Y-87593782D01*
X128265471Y-87583554D01*
X128287993Y-87575496D01*
X128311197Y-87569684D01*
X128334858Y-87566174D01*
X128358750Y-87565000D01*
X128846250Y-87565000D01*
X128870142Y-87566174D01*
X128870142Y-87566174D01*
G37*
D14*
G04 #@! TD*
G04 #@! TO.P,R9,2*
G04 #@! TO.N,Net-(R7-Pad1)*
X128602500Y-88265000D03*
D10*
G04 #@! TO.N,Net-(R10-Pad2)*
G04 #@! TO.C,R10*
G36*
X128870142Y-74866174D02*
X128893803Y-74869684D01*
X128917007Y-74875496D01*
X128939529Y-74883554D01*
X128961153Y-74893782D01*
X128981670Y-74906079D01*
X129000883Y-74920329D01*
X129018607Y-74936393D01*
X129034671Y-74954117D01*
X129048921Y-74973330D01*
X129061218Y-74993847D01*
X129071446Y-75015471D01*
X129079504Y-75037993D01*
X129085316Y-75061197D01*
X129088826Y-75084858D01*
X129090000Y-75108750D01*
X129090000Y-76021250D01*
X129088826Y-76045142D01*
X129085316Y-76068803D01*
X129079504Y-76092007D01*
X129071446Y-76114529D01*
X129061218Y-76136153D01*
X129048921Y-76156670D01*
X129034671Y-76175883D01*
X129018607Y-76193607D01*
X129000883Y-76209671D01*
X128981670Y-76223921D01*
X128961153Y-76236218D01*
X128939529Y-76246446D01*
X128917007Y-76254504D01*
X128893803Y-76260316D01*
X128870142Y-76263826D01*
X128846250Y-76265000D01*
X128358750Y-76265000D01*
X128334858Y-76263826D01*
X128311197Y-76260316D01*
X128287993Y-76254504D01*
X128265471Y-76246446D01*
X128243847Y-76236218D01*
X128223330Y-76223921D01*
X128204117Y-76209671D01*
X128186393Y-76193607D01*
X128170329Y-76175883D01*
X128156079Y-76156670D01*
X128143782Y-76136153D01*
X128133554Y-76114529D01*
X128125496Y-76092007D01*
X128119684Y-76068803D01*
X128116174Y-76045142D01*
X128115000Y-76021250D01*
X128115000Y-75108750D01*
X128116174Y-75084858D01*
X128119684Y-75061197D01*
X128125496Y-75037993D01*
X128133554Y-75015471D01*
X128143782Y-74993847D01*
X128156079Y-74973330D01*
X128170329Y-74954117D01*
X128186393Y-74936393D01*
X128204117Y-74920329D01*
X128223330Y-74906079D01*
X128243847Y-74893782D01*
X128265471Y-74883554D01*
X128287993Y-74875496D01*
X128311197Y-74869684D01*
X128334858Y-74866174D01*
X128358750Y-74865000D01*
X128846250Y-74865000D01*
X128870142Y-74866174D01*
X128870142Y-74866174D01*
G37*
D14*
G04 #@! TD*
G04 #@! TO.P,R10,2*
G04 #@! TO.N,Net-(R10-Pad2)*
X128602500Y-75565000D03*
D10*
G04 #@! TO.N,Net-(D1-Pad1)*
G04 #@! TO.C,R10*
G36*
X130745142Y-74866174D02*
X130768803Y-74869684D01*
X130792007Y-74875496D01*
X130814529Y-74883554D01*
X130836153Y-74893782D01*
X130856670Y-74906079D01*
X130875883Y-74920329D01*
X130893607Y-74936393D01*
X130909671Y-74954117D01*
X130923921Y-74973330D01*
X130936218Y-74993847D01*
X130946446Y-75015471D01*
X130954504Y-75037993D01*
X130960316Y-75061197D01*
X130963826Y-75084858D01*
X130965000Y-75108750D01*
X130965000Y-76021250D01*
X130963826Y-76045142D01*
X130960316Y-76068803D01*
X130954504Y-76092007D01*
X130946446Y-76114529D01*
X130936218Y-76136153D01*
X130923921Y-76156670D01*
X130909671Y-76175883D01*
X130893607Y-76193607D01*
X130875883Y-76209671D01*
X130856670Y-76223921D01*
X130836153Y-76236218D01*
X130814529Y-76246446D01*
X130792007Y-76254504D01*
X130768803Y-76260316D01*
X130745142Y-76263826D01*
X130721250Y-76265000D01*
X130233750Y-76265000D01*
X130209858Y-76263826D01*
X130186197Y-76260316D01*
X130162993Y-76254504D01*
X130140471Y-76246446D01*
X130118847Y-76236218D01*
X130098330Y-76223921D01*
X130079117Y-76209671D01*
X130061393Y-76193607D01*
X130045329Y-76175883D01*
X130031079Y-76156670D01*
X130018782Y-76136153D01*
X130008554Y-76114529D01*
X130000496Y-76092007D01*
X129994684Y-76068803D01*
X129991174Y-76045142D01*
X129990000Y-76021250D01*
X129990000Y-75108750D01*
X129991174Y-75084858D01*
X129994684Y-75061197D01*
X130000496Y-75037993D01*
X130008554Y-75015471D01*
X130018782Y-74993847D01*
X130031079Y-74973330D01*
X130045329Y-74954117D01*
X130061393Y-74936393D01*
X130079117Y-74920329D01*
X130098330Y-74906079D01*
X130118847Y-74893782D01*
X130140471Y-74883554D01*
X130162993Y-74875496D01*
X130186197Y-74869684D01*
X130209858Y-74866174D01*
X130233750Y-74865000D01*
X130721250Y-74865000D01*
X130745142Y-74866174D01*
X130745142Y-74866174D01*
G37*
D14*
G04 #@! TD*
G04 #@! TO.P,R10,1*
G04 #@! TO.N,Net-(D1-Pad1)*
X130477500Y-75565000D03*
D15*
G04 #@! TO.N,Net-(D1-Pad1)*
X129540000Y-80645000D02*
X129540000Y-78905000D01*
X130477500Y-75565000D02*
X130477500Y-77967500D01*
X130477500Y-77967500D02*
X129540000Y-78905000D01*
G04 #@! TO.N,Net-(D1-Pad2)*
X130477500Y-83682500D02*
X129540000Y-82745000D01*
X130477500Y-88265000D02*
X130477500Y-83682500D01*
G04 #@! TO.N,Net-(J1-Pad1)*
X100000000Y-87630000D02*
X104140000Y-87630000D01*
X112727500Y-87630000D02*
X113362500Y-88265000D01*
X104140000Y-87630000D02*
X112727500Y-87630000D01*
G04 #@! TO.N,Net-(R1-Pad1)*
X117172500Y-88265000D02*
X115237500Y-88265000D01*
G04 #@! TO.N,Net-(R2-Pad1)*
X115237500Y-75565000D02*
X117172500Y-75565000D01*
G04 #@! TO.N,Net-(R3-Pad1)*
X120982500Y-88265000D02*
X119047500Y-88265000D01*
G04 #@! TO.N,Net-(R4-Pad1)*
X119047500Y-75565000D02*
X120982500Y-75565000D01*
G04 #@! TO.N,Net-(R5-Pad1)*
X124792500Y-88265000D02*
X122857500Y-88265000D01*
G04 #@! TO.N,Net-(R6-Pad1)*
X122857500Y-75565000D02*
X124792500Y-75565000D01*
G04 #@! TO.N,Net-(R7-Pad1)*
X128602500Y-88265000D02*
X126667500Y-88265000D01*
G04 #@! TO.N,Net-(R10-Pad2)*
X126667500Y-75565000D02*
X128602500Y-75565000D01*
G04 #@! TO.N,Net-(J2-Pad1)*
X100000000Y-74930000D02*
X104140000Y-74930000D01*
X112727500Y-74930000D02*
X113362500Y-75565000D01*
X104140000Y-74930000D02*
X112727500Y-74930000D01*
G04 #@! TD*
M02*
