G04 #@! TF.GenerationSoftware,KiCad,Pcbnew,(5.0.2)-1*
G04 #@! TF.CreationDate,2019-04-19T20:55:02-04:00*
G04 #@! TF.ProjectId,vicor-socket,7669636f-722d-4736-9f63-6b65742e6b69,rev?*
G04 #@! TF.SameCoordinates,Original*
G04 #@! TF.FileFunction,Legend,Top*
G04 #@! TF.FilePolarity,Positive*
%FSLAX46Y46*%
G04 Gerber Fmt 4.6, Leading zero omitted, Abs format (unit mm)*
G04 Created by KiCad (PCBNEW (5.0.2)-1) date 4/19/2019 8:55:02 PM*
%MOMM*%
%LPD*%
G01*
G04 APERTURE LIST*
%ADD10C,0.300000*%
%ADD11C,0.500000*%
%ADD12C,0.200000*%
G04 APERTURE END LIST*
D10*
X78613428Y-6636428D02*
X78613428Y-5922142D01*
X77899142Y-5850714D01*
X77970571Y-5922142D01*
X78042000Y-6065000D01*
X78042000Y-6422142D01*
X77970571Y-6565000D01*
X77899142Y-6636428D01*
X77756285Y-6707857D01*
X77399142Y-6707857D01*
X77256285Y-6636428D01*
X77184857Y-6565000D01*
X77113428Y-6422142D01*
X77113428Y-6065000D01*
X77184857Y-5922142D01*
X77256285Y-5850714D01*
X77113428Y-8136428D02*
X77113428Y-7279285D01*
X77113428Y-7707857D02*
X78613428Y-7707857D01*
X78399142Y-7565000D01*
X78256285Y-7422142D01*
X78184857Y-7279285D01*
X77256285Y-8779285D02*
X77184857Y-8850714D01*
X77113428Y-8779285D01*
X77184857Y-8707857D01*
X77256285Y-8779285D01*
X77113428Y-8779285D01*
X78613428Y-9350714D02*
X78613428Y-10279285D01*
X78042000Y-9779285D01*
X78042000Y-9993571D01*
X77970571Y-10136428D01*
X77899142Y-10207857D01*
X77756285Y-10279285D01*
X77399142Y-10279285D01*
X77256285Y-10207857D01*
X77184857Y-10136428D01*
X77113428Y-9993571D01*
X77113428Y-9565000D01*
X77184857Y-9422142D01*
X77256285Y-9350714D01*
X78613428Y-11207857D02*
X78613428Y-11350714D01*
X78542000Y-11493571D01*
X78470571Y-11565000D01*
X78327714Y-11636428D01*
X78042000Y-11707857D01*
X77684857Y-11707857D01*
X77399142Y-11636428D01*
X77256285Y-11565000D01*
X77184857Y-11493571D01*
X77113428Y-11350714D01*
X77113428Y-11207857D01*
X77184857Y-11065000D01*
X77256285Y-10993571D01*
X77399142Y-10922142D01*
X77684857Y-10850714D01*
X78042000Y-10850714D01*
X78327714Y-10922142D01*
X78470571Y-10993571D01*
X78542000Y-11065000D01*
X78613428Y-11207857D01*
X77970571Y-12565000D02*
X78042000Y-12422142D01*
X78113428Y-12350714D01*
X78256285Y-12279285D01*
X78327714Y-12279285D01*
X78470571Y-12350714D01*
X78542000Y-12422142D01*
X78613428Y-12565000D01*
X78613428Y-12850714D01*
X78542000Y-12993571D01*
X78470571Y-13065000D01*
X78327714Y-13136428D01*
X78256285Y-13136428D01*
X78113428Y-13065000D01*
X78042000Y-12993571D01*
X77970571Y-12850714D01*
X77970571Y-12565000D01*
X77899142Y-12422142D01*
X77827714Y-12350714D01*
X77684857Y-12279285D01*
X77399142Y-12279285D01*
X77256285Y-12350714D01*
X77184857Y-12422142D01*
X77113428Y-12565000D01*
X77113428Y-12850714D01*
X77184857Y-12993571D01*
X77256285Y-13065000D01*
X77399142Y-13136428D01*
X77684857Y-13136428D01*
X77827714Y-13065000D01*
X77899142Y-12993571D01*
X77970571Y-12850714D01*
X77113428Y-14922142D02*
X78113428Y-14922142D01*
X77970571Y-14922142D02*
X78042000Y-14993571D01*
X78113428Y-15136428D01*
X78113428Y-15350714D01*
X78042000Y-15493571D01*
X77899142Y-15565000D01*
X77113428Y-15565000D01*
X77899142Y-15565000D02*
X78042000Y-15636428D01*
X78113428Y-15779285D01*
X78113428Y-15993571D01*
X78042000Y-16136428D01*
X77899142Y-16207857D01*
X77113428Y-16207857D01*
X77113428Y-16922142D02*
X78113428Y-16922142D01*
X77970571Y-16922142D02*
X78042000Y-16993571D01*
X78113428Y-17136428D01*
X78113428Y-17350714D01*
X78042000Y-17493571D01*
X77899142Y-17565000D01*
X77113428Y-17565000D01*
X77899142Y-17565000D02*
X78042000Y-17636428D01*
X78113428Y-17779285D01*
X78113428Y-17993571D01*
X78042000Y-18136428D01*
X77899142Y-18207857D01*
X77113428Y-18207857D01*
X75692000Y13589000D02*
X75692000Y-37719000D01*
X61468000Y13589000D02*
X76278421Y13589000D01*
X61468000Y-37719000D02*
X76278421Y-37719000D01*
X75692000Y-37719000D02*
X75105579Y-36592496D01*
X75692000Y-37719000D02*
X76278421Y-36592496D01*
X75692000Y13589000D02*
X75105579Y12462496D01*
X75692000Y13589000D02*
X76278421Y12462496D01*
X24194285Y19050428D02*
X25194285Y19050428D01*
X24551428Y17550428D01*
X25694285Y18907571D02*
X25765714Y18979000D01*
X25908571Y19050428D01*
X26265714Y19050428D01*
X26408571Y18979000D01*
X26480000Y18907571D01*
X26551428Y18764714D01*
X26551428Y18621857D01*
X26480000Y18407571D01*
X25622857Y17550428D01*
X26551428Y17550428D01*
X27194285Y17693285D02*
X27265714Y17621857D01*
X27194285Y17550428D01*
X27122857Y17621857D01*
X27194285Y17693285D01*
X27194285Y17550428D01*
X28694285Y17550428D02*
X27837142Y17550428D01*
X28265714Y17550428D02*
X28265714Y19050428D01*
X28122857Y18836142D01*
X27980000Y18693285D01*
X27837142Y18621857D01*
X29194285Y19050428D02*
X30122857Y19050428D01*
X29622857Y18479000D01*
X29837142Y18479000D01*
X29980000Y18407571D01*
X30051428Y18336142D01*
X30122857Y18193285D01*
X30122857Y17836142D01*
X30051428Y17693285D01*
X29980000Y17621857D01*
X29837142Y17550428D01*
X29408571Y17550428D01*
X29265714Y17621857D01*
X29194285Y17693285D01*
X31408571Y19050428D02*
X31122857Y19050428D01*
X30980000Y18979000D01*
X30908571Y18907571D01*
X30765714Y18693285D01*
X30694285Y18407571D01*
X30694285Y17836142D01*
X30765714Y17693285D01*
X30837142Y17621857D01*
X30980000Y17550428D01*
X31265714Y17550428D01*
X31408571Y17621857D01*
X31480000Y17693285D01*
X31551428Y17836142D01*
X31551428Y18193285D01*
X31480000Y18336142D01*
X31408571Y18407571D01*
X31265714Y18479000D01*
X30980000Y18479000D01*
X30837142Y18407571D01*
X30765714Y18336142D01*
X30694285Y18193285D01*
X33337142Y17550428D02*
X33337142Y18550428D01*
X33337142Y18407571D02*
X33408571Y18479000D01*
X33551428Y18550428D01*
X33765714Y18550428D01*
X33908571Y18479000D01*
X33980000Y18336142D01*
X33980000Y17550428D01*
X33980000Y18336142D02*
X34051428Y18479000D01*
X34194285Y18550428D01*
X34408571Y18550428D01*
X34551428Y18479000D01*
X34622857Y18336142D01*
X34622857Y17550428D01*
X35337142Y17550428D02*
X35337142Y18550428D01*
X35337142Y18407571D02*
X35408571Y18479000D01*
X35551428Y18550428D01*
X35765714Y18550428D01*
X35908571Y18479000D01*
X35980000Y18336142D01*
X35980000Y17550428D01*
X35980000Y18336142D02*
X36051428Y18479000D01*
X36194285Y18550428D01*
X36408571Y18550428D01*
X36551428Y18479000D01*
X36622857Y18336142D01*
X36622857Y17550428D01*
X-5588000Y16129000D02*
X66548000Y16129000D01*
X-5588000Y1397000D02*
X-5588000Y16715421D01*
X66548000Y1397000D02*
X66548000Y16715421D01*
X66548000Y16129000D02*
X65421496Y15542579D01*
X66548000Y16129000D02*
X65421496Y16715421D01*
X-5588000Y16129000D02*
X-4461496Y15542579D01*
X-5588000Y16129000D02*
X-4461496Y16715421D01*
D11*
X-4444857Y-19772285D02*
X-2159142Y-19772285D01*
X-4444857Y-4278285D02*
X-2159142Y-4278285D01*
X-3302000Y-5421142D02*
X-3302000Y-3135428D01*
D10*
X-3972571Y-8312571D02*
X-3115428Y-8312571D01*
X-3544000Y-9812571D02*
X-3544000Y-8312571D01*
X-1758285Y-9812571D02*
X-2258285Y-9098285D01*
X-2615428Y-9812571D02*
X-2615428Y-8312571D01*
X-2044000Y-8312571D01*
X-1901142Y-8384000D01*
X-1829714Y-8455428D01*
X-1758285Y-8598285D01*
X-1758285Y-8812571D01*
X-1829714Y-8955428D01*
X-1901142Y-9026857D01*
X-2044000Y-9098285D01*
X-2615428Y-9098285D01*
X-3901142Y-11576857D02*
X-3401142Y-11576857D01*
X-3186857Y-12362571D02*
X-3901142Y-12362571D01*
X-3901142Y-10862571D01*
X-3186857Y-10862571D01*
X-2544000Y-12362571D02*
X-2544000Y-10862571D01*
X-1686857Y-12362571D01*
X-1686857Y-10862571D01*
X-3151142Y-14126857D02*
X-3651142Y-14126857D01*
X-3651142Y-14912571D02*
X-3651142Y-13412571D01*
X-2936857Y-13412571D01*
X-2579714Y-13412571D02*
X-1722571Y-13412571D01*
X-2151142Y-14912571D02*
X-2151142Y-13412571D01*
D11*
X59563142Y-9906285D02*
X61848857Y-9906285D01*
X60706000Y-11049142D02*
X60706000Y-8763428D01*
X59563142Y-14906285D02*
X61848857Y-14906285D01*
D12*
G04 #@! TO.C,U1*
X7772800Y-738801D02*
X7772800Y-815001D01*
X7772800Y-23462601D02*
X7772800Y-23538801D01*
X53551000Y-815001D02*
G75*
G02X54516200Y-1780201I0J-965200D01*
G01*
X53347800Y-23538801D02*
X53347800Y-23462601D01*
X53347800Y-738801D02*
X7772800Y-738801D01*
X6604400Y-22497401D02*
X6604400Y-1780201D01*
X6604400Y-1780201D02*
G75*
G02X7569600Y-815001I965200J0D01*
G01*
X7772800Y-23538801D02*
X53347800Y-23538801D01*
X53551000Y-23462601D02*
X53347800Y-23462601D01*
X53347800Y-738801D02*
X53347800Y-815001D01*
X54516200Y-22497401D02*
X54516200Y-1780201D01*
X54516200Y-22497401D02*
G75*
G02X53551000Y-23462601I-965200J0D01*
G01*
X7569600Y-815001D02*
X7772800Y-815001D01*
X7569600Y-23462601D02*
G75*
G02X6604400Y-22497401I0J965200D01*
G01*
X7569600Y-23462601D02*
X7772800Y-23462601D01*
X53551000Y-815001D02*
X53347800Y-815001D01*
X47101000Y-22220193D02*
X47101000Y-2109809D01*
X9582940Y-26860001D02*
X9431587Y-26987001D01*
X7551000Y6339999D02*
X7551000Y6212999D01*
X51670413Y2656999D02*
X53551000Y4234999D01*
X51519060Y-26860001D02*
X47815425Y-23752282D01*
X53551000Y-28565001D02*
X51670413Y-26987001D01*
X53551000Y-37565001D02*
X53551000Y-30670001D01*
X23952999Y-26987001D02*
G75*
G02X21731201Y-26987001I-1110899J852000D01*
G01*
X53551000Y-30543001D02*
X53551000Y-28565001D01*
X7551000Y13234999D02*
X7551000Y6339999D01*
X47815425Y-577720D02*
X51519060Y2529999D01*
X13286575Y-23752282D02*
X9582940Y-26860001D01*
X51519060Y2529999D02*
X51670413Y2656999D01*
X12667991Y2656999D02*
G75*
G02X15494010Y2656999I1413009J-852000D01*
G01*
X47815425Y-23752282D02*
G75*
G02X47101000Y-22220193I1285575J1532089D01*
G01*
X7551000Y-37565001D02*
X53551000Y-37565001D01*
X15563186Y2529999D02*
G75*
G02X12598814Y2529999I-1482186J-725000D01*
G01*
X51670413Y-26987001D02*
X51519060Y-26860001D01*
X7551000Y-30670001D02*
X7551000Y-37565001D01*
X51576000Y-28765001D02*
G75*
G03X51576000Y-28765001I-1025000J0D01*
G01*
X53551000Y-30670001D02*
X53551000Y-30543001D01*
X9431587Y-26987001D02*
X7551000Y-28565001D01*
X45538814Y-26860001D02*
G75*
G02X48503186Y-26860001I1482186J725000D01*
G01*
X39457554Y2529999D02*
G75*
G02X37062246Y2529999I-1197654J-725000D01*
G01*
X53551000Y13234999D02*
X7551000Y13234999D01*
X53551000Y6212999D02*
X53551000Y6339999D01*
X45607991Y2656999D02*
G75*
G02X48434010Y2656999I1413009J-852000D01*
G01*
X47101000Y-2109809D02*
G75*
G02X47815425Y-577720I2000000J0D01*
G01*
X15494009Y-26987001D02*
G75*
G02X12667990Y-26987001I-1413009J852000D01*
G01*
X12598814Y-26860001D02*
G75*
G02X15563186Y-26860001I1482186J725000D01*
G01*
X48434009Y-26987001D02*
G75*
G02X45607990Y-26987001I-1413009J852000D01*
G01*
X21644446Y-26860001D02*
G75*
G02X24039754Y-26860001I1197654J725000D01*
G01*
X14001000Y-2109809D02*
X14001000Y-22220193D01*
X7551000Y6212999D02*
X7551000Y4234999D01*
X7551000Y-30543001D02*
X7551000Y-30670001D01*
X7551000Y-28565001D02*
X7551000Y-30543001D01*
X48503186Y2529999D02*
G75*
G02X45538814Y2529999I-1482186J-725000D01*
G01*
X37149001Y2656999D02*
G75*
G02X39370799Y2656999I1110899J-852000D01*
G01*
X11576000Y4434999D02*
G75*
G03X11576000Y4434999I-1025000J0D01*
G01*
X14001000Y-22220193D02*
G75*
G02X13286575Y-23752282I-2000000J0D01*
G01*
X51576000Y4434999D02*
G75*
G03X51576000Y4434999I-1025000J0D01*
G01*
X9582940Y2529999D02*
X13286575Y-577720D01*
X7551000Y4234999D02*
X9431587Y2656999D01*
X13286575Y-577720D02*
G75*
G02X14001000Y-2109809I-1285575J-1532089D01*
G01*
X9431587Y2656999D02*
X9582940Y2529999D01*
X11576000Y-28765001D02*
G75*
G03X11576000Y-28765001I-1025000J0D01*
G01*
X53551000Y6339999D02*
X53551000Y13234999D01*
X53551000Y4234999D02*
X53551000Y6212999D01*
G04 #@! TD*
M02*
