M48
;DRILL file {KiCad (5.0.2)-1} date 4/19/2019 8:55:04 PM
;FORMAT={-:-/ absolute / inch / decimal}
FMAT,2
INCH,TZ
T1C0.0197
T2C0.0394
T3C0.0598
T4C0.0799
T5C0.1161
T6C0.1260
%
G90
G05
T1
X-0.0945Y-0.955
X-0.0668Y-0.8882
X-0.0668Y-1.0218
X0.Y-0.8605
X0.Y-1.0495
X0.0668Y-0.8882
X0.0668Y-1.0218
X0.0945Y-0.955
X-0.0945Y0.
X-0.0668Y0.0668
X-0.0668Y-0.0668
X0.Y0.0945
X0.Y-0.0945
X0.0668Y0.0668
X0.0668Y-0.0668
X0.0945Y0.
X2.2955Y-0.785
X2.3232Y-0.7182
X2.3232Y-0.8518
X2.39Y-0.6905
X2.39Y-0.8795
X2.4568Y-0.7182
X2.4568Y-0.8518
X2.4845Y-0.785
X2.2955Y-0.175
X2.3232Y-0.1082
X2.3232Y-0.2418
X2.39Y-0.0805
X2.39Y-0.2695
X2.4568Y-0.1082
X2.4568Y-0.2418
X2.4845Y-0.175
T2
X0.04Y-0.355
X0.04Y-0.455
X0.04Y-0.555
T3
X0.2898Y-0.4246
X0.2898Y-0.5333
X0.2898Y-0.6415
T4
X0.2898Y-0.164
X0.2898Y-0.7939
X0.8993Y-1.0289
X1.5063Y0.0711
X2.1158Y-0.1541
X2.1158Y-0.3707
X2.1158Y-0.5872
X2.1158Y-0.8037
T5
X0.4154Y0.1746
X0.4154Y-1.1325
X1.9902Y0.1746
X1.9902Y-1.1325
T6
X0.Y-0.955
X0.Y0.
X2.39Y-0.785
X2.39Y-0.175
T0
M30
