G04 #@! TF.GenerationSoftware,KiCad,Pcbnew,(5.0.2)-1*
G04 #@! TF.CreationDate,2019-04-19T20:55:02-04:00*
G04 #@! TF.ProjectId,vicor-socket,7669636f-722d-4736-9f63-6b65742e6b69,rev?*
G04 #@! TF.SameCoordinates,Original*
G04 #@! TF.FileFunction,Legend,Bot*
G04 #@! TF.FilePolarity,Positive*
%FSLAX46Y46*%
G04 Gerber Fmt 4.6, Leading zero omitted, Abs format (unit mm)*
G04 Created by KiCad (PCBNEW (5.0.2)-1) date 4/19/2019 8:55:02 PM*
%MOMM*%
%LPD*%
G01*
G04 APERTURE LIST*
%ADD10C,0.300000*%
%ADD11C,0.500000*%
%ADD12C,0.120000*%
%ADD13C,0.200000*%
%ADD14C,0.010000*%
%ADD15C,0.150000*%
G04 APERTURE END LIST*
D10*
X40234000Y-31304571D02*
X39376857Y-31304571D01*
X39805428Y-32804571D02*
X39805428Y-31304571D01*
X38876857Y-32804571D02*
X38876857Y-31304571D01*
X38234000Y-32804571D02*
X38234000Y-32018857D01*
X38305428Y-31876000D01*
X38448285Y-31804571D01*
X38662571Y-31804571D01*
X38805428Y-31876000D01*
X38876857Y-31947428D01*
X37519714Y-32804571D02*
X37519714Y-31804571D01*
X37519714Y-31304571D02*
X37591142Y-31376000D01*
X37519714Y-31447428D01*
X37448285Y-31376000D01*
X37519714Y-31304571D01*
X37519714Y-31447428D01*
X36876857Y-32733142D02*
X36734000Y-32804571D01*
X36448285Y-32804571D01*
X36305428Y-32733142D01*
X36234000Y-32590285D01*
X36234000Y-32518857D01*
X36305428Y-32376000D01*
X36448285Y-32304571D01*
X36662571Y-32304571D01*
X36805428Y-32233142D01*
X36876857Y-32090285D01*
X36876857Y-32018857D01*
X36805428Y-31876000D01*
X36662571Y-31804571D01*
X36448285Y-31804571D01*
X36305428Y-31876000D01*
X34234000Y-32804571D02*
X34376857Y-32733142D01*
X34448285Y-32661714D01*
X34519714Y-32518857D01*
X34519714Y-32090285D01*
X34448285Y-31947428D01*
X34376857Y-31876000D01*
X34234000Y-31804571D01*
X34019714Y-31804571D01*
X33876857Y-31876000D01*
X33805428Y-31947428D01*
X33734000Y-32090285D01*
X33734000Y-32518857D01*
X33805428Y-32661714D01*
X33876857Y-32733142D01*
X34019714Y-32804571D01*
X34234000Y-32804571D01*
X33091142Y-31804571D02*
X33091142Y-32804571D01*
X33091142Y-31947428D02*
X33019714Y-31876000D01*
X32876857Y-31804571D01*
X32662571Y-31804571D01*
X32519714Y-31876000D01*
X32448285Y-32018857D01*
X32448285Y-32804571D01*
X31162571Y-32733142D02*
X31305428Y-32804571D01*
X31591142Y-32804571D01*
X31734000Y-32733142D01*
X31805428Y-32590285D01*
X31805428Y-32018857D01*
X31734000Y-31876000D01*
X31591142Y-31804571D01*
X31305428Y-31804571D01*
X31162571Y-31876000D01*
X31091142Y-32018857D01*
X31091142Y-32161714D01*
X31805428Y-32304571D01*
X29305428Y-32804571D02*
X29305428Y-31304571D01*
X28662571Y-32804571D02*
X28662571Y-32018857D01*
X28734000Y-31876000D01*
X28876857Y-31804571D01*
X29091142Y-31804571D01*
X29234000Y-31876000D01*
X29305428Y-31947428D01*
X27305428Y-32804571D02*
X27305428Y-32018857D01*
X27376857Y-31876000D01*
X27519714Y-31804571D01*
X27805428Y-31804571D01*
X27948285Y-31876000D01*
X27305428Y-32733142D02*
X27448285Y-32804571D01*
X27805428Y-32804571D01*
X27948285Y-32733142D01*
X28019714Y-32590285D01*
X28019714Y-32447428D01*
X27948285Y-32304571D01*
X27805428Y-32233142D01*
X27448285Y-32233142D01*
X27305428Y-32161714D01*
X26662571Y-32733142D02*
X26519714Y-32804571D01*
X26234000Y-32804571D01*
X26091142Y-32733142D01*
X26019714Y-32590285D01*
X26019714Y-32518857D01*
X26091142Y-32376000D01*
X26234000Y-32304571D01*
X26448285Y-32304571D01*
X26591142Y-32233142D01*
X26662571Y-32090285D01*
X26662571Y-32018857D01*
X26591142Y-31876000D01*
X26448285Y-31804571D01*
X26234000Y-31804571D01*
X26091142Y-31876000D01*
X24448285Y-31804571D02*
X23876857Y-31804571D01*
X24234000Y-31304571D02*
X24234000Y-32590285D01*
X24162571Y-32733142D01*
X24019714Y-32804571D01*
X23876857Y-32804571D01*
X23376857Y-32804571D02*
X23376857Y-31304571D01*
X22734000Y-32804571D02*
X22734000Y-32018857D01*
X22805428Y-31876000D01*
X22948285Y-31804571D01*
X23162571Y-31804571D01*
X23305428Y-31876000D01*
X23376857Y-31947428D01*
X21448285Y-32733142D02*
X21591142Y-32804571D01*
X21876857Y-32804571D01*
X22019714Y-32733142D01*
X22091142Y-32590285D01*
X22091142Y-32018857D01*
X22019714Y-31876000D01*
X21876857Y-31804571D01*
X21591142Y-31804571D01*
X21448285Y-31876000D01*
X21376857Y-32018857D01*
X21376857Y-32161714D01*
X22091142Y-32304571D01*
X38876857Y-35283142D02*
X39019714Y-35354571D01*
X39305428Y-35354571D01*
X39448285Y-35283142D01*
X39519714Y-35211714D01*
X39591142Y-35068857D01*
X39591142Y-34640285D01*
X39519714Y-34497428D01*
X39448285Y-34426000D01*
X39305428Y-34354571D01*
X39019714Y-34354571D01*
X38876857Y-34426000D01*
X38019714Y-35354571D02*
X38162571Y-35283142D01*
X38234000Y-35211714D01*
X38305428Y-35068857D01*
X38305428Y-34640285D01*
X38234000Y-34497428D01*
X38162571Y-34426000D01*
X38019714Y-34354571D01*
X37805428Y-34354571D01*
X37662571Y-34426000D01*
X37591142Y-34497428D01*
X37519714Y-34640285D01*
X37519714Y-35068857D01*
X37591142Y-35211714D01*
X37662571Y-35283142D01*
X37805428Y-35354571D01*
X38019714Y-35354571D01*
X36876857Y-35354571D02*
X36876857Y-34354571D01*
X36876857Y-34640285D02*
X36805428Y-34497428D01*
X36734000Y-34426000D01*
X36591142Y-34354571D01*
X36448285Y-34354571D01*
X35948285Y-35354571D02*
X35948285Y-34354571D01*
X35948285Y-34640285D02*
X35876857Y-34497428D01*
X35805428Y-34426000D01*
X35662571Y-34354571D01*
X35519714Y-34354571D01*
X34448285Y-35283142D02*
X34591142Y-35354571D01*
X34876857Y-35354571D01*
X35019714Y-35283142D01*
X35091142Y-35140285D01*
X35091142Y-34568857D01*
X35019714Y-34426000D01*
X34876857Y-34354571D01*
X34591142Y-34354571D01*
X34448285Y-34426000D01*
X34376857Y-34568857D01*
X34376857Y-34711714D01*
X35091142Y-34854571D01*
X33091142Y-35283142D02*
X33234000Y-35354571D01*
X33519714Y-35354571D01*
X33662571Y-35283142D01*
X33734000Y-35211714D01*
X33805428Y-35068857D01*
X33805428Y-34640285D01*
X33734000Y-34497428D01*
X33662571Y-34426000D01*
X33519714Y-34354571D01*
X33234000Y-34354571D01*
X33091142Y-34426000D01*
X32662571Y-34354571D02*
X32091142Y-34354571D01*
X32448285Y-33854571D02*
X32448285Y-35140285D01*
X32376857Y-35283142D01*
X32234000Y-35354571D01*
X32091142Y-35354571D01*
X30448285Y-34354571D02*
X30448285Y-35854571D01*
X30448285Y-34426000D02*
X30305428Y-34354571D01*
X30019714Y-34354571D01*
X29876857Y-34426000D01*
X29805428Y-34497428D01*
X29734000Y-34640285D01*
X29734000Y-35068857D01*
X29805428Y-35211714D01*
X29876857Y-35283142D01*
X30019714Y-35354571D01*
X30305428Y-35354571D01*
X30448285Y-35283142D01*
X28876857Y-35354571D02*
X29019714Y-35283142D01*
X29091142Y-35211714D01*
X29162571Y-35068857D01*
X29162571Y-34640285D01*
X29091142Y-34497428D01*
X29019714Y-34426000D01*
X28876857Y-34354571D01*
X28662571Y-34354571D01*
X28519714Y-34426000D01*
X28448285Y-34497428D01*
X28376857Y-34640285D01*
X28376857Y-35068857D01*
X28448285Y-35211714D01*
X28519714Y-35283142D01*
X28662571Y-35354571D01*
X28876857Y-35354571D01*
X27519714Y-35354571D02*
X27662571Y-35283142D01*
X27734000Y-35140285D01*
X27734000Y-33854571D01*
X26305428Y-35354571D02*
X26305428Y-34568857D01*
X26376857Y-34426000D01*
X26519714Y-34354571D01*
X26805428Y-34354571D01*
X26948285Y-34426000D01*
X26305428Y-35283142D02*
X26448285Y-35354571D01*
X26805428Y-35354571D01*
X26948285Y-35283142D01*
X27019714Y-35140285D01*
X27019714Y-34997428D01*
X26948285Y-34854571D01*
X26805428Y-34783142D01*
X26448285Y-34783142D01*
X26305428Y-34711714D01*
X25591142Y-35354571D02*
X25591142Y-34354571D01*
X25591142Y-34640285D02*
X25519714Y-34497428D01*
X25448285Y-34426000D01*
X25305428Y-34354571D01*
X25162571Y-34354571D01*
X24662571Y-35354571D02*
X24662571Y-34354571D01*
X24662571Y-33854571D02*
X24734000Y-33926000D01*
X24662571Y-33997428D01*
X24591142Y-33926000D01*
X24662571Y-33854571D01*
X24662571Y-33997428D01*
X24162571Y-34354571D02*
X23591142Y-34354571D01*
X23948285Y-33854571D02*
X23948285Y-35140285D01*
X23876857Y-35283142D01*
X23734000Y-35354571D01*
X23591142Y-35354571D01*
X23234000Y-34354571D02*
X22876857Y-35354571D01*
X22519714Y-34354571D02*
X22876857Y-35354571D01*
X23019714Y-35711714D01*
X23091142Y-35783142D01*
X23234000Y-35854571D01*
X21948285Y-35211714D02*
X21876857Y-35283142D01*
X21948285Y-35354571D01*
X22019714Y-35283142D01*
X21948285Y-35211714D01*
X21948285Y-35354571D01*
X-1615428Y-8312571D02*
X-2472571Y-8312571D01*
X-2044000Y-9812571D02*
X-2044000Y-8312571D01*
X-3829714Y-9812571D02*
X-3329714Y-9098285D01*
X-2972571Y-9812571D02*
X-2972571Y-8312571D01*
X-3544000Y-8312571D01*
X-3686857Y-8384000D01*
X-3758285Y-8455428D01*
X-3829714Y-8598285D01*
X-3829714Y-8812571D01*
X-3758285Y-8955428D01*
X-3686857Y-9026857D01*
X-3544000Y-9098285D01*
X-2972571Y-9098285D01*
X-1686857Y-11576857D02*
X-2186857Y-11576857D01*
X-2401142Y-12362571D02*
X-1686857Y-12362571D01*
X-1686857Y-10862571D01*
X-2401142Y-10862571D01*
X-3044000Y-12362571D02*
X-3044000Y-10862571D01*
X-3901142Y-12362571D01*
X-3901142Y-10862571D01*
X-2436857Y-14126857D02*
X-1936857Y-14126857D01*
X-1936857Y-14912571D02*
X-1936857Y-13412571D01*
X-2651142Y-13412571D01*
X-3008285Y-13412571D02*
X-3865428Y-13412571D01*
X-3436857Y-14912571D02*
X-3436857Y-13412571D01*
D11*
X-2159142Y-19772285D02*
X-4444857Y-19772285D01*
X-2159142Y-4278285D02*
X-4444857Y-4278285D01*
X-3302000Y-5421142D02*
X-3302000Y-3135428D01*
X61848857Y-9906285D02*
X59563142Y-9906285D01*
X60706000Y-11049142D02*
X60706000Y-8763428D01*
X61848857Y-14906285D02*
X59563142Y-14906285D01*
D10*
X32988000Y6417428D02*
X32988000Y5417428D01*
X33345142Y6988857D02*
X33702285Y5917428D01*
X32773714Y5917428D01*
X31916571Y6917428D02*
X31773714Y6917428D01*
X31630857Y6846000D01*
X31559428Y6774571D01*
X31488000Y6631714D01*
X31416571Y6346000D01*
X31416571Y5988857D01*
X31488000Y5703142D01*
X31559428Y5560285D01*
X31630857Y5488857D01*
X31773714Y5417428D01*
X31916571Y5417428D01*
X32059428Y5488857D01*
X32130857Y5560285D01*
X32202285Y5703142D01*
X32273714Y5988857D01*
X32273714Y6346000D01*
X32202285Y6631714D01*
X32130857Y6774571D01*
X32059428Y6846000D01*
X31916571Y6917428D01*
X30488000Y6917428D02*
X30345142Y6917428D01*
X30202285Y6846000D01*
X30130857Y6774571D01*
X30059428Y6631714D01*
X29988000Y6346000D01*
X29988000Y5988857D01*
X30059428Y5703142D01*
X30130857Y5560285D01*
X30202285Y5488857D01*
X30345142Y5417428D01*
X30488000Y5417428D01*
X30630857Y5488857D01*
X30702285Y5560285D01*
X30773714Y5703142D01*
X30845142Y5988857D01*
X30845142Y6346000D01*
X30773714Y6631714D01*
X30702285Y6774571D01*
X30630857Y6846000D01*
X30488000Y6917428D01*
X29488000Y6917428D02*
X29130857Y5417428D01*
X28845142Y6488857D01*
X28559428Y5417428D01*
X28202285Y6917428D01*
X41702285Y8211428D02*
X42559428Y8211428D01*
X42130857Y8211428D02*
X42130857Y9711428D01*
X42273714Y9497142D01*
X42416571Y9354285D01*
X42559428Y9282857D01*
X41130857Y9568571D02*
X41059428Y9640000D01*
X40916571Y9711428D01*
X40559428Y9711428D01*
X40416571Y9640000D01*
X40345142Y9568571D01*
X40273714Y9425714D01*
X40273714Y9282857D01*
X40345142Y9068571D01*
X41202285Y8211428D01*
X40273714Y8211428D01*
X39845142Y9711428D02*
X39345142Y8211428D01*
X38845142Y9711428D01*
X36059428Y9211428D02*
X37202285Y8782857D01*
X36059428Y8354285D01*
X35345142Y8782857D02*
X34202285Y8782857D01*
X33488000Y8782857D02*
X32345142Y8782857D01*
X29702285Y8211428D02*
X30559428Y8211428D01*
X30130857Y8211428D02*
X30130857Y9711428D01*
X30273714Y9497142D01*
X30416571Y9354285D01*
X30559428Y9282857D01*
X29130857Y9568571D02*
X29059428Y9640000D01*
X28916571Y9711428D01*
X28559428Y9711428D01*
X28416571Y9640000D01*
X28345142Y9568571D01*
X28273714Y9425714D01*
X28273714Y9282857D01*
X28345142Y9068571D01*
X29202285Y8211428D01*
X28273714Y8211428D01*
X27345142Y9711428D02*
X27202285Y9711428D01*
X27059428Y9640000D01*
X26987999Y9568571D01*
X26916571Y9425714D01*
X26845142Y9140000D01*
X26845142Y8782857D01*
X26916571Y8497142D01*
X26987999Y8354285D01*
X27059428Y8282857D01*
X27202285Y8211428D01*
X27345142Y8211428D01*
X27487999Y8282857D01*
X27559428Y8354285D01*
X27630857Y8497142D01*
X27702285Y8782857D01*
X27702285Y9140000D01*
X27630857Y9425714D01*
X27559428Y9568571D01*
X27487999Y9640000D01*
X27345142Y9711428D01*
X26202285Y8782857D02*
X25059428Y8782857D01*
X23702285Y9211428D02*
X23702285Y8211428D01*
X24059428Y9782857D02*
X24416571Y8711428D01*
X23487999Y8711428D01*
X22987999Y9568571D02*
X22916571Y9640000D01*
X22773714Y9711428D01*
X22416571Y9711428D01*
X22273714Y9640000D01*
X22202285Y9568571D01*
X22130857Y9425714D01*
X22130857Y9282857D01*
X22202285Y9068571D01*
X23059428Y8211428D01*
X22130857Y8211428D01*
X21202285Y9711428D02*
X21059428Y9711428D01*
X20916571Y9640000D01*
X20845142Y9568571D01*
X20773714Y9425714D01*
X20702285Y9140000D01*
X20702285Y8782857D01*
X20773714Y8497142D01*
X20845142Y8354285D01*
X20916571Y8282857D01*
X21059428Y8211428D01*
X21202285Y8211428D01*
X21345142Y8282857D01*
X21416571Y8354285D01*
X21487999Y8497142D01*
X21559428Y8782857D01*
X21559428Y9140000D01*
X21487999Y9425714D01*
X21416571Y9568571D01*
X21345142Y9640000D01*
X21202285Y9711428D01*
X20273714Y9711428D02*
X19773714Y8211428D01*
X19273714Y9711428D01*
X45587142Y-2734571D02*
X45230000Y-4234571D01*
X44944285Y-3163142D01*
X44658571Y-4234571D01*
X44301428Y-2734571D01*
X43730000Y-4234571D02*
X43730000Y-3234571D01*
X43730000Y-2734571D02*
X43801428Y-2806000D01*
X43730000Y-2877428D01*
X43658571Y-2806000D01*
X43730000Y-2734571D01*
X43730000Y-2877428D01*
X42801428Y-4234571D02*
X42944285Y-4163142D01*
X43015714Y-4020285D01*
X43015714Y-2734571D01*
X42015714Y-4234571D02*
X42158571Y-4163142D01*
X42230000Y-4020285D01*
X42230000Y-2734571D01*
X40872857Y-4163142D02*
X41015714Y-4234571D01*
X41301428Y-4234571D01*
X41444285Y-4163142D01*
X41515714Y-4020285D01*
X41515714Y-3448857D01*
X41444285Y-3306000D01*
X41301428Y-3234571D01*
X41015714Y-3234571D01*
X40872857Y-3306000D01*
X40801428Y-3448857D01*
X40801428Y-3591714D01*
X41515714Y-3734571D01*
X40158571Y-4234571D02*
X40158571Y-3234571D01*
X40158571Y-3377428D02*
X40087142Y-3306000D01*
X39944285Y-3234571D01*
X39730000Y-3234571D01*
X39587142Y-3306000D01*
X39515714Y-3448857D01*
X39515714Y-4234571D01*
X39515714Y-3448857D02*
X39444285Y-3306000D01*
X39301428Y-3234571D01*
X39087142Y-3234571D01*
X38944285Y-3306000D01*
X38872857Y-3448857D01*
X38872857Y-4234571D01*
X37015714Y-4234571D02*
X37015714Y-2734571D01*
X37015714Y-3448857D02*
X36158571Y-3448857D01*
X36158571Y-4234571D02*
X36158571Y-2734571D01*
X35444285Y-4234571D02*
X35444285Y-3234571D01*
X35444285Y-2734571D02*
X35515714Y-2806000D01*
X35444285Y-2877428D01*
X35372857Y-2806000D01*
X35444285Y-2734571D01*
X35444285Y-2877428D01*
X34515714Y-4234571D02*
X34658571Y-4163142D01*
X34730000Y-4020285D01*
X34730000Y-2734571D01*
X33730000Y-4234571D02*
X33872857Y-4163142D01*
X33944285Y-4020285D01*
X33944285Y-2734571D01*
X33158571Y-4234571D02*
X33158571Y-3234571D01*
X33158571Y-2734571D02*
X33230000Y-2806000D01*
X33158571Y-2877428D01*
X33087142Y-2806000D01*
X33158571Y-2734571D01*
X33158571Y-2877428D01*
X31872857Y-4163142D02*
X32015714Y-4234571D01*
X32301428Y-4234571D01*
X32444285Y-4163142D01*
X32515714Y-4020285D01*
X32515714Y-3448857D01*
X32444285Y-3306000D01*
X32301428Y-3234571D01*
X32015714Y-3234571D01*
X31872857Y-3306000D01*
X31801428Y-3448857D01*
X31801428Y-3591714D01*
X32515714Y-3734571D01*
X31158571Y-4234571D02*
X31158571Y-3234571D01*
X31158571Y-3520285D02*
X31087142Y-3377428D01*
X31015714Y-3306000D01*
X30872857Y-3234571D01*
X30730000Y-3234571D01*
X27301428Y-3234571D02*
X27301428Y-4234571D01*
X27658571Y-2663142D02*
X28015714Y-3734571D01*
X27087142Y-3734571D01*
X25444285Y-2663142D02*
X26730000Y-4591714D01*
X24158571Y-4234571D02*
X25015714Y-4234571D01*
X24587142Y-4234571D02*
X24587142Y-2734571D01*
X24730000Y-2948857D01*
X24872857Y-3091714D01*
X25015714Y-3163142D01*
X23444285Y-4234571D02*
X23158571Y-4234571D01*
X23015714Y-4163142D01*
X22944285Y-4091714D01*
X22801428Y-3877428D01*
X22730000Y-3591714D01*
X22730000Y-3020285D01*
X22801428Y-2877428D01*
X22872857Y-2806000D01*
X23015714Y-2734571D01*
X23301428Y-2734571D01*
X23444285Y-2806000D01*
X23515714Y-2877428D01*
X23587142Y-3020285D01*
X23587142Y-3377428D01*
X23515714Y-3520285D01*
X23444285Y-3591714D01*
X23301428Y-3663142D01*
X23015714Y-3663142D01*
X22872857Y-3591714D01*
X22801428Y-3520285D01*
X22730000Y-3377428D01*
X21015714Y-2663142D02*
X22301428Y-4591714D01*
X20587142Y-2877428D02*
X20515714Y-2806000D01*
X20372857Y-2734571D01*
X20015714Y-2734571D01*
X19872857Y-2806000D01*
X19801428Y-2877428D01*
X19730000Y-3020285D01*
X19730000Y-3163142D01*
X19801428Y-3377428D01*
X20658571Y-4234571D01*
X19730000Y-4234571D01*
X18801428Y-2734571D02*
X18658571Y-2734571D01*
X18515714Y-2806000D01*
X18444285Y-2877428D01*
X18372857Y-3020285D01*
X18301428Y-3306000D01*
X18301428Y-3663142D01*
X18372857Y-3948857D01*
X18444285Y-4091714D01*
X18515714Y-4163142D01*
X18658571Y-4234571D01*
X18801428Y-4234571D01*
X18944285Y-4163142D01*
X19015714Y-4091714D01*
X19087142Y-3948857D01*
X19158571Y-3663142D01*
X19158571Y-3306000D01*
X19087142Y-3020285D01*
X19015714Y-2877428D01*
X18944285Y-2806000D01*
X18801428Y-2734571D01*
X16872857Y-4234571D02*
X17730000Y-4234571D01*
X17301428Y-4234571D02*
X17301428Y-2734571D01*
X17444285Y-2948857D01*
X17587142Y-3091714D01*
X17730000Y-3163142D01*
X16158571Y-4234571D02*
X15872857Y-4234571D01*
X15730000Y-4163142D01*
X15658571Y-4091714D01*
X15515714Y-3877428D01*
X15444285Y-3591714D01*
X15444285Y-3020285D01*
X15515714Y-2877428D01*
X15587142Y-2806000D01*
X15730000Y-2734571D01*
X16015714Y-2734571D01*
X16158571Y-2806000D01*
X16230000Y-2877428D01*
X16301428Y-3020285D01*
X16301428Y-3377428D01*
X16230000Y-3520285D01*
X16158571Y-3591714D01*
X16015714Y-3663142D01*
X15730000Y-3663142D01*
X15587142Y-3591714D01*
X15515714Y-3520285D01*
X15444285Y-3377428D01*
X39912571Y-18477571D02*
X39412571Y-19977571D01*
X38912571Y-18477571D01*
X38412571Y-19977571D02*
X38412571Y-18977571D01*
X38412571Y-18477571D02*
X38484000Y-18549000D01*
X38412571Y-18620428D01*
X38341142Y-18549000D01*
X38412571Y-18477571D01*
X38412571Y-18620428D01*
X37055428Y-19906142D02*
X37198285Y-19977571D01*
X37484000Y-19977571D01*
X37626857Y-19906142D01*
X37698285Y-19834714D01*
X37769714Y-19691857D01*
X37769714Y-19263285D01*
X37698285Y-19120428D01*
X37626857Y-19049000D01*
X37484000Y-18977571D01*
X37198285Y-18977571D01*
X37055428Y-19049000D01*
X36198285Y-19977571D02*
X36341142Y-19906142D01*
X36412571Y-19834714D01*
X36484000Y-19691857D01*
X36484000Y-19263285D01*
X36412571Y-19120428D01*
X36341142Y-19049000D01*
X36198285Y-18977571D01*
X35984000Y-18977571D01*
X35841142Y-19049000D01*
X35769714Y-19120428D01*
X35698285Y-19263285D01*
X35698285Y-19691857D01*
X35769714Y-19834714D01*
X35841142Y-19906142D01*
X35984000Y-19977571D01*
X36198285Y-19977571D01*
X35055428Y-19977571D02*
X35055428Y-18977571D01*
X35055428Y-19263285D02*
X34984000Y-19120428D01*
X34912571Y-19049000D01*
X34769714Y-18977571D01*
X34626857Y-18977571D01*
X32341142Y-18977571D02*
X32341142Y-19977571D01*
X32698285Y-18406142D02*
X33055428Y-19477571D01*
X32126857Y-19477571D01*
X30912571Y-18477571D02*
X31198285Y-18477571D01*
X31341142Y-18549000D01*
X31412571Y-18620428D01*
X31555428Y-18834714D01*
X31626857Y-19120428D01*
X31626857Y-19691857D01*
X31555428Y-19834714D01*
X31483999Y-19906142D01*
X31341142Y-19977571D01*
X31055428Y-19977571D01*
X30912571Y-19906142D01*
X30841142Y-19834714D01*
X30769714Y-19691857D01*
X30769714Y-19334714D01*
X30841142Y-19191857D01*
X30912571Y-19120428D01*
X31055428Y-19049000D01*
X31341142Y-19049000D01*
X31483999Y-19120428D01*
X31555428Y-19191857D01*
X31626857Y-19334714D01*
X30198285Y-18620428D02*
X30126857Y-18549000D01*
X29983999Y-18477571D01*
X29626857Y-18477571D01*
X29483999Y-18549000D01*
X29412571Y-18620428D01*
X29341142Y-18763285D01*
X29341142Y-18906142D01*
X29412571Y-19120428D01*
X30269714Y-19977571D01*
X29341142Y-19977571D01*
X28841142Y-18477571D02*
X27912571Y-18477571D01*
X28412571Y-19049000D01*
X28198285Y-19049000D01*
X28055428Y-19120428D01*
X27983999Y-19191857D01*
X27912571Y-19334714D01*
X27912571Y-19691857D01*
X27983999Y-19834714D01*
X28055428Y-19906142D01*
X28198285Y-19977571D01*
X28626857Y-19977571D01*
X28769714Y-19906142D01*
X28841142Y-19834714D01*
X25269714Y-19834714D02*
X25341142Y-19906142D01*
X25555428Y-19977571D01*
X25698285Y-19977571D01*
X25912571Y-19906142D01*
X26055428Y-19763285D01*
X26126857Y-19620428D01*
X26198285Y-19334714D01*
X26198285Y-19120428D01*
X26126857Y-18834714D01*
X26055428Y-18691857D01*
X25912571Y-18549000D01*
X25698285Y-18477571D01*
X25555428Y-18477571D01*
X25341142Y-18549000D01*
X25269714Y-18620428D01*
X24626857Y-19977571D02*
X24626857Y-18477571D01*
X23983999Y-19977571D02*
X23983999Y-19191857D01*
X24055428Y-19049000D01*
X24198285Y-18977571D01*
X24412571Y-18977571D01*
X24555428Y-19049000D01*
X24626857Y-19120428D01*
X23269714Y-19977571D02*
X23269714Y-18977571D01*
X23269714Y-18477571D02*
X23341142Y-18549000D01*
X23269714Y-18620428D01*
X23198285Y-18549000D01*
X23269714Y-18477571D01*
X23269714Y-18620428D01*
X22555428Y-19977571D02*
X22555428Y-18477571D01*
X21983999Y-18477571D01*
X21841142Y-18549000D01*
X21769714Y-18620428D01*
X21698285Y-18763285D01*
X21698285Y-18977571D01*
X21769714Y-19120428D01*
X21841142Y-19191857D01*
X21983999Y-19263285D01*
X22555428Y-19263285D01*
X37162571Y-22384714D02*
X37234000Y-22456142D01*
X37448285Y-22527571D01*
X37591142Y-22527571D01*
X37805428Y-22456142D01*
X37948285Y-22313285D01*
X38019714Y-22170428D01*
X38091142Y-21884714D01*
X38091142Y-21670428D01*
X38019714Y-21384714D01*
X37948285Y-21241857D01*
X37805428Y-21099000D01*
X37591142Y-21027571D01*
X37448285Y-21027571D01*
X37234000Y-21099000D01*
X37162571Y-21170428D01*
X35876857Y-22527571D02*
X35876857Y-21741857D01*
X35948285Y-21599000D01*
X36091142Y-21527571D01*
X36376857Y-21527571D01*
X36519714Y-21599000D01*
X35876857Y-22456142D02*
X36019714Y-22527571D01*
X36376857Y-22527571D01*
X36519714Y-22456142D01*
X36591142Y-22313285D01*
X36591142Y-22170428D01*
X36519714Y-22027571D01*
X36376857Y-21956142D01*
X36019714Y-21956142D01*
X35876857Y-21884714D01*
X35162571Y-22527571D02*
X35162571Y-21527571D01*
X35162571Y-21813285D02*
X35091142Y-21670428D01*
X35019714Y-21599000D01*
X34876857Y-21527571D01*
X34734000Y-21527571D01*
X34234000Y-22527571D02*
X34234000Y-21527571D01*
X34234000Y-21813285D02*
X34162571Y-21670428D01*
X34091142Y-21599000D01*
X33948285Y-21527571D01*
X33805428Y-21527571D01*
X33305428Y-22527571D02*
X33305428Y-21527571D01*
X33305428Y-21027571D02*
X33376857Y-21099000D01*
X33305428Y-21170428D01*
X33234000Y-21099000D01*
X33305428Y-21027571D01*
X33305428Y-21170428D01*
X32019714Y-22456142D02*
X32162571Y-22527571D01*
X32448285Y-22527571D01*
X32591142Y-22456142D01*
X32662571Y-22313285D01*
X32662571Y-21741857D01*
X32591142Y-21599000D01*
X32448285Y-21527571D01*
X32162571Y-21527571D01*
X32019714Y-21599000D01*
X31948285Y-21741857D01*
X31948285Y-21884714D01*
X32662571Y-22027571D01*
X31305428Y-22527571D02*
X31305428Y-21527571D01*
X31305428Y-21813285D02*
X31234000Y-21670428D01*
X31162571Y-21599000D01*
X31019714Y-21527571D01*
X30876857Y-21527571D01*
X28734000Y-21741857D02*
X28519714Y-21813285D01*
X28448285Y-21884714D01*
X28376857Y-22027571D01*
X28376857Y-22241857D01*
X28448285Y-22384714D01*
X28519714Y-22456142D01*
X28662571Y-22527571D01*
X29234000Y-22527571D01*
X29234000Y-21027571D01*
X28734000Y-21027571D01*
X28591142Y-21099000D01*
X28519714Y-21170428D01*
X28448285Y-21313285D01*
X28448285Y-21456142D01*
X28519714Y-21599000D01*
X28591142Y-21670428D01*
X28734000Y-21741857D01*
X29234000Y-21741857D01*
X27519714Y-22527571D02*
X27662571Y-22456142D01*
X27734000Y-22384714D01*
X27805428Y-22241857D01*
X27805428Y-21813285D01*
X27734000Y-21670428D01*
X27662571Y-21599000D01*
X27519714Y-21527571D01*
X27305428Y-21527571D01*
X27162571Y-21599000D01*
X27091142Y-21670428D01*
X27019714Y-21813285D01*
X27019714Y-22241857D01*
X27091142Y-22384714D01*
X27162571Y-22456142D01*
X27305428Y-22527571D01*
X27519714Y-22527571D01*
X25734000Y-22527571D02*
X25734000Y-21741857D01*
X25805428Y-21599000D01*
X25948285Y-21527571D01*
X26234000Y-21527571D01*
X26376857Y-21599000D01*
X25734000Y-22456142D02*
X25876857Y-22527571D01*
X26234000Y-22527571D01*
X26376857Y-22456142D01*
X26448285Y-22313285D01*
X26448285Y-22170428D01*
X26376857Y-22027571D01*
X26234000Y-21956142D01*
X25876857Y-21956142D01*
X25734000Y-21884714D01*
X25019714Y-22527571D02*
X25019714Y-21527571D01*
X25019714Y-21813285D02*
X24948285Y-21670428D01*
X24876857Y-21599000D01*
X24734000Y-21527571D01*
X24591142Y-21527571D01*
X23448285Y-22527571D02*
X23448285Y-21027571D01*
X23448285Y-22456142D02*
X23591142Y-22527571D01*
X23876857Y-22527571D01*
X24019714Y-22456142D01*
X24091142Y-22384714D01*
X24162571Y-22241857D01*
X24162571Y-21813285D01*
X24091142Y-21670428D01*
X24019714Y-21599000D01*
X23876857Y-21527571D01*
X23591142Y-21527571D01*
X23448285Y-21599000D01*
D12*
G04 #@! TO.C,J1*
X-314000Y-7687000D02*
X2346000Y-7687000D01*
X-314000Y-12827000D02*
X-314000Y-7687000D01*
X2346000Y-12827000D02*
X2346000Y-7687000D01*
X-314000Y-12827000D02*
X2346000Y-12827000D01*
X-314000Y-14097000D02*
X-314000Y-15427000D01*
X-314000Y-15427000D02*
X1016000Y-15427000D01*
D13*
G04 #@! TO.C,U1*
X9431587Y-26987001D02*
X7551000Y-28565001D01*
X13286575Y-23752282D02*
X9582940Y-26860001D01*
X21644446Y-26860001D02*
G75*
G02X24039754Y-26860001I1197654J725000D01*
G01*
X51576000Y4434999D02*
G75*
G03X51576000Y4434999I-1025000J0D01*
G01*
X11576000Y-28765001D02*
G75*
G03X11576000Y-28765001I-1025000J0D01*
G01*
X15494009Y-26987001D02*
G75*
G02X12667990Y-26987001I-1413009J852000D01*
G01*
X37149001Y2656999D02*
G75*
G02X39370799Y2656999I1110899J-852000D01*
G01*
X7551000Y-30670001D02*
X7551000Y-37565001D01*
X11576000Y4434999D02*
G75*
G03X11576000Y4434999I-1025000J0D01*
G01*
X53551000Y6339999D02*
X53551000Y13234999D01*
X53551000Y4234999D02*
X53551000Y6212999D01*
X47101000Y-2109809D02*
G75*
G02X47815425Y-577720I2000000J0D01*
G01*
X47101000Y-22220193D02*
X47101000Y-2109809D01*
X51670413Y-26987001D02*
X51519060Y-26860001D01*
X53551000Y-37565001D02*
X53551000Y-30670001D01*
X7551000Y-30543001D02*
X7551000Y-30670001D01*
X9582940Y-26860001D02*
X9431587Y-26987001D01*
X48503186Y2529999D02*
G75*
G02X45538814Y2529999I-1482186J-725000D01*
G01*
X53551000Y-28565001D02*
X51670413Y-26987001D01*
X51576000Y-28765001D02*
G75*
G03X51576000Y-28765001I-1025000J0D01*
G01*
X14001000Y-22220193D02*
G75*
G02X13286575Y-23752282I-2000000J0D01*
G01*
X45538814Y-26860001D02*
G75*
G02X48503186Y-26860001I1482186J725000D01*
G01*
X51670413Y2656999D02*
X53551000Y4234999D01*
X12598814Y-26860001D02*
G75*
G02X15563186Y-26860001I1482186J725000D01*
G01*
X48434009Y-26987001D02*
G75*
G02X45607990Y-26987001I-1413009J852000D01*
G01*
X51519060Y2529999D02*
X51670413Y2656999D01*
X7551000Y4234999D02*
X9431587Y2656999D01*
X9582940Y2529999D02*
X13286575Y-577720D01*
X45607991Y2656999D02*
G75*
G02X48434010Y2656999I1413009J-852000D01*
G01*
X23952999Y-26987001D02*
G75*
G02X21731201Y-26987001I-1110899J852000D01*
G01*
X53551000Y13234999D02*
X7551000Y13234999D01*
X12667991Y2656999D02*
G75*
G02X15494010Y2656999I1413009J-852000D01*
G01*
X47815425Y-577720D02*
X51519060Y2529999D01*
X7551000Y6212999D02*
X7551000Y4234999D01*
X39457554Y2529999D02*
G75*
G02X37062246Y2529999I-1197654J-725000D01*
G01*
X15563186Y2529999D02*
G75*
G02X12598814Y2529999I-1482186J-725000D01*
G01*
X51519060Y-26860001D02*
X47815425Y-23752282D01*
X47815425Y-23752282D02*
G75*
G02X47101000Y-22220193I1285575J1532089D01*
G01*
X7551000Y-28565001D02*
X7551000Y-30543001D01*
X7551000Y13234999D02*
X7551000Y6339999D01*
X53551000Y-30670001D02*
X53551000Y-30543001D01*
X13286575Y-577720D02*
G75*
G02X14001000Y-2109809I-1285575J-1532089D01*
G01*
X53551000Y-30543001D02*
X53551000Y-28565001D01*
X14001000Y-2109809D02*
X14001000Y-22220193D01*
X9431587Y2656999D02*
X9582940Y2529999D01*
X7551000Y6339999D02*
X7551000Y6212999D01*
X53551000Y6212999D02*
X53551000Y6339999D01*
X7551000Y-37565001D02*
X53551000Y-37565001D01*
D14*
G04 #@! TO.C,G\002A\002A\002A*
G36*
X17203416Y-6916787D02*
X15943923Y-8174823D01*
X15943923Y-14475183D01*
X18569335Y-17097867D01*
X20911967Y-14752191D01*
X20911967Y-14187249D01*
X19162655Y-14187249D01*
X18713397Y-14650767D01*
X18238301Y-14179312D01*
X17763206Y-13707858D01*
X17763206Y-9013325D01*
X18462931Y-8316226D01*
X19162655Y-7619127D01*
X19162655Y-14187249D01*
X20911967Y-14187249D01*
X20911967Y-8104809D01*
X19687438Y-6881780D01*
X18462910Y-5658751D01*
X17203416Y-6916787D01*
X17203416Y-6916787D01*
G37*
X17203416Y-6916787D02*
X15943923Y-8174823D01*
X15943923Y-14475183D01*
X18569335Y-17097867D01*
X20911967Y-14752191D01*
X20911967Y-14187249D01*
X19162655Y-14187249D01*
X18713397Y-14650767D01*
X18238301Y-14179312D01*
X17763206Y-13707858D01*
X17763206Y-9013325D01*
X18462931Y-8316226D01*
X19162655Y-7619127D01*
X19162655Y-14187249D01*
X20911967Y-14187249D01*
X20911967Y-8104809D01*
X19687438Y-6881780D01*
X18462910Y-5658751D01*
X17203416Y-6916787D01*
G36*
X21821609Y-7688225D02*
X21821609Y-9502989D01*
X22432447Y-10116671D01*
X23043286Y-10730353D01*
X21751636Y-12027395D01*
X21751636Y-14749291D01*
X21385668Y-15119862D01*
X21019701Y-15490433D01*
X22627807Y-17098539D01*
X23412591Y-16310963D01*
X24197376Y-15523388D01*
X23852191Y-15138540D01*
X23507006Y-14753691D01*
X23503977Y-13842856D01*
X23500947Y-12932021D01*
X24270644Y-12164711D01*
X25040341Y-11397400D01*
X25040341Y-14828925D01*
X24689707Y-15174287D01*
X24339072Y-15519649D01*
X25125893Y-16308709D01*
X25395642Y-16576519D01*
X25631313Y-16805385D01*
X25815208Y-16978524D01*
X25929631Y-17079153D01*
X25957954Y-17097768D01*
X26019244Y-17049715D01*
X26159148Y-16917007D01*
X26360287Y-16716823D01*
X26605283Y-16466342D01*
X26768979Y-16296048D01*
X27534763Y-15494327D01*
X27162208Y-15126399D01*
X26789653Y-14758472D01*
X26789653Y-10484686D01*
X25180286Y-10484686D01*
X24288481Y-9592880D01*
X23396675Y-8701074D01*
X25180286Y-6917463D01*
X25180286Y-10484686D01*
X26789653Y-10484686D01*
X26789653Y-7900449D01*
X27190241Y-7495636D01*
X27590830Y-7090824D01*
X26894171Y-6391541D01*
X26197512Y-5692259D01*
X23814013Y-5692259D01*
X21821609Y-7688225D01*
X21821609Y-7688225D01*
G37*
X21821609Y-7688225D02*
X21821609Y-9502989D01*
X22432447Y-10116671D01*
X23043286Y-10730353D01*
X21751636Y-12027395D01*
X21751636Y-14749291D01*
X21385668Y-15119862D01*
X21019701Y-15490433D01*
X22627807Y-17098539D01*
X23412591Y-16310963D01*
X24197376Y-15523388D01*
X23852191Y-15138540D01*
X23507006Y-14753691D01*
X23503977Y-13842856D01*
X23500947Y-12932021D01*
X24270644Y-12164711D01*
X25040341Y-11397400D01*
X25040341Y-14828925D01*
X24689707Y-15174287D01*
X24339072Y-15519649D01*
X25125893Y-16308709D01*
X25395642Y-16576519D01*
X25631313Y-16805385D01*
X25815208Y-16978524D01*
X25929631Y-17079153D01*
X25957954Y-17097768D01*
X26019244Y-17049715D01*
X26159148Y-16917007D01*
X26360287Y-16716823D01*
X26605283Y-16466342D01*
X26768979Y-16296048D01*
X27534763Y-15494327D01*
X27162208Y-15126399D01*
X26789653Y-14758472D01*
X26789653Y-10484686D01*
X25180286Y-10484686D01*
X24288481Y-9592880D01*
X23396675Y-8701074D01*
X25180286Y-6917463D01*
X25180286Y-10484686D01*
X26789653Y-10484686D01*
X26789653Y-7900449D01*
X27190241Y-7495636D01*
X27590830Y-7090824D01*
X26894171Y-6391541D01*
X26197512Y-5692259D01*
X23814013Y-5692259D01*
X21821609Y-7688225D01*
G36*
X35241727Y-7001358D02*
X33963921Y-8280565D01*
X34626469Y-8945879D01*
X35289016Y-9611193D01*
X36252282Y-8649771D01*
X37215548Y-7688348D01*
X37215548Y-10596182D01*
X35886925Y-10575763D01*
X34558301Y-10555344D01*
X35413561Y-11412507D01*
X36268820Y-12269669D01*
X37215548Y-12269669D01*
X37215548Y-14291748D01*
X36966133Y-14481987D01*
X36716717Y-14672225D01*
X36003178Y-13961115D01*
X35289639Y-13250004D01*
X34658394Y-13881250D01*
X34027149Y-14512495D01*
X35326309Y-15805132D01*
X35675320Y-16151173D01*
X35991416Y-16462249D01*
X36261229Y-16725394D01*
X36471391Y-16927642D01*
X36608535Y-17056024D01*
X36658907Y-17097768D01*
X36715729Y-17050410D01*
X36856829Y-16917600D01*
X37067922Y-16713232D01*
X37334722Y-16451203D01*
X37642947Y-16145408D01*
X37828602Y-15959944D01*
X38964859Y-14822119D01*
X38964859Y-8181207D01*
X37742196Y-6951679D01*
X36519532Y-5722150D01*
X35241727Y-7001358D01*
X35241727Y-7001358D01*
G37*
X35241727Y-7001358D02*
X33963921Y-8280565D01*
X34626469Y-8945879D01*
X35289016Y-9611193D01*
X36252282Y-8649771D01*
X37215548Y-7688348D01*
X37215548Y-10596182D01*
X35886925Y-10575763D01*
X34558301Y-10555344D01*
X35413561Y-11412507D01*
X36268820Y-12269669D01*
X37215548Y-12269669D01*
X37215548Y-14291748D01*
X36966133Y-14481987D01*
X36716717Y-14672225D01*
X36003178Y-13961115D01*
X35289639Y-13250004D01*
X34658394Y-13881250D01*
X34027149Y-14512495D01*
X35326309Y-15805132D01*
X35675320Y-16151173D01*
X35991416Y-16462249D01*
X36261229Y-16725394D01*
X36471391Y-16927642D01*
X36608535Y-17056024D01*
X36658907Y-17097768D01*
X36715729Y-17050410D01*
X36856829Y-16917600D01*
X37067922Y-16713232D01*
X37334722Y-16451203D01*
X37642947Y-16145408D01*
X37828602Y-15959944D01*
X38964859Y-14822119D01*
X38964859Y-8181207D01*
X37742196Y-6951679D01*
X36519532Y-5722150D01*
X35241727Y-7001358D01*
G36*
X41430677Y-6899975D02*
X40224363Y-8107767D01*
X40224363Y-14749291D01*
X39858396Y-15119862D01*
X39492428Y-15490433D01*
X41100534Y-17098539D01*
X41902691Y-16294100D01*
X42704848Y-15489660D01*
X42339261Y-15119476D01*
X41973675Y-14749291D01*
X41973675Y-13319256D01*
X43513069Y-13319256D01*
X43513069Y-14749291D01*
X42781133Y-15490433D01*
X44389239Y-17098539D01*
X45191396Y-16294100D01*
X45993552Y-15489660D01*
X45627967Y-15119476D01*
X45262380Y-14749291D01*
X45262380Y-11499972D01*
X43513069Y-11499972D01*
X41973675Y-11499972D01*
X41973675Y-9221979D01*
X42739826Y-8419240D01*
X43505978Y-7616501D01*
X43509523Y-9558237D01*
X43513069Y-11499972D01*
X45262380Y-11499972D01*
X45262380Y-8314844D01*
X42636990Y-5692182D01*
X41430677Y-6899975D01*
X41430677Y-6899975D01*
G37*
X41430677Y-6899975D02*
X40224363Y-8107767D01*
X40224363Y-14749291D01*
X39858396Y-15119862D01*
X39492428Y-15490433D01*
X41100534Y-17098539D01*
X41902691Y-16294100D01*
X42704848Y-15489660D01*
X42339261Y-15119476D01*
X41973675Y-14749291D01*
X41973675Y-13319256D01*
X43513069Y-13319256D01*
X43513069Y-14749291D01*
X42781133Y-15490433D01*
X44389239Y-17098539D01*
X45191396Y-16294100D01*
X45993552Y-15489660D01*
X45627967Y-15119476D01*
X45262380Y-14749291D01*
X45262380Y-11499972D01*
X43513069Y-11499972D01*
X41973675Y-11499972D01*
X41973675Y-9221979D01*
X42739826Y-8419240D01*
X43505978Y-7616501D01*
X43509523Y-9558237D01*
X43513069Y-11499972D01*
X45262380Y-11499972D01*
X45262380Y-8314844D01*
X42636990Y-5692182D01*
X41430677Y-6899975D01*
G36*
X29203702Y-7301625D02*
X29922119Y-9260854D01*
X28834848Y-9260854D01*
X28424716Y-9261691D01*
X28136336Y-9265721D01*
X27951517Y-9275221D01*
X27852069Y-9292468D01*
X27819800Y-9319738D01*
X27836522Y-9359308D01*
X27856578Y-9383306D01*
X27912583Y-9456946D01*
X28042010Y-9633074D01*
X28236756Y-9900430D01*
X28488720Y-10247754D01*
X28789800Y-10663786D01*
X29131896Y-11137265D01*
X29506905Y-11656932D01*
X29906727Y-12211526D01*
X30323259Y-12789786D01*
X30748400Y-13380454D01*
X31174049Y-13972268D01*
X31592105Y-14553969D01*
X31994465Y-15114296D01*
X32373029Y-15641990D01*
X32719694Y-16125789D01*
X33026361Y-16554434D01*
X33284926Y-16916665D01*
X33487289Y-17201222D01*
X33625347Y-17396844D01*
X33691001Y-17492271D01*
X33692439Y-17494529D01*
X33686913Y-17457348D01*
X33639382Y-17300418D01*
X33553978Y-17036112D01*
X33434833Y-16676803D01*
X33286082Y-16234862D01*
X33111856Y-15722663D01*
X32916289Y-15152576D01*
X32730317Y-14614283D01*
X32516551Y-13997101D01*
X32317537Y-13421770D01*
X32137830Y-12901513D01*
X31981987Y-12449555D01*
X31854563Y-12079120D01*
X31760115Y-11803432D01*
X31703198Y-11635716D01*
X31687724Y-11587974D01*
X31753646Y-11581672D01*
X31935211Y-11576331D01*
X32208118Y-11572372D01*
X32548067Y-11570215D01*
X32727571Y-11569945D01*
X33767418Y-11569945D01*
X32985897Y-9803140D01*
X32738811Y-9244006D01*
X32472134Y-8639610D01*
X32202579Y-8027893D01*
X31946861Y-7446799D01*
X31721692Y-6934269D01*
X31614304Y-6689366D01*
X31024233Y-5342397D01*
X28485286Y-5342397D01*
X29203702Y-7301625D01*
X29203702Y-7301625D01*
G37*
X29203702Y-7301625D02*
X29922119Y-9260854D01*
X28834848Y-9260854D01*
X28424716Y-9261691D01*
X28136336Y-9265721D01*
X27951517Y-9275221D01*
X27852069Y-9292468D01*
X27819800Y-9319738D01*
X27836522Y-9359308D01*
X27856578Y-9383306D01*
X27912583Y-9456946D01*
X28042010Y-9633074D01*
X28236756Y-9900430D01*
X28488720Y-10247754D01*
X28789800Y-10663786D01*
X29131896Y-11137265D01*
X29506905Y-11656932D01*
X29906727Y-12211526D01*
X30323259Y-12789786D01*
X30748400Y-13380454D01*
X31174049Y-13972268D01*
X31592105Y-14553969D01*
X31994465Y-15114296D01*
X32373029Y-15641990D01*
X32719694Y-16125789D01*
X33026361Y-16554434D01*
X33284926Y-16916665D01*
X33487289Y-17201222D01*
X33625347Y-17396844D01*
X33691001Y-17492271D01*
X33692439Y-17494529D01*
X33686913Y-17457348D01*
X33639382Y-17300418D01*
X33553978Y-17036112D01*
X33434833Y-16676803D01*
X33286082Y-16234862D01*
X33111856Y-15722663D01*
X32916289Y-15152576D01*
X32730317Y-14614283D01*
X32516551Y-13997101D01*
X32317537Y-13421770D01*
X32137830Y-12901513D01*
X31981987Y-12449555D01*
X31854563Y-12079120D01*
X31760115Y-11803432D01*
X31703198Y-11635716D01*
X31687724Y-11587974D01*
X31753646Y-11581672D01*
X31935211Y-11576331D01*
X32208118Y-11572372D01*
X32548067Y-11570215D01*
X32727571Y-11569945D01*
X33767418Y-11569945D01*
X32985897Y-9803140D01*
X32738811Y-9244006D01*
X32472134Y-8639610D01*
X32202579Y-8027893D01*
X31946861Y-7446799D01*
X31721692Y-6934269D01*
X31614304Y-6689366D01*
X31024233Y-5342397D01*
X28485286Y-5342397D01*
X29203702Y-7301625D01*
G04 #@! TO.C,J1*
D15*
X1349333Y-15879380D02*
X1349333Y-16593666D01*
X1396952Y-16736523D01*
X1492190Y-16831761D01*
X1635047Y-16879380D01*
X1730285Y-16879380D01*
X349333Y-16879380D02*
X920761Y-16879380D01*
X635047Y-16879380D02*
X635047Y-15879380D01*
X730285Y-16022238D01*
X825523Y-16117476D01*
X920761Y-16165095D01*
G04 #@! TD*
M02*
