G04 #@! TF.GenerationSoftware,KiCad,Pcbnew,(5.0.2)-1*
G04 #@! TF.CreationDate,2019-03-07T00:09:40-05:00*
G04 #@! TF.ProjectId,vicor-socket,7669636f-722d-4736-9f63-6b65742e6b69,rev?*
G04 #@! TF.SameCoordinates,Original*
G04 #@! TF.FileFunction,Soldermask,Bot*
G04 #@! TF.FilePolarity,Negative*
%FSLAX46Y46*%
G04 Gerber Fmt 4.6, Leading zero omitted, Abs format (unit mm)*
G04 Created by KiCad (PCBNEW (5.0.2)-1) date 3/7/2019 12:09:40 AM*
%MOMM*%
%LPD*%
G01*
G04 APERTURE LIST*
%ADD10C,0.100000*%
G04 APERTURE END LIST*
D10*
G36*
X47531456Y-24452252D02*
X47849936Y-24584171D01*
X48136560Y-24775687D01*
X48380314Y-25019441D01*
X48571830Y-25306065D01*
X48703749Y-25624545D01*
X48712760Y-25669849D01*
X48771000Y-25962641D01*
X48771000Y-26307362D01*
X48736794Y-26479326D01*
X48734392Y-26503712D01*
X48736794Y-26528098D01*
X48743907Y-26551547D01*
X48755458Y-26573158D01*
X48771004Y-26592100D01*
X48789946Y-26607646D01*
X48811556Y-26619197D01*
X48835006Y-26626310D01*
X48859392Y-26628712D01*
X48883778Y-26626310D01*
X48907227Y-26619197D01*
X48928838Y-26607646D01*
X49274440Y-26376722D01*
X49608710Y-26238263D01*
X49764897Y-26173568D01*
X49938453Y-26139046D01*
X50285564Y-26070001D01*
X50816436Y-26070001D01*
X51163547Y-26139046D01*
X51337103Y-26173568D01*
X51493290Y-26238263D01*
X51827560Y-26376722D01*
X52268965Y-26671660D01*
X52644341Y-27047036D01*
X52939279Y-27488441D01*
X53021029Y-27685803D01*
X53142433Y-27978898D01*
X53176955Y-28152454D01*
X53246000Y-28499565D01*
X53246000Y-29030437D01*
X53142433Y-29551103D01*
X52939279Y-30041561D01*
X52644341Y-30482966D01*
X52268965Y-30858342D01*
X51827560Y-31153280D01*
X51540257Y-31272285D01*
X51337103Y-31356434D01*
X51163547Y-31390956D01*
X50816436Y-31460001D01*
X50285564Y-31460001D01*
X49938453Y-31390956D01*
X49764897Y-31356434D01*
X49561743Y-31272285D01*
X49274440Y-31153280D01*
X48833035Y-30858342D01*
X48457659Y-30482966D01*
X48162721Y-30041561D01*
X47959567Y-29551103D01*
X47856000Y-29030437D01*
X47856000Y-28499565D01*
X47897427Y-28291299D01*
X47959567Y-27978898D01*
X48013324Y-27849118D01*
X48020435Y-27825674D01*
X48022837Y-27801288D01*
X48020435Y-27776902D01*
X48013322Y-27753453D01*
X48001771Y-27731842D01*
X47986225Y-27712900D01*
X47967283Y-27697354D01*
X47945673Y-27685803D01*
X47922223Y-27678690D01*
X47897837Y-27676288D01*
X47873451Y-27678690D01*
X47850002Y-27685803D01*
X47849939Y-27685829D01*
X47849936Y-27685831D01*
X47531456Y-27817750D01*
X47193360Y-27885001D01*
X46848640Y-27885001D01*
X46510544Y-27817750D01*
X46192064Y-27685831D01*
X45905440Y-27494315D01*
X45661686Y-27250561D01*
X45470170Y-26963937D01*
X45338251Y-26645457D01*
X45271000Y-26307361D01*
X45271000Y-25962641D01*
X45338251Y-25624545D01*
X45470170Y-25306065D01*
X45661686Y-25019441D01*
X45905440Y-24775687D01*
X46192064Y-24584171D01*
X46510544Y-24452252D01*
X46848640Y-24385001D01*
X47193360Y-24385001D01*
X47531456Y-24452252D01*
X47531456Y-24452252D01*
G37*
G36*
X14591456Y-24452252D02*
X14909936Y-24584171D01*
X15196560Y-24775687D01*
X15440314Y-25019441D01*
X15631830Y-25306065D01*
X15763749Y-25624545D01*
X15831000Y-25962641D01*
X15831000Y-26307361D01*
X15763749Y-26645457D01*
X15631830Y-26963937D01*
X15440314Y-27250561D01*
X15196560Y-27494315D01*
X14909936Y-27685831D01*
X14591456Y-27817750D01*
X14253360Y-27885001D01*
X13908640Y-27885001D01*
X13570544Y-27817750D01*
X13252064Y-27685831D01*
X13252061Y-27685829D01*
X13251998Y-27685803D01*
X13228549Y-27678690D01*
X13204163Y-27676288D01*
X13179777Y-27678690D01*
X13156327Y-27685803D01*
X13134717Y-27697354D01*
X13115775Y-27712900D01*
X13100229Y-27731842D01*
X13088678Y-27753453D01*
X13081565Y-27776902D01*
X13079163Y-27801288D01*
X13081565Y-27825674D01*
X13088676Y-27849118D01*
X13142433Y-27978898D01*
X13204573Y-28291299D01*
X13246000Y-28499565D01*
X13246000Y-29030437D01*
X13142433Y-29551103D01*
X12939279Y-30041561D01*
X12644341Y-30482966D01*
X12268965Y-30858342D01*
X11827560Y-31153280D01*
X11540257Y-31272285D01*
X11337103Y-31356434D01*
X11163547Y-31390956D01*
X10816436Y-31460001D01*
X10285564Y-31460001D01*
X9938453Y-31390956D01*
X9764897Y-31356434D01*
X9561743Y-31272285D01*
X9274440Y-31153280D01*
X8833035Y-30858342D01*
X8457659Y-30482966D01*
X8162721Y-30041561D01*
X7959567Y-29551103D01*
X7856000Y-29030437D01*
X7856000Y-28499565D01*
X7925045Y-28152454D01*
X7959567Y-27978898D01*
X8080971Y-27685803D01*
X8162721Y-27488441D01*
X8457659Y-27047036D01*
X8833035Y-26671660D01*
X9274440Y-26376722D01*
X9608710Y-26238263D01*
X9764897Y-26173568D01*
X9938453Y-26139046D01*
X10285564Y-26070001D01*
X10816436Y-26070001D01*
X11163547Y-26139046D01*
X11337103Y-26173568D01*
X11493290Y-26238263D01*
X11827560Y-26376722D01*
X12173162Y-26607646D01*
X12194772Y-26619197D01*
X12218222Y-26626310D01*
X12242608Y-26628712D01*
X12266994Y-26626310D01*
X12290443Y-26619197D01*
X12312054Y-26607646D01*
X12330996Y-26592100D01*
X12346542Y-26573158D01*
X12358093Y-26551548D01*
X12365206Y-26528098D01*
X12367608Y-26503712D01*
X12365206Y-26479326D01*
X12331000Y-26307362D01*
X12331000Y-25962641D01*
X12389240Y-25669849D01*
X12398251Y-25624545D01*
X12530170Y-25306065D01*
X12721686Y-25019441D01*
X12965440Y-24775687D01*
X13252064Y-24584171D01*
X13570544Y-24452252D01*
X13908640Y-24385001D01*
X14253360Y-24385001D01*
X14591456Y-24452252D01*
X14591456Y-24452252D01*
G37*
G36*
X23041944Y-24548723D02*
X23306244Y-24601295D01*
X23596516Y-24721530D01*
X23857754Y-24896083D01*
X24079918Y-25118247D01*
X24254471Y-25379485D01*
X24374706Y-25669757D01*
X24419501Y-25894961D01*
X24436000Y-25977906D01*
X24436000Y-26292096D01*
X24432963Y-26307362D01*
X24374706Y-26600245D01*
X24254471Y-26890517D01*
X24079918Y-27151755D01*
X23857754Y-27373919D01*
X23596516Y-27548472D01*
X23306244Y-27668707D01*
X23041944Y-27721279D01*
X22998095Y-27730001D01*
X22683905Y-27730001D01*
X22640056Y-27721279D01*
X22375756Y-27668707D01*
X22085484Y-27548472D01*
X21824246Y-27373919D01*
X21602082Y-27151755D01*
X21427529Y-26890517D01*
X21307294Y-26600245D01*
X21249037Y-26307362D01*
X21246000Y-26292096D01*
X21246000Y-25977906D01*
X21262499Y-25894961D01*
X21307294Y-25669757D01*
X21427529Y-25379485D01*
X21602082Y-25118247D01*
X21824246Y-24896083D01*
X22085484Y-24721530D01*
X22375756Y-24601295D01*
X22640056Y-24548723D01*
X22683905Y-24540001D01*
X22998095Y-24540001D01*
X23041944Y-24548723D01*
X23041944Y-24548723D01*
G37*
G36*
X991743Y-20987660D02*
X1610503Y-21243958D01*
X2167377Y-21616050D01*
X2640950Y-22089623D01*
X3013042Y-22646497D01*
X3269340Y-23265257D01*
X3400000Y-23922128D01*
X3400000Y-24591872D01*
X3269340Y-25248743D01*
X3013042Y-25867503D01*
X2640950Y-26424377D01*
X2167377Y-26897950D01*
X1610503Y-27270042D01*
X991743Y-27526340D01*
X334872Y-27657000D01*
X-334872Y-27657000D01*
X-991743Y-27526340D01*
X-1610503Y-27270042D01*
X-2167377Y-26897950D01*
X-2640950Y-26424377D01*
X-3013042Y-25867503D01*
X-3269340Y-25248743D01*
X-3400000Y-24591872D01*
X-3400000Y-23922128D01*
X-3269340Y-23265257D01*
X-3013042Y-22646497D01*
X-2640950Y-22089623D01*
X-2167377Y-21616050D01*
X-1610503Y-21243958D01*
X-991743Y-20987660D01*
X-334872Y-20857000D01*
X334872Y-20857000D01*
X991743Y-20987660D01*
X991743Y-20987660D01*
G37*
G36*
X61697743Y-16669660D02*
X62316503Y-16925958D01*
X62873377Y-17298050D01*
X63346950Y-17771623D01*
X63719042Y-18328497D01*
X63975340Y-18947257D01*
X64106000Y-19604128D01*
X64106000Y-20273872D01*
X63975340Y-20930743D01*
X63719042Y-21549503D01*
X63346950Y-22106377D01*
X62873377Y-22579950D01*
X62316503Y-22952042D01*
X61697743Y-23208340D01*
X61040872Y-23339000D01*
X60371128Y-23339000D01*
X59714257Y-23208340D01*
X59095497Y-22952042D01*
X58538623Y-22579950D01*
X58065050Y-22106377D01*
X57692958Y-21549503D01*
X57436660Y-20930743D01*
X57306000Y-20273872D01*
X57306000Y-19604128D01*
X57436660Y-18947257D01*
X57692958Y-18328497D01*
X58065050Y-17771623D01*
X58538623Y-17298050D01*
X59095497Y-16925958D01*
X59714257Y-16669660D01*
X60371128Y-16539000D01*
X61040872Y-16539000D01*
X61697743Y-16669660D01*
X61697743Y-16669660D01*
G37*
G36*
X53941944Y-18828723D02*
X54206244Y-18881295D01*
X54496516Y-19001530D01*
X54757754Y-19176083D01*
X54979918Y-19398247D01*
X55154471Y-19659485D01*
X55274706Y-19949757D01*
X55288819Y-20020711D01*
X55336000Y-20257906D01*
X55336000Y-20572096D01*
X55331976Y-20592326D01*
X55274706Y-20880245D01*
X55154471Y-21170517D01*
X54979918Y-21431755D01*
X54757754Y-21653919D01*
X54496516Y-21828472D01*
X54206244Y-21948707D01*
X53941944Y-22001279D01*
X53898095Y-22010001D01*
X53583905Y-22010001D01*
X53540056Y-22001279D01*
X53275756Y-21948707D01*
X52985484Y-21828472D01*
X52724246Y-21653919D01*
X52502082Y-21431755D01*
X52327529Y-21170517D01*
X52207294Y-20880245D01*
X52150024Y-20592326D01*
X52146000Y-20572096D01*
X52146000Y-20257906D01*
X52193181Y-20020711D01*
X52207294Y-19949757D01*
X52327529Y-19659485D01*
X52502082Y-19398247D01*
X52724246Y-19176083D01*
X52985484Y-19001530D01*
X53275756Y-18881295D01*
X53540056Y-18828723D01*
X53583905Y-18820001D01*
X53898095Y-18820001D01*
X53941944Y-18828723D01*
X53941944Y-18828723D01*
G37*
G36*
X7545474Y-18707994D02*
X7788325Y-18756300D01*
X8054938Y-18866734D01*
X8294883Y-19027061D01*
X8498940Y-19231118D01*
X8659267Y-19471063D01*
X8769701Y-19737676D01*
X8774934Y-19763986D01*
X8821502Y-19998095D01*
X8826000Y-20020711D01*
X8826000Y-20309291D01*
X8769701Y-20592326D01*
X8659267Y-20858939D01*
X8498940Y-21098884D01*
X8294883Y-21302941D01*
X8054938Y-21463268D01*
X7788325Y-21573702D01*
X7576049Y-21615926D01*
X7505291Y-21630001D01*
X7216709Y-21630001D01*
X7145951Y-21615926D01*
X6933675Y-21573702D01*
X6667062Y-21463268D01*
X6427117Y-21302941D01*
X6223060Y-21098884D01*
X6062733Y-20858939D01*
X5952299Y-20592326D01*
X5896000Y-20309291D01*
X5896000Y-20020711D01*
X5900499Y-19998095D01*
X5947066Y-19763986D01*
X5952299Y-19737676D01*
X6062733Y-19471063D01*
X6223060Y-19231118D01*
X6427117Y-19027061D01*
X6667062Y-18866734D01*
X6933675Y-18756300D01*
X7176526Y-18707994D01*
X7216709Y-18700001D01*
X7505291Y-18700001D01*
X7545474Y-18707994D01*
X7545474Y-18707994D01*
G37*
G36*
X7713944Y-15131500D02*
X7934150Y-15222713D01*
X8132330Y-15355132D01*
X8300869Y-15523671D01*
X8433288Y-15721851D01*
X8524501Y-15942057D01*
X8571000Y-16175826D01*
X8571000Y-16414176D01*
X8524501Y-16647945D01*
X8433288Y-16868151D01*
X8300869Y-17066331D01*
X8132330Y-17234870D01*
X7934150Y-17367289D01*
X7713944Y-17458502D01*
X7480175Y-17505001D01*
X7241825Y-17505001D01*
X7008056Y-17458502D01*
X6787850Y-17367289D01*
X6589670Y-17234870D01*
X6421131Y-17066331D01*
X6288712Y-16868151D01*
X6197499Y-16647945D01*
X6151000Y-16414176D01*
X6151000Y-16175826D01*
X6197499Y-15942057D01*
X6288712Y-15721851D01*
X6421131Y-15523671D01*
X6589670Y-15355132D01*
X6787850Y-15222713D01*
X7008056Y-15131500D01*
X7241825Y-15085001D01*
X7480175Y-15085001D01*
X7713944Y-15131500D01*
X7713944Y-15131500D01*
G37*
G36*
X53941944Y-13328723D02*
X54206244Y-13381295D01*
X54496516Y-13501530D01*
X54757754Y-13676083D01*
X54979918Y-13898247D01*
X55154471Y-14159485D01*
X55274706Y-14449757D01*
X55336000Y-14757907D01*
X55336000Y-15072095D01*
X55274706Y-15380245D01*
X55154471Y-15670517D01*
X54979918Y-15931755D01*
X54757754Y-16153919D01*
X54496516Y-16328472D01*
X54206244Y-16448707D01*
X53941944Y-16501279D01*
X53898095Y-16510001D01*
X53583905Y-16510001D01*
X53540056Y-16501279D01*
X53275756Y-16448707D01*
X52985484Y-16328472D01*
X52724246Y-16153919D01*
X52502082Y-15931755D01*
X52327529Y-15670517D01*
X52207294Y-15380245D01*
X52146000Y-15072095D01*
X52146000Y-14757907D01*
X52207294Y-14449757D01*
X52327529Y-14159485D01*
X52502082Y-13898247D01*
X52724246Y-13676083D01*
X52985484Y-13501530D01*
X53275756Y-13381295D01*
X53540056Y-13328723D01*
X53583905Y-13320001D01*
X53898095Y-13320001D01*
X53941944Y-13328723D01*
X53941944Y-13328723D01*
G37*
G36*
X2066000Y-15147000D02*
X-34000Y-15147000D01*
X-34000Y-13047000D01*
X2066000Y-13047000D01*
X2066000Y-15147000D01*
X2066000Y-15147000D01*
G37*
G36*
X7713944Y-12381500D02*
X7934150Y-12472713D01*
X8132330Y-12605132D01*
X8300869Y-12773671D01*
X8433288Y-12971851D01*
X8524501Y-13192057D01*
X8571000Y-13425826D01*
X8571000Y-13664176D01*
X8524501Y-13897945D01*
X8433288Y-14118151D01*
X8300869Y-14316331D01*
X8132330Y-14484870D01*
X7934150Y-14617289D01*
X7713944Y-14708502D01*
X7480175Y-14755001D01*
X7241825Y-14755001D01*
X7008056Y-14708502D01*
X6787850Y-14617289D01*
X6589670Y-14484870D01*
X6421131Y-14316331D01*
X6288712Y-14118151D01*
X6197499Y-13897945D01*
X6151000Y-13664176D01*
X6151000Y-13425826D01*
X6197499Y-13192057D01*
X6288712Y-12971851D01*
X6421131Y-12773671D01*
X6589670Y-12605132D01*
X6787850Y-12472713D01*
X7008056Y-12381500D01*
X7241825Y-12335001D01*
X7480175Y-12335001D01*
X7713944Y-12381500D01*
X7713944Y-12381500D01*
G37*
G36*
X1144707Y-10514597D02*
X1221836Y-10522193D01*
X1353787Y-10562220D01*
X1419763Y-10582233D01*
X1602172Y-10679733D01*
X1762054Y-10810946D01*
X1893267Y-10970828D01*
X1990767Y-11153237D01*
X1990767Y-11153238D01*
X2050807Y-11351164D01*
X2071080Y-11557000D01*
X2050807Y-11762836D01*
X2022155Y-11857289D01*
X1990767Y-11960763D01*
X1893267Y-12143172D01*
X1762054Y-12303054D01*
X1602172Y-12434267D01*
X1419763Y-12531767D01*
X1353787Y-12551780D01*
X1221836Y-12591807D01*
X1144707Y-12599404D01*
X1067580Y-12607000D01*
X964420Y-12607000D01*
X887293Y-12599404D01*
X810164Y-12591807D01*
X678213Y-12551780D01*
X612237Y-12531767D01*
X429828Y-12434267D01*
X269946Y-12303054D01*
X138733Y-12143172D01*
X41233Y-11960763D01*
X9845Y-11857289D01*
X-18807Y-11762836D01*
X-39080Y-11557000D01*
X-18807Y-11351164D01*
X41233Y-11153238D01*
X41233Y-11153237D01*
X138733Y-10970828D01*
X269946Y-10810946D01*
X429828Y-10679733D01*
X612237Y-10582233D01*
X678213Y-10562220D01*
X810164Y-10522193D01*
X887293Y-10514597D01*
X964420Y-10507000D01*
X1067580Y-10507000D01*
X1144707Y-10514597D01*
X1144707Y-10514597D01*
G37*
G36*
X7713944Y-9621500D02*
X7934150Y-9712713D01*
X8132330Y-9845132D01*
X8300869Y-10013671D01*
X8433288Y-10211851D01*
X8524501Y-10432057D01*
X8571000Y-10665826D01*
X8571000Y-10904176D01*
X8524501Y-11137945D01*
X8433288Y-11358151D01*
X8300869Y-11556331D01*
X8132330Y-11724870D01*
X7934150Y-11857289D01*
X7713944Y-11948502D01*
X7480175Y-11995001D01*
X7241825Y-11995001D01*
X7008056Y-11948502D01*
X6787850Y-11857289D01*
X6589670Y-11724870D01*
X6421131Y-11556331D01*
X6288712Y-11358151D01*
X6197499Y-11137945D01*
X6151000Y-10904176D01*
X6151000Y-10665826D01*
X6197499Y-10432057D01*
X6288712Y-10211851D01*
X6421131Y-10013671D01*
X6589670Y-9845132D01*
X6787850Y-9712713D01*
X7008056Y-9621500D01*
X7241825Y-9575001D01*
X7480175Y-9575001D01*
X7713944Y-9621500D01*
X7713944Y-9621500D01*
G37*
G36*
X53941944Y-7828723D02*
X54206244Y-7881295D01*
X54496516Y-8001530D01*
X54757754Y-8176083D01*
X54979918Y-8398247D01*
X55154471Y-8659485D01*
X55274706Y-8949757D01*
X55327278Y-9214057D01*
X55336000Y-9257906D01*
X55336000Y-9572096D01*
X55327278Y-9615945D01*
X55274706Y-9880245D01*
X55154471Y-10170517D01*
X54979918Y-10431755D01*
X54757754Y-10653919D01*
X54496516Y-10828472D01*
X54206244Y-10948707D01*
X53941944Y-11001279D01*
X53898095Y-11010001D01*
X53583905Y-11010001D01*
X53540056Y-11001279D01*
X53275756Y-10948707D01*
X52985484Y-10828472D01*
X52724246Y-10653919D01*
X52502082Y-10431755D01*
X52327529Y-10170517D01*
X52207294Y-9880245D01*
X52154722Y-9615945D01*
X52146000Y-9572096D01*
X52146000Y-9257906D01*
X52154722Y-9214057D01*
X52207294Y-8949757D01*
X52327529Y-8659485D01*
X52502082Y-8398247D01*
X52724246Y-8176083D01*
X52985484Y-8001530D01*
X53275756Y-7881295D01*
X53540056Y-7828723D01*
X53583905Y-7820001D01*
X53898095Y-7820001D01*
X53941944Y-7828723D01*
X53941944Y-7828723D01*
G37*
G36*
X1144707Y-7974596D02*
X1221836Y-7982193D01*
X1353787Y-8022220D01*
X1419763Y-8042233D01*
X1602172Y-8139733D01*
X1762054Y-8270946D01*
X1893267Y-8430828D01*
X1990767Y-8613237D01*
X2010780Y-8679213D01*
X2050807Y-8811164D01*
X2071080Y-9017000D01*
X2050807Y-9222836D01*
X2040168Y-9257907D01*
X1990767Y-9420763D01*
X1893267Y-9603172D01*
X1762054Y-9763054D01*
X1602172Y-9894267D01*
X1419763Y-9991767D01*
X1353787Y-10011780D01*
X1221836Y-10051807D01*
X1144707Y-10059404D01*
X1067580Y-10067000D01*
X964420Y-10067000D01*
X887293Y-10059404D01*
X810164Y-10051807D01*
X678213Y-10011780D01*
X612237Y-9991767D01*
X429828Y-9894267D01*
X269946Y-9763054D01*
X138733Y-9603172D01*
X41233Y-9420763D01*
X-8168Y-9257907D01*
X-18807Y-9222836D01*
X-39080Y-9017000D01*
X-18807Y-8811164D01*
X21220Y-8679213D01*
X41233Y-8613237D01*
X138733Y-8430828D01*
X269946Y-8270946D01*
X429828Y-8139733D01*
X612237Y-8042233D01*
X678213Y-8022220D01*
X810164Y-7982193D01*
X887293Y-7974596D01*
X964420Y-7967000D01*
X1067580Y-7967000D01*
X1144707Y-7974596D01*
X1144707Y-7974596D01*
G37*
G36*
X61697743Y-1175660D02*
X62316503Y-1431958D01*
X62873377Y-1804050D01*
X63346950Y-2277623D01*
X63719042Y-2834497D01*
X63975340Y-3453257D01*
X64106000Y-4110128D01*
X64106000Y-4779872D01*
X63975340Y-5436743D01*
X63719042Y-6055503D01*
X63346950Y-6612377D01*
X62873377Y-7085950D01*
X62316503Y-7458042D01*
X61697743Y-7714340D01*
X61040872Y-7845000D01*
X60371128Y-7845000D01*
X59714257Y-7714340D01*
X59095497Y-7458042D01*
X58538623Y-7085950D01*
X58065050Y-6612377D01*
X57692958Y-6055503D01*
X57436660Y-5436743D01*
X57306000Y-4779872D01*
X57306000Y-4110128D01*
X57436660Y-3453257D01*
X57692958Y-2834497D01*
X58065050Y-2277623D01*
X58538623Y-1804050D01*
X59095497Y-1431958D01*
X59714257Y-1175660D01*
X60371128Y-1045000D01*
X61040872Y-1045000D01*
X61697743Y-1175660D01*
X61697743Y-1175660D01*
G37*
G36*
X7576049Y-2714076D02*
X7788325Y-2756300D01*
X8054938Y-2866734D01*
X8294883Y-3027061D01*
X8498940Y-3231118D01*
X8659267Y-3471063D01*
X8769701Y-3737676D01*
X8826000Y-4020711D01*
X8826000Y-4309291D01*
X8769701Y-4592326D01*
X8659267Y-4858939D01*
X8498940Y-5098884D01*
X8294883Y-5302941D01*
X8054938Y-5463268D01*
X7788325Y-5573702D01*
X7576049Y-5615926D01*
X7505291Y-5630001D01*
X7216709Y-5630001D01*
X7145951Y-5615926D01*
X6933675Y-5573702D01*
X6667062Y-5463268D01*
X6427117Y-5302941D01*
X6223060Y-5098884D01*
X6062733Y-4858939D01*
X5952299Y-4592326D01*
X5896000Y-4309291D01*
X5896000Y-4020711D01*
X5952299Y-3737676D01*
X6062733Y-3471063D01*
X6223060Y-3231118D01*
X6427117Y-3027061D01*
X6667062Y-2866734D01*
X6933675Y-2756300D01*
X7145951Y-2714076D01*
X7216709Y-2700001D01*
X7505291Y-2700001D01*
X7576049Y-2714076D01*
X7576049Y-2714076D01*
G37*
G36*
X53941944Y-2328723D02*
X54206244Y-2381295D01*
X54496516Y-2501530D01*
X54757754Y-2676083D01*
X54979918Y-2898247D01*
X55154471Y-3159485D01*
X55274706Y-3449757D01*
X55327278Y-3714057D01*
X55331977Y-3737679D01*
X55336000Y-3757907D01*
X55336000Y-4072095D01*
X55274706Y-4380245D01*
X55154471Y-4670517D01*
X54979918Y-4931755D01*
X54757754Y-5153919D01*
X54496516Y-5328472D01*
X54206244Y-5448707D01*
X53941944Y-5501279D01*
X53898095Y-5510001D01*
X53583905Y-5510001D01*
X53540056Y-5501279D01*
X53275756Y-5448707D01*
X52985484Y-5328472D01*
X52724246Y-5153919D01*
X52502082Y-4931755D01*
X52327529Y-4670517D01*
X52207294Y-4380245D01*
X52146000Y-4072095D01*
X52146000Y-3757907D01*
X52150024Y-3737679D01*
X52154722Y-3714057D01*
X52207294Y-3449757D01*
X52327529Y-3159485D01*
X52502082Y-2898247D01*
X52724246Y-2676083D01*
X52985484Y-2501530D01*
X53275756Y-2381295D01*
X53540056Y-2328723D01*
X53583905Y-2320001D01*
X53898095Y-2320001D01*
X53941944Y-2328723D01*
X53941944Y-2328723D01*
G37*
G36*
X991743Y3269340D02*
X1610503Y3013042D01*
X2167377Y2640950D01*
X2640950Y2167377D01*
X3013042Y1610503D01*
X3269340Y991743D01*
X3400000Y334872D01*
X3400000Y-334872D01*
X3269340Y-991743D01*
X3013042Y-1610503D01*
X2640950Y-2167377D01*
X2167377Y-2640950D01*
X1610503Y-3013042D01*
X991743Y-3269340D01*
X334872Y-3400000D01*
X-334872Y-3400000D01*
X-991743Y-3269340D01*
X-1610503Y-3013042D01*
X-2167377Y-2640950D01*
X-2640950Y-2167377D01*
X-3013042Y-1610503D01*
X-3269340Y-991743D01*
X-3400000Y-334872D01*
X-3400000Y334872D01*
X-3269340Y991743D01*
X-3013042Y1610503D01*
X-2640950Y2167377D01*
X-2167377Y2640950D01*
X-1610503Y3013042D01*
X-991743Y3269340D01*
X-334872Y3400000D01*
X334872Y3400000D01*
X991743Y3269340D01*
X991743Y3269340D01*
G37*
G36*
X11163547Y7060954D02*
X11337103Y7026432D01*
X11540257Y6942283D01*
X11827560Y6823278D01*
X12268965Y6528340D01*
X12644341Y6152964D01*
X12939279Y5711559D01*
X13058284Y5424256D01*
X13142433Y5221102D01*
X13246000Y4700433D01*
X13246000Y4169565D01*
X13142433Y3648896D01*
X13088676Y3519116D01*
X13081565Y3495672D01*
X13079163Y3471286D01*
X13081565Y3446900D01*
X13088678Y3423451D01*
X13100229Y3401840D01*
X13115775Y3382898D01*
X13134717Y3367352D01*
X13156327Y3355801D01*
X13179777Y3348688D01*
X13204163Y3346286D01*
X13228549Y3348688D01*
X13251998Y3355801D01*
X13252061Y3355827D01*
X13252064Y3355829D01*
X13570544Y3487748D01*
X13908640Y3554999D01*
X14253360Y3554999D01*
X14591456Y3487748D01*
X14909936Y3355829D01*
X15196560Y3164313D01*
X15440314Y2920559D01*
X15631830Y2633935D01*
X15763749Y2315455D01*
X15831000Y1977359D01*
X15831000Y1632639D01*
X15763749Y1294543D01*
X15631830Y976063D01*
X15440314Y689439D01*
X15196560Y445685D01*
X14909936Y254169D01*
X14591456Y122250D01*
X14253360Y54999D01*
X13908640Y54999D01*
X13570544Y122250D01*
X13252064Y254169D01*
X12965440Y445685D01*
X12721686Y689439D01*
X12530170Y976063D01*
X12398251Y1294543D01*
X12331000Y1632639D01*
X12331000Y1977359D01*
X12331777Y1981263D01*
X12365206Y2149324D01*
X12367608Y2173710D01*
X12365206Y2198096D01*
X12358093Y2221545D01*
X12346542Y2243156D01*
X12330996Y2262098D01*
X12312054Y2277644D01*
X12290444Y2289195D01*
X12266994Y2296308D01*
X12242608Y2298710D01*
X12218222Y2296308D01*
X12194773Y2289195D01*
X12173162Y2277644D01*
X11827560Y2046720D01*
X11660107Y1977359D01*
X11337103Y1843566D01*
X11163547Y1809044D01*
X10816436Y1739999D01*
X10285564Y1739999D01*
X9938453Y1809044D01*
X9764897Y1843566D01*
X9441893Y1977359D01*
X9274440Y2046720D01*
X8833035Y2341658D01*
X8457659Y2717034D01*
X8162721Y3158439D01*
X7959567Y3648897D01*
X7959567Y3648899D01*
X7856000Y4169565D01*
X7856000Y4700433D01*
X7959567Y5221102D01*
X8043716Y5424256D01*
X8162721Y5711559D01*
X8457659Y6152964D01*
X8833035Y6528340D01*
X9274440Y6823278D01*
X9561743Y6942283D01*
X9764897Y7026432D01*
X9938453Y7060954D01*
X10285564Y7129999D01*
X10816436Y7129999D01*
X11163547Y7060954D01*
X11163547Y7060954D01*
G37*
G36*
X51163547Y7060954D02*
X51337103Y7026432D01*
X51540257Y6942283D01*
X51827560Y6823278D01*
X52268965Y6528340D01*
X52644341Y6152964D01*
X52939279Y5711559D01*
X53058284Y5424256D01*
X53142433Y5221102D01*
X53246000Y4700433D01*
X53246000Y4169565D01*
X53142434Y3648899D01*
X53142433Y3648897D01*
X52939279Y3158439D01*
X52644341Y2717034D01*
X52268965Y2341658D01*
X51827560Y2046720D01*
X51660107Y1977359D01*
X51337103Y1843566D01*
X51163547Y1809044D01*
X50816436Y1739999D01*
X50285564Y1739999D01*
X49938453Y1809044D01*
X49764897Y1843566D01*
X49441893Y1977359D01*
X49274440Y2046720D01*
X48928838Y2277644D01*
X48907228Y2289195D01*
X48883778Y2296308D01*
X48859392Y2298710D01*
X48835006Y2296308D01*
X48811557Y2289195D01*
X48789946Y2277644D01*
X48771004Y2262098D01*
X48755458Y2243156D01*
X48743907Y2221546D01*
X48736794Y2198096D01*
X48734392Y2173710D01*
X48736794Y2149324D01*
X48770224Y1981263D01*
X48771000Y1977359D01*
X48771000Y1632639D01*
X48703749Y1294543D01*
X48571830Y976063D01*
X48380314Y689439D01*
X48136560Y445685D01*
X47849936Y254169D01*
X47531456Y122250D01*
X47193360Y54999D01*
X46848640Y54999D01*
X46510544Y122250D01*
X46192064Y254169D01*
X45905440Y445685D01*
X45661686Y689439D01*
X45470170Y976063D01*
X45338251Y1294543D01*
X45271000Y1632639D01*
X45271000Y1977359D01*
X45338251Y2315455D01*
X45470170Y2633935D01*
X45661686Y2920559D01*
X45905440Y3164313D01*
X46192064Y3355829D01*
X46510544Y3487748D01*
X46848640Y3554999D01*
X47193360Y3554999D01*
X47531456Y3487748D01*
X47849936Y3355829D01*
X47849939Y3355827D01*
X47850002Y3355801D01*
X47873451Y3348688D01*
X47897837Y3346286D01*
X47922223Y3348688D01*
X47945673Y3355801D01*
X47967283Y3367352D01*
X47986225Y3382898D01*
X48001771Y3401840D01*
X48013322Y3423451D01*
X48020435Y3446900D01*
X48022837Y3471286D01*
X48020435Y3495672D01*
X48013324Y3519116D01*
X47959567Y3648896D01*
X47856000Y4169565D01*
X47856000Y4700433D01*
X47959567Y5221102D01*
X48043716Y5424256D01*
X48162721Y5711559D01*
X48457659Y6152964D01*
X48833035Y6528340D01*
X49274440Y6823278D01*
X49561743Y6942283D01*
X49764897Y7026432D01*
X49938453Y7060954D01*
X50285564Y7129999D01*
X50816436Y7129999D01*
X51163547Y7060954D01*
X51163547Y7060954D01*
G37*
G36*
X38461944Y3391277D02*
X38726244Y3338705D01*
X39016516Y3218470D01*
X39277754Y3043917D01*
X39499918Y2821753D01*
X39674471Y2560515D01*
X39794706Y2270243D01*
X39839167Y2046720D01*
X39856000Y1962094D01*
X39856000Y1647904D01*
X39848561Y1610504D01*
X39794706Y1339755D01*
X39674471Y1049483D01*
X39499918Y788245D01*
X39277754Y566081D01*
X39016516Y391528D01*
X38726244Y271293D01*
X38461944Y218721D01*
X38418095Y209999D01*
X38103905Y209999D01*
X38060056Y218721D01*
X37795756Y271293D01*
X37505484Y391528D01*
X37244246Y566081D01*
X37022082Y788245D01*
X36847529Y1049483D01*
X36727294Y1339755D01*
X36673439Y1610504D01*
X36666000Y1647904D01*
X36666000Y1962094D01*
X36682833Y2046720D01*
X36727294Y2270243D01*
X36847529Y2560515D01*
X37022082Y2821753D01*
X37244246Y3043917D01*
X37505484Y3218470D01*
X37795756Y3338705D01*
X38060056Y3391277D01*
X38103905Y3399999D01*
X38418095Y3399999D01*
X38461944Y3391277D01*
X38461944Y3391277D01*
G37*
M02*
