G04 #@! TF.GenerationSoftware,KiCad,Pcbnew,(5.0.2)-1*
G04 #@! TF.CreationDate,2019-02-08T17:58:05-05:00*
G04 #@! TF.ProjectId,DC_DCBoard,44435f44-4342-46f6-9172-642e6b696361,rev?*
G04 #@! TF.SameCoordinates,Original*
G04 #@! TF.FileFunction,Legend,Bot*
G04 #@! TF.FilePolarity,Positive*
%FSLAX46Y46*%
G04 Gerber Fmt 4.6, Leading zero omitted, Abs format (unit mm)*
G04 Created by KiCad (PCBNEW (5.0.2)-1) date 2/8/2019 5:58:05 PM*
%MOMM*%
%LPD*%
G01*
G04 APERTURE LIST*
%ADD10C,0.300000*%
%ADD11C,0.635000*%
%ADD12C,0.381000*%
%ADD13C,0.457200*%
%ADD14C,0.200000*%
%ADD15C,0.120000*%
%ADD16C,0.010000*%
%ADD17C,0.150000*%
G04 APERTURE END LIST*
D10*
X140238571Y-121323571D02*
X140238571Y-119823571D01*
X139381428Y-121323571D01*
X139381428Y-119823571D01*
X138452857Y-121323571D02*
X138595714Y-121252142D01*
X138667142Y-121180714D01*
X138738571Y-121037857D01*
X138738571Y-120609285D01*
X138667142Y-120466428D01*
X138595714Y-120395000D01*
X138452857Y-120323571D01*
X138238571Y-120323571D01*
X138095714Y-120395000D01*
X138024285Y-120466428D01*
X137952857Y-120609285D01*
X137952857Y-121037857D01*
X138024285Y-121180714D01*
X138095714Y-121252142D01*
X138238571Y-121323571D01*
X138452857Y-121323571D01*
X137524285Y-120323571D02*
X136952857Y-120323571D01*
X137310000Y-119823571D02*
X137310000Y-121109285D01*
X137238571Y-121252142D01*
X137095714Y-121323571D01*
X136952857Y-121323571D01*
X135881428Y-121252142D02*
X136024285Y-121323571D01*
X136310000Y-121323571D01*
X136452857Y-121252142D01*
X136524285Y-121109285D01*
X136524285Y-120537857D01*
X136452857Y-120395000D01*
X136310000Y-120323571D01*
X136024285Y-120323571D01*
X135881428Y-120395000D01*
X135810000Y-120537857D01*
X135810000Y-120680714D01*
X136524285Y-120823571D01*
X135167142Y-121180714D02*
X135095714Y-121252142D01*
X135167142Y-121323571D01*
X135238571Y-121252142D01*
X135167142Y-121180714D01*
X135167142Y-121323571D01*
X135167142Y-120395000D02*
X135095714Y-120466428D01*
X135167142Y-120537857D01*
X135238571Y-120466428D01*
X135167142Y-120395000D01*
X135167142Y-120537857D01*
X132667142Y-120323571D02*
X132667142Y-121537857D01*
X132738571Y-121680714D01*
X132810000Y-121752142D01*
X132952857Y-121823571D01*
X133167142Y-121823571D01*
X133310000Y-121752142D01*
X132667142Y-121252142D02*
X132810000Y-121323571D01*
X133095714Y-121323571D01*
X133238571Y-121252142D01*
X133310000Y-121180714D01*
X133381428Y-121037857D01*
X133381428Y-120609285D01*
X133310000Y-120466428D01*
X133238571Y-120395000D01*
X133095714Y-120323571D01*
X132810000Y-120323571D01*
X132667142Y-120395000D01*
X131381428Y-121252142D02*
X131524285Y-121323571D01*
X131810000Y-121323571D01*
X131952857Y-121252142D01*
X132024285Y-121109285D01*
X132024285Y-120537857D01*
X131952857Y-120395000D01*
X131810000Y-120323571D01*
X131524285Y-120323571D01*
X131381428Y-120395000D01*
X131310000Y-120537857D01*
X131310000Y-120680714D01*
X132024285Y-120823571D01*
X130881428Y-120323571D02*
X130310000Y-120323571D01*
X130667142Y-119823571D02*
X130667142Y-121109285D01*
X130595714Y-121252142D01*
X130452857Y-121323571D01*
X130310000Y-121323571D01*
X129881428Y-121252142D02*
X129738571Y-121323571D01*
X129452857Y-121323571D01*
X129310000Y-121252142D01*
X129238571Y-121109285D01*
X129238571Y-121037857D01*
X129310000Y-120895000D01*
X129452857Y-120823571D01*
X129667142Y-120823571D01*
X129810000Y-120752142D01*
X129881428Y-120609285D01*
X129881428Y-120537857D01*
X129810000Y-120395000D01*
X129667142Y-120323571D01*
X129452857Y-120323571D01*
X129310000Y-120395000D01*
X127667142Y-120323571D02*
X127095714Y-120323571D01*
X127452857Y-119823571D02*
X127452857Y-121109285D01*
X127381428Y-121252142D01*
X127238571Y-121323571D01*
X127095714Y-121323571D01*
X126381428Y-121323571D02*
X126524285Y-121252142D01*
X126595714Y-121180714D01*
X126667142Y-121037857D01*
X126667142Y-120609285D01*
X126595714Y-120466428D01*
X126524285Y-120395000D01*
X126381428Y-120323571D01*
X126167142Y-120323571D01*
X126024285Y-120395000D01*
X125952857Y-120466428D01*
X125881428Y-120609285D01*
X125881428Y-121037857D01*
X125952857Y-121180714D01*
X126024285Y-121252142D01*
X126167142Y-121323571D01*
X126381428Y-121323571D01*
X124595714Y-121323571D02*
X124595714Y-120537857D01*
X124667142Y-120395000D01*
X124810000Y-120323571D01*
X125095714Y-120323571D01*
X125238571Y-120395000D01*
X124595714Y-121252142D02*
X124738571Y-121323571D01*
X125095714Y-121323571D01*
X125238571Y-121252142D01*
X125310000Y-121109285D01*
X125310000Y-120966428D01*
X125238571Y-120823571D01*
X125095714Y-120752142D01*
X124738571Y-120752142D01*
X124595714Y-120680714D01*
X123952857Y-121252142D02*
X123810000Y-121323571D01*
X123524285Y-121323571D01*
X123381428Y-121252142D01*
X123310000Y-121109285D01*
X123310000Y-121037857D01*
X123381428Y-120895000D01*
X123524285Y-120823571D01*
X123738571Y-120823571D01*
X123881428Y-120752142D01*
X123952857Y-120609285D01*
X123952857Y-120537857D01*
X123881428Y-120395000D01*
X123738571Y-120323571D01*
X123524285Y-120323571D01*
X123381428Y-120395000D01*
X122881428Y-120323571D02*
X122310000Y-120323571D01*
X122667142Y-119823571D02*
X122667142Y-121109285D01*
X122595714Y-121252142D01*
X122452857Y-121323571D01*
X122310000Y-121323571D01*
X121952857Y-120323571D02*
X121595714Y-121323571D01*
X121238571Y-120323571D02*
X121595714Y-121323571D01*
X121738571Y-121680714D01*
X121810000Y-121752142D01*
X121952857Y-121823571D01*
X136488571Y-123802142D02*
X136345714Y-123873571D01*
X136060000Y-123873571D01*
X135917142Y-123802142D01*
X135845714Y-123659285D01*
X135845714Y-123587857D01*
X135917142Y-123445000D01*
X136060000Y-123373571D01*
X136274285Y-123373571D01*
X136417142Y-123302142D01*
X136488571Y-123159285D01*
X136488571Y-123087857D01*
X136417142Y-122945000D01*
X136274285Y-122873571D01*
X136060000Y-122873571D01*
X135917142Y-122945000D01*
X134988571Y-123873571D02*
X135131428Y-123802142D01*
X135202857Y-123730714D01*
X135274285Y-123587857D01*
X135274285Y-123159285D01*
X135202857Y-123016428D01*
X135131428Y-122945000D01*
X134988571Y-122873571D01*
X134774285Y-122873571D01*
X134631428Y-122945000D01*
X134560000Y-123016428D01*
X134488571Y-123159285D01*
X134488571Y-123587857D01*
X134560000Y-123730714D01*
X134631428Y-123802142D01*
X134774285Y-123873571D01*
X134988571Y-123873571D01*
X133845714Y-123873571D02*
X133845714Y-122873571D01*
X133845714Y-123016428D02*
X133774285Y-122945000D01*
X133631428Y-122873571D01*
X133417142Y-122873571D01*
X133274285Y-122945000D01*
X133202857Y-123087857D01*
X133202857Y-123873571D01*
X133202857Y-123087857D02*
X133131428Y-122945000D01*
X132988571Y-122873571D01*
X132774285Y-122873571D01*
X132631428Y-122945000D01*
X132560000Y-123087857D01*
X132560000Y-123873571D01*
X131274285Y-123802142D02*
X131417142Y-123873571D01*
X131702857Y-123873571D01*
X131845714Y-123802142D01*
X131917142Y-123659285D01*
X131917142Y-123087857D01*
X131845714Y-122945000D01*
X131702857Y-122873571D01*
X131417142Y-122873571D01*
X131274285Y-122945000D01*
X131202857Y-123087857D01*
X131202857Y-123230714D01*
X131917142Y-123373571D01*
X130774285Y-122873571D02*
X130202857Y-122873571D01*
X130560000Y-122373571D02*
X130560000Y-123659285D01*
X130488571Y-123802142D01*
X130345714Y-123873571D01*
X130202857Y-123873571D01*
X129702857Y-123873571D02*
X129702857Y-122873571D01*
X129702857Y-122373571D02*
X129774285Y-122445000D01*
X129702857Y-122516428D01*
X129631428Y-122445000D01*
X129702857Y-122373571D01*
X129702857Y-122516428D01*
X128988571Y-123873571D02*
X128988571Y-122873571D01*
X128988571Y-123016428D02*
X128917142Y-122945000D01*
X128774285Y-122873571D01*
X128560000Y-122873571D01*
X128417142Y-122945000D01*
X128345714Y-123087857D01*
X128345714Y-123873571D01*
X128345714Y-123087857D02*
X128274285Y-122945000D01*
X128131428Y-122873571D01*
X127917142Y-122873571D01*
X127774285Y-122945000D01*
X127702857Y-123087857D01*
X127702857Y-123873571D01*
X126417142Y-123802142D02*
X126560000Y-123873571D01*
X126845714Y-123873571D01*
X126988571Y-123802142D01*
X127060000Y-123659285D01*
X127060000Y-123087857D01*
X126988571Y-122945000D01*
X126845714Y-122873571D01*
X126560000Y-122873571D01*
X126417142Y-122945000D01*
X126345714Y-123087857D01*
X126345714Y-123230714D01*
X127060000Y-123373571D01*
X125774285Y-123802142D02*
X125631428Y-123873571D01*
X125345714Y-123873571D01*
X125202857Y-123802142D01*
X125131428Y-123659285D01*
X125131428Y-123587857D01*
X125202857Y-123445000D01*
X125345714Y-123373571D01*
X125560000Y-123373571D01*
X125702857Y-123302142D01*
X125774285Y-123159285D01*
X125774285Y-123087857D01*
X125702857Y-122945000D01*
X125560000Y-122873571D01*
X125345714Y-122873571D01*
X125202857Y-122945000D01*
D11*
X123930833Y-104941309D02*
X125442738Y-104941309D01*
X125442738Y-101766309D01*
X123326071Y-101766309D02*
X122267738Y-104941309D01*
X121209404Y-101766309D01*
X115312976Y-104941309D02*
X115312976Y-101766309D01*
X115312976Y-103278214D02*
X113498690Y-103278214D01*
X113498690Y-104941309D02*
X113498690Y-101766309D01*
X112440357Y-101766309D02*
X111382023Y-104941309D01*
X110323690Y-101766309D01*
X85074880Y-76842559D02*
X85074880Y-73667559D01*
X84318928Y-73667559D01*
X83865357Y-73818750D01*
X83562976Y-74121130D01*
X83411785Y-74423511D01*
X83260595Y-75028273D01*
X83260595Y-75481845D01*
X83411785Y-76086607D01*
X83562976Y-76388988D01*
X83865357Y-76691369D01*
X84318928Y-76842559D01*
X85074880Y-76842559D01*
X80539166Y-76842559D02*
X80539166Y-75179464D01*
X80690357Y-74877083D01*
X80992738Y-74725892D01*
X81597500Y-74725892D01*
X81899880Y-74877083D01*
X80539166Y-76691369D02*
X80841547Y-76842559D01*
X81597500Y-76842559D01*
X81899880Y-76691369D01*
X82051071Y-76388988D01*
X82051071Y-76086607D01*
X81899880Y-75784226D01*
X81597500Y-75633035D01*
X80841547Y-75633035D01*
X80539166Y-75481845D01*
X79027261Y-74725892D02*
X79027261Y-76842559D01*
X79027261Y-75028273D02*
X78876071Y-74877083D01*
X78573690Y-74725892D01*
X78120119Y-74725892D01*
X77817738Y-74877083D01*
X77666547Y-75179464D01*
X77666547Y-76842559D01*
X74793928Y-74725892D02*
X74793928Y-77296130D01*
X74945119Y-77598511D01*
X75096309Y-77749702D01*
X75398690Y-77900892D01*
X75852261Y-77900892D01*
X76154642Y-77749702D01*
X74793928Y-76691369D02*
X75096309Y-76842559D01*
X75701071Y-76842559D01*
X76003452Y-76691369D01*
X76154642Y-76540178D01*
X76305833Y-76237797D01*
X76305833Y-75330654D01*
X76154642Y-75028273D01*
X76003452Y-74877083D01*
X75701071Y-74725892D01*
X75096309Y-74725892D01*
X74793928Y-74877083D01*
X72072500Y-76691369D02*
X72374880Y-76842559D01*
X72979642Y-76842559D01*
X73282023Y-76691369D01*
X73433214Y-76388988D01*
X73433214Y-75179464D01*
X73282023Y-74877083D01*
X72979642Y-74725892D01*
X72374880Y-74725892D01*
X72072500Y-74877083D01*
X71921309Y-75179464D01*
X71921309Y-75481845D01*
X73433214Y-75784226D01*
X70560595Y-76842559D02*
X70560595Y-74725892D01*
X70560595Y-75330654D02*
X70409404Y-75028273D01*
X70258214Y-74877083D01*
X69955833Y-74725892D01*
X69653452Y-74725892D01*
X68595119Y-76540178D02*
X68443928Y-76691369D01*
X68595119Y-76842559D01*
X68746309Y-76691369D01*
X68595119Y-76540178D01*
X68595119Y-76842559D01*
X68595119Y-75633035D02*
X68746309Y-73818750D01*
X68595119Y-73667559D01*
X68443928Y-73818750D01*
X68595119Y-75633035D01*
X68595119Y-73667559D01*
X91349285Y-82240059D02*
X91349285Y-79065059D01*
X91349285Y-80576964D02*
X89535000Y-80576964D01*
X89535000Y-82240059D02*
X89535000Y-79065059D01*
X88023095Y-82240059D02*
X88023095Y-80123392D01*
X88023095Y-79065059D02*
X88174285Y-79216250D01*
X88023095Y-79367440D01*
X87871904Y-79216250D01*
X88023095Y-79065059D01*
X88023095Y-79367440D01*
X85150476Y-80123392D02*
X85150476Y-82693630D01*
X85301666Y-82996011D01*
X85452857Y-83147202D01*
X85755238Y-83298392D01*
X86208809Y-83298392D01*
X86511190Y-83147202D01*
X85150476Y-82088869D02*
X85452857Y-82240059D01*
X86057619Y-82240059D01*
X86360000Y-82088869D01*
X86511190Y-81937678D01*
X86662380Y-81635297D01*
X86662380Y-80728154D01*
X86511190Y-80425773D01*
X86360000Y-80274583D01*
X86057619Y-80123392D01*
X85452857Y-80123392D01*
X85150476Y-80274583D01*
X83638571Y-82240059D02*
X83638571Y-79065059D01*
X82277857Y-82240059D02*
X82277857Y-80576964D01*
X82429047Y-80274583D01*
X82731428Y-80123392D01*
X83185000Y-80123392D01*
X83487380Y-80274583D01*
X83638571Y-80425773D01*
X78800476Y-79065059D02*
X77742142Y-82240059D01*
X76683809Y-79065059D01*
X75171904Y-82240059D02*
X75474285Y-82088869D01*
X75625476Y-81937678D01*
X75776666Y-81635297D01*
X75776666Y-80728154D01*
X75625476Y-80425773D01*
X75474285Y-80274583D01*
X75171904Y-80123392D01*
X74718333Y-80123392D01*
X74415952Y-80274583D01*
X74264761Y-80425773D01*
X74113571Y-80728154D01*
X74113571Y-81635297D01*
X74264761Y-81937678D01*
X74415952Y-82088869D01*
X74718333Y-82240059D01*
X75171904Y-82240059D01*
X72299285Y-82240059D02*
X72601666Y-82088869D01*
X72752857Y-81786488D01*
X72752857Y-79065059D01*
X71543333Y-80123392D02*
X70333809Y-80123392D01*
X71089761Y-79065059D02*
X71089761Y-81786488D01*
X70938571Y-82088869D01*
X70636190Y-82240059D01*
X70333809Y-82240059D01*
X67914761Y-82240059D02*
X67914761Y-80576964D01*
X68065952Y-80274583D01*
X68368333Y-80123392D01*
X68973095Y-80123392D01*
X69275476Y-80274583D01*
X67914761Y-82088869D02*
X68217142Y-82240059D01*
X68973095Y-82240059D01*
X69275476Y-82088869D01*
X69426666Y-81786488D01*
X69426666Y-81484107D01*
X69275476Y-81181726D01*
X68973095Y-81030535D01*
X68217142Y-81030535D01*
X67914761Y-80879345D01*
X65042142Y-80123392D02*
X65042142Y-82693630D01*
X65193333Y-82996011D01*
X65344523Y-83147202D01*
X65646904Y-83298392D01*
X66100476Y-83298392D01*
X66402857Y-83147202D01*
X65042142Y-82088869D02*
X65344523Y-82240059D01*
X65949285Y-82240059D01*
X66251666Y-82088869D01*
X66402857Y-81937678D01*
X66554047Y-81635297D01*
X66554047Y-80728154D01*
X66402857Y-80425773D01*
X66251666Y-80274583D01*
X65949285Y-80123392D01*
X65344523Y-80123392D01*
X65042142Y-80274583D01*
X62320714Y-82088869D02*
X62623095Y-82240059D01*
X63227857Y-82240059D01*
X63530238Y-82088869D01*
X63681428Y-81786488D01*
X63681428Y-80576964D01*
X63530238Y-80274583D01*
X63227857Y-80123392D01*
X62623095Y-80123392D01*
X62320714Y-80274583D01*
X62169523Y-80576964D01*
X62169523Y-80879345D01*
X63681428Y-81181726D01*
D12*
X191452500Y-125956785D02*
X190998928Y-127861785D01*
X190636071Y-126501071D01*
X190273214Y-127861785D01*
X189819642Y-125956785D01*
X189093928Y-127861785D02*
X189093928Y-126591785D01*
X189093928Y-125956785D02*
X189184642Y-126047500D01*
X189093928Y-126138214D01*
X189003214Y-126047500D01*
X189093928Y-125956785D01*
X189093928Y-126138214D01*
X187914642Y-127861785D02*
X188096071Y-127771071D01*
X188186785Y-127589642D01*
X188186785Y-125956785D01*
X186916785Y-127861785D02*
X187098214Y-127771071D01*
X187188928Y-127589642D01*
X187188928Y-125956785D01*
X185465357Y-127771071D02*
X185646785Y-127861785D01*
X186009642Y-127861785D01*
X186191071Y-127771071D01*
X186281785Y-127589642D01*
X186281785Y-126863928D01*
X186191071Y-126682500D01*
X186009642Y-126591785D01*
X185646785Y-126591785D01*
X185465357Y-126682500D01*
X185374642Y-126863928D01*
X185374642Y-127045357D01*
X186281785Y-127226785D01*
X184558214Y-127861785D02*
X184558214Y-126591785D01*
X184558214Y-126773214D02*
X184467500Y-126682500D01*
X184286071Y-126591785D01*
X184013928Y-126591785D01*
X183832500Y-126682500D01*
X183741785Y-126863928D01*
X183741785Y-127861785D01*
X183741785Y-126863928D02*
X183651071Y-126682500D01*
X183469642Y-126591785D01*
X183197500Y-126591785D01*
X183016071Y-126682500D01*
X182925357Y-126863928D01*
X182925357Y-127861785D01*
X180566785Y-127861785D02*
X180566785Y-125956785D01*
X180566785Y-126863928D02*
X179478214Y-126863928D01*
X179478214Y-127861785D02*
X179478214Y-125956785D01*
X178571071Y-127861785D02*
X178571071Y-126591785D01*
X178571071Y-125956785D02*
X178661785Y-126047500D01*
X178571071Y-126138214D01*
X178480357Y-126047500D01*
X178571071Y-125956785D01*
X178571071Y-126138214D01*
X177391785Y-127861785D02*
X177573214Y-127771071D01*
X177663928Y-127589642D01*
X177663928Y-125956785D01*
X176393928Y-127861785D02*
X176575357Y-127771071D01*
X176666071Y-127589642D01*
X176666071Y-125956785D01*
X175668214Y-127861785D02*
X175668214Y-126591785D01*
X175668214Y-125956785D02*
X175758928Y-126047500D01*
X175668214Y-126138214D01*
X175577500Y-126047500D01*
X175668214Y-125956785D01*
X175668214Y-126138214D01*
X174035357Y-127771071D02*
X174216785Y-127861785D01*
X174579642Y-127861785D01*
X174761071Y-127771071D01*
X174851785Y-127589642D01*
X174851785Y-126863928D01*
X174761071Y-126682500D01*
X174579642Y-126591785D01*
X174216785Y-126591785D01*
X174035357Y-126682500D01*
X173944642Y-126863928D01*
X173944642Y-127045357D01*
X174851785Y-127226785D01*
X173128214Y-127861785D02*
X173128214Y-126591785D01*
X173128214Y-126954642D02*
X173037500Y-126773214D01*
X172946785Y-126682500D01*
X172765357Y-126591785D01*
X172583928Y-126591785D01*
X169046071Y-125956785D02*
X169046071Y-127498928D01*
X168955357Y-127680357D01*
X168864642Y-127771071D01*
X168683214Y-127861785D01*
X168320357Y-127861785D01*
X168138928Y-127771071D01*
X168048214Y-127680357D01*
X167957500Y-127498928D01*
X167957500Y-125956785D01*
X167322500Y-125956785D02*
X166687500Y-127861785D01*
X166052500Y-125956785D01*
X165417500Y-127861785D02*
X165417500Y-125956785D01*
X164782500Y-127317500D01*
X164147500Y-125956785D01*
X164147500Y-127861785D01*
X161879642Y-127317500D02*
X160972500Y-127317500D01*
X162061071Y-127861785D02*
X161426071Y-125956785D01*
X160791071Y-127861785D01*
X160156071Y-126863928D02*
X159521071Y-126863928D01*
X159248928Y-127861785D02*
X160156071Y-127861785D01*
X160156071Y-125956785D01*
X159248928Y-125956785D01*
X157343928Y-127861785D02*
X157978928Y-126954642D01*
X158432500Y-127861785D02*
X158432500Y-125956785D01*
X157706785Y-125956785D01*
X157525357Y-126047500D01*
X157434642Y-126138214D01*
X157343928Y-126319642D01*
X157343928Y-126591785D01*
X157434642Y-126773214D01*
X157525357Y-126863928D01*
X157706785Y-126954642D01*
X158432500Y-126954642D01*
X156164642Y-125956785D02*
X155801785Y-125956785D01*
X155620357Y-126047500D01*
X155438928Y-126228928D01*
X155348214Y-126591785D01*
X155348214Y-127226785D01*
X155438928Y-127589642D01*
X155620357Y-127771071D01*
X155801785Y-127861785D01*
X156164642Y-127861785D01*
X156346071Y-127771071D01*
X156527500Y-127589642D01*
X156618214Y-127226785D01*
X156618214Y-126591785D01*
X156527500Y-126228928D01*
X156346071Y-126047500D01*
X156164642Y-125956785D01*
X151719642Y-126138214D02*
X151628928Y-126047500D01*
X151447500Y-125956785D01*
X150993928Y-125956785D01*
X150812500Y-126047500D01*
X150721785Y-126138214D01*
X150631071Y-126319642D01*
X150631071Y-126501071D01*
X150721785Y-126773214D01*
X151810357Y-127861785D01*
X150631071Y-127861785D01*
X148453928Y-125866071D02*
X150086785Y-128315357D01*
X146911785Y-125956785D02*
X147818928Y-125956785D01*
X147909642Y-126863928D01*
X147818928Y-126773214D01*
X147637500Y-126682500D01*
X147183928Y-126682500D01*
X147002500Y-126773214D01*
X146911785Y-126863928D01*
X146821071Y-127045357D01*
X146821071Y-127498928D01*
X146911785Y-127680357D01*
X147002500Y-127771071D01*
X147183928Y-127861785D01*
X147637500Y-127861785D01*
X147818928Y-127771071D01*
X147909642Y-127680357D01*
X144643928Y-125866071D02*
X146276785Y-128315357D01*
X144099642Y-126138214D02*
X144008928Y-126047500D01*
X143827500Y-125956785D01*
X143373928Y-125956785D01*
X143192500Y-126047500D01*
X143101785Y-126138214D01*
X143011071Y-126319642D01*
X143011071Y-126501071D01*
X143101785Y-126773214D01*
X144190357Y-127861785D01*
X143011071Y-127861785D01*
X141831785Y-125956785D02*
X141650357Y-125956785D01*
X141468928Y-126047500D01*
X141378214Y-126138214D01*
X141287500Y-126319642D01*
X141196785Y-126682500D01*
X141196785Y-127136071D01*
X141287500Y-127498928D01*
X141378214Y-127680357D01*
X141468928Y-127771071D01*
X141650357Y-127861785D01*
X141831785Y-127861785D01*
X142013214Y-127771071D01*
X142103928Y-127680357D01*
X142194642Y-127498928D01*
X142285357Y-127136071D01*
X142285357Y-126682500D01*
X142194642Y-126319642D01*
X142103928Y-126138214D01*
X142013214Y-126047500D01*
X141831785Y-125956785D01*
X139382500Y-127861785D02*
X140471071Y-127861785D01*
X139926785Y-127861785D02*
X139926785Y-125956785D01*
X140108214Y-126228928D01*
X140289642Y-126410357D01*
X140471071Y-126501071D01*
X138475357Y-127861785D02*
X138112500Y-127861785D01*
X137931071Y-127771071D01*
X137840357Y-127680357D01*
X137658928Y-127408214D01*
X137568214Y-127045357D01*
X137568214Y-126319642D01*
X137658928Y-126138214D01*
X137749642Y-126047500D01*
X137931071Y-125956785D01*
X138293928Y-125956785D01*
X138475357Y-126047500D01*
X138566071Y-126138214D01*
X138656785Y-126319642D01*
X138656785Y-126773214D01*
X138566071Y-126954642D01*
X138475357Y-127045357D01*
X138293928Y-127136071D01*
X137931071Y-127136071D01*
X137749642Y-127045357D01*
X137658928Y-126954642D01*
X137568214Y-126773214D01*
X184739642Y-89698285D02*
X185828214Y-89698285D01*
X185283928Y-89698285D02*
X185283928Y-87793285D01*
X185465357Y-88065428D01*
X185646785Y-88246857D01*
X185828214Y-88337571D01*
X184013928Y-87974714D02*
X183923214Y-87884000D01*
X183741785Y-87793285D01*
X183288214Y-87793285D01*
X183106785Y-87884000D01*
X183016071Y-87974714D01*
X182925357Y-88156142D01*
X182925357Y-88337571D01*
X183016071Y-88609714D01*
X184104642Y-89698285D01*
X182925357Y-89698285D01*
X181746071Y-87793285D02*
X181564642Y-87793285D01*
X181383214Y-87884000D01*
X181292500Y-87974714D01*
X181201785Y-88156142D01*
X181111071Y-88519000D01*
X181111071Y-88972571D01*
X181201785Y-89335428D01*
X181292500Y-89516857D01*
X181383214Y-89607571D01*
X181564642Y-89698285D01*
X181746071Y-89698285D01*
X181927500Y-89607571D01*
X182018214Y-89516857D01*
X182108928Y-89335428D01*
X182199642Y-88972571D01*
X182199642Y-88519000D01*
X182108928Y-88156142D01*
X182018214Y-87974714D01*
X181927500Y-87884000D01*
X181746071Y-87793285D01*
X180566785Y-87793285D02*
X179931785Y-89698285D01*
X179296785Y-87793285D01*
X178661785Y-88972571D02*
X177210357Y-88972571D01*
X175486785Y-88428285D02*
X175486785Y-89698285D01*
X175940357Y-87702571D02*
X176393928Y-89063285D01*
X175214642Y-89063285D01*
X174579642Y-87974714D02*
X174488928Y-87884000D01*
X174307500Y-87793285D01*
X173853928Y-87793285D01*
X173672500Y-87884000D01*
X173581785Y-87974714D01*
X173491071Y-88156142D01*
X173491071Y-88337571D01*
X173581785Y-88609714D01*
X174670357Y-89698285D01*
X173491071Y-89698285D01*
X172311785Y-87793285D02*
X172130357Y-87793285D01*
X171948928Y-87884000D01*
X171858214Y-87974714D01*
X171767500Y-88156142D01*
X171676785Y-88519000D01*
X171676785Y-88972571D01*
X171767500Y-89335428D01*
X171858214Y-89516857D01*
X171948928Y-89607571D01*
X172130357Y-89698285D01*
X172311785Y-89698285D01*
X172493214Y-89607571D01*
X172583928Y-89516857D01*
X172674642Y-89335428D01*
X172765357Y-88972571D01*
X172765357Y-88519000D01*
X172674642Y-88156142D01*
X172583928Y-87974714D01*
X172493214Y-87884000D01*
X172311785Y-87793285D01*
X171132500Y-87793285D02*
X170497500Y-89698285D01*
X169862500Y-87793285D01*
X167776071Y-89698285D02*
X167776071Y-88428285D01*
X167776071Y-87793285D02*
X167866785Y-87884000D01*
X167776071Y-87974714D01*
X167685357Y-87884000D01*
X167776071Y-87793285D01*
X167776071Y-87974714D01*
X166868928Y-88428285D02*
X166868928Y-89698285D01*
X166868928Y-88609714D02*
X166778214Y-88519000D01*
X166596785Y-88428285D01*
X166324642Y-88428285D01*
X166143214Y-88519000D01*
X166052500Y-88700428D01*
X166052500Y-89698285D01*
X185238571Y-92936785D02*
X184875714Y-92936785D01*
X184694285Y-92846071D01*
X184603571Y-92755357D01*
X184422142Y-92483214D01*
X184331428Y-92120357D01*
X184331428Y-91394642D01*
X184422142Y-91213214D01*
X184512857Y-91122500D01*
X184694285Y-91031785D01*
X185057142Y-91031785D01*
X185238571Y-91122500D01*
X185329285Y-91213214D01*
X185420000Y-91394642D01*
X185420000Y-91848214D01*
X185329285Y-92029642D01*
X185238571Y-92120357D01*
X185057142Y-92211071D01*
X184694285Y-92211071D01*
X184512857Y-92120357D01*
X184422142Y-92029642D01*
X184331428Y-91848214D01*
X183787142Y-91031785D02*
X183152142Y-92936785D01*
X182517142Y-91031785D01*
X181882142Y-92211071D02*
X180430714Y-92211071D01*
X178525714Y-92936785D02*
X179614285Y-92936785D01*
X179070000Y-92936785D02*
X179070000Y-91031785D01*
X179251428Y-91303928D01*
X179432857Y-91485357D01*
X179614285Y-91576071D01*
X176892857Y-91031785D02*
X177255714Y-91031785D01*
X177437142Y-91122500D01*
X177527857Y-91213214D01*
X177709285Y-91485357D01*
X177800000Y-91848214D01*
X177800000Y-92573928D01*
X177709285Y-92755357D01*
X177618571Y-92846071D01*
X177437142Y-92936785D01*
X177074285Y-92936785D01*
X176892857Y-92846071D01*
X176802142Y-92755357D01*
X176711428Y-92573928D01*
X176711428Y-92120357D01*
X176802142Y-91938928D01*
X176892857Y-91848214D01*
X177074285Y-91757500D01*
X177437142Y-91757500D01*
X177618571Y-91848214D01*
X177709285Y-91938928D01*
X177800000Y-92120357D01*
X175895000Y-92755357D02*
X175804285Y-92846071D01*
X175895000Y-92936785D01*
X175985714Y-92846071D01*
X175895000Y-92755357D01*
X175895000Y-92936785D01*
X174080714Y-91031785D02*
X174987857Y-91031785D01*
X175078571Y-91938928D01*
X174987857Y-91848214D01*
X174806428Y-91757500D01*
X174352857Y-91757500D01*
X174171428Y-91848214D01*
X174080714Y-91938928D01*
X173990000Y-92120357D01*
X173990000Y-92573928D01*
X174080714Y-92755357D01*
X174171428Y-92846071D01*
X174352857Y-92936785D01*
X174806428Y-92936785D01*
X174987857Y-92846071D01*
X175078571Y-92755357D01*
X173445714Y-91031785D02*
X172810714Y-92936785D01*
X172175714Y-91031785D01*
X169817142Y-92936785D02*
X169998571Y-92846071D01*
X170089285Y-92755357D01*
X170180000Y-92573928D01*
X170180000Y-92029642D01*
X170089285Y-91848214D01*
X169998571Y-91757500D01*
X169817142Y-91666785D01*
X169545000Y-91666785D01*
X169363571Y-91757500D01*
X169272857Y-91848214D01*
X169182142Y-92029642D01*
X169182142Y-92573928D01*
X169272857Y-92755357D01*
X169363571Y-92846071D01*
X169545000Y-92936785D01*
X169817142Y-92936785D01*
X167549285Y-91666785D02*
X167549285Y-92936785D01*
X168365714Y-91666785D02*
X168365714Y-92664642D01*
X168275000Y-92846071D01*
X168093571Y-92936785D01*
X167821428Y-92936785D01*
X167640000Y-92846071D01*
X167549285Y-92755357D01*
X166914285Y-91666785D02*
X166188571Y-91666785D01*
X166642142Y-91031785D02*
X166642142Y-92664642D01*
X166551428Y-92846071D01*
X166370000Y-92936785D01*
X166188571Y-92936785D01*
X182063571Y-94905285D02*
X182063571Y-96175285D01*
X182517142Y-94179571D02*
X182970714Y-95540285D01*
X181791428Y-95540285D01*
X180702857Y-94270285D02*
X180521428Y-94270285D01*
X180340000Y-94361000D01*
X180249285Y-94451714D01*
X180158571Y-94633142D01*
X180067857Y-94996000D01*
X180067857Y-95449571D01*
X180158571Y-95812428D01*
X180249285Y-95993857D01*
X180340000Y-96084571D01*
X180521428Y-96175285D01*
X180702857Y-96175285D01*
X180884285Y-96084571D01*
X180975000Y-95993857D01*
X181065714Y-95812428D01*
X181156428Y-95449571D01*
X181156428Y-94996000D01*
X181065714Y-94633142D01*
X180975000Y-94451714D01*
X180884285Y-94361000D01*
X180702857Y-94270285D01*
X178888571Y-94270285D02*
X178707142Y-94270285D01*
X178525714Y-94361000D01*
X178435000Y-94451714D01*
X178344285Y-94633142D01*
X178253571Y-94996000D01*
X178253571Y-95449571D01*
X178344285Y-95812428D01*
X178435000Y-95993857D01*
X178525714Y-96084571D01*
X178707142Y-96175285D01*
X178888571Y-96175285D01*
X179070000Y-96084571D01*
X179160714Y-95993857D01*
X179251428Y-95812428D01*
X179342142Y-95449571D01*
X179342142Y-94996000D01*
X179251428Y-94633142D01*
X179160714Y-94451714D01*
X179070000Y-94361000D01*
X178888571Y-94270285D01*
X177618571Y-94270285D02*
X177165000Y-96175285D01*
X176802142Y-94814571D01*
X176439285Y-96175285D01*
X175985714Y-94270285D01*
X173808571Y-96175285D02*
X173808571Y-94905285D01*
X173808571Y-95086714D02*
X173717857Y-94996000D01*
X173536428Y-94905285D01*
X173264285Y-94905285D01*
X173082857Y-94996000D01*
X172992142Y-95177428D01*
X172992142Y-96175285D01*
X172992142Y-95177428D02*
X172901428Y-94996000D01*
X172720000Y-94905285D01*
X172447857Y-94905285D01*
X172266428Y-94996000D01*
X172175714Y-95177428D01*
X172175714Y-96175285D01*
X170452142Y-96175285D02*
X170452142Y-95177428D01*
X170542857Y-94996000D01*
X170724285Y-94905285D01*
X171087142Y-94905285D01*
X171268571Y-94996000D01*
X170452142Y-96084571D02*
X170633571Y-96175285D01*
X171087142Y-96175285D01*
X171268571Y-96084571D01*
X171359285Y-95903142D01*
X171359285Y-95721714D01*
X171268571Y-95540285D01*
X171087142Y-95449571D01*
X170633571Y-95449571D01*
X170452142Y-95358857D01*
X169726428Y-96175285D02*
X168728571Y-94905285D01*
X169726428Y-94905285D02*
X168728571Y-96175285D01*
D13*
X187065000Y-69195042D02*
X186365000Y-71481042D01*
X185665000Y-69195042D01*
X184965000Y-71481042D02*
X184965000Y-69957042D01*
X184965000Y-69195042D02*
X185065000Y-69303900D01*
X184965000Y-69412757D01*
X184865000Y-69303900D01*
X184965000Y-69195042D01*
X184965000Y-69412757D01*
X183065000Y-71372185D02*
X183265000Y-71481042D01*
X183665000Y-71481042D01*
X183865000Y-71372185D01*
X183965000Y-71263328D01*
X184065000Y-71045614D01*
X184065000Y-70392471D01*
X183965000Y-70174757D01*
X183865000Y-70065900D01*
X183665000Y-69957042D01*
X183265000Y-69957042D01*
X183065000Y-70065900D01*
X181865000Y-71481042D02*
X182065000Y-71372185D01*
X182165000Y-71263328D01*
X182265000Y-71045614D01*
X182265000Y-70392471D01*
X182165000Y-70174757D01*
X182065000Y-70065900D01*
X181865000Y-69957042D01*
X181565000Y-69957042D01*
X181365000Y-70065900D01*
X181265000Y-70174757D01*
X181165000Y-70392471D01*
X181165000Y-71045614D01*
X181265000Y-71263328D01*
X181365000Y-71372185D01*
X181565000Y-71481042D01*
X181865000Y-71481042D01*
X180265000Y-71481042D02*
X180265000Y-69957042D01*
X180265000Y-70392471D02*
X180165000Y-70174757D01*
X180065000Y-70065900D01*
X179865000Y-69957042D01*
X179665000Y-69957042D01*
X177365000Y-71481042D02*
X177365000Y-69195042D01*
X176865000Y-69195042D01*
X176565000Y-69303900D01*
X176365000Y-69521614D01*
X176265000Y-69739328D01*
X176165000Y-70174757D01*
X176165000Y-70501328D01*
X176265000Y-70936757D01*
X176365000Y-71154471D01*
X176565000Y-71372185D01*
X176865000Y-71481042D01*
X177365000Y-71481042D01*
X174065000Y-71263328D02*
X174165000Y-71372185D01*
X174465000Y-71481042D01*
X174665000Y-71481042D01*
X174965000Y-71372185D01*
X175165000Y-71154471D01*
X175265000Y-70936757D01*
X175365000Y-70501328D01*
X175365000Y-70174757D01*
X175265000Y-69739328D01*
X175165000Y-69521614D01*
X174965000Y-69303900D01*
X174665000Y-69195042D01*
X174465000Y-69195042D01*
X174165000Y-69303900D01*
X174065000Y-69412757D01*
X173165000Y-71481042D02*
X173165000Y-69195042D01*
X172465000Y-70827900D01*
X171765000Y-69195042D01*
X171765000Y-71481042D01*
X169865000Y-69957042D02*
X169865000Y-71481042D01*
X170365000Y-69086185D02*
X170865000Y-70719042D01*
X169565000Y-70719042D01*
X167865000Y-69195042D02*
X168265000Y-69195042D01*
X168465000Y-69303900D01*
X168565000Y-69412757D01*
X168765000Y-69739328D01*
X168865000Y-70174757D01*
X168865000Y-71045614D01*
X168765000Y-71263328D01*
X168665000Y-71372185D01*
X168465000Y-71481042D01*
X168065000Y-71481042D01*
X167865000Y-71372185D01*
X167765000Y-71263328D01*
X167665000Y-71045614D01*
X167665000Y-70501328D01*
X167765000Y-70283614D01*
X167865000Y-70174757D01*
X168065000Y-70065900D01*
X168465000Y-70065900D01*
X168665000Y-70174757D01*
X168765000Y-70283614D01*
X168865000Y-70501328D01*
X166865000Y-69412757D02*
X166765000Y-69303900D01*
X166565000Y-69195042D01*
X166065000Y-69195042D01*
X165865000Y-69303900D01*
X165765000Y-69412757D01*
X165665000Y-69630471D01*
X165665000Y-69848185D01*
X165765000Y-70174757D01*
X166965000Y-71481042D01*
X165665000Y-71481042D01*
X164965000Y-69195042D02*
X163665000Y-69195042D01*
X164365000Y-70065900D01*
X164065000Y-70065900D01*
X163865000Y-70174757D01*
X163765000Y-70283614D01*
X163665000Y-70501328D01*
X163665000Y-71045614D01*
X163765000Y-71263328D01*
X163865000Y-71372185D01*
X164065000Y-71481042D01*
X164665000Y-71481042D01*
X164865000Y-71372185D01*
X164965000Y-71263328D01*
X163065000Y-69195042D02*
X161865000Y-69195042D01*
X162465000Y-71481042D02*
X162465000Y-69195042D01*
X161165000Y-71481042D02*
X161165000Y-69195042D01*
X160665000Y-69195042D01*
X160365000Y-69303900D01*
X160165000Y-69521614D01*
X160065000Y-69739328D01*
X159965000Y-70174757D01*
X159965000Y-70501328D01*
X160065000Y-70936757D01*
X160165000Y-71154471D01*
X160365000Y-71372185D01*
X160665000Y-71481042D01*
X161165000Y-71481042D01*
X159165000Y-69412757D02*
X159065000Y-69303900D01*
X158865000Y-69195042D01*
X158365000Y-69195042D01*
X158165000Y-69303900D01*
X158065000Y-69412757D01*
X157965000Y-69630471D01*
X157965000Y-69848185D01*
X158065000Y-70174757D01*
X159265000Y-71481042D01*
X157965000Y-71481042D01*
X157065000Y-71481042D02*
X157065000Y-69195042D01*
X155865000Y-71481042D01*
X155865000Y-69195042D01*
X153765000Y-71481042D02*
X154965000Y-71481042D01*
X154365000Y-71481042D02*
X154365000Y-69195042D01*
X154565000Y-69521614D01*
X154765000Y-69739328D01*
X154965000Y-69848185D01*
X153065000Y-69195042D02*
X151665000Y-69195042D01*
X152565000Y-71481042D01*
X149665000Y-71263328D02*
X149765000Y-71372185D01*
X150065000Y-71481042D01*
X150265000Y-71481042D01*
X150565000Y-71372185D01*
X150765000Y-71154471D01*
X150865000Y-70936757D01*
X150965000Y-70501328D01*
X150965000Y-70174757D01*
X150865000Y-69739328D01*
X150765000Y-69521614D01*
X150565000Y-69303900D01*
X150265000Y-69195042D01*
X150065000Y-69195042D01*
X149765000Y-69303900D01*
X149665000Y-69412757D01*
X148465000Y-70174757D02*
X148665000Y-70065900D01*
X148765000Y-69957042D01*
X148865000Y-69739328D01*
X148865000Y-69630471D01*
X148765000Y-69412757D01*
X148665000Y-69303900D01*
X148465000Y-69195042D01*
X148065000Y-69195042D01*
X147865000Y-69303900D01*
X147765000Y-69412757D01*
X147665000Y-69630471D01*
X147665000Y-69739328D01*
X147765000Y-69957042D01*
X147865000Y-70065900D01*
X148065000Y-70174757D01*
X148465000Y-70174757D01*
X148665000Y-70283614D01*
X148765000Y-70392471D01*
X148865000Y-70610185D01*
X148865000Y-71045614D01*
X148765000Y-71263328D01*
X148665000Y-71372185D01*
X148465000Y-71481042D01*
X148065000Y-71481042D01*
X147865000Y-71372185D01*
X147765000Y-71263328D01*
X147665000Y-71045614D01*
X147665000Y-70610185D01*
X147765000Y-70392471D01*
X147865000Y-70283614D01*
X148065000Y-70174757D01*
X147065000Y-69195042D02*
X145865000Y-69195042D01*
X146465000Y-71481042D02*
X146465000Y-69195042D01*
X145365000Y-69195042D02*
X143965000Y-69195042D01*
X144865000Y-71481042D01*
X142765000Y-69195042D02*
X142565000Y-69195042D01*
X142365000Y-69303900D01*
X142265000Y-69412757D01*
X142165000Y-69630471D01*
X142065000Y-70065900D01*
X142065000Y-70610185D01*
X142165000Y-71045614D01*
X142265000Y-71263328D01*
X142365000Y-71372185D01*
X142565000Y-71481042D01*
X142765000Y-71481042D01*
X142965000Y-71372185D01*
X143065000Y-71263328D01*
X143165000Y-71045614D01*
X143265000Y-70610185D01*
X143265000Y-70065900D01*
X143165000Y-69630471D01*
X143065000Y-69412757D01*
X142965000Y-69303900D01*
X142765000Y-69195042D01*
X184865000Y-75367242D02*
X184865000Y-73081242D01*
X184365000Y-73081242D01*
X184065000Y-73190100D01*
X183865000Y-73407814D01*
X183765000Y-73625528D01*
X183665000Y-74060957D01*
X183665000Y-74387528D01*
X183765000Y-74822957D01*
X183865000Y-75040671D01*
X184065000Y-75258385D01*
X184365000Y-75367242D01*
X184865000Y-75367242D01*
X181565000Y-75149528D02*
X181665000Y-75258385D01*
X181965000Y-75367242D01*
X182165000Y-75367242D01*
X182465000Y-75258385D01*
X182665000Y-75040671D01*
X182765000Y-74822957D01*
X182865000Y-74387528D01*
X182865000Y-74060957D01*
X182765000Y-73625528D01*
X182665000Y-73407814D01*
X182465000Y-73190100D01*
X182165000Y-73081242D01*
X181965000Y-73081242D01*
X181665000Y-73190100D01*
X181565000Y-73298957D01*
X179165000Y-72972385D02*
X180965000Y-75911528D01*
X178465000Y-75367242D02*
X178465000Y-73081242D01*
X177965000Y-73081242D01*
X177665000Y-73190100D01*
X177465000Y-73407814D01*
X177365000Y-73625528D01*
X177265000Y-74060957D01*
X177265000Y-74387528D01*
X177365000Y-74822957D01*
X177465000Y-75040671D01*
X177665000Y-75258385D01*
X177965000Y-75367242D01*
X178465000Y-75367242D01*
X175165000Y-75149528D02*
X175265000Y-75258385D01*
X175565000Y-75367242D01*
X175765000Y-75367242D01*
X176065000Y-75258385D01*
X176265000Y-75040671D01*
X176365000Y-74822957D01*
X176465000Y-74387528D01*
X176465000Y-74060957D01*
X176365000Y-73625528D01*
X176265000Y-73407814D01*
X176065000Y-73190100D01*
X175765000Y-73081242D01*
X175565000Y-73081242D01*
X175265000Y-73190100D01*
X175165000Y-73298957D01*
X172665000Y-75367242D02*
X172665000Y-73081242D01*
X171965000Y-74714100D01*
X171265000Y-73081242D01*
X171265000Y-75367242D01*
X169965000Y-75367242D02*
X170165000Y-75258385D01*
X170265000Y-75149528D01*
X170365000Y-74931814D01*
X170365000Y-74278671D01*
X170265000Y-74060957D01*
X170165000Y-73952100D01*
X169965000Y-73843242D01*
X169665000Y-73843242D01*
X169465000Y-73952100D01*
X169365000Y-74060957D01*
X169265000Y-74278671D01*
X169265000Y-74931814D01*
X169365000Y-75149528D01*
X169465000Y-75258385D01*
X169665000Y-75367242D01*
X169965000Y-75367242D01*
X167465000Y-75367242D02*
X167465000Y-73081242D01*
X167465000Y-75258385D02*
X167665000Y-75367242D01*
X168065000Y-75367242D01*
X168265000Y-75258385D01*
X168365000Y-75149528D01*
X168465000Y-74931814D01*
X168465000Y-74278671D01*
X168365000Y-74060957D01*
X168265000Y-73952100D01*
X168065000Y-73843242D01*
X167665000Y-73843242D01*
X167465000Y-73952100D01*
X165565000Y-73843242D02*
X165565000Y-75367242D01*
X166465000Y-73843242D02*
X166465000Y-75040671D01*
X166365000Y-75258385D01*
X166165000Y-75367242D01*
X165865000Y-75367242D01*
X165665000Y-75258385D01*
X165565000Y-75149528D01*
X164265000Y-75367242D02*
X164465000Y-75258385D01*
X164565000Y-75040671D01*
X164565000Y-73081242D01*
X162665000Y-75258385D02*
X162865000Y-75367242D01*
X163265000Y-75367242D01*
X163465000Y-75258385D01*
X163565000Y-75040671D01*
X163565000Y-74169814D01*
X163465000Y-73952100D01*
X163265000Y-73843242D01*
X162865000Y-73843242D01*
X162665000Y-73952100D01*
X162565000Y-74169814D01*
X162565000Y-74387528D01*
X163565000Y-74605242D01*
X160365000Y-73081242D02*
X159165000Y-73081242D01*
X159765000Y-75367242D02*
X159765000Y-73081242D01*
X157665000Y-75258385D02*
X157865000Y-75367242D01*
X158265000Y-75367242D01*
X158465000Y-75258385D01*
X158565000Y-75040671D01*
X158565000Y-74169814D01*
X158465000Y-73952100D01*
X158265000Y-73843242D01*
X157865000Y-73843242D01*
X157665000Y-73952100D01*
X157565000Y-74169814D01*
X157565000Y-74387528D01*
X158565000Y-74605242D01*
X156765000Y-75258385D02*
X156565000Y-75367242D01*
X156165000Y-75367242D01*
X155965000Y-75258385D01*
X155865000Y-75040671D01*
X155865000Y-74931814D01*
X155965000Y-74714100D01*
X156165000Y-74605242D01*
X156465000Y-74605242D01*
X156665000Y-74496385D01*
X156765000Y-74278671D01*
X156765000Y-74169814D01*
X156665000Y-73952100D01*
X156465000Y-73843242D01*
X156165000Y-73843242D01*
X155965000Y-73952100D01*
X155265000Y-73843242D02*
X154465000Y-73843242D01*
X154965000Y-73081242D02*
X154965000Y-75040671D01*
X154865000Y-75258385D01*
X154665000Y-75367242D01*
X154465000Y-75367242D01*
X151465000Y-74169814D02*
X151165000Y-74278671D01*
X151065000Y-74387528D01*
X150965000Y-74605242D01*
X150965000Y-74931814D01*
X151065000Y-75149528D01*
X151165000Y-75258385D01*
X151365000Y-75367242D01*
X152165000Y-75367242D01*
X152165000Y-73081242D01*
X151465000Y-73081242D01*
X151265000Y-73190100D01*
X151165000Y-73298957D01*
X151065000Y-73516671D01*
X151065000Y-73734385D01*
X151165000Y-73952100D01*
X151265000Y-74060957D01*
X151465000Y-74169814D01*
X152165000Y-74169814D01*
X149765000Y-75367242D02*
X149965000Y-75258385D01*
X150065000Y-75149528D01*
X150165000Y-74931814D01*
X150165000Y-74278671D01*
X150065000Y-74060957D01*
X149965000Y-73952100D01*
X149765000Y-73843242D01*
X149465000Y-73843242D01*
X149265000Y-73952100D01*
X149165000Y-74060957D01*
X149065000Y-74278671D01*
X149065000Y-74931814D01*
X149165000Y-75149528D01*
X149265000Y-75258385D01*
X149465000Y-75367242D01*
X149765000Y-75367242D01*
X147265000Y-75367242D02*
X147265000Y-74169814D01*
X147365000Y-73952100D01*
X147565000Y-73843242D01*
X147965000Y-73843242D01*
X148165000Y-73952100D01*
X147265000Y-75258385D02*
X147465000Y-75367242D01*
X147965000Y-75367242D01*
X148165000Y-75258385D01*
X148265000Y-75040671D01*
X148265000Y-74822957D01*
X148165000Y-74605242D01*
X147965000Y-74496385D01*
X147465000Y-74496385D01*
X147265000Y-74387528D01*
X146265000Y-75367242D02*
X146265000Y-73843242D01*
X146265000Y-74278671D02*
X146165000Y-74060957D01*
X146065000Y-73952100D01*
X145865000Y-73843242D01*
X145665000Y-73843242D01*
X144065000Y-75367242D02*
X144065000Y-73081242D01*
X144065000Y-75258385D02*
X144265000Y-75367242D01*
X144665000Y-75367242D01*
X144865000Y-75258385D01*
X144965000Y-75149528D01*
X145065000Y-74931814D01*
X145065000Y-74278671D01*
X144965000Y-74060957D01*
X144865000Y-73952100D01*
X144665000Y-73843242D01*
X144265000Y-73843242D01*
X144065000Y-73952100D01*
D11*
X120650000Y-132080000D02*
X120650000Y-135255000D01*
X118745000Y-121285000D02*
X120650000Y-124460000D01*
X118110000Y-115570000D02*
X118110000Y-119380000D01*
X118110000Y-108585000D02*
X118110000Y-112395000D01*
X118110000Y-100965000D02*
X118110000Y-105410000D01*
X118110000Y-76200000D02*
X118110000Y-81280000D01*
X118110000Y-67945000D02*
X118110000Y-72390000D01*
X92059880Y-128277559D02*
X92059880Y-125102559D01*
X91303928Y-125102559D01*
X90850357Y-125253750D01*
X90547976Y-125556130D01*
X90396785Y-125858511D01*
X90245595Y-126463273D01*
X90245595Y-126916845D01*
X90396785Y-127521607D01*
X90547976Y-127823988D01*
X90850357Y-128126369D01*
X91303928Y-128277559D01*
X92059880Y-128277559D01*
X87524166Y-128277559D02*
X87524166Y-126614464D01*
X87675357Y-126312083D01*
X87977738Y-126160892D01*
X88582500Y-126160892D01*
X88884880Y-126312083D01*
X87524166Y-128126369D02*
X87826547Y-128277559D01*
X88582500Y-128277559D01*
X88884880Y-128126369D01*
X89036071Y-127823988D01*
X89036071Y-127521607D01*
X88884880Y-127219226D01*
X88582500Y-127068035D01*
X87826547Y-127068035D01*
X87524166Y-126916845D01*
X86012261Y-126160892D02*
X86012261Y-128277559D01*
X86012261Y-126463273D02*
X85861071Y-126312083D01*
X85558690Y-126160892D01*
X85105119Y-126160892D01*
X84802738Y-126312083D01*
X84651547Y-126614464D01*
X84651547Y-128277559D01*
X81778928Y-126160892D02*
X81778928Y-128731130D01*
X81930119Y-129033511D01*
X82081309Y-129184702D01*
X82383690Y-129335892D01*
X82837261Y-129335892D01*
X83139642Y-129184702D01*
X81778928Y-128126369D02*
X82081309Y-128277559D01*
X82686071Y-128277559D01*
X82988452Y-128126369D01*
X83139642Y-127975178D01*
X83290833Y-127672797D01*
X83290833Y-126765654D01*
X83139642Y-126463273D01*
X82988452Y-126312083D01*
X82686071Y-126160892D01*
X82081309Y-126160892D01*
X81778928Y-126312083D01*
X79057500Y-128126369D02*
X79359880Y-128277559D01*
X79964642Y-128277559D01*
X80267023Y-128126369D01*
X80418214Y-127823988D01*
X80418214Y-126614464D01*
X80267023Y-126312083D01*
X79964642Y-126160892D01*
X79359880Y-126160892D01*
X79057500Y-126312083D01*
X78906309Y-126614464D01*
X78906309Y-126916845D01*
X80418214Y-127219226D01*
X77545595Y-128277559D02*
X77545595Y-126160892D01*
X77545595Y-126765654D02*
X77394404Y-126463273D01*
X77243214Y-126312083D01*
X76940833Y-126160892D01*
X76638452Y-126160892D01*
X75580119Y-127975178D02*
X75428928Y-128126369D01*
X75580119Y-128277559D01*
X75731309Y-128126369D01*
X75580119Y-127975178D01*
X75580119Y-128277559D01*
X75580119Y-127068035D02*
X75731309Y-125253750D01*
X75580119Y-125102559D01*
X75428928Y-125253750D01*
X75580119Y-127068035D01*
X75580119Y-125102559D01*
X98334285Y-133675059D02*
X98334285Y-130500059D01*
X98334285Y-132011964D02*
X96520000Y-132011964D01*
X96520000Y-133675059D02*
X96520000Y-130500059D01*
X95008095Y-133675059D02*
X95008095Y-131558392D01*
X95008095Y-130500059D02*
X95159285Y-130651250D01*
X95008095Y-130802440D01*
X94856904Y-130651250D01*
X95008095Y-130500059D01*
X95008095Y-130802440D01*
X92135476Y-131558392D02*
X92135476Y-134128630D01*
X92286666Y-134431011D01*
X92437857Y-134582202D01*
X92740238Y-134733392D01*
X93193809Y-134733392D01*
X93496190Y-134582202D01*
X92135476Y-133523869D02*
X92437857Y-133675059D01*
X93042619Y-133675059D01*
X93345000Y-133523869D01*
X93496190Y-133372678D01*
X93647380Y-133070297D01*
X93647380Y-132163154D01*
X93496190Y-131860773D01*
X93345000Y-131709583D01*
X93042619Y-131558392D01*
X92437857Y-131558392D01*
X92135476Y-131709583D01*
X90623571Y-133675059D02*
X90623571Y-130500059D01*
X89262857Y-133675059D02*
X89262857Y-132011964D01*
X89414047Y-131709583D01*
X89716428Y-131558392D01*
X90170000Y-131558392D01*
X90472380Y-131709583D01*
X90623571Y-131860773D01*
X85785476Y-130500059D02*
X84727142Y-133675059D01*
X83668809Y-130500059D01*
X82156904Y-133675059D02*
X82459285Y-133523869D01*
X82610476Y-133372678D01*
X82761666Y-133070297D01*
X82761666Y-132163154D01*
X82610476Y-131860773D01*
X82459285Y-131709583D01*
X82156904Y-131558392D01*
X81703333Y-131558392D01*
X81400952Y-131709583D01*
X81249761Y-131860773D01*
X81098571Y-132163154D01*
X81098571Y-133070297D01*
X81249761Y-133372678D01*
X81400952Y-133523869D01*
X81703333Y-133675059D01*
X82156904Y-133675059D01*
X79284285Y-133675059D02*
X79586666Y-133523869D01*
X79737857Y-133221488D01*
X79737857Y-130500059D01*
X78528333Y-131558392D02*
X77318809Y-131558392D01*
X78074761Y-130500059D02*
X78074761Y-133221488D01*
X77923571Y-133523869D01*
X77621190Y-133675059D01*
X77318809Y-133675059D01*
X74899761Y-133675059D02*
X74899761Y-132011964D01*
X75050952Y-131709583D01*
X75353333Y-131558392D01*
X75958095Y-131558392D01*
X76260476Y-131709583D01*
X74899761Y-133523869D02*
X75202142Y-133675059D01*
X75958095Y-133675059D01*
X76260476Y-133523869D01*
X76411666Y-133221488D01*
X76411666Y-132919107D01*
X76260476Y-132616726D01*
X75958095Y-132465535D01*
X75202142Y-132465535D01*
X74899761Y-132314345D01*
X72027142Y-131558392D02*
X72027142Y-134128630D01*
X72178333Y-134431011D01*
X72329523Y-134582202D01*
X72631904Y-134733392D01*
X73085476Y-134733392D01*
X73387857Y-134582202D01*
X72027142Y-133523869D02*
X72329523Y-133675059D01*
X72934285Y-133675059D01*
X73236666Y-133523869D01*
X73387857Y-133372678D01*
X73539047Y-133070297D01*
X73539047Y-132163154D01*
X73387857Y-131860773D01*
X73236666Y-131709583D01*
X72934285Y-131558392D01*
X72329523Y-131558392D01*
X72027142Y-131709583D01*
X69305714Y-133523869D02*
X69608095Y-133675059D01*
X70212857Y-133675059D01*
X70515238Y-133523869D01*
X70666428Y-133221488D01*
X70666428Y-132011964D01*
X70515238Y-131709583D01*
X70212857Y-131558392D01*
X69608095Y-131558392D01*
X69305714Y-131709583D01*
X69154523Y-132011964D01*
X69154523Y-132314345D01*
X70666428Y-132616726D01*
D14*
G04 #@! TO.C,U1*
X94955000Y-119380000D02*
X140955000Y-119380000D01*
X140955000Y-75602000D02*
X140955000Y-75475000D01*
X94955000Y-75475000D02*
X94955000Y-75602000D01*
X96835587Y-79158000D02*
X96986940Y-79285000D01*
X101405000Y-83924808D02*
X101405000Y-104035192D01*
X140955000Y-112358000D02*
X140955000Y-110380000D01*
X100690575Y-82392719D02*
G75*
G02X101405000Y-83924808I-1285575J-1532089D01*
G01*
X140955000Y-112485000D02*
X140955000Y-112358000D01*
X94955000Y-68580000D02*
X94955000Y-75475000D01*
X94955000Y-110380000D02*
X94955000Y-112358000D01*
X135219425Y-105567281D02*
G75*
G02X134505000Y-104035192I1285575J1532089D01*
G01*
X138923060Y-108675000D02*
X135219425Y-105567281D01*
X102967186Y-79285000D02*
G75*
G02X100002814Y-79285000I-1482186J-725000D01*
G01*
X126861554Y-79285000D02*
G75*
G02X124466246Y-79285000I-1197654J-725000D01*
G01*
X94955000Y-75602000D02*
X94955000Y-77580000D01*
X135219425Y-82392719D02*
X138923060Y-79285000D01*
X100071991Y-79158000D02*
G75*
G02X102898010Y-79158000I1413009J-852000D01*
G01*
X140955000Y-68580000D02*
X94955000Y-68580000D01*
X111356999Y-108802000D02*
G75*
G02X109135201Y-108802000I-1110899J852000D01*
G01*
X133011991Y-79158000D02*
G75*
G02X135838010Y-79158000I1413009J-852000D01*
G01*
X96986940Y-79285000D02*
X100690575Y-82392719D01*
X94955000Y-77580000D02*
X96835587Y-79158000D01*
X138923060Y-79285000D02*
X139074413Y-79158000D01*
X135838009Y-108802000D02*
G75*
G02X133011990Y-108802000I-1413009J852000D01*
G01*
X100002814Y-108675000D02*
G75*
G02X102967186Y-108675000I1482186J725000D01*
G01*
X139074413Y-79158000D02*
X140955000Y-77580000D01*
X132942814Y-108675000D02*
G75*
G02X135907186Y-108675000I1482186J725000D01*
G01*
X101405000Y-104035192D02*
G75*
G02X100690575Y-105567281I-2000000J0D01*
G01*
X138980000Y-110580000D02*
G75*
G03X138980000Y-110580000I-1025000J0D01*
G01*
X140955000Y-110380000D02*
X139074413Y-108802000D01*
X135907186Y-79285000D02*
G75*
G02X132942814Y-79285000I-1482186J-725000D01*
G01*
X96986940Y-108675000D02*
X96835587Y-108802000D01*
X94955000Y-112358000D02*
X94955000Y-112485000D01*
X140955000Y-119380000D02*
X140955000Y-112485000D01*
X139074413Y-108802000D02*
X138923060Y-108675000D01*
X134505000Y-104035192D02*
X134505000Y-83924808D01*
X134505000Y-83924808D02*
G75*
G02X135219425Y-82392719I2000000J0D01*
G01*
X140955000Y-77580000D02*
X140955000Y-75602000D01*
X140955000Y-75475000D02*
X140955000Y-68580000D01*
X98980000Y-77380000D02*
G75*
G03X98980000Y-77380000I-1025000J0D01*
G01*
X94955000Y-112485000D02*
X94955000Y-119380000D01*
X124553001Y-79158000D02*
G75*
G02X126774799Y-79158000I1110899J-852000D01*
G01*
X102898009Y-108802000D02*
G75*
G02X100071990Y-108802000I-1413009J852000D01*
G01*
X98980000Y-110580000D02*
G75*
G03X98980000Y-110580000I-1025000J0D01*
G01*
X138980000Y-77380000D02*
G75*
G03X138980000Y-77380000I-1025000J0D01*
G01*
X109048446Y-108675000D02*
G75*
G02X111443754Y-108675000I1197654J725000D01*
G01*
X100690575Y-105567281D02*
X96986940Y-108675000D01*
X96835587Y-108802000D02*
X94955000Y-110380000D01*
D15*
G04 #@! TO.C,R8*
X125855000Y-98257779D02*
X125855000Y-97932221D01*
X126875000Y-98257779D02*
X126875000Y-97932221D01*
G04 #@! TO.C,R10*
X125855000Y-90967779D02*
X125855000Y-90642221D01*
X126875000Y-90967779D02*
X126875000Y-90642221D01*
G04 #@! TO.C,U2*
X114875000Y-86300000D02*
X117110000Y-86300000D01*
X114875000Y-91500000D02*
X114875000Y-86300000D01*
X121345000Y-91500000D02*
X114875000Y-91500000D01*
X121345000Y-86300000D02*
X121345000Y-91500000D01*
X119110000Y-86300000D02*
X121345000Y-86300000D01*
X117110000Y-86300000D02*
G75*
G03X119110000Y-86300000I1000000J0D01*
G01*
G04 #@! TO.C,U4*
X114875000Y-93285000D02*
X117110000Y-93285000D01*
X114875000Y-98485000D02*
X114875000Y-93285000D01*
X121345000Y-98485000D02*
X114875000Y-98485000D01*
X121345000Y-93285000D02*
X121345000Y-98485000D01*
X119110000Y-93285000D02*
X121345000Y-93285000D01*
X117110000Y-93285000D02*
G75*
G03X119110000Y-93285000I1000000J0D01*
G01*
D16*
G04 #@! TO.C,G\002A\002A\002A*
G36*
X75461069Y-89762780D02*
X75131152Y-89763366D01*
X74779938Y-89764382D01*
X74622647Y-89764959D01*
X72527167Y-89773125D01*
X72667865Y-90138250D01*
X72729222Y-90299504D01*
X72788176Y-90457992D01*
X72837472Y-90594008D01*
X72866613Y-90678000D01*
X72901210Y-90779507D01*
X72950463Y-90920716D01*
X73007358Y-91081640D01*
X73056039Y-91217750D01*
X73111760Y-91373274D01*
X73163741Y-91519546D01*
X73205830Y-91639181D01*
X73230223Y-91709875D01*
X73254792Y-91781320D01*
X73296142Y-91899988D01*
X73349848Y-92053246D01*
X73411485Y-92228462D01*
X73463769Y-92376625D01*
X73543717Y-92603281D01*
X73635240Y-92863430D01*
X73729036Y-93130593D01*
X73815804Y-93378291D01*
X73848559Y-93472000D01*
X73925905Y-93693331D01*
X74010816Y-93936089D01*
X74095196Y-94177142D01*
X74170950Y-94393359D01*
X74204141Y-94488000D01*
X74276636Y-94695640D01*
X74329345Y-94850579D01*
X74363894Y-94959897D01*
X74381905Y-95030673D01*
X74385003Y-95069989D01*
X74374812Y-95084925D01*
X74352957Y-95082561D01*
X74339383Y-95077594D01*
X74283466Y-95059417D01*
X74182904Y-95030403D01*
X74054599Y-94995343D01*
X73977500Y-94975004D01*
X73825955Y-94935539D01*
X73637176Y-94886371D01*
X73435377Y-94833806D01*
X73247250Y-94784797D01*
X73065034Y-94737626D01*
X72880321Y-94690325D01*
X72713968Y-94648204D01*
X72586832Y-94616575D01*
X72580500Y-94615028D01*
X72439612Y-94579952D01*
X72266745Y-94535903D01*
X72091248Y-94490386D01*
X72024875Y-94472918D01*
X71849824Y-94426797D01*
X71645990Y-94373390D01*
X71446082Y-94321258D01*
X71358125Y-94298424D01*
X71185561Y-94253205D01*
X70978604Y-94198197D01*
X70764056Y-94140563D01*
X70580250Y-94090618D01*
X70292288Y-94012434D01*
X70061722Y-93951301D01*
X69885028Y-93906359D01*
X69758683Y-93876750D01*
X69679160Y-93861612D01*
X69642937Y-93860087D01*
X69640527Y-93861389D01*
X69649945Y-93892540D01*
X69683156Y-93974675D01*
X69737255Y-94101167D01*
X69809336Y-94265386D01*
X69896493Y-94460704D01*
X69995819Y-94680493D01*
X70090726Y-94888318D01*
X70218467Y-95166804D01*
X70354736Y-95464003D01*
X70492952Y-95765549D01*
X70626532Y-96057080D01*
X70748892Y-96324230D01*
X70853451Y-96552635D01*
X70882100Y-96615250D01*
X70981595Y-96832500D01*
X71080717Y-97048506D01*
X71173708Y-97250751D01*
X71254811Y-97426719D01*
X71318267Y-97563894D01*
X71342209Y-97615375D01*
X71451035Y-97848690D01*
X71536680Y-98032417D01*
X71602829Y-98174503D01*
X71653169Y-98282895D01*
X71691387Y-98365540D01*
X71721170Y-98430386D01*
X71746203Y-98485379D01*
X71761965Y-98520250D01*
X71803168Y-98610993D01*
X71853128Y-98719755D01*
X71916118Y-98855755D01*
X71996411Y-99028211D01*
X72098281Y-99246340D01*
X72131021Y-99316361D01*
X72168888Y-99397880D01*
X72230197Y-99530552D01*
X72311924Y-99707807D01*
X72411047Y-99923074D01*
X72524541Y-100169784D01*
X72649383Y-100441367D01*
X72782552Y-100731253D01*
X72921022Y-101032872D01*
X72971094Y-101141986D01*
X73109470Y-101443506D01*
X73242594Y-101733471D01*
X73367599Y-102005639D01*
X73481615Y-102253772D01*
X73581774Y-102471628D01*
X73665208Y-102652966D01*
X73729047Y-102791548D01*
X73770425Y-102881131D01*
X73779998Y-102901750D01*
X73889424Y-103136766D01*
X73974707Y-103320322D01*
X74038620Y-103458470D01*
X74083933Y-103557265D01*
X74113419Y-103622759D01*
X74129849Y-103661006D01*
X74135995Y-103678060D01*
X74136250Y-103679816D01*
X74149272Y-103711129D01*
X74185272Y-103789794D01*
X74239651Y-103905963D01*
X74307814Y-104049786D01*
X74358500Y-104155875D01*
X74433334Y-104312965D01*
X74497422Y-104449299D01*
X74546157Y-104554930D01*
X74574932Y-104619909D01*
X74580750Y-104635702D01*
X74593448Y-104669534D01*
X74627578Y-104747324D01*
X74677196Y-104855737D01*
X74710878Y-104927704D01*
X74779244Y-105073459D01*
X74847948Y-105221249D01*
X74905212Y-105345699D01*
X74920012Y-105378250D01*
X74967483Y-105481800D01*
X75007963Y-105567727D01*
X75027276Y-105606831D01*
X75045583Y-105645270D01*
X75087811Y-105735909D01*
X75151414Y-105873227D01*
X75233844Y-106051703D01*
X75332557Y-106265816D01*
X75445005Y-106510045D01*
X75568641Y-106778869D01*
X75700921Y-107066768D01*
X75766780Y-107210206D01*
X75906217Y-107513932D01*
X76041341Y-107808205D01*
X76169136Y-108086457D01*
X76286582Y-108342120D01*
X76390662Y-108568626D01*
X76478359Y-108759407D01*
X76546654Y-108907895D01*
X76592530Y-109007520D01*
X76602671Y-109029500D01*
X76662044Y-109158244D01*
X76714977Y-109273366D01*
X76753174Y-109356812D01*
X76763134Y-109378750D01*
X76789139Y-109425574D01*
X76801102Y-109426363D01*
X76799349Y-109401139D01*
X76791180Y-109351598D01*
X76775289Y-109271667D01*
X76750370Y-109155275D01*
X76715118Y-108996350D01*
X76668228Y-108788821D01*
X76608394Y-108526614D01*
X76596316Y-108473875D01*
X76549521Y-108269085D01*
X76500648Y-108054300D01*
X76454566Y-107850969D01*
X76416143Y-107680542D01*
X76405375Y-107632500D01*
X76367798Y-107466233D01*
X76321597Y-107264421D01*
X76272807Y-107053302D01*
X76230137Y-106870500D01*
X76186657Y-106683469D01*
X76142408Y-106489855D01*
X76102529Y-106312335D01*
X76072161Y-106173586D01*
X76071822Y-106172000D01*
X76034803Y-106003920D01*
X75992209Y-105818307D01*
X75953003Y-105654183D01*
X75951510Y-105648125D01*
X75917504Y-105507191D01*
X75876012Y-105330632D01*
X75833195Y-105144838D01*
X75806984Y-105029000D01*
X75707634Y-104586926D01*
X75615873Y-104181149D01*
X75525860Y-103785899D01*
X75454231Y-103473250D01*
X75409397Y-103278003D01*
X75363772Y-103079317D01*
X75321846Y-102896738D01*
X75288107Y-102749816D01*
X75279250Y-102711250D01*
X75249401Y-102580969D01*
X75209944Y-102408331D01*
X75165346Y-102212897D01*
X75120073Y-102014230D01*
X75105281Y-101949250D01*
X75059013Y-101746179D01*
X75010168Y-101532203D01*
X74963838Y-101329596D01*
X74925111Y-101160634D01*
X74916637Y-101123750D01*
X74879137Y-100960075D01*
X74833411Y-100759635D01*
X74785193Y-100547611D01*
X74740220Y-100349183D01*
X74739472Y-100345875D01*
X74695014Y-100150128D01*
X74647527Y-99942467D01*
X74602593Y-99747216D01*
X74565791Y-99588700D01*
X74564662Y-99583875D01*
X74528283Y-99427165D01*
X74483601Y-99232819D01*
X74436187Y-99025169D01*
X74391616Y-98828542D01*
X74390112Y-98821875D01*
X74349082Y-98641582D01*
X74308108Y-98464343D01*
X74271518Y-98308712D01*
X74243644Y-98193244D01*
X74239968Y-98178481D01*
X74216818Y-98073798D01*
X74205306Y-97995539D01*
X74207445Y-97962221D01*
X74221273Y-97959295D01*
X74254907Y-97963265D01*
X74314197Y-97975626D01*
X74404995Y-97997875D01*
X74533151Y-98031508D01*
X74704517Y-98078019D01*
X74924942Y-98138905D01*
X75200279Y-98215661D01*
X75215750Y-98219986D01*
X75364881Y-98261364D01*
X75547519Y-98311569D01*
X75735844Y-98362970D01*
X75842813Y-98391973D01*
X76175164Y-98482114D01*
X76546387Y-98583368D01*
X76934224Y-98689656D01*
X77184250Y-98758442D01*
X77341884Y-98801539D01*
X77528551Y-98852071D01*
X77711881Y-98901287D01*
X77771625Y-98917209D01*
X77953062Y-98966129D01*
X78159348Y-99022799D01*
X78354352Y-99077267D01*
X78411262Y-99093402D01*
X78560549Y-99134442D01*
X78700956Y-99170419D01*
X78812585Y-99196358D01*
X78858245Y-99205157D01*
X78983092Y-99225121D01*
X78834844Y-98626623D01*
X78707690Y-98111519D01*
X78567635Y-97540855D01*
X78416215Y-96920907D01*
X78254963Y-96257951D01*
X78168360Y-95900875D01*
X78109770Y-95659202D01*
X78050269Y-95413999D01*
X77993326Y-95179544D01*
X77942409Y-94970116D01*
X77900988Y-94799993D01*
X77882966Y-94726125D01*
X77846849Y-94578173D01*
X77799584Y-94384425D01*
X77745047Y-94160782D01*
X77687118Y-93923146D01*
X77629672Y-93687415D01*
X77615866Y-93630750D01*
X77554167Y-93377768D01*
X77486320Y-93100042D01*
X77417550Y-92818925D01*
X77353079Y-92555771D01*
X77298133Y-92331935D01*
X77295813Y-92322497D01*
X77244866Y-92112179D01*
X77194716Y-91899590D01*
X77149218Y-91701476D01*
X77112228Y-91534584D01*
X77091094Y-91433497D01*
X77057691Y-91268292D01*
X77013785Y-91055246D01*
X76962355Y-90808572D01*
X76906378Y-90542483D01*
X76848832Y-90271191D01*
X76792695Y-90008909D01*
X76790809Y-90000145D01*
X76765870Y-89890533D01*
X76744611Y-89808203D01*
X76731444Y-89770176D01*
X76731064Y-89769729D01*
X76697931Y-89767636D01*
X76606574Y-89765890D01*
X76462268Y-89764502D01*
X76270290Y-89763485D01*
X76035913Y-89762852D01*
X75764415Y-89762612D01*
X75461069Y-89762780D01*
X75461069Y-89762780D01*
G37*
X75461069Y-89762780D02*
X75131152Y-89763366D01*
X74779938Y-89764382D01*
X74622647Y-89764959D01*
X72527167Y-89773125D01*
X72667865Y-90138250D01*
X72729222Y-90299504D01*
X72788176Y-90457992D01*
X72837472Y-90594008D01*
X72866613Y-90678000D01*
X72901210Y-90779507D01*
X72950463Y-90920716D01*
X73007358Y-91081640D01*
X73056039Y-91217750D01*
X73111760Y-91373274D01*
X73163741Y-91519546D01*
X73205830Y-91639181D01*
X73230223Y-91709875D01*
X73254792Y-91781320D01*
X73296142Y-91899988D01*
X73349848Y-92053246D01*
X73411485Y-92228462D01*
X73463769Y-92376625D01*
X73543717Y-92603281D01*
X73635240Y-92863430D01*
X73729036Y-93130593D01*
X73815804Y-93378291D01*
X73848559Y-93472000D01*
X73925905Y-93693331D01*
X74010816Y-93936089D01*
X74095196Y-94177142D01*
X74170950Y-94393359D01*
X74204141Y-94488000D01*
X74276636Y-94695640D01*
X74329345Y-94850579D01*
X74363894Y-94959897D01*
X74381905Y-95030673D01*
X74385003Y-95069989D01*
X74374812Y-95084925D01*
X74352957Y-95082561D01*
X74339383Y-95077594D01*
X74283466Y-95059417D01*
X74182904Y-95030403D01*
X74054599Y-94995343D01*
X73977500Y-94975004D01*
X73825955Y-94935539D01*
X73637176Y-94886371D01*
X73435377Y-94833806D01*
X73247250Y-94784797D01*
X73065034Y-94737626D01*
X72880321Y-94690325D01*
X72713968Y-94648204D01*
X72586832Y-94616575D01*
X72580500Y-94615028D01*
X72439612Y-94579952D01*
X72266745Y-94535903D01*
X72091248Y-94490386D01*
X72024875Y-94472918D01*
X71849824Y-94426797D01*
X71645990Y-94373390D01*
X71446082Y-94321258D01*
X71358125Y-94298424D01*
X71185561Y-94253205D01*
X70978604Y-94198197D01*
X70764056Y-94140563D01*
X70580250Y-94090618D01*
X70292288Y-94012434D01*
X70061722Y-93951301D01*
X69885028Y-93906359D01*
X69758683Y-93876750D01*
X69679160Y-93861612D01*
X69642937Y-93860087D01*
X69640527Y-93861389D01*
X69649945Y-93892540D01*
X69683156Y-93974675D01*
X69737255Y-94101167D01*
X69809336Y-94265386D01*
X69896493Y-94460704D01*
X69995819Y-94680493D01*
X70090726Y-94888318D01*
X70218467Y-95166804D01*
X70354736Y-95464003D01*
X70492952Y-95765549D01*
X70626532Y-96057080D01*
X70748892Y-96324230D01*
X70853451Y-96552635D01*
X70882100Y-96615250D01*
X70981595Y-96832500D01*
X71080717Y-97048506D01*
X71173708Y-97250751D01*
X71254811Y-97426719D01*
X71318267Y-97563894D01*
X71342209Y-97615375D01*
X71451035Y-97848690D01*
X71536680Y-98032417D01*
X71602829Y-98174503D01*
X71653169Y-98282895D01*
X71691387Y-98365540D01*
X71721170Y-98430386D01*
X71746203Y-98485379D01*
X71761965Y-98520250D01*
X71803168Y-98610993D01*
X71853128Y-98719755D01*
X71916118Y-98855755D01*
X71996411Y-99028211D01*
X72098281Y-99246340D01*
X72131021Y-99316361D01*
X72168888Y-99397880D01*
X72230197Y-99530552D01*
X72311924Y-99707807D01*
X72411047Y-99923074D01*
X72524541Y-100169784D01*
X72649383Y-100441367D01*
X72782552Y-100731253D01*
X72921022Y-101032872D01*
X72971094Y-101141986D01*
X73109470Y-101443506D01*
X73242594Y-101733471D01*
X73367599Y-102005639D01*
X73481615Y-102253772D01*
X73581774Y-102471628D01*
X73665208Y-102652966D01*
X73729047Y-102791548D01*
X73770425Y-102881131D01*
X73779998Y-102901750D01*
X73889424Y-103136766D01*
X73974707Y-103320322D01*
X74038620Y-103458470D01*
X74083933Y-103557265D01*
X74113419Y-103622759D01*
X74129849Y-103661006D01*
X74135995Y-103678060D01*
X74136250Y-103679816D01*
X74149272Y-103711129D01*
X74185272Y-103789794D01*
X74239651Y-103905963D01*
X74307814Y-104049786D01*
X74358500Y-104155875D01*
X74433334Y-104312965D01*
X74497422Y-104449299D01*
X74546157Y-104554930D01*
X74574932Y-104619909D01*
X74580750Y-104635702D01*
X74593448Y-104669534D01*
X74627578Y-104747324D01*
X74677196Y-104855737D01*
X74710878Y-104927704D01*
X74779244Y-105073459D01*
X74847948Y-105221249D01*
X74905212Y-105345699D01*
X74920012Y-105378250D01*
X74967483Y-105481800D01*
X75007963Y-105567727D01*
X75027276Y-105606831D01*
X75045583Y-105645270D01*
X75087811Y-105735909D01*
X75151414Y-105873227D01*
X75233844Y-106051703D01*
X75332557Y-106265816D01*
X75445005Y-106510045D01*
X75568641Y-106778869D01*
X75700921Y-107066768D01*
X75766780Y-107210206D01*
X75906217Y-107513932D01*
X76041341Y-107808205D01*
X76169136Y-108086457D01*
X76286582Y-108342120D01*
X76390662Y-108568626D01*
X76478359Y-108759407D01*
X76546654Y-108907895D01*
X76592530Y-109007520D01*
X76602671Y-109029500D01*
X76662044Y-109158244D01*
X76714977Y-109273366D01*
X76753174Y-109356812D01*
X76763134Y-109378750D01*
X76789139Y-109425574D01*
X76801102Y-109426363D01*
X76799349Y-109401139D01*
X76791180Y-109351598D01*
X76775289Y-109271667D01*
X76750370Y-109155275D01*
X76715118Y-108996350D01*
X76668228Y-108788821D01*
X76608394Y-108526614D01*
X76596316Y-108473875D01*
X76549521Y-108269085D01*
X76500648Y-108054300D01*
X76454566Y-107850969D01*
X76416143Y-107680542D01*
X76405375Y-107632500D01*
X76367798Y-107466233D01*
X76321597Y-107264421D01*
X76272807Y-107053302D01*
X76230137Y-106870500D01*
X76186657Y-106683469D01*
X76142408Y-106489855D01*
X76102529Y-106312335D01*
X76072161Y-106173586D01*
X76071822Y-106172000D01*
X76034803Y-106003920D01*
X75992209Y-105818307D01*
X75953003Y-105654183D01*
X75951510Y-105648125D01*
X75917504Y-105507191D01*
X75876012Y-105330632D01*
X75833195Y-105144838D01*
X75806984Y-105029000D01*
X75707634Y-104586926D01*
X75615873Y-104181149D01*
X75525860Y-103785899D01*
X75454231Y-103473250D01*
X75409397Y-103278003D01*
X75363772Y-103079317D01*
X75321846Y-102896738D01*
X75288107Y-102749816D01*
X75279250Y-102711250D01*
X75249401Y-102580969D01*
X75209944Y-102408331D01*
X75165346Y-102212897D01*
X75120073Y-102014230D01*
X75105281Y-101949250D01*
X75059013Y-101746179D01*
X75010168Y-101532203D01*
X74963838Y-101329596D01*
X74925111Y-101160634D01*
X74916637Y-101123750D01*
X74879137Y-100960075D01*
X74833411Y-100759635D01*
X74785193Y-100547611D01*
X74740220Y-100349183D01*
X74739472Y-100345875D01*
X74695014Y-100150128D01*
X74647527Y-99942467D01*
X74602593Y-99747216D01*
X74565791Y-99588700D01*
X74564662Y-99583875D01*
X74528283Y-99427165D01*
X74483601Y-99232819D01*
X74436187Y-99025169D01*
X74391616Y-98828542D01*
X74390112Y-98821875D01*
X74349082Y-98641582D01*
X74308108Y-98464343D01*
X74271518Y-98308712D01*
X74243644Y-98193244D01*
X74239968Y-98178481D01*
X74216818Y-98073798D01*
X74205306Y-97995539D01*
X74207445Y-97962221D01*
X74221273Y-97959295D01*
X74254907Y-97963265D01*
X74314197Y-97975626D01*
X74404995Y-97997875D01*
X74533151Y-98031508D01*
X74704517Y-98078019D01*
X74924942Y-98138905D01*
X75200279Y-98215661D01*
X75215750Y-98219986D01*
X75364881Y-98261364D01*
X75547519Y-98311569D01*
X75735844Y-98362970D01*
X75842813Y-98391973D01*
X76175164Y-98482114D01*
X76546387Y-98583368D01*
X76934224Y-98689656D01*
X77184250Y-98758442D01*
X77341884Y-98801539D01*
X77528551Y-98852071D01*
X77711881Y-98901287D01*
X77771625Y-98917209D01*
X77953062Y-98966129D01*
X78159348Y-99022799D01*
X78354352Y-99077267D01*
X78411262Y-99093402D01*
X78560549Y-99134442D01*
X78700956Y-99170419D01*
X78812585Y-99196358D01*
X78858245Y-99205157D01*
X78983092Y-99225121D01*
X78834844Y-98626623D01*
X78707690Y-98111519D01*
X78567635Y-97540855D01*
X78416215Y-96920907D01*
X78254963Y-96257951D01*
X78168360Y-95900875D01*
X78109770Y-95659202D01*
X78050269Y-95413999D01*
X77993326Y-95179544D01*
X77942409Y-94970116D01*
X77900988Y-94799993D01*
X77882966Y-94726125D01*
X77846849Y-94578173D01*
X77799584Y-94384425D01*
X77745047Y-94160782D01*
X77687118Y-93923146D01*
X77629672Y-93687415D01*
X77615866Y-93630750D01*
X77554167Y-93377768D01*
X77486320Y-93100042D01*
X77417550Y-92818925D01*
X77353079Y-92555771D01*
X77298133Y-92331935D01*
X77295813Y-92322497D01*
X77244866Y-92112179D01*
X77194716Y-91899590D01*
X77149218Y-91701476D01*
X77112228Y-91534584D01*
X77091094Y-91433497D01*
X77057691Y-91268292D01*
X77013785Y-91055246D01*
X76962355Y-90808572D01*
X76906378Y-90542483D01*
X76848832Y-90271191D01*
X76792695Y-90008909D01*
X76790809Y-90000145D01*
X76765870Y-89890533D01*
X76744611Y-89808203D01*
X76731444Y-89770176D01*
X76731064Y-89769729D01*
X76697931Y-89767636D01*
X76606574Y-89765890D01*
X76462268Y-89764502D01*
X76270290Y-89763485D01*
X76035913Y-89762852D01*
X75764415Y-89762612D01*
X75461069Y-89762780D01*
G04 #@! TO.C,R8*
D17*
X129071666Y-98547380D02*
X129405000Y-98071190D01*
X129643095Y-98547380D02*
X129643095Y-97547380D01*
X129262142Y-97547380D01*
X129166904Y-97595000D01*
X129119285Y-97642619D01*
X129071666Y-97737857D01*
X129071666Y-97880714D01*
X129119285Y-97975952D01*
X129166904Y-98023571D01*
X129262142Y-98071190D01*
X129643095Y-98071190D01*
X128500238Y-97975952D02*
X128595476Y-97928333D01*
X128643095Y-97880714D01*
X128690714Y-97785476D01*
X128690714Y-97737857D01*
X128643095Y-97642619D01*
X128595476Y-97595000D01*
X128500238Y-97547380D01*
X128309761Y-97547380D01*
X128214523Y-97595000D01*
X128166904Y-97642619D01*
X128119285Y-97737857D01*
X128119285Y-97785476D01*
X128166904Y-97880714D01*
X128214523Y-97928333D01*
X128309761Y-97975952D01*
X128500238Y-97975952D01*
X128595476Y-98023571D01*
X128643095Y-98071190D01*
X128690714Y-98166428D01*
X128690714Y-98356904D01*
X128643095Y-98452142D01*
X128595476Y-98499761D01*
X128500238Y-98547380D01*
X128309761Y-98547380D01*
X128214523Y-98499761D01*
X128166904Y-98452142D01*
X128119285Y-98356904D01*
X128119285Y-98166428D01*
X128166904Y-98071190D01*
X128214523Y-98023571D01*
X128309761Y-97975952D01*
G04 #@! TO.C,R10*
X129547857Y-91257380D02*
X129881190Y-90781190D01*
X130119285Y-91257380D02*
X130119285Y-90257380D01*
X129738333Y-90257380D01*
X129643095Y-90305000D01*
X129595476Y-90352619D01*
X129547857Y-90447857D01*
X129547857Y-90590714D01*
X129595476Y-90685952D01*
X129643095Y-90733571D01*
X129738333Y-90781190D01*
X130119285Y-90781190D01*
X128595476Y-91257380D02*
X129166904Y-91257380D01*
X128881190Y-91257380D02*
X128881190Y-90257380D01*
X128976428Y-90400238D01*
X129071666Y-90495476D01*
X129166904Y-90543095D01*
X127976428Y-90257380D02*
X127881190Y-90257380D01*
X127785952Y-90305000D01*
X127738333Y-90352619D01*
X127690714Y-90447857D01*
X127643095Y-90638333D01*
X127643095Y-90876428D01*
X127690714Y-91066904D01*
X127738333Y-91162142D01*
X127785952Y-91209761D01*
X127881190Y-91257380D01*
X127976428Y-91257380D01*
X128071666Y-91209761D01*
X128119285Y-91162142D01*
X128166904Y-91066904D01*
X128214523Y-90876428D01*
X128214523Y-90638333D01*
X128166904Y-90447857D01*
X128119285Y-90352619D01*
X128071666Y-90305000D01*
X127976428Y-90257380D01*
G04 #@! TO.C,U2*
X118871904Y-83907380D02*
X118871904Y-84716904D01*
X118824285Y-84812142D01*
X118776666Y-84859761D01*
X118681428Y-84907380D01*
X118490952Y-84907380D01*
X118395714Y-84859761D01*
X118348095Y-84812142D01*
X118300476Y-84716904D01*
X118300476Y-83907380D01*
X117871904Y-84002619D02*
X117824285Y-83955000D01*
X117729047Y-83907380D01*
X117490952Y-83907380D01*
X117395714Y-83955000D01*
X117348095Y-84002619D01*
X117300476Y-84097857D01*
X117300476Y-84193095D01*
X117348095Y-84335952D01*
X117919523Y-84907380D01*
X117300476Y-84907380D01*
G04 #@! TO.C,U4*
X118871904Y-99782380D02*
X118871904Y-100591904D01*
X118824285Y-100687142D01*
X118776666Y-100734761D01*
X118681428Y-100782380D01*
X118490952Y-100782380D01*
X118395714Y-100734761D01*
X118348095Y-100687142D01*
X118300476Y-100591904D01*
X118300476Y-99782380D01*
X117395714Y-100115714D02*
X117395714Y-100782380D01*
X117633809Y-99734761D02*
X117871904Y-100449047D01*
X117252857Y-100449047D01*
G04 #@! TD*
M02*
