G04 #@! TF.GenerationSoftware,KiCad,Pcbnew,(5.0.2)-1*
G04 #@! TF.CreationDate,2019-02-08T17:58:05-05:00*
G04 #@! TF.ProjectId,DC_DCBoard,44435f44-4342-46f6-9172-642e6b696361,rev?*
G04 #@! TF.SameCoordinates,Original*
G04 #@! TF.FileFunction,Soldermask,Top*
G04 #@! TF.FilePolarity,Negative*
%FSLAX46Y46*%
G04 Gerber Fmt 4.6, Leading zero omitted, Abs format (unit mm)*
G04 Created by KiCad (PCBNEW (5.0.2)-1) date 2/8/2019 5:58:05 PM*
%MOMM*%
%LPD*%
G01*
G04 APERTURE LIST*
%ADD10C,0.100000*%
G04 APERTURE END LIST*
D10*
G36*
X190145466Y-129230974D02*
X190514359Y-129304351D01*
X190919501Y-129472167D01*
X191284120Y-129715797D01*
X191594203Y-130025880D01*
X191837833Y-130390499D01*
X192005649Y-130795641D01*
X192091200Y-131225738D01*
X192091200Y-131664262D01*
X192005649Y-132094359D01*
X191837833Y-132499501D01*
X191594203Y-132864120D01*
X191284120Y-133174203D01*
X190919501Y-133417833D01*
X190514359Y-133585649D01*
X190145466Y-133659026D01*
X190084263Y-133671200D01*
X189645737Y-133671200D01*
X189584534Y-133659026D01*
X189215641Y-133585649D01*
X188810499Y-133417833D01*
X188445880Y-133174203D01*
X188135797Y-132864120D01*
X187892167Y-132499501D01*
X187724351Y-132094359D01*
X187638800Y-131664262D01*
X187638800Y-131225738D01*
X187724351Y-130795641D01*
X187892167Y-130390499D01*
X188135797Y-130025880D01*
X188445880Y-129715797D01*
X188810499Y-129472167D01*
X189215641Y-129304351D01*
X189584534Y-129230974D01*
X189645737Y-129218800D01*
X190084263Y-129218800D01*
X190145466Y-129230974D01*
X190145466Y-129230974D01*
G37*
G36*
X61875466Y-129230974D02*
X62244359Y-129304351D01*
X62649501Y-129472167D01*
X63014120Y-129715797D01*
X63324203Y-130025880D01*
X63567833Y-130390499D01*
X63735649Y-130795641D01*
X63821200Y-131225738D01*
X63821200Y-131664262D01*
X63735649Y-132094359D01*
X63567833Y-132499501D01*
X63324203Y-132864120D01*
X63014120Y-133174203D01*
X62649501Y-133417833D01*
X62244359Y-133585649D01*
X61875466Y-133659026D01*
X61814263Y-133671200D01*
X61375737Y-133671200D01*
X61314534Y-133659026D01*
X60945641Y-133585649D01*
X60540499Y-133417833D01*
X60175880Y-133174203D01*
X59865797Y-132864120D01*
X59622167Y-132499501D01*
X59454351Y-132094359D01*
X59368800Y-131664262D01*
X59368800Y-131225738D01*
X59454351Y-130795641D01*
X59622167Y-130390499D01*
X59865797Y-130025880D01*
X60175880Y-129715797D01*
X60540499Y-129472167D01*
X60945641Y-129304351D01*
X61314534Y-129230974D01*
X61375737Y-129218800D01*
X61814263Y-129218800D01*
X61875466Y-129230974D01*
X61875466Y-129230974D01*
G37*
G36*
X179886563Y-130532201D02*
X179886566Y-130532202D01*
X179886567Y-130532202D01*
X180061156Y-130585163D01*
X180061158Y-130585164D01*
X180061161Y-130585165D01*
X180222059Y-130671166D01*
X180363091Y-130786909D01*
X180478834Y-130927941D01*
X180564835Y-131088839D01*
X180617799Y-131263437D01*
X180635681Y-131445000D01*
X180617799Y-131626563D01*
X180564835Y-131801161D01*
X180478834Y-131962059D01*
X180363091Y-132103091D01*
X180222059Y-132218834D01*
X180061161Y-132304835D01*
X180061158Y-132304836D01*
X180061156Y-132304837D01*
X179886567Y-132357798D01*
X179886566Y-132357798D01*
X179886563Y-132357799D01*
X179750500Y-132371200D01*
X179659500Y-132371200D01*
X179523437Y-132357799D01*
X179523434Y-132357798D01*
X179523433Y-132357798D01*
X179348844Y-132304837D01*
X179348842Y-132304836D01*
X179348839Y-132304835D01*
X179187941Y-132218834D01*
X179046909Y-132103091D01*
X178931166Y-131962059D01*
X178845165Y-131801161D01*
X178792201Y-131626563D01*
X178774319Y-131445000D01*
X178792201Y-131263437D01*
X178845165Y-131088839D01*
X178931166Y-130927941D01*
X179046909Y-130786909D01*
X179187941Y-130671166D01*
X179348839Y-130585165D01*
X179348842Y-130585164D01*
X179348844Y-130585163D01*
X179523433Y-130532202D01*
X179523434Y-130532202D01*
X179523437Y-130532201D01*
X179659500Y-130518800D01*
X179750500Y-130518800D01*
X179886563Y-130532201D01*
X179886563Y-130532201D01*
G37*
G36*
X183171200Y-132371200D02*
X181318800Y-132371200D01*
X181318800Y-130518800D01*
X183171200Y-130518800D01*
X183171200Y-132371200D01*
X183171200Y-132371200D01*
G37*
G36*
X172266563Y-130532201D02*
X172266566Y-130532202D01*
X172266567Y-130532202D01*
X172441156Y-130585163D01*
X172441158Y-130585164D01*
X172441161Y-130585165D01*
X172602059Y-130671166D01*
X172743091Y-130786909D01*
X172858834Y-130927941D01*
X172944835Y-131088839D01*
X172997799Y-131263437D01*
X173015681Y-131445000D01*
X172997799Y-131626563D01*
X172944835Y-131801161D01*
X172858834Y-131962059D01*
X172743091Y-132103091D01*
X172602059Y-132218834D01*
X172441161Y-132304835D01*
X172441158Y-132304836D01*
X172441156Y-132304837D01*
X172266567Y-132357798D01*
X172266566Y-132357798D01*
X172266563Y-132357799D01*
X172130500Y-132371200D01*
X172039500Y-132371200D01*
X171903437Y-132357799D01*
X171903434Y-132357798D01*
X171903433Y-132357798D01*
X171728844Y-132304837D01*
X171728842Y-132304836D01*
X171728839Y-132304835D01*
X171567941Y-132218834D01*
X171426909Y-132103091D01*
X171311166Y-131962059D01*
X171225165Y-131801161D01*
X171172201Y-131626563D01*
X171154319Y-131445000D01*
X171172201Y-131263437D01*
X171225165Y-131088839D01*
X171311166Y-130927941D01*
X171426909Y-130786909D01*
X171567941Y-130671166D01*
X171728839Y-130585165D01*
X171728842Y-130585164D01*
X171728844Y-130585163D01*
X171903433Y-130532202D01*
X171903434Y-130532202D01*
X171903437Y-130532201D01*
X172039500Y-130518800D01*
X172130500Y-130518800D01*
X172266563Y-130532201D01*
X172266563Y-130532201D01*
G37*
G36*
X174806563Y-130532201D02*
X174806566Y-130532202D01*
X174806567Y-130532202D01*
X174981156Y-130585163D01*
X174981158Y-130585164D01*
X174981161Y-130585165D01*
X175142059Y-130671166D01*
X175283091Y-130786909D01*
X175398834Y-130927941D01*
X175484835Y-131088839D01*
X175537799Y-131263437D01*
X175555681Y-131445000D01*
X175537799Y-131626563D01*
X175484835Y-131801161D01*
X175398834Y-131962059D01*
X175283091Y-132103091D01*
X175142059Y-132218834D01*
X174981161Y-132304835D01*
X174981158Y-132304836D01*
X174981156Y-132304837D01*
X174806567Y-132357798D01*
X174806566Y-132357798D01*
X174806563Y-132357799D01*
X174670500Y-132371200D01*
X174579500Y-132371200D01*
X174443437Y-132357799D01*
X174443434Y-132357798D01*
X174443433Y-132357798D01*
X174268844Y-132304837D01*
X174268842Y-132304836D01*
X174268839Y-132304835D01*
X174107941Y-132218834D01*
X173966909Y-132103091D01*
X173851166Y-131962059D01*
X173765165Y-131801161D01*
X173712201Y-131626563D01*
X173694319Y-131445000D01*
X173712201Y-131263437D01*
X173765165Y-131088839D01*
X173851166Y-130927941D01*
X173966909Y-130786909D01*
X174107941Y-130671166D01*
X174268839Y-130585165D01*
X174268842Y-130585164D01*
X174268844Y-130585163D01*
X174443433Y-130532202D01*
X174443434Y-130532202D01*
X174443437Y-130532201D01*
X174579500Y-130518800D01*
X174670500Y-130518800D01*
X174806563Y-130532201D01*
X174806563Y-130532201D01*
G37*
G36*
X177346563Y-130532201D02*
X177346566Y-130532202D01*
X177346567Y-130532202D01*
X177521156Y-130585163D01*
X177521158Y-130585164D01*
X177521161Y-130585165D01*
X177682059Y-130671166D01*
X177823091Y-130786909D01*
X177938834Y-130927941D01*
X178024835Y-131088839D01*
X178077799Y-131263437D01*
X178095681Y-131445000D01*
X178077799Y-131626563D01*
X178024835Y-131801161D01*
X177938834Y-131962059D01*
X177823091Y-132103091D01*
X177682059Y-132218834D01*
X177521161Y-132304835D01*
X177521158Y-132304836D01*
X177521156Y-132304837D01*
X177346567Y-132357798D01*
X177346566Y-132357798D01*
X177346563Y-132357799D01*
X177210500Y-132371200D01*
X177119500Y-132371200D01*
X176983437Y-132357799D01*
X176983434Y-132357798D01*
X176983433Y-132357798D01*
X176808844Y-132304837D01*
X176808842Y-132304836D01*
X176808839Y-132304835D01*
X176647941Y-132218834D01*
X176506909Y-132103091D01*
X176391166Y-131962059D01*
X176305165Y-131801161D01*
X176252201Y-131626563D01*
X176234319Y-131445000D01*
X176252201Y-131263437D01*
X176305165Y-131088839D01*
X176391166Y-130927941D01*
X176506909Y-130786909D01*
X176647941Y-130671166D01*
X176808839Y-130585165D01*
X176808842Y-130585164D01*
X176808844Y-130585163D01*
X176983433Y-130532202D01*
X176983434Y-130532202D01*
X176983437Y-130532201D01*
X177119500Y-130518800D01*
X177210500Y-130518800D01*
X177346563Y-130532201D01*
X177346563Y-130532201D01*
G37*
G36*
X124451200Y-130016200D02*
X123098800Y-130016200D01*
X123098800Y-129063800D01*
X124451200Y-129063800D01*
X124451200Y-130016200D01*
X124451200Y-130016200D01*
G37*
G36*
X118151200Y-130016200D02*
X116798800Y-130016200D01*
X116798800Y-129063800D01*
X118151200Y-129063800D01*
X118151200Y-130016200D01*
X118151200Y-130016200D01*
G37*
G36*
X107189649Y-127088127D02*
X107225991Y-127099152D01*
X107259490Y-127117058D01*
X107288849Y-127141151D01*
X107312942Y-127170510D01*
X107330848Y-127204009D01*
X107341873Y-127240351D01*
X107346200Y-127284290D01*
X107346200Y-127985710D01*
X107341873Y-128029649D01*
X107330848Y-128065991D01*
X107312942Y-128099490D01*
X107288849Y-128128849D01*
X107259490Y-128152942D01*
X107225991Y-128170848D01*
X107189649Y-128181873D01*
X107145710Y-128186200D01*
X106519290Y-128186200D01*
X106475351Y-128181873D01*
X106439009Y-128170848D01*
X106405510Y-128152942D01*
X106376151Y-128128849D01*
X106352058Y-128099490D01*
X106334152Y-128065991D01*
X106323127Y-128029649D01*
X106318800Y-127985710D01*
X106318800Y-127284290D01*
X106323127Y-127240351D01*
X106334152Y-127204009D01*
X106352058Y-127170510D01*
X106376151Y-127141151D01*
X106405510Y-127117058D01*
X106439009Y-127099152D01*
X106475351Y-127088127D01*
X106519290Y-127083800D01*
X107145710Y-127083800D01*
X107189649Y-127088127D01*
X107189649Y-127088127D01*
G37*
G36*
X105614649Y-127088127D02*
X105650991Y-127099152D01*
X105684490Y-127117058D01*
X105713849Y-127141151D01*
X105737942Y-127170510D01*
X105755848Y-127204009D01*
X105766873Y-127240351D01*
X105771200Y-127284290D01*
X105771200Y-127985710D01*
X105766873Y-128029649D01*
X105755848Y-128065991D01*
X105737942Y-128099490D01*
X105713849Y-128128849D01*
X105684490Y-128152942D01*
X105650991Y-128170848D01*
X105614649Y-128181873D01*
X105570710Y-128186200D01*
X104944290Y-128186200D01*
X104900351Y-128181873D01*
X104864009Y-128170848D01*
X104830510Y-128152942D01*
X104801151Y-128128849D01*
X104777058Y-128099490D01*
X104759152Y-128065991D01*
X104748127Y-128029649D01*
X104743800Y-127985710D01*
X104743800Y-127284290D01*
X104748127Y-127240351D01*
X104759152Y-127204009D01*
X104777058Y-127170510D01*
X104801151Y-127141151D01*
X104830510Y-127117058D01*
X104864009Y-127099152D01*
X104900351Y-127088127D01*
X104944290Y-127083800D01*
X105570710Y-127083800D01*
X105614649Y-127088127D01*
X105614649Y-127088127D01*
G37*
G36*
X96561200Y-127771200D02*
X95208800Y-127771200D01*
X95208800Y-126418800D01*
X96561200Y-126418800D01*
X96561200Y-127771200D01*
X96561200Y-127771200D01*
G37*
G36*
X128932149Y-126453127D02*
X128968491Y-126464152D01*
X129001990Y-126482058D01*
X129031349Y-126506151D01*
X129055442Y-126535510D01*
X129073348Y-126569009D01*
X129084373Y-126605351D01*
X129088700Y-126649290D01*
X129088700Y-127350710D01*
X129084373Y-127394649D01*
X129073348Y-127430991D01*
X129055442Y-127464490D01*
X129031349Y-127493849D01*
X129001990Y-127517942D01*
X128968491Y-127535848D01*
X128932149Y-127546873D01*
X128888210Y-127551200D01*
X128261790Y-127551200D01*
X128217851Y-127546873D01*
X128181509Y-127535848D01*
X128148010Y-127517942D01*
X128118651Y-127493849D01*
X128094558Y-127464490D01*
X128076652Y-127430991D01*
X128065627Y-127394649D01*
X128061300Y-127350710D01*
X128061300Y-126649290D01*
X128065627Y-126605351D01*
X128076652Y-126569009D01*
X128094558Y-126535510D01*
X128118651Y-126506151D01*
X128148010Y-126482058D01*
X128181509Y-126464152D01*
X128217851Y-126453127D01*
X128261790Y-126448800D01*
X128888210Y-126448800D01*
X128932149Y-126453127D01*
X128932149Y-126453127D01*
G37*
G36*
X127357149Y-126453127D02*
X127393491Y-126464152D01*
X127426990Y-126482058D01*
X127456349Y-126506151D01*
X127480442Y-126535510D01*
X127498348Y-126569009D01*
X127509373Y-126605351D01*
X127513700Y-126649290D01*
X127513700Y-127350710D01*
X127509373Y-127394649D01*
X127498348Y-127430991D01*
X127480442Y-127464490D01*
X127456349Y-127493849D01*
X127426990Y-127517942D01*
X127393491Y-127535848D01*
X127357149Y-127546873D01*
X127313210Y-127551200D01*
X126686790Y-127551200D01*
X126642851Y-127546873D01*
X126606509Y-127535848D01*
X126573010Y-127517942D01*
X126543651Y-127493849D01*
X126519558Y-127464490D01*
X126501652Y-127430991D01*
X126490627Y-127394649D01*
X126486300Y-127350710D01*
X126486300Y-126649290D01*
X126490627Y-126605351D01*
X126501652Y-126569009D01*
X126519558Y-126535510D01*
X126543651Y-126506151D01*
X126573010Y-126482058D01*
X126606509Y-126464152D01*
X126642851Y-126453127D01*
X126686790Y-126448800D01*
X127313210Y-126448800D01*
X127357149Y-126453127D01*
X127357149Y-126453127D01*
G37*
G36*
X118151200Y-127476200D02*
X116798800Y-127476200D01*
X116798800Y-126523800D01*
X118151200Y-126523800D01*
X118151200Y-127476200D01*
X118151200Y-127476200D01*
G37*
G36*
X124451200Y-127476200D02*
X123098800Y-127476200D01*
X123098800Y-126523800D01*
X124451200Y-126523800D01*
X124451200Y-127476200D01*
X124451200Y-127476200D01*
G37*
G36*
X99961200Y-126971200D02*
X98308800Y-126971200D01*
X98308800Y-125218800D01*
X99961200Y-125218800D01*
X99961200Y-126971200D01*
X99961200Y-126971200D01*
G37*
G36*
X96561200Y-125771200D02*
X95208800Y-125771200D01*
X95208800Y-124418800D01*
X96561200Y-124418800D01*
X96561200Y-125771200D01*
X96561200Y-125771200D01*
G37*
G36*
X115329649Y-123950627D02*
X115365991Y-123961652D01*
X115399490Y-123979558D01*
X115428849Y-124003651D01*
X115452942Y-124033010D01*
X115470848Y-124066509D01*
X115481873Y-124102851D01*
X115486200Y-124146790D01*
X115486200Y-124773210D01*
X115481873Y-124817149D01*
X115470848Y-124853491D01*
X115452942Y-124886990D01*
X115428849Y-124916349D01*
X115399490Y-124940442D01*
X115365991Y-124958348D01*
X115329649Y-124969373D01*
X115285710Y-124973700D01*
X114584290Y-124973700D01*
X114540351Y-124969373D01*
X114504009Y-124958348D01*
X114470510Y-124940442D01*
X114441151Y-124916349D01*
X114417058Y-124886990D01*
X114399152Y-124853491D01*
X114388127Y-124817149D01*
X114383800Y-124773210D01*
X114383800Y-124146790D01*
X114388127Y-124102851D01*
X114399152Y-124066509D01*
X114417058Y-124033010D01*
X114441151Y-124003651D01*
X114470510Y-123979558D01*
X114504009Y-123961652D01*
X114540351Y-123950627D01*
X114584290Y-123946300D01*
X115285710Y-123946300D01*
X115329649Y-123950627D01*
X115329649Y-123950627D01*
G37*
G36*
X115329649Y-122375627D02*
X115365991Y-122386652D01*
X115399490Y-122404558D01*
X115428849Y-122428651D01*
X115452942Y-122458010D01*
X115470848Y-122491509D01*
X115481873Y-122527851D01*
X115486200Y-122571790D01*
X115486200Y-123198210D01*
X115481873Y-123242149D01*
X115470848Y-123278491D01*
X115452942Y-123311990D01*
X115428849Y-123341349D01*
X115399490Y-123365442D01*
X115365991Y-123383348D01*
X115329649Y-123394373D01*
X115285710Y-123398700D01*
X114584290Y-123398700D01*
X114540351Y-123394373D01*
X114504009Y-123383348D01*
X114470510Y-123365442D01*
X114441151Y-123341349D01*
X114417058Y-123311990D01*
X114399152Y-123278491D01*
X114388127Y-123242149D01*
X114383800Y-123198210D01*
X114383800Y-122571790D01*
X114388127Y-122527851D01*
X114399152Y-122491509D01*
X114417058Y-122458010D01*
X114441151Y-122428651D01*
X114470510Y-122404558D01*
X114504009Y-122386652D01*
X114540351Y-122375627D01*
X114584290Y-122371300D01*
X115285710Y-122371300D01*
X115329649Y-122375627D01*
X115329649Y-122375627D01*
G37*
G36*
X164906200Y-122361200D02*
X162753800Y-122361200D01*
X162753800Y-120208800D01*
X164906200Y-120208800D01*
X164906200Y-122361200D01*
X164906200Y-122361200D01*
G37*
G36*
X178241200Y-122361200D02*
X176088800Y-122361200D01*
X176088800Y-120208800D01*
X178241200Y-120208800D01*
X178241200Y-122361200D01*
X178241200Y-122361200D01*
G37*
G36*
X81485765Y-117178850D02*
X81739761Y-117229372D01*
X82026611Y-117348189D01*
X82284769Y-117520685D01*
X82504315Y-117740231D01*
X82676811Y-117998389D01*
X82795628Y-118285239D01*
X82856200Y-118589758D01*
X82856200Y-118900242D01*
X82795628Y-119204761D01*
X82676811Y-119491611D01*
X82504315Y-119749769D01*
X82284769Y-119969315D01*
X82026611Y-120141811D01*
X81739761Y-120260628D01*
X81485765Y-120311150D01*
X81435243Y-120321200D01*
X81124757Y-120321200D01*
X81074235Y-120311150D01*
X80820239Y-120260628D01*
X80533389Y-120141811D01*
X80275231Y-119969315D01*
X80055685Y-119749769D01*
X79883189Y-119491611D01*
X79764372Y-119204761D01*
X79703800Y-118900242D01*
X79703800Y-118589758D01*
X79764372Y-118285239D01*
X79883189Y-117998389D01*
X80055685Y-117740231D01*
X80275231Y-117520685D01*
X80533389Y-117348189D01*
X80820239Y-117229372D01*
X81074235Y-117178850D01*
X81124757Y-117168800D01*
X81435243Y-117168800D01*
X81485765Y-117178850D01*
X81485765Y-117178850D01*
G37*
G36*
X68147014Y-116587021D02*
X68346423Y-116626686D01*
X68596875Y-116730427D01*
X68693175Y-116794773D01*
X68822279Y-116881038D01*
X69013962Y-117072721D01*
X69013964Y-117072724D01*
X69164573Y-117298125D01*
X69268314Y-117548577D01*
X69321200Y-117814456D01*
X69321200Y-118085544D01*
X69268314Y-118351423D01*
X69164573Y-118601875D01*
X69164572Y-118601876D01*
X69013962Y-118827279D01*
X68822279Y-119018962D01*
X68822276Y-119018964D01*
X68596875Y-119169573D01*
X68346423Y-119273314D01*
X68147014Y-119312978D01*
X68080545Y-119326200D01*
X67809455Y-119326200D01*
X67742986Y-119312978D01*
X67543577Y-119273314D01*
X67293125Y-119169573D01*
X67067724Y-119018964D01*
X67067721Y-119018962D01*
X66876038Y-118827279D01*
X66725428Y-118601876D01*
X66725427Y-118601875D01*
X66621686Y-118351423D01*
X66568800Y-118085544D01*
X66568800Y-117814456D01*
X66621686Y-117548577D01*
X66725427Y-117298125D01*
X66876036Y-117072724D01*
X66876038Y-117072721D01*
X67067721Y-116881038D01*
X67196825Y-116794773D01*
X67293125Y-116730427D01*
X67543577Y-116626686D01*
X67742986Y-116587021D01*
X67809455Y-116573800D01*
X68080545Y-116573800D01*
X68147014Y-116587021D01*
X68147014Y-116587021D01*
G37*
G36*
X189432014Y-116267021D02*
X189631423Y-116306686D01*
X189881875Y-116410427D01*
X189881876Y-116410428D01*
X190107279Y-116561038D01*
X190298962Y-116752721D01*
X190298964Y-116752724D01*
X190449573Y-116978125D01*
X190553314Y-117228577D01*
X190606200Y-117494456D01*
X190606200Y-117765544D01*
X190553314Y-118031423D01*
X190449573Y-118281875D01*
X190449572Y-118281876D01*
X190298962Y-118507279D01*
X190107279Y-118698962D01*
X190107276Y-118698964D01*
X189881875Y-118849573D01*
X189631423Y-118953314D01*
X189432014Y-118992979D01*
X189365545Y-119006200D01*
X189094455Y-119006200D01*
X189027986Y-118992979D01*
X188828577Y-118953314D01*
X188578125Y-118849573D01*
X188352724Y-118698964D01*
X188352721Y-118698962D01*
X188161038Y-118507279D01*
X188010428Y-118281876D01*
X188010427Y-118281875D01*
X187906686Y-118031423D01*
X187853800Y-117765544D01*
X187853800Y-117494456D01*
X187906686Y-117228577D01*
X188010427Y-116978125D01*
X188161036Y-116752724D01*
X188161038Y-116752721D01*
X188352721Y-116561038D01*
X188578124Y-116410428D01*
X188578125Y-116410427D01*
X188828577Y-116306686D01*
X189027986Y-116267021D01*
X189094455Y-116253800D01*
X189365545Y-116253800D01*
X189432014Y-116267021D01*
X189432014Y-116267021D01*
G37*
G36*
X177478916Y-115250158D02*
X177674773Y-115331284D01*
X177851038Y-115449061D01*
X178000939Y-115598962D01*
X178118716Y-115775227D01*
X178199842Y-115971084D01*
X178241200Y-116179003D01*
X178241200Y-116390997D01*
X178199842Y-116598916D01*
X178118716Y-116794773D01*
X178000939Y-116971038D01*
X177851038Y-117120939D01*
X177674773Y-117238716D01*
X177478916Y-117319842D01*
X177270997Y-117361200D01*
X177059003Y-117361200D01*
X176851084Y-117319842D01*
X176655227Y-117238716D01*
X176478962Y-117120939D01*
X176329061Y-116971038D01*
X176211284Y-116794773D01*
X176130158Y-116598916D01*
X176088800Y-116390997D01*
X176088800Y-116179003D01*
X176130158Y-115971084D01*
X176211284Y-115775227D01*
X176329061Y-115598962D01*
X176478962Y-115449061D01*
X176655227Y-115331284D01*
X176851084Y-115250158D01*
X177059003Y-115208800D01*
X177270997Y-115208800D01*
X177478916Y-115250158D01*
X177478916Y-115250158D01*
G37*
G36*
X164143916Y-115250158D02*
X164339773Y-115331284D01*
X164516038Y-115449061D01*
X164665939Y-115598962D01*
X164783716Y-115775227D01*
X164864842Y-115971084D01*
X164906200Y-116179003D01*
X164906200Y-116390997D01*
X164864842Y-116598916D01*
X164783716Y-116794773D01*
X164665939Y-116971038D01*
X164516038Y-117120939D01*
X164339773Y-117238716D01*
X164143916Y-117319842D01*
X163935997Y-117361200D01*
X163724003Y-117361200D01*
X163516084Y-117319842D01*
X163320227Y-117238716D01*
X163143962Y-117120939D01*
X162994061Y-116971038D01*
X162876284Y-116794773D01*
X162795158Y-116598916D01*
X162753800Y-116390997D01*
X162753800Y-116179003D01*
X162795158Y-115971084D01*
X162876284Y-115775227D01*
X162994061Y-115598962D01*
X163143962Y-115449061D01*
X163320227Y-115331284D01*
X163516084Y-115250158D01*
X163724003Y-115208800D01*
X163935997Y-115208800D01*
X164143916Y-115250158D01*
X164143916Y-115250158D01*
G37*
G36*
X101802256Y-106355047D02*
X101959345Y-106386294D01*
X102017609Y-106410428D01*
X102255293Y-106508880D01*
X102521645Y-106686850D01*
X102748150Y-106913355D01*
X102926120Y-107179707D01*
X102997929Y-107353069D01*
X103048706Y-107475655D01*
X103052446Y-107494456D01*
X103111200Y-107789832D01*
X103111200Y-108110168D01*
X103099187Y-108170559D01*
X103048706Y-108424345D01*
X103014353Y-108507279D01*
X102926120Y-108720293D01*
X102748150Y-108986645D01*
X102521645Y-109213150D01*
X102255293Y-109391120D01*
X102081931Y-109462929D01*
X101959345Y-109513706D01*
X101824703Y-109540488D01*
X101645168Y-109576200D01*
X101324832Y-109576200D01*
X101145297Y-109540488D01*
X101010655Y-109513706D01*
X100888069Y-109462929D01*
X100714707Y-109391120D01*
X100448355Y-109213150D01*
X100398584Y-109163379D01*
X100379642Y-109147833D01*
X100358031Y-109136282D01*
X100334582Y-109129169D01*
X100310196Y-109126767D01*
X100285810Y-109129169D01*
X100262361Y-109136282D01*
X100240750Y-109147833D01*
X100221808Y-109163379D01*
X100206262Y-109182321D01*
X100194711Y-109203932D01*
X100187598Y-109227381D01*
X100185196Y-109251767D01*
X100187598Y-109276153D01*
X100194711Y-109299602D01*
X100206262Y-109321213D01*
X100233569Y-109362081D01*
X100427391Y-109830009D01*
X100526200Y-110326757D01*
X100526200Y-110833243D01*
X100427391Y-111329991D01*
X100233569Y-111797919D01*
X100233568Y-111797920D01*
X99952182Y-112219044D01*
X99594044Y-112577182D01*
X99313295Y-112764773D01*
X99172919Y-112858569D01*
X98704991Y-113052391D01*
X98208243Y-113151200D01*
X97701757Y-113151200D01*
X97205009Y-113052391D01*
X96737081Y-112858569D01*
X96596705Y-112764773D01*
X96315956Y-112577182D01*
X95957818Y-112219044D01*
X95676432Y-111797920D01*
X95676431Y-111797919D01*
X95482609Y-111329991D01*
X95383800Y-110833243D01*
X95383800Y-110326757D01*
X95482609Y-109830009D01*
X95676431Y-109362081D01*
X95770227Y-109221705D01*
X95957818Y-108940956D01*
X96315956Y-108582818D01*
X96737080Y-108301432D01*
X96737081Y-108301431D01*
X97205009Y-108107609D01*
X97701757Y-108008800D01*
X98208243Y-108008800D01*
X98704991Y-108107609D01*
X99172919Y-108301431D01*
X99172920Y-108301432D01*
X99594044Y-108582818D01*
X99820395Y-108809169D01*
X99839337Y-108824715D01*
X99860948Y-108836266D01*
X99884397Y-108843379D01*
X99908783Y-108845781D01*
X99933169Y-108843379D01*
X99956618Y-108836266D01*
X99978229Y-108824715D01*
X99997171Y-108809169D01*
X100012717Y-108790227D01*
X100024268Y-108768616D01*
X100031381Y-108745167D01*
X100033783Y-108720781D01*
X100031381Y-108696395D01*
X100024268Y-108672946D01*
X99921294Y-108424344D01*
X99858800Y-108110168D01*
X99858800Y-107789832D01*
X99917554Y-107494456D01*
X99921294Y-107475655D01*
X99972071Y-107353069D01*
X100043880Y-107179707D01*
X100221850Y-106913355D01*
X100448355Y-106686850D01*
X100714707Y-106508880D01*
X100952391Y-106410428D01*
X101010655Y-106386294D01*
X101167744Y-106355047D01*
X101324832Y-106323800D01*
X101645168Y-106323800D01*
X101802256Y-106355047D01*
X101802256Y-106355047D01*
G37*
G36*
X134742256Y-106355047D02*
X134899345Y-106386294D01*
X134957609Y-106410428D01*
X135195293Y-106508880D01*
X135461645Y-106686850D01*
X135688150Y-106913355D01*
X135866120Y-107179707D01*
X135937929Y-107353069D01*
X135988706Y-107475655D01*
X135992446Y-107494456D01*
X136051200Y-107789832D01*
X136051200Y-108110168D01*
X135988706Y-108424344D01*
X135885732Y-108672946D01*
X135878619Y-108696395D01*
X135876217Y-108720781D01*
X135878619Y-108745167D01*
X135885732Y-108768616D01*
X135897283Y-108790227D01*
X135912829Y-108809169D01*
X135931771Y-108824715D01*
X135953382Y-108836266D01*
X135976831Y-108843379D01*
X136001217Y-108845781D01*
X136025603Y-108843379D01*
X136049052Y-108836266D01*
X136070663Y-108824715D01*
X136089605Y-108809169D01*
X136315956Y-108582818D01*
X136737080Y-108301432D01*
X136737081Y-108301431D01*
X137205009Y-108107609D01*
X137701757Y-108008800D01*
X138208243Y-108008800D01*
X138704991Y-108107609D01*
X139172919Y-108301431D01*
X139172920Y-108301432D01*
X139594044Y-108582818D01*
X139952182Y-108940956D01*
X140139773Y-109221705D01*
X140233569Y-109362081D01*
X140427391Y-109830009D01*
X140526200Y-110326757D01*
X140526200Y-110833243D01*
X140427391Y-111329991D01*
X140233569Y-111797919D01*
X140233568Y-111797920D01*
X139952182Y-112219044D01*
X139594044Y-112577182D01*
X139313295Y-112764773D01*
X139172919Y-112858569D01*
X138704991Y-113052391D01*
X138208243Y-113151200D01*
X137701757Y-113151200D01*
X137205009Y-113052391D01*
X136737081Y-112858569D01*
X136596705Y-112764773D01*
X136315956Y-112577182D01*
X135957818Y-112219044D01*
X135676432Y-111797920D01*
X135676431Y-111797919D01*
X135482609Y-111329991D01*
X135383800Y-110833243D01*
X135383800Y-110326757D01*
X135482609Y-109830009D01*
X135676431Y-109362081D01*
X135703738Y-109321213D01*
X135715289Y-109299603D01*
X135722402Y-109276153D01*
X135724804Y-109251767D01*
X135722402Y-109227381D01*
X135715289Y-109203932D01*
X135703738Y-109182321D01*
X135688192Y-109163379D01*
X135669250Y-109147833D01*
X135647640Y-109136282D01*
X135624190Y-109129169D01*
X135599804Y-109126767D01*
X135575418Y-109129169D01*
X135551969Y-109136282D01*
X135530358Y-109147833D01*
X135511416Y-109163379D01*
X135461645Y-109213150D01*
X135195293Y-109391120D01*
X135021931Y-109462929D01*
X134899345Y-109513706D01*
X134764703Y-109540488D01*
X134585168Y-109576200D01*
X134264832Y-109576200D01*
X134085297Y-109540488D01*
X133950655Y-109513706D01*
X133828069Y-109462929D01*
X133654707Y-109391120D01*
X133388355Y-109213150D01*
X133161850Y-108986645D01*
X132983880Y-108720293D01*
X132895647Y-108507279D01*
X132861294Y-108424345D01*
X132810813Y-108170559D01*
X132798800Y-108110168D01*
X132798800Y-107789832D01*
X132857554Y-107494456D01*
X132861294Y-107475655D01*
X132912071Y-107353069D01*
X132983880Y-107179707D01*
X133161850Y-106913355D01*
X133388355Y-106686850D01*
X133654707Y-106508880D01*
X133892391Y-106410428D01*
X133950655Y-106386294D01*
X134107744Y-106355047D01*
X134264832Y-106323800D01*
X134585168Y-106323800D01*
X134742256Y-106355047D01*
X134742256Y-106355047D01*
G37*
G36*
X152630488Y-106203227D02*
X152667804Y-106214546D01*
X152702191Y-106232927D01*
X152732335Y-106257665D01*
X152757073Y-106287809D01*
X152775454Y-106322196D01*
X152786773Y-106359512D01*
X152791200Y-106404459D01*
X152791200Y-109495541D01*
X152786773Y-109540488D01*
X152775454Y-109577804D01*
X152757073Y-109612191D01*
X152732335Y-109642335D01*
X152702191Y-109667073D01*
X152667804Y-109685454D01*
X152630488Y-109696773D01*
X152585541Y-109701200D01*
X151494459Y-109701200D01*
X151449512Y-109696773D01*
X151412196Y-109685454D01*
X151377809Y-109667073D01*
X151347665Y-109642335D01*
X151322927Y-109612191D01*
X151304546Y-109577804D01*
X151293227Y-109540488D01*
X151288800Y-109495541D01*
X151288800Y-106404459D01*
X151293227Y-106359512D01*
X151304546Y-106322196D01*
X151322927Y-106287809D01*
X151347665Y-106257665D01*
X151377809Y-106232927D01*
X151412196Y-106214546D01*
X151449512Y-106203227D01*
X151494459Y-106198800D01*
X152585541Y-106198800D01*
X152630488Y-106203227D01*
X152630488Y-106203227D01*
G37*
G36*
X158430488Y-106203227D02*
X158467804Y-106214546D01*
X158502191Y-106232927D01*
X158532335Y-106257665D01*
X158557073Y-106287809D01*
X158575454Y-106322196D01*
X158586773Y-106359512D01*
X158591200Y-106404459D01*
X158591200Y-109495541D01*
X158586773Y-109540488D01*
X158575454Y-109577804D01*
X158557073Y-109612191D01*
X158532335Y-109642335D01*
X158502191Y-109667073D01*
X158467804Y-109685454D01*
X158430488Y-109696773D01*
X158385541Y-109701200D01*
X157294459Y-109701200D01*
X157249512Y-109696773D01*
X157212196Y-109685454D01*
X157177809Y-109667073D01*
X157147665Y-109642335D01*
X157122927Y-109612191D01*
X157104546Y-109577804D01*
X157093227Y-109540488D01*
X157088800Y-109495541D01*
X157088800Y-106404459D01*
X157093227Y-106359512D01*
X157104546Y-106322196D01*
X157122927Y-106287809D01*
X157147665Y-106257665D01*
X157177809Y-106232927D01*
X157212196Y-106214546D01*
X157249512Y-106203227D01*
X157294459Y-106198800D01*
X158385541Y-106198800D01*
X158430488Y-106203227D01*
X158430488Y-106203227D01*
G37*
G36*
X110532017Y-106507069D02*
X110674133Y-106535337D01*
X110941875Y-106646239D01*
X111182836Y-106807244D01*
X111387756Y-107012164D01*
X111548761Y-107253125D01*
X111648723Y-107494456D01*
X111659663Y-107520868D01*
X111716200Y-107805098D01*
X111716200Y-108094902D01*
X111713163Y-108110168D01*
X111659663Y-108379133D01*
X111548761Y-108646875D01*
X111387756Y-108887836D01*
X111182836Y-109092756D01*
X110941875Y-109253761D01*
X110674133Y-109364663D01*
X110541129Y-109391119D01*
X110389902Y-109421200D01*
X110100098Y-109421200D01*
X109948871Y-109391119D01*
X109815867Y-109364663D01*
X109548125Y-109253761D01*
X109307164Y-109092756D01*
X109102244Y-108887836D01*
X108941239Y-108646875D01*
X108830337Y-108379133D01*
X108776837Y-108110168D01*
X108773800Y-108094902D01*
X108773800Y-107805098D01*
X108830337Y-107520868D01*
X108841277Y-107494456D01*
X108941239Y-107253125D01*
X109102244Y-107012164D01*
X109307164Y-106807244D01*
X109548125Y-106646239D01*
X109815867Y-106535337D01*
X109957983Y-106507069D01*
X110100098Y-106478800D01*
X110389902Y-106478800D01*
X110532017Y-106507069D01*
X110532017Y-106507069D01*
G37*
G36*
X69321200Y-109326200D02*
X66568800Y-109326200D01*
X66568800Y-106573800D01*
X69321200Y-106573800D01*
X69321200Y-109326200D01*
X69321200Y-109326200D01*
G37*
G36*
X189432014Y-106267021D02*
X189631423Y-106306686D01*
X189881875Y-106410427D01*
X189881876Y-106410428D01*
X190107279Y-106561038D01*
X190298962Y-106752721D01*
X190298964Y-106752724D01*
X190449573Y-106978125D01*
X190553314Y-107228577D01*
X190592979Y-107427986D01*
X190602461Y-107475656D01*
X190606200Y-107494456D01*
X190606200Y-107765544D01*
X190553314Y-108031423D01*
X190449573Y-108281875D01*
X190384587Y-108379133D01*
X190298962Y-108507279D01*
X190107279Y-108698962D01*
X190107276Y-108698964D01*
X189881875Y-108849573D01*
X189631423Y-108953314D01*
X189432014Y-108992979D01*
X189365545Y-109006200D01*
X189094455Y-109006200D01*
X189027986Y-108992979D01*
X188828577Y-108953314D01*
X188578125Y-108849573D01*
X188352724Y-108698964D01*
X188352721Y-108698962D01*
X188161038Y-108507279D01*
X188075413Y-108379133D01*
X188010427Y-108281875D01*
X187906686Y-108031423D01*
X187853800Y-107765544D01*
X187853800Y-107494456D01*
X187857540Y-107475656D01*
X187867021Y-107427986D01*
X187906686Y-107228577D01*
X188010427Y-106978125D01*
X188161036Y-106752724D01*
X188161038Y-106752721D01*
X188352721Y-106561038D01*
X188578124Y-106410428D01*
X188578125Y-106410427D01*
X188828577Y-106306686D01*
X189027986Y-106267021D01*
X189094455Y-106253800D01*
X189365545Y-106253800D01*
X189432014Y-106267021D01*
X189432014Y-106267021D01*
G37*
G36*
X81696006Y-106123607D02*
X81955558Y-106231117D01*
X82189153Y-106387200D01*
X82387800Y-106585847D01*
X82543883Y-106819442D01*
X82651393Y-107078994D01*
X82706200Y-107354530D01*
X82706200Y-107635470D01*
X82651393Y-107911006D01*
X82543883Y-108170558D01*
X82387800Y-108404153D01*
X82189153Y-108602800D01*
X81955558Y-108758883D01*
X81696006Y-108866393D01*
X81420470Y-108921200D01*
X81139530Y-108921200D01*
X80863994Y-108866393D01*
X80604442Y-108758883D01*
X80370847Y-108602800D01*
X80172200Y-108404153D01*
X80016117Y-108170558D01*
X79908607Y-107911006D01*
X79853800Y-107635470D01*
X79853800Y-107354530D01*
X79908607Y-107078994D01*
X80016117Y-106819442D01*
X80172200Y-106585847D01*
X80370847Y-106387200D01*
X80604442Y-106231117D01*
X80863994Y-106123607D01*
X81139530Y-106068800D01*
X81420470Y-106068800D01*
X81696006Y-106123607D01*
X81696006Y-106123607D01*
G37*
G36*
X174362254Y-104697843D02*
X174594506Y-104794045D01*
X174803532Y-104933712D01*
X174981288Y-105111468D01*
X175120955Y-105320494D01*
X175217157Y-105552746D01*
X175266200Y-105799304D01*
X175266200Y-106050696D01*
X175217157Y-106297254D01*
X175120955Y-106529506D01*
X174981288Y-106738532D01*
X174803532Y-106916288D01*
X174594506Y-107055955D01*
X174362254Y-107152157D01*
X174115696Y-107201200D01*
X173864304Y-107201200D01*
X173617746Y-107152157D01*
X173385494Y-107055955D01*
X173176468Y-106916288D01*
X172998712Y-106738532D01*
X172859045Y-106529506D01*
X172762843Y-106297254D01*
X172713800Y-106050696D01*
X172713800Y-105799304D01*
X172762843Y-105552746D01*
X172859045Y-105320494D01*
X172998712Y-105111468D01*
X173176468Y-104933712D01*
X173385494Y-104794045D01*
X173617746Y-104697843D01*
X173864304Y-104648800D01*
X174115696Y-104648800D01*
X174362254Y-104697843D01*
X174362254Y-104697843D01*
G37*
G36*
X141432017Y-100787068D02*
X141574133Y-100815337D01*
X141841875Y-100926239D01*
X142082836Y-101087244D01*
X142287756Y-101292164D01*
X142448761Y-101533125D01*
X142559663Y-101800867D01*
X142616200Y-102085099D01*
X142616200Y-102374901D01*
X142559663Y-102659133D01*
X142448761Y-102926875D01*
X142287756Y-103167836D01*
X142082836Y-103372756D01*
X141841875Y-103533761D01*
X141574133Y-103644663D01*
X141432017Y-103672931D01*
X141289902Y-103701200D01*
X141000098Y-103701200D01*
X140857983Y-103672931D01*
X140715867Y-103644663D01*
X140448125Y-103533761D01*
X140207164Y-103372756D01*
X140002244Y-103167836D01*
X139841239Y-102926875D01*
X139730337Y-102659133D01*
X139673800Y-102374901D01*
X139673800Y-102085099D01*
X139730337Y-101800867D01*
X139841239Y-101533125D01*
X140002244Y-101292164D01*
X140207164Y-101087244D01*
X140448125Y-100926239D01*
X140715867Y-100815337D01*
X140857983Y-100787068D01*
X141000098Y-100758800D01*
X141289902Y-100758800D01*
X141432017Y-100787068D01*
X141432017Y-100787068D01*
G37*
G36*
X95156214Y-100690342D02*
X95400296Y-100791444D01*
X95619968Y-100938224D01*
X95806776Y-101125032D01*
X95953556Y-101344704D01*
X96054658Y-101588786D01*
X96106200Y-101847903D01*
X96106200Y-102112097D01*
X96054658Y-102371214D01*
X95953556Y-102615296D01*
X95806776Y-102834968D01*
X95619968Y-103021776D01*
X95400296Y-103168556D01*
X95156214Y-103269658D01*
X94897097Y-103321200D01*
X94632903Y-103321200D01*
X94373786Y-103269658D01*
X94129704Y-103168556D01*
X93910032Y-103021776D01*
X93723224Y-102834968D01*
X93576444Y-102615296D01*
X93475342Y-102371214D01*
X93423800Y-102112097D01*
X93423800Y-101847903D01*
X93475342Y-101588786D01*
X93576444Y-101344704D01*
X93723224Y-101125032D01*
X93910032Y-100938224D01*
X94129704Y-100791444D01*
X94373786Y-100690342D01*
X94632903Y-100638800D01*
X94897097Y-100638800D01*
X95156214Y-100690342D01*
X95156214Y-100690342D01*
G37*
G36*
X159966200Y-101421200D02*
X156513800Y-101421200D01*
X156513800Y-97968800D01*
X159966200Y-97968800D01*
X159966200Y-101421200D01*
X159966200Y-101421200D01*
G37*
G36*
X152096200Y-101421200D02*
X148643800Y-101421200D01*
X148643800Y-97968800D01*
X152096200Y-97968800D01*
X152096200Y-101421200D01*
X152096200Y-101421200D01*
G37*
G36*
X65516200Y-100771200D02*
X64563800Y-100771200D01*
X64563800Y-98618800D01*
X65516200Y-98618800D01*
X65516200Y-100771200D01*
X65516200Y-100771200D01*
G37*
G36*
X67516200Y-100771200D02*
X66563800Y-100771200D01*
X66563800Y-98618800D01*
X67516200Y-98618800D01*
X67516200Y-100771200D01*
X67516200Y-100771200D01*
G37*
G36*
X175266200Y-99701200D02*
X172713800Y-99701200D01*
X172713800Y-97148800D01*
X175266200Y-97148800D01*
X175266200Y-99701200D01*
X175266200Y-99701200D01*
G37*
G36*
X94955922Y-97040497D02*
X95081833Y-97065542D01*
X95279509Y-97147422D01*
X95457412Y-97266293D01*
X95608707Y-97417588D01*
X95727578Y-97595491D01*
X95809458Y-97793167D01*
X95825289Y-97872756D01*
X95844394Y-97968800D01*
X95851200Y-98003019D01*
X95851200Y-98216981D01*
X95809458Y-98426833D01*
X95727578Y-98624509D01*
X95608707Y-98802412D01*
X95457412Y-98953707D01*
X95279509Y-99072578D01*
X95081833Y-99154458D01*
X94955922Y-99179503D01*
X94871983Y-99196200D01*
X94658017Y-99196200D01*
X94574078Y-99179503D01*
X94448167Y-99154458D01*
X94250491Y-99072578D01*
X94072588Y-98953707D01*
X93921293Y-98802412D01*
X93802422Y-98624509D01*
X93720542Y-98426833D01*
X93678800Y-98216981D01*
X93678800Y-98003019D01*
X93685607Y-97968800D01*
X93704711Y-97872756D01*
X93720542Y-97793167D01*
X93802422Y-97595491D01*
X93921293Y-97417588D01*
X94072588Y-97266293D01*
X94250491Y-97147422D01*
X94448167Y-97065542D01*
X94574078Y-97040497D01*
X94658017Y-97023800D01*
X94871983Y-97023800D01*
X94955922Y-97040497D01*
X94955922Y-97040497D01*
G37*
G36*
X189432014Y-96267021D02*
X189631423Y-96306686D01*
X189881875Y-96410427D01*
X190104232Y-96559002D01*
X190107279Y-96561038D01*
X190298962Y-96752721D01*
X190298964Y-96752724D01*
X190449573Y-96978125D01*
X190553314Y-97228577D01*
X190606200Y-97494456D01*
X190606200Y-97765544D01*
X190553314Y-98031423D01*
X190449573Y-98281875D01*
X190300998Y-98504232D01*
X190298962Y-98507279D01*
X190107279Y-98698962D01*
X190107276Y-98698964D01*
X189881875Y-98849573D01*
X189631423Y-98953314D01*
X189432014Y-98992978D01*
X189365545Y-99006200D01*
X189094455Y-99006200D01*
X189027986Y-98992979D01*
X188828577Y-98953314D01*
X188578125Y-98849573D01*
X188352724Y-98698964D01*
X188352721Y-98698962D01*
X188161038Y-98507279D01*
X188159002Y-98504232D01*
X188010427Y-98281875D01*
X187906686Y-98031423D01*
X187853800Y-97765544D01*
X187853800Y-97494456D01*
X187906686Y-97228577D01*
X188010427Y-96978125D01*
X188161036Y-96752724D01*
X188161038Y-96752721D01*
X188352721Y-96561038D01*
X188355768Y-96559002D01*
X188578125Y-96410427D01*
X188828577Y-96306686D01*
X189027986Y-96267022D01*
X189094455Y-96253800D01*
X189365545Y-96253800D01*
X189432014Y-96267021D01*
X189432014Y-96267021D01*
G37*
G36*
X141432017Y-95287068D02*
X141574133Y-95315337D01*
X141841875Y-95426239D01*
X142082836Y-95587244D01*
X142287756Y-95792164D01*
X142448761Y-96033125D01*
X142559663Y-96300867D01*
X142616200Y-96585099D01*
X142616200Y-96874901D01*
X142559663Y-97159133D01*
X142448761Y-97426875D01*
X142287756Y-97667836D01*
X142082836Y-97872756D01*
X141841875Y-98033761D01*
X141574133Y-98144663D01*
X141432017Y-98172932D01*
X141289902Y-98201200D01*
X141000098Y-98201200D01*
X140857983Y-98172932D01*
X140715867Y-98144663D01*
X140448125Y-98033761D01*
X140207164Y-97872756D01*
X140002244Y-97667836D01*
X139841239Y-97426875D01*
X139730337Y-97159133D01*
X139673800Y-96874901D01*
X139673800Y-96585099D01*
X139730337Y-96300867D01*
X139841239Y-96033125D01*
X140002244Y-95792164D01*
X140207164Y-95587244D01*
X140448125Y-95426239D01*
X140715867Y-95315337D01*
X140857983Y-95287069D01*
X141000098Y-95258800D01*
X141289902Y-95258800D01*
X141432017Y-95287068D01*
X141432017Y-95287068D01*
G37*
G36*
X81485765Y-94678850D02*
X81739761Y-94729372D01*
X82026611Y-94848189D01*
X82284769Y-95020685D01*
X82504315Y-95240231D01*
X82676811Y-95498389D01*
X82795628Y-95785239D01*
X82846150Y-96039235D01*
X82856200Y-96089757D01*
X82856200Y-96400243D01*
X82854174Y-96410427D01*
X82795628Y-96704761D01*
X82676811Y-96991611D01*
X82504315Y-97249769D01*
X82284769Y-97469315D01*
X82026611Y-97641811D01*
X81739761Y-97760628D01*
X81485765Y-97811150D01*
X81435243Y-97821200D01*
X81124757Y-97821200D01*
X81074235Y-97811150D01*
X80820239Y-97760628D01*
X80533389Y-97641811D01*
X80275231Y-97469315D01*
X80055685Y-97249769D01*
X79883189Y-96991611D01*
X79764372Y-96704761D01*
X79705826Y-96410427D01*
X79703800Y-96400243D01*
X79703800Y-96089757D01*
X79713850Y-96039235D01*
X79764372Y-95785239D01*
X79883189Y-95498389D01*
X80055685Y-95240231D01*
X80275231Y-95020685D01*
X80533389Y-94848189D01*
X80820239Y-94729372D01*
X81074235Y-94678850D01*
X81124757Y-94668800D01*
X81435243Y-94668800D01*
X81485765Y-94678850D01*
X81485765Y-94678850D01*
G37*
G36*
X94955922Y-94290497D02*
X95081833Y-94315542D01*
X95279509Y-94397422D01*
X95457412Y-94516293D01*
X95608707Y-94667588D01*
X95727578Y-94845491D01*
X95809458Y-95043167D01*
X95834503Y-95169078D01*
X95848657Y-95240231D01*
X95851200Y-95253019D01*
X95851200Y-95466981D01*
X95809458Y-95676833D01*
X95727578Y-95874509D01*
X95608707Y-96052412D01*
X95457412Y-96203707D01*
X95279509Y-96322578D01*
X95081833Y-96404458D01*
X94955922Y-96429503D01*
X94871983Y-96446200D01*
X94658017Y-96446200D01*
X94574078Y-96429503D01*
X94448167Y-96404458D01*
X94250491Y-96322578D01*
X94072588Y-96203707D01*
X93921293Y-96052412D01*
X93802422Y-95874509D01*
X93720542Y-95676833D01*
X93678800Y-95466981D01*
X93678800Y-95253019D01*
X93681344Y-95240231D01*
X93695497Y-95169078D01*
X93720542Y-95043167D01*
X93802422Y-94845491D01*
X93921293Y-94667588D01*
X94072588Y-94516293D01*
X94250491Y-94397422D01*
X94448167Y-94315542D01*
X94574078Y-94290497D01*
X94658017Y-94273800D01*
X94871983Y-94273800D01*
X94955922Y-94290497D01*
X94955922Y-94290497D01*
G37*
G36*
X69530488Y-92233227D02*
X69567804Y-92244546D01*
X69602191Y-92262927D01*
X69632335Y-92287665D01*
X69657073Y-92317809D01*
X69675454Y-92352196D01*
X69686773Y-92389512D01*
X69691200Y-92434459D01*
X69691200Y-95525541D01*
X69686773Y-95570488D01*
X69675454Y-95607804D01*
X69657073Y-95642191D01*
X69632335Y-95672335D01*
X69602191Y-95697073D01*
X69567804Y-95715454D01*
X69530488Y-95726773D01*
X69485541Y-95731200D01*
X68394459Y-95731200D01*
X68349512Y-95726773D01*
X68312196Y-95715454D01*
X68277809Y-95697073D01*
X68247665Y-95672335D01*
X68222927Y-95642191D01*
X68204546Y-95607804D01*
X68193227Y-95570488D01*
X68188800Y-95525541D01*
X68188800Y-92434459D01*
X68193227Y-92389512D01*
X68204546Y-92352196D01*
X68222927Y-92317809D01*
X68247665Y-92287665D01*
X68277809Y-92262927D01*
X68312196Y-92244546D01*
X68349512Y-92233227D01*
X68394459Y-92228800D01*
X69485541Y-92228800D01*
X69530488Y-92233227D01*
X69530488Y-92233227D01*
G37*
G36*
X63730488Y-92233227D02*
X63767804Y-92244546D01*
X63802191Y-92262927D01*
X63832335Y-92287665D01*
X63857073Y-92317809D01*
X63875454Y-92352196D01*
X63886773Y-92389512D01*
X63891200Y-92434459D01*
X63891200Y-95525541D01*
X63886773Y-95570488D01*
X63875454Y-95607804D01*
X63857073Y-95642191D01*
X63832335Y-95672335D01*
X63802191Y-95697073D01*
X63767804Y-95715454D01*
X63730488Y-95726773D01*
X63685541Y-95731200D01*
X62594459Y-95731200D01*
X62549512Y-95726773D01*
X62512196Y-95715454D01*
X62477809Y-95697073D01*
X62447665Y-95672335D01*
X62422927Y-95642191D01*
X62404546Y-95607804D01*
X62393227Y-95570488D01*
X62388800Y-95525541D01*
X62388800Y-92434459D01*
X62393227Y-92389512D01*
X62404546Y-92352196D01*
X62422927Y-92317809D01*
X62447665Y-92287665D01*
X62477809Y-92262927D01*
X62512196Y-92244546D01*
X62549512Y-92233227D01*
X62594459Y-92228800D01*
X63685541Y-92228800D01*
X63730488Y-92233227D01*
X63730488Y-92233227D01*
G37*
G36*
X94955922Y-91530497D02*
X95081833Y-91555542D01*
X95279509Y-91637422D01*
X95457412Y-91756293D01*
X95608707Y-91907588D01*
X95727578Y-92085491D01*
X95809458Y-92283167D01*
X95851200Y-92493019D01*
X95851200Y-92706981D01*
X95809458Y-92916833D01*
X95727578Y-93114509D01*
X95608707Y-93292412D01*
X95457412Y-93443707D01*
X95279509Y-93562578D01*
X95081833Y-93644458D01*
X94955922Y-93669503D01*
X94871983Y-93686200D01*
X94658017Y-93686200D01*
X94574078Y-93669503D01*
X94448167Y-93644458D01*
X94250491Y-93562578D01*
X94072588Y-93443707D01*
X93921293Y-93292412D01*
X93802422Y-93114509D01*
X93720542Y-92916833D01*
X93678800Y-92706981D01*
X93678800Y-92493019D01*
X93720542Y-92283167D01*
X93802422Y-92085491D01*
X93921293Y-91907588D01*
X94072588Y-91756293D01*
X94250491Y-91637422D01*
X94448167Y-91555542D01*
X94574078Y-91530497D01*
X94658017Y-91513800D01*
X94871983Y-91513800D01*
X94955922Y-91530497D01*
X94955922Y-91530497D01*
G37*
G36*
X141432017Y-89787069D02*
X141574133Y-89815337D01*
X141841875Y-89926239D01*
X142082836Y-90087244D01*
X142287756Y-90292164D01*
X142448761Y-90533125D01*
X142559663Y-90800867D01*
X142616200Y-91085099D01*
X142616200Y-91374901D01*
X142559663Y-91659133D01*
X142448761Y-91926875D01*
X142287756Y-92167836D01*
X142082836Y-92372756D01*
X141841875Y-92533761D01*
X141574133Y-92644663D01*
X141432017Y-92672932D01*
X141289902Y-92701200D01*
X141000098Y-92701200D01*
X140857983Y-92672932D01*
X140715867Y-92644663D01*
X140448125Y-92533761D01*
X140207164Y-92372756D01*
X140002244Y-92167836D01*
X139841239Y-91926875D01*
X139730337Y-91659133D01*
X139673800Y-91374901D01*
X139673800Y-91085099D01*
X139730337Y-90800867D01*
X139841239Y-90533125D01*
X140002244Y-90292164D01*
X140207164Y-90087244D01*
X140448125Y-89926239D01*
X140715867Y-89815337D01*
X140857983Y-89787069D01*
X141000098Y-89758800D01*
X141289902Y-89758800D01*
X141432017Y-89787069D01*
X141432017Y-89787069D01*
G37*
G36*
X190606200Y-89006200D02*
X187853800Y-89006200D01*
X187853800Y-86253800D01*
X190606200Y-86253800D01*
X190606200Y-89006200D01*
X190606200Y-89006200D01*
G37*
G36*
X88002254Y-84892843D02*
X88234506Y-84989045D01*
X88443532Y-85128712D01*
X88621288Y-85306468D01*
X88760955Y-85515494D01*
X88857157Y-85747746D01*
X88906200Y-85994304D01*
X88906200Y-86245696D01*
X88857157Y-86492254D01*
X88760955Y-86724506D01*
X88621288Y-86933532D01*
X88443532Y-87111288D01*
X88234506Y-87250955D01*
X88002254Y-87347157D01*
X87755696Y-87396200D01*
X87504304Y-87396200D01*
X87257746Y-87347157D01*
X87025494Y-87250955D01*
X86816468Y-87111288D01*
X86638712Y-86933532D01*
X86499045Y-86724506D01*
X86402843Y-86492254D01*
X86353800Y-86245696D01*
X86353800Y-85994304D01*
X86402843Y-85747746D01*
X86499045Y-85515494D01*
X86638712Y-85306468D01*
X86816468Y-85128712D01*
X87025494Y-84989045D01*
X87257746Y-84892843D01*
X87504304Y-84843800D01*
X87755696Y-84843800D01*
X88002254Y-84892843D01*
X88002254Y-84892843D01*
G37*
G36*
X79112254Y-84892843D02*
X79344506Y-84989045D01*
X79553532Y-85128712D01*
X79731288Y-85306468D01*
X79870955Y-85515494D01*
X79967157Y-85747746D01*
X80016200Y-85994304D01*
X80016200Y-86245696D01*
X79967157Y-86492254D01*
X79870955Y-86724506D01*
X79731288Y-86933532D01*
X79553532Y-87111288D01*
X79344506Y-87250955D01*
X79112254Y-87347157D01*
X78865696Y-87396200D01*
X78614304Y-87396200D01*
X78367746Y-87347157D01*
X78135494Y-87250955D01*
X77926468Y-87111288D01*
X77748712Y-86933532D01*
X77609045Y-86724506D01*
X77512843Y-86492254D01*
X77463800Y-86245696D01*
X77463800Y-85994304D01*
X77512843Y-85747746D01*
X77609045Y-85515494D01*
X77748712Y-85306468D01*
X77926468Y-85128712D01*
X78135494Y-84989045D01*
X78367746Y-84892843D01*
X78614304Y-84843800D01*
X78865696Y-84843800D01*
X79112254Y-84892843D01*
X79112254Y-84892843D01*
G37*
G36*
X70222254Y-84892843D02*
X70454506Y-84989045D01*
X70663532Y-85128712D01*
X70841288Y-85306468D01*
X70980955Y-85515494D01*
X71077157Y-85747746D01*
X71126200Y-85994304D01*
X71126200Y-86245696D01*
X71077157Y-86492254D01*
X70980955Y-86724506D01*
X70841288Y-86933532D01*
X70663532Y-87111288D01*
X70454506Y-87250955D01*
X70222254Y-87347157D01*
X69975696Y-87396200D01*
X69724304Y-87396200D01*
X69477746Y-87347157D01*
X69245494Y-87250955D01*
X69036468Y-87111288D01*
X68858712Y-86933532D01*
X68719045Y-86724506D01*
X68622843Y-86492254D01*
X68573800Y-86245696D01*
X68573800Y-85994304D01*
X68622843Y-85747746D01*
X68719045Y-85515494D01*
X68858712Y-85306468D01*
X69036468Y-85128712D01*
X69245494Y-84989045D01*
X69477746Y-84892843D01*
X69724304Y-84843800D01*
X69975696Y-84843800D01*
X70222254Y-84892843D01*
X70222254Y-84892843D01*
G37*
G36*
X95156214Y-84690342D02*
X95400296Y-84791444D01*
X95619968Y-84938224D01*
X95806776Y-85125032D01*
X95953556Y-85344704D01*
X96054658Y-85588786D01*
X96106200Y-85847903D01*
X96106200Y-86112097D01*
X96054658Y-86371214D01*
X95953556Y-86615296D01*
X95806776Y-86834968D01*
X95619968Y-87021776D01*
X95400296Y-87168556D01*
X95156214Y-87269658D01*
X94897097Y-87321200D01*
X94632903Y-87321200D01*
X94373786Y-87269658D01*
X94129704Y-87168556D01*
X93910032Y-87021776D01*
X93723224Y-86834968D01*
X93576444Y-86615296D01*
X93475342Y-86371214D01*
X93423800Y-86112097D01*
X93423800Y-85847903D01*
X93475342Y-85588786D01*
X93576444Y-85344704D01*
X93723224Y-85125032D01*
X93910032Y-84938224D01*
X94129704Y-84791444D01*
X94373786Y-84690342D01*
X94632903Y-84638800D01*
X94897097Y-84638800D01*
X95156214Y-84690342D01*
X95156214Y-84690342D01*
G37*
G36*
X141432017Y-84287068D02*
X141574133Y-84315337D01*
X141841875Y-84426239D01*
X142082836Y-84587244D01*
X142287756Y-84792164D01*
X142448761Y-85033125D01*
X142559663Y-85300867D01*
X142616200Y-85585099D01*
X142616200Y-85874901D01*
X142559663Y-86159133D01*
X142448761Y-86426875D01*
X142287756Y-86667836D01*
X142082836Y-86872756D01*
X141841875Y-87033761D01*
X141574133Y-87144663D01*
X141454014Y-87168556D01*
X141289902Y-87201200D01*
X141000098Y-87201200D01*
X140835986Y-87168556D01*
X140715867Y-87144663D01*
X140448125Y-87033761D01*
X140207164Y-86872756D01*
X140002244Y-86667836D01*
X139841239Y-86426875D01*
X139730337Y-86159133D01*
X139673800Y-85874901D01*
X139673800Y-85585099D01*
X139730337Y-85300867D01*
X139841239Y-85033125D01*
X140002244Y-84792164D01*
X140207164Y-84587244D01*
X140448125Y-84426239D01*
X140715867Y-84315337D01*
X140857983Y-84287068D01*
X141000098Y-84258800D01*
X141289902Y-84258800D01*
X141432017Y-84287068D01*
X141432017Y-84287068D01*
G37*
G36*
X174631200Y-87001200D02*
X172078800Y-87001200D01*
X172078800Y-84448800D01*
X174631200Y-84448800D01*
X174631200Y-87001200D01*
X174631200Y-87001200D01*
G37*
G36*
X154946200Y-87001200D02*
X152393800Y-87001200D01*
X152393800Y-84448800D01*
X154946200Y-84448800D01*
X154946200Y-87001200D01*
X154946200Y-87001200D01*
G37*
G36*
X98704991Y-74907609D02*
X99172919Y-75101431D01*
X99172920Y-75101432D01*
X99594044Y-75382818D01*
X99952182Y-75740956D01*
X100139773Y-76021705D01*
X100233569Y-76162081D01*
X100427391Y-76630009D01*
X100526200Y-77126757D01*
X100526200Y-77633243D01*
X100427391Y-78129991D01*
X100233569Y-78597919D01*
X100206262Y-78638787D01*
X100194711Y-78660397D01*
X100187598Y-78683847D01*
X100185196Y-78708233D01*
X100187598Y-78732619D01*
X100194711Y-78756068D01*
X100206262Y-78777679D01*
X100221808Y-78796621D01*
X100240750Y-78812167D01*
X100262360Y-78823718D01*
X100285810Y-78830831D01*
X100310196Y-78833233D01*
X100334582Y-78830831D01*
X100358031Y-78823718D01*
X100379642Y-78812167D01*
X100398584Y-78796621D01*
X100448355Y-78746850D01*
X100714707Y-78568880D01*
X100888069Y-78497071D01*
X101010655Y-78446294D01*
X101167744Y-78415047D01*
X101324832Y-78383800D01*
X101645168Y-78383800D01*
X101802256Y-78415047D01*
X101959345Y-78446294D01*
X102081931Y-78497071D01*
X102255293Y-78568880D01*
X102521645Y-78746850D01*
X102748150Y-78973355D01*
X102926120Y-79239707D01*
X103048706Y-79535656D01*
X103111200Y-79849832D01*
X103111200Y-80170168D01*
X103048706Y-80484344D01*
X102926120Y-80780293D01*
X102748150Y-81046645D01*
X102521645Y-81273150D01*
X102255293Y-81451120D01*
X102182673Y-81481200D01*
X101959345Y-81573706D01*
X101802256Y-81604953D01*
X101645168Y-81636200D01*
X101324832Y-81636200D01*
X101167744Y-81604953D01*
X101010655Y-81573706D01*
X100787327Y-81481200D01*
X100714707Y-81451120D01*
X100448355Y-81273150D01*
X100221850Y-81046645D01*
X100043880Y-80780293D01*
X99921294Y-80484344D01*
X99858800Y-80170168D01*
X99858800Y-79849832D01*
X99921294Y-79535656D01*
X100024268Y-79287054D01*
X100031381Y-79263605D01*
X100033783Y-79239219D01*
X100031381Y-79214833D01*
X100024268Y-79191384D01*
X100012717Y-79169773D01*
X99997171Y-79150831D01*
X99978229Y-79135285D01*
X99956618Y-79123734D01*
X99933169Y-79116621D01*
X99908783Y-79114219D01*
X99884397Y-79116621D01*
X99860948Y-79123734D01*
X99839337Y-79135285D01*
X99820395Y-79150831D01*
X99594044Y-79377182D01*
X99408438Y-79501200D01*
X99172919Y-79658569D01*
X98704991Y-79852391D01*
X98208243Y-79951200D01*
X97701757Y-79951200D01*
X97205009Y-79852391D01*
X96737081Y-79658569D01*
X96501562Y-79501200D01*
X96315956Y-79377182D01*
X95957818Y-79019044D01*
X95748808Y-78706239D01*
X95676431Y-78597919D01*
X95482609Y-78129991D01*
X95383800Y-77633243D01*
X95383800Y-77126757D01*
X95482609Y-76630009D01*
X95676431Y-76162081D01*
X95770227Y-76021705D01*
X95957818Y-75740956D01*
X96315956Y-75382818D01*
X96737080Y-75101432D01*
X96737081Y-75101431D01*
X97205009Y-74907609D01*
X97701757Y-74808800D01*
X98208243Y-74808800D01*
X98704991Y-74907609D01*
X98704991Y-74907609D01*
G37*
G36*
X138704991Y-74907609D02*
X139172919Y-75101431D01*
X139172920Y-75101432D01*
X139594044Y-75382818D01*
X139952182Y-75740956D01*
X140139773Y-76021705D01*
X140233569Y-76162081D01*
X140427391Y-76630009D01*
X140526200Y-77126757D01*
X140526200Y-77633243D01*
X140427391Y-78129991D01*
X140233569Y-78597919D01*
X140161192Y-78706239D01*
X139952182Y-79019044D01*
X139594044Y-79377182D01*
X139408438Y-79501200D01*
X139172919Y-79658569D01*
X138704991Y-79852391D01*
X138208243Y-79951200D01*
X137701757Y-79951200D01*
X137205009Y-79852391D01*
X136737081Y-79658569D01*
X136501562Y-79501200D01*
X136315956Y-79377182D01*
X136089605Y-79150831D01*
X136070663Y-79135285D01*
X136049052Y-79123734D01*
X136025603Y-79116621D01*
X136001217Y-79114219D01*
X135976831Y-79116621D01*
X135953382Y-79123734D01*
X135931771Y-79135285D01*
X135912829Y-79150831D01*
X135897283Y-79169773D01*
X135885732Y-79191384D01*
X135878619Y-79214833D01*
X135876217Y-79239219D01*
X135878619Y-79263605D01*
X135885732Y-79287054D01*
X135988706Y-79535656D01*
X136051200Y-79849832D01*
X136051200Y-80170168D01*
X135988706Y-80484344D01*
X135866120Y-80780293D01*
X135688150Y-81046645D01*
X135461645Y-81273150D01*
X135195293Y-81451120D01*
X135122673Y-81481200D01*
X134899345Y-81573706D01*
X134742256Y-81604953D01*
X134585168Y-81636200D01*
X134264832Y-81636200D01*
X134107744Y-81604953D01*
X133950655Y-81573706D01*
X133727327Y-81481200D01*
X133654707Y-81451120D01*
X133388355Y-81273150D01*
X133161850Y-81046645D01*
X132983880Y-80780293D01*
X132861294Y-80484344D01*
X132798800Y-80170168D01*
X132798800Y-79849832D01*
X132861294Y-79535656D01*
X132983880Y-79239707D01*
X133161850Y-78973355D01*
X133388355Y-78746850D01*
X133654707Y-78568880D01*
X133828069Y-78497071D01*
X133950655Y-78446294D01*
X134107744Y-78415047D01*
X134264832Y-78383800D01*
X134585168Y-78383800D01*
X134742256Y-78415047D01*
X134899345Y-78446294D01*
X135021931Y-78497071D01*
X135195293Y-78568880D01*
X135461645Y-78746850D01*
X135511416Y-78796621D01*
X135530358Y-78812167D01*
X135551969Y-78823718D01*
X135575418Y-78830831D01*
X135599804Y-78833233D01*
X135624190Y-78830831D01*
X135647639Y-78823718D01*
X135669250Y-78812167D01*
X135688192Y-78796621D01*
X135703738Y-78777679D01*
X135715289Y-78756068D01*
X135722402Y-78732619D01*
X135724804Y-78708233D01*
X135722402Y-78683847D01*
X135715289Y-78660398D01*
X135703738Y-78638787D01*
X135676431Y-78597919D01*
X135482609Y-78129991D01*
X135383800Y-77633243D01*
X135383800Y-77126757D01*
X135482609Y-76630009D01*
X135676431Y-76162081D01*
X135770227Y-76021705D01*
X135957818Y-75740956D01*
X136315956Y-75382818D01*
X136737080Y-75101432D01*
X136737081Y-75101431D01*
X137205009Y-74907609D01*
X137701757Y-74808800D01*
X138208243Y-74808800D01*
X138704991Y-74907609D01*
X138704991Y-74907609D01*
G37*
G36*
X125952017Y-78567068D02*
X126094133Y-78595337D01*
X126361875Y-78706239D01*
X126602836Y-78867244D01*
X126807756Y-79072164D01*
X126968761Y-79313125D01*
X127060936Y-79535656D01*
X127079663Y-79580868D01*
X127136200Y-79865098D01*
X127136200Y-80154902D01*
X127133163Y-80170168D01*
X127079663Y-80439133D01*
X126968761Y-80706875D01*
X126807756Y-80947836D01*
X126602836Y-81152756D01*
X126361875Y-81313761D01*
X126094133Y-81424663D01*
X125961129Y-81451119D01*
X125809902Y-81481200D01*
X125520098Y-81481200D01*
X125368871Y-81451119D01*
X125235867Y-81424663D01*
X124968125Y-81313761D01*
X124727164Y-81152756D01*
X124522244Y-80947836D01*
X124361239Y-80706875D01*
X124250337Y-80439133D01*
X124196837Y-80170168D01*
X124193800Y-80154902D01*
X124193800Y-79865098D01*
X124250337Y-79580868D01*
X124269064Y-79535656D01*
X124361239Y-79313125D01*
X124522244Y-79072164D01*
X124727164Y-78867244D01*
X124968125Y-78706239D01*
X125235867Y-78595337D01*
X125377983Y-78567068D01*
X125520098Y-78538800D01*
X125809902Y-78538800D01*
X125952017Y-78567068D01*
X125952017Y-78567068D01*
G37*
G36*
X154042254Y-76997843D02*
X154274506Y-77094045D01*
X154483532Y-77233712D01*
X154661288Y-77411468D01*
X154800955Y-77620494D01*
X154897157Y-77852746D01*
X154946200Y-78099304D01*
X154946200Y-78350696D01*
X154897157Y-78597254D01*
X154800955Y-78829506D01*
X154661288Y-79038532D01*
X154483532Y-79216288D01*
X154274506Y-79355955D01*
X154042254Y-79452157D01*
X153795696Y-79501200D01*
X153544304Y-79501200D01*
X153297746Y-79452157D01*
X153065494Y-79355955D01*
X152856468Y-79216288D01*
X152678712Y-79038532D01*
X152539045Y-78829506D01*
X152442843Y-78597254D01*
X152393800Y-78350696D01*
X152393800Y-78099304D01*
X152442843Y-77852746D01*
X152539045Y-77620494D01*
X152678712Y-77411468D01*
X152856468Y-77233712D01*
X153065494Y-77094045D01*
X153297746Y-76997843D01*
X153544304Y-76948800D01*
X153795696Y-76948800D01*
X154042254Y-76997843D01*
X154042254Y-76997843D01*
G37*
G36*
X173727254Y-76997843D02*
X173959506Y-77094045D01*
X174168532Y-77233712D01*
X174346288Y-77411468D01*
X174485955Y-77620494D01*
X174582157Y-77852746D01*
X174631200Y-78099304D01*
X174631200Y-78350696D01*
X174582157Y-78597254D01*
X174485955Y-78829506D01*
X174346288Y-79038532D01*
X174168532Y-79216288D01*
X173959506Y-79355955D01*
X173727254Y-79452157D01*
X173480696Y-79501200D01*
X173229304Y-79501200D01*
X172982746Y-79452157D01*
X172750494Y-79355955D01*
X172541468Y-79216288D01*
X172363712Y-79038532D01*
X172224045Y-78829506D01*
X172127843Y-78597254D01*
X172078800Y-78350696D01*
X172078800Y-78099304D01*
X172127843Y-77852746D01*
X172224045Y-77620494D01*
X172363712Y-77411468D01*
X172541468Y-77233712D01*
X172750494Y-77094045D01*
X172982746Y-76997843D01*
X173229304Y-76948800D01*
X173480696Y-76948800D01*
X173727254Y-76997843D01*
X173727254Y-76997843D01*
G37*
G36*
X190145466Y-69540974D02*
X190514359Y-69614351D01*
X190919501Y-69782167D01*
X191284120Y-70025797D01*
X191594203Y-70335880D01*
X191837833Y-70700499D01*
X192005649Y-71105641D01*
X192091200Y-71535738D01*
X192091200Y-71974262D01*
X192005649Y-72404359D01*
X191837833Y-72809501D01*
X191594203Y-73174120D01*
X191284120Y-73484203D01*
X190919501Y-73727833D01*
X190514359Y-73895649D01*
X190145466Y-73969026D01*
X190084263Y-73981200D01*
X189645737Y-73981200D01*
X189584534Y-73969026D01*
X189215641Y-73895649D01*
X188810499Y-73727833D01*
X188445880Y-73484203D01*
X188135797Y-73174120D01*
X187892167Y-72809501D01*
X187724351Y-72404359D01*
X187638800Y-71974262D01*
X187638800Y-71535738D01*
X187724351Y-71105641D01*
X187892167Y-70700499D01*
X188135797Y-70335880D01*
X188445880Y-70025797D01*
X188810499Y-69782167D01*
X189215641Y-69614351D01*
X189584534Y-69540974D01*
X189645737Y-69528800D01*
X190084263Y-69528800D01*
X190145466Y-69540974D01*
X190145466Y-69540974D01*
G37*
G36*
X61875466Y-69540974D02*
X62244359Y-69614351D01*
X62649501Y-69782167D01*
X63014120Y-70025797D01*
X63324203Y-70335880D01*
X63567833Y-70700499D01*
X63735649Y-71105641D01*
X63821200Y-71535738D01*
X63821200Y-71974262D01*
X63735649Y-72404359D01*
X63567833Y-72809501D01*
X63324203Y-73174120D01*
X63014120Y-73484203D01*
X62649501Y-73727833D01*
X62244359Y-73895649D01*
X61875466Y-73969026D01*
X61814263Y-73981200D01*
X61375737Y-73981200D01*
X61314534Y-73969026D01*
X60945641Y-73895649D01*
X60540499Y-73727833D01*
X60175880Y-73484203D01*
X59865797Y-73174120D01*
X59622167Y-72809501D01*
X59454351Y-72404359D01*
X59368800Y-71974262D01*
X59368800Y-71535738D01*
X59454351Y-71105641D01*
X59622167Y-70700499D01*
X59865797Y-70335880D01*
X60175880Y-70025797D01*
X60540499Y-69782167D01*
X60945641Y-69614351D01*
X61314534Y-69540974D01*
X61375737Y-69528800D01*
X61814263Y-69528800D01*
X61875466Y-69540974D01*
X61875466Y-69540974D01*
G37*
G36*
X88002254Y-69892843D02*
X88234506Y-69989045D01*
X88443532Y-70128712D01*
X88621288Y-70306468D01*
X88760955Y-70515494D01*
X88857157Y-70747746D01*
X88906200Y-70994304D01*
X88906200Y-71245696D01*
X88857157Y-71492254D01*
X88760955Y-71724506D01*
X88621288Y-71933532D01*
X88443532Y-72111288D01*
X88234506Y-72250955D01*
X88002254Y-72347157D01*
X87755696Y-72396200D01*
X87504304Y-72396200D01*
X87257746Y-72347157D01*
X87025494Y-72250955D01*
X86816468Y-72111288D01*
X86638712Y-71933532D01*
X86499045Y-71724506D01*
X86402843Y-71492254D01*
X86353800Y-71245696D01*
X86353800Y-70994304D01*
X86402843Y-70747746D01*
X86499045Y-70515494D01*
X86638712Y-70306468D01*
X86816468Y-70128712D01*
X87025494Y-69989045D01*
X87257746Y-69892843D01*
X87504304Y-69843800D01*
X87755696Y-69843800D01*
X88002254Y-69892843D01*
X88002254Y-69892843D01*
G37*
G36*
X70222254Y-69892843D02*
X70454506Y-69989045D01*
X70663532Y-70128712D01*
X70841288Y-70306468D01*
X70980955Y-70515494D01*
X71077157Y-70747746D01*
X71126200Y-70994304D01*
X71126200Y-71245696D01*
X71077157Y-71492254D01*
X70980955Y-71724506D01*
X70841288Y-71933532D01*
X70663532Y-72111288D01*
X70454506Y-72250955D01*
X70222254Y-72347157D01*
X69975696Y-72396200D01*
X69724304Y-72396200D01*
X69477746Y-72347157D01*
X69245494Y-72250955D01*
X69036468Y-72111288D01*
X68858712Y-71933532D01*
X68719045Y-71724506D01*
X68622843Y-71492254D01*
X68573800Y-71245696D01*
X68573800Y-70994304D01*
X68622843Y-70747746D01*
X68719045Y-70515494D01*
X68858712Y-70306468D01*
X69036468Y-70128712D01*
X69245494Y-69989045D01*
X69477746Y-69892843D01*
X69724304Y-69843800D01*
X69975696Y-69843800D01*
X70222254Y-69892843D01*
X70222254Y-69892843D01*
G37*
G36*
X79112254Y-69892843D02*
X79344506Y-69989045D01*
X79553532Y-70128712D01*
X79731288Y-70306468D01*
X79870955Y-70515494D01*
X79967157Y-70747746D01*
X80016200Y-70994304D01*
X80016200Y-71245696D01*
X79967157Y-71492254D01*
X79870955Y-71724506D01*
X79731288Y-71933532D01*
X79553532Y-72111288D01*
X79344506Y-72250955D01*
X79112254Y-72347157D01*
X78865696Y-72396200D01*
X78614304Y-72396200D01*
X78367746Y-72347157D01*
X78135494Y-72250955D01*
X77926468Y-72111288D01*
X77748712Y-71933532D01*
X77609045Y-71724506D01*
X77512843Y-71492254D01*
X77463800Y-71245696D01*
X77463800Y-70994304D01*
X77512843Y-70747746D01*
X77609045Y-70515494D01*
X77748712Y-70306468D01*
X77926468Y-70128712D01*
X78135494Y-69989045D01*
X78367746Y-69892843D01*
X78614304Y-69843800D01*
X78865696Y-69843800D01*
X79112254Y-69892843D01*
X79112254Y-69892843D01*
G37*
M02*
