M48
;DRILL file {KiCad (5.0.2)-1} date 2/8/2019 5:58:08 PM
;FORMAT={-:-/ absolute / inch / decimal}
FMAT,2
INCH,TZ
T1C0.0157
T2C0.0394
T3C0.0472
T4C0.0512
T5C0.0598
T6C0.0799
T7C0.1161
%
G90
G05
T1
X3.625Y-4.9
X3.875Y-3.675
X3.875Y-3.825
X4.425Y-4.825
X5.15Y-5.225
T2
X6.45Y-4.5781
X6.45Y-4.775
X6.975Y-4.5781
X6.975Y-4.775
X6.775Y-5.175
X6.875Y-5.175
X6.975Y-5.175
X7.075Y-5.175
X7.175Y-5.175
T3
X3.45Y-2.8
X3.45Y-3.3906
X6.825Y-3.0797
X6.825Y-3.375
X6.85Y-3.875
X6.85Y-4.1703
X3.1Y-2.8
X3.1Y-3.3906
X6.05Y-3.0797
X6.05Y-3.375
X2.75Y-2.8
X2.75Y-3.3906
T4
X2.675Y-4.25
X2.675Y-4.6437
X3.2Y-3.7892
X3.2Y-4.675
X7.45Y-3.45
X7.45Y-3.8437
X7.45Y-4.2374
X7.45Y-4.6311
T5
X3.7309Y-3.6457
X3.7309Y-3.7543
X3.7309Y-3.8626
T6
X3.7309Y-3.385
X3.7309Y-4.015
X4.3404Y-4.25
X4.9474Y-3.15
X5.5569Y-3.3752
X5.5569Y-3.5917
X5.5569Y-3.8083
X5.5569Y-4.0248
T7
X3.8565Y-3.0465
X3.8565Y-4.3535
X5.4313Y-3.0465
X5.4313Y-4.3535
T0
M30
