G04 #@! TF.GenerationSoftware,KiCad,Pcbnew,(5.0.2)-1*
G04 #@! TF.CreationDate,2019-02-08T17:58:05-05:00*
G04 #@! TF.ProjectId,DC_DCBoard,44435f44-4342-46f6-9172-642e6b696361,rev?*
G04 #@! TF.SameCoordinates,Original*
G04 #@! TF.FileFunction,Copper,L2,Bot*
G04 #@! TF.FilePolarity,Positive*
%FSLAX46Y46*%
G04 Gerber Fmt 4.6, Leading zero omitted, Abs format (unit mm)*
G04 Created by KiCad (PCBNEW (5.0.2)-1) date 2/8/2019 5:58:05 PM*
%MOMM*%
%LPD*%
G01*
G04 APERTURE LIST*
G04 #@! TA.AperFunction,ComponentPad*
%ADD10C,3.000000*%
G04 #@! TD*
G04 #@! TA.AperFunction,ComponentPad*
%ADD11C,4.990000*%
G04 #@! TD*
G04 #@! TA.AperFunction,ComponentPad*
%ADD12C,2.790000*%
G04 #@! TD*
G04 #@! TA.AperFunction,ComponentPad*
%ADD13C,2.020000*%
G04 #@! TD*
G04 #@! TA.AperFunction,ComponentPad*
%ADD14C,2.530000*%
G04 #@! TD*
G04 #@! TA.AperFunction,ComponentPad*
%ADD15C,2.400000*%
G04 #@! TD*
G04 #@! TA.AperFunction,ComponentPad*
%ADD16R,2.400000X2.400000*%
G04 #@! TD*
G04 #@! TA.AperFunction,ComponentPad*
%ADD17C,2.000000*%
G04 #@! TD*
G04 #@! TA.AperFunction,ComponentPad*
%ADD18R,2.000000X2.000000*%
G04 #@! TD*
G04 #@! TA.AperFunction,ComponentPad*
%ADD19C,2.600000*%
G04 #@! TD*
G04 #@! TA.AperFunction,ComponentPad*
%ADD20R,2.600000X2.600000*%
G04 #@! TD*
G04 #@! TA.AperFunction,Conductor*
%ADD21C,0.100000*%
G04 #@! TD*
G04 #@! TA.AperFunction,SMDPad,CuDef*
%ADD22C,0.875000*%
G04 #@! TD*
G04 #@! TA.AperFunction,SMDPad,CuDef*
%ADD23R,2.000000X1.780000*%
G04 #@! TD*
G04 #@! TA.AperFunction,ComponentPad*
%ADD24O,1.700000X1.700000*%
G04 #@! TD*
G04 #@! TA.AperFunction,ComponentPad*
%ADD25R,1.700000X1.700000*%
G04 #@! TD*
G04 #@! TA.AperFunction,ViaPad*
%ADD26C,0.800000*%
G04 #@! TD*
G04 #@! TA.AperFunction,Conductor*
%ADD27C,0.635000*%
G04 #@! TD*
G04 #@! TA.AperFunction,Conductor*
%ADD28C,0.254000*%
G04 #@! TD*
G04 APERTURE END LIST*
D10*
G04 #@! TO.P,F1,1*
G04 #@! TO.N,Net-(F1-Pad1)*
X81280000Y-118745000D03*
G04 #@! TO.P,F1,2*
G04 #@! TO.N,/HV+*
X81280000Y-96245000D03*
G04 #@! TD*
D11*
G04 #@! TO.P,U1,*
G04 #@! TO.N,*
X97955000Y-110580000D03*
X97955000Y-77380000D03*
X137955000Y-110580000D03*
X137955000Y-77380000D03*
D12*
X110245000Y-107950000D03*
X125665000Y-80010000D03*
G04 #@! TO.P,U1,9*
G04 #@! TO.N,Net-(C6-Pad1)*
X141145000Y-85730000D03*
G04 #@! TO.P,U1,8*
G04 #@! TO.N,GND*
X141145000Y-91230000D03*
G04 #@! TO.P,U1,7*
G04 #@! TO.N,Net-(C6-Pad1)*
X141145000Y-96730000D03*
G04 #@! TO.P,U1,6*
G04 #@! TO.N,GND*
X141145000Y-102230000D03*
D13*
G04 #@! TO.P,U1,4*
G04 #@! TO.N,/FAULT*
X94765000Y-98110000D03*
G04 #@! TO.P,U1,3*
G04 #@! TO.N,/EN*
X94765000Y-95360000D03*
G04 #@! TO.P,U1,2*
G04 #@! TO.N,/TRIM*
X94765000Y-92600000D03*
D14*
G04 #@! TO.P,U1,5*
G04 #@! TO.N,/HV-*
X94765000Y-101980000D03*
G04 #@! TO.P,U1,1*
G04 #@! TO.N,Net-(C1-Pad1)*
X94765000Y-85980000D03*
G04 #@! TD*
D15*
G04 #@! TO.P,C1,2*
G04 #@! TO.N,/HV-*
X87630000Y-86120000D03*
G04 #@! TO.P,C1,1*
G04 #@! TO.N,Net-(C1-Pad1)*
X87630000Y-71120000D03*
G04 #@! TD*
G04 #@! TO.P,C2,2*
G04 #@! TO.N,/HV-*
X69850000Y-86120000D03*
G04 #@! TO.P,C2,1*
G04 #@! TO.N,Net-(C1-Pad1)*
X69850000Y-71120000D03*
G04 #@! TD*
G04 #@! TO.P,C3,2*
G04 #@! TO.N,/HV-*
X78740000Y-86120000D03*
G04 #@! TO.P,C3,1*
G04 #@! TO.N,Net-(C1-Pad1)*
X78740000Y-71120000D03*
G04 #@! TD*
G04 #@! TO.P,C6,2*
G04 #@! TO.N,GND*
X153670000Y-78225000D03*
D16*
G04 #@! TO.P,C6,1*
G04 #@! TO.N,Net-(C6-Pad1)*
X153670000Y-85725000D03*
G04 #@! TD*
D15*
G04 #@! TO.P,C7,2*
G04 #@! TO.N,GND*
X173355000Y-78225000D03*
D16*
G04 #@! TO.P,C7,1*
G04 #@! TO.N,+12V*
X173355000Y-85725000D03*
G04 #@! TD*
D15*
G04 #@! TO.P,C8,2*
G04 #@! TO.N,GND*
X173990000Y-105925000D03*
D16*
G04 #@! TO.P,C8,1*
G04 #@! TO.N,+12V*
X173990000Y-98425000D03*
G04 #@! TD*
D17*
G04 #@! TO.P,C9,2*
G04 #@! TO.N,GND*
X177165000Y-116285000D03*
D18*
G04 #@! TO.P,C9,1*
G04 #@! TO.N,+12V*
X177165000Y-121285000D03*
G04 #@! TD*
D17*
G04 #@! TO.P,C11,2*
G04 #@! TO.N,GND*
X163830000Y-116285000D03*
D18*
G04 #@! TO.P,C11,1*
G04 #@! TO.N,+12V*
X163830000Y-121285000D03*
G04 #@! TD*
D19*
G04 #@! TO.P,J1,2*
G04 #@! TO.N,/HV-*
X67945000Y-117950000D03*
D20*
G04 #@! TO.P,J1,1*
G04 #@! TO.N,Net-(F1-Pad1)*
X67945000Y-107950000D03*
G04 #@! TD*
D19*
G04 #@! TO.P,J2,4*
G04 #@! TO.N,GND*
X189230000Y-117630000D03*
G04 #@! TO.P,J2,3*
X189230000Y-107630000D03*
G04 #@! TO.P,J2,2*
G04 #@! TO.N,+12V*
X189230000Y-97630000D03*
D20*
G04 #@! TO.P,J2,1*
X189230000Y-87630000D03*
G04 #@! TD*
D21*
G04 #@! TO.N,Net-(R8-Pad2)*
G04 #@! TO.C,R8*
G36*
X126642691Y-96871053D02*
X126663926Y-96874203D01*
X126684750Y-96879419D01*
X126704962Y-96886651D01*
X126724368Y-96895830D01*
X126742781Y-96906866D01*
X126760024Y-96919654D01*
X126775930Y-96934070D01*
X126790346Y-96949976D01*
X126803134Y-96967219D01*
X126814170Y-96985632D01*
X126823349Y-97005038D01*
X126830581Y-97025250D01*
X126835797Y-97046074D01*
X126838947Y-97067309D01*
X126840000Y-97088750D01*
X126840000Y-97526250D01*
X126838947Y-97547691D01*
X126835797Y-97568926D01*
X126830581Y-97589750D01*
X126823349Y-97609962D01*
X126814170Y-97629368D01*
X126803134Y-97647781D01*
X126790346Y-97665024D01*
X126775930Y-97680930D01*
X126760024Y-97695346D01*
X126742781Y-97708134D01*
X126724368Y-97719170D01*
X126704962Y-97728349D01*
X126684750Y-97735581D01*
X126663926Y-97740797D01*
X126642691Y-97743947D01*
X126621250Y-97745000D01*
X126108750Y-97745000D01*
X126087309Y-97743947D01*
X126066074Y-97740797D01*
X126045250Y-97735581D01*
X126025038Y-97728349D01*
X126005632Y-97719170D01*
X125987219Y-97708134D01*
X125969976Y-97695346D01*
X125954070Y-97680930D01*
X125939654Y-97665024D01*
X125926866Y-97647781D01*
X125915830Y-97629368D01*
X125906651Y-97609962D01*
X125899419Y-97589750D01*
X125894203Y-97568926D01*
X125891053Y-97547691D01*
X125890000Y-97526250D01*
X125890000Y-97088750D01*
X125891053Y-97067309D01*
X125894203Y-97046074D01*
X125899419Y-97025250D01*
X125906651Y-97005038D01*
X125915830Y-96985632D01*
X125926866Y-96967219D01*
X125939654Y-96949976D01*
X125954070Y-96934070D01*
X125969976Y-96919654D01*
X125987219Y-96906866D01*
X126005632Y-96895830D01*
X126025038Y-96886651D01*
X126045250Y-96879419D01*
X126066074Y-96874203D01*
X126087309Y-96871053D01*
X126108750Y-96870000D01*
X126621250Y-96870000D01*
X126642691Y-96871053D01*
X126642691Y-96871053D01*
G37*
D22*
G04 #@! TD*
G04 #@! TO.P,R8,2*
G04 #@! TO.N,Net-(R8-Pad2)*
X126365000Y-97307500D03*
D21*
G04 #@! TO.N,/DC_DC_EN*
G04 #@! TO.C,R8*
G36*
X126642691Y-98446053D02*
X126663926Y-98449203D01*
X126684750Y-98454419D01*
X126704962Y-98461651D01*
X126724368Y-98470830D01*
X126742781Y-98481866D01*
X126760024Y-98494654D01*
X126775930Y-98509070D01*
X126790346Y-98524976D01*
X126803134Y-98542219D01*
X126814170Y-98560632D01*
X126823349Y-98580038D01*
X126830581Y-98600250D01*
X126835797Y-98621074D01*
X126838947Y-98642309D01*
X126840000Y-98663750D01*
X126840000Y-99101250D01*
X126838947Y-99122691D01*
X126835797Y-99143926D01*
X126830581Y-99164750D01*
X126823349Y-99184962D01*
X126814170Y-99204368D01*
X126803134Y-99222781D01*
X126790346Y-99240024D01*
X126775930Y-99255930D01*
X126760024Y-99270346D01*
X126742781Y-99283134D01*
X126724368Y-99294170D01*
X126704962Y-99303349D01*
X126684750Y-99310581D01*
X126663926Y-99315797D01*
X126642691Y-99318947D01*
X126621250Y-99320000D01*
X126108750Y-99320000D01*
X126087309Y-99318947D01*
X126066074Y-99315797D01*
X126045250Y-99310581D01*
X126025038Y-99303349D01*
X126005632Y-99294170D01*
X125987219Y-99283134D01*
X125969976Y-99270346D01*
X125954070Y-99255930D01*
X125939654Y-99240024D01*
X125926866Y-99222781D01*
X125915830Y-99204368D01*
X125906651Y-99184962D01*
X125899419Y-99164750D01*
X125894203Y-99143926D01*
X125891053Y-99122691D01*
X125890000Y-99101250D01*
X125890000Y-98663750D01*
X125891053Y-98642309D01*
X125894203Y-98621074D01*
X125899419Y-98600250D01*
X125906651Y-98580038D01*
X125915830Y-98560632D01*
X125926866Y-98542219D01*
X125939654Y-98524976D01*
X125954070Y-98509070D01*
X125969976Y-98494654D01*
X125987219Y-98481866D01*
X126005632Y-98470830D01*
X126025038Y-98461651D01*
X126045250Y-98454419D01*
X126066074Y-98449203D01*
X126087309Y-98446053D01*
X126108750Y-98445000D01*
X126621250Y-98445000D01*
X126642691Y-98446053D01*
X126642691Y-98446053D01*
G37*
D22*
G04 #@! TD*
G04 #@! TO.P,R8,1*
G04 #@! TO.N,/DC_DC_EN*
X126365000Y-98882500D03*
D21*
G04 #@! TO.N,Net-(R10-Pad2)*
G04 #@! TO.C,R10*
G36*
X126642691Y-89581053D02*
X126663926Y-89584203D01*
X126684750Y-89589419D01*
X126704962Y-89596651D01*
X126724368Y-89605830D01*
X126742781Y-89616866D01*
X126760024Y-89629654D01*
X126775930Y-89644070D01*
X126790346Y-89659976D01*
X126803134Y-89677219D01*
X126814170Y-89695632D01*
X126823349Y-89715038D01*
X126830581Y-89735250D01*
X126835797Y-89756074D01*
X126838947Y-89777309D01*
X126840000Y-89798750D01*
X126840000Y-90236250D01*
X126838947Y-90257691D01*
X126835797Y-90278926D01*
X126830581Y-90299750D01*
X126823349Y-90319962D01*
X126814170Y-90339368D01*
X126803134Y-90357781D01*
X126790346Y-90375024D01*
X126775930Y-90390930D01*
X126760024Y-90405346D01*
X126742781Y-90418134D01*
X126724368Y-90429170D01*
X126704962Y-90438349D01*
X126684750Y-90445581D01*
X126663926Y-90450797D01*
X126642691Y-90453947D01*
X126621250Y-90455000D01*
X126108750Y-90455000D01*
X126087309Y-90453947D01*
X126066074Y-90450797D01*
X126045250Y-90445581D01*
X126025038Y-90438349D01*
X126005632Y-90429170D01*
X125987219Y-90418134D01*
X125969976Y-90405346D01*
X125954070Y-90390930D01*
X125939654Y-90375024D01*
X125926866Y-90357781D01*
X125915830Y-90339368D01*
X125906651Y-90319962D01*
X125899419Y-90299750D01*
X125894203Y-90278926D01*
X125891053Y-90257691D01*
X125890000Y-90236250D01*
X125890000Y-89798750D01*
X125891053Y-89777309D01*
X125894203Y-89756074D01*
X125899419Y-89735250D01*
X125906651Y-89715038D01*
X125915830Y-89695632D01*
X125926866Y-89677219D01*
X125939654Y-89659976D01*
X125954070Y-89644070D01*
X125969976Y-89629654D01*
X125987219Y-89616866D01*
X126005632Y-89605830D01*
X126025038Y-89596651D01*
X126045250Y-89589419D01*
X126066074Y-89584203D01*
X126087309Y-89581053D01*
X126108750Y-89580000D01*
X126621250Y-89580000D01*
X126642691Y-89581053D01*
X126642691Y-89581053D01*
G37*
D22*
G04 #@! TD*
G04 #@! TO.P,R10,2*
G04 #@! TO.N,Net-(R10-Pad2)*
X126365000Y-90017500D03*
D21*
G04 #@! TO.N,/TRIM_EN*
G04 #@! TO.C,R10*
G36*
X126642691Y-91156053D02*
X126663926Y-91159203D01*
X126684750Y-91164419D01*
X126704962Y-91171651D01*
X126724368Y-91180830D01*
X126742781Y-91191866D01*
X126760024Y-91204654D01*
X126775930Y-91219070D01*
X126790346Y-91234976D01*
X126803134Y-91252219D01*
X126814170Y-91270632D01*
X126823349Y-91290038D01*
X126830581Y-91310250D01*
X126835797Y-91331074D01*
X126838947Y-91352309D01*
X126840000Y-91373750D01*
X126840000Y-91811250D01*
X126838947Y-91832691D01*
X126835797Y-91853926D01*
X126830581Y-91874750D01*
X126823349Y-91894962D01*
X126814170Y-91914368D01*
X126803134Y-91932781D01*
X126790346Y-91950024D01*
X126775930Y-91965930D01*
X126760024Y-91980346D01*
X126742781Y-91993134D01*
X126724368Y-92004170D01*
X126704962Y-92013349D01*
X126684750Y-92020581D01*
X126663926Y-92025797D01*
X126642691Y-92028947D01*
X126621250Y-92030000D01*
X126108750Y-92030000D01*
X126087309Y-92028947D01*
X126066074Y-92025797D01*
X126045250Y-92020581D01*
X126025038Y-92013349D01*
X126005632Y-92004170D01*
X125987219Y-91993134D01*
X125969976Y-91980346D01*
X125954070Y-91965930D01*
X125939654Y-91950024D01*
X125926866Y-91932781D01*
X125915830Y-91914368D01*
X125906651Y-91894962D01*
X125899419Y-91874750D01*
X125894203Y-91853926D01*
X125891053Y-91832691D01*
X125890000Y-91811250D01*
X125890000Y-91373750D01*
X125891053Y-91352309D01*
X125894203Y-91331074D01*
X125899419Y-91310250D01*
X125906651Y-91290038D01*
X125915830Y-91270632D01*
X125926866Y-91252219D01*
X125939654Y-91234976D01*
X125954070Y-91219070D01*
X125969976Y-91204654D01*
X125987219Y-91191866D01*
X126005632Y-91180830D01*
X126025038Y-91171651D01*
X126045250Y-91164419D01*
X126066074Y-91159203D01*
X126087309Y-91156053D01*
X126108750Y-91155000D01*
X126621250Y-91155000D01*
X126642691Y-91156053D01*
X126642691Y-91156053D01*
G37*
D22*
G04 #@! TD*
G04 #@! TO.P,R10,1*
G04 #@! TO.N,/TRIM_EN*
X126365000Y-91592500D03*
D23*
G04 #@! TO.P,U2,4*
G04 #@! TO.N,/TRIM*
X113345000Y-87630000D03*
G04 #@! TO.P,U2,2*
G04 #@! TO.N,GND*
X122875000Y-90170000D03*
G04 #@! TO.P,U2,3*
G04 #@! TO.N,/HV-*
X113345000Y-90170000D03*
G04 #@! TO.P,U2,1*
G04 #@! TO.N,Net-(R10-Pad2)*
X122875000Y-87630000D03*
G04 #@! TD*
G04 #@! TO.P,U4,4*
G04 #@! TO.N,/EN*
X113345000Y-94615000D03*
G04 #@! TO.P,U4,2*
G04 #@! TO.N,GND*
X122875000Y-97155000D03*
G04 #@! TO.P,U4,3*
G04 #@! TO.N,/HV-*
X113345000Y-97155000D03*
G04 #@! TO.P,U4,1*
G04 #@! TO.N,Net-(R8-Pad2)*
X122875000Y-94615000D03*
G04 #@! TD*
D24*
G04 #@! TO.P,J3,5*
G04 #@! TO.N,GND*
X172085000Y-131445000D03*
G04 #@! TO.P,J3,4*
G04 #@! TO.N,/DC_DC_FAULT*
X174625000Y-131445000D03*
G04 #@! TO.P,J3,3*
G04 #@! TO.N,/DC_DC_EN*
X177165000Y-131445000D03*
G04 #@! TO.P,J3,2*
G04 #@! TO.N,/TRIM_EN*
X179705000Y-131445000D03*
D25*
G04 #@! TO.P,J3,1*
G04 #@! TO.N,+5V*
X182245000Y-131445000D03*
G04 #@! TD*
D26*
G04 #@! TO.N,/HV-*
X98425000Y-93345000D03*
X98425000Y-97155000D03*
G04 #@! TO.N,GND*
X130810000Y-132715000D03*
G04 #@! TO.N,/TRIM*
X92075000Y-124460000D03*
G04 #@! TO.N,/FAULT*
X112395000Y-122555000D03*
G04 #@! TD*
D27*
G04 #@! TO.N,/HV-*
X102235000Y-97155000D02*
X98425000Y-97155000D01*
X113345000Y-97155000D02*
X102235000Y-97155000D01*
X99060000Y-92710000D02*
X98425000Y-93345000D01*
X104140000Y-92710000D02*
X99060000Y-92710000D01*
X113345000Y-90170000D02*
X106680000Y-90170000D01*
X106680000Y-90170000D02*
X104140000Y-92710000D01*
G04 #@! TO.N,GND*
X121354299Y-88759299D02*
X121354299Y-86290701D01*
X122875000Y-90170000D02*
X122765000Y-90170000D01*
X122765000Y-90170000D02*
X121354299Y-88759299D01*
X139750001Y-89835001D02*
X141145000Y-91230000D01*
X136134299Y-86219299D02*
X139750001Y-89835001D01*
X121425701Y-86219299D02*
X136134299Y-86219299D01*
X121354299Y-86290701D02*
X121425701Y-86219299D01*
X122875000Y-91695000D02*
X122875000Y-90170000D01*
X121354299Y-93215701D02*
X122875000Y-91695000D01*
X121354299Y-95744299D02*
X121354299Y-93215701D01*
X122765000Y-97155000D02*
X121354299Y-95744299D01*
X122875000Y-97155000D02*
X122765000Y-97155000D01*
X130810000Y-132715000D02*
X147320000Y-132715000D01*
G04 #@! TO.N,/TRIM*
X95774999Y-91590001D02*
X94765000Y-92600000D01*
X97135901Y-91590001D02*
X95774999Y-91590001D01*
X101095902Y-87630000D02*
X97135901Y-91590001D01*
X113345000Y-87630000D02*
X101095902Y-87630000D01*
X92075000Y-95290000D02*
X94765000Y-92600000D01*
X92075000Y-122715000D02*
X92075000Y-95290000D01*
X92075000Y-122715000D02*
X92075000Y-123190000D01*
X92075000Y-123190000D02*
X92075000Y-124460000D01*
G04 #@! TO.N,/FAULT*
X95774999Y-99119999D02*
X97849999Y-99119999D01*
X94765000Y-98110000D02*
X95774999Y-99119999D01*
X97849999Y-99119999D02*
X106045000Y-107315000D01*
X106045000Y-107315000D02*
X106045000Y-116205000D01*
X106045000Y-116205000D02*
X112395000Y-122555000D01*
G04 #@! TO.N,/DC_DC_EN*
X126365000Y-98882500D02*
X126365000Y-110490000D01*
X126365000Y-110490000D02*
X144780000Y-128905000D01*
X174625000Y-128905000D02*
X177165000Y-131445000D01*
X144780000Y-128905000D02*
X174625000Y-128905000D01*
G04 #@! TO.N,Net-(R8-Pad2)*
X123672500Y-94615000D02*
X126365000Y-97307500D01*
X122875000Y-94615000D02*
X123672500Y-94615000D01*
G04 #@! TO.N,/TRIM_EN*
X127360710Y-92588210D02*
X127360710Y-110215710D01*
X126365000Y-91592500D02*
X127360710Y-92588210D01*
X127360710Y-110215710D02*
X144780000Y-127635000D01*
X175895000Y-127635000D02*
X179705000Y-131445000D01*
X144780000Y-127635000D02*
X175895000Y-127635000D01*
G04 #@! TO.N,/EN*
X94765000Y-95360000D02*
X109745000Y-95360000D01*
X110490000Y-94615000D02*
X113345000Y-94615000D01*
X109745000Y-95360000D02*
X110490000Y-94615000D01*
G04 #@! TO.N,Net-(R10-Pad2)*
X123977500Y-87630000D02*
X126365000Y-90017500D01*
X122875000Y-87630000D02*
X123977500Y-87630000D01*
G04 #@! TD*
D28*
G04 #@! TO.N,GND*
G36*
X190565910Y-68115211D02*
X191241537Y-68313417D01*
X191867484Y-68635802D01*
X192421190Y-69070743D01*
X192882651Y-69602530D01*
X193235232Y-70211988D01*
X193466204Y-70877119D01*
X193570987Y-71599795D01*
X193575000Y-71763999D01*
X193575001Y-131410010D01*
X193504789Y-132145910D01*
X193306583Y-132821537D01*
X192984197Y-133447487D01*
X192549260Y-134001187D01*
X192017469Y-134462652D01*
X191408016Y-134815230D01*
X190742882Y-135046204D01*
X190020205Y-135150987D01*
X189856001Y-135155000D01*
X146812000Y-135155000D01*
X146812000Y-129857500D01*
X174230463Y-129857500D01*
X174357149Y-129984187D01*
X174045582Y-130046161D01*
X173554375Y-130374375D01*
X173226161Y-130865582D01*
X173110908Y-131445000D01*
X173226161Y-132024418D01*
X173554375Y-132515625D01*
X174045582Y-132843839D01*
X174478744Y-132930000D01*
X174771256Y-132930000D01*
X175204418Y-132843839D01*
X175695625Y-132515625D01*
X175895000Y-132217239D01*
X176094375Y-132515625D01*
X176585582Y-132843839D01*
X177018744Y-132930000D01*
X177311256Y-132930000D01*
X177744418Y-132843839D01*
X178235625Y-132515625D01*
X178435000Y-132217239D01*
X178634375Y-132515625D01*
X179125582Y-132843839D01*
X179558744Y-132930000D01*
X179851256Y-132930000D01*
X180284418Y-132843839D01*
X180775625Y-132515625D01*
X180787816Y-132497381D01*
X180796843Y-132542765D01*
X180937191Y-132752809D01*
X181147235Y-132893157D01*
X181395000Y-132942440D01*
X183095000Y-132942440D01*
X183342765Y-132893157D01*
X183552809Y-132752809D01*
X183693157Y-132542765D01*
X183742440Y-132295000D01*
X183742440Y-130891029D01*
X187080000Y-130891029D01*
X187080000Y-131998971D01*
X187503991Y-133022576D01*
X188287424Y-133806009D01*
X189311029Y-134230000D01*
X190418971Y-134230000D01*
X191442576Y-133806009D01*
X192226009Y-133022576D01*
X192650000Y-131998971D01*
X192650000Y-130891029D01*
X192226009Y-129867424D01*
X191442576Y-129083991D01*
X190418971Y-128660000D01*
X189311029Y-128660000D01*
X188287424Y-129083991D01*
X187503991Y-129867424D01*
X187080000Y-130891029D01*
X183742440Y-130891029D01*
X183742440Y-130595000D01*
X183693157Y-130347235D01*
X183552809Y-130137191D01*
X183342765Y-129996843D01*
X183095000Y-129947560D01*
X181395000Y-129947560D01*
X181147235Y-129996843D01*
X180937191Y-130137191D01*
X180796843Y-130347235D01*
X180787816Y-130392619D01*
X180775625Y-130374375D01*
X180284418Y-130046161D01*
X179851256Y-129960000D01*
X179567039Y-129960000D01*
X176634857Y-127027820D01*
X176581714Y-126948286D01*
X176266647Y-126737765D01*
X175988810Y-126682500D01*
X175895000Y-126663840D01*
X175801190Y-126682500D01*
X146812000Y-126682500D01*
X146812000Y-120285000D01*
X162182560Y-120285000D01*
X162182560Y-122285000D01*
X162231843Y-122532765D01*
X162372191Y-122742809D01*
X162582235Y-122883157D01*
X162830000Y-122932440D01*
X164830000Y-122932440D01*
X165077765Y-122883157D01*
X165287809Y-122742809D01*
X165428157Y-122532765D01*
X165477440Y-122285000D01*
X165477440Y-120285000D01*
X175517560Y-120285000D01*
X175517560Y-122285000D01*
X175566843Y-122532765D01*
X175707191Y-122742809D01*
X175917235Y-122883157D01*
X176165000Y-122932440D01*
X178165000Y-122932440D01*
X178412765Y-122883157D01*
X178622809Y-122742809D01*
X178763157Y-122532765D01*
X178812440Y-122285000D01*
X178812440Y-120285000D01*
X178763157Y-120037235D01*
X178622809Y-119827191D01*
X178412765Y-119686843D01*
X178165000Y-119637560D01*
X176165000Y-119637560D01*
X175917235Y-119686843D01*
X175707191Y-119827191D01*
X175566843Y-120037235D01*
X175517560Y-120285000D01*
X165477440Y-120285000D01*
X165428157Y-120037235D01*
X165287809Y-119827191D01*
X165077765Y-119686843D01*
X164830000Y-119637560D01*
X162830000Y-119637560D01*
X162582235Y-119686843D01*
X162372191Y-119827191D01*
X162231843Y-120037235D01*
X162182560Y-120285000D01*
X146812000Y-120285000D01*
X146812000Y-108585000D01*
X146802333Y-108536399D01*
X146757830Y-108480958D01*
X140416943Y-104042337D01*
X139192000Y-102817394D01*
X139192000Y-97319687D01*
X139424049Y-97879903D01*
X139995097Y-98450951D01*
X140741208Y-98760000D01*
X141548792Y-98760000D01*
X142294903Y-98450951D01*
X142865951Y-97879903D01*
X143137220Y-97225000D01*
X172142560Y-97225000D01*
X172142560Y-99625000D01*
X172191843Y-99872765D01*
X172332191Y-100082809D01*
X172542235Y-100223157D01*
X172790000Y-100272440D01*
X175190000Y-100272440D01*
X175437765Y-100223157D01*
X175647809Y-100082809D01*
X175788157Y-99872765D01*
X175837440Y-99625000D01*
X175837440Y-97245105D01*
X187295000Y-97245105D01*
X187295000Y-98014895D01*
X187589586Y-98726090D01*
X188133910Y-99270414D01*
X188845105Y-99565000D01*
X189614895Y-99565000D01*
X190326090Y-99270414D01*
X190870414Y-98726090D01*
X191165000Y-98014895D01*
X191165000Y-97245105D01*
X190870414Y-96533910D01*
X190326090Y-95989586D01*
X189614895Y-95695000D01*
X188845105Y-95695000D01*
X188133910Y-95989586D01*
X187589586Y-96533910D01*
X187295000Y-97245105D01*
X175837440Y-97245105D01*
X175837440Y-97225000D01*
X175788157Y-96977235D01*
X175647809Y-96767191D01*
X175437765Y-96626843D01*
X175190000Y-96577560D01*
X172790000Y-96577560D01*
X172542235Y-96626843D01*
X172332191Y-96767191D01*
X172191843Y-96977235D01*
X172142560Y-97225000D01*
X143137220Y-97225000D01*
X143175000Y-97133792D01*
X143175000Y-96326208D01*
X142865951Y-95580097D01*
X142294903Y-95009049D01*
X141548792Y-94700000D01*
X140741208Y-94700000D01*
X139995097Y-95009049D01*
X139424049Y-95580097D01*
X139192000Y-96140313D01*
X139192000Y-86319687D01*
X139424049Y-86879903D01*
X139995097Y-87450951D01*
X140741208Y-87760000D01*
X141548792Y-87760000D01*
X142294903Y-87450951D01*
X142865951Y-86879903D01*
X143175000Y-86133792D01*
X143175000Y-85326208D01*
X142865951Y-84580097D01*
X142810854Y-84525000D01*
X151822560Y-84525000D01*
X151822560Y-86925000D01*
X151871843Y-87172765D01*
X152012191Y-87382809D01*
X152222235Y-87523157D01*
X152470000Y-87572440D01*
X154870000Y-87572440D01*
X155117765Y-87523157D01*
X155327809Y-87382809D01*
X155468157Y-87172765D01*
X155517440Y-86925000D01*
X155517440Y-84525000D01*
X171507560Y-84525000D01*
X171507560Y-86925000D01*
X171556843Y-87172765D01*
X171697191Y-87382809D01*
X171907235Y-87523157D01*
X172155000Y-87572440D01*
X174555000Y-87572440D01*
X174802765Y-87523157D01*
X175012809Y-87382809D01*
X175153157Y-87172765D01*
X175202440Y-86925000D01*
X175202440Y-86330000D01*
X187282560Y-86330000D01*
X187282560Y-88930000D01*
X187331843Y-89177765D01*
X187472191Y-89387809D01*
X187682235Y-89528157D01*
X187930000Y-89577440D01*
X190530000Y-89577440D01*
X190777765Y-89528157D01*
X190987809Y-89387809D01*
X191128157Y-89177765D01*
X191177440Y-88930000D01*
X191177440Y-86330000D01*
X191128157Y-86082235D01*
X190987809Y-85872191D01*
X190777765Y-85731843D01*
X190530000Y-85682560D01*
X187930000Y-85682560D01*
X187682235Y-85731843D01*
X187472191Y-85872191D01*
X187331843Y-86082235D01*
X187282560Y-86330000D01*
X175202440Y-86330000D01*
X175202440Y-84525000D01*
X175153157Y-84277235D01*
X175012809Y-84067191D01*
X174802765Y-83926843D01*
X174555000Y-83877560D01*
X172155000Y-83877560D01*
X171907235Y-83926843D01*
X171697191Y-84067191D01*
X171556843Y-84277235D01*
X171507560Y-84525000D01*
X155517440Y-84525000D01*
X155468157Y-84277235D01*
X155327809Y-84067191D01*
X155117765Y-83926843D01*
X154870000Y-83877560D01*
X152470000Y-83877560D01*
X152222235Y-83926843D01*
X152012191Y-84067191D01*
X151871843Y-84277235D01*
X151822560Y-84525000D01*
X142810854Y-84525000D01*
X142294903Y-84009049D01*
X141548792Y-83700000D01*
X140741208Y-83700000D01*
X139995097Y-84009049D01*
X139424049Y-84580097D01*
X139192000Y-85140313D01*
X139192000Y-84517535D01*
X147397433Y-78205663D01*
X147430061Y-78168368D01*
X147447000Y-78105000D01*
X147447000Y-71201029D01*
X187080000Y-71201029D01*
X187080000Y-72308971D01*
X187503991Y-73332576D01*
X188287424Y-74116009D01*
X189311029Y-74540000D01*
X190418971Y-74540000D01*
X191442576Y-74116009D01*
X192226009Y-73332576D01*
X192650000Y-72308971D01*
X192650000Y-71201029D01*
X192226009Y-70177424D01*
X191442576Y-69393991D01*
X190418971Y-68970000D01*
X189311029Y-68970000D01*
X188287424Y-69393991D01*
X187503991Y-70177424D01*
X187080000Y-71201029D01*
X147447000Y-71201029D01*
X147447000Y-68045000D01*
X189830020Y-68045000D01*
X190565910Y-68115211D01*
X190565910Y-68115211D01*
G37*
X190565910Y-68115211D02*
X191241537Y-68313417D01*
X191867484Y-68635802D01*
X192421190Y-69070743D01*
X192882651Y-69602530D01*
X193235232Y-70211988D01*
X193466204Y-70877119D01*
X193570987Y-71599795D01*
X193575000Y-71763999D01*
X193575001Y-131410010D01*
X193504789Y-132145910D01*
X193306583Y-132821537D01*
X192984197Y-133447487D01*
X192549260Y-134001187D01*
X192017469Y-134462652D01*
X191408016Y-134815230D01*
X190742882Y-135046204D01*
X190020205Y-135150987D01*
X189856001Y-135155000D01*
X146812000Y-135155000D01*
X146812000Y-129857500D01*
X174230463Y-129857500D01*
X174357149Y-129984187D01*
X174045582Y-130046161D01*
X173554375Y-130374375D01*
X173226161Y-130865582D01*
X173110908Y-131445000D01*
X173226161Y-132024418D01*
X173554375Y-132515625D01*
X174045582Y-132843839D01*
X174478744Y-132930000D01*
X174771256Y-132930000D01*
X175204418Y-132843839D01*
X175695625Y-132515625D01*
X175895000Y-132217239D01*
X176094375Y-132515625D01*
X176585582Y-132843839D01*
X177018744Y-132930000D01*
X177311256Y-132930000D01*
X177744418Y-132843839D01*
X178235625Y-132515625D01*
X178435000Y-132217239D01*
X178634375Y-132515625D01*
X179125582Y-132843839D01*
X179558744Y-132930000D01*
X179851256Y-132930000D01*
X180284418Y-132843839D01*
X180775625Y-132515625D01*
X180787816Y-132497381D01*
X180796843Y-132542765D01*
X180937191Y-132752809D01*
X181147235Y-132893157D01*
X181395000Y-132942440D01*
X183095000Y-132942440D01*
X183342765Y-132893157D01*
X183552809Y-132752809D01*
X183693157Y-132542765D01*
X183742440Y-132295000D01*
X183742440Y-130891029D01*
X187080000Y-130891029D01*
X187080000Y-131998971D01*
X187503991Y-133022576D01*
X188287424Y-133806009D01*
X189311029Y-134230000D01*
X190418971Y-134230000D01*
X191442576Y-133806009D01*
X192226009Y-133022576D01*
X192650000Y-131998971D01*
X192650000Y-130891029D01*
X192226009Y-129867424D01*
X191442576Y-129083991D01*
X190418971Y-128660000D01*
X189311029Y-128660000D01*
X188287424Y-129083991D01*
X187503991Y-129867424D01*
X187080000Y-130891029D01*
X183742440Y-130891029D01*
X183742440Y-130595000D01*
X183693157Y-130347235D01*
X183552809Y-130137191D01*
X183342765Y-129996843D01*
X183095000Y-129947560D01*
X181395000Y-129947560D01*
X181147235Y-129996843D01*
X180937191Y-130137191D01*
X180796843Y-130347235D01*
X180787816Y-130392619D01*
X180775625Y-130374375D01*
X180284418Y-130046161D01*
X179851256Y-129960000D01*
X179567039Y-129960000D01*
X176634857Y-127027820D01*
X176581714Y-126948286D01*
X176266647Y-126737765D01*
X175988810Y-126682500D01*
X175895000Y-126663840D01*
X175801190Y-126682500D01*
X146812000Y-126682500D01*
X146812000Y-120285000D01*
X162182560Y-120285000D01*
X162182560Y-122285000D01*
X162231843Y-122532765D01*
X162372191Y-122742809D01*
X162582235Y-122883157D01*
X162830000Y-122932440D01*
X164830000Y-122932440D01*
X165077765Y-122883157D01*
X165287809Y-122742809D01*
X165428157Y-122532765D01*
X165477440Y-122285000D01*
X165477440Y-120285000D01*
X175517560Y-120285000D01*
X175517560Y-122285000D01*
X175566843Y-122532765D01*
X175707191Y-122742809D01*
X175917235Y-122883157D01*
X176165000Y-122932440D01*
X178165000Y-122932440D01*
X178412765Y-122883157D01*
X178622809Y-122742809D01*
X178763157Y-122532765D01*
X178812440Y-122285000D01*
X178812440Y-120285000D01*
X178763157Y-120037235D01*
X178622809Y-119827191D01*
X178412765Y-119686843D01*
X178165000Y-119637560D01*
X176165000Y-119637560D01*
X175917235Y-119686843D01*
X175707191Y-119827191D01*
X175566843Y-120037235D01*
X175517560Y-120285000D01*
X165477440Y-120285000D01*
X165428157Y-120037235D01*
X165287809Y-119827191D01*
X165077765Y-119686843D01*
X164830000Y-119637560D01*
X162830000Y-119637560D01*
X162582235Y-119686843D01*
X162372191Y-119827191D01*
X162231843Y-120037235D01*
X162182560Y-120285000D01*
X146812000Y-120285000D01*
X146812000Y-108585000D01*
X146802333Y-108536399D01*
X146757830Y-108480958D01*
X140416943Y-104042337D01*
X139192000Y-102817394D01*
X139192000Y-97319687D01*
X139424049Y-97879903D01*
X139995097Y-98450951D01*
X140741208Y-98760000D01*
X141548792Y-98760000D01*
X142294903Y-98450951D01*
X142865951Y-97879903D01*
X143137220Y-97225000D01*
X172142560Y-97225000D01*
X172142560Y-99625000D01*
X172191843Y-99872765D01*
X172332191Y-100082809D01*
X172542235Y-100223157D01*
X172790000Y-100272440D01*
X175190000Y-100272440D01*
X175437765Y-100223157D01*
X175647809Y-100082809D01*
X175788157Y-99872765D01*
X175837440Y-99625000D01*
X175837440Y-97245105D01*
X187295000Y-97245105D01*
X187295000Y-98014895D01*
X187589586Y-98726090D01*
X188133910Y-99270414D01*
X188845105Y-99565000D01*
X189614895Y-99565000D01*
X190326090Y-99270414D01*
X190870414Y-98726090D01*
X191165000Y-98014895D01*
X191165000Y-97245105D01*
X190870414Y-96533910D01*
X190326090Y-95989586D01*
X189614895Y-95695000D01*
X188845105Y-95695000D01*
X188133910Y-95989586D01*
X187589586Y-96533910D01*
X187295000Y-97245105D01*
X175837440Y-97245105D01*
X175837440Y-97225000D01*
X175788157Y-96977235D01*
X175647809Y-96767191D01*
X175437765Y-96626843D01*
X175190000Y-96577560D01*
X172790000Y-96577560D01*
X172542235Y-96626843D01*
X172332191Y-96767191D01*
X172191843Y-96977235D01*
X172142560Y-97225000D01*
X143137220Y-97225000D01*
X143175000Y-97133792D01*
X143175000Y-96326208D01*
X142865951Y-95580097D01*
X142294903Y-95009049D01*
X141548792Y-94700000D01*
X140741208Y-94700000D01*
X139995097Y-95009049D01*
X139424049Y-95580097D01*
X139192000Y-96140313D01*
X139192000Y-86319687D01*
X139424049Y-86879903D01*
X139995097Y-87450951D01*
X140741208Y-87760000D01*
X141548792Y-87760000D01*
X142294903Y-87450951D01*
X142865951Y-86879903D01*
X143175000Y-86133792D01*
X143175000Y-85326208D01*
X142865951Y-84580097D01*
X142810854Y-84525000D01*
X151822560Y-84525000D01*
X151822560Y-86925000D01*
X151871843Y-87172765D01*
X152012191Y-87382809D01*
X152222235Y-87523157D01*
X152470000Y-87572440D01*
X154870000Y-87572440D01*
X155117765Y-87523157D01*
X155327809Y-87382809D01*
X155468157Y-87172765D01*
X155517440Y-86925000D01*
X155517440Y-84525000D01*
X171507560Y-84525000D01*
X171507560Y-86925000D01*
X171556843Y-87172765D01*
X171697191Y-87382809D01*
X171907235Y-87523157D01*
X172155000Y-87572440D01*
X174555000Y-87572440D01*
X174802765Y-87523157D01*
X175012809Y-87382809D01*
X175153157Y-87172765D01*
X175202440Y-86925000D01*
X175202440Y-86330000D01*
X187282560Y-86330000D01*
X187282560Y-88930000D01*
X187331843Y-89177765D01*
X187472191Y-89387809D01*
X187682235Y-89528157D01*
X187930000Y-89577440D01*
X190530000Y-89577440D01*
X190777765Y-89528157D01*
X190987809Y-89387809D01*
X191128157Y-89177765D01*
X191177440Y-88930000D01*
X191177440Y-86330000D01*
X191128157Y-86082235D01*
X190987809Y-85872191D01*
X190777765Y-85731843D01*
X190530000Y-85682560D01*
X187930000Y-85682560D01*
X187682235Y-85731843D01*
X187472191Y-85872191D01*
X187331843Y-86082235D01*
X187282560Y-86330000D01*
X175202440Y-86330000D01*
X175202440Y-84525000D01*
X175153157Y-84277235D01*
X175012809Y-84067191D01*
X174802765Y-83926843D01*
X174555000Y-83877560D01*
X172155000Y-83877560D01*
X171907235Y-83926843D01*
X171697191Y-84067191D01*
X171556843Y-84277235D01*
X171507560Y-84525000D01*
X155517440Y-84525000D01*
X155468157Y-84277235D01*
X155327809Y-84067191D01*
X155117765Y-83926843D01*
X154870000Y-83877560D01*
X152470000Y-83877560D01*
X152222235Y-83926843D01*
X152012191Y-84067191D01*
X151871843Y-84277235D01*
X151822560Y-84525000D01*
X142810854Y-84525000D01*
X142294903Y-84009049D01*
X141548792Y-83700000D01*
X140741208Y-83700000D01*
X139995097Y-84009049D01*
X139424049Y-84580097D01*
X139192000Y-85140313D01*
X139192000Y-84517535D01*
X147397433Y-78205663D01*
X147430061Y-78168368D01*
X147447000Y-78105000D01*
X147447000Y-71201029D01*
X187080000Y-71201029D01*
X187080000Y-72308971D01*
X187503991Y-73332576D01*
X188287424Y-74116009D01*
X189311029Y-74540000D01*
X190418971Y-74540000D01*
X191442576Y-74116009D01*
X192226009Y-73332576D01*
X192650000Y-72308971D01*
X192650000Y-71201029D01*
X192226009Y-70177424D01*
X191442576Y-69393991D01*
X190418971Y-68970000D01*
X189311029Y-68970000D01*
X188287424Y-69393991D01*
X187503991Y-70177424D01*
X187080000Y-71201029D01*
X147447000Y-71201029D01*
X147447000Y-68045000D01*
X189830020Y-68045000D01*
X190565910Y-68115211D01*
G04 #@! TD*
M02*
