M48
;DRILL file {KiCad (5.0.0)} date 10/13/18 15:52:51
;FORMAT={-:-/ absolute / inch / decimal}
FMAT,2
INCH,TZ
T1C0.0157
T2C0.0299
T3C0.0315
T4C0.0394
T5C0.0512
%
G90
G05
M72
T1
X4.Y-1.84
X4.075Y-2.295
X4.15Y-1.93
X4.15Y-2.05
X4.175Y-3.07
X4.195Y-2.555
X4.235Y-1.975
X4.29Y-2.23
X4.29Y-2.35
X4.315Y-1.995
X4.33Y-2.29
X4.33Y-2.4
X4.37Y-2.23
X4.37Y-2.35
X4.405Y-1.995
X4.41Y-2.18
X4.41Y-2.29
X4.41Y-2.4
X4.42Y-2.89
X4.45Y-1.92
X4.49Y-2.02
X4.6Y-2.75
X4.625Y-1.805
X4.68Y-2.97
X4.725Y-2.125
X4.75Y-2.05
X4.785Y-2.695
X4.8Y-2.125
X4.8Y-2.2
X4.8Y-2.275
X4.8Y-2.35
X4.825Y-2.05
X4.87Y-2.875
X4.93Y-2.69
X4.94Y-2.74
X4.95Y-3.03
X4.995Y-2.91
X5.Y-2.1
X5.Y-2.825
X5.02Y-2.18
X5.02Y-2.26
X5.02Y-2.34
X5.02Y-2.42
X5.08Y-2.1
X5.15Y-2.53
X5.16Y-2.895
X5.25Y-1.82
X5.265Y-2.26
X5.32Y-2.655
X5.32Y-3.025
X5.41Y-2.91
X5.415Y-2.76
X5.45Y-2.15
X5.475Y-2.91
X5.485Y-2.76
X5.545Y-2.74
X5.5587Y-2.8987
X5.685Y-2.08
X5.755Y-2.92
X5.835Y-2.615
X5.95Y-1.855
X5.975Y-2.625
X6.175Y-1.98
X6.195Y-2.55
X6.195Y-2.66
X6.245Y-2.77
X6.25Y-2.61
X6.25Y-2.7
X6.385Y-1.83
X6.43Y-2.475
X6.43Y-2.795
T2
X6.Y-2.4
X6.05Y-2.3
X6.1Y-2.4
X6.15Y-2.3
X6.2Y-2.4
X6.25Y-2.3
X6.3Y-2.4
X6.35Y-2.3
T3
X5.8979Y-3.025
X6.09Y-3.025
T4
X6.34Y-2.88
X6.34Y-2.98
X6.34Y-3.08
X6.44Y-2.88
X6.44Y-2.98
X6.44Y-3.08
X5.325Y-2.4
X5.425Y-2.4
X5.525Y-2.4
T5
X4.5657Y-1.95
X4.7626Y-1.95
X4.9594Y-1.95
X5.1563Y-1.95
X5.3531Y-1.95
X5.55Y-1.95
X4.0347Y-2.0026
X4.0347Y-2.79
X4.33Y-1.8648
X4.33Y-2.1404
X4.33Y-2.79
T0
M30
