G04 #@! TF.GenerationSoftware,KiCad,Pcbnew,(5.0.0)*
G04 #@! TF.CreationDate,2018-10-13T15:52:45-04:00*
G04 #@! TF.ProjectId,GLVColoumbCounterTest,474C56436F6C6F756D62436F756E7465,rev?*
G04 #@! TF.SameCoordinates,Original*
G04 #@! TF.FileFunction,Profile,NP*
%FSLAX46Y46*%
G04 Gerber Fmt 4.6, Leading zero omitted, Abs format (unit mm)*
G04 Created by KiCad (PCBNEW (5.0.0)) date 10/13/18 15:52:45*
%MOMM*%
%LPD*%
G01*
G04 APERTURE LIST*
%ADD10C,0.150000*%
G04 APERTURE END LIST*
D10*
X169418000Y-43815000D02*
G75*
G02X169418000Y-51689000I0J-3937000D01*
G01*
X166243000Y-43815000D02*
X169418000Y-43815000D01*
X166243000Y-53975000D02*
G75*
G02X168529000Y-51689000I2286000J0D01*
G01*
X168529000Y-51689000D02*
X169418000Y-51689000D01*
X168529000Y-72136000D02*
G75*
G02X166243000Y-69850000I0J2286000D01*
G01*
X166243000Y-80010000D02*
X169481500Y-80010000D01*
X169481500Y-72136000D02*
X168529000Y-72136000D01*
X169481500Y-72136000D02*
G75*
G02X169481500Y-80010000I0J-3937000D01*
G01*
X97409000Y-72136000D02*
X96520000Y-72136000D01*
X99695000Y-69850000D02*
G75*
G02X97409000Y-72136000I-2286000J0D01*
G01*
X99695000Y-80010000D02*
X96520000Y-80010000D01*
X96520000Y-80010000D02*
G75*
G02X96520000Y-72136000I0J3937000D01*
G01*
X96456500Y-51689000D02*
X97409000Y-51689000D01*
X96456500Y-51689000D02*
G75*
G02X96456500Y-43815000I0J3937000D01*
G01*
X97409000Y-51689000D02*
G75*
G02X99695000Y-53975000I0J-2286000D01*
G01*
X99695000Y-43815000D02*
X96456500Y-43815000D01*
X166243000Y-53975000D02*
X166243000Y-69850000D01*
X99695000Y-43815000D02*
X166243000Y-43815000D01*
X99695000Y-69850000D02*
X99695000Y-53975000D01*
X166243000Y-80010000D02*
X99695000Y-80010000D01*
M02*
