G04 #@! TF.GenerationSoftware,KiCad,Pcbnew,(5.0.2)-1*
G04 #@! TF.CreationDate,2019-04-03T20:13:24-04:00*
G04 #@! TF.ProjectId,interface-board,696e7465-7266-4616-9365-2d626f617264,rev?*
G04 #@! TF.SameCoordinates,Original*
G04 #@! TF.FileFunction,Profile,NP*
%FSLAX46Y46*%
G04 Gerber Fmt 4.6, Leading zero omitted, Abs format (unit mm)*
G04 Created by KiCad (PCBNEW (5.0.2)-1) date 4/3/2019 8:13:24 PM*
%MOMM*%
%LPD*%
G01*
G04 APERTURE LIST*
%ADD10C,0.150000*%
G04 APERTURE END LIST*
D10*
X184175691Y-74066691D02*
G75*
G02X180619691Y-74066691I-1778000J0D01*
G01*
X180619691Y-60604691D02*
G75*
G02X184175691Y-60604691I1778000J0D01*
G01*
X184175691Y-60604691D02*
X184175691Y-74066691D01*
X180619691Y-74066691D02*
X180619691Y-60604691D01*
X105935000Y-149123691D02*
X200939691Y-149123691D01*
X200939691Y-135153691D02*
X200939691Y-149123691D01*
X220935000Y-135124000D02*
X200939691Y-135153691D01*
X220935000Y-148624000D02*
X220935000Y-135124000D01*
X233935000Y-146124000D02*
G75*
G02X231435000Y-148624000I-2500000J0D01*
G01*
X231435000Y-148624000D02*
X220935000Y-148624000D01*
X64435000Y-149124000D02*
X105935000Y-149124000D01*
X56435000Y-131624000D02*
G75*
G02X61435000Y-136624000I0J-5000000D01*
G01*
X61435000Y-51624000D02*
G75*
G02X56435000Y-56624000I-5000000J0D01*
G01*
X52435000Y-127624000D02*
X52435000Y-60624000D01*
X56435000Y-131624000D02*
G75*
G02X52435000Y-127624000I0J4000000D01*
G01*
X61435000Y-136624000D02*
X61435000Y-146124000D01*
X52435000Y-60624000D02*
G75*
G02X56435000Y-56624000I4000000J0D01*
G01*
X64435000Y-149124000D02*
G75*
G02X61435000Y-146124000I0J3000000D01*
G01*
X61435000Y-42124000D02*
X61435000Y-51624000D01*
X61435000Y-42124000D02*
G75*
G02X64435000Y-39124000I3000000J0D01*
G01*
X230935000Y-39124000D02*
G75*
G02X233935000Y-42124000I0J-3000000D01*
G01*
X233935000Y-42124000D02*
X233935000Y-146124000D01*
X230935000Y-39124000D02*
X64435000Y-39124000D01*
M02*
