G04 #@! TF.GenerationSoftware,KiCad,Pcbnew,(5.0.2)-1*
G04 #@! TF.CreationDate,2019-04-03T20:13:24-04:00*
G04 #@! TF.ProjectId,interface-board,696e7465-7266-4616-9365-2d626f617264,rev?*
G04 #@! TF.SameCoordinates,Original*
G04 #@! TF.FileFunction,Copper,L2,Bot*
G04 #@! TF.FilePolarity,Positive*
%FSLAX46Y46*%
G04 Gerber Fmt 4.6, Leading zero omitted, Abs format (unit mm)*
G04 Created by KiCad (PCBNEW (5.0.2)-1) date 4/3/2019 8:13:24 PM*
%MOMM*%
%LPD*%
G01*
G04 APERTURE LIST*
G04 #@! TA.AperFunction,ComponentPad*
%ADD10O,1.200000X1.750000*%
G04 #@! TD*
G04 #@! TA.AperFunction,Conductor*
%ADD11C,0.100000*%
G04 #@! TD*
G04 #@! TA.AperFunction,ComponentPad*
%ADD12C,1.200000*%
G04 #@! TD*
G04 #@! TA.AperFunction,ComponentPad*
%ADD13O,1.750000X1.200000*%
G04 #@! TD*
G04 #@! TA.AperFunction,ComponentPad*
%ADD14C,6.400000*%
G04 #@! TD*
G04 #@! TA.AperFunction,ComponentPad*
%ADD15C,1.699848*%
G04 #@! TD*
G04 #@! TA.AperFunction,ComponentPad*
%ADD16C,0.800000*%
G04 #@! TD*
G04 #@! TA.AperFunction,ComponentPad*
%ADD17C,2.625000*%
G04 #@! TD*
G04 #@! TA.AperFunction,ComponentPad*
%ADD18R,2.625000X2.625000*%
G04 #@! TD*
G04 #@! TA.AperFunction,ComponentPad*
%ADD19O,1.700000X1.700000*%
G04 #@! TD*
G04 #@! TA.AperFunction,ComponentPad*
%ADD20R,1.700000X1.700000*%
G04 #@! TD*
G04 #@! TA.AperFunction,ComponentPad*
%ADD21C,0.900000*%
G04 #@! TD*
G04 #@! TA.AperFunction,ComponentPad*
%ADD22C,8.600000*%
G04 #@! TD*
G04 #@! TA.AperFunction,ComponentPad*
%ADD23C,2.400000*%
G04 #@! TD*
G04 #@! TA.AperFunction,ComponentPad*
%ADD24R,2.400000X2.400000*%
G04 #@! TD*
G04 #@! TA.AperFunction,ComponentPad*
%ADD25O,2.200000X2.200000*%
G04 #@! TD*
G04 #@! TA.AperFunction,ComponentPad*
%ADD26R,2.200000X2.200000*%
G04 #@! TD*
G04 #@! TA.AperFunction,ComponentPad*
%ADD27O,1.740000X2.200000*%
G04 #@! TD*
G04 #@! TA.AperFunction,ComponentPad*
%ADD28C,1.740000*%
G04 #@! TD*
G04 #@! TA.AperFunction,SMDPad,CuDef*
%ADD29R,3.300000X3.300000*%
G04 #@! TD*
G04 #@! TA.AperFunction,SMDPad,CuDef*
%ADD30C,1.350000*%
G04 #@! TD*
G04 #@! TA.AperFunction,ComponentPad*
%ADD31O,2.300000X1.500000*%
G04 #@! TD*
G04 #@! TA.AperFunction,ComponentPad*
%ADD32R,2.300000X1.500000*%
G04 #@! TD*
G04 #@! TA.AperFunction,ComponentPad*
%ADD33C,3.000000*%
G04 #@! TD*
G04 #@! TA.AperFunction,ComponentPad*
%ADD34R,2.000000X2.000000*%
G04 #@! TD*
G04 #@! TA.AperFunction,ComponentPad*
%ADD35C,2.000000*%
G04 #@! TD*
G04 #@! TA.AperFunction,SMDPad,CuDef*
%ADD36C,0.875000*%
G04 #@! TD*
G04 #@! TA.AperFunction,ComponentPad*
%ADD37O,3.300000X2.640000*%
G04 #@! TD*
G04 #@! TA.AperFunction,ComponentPad*
%ADD38R,3.300000X2.640000*%
G04 #@! TD*
G04 #@! TA.AperFunction,ViaPad*
%ADD39C,0.800000*%
G04 #@! TD*
G04 #@! TA.AperFunction,Conductor*
%ADD40C,0.304800*%
G04 #@! TD*
G04 #@! TA.AperFunction,Conductor*
%ADD41C,0.635000*%
G04 #@! TD*
G04 #@! TA.AperFunction,Conductor*
%ADD42C,0.200000*%
G04 #@! TD*
G04 #@! TA.AperFunction,Conductor*
%ADD43C,0.203200*%
G04 #@! TD*
G04 #@! TA.AperFunction,Conductor*
%ADD44C,3.175000*%
G04 #@! TD*
G04 #@! TA.AperFunction,Conductor*
%ADD45C,0.254000*%
G04 #@! TD*
G04 APERTURE END LIST*
D10*
G04 #@! TO.P,J2,4*
G04 #@! TO.N,+12V*
X106801691Y-47650691D03*
G04 #@! TO.P,J2,3*
X108801691Y-47650691D03*
G04 #@! TO.P,J2,2*
G04 #@! TO.N,/Main/FANOUT0*
X110801691Y-47650691D03*
D11*
G04 #@! TD*
G04 #@! TO.N,/Main/FANOUT0*
G04 #@! TO.C,J2*
G36*
X113176196Y-46776895D02*
X113200464Y-46780495D01*
X113224263Y-46786456D01*
X113247362Y-46794721D01*
X113269541Y-46805211D01*
X113290584Y-46817823D01*
X113310290Y-46832438D01*
X113328468Y-46848914D01*
X113344944Y-46867092D01*
X113359559Y-46886798D01*
X113372171Y-46907841D01*
X113382661Y-46930020D01*
X113390926Y-46953119D01*
X113396887Y-46976918D01*
X113400487Y-47001186D01*
X113401691Y-47025690D01*
X113401691Y-48275692D01*
X113400487Y-48300196D01*
X113396887Y-48324464D01*
X113390926Y-48348263D01*
X113382661Y-48371362D01*
X113372171Y-48393541D01*
X113359559Y-48414584D01*
X113344944Y-48434290D01*
X113328468Y-48452468D01*
X113310290Y-48468944D01*
X113290584Y-48483559D01*
X113269541Y-48496171D01*
X113247362Y-48506661D01*
X113224263Y-48514926D01*
X113200464Y-48520887D01*
X113176196Y-48524487D01*
X113151692Y-48525691D01*
X112451690Y-48525691D01*
X112427186Y-48524487D01*
X112402918Y-48520887D01*
X112379119Y-48514926D01*
X112356020Y-48506661D01*
X112333841Y-48496171D01*
X112312798Y-48483559D01*
X112293092Y-48468944D01*
X112274914Y-48452468D01*
X112258438Y-48434290D01*
X112243823Y-48414584D01*
X112231211Y-48393541D01*
X112220721Y-48371362D01*
X112212456Y-48348263D01*
X112206495Y-48324464D01*
X112202895Y-48300196D01*
X112201691Y-48275692D01*
X112201691Y-47025690D01*
X112202895Y-47001186D01*
X112206495Y-46976918D01*
X112212456Y-46953119D01*
X112220721Y-46930020D01*
X112231211Y-46907841D01*
X112243823Y-46886798D01*
X112258438Y-46867092D01*
X112274914Y-46848914D01*
X112293092Y-46832438D01*
X112312798Y-46817823D01*
X112333841Y-46805211D01*
X112356020Y-46794721D01*
X112379119Y-46786456D01*
X112402918Y-46780495D01*
X112427186Y-46776895D01*
X112451690Y-46775691D01*
X113151692Y-46775691D01*
X113176196Y-46776895D01*
X113176196Y-46776895D01*
G37*
D12*
G04 #@! TO.P,J2,1*
G04 #@! TO.N,/Main/FANOUT0*
X112801691Y-47650691D03*
G04 #@! TD*
D13*
G04 #@! TO.P,J3,4*
G04 #@! TO.N,+5V*
X136169691Y-119944691D03*
G04 #@! TO.P,J3,3*
X136169691Y-117944691D03*
G04 #@! TO.P,J3,2*
G04 #@! TO.N,/Main/TEMP_1*
X136169691Y-115944691D03*
D11*
G04 #@! TD*
G04 #@! TO.N,/Main/TEMP_2*
G04 #@! TO.C,J3*
G36*
X136819196Y-113345895D02*
X136843464Y-113349495D01*
X136867263Y-113355456D01*
X136890362Y-113363721D01*
X136912541Y-113374211D01*
X136933584Y-113386823D01*
X136953290Y-113401438D01*
X136971468Y-113417914D01*
X136987944Y-113436092D01*
X137002559Y-113455798D01*
X137015171Y-113476841D01*
X137025661Y-113499020D01*
X137033926Y-113522119D01*
X137039887Y-113545918D01*
X137043487Y-113570186D01*
X137044691Y-113594690D01*
X137044691Y-114294692D01*
X137043487Y-114319196D01*
X137039887Y-114343464D01*
X137033926Y-114367263D01*
X137025661Y-114390362D01*
X137015171Y-114412541D01*
X137002559Y-114433584D01*
X136987944Y-114453290D01*
X136971468Y-114471468D01*
X136953290Y-114487944D01*
X136933584Y-114502559D01*
X136912541Y-114515171D01*
X136890362Y-114525661D01*
X136867263Y-114533926D01*
X136843464Y-114539887D01*
X136819196Y-114543487D01*
X136794692Y-114544691D01*
X135544690Y-114544691D01*
X135520186Y-114543487D01*
X135495918Y-114539887D01*
X135472119Y-114533926D01*
X135449020Y-114525661D01*
X135426841Y-114515171D01*
X135405798Y-114502559D01*
X135386092Y-114487944D01*
X135367914Y-114471468D01*
X135351438Y-114453290D01*
X135336823Y-114433584D01*
X135324211Y-114412541D01*
X135313721Y-114390362D01*
X135305456Y-114367263D01*
X135299495Y-114343464D01*
X135295895Y-114319196D01*
X135294691Y-114294692D01*
X135294691Y-113594690D01*
X135295895Y-113570186D01*
X135299495Y-113545918D01*
X135305456Y-113522119D01*
X135313721Y-113499020D01*
X135324211Y-113476841D01*
X135336823Y-113455798D01*
X135351438Y-113436092D01*
X135367914Y-113417914D01*
X135386092Y-113401438D01*
X135405798Y-113386823D01*
X135426841Y-113374211D01*
X135449020Y-113363721D01*
X135472119Y-113355456D01*
X135495918Y-113349495D01*
X135520186Y-113345895D01*
X135544690Y-113344691D01*
X136794692Y-113344691D01*
X136819196Y-113345895D01*
X136819196Y-113345895D01*
G37*
D12*
G04 #@! TO.P,J3,1*
G04 #@! TO.N,/Main/TEMP_2*
X136169691Y-113944691D03*
G04 #@! TD*
D14*
G04 #@! TO.P,U5,1*
G04 #@! TO.N,Net-(C10-Pad1)*
X204664000Y-53071000D03*
G04 #@! TO.P,U5,5*
G04 #@! TO.N,/Main/HV-*
X204618280Y-77328000D03*
G04 #@! TO.P,U5,8*
G04 #@! TO.N,GND*
X143958000Y-73010000D03*
G04 #@! TO.P,U5,9*
G04 #@! TO.N,Net-(C2-Pad1)*
X143958000Y-57516000D03*
D15*
G04 #@! TO.P,U5,2*
G04 #@! TO.N,/Main/sheet5C830478/TRIM_HV*
X203648000Y-62088000D03*
G04 #@! TO.P,U5,3*
G04 #@! TO.N,/Main/sheet5C830478/EN_HV*
X203648000Y-64628000D03*
G04 #@! TO.P,U5,4*
G04 #@! TO.N,/Main/sheet5C830478/FAULT_HV*
X203648000Y-67168000D03*
D16*
G04 #@! TO.P,U5,1*
G04 #@! TO.N,Net-(C10-Pad1)*
X204664000Y-50658000D03*
X206370249Y-51364751D03*
X207077000Y-53071000D03*
X206370249Y-54777249D03*
X204664000Y-55484000D03*
X202957751Y-54777249D03*
X202251000Y-53071000D03*
X202957751Y-51364751D03*
G04 #@! TO.P,U5,5*
G04 #@! TO.N,/Main/HV-*
X204664000Y-74915000D03*
X206356858Y-75654080D03*
X207031280Y-77373720D03*
X206292200Y-79066578D03*
X204572560Y-79741000D03*
X202879702Y-79001920D03*
X202205280Y-77282280D03*
X202944360Y-75589422D03*
G04 #@! TO.P,U5,9*
G04 #@! TO.N,Net-(C2-Pad1)*
X143958000Y-55103000D03*
X145664249Y-55809751D03*
X146371000Y-57516000D03*
X145664249Y-59222249D03*
X143958000Y-59929000D03*
X142251751Y-59222249D03*
X141545000Y-57516000D03*
X142251751Y-55809751D03*
G04 #@! TO.P,U5,8*
G04 #@! TO.N,GND*
X143958000Y-70597000D03*
X145664249Y-71303751D03*
X146371000Y-73010000D03*
X145664249Y-74716249D03*
X143958000Y-75423000D03*
X142251751Y-74716249D03*
X141545000Y-73010000D03*
X142251751Y-71303751D03*
G04 #@! TD*
D17*
G04 #@! TO.P,J16,22*
G04 #@! TO.N,/Main/HECS_AN3*
X57935000Y-83624000D03*
G04 #@! TO.P,J16,21*
G04 #@! TO.N,/Main/HECS_AN2*
X57935000Y-87624000D03*
G04 #@! TO.P,J16,20*
G04 #@! TO.N,/Main/HECS_AN1*
X57935000Y-91624000D03*
G04 #@! TO.P,J16,19*
G04 #@! TO.N,/Main/IMD_OK*
X57935000Y-95624000D03*
G04 #@! TO.P,J16,18*
G04 #@! TO.N,/Main/TEMP_1*
X57935000Y-99624000D03*
G04 #@! TO.P,J16,17*
G04 #@! TO.N,+5V*
X57935000Y-103624000D03*
G04 #@! TO.P,J16,14*
G04 #@! TO.N,+12V*
X61935000Y-85624000D03*
G04 #@! TO.P,J16,13*
G04 #@! TO.N,GND*
X61935000Y-89624000D03*
G04 #@! TO.P,J16,12*
G04 #@! TO.N,/Main/CAN-*
X61935000Y-93624000D03*
G04 #@! TO.P,J16,11*
G04 #@! TO.N,/Main/CAN+*
X61935000Y-97624000D03*
G04 #@! TO.P,J16,10*
G04 #@! TO.N,/Main/SHDN_LOOP_OUT*
X61935000Y-101624000D03*
G04 #@! TO.P,J16,7*
G04 #@! TO.N,/Main/FANOUT3*
X65935000Y-83624000D03*
G04 #@! TO.P,J16,6*
G04 #@! TO.N,+12V*
X65935000Y-87624000D03*
G04 #@! TO.P,J16,5*
G04 #@! TO.N,GND*
X65935000Y-91624000D03*
G04 #@! TO.P,J16,4*
X65935000Y-95624000D03*
G04 #@! TO.P,J16,3*
X65935000Y-99624000D03*
G04 #@! TO.P,J16,2*
G04 #@! TO.N,/Main/SHDN_LOOP_OUT*
X65935000Y-103624000D03*
G04 #@! TO.P,J16,23*
G04 #@! TO.N,N/C*
X57935000Y-79624000D03*
G04 #@! TO.P,J16,16*
G04 #@! TO.N,/Main/SHDN_LOOP_OUT*
X57935000Y-107624000D03*
G04 #@! TO.P,J16,15*
G04 #@! TO.N,/Main/FANOUT2*
X61935000Y-81624000D03*
G04 #@! TO.P,J16,9*
G04 #@! TO.N,/Main/SHDN_LOOP_OUT*
X61935000Y-105624000D03*
G04 #@! TO.P,J16,8*
G04 #@! TO.N,/Main/FANOUT1*
X65935000Y-79624000D03*
D18*
G04 #@! TO.P,J16,1*
G04 #@! TO.N,/Main/SHDN_LOOP_OUT*
X65935000Y-107624000D03*
G04 #@! TD*
D19*
G04 #@! TO.P,J11,4*
G04 #@! TO.N,+5V*
X74900000Y-118169000D03*
G04 #@! TO.P,J11,3*
G04 #@! TO.N,GND*
X74900000Y-120709000D03*
G04 #@! TO.P,J11,2*
G04 #@! TO.N,/Main/UART_TX*
X74900000Y-123249000D03*
D20*
G04 #@! TO.P,J11,1*
G04 #@! TO.N,/Main/UART_RX*
X74900000Y-125789000D03*
G04 #@! TD*
D21*
G04 #@! TO.P,REF\002A\002A,1*
G04 #@! TO.N,N/C*
X230215419Y-136843581D03*
X227935000Y-135899000D03*
X225654581Y-136843581D03*
X224710000Y-139124000D03*
X225654581Y-141404419D03*
X227935000Y-142349000D03*
X230215419Y-141404419D03*
X231160000Y-139124000D03*
D22*
X227935000Y-139124000D03*
G04 #@! TD*
D21*
G04 #@! TO.P,REF\002A\002A,1*
G04 #@! TO.N,N/C*
X156965419Y-96843581D03*
X154685000Y-95899000D03*
X152404581Y-96843581D03*
X151460000Y-99124000D03*
X152404581Y-101404419D03*
X154685000Y-102349000D03*
X156965419Y-101404419D03*
X157910000Y-99124000D03*
D22*
X154685000Y-99124000D03*
G04 #@! TD*
D21*
G04 #@! TO.P,REF\002A\002A,1*
G04 #@! TO.N,N/C*
X230215419Y-46843581D03*
X227935000Y-45899000D03*
X225654581Y-46843581D03*
X224710000Y-49124000D03*
X225654581Y-51404419D03*
X227935000Y-52349000D03*
X230215419Y-51404419D03*
X231160000Y-49124000D03*
D22*
X227935000Y-49124000D03*
G04 #@! TD*
D23*
G04 #@! TO.P,C9,2*
G04 #@! TO.N,/Main/HV-*
X212240000Y-83369000D03*
G04 #@! TO.P,C9,1*
G04 #@! TO.N,Net-(C10-Pad1)*
X227240000Y-83369000D03*
G04 #@! TD*
G04 #@! TO.P,C10,2*
G04 #@! TO.N,/Main/HV-*
X212240000Y-74369000D03*
G04 #@! TO.P,C10,1*
G04 #@! TO.N,Net-(C10-Pad1)*
X227240000Y-74369000D03*
G04 #@! TD*
G04 #@! TO.P,C11,2*
G04 #@! TO.N,/Main/HV-*
X212240000Y-65369000D03*
G04 #@! TO.P,C11,1*
G04 #@! TO.N,Net-(C10-Pad1)*
X227240000Y-65369000D03*
G04 #@! TD*
G04 #@! TO.P,C13,2*
G04 #@! TO.N,GND*
X112462000Y-68431000D03*
D24*
G04 #@! TO.P,C13,1*
G04 #@! TO.N,/Main/sheet5C830478/12V_OUT*
X112462000Y-75931000D03*
G04 #@! TD*
D23*
G04 #@! TO.P,C14,2*
G04 #@! TO.N,GND*
X125670000Y-89019000D03*
D24*
G04 #@! TO.P,C14,1*
G04 #@! TO.N,/Main/sheet5C830478/12V_OUT*
X125670000Y-81519000D03*
G04 #@! TD*
D25*
G04 #@! TO.P,D3,2*
G04 #@! TO.N,/Main/FANOUT0*
X132148000Y-43079000D03*
D26*
G04 #@! TO.P,D3,1*
G04 #@! TO.N,+12V*
X121988000Y-43079000D03*
G04 #@! TD*
D25*
G04 #@! TO.P,D4,2*
G04 #@! TO.N,/Main/FANOUT2*
X80205000Y-58319000D03*
D26*
G04 #@! TO.P,D4,1*
G04 #@! TO.N,+12V*
X70045000Y-58319000D03*
G04 #@! TD*
D25*
G04 #@! TO.P,D5,2*
G04 #@! TO.N,/Main/FANOUT1*
X87190000Y-68479000D03*
D26*
G04 #@! TO.P,D5,1*
G04 #@! TO.N,+12V*
X77030000Y-68479000D03*
G04 #@! TD*
D25*
G04 #@! TO.P,D6,2*
G04 #@! TO.N,/Main/FANOUT3*
X99255000Y-74829000D03*
D26*
G04 #@! TO.P,D6,1*
G04 #@! TO.N,+12V*
X89095000Y-74829000D03*
G04 #@! TD*
D27*
G04 #@! TO.P,J1,5*
G04 #@! TO.N,/Main/HECS_AN1*
X86225000Y-141594000D03*
G04 #@! TO.P,J1,4*
G04 #@! TO.N,/Main/HECS_AN2*
X83685000Y-141594000D03*
G04 #@! TO.P,J1,3*
G04 #@! TO.N,/Main/HECS_AN3*
X81145000Y-141594000D03*
G04 #@! TO.P,J1,2*
G04 #@! TO.N,+5V*
X78605000Y-141594000D03*
D11*
G04 #@! TD*
G04 #@! TO.N,GND*
G04 #@! TO.C,J1*
G36*
X76709505Y-140495204D02*
X76733773Y-140498804D01*
X76757572Y-140504765D01*
X76780671Y-140513030D01*
X76802850Y-140523520D01*
X76823893Y-140536132D01*
X76843599Y-140550747D01*
X76861777Y-140567223D01*
X76878253Y-140585401D01*
X76892868Y-140605107D01*
X76905480Y-140626150D01*
X76915970Y-140648329D01*
X76924235Y-140671428D01*
X76930196Y-140695227D01*
X76933796Y-140719495D01*
X76935000Y-140743999D01*
X76935000Y-142444001D01*
X76933796Y-142468505D01*
X76930196Y-142492773D01*
X76924235Y-142516572D01*
X76915970Y-142539671D01*
X76905480Y-142561850D01*
X76892868Y-142582893D01*
X76878253Y-142602599D01*
X76861777Y-142620777D01*
X76843599Y-142637253D01*
X76823893Y-142651868D01*
X76802850Y-142664480D01*
X76780671Y-142674970D01*
X76757572Y-142683235D01*
X76733773Y-142689196D01*
X76709505Y-142692796D01*
X76685001Y-142694000D01*
X75444999Y-142694000D01*
X75420495Y-142692796D01*
X75396227Y-142689196D01*
X75372428Y-142683235D01*
X75349329Y-142674970D01*
X75327150Y-142664480D01*
X75306107Y-142651868D01*
X75286401Y-142637253D01*
X75268223Y-142620777D01*
X75251747Y-142602599D01*
X75237132Y-142582893D01*
X75224520Y-142561850D01*
X75214030Y-142539671D01*
X75205765Y-142516572D01*
X75199804Y-142492773D01*
X75196204Y-142468505D01*
X75195000Y-142444001D01*
X75195000Y-140743999D01*
X75196204Y-140719495D01*
X75199804Y-140695227D01*
X75205765Y-140671428D01*
X75214030Y-140648329D01*
X75224520Y-140626150D01*
X75237132Y-140605107D01*
X75251747Y-140585401D01*
X75268223Y-140567223D01*
X75286401Y-140550747D01*
X75306107Y-140536132D01*
X75327150Y-140523520D01*
X75349329Y-140513030D01*
X75372428Y-140504765D01*
X75396227Y-140498804D01*
X75420495Y-140495204D01*
X75444999Y-140494000D01*
X76685001Y-140494000D01*
X76709505Y-140495204D01*
X76709505Y-140495204D01*
G37*
D28*
G04 #@! TO.P,J1,1*
G04 #@! TO.N,GND*
X76065000Y-141594000D03*
G04 #@! TD*
D19*
G04 #@! TO.P,J15,6*
G04 #@! TO.N,GND*
X84425000Y-117374000D03*
G04 #@! TO.P,J15,5*
G04 #@! TO.N,/Main/sheet5C830476/RESET*
X84425000Y-114834000D03*
G04 #@! TO.P,J15,4*
G04 #@! TO.N,/Main/sheet5C830476/MOSI*
X81885000Y-117374000D03*
G04 #@! TO.P,J15,3*
G04 #@! TO.N,/Main/sheet5C830476/SCK*
X81885000Y-114834000D03*
G04 #@! TO.P,J15,2*
G04 #@! TO.N,+5V*
X79345000Y-117374000D03*
D20*
G04 #@! TO.P,J15,1*
G04 #@! TO.N,/Main/sheet5C830476/MISO*
X79345000Y-114834000D03*
G04 #@! TD*
D29*
G04 #@! TO.P,L2,2*
G04 #@! TO.N,/Main/sheet5C830478/12V_OUT*
X133290000Y-75040000D03*
G04 #@! TO.P,L2,1*
G04 #@! TO.N,Net-(C2-Pad1)*
X133290000Y-67170000D03*
G04 #@! TD*
D11*
G04 #@! TO.N,Net-(C2-Pad1)*
G04 #@! TO.C,R23*
G36*
X128643505Y-67785204D02*
X128667773Y-67788804D01*
X128691572Y-67794765D01*
X128714671Y-67803030D01*
X128736850Y-67813520D01*
X128757893Y-67826132D01*
X128777599Y-67840747D01*
X128795777Y-67857223D01*
X128812253Y-67875401D01*
X128826868Y-67895107D01*
X128839480Y-67916150D01*
X128849970Y-67938329D01*
X128858235Y-67961428D01*
X128864196Y-67985227D01*
X128867796Y-68009495D01*
X128869000Y-68033999D01*
X128869000Y-68884001D01*
X128867796Y-68908505D01*
X128864196Y-68932773D01*
X128858235Y-68956572D01*
X128849970Y-68979671D01*
X128839480Y-69001850D01*
X128826868Y-69022893D01*
X128812253Y-69042599D01*
X128795777Y-69060777D01*
X128777599Y-69077253D01*
X128757893Y-69091868D01*
X128736850Y-69104480D01*
X128714671Y-69114970D01*
X128691572Y-69123235D01*
X128667773Y-69129196D01*
X128643505Y-69132796D01*
X128619001Y-69134000D01*
X125768999Y-69134000D01*
X125744495Y-69132796D01*
X125720227Y-69129196D01*
X125696428Y-69123235D01*
X125673329Y-69114970D01*
X125651150Y-69104480D01*
X125630107Y-69091868D01*
X125610401Y-69077253D01*
X125592223Y-69060777D01*
X125575747Y-69042599D01*
X125561132Y-69022893D01*
X125548520Y-69001850D01*
X125538030Y-68979671D01*
X125529765Y-68956572D01*
X125523804Y-68932773D01*
X125520204Y-68908505D01*
X125519000Y-68884001D01*
X125519000Y-68033999D01*
X125520204Y-68009495D01*
X125523804Y-67985227D01*
X125529765Y-67961428D01*
X125538030Y-67938329D01*
X125548520Y-67916150D01*
X125561132Y-67895107D01*
X125575747Y-67875401D01*
X125592223Y-67857223D01*
X125610401Y-67840747D01*
X125630107Y-67826132D01*
X125651150Y-67813520D01*
X125673329Y-67803030D01*
X125696428Y-67794765D01*
X125720227Y-67788804D01*
X125744495Y-67785204D01*
X125768999Y-67784000D01*
X128619001Y-67784000D01*
X128643505Y-67785204D01*
X128643505Y-67785204D01*
G37*
D30*
G04 #@! TD*
G04 #@! TO.P,R23,2*
G04 #@! TO.N,Net-(C2-Pad1)*
X127194000Y-68459000D03*
D11*
G04 #@! TO.N,/Main/sheet5C830478/12V_OUT*
G04 #@! TO.C,R23*
G36*
X128643505Y-73585204D02*
X128667773Y-73588804D01*
X128691572Y-73594765D01*
X128714671Y-73603030D01*
X128736850Y-73613520D01*
X128757893Y-73626132D01*
X128777599Y-73640747D01*
X128795777Y-73657223D01*
X128812253Y-73675401D01*
X128826868Y-73695107D01*
X128839480Y-73716150D01*
X128849970Y-73738329D01*
X128858235Y-73761428D01*
X128864196Y-73785227D01*
X128867796Y-73809495D01*
X128869000Y-73833999D01*
X128869000Y-74684001D01*
X128867796Y-74708505D01*
X128864196Y-74732773D01*
X128858235Y-74756572D01*
X128849970Y-74779671D01*
X128839480Y-74801850D01*
X128826868Y-74822893D01*
X128812253Y-74842599D01*
X128795777Y-74860777D01*
X128777599Y-74877253D01*
X128757893Y-74891868D01*
X128736850Y-74904480D01*
X128714671Y-74914970D01*
X128691572Y-74923235D01*
X128667773Y-74929196D01*
X128643505Y-74932796D01*
X128619001Y-74934000D01*
X125768999Y-74934000D01*
X125744495Y-74932796D01*
X125720227Y-74929196D01*
X125696428Y-74923235D01*
X125673329Y-74914970D01*
X125651150Y-74904480D01*
X125630107Y-74891868D01*
X125610401Y-74877253D01*
X125592223Y-74860777D01*
X125575747Y-74842599D01*
X125561132Y-74822893D01*
X125548520Y-74801850D01*
X125538030Y-74779671D01*
X125529765Y-74756572D01*
X125523804Y-74732773D01*
X125520204Y-74708505D01*
X125519000Y-74684001D01*
X125519000Y-73833999D01*
X125520204Y-73809495D01*
X125523804Y-73785227D01*
X125529765Y-73761428D01*
X125538030Y-73738329D01*
X125548520Y-73716150D01*
X125561132Y-73695107D01*
X125575747Y-73675401D01*
X125592223Y-73657223D01*
X125610401Y-73640747D01*
X125630107Y-73626132D01*
X125651150Y-73613520D01*
X125673329Y-73603030D01*
X125696428Y-73594765D01*
X125720227Y-73588804D01*
X125744495Y-73585204D01*
X125768999Y-73584000D01*
X128619001Y-73584000D01*
X128643505Y-73585204D01*
X128643505Y-73585204D01*
G37*
D30*
G04 #@! TD*
G04 #@! TO.P,R23,1*
G04 #@! TO.N,/Main/sheet5C830478/12V_OUT*
X127194000Y-74259000D03*
D31*
G04 #@! TO.P,U7,3*
G04 #@! TO.N,+5V*
X94175000Y-44476000D03*
G04 #@! TO.P,U7,2*
G04 #@! TO.N,GND*
X94175000Y-47016000D03*
D32*
G04 #@! TO.P,U7,1*
G04 #@! TO.N,+12V*
X94175000Y-49556000D03*
G04 #@! TD*
D21*
G04 #@! TO.P,REF\002A\002A,1*
G04 #@! TO.N,N/C*
X69465419Y-46843581D03*
X67185000Y-45899000D03*
X64904581Y-46843581D03*
X63960000Y-49124000D03*
X64904581Y-51404419D03*
X67185000Y-52349000D03*
X69465419Y-51404419D03*
X70410000Y-49124000D03*
D22*
X67185000Y-49124000D03*
G04 #@! TD*
D21*
G04 #@! TO.P,REF\002A\002A,1*
G04 #@! TO.N,N/C*
X69465419Y-136843581D03*
X67185000Y-135899000D03*
X64904581Y-136843581D03*
X63960000Y-139124000D03*
X64904581Y-141404419D03*
X67185000Y-142349000D03*
X69465419Y-141404419D03*
X70410000Y-139124000D03*
D22*
X67185000Y-139124000D03*
G04 #@! TD*
D27*
G04 #@! TO.P,J4,5*
G04 #@! TO.N,+12V*
X101465000Y-141594000D03*
G04 #@! TO.P,J4,4*
G04 #@! TO.N,/Main/IMD_OK*
X98925000Y-141594000D03*
G04 #@! TO.P,J4,3*
G04 #@! TO.N,GND*
X96385000Y-141594000D03*
G04 #@! TO.P,J4,2*
X93845000Y-141594000D03*
D11*
G04 #@! TD*
G04 #@! TO.N,GND*
G04 #@! TO.C,J4*
G36*
X91949505Y-140495204D02*
X91973773Y-140498804D01*
X91997572Y-140504765D01*
X92020671Y-140513030D01*
X92042850Y-140523520D01*
X92063893Y-140536132D01*
X92083599Y-140550747D01*
X92101777Y-140567223D01*
X92118253Y-140585401D01*
X92132868Y-140605107D01*
X92145480Y-140626150D01*
X92155970Y-140648329D01*
X92164235Y-140671428D01*
X92170196Y-140695227D01*
X92173796Y-140719495D01*
X92175000Y-140743999D01*
X92175000Y-142444001D01*
X92173796Y-142468505D01*
X92170196Y-142492773D01*
X92164235Y-142516572D01*
X92155970Y-142539671D01*
X92145480Y-142561850D01*
X92132868Y-142582893D01*
X92118253Y-142602599D01*
X92101777Y-142620777D01*
X92083599Y-142637253D01*
X92063893Y-142651868D01*
X92042850Y-142664480D01*
X92020671Y-142674970D01*
X91997572Y-142683235D01*
X91973773Y-142689196D01*
X91949505Y-142692796D01*
X91925001Y-142694000D01*
X90684999Y-142694000D01*
X90660495Y-142692796D01*
X90636227Y-142689196D01*
X90612428Y-142683235D01*
X90589329Y-142674970D01*
X90567150Y-142664480D01*
X90546107Y-142651868D01*
X90526401Y-142637253D01*
X90508223Y-142620777D01*
X90491747Y-142602599D01*
X90477132Y-142582893D01*
X90464520Y-142561850D01*
X90454030Y-142539671D01*
X90445765Y-142516572D01*
X90439804Y-142492773D01*
X90436204Y-142468505D01*
X90435000Y-142444001D01*
X90435000Y-140743999D01*
X90436204Y-140719495D01*
X90439804Y-140695227D01*
X90445765Y-140671428D01*
X90454030Y-140648329D01*
X90464520Y-140626150D01*
X90477132Y-140605107D01*
X90491747Y-140585401D01*
X90508223Y-140567223D01*
X90526401Y-140550747D01*
X90546107Y-140536132D01*
X90567150Y-140523520D01*
X90589329Y-140513030D01*
X90612428Y-140504765D01*
X90636227Y-140498804D01*
X90660495Y-140495204D01*
X90684999Y-140494000D01*
X91925001Y-140494000D01*
X91949505Y-140495204D01*
X91949505Y-140495204D01*
G37*
D28*
G04 #@! TO.P,J4,1*
G04 #@! TO.N,GND*
X91305000Y-141594000D03*
G04 #@! TD*
D33*
G04 #@! TO.P,F1,2*
G04 #@! TO.N,/Main/HV+*
X226735000Y-120824000D03*
G04 #@! TO.P,F1,1*
G04 #@! TO.N,/Main/sheet5C830478/HV+*
X226735000Y-98324000D03*
G04 #@! TD*
D34*
G04 #@! TO.P,C1,1*
G04 #@! TO.N,+12V*
X85285000Y-89434000D03*
D35*
G04 #@! TO.P,C1,2*
G04 #@! TO.N,GND*
X85285000Y-94434000D03*
G04 #@! TD*
D24*
G04 #@! TO.P,C2,1*
G04 #@! TO.N,Net-(C2-Pad1)*
X129480000Y-56881000D03*
D23*
G04 #@! TO.P,C2,2*
G04 #@! TO.N,GND*
X121980000Y-56881000D03*
G04 #@! TD*
D11*
G04 #@! TO.N,GND*
G04 #@! TO.C,C5*
G36*
X98769691Y-47148053D02*
X98790926Y-47151203D01*
X98811750Y-47156419D01*
X98831962Y-47163651D01*
X98851368Y-47172830D01*
X98869781Y-47183866D01*
X98887024Y-47196654D01*
X98902930Y-47211070D01*
X98917346Y-47226976D01*
X98930134Y-47244219D01*
X98941170Y-47262632D01*
X98950349Y-47282038D01*
X98957581Y-47302250D01*
X98962797Y-47323074D01*
X98965947Y-47344309D01*
X98967000Y-47365750D01*
X98967000Y-47803250D01*
X98965947Y-47824691D01*
X98962797Y-47845926D01*
X98957581Y-47866750D01*
X98950349Y-47886962D01*
X98941170Y-47906368D01*
X98930134Y-47924781D01*
X98917346Y-47942024D01*
X98902930Y-47957930D01*
X98887024Y-47972346D01*
X98869781Y-47985134D01*
X98851368Y-47996170D01*
X98831962Y-48005349D01*
X98811750Y-48012581D01*
X98790926Y-48017797D01*
X98769691Y-48020947D01*
X98748250Y-48022000D01*
X98235750Y-48022000D01*
X98214309Y-48020947D01*
X98193074Y-48017797D01*
X98172250Y-48012581D01*
X98152038Y-48005349D01*
X98132632Y-47996170D01*
X98114219Y-47985134D01*
X98096976Y-47972346D01*
X98081070Y-47957930D01*
X98066654Y-47942024D01*
X98053866Y-47924781D01*
X98042830Y-47906368D01*
X98033651Y-47886962D01*
X98026419Y-47866750D01*
X98021203Y-47845926D01*
X98018053Y-47824691D01*
X98017000Y-47803250D01*
X98017000Y-47365750D01*
X98018053Y-47344309D01*
X98021203Y-47323074D01*
X98026419Y-47302250D01*
X98033651Y-47282038D01*
X98042830Y-47262632D01*
X98053866Y-47244219D01*
X98066654Y-47226976D01*
X98081070Y-47211070D01*
X98096976Y-47196654D01*
X98114219Y-47183866D01*
X98132632Y-47172830D01*
X98152038Y-47163651D01*
X98172250Y-47156419D01*
X98193074Y-47151203D01*
X98214309Y-47148053D01*
X98235750Y-47147000D01*
X98748250Y-47147000D01*
X98769691Y-47148053D01*
X98769691Y-47148053D01*
G37*
D36*
G04 #@! TD*
G04 #@! TO.P,C5,2*
G04 #@! TO.N,GND*
X98492000Y-47584500D03*
D11*
G04 #@! TO.N,+12V*
G04 #@! TO.C,C5*
G36*
X98769691Y-48723053D02*
X98790926Y-48726203D01*
X98811750Y-48731419D01*
X98831962Y-48738651D01*
X98851368Y-48747830D01*
X98869781Y-48758866D01*
X98887024Y-48771654D01*
X98902930Y-48786070D01*
X98917346Y-48801976D01*
X98930134Y-48819219D01*
X98941170Y-48837632D01*
X98950349Y-48857038D01*
X98957581Y-48877250D01*
X98962797Y-48898074D01*
X98965947Y-48919309D01*
X98967000Y-48940750D01*
X98967000Y-49378250D01*
X98965947Y-49399691D01*
X98962797Y-49420926D01*
X98957581Y-49441750D01*
X98950349Y-49461962D01*
X98941170Y-49481368D01*
X98930134Y-49499781D01*
X98917346Y-49517024D01*
X98902930Y-49532930D01*
X98887024Y-49547346D01*
X98869781Y-49560134D01*
X98851368Y-49571170D01*
X98831962Y-49580349D01*
X98811750Y-49587581D01*
X98790926Y-49592797D01*
X98769691Y-49595947D01*
X98748250Y-49597000D01*
X98235750Y-49597000D01*
X98214309Y-49595947D01*
X98193074Y-49592797D01*
X98172250Y-49587581D01*
X98152038Y-49580349D01*
X98132632Y-49571170D01*
X98114219Y-49560134D01*
X98096976Y-49547346D01*
X98081070Y-49532930D01*
X98066654Y-49517024D01*
X98053866Y-49499781D01*
X98042830Y-49481368D01*
X98033651Y-49461962D01*
X98026419Y-49441750D01*
X98021203Y-49420926D01*
X98018053Y-49399691D01*
X98017000Y-49378250D01*
X98017000Y-48940750D01*
X98018053Y-48919309D01*
X98021203Y-48898074D01*
X98026419Y-48877250D01*
X98033651Y-48857038D01*
X98042830Y-48837632D01*
X98053866Y-48819219D01*
X98066654Y-48801976D01*
X98081070Y-48786070D01*
X98096976Y-48771654D01*
X98114219Y-48758866D01*
X98132632Y-48747830D01*
X98152038Y-48738651D01*
X98172250Y-48731419D01*
X98193074Y-48726203D01*
X98214309Y-48723053D01*
X98235750Y-48722000D01*
X98748250Y-48722000D01*
X98769691Y-48723053D01*
X98769691Y-48723053D01*
G37*
D36*
G04 #@! TD*
G04 #@! TO.P,C5,1*
G04 #@! TO.N,+12V*
X98492000Y-49159500D03*
D37*
G04 #@! TO.P,J7,3*
G04 #@! TO.N,/Main/HV-*
X179645000Y-109865000D03*
G04 #@! TO.P,J7,2*
X179645000Y-105725000D03*
D38*
G04 #@! TO.P,J7,1*
X179645000Y-101585000D03*
G04 #@! TD*
G04 #@! TO.P,J8,1*
G04 #@! TO.N,/Main/HV+*
X194885000Y-112380000D03*
D37*
G04 #@! TO.P,J8,2*
X194885000Y-116520000D03*
G04 #@! TO.P,J8,3*
X194885000Y-120660000D03*
G04 #@! TD*
D11*
G04 #@! TO.N,/Main/CAN-*
G04 #@! TO.C,R1*
G36*
X129632691Y-142390053D02*
X129653926Y-142393203D01*
X129674750Y-142398419D01*
X129694962Y-142405651D01*
X129714368Y-142414830D01*
X129732781Y-142425866D01*
X129750024Y-142438654D01*
X129765930Y-142453070D01*
X129780346Y-142468976D01*
X129793134Y-142486219D01*
X129804170Y-142504632D01*
X129813349Y-142524038D01*
X129820581Y-142544250D01*
X129825797Y-142565074D01*
X129828947Y-142586309D01*
X129830000Y-142607750D01*
X129830000Y-143120250D01*
X129828947Y-143141691D01*
X129825797Y-143162926D01*
X129820581Y-143183750D01*
X129813349Y-143203962D01*
X129804170Y-143223368D01*
X129793134Y-143241781D01*
X129780346Y-143259024D01*
X129765930Y-143274930D01*
X129750024Y-143289346D01*
X129732781Y-143302134D01*
X129714368Y-143313170D01*
X129694962Y-143322349D01*
X129674750Y-143329581D01*
X129653926Y-143334797D01*
X129632691Y-143337947D01*
X129611250Y-143339000D01*
X129173750Y-143339000D01*
X129152309Y-143337947D01*
X129131074Y-143334797D01*
X129110250Y-143329581D01*
X129090038Y-143322349D01*
X129070632Y-143313170D01*
X129052219Y-143302134D01*
X129034976Y-143289346D01*
X129019070Y-143274930D01*
X129004654Y-143259024D01*
X128991866Y-143241781D01*
X128980830Y-143223368D01*
X128971651Y-143203962D01*
X128964419Y-143183750D01*
X128959203Y-143162926D01*
X128956053Y-143141691D01*
X128955000Y-143120250D01*
X128955000Y-142607750D01*
X128956053Y-142586309D01*
X128959203Y-142565074D01*
X128964419Y-142544250D01*
X128971651Y-142524038D01*
X128980830Y-142504632D01*
X128991866Y-142486219D01*
X129004654Y-142468976D01*
X129019070Y-142453070D01*
X129034976Y-142438654D01*
X129052219Y-142425866D01*
X129070632Y-142414830D01*
X129090038Y-142405651D01*
X129110250Y-142398419D01*
X129131074Y-142393203D01*
X129152309Y-142390053D01*
X129173750Y-142389000D01*
X129611250Y-142389000D01*
X129632691Y-142390053D01*
X129632691Y-142390053D01*
G37*
D36*
G04 #@! TD*
G04 #@! TO.P,R1,2*
G04 #@! TO.N,/Main/CAN-*
X129392500Y-142864000D03*
D11*
G04 #@! TO.N,/Main/CAN+*
G04 #@! TO.C,R1*
G36*
X128057691Y-142390053D02*
X128078926Y-142393203D01*
X128099750Y-142398419D01*
X128119962Y-142405651D01*
X128139368Y-142414830D01*
X128157781Y-142425866D01*
X128175024Y-142438654D01*
X128190930Y-142453070D01*
X128205346Y-142468976D01*
X128218134Y-142486219D01*
X128229170Y-142504632D01*
X128238349Y-142524038D01*
X128245581Y-142544250D01*
X128250797Y-142565074D01*
X128253947Y-142586309D01*
X128255000Y-142607750D01*
X128255000Y-143120250D01*
X128253947Y-143141691D01*
X128250797Y-143162926D01*
X128245581Y-143183750D01*
X128238349Y-143203962D01*
X128229170Y-143223368D01*
X128218134Y-143241781D01*
X128205346Y-143259024D01*
X128190930Y-143274930D01*
X128175024Y-143289346D01*
X128157781Y-143302134D01*
X128139368Y-143313170D01*
X128119962Y-143322349D01*
X128099750Y-143329581D01*
X128078926Y-143334797D01*
X128057691Y-143337947D01*
X128036250Y-143339000D01*
X127598750Y-143339000D01*
X127577309Y-143337947D01*
X127556074Y-143334797D01*
X127535250Y-143329581D01*
X127515038Y-143322349D01*
X127495632Y-143313170D01*
X127477219Y-143302134D01*
X127459976Y-143289346D01*
X127444070Y-143274930D01*
X127429654Y-143259024D01*
X127416866Y-143241781D01*
X127405830Y-143223368D01*
X127396651Y-143203962D01*
X127389419Y-143183750D01*
X127384203Y-143162926D01*
X127381053Y-143141691D01*
X127380000Y-143120250D01*
X127380000Y-142607750D01*
X127381053Y-142586309D01*
X127384203Y-142565074D01*
X127389419Y-142544250D01*
X127396651Y-142524038D01*
X127405830Y-142504632D01*
X127416866Y-142486219D01*
X127429654Y-142468976D01*
X127444070Y-142453070D01*
X127459976Y-142438654D01*
X127477219Y-142425866D01*
X127495632Y-142414830D01*
X127515038Y-142405651D01*
X127535250Y-142398419D01*
X127556074Y-142393203D01*
X127577309Y-142390053D01*
X127598750Y-142389000D01*
X128036250Y-142389000D01*
X128057691Y-142390053D01*
X128057691Y-142390053D01*
G37*
D36*
G04 #@! TD*
G04 #@! TO.P,R1,1*
G04 #@! TO.N,/Main/CAN+*
X127817500Y-142864000D03*
D22*
G04 #@! TO.P,J6,1*
G04 #@! TO.N,/Main/HV+*
X213300000Y-118095000D03*
D21*
X216525000Y-118095000D03*
X215580419Y-120375419D03*
X213300000Y-121320000D03*
X211019581Y-120375419D03*
X210075000Y-118095000D03*
X211019581Y-115814581D03*
X213300000Y-114870000D03*
X215580419Y-115814581D03*
G04 #@! TD*
D39*
G04 #@! TO.N,+12V*
X97125000Y-137854000D03*
G04 #@! TO.N,GND*
X97790000Y-123444000D03*
X92075000Y-122809000D03*
X80645000Y-123444000D03*
X105156000Y-138557000D03*
X69850000Y-146939000D03*
X63500000Y-131064000D03*
X55245000Y-127254000D03*
X55245000Y-120904000D03*
X87630000Y-135509000D03*
X81377000Y-130488000D03*
X112208000Y-112253000D03*
X147514000Y-40371000D03*
X147514000Y-45705000D03*
X147768000Y-52309000D03*
X142688000Y-49007000D03*
X138370000Y-42911000D03*
X135068000Y-50023000D03*
X128270000Y-115189000D03*
X109601000Y-121412000D03*
X115189000Y-114300000D03*
X128524000Y-120650000D03*
X57277000Y-75184000D03*
X55499000Y-65532000D03*
X66548000Y-118872000D03*
X69850000Y-114300000D03*
X139700000Y-147320000D03*
X139700000Y-142240000D03*
X139700000Y-137160000D03*
X139700000Y-132080000D03*
X139700000Y-127000000D03*
X139700000Y-116840000D03*
X139700000Y-109220000D03*
X140970000Y-103505000D03*
X142875000Y-97155000D03*
X144780000Y-89535000D03*
X146050000Y-83185000D03*
X142875000Y-78740000D03*
X142875000Y-84455000D03*
X139065000Y-86995000D03*
X141605000Y-90805000D03*
X137795000Y-93345000D03*
X139065000Y-98425000D03*
X134620000Y-100330000D03*
X136525000Y-105410000D03*
X133985000Y-95250000D03*
X138430000Y-81915000D03*
X136525000Y-76835000D03*
X137160000Y-71120000D03*
X132080000Y-71120000D03*
X126365000Y-71120000D03*
X118745000Y-71755000D03*
X111760000Y-72390000D03*
X109220000Y-78105000D03*
X109220000Y-84455000D03*
X109855000Y-91440000D03*
X130810000Y-106680000D03*
X123825000Y-107950000D03*
X127000000Y-110490000D03*
X121920000Y-117475000D03*
X120015000Y-110490000D03*
X102870000Y-100965000D03*
X102870000Y-96520000D03*
X102870000Y-92075000D03*
X102870000Y-88265000D03*
X106045000Y-98425000D03*
X106045000Y-93980000D03*
X106045000Y-88265000D03*
X98425000Y-100965000D03*
X98425000Y-96520000D03*
X98425000Y-92075000D03*
X98425000Y-88265000D03*
X90805000Y-100965000D03*
X83185000Y-100965000D03*
X76835000Y-100965000D03*
X70485000Y-100965000D03*
X69850000Y-93980000D03*
X76200000Y-93980000D03*
X81915000Y-93980000D03*
X88900000Y-93980000D03*
X89535000Y-88900000D03*
X93345000Y-86360000D03*
X73660000Y-97790000D03*
X86360000Y-97790000D03*
X93345000Y-93980000D03*
X71755000Y-40640000D03*
X85090000Y-40640000D03*
X99060000Y-40640000D03*
X112395000Y-40640000D03*
X123825000Y-40640000D03*
X80645000Y-48895000D03*
X63500000Y-56515000D03*
X66040000Y-64135000D03*
X61595000Y-68580000D03*
X147955000Y-62865000D03*
X147955000Y-68580000D03*
X142240000Y-66040000D03*
X147320000Y-76835000D03*
X139700000Y-74295000D03*
X140335000Y-69215000D03*
X101346000Y-129286000D03*
X103124000Y-127254000D03*
X105410000Y-124714000D03*
X110490000Y-124714000D03*
X107950000Y-129286000D03*
X120650000Y-124968000D03*
X114808000Y-127762000D03*
X128778000Y-124714000D03*
X127000000Y-132080000D03*
X119634000Y-134366000D03*
X132842000Y-125476000D03*
X125730000Y-147828000D03*
X88392000Y-147574000D03*
X92964000Y-146050000D03*
X104902000Y-145796000D03*
X78486000Y-146304000D03*
X74422000Y-137414000D03*
X130048000Y-53848000D03*
X126746000Y-59182000D03*
X124968000Y-64770000D03*
X123444000Y-69088000D03*
X115570000Y-64008000D03*
X113538000Y-53340000D03*
X113030000Y-58928000D03*
X103886000Y-66802000D03*
X103886000Y-76962000D03*
X106934000Y-70866000D03*
X176776380Y-69220080D03*
X174579280Y-69202300D03*
X101441967Y-132988681D03*
X139675209Y-121895209D03*
X77056440Y-118346978D03*
X86639691Y-115214691D03*
X102387691Y-117373691D03*
X119679710Y-50664010D03*
G04 #@! TO.N,+5V*
X145336090Y-108125090D03*
X130810000Y-131064000D03*
G04 #@! TO.N,Net-(Q1-Pad1)*
X118745000Y-51689000D03*
X104775000Y-59944000D03*
G04 #@! TO.N,Net-(Q3-Pad1)*
X102235000Y-61849000D03*
X98992168Y-69856507D03*
G04 #@! TO.N,Net-(Q4-Pad1)*
X103505000Y-80899000D03*
X102272063Y-63312062D03*
G04 #@! TO.N,Net-(U1-Pad1)*
X114935000Y-134366000D03*
X133350000Y-136652000D03*
G04 #@! TO.N,Net-(U1-Pad4)*
X114935000Y-136017000D03*
X127823830Y-136788701D03*
G04 #@! TO.N,/Main/sheet5C830478/12V_OUT*
X108526000Y-109119000D03*
X107891000Y-107849000D03*
X108526000Y-106579000D03*
X107891000Y-105309000D03*
X108526000Y-104039000D03*
X107891000Y-102769000D03*
X111955000Y-109119000D03*
X111320000Y-107849000D03*
X111955000Y-106579000D03*
X111320000Y-105309000D03*
X111955000Y-104039000D03*
X111320000Y-102769000D03*
G04 #@! TO.N,/Main/sheet5C830476/LED1*
X96490000Y-122614000D03*
X94066081Y-116898383D03*
G04 #@! TO.N,/Main/sheet5C830476/LED2*
X85695000Y-120709000D03*
X93302729Y-117544384D03*
G04 #@! TO.N,/Main/TEMP_1*
X97053691Y-121420800D03*
X69621691Y-112928691D03*
G04 #@! TO.N,/Main/sheet5C830476/MOSI*
X94079691Y-132988681D03*
X89737520Y-127085938D03*
G04 #@! TO.N,/Main/sheet5C830476/SCK*
X94488000Y-128651000D03*
X115195194Y-131994158D03*
G04 #@! TO.N,/Main/sheet5C830476/MISO*
X87909691Y-127406691D03*
X92680000Y-132793010D03*
G04 #@! TO.N,/Main/CAN-*
X130175000Y-142494000D03*
G04 #@! TO.N,/Main/CAN+*
X127635000Y-141224000D03*
G04 #@! TO.N,/Main/DC_DC_EN*
X88235000Y-123884000D03*
X100307956Y-125829462D03*
G04 #@! TO.N,/Main/sheet5C830476/FAN_CTRL_3*
X98831691Y-130835691D03*
X101450564Y-85786683D03*
G04 #@! TO.N,/Main/sheet5C830476/FAN_CTRL_1*
X102108000Y-84582000D03*
X96973898Y-129564948D03*
G04 #@! TO.N,/Main/sheet5C830476/FAN_CTRL_2*
X100444955Y-85293955D03*
X87727000Y-121852000D03*
X103356030Y-64833012D03*
X106324400Y-62788800D03*
G04 #@! TO.N,/Main/sheet5C830476/FAN_CTRL_0*
X99568000Y-86614000D03*
X99568000Y-123190000D03*
G04 #@! TO.N,/Main/sheet5C830476/CAN_CS*
X116967000Y-130429000D03*
X99504791Y-129832391D03*
G04 #@! TD*
D40*
G04 #@! TO.N,+12V*
X65935000Y-87624000D02*
X68550000Y-90239000D01*
X68550000Y-90239000D02*
X68550000Y-109914000D01*
X68550000Y-109914000D02*
X68550000Y-121937642D01*
X68550000Y-121937642D02*
X68550000Y-125154000D01*
X68550000Y-125154000D02*
X81250000Y-137854000D01*
X81250000Y-137854000D02*
X97125000Y-137854000D01*
G04 #@! TO.N,GND*
X174597060Y-69220080D02*
X174579280Y-69202300D01*
X176776380Y-69220080D02*
X174597060Y-69220080D01*
D41*
G04 #@! TO.N,+5V*
X131209999Y-130664001D02*
X131209999Y-123900001D01*
X130810000Y-131064000D02*
X131209999Y-130664001D01*
X135894691Y-119944691D02*
X136169691Y-119944691D01*
X131939381Y-123900001D02*
X135894691Y-119944691D01*
X131209999Y-123900001D02*
X131939381Y-123900001D01*
X136169691Y-117944691D02*
X136169691Y-119944691D01*
X136444691Y-117944691D02*
X136169691Y-117944691D01*
X144936091Y-109453291D02*
X136444691Y-117944691D01*
X144936091Y-108525089D02*
X144936091Y-109453291D01*
X145336090Y-108125090D02*
X144936091Y-108525089D01*
D42*
G04 #@! TO.N,Net-(Q1-Pad1)*
X113309982Y-51689000D02*
X118745000Y-51689000D01*
X105454981Y-59544001D02*
X113309982Y-51689000D01*
X105174999Y-59544001D02*
X105454981Y-59544001D01*
X104775000Y-59944000D02*
X105174999Y-59544001D01*
G04 #@! TO.N,Net-(Q3-Pad1)*
X98992168Y-65091832D02*
X102235000Y-61849000D01*
X98992168Y-69856507D02*
X98992168Y-65091832D01*
G04 #@! TO.N,Net-(Q4-Pad1)*
X102272063Y-79666063D02*
X102272063Y-63312062D01*
X103505000Y-80899000D02*
X102272063Y-79666063D01*
G04 #@! TO.N,Net-(U1-Pad1)*
X114935000Y-134931685D02*
X116092006Y-136088691D01*
X114935000Y-134366000D02*
X114935000Y-134931685D01*
X132786691Y-136088691D02*
X133350000Y-136652000D01*
X116092006Y-136088691D02*
X132786691Y-136088691D01*
D43*
G04 #@! TO.N,Net-(U1-Pad4)*
X114935000Y-136017000D02*
X115706701Y-136788701D01*
X127258145Y-136788701D02*
X127823830Y-136788701D01*
X115706701Y-136788701D02*
X127258145Y-136788701D01*
D44*
G04 #@! TO.N,/Main/sheet5C830478/12V_OUT*
X132509000Y-74259000D02*
X133290000Y-75040000D01*
X127194000Y-74259000D02*
X132509000Y-74259000D01*
D43*
G04 #@! TO.N,/Main/sheet5C830476/LED1*
X96490000Y-122614000D02*
X94066081Y-120190081D01*
X94066081Y-117464068D02*
X94066081Y-116898383D01*
X94066081Y-120190081D02*
X94066081Y-117464068D01*
G04 #@! TO.N,/Main/sheet5C830476/LED2*
X90138113Y-120709000D02*
X92902730Y-117944383D01*
X85695000Y-120709000D02*
X90138113Y-120709000D01*
X92902730Y-117944383D02*
X93302729Y-117544384D01*
D40*
G04 #@! TO.N,/Main/IMD_OK*
X57935000Y-95624000D02*
X56078845Y-95624000D01*
X56078845Y-95624000D02*
X54808589Y-96894256D01*
X54808589Y-114458278D02*
X79987090Y-139636779D01*
D45*
X54808589Y-98164557D02*
X54808589Y-96894256D01*
X54786390Y-98186756D02*
X54808589Y-98164557D01*
X54786390Y-113834736D02*
X54786390Y-98186756D01*
X54808589Y-113856935D02*
X54786390Y-113834736D01*
X54808589Y-114458278D02*
X54808589Y-113856935D01*
X79987090Y-139636779D02*
X97197779Y-139636779D01*
X98925000Y-141364000D02*
X98925000Y-141594000D01*
X97197779Y-139636779D02*
X98925000Y-141364000D01*
D43*
G04 #@! TO.N,/Main/TEMP_1*
X96653692Y-121020801D02*
X95747801Y-121020801D01*
X97053691Y-121420800D02*
X96653692Y-121020801D01*
X95747801Y-121020801D02*
X94767691Y-120040691D01*
X94767691Y-120040691D02*
X94767691Y-116484691D01*
X94767691Y-116484691D02*
X93243691Y-114960691D01*
X93243691Y-114960691D02*
X91211691Y-112928691D01*
X91211691Y-112928691D02*
X69621691Y-112928691D01*
X69621691Y-112928691D02*
X69621691Y-112928691D01*
G04 #@! TO.N,/Main/sheet5C830476/MOSI*
X93334002Y-130785179D02*
X93334002Y-130799002D01*
X94107000Y-131572000D02*
X94107000Y-132715000D01*
X93334002Y-130799002D02*
X94107000Y-131572000D01*
D42*
X93334002Y-130799002D02*
X93334002Y-130682420D01*
X93334002Y-130682420D02*
X90137519Y-127485937D01*
X90137519Y-127485937D02*
X89737520Y-127085938D01*
X89337521Y-126685939D02*
X89737520Y-127085938D01*
X89329593Y-126678011D02*
X89337521Y-126685939D01*
X89226834Y-126678011D02*
X89329593Y-126678011D01*
D43*
X81885000Y-120679963D02*
X87883048Y-126678011D01*
X87883048Y-126678011D02*
X89226834Y-126678011D01*
X81885000Y-117374000D02*
X81885000Y-120679963D01*
G04 #@! TO.N,/Main/sheet5C830476/SCK*
X91880000Y-126043000D02*
X94488000Y-128651000D01*
X81885000Y-114834000D02*
X82989001Y-115938001D01*
X97265473Y-131994158D02*
X114629509Y-131994158D01*
X114629509Y-131994158D02*
X115195194Y-131994158D01*
X94488000Y-129216685D02*
X97265473Y-131994158D01*
X94488000Y-128651000D02*
X94488000Y-129216685D01*
D42*
X83035001Y-115984001D02*
X83035001Y-121132001D01*
X82989001Y-115938001D02*
X83035001Y-115984001D01*
X83035001Y-121132001D02*
X83035001Y-121158947D01*
X83035001Y-121262001D02*
X83035001Y-121132001D01*
X87770001Y-125997001D02*
X83035001Y-121262001D01*
X89113786Y-125997001D02*
X87770001Y-125997001D01*
X91880000Y-126043000D02*
X89159785Y-126043000D01*
X89159785Y-126043000D02*
X89113786Y-125997001D01*
D43*
G04 #@! TO.N,/Main/sheet5C830476/MISO*
X80398200Y-114834000D02*
X80449001Y-114884801D01*
X79345000Y-114834000D02*
X80398200Y-114834000D01*
X92680000Y-131396010D02*
X92680000Y-131744764D01*
X92680000Y-131744764D02*
X92680000Y-132793010D01*
D42*
X92680000Y-131396010D02*
X92680000Y-131018382D01*
X89068309Y-127406691D02*
X87909691Y-127406691D01*
X92680000Y-131018382D02*
X89068309Y-127406691D01*
X80495001Y-119992001D02*
X80495001Y-114930801D01*
X80495001Y-114930801D02*
X80398200Y-114834000D01*
X87909691Y-127406691D02*
X80495001Y-119992001D01*
D40*
G04 #@! TO.N,/Main/CAN-*
X129805000Y-142864000D02*
X130175000Y-142494000D01*
X129392500Y-142864000D02*
X129805000Y-142864000D01*
D42*
X97385173Y-139184369D02*
X80742169Y-139184369D01*
X97545495Y-139344691D02*
X97385173Y-139184369D01*
X101222491Y-139344691D02*
X97545495Y-139344691D01*
X80648491Y-139090691D02*
X80746800Y-139189000D01*
X80742169Y-139184369D02*
X80648491Y-139090691D01*
X55215000Y-113657200D02*
X80648491Y-139090691D01*
X126018200Y-146174000D02*
X108051800Y-146174000D01*
X129392500Y-142864000D02*
X127987500Y-144269000D01*
X127987500Y-144269000D02*
X127923200Y-144269000D01*
X127923200Y-144269000D02*
X126018200Y-146174000D01*
X108051800Y-146174000D02*
X101222491Y-139344691D01*
X60622501Y-95323001D02*
X58510811Y-97434691D01*
X60622501Y-94936499D02*
X60622501Y-95323001D01*
X61935000Y-93624000D02*
X60622501Y-94936499D01*
X56739000Y-97434691D02*
X55215000Y-98958691D01*
X58510811Y-97434691D02*
X56739000Y-97434691D01*
D43*
X55215000Y-113657200D02*
X55215000Y-98958691D01*
G04 #@! TO.N,/Main/CAN+*
X55665000Y-113470800D02*
X56204010Y-114009810D01*
X55665000Y-105418354D02*
X55665000Y-113470800D01*
D40*
X127817500Y-141406500D02*
X127635000Y-141224000D01*
X127817500Y-142864000D02*
X127817500Y-141406500D01*
D42*
X108238200Y-145724000D02*
X125831800Y-145724000D01*
X127817500Y-143439000D02*
X127817500Y-142864000D01*
X127817500Y-143738300D02*
X127817500Y-143439000D01*
X125831800Y-145724000D02*
X127817500Y-143738300D01*
X101253200Y-138739000D02*
X101350891Y-138836691D01*
X80933200Y-138739000D02*
X101253200Y-138739000D01*
X56204010Y-114009810D02*
X80933200Y-138739000D01*
X101350891Y-138836691D02*
X108238200Y-145724000D01*
X58676500Y-97834702D02*
X57296989Y-97834702D01*
X57296989Y-97834702D02*
X55665000Y-99466691D01*
X58887202Y-97624000D02*
X58676500Y-97834702D01*
X55665000Y-99466691D02*
X55665000Y-105418354D01*
X61935000Y-97624000D02*
X58887202Y-97624000D01*
D43*
G04 #@! TO.N,/Main/DC_DC_EN*
X99907957Y-125429463D02*
X100307956Y-125829462D01*
X99886494Y-125408000D02*
X99907957Y-125429463D01*
X88235000Y-123884000D02*
X89759000Y-125408000D01*
X89759000Y-125408000D02*
X99886494Y-125408000D01*
G04 #@! TO.N,/Main/sheet5C830476/FAN_CTRL_3*
X101050565Y-123250341D02*
X101050565Y-86186682D01*
X101050565Y-86186682D02*
X101450564Y-85786683D01*
D42*
X96273897Y-129900949D02*
X96273897Y-129801897D01*
X96808640Y-130435692D02*
X96273897Y-129900949D01*
X98831691Y-130835691D02*
X98431692Y-130435692D01*
X98431692Y-130435692D02*
X96808640Y-130435692D01*
X97309899Y-128864947D02*
X97608290Y-129163338D01*
X96637897Y-128864947D02*
X97309899Y-128864947D01*
X96273897Y-129228947D02*
X96637897Y-128864947D01*
X96273897Y-129692691D02*
X96273897Y-129228947D01*
X97608290Y-129163338D02*
X97996532Y-129163338D01*
X101050565Y-126109305D02*
X101050565Y-123250341D01*
X97996532Y-129163338D02*
X101050565Y-126109305D01*
X96273897Y-129692691D02*
X96273897Y-129900949D01*
D43*
G04 #@! TO.N,/Main/sheet5C830476/FAN_CTRL_1*
X102224001Y-85263686D02*
X102108000Y-85147685D01*
X102108000Y-85147685D02*
X102108000Y-84582000D01*
X96973898Y-129564948D02*
X98162884Y-129564948D01*
D42*
X101498691Y-126229141D02*
X101464141Y-126263691D01*
X101498691Y-86859691D02*
X101498691Y-126229141D01*
X102224001Y-86134381D02*
X101498691Y-86859691D01*
X102224001Y-85263686D02*
X102224001Y-86134381D01*
D43*
X98162884Y-129564948D02*
X101464141Y-126263691D01*
D42*
G04 #@! TO.N,/Main/sheet5C830476/FAN_CTRL_2*
X103356030Y-64833012D02*
X104280188Y-64833012D01*
X104280188Y-64833012D02*
X106324400Y-62788800D01*
D43*
X100444955Y-85859640D02*
X100444955Y-85750691D01*
X100444955Y-85750691D02*
X100444955Y-85293955D01*
X100504902Y-123904098D02*
X100504902Y-85810638D01*
X87727000Y-121852000D02*
X90879789Y-125004789D01*
X90879789Y-125004789D02*
X99404211Y-125004789D01*
X100504902Y-85810638D02*
X100444955Y-85750691D01*
X99404211Y-125004789D02*
X100504902Y-123904098D01*
G04 #@! TO.N,/Main/sheet5C830476/FAN_CTRL_0*
X99568000Y-87179685D02*
X100101691Y-87713376D01*
X99568000Y-86614000D02*
X99568000Y-87179685D01*
X99967999Y-122790001D02*
X99568000Y-123190000D01*
X100101691Y-122656309D02*
X99967999Y-122790001D01*
X100101691Y-122580691D02*
X100101691Y-122656309D01*
X100101691Y-87713376D02*
X100101691Y-122580691D01*
G04 #@! TO.N,/Main/sheet5C830476/CAN_CS*
X116401315Y-130429000D02*
X116274315Y-130302000D01*
X116967000Y-130429000D02*
X116401315Y-130429000D01*
X116274315Y-130302000D02*
X100711000Y-130302000D01*
X100711000Y-130302000D02*
X100442000Y-130033000D01*
D42*
X100241391Y-129832391D02*
X99504791Y-129832391D01*
X100442000Y-130033000D02*
X100241391Y-129832391D01*
G04 #@! TD*
D45*
G04 #@! TO.N,+12V*
G36*
X123004000Y-43922811D02*
X117275052Y-50954000D01*
X113382366Y-50954000D01*
X113309982Y-50939602D01*
X113237598Y-50954000D01*
X113237594Y-50954000D01*
X113023199Y-50996646D01*
X112780077Y-51159095D01*
X112739073Y-51220462D01*
X105162434Y-58797102D01*
X105102614Y-58809001D01*
X105102611Y-58809001D01*
X104888216Y-58851647D01*
X104802381Y-58909000D01*
X104569126Y-58909000D01*
X104188720Y-59066569D01*
X103897569Y-59357720D01*
X103740000Y-59738126D01*
X103740000Y-60149874D01*
X103897569Y-60530280D01*
X103953342Y-60586053D01*
X103160537Y-61378857D01*
X103112431Y-61262720D01*
X102821280Y-60971569D01*
X102440874Y-60814000D01*
X102029126Y-60814000D01*
X101648720Y-60971569D01*
X101357569Y-61262720D01*
X101200000Y-61643126D01*
X101200000Y-61844553D01*
X98523631Y-64520923D01*
X98462264Y-64561927D01*
X98421260Y-64623294D01*
X98421259Y-64623295D01*
X98299814Y-64805050D01*
X98242770Y-65091832D01*
X98257169Y-65164221D01*
X98257168Y-69127796D01*
X98114737Y-69270227D01*
X97957168Y-69650633D01*
X97957168Y-70062381D01*
X98114737Y-70442787D01*
X98405888Y-70733938D01*
X98786294Y-70891507D01*
X99198042Y-70891507D01*
X99578448Y-70733938D01*
X99869599Y-70442787D01*
X100027168Y-70062381D01*
X100027168Y-69650633D01*
X99869599Y-69270227D01*
X99727168Y-69127796D01*
X99727168Y-65396278D01*
X101344979Y-63778468D01*
X101394632Y-63898342D01*
X101537064Y-64040774D01*
X101537063Y-77767860D01*
X88456464Y-85897134D01*
X88420288Y-85930998D01*
X88404311Y-85961148D01*
X85958403Y-92609000D01*
X70853351Y-92609000D01*
X67269305Y-89590856D01*
X67223946Y-89566342D01*
X65455382Y-89036517D01*
X61106542Y-86551466D01*
X61679810Y-84258395D01*
X66618204Y-86727592D01*
X66665997Y-86740680D01*
X66715161Y-86734483D01*
X66758211Y-86709943D01*
X66776600Y-86690200D01*
X68681600Y-84150200D01*
X68703027Y-84105519D01*
X68706997Y-84074916D01*
X68773710Y-74829000D01*
X97486010Y-74829000D01*
X97620666Y-75505963D01*
X98004135Y-76079865D01*
X98578037Y-76463334D01*
X99084120Y-76564000D01*
X99425880Y-76564000D01*
X99931963Y-76463334D01*
X100505865Y-76079865D01*
X100889334Y-75505963D01*
X101023990Y-74829000D01*
X100889334Y-74152037D01*
X100505865Y-73578135D01*
X99931963Y-73194666D01*
X99425880Y-73094000D01*
X99084120Y-73094000D01*
X98578037Y-73194666D01*
X98004135Y-73578135D01*
X97620666Y-74152037D01*
X97486010Y-74829000D01*
X68773710Y-74829000D01*
X68819529Y-68479000D01*
X85421010Y-68479000D01*
X85555666Y-69155963D01*
X85939135Y-69729865D01*
X86513037Y-70113334D01*
X87019120Y-70214000D01*
X87360880Y-70214000D01*
X87866963Y-70113334D01*
X88440865Y-69729865D01*
X88824334Y-69155963D01*
X88958990Y-68479000D01*
X88824334Y-67802037D01*
X88440865Y-67228135D01*
X87866963Y-66844666D01*
X87360880Y-66744000D01*
X87019120Y-66744000D01*
X86513037Y-66844666D01*
X85939135Y-67228135D01*
X85555666Y-67802037D01*
X85421010Y-68479000D01*
X68819529Y-68479000D01*
X68892839Y-58319000D01*
X78436010Y-58319000D01*
X78570666Y-58995963D01*
X78954135Y-59569865D01*
X79528037Y-59953334D01*
X80034120Y-60054000D01*
X80375880Y-60054000D01*
X80881963Y-59953334D01*
X81455865Y-59569865D01*
X81839334Y-58995963D01*
X81973990Y-58319000D01*
X81839334Y-57642037D01*
X81455865Y-57068135D01*
X80881963Y-56684666D01*
X80375880Y-56584000D01*
X80034120Y-56584000D01*
X79528037Y-56684666D01*
X78954135Y-57068135D01*
X78570666Y-57642037D01*
X78436010Y-58319000D01*
X68892839Y-58319000D01*
X68901087Y-57176000D01*
X71315000Y-57176000D01*
X71361097Y-57167339D01*
X93182863Y-48667000D01*
X98223483Y-48667000D01*
X98235750Y-48669440D01*
X98748250Y-48669440D01*
X98760517Y-48667000D01*
X101287000Y-48667000D01*
X101328108Y-48660163D01*
X105438269Y-47254055D01*
X109566691Y-47254055D01*
X109566691Y-48047326D01*
X109638347Y-48407563D01*
X109911306Y-48816076D01*
X110319818Y-49089035D01*
X110801691Y-49184886D01*
X111283563Y-49089035D01*
X111692076Y-48816076D01*
X111723119Y-48769617D01*
X111817105Y-48910277D01*
X112108255Y-49104818D01*
X112451690Y-49173131D01*
X113151692Y-49173131D01*
X113495127Y-49104818D01*
X113786277Y-48910277D01*
X113980818Y-48619127D01*
X114049131Y-48275692D01*
X114049131Y-47025690D01*
X113980818Y-46682255D01*
X113786277Y-46391105D01*
X113495127Y-46196564D01*
X113151692Y-46128251D01*
X112451690Y-46128251D01*
X112108255Y-46196564D01*
X111817105Y-46391105D01*
X111723119Y-46531765D01*
X111692076Y-46485306D01*
X111283564Y-46212347D01*
X110801691Y-46116496D01*
X110319819Y-46212347D01*
X109911307Y-46485306D01*
X109638347Y-46893818D01*
X109566691Y-47254055D01*
X105438269Y-47254055D01*
X120612123Y-42063000D01*
X123004000Y-42063000D01*
X123004000Y-43922811D01*
X123004000Y-43922811D01*
G37*
X123004000Y-43922811D02*
X117275052Y-50954000D01*
X113382366Y-50954000D01*
X113309982Y-50939602D01*
X113237598Y-50954000D01*
X113237594Y-50954000D01*
X113023199Y-50996646D01*
X112780077Y-51159095D01*
X112739073Y-51220462D01*
X105162434Y-58797102D01*
X105102614Y-58809001D01*
X105102611Y-58809001D01*
X104888216Y-58851647D01*
X104802381Y-58909000D01*
X104569126Y-58909000D01*
X104188720Y-59066569D01*
X103897569Y-59357720D01*
X103740000Y-59738126D01*
X103740000Y-60149874D01*
X103897569Y-60530280D01*
X103953342Y-60586053D01*
X103160537Y-61378857D01*
X103112431Y-61262720D01*
X102821280Y-60971569D01*
X102440874Y-60814000D01*
X102029126Y-60814000D01*
X101648720Y-60971569D01*
X101357569Y-61262720D01*
X101200000Y-61643126D01*
X101200000Y-61844553D01*
X98523631Y-64520923D01*
X98462264Y-64561927D01*
X98421260Y-64623294D01*
X98421259Y-64623295D01*
X98299814Y-64805050D01*
X98242770Y-65091832D01*
X98257169Y-65164221D01*
X98257168Y-69127796D01*
X98114737Y-69270227D01*
X97957168Y-69650633D01*
X97957168Y-70062381D01*
X98114737Y-70442787D01*
X98405888Y-70733938D01*
X98786294Y-70891507D01*
X99198042Y-70891507D01*
X99578448Y-70733938D01*
X99869599Y-70442787D01*
X100027168Y-70062381D01*
X100027168Y-69650633D01*
X99869599Y-69270227D01*
X99727168Y-69127796D01*
X99727168Y-65396278D01*
X101344979Y-63778468D01*
X101394632Y-63898342D01*
X101537064Y-64040774D01*
X101537063Y-77767860D01*
X88456464Y-85897134D01*
X88420288Y-85930998D01*
X88404311Y-85961148D01*
X85958403Y-92609000D01*
X70853351Y-92609000D01*
X67269305Y-89590856D01*
X67223946Y-89566342D01*
X65455382Y-89036517D01*
X61106542Y-86551466D01*
X61679810Y-84258395D01*
X66618204Y-86727592D01*
X66665997Y-86740680D01*
X66715161Y-86734483D01*
X66758211Y-86709943D01*
X66776600Y-86690200D01*
X68681600Y-84150200D01*
X68703027Y-84105519D01*
X68706997Y-84074916D01*
X68773710Y-74829000D01*
X97486010Y-74829000D01*
X97620666Y-75505963D01*
X98004135Y-76079865D01*
X98578037Y-76463334D01*
X99084120Y-76564000D01*
X99425880Y-76564000D01*
X99931963Y-76463334D01*
X100505865Y-76079865D01*
X100889334Y-75505963D01*
X101023990Y-74829000D01*
X100889334Y-74152037D01*
X100505865Y-73578135D01*
X99931963Y-73194666D01*
X99425880Y-73094000D01*
X99084120Y-73094000D01*
X98578037Y-73194666D01*
X98004135Y-73578135D01*
X97620666Y-74152037D01*
X97486010Y-74829000D01*
X68773710Y-74829000D01*
X68819529Y-68479000D01*
X85421010Y-68479000D01*
X85555666Y-69155963D01*
X85939135Y-69729865D01*
X86513037Y-70113334D01*
X87019120Y-70214000D01*
X87360880Y-70214000D01*
X87866963Y-70113334D01*
X88440865Y-69729865D01*
X88824334Y-69155963D01*
X88958990Y-68479000D01*
X88824334Y-67802037D01*
X88440865Y-67228135D01*
X87866963Y-66844666D01*
X87360880Y-66744000D01*
X87019120Y-66744000D01*
X86513037Y-66844666D01*
X85939135Y-67228135D01*
X85555666Y-67802037D01*
X85421010Y-68479000D01*
X68819529Y-68479000D01*
X68892839Y-58319000D01*
X78436010Y-58319000D01*
X78570666Y-58995963D01*
X78954135Y-59569865D01*
X79528037Y-59953334D01*
X80034120Y-60054000D01*
X80375880Y-60054000D01*
X80881963Y-59953334D01*
X81455865Y-59569865D01*
X81839334Y-58995963D01*
X81973990Y-58319000D01*
X81839334Y-57642037D01*
X81455865Y-57068135D01*
X80881963Y-56684666D01*
X80375880Y-56584000D01*
X80034120Y-56584000D01*
X79528037Y-56684666D01*
X78954135Y-57068135D01*
X78570666Y-57642037D01*
X78436010Y-58319000D01*
X68892839Y-58319000D01*
X68901087Y-57176000D01*
X71315000Y-57176000D01*
X71361097Y-57167339D01*
X93182863Y-48667000D01*
X98223483Y-48667000D01*
X98235750Y-48669440D01*
X98748250Y-48669440D01*
X98760517Y-48667000D01*
X101287000Y-48667000D01*
X101328108Y-48660163D01*
X105438269Y-47254055D01*
X109566691Y-47254055D01*
X109566691Y-48047326D01*
X109638347Y-48407563D01*
X109911306Y-48816076D01*
X110319818Y-49089035D01*
X110801691Y-49184886D01*
X111283563Y-49089035D01*
X111692076Y-48816076D01*
X111723119Y-48769617D01*
X111817105Y-48910277D01*
X112108255Y-49104818D01*
X112451690Y-49173131D01*
X113151692Y-49173131D01*
X113495127Y-49104818D01*
X113786277Y-48910277D01*
X113980818Y-48619127D01*
X114049131Y-48275692D01*
X114049131Y-47025690D01*
X113980818Y-46682255D01*
X113786277Y-46391105D01*
X113495127Y-46196564D01*
X113151692Y-46128251D01*
X112451690Y-46128251D01*
X112108255Y-46196564D01*
X111817105Y-46391105D01*
X111723119Y-46531765D01*
X111692076Y-46485306D01*
X111283564Y-46212347D01*
X110801691Y-46116496D01*
X110319819Y-46212347D01*
X109911307Y-46485306D01*
X109638347Y-46893818D01*
X109566691Y-47254055D01*
X105438269Y-47254055D01*
X120612123Y-42063000D01*
X123004000Y-42063000D01*
X123004000Y-43922811D01*
G04 #@! TO.N,/Main/sheet5C830478/12V_OUT*
G36*
X134941000Y-89618747D02*
X129379324Y-101500510D01*
X117503013Y-109839196D01*
X107002000Y-109629510D01*
X107002000Y-102199290D01*
X111265903Y-99148283D01*
X111299802Y-99112139D01*
X111319000Y-99045000D01*
X111319000Y-88653996D01*
X123835000Y-88653996D01*
X123835000Y-89384004D01*
X124114362Y-90058444D01*
X124630556Y-90574638D01*
X125304996Y-90854000D01*
X126035004Y-90854000D01*
X126709444Y-90574638D01*
X127225638Y-90058444D01*
X127505000Y-89384004D01*
X127505000Y-88653996D01*
X127225638Y-87979556D01*
X126709444Y-87463362D01*
X126035004Y-87184000D01*
X125304996Y-87184000D01*
X124630556Y-87463362D01*
X124114362Y-87979556D01*
X123835000Y-88653996D01*
X111319000Y-88653996D01*
X111319000Y-74522978D01*
X125167756Y-73264000D01*
X134941000Y-73264000D01*
X134941000Y-89618747D01*
X134941000Y-89618747D01*
G37*
X134941000Y-89618747D02*
X129379324Y-101500510D01*
X117503013Y-109839196D01*
X107002000Y-109629510D01*
X107002000Y-102199290D01*
X111265903Y-99148283D01*
X111299802Y-99112139D01*
X111319000Y-99045000D01*
X111319000Y-88653996D01*
X123835000Y-88653996D01*
X123835000Y-89384004D01*
X124114362Y-90058444D01*
X124630556Y-90574638D01*
X125304996Y-90854000D01*
X126035004Y-90854000D01*
X126709444Y-90574638D01*
X127225638Y-90058444D01*
X127505000Y-89384004D01*
X127505000Y-88653996D01*
X127225638Y-87979556D01*
X126709444Y-87463362D01*
X126035004Y-87184000D01*
X125304996Y-87184000D01*
X124630556Y-87463362D01*
X124114362Y-87979556D01*
X123835000Y-88653996D01*
X111319000Y-88653996D01*
X111319000Y-74522978D01*
X125167756Y-73264000D01*
X134941000Y-73264000D01*
X134941000Y-89618747D01*
G04 #@! TO.N,GND*
G36*
X148463000Y-54864000D02*
X148403040Y-75916807D01*
X141481054Y-106906315D01*
X141478000Y-106934000D01*
X141478000Y-111923554D01*
X137441941Y-115959614D01*
X137444909Y-115944691D01*
X137368772Y-115561924D01*
X137151952Y-115237430D01*
X136827458Y-115020610D01*
X136541307Y-114963691D01*
X135798075Y-114963691D01*
X135511924Y-115020610D01*
X135187430Y-115237430D01*
X134970610Y-115561924D01*
X134894473Y-115944691D01*
X134970610Y-116327458D01*
X135187430Y-116651952D01*
X135511924Y-116868772D01*
X135798075Y-116925691D01*
X136475864Y-116925691D01*
X136437864Y-116963691D01*
X135798075Y-116963691D01*
X135511924Y-117020610D01*
X135187430Y-117237430D01*
X134970610Y-117561924D01*
X134894473Y-117944691D01*
X134970610Y-118327458D01*
X135187430Y-118651952D01*
X135471191Y-118841555D01*
X135471192Y-119047827D01*
X135187430Y-119237430D01*
X134970610Y-119561924D01*
X134894473Y-119944691D01*
X134896529Y-119955025D01*
X131650054Y-123201501D01*
X131278793Y-123201501D01*
X131209999Y-123187817D01*
X131141205Y-123201501D01*
X130937458Y-123242029D01*
X130706409Y-123396411D01*
X130552027Y-123627460D01*
X130497815Y-123900001D01*
X130511500Y-123968800D01*
X130511499Y-130342295D01*
X130367599Y-130401900D01*
X130147900Y-130621599D01*
X130029000Y-130908649D01*
X130029000Y-131219351D01*
X130147900Y-131506401D01*
X130367599Y-131726100D01*
X130654649Y-131845000D01*
X130965351Y-131845000D01*
X131252401Y-131726100D01*
X131472100Y-131506401D01*
X131554601Y-131307226D01*
X131655267Y-131206560D01*
X131713588Y-131167591D01*
X131867971Y-130936542D01*
X131908499Y-130732795D01*
X131908499Y-130732792D01*
X131922182Y-130664002D01*
X131908499Y-130595212D01*
X131908499Y-124606041D01*
X131939381Y-124612184D01*
X132008171Y-124598501D01*
X132008175Y-124598501D01*
X132211922Y-124557973D01*
X132442971Y-124403591D01*
X132481941Y-124345268D01*
X135901519Y-120925691D01*
X136541307Y-120925691D01*
X136827458Y-120868772D01*
X137151952Y-120651952D01*
X137368772Y-120327458D01*
X137444909Y-119944691D01*
X137368772Y-119561924D01*
X137151952Y-119237430D01*
X136868191Y-119047827D01*
X136868191Y-118841555D01*
X137151952Y-118651952D01*
X137368772Y-118327458D01*
X137444909Y-117944691D01*
X137442853Y-117934356D01*
X141478000Y-113899210D01*
X141478000Y-148667691D01*
X105890091Y-148667691D01*
X105888538Y-148668000D01*
X64461492Y-148668000D01*
X63850465Y-148596762D01*
X63297283Y-148395966D01*
X62805133Y-148073298D01*
X62400412Y-147646066D01*
X62104832Y-147137186D01*
X61932437Y-146567984D01*
X61891000Y-146103689D01*
X61891000Y-138192891D01*
X62504000Y-138192891D01*
X62504000Y-140055109D01*
X63216640Y-141775573D01*
X64533427Y-143092360D01*
X66253891Y-143805000D01*
X68116109Y-143805000D01*
X69836573Y-143092360D01*
X71049183Y-141879750D01*
X74560000Y-141879750D01*
X74560000Y-142820310D01*
X74656673Y-143053699D01*
X74835302Y-143232327D01*
X75068691Y-143329000D01*
X75779250Y-143329000D01*
X75938000Y-143170250D01*
X75938000Y-141721000D01*
X74718750Y-141721000D01*
X74560000Y-141879750D01*
X71049183Y-141879750D01*
X71153360Y-141775573D01*
X71736524Y-140367690D01*
X74560000Y-140367690D01*
X74560000Y-141308250D01*
X74718750Y-141467000D01*
X75938000Y-141467000D01*
X75938000Y-140017750D01*
X76192000Y-140017750D01*
X76192000Y-141467000D01*
X76212000Y-141467000D01*
X76212000Y-141721000D01*
X76192000Y-141721000D01*
X76192000Y-143170250D01*
X76350750Y-143329000D01*
X77061309Y-143329000D01*
X77294698Y-143232327D01*
X77473327Y-143053699D01*
X77570000Y-142820310D01*
X77570000Y-142526752D01*
X77703081Y-142725920D01*
X78116885Y-143002416D01*
X78605000Y-143099508D01*
X79093116Y-143002416D01*
X79506920Y-142725920D01*
X79783416Y-142312115D01*
X79856000Y-141947209D01*
X79856000Y-141240790D01*
X79783416Y-140875884D01*
X79506920Y-140462080D01*
X79093115Y-140185584D01*
X78605000Y-140088492D01*
X78116884Y-140185584D01*
X77703080Y-140462080D01*
X77570000Y-140661248D01*
X77570000Y-140367690D01*
X77473327Y-140134301D01*
X77294698Y-139955673D01*
X77061309Y-139859000D01*
X76350750Y-139859000D01*
X76192000Y-140017750D01*
X75938000Y-140017750D01*
X75779250Y-139859000D01*
X75068691Y-139859000D01*
X74835302Y-139955673D01*
X74656673Y-140134301D01*
X74560000Y-140367690D01*
X71736524Y-140367690D01*
X71866000Y-140055109D01*
X71866000Y-138192891D01*
X71153360Y-136472427D01*
X69836573Y-135155640D01*
X68116109Y-134443000D01*
X66253891Y-134443000D01*
X64533427Y-135155640D01*
X63216640Y-136472427D01*
X62504000Y-138192891D01*
X61891000Y-138192891D01*
X61891000Y-136579091D01*
X61887718Y-136562590D01*
X61836137Y-135860189D01*
X61834397Y-135849565D01*
X61834059Y-135838802D01*
X61824763Y-135787134D01*
X61617243Y-134922752D01*
X61612665Y-134909149D01*
X61609683Y-134895120D01*
X61591384Y-134845914D01*
X61234075Y-134031944D01*
X61227163Y-134019371D01*
X61221742Y-134006088D01*
X61195019Y-133960901D01*
X60699216Y-133223067D01*
X60690189Y-133211920D01*
X60682499Y-133199802D01*
X60648196Y-133160062D01*
X60029568Y-132521689D01*
X60018710Y-132512316D01*
X60008996Y-132501753D01*
X59968198Y-132468715D01*
X59246302Y-131949980D01*
X59233951Y-131942676D01*
X59222524Y-131934002D01*
X59176520Y-131908711D01*
X58374173Y-131526011D01*
X58360728Y-131521011D01*
X58347942Y-131514496D01*
X58298186Y-131497752D01*
X57440750Y-131263184D01*
X57426632Y-131260644D01*
X57412894Y-131256496D01*
X57360960Y-131248827D01*
X56478322Y-131170054D01*
X55722847Y-131093315D01*
X55039789Y-130879257D01*
X54413731Y-130532226D01*
X53870233Y-130066392D01*
X53431508Y-129500790D01*
X53115470Y-128858517D01*
X52933620Y-128160383D01*
X52891000Y-127606483D01*
X52891000Y-96894256D01*
X54264741Y-96894256D01*
X54300590Y-97074480D01*
X54300589Y-98025124D01*
X54268439Y-98186756D01*
X54278391Y-98236789D01*
X54278390Y-113784708D01*
X54268439Y-113834736D01*
X54278390Y-113884764D01*
X54278390Y-113884767D01*
X54300590Y-113996372D01*
X54300589Y-114278056D01*
X54264741Y-114458278D01*
X54306139Y-114666400D01*
X54394274Y-114798303D01*
X79647064Y-140051095D01*
X79778968Y-140139230D01*
X79987090Y-140180627D01*
X80167315Y-140144779D01*
X80862025Y-140144779D01*
X80656884Y-140185584D01*
X80243080Y-140462080D01*
X79966584Y-140875885D01*
X79894000Y-141240791D01*
X79894000Y-141947210D01*
X79966584Y-142312116D01*
X80243081Y-142725920D01*
X80656885Y-143002416D01*
X81145000Y-143099508D01*
X81633116Y-143002416D01*
X82046920Y-142725920D01*
X82323416Y-142312115D01*
X82396000Y-141947209D01*
X82396000Y-141240790D01*
X82323416Y-140875884D01*
X82046920Y-140462080D01*
X81633115Y-140185584D01*
X81427974Y-140144779D01*
X83402025Y-140144779D01*
X83196884Y-140185584D01*
X82783080Y-140462080D01*
X82506584Y-140875885D01*
X82434000Y-141240791D01*
X82434000Y-141947210D01*
X82506584Y-142312116D01*
X82783081Y-142725920D01*
X83196885Y-143002416D01*
X83685000Y-143099508D01*
X84173116Y-143002416D01*
X84586920Y-142725920D01*
X84863416Y-142312115D01*
X84936000Y-141947209D01*
X84936000Y-141240790D01*
X84863416Y-140875884D01*
X84586920Y-140462080D01*
X84173115Y-140185584D01*
X83967974Y-140144779D01*
X85942025Y-140144779D01*
X85736884Y-140185584D01*
X85323080Y-140462080D01*
X85046584Y-140875885D01*
X84974000Y-141240791D01*
X84974000Y-141947210D01*
X85046584Y-142312116D01*
X85323081Y-142725920D01*
X85736885Y-143002416D01*
X86225000Y-143099508D01*
X86713116Y-143002416D01*
X87126920Y-142725920D01*
X87403416Y-142312115D01*
X87476000Y-141947209D01*
X87476000Y-141879750D01*
X89800000Y-141879750D01*
X89800000Y-142820310D01*
X89896673Y-143053699D01*
X90075302Y-143232327D01*
X90308691Y-143329000D01*
X91019250Y-143329000D01*
X91178000Y-143170250D01*
X91178000Y-141721000D01*
X91432000Y-141721000D01*
X91432000Y-143170250D01*
X91590750Y-143329000D01*
X92301309Y-143329000D01*
X92534698Y-143232327D01*
X92713327Y-143053699D01*
X92786990Y-142875861D01*
X92874509Y-142984533D01*
X93392500Y-143267584D01*
X93484969Y-143285302D01*
X93718000Y-143164246D01*
X93718000Y-141721000D01*
X93972000Y-141721000D01*
X93972000Y-143164246D01*
X94205031Y-143285302D01*
X94297500Y-143267584D01*
X94815491Y-142984533D01*
X95115000Y-142612632D01*
X95414509Y-142984533D01*
X95932500Y-143267584D01*
X96024969Y-143285302D01*
X96258000Y-143164246D01*
X96258000Y-141721000D01*
X93972000Y-141721000D01*
X93718000Y-141721000D01*
X91432000Y-141721000D01*
X91178000Y-141721000D01*
X89958750Y-141721000D01*
X89800000Y-141879750D01*
X87476000Y-141879750D01*
X87476000Y-141240790D01*
X87403416Y-140875884D01*
X87126920Y-140462080D01*
X86713115Y-140185584D01*
X86507974Y-140144779D01*
X89892333Y-140144779D01*
X89800000Y-140367690D01*
X89800000Y-141308250D01*
X89958750Y-141467000D01*
X91178000Y-141467000D01*
X91178000Y-141447000D01*
X91432000Y-141447000D01*
X91432000Y-141467000D01*
X93718000Y-141467000D01*
X93718000Y-141447000D01*
X93972000Y-141447000D01*
X93972000Y-141467000D01*
X96258000Y-141467000D01*
X96258000Y-141447000D01*
X96512000Y-141447000D01*
X96512000Y-141467000D01*
X96532000Y-141467000D01*
X96532000Y-141721000D01*
X96512000Y-141721000D01*
X96512000Y-143164246D01*
X96745031Y-143285302D01*
X96837500Y-143267584D01*
X97355491Y-142984533D01*
X97725734Y-142524802D01*
X97775445Y-142355309D01*
X98023081Y-142725920D01*
X98436885Y-143002416D01*
X98925000Y-143099508D01*
X99413116Y-143002416D01*
X99826920Y-142725920D01*
X100103416Y-142312115D01*
X100176000Y-141947209D01*
X100176000Y-141240790D01*
X100103416Y-140875884D01*
X99826920Y-140462080D01*
X99413115Y-140185584D01*
X98925000Y-140088492D01*
X98460339Y-140180919D01*
X98105111Y-139825691D01*
X101023255Y-139825691D01*
X101315745Y-140118181D01*
X100976884Y-140185584D01*
X100563080Y-140462080D01*
X100286584Y-140875885D01*
X100214000Y-141240791D01*
X100214000Y-141947210D01*
X100286584Y-142312116D01*
X100563081Y-142725920D01*
X100976885Y-143002416D01*
X101465000Y-143099508D01*
X101953116Y-143002416D01*
X102366920Y-142725920D01*
X102643416Y-142312115D01*
X102716000Y-141947209D01*
X102716000Y-141518436D01*
X107678184Y-146480620D01*
X107705019Y-146520781D01*
X107864123Y-146627092D01*
X108004427Y-146655000D01*
X108004431Y-146655000D01*
X108051799Y-146664422D01*
X108099167Y-146655000D01*
X125970831Y-146655000D01*
X126018200Y-146664422D01*
X126065569Y-146655000D01*
X126065573Y-146655000D01*
X126205877Y-146627092D01*
X126364981Y-146520781D01*
X126391816Y-146480620D01*
X128144179Y-144728258D01*
X128175177Y-144722092D01*
X128334281Y-144615781D01*
X128361116Y-144575620D01*
X129209273Y-143727464D01*
X129611250Y-143727464D01*
X129843621Y-143681243D01*
X130040615Y-143549615D01*
X130172243Y-143352621D01*
X130187683Y-143275000D01*
X130330351Y-143275000D01*
X130617401Y-143156100D01*
X130837100Y-142936401D01*
X130956000Y-142649351D01*
X130956000Y-142338649D01*
X130837100Y-142051599D01*
X130617401Y-141831900D01*
X130330351Y-141713000D01*
X130019649Y-141713000D01*
X129732599Y-141831900D01*
X129563963Y-142000536D01*
X129173750Y-142000536D01*
X128941379Y-142046757D01*
X128744385Y-142178385D01*
X128612757Y-142375379D01*
X128605000Y-142414376D01*
X128597243Y-142375379D01*
X128465615Y-142178385D01*
X128350900Y-142101734D01*
X128350900Y-141536516D01*
X128416000Y-141379351D01*
X128416000Y-141068649D01*
X128297100Y-140781599D01*
X128077401Y-140561900D01*
X127790351Y-140443000D01*
X127479649Y-140443000D01*
X127192599Y-140561900D01*
X126972900Y-140781599D01*
X126854000Y-141068649D01*
X126854000Y-141379351D01*
X126972900Y-141666401D01*
X127192599Y-141886100D01*
X127284101Y-141924001D01*
X127284101Y-142101734D01*
X127169385Y-142178385D01*
X127037757Y-142375379D01*
X126991536Y-142607750D01*
X126991536Y-143120250D01*
X127037757Y-143352621D01*
X127169385Y-143549615D01*
X127263237Y-143612326D01*
X125632564Y-145243000D01*
X108437437Y-145243000D01*
X101657511Y-138463075D01*
X101626815Y-138432379D01*
X101599981Y-138392219D01*
X101440877Y-138285908D01*
X101300573Y-138258000D01*
X101300569Y-138258000D01*
X101253200Y-138248578D01*
X101205831Y-138258000D01*
X97803006Y-138258000D01*
X97906000Y-138009351D01*
X97906000Y-137698649D01*
X97787100Y-137411599D01*
X97567401Y-137191900D01*
X97280351Y-137073000D01*
X96969649Y-137073000D01*
X96682599Y-137191900D01*
X96553899Y-137320600D01*
X81470941Y-137320600D01*
X78360990Y-134210649D01*
X114154000Y-134210649D01*
X114154000Y-134521351D01*
X114272900Y-134808401D01*
X114456594Y-134992095D01*
X114481908Y-135119361D01*
X114561384Y-135238305D01*
X114561387Y-135238308D01*
X114588220Y-135278466D01*
X114622243Y-135301200D01*
X114492599Y-135354900D01*
X114272900Y-135574599D01*
X114154000Y-135861649D01*
X114154000Y-136172351D01*
X114272900Y-136459401D01*
X114492599Y-136679100D01*
X114779649Y-136798000D01*
X115033501Y-136798000D01*
X115331841Y-137096340D01*
X115358766Y-137136636D01*
X115518400Y-137243300D01*
X115659172Y-137271301D01*
X115706700Y-137280755D01*
X115754228Y-137271301D01*
X127201929Y-137271301D01*
X127381429Y-137450801D01*
X127668479Y-137569701D01*
X127979181Y-137569701D01*
X128266231Y-137450801D01*
X128485930Y-137231102D01*
X128604830Y-136944052D01*
X128604830Y-136633350D01*
X128578462Y-136569691D01*
X132569000Y-136569691D01*
X132569000Y-136807351D01*
X132687900Y-137094401D01*
X132907599Y-137314100D01*
X133194649Y-137433000D01*
X133505351Y-137433000D01*
X133792401Y-137314100D01*
X134012100Y-137094401D01*
X134131000Y-136807351D01*
X134131000Y-136496649D01*
X134012100Y-136209599D01*
X133792401Y-135989900D01*
X133505351Y-135871000D01*
X133249236Y-135871000D01*
X133160306Y-135782070D01*
X133133472Y-135741910D01*
X132974368Y-135635599D01*
X132834064Y-135607691D01*
X132834060Y-135607691D01*
X132786691Y-135598269D01*
X132739322Y-135607691D01*
X116291243Y-135607691D01*
X115544526Y-134860975D01*
X115597100Y-134808401D01*
X115716000Y-134521351D01*
X115716000Y-134210649D01*
X115597100Y-133923599D01*
X115377401Y-133703900D01*
X115090351Y-133585000D01*
X114779649Y-133585000D01*
X114492599Y-133703900D01*
X114272900Y-133923599D01*
X114154000Y-134210649D01*
X78360990Y-134210649D01*
X69089341Y-124939000D01*
X73661536Y-124939000D01*
X73661536Y-126639000D01*
X73691106Y-126787659D01*
X73775314Y-126913686D01*
X73901341Y-126997894D01*
X74050000Y-127027464D01*
X75750000Y-127027464D01*
X75898659Y-126997894D01*
X76024686Y-126913686D01*
X76108894Y-126787659D01*
X76138464Y-126639000D01*
X76138464Y-124939000D01*
X76108894Y-124790341D01*
X76024686Y-124664314D01*
X75898659Y-124580106D01*
X75750000Y-124550536D01*
X74050000Y-124550536D01*
X73901341Y-124580106D01*
X73775314Y-124664314D01*
X73691106Y-124790341D01*
X73661536Y-124939000D01*
X69089341Y-124939000D01*
X69083400Y-124933060D01*
X69083400Y-121065890D01*
X73458524Y-121065890D01*
X73628355Y-121475924D01*
X74018642Y-121904183D01*
X74416963Y-122091245D01*
X74012499Y-122361499D01*
X73740424Y-122768688D01*
X73644884Y-123249000D01*
X73740424Y-123729312D01*
X74012499Y-124136501D01*
X74419688Y-124408576D01*
X74778761Y-124480000D01*
X75021239Y-124480000D01*
X75380312Y-124408576D01*
X75787501Y-124136501D01*
X76059576Y-123729312D01*
X76155116Y-123249000D01*
X76059576Y-122768688D01*
X75787501Y-122361499D01*
X75383037Y-122091245D01*
X75781358Y-121904183D01*
X76171645Y-121475924D01*
X76341476Y-121065890D01*
X76220155Y-120836000D01*
X75027000Y-120836000D01*
X75027000Y-120856000D01*
X74773000Y-120856000D01*
X74773000Y-120836000D01*
X73579845Y-120836000D01*
X73458524Y-121065890D01*
X69083400Y-121065890D01*
X69083400Y-120352110D01*
X73458524Y-120352110D01*
X73579845Y-120582000D01*
X74773000Y-120582000D01*
X74773000Y-120562000D01*
X75027000Y-120562000D01*
X75027000Y-120582000D01*
X76220155Y-120582000D01*
X76341476Y-120352110D01*
X76171645Y-119942076D01*
X75781358Y-119513817D01*
X75383037Y-119326755D01*
X75787501Y-119056501D01*
X76059576Y-118649312D01*
X76155116Y-118169000D01*
X76059576Y-117688688D01*
X75787501Y-117281499D01*
X75380312Y-117009424D01*
X75021239Y-116938000D01*
X74778761Y-116938000D01*
X74419688Y-117009424D01*
X74012499Y-117281499D01*
X73740424Y-117688688D01*
X73644884Y-118169000D01*
X73740424Y-118649312D01*
X74012499Y-119056501D01*
X74416963Y-119326755D01*
X74018642Y-119513817D01*
X73628355Y-119942076D01*
X73458524Y-120352110D01*
X69083400Y-120352110D01*
X69083400Y-113494901D01*
X69179290Y-113590791D01*
X69466340Y-113709691D01*
X69777042Y-113709691D01*
X70064092Y-113590791D01*
X70243592Y-113411291D01*
X91011793Y-113411291D01*
X92936049Y-115335548D01*
X92936052Y-115335550D01*
X93774368Y-116173866D01*
X93623680Y-116236283D01*
X93403981Y-116455982D01*
X93285081Y-116743032D01*
X93285081Y-116763384D01*
X93147378Y-116763384D01*
X92860328Y-116882284D01*
X92640629Y-117101983D01*
X92521729Y-117389033D01*
X92521729Y-117642885D01*
X89938215Y-120226400D01*
X86316901Y-120226400D01*
X86137401Y-120046900D01*
X85850351Y-119928000D01*
X85539649Y-119928000D01*
X85252599Y-120046900D01*
X85032900Y-120266599D01*
X84914000Y-120553649D01*
X84914000Y-120864351D01*
X85032900Y-121151401D01*
X85252599Y-121371100D01*
X85539649Y-121490000D01*
X85850351Y-121490000D01*
X86137401Y-121371100D01*
X86316901Y-121191600D01*
X87282899Y-121191600D01*
X87064900Y-121409599D01*
X86946000Y-121696649D01*
X86946000Y-122007351D01*
X87064900Y-122294401D01*
X87284599Y-122514100D01*
X87571649Y-122633000D01*
X87825502Y-122633000D01*
X88295502Y-123103000D01*
X88079649Y-123103000D01*
X87792599Y-123221900D01*
X87572900Y-123441599D01*
X87454000Y-123728649D01*
X87454000Y-124039351D01*
X87572900Y-124326401D01*
X87792599Y-124546100D01*
X88079649Y-124665000D01*
X88333502Y-124665000D01*
X89190298Y-125521797D01*
X89161159Y-125516001D01*
X89161155Y-125516001D01*
X89113786Y-125506579D01*
X89066417Y-125516001D01*
X87969237Y-125516001D01*
X83516001Y-121062765D01*
X83516001Y-118516167D01*
X83658076Y-118645645D01*
X84068110Y-118815476D01*
X84298000Y-118694155D01*
X84298000Y-117501000D01*
X84552000Y-117501000D01*
X84552000Y-118694155D01*
X84781890Y-118815476D01*
X85191924Y-118645645D01*
X85620183Y-118255358D01*
X85866486Y-117730892D01*
X85745819Y-117501000D01*
X84552000Y-117501000D01*
X84298000Y-117501000D01*
X84278000Y-117501000D01*
X84278000Y-117247000D01*
X84298000Y-117247000D01*
X84298000Y-117227000D01*
X84552000Y-117227000D01*
X84552000Y-117247000D01*
X85745819Y-117247000D01*
X85866486Y-117017108D01*
X85620183Y-116492642D01*
X85191924Y-116102355D01*
X84914488Y-115987445D01*
X85312501Y-115721501D01*
X85584576Y-115314312D01*
X85680116Y-114834000D01*
X85584576Y-114353688D01*
X85312501Y-113946499D01*
X84905312Y-113674424D01*
X84546239Y-113603000D01*
X84303761Y-113603000D01*
X83944688Y-113674424D01*
X83537499Y-113946499D01*
X83265424Y-114353688D01*
X83169884Y-114834000D01*
X83265424Y-115314312D01*
X83537499Y-115721501D01*
X83935512Y-115987445D01*
X83658076Y-116102355D01*
X83516001Y-116231833D01*
X83516001Y-116031370D01*
X83525423Y-115984001D01*
X83516001Y-115936632D01*
X83516001Y-115936628D01*
X83488093Y-115796324D01*
X83381782Y-115637220D01*
X83348441Y-115614942D01*
X83045113Y-115311614D01*
X83140116Y-114834000D01*
X83044576Y-114353688D01*
X82772501Y-113946499D01*
X82365312Y-113674424D01*
X82006239Y-113603000D01*
X81763761Y-113603000D01*
X81404688Y-113674424D01*
X80997499Y-113946499D01*
X80725424Y-114353688D01*
X80704611Y-114458320D01*
X80586501Y-114379401D01*
X80583464Y-114378797D01*
X80583464Y-113984000D01*
X80553894Y-113835341D01*
X80469686Y-113709314D01*
X80343659Y-113625106D01*
X80195000Y-113595536D01*
X78495000Y-113595536D01*
X78346341Y-113625106D01*
X78220314Y-113709314D01*
X78136106Y-113835341D01*
X78106536Y-113984000D01*
X78106536Y-115684000D01*
X78136106Y-115832659D01*
X78220314Y-115958686D01*
X78346341Y-116042894D01*
X78495000Y-116072464D01*
X80014002Y-116072464D01*
X80014002Y-116340502D01*
X79825312Y-116214424D01*
X79466239Y-116143000D01*
X79223761Y-116143000D01*
X78864688Y-116214424D01*
X78457499Y-116486499D01*
X78185424Y-116893688D01*
X78089884Y-117374000D01*
X78185424Y-117854312D01*
X78457499Y-118261501D01*
X78864688Y-118533576D01*
X79223761Y-118605000D01*
X79466239Y-118605000D01*
X79825312Y-118533576D01*
X80014001Y-118407498D01*
X80014001Y-119944632D01*
X80004579Y-119992001D01*
X80014001Y-120039370D01*
X80014001Y-120039373D01*
X80041909Y-120179677D01*
X80067003Y-120217232D01*
X80148220Y-120338782D01*
X80188381Y-120365617D01*
X87128691Y-127305928D01*
X87128691Y-127562042D01*
X87247591Y-127849092D01*
X87467290Y-128068791D01*
X87754340Y-128187691D01*
X88065042Y-128187691D01*
X88352092Y-128068791D01*
X88533192Y-127887691D01*
X88869073Y-127887691D01*
X92199000Y-131217618D01*
X92199000Y-131340438D01*
X92197400Y-131348482D01*
X92197400Y-132171109D01*
X92017900Y-132350609D01*
X91899000Y-132637659D01*
X91899000Y-132948361D01*
X92017900Y-133235411D01*
X92237599Y-133455110D01*
X92524649Y-133574010D01*
X92835351Y-133574010D01*
X93122401Y-133455110D01*
X93338169Y-133239342D01*
X93417591Y-133431082D01*
X93637290Y-133650781D01*
X93924340Y-133769681D01*
X94235042Y-133769681D01*
X94522092Y-133650781D01*
X94741791Y-133431082D01*
X94860691Y-133144032D01*
X94860691Y-132833330D01*
X94741791Y-132546280D01*
X94589600Y-132394089D01*
X94589600Y-131619527D01*
X94599054Y-131571999D01*
X94583515Y-131493878D01*
X94561599Y-131383699D01*
X94454935Y-131224065D01*
X94414640Y-131197141D01*
X93805680Y-130588182D01*
X93787094Y-130494743D01*
X93757911Y-130451068D01*
X93707618Y-130375799D01*
X93707616Y-130375797D01*
X93680783Y-130335639D01*
X93640625Y-130308806D01*
X90518520Y-127186702D01*
X90518520Y-126930587D01*
X90399620Y-126643537D01*
X90280083Y-126524000D01*
X91678502Y-126524000D01*
X93707000Y-128552499D01*
X93707000Y-128806351D01*
X93825900Y-129093401D01*
X94007557Y-129275058D01*
X94030419Y-129389990D01*
X94033402Y-129404986D01*
X94140066Y-129564620D01*
X94180362Y-129591545D01*
X96890613Y-132301797D01*
X96917538Y-132342093D01*
X97077172Y-132448757D01*
X97217944Y-132476758D01*
X97217945Y-132476758D01*
X97265473Y-132486212D01*
X97313001Y-132476758D01*
X114573293Y-132476758D01*
X114752793Y-132656258D01*
X115039843Y-132775158D01*
X115350545Y-132775158D01*
X115637595Y-132656258D01*
X115857294Y-132436559D01*
X115976194Y-132149509D01*
X115976194Y-131838807D01*
X115857294Y-131551757D01*
X115637595Y-131332058D01*
X115350545Y-131213158D01*
X115039843Y-131213158D01*
X114752793Y-131332058D01*
X114573293Y-131511558D01*
X99240856Y-131511558D01*
X99274092Y-131497791D01*
X99493791Y-131278092D01*
X99612691Y-130991042D01*
X99612691Y-130680340D01*
X99584960Y-130613391D01*
X99660142Y-130613391D01*
X99947192Y-130494491D01*
X100084093Y-130357591D01*
X100336138Y-130609636D01*
X100363065Y-130649935D01*
X100522699Y-130756599D01*
X100663471Y-130784600D01*
X100710999Y-130794054D01*
X100758527Y-130784600D01*
X116064851Y-130784600D01*
X116213014Y-130883599D01*
X116342942Y-130909443D01*
X116524599Y-131091100D01*
X116811649Y-131210000D01*
X117122351Y-131210000D01*
X117409401Y-131091100D01*
X117629100Y-130871401D01*
X117748000Y-130584351D01*
X117748000Y-130273649D01*
X117629100Y-129986599D01*
X117409401Y-129766900D01*
X117122351Y-129648000D01*
X116811649Y-129648000D01*
X116524599Y-129766900D01*
X116447170Y-129844329D01*
X116321844Y-129819400D01*
X116321843Y-129819400D01*
X116274315Y-129809946D01*
X116226787Y-129819400D01*
X100910898Y-129819400D01*
X100749641Y-129658143D01*
X100742824Y-129653588D01*
X100615007Y-129525771D01*
X100588172Y-129485610D01*
X100429068Y-129379299D01*
X100288764Y-129351391D01*
X100288760Y-129351391D01*
X100241391Y-129341969D01*
X100194022Y-129351391D01*
X100128292Y-129351391D01*
X99947192Y-129170291D01*
X99660142Y-129051391D01*
X99358939Y-129051391D01*
X101812131Y-126598200D01*
X101845472Y-126575922D01*
X101951783Y-126416818D01*
X101979691Y-126276514D01*
X101979691Y-126276511D01*
X101989113Y-126229142D01*
X101979691Y-126181773D01*
X101979691Y-113594690D01*
X134906227Y-113594690D01*
X134906227Y-114294692D01*
X134954827Y-114539021D01*
X135093228Y-114746154D01*
X135300361Y-114884555D01*
X135544690Y-114933155D01*
X136794692Y-114933155D01*
X137039021Y-114884555D01*
X137246154Y-114746154D01*
X137384555Y-114539021D01*
X137433155Y-114294692D01*
X137433155Y-113594690D01*
X137384555Y-113350361D01*
X137246154Y-113143228D01*
X137039021Y-113004827D01*
X136794692Y-112956227D01*
X135544690Y-112956227D01*
X135300361Y-113004827D01*
X135093228Y-113143228D01*
X134954827Y-113350361D01*
X134906227Y-113594690D01*
X101979691Y-113594690D01*
X101979691Y-102134000D01*
X106240000Y-102134000D01*
X106240000Y-109754000D01*
X106283602Y-109985243D01*
X106417113Y-110193959D01*
X106620332Y-110335695D01*
X106862323Y-110388873D01*
X117529323Y-110601873D01*
X117680237Y-110586771D01*
X117906890Y-110486692D01*
X129844890Y-102104692D01*
X130055113Y-101854202D01*
X135643113Y-89916202D01*
X135703000Y-89647000D01*
X135703000Y-73137000D01*
X135654664Y-72893996D01*
X135517013Y-72687987D01*
X135311004Y-72550336D01*
X135068000Y-72502000D01*
X133422670Y-72502000D01*
X133277071Y-72404714D01*
X132702879Y-72290500D01*
X132702875Y-72290500D01*
X132509000Y-72251936D01*
X132315125Y-72290500D01*
X127000121Y-72290500D01*
X126425929Y-72404714D01*
X126280330Y-72502000D01*
X125162000Y-72502000D01*
X125104510Y-72504608D01*
X111134510Y-73774608D01*
X110948996Y-73820336D01*
X110742987Y-73957987D01*
X110605336Y-74163996D01*
X110557000Y-74407000D01*
X110557000Y-98718552D01*
X106505484Y-101617587D01*
X106288336Y-101890996D01*
X106240000Y-102134000D01*
X101979691Y-102134000D01*
X101979691Y-87058927D01*
X102530621Y-86507997D01*
X102570782Y-86481162D01*
X102677093Y-86322058D01*
X102705001Y-86181754D01*
X102705001Y-86181750D01*
X102714423Y-86134382D01*
X102705001Y-86087014D01*
X102705001Y-85319256D01*
X102716055Y-85263685D01*
X102685321Y-85109180D01*
X102770100Y-85024401D01*
X102889000Y-84737351D01*
X102889000Y-84426649D01*
X102770100Y-84139599D01*
X102550401Y-83919900D01*
X102263351Y-83801000D01*
X101952649Y-83801000D01*
X101665599Y-83919900D01*
X101445900Y-84139599D01*
X101327000Y-84426649D01*
X101327000Y-84737351D01*
X101438147Y-85005683D01*
X101295213Y-85005683D01*
X101189103Y-85049635D01*
X101107055Y-84851554D01*
X100887356Y-84631855D01*
X100600306Y-84512955D01*
X100289604Y-84512955D01*
X100002554Y-84631855D01*
X99782855Y-84851554D01*
X99663955Y-85138604D01*
X99663955Y-85449306D01*
X99782855Y-85736356D01*
X99964512Y-85918013D01*
X99967738Y-85934228D01*
X99723351Y-85833000D01*
X99412649Y-85833000D01*
X99125599Y-85951900D01*
X98905900Y-86171599D01*
X98787000Y-86458649D01*
X98787000Y-86769351D01*
X98905900Y-87056401D01*
X99087557Y-87238058D01*
X99103360Y-87317500D01*
X99113402Y-87367986D01*
X99220066Y-87527620D01*
X99260361Y-87554545D01*
X99619091Y-87913275D01*
X99619092Y-122409000D01*
X99412649Y-122409000D01*
X99125599Y-122527900D01*
X98905900Y-122747599D01*
X98787000Y-123034649D01*
X98787000Y-123345351D01*
X98905900Y-123632401D01*
X99125599Y-123852100D01*
X99412649Y-123971000D01*
X99723351Y-123971000D01*
X99778235Y-123948266D01*
X99204313Y-124522189D01*
X91079688Y-124522189D01*
X88508000Y-121950502D01*
X88508000Y-121696649D01*
X88389100Y-121409599D01*
X88171101Y-121191600D01*
X90090585Y-121191600D01*
X90138113Y-121201054D01*
X90185641Y-121191600D01*
X90185642Y-121191600D01*
X90326414Y-121163599D01*
X90486048Y-121056935D01*
X90512975Y-121016636D01*
X93204228Y-118325384D01*
X93458080Y-118325384D01*
X93583482Y-118273441D01*
X93583481Y-120142553D01*
X93574027Y-120190081D01*
X93583481Y-120237609D01*
X93611482Y-120378381D01*
X93718146Y-120538016D01*
X93758445Y-120564943D01*
X95709000Y-122515499D01*
X95709000Y-122769351D01*
X95827900Y-123056401D01*
X96047599Y-123276100D01*
X96334649Y-123395000D01*
X96645351Y-123395000D01*
X96932401Y-123276100D01*
X97152100Y-123056401D01*
X97271000Y-122769351D01*
X97271000Y-122458649D01*
X97164610Y-122201800D01*
X97209042Y-122201800D01*
X97496092Y-122082900D01*
X97715791Y-121863201D01*
X97834691Y-121576151D01*
X97834691Y-121265449D01*
X97715791Y-120978399D01*
X97496092Y-120758700D01*
X97209042Y-120639800D01*
X96952140Y-120639800D01*
X96841993Y-120566202D01*
X96701221Y-120538201D01*
X96701220Y-120538201D01*
X96653692Y-120528747D01*
X96606164Y-120538201D01*
X95947700Y-120538201D01*
X95250291Y-119840793D01*
X95250291Y-116532218D01*
X95259745Y-116484690D01*
X95241427Y-116392599D01*
X95222290Y-116296390D01*
X95115626Y-116136756D01*
X95075330Y-116109831D01*
X93618550Y-114653052D01*
X93618548Y-114653049D01*
X91586553Y-112621055D01*
X91559626Y-112580756D01*
X91399992Y-112474092D01*
X91259220Y-112446091D01*
X91259219Y-112446091D01*
X91211691Y-112436637D01*
X91164163Y-112446091D01*
X70243592Y-112446091D01*
X70064092Y-112266591D01*
X69777042Y-112147691D01*
X69466340Y-112147691D01*
X69179290Y-112266591D01*
X69083400Y-112362481D01*
X69083400Y-95586532D01*
X84312073Y-95586532D01*
X84410736Y-95853387D01*
X85020461Y-96079908D01*
X85670460Y-96055856D01*
X86159264Y-95853387D01*
X86257927Y-95586532D01*
X85285000Y-94613605D01*
X84312073Y-95586532D01*
X69083400Y-95586532D01*
X69083400Y-92114709D01*
X70397974Y-93221719D01*
X70563996Y-93322664D01*
X70807000Y-93371000D01*
X84042392Y-93371000D01*
X84132466Y-93461074D01*
X83865613Y-93559736D01*
X83639092Y-94169461D01*
X83663144Y-94819460D01*
X83865613Y-95308264D01*
X84132468Y-95406927D01*
X85105395Y-94434000D01*
X85464605Y-94434000D01*
X86437532Y-95406927D01*
X86704387Y-95308264D01*
X86930908Y-94698539D01*
X86906856Y-94048540D01*
X86704387Y-93559736D01*
X86437532Y-93461073D01*
X85464605Y-94434000D01*
X85105395Y-94434000D01*
X85091253Y-94419858D01*
X85270858Y-94240253D01*
X85285000Y-94254395D01*
X86202608Y-93336787D01*
X86313354Y-93312438D01*
X86513672Y-93166630D01*
X86642944Y-92955262D01*
X89044074Y-86429114D01*
X101791063Y-78507171D01*
X101791063Y-79618694D01*
X101781641Y-79666063D01*
X101791063Y-79713432D01*
X101791063Y-79713435D01*
X101818971Y-79853739D01*
X101925282Y-80012844D01*
X101965443Y-80039679D01*
X102724000Y-80798236D01*
X102724000Y-81054351D01*
X102842900Y-81341401D01*
X103062599Y-81561100D01*
X103349649Y-81680000D01*
X103660351Y-81680000D01*
X103947401Y-81561100D01*
X104167100Y-81341401D01*
X104286000Y-81054351D01*
X104286000Y-80743649D01*
X104167100Y-80456599D01*
X103947401Y-80236900D01*
X103660351Y-80118000D01*
X103404236Y-80118000D01*
X102753063Y-79466827D01*
X102753063Y-77909311D01*
X103205181Y-77628331D01*
X103319013Y-77538013D01*
X103456664Y-77332004D01*
X103505000Y-77089000D01*
X103505000Y-67549000D01*
X124781000Y-67549000D01*
X124781000Y-69327000D01*
X124829336Y-69570004D01*
X124966987Y-69776013D01*
X125172996Y-69913664D01*
X125416000Y-69962000D01*
X135195000Y-69962000D01*
X135424910Y-69918917D01*
X135633926Y-69785878D01*
X144396926Y-61403878D01*
X144544664Y-61188004D01*
X144562766Y-61097000D01*
X144670305Y-61097000D01*
X145986474Y-60551825D01*
X146993825Y-59544474D01*
X147539000Y-58228305D01*
X147539000Y-56803695D01*
X146993825Y-55487526D01*
X145986474Y-54480175D01*
X144670305Y-53935000D01*
X144562766Y-53935000D01*
X144544664Y-53843996D01*
X144407013Y-53637987D01*
X144201004Y-53500336D01*
X143958000Y-53452000D01*
X131893000Y-53452000D01*
X131742028Y-53470208D01*
X131517484Y-53574933D01*
X129780120Y-54849000D01*
X128083000Y-54849000D01*
X127839996Y-54897336D01*
X127633987Y-55034987D01*
X127496336Y-55240996D01*
X127448000Y-55484000D01*
X127448000Y-59068412D01*
X124810892Y-67356466D01*
X124781000Y-67549000D01*
X103505000Y-67549000D01*
X103505000Y-65614012D01*
X103511381Y-65614012D01*
X103798431Y-65495112D01*
X103979531Y-65314012D01*
X104232819Y-65314012D01*
X104280188Y-65323434D01*
X104327557Y-65314012D01*
X104327561Y-65314012D01*
X104467865Y-65286104D01*
X104626969Y-65179793D01*
X104653804Y-65139632D01*
X106223636Y-63569800D01*
X106479751Y-63569800D01*
X106766801Y-63450900D01*
X106986500Y-63231201D01*
X107105400Y-62944151D01*
X107105400Y-62633449D01*
X106986500Y-62346399D01*
X106766801Y-62126700D01*
X106479751Y-62007800D01*
X106169049Y-62007800D01*
X105881999Y-62126700D01*
X105662300Y-62346399D01*
X105543400Y-62633449D01*
X105543400Y-62889564D01*
X104080952Y-64352012D01*
X103979531Y-64352012D01*
X103798431Y-64170912D01*
X103511381Y-64052012D01*
X103505000Y-64052012D01*
X103505000Y-62112026D01*
X104892026Y-60725000D01*
X104930351Y-60725000D01*
X105217401Y-60606100D01*
X105437100Y-60386401D01*
X105556000Y-60099351D01*
X105556000Y-60061026D01*
X105614290Y-60002736D01*
X105642658Y-59997093D01*
X105801762Y-59890782D01*
X105828597Y-59850621D01*
X113355219Y-52324000D01*
X116840000Y-52324000D01*
X117141311Y-52247960D01*
X117235625Y-52170000D01*
X118121499Y-52170000D01*
X118302599Y-52351100D01*
X118589649Y-52470000D01*
X118900351Y-52470000D01*
X119187401Y-52351100D01*
X119407100Y-52131401D01*
X119526000Y-51844351D01*
X119526000Y-51533649D01*
X119407100Y-51246599D01*
X119187401Y-51026900D01*
X118900351Y-50908000D01*
X118589649Y-50908000D01*
X118302599Y-51026900D01*
X118121499Y-51208000D01*
X118051011Y-51208000D01*
X123623280Y-44369105D01*
X123717664Y-44211004D01*
X123766000Y-43968000D01*
X123766000Y-43079000D01*
X130637986Y-43079000D01*
X130752929Y-43656857D01*
X131080259Y-44146741D01*
X131570143Y-44474071D01*
X132002137Y-44560000D01*
X132293863Y-44560000D01*
X132725857Y-44474071D01*
X133215741Y-44146741D01*
X133543071Y-43656857D01*
X133658014Y-43079000D01*
X133543071Y-42501143D01*
X133215741Y-42011259D01*
X132725857Y-41683929D01*
X132293863Y-41598000D01*
X132002137Y-41598000D01*
X131570143Y-41683929D01*
X131080259Y-42011259D01*
X130752929Y-42501143D01*
X130637986Y-43079000D01*
X123766000Y-43079000D01*
X123766000Y-41936000D01*
X123717664Y-41692996D01*
X123580013Y-41486987D01*
X123374004Y-41349336D01*
X123131000Y-41301000D01*
X120591000Y-41301000D01*
X120385458Y-41335186D01*
X101181386Y-47905000D01*
X99602000Y-47905000D01*
X99602000Y-47870250D01*
X99443250Y-47711500D01*
X98619000Y-47711500D01*
X98619000Y-47731500D01*
X98365000Y-47731500D01*
X98365000Y-47711500D01*
X97540750Y-47711500D01*
X97382000Y-47870250D01*
X97382000Y-47905000D01*
X95644438Y-47905000D01*
X95903173Y-47428684D01*
X95917318Y-47357185D01*
X95794656Y-47143000D01*
X94302000Y-47143000D01*
X94302000Y-47163000D01*
X94048000Y-47163000D01*
X94048000Y-47143000D01*
X92555344Y-47143000D01*
X92432682Y-47357185D01*
X92446827Y-47428684D01*
X92705855Y-47905540D01*
X92813861Y-47992968D01*
X71195689Y-56414000D01*
X68775000Y-56414000D01*
X68536235Y-56460598D01*
X68329239Y-56596759D01*
X68190105Y-56801769D01*
X68140017Y-57044418D01*
X67946526Y-83860299D01*
X66484974Y-85809035D01*
X65037226Y-85085161D01*
X65598142Y-85317500D01*
X66271858Y-85317500D01*
X66894291Y-85059680D01*
X67370680Y-84583291D01*
X67628500Y-83960858D01*
X67628500Y-83287142D01*
X67370680Y-82664709D01*
X66894291Y-82188320D01*
X66271858Y-81930500D01*
X65598142Y-81930500D01*
X64975709Y-82188320D01*
X64499320Y-82664709D01*
X64241500Y-83287142D01*
X64241500Y-83960858D01*
X64499320Y-84583291D01*
X64965154Y-85049125D01*
X61878981Y-83506039D01*
X61749010Y-83457960D01*
X61501538Y-83445916D01*
X61268295Y-83529492D01*
X61084790Y-83695965D01*
X60978960Y-83919990D01*
X60890600Y-84273429D01*
X60499320Y-84664709D01*
X60241500Y-85287142D01*
X60241500Y-85960858D01*
X60383212Y-86302982D01*
X60343960Y-86459990D01*
X60347375Y-86781080D01*
X60457947Y-87002803D01*
X60644952Y-87165334D01*
X61554905Y-87685307D01*
X61499575Y-87686676D01*
X60872997Y-87946213D01*
X60736112Y-88245507D01*
X61935000Y-89444395D01*
X61949143Y-89430253D01*
X62128748Y-89609858D01*
X62114605Y-89624000D01*
X63313493Y-90822888D01*
X63612787Y-90686003D01*
X63891484Y-89963102D01*
X63872324Y-89188575D01*
X63775173Y-88954032D01*
X65089952Y-89705334D01*
X65222769Y-89762290D01*
X65277467Y-89778676D01*
X64872997Y-89946213D01*
X64736112Y-90245507D01*
X65935000Y-91444395D01*
X65949143Y-91430253D01*
X66128748Y-91609858D01*
X66114605Y-91624000D01*
X67313493Y-92822888D01*
X67612787Y-92686003D01*
X67891484Y-91963102D01*
X67872324Y-91188575D01*
X67812710Y-91044655D01*
X68016600Y-91216351D01*
X68016601Y-109861465D01*
X68016600Y-109861470D01*
X68016601Y-121885107D01*
X68016600Y-121885112D01*
X68016601Y-125101469D01*
X68009849Y-125135413D01*
X56639200Y-113764764D01*
X59629000Y-113764764D01*
X59629000Y-114483236D01*
X59903947Y-115147017D01*
X60411983Y-115655053D01*
X61075764Y-115930000D01*
X61794236Y-115930000D01*
X62458017Y-115655053D01*
X62966053Y-115147017D01*
X63241000Y-114483236D01*
X63241000Y-113764764D01*
X62966053Y-113100983D01*
X62458017Y-112592947D01*
X61794236Y-112318000D01*
X61075764Y-112318000D01*
X60411983Y-112592947D01*
X59903947Y-113100983D01*
X59629000Y-113764764D01*
X56639200Y-113764764D01*
X56583424Y-113708988D01*
X56578867Y-113702168D01*
X56147600Y-113270902D01*
X56147600Y-107287142D01*
X56241500Y-107287142D01*
X56241500Y-107960858D01*
X56499320Y-108583291D01*
X56975709Y-109059680D01*
X57598142Y-109317500D01*
X58271858Y-109317500D01*
X58894291Y-109059680D01*
X59370680Y-108583291D01*
X59628500Y-107960858D01*
X59628500Y-107287142D01*
X59370680Y-106664709D01*
X58894291Y-106188320D01*
X58271858Y-105930500D01*
X57598142Y-105930500D01*
X56975709Y-106188320D01*
X56499320Y-106664709D01*
X56241500Y-107287142D01*
X56147600Y-107287142D01*
X56147600Y-105370825D01*
X56146000Y-105362781D01*
X56146000Y-103287142D01*
X56241500Y-103287142D01*
X56241500Y-103960858D01*
X56499320Y-104583291D01*
X56975709Y-105059680D01*
X57598142Y-105317500D01*
X58271858Y-105317500D01*
X58345148Y-105287142D01*
X60241500Y-105287142D01*
X60241500Y-105960858D01*
X60499320Y-106583291D01*
X60975709Y-107059680D01*
X61598142Y-107317500D01*
X62271858Y-107317500D01*
X62894291Y-107059680D01*
X63370680Y-106583291D01*
X63483259Y-106311500D01*
X64234036Y-106311500D01*
X64234036Y-108936500D01*
X64263606Y-109085159D01*
X64347814Y-109211186D01*
X64473841Y-109295394D01*
X64622500Y-109324964D01*
X67247500Y-109324964D01*
X67396159Y-109295394D01*
X67522186Y-109211186D01*
X67606394Y-109085159D01*
X67635964Y-108936500D01*
X67635964Y-106311500D01*
X67606394Y-106162841D01*
X67522186Y-106036814D01*
X67396159Y-105952606D01*
X67247500Y-105923036D01*
X64622500Y-105923036D01*
X64473841Y-105952606D01*
X64347814Y-106036814D01*
X64263606Y-106162841D01*
X64234036Y-106311500D01*
X63483259Y-106311500D01*
X63628500Y-105960858D01*
X63628500Y-105287142D01*
X63370680Y-104664709D01*
X62894291Y-104188320D01*
X62271858Y-103930500D01*
X61598142Y-103930500D01*
X60975709Y-104188320D01*
X60499320Y-104664709D01*
X60241500Y-105287142D01*
X58345148Y-105287142D01*
X58894291Y-105059680D01*
X59370680Y-104583291D01*
X59628500Y-103960858D01*
X59628500Y-103287142D01*
X59370680Y-102664709D01*
X58894291Y-102188320D01*
X58271858Y-101930500D01*
X57598142Y-101930500D01*
X56975709Y-102188320D01*
X56499320Y-102664709D01*
X56241500Y-103287142D01*
X56146000Y-103287142D01*
X56146000Y-99665927D01*
X56241500Y-99570427D01*
X56241500Y-99960858D01*
X56499320Y-100583291D01*
X56975709Y-101059680D01*
X57598142Y-101317500D01*
X58271858Y-101317500D01*
X58345148Y-101287142D01*
X60241500Y-101287142D01*
X60241500Y-101960858D01*
X60499320Y-102583291D01*
X60975709Y-103059680D01*
X61598142Y-103317500D01*
X62271858Y-103317500D01*
X62345148Y-103287142D01*
X64241500Y-103287142D01*
X64241500Y-103960858D01*
X64499320Y-104583291D01*
X64975709Y-105059680D01*
X65598142Y-105317500D01*
X66271858Y-105317500D01*
X66894291Y-105059680D01*
X67370680Y-104583291D01*
X67628500Y-103960858D01*
X67628500Y-103287142D01*
X67370680Y-102664709D01*
X66894291Y-102188320D01*
X66271858Y-101930500D01*
X65598142Y-101930500D01*
X64975709Y-102188320D01*
X64499320Y-102664709D01*
X64241500Y-103287142D01*
X62345148Y-103287142D01*
X62894291Y-103059680D01*
X63370680Y-102583291D01*
X63628500Y-101960858D01*
X63628500Y-101287142D01*
X63510595Y-101002493D01*
X64736112Y-101002493D01*
X64872997Y-101301787D01*
X65595898Y-101580484D01*
X66370425Y-101561324D01*
X66997003Y-101301787D01*
X67133888Y-101002493D01*
X65935000Y-99803605D01*
X64736112Y-101002493D01*
X63510595Y-101002493D01*
X63370680Y-100664709D01*
X62894291Y-100188320D01*
X62271858Y-99930500D01*
X61598142Y-99930500D01*
X60975709Y-100188320D01*
X60499320Y-100664709D01*
X60241500Y-101287142D01*
X58345148Y-101287142D01*
X58894291Y-101059680D01*
X59370680Y-100583291D01*
X59628500Y-99960858D01*
X59628500Y-99287142D01*
X59370680Y-98664709D01*
X58941859Y-98235888D01*
X59023281Y-98181483D01*
X59050116Y-98141322D01*
X59086438Y-98105000D01*
X60301206Y-98105000D01*
X60499320Y-98583291D01*
X60975709Y-99059680D01*
X61598142Y-99317500D01*
X62271858Y-99317500D01*
X62350566Y-99284898D01*
X63978516Y-99284898D01*
X63997676Y-100059425D01*
X64257213Y-100686003D01*
X64556507Y-100822888D01*
X65755395Y-99624000D01*
X66114605Y-99624000D01*
X67313493Y-100822888D01*
X67612787Y-100686003D01*
X67891484Y-99963102D01*
X67872324Y-99188575D01*
X67612787Y-98561997D01*
X67313493Y-98425112D01*
X66114605Y-99624000D01*
X65755395Y-99624000D01*
X64556507Y-98425112D01*
X64257213Y-98561997D01*
X63978516Y-99284898D01*
X62350566Y-99284898D01*
X62894291Y-99059680D01*
X63370680Y-98583291D01*
X63510594Y-98245507D01*
X64736112Y-98245507D01*
X65935000Y-99444395D01*
X67133888Y-98245507D01*
X66997003Y-97946213D01*
X66274102Y-97667516D01*
X65499575Y-97686676D01*
X64872997Y-97946213D01*
X64736112Y-98245507D01*
X63510594Y-98245507D01*
X63628500Y-97960858D01*
X63628500Y-97287142D01*
X63510595Y-97002493D01*
X64736112Y-97002493D01*
X64872997Y-97301787D01*
X65595898Y-97580484D01*
X66370425Y-97561324D01*
X66997003Y-97301787D01*
X67133888Y-97002493D01*
X65935000Y-95803605D01*
X64736112Y-97002493D01*
X63510595Y-97002493D01*
X63370680Y-96664709D01*
X62894291Y-96188320D01*
X62271858Y-95930500D01*
X61598142Y-95930500D01*
X60975709Y-96188320D01*
X60499320Y-96664709D01*
X60301206Y-97143000D01*
X59482738Y-97143000D01*
X60929124Y-95696615D01*
X60969282Y-95669782D01*
X60996115Y-95629624D01*
X60996117Y-95629622D01*
X61075593Y-95510678D01*
X61094449Y-95415879D01*
X61103501Y-95370373D01*
X61103501Y-95370370D01*
X61112923Y-95323001D01*
X61103501Y-95275632D01*
X61103501Y-95135735D01*
X61119851Y-95119385D01*
X61598142Y-95317500D01*
X62271858Y-95317500D01*
X62350566Y-95284898D01*
X63978516Y-95284898D01*
X63997676Y-96059425D01*
X64257213Y-96686003D01*
X64556507Y-96822888D01*
X65755395Y-95624000D01*
X66114605Y-95624000D01*
X67313493Y-96822888D01*
X67612787Y-96686003D01*
X67891484Y-95963102D01*
X67872324Y-95188575D01*
X67612787Y-94561997D01*
X67313493Y-94425112D01*
X66114605Y-95624000D01*
X65755395Y-95624000D01*
X64556507Y-94425112D01*
X64257213Y-94561997D01*
X63978516Y-95284898D01*
X62350566Y-95284898D01*
X62894291Y-95059680D01*
X63370680Y-94583291D01*
X63510594Y-94245507D01*
X64736112Y-94245507D01*
X65935000Y-95444395D01*
X67133888Y-94245507D01*
X66997003Y-93946213D01*
X66274102Y-93667516D01*
X65499575Y-93686676D01*
X64872997Y-93946213D01*
X64736112Y-94245507D01*
X63510594Y-94245507D01*
X63628500Y-93960858D01*
X63628500Y-93287142D01*
X63510595Y-93002493D01*
X64736112Y-93002493D01*
X64872997Y-93301787D01*
X65595898Y-93580484D01*
X66370425Y-93561324D01*
X66997003Y-93301787D01*
X67133888Y-93002493D01*
X65935000Y-91803605D01*
X64736112Y-93002493D01*
X63510595Y-93002493D01*
X63370680Y-92664709D01*
X62894291Y-92188320D01*
X62271858Y-91930500D01*
X61598142Y-91930500D01*
X60975709Y-92188320D01*
X60499320Y-92664709D01*
X60241500Y-93287142D01*
X60241500Y-93960858D01*
X60439615Y-94439149D01*
X60315881Y-94562883D01*
X60275720Y-94589718D01*
X60169409Y-94748823D01*
X60141501Y-94889127D01*
X60141501Y-94889130D01*
X60132079Y-94936499D01*
X60141501Y-94983868D01*
X60141501Y-95123764D01*
X59628500Y-95636765D01*
X59628500Y-95287142D01*
X59370680Y-94664709D01*
X58894291Y-94188320D01*
X58271858Y-93930500D01*
X57598142Y-93930500D01*
X56975709Y-94188320D01*
X56499320Y-94664709D01*
X56322910Y-95090600D01*
X56131370Y-95090600D01*
X56078844Y-95080152D01*
X56026318Y-95090600D01*
X56026314Y-95090600D01*
X55870723Y-95121549D01*
X55694286Y-95239441D01*
X55664529Y-95283975D01*
X54394274Y-96554231D01*
X54306139Y-96686134D01*
X54264741Y-96894256D01*
X52891000Y-96894256D01*
X52891000Y-91287142D01*
X56241500Y-91287142D01*
X56241500Y-91960858D01*
X56499320Y-92583291D01*
X56975709Y-93059680D01*
X57598142Y-93317500D01*
X58271858Y-93317500D01*
X58894291Y-93059680D01*
X59370680Y-92583291D01*
X59628500Y-91960858D01*
X59628500Y-91287142D01*
X59510595Y-91002493D01*
X60736112Y-91002493D01*
X60872997Y-91301787D01*
X61595898Y-91580484D01*
X62370425Y-91561324D01*
X62997003Y-91301787D01*
X63004727Y-91284898D01*
X63978516Y-91284898D01*
X63997676Y-92059425D01*
X64257213Y-92686003D01*
X64556507Y-92822888D01*
X65755395Y-91624000D01*
X64556507Y-90425112D01*
X64257213Y-90561997D01*
X63978516Y-91284898D01*
X63004727Y-91284898D01*
X63133888Y-91002493D01*
X61935000Y-89803605D01*
X60736112Y-91002493D01*
X59510595Y-91002493D01*
X59370680Y-90664709D01*
X58894291Y-90188320D01*
X58271858Y-89930500D01*
X57598142Y-89930500D01*
X56975709Y-90188320D01*
X56499320Y-90664709D01*
X56241500Y-91287142D01*
X52891000Y-91287142D01*
X52891000Y-87287142D01*
X56241500Y-87287142D01*
X56241500Y-87960858D01*
X56499320Y-88583291D01*
X56975709Y-89059680D01*
X57598142Y-89317500D01*
X58271858Y-89317500D01*
X58350566Y-89284898D01*
X59978516Y-89284898D01*
X59997676Y-90059425D01*
X60257213Y-90686003D01*
X60556507Y-90822888D01*
X61755395Y-89624000D01*
X60556507Y-88425112D01*
X60257213Y-88561997D01*
X59978516Y-89284898D01*
X58350566Y-89284898D01*
X58894291Y-89059680D01*
X59370680Y-88583291D01*
X59628500Y-87960858D01*
X59628500Y-87287142D01*
X59370680Y-86664709D01*
X58894291Y-86188320D01*
X58271858Y-85930500D01*
X57598142Y-85930500D01*
X56975709Y-86188320D01*
X56499320Y-86664709D01*
X56241500Y-87287142D01*
X52891000Y-87287142D01*
X52891000Y-83287142D01*
X56241500Y-83287142D01*
X56241500Y-83960858D01*
X56499320Y-84583291D01*
X56975709Y-85059680D01*
X57598142Y-85317500D01*
X58271858Y-85317500D01*
X58894291Y-85059680D01*
X59370680Y-84583291D01*
X59628500Y-83960858D01*
X59628500Y-83287142D01*
X59370680Y-82664709D01*
X58894291Y-82188320D01*
X58271858Y-81930500D01*
X57598142Y-81930500D01*
X56975709Y-82188320D01*
X56499320Y-82664709D01*
X56241500Y-83287142D01*
X52891000Y-83287142D01*
X52891000Y-79287142D01*
X56241500Y-79287142D01*
X56241500Y-79960858D01*
X56499320Y-80583291D01*
X56975709Y-81059680D01*
X57598142Y-81317500D01*
X58271858Y-81317500D01*
X58345148Y-81287142D01*
X60241500Y-81287142D01*
X60241500Y-81960858D01*
X60499320Y-82583291D01*
X60975709Y-83059680D01*
X61598142Y-83317500D01*
X62271858Y-83317500D01*
X62894291Y-83059680D01*
X63370680Y-82583291D01*
X63628500Y-81960858D01*
X63628500Y-81287142D01*
X63370680Y-80664709D01*
X62894291Y-80188320D01*
X62271858Y-79930500D01*
X61598142Y-79930500D01*
X60975709Y-80188320D01*
X60499320Y-80664709D01*
X60241500Y-81287142D01*
X58345148Y-81287142D01*
X58894291Y-81059680D01*
X59370680Y-80583291D01*
X59628500Y-79960858D01*
X59628500Y-79287142D01*
X64241500Y-79287142D01*
X64241500Y-79960858D01*
X64499320Y-80583291D01*
X64975709Y-81059680D01*
X65598142Y-81317500D01*
X66271858Y-81317500D01*
X66894291Y-81059680D01*
X67370680Y-80583291D01*
X67628500Y-79960858D01*
X67628500Y-79287142D01*
X67370680Y-78664709D01*
X66894291Y-78188320D01*
X66271858Y-77930500D01*
X65598142Y-77930500D01*
X64975709Y-78188320D01*
X64499320Y-78664709D01*
X64241500Y-79287142D01*
X59628500Y-79287142D01*
X59370680Y-78664709D01*
X58894291Y-78188320D01*
X58271858Y-77930500D01*
X57598142Y-77930500D01*
X56975709Y-78188320D01*
X56499320Y-78664709D01*
X56241500Y-79287142D01*
X52891000Y-79287142D01*
X52891000Y-72764764D01*
X59629000Y-72764764D01*
X59629000Y-73483236D01*
X59903947Y-74147017D01*
X60411983Y-74655053D01*
X61075764Y-74930000D01*
X61794236Y-74930000D01*
X62458017Y-74655053D01*
X62966053Y-74147017D01*
X63241000Y-73483236D01*
X63241000Y-72764764D01*
X62966053Y-72100983D01*
X62458017Y-71592947D01*
X61794236Y-71318000D01*
X61075764Y-71318000D01*
X60411983Y-71592947D01*
X59903947Y-72100983D01*
X59629000Y-72764764D01*
X52891000Y-72764764D01*
X52891000Y-60647104D01*
X52965684Y-59911852D01*
X53179741Y-59228794D01*
X53526774Y-58602730D01*
X53992605Y-58059236D01*
X54558208Y-57620509D01*
X55200482Y-57304471D01*
X55898616Y-57122620D01*
X56469304Y-57078708D01*
X57198812Y-57025137D01*
X57209436Y-57023397D01*
X57220198Y-57023059D01*
X57271866Y-57013763D01*
X58136249Y-56806243D01*
X58149854Y-56801664D01*
X58163880Y-56798683D01*
X58213075Y-56780388D01*
X58213086Y-56780384D01*
X58213090Y-56780382D01*
X59027056Y-56423075D01*
X59039629Y-56416163D01*
X59052912Y-56410742D01*
X59098099Y-56384019D01*
X59835933Y-55888216D01*
X59847080Y-55879189D01*
X59859198Y-55871499D01*
X59898938Y-55837195D01*
X60537311Y-55218568D01*
X60546684Y-55207710D01*
X60557247Y-55197996D01*
X60590285Y-55157198D01*
X61109020Y-54435302D01*
X61116324Y-54422951D01*
X61124998Y-54411524D01*
X61150289Y-54365520D01*
X61532989Y-53563173D01*
X61537991Y-53549722D01*
X61544503Y-53536942D01*
X61561248Y-53487186D01*
X61795816Y-52629751D01*
X61798356Y-52615633D01*
X61802504Y-52601895D01*
X61810173Y-52549960D01*
X61887018Y-51688927D01*
X61891000Y-51668909D01*
X61891000Y-48192891D01*
X62504000Y-48192891D01*
X62504000Y-50055109D01*
X63216640Y-51775573D01*
X64533427Y-53092360D01*
X66253891Y-53805000D01*
X68116109Y-53805000D01*
X69836573Y-53092360D01*
X71153360Y-51775573D01*
X71866000Y-50055109D01*
X71866000Y-48192891D01*
X71380459Y-47020691D01*
X97382000Y-47020691D01*
X97382000Y-47298750D01*
X97540750Y-47457500D01*
X98365000Y-47457500D01*
X98365000Y-46670750D01*
X98619000Y-46670750D01*
X98619000Y-47457500D01*
X99443250Y-47457500D01*
X99602000Y-47298750D01*
X99602000Y-47020691D01*
X99505327Y-46787302D01*
X99326699Y-46608673D01*
X99093310Y-46512000D01*
X98777750Y-46512000D01*
X98619000Y-46670750D01*
X98365000Y-46670750D01*
X98206250Y-46512000D01*
X97890690Y-46512000D01*
X97657301Y-46608673D01*
X97478673Y-46787302D01*
X97382000Y-47020691D01*
X71380459Y-47020691D01*
X71237192Y-46674815D01*
X92432682Y-46674815D01*
X92555344Y-46889000D01*
X94048000Y-46889000D01*
X94048000Y-45631000D01*
X94302000Y-45631000D01*
X94302000Y-46889000D01*
X95794656Y-46889000D01*
X95917318Y-46674815D01*
X95903173Y-46603316D01*
X95644145Y-46126460D01*
X95222349Y-45785028D01*
X94702000Y-45631000D01*
X94302000Y-45631000D01*
X94048000Y-45631000D01*
X93648000Y-45631000D01*
X93127651Y-45785028D01*
X92705855Y-46126460D01*
X92446827Y-46603316D01*
X92432682Y-46674815D01*
X71237192Y-46674815D01*
X71153360Y-46472427D01*
X69836573Y-45155640D01*
X68195778Y-44476000D01*
X92621843Y-44476000D01*
X92709622Y-44917294D01*
X92959595Y-45291405D01*
X93333706Y-45541378D01*
X93663609Y-45607000D01*
X94686391Y-45607000D01*
X95016294Y-45541378D01*
X95390405Y-45291405D01*
X95640378Y-44917294D01*
X95728157Y-44476000D01*
X95640378Y-44034706D01*
X95390405Y-43660595D01*
X95016294Y-43410622D01*
X94686391Y-43345000D01*
X93663609Y-43345000D01*
X93333706Y-43410622D01*
X92959595Y-43660595D01*
X92709622Y-44034706D01*
X92621843Y-44476000D01*
X68195778Y-44476000D01*
X68116109Y-44443000D01*
X66253891Y-44443000D01*
X64533427Y-45155640D01*
X63216640Y-46472427D01*
X62504000Y-48192891D01*
X61891000Y-48192891D01*
X61891000Y-42150491D01*
X61962238Y-41539465D01*
X62163034Y-40986283D01*
X62485704Y-40494131D01*
X62912936Y-40089411D01*
X63421817Y-39793831D01*
X63991015Y-39621437D01*
X64455311Y-39580000D01*
X148463000Y-39580000D01*
X148463000Y-54864000D01*
X148463000Y-54864000D01*
G37*
X148463000Y-54864000D02*
X148403040Y-75916807D01*
X141481054Y-106906315D01*
X141478000Y-106934000D01*
X141478000Y-111923554D01*
X137441941Y-115959614D01*
X137444909Y-115944691D01*
X137368772Y-115561924D01*
X137151952Y-115237430D01*
X136827458Y-115020610D01*
X136541307Y-114963691D01*
X135798075Y-114963691D01*
X135511924Y-115020610D01*
X135187430Y-115237430D01*
X134970610Y-115561924D01*
X134894473Y-115944691D01*
X134970610Y-116327458D01*
X135187430Y-116651952D01*
X135511924Y-116868772D01*
X135798075Y-116925691D01*
X136475864Y-116925691D01*
X136437864Y-116963691D01*
X135798075Y-116963691D01*
X135511924Y-117020610D01*
X135187430Y-117237430D01*
X134970610Y-117561924D01*
X134894473Y-117944691D01*
X134970610Y-118327458D01*
X135187430Y-118651952D01*
X135471191Y-118841555D01*
X135471192Y-119047827D01*
X135187430Y-119237430D01*
X134970610Y-119561924D01*
X134894473Y-119944691D01*
X134896529Y-119955025D01*
X131650054Y-123201501D01*
X131278793Y-123201501D01*
X131209999Y-123187817D01*
X131141205Y-123201501D01*
X130937458Y-123242029D01*
X130706409Y-123396411D01*
X130552027Y-123627460D01*
X130497815Y-123900001D01*
X130511500Y-123968800D01*
X130511499Y-130342295D01*
X130367599Y-130401900D01*
X130147900Y-130621599D01*
X130029000Y-130908649D01*
X130029000Y-131219351D01*
X130147900Y-131506401D01*
X130367599Y-131726100D01*
X130654649Y-131845000D01*
X130965351Y-131845000D01*
X131252401Y-131726100D01*
X131472100Y-131506401D01*
X131554601Y-131307226D01*
X131655267Y-131206560D01*
X131713588Y-131167591D01*
X131867971Y-130936542D01*
X131908499Y-130732795D01*
X131908499Y-130732792D01*
X131922182Y-130664002D01*
X131908499Y-130595212D01*
X131908499Y-124606041D01*
X131939381Y-124612184D01*
X132008171Y-124598501D01*
X132008175Y-124598501D01*
X132211922Y-124557973D01*
X132442971Y-124403591D01*
X132481941Y-124345268D01*
X135901519Y-120925691D01*
X136541307Y-120925691D01*
X136827458Y-120868772D01*
X137151952Y-120651952D01*
X137368772Y-120327458D01*
X137444909Y-119944691D01*
X137368772Y-119561924D01*
X137151952Y-119237430D01*
X136868191Y-119047827D01*
X136868191Y-118841555D01*
X137151952Y-118651952D01*
X137368772Y-118327458D01*
X137444909Y-117944691D01*
X137442853Y-117934356D01*
X141478000Y-113899210D01*
X141478000Y-148667691D01*
X105890091Y-148667691D01*
X105888538Y-148668000D01*
X64461492Y-148668000D01*
X63850465Y-148596762D01*
X63297283Y-148395966D01*
X62805133Y-148073298D01*
X62400412Y-147646066D01*
X62104832Y-147137186D01*
X61932437Y-146567984D01*
X61891000Y-146103689D01*
X61891000Y-138192891D01*
X62504000Y-138192891D01*
X62504000Y-140055109D01*
X63216640Y-141775573D01*
X64533427Y-143092360D01*
X66253891Y-143805000D01*
X68116109Y-143805000D01*
X69836573Y-143092360D01*
X71049183Y-141879750D01*
X74560000Y-141879750D01*
X74560000Y-142820310D01*
X74656673Y-143053699D01*
X74835302Y-143232327D01*
X75068691Y-143329000D01*
X75779250Y-143329000D01*
X75938000Y-143170250D01*
X75938000Y-141721000D01*
X74718750Y-141721000D01*
X74560000Y-141879750D01*
X71049183Y-141879750D01*
X71153360Y-141775573D01*
X71736524Y-140367690D01*
X74560000Y-140367690D01*
X74560000Y-141308250D01*
X74718750Y-141467000D01*
X75938000Y-141467000D01*
X75938000Y-140017750D01*
X76192000Y-140017750D01*
X76192000Y-141467000D01*
X76212000Y-141467000D01*
X76212000Y-141721000D01*
X76192000Y-141721000D01*
X76192000Y-143170250D01*
X76350750Y-143329000D01*
X77061309Y-143329000D01*
X77294698Y-143232327D01*
X77473327Y-143053699D01*
X77570000Y-142820310D01*
X77570000Y-142526752D01*
X77703081Y-142725920D01*
X78116885Y-143002416D01*
X78605000Y-143099508D01*
X79093116Y-143002416D01*
X79506920Y-142725920D01*
X79783416Y-142312115D01*
X79856000Y-141947209D01*
X79856000Y-141240790D01*
X79783416Y-140875884D01*
X79506920Y-140462080D01*
X79093115Y-140185584D01*
X78605000Y-140088492D01*
X78116884Y-140185584D01*
X77703080Y-140462080D01*
X77570000Y-140661248D01*
X77570000Y-140367690D01*
X77473327Y-140134301D01*
X77294698Y-139955673D01*
X77061309Y-139859000D01*
X76350750Y-139859000D01*
X76192000Y-140017750D01*
X75938000Y-140017750D01*
X75779250Y-139859000D01*
X75068691Y-139859000D01*
X74835302Y-139955673D01*
X74656673Y-140134301D01*
X74560000Y-140367690D01*
X71736524Y-140367690D01*
X71866000Y-140055109D01*
X71866000Y-138192891D01*
X71153360Y-136472427D01*
X69836573Y-135155640D01*
X68116109Y-134443000D01*
X66253891Y-134443000D01*
X64533427Y-135155640D01*
X63216640Y-136472427D01*
X62504000Y-138192891D01*
X61891000Y-138192891D01*
X61891000Y-136579091D01*
X61887718Y-136562590D01*
X61836137Y-135860189D01*
X61834397Y-135849565D01*
X61834059Y-135838802D01*
X61824763Y-135787134D01*
X61617243Y-134922752D01*
X61612665Y-134909149D01*
X61609683Y-134895120D01*
X61591384Y-134845914D01*
X61234075Y-134031944D01*
X61227163Y-134019371D01*
X61221742Y-134006088D01*
X61195019Y-133960901D01*
X60699216Y-133223067D01*
X60690189Y-133211920D01*
X60682499Y-133199802D01*
X60648196Y-133160062D01*
X60029568Y-132521689D01*
X60018710Y-132512316D01*
X60008996Y-132501753D01*
X59968198Y-132468715D01*
X59246302Y-131949980D01*
X59233951Y-131942676D01*
X59222524Y-131934002D01*
X59176520Y-131908711D01*
X58374173Y-131526011D01*
X58360728Y-131521011D01*
X58347942Y-131514496D01*
X58298186Y-131497752D01*
X57440750Y-131263184D01*
X57426632Y-131260644D01*
X57412894Y-131256496D01*
X57360960Y-131248827D01*
X56478322Y-131170054D01*
X55722847Y-131093315D01*
X55039789Y-130879257D01*
X54413731Y-130532226D01*
X53870233Y-130066392D01*
X53431508Y-129500790D01*
X53115470Y-128858517D01*
X52933620Y-128160383D01*
X52891000Y-127606483D01*
X52891000Y-96894256D01*
X54264741Y-96894256D01*
X54300590Y-97074480D01*
X54300589Y-98025124D01*
X54268439Y-98186756D01*
X54278391Y-98236789D01*
X54278390Y-113784708D01*
X54268439Y-113834736D01*
X54278390Y-113884764D01*
X54278390Y-113884767D01*
X54300590Y-113996372D01*
X54300589Y-114278056D01*
X54264741Y-114458278D01*
X54306139Y-114666400D01*
X54394274Y-114798303D01*
X79647064Y-140051095D01*
X79778968Y-140139230D01*
X79987090Y-140180627D01*
X80167315Y-140144779D01*
X80862025Y-140144779D01*
X80656884Y-140185584D01*
X80243080Y-140462080D01*
X79966584Y-140875885D01*
X79894000Y-141240791D01*
X79894000Y-141947210D01*
X79966584Y-142312116D01*
X80243081Y-142725920D01*
X80656885Y-143002416D01*
X81145000Y-143099508D01*
X81633116Y-143002416D01*
X82046920Y-142725920D01*
X82323416Y-142312115D01*
X82396000Y-141947209D01*
X82396000Y-141240790D01*
X82323416Y-140875884D01*
X82046920Y-140462080D01*
X81633115Y-140185584D01*
X81427974Y-140144779D01*
X83402025Y-140144779D01*
X83196884Y-140185584D01*
X82783080Y-140462080D01*
X82506584Y-140875885D01*
X82434000Y-141240791D01*
X82434000Y-141947210D01*
X82506584Y-142312116D01*
X82783081Y-142725920D01*
X83196885Y-143002416D01*
X83685000Y-143099508D01*
X84173116Y-143002416D01*
X84586920Y-142725920D01*
X84863416Y-142312115D01*
X84936000Y-141947209D01*
X84936000Y-141240790D01*
X84863416Y-140875884D01*
X84586920Y-140462080D01*
X84173115Y-140185584D01*
X83967974Y-140144779D01*
X85942025Y-140144779D01*
X85736884Y-140185584D01*
X85323080Y-140462080D01*
X85046584Y-140875885D01*
X84974000Y-141240791D01*
X84974000Y-141947210D01*
X85046584Y-142312116D01*
X85323081Y-142725920D01*
X85736885Y-143002416D01*
X86225000Y-143099508D01*
X86713116Y-143002416D01*
X87126920Y-142725920D01*
X87403416Y-142312115D01*
X87476000Y-141947209D01*
X87476000Y-141879750D01*
X89800000Y-141879750D01*
X89800000Y-142820310D01*
X89896673Y-143053699D01*
X90075302Y-143232327D01*
X90308691Y-143329000D01*
X91019250Y-143329000D01*
X91178000Y-143170250D01*
X91178000Y-141721000D01*
X91432000Y-141721000D01*
X91432000Y-143170250D01*
X91590750Y-143329000D01*
X92301309Y-143329000D01*
X92534698Y-143232327D01*
X92713327Y-143053699D01*
X92786990Y-142875861D01*
X92874509Y-142984533D01*
X93392500Y-143267584D01*
X93484969Y-143285302D01*
X93718000Y-143164246D01*
X93718000Y-141721000D01*
X93972000Y-141721000D01*
X93972000Y-143164246D01*
X94205031Y-143285302D01*
X94297500Y-143267584D01*
X94815491Y-142984533D01*
X95115000Y-142612632D01*
X95414509Y-142984533D01*
X95932500Y-143267584D01*
X96024969Y-143285302D01*
X96258000Y-143164246D01*
X96258000Y-141721000D01*
X93972000Y-141721000D01*
X93718000Y-141721000D01*
X91432000Y-141721000D01*
X91178000Y-141721000D01*
X89958750Y-141721000D01*
X89800000Y-141879750D01*
X87476000Y-141879750D01*
X87476000Y-141240790D01*
X87403416Y-140875884D01*
X87126920Y-140462080D01*
X86713115Y-140185584D01*
X86507974Y-140144779D01*
X89892333Y-140144779D01*
X89800000Y-140367690D01*
X89800000Y-141308250D01*
X89958750Y-141467000D01*
X91178000Y-141467000D01*
X91178000Y-141447000D01*
X91432000Y-141447000D01*
X91432000Y-141467000D01*
X93718000Y-141467000D01*
X93718000Y-141447000D01*
X93972000Y-141447000D01*
X93972000Y-141467000D01*
X96258000Y-141467000D01*
X96258000Y-141447000D01*
X96512000Y-141447000D01*
X96512000Y-141467000D01*
X96532000Y-141467000D01*
X96532000Y-141721000D01*
X96512000Y-141721000D01*
X96512000Y-143164246D01*
X96745031Y-143285302D01*
X96837500Y-143267584D01*
X97355491Y-142984533D01*
X97725734Y-142524802D01*
X97775445Y-142355309D01*
X98023081Y-142725920D01*
X98436885Y-143002416D01*
X98925000Y-143099508D01*
X99413116Y-143002416D01*
X99826920Y-142725920D01*
X100103416Y-142312115D01*
X100176000Y-141947209D01*
X100176000Y-141240790D01*
X100103416Y-140875884D01*
X99826920Y-140462080D01*
X99413115Y-140185584D01*
X98925000Y-140088492D01*
X98460339Y-140180919D01*
X98105111Y-139825691D01*
X101023255Y-139825691D01*
X101315745Y-140118181D01*
X100976884Y-140185584D01*
X100563080Y-140462080D01*
X100286584Y-140875885D01*
X100214000Y-141240791D01*
X100214000Y-141947210D01*
X100286584Y-142312116D01*
X100563081Y-142725920D01*
X100976885Y-143002416D01*
X101465000Y-143099508D01*
X101953116Y-143002416D01*
X102366920Y-142725920D01*
X102643416Y-142312115D01*
X102716000Y-141947209D01*
X102716000Y-141518436D01*
X107678184Y-146480620D01*
X107705019Y-146520781D01*
X107864123Y-146627092D01*
X108004427Y-146655000D01*
X108004431Y-146655000D01*
X108051799Y-146664422D01*
X108099167Y-146655000D01*
X125970831Y-146655000D01*
X126018200Y-146664422D01*
X126065569Y-146655000D01*
X126065573Y-146655000D01*
X126205877Y-146627092D01*
X126364981Y-146520781D01*
X126391816Y-146480620D01*
X128144179Y-144728258D01*
X128175177Y-144722092D01*
X128334281Y-144615781D01*
X128361116Y-144575620D01*
X129209273Y-143727464D01*
X129611250Y-143727464D01*
X129843621Y-143681243D01*
X130040615Y-143549615D01*
X130172243Y-143352621D01*
X130187683Y-143275000D01*
X130330351Y-143275000D01*
X130617401Y-143156100D01*
X130837100Y-142936401D01*
X130956000Y-142649351D01*
X130956000Y-142338649D01*
X130837100Y-142051599D01*
X130617401Y-141831900D01*
X130330351Y-141713000D01*
X130019649Y-141713000D01*
X129732599Y-141831900D01*
X129563963Y-142000536D01*
X129173750Y-142000536D01*
X128941379Y-142046757D01*
X128744385Y-142178385D01*
X128612757Y-142375379D01*
X128605000Y-142414376D01*
X128597243Y-142375379D01*
X128465615Y-142178385D01*
X128350900Y-142101734D01*
X128350900Y-141536516D01*
X128416000Y-141379351D01*
X128416000Y-141068649D01*
X128297100Y-140781599D01*
X128077401Y-140561900D01*
X127790351Y-140443000D01*
X127479649Y-140443000D01*
X127192599Y-140561900D01*
X126972900Y-140781599D01*
X126854000Y-141068649D01*
X126854000Y-141379351D01*
X126972900Y-141666401D01*
X127192599Y-141886100D01*
X127284101Y-141924001D01*
X127284101Y-142101734D01*
X127169385Y-142178385D01*
X127037757Y-142375379D01*
X126991536Y-142607750D01*
X126991536Y-143120250D01*
X127037757Y-143352621D01*
X127169385Y-143549615D01*
X127263237Y-143612326D01*
X125632564Y-145243000D01*
X108437437Y-145243000D01*
X101657511Y-138463075D01*
X101626815Y-138432379D01*
X101599981Y-138392219D01*
X101440877Y-138285908D01*
X101300573Y-138258000D01*
X101300569Y-138258000D01*
X101253200Y-138248578D01*
X101205831Y-138258000D01*
X97803006Y-138258000D01*
X97906000Y-138009351D01*
X97906000Y-137698649D01*
X97787100Y-137411599D01*
X97567401Y-137191900D01*
X97280351Y-137073000D01*
X96969649Y-137073000D01*
X96682599Y-137191900D01*
X96553899Y-137320600D01*
X81470941Y-137320600D01*
X78360990Y-134210649D01*
X114154000Y-134210649D01*
X114154000Y-134521351D01*
X114272900Y-134808401D01*
X114456594Y-134992095D01*
X114481908Y-135119361D01*
X114561384Y-135238305D01*
X114561387Y-135238308D01*
X114588220Y-135278466D01*
X114622243Y-135301200D01*
X114492599Y-135354900D01*
X114272900Y-135574599D01*
X114154000Y-135861649D01*
X114154000Y-136172351D01*
X114272900Y-136459401D01*
X114492599Y-136679100D01*
X114779649Y-136798000D01*
X115033501Y-136798000D01*
X115331841Y-137096340D01*
X115358766Y-137136636D01*
X115518400Y-137243300D01*
X115659172Y-137271301D01*
X115706700Y-137280755D01*
X115754228Y-137271301D01*
X127201929Y-137271301D01*
X127381429Y-137450801D01*
X127668479Y-137569701D01*
X127979181Y-137569701D01*
X128266231Y-137450801D01*
X128485930Y-137231102D01*
X128604830Y-136944052D01*
X128604830Y-136633350D01*
X128578462Y-136569691D01*
X132569000Y-136569691D01*
X132569000Y-136807351D01*
X132687900Y-137094401D01*
X132907599Y-137314100D01*
X133194649Y-137433000D01*
X133505351Y-137433000D01*
X133792401Y-137314100D01*
X134012100Y-137094401D01*
X134131000Y-136807351D01*
X134131000Y-136496649D01*
X134012100Y-136209599D01*
X133792401Y-135989900D01*
X133505351Y-135871000D01*
X133249236Y-135871000D01*
X133160306Y-135782070D01*
X133133472Y-135741910D01*
X132974368Y-135635599D01*
X132834064Y-135607691D01*
X132834060Y-135607691D01*
X132786691Y-135598269D01*
X132739322Y-135607691D01*
X116291243Y-135607691D01*
X115544526Y-134860975D01*
X115597100Y-134808401D01*
X115716000Y-134521351D01*
X115716000Y-134210649D01*
X115597100Y-133923599D01*
X115377401Y-133703900D01*
X115090351Y-133585000D01*
X114779649Y-133585000D01*
X114492599Y-133703900D01*
X114272900Y-133923599D01*
X114154000Y-134210649D01*
X78360990Y-134210649D01*
X69089341Y-124939000D01*
X73661536Y-124939000D01*
X73661536Y-126639000D01*
X73691106Y-126787659D01*
X73775314Y-126913686D01*
X73901341Y-126997894D01*
X74050000Y-127027464D01*
X75750000Y-127027464D01*
X75898659Y-126997894D01*
X76024686Y-126913686D01*
X76108894Y-126787659D01*
X76138464Y-126639000D01*
X76138464Y-124939000D01*
X76108894Y-124790341D01*
X76024686Y-124664314D01*
X75898659Y-124580106D01*
X75750000Y-124550536D01*
X74050000Y-124550536D01*
X73901341Y-124580106D01*
X73775314Y-124664314D01*
X73691106Y-124790341D01*
X73661536Y-124939000D01*
X69089341Y-124939000D01*
X69083400Y-124933060D01*
X69083400Y-121065890D01*
X73458524Y-121065890D01*
X73628355Y-121475924D01*
X74018642Y-121904183D01*
X74416963Y-122091245D01*
X74012499Y-122361499D01*
X73740424Y-122768688D01*
X73644884Y-123249000D01*
X73740424Y-123729312D01*
X74012499Y-124136501D01*
X74419688Y-124408576D01*
X74778761Y-124480000D01*
X75021239Y-124480000D01*
X75380312Y-124408576D01*
X75787501Y-124136501D01*
X76059576Y-123729312D01*
X76155116Y-123249000D01*
X76059576Y-122768688D01*
X75787501Y-122361499D01*
X75383037Y-122091245D01*
X75781358Y-121904183D01*
X76171645Y-121475924D01*
X76341476Y-121065890D01*
X76220155Y-120836000D01*
X75027000Y-120836000D01*
X75027000Y-120856000D01*
X74773000Y-120856000D01*
X74773000Y-120836000D01*
X73579845Y-120836000D01*
X73458524Y-121065890D01*
X69083400Y-121065890D01*
X69083400Y-120352110D01*
X73458524Y-120352110D01*
X73579845Y-120582000D01*
X74773000Y-120582000D01*
X74773000Y-120562000D01*
X75027000Y-120562000D01*
X75027000Y-120582000D01*
X76220155Y-120582000D01*
X76341476Y-120352110D01*
X76171645Y-119942076D01*
X75781358Y-119513817D01*
X75383037Y-119326755D01*
X75787501Y-119056501D01*
X76059576Y-118649312D01*
X76155116Y-118169000D01*
X76059576Y-117688688D01*
X75787501Y-117281499D01*
X75380312Y-117009424D01*
X75021239Y-116938000D01*
X74778761Y-116938000D01*
X74419688Y-117009424D01*
X74012499Y-117281499D01*
X73740424Y-117688688D01*
X73644884Y-118169000D01*
X73740424Y-118649312D01*
X74012499Y-119056501D01*
X74416963Y-119326755D01*
X74018642Y-119513817D01*
X73628355Y-119942076D01*
X73458524Y-120352110D01*
X69083400Y-120352110D01*
X69083400Y-113494901D01*
X69179290Y-113590791D01*
X69466340Y-113709691D01*
X69777042Y-113709691D01*
X70064092Y-113590791D01*
X70243592Y-113411291D01*
X91011793Y-113411291D01*
X92936049Y-115335548D01*
X92936052Y-115335550D01*
X93774368Y-116173866D01*
X93623680Y-116236283D01*
X93403981Y-116455982D01*
X93285081Y-116743032D01*
X93285081Y-116763384D01*
X93147378Y-116763384D01*
X92860328Y-116882284D01*
X92640629Y-117101983D01*
X92521729Y-117389033D01*
X92521729Y-117642885D01*
X89938215Y-120226400D01*
X86316901Y-120226400D01*
X86137401Y-120046900D01*
X85850351Y-119928000D01*
X85539649Y-119928000D01*
X85252599Y-120046900D01*
X85032900Y-120266599D01*
X84914000Y-120553649D01*
X84914000Y-120864351D01*
X85032900Y-121151401D01*
X85252599Y-121371100D01*
X85539649Y-121490000D01*
X85850351Y-121490000D01*
X86137401Y-121371100D01*
X86316901Y-121191600D01*
X87282899Y-121191600D01*
X87064900Y-121409599D01*
X86946000Y-121696649D01*
X86946000Y-122007351D01*
X87064900Y-122294401D01*
X87284599Y-122514100D01*
X87571649Y-122633000D01*
X87825502Y-122633000D01*
X88295502Y-123103000D01*
X88079649Y-123103000D01*
X87792599Y-123221900D01*
X87572900Y-123441599D01*
X87454000Y-123728649D01*
X87454000Y-124039351D01*
X87572900Y-124326401D01*
X87792599Y-124546100D01*
X88079649Y-124665000D01*
X88333502Y-124665000D01*
X89190298Y-125521797D01*
X89161159Y-125516001D01*
X89161155Y-125516001D01*
X89113786Y-125506579D01*
X89066417Y-125516001D01*
X87969237Y-125516001D01*
X83516001Y-121062765D01*
X83516001Y-118516167D01*
X83658076Y-118645645D01*
X84068110Y-118815476D01*
X84298000Y-118694155D01*
X84298000Y-117501000D01*
X84552000Y-117501000D01*
X84552000Y-118694155D01*
X84781890Y-118815476D01*
X85191924Y-118645645D01*
X85620183Y-118255358D01*
X85866486Y-117730892D01*
X85745819Y-117501000D01*
X84552000Y-117501000D01*
X84298000Y-117501000D01*
X84278000Y-117501000D01*
X84278000Y-117247000D01*
X84298000Y-117247000D01*
X84298000Y-117227000D01*
X84552000Y-117227000D01*
X84552000Y-117247000D01*
X85745819Y-117247000D01*
X85866486Y-117017108D01*
X85620183Y-116492642D01*
X85191924Y-116102355D01*
X84914488Y-115987445D01*
X85312501Y-115721501D01*
X85584576Y-115314312D01*
X85680116Y-114834000D01*
X85584576Y-114353688D01*
X85312501Y-113946499D01*
X84905312Y-113674424D01*
X84546239Y-113603000D01*
X84303761Y-113603000D01*
X83944688Y-113674424D01*
X83537499Y-113946499D01*
X83265424Y-114353688D01*
X83169884Y-114834000D01*
X83265424Y-115314312D01*
X83537499Y-115721501D01*
X83935512Y-115987445D01*
X83658076Y-116102355D01*
X83516001Y-116231833D01*
X83516001Y-116031370D01*
X83525423Y-115984001D01*
X83516001Y-115936632D01*
X83516001Y-115936628D01*
X83488093Y-115796324D01*
X83381782Y-115637220D01*
X83348441Y-115614942D01*
X83045113Y-115311614D01*
X83140116Y-114834000D01*
X83044576Y-114353688D01*
X82772501Y-113946499D01*
X82365312Y-113674424D01*
X82006239Y-113603000D01*
X81763761Y-113603000D01*
X81404688Y-113674424D01*
X80997499Y-113946499D01*
X80725424Y-114353688D01*
X80704611Y-114458320D01*
X80586501Y-114379401D01*
X80583464Y-114378797D01*
X80583464Y-113984000D01*
X80553894Y-113835341D01*
X80469686Y-113709314D01*
X80343659Y-113625106D01*
X80195000Y-113595536D01*
X78495000Y-113595536D01*
X78346341Y-113625106D01*
X78220314Y-113709314D01*
X78136106Y-113835341D01*
X78106536Y-113984000D01*
X78106536Y-115684000D01*
X78136106Y-115832659D01*
X78220314Y-115958686D01*
X78346341Y-116042894D01*
X78495000Y-116072464D01*
X80014002Y-116072464D01*
X80014002Y-116340502D01*
X79825312Y-116214424D01*
X79466239Y-116143000D01*
X79223761Y-116143000D01*
X78864688Y-116214424D01*
X78457499Y-116486499D01*
X78185424Y-116893688D01*
X78089884Y-117374000D01*
X78185424Y-117854312D01*
X78457499Y-118261501D01*
X78864688Y-118533576D01*
X79223761Y-118605000D01*
X79466239Y-118605000D01*
X79825312Y-118533576D01*
X80014001Y-118407498D01*
X80014001Y-119944632D01*
X80004579Y-119992001D01*
X80014001Y-120039370D01*
X80014001Y-120039373D01*
X80041909Y-120179677D01*
X80067003Y-120217232D01*
X80148220Y-120338782D01*
X80188381Y-120365617D01*
X87128691Y-127305928D01*
X87128691Y-127562042D01*
X87247591Y-127849092D01*
X87467290Y-128068791D01*
X87754340Y-128187691D01*
X88065042Y-128187691D01*
X88352092Y-128068791D01*
X88533192Y-127887691D01*
X88869073Y-127887691D01*
X92199000Y-131217618D01*
X92199000Y-131340438D01*
X92197400Y-131348482D01*
X92197400Y-132171109D01*
X92017900Y-132350609D01*
X91899000Y-132637659D01*
X91899000Y-132948361D01*
X92017900Y-133235411D01*
X92237599Y-133455110D01*
X92524649Y-133574010D01*
X92835351Y-133574010D01*
X93122401Y-133455110D01*
X93338169Y-133239342D01*
X93417591Y-133431082D01*
X93637290Y-133650781D01*
X93924340Y-133769681D01*
X94235042Y-133769681D01*
X94522092Y-133650781D01*
X94741791Y-133431082D01*
X94860691Y-133144032D01*
X94860691Y-132833330D01*
X94741791Y-132546280D01*
X94589600Y-132394089D01*
X94589600Y-131619527D01*
X94599054Y-131571999D01*
X94583515Y-131493878D01*
X94561599Y-131383699D01*
X94454935Y-131224065D01*
X94414640Y-131197141D01*
X93805680Y-130588182D01*
X93787094Y-130494743D01*
X93757911Y-130451068D01*
X93707618Y-130375799D01*
X93707616Y-130375797D01*
X93680783Y-130335639D01*
X93640625Y-130308806D01*
X90518520Y-127186702D01*
X90518520Y-126930587D01*
X90399620Y-126643537D01*
X90280083Y-126524000D01*
X91678502Y-126524000D01*
X93707000Y-128552499D01*
X93707000Y-128806351D01*
X93825900Y-129093401D01*
X94007557Y-129275058D01*
X94030419Y-129389990D01*
X94033402Y-129404986D01*
X94140066Y-129564620D01*
X94180362Y-129591545D01*
X96890613Y-132301797D01*
X96917538Y-132342093D01*
X97077172Y-132448757D01*
X97217944Y-132476758D01*
X97217945Y-132476758D01*
X97265473Y-132486212D01*
X97313001Y-132476758D01*
X114573293Y-132476758D01*
X114752793Y-132656258D01*
X115039843Y-132775158D01*
X115350545Y-132775158D01*
X115637595Y-132656258D01*
X115857294Y-132436559D01*
X115976194Y-132149509D01*
X115976194Y-131838807D01*
X115857294Y-131551757D01*
X115637595Y-131332058D01*
X115350545Y-131213158D01*
X115039843Y-131213158D01*
X114752793Y-131332058D01*
X114573293Y-131511558D01*
X99240856Y-131511558D01*
X99274092Y-131497791D01*
X99493791Y-131278092D01*
X99612691Y-130991042D01*
X99612691Y-130680340D01*
X99584960Y-130613391D01*
X99660142Y-130613391D01*
X99947192Y-130494491D01*
X100084093Y-130357591D01*
X100336138Y-130609636D01*
X100363065Y-130649935D01*
X100522699Y-130756599D01*
X100663471Y-130784600D01*
X100710999Y-130794054D01*
X100758527Y-130784600D01*
X116064851Y-130784600D01*
X116213014Y-130883599D01*
X116342942Y-130909443D01*
X116524599Y-131091100D01*
X116811649Y-131210000D01*
X117122351Y-131210000D01*
X117409401Y-131091100D01*
X117629100Y-130871401D01*
X117748000Y-130584351D01*
X117748000Y-130273649D01*
X117629100Y-129986599D01*
X117409401Y-129766900D01*
X117122351Y-129648000D01*
X116811649Y-129648000D01*
X116524599Y-129766900D01*
X116447170Y-129844329D01*
X116321844Y-129819400D01*
X116321843Y-129819400D01*
X116274315Y-129809946D01*
X116226787Y-129819400D01*
X100910898Y-129819400D01*
X100749641Y-129658143D01*
X100742824Y-129653588D01*
X100615007Y-129525771D01*
X100588172Y-129485610D01*
X100429068Y-129379299D01*
X100288764Y-129351391D01*
X100288760Y-129351391D01*
X100241391Y-129341969D01*
X100194022Y-129351391D01*
X100128292Y-129351391D01*
X99947192Y-129170291D01*
X99660142Y-129051391D01*
X99358939Y-129051391D01*
X101812131Y-126598200D01*
X101845472Y-126575922D01*
X101951783Y-126416818D01*
X101979691Y-126276514D01*
X101979691Y-126276511D01*
X101989113Y-126229142D01*
X101979691Y-126181773D01*
X101979691Y-113594690D01*
X134906227Y-113594690D01*
X134906227Y-114294692D01*
X134954827Y-114539021D01*
X135093228Y-114746154D01*
X135300361Y-114884555D01*
X135544690Y-114933155D01*
X136794692Y-114933155D01*
X137039021Y-114884555D01*
X137246154Y-114746154D01*
X137384555Y-114539021D01*
X137433155Y-114294692D01*
X137433155Y-113594690D01*
X137384555Y-113350361D01*
X137246154Y-113143228D01*
X137039021Y-113004827D01*
X136794692Y-112956227D01*
X135544690Y-112956227D01*
X135300361Y-113004827D01*
X135093228Y-113143228D01*
X134954827Y-113350361D01*
X134906227Y-113594690D01*
X101979691Y-113594690D01*
X101979691Y-102134000D01*
X106240000Y-102134000D01*
X106240000Y-109754000D01*
X106283602Y-109985243D01*
X106417113Y-110193959D01*
X106620332Y-110335695D01*
X106862323Y-110388873D01*
X117529323Y-110601873D01*
X117680237Y-110586771D01*
X117906890Y-110486692D01*
X129844890Y-102104692D01*
X130055113Y-101854202D01*
X135643113Y-89916202D01*
X135703000Y-89647000D01*
X135703000Y-73137000D01*
X135654664Y-72893996D01*
X135517013Y-72687987D01*
X135311004Y-72550336D01*
X135068000Y-72502000D01*
X133422670Y-72502000D01*
X133277071Y-72404714D01*
X132702879Y-72290500D01*
X132702875Y-72290500D01*
X132509000Y-72251936D01*
X132315125Y-72290500D01*
X127000121Y-72290500D01*
X126425929Y-72404714D01*
X126280330Y-72502000D01*
X125162000Y-72502000D01*
X125104510Y-72504608D01*
X111134510Y-73774608D01*
X110948996Y-73820336D01*
X110742987Y-73957987D01*
X110605336Y-74163996D01*
X110557000Y-74407000D01*
X110557000Y-98718552D01*
X106505484Y-101617587D01*
X106288336Y-101890996D01*
X106240000Y-102134000D01*
X101979691Y-102134000D01*
X101979691Y-87058927D01*
X102530621Y-86507997D01*
X102570782Y-86481162D01*
X102677093Y-86322058D01*
X102705001Y-86181754D01*
X102705001Y-86181750D01*
X102714423Y-86134382D01*
X102705001Y-86087014D01*
X102705001Y-85319256D01*
X102716055Y-85263685D01*
X102685321Y-85109180D01*
X102770100Y-85024401D01*
X102889000Y-84737351D01*
X102889000Y-84426649D01*
X102770100Y-84139599D01*
X102550401Y-83919900D01*
X102263351Y-83801000D01*
X101952649Y-83801000D01*
X101665599Y-83919900D01*
X101445900Y-84139599D01*
X101327000Y-84426649D01*
X101327000Y-84737351D01*
X101438147Y-85005683D01*
X101295213Y-85005683D01*
X101189103Y-85049635D01*
X101107055Y-84851554D01*
X100887356Y-84631855D01*
X100600306Y-84512955D01*
X100289604Y-84512955D01*
X100002554Y-84631855D01*
X99782855Y-84851554D01*
X99663955Y-85138604D01*
X99663955Y-85449306D01*
X99782855Y-85736356D01*
X99964512Y-85918013D01*
X99967738Y-85934228D01*
X99723351Y-85833000D01*
X99412649Y-85833000D01*
X99125599Y-85951900D01*
X98905900Y-86171599D01*
X98787000Y-86458649D01*
X98787000Y-86769351D01*
X98905900Y-87056401D01*
X99087557Y-87238058D01*
X99103360Y-87317500D01*
X99113402Y-87367986D01*
X99220066Y-87527620D01*
X99260361Y-87554545D01*
X99619091Y-87913275D01*
X99619092Y-122409000D01*
X99412649Y-122409000D01*
X99125599Y-122527900D01*
X98905900Y-122747599D01*
X98787000Y-123034649D01*
X98787000Y-123345351D01*
X98905900Y-123632401D01*
X99125599Y-123852100D01*
X99412649Y-123971000D01*
X99723351Y-123971000D01*
X99778235Y-123948266D01*
X99204313Y-124522189D01*
X91079688Y-124522189D01*
X88508000Y-121950502D01*
X88508000Y-121696649D01*
X88389100Y-121409599D01*
X88171101Y-121191600D01*
X90090585Y-121191600D01*
X90138113Y-121201054D01*
X90185641Y-121191600D01*
X90185642Y-121191600D01*
X90326414Y-121163599D01*
X90486048Y-121056935D01*
X90512975Y-121016636D01*
X93204228Y-118325384D01*
X93458080Y-118325384D01*
X93583482Y-118273441D01*
X93583481Y-120142553D01*
X93574027Y-120190081D01*
X93583481Y-120237609D01*
X93611482Y-120378381D01*
X93718146Y-120538016D01*
X93758445Y-120564943D01*
X95709000Y-122515499D01*
X95709000Y-122769351D01*
X95827900Y-123056401D01*
X96047599Y-123276100D01*
X96334649Y-123395000D01*
X96645351Y-123395000D01*
X96932401Y-123276100D01*
X97152100Y-123056401D01*
X97271000Y-122769351D01*
X97271000Y-122458649D01*
X97164610Y-122201800D01*
X97209042Y-122201800D01*
X97496092Y-122082900D01*
X97715791Y-121863201D01*
X97834691Y-121576151D01*
X97834691Y-121265449D01*
X97715791Y-120978399D01*
X97496092Y-120758700D01*
X97209042Y-120639800D01*
X96952140Y-120639800D01*
X96841993Y-120566202D01*
X96701221Y-120538201D01*
X96701220Y-120538201D01*
X96653692Y-120528747D01*
X96606164Y-120538201D01*
X95947700Y-120538201D01*
X95250291Y-119840793D01*
X95250291Y-116532218D01*
X95259745Y-116484690D01*
X95241427Y-116392599D01*
X95222290Y-116296390D01*
X95115626Y-116136756D01*
X95075330Y-116109831D01*
X93618550Y-114653052D01*
X93618548Y-114653049D01*
X91586553Y-112621055D01*
X91559626Y-112580756D01*
X91399992Y-112474092D01*
X91259220Y-112446091D01*
X91259219Y-112446091D01*
X91211691Y-112436637D01*
X91164163Y-112446091D01*
X70243592Y-112446091D01*
X70064092Y-112266591D01*
X69777042Y-112147691D01*
X69466340Y-112147691D01*
X69179290Y-112266591D01*
X69083400Y-112362481D01*
X69083400Y-95586532D01*
X84312073Y-95586532D01*
X84410736Y-95853387D01*
X85020461Y-96079908D01*
X85670460Y-96055856D01*
X86159264Y-95853387D01*
X86257927Y-95586532D01*
X85285000Y-94613605D01*
X84312073Y-95586532D01*
X69083400Y-95586532D01*
X69083400Y-92114709D01*
X70397974Y-93221719D01*
X70563996Y-93322664D01*
X70807000Y-93371000D01*
X84042392Y-93371000D01*
X84132466Y-93461074D01*
X83865613Y-93559736D01*
X83639092Y-94169461D01*
X83663144Y-94819460D01*
X83865613Y-95308264D01*
X84132468Y-95406927D01*
X85105395Y-94434000D01*
X85464605Y-94434000D01*
X86437532Y-95406927D01*
X86704387Y-95308264D01*
X86930908Y-94698539D01*
X86906856Y-94048540D01*
X86704387Y-93559736D01*
X86437532Y-93461073D01*
X85464605Y-94434000D01*
X85105395Y-94434000D01*
X85091253Y-94419858D01*
X85270858Y-94240253D01*
X85285000Y-94254395D01*
X86202608Y-93336787D01*
X86313354Y-93312438D01*
X86513672Y-93166630D01*
X86642944Y-92955262D01*
X89044074Y-86429114D01*
X101791063Y-78507171D01*
X101791063Y-79618694D01*
X101781641Y-79666063D01*
X101791063Y-79713432D01*
X101791063Y-79713435D01*
X101818971Y-79853739D01*
X101925282Y-80012844D01*
X101965443Y-80039679D01*
X102724000Y-80798236D01*
X102724000Y-81054351D01*
X102842900Y-81341401D01*
X103062599Y-81561100D01*
X103349649Y-81680000D01*
X103660351Y-81680000D01*
X103947401Y-81561100D01*
X104167100Y-81341401D01*
X104286000Y-81054351D01*
X104286000Y-80743649D01*
X104167100Y-80456599D01*
X103947401Y-80236900D01*
X103660351Y-80118000D01*
X103404236Y-80118000D01*
X102753063Y-79466827D01*
X102753063Y-77909311D01*
X103205181Y-77628331D01*
X103319013Y-77538013D01*
X103456664Y-77332004D01*
X103505000Y-77089000D01*
X103505000Y-67549000D01*
X124781000Y-67549000D01*
X124781000Y-69327000D01*
X124829336Y-69570004D01*
X124966987Y-69776013D01*
X125172996Y-69913664D01*
X125416000Y-69962000D01*
X135195000Y-69962000D01*
X135424910Y-69918917D01*
X135633926Y-69785878D01*
X144396926Y-61403878D01*
X144544664Y-61188004D01*
X144562766Y-61097000D01*
X144670305Y-61097000D01*
X145986474Y-60551825D01*
X146993825Y-59544474D01*
X147539000Y-58228305D01*
X147539000Y-56803695D01*
X146993825Y-55487526D01*
X145986474Y-54480175D01*
X144670305Y-53935000D01*
X144562766Y-53935000D01*
X144544664Y-53843996D01*
X144407013Y-53637987D01*
X144201004Y-53500336D01*
X143958000Y-53452000D01*
X131893000Y-53452000D01*
X131742028Y-53470208D01*
X131517484Y-53574933D01*
X129780120Y-54849000D01*
X128083000Y-54849000D01*
X127839996Y-54897336D01*
X127633987Y-55034987D01*
X127496336Y-55240996D01*
X127448000Y-55484000D01*
X127448000Y-59068412D01*
X124810892Y-67356466D01*
X124781000Y-67549000D01*
X103505000Y-67549000D01*
X103505000Y-65614012D01*
X103511381Y-65614012D01*
X103798431Y-65495112D01*
X103979531Y-65314012D01*
X104232819Y-65314012D01*
X104280188Y-65323434D01*
X104327557Y-65314012D01*
X104327561Y-65314012D01*
X104467865Y-65286104D01*
X104626969Y-65179793D01*
X104653804Y-65139632D01*
X106223636Y-63569800D01*
X106479751Y-63569800D01*
X106766801Y-63450900D01*
X106986500Y-63231201D01*
X107105400Y-62944151D01*
X107105400Y-62633449D01*
X106986500Y-62346399D01*
X106766801Y-62126700D01*
X106479751Y-62007800D01*
X106169049Y-62007800D01*
X105881999Y-62126700D01*
X105662300Y-62346399D01*
X105543400Y-62633449D01*
X105543400Y-62889564D01*
X104080952Y-64352012D01*
X103979531Y-64352012D01*
X103798431Y-64170912D01*
X103511381Y-64052012D01*
X103505000Y-64052012D01*
X103505000Y-62112026D01*
X104892026Y-60725000D01*
X104930351Y-60725000D01*
X105217401Y-60606100D01*
X105437100Y-60386401D01*
X105556000Y-60099351D01*
X105556000Y-60061026D01*
X105614290Y-60002736D01*
X105642658Y-59997093D01*
X105801762Y-59890782D01*
X105828597Y-59850621D01*
X113355219Y-52324000D01*
X116840000Y-52324000D01*
X117141311Y-52247960D01*
X117235625Y-52170000D01*
X118121499Y-52170000D01*
X118302599Y-52351100D01*
X118589649Y-52470000D01*
X118900351Y-52470000D01*
X119187401Y-52351100D01*
X119407100Y-52131401D01*
X119526000Y-51844351D01*
X119526000Y-51533649D01*
X119407100Y-51246599D01*
X119187401Y-51026900D01*
X118900351Y-50908000D01*
X118589649Y-50908000D01*
X118302599Y-51026900D01*
X118121499Y-51208000D01*
X118051011Y-51208000D01*
X123623280Y-44369105D01*
X123717664Y-44211004D01*
X123766000Y-43968000D01*
X123766000Y-43079000D01*
X130637986Y-43079000D01*
X130752929Y-43656857D01*
X131080259Y-44146741D01*
X131570143Y-44474071D01*
X132002137Y-44560000D01*
X132293863Y-44560000D01*
X132725857Y-44474071D01*
X133215741Y-44146741D01*
X133543071Y-43656857D01*
X133658014Y-43079000D01*
X133543071Y-42501143D01*
X133215741Y-42011259D01*
X132725857Y-41683929D01*
X132293863Y-41598000D01*
X132002137Y-41598000D01*
X131570143Y-41683929D01*
X131080259Y-42011259D01*
X130752929Y-42501143D01*
X130637986Y-43079000D01*
X123766000Y-43079000D01*
X123766000Y-41936000D01*
X123717664Y-41692996D01*
X123580013Y-41486987D01*
X123374004Y-41349336D01*
X123131000Y-41301000D01*
X120591000Y-41301000D01*
X120385458Y-41335186D01*
X101181386Y-47905000D01*
X99602000Y-47905000D01*
X99602000Y-47870250D01*
X99443250Y-47711500D01*
X98619000Y-47711500D01*
X98619000Y-47731500D01*
X98365000Y-47731500D01*
X98365000Y-47711500D01*
X97540750Y-47711500D01*
X97382000Y-47870250D01*
X97382000Y-47905000D01*
X95644438Y-47905000D01*
X95903173Y-47428684D01*
X95917318Y-47357185D01*
X95794656Y-47143000D01*
X94302000Y-47143000D01*
X94302000Y-47163000D01*
X94048000Y-47163000D01*
X94048000Y-47143000D01*
X92555344Y-47143000D01*
X92432682Y-47357185D01*
X92446827Y-47428684D01*
X92705855Y-47905540D01*
X92813861Y-47992968D01*
X71195689Y-56414000D01*
X68775000Y-56414000D01*
X68536235Y-56460598D01*
X68329239Y-56596759D01*
X68190105Y-56801769D01*
X68140017Y-57044418D01*
X67946526Y-83860299D01*
X66484974Y-85809035D01*
X65037226Y-85085161D01*
X65598142Y-85317500D01*
X66271858Y-85317500D01*
X66894291Y-85059680D01*
X67370680Y-84583291D01*
X67628500Y-83960858D01*
X67628500Y-83287142D01*
X67370680Y-82664709D01*
X66894291Y-82188320D01*
X66271858Y-81930500D01*
X65598142Y-81930500D01*
X64975709Y-82188320D01*
X64499320Y-82664709D01*
X64241500Y-83287142D01*
X64241500Y-83960858D01*
X64499320Y-84583291D01*
X64965154Y-85049125D01*
X61878981Y-83506039D01*
X61749010Y-83457960D01*
X61501538Y-83445916D01*
X61268295Y-83529492D01*
X61084790Y-83695965D01*
X60978960Y-83919990D01*
X60890600Y-84273429D01*
X60499320Y-84664709D01*
X60241500Y-85287142D01*
X60241500Y-85960858D01*
X60383212Y-86302982D01*
X60343960Y-86459990D01*
X60347375Y-86781080D01*
X60457947Y-87002803D01*
X60644952Y-87165334D01*
X61554905Y-87685307D01*
X61499575Y-87686676D01*
X60872997Y-87946213D01*
X60736112Y-88245507D01*
X61935000Y-89444395D01*
X61949143Y-89430253D01*
X62128748Y-89609858D01*
X62114605Y-89624000D01*
X63313493Y-90822888D01*
X63612787Y-90686003D01*
X63891484Y-89963102D01*
X63872324Y-89188575D01*
X63775173Y-88954032D01*
X65089952Y-89705334D01*
X65222769Y-89762290D01*
X65277467Y-89778676D01*
X64872997Y-89946213D01*
X64736112Y-90245507D01*
X65935000Y-91444395D01*
X65949143Y-91430253D01*
X66128748Y-91609858D01*
X66114605Y-91624000D01*
X67313493Y-92822888D01*
X67612787Y-92686003D01*
X67891484Y-91963102D01*
X67872324Y-91188575D01*
X67812710Y-91044655D01*
X68016600Y-91216351D01*
X68016601Y-109861465D01*
X68016600Y-109861470D01*
X68016601Y-121885107D01*
X68016600Y-121885112D01*
X68016601Y-125101469D01*
X68009849Y-125135413D01*
X56639200Y-113764764D01*
X59629000Y-113764764D01*
X59629000Y-114483236D01*
X59903947Y-115147017D01*
X60411983Y-115655053D01*
X61075764Y-115930000D01*
X61794236Y-115930000D01*
X62458017Y-115655053D01*
X62966053Y-115147017D01*
X63241000Y-114483236D01*
X63241000Y-113764764D01*
X62966053Y-113100983D01*
X62458017Y-112592947D01*
X61794236Y-112318000D01*
X61075764Y-112318000D01*
X60411983Y-112592947D01*
X59903947Y-113100983D01*
X59629000Y-113764764D01*
X56639200Y-113764764D01*
X56583424Y-113708988D01*
X56578867Y-113702168D01*
X56147600Y-113270902D01*
X56147600Y-107287142D01*
X56241500Y-107287142D01*
X56241500Y-107960858D01*
X56499320Y-108583291D01*
X56975709Y-109059680D01*
X57598142Y-109317500D01*
X58271858Y-109317500D01*
X58894291Y-109059680D01*
X59370680Y-108583291D01*
X59628500Y-107960858D01*
X59628500Y-107287142D01*
X59370680Y-106664709D01*
X58894291Y-106188320D01*
X58271858Y-105930500D01*
X57598142Y-105930500D01*
X56975709Y-106188320D01*
X56499320Y-106664709D01*
X56241500Y-107287142D01*
X56147600Y-107287142D01*
X56147600Y-105370825D01*
X56146000Y-105362781D01*
X56146000Y-103287142D01*
X56241500Y-103287142D01*
X56241500Y-103960858D01*
X56499320Y-104583291D01*
X56975709Y-105059680D01*
X57598142Y-105317500D01*
X58271858Y-105317500D01*
X58345148Y-105287142D01*
X60241500Y-105287142D01*
X60241500Y-105960858D01*
X60499320Y-106583291D01*
X60975709Y-107059680D01*
X61598142Y-107317500D01*
X62271858Y-107317500D01*
X62894291Y-107059680D01*
X63370680Y-106583291D01*
X63483259Y-106311500D01*
X64234036Y-106311500D01*
X64234036Y-108936500D01*
X64263606Y-109085159D01*
X64347814Y-109211186D01*
X64473841Y-109295394D01*
X64622500Y-109324964D01*
X67247500Y-109324964D01*
X67396159Y-109295394D01*
X67522186Y-109211186D01*
X67606394Y-109085159D01*
X67635964Y-108936500D01*
X67635964Y-106311500D01*
X67606394Y-106162841D01*
X67522186Y-106036814D01*
X67396159Y-105952606D01*
X67247500Y-105923036D01*
X64622500Y-105923036D01*
X64473841Y-105952606D01*
X64347814Y-106036814D01*
X64263606Y-106162841D01*
X64234036Y-106311500D01*
X63483259Y-106311500D01*
X63628500Y-105960858D01*
X63628500Y-105287142D01*
X63370680Y-104664709D01*
X62894291Y-104188320D01*
X62271858Y-103930500D01*
X61598142Y-103930500D01*
X60975709Y-104188320D01*
X60499320Y-104664709D01*
X60241500Y-105287142D01*
X58345148Y-105287142D01*
X58894291Y-105059680D01*
X59370680Y-104583291D01*
X59628500Y-103960858D01*
X59628500Y-103287142D01*
X59370680Y-102664709D01*
X58894291Y-102188320D01*
X58271858Y-101930500D01*
X57598142Y-101930500D01*
X56975709Y-102188320D01*
X56499320Y-102664709D01*
X56241500Y-103287142D01*
X56146000Y-103287142D01*
X56146000Y-99665927D01*
X56241500Y-99570427D01*
X56241500Y-99960858D01*
X56499320Y-100583291D01*
X56975709Y-101059680D01*
X57598142Y-101317500D01*
X58271858Y-101317500D01*
X58345148Y-101287142D01*
X60241500Y-101287142D01*
X60241500Y-101960858D01*
X60499320Y-102583291D01*
X60975709Y-103059680D01*
X61598142Y-103317500D01*
X62271858Y-103317500D01*
X62345148Y-103287142D01*
X64241500Y-103287142D01*
X64241500Y-103960858D01*
X64499320Y-104583291D01*
X64975709Y-105059680D01*
X65598142Y-105317500D01*
X66271858Y-105317500D01*
X66894291Y-105059680D01*
X67370680Y-104583291D01*
X67628500Y-103960858D01*
X67628500Y-103287142D01*
X67370680Y-102664709D01*
X66894291Y-102188320D01*
X66271858Y-101930500D01*
X65598142Y-101930500D01*
X64975709Y-102188320D01*
X64499320Y-102664709D01*
X64241500Y-103287142D01*
X62345148Y-103287142D01*
X62894291Y-103059680D01*
X63370680Y-102583291D01*
X63628500Y-101960858D01*
X63628500Y-101287142D01*
X63510595Y-101002493D01*
X64736112Y-101002493D01*
X64872997Y-101301787D01*
X65595898Y-101580484D01*
X66370425Y-101561324D01*
X66997003Y-101301787D01*
X67133888Y-101002493D01*
X65935000Y-99803605D01*
X64736112Y-101002493D01*
X63510595Y-101002493D01*
X63370680Y-100664709D01*
X62894291Y-100188320D01*
X62271858Y-99930500D01*
X61598142Y-99930500D01*
X60975709Y-100188320D01*
X60499320Y-100664709D01*
X60241500Y-101287142D01*
X58345148Y-101287142D01*
X58894291Y-101059680D01*
X59370680Y-100583291D01*
X59628500Y-99960858D01*
X59628500Y-99287142D01*
X59370680Y-98664709D01*
X58941859Y-98235888D01*
X59023281Y-98181483D01*
X59050116Y-98141322D01*
X59086438Y-98105000D01*
X60301206Y-98105000D01*
X60499320Y-98583291D01*
X60975709Y-99059680D01*
X61598142Y-99317500D01*
X62271858Y-99317500D01*
X62350566Y-99284898D01*
X63978516Y-99284898D01*
X63997676Y-100059425D01*
X64257213Y-100686003D01*
X64556507Y-100822888D01*
X65755395Y-99624000D01*
X66114605Y-99624000D01*
X67313493Y-100822888D01*
X67612787Y-100686003D01*
X67891484Y-99963102D01*
X67872324Y-99188575D01*
X67612787Y-98561997D01*
X67313493Y-98425112D01*
X66114605Y-99624000D01*
X65755395Y-99624000D01*
X64556507Y-98425112D01*
X64257213Y-98561997D01*
X63978516Y-99284898D01*
X62350566Y-99284898D01*
X62894291Y-99059680D01*
X63370680Y-98583291D01*
X63510594Y-98245507D01*
X64736112Y-98245507D01*
X65935000Y-99444395D01*
X67133888Y-98245507D01*
X66997003Y-97946213D01*
X66274102Y-97667516D01*
X65499575Y-97686676D01*
X64872997Y-97946213D01*
X64736112Y-98245507D01*
X63510594Y-98245507D01*
X63628500Y-97960858D01*
X63628500Y-97287142D01*
X63510595Y-97002493D01*
X64736112Y-97002493D01*
X64872997Y-97301787D01*
X65595898Y-97580484D01*
X66370425Y-97561324D01*
X66997003Y-97301787D01*
X67133888Y-97002493D01*
X65935000Y-95803605D01*
X64736112Y-97002493D01*
X63510595Y-97002493D01*
X63370680Y-96664709D01*
X62894291Y-96188320D01*
X62271858Y-95930500D01*
X61598142Y-95930500D01*
X60975709Y-96188320D01*
X60499320Y-96664709D01*
X60301206Y-97143000D01*
X59482738Y-97143000D01*
X60929124Y-95696615D01*
X60969282Y-95669782D01*
X60996115Y-95629624D01*
X60996117Y-95629622D01*
X61075593Y-95510678D01*
X61094449Y-95415879D01*
X61103501Y-95370373D01*
X61103501Y-95370370D01*
X61112923Y-95323001D01*
X61103501Y-95275632D01*
X61103501Y-95135735D01*
X61119851Y-95119385D01*
X61598142Y-95317500D01*
X62271858Y-95317500D01*
X62350566Y-95284898D01*
X63978516Y-95284898D01*
X63997676Y-96059425D01*
X64257213Y-96686003D01*
X64556507Y-96822888D01*
X65755395Y-95624000D01*
X66114605Y-95624000D01*
X67313493Y-96822888D01*
X67612787Y-96686003D01*
X67891484Y-95963102D01*
X67872324Y-95188575D01*
X67612787Y-94561997D01*
X67313493Y-94425112D01*
X66114605Y-95624000D01*
X65755395Y-95624000D01*
X64556507Y-94425112D01*
X64257213Y-94561997D01*
X63978516Y-95284898D01*
X62350566Y-95284898D01*
X62894291Y-95059680D01*
X63370680Y-94583291D01*
X63510594Y-94245507D01*
X64736112Y-94245507D01*
X65935000Y-95444395D01*
X67133888Y-94245507D01*
X66997003Y-93946213D01*
X66274102Y-93667516D01*
X65499575Y-93686676D01*
X64872997Y-93946213D01*
X64736112Y-94245507D01*
X63510594Y-94245507D01*
X63628500Y-93960858D01*
X63628500Y-93287142D01*
X63510595Y-93002493D01*
X64736112Y-93002493D01*
X64872997Y-93301787D01*
X65595898Y-93580484D01*
X66370425Y-93561324D01*
X66997003Y-93301787D01*
X67133888Y-93002493D01*
X65935000Y-91803605D01*
X64736112Y-93002493D01*
X63510595Y-93002493D01*
X63370680Y-92664709D01*
X62894291Y-92188320D01*
X62271858Y-91930500D01*
X61598142Y-91930500D01*
X60975709Y-92188320D01*
X60499320Y-92664709D01*
X60241500Y-93287142D01*
X60241500Y-93960858D01*
X60439615Y-94439149D01*
X60315881Y-94562883D01*
X60275720Y-94589718D01*
X60169409Y-94748823D01*
X60141501Y-94889127D01*
X60141501Y-94889130D01*
X60132079Y-94936499D01*
X60141501Y-94983868D01*
X60141501Y-95123764D01*
X59628500Y-95636765D01*
X59628500Y-95287142D01*
X59370680Y-94664709D01*
X58894291Y-94188320D01*
X58271858Y-93930500D01*
X57598142Y-93930500D01*
X56975709Y-94188320D01*
X56499320Y-94664709D01*
X56322910Y-95090600D01*
X56131370Y-95090600D01*
X56078844Y-95080152D01*
X56026318Y-95090600D01*
X56026314Y-95090600D01*
X55870723Y-95121549D01*
X55694286Y-95239441D01*
X55664529Y-95283975D01*
X54394274Y-96554231D01*
X54306139Y-96686134D01*
X54264741Y-96894256D01*
X52891000Y-96894256D01*
X52891000Y-91287142D01*
X56241500Y-91287142D01*
X56241500Y-91960858D01*
X56499320Y-92583291D01*
X56975709Y-93059680D01*
X57598142Y-93317500D01*
X58271858Y-93317500D01*
X58894291Y-93059680D01*
X59370680Y-92583291D01*
X59628500Y-91960858D01*
X59628500Y-91287142D01*
X59510595Y-91002493D01*
X60736112Y-91002493D01*
X60872997Y-91301787D01*
X61595898Y-91580484D01*
X62370425Y-91561324D01*
X62997003Y-91301787D01*
X63004727Y-91284898D01*
X63978516Y-91284898D01*
X63997676Y-92059425D01*
X64257213Y-92686003D01*
X64556507Y-92822888D01*
X65755395Y-91624000D01*
X64556507Y-90425112D01*
X64257213Y-90561997D01*
X63978516Y-91284898D01*
X63004727Y-91284898D01*
X63133888Y-91002493D01*
X61935000Y-89803605D01*
X60736112Y-91002493D01*
X59510595Y-91002493D01*
X59370680Y-90664709D01*
X58894291Y-90188320D01*
X58271858Y-89930500D01*
X57598142Y-89930500D01*
X56975709Y-90188320D01*
X56499320Y-90664709D01*
X56241500Y-91287142D01*
X52891000Y-91287142D01*
X52891000Y-87287142D01*
X56241500Y-87287142D01*
X56241500Y-87960858D01*
X56499320Y-88583291D01*
X56975709Y-89059680D01*
X57598142Y-89317500D01*
X58271858Y-89317500D01*
X58350566Y-89284898D01*
X59978516Y-89284898D01*
X59997676Y-90059425D01*
X60257213Y-90686003D01*
X60556507Y-90822888D01*
X61755395Y-89624000D01*
X60556507Y-88425112D01*
X60257213Y-88561997D01*
X59978516Y-89284898D01*
X58350566Y-89284898D01*
X58894291Y-89059680D01*
X59370680Y-88583291D01*
X59628500Y-87960858D01*
X59628500Y-87287142D01*
X59370680Y-86664709D01*
X58894291Y-86188320D01*
X58271858Y-85930500D01*
X57598142Y-85930500D01*
X56975709Y-86188320D01*
X56499320Y-86664709D01*
X56241500Y-87287142D01*
X52891000Y-87287142D01*
X52891000Y-83287142D01*
X56241500Y-83287142D01*
X56241500Y-83960858D01*
X56499320Y-84583291D01*
X56975709Y-85059680D01*
X57598142Y-85317500D01*
X58271858Y-85317500D01*
X58894291Y-85059680D01*
X59370680Y-84583291D01*
X59628500Y-83960858D01*
X59628500Y-83287142D01*
X59370680Y-82664709D01*
X58894291Y-82188320D01*
X58271858Y-81930500D01*
X57598142Y-81930500D01*
X56975709Y-82188320D01*
X56499320Y-82664709D01*
X56241500Y-83287142D01*
X52891000Y-83287142D01*
X52891000Y-79287142D01*
X56241500Y-79287142D01*
X56241500Y-79960858D01*
X56499320Y-80583291D01*
X56975709Y-81059680D01*
X57598142Y-81317500D01*
X58271858Y-81317500D01*
X58345148Y-81287142D01*
X60241500Y-81287142D01*
X60241500Y-81960858D01*
X60499320Y-82583291D01*
X60975709Y-83059680D01*
X61598142Y-83317500D01*
X62271858Y-83317500D01*
X62894291Y-83059680D01*
X63370680Y-82583291D01*
X63628500Y-81960858D01*
X63628500Y-81287142D01*
X63370680Y-80664709D01*
X62894291Y-80188320D01*
X62271858Y-79930500D01*
X61598142Y-79930500D01*
X60975709Y-80188320D01*
X60499320Y-80664709D01*
X60241500Y-81287142D01*
X58345148Y-81287142D01*
X58894291Y-81059680D01*
X59370680Y-80583291D01*
X59628500Y-79960858D01*
X59628500Y-79287142D01*
X64241500Y-79287142D01*
X64241500Y-79960858D01*
X64499320Y-80583291D01*
X64975709Y-81059680D01*
X65598142Y-81317500D01*
X66271858Y-81317500D01*
X66894291Y-81059680D01*
X67370680Y-80583291D01*
X67628500Y-79960858D01*
X67628500Y-79287142D01*
X67370680Y-78664709D01*
X66894291Y-78188320D01*
X66271858Y-77930500D01*
X65598142Y-77930500D01*
X64975709Y-78188320D01*
X64499320Y-78664709D01*
X64241500Y-79287142D01*
X59628500Y-79287142D01*
X59370680Y-78664709D01*
X58894291Y-78188320D01*
X58271858Y-77930500D01*
X57598142Y-77930500D01*
X56975709Y-78188320D01*
X56499320Y-78664709D01*
X56241500Y-79287142D01*
X52891000Y-79287142D01*
X52891000Y-72764764D01*
X59629000Y-72764764D01*
X59629000Y-73483236D01*
X59903947Y-74147017D01*
X60411983Y-74655053D01*
X61075764Y-74930000D01*
X61794236Y-74930000D01*
X62458017Y-74655053D01*
X62966053Y-74147017D01*
X63241000Y-73483236D01*
X63241000Y-72764764D01*
X62966053Y-72100983D01*
X62458017Y-71592947D01*
X61794236Y-71318000D01*
X61075764Y-71318000D01*
X60411983Y-71592947D01*
X59903947Y-72100983D01*
X59629000Y-72764764D01*
X52891000Y-72764764D01*
X52891000Y-60647104D01*
X52965684Y-59911852D01*
X53179741Y-59228794D01*
X53526774Y-58602730D01*
X53992605Y-58059236D01*
X54558208Y-57620509D01*
X55200482Y-57304471D01*
X55898616Y-57122620D01*
X56469304Y-57078708D01*
X57198812Y-57025137D01*
X57209436Y-57023397D01*
X57220198Y-57023059D01*
X57271866Y-57013763D01*
X58136249Y-56806243D01*
X58149854Y-56801664D01*
X58163880Y-56798683D01*
X58213075Y-56780388D01*
X58213086Y-56780384D01*
X58213090Y-56780382D01*
X59027056Y-56423075D01*
X59039629Y-56416163D01*
X59052912Y-56410742D01*
X59098099Y-56384019D01*
X59835933Y-55888216D01*
X59847080Y-55879189D01*
X59859198Y-55871499D01*
X59898938Y-55837195D01*
X60537311Y-55218568D01*
X60546684Y-55207710D01*
X60557247Y-55197996D01*
X60590285Y-55157198D01*
X61109020Y-54435302D01*
X61116324Y-54422951D01*
X61124998Y-54411524D01*
X61150289Y-54365520D01*
X61532989Y-53563173D01*
X61537991Y-53549722D01*
X61544503Y-53536942D01*
X61561248Y-53487186D01*
X61795816Y-52629751D01*
X61798356Y-52615633D01*
X61802504Y-52601895D01*
X61810173Y-52549960D01*
X61887018Y-51688927D01*
X61891000Y-51668909D01*
X61891000Y-48192891D01*
X62504000Y-48192891D01*
X62504000Y-50055109D01*
X63216640Y-51775573D01*
X64533427Y-53092360D01*
X66253891Y-53805000D01*
X68116109Y-53805000D01*
X69836573Y-53092360D01*
X71153360Y-51775573D01*
X71866000Y-50055109D01*
X71866000Y-48192891D01*
X71380459Y-47020691D01*
X97382000Y-47020691D01*
X97382000Y-47298750D01*
X97540750Y-47457500D01*
X98365000Y-47457500D01*
X98365000Y-46670750D01*
X98619000Y-46670750D01*
X98619000Y-47457500D01*
X99443250Y-47457500D01*
X99602000Y-47298750D01*
X99602000Y-47020691D01*
X99505327Y-46787302D01*
X99326699Y-46608673D01*
X99093310Y-46512000D01*
X98777750Y-46512000D01*
X98619000Y-46670750D01*
X98365000Y-46670750D01*
X98206250Y-46512000D01*
X97890690Y-46512000D01*
X97657301Y-46608673D01*
X97478673Y-46787302D01*
X97382000Y-47020691D01*
X71380459Y-47020691D01*
X71237192Y-46674815D01*
X92432682Y-46674815D01*
X92555344Y-46889000D01*
X94048000Y-46889000D01*
X94048000Y-45631000D01*
X94302000Y-45631000D01*
X94302000Y-46889000D01*
X95794656Y-46889000D01*
X95917318Y-46674815D01*
X95903173Y-46603316D01*
X95644145Y-46126460D01*
X95222349Y-45785028D01*
X94702000Y-45631000D01*
X94302000Y-45631000D01*
X94048000Y-45631000D01*
X93648000Y-45631000D01*
X93127651Y-45785028D01*
X92705855Y-46126460D01*
X92446827Y-46603316D01*
X92432682Y-46674815D01*
X71237192Y-46674815D01*
X71153360Y-46472427D01*
X69836573Y-45155640D01*
X68195778Y-44476000D01*
X92621843Y-44476000D01*
X92709622Y-44917294D01*
X92959595Y-45291405D01*
X93333706Y-45541378D01*
X93663609Y-45607000D01*
X94686391Y-45607000D01*
X95016294Y-45541378D01*
X95390405Y-45291405D01*
X95640378Y-44917294D01*
X95728157Y-44476000D01*
X95640378Y-44034706D01*
X95390405Y-43660595D01*
X95016294Y-43410622D01*
X94686391Y-43345000D01*
X93663609Y-43345000D01*
X93333706Y-43410622D01*
X92959595Y-43660595D01*
X92709622Y-44034706D01*
X92621843Y-44476000D01*
X68195778Y-44476000D01*
X68116109Y-44443000D01*
X66253891Y-44443000D01*
X64533427Y-45155640D01*
X63216640Y-46472427D01*
X62504000Y-48192891D01*
X61891000Y-48192891D01*
X61891000Y-42150491D01*
X61962238Y-41539465D01*
X62163034Y-40986283D01*
X62485704Y-40494131D01*
X62912936Y-40089411D01*
X63421817Y-39793831D01*
X63991015Y-39621437D01*
X64455311Y-39580000D01*
X148463000Y-39580000D01*
X148463000Y-54864000D01*
G04 #@! TO.N,Net-(C2-Pad1)*
G36*
X143831000Y-60890734D02*
X135144040Y-69200000D01*
X125543000Y-69200000D01*
X125543000Y-67568719D01*
X128204022Y-59205507D01*
X128210000Y-59167000D01*
X128210000Y-55611000D01*
X129988000Y-55611000D01*
X130036601Y-55601333D01*
X130063103Y-55586413D01*
X131934575Y-54214000D01*
X143831000Y-54214000D01*
X143831000Y-60890734D01*
X143831000Y-60890734D01*
G37*
X143831000Y-60890734D02*
X135144040Y-69200000D01*
X125543000Y-69200000D01*
X125543000Y-67568719D01*
X128204022Y-59205507D01*
X128210000Y-59167000D01*
X128210000Y-55611000D01*
X129988000Y-55611000D01*
X130036601Y-55601333D01*
X130063103Y-55586413D01*
X131934575Y-54214000D01*
X143831000Y-54214000D01*
X143831000Y-60890734D01*
G04 #@! TD*
M02*
