G04 #@! TF.GenerationSoftware,KiCad,Pcbnew,(5.0.2)-1*
G04 #@! TF.CreationDate,2019-04-03T20:13:24-04:00*
G04 #@! TF.ProjectId,interface-board,696e7465-7266-4616-9365-2d626f617264,rev?*
G04 #@! TF.SameCoordinates,Original*
G04 #@! TF.FileFunction,Legend,Bot*
G04 #@! TF.FilePolarity,Positive*
%FSLAX46Y46*%
G04 Gerber Fmt 4.6, Leading zero omitted, Abs format (unit mm)*
G04 Created by KiCad (PCBNEW (5.0.2)-1) date 4/3/2019 8:13:24 PM*
%MOMM*%
%LPD*%
G01*
G04 APERTURE LIST*
%ADD10C,0.300000*%
%ADD11C,0.500000*%
%ADD12C,1.000000*%
%ADD13C,0.120000*%
%ADD14C,0.200000*%
%ADD15C,0.010000*%
%ADD16C,0.127000*%
%ADD17C,0.150000*%
G04 APERTURE END LIST*
D10*
X115079119Y-44241548D02*
X113936262Y-44241548D01*
X112079119Y-44241548D02*
X110936262Y-44241548D01*
X109079119Y-44241548D02*
X107936262Y-44241548D01*
X108507691Y-43670119D02*
X108507691Y-44812976D01*
X106079119Y-44241548D02*
X104936262Y-44241548D01*
X105507691Y-43670119D02*
X105507691Y-44812976D01*
D11*
X192535000Y-98624285D02*
X190249285Y-98624285D01*
X188820714Y-99767142D02*
X188820714Y-96767142D01*
X188820714Y-98195714D02*
X187106428Y-98195714D01*
X187106428Y-99767142D02*
X187106428Y-96767142D01*
X186106428Y-96767142D02*
X185106428Y-99767142D01*
X184106428Y-96767142D01*
X208410000Y-109419285D02*
X206124285Y-109419285D01*
X207267142Y-110562142D02*
X207267142Y-108276428D01*
X204695714Y-110562142D02*
X204695714Y-107562142D01*
X204695714Y-108990714D02*
X202981428Y-108990714D01*
X202981428Y-110562142D02*
X202981428Y-107562142D01*
X201981428Y-107562142D02*
X200981428Y-110562142D01*
X199981428Y-107562142D01*
D12*
X182469000Y-53780000D02*
X182469000Y-39048000D01*
D11*
X166389501Y-100174514D02*
X166474518Y-99866597D01*
X166761288Y-99548106D01*
X167154222Y-99325206D01*
X167557729Y-99304059D01*
X167865646Y-99389075D01*
X168385891Y-99665272D01*
X168704381Y-99952042D01*
X169033445Y-100440566D01*
X169150182Y-100737910D01*
X169171329Y-101141417D01*
X168990723Y-101555498D01*
X168799542Y-101767825D01*
X168406609Y-101990726D01*
X168204855Y-102001299D01*
X167461710Y-101332169D01*
X167844071Y-100907514D01*
X166600970Y-104209587D02*
X167556871Y-103147951D01*
X165327437Y-101140559D01*
X163989176Y-102626849D02*
X165549480Y-105377386D01*
X162650914Y-104113139D01*
X171241733Y-102044451D02*
X170094652Y-103318413D01*
X172897627Y-104688824D02*
X170668192Y-102681432D01*
X171644382Y-105867196D02*
X171463776Y-106281277D01*
X170985825Y-106812095D01*
X170688481Y-106928832D01*
X170486728Y-106939405D01*
X170178811Y-106854389D01*
X169966483Y-106663209D01*
X169849746Y-106365865D01*
X169839173Y-106164111D01*
X169924190Y-105856194D01*
X170200386Y-105335950D01*
X170285403Y-105028033D01*
X170274830Y-104826279D01*
X170158093Y-104528935D01*
X169945766Y-104337755D01*
X169637848Y-104252738D01*
X169436095Y-104263312D01*
X169138751Y-104380049D01*
X168660801Y-104910867D01*
X168480194Y-105324947D01*
X167800490Y-105866339D02*
X169360794Y-108616875D01*
X166462229Y-107352628D01*
X178626000Y-44445714D02*
X178483142Y-44160000D01*
X178483142Y-43731428D01*
X178626000Y-43302857D01*
X178911714Y-43017142D01*
X179197428Y-42874285D01*
X179768857Y-42731428D01*
X180197428Y-42731428D01*
X180768857Y-42874285D01*
X181054571Y-43017142D01*
X181340285Y-43302857D01*
X181483142Y-43731428D01*
X181483142Y-44017142D01*
X181340285Y-44445714D01*
X181197428Y-44588571D01*
X180197428Y-44588571D01*
X180197428Y-44017142D01*
X181483142Y-47302857D02*
X181483142Y-45874285D01*
X178483142Y-45874285D01*
X178483142Y-47874285D02*
X181483142Y-48874285D01*
X178483142Y-49874285D01*
X183483142Y-42588571D02*
X183483142Y-44302857D01*
X186483142Y-43445714D02*
X183483142Y-43445714D01*
X186340285Y-45160000D02*
X186483142Y-45588571D01*
X186483142Y-46302857D01*
X186340285Y-46588571D01*
X186197428Y-46731428D01*
X185911714Y-46874285D01*
X185626000Y-46874285D01*
X185340285Y-46731428D01*
X185197428Y-46588571D01*
X185054571Y-46302857D01*
X184911714Y-45731428D01*
X184768857Y-45445714D01*
X184626000Y-45302857D01*
X184340285Y-45160000D01*
X184054571Y-45160000D01*
X183768857Y-45302857D01*
X183626000Y-45445714D01*
X183483142Y-45731428D01*
X183483142Y-46445714D01*
X183626000Y-46874285D01*
X183483142Y-47731428D02*
X186483142Y-48731428D01*
X183483142Y-49731428D01*
X178626000Y-80259714D02*
X178483142Y-79974000D01*
X178483142Y-79545428D01*
X178626000Y-79116857D01*
X178911714Y-78831142D01*
X179197428Y-78688285D01*
X179768857Y-78545428D01*
X180197428Y-78545428D01*
X180768857Y-78688285D01*
X181054571Y-78831142D01*
X181340285Y-79116857D01*
X181483142Y-79545428D01*
X181483142Y-79831142D01*
X181340285Y-80259714D01*
X181197428Y-80402571D01*
X180197428Y-80402571D01*
X180197428Y-79831142D01*
X181483142Y-83116857D02*
X181483142Y-81688285D01*
X178483142Y-81688285D01*
X178483142Y-83688285D02*
X181483142Y-84688285D01*
X178483142Y-85688285D01*
X183483142Y-78402571D02*
X183483142Y-80116857D01*
X186483142Y-79259714D02*
X183483142Y-79259714D01*
X186340285Y-80974000D02*
X186483142Y-81402571D01*
X186483142Y-82116857D01*
X186340285Y-82402571D01*
X186197428Y-82545428D01*
X185911714Y-82688285D01*
X185626000Y-82688285D01*
X185340285Y-82545428D01*
X185197428Y-82402571D01*
X185054571Y-82116857D01*
X184911714Y-81545428D01*
X184768857Y-81259714D01*
X184626000Y-81116857D01*
X184340285Y-80974000D01*
X184054571Y-80974000D01*
X183768857Y-81116857D01*
X183626000Y-81259714D01*
X183483142Y-81545428D01*
X183483142Y-82259714D01*
X183626000Y-82688285D01*
X183483142Y-83545428D02*
X186483142Y-84545428D01*
X183483142Y-85545428D01*
X159165000Y-136139714D02*
X159022142Y-135854000D01*
X159022142Y-135425428D01*
X159165000Y-134996857D01*
X159450714Y-134711142D01*
X159736428Y-134568285D01*
X160307857Y-134425428D01*
X160736428Y-134425428D01*
X161307857Y-134568285D01*
X161593571Y-134711142D01*
X161879285Y-134996857D01*
X162022142Y-135425428D01*
X162022142Y-135711142D01*
X161879285Y-136139714D01*
X161736428Y-136282571D01*
X160736428Y-136282571D01*
X160736428Y-135711142D01*
X162022142Y-138996857D02*
X162022142Y-137568285D01*
X159022142Y-137568285D01*
X159022142Y-139568285D02*
X162022142Y-140568285D01*
X159022142Y-141568285D01*
X164022142Y-134282571D02*
X164022142Y-135996857D01*
X167022142Y-135139714D02*
X164022142Y-135139714D01*
X166879285Y-136854000D02*
X167022142Y-137282571D01*
X167022142Y-137996857D01*
X166879285Y-138282571D01*
X166736428Y-138425428D01*
X166450714Y-138568285D01*
X166165000Y-138568285D01*
X165879285Y-138425428D01*
X165736428Y-138282571D01*
X165593571Y-137996857D01*
X165450714Y-137425428D01*
X165307857Y-137139714D01*
X165165000Y-136996857D01*
X164879285Y-136854000D01*
X164593571Y-136854000D01*
X164307857Y-136996857D01*
X164165000Y-137139714D01*
X164022142Y-137425428D01*
X164022142Y-138139714D01*
X164165000Y-138568285D01*
X164022142Y-139425428D02*
X167022142Y-140425428D01*
X164022142Y-141425428D01*
D12*
X182469000Y-87816000D02*
X182469000Y-74354000D01*
X163165000Y-109279000D02*
X182215000Y-88070000D01*
X163165000Y-149284000D02*
X163165000Y-109279000D01*
D10*
X112011691Y-41955548D02*
X112511691Y-41955548D01*
X112511691Y-42741262D02*
X112511691Y-41241262D01*
X111797405Y-41241262D01*
X110583119Y-42741262D02*
X110583119Y-41955548D01*
X110654548Y-41812691D01*
X110797405Y-41741262D01*
X111083119Y-41741262D01*
X111225976Y-41812691D01*
X110583119Y-42669833D02*
X110725976Y-42741262D01*
X111083119Y-42741262D01*
X111225976Y-42669833D01*
X111297405Y-42526976D01*
X111297405Y-42384119D01*
X111225976Y-42241262D01*
X111083119Y-42169833D01*
X110725976Y-42169833D01*
X110583119Y-42098405D01*
X109868833Y-41741262D02*
X109868833Y-42741262D01*
X109868833Y-41884119D02*
X109797405Y-41812691D01*
X109654548Y-41741262D01*
X109440262Y-41741262D01*
X109297405Y-41812691D01*
X109225976Y-41955548D01*
X109225976Y-42741262D01*
X108583119Y-42669833D02*
X108440262Y-42741262D01*
X108154548Y-42741262D01*
X108011691Y-42669833D01*
X107940262Y-42526976D01*
X107940262Y-42455548D01*
X108011691Y-42312691D01*
X108154548Y-42241262D01*
X108368833Y-42241262D01*
X108511691Y-42169833D01*
X108583119Y-42026976D01*
X108583119Y-41955548D01*
X108511691Y-41812691D01*
X108368833Y-41741262D01*
X108154548Y-41741262D01*
X108011691Y-41812691D01*
X140032428Y-111268571D02*
X139961000Y-111340000D01*
X139889571Y-111482857D01*
X139889571Y-111840000D01*
X139961000Y-111982857D01*
X140032428Y-112054285D01*
X140175285Y-112125714D01*
X140318142Y-112125714D01*
X140532428Y-112054285D01*
X141389571Y-111197142D01*
X141389571Y-112125714D01*
X141389571Y-114697142D02*
X141389571Y-113840000D01*
X141389571Y-114268571D02*
X139889571Y-114268571D01*
X140103857Y-114125714D01*
X140246714Y-113982857D01*
X140318142Y-113840000D01*
X139889571Y-117197142D02*
X139889571Y-116482857D01*
X140603857Y-116411428D01*
X140532428Y-116482857D01*
X140461000Y-116625714D01*
X140461000Y-116982857D01*
X140532428Y-117125714D01*
X140603857Y-117197142D01*
X140746714Y-117268571D01*
X141103857Y-117268571D01*
X141246714Y-117197142D01*
X141318142Y-117125714D01*
X141389571Y-116982857D01*
X141389571Y-116625714D01*
X141318142Y-116482857D01*
X141246714Y-116411428D01*
X139889571Y-117697142D02*
X141389571Y-118197142D01*
X139889571Y-118697142D01*
X139889571Y-121054285D02*
X139889571Y-120340000D01*
X140603857Y-120268571D01*
X140532428Y-120340000D01*
X140461000Y-120482857D01*
X140461000Y-120840000D01*
X140532428Y-120982857D01*
X140603857Y-121054285D01*
X140746714Y-121125714D01*
X141103857Y-121125714D01*
X141246714Y-121054285D01*
X141318142Y-120982857D01*
X141389571Y-120840000D01*
X141389571Y-120482857D01*
X141318142Y-120340000D01*
X141246714Y-120268571D01*
X139889571Y-121554285D02*
X141389571Y-122054285D01*
X139889571Y-122554285D01*
X142439571Y-111090000D02*
X142439571Y-111947142D01*
X143939571Y-111518571D02*
X142439571Y-111518571D01*
X143939571Y-112447142D02*
X142439571Y-112447142D01*
X143939571Y-113090000D02*
X143153857Y-113090000D01*
X143011000Y-113018571D01*
X142939571Y-112875714D01*
X142939571Y-112661428D01*
X143011000Y-112518571D01*
X143082428Y-112447142D01*
X143868142Y-114375714D02*
X143939571Y-114232857D01*
X143939571Y-113947142D01*
X143868142Y-113804285D01*
X143725285Y-113732857D01*
X143153857Y-113732857D01*
X143011000Y-113804285D01*
X142939571Y-113947142D01*
X142939571Y-114232857D01*
X143011000Y-114375714D01*
X143153857Y-114447142D01*
X143296714Y-114447142D01*
X143439571Y-113732857D01*
X143939571Y-115090000D02*
X142939571Y-115090000D01*
X143225285Y-115090000D02*
X143082428Y-115161428D01*
X143011000Y-115232857D01*
X142939571Y-115375714D01*
X142939571Y-115518571D01*
X143939571Y-116018571D02*
X142939571Y-116018571D01*
X143082428Y-116018571D02*
X143011000Y-116090000D01*
X142939571Y-116232857D01*
X142939571Y-116447142D01*
X143011000Y-116590000D01*
X143153857Y-116661428D01*
X143939571Y-116661428D01*
X143153857Y-116661428D02*
X143011000Y-116732857D01*
X142939571Y-116875714D01*
X142939571Y-117090000D01*
X143011000Y-117232857D01*
X143153857Y-117304285D01*
X143939571Y-117304285D01*
X143939571Y-118018571D02*
X142939571Y-118018571D01*
X142439571Y-118018571D02*
X142511000Y-117947142D01*
X142582428Y-118018571D01*
X142511000Y-118090000D01*
X142439571Y-118018571D01*
X142582428Y-118018571D01*
X143868142Y-118661428D02*
X143939571Y-118804285D01*
X143939571Y-119090000D01*
X143868142Y-119232857D01*
X143725285Y-119304285D01*
X143653857Y-119304285D01*
X143511000Y-119232857D01*
X143439571Y-119090000D01*
X143439571Y-118875714D01*
X143368142Y-118732857D01*
X143225285Y-118661428D01*
X143153857Y-118661428D01*
X143011000Y-118732857D01*
X142939571Y-118875714D01*
X142939571Y-119090000D01*
X143011000Y-119232857D01*
X142939571Y-119732857D02*
X142939571Y-120304285D01*
X142439571Y-119947142D02*
X143725285Y-119947142D01*
X143868142Y-120018571D01*
X143939571Y-120161428D01*
X143939571Y-120304285D01*
X143939571Y-121018571D02*
X143868142Y-120875714D01*
X143796714Y-120804285D01*
X143653857Y-120732857D01*
X143225285Y-120732857D01*
X143082428Y-120804285D01*
X143011000Y-120875714D01*
X142939571Y-121018571D01*
X142939571Y-121232857D01*
X143011000Y-121375714D01*
X143082428Y-121447142D01*
X143225285Y-121518571D01*
X143653857Y-121518571D01*
X143796714Y-121447142D01*
X143868142Y-121375714D01*
X143939571Y-121232857D01*
X143939571Y-121018571D01*
X143939571Y-122161428D02*
X142939571Y-122161428D01*
X143225285Y-122161428D02*
X143082428Y-122232857D01*
X143011000Y-122304285D01*
X142939571Y-122447142D01*
X142939571Y-122590000D01*
X101220142Y-138024571D02*
X101220142Y-136524571D01*
X100505857Y-138024571D02*
X100505857Y-136524571D01*
X100005857Y-137596000D01*
X99505857Y-136524571D01*
X99505857Y-138024571D01*
X98791571Y-138024571D02*
X98791571Y-136524571D01*
X98434428Y-136524571D01*
X98220142Y-136596000D01*
X98077285Y-136738857D01*
X98005857Y-136881714D01*
X97934428Y-137167428D01*
X97934428Y-137381714D01*
X98005857Y-137667428D01*
X98077285Y-137810285D01*
X98220142Y-137953142D01*
X98434428Y-138024571D01*
X98791571Y-138024571D01*
X95291571Y-137881714D02*
X95363000Y-137953142D01*
X95577285Y-138024571D01*
X95720142Y-138024571D01*
X95934428Y-137953142D01*
X96077285Y-137810285D01*
X96148714Y-137667428D01*
X96220142Y-137381714D01*
X96220142Y-137167428D01*
X96148714Y-136881714D01*
X96077285Y-136738857D01*
X95934428Y-136596000D01*
X95720142Y-136524571D01*
X95577285Y-136524571D01*
X95363000Y-136596000D01*
X95291571Y-136667428D01*
X94863000Y-136524571D02*
X94005857Y-136524571D01*
X94434428Y-138024571D02*
X94434428Y-136524571D01*
X92648714Y-138024571D02*
X93148714Y-137310285D01*
X93505857Y-138024571D02*
X93505857Y-136524571D01*
X92934428Y-136524571D01*
X92791571Y-136596000D01*
X92720142Y-136667428D01*
X92648714Y-136810285D01*
X92648714Y-137024571D01*
X92720142Y-137167428D01*
X92791571Y-137238857D01*
X92934428Y-137310285D01*
X93505857Y-137310285D01*
X91291571Y-138024571D02*
X92005857Y-138024571D01*
X92005857Y-136524571D01*
X83694428Y-138024571D02*
X83694428Y-136524571D01*
X83694428Y-137238857D02*
X82837285Y-137238857D01*
X82837285Y-138024571D02*
X82837285Y-136524571D01*
X82123000Y-137238857D02*
X81623000Y-137238857D01*
X81408714Y-138024571D02*
X82123000Y-138024571D01*
X82123000Y-136524571D01*
X81408714Y-136524571D01*
X79908714Y-137881714D02*
X79980142Y-137953142D01*
X80194428Y-138024571D01*
X80337285Y-138024571D01*
X80551571Y-137953142D01*
X80694428Y-137810285D01*
X80765857Y-137667428D01*
X80837285Y-137381714D01*
X80837285Y-137167428D01*
X80765857Y-136881714D01*
X80694428Y-136738857D01*
X80551571Y-136596000D01*
X80337285Y-136524571D01*
X80194428Y-136524571D01*
X79980142Y-136596000D01*
X79908714Y-136667428D01*
X79337285Y-137953142D02*
X79123000Y-138024571D01*
X78765857Y-138024571D01*
X78623000Y-137953142D01*
X78551571Y-137881714D01*
X78480142Y-137738857D01*
X78480142Y-137596000D01*
X78551571Y-137453142D01*
X78623000Y-137381714D01*
X78765857Y-137310285D01*
X79051571Y-137238857D01*
X79194428Y-137167428D01*
X79265857Y-137096000D01*
X79337285Y-136953142D01*
X79337285Y-136810285D01*
X79265857Y-136667428D01*
X79194428Y-136596000D01*
X79051571Y-136524571D01*
X78694428Y-136524571D01*
X78480142Y-136596000D01*
D13*
G04 #@! TO.C,J2*
X115161691Y-45540691D02*
X115161691Y-46790691D01*
X113911691Y-45540691D02*
X115161691Y-45540691D01*
X107801691Y-49950691D02*
X107801691Y-49450691D01*
X107701691Y-49450691D02*
X107701691Y-49950691D01*
X107901691Y-49450691D02*
X107701691Y-49450691D01*
X107901691Y-49950691D02*
X107901691Y-49450691D01*
X109801691Y-49950691D02*
X109801691Y-49450691D01*
X109701691Y-49450691D02*
X109701691Y-49950691D01*
X109901691Y-49450691D02*
X109701691Y-49450691D01*
X109901691Y-49950691D02*
X109901691Y-49450691D01*
X111801691Y-49950691D02*
X111801691Y-49450691D01*
X111701691Y-49450691D02*
X111701691Y-49950691D01*
X111901691Y-49450691D02*
X111701691Y-49450691D01*
X111901691Y-49950691D02*
X111901691Y-49450691D01*
X104741691Y-48450691D02*
X105351691Y-48450691D01*
X104741691Y-47150691D02*
X105351691Y-47150691D01*
X114861691Y-48450691D02*
X114251691Y-48450691D01*
X114861691Y-47150691D02*
X114251691Y-47150691D01*
X107301691Y-46450691D02*
X107301691Y-45840691D01*
X105351691Y-46450691D02*
X107301691Y-46450691D01*
X105351691Y-49950691D02*
X105351691Y-46450691D01*
X114251691Y-49950691D02*
X105351691Y-49950691D01*
X114251691Y-46450691D02*
X114251691Y-49950691D01*
X112301691Y-46450691D02*
X114251691Y-46450691D01*
X112301691Y-45840691D02*
X112301691Y-46450691D01*
X113101691Y-45740691D02*
X113401691Y-45740691D01*
X113401691Y-45640691D02*
X113401691Y-45840691D01*
X113101691Y-45640691D02*
X113401691Y-45640691D01*
X113101691Y-45840691D02*
X113101691Y-45640691D01*
X104741691Y-45840691D02*
X114861691Y-45840691D01*
X104741691Y-50560691D02*
X104741691Y-45840691D01*
X114861691Y-50560691D02*
X104741691Y-50560691D01*
X114861691Y-45840691D02*
X114861691Y-50560691D01*
G04 #@! TO.C,J3*
X134059691Y-111584691D02*
X135309691Y-111584691D01*
X134059691Y-112834691D02*
X134059691Y-111584691D01*
X138469691Y-118944691D02*
X137969691Y-118944691D01*
X137969691Y-119044691D02*
X138469691Y-119044691D01*
X137969691Y-118844691D02*
X137969691Y-119044691D01*
X138469691Y-118844691D02*
X137969691Y-118844691D01*
X138469691Y-116944691D02*
X137969691Y-116944691D01*
X137969691Y-117044691D02*
X138469691Y-117044691D01*
X137969691Y-116844691D02*
X137969691Y-117044691D01*
X138469691Y-116844691D02*
X137969691Y-116844691D01*
X138469691Y-114944691D02*
X137969691Y-114944691D01*
X137969691Y-115044691D02*
X138469691Y-115044691D01*
X137969691Y-114844691D02*
X137969691Y-115044691D01*
X138469691Y-114844691D02*
X137969691Y-114844691D01*
X136969691Y-122004691D02*
X136969691Y-121394691D01*
X135669691Y-122004691D02*
X135669691Y-121394691D01*
X136969691Y-111884691D02*
X136969691Y-112494691D01*
X135669691Y-111884691D02*
X135669691Y-112494691D01*
X134969691Y-119444691D02*
X134359691Y-119444691D01*
X134969691Y-121394691D02*
X134969691Y-119444691D01*
X138469691Y-121394691D02*
X134969691Y-121394691D01*
X138469691Y-112494691D02*
X138469691Y-121394691D01*
X134969691Y-112494691D02*
X138469691Y-112494691D01*
X134969691Y-114444691D02*
X134969691Y-112494691D01*
X134359691Y-114444691D02*
X134969691Y-114444691D01*
X134259691Y-113644691D02*
X134259691Y-113344691D01*
X134159691Y-113344691D02*
X134359691Y-113344691D01*
X134159691Y-113644691D02*
X134159691Y-113344691D01*
X134359691Y-113644691D02*
X134159691Y-113644691D01*
X134359691Y-122004691D02*
X134359691Y-111884691D01*
X139079691Y-122004691D02*
X134359691Y-122004691D01*
X139079691Y-111884691D02*
X139079691Y-122004691D01*
X134359691Y-111884691D02*
X139079691Y-111884691D01*
D14*
G04 #@! TO.C,U5*
X150633120Y-78763100D02*
X150626120Y-78759100D01*
X150617120Y-78757100D02*
X150609120Y-78754100D01*
X150609120Y-78754100D02*
X150600120Y-78754100D01*
X150626120Y-78759100D02*
X150617120Y-78757100D01*
X209499120Y-50486900D02*
X209874120Y-51349800D01*
X207152120Y-82390100D02*
X206289120Y-82765100D01*
X206793120Y-47963000D02*
X207616120Y-48417700D01*
X205377120Y-82995100D02*
X204435120Y-83072100D01*
X208355120Y-49000900D02*
X208988120Y-49696800D01*
X205906120Y-47648900D02*
X206793120Y-47963000D01*
X208988120Y-49696800D02*
X209499120Y-50486900D01*
X208638120Y-81246100D02*
X207942120Y-81879100D01*
X210181120Y-77328100D02*
X210155120Y-77869100D01*
X210104120Y-52262300D02*
X210181120Y-53204200D01*
X210155120Y-77869100D02*
X209990120Y-78797100D01*
X209676120Y-79684100D02*
X209221120Y-80507100D01*
X209874120Y-51349800D02*
X210104120Y-52262300D01*
X207616120Y-48417700D02*
X208355120Y-49000900D01*
X210181120Y-53204200D02*
X210181120Y-77328100D01*
X207942120Y-81879100D02*
X207152120Y-82390100D01*
X204435120Y-83072100D02*
X197826120Y-83072100D01*
X209990120Y-78797100D02*
X209676120Y-79684100D01*
X209221120Y-80507100D02*
X208638120Y-81246100D01*
X197826120Y-83072100D02*
X197800120Y-83077100D01*
X206289120Y-82765100D02*
X205377120Y-82995100D01*
X197800120Y-83077100D02*
X197770120Y-83094100D01*
X150662120Y-78783100D02*
X150656120Y-78776100D01*
X150656120Y-78776100D02*
X150649120Y-78772100D01*
X150649120Y-78772100D02*
X150642120Y-78766100D01*
X150642120Y-78766100D02*
X150633120Y-78763100D01*
X197735120Y-83190100D02*
X197747120Y-83223100D01*
X197747120Y-83121100D02*
X197735120Y-83154100D01*
X197760120Y-83238100D02*
X197760120Y-90692100D01*
X150691120Y-90692100D02*
X150691120Y-78845100D01*
X197747120Y-83223100D02*
X197760120Y-83238100D01*
X150691120Y-78845100D02*
X150691120Y-78836100D01*
X150691120Y-78836100D02*
X150688120Y-78828100D01*
X150691120Y-78845100D02*
X150691120Y-78845100D01*
X150679120Y-78803100D02*
X150673120Y-78796100D01*
X150673120Y-78796100D02*
X150669120Y-78789100D01*
X150682120Y-78812100D02*
X150679120Y-78803100D01*
X197760120Y-90692100D02*
X150691120Y-90692100D01*
X150688120Y-78828100D02*
X150686120Y-78819100D01*
X197735120Y-83154100D02*
X197735120Y-83190100D01*
X197770120Y-83094100D02*
X197747120Y-83121100D01*
X150686120Y-78819100D02*
X150682120Y-78812100D01*
X150669120Y-78789100D02*
X150662120Y-78783100D01*
X197747120Y-47307300D02*
X197735120Y-47340500D01*
X197747120Y-47408900D02*
X197770120Y-47435900D01*
X197770120Y-47435900D02*
X197800120Y-47453500D01*
X197800120Y-47453500D02*
X197826120Y-47458100D01*
X197826120Y-47458100D02*
X204437120Y-47458100D01*
X205949120Y-47453500D02*
X205006120Y-47285600D01*
X204437120Y-47458100D02*
X204978120Y-47483600D01*
X204978120Y-47483600D02*
X205906120Y-47648900D01*
X206880120Y-47782800D02*
X206874120Y-47780100D01*
X205962120Y-47456900D02*
X205956120Y-47455200D01*
X204999120Y-47284800D02*
X204993120Y-47284100D01*
X206874120Y-47780100D02*
X206867120Y-47777200D01*
X204993120Y-47284100D02*
X204450120Y-47258500D01*
X197910120Y-39804300D02*
X197923120Y-39788900D01*
X197935120Y-39720500D02*
X197923120Y-39687300D01*
X197935120Y-39755700D02*
X197935120Y-39720500D01*
X197870120Y-39642700D02*
X197844120Y-39638100D01*
X197844120Y-39638100D02*
X150582120Y-39638100D01*
X197735120Y-47340500D02*
X197735120Y-47375700D01*
X197735120Y-47375700D02*
X197747120Y-47408900D01*
X206867120Y-47777200D02*
X205965120Y-47457700D01*
X205006120Y-47285600D02*
X205004120Y-47285200D01*
X205956120Y-47455200D02*
X205949120Y-47453500D01*
X205004120Y-47285200D02*
X204999120Y-47284800D01*
X197923120Y-39687300D02*
X197900120Y-39660300D01*
X205965120Y-47457700D02*
X205962120Y-47456900D01*
X197900120Y-39660300D02*
X197870120Y-39642700D01*
X204448120Y-47258100D02*
X197910120Y-47258100D01*
X197910120Y-47258100D02*
X197910120Y-39804300D01*
X197923120Y-39788900D02*
X197935120Y-39755700D01*
X150582120Y-39638100D02*
X150582120Y-39638100D01*
X197760120Y-39838100D02*
X197760120Y-47291900D01*
X204450120Y-47258500D02*
X204448120Y-47258100D01*
X197760120Y-47291900D02*
X197747120Y-47307300D01*
X206346120Y-82957100D02*
X206348120Y-82957100D01*
X207254120Y-82563100D02*
X208058120Y-82043100D01*
X208071120Y-82033100D02*
X208779120Y-81388100D01*
X209385120Y-80623100D02*
X209389120Y-80617100D01*
X209389120Y-80617100D02*
X209392120Y-80611100D01*
X209392120Y-80611100D02*
X209855120Y-79773100D01*
X209855120Y-79773100D02*
X209856120Y-79771100D01*
X209856120Y-79771100D02*
X209859120Y-79764100D01*
X209859120Y-79764100D02*
X209862120Y-79758100D01*
X205418120Y-83191100D02*
X206346120Y-82957100D01*
X197870120Y-90887100D02*
X197900120Y-90870100D01*
X205404120Y-83193100D02*
X205411120Y-83192100D01*
X197923120Y-90843100D02*
X197935120Y-90810100D01*
X143976120Y-78954100D02*
X143978120Y-78954100D01*
X150526120Y-90870100D02*
X150533120Y-90874100D01*
X150549120Y-90883100D02*
X150556120Y-90887100D01*
X150582120Y-90892100D02*
X150582120Y-90892100D01*
X150565120Y-90889100D02*
X150573120Y-90892100D01*
X150582120Y-90892100D02*
X197844120Y-90892100D01*
X197900120Y-90870100D02*
X197923120Y-90843100D01*
X150491120Y-90810100D02*
X150494120Y-90818100D01*
X150533120Y-90874100D02*
X150540120Y-90880100D01*
X197935120Y-90810100D02*
X197935120Y-90774100D01*
X197910120Y-90726100D02*
X197910120Y-83272100D01*
X150573120Y-90892100D02*
X150582120Y-90892100D01*
X205411120Y-83192100D02*
X205418120Y-83191100D01*
X150491120Y-90801100D02*
X150491120Y-90810100D01*
X150491120Y-90801100D02*
X150491120Y-90801100D01*
X206348120Y-82957100D02*
X206355120Y-82954100D01*
X206355120Y-82954100D02*
X206362120Y-82952100D01*
X143978120Y-78954100D02*
X150491120Y-78954100D01*
X150500120Y-90834100D02*
X150503120Y-90843100D01*
X150509120Y-90850100D02*
X150513120Y-90857100D01*
X204448120Y-83272100D02*
X204452120Y-83271100D01*
X150491120Y-78954100D02*
X150491120Y-90801100D01*
X197935120Y-90774100D02*
X197923120Y-90741100D01*
X205401120Y-83193100D02*
X205404120Y-83193100D01*
X150494120Y-90818100D02*
X150496120Y-90827100D01*
X206362120Y-82952100D02*
X207240120Y-82570100D01*
X150513120Y-90857100D02*
X150520120Y-90863100D01*
X207240120Y-82570100D02*
X207242120Y-82569100D01*
X207242120Y-82569100D02*
X207248120Y-82566100D01*
X207248120Y-82566100D02*
X207254120Y-82563100D01*
X150503120Y-90843100D02*
X150509120Y-90850100D01*
X208058120Y-82043100D02*
X208060120Y-82041100D01*
X150496120Y-90827100D02*
X150500120Y-90834100D01*
X208060120Y-82041100D02*
X208065120Y-82037100D01*
X208065120Y-82037100D02*
X208071120Y-82033100D01*
X208779120Y-81388100D02*
X208781120Y-81387100D01*
X150556120Y-90887100D02*
X150565120Y-90889100D01*
X208781120Y-81387100D02*
X208785120Y-81381100D01*
X208785120Y-81381100D02*
X208790120Y-81376100D01*
X150520120Y-90863100D02*
X150526120Y-90870100D01*
X197923120Y-90741100D02*
X197910120Y-90726100D01*
X204452120Y-83271100D02*
X205401120Y-83193100D01*
X208790120Y-81376100D02*
X209383120Y-80625100D01*
X209383120Y-80625100D02*
X209385120Y-80623100D01*
X197910120Y-83272100D02*
X204448120Y-83272100D01*
X150540120Y-90880100D02*
X150549120Y-90883100D01*
X197844120Y-90892100D02*
X197870120Y-90887100D01*
X150533120Y-39655900D02*
X150526120Y-39660300D01*
X150582120Y-39638100D02*
X150573120Y-39638100D01*
X150565120Y-39641100D02*
X150556120Y-39642700D01*
X150556120Y-39642700D02*
X150549120Y-39647100D01*
X150549120Y-39647100D02*
X150540120Y-39650200D01*
X150540120Y-39650200D02*
X150533120Y-39655900D01*
X150573120Y-39638100D02*
X150565120Y-39641100D01*
X141178120Y-52282300D02*
X141172120Y-52285600D01*
X150513120Y-39672800D02*
X150509120Y-39680500D01*
X141184120Y-52278800D02*
X141178120Y-52282300D01*
X141172120Y-52285600D02*
X140368120Y-52805600D01*
X150491120Y-39729300D02*
X150491120Y-39729400D01*
X143008120Y-51657600D02*
X142080120Y-51890800D01*
X140368120Y-52805600D02*
X140366120Y-52806900D01*
X150520120Y-39667100D02*
X150513120Y-39672800D01*
X142078120Y-51891400D02*
X142071120Y-51893800D01*
X150491120Y-39729400D02*
X150491120Y-51576100D01*
X150526120Y-39660300D02*
X150520120Y-39667100D01*
X150509120Y-39680500D02*
X150503120Y-39687300D01*
X150503120Y-39687300D02*
X150500120Y-39695700D01*
X150491120Y-39720500D02*
X150491120Y-39729300D01*
X143974120Y-51576800D02*
X143025120Y-51654900D01*
X143978120Y-51576100D02*
X143974120Y-51576800D01*
X143025120Y-51654900D02*
X143022120Y-51655100D01*
X143022120Y-51655100D02*
X143015120Y-51656400D01*
X143015120Y-51656400D02*
X143008120Y-51657600D01*
X142064120Y-51896100D02*
X141186120Y-52277800D01*
X141186120Y-52277800D02*
X141184120Y-52278800D01*
X150491120Y-51576100D02*
X143978120Y-51576100D01*
X150494120Y-39712100D02*
X150491120Y-39720500D01*
X142080120Y-51890800D02*
X142078120Y-51891400D01*
X142071120Y-51893800D02*
X142064120Y-51896100D01*
X150496120Y-39703400D02*
X150494120Y-39712100D01*
X150500120Y-39695700D02*
X150496120Y-39703400D01*
X210354120Y-77890100D02*
X210355120Y-77884100D01*
X210182120Y-78853100D02*
X210184120Y-78847100D01*
X209862120Y-79758100D02*
X210181120Y-78856100D01*
X210181120Y-78856100D02*
X210182120Y-78853100D01*
X210184120Y-78847100D02*
X210186120Y-78840100D01*
X210186120Y-78840100D02*
X210354120Y-77897100D01*
X210354120Y-77897100D02*
X210354120Y-77895100D01*
X210354120Y-77895100D02*
X210354120Y-77890100D01*
X210355120Y-77884100D02*
X210381120Y-77341100D01*
X210381120Y-77341100D02*
X210381120Y-77339100D01*
X209672120Y-50385100D02*
X209152120Y-49581300D01*
X210300120Y-52221600D02*
X210066120Y-51293100D01*
X207726120Y-48250500D02*
X207720120Y-48246600D01*
X206882120Y-47783900D02*
X206880120Y-47782800D01*
X210381120Y-53191400D02*
X210380120Y-53187300D01*
X210066120Y-51290700D02*
X210063120Y-51284100D01*
X209678120Y-50397400D02*
X209675120Y-50391300D01*
X209142120Y-49568300D02*
X208497120Y-48860200D01*
X210061120Y-51277500D02*
X209679120Y-50399600D01*
X210380120Y-53187300D02*
X210302120Y-52237800D01*
X209675120Y-50391300D02*
X209672120Y-50385100D01*
X210301120Y-52228500D02*
X210300120Y-52221600D01*
X210381120Y-77339100D02*
X210381120Y-53191400D01*
X210063120Y-51284100D02*
X210061120Y-51277500D01*
X209152120Y-49581300D02*
X209150120Y-49579300D01*
X210302120Y-52235300D02*
X210301120Y-52228500D01*
X208497120Y-48860200D02*
X208496120Y-48858400D01*
X209150120Y-49579300D02*
X209146120Y-49573900D01*
X208496120Y-48858400D02*
X208490120Y-48853800D01*
X208490120Y-48853800D02*
X208485120Y-48849100D01*
X208485120Y-48849100D02*
X207734120Y-48255700D01*
X210302120Y-52237800D02*
X210302120Y-52235300D01*
X209679120Y-50399600D02*
X209678120Y-50397400D01*
X210066120Y-51293100D02*
X210066120Y-51290700D01*
X209146120Y-49573900D02*
X209142120Y-49568300D01*
X207734120Y-48255700D02*
X207732120Y-48254200D01*
X207732120Y-48254200D02*
X207726120Y-48250500D01*
X207720120Y-48246600D02*
X206882120Y-47783900D01*
X150600120Y-78754100D02*
X150600120Y-78754100D01*
X143433120Y-78928100D02*
X143976120Y-78954100D01*
X138564120Y-55089900D02*
X138245120Y-55992400D01*
X138124120Y-73977100D02*
X138125120Y-73984100D01*
X138072120Y-56953200D02*
X138072120Y-56958400D01*
X138570120Y-55077200D02*
X138567120Y-55083600D01*
X138571120Y-55075000D02*
X138570120Y-55077200D01*
X138072120Y-56950800D02*
X138072120Y-56953200D01*
X138045120Y-73021100D02*
X138046120Y-73025100D01*
X140355120Y-52815600D02*
X139647120Y-53459900D01*
X139641120Y-53466800D02*
X139636120Y-53471900D01*
X138046120Y-73025100D02*
X138124120Y-73974100D01*
X139941120Y-77363100D02*
X140692120Y-77956100D01*
X141546120Y-78429100D02*
X141553120Y-78432100D01*
X142461120Y-78754100D02*
X142464120Y-78755100D01*
X143422120Y-78927100D02*
X143427120Y-78927100D01*
X139037120Y-54231100D02*
X139034120Y-54236900D01*
X138045120Y-57507000D02*
X138045120Y-57509400D01*
X139930120Y-77354100D02*
X139936120Y-77358100D01*
X143427120Y-78927100D02*
X143433120Y-78928100D01*
X142470120Y-78757100D02*
X142477120Y-78759100D01*
X138365120Y-74935100D02*
X138747120Y-75813100D01*
X138245120Y-55992400D02*
X138244120Y-55994700D01*
X138567120Y-55083600D02*
X138564120Y-55089900D01*
X138124120Y-73974100D02*
X138124120Y-73977100D01*
X138125120Y-73984100D02*
X138126120Y-73991100D01*
X138748120Y-75815100D02*
X138751120Y-75821100D01*
X139034120Y-54236900D02*
X138571120Y-55075000D01*
X138360120Y-74919100D02*
X138360120Y-74921100D01*
X138363120Y-74928100D02*
X138365120Y-74935100D01*
X138071120Y-56963600D02*
X138045120Y-57507000D01*
X138754120Y-75827100D02*
X139274120Y-76631100D01*
X139274120Y-76631100D02*
X139276120Y-76633100D01*
X139276120Y-76633100D02*
X139280120Y-76638100D01*
X139647120Y-53459900D02*
X139645120Y-53461600D01*
X139636120Y-53471900D02*
X139043120Y-54223200D01*
X138244120Y-55994700D02*
X138242120Y-56001500D01*
X138126120Y-73991100D02*
X138360120Y-74919100D01*
X139936120Y-77358100D02*
X139941120Y-77363100D01*
X140700120Y-77962100D02*
X140706120Y-77965100D01*
X139280120Y-76638100D02*
X139284120Y-76644100D01*
X138045120Y-57509400D02*
X138045120Y-73021100D01*
X141544120Y-78428100D02*
X141546120Y-78429100D01*
X141553120Y-78432100D02*
X141559120Y-78435100D01*
X142464120Y-78755100D02*
X142470120Y-78757100D01*
X142477120Y-78759100D02*
X143420120Y-78927100D01*
X138242120Y-56001500D02*
X138240120Y-56008200D01*
X139041120Y-54225100D02*
X139037120Y-54231100D01*
X139929120Y-77352100D02*
X139930120Y-77354100D01*
X140706120Y-77965100D02*
X141544120Y-78428100D01*
X140366120Y-52806900D02*
X140361120Y-52811300D01*
X138240120Y-56008200D02*
X138072120Y-56950800D01*
X139645120Y-53461600D02*
X139641120Y-53466800D01*
X139043120Y-54223200D02*
X139041120Y-54225100D01*
X138747120Y-75813100D02*
X138748120Y-75815100D01*
X138751120Y-75821100D02*
X138754120Y-75827100D01*
X139284120Y-76644100D02*
X139929120Y-77352100D01*
X138072120Y-56958400D02*
X138071120Y-56963600D01*
X138360120Y-74921100D02*
X138363120Y-74928100D01*
X140692120Y-77956100D02*
X140694120Y-77958100D01*
X140361120Y-52811300D02*
X140355120Y-52815600D01*
X141559120Y-78435100D02*
X142461120Y-78754100D01*
X140694120Y-77958100D02*
X140700120Y-77962100D01*
X143420120Y-78927100D02*
X143422120Y-78927100D01*
X150656120Y-51753900D02*
X150662120Y-51747100D01*
X150679120Y-51726900D02*
X150682120Y-51718500D01*
X150633120Y-51767100D02*
X150642120Y-51764000D01*
X150688120Y-51702100D02*
X150691120Y-51693700D01*
X150691120Y-39838100D02*
X197760120Y-39838100D01*
X150649120Y-51758300D02*
X150656120Y-51753900D01*
X150691120Y-51658500D02*
X150691120Y-39838100D01*
X150669120Y-51741400D02*
X150673120Y-51733700D01*
X150642120Y-51764000D02*
X150649120Y-51758300D01*
X150673120Y-51733700D02*
X150679120Y-51726900D01*
X150691120Y-51693700D02*
X150691120Y-51658500D01*
X150686120Y-51710800D02*
X150688120Y-51702100D01*
X150662120Y-51747100D02*
X150669120Y-51741400D01*
X150682120Y-51718500D02*
X150686120Y-51710800D01*
X140484120Y-52969000D02*
X141274120Y-52458000D01*
X142520120Y-78563100D02*
X141633120Y-78249100D01*
X143049120Y-51853500D02*
X143991120Y-51776100D01*
X150600120Y-51776100D02*
X150600120Y-51776100D01*
X150617120Y-51773100D02*
X150626120Y-51771500D01*
X143448120Y-78728100D02*
X142520120Y-78563100D01*
X138552120Y-74862100D02*
X138322120Y-73950100D01*
X150626120Y-51771500D02*
X150633120Y-51767100D01*
X138245120Y-73008100D02*
X138245120Y-57520500D01*
X138245120Y-57520500D02*
X138271120Y-56979500D01*
X138750120Y-55164500D02*
X139205120Y-54340700D01*
X139788120Y-53602300D02*
X140484120Y-52969000D01*
X141274120Y-52458000D02*
X142137120Y-52082800D01*
X150600120Y-51776100D02*
X150609120Y-51776100D01*
X138436120Y-56051400D02*
X138750120Y-55164500D01*
X139438120Y-76515100D02*
X138927120Y-75725100D01*
X150600120Y-78754100D02*
X143989120Y-78754100D01*
X138322120Y-73950100D02*
X138245120Y-73008100D01*
X142137120Y-52082800D02*
X143049120Y-51853500D01*
X140071120Y-77211100D02*
X139438120Y-76515100D01*
X138927120Y-75725100D02*
X138552120Y-74862100D01*
X143991120Y-51776100D02*
X150600120Y-51776100D01*
X150609120Y-51776100D02*
X150617120Y-51773100D01*
X138271120Y-56979500D02*
X138436120Y-56051400D01*
X141633120Y-78249100D02*
X140810120Y-77794100D01*
X139205120Y-54340700D02*
X139788120Y-53602300D01*
X143989120Y-78754100D02*
X143448120Y-78728100D01*
X140810120Y-77794100D02*
X140071120Y-77211100D01*
D15*
G04 #@! TO.C,G\002A\002A\002A*
G36*
X169508066Y-62884393D02*
X167548837Y-63602810D01*
X167548837Y-62515539D01*
X167548000Y-62105407D01*
X167543970Y-61817027D01*
X167534470Y-61632208D01*
X167517223Y-61532760D01*
X167489953Y-61500491D01*
X167450383Y-61517213D01*
X167426385Y-61537269D01*
X167352745Y-61593274D01*
X167176617Y-61722701D01*
X166909261Y-61917447D01*
X166561937Y-62169411D01*
X166145905Y-62470491D01*
X165672426Y-62812587D01*
X165152759Y-63187596D01*
X164598165Y-63587418D01*
X164019905Y-64003950D01*
X163429237Y-64429091D01*
X162837423Y-64854740D01*
X162255722Y-65272796D01*
X161695395Y-65675156D01*
X161167701Y-66053720D01*
X160683902Y-66400385D01*
X160255257Y-66707052D01*
X159893026Y-66965617D01*
X159608469Y-67167980D01*
X159412847Y-67306038D01*
X159317420Y-67371692D01*
X159315162Y-67373130D01*
X159352343Y-67367604D01*
X159509273Y-67320073D01*
X159773579Y-67234669D01*
X160132888Y-67115524D01*
X160574829Y-66966773D01*
X161087028Y-66792547D01*
X161657115Y-66596980D01*
X162195408Y-66411008D01*
X162812590Y-66197242D01*
X163387921Y-65998228D01*
X163908178Y-65818521D01*
X164360136Y-65662678D01*
X164730571Y-65535254D01*
X165006259Y-65440806D01*
X165173975Y-65383889D01*
X165221717Y-65368415D01*
X165228019Y-65434337D01*
X165233360Y-65615902D01*
X165237319Y-65888809D01*
X165239476Y-66228758D01*
X165239746Y-66408262D01*
X165239746Y-67448109D01*
X167006551Y-66666588D01*
X167565685Y-66419502D01*
X168170081Y-66152825D01*
X168781798Y-65883270D01*
X169362892Y-65627552D01*
X169875422Y-65402383D01*
X170120325Y-65294995D01*
X171467294Y-64704924D01*
X171467294Y-62165977D01*
X169508066Y-62884393D01*
X169508066Y-62884393D01*
G37*
X169508066Y-62884393D02*
X167548837Y-63602810D01*
X167548837Y-62515539D01*
X167548000Y-62105407D01*
X167543970Y-61817027D01*
X167534470Y-61632208D01*
X167517223Y-61532760D01*
X167489953Y-61500491D01*
X167450383Y-61517213D01*
X167426385Y-61537269D01*
X167352745Y-61593274D01*
X167176617Y-61722701D01*
X166909261Y-61917447D01*
X166561937Y-62169411D01*
X166145905Y-62470491D01*
X165672426Y-62812587D01*
X165152759Y-63187596D01*
X164598165Y-63587418D01*
X164019905Y-64003950D01*
X163429237Y-64429091D01*
X162837423Y-64854740D01*
X162255722Y-65272796D01*
X161695395Y-65675156D01*
X161167701Y-66053720D01*
X160683902Y-66400385D01*
X160255257Y-66707052D01*
X159893026Y-66965617D01*
X159608469Y-67167980D01*
X159412847Y-67306038D01*
X159317420Y-67371692D01*
X159315162Y-67373130D01*
X159352343Y-67367604D01*
X159509273Y-67320073D01*
X159773579Y-67234669D01*
X160132888Y-67115524D01*
X160574829Y-66966773D01*
X161087028Y-66792547D01*
X161657115Y-66596980D01*
X162195408Y-66411008D01*
X162812590Y-66197242D01*
X163387921Y-65998228D01*
X163908178Y-65818521D01*
X164360136Y-65662678D01*
X164730571Y-65535254D01*
X165006259Y-65440806D01*
X165173975Y-65383889D01*
X165221717Y-65368415D01*
X165228019Y-65434337D01*
X165233360Y-65615902D01*
X165237319Y-65888809D01*
X165239476Y-66228758D01*
X165239746Y-66408262D01*
X165239746Y-67448109D01*
X167006551Y-66666588D01*
X167565685Y-66419502D01*
X168170081Y-66152825D01*
X168781798Y-65883270D01*
X169362892Y-65627552D01*
X169875422Y-65402383D01*
X170120325Y-65294995D01*
X171467294Y-64704924D01*
X171467294Y-62165977D01*
X169508066Y-62884393D01*
G36*
X169909716Y-75111368D02*
X168701924Y-73905054D01*
X162060400Y-73905054D01*
X161689829Y-73539087D01*
X161319258Y-73173119D01*
X159711152Y-74781225D01*
X160515591Y-75583382D01*
X161320031Y-76385539D01*
X161690215Y-76019952D01*
X162060400Y-75654366D01*
X163490435Y-75654366D01*
X163490435Y-77193760D01*
X162060400Y-77193760D01*
X161319258Y-76461824D01*
X159711152Y-78069930D01*
X160515591Y-78872087D01*
X161320031Y-79674243D01*
X161690215Y-79308658D01*
X162060400Y-78943071D01*
X165309719Y-78943071D01*
X165309719Y-77193760D01*
X165309719Y-75654366D01*
X167587712Y-75654366D01*
X168390451Y-76420517D01*
X169193190Y-77186669D01*
X167251454Y-77190214D01*
X165309719Y-77193760D01*
X165309719Y-78943071D01*
X168494847Y-78943071D01*
X171117509Y-76317681D01*
X169909716Y-75111368D01*
X169909716Y-75111368D01*
G37*
X169909716Y-75111368D02*
X168701924Y-73905054D01*
X162060400Y-73905054D01*
X161689829Y-73539087D01*
X161319258Y-73173119D01*
X159711152Y-74781225D01*
X160515591Y-75583382D01*
X161320031Y-76385539D01*
X161690215Y-76019952D01*
X162060400Y-75654366D01*
X163490435Y-75654366D01*
X163490435Y-77193760D01*
X162060400Y-77193760D01*
X161319258Y-76461824D01*
X159711152Y-78069930D01*
X160515591Y-78872087D01*
X161320031Y-79674243D01*
X161690215Y-79308658D01*
X162060400Y-78943071D01*
X165309719Y-78943071D01*
X165309719Y-77193760D01*
X165309719Y-75654366D01*
X167587712Y-75654366D01*
X168390451Y-76420517D01*
X169193190Y-77186669D01*
X167251454Y-77190214D01*
X165309719Y-77193760D01*
X165309719Y-78943071D01*
X168494847Y-78943071D01*
X171117509Y-76317681D01*
X169909716Y-75111368D01*
G36*
X169808333Y-68922418D02*
X168529126Y-67644612D01*
X167863812Y-68307160D01*
X167198498Y-68969707D01*
X168159920Y-69932973D01*
X169121343Y-70896239D01*
X166213509Y-70896239D01*
X166233928Y-69567616D01*
X166254347Y-68238992D01*
X165397184Y-69094252D01*
X164540022Y-69949511D01*
X164540022Y-70896239D01*
X162517943Y-70896239D01*
X162327704Y-70646824D01*
X162137466Y-70397408D01*
X162848576Y-69683869D01*
X163559687Y-68970330D01*
X162928441Y-68339085D01*
X162297196Y-67707840D01*
X161004559Y-69007000D01*
X160658518Y-69356011D01*
X160347442Y-69672107D01*
X160084297Y-69941920D01*
X159882049Y-70152082D01*
X159753667Y-70289226D01*
X159711923Y-70339598D01*
X159759281Y-70396420D01*
X159892091Y-70537520D01*
X160096459Y-70748613D01*
X160358488Y-71015413D01*
X160664283Y-71323638D01*
X160849747Y-71509293D01*
X161987572Y-72645550D01*
X168628484Y-72645550D01*
X169858012Y-71422887D01*
X171087541Y-70200223D01*
X169808333Y-68922418D01*
X169808333Y-68922418D01*
G37*
X169808333Y-68922418D02*
X168529126Y-67644612D01*
X167863812Y-68307160D01*
X167198498Y-68969707D01*
X168159920Y-69932973D01*
X169121343Y-70896239D01*
X166213509Y-70896239D01*
X166233928Y-69567616D01*
X166254347Y-68238992D01*
X165397184Y-69094252D01*
X164540022Y-69949511D01*
X164540022Y-70896239D01*
X162517943Y-70896239D01*
X162327704Y-70646824D01*
X162137466Y-70397408D01*
X162848576Y-69683869D01*
X163559687Y-68970330D01*
X162928441Y-68339085D01*
X162297196Y-67707840D01*
X161004559Y-69007000D01*
X160658518Y-69356011D01*
X160347442Y-69672107D01*
X160084297Y-69941920D01*
X159882049Y-70152082D01*
X159753667Y-70289226D01*
X159711923Y-70339598D01*
X159759281Y-70396420D01*
X159892091Y-70537520D01*
X160096459Y-70748613D01*
X160358488Y-71015413D01*
X160664283Y-71323638D01*
X160849747Y-71509293D01*
X161987572Y-72645550D01*
X168628484Y-72645550D01*
X169858012Y-71422887D01*
X171087541Y-70200223D01*
X169808333Y-68922418D01*
G36*
X169121466Y-55502300D02*
X167306702Y-55502300D01*
X166693020Y-56113138D01*
X166079338Y-56723977D01*
X164782296Y-55432327D01*
X162060400Y-55432327D01*
X161689829Y-55066359D01*
X161319258Y-54700392D01*
X159711152Y-56308498D01*
X160498728Y-57093282D01*
X161286303Y-57878067D01*
X161671151Y-57532882D01*
X162056000Y-57187697D01*
X162966835Y-57184668D01*
X163877670Y-57181638D01*
X164644980Y-57951335D01*
X165412291Y-58721032D01*
X161980766Y-58721032D01*
X161635404Y-58370398D01*
X161290042Y-58019763D01*
X160500982Y-58806584D01*
X160233172Y-59076333D01*
X160004306Y-59312004D01*
X159831167Y-59495899D01*
X159730538Y-59610322D01*
X159711923Y-59638645D01*
X159759976Y-59699935D01*
X159892684Y-59839839D01*
X160092868Y-60040978D01*
X160343349Y-60285974D01*
X160513643Y-60449670D01*
X161315364Y-61215454D01*
X161683292Y-60842899D01*
X162051219Y-60470344D01*
X166325005Y-60470344D01*
X166325005Y-58860977D01*
X167216811Y-57969172D01*
X168108617Y-57077366D01*
X169892228Y-58860977D01*
X166325005Y-58860977D01*
X166325005Y-60470344D01*
X168909242Y-60470344D01*
X169314055Y-60870932D01*
X169718867Y-61271521D01*
X170418150Y-60574862D01*
X171117432Y-59878203D01*
X171117432Y-57494704D01*
X169121466Y-55502300D01*
X169121466Y-55502300D01*
G37*
X169121466Y-55502300D02*
X167306702Y-55502300D01*
X166693020Y-56113138D01*
X166079338Y-56723977D01*
X164782296Y-55432327D01*
X162060400Y-55432327D01*
X161689829Y-55066359D01*
X161319258Y-54700392D01*
X159711152Y-56308498D01*
X160498728Y-57093282D01*
X161286303Y-57878067D01*
X161671151Y-57532882D01*
X162056000Y-57187697D01*
X162966835Y-57184668D01*
X163877670Y-57181638D01*
X164644980Y-57951335D01*
X165412291Y-58721032D01*
X161980766Y-58721032D01*
X161635404Y-58370398D01*
X161290042Y-58019763D01*
X160500982Y-58806584D01*
X160233172Y-59076333D01*
X160004306Y-59312004D01*
X159831167Y-59495899D01*
X159730538Y-59610322D01*
X159711923Y-59638645D01*
X159759976Y-59699935D01*
X159892684Y-59839839D01*
X160092868Y-60040978D01*
X160343349Y-60285974D01*
X160513643Y-60449670D01*
X161315364Y-61215454D01*
X161683292Y-60842899D01*
X162051219Y-60470344D01*
X166325005Y-60470344D01*
X166325005Y-58860977D01*
X167216811Y-57969172D01*
X168108617Y-57077366D01*
X169892228Y-58860977D01*
X166325005Y-58860977D01*
X166325005Y-60470344D01*
X168909242Y-60470344D01*
X169314055Y-60870932D01*
X169718867Y-61271521D01*
X170418150Y-60574862D01*
X171117432Y-59878203D01*
X171117432Y-57494704D01*
X169121466Y-55502300D01*
G36*
X169892904Y-50884107D02*
X168634868Y-49624614D01*
X162334508Y-49624614D01*
X159711824Y-52250026D01*
X162057500Y-54592658D01*
X162622442Y-54592658D01*
X162622442Y-52843346D01*
X162158924Y-52394088D01*
X162630379Y-51918992D01*
X163101833Y-51443897D01*
X167796366Y-51443897D01*
X168493465Y-52143622D01*
X169190564Y-52843346D01*
X162622442Y-52843346D01*
X162622442Y-54592658D01*
X168704882Y-54592658D01*
X169927911Y-53368129D01*
X171150940Y-52143601D01*
X169892904Y-50884107D01*
X169892904Y-50884107D01*
G37*
X169892904Y-50884107D02*
X168634868Y-49624614D01*
X162334508Y-49624614D01*
X159711824Y-52250026D01*
X162057500Y-54592658D01*
X162622442Y-54592658D01*
X162622442Y-52843346D01*
X162158924Y-52394088D01*
X162630379Y-51918992D01*
X163101833Y-51443897D01*
X167796366Y-51443897D01*
X168493465Y-52143622D01*
X169190564Y-52843346D01*
X162622442Y-52843346D01*
X162622442Y-54592658D01*
X168704882Y-54592658D01*
X169927911Y-53368129D01*
X171150940Y-52143601D01*
X169892904Y-50884107D01*
D14*
G04 #@! TO.C,J16*
X68735000Y-107624000D02*
G75*
G03X68735000Y-107624000I-100000J0D01*
G01*
D16*
X50135000Y-63224000D02*
X67985000Y-63224000D01*
X67985000Y-124024000D02*
X50135000Y-124024000D01*
X67985000Y-63224000D02*
X67985000Y-124024000D01*
X50135000Y-63224000D02*
X50135000Y-124024000D01*
D13*
G04 #@! TO.C,C9*
X210620000Y-79249000D02*
X210620000Y-87489000D01*
X228860000Y-79249000D02*
X228860000Y-87489000D01*
X228860000Y-87489000D02*
X210620000Y-87489000D01*
X228860000Y-79249000D02*
X210620000Y-79249000D01*
G04 #@! TO.C,C10*
X210620000Y-70249000D02*
X210620000Y-78489000D01*
X228860000Y-70249000D02*
X228860000Y-78489000D01*
X228860000Y-78489000D02*
X210620000Y-78489000D01*
X228860000Y-70249000D02*
X210620000Y-70249000D01*
G04 #@! TO.C,C11*
X210620000Y-61249000D02*
X210620000Y-69489000D01*
X228860000Y-61249000D02*
X228860000Y-69489000D01*
X228860000Y-69489000D02*
X210620000Y-69489000D01*
X228860000Y-61249000D02*
X210620000Y-61249000D01*
G04 #@! TO.C,C13*
X118477000Y-81040440D02*
X116677000Y-81040440D01*
X117577000Y-81940440D02*
X117577000Y-80140440D01*
X112502000Y-63061000D02*
X112422000Y-63061000D01*
X113276000Y-63101000D02*
X111648000Y-63101000D01*
X113628000Y-63141000D02*
X111296000Y-63141000D01*
X113897000Y-63181000D02*
X111027000Y-63181000D01*
X114123000Y-63221000D02*
X110801000Y-63221000D01*
X114322000Y-63261000D02*
X110602000Y-63261000D01*
X114501000Y-63301000D02*
X110423000Y-63301000D01*
X114665000Y-63341000D02*
X110259000Y-63341000D01*
X114817000Y-63381000D02*
X110107000Y-63381000D01*
X114960000Y-63421000D02*
X109964000Y-63421000D01*
X115094000Y-63461000D02*
X109830000Y-63461000D01*
X115221000Y-63501000D02*
X109703000Y-63501000D01*
X115342000Y-63541000D02*
X109582000Y-63541000D01*
X115458000Y-63581000D02*
X109466000Y-63581000D01*
X115569000Y-63621000D02*
X109355000Y-63621000D01*
X115676000Y-63661000D02*
X109248000Y-63661000D01*
X115779000Y-63701000D02*
X109145000Y-63701000D01*
X115878000Y-63741000D02*
X109046000Y-63741000D01*
X115974000Y-63781000D02*
X108950000Y-63781000D01*
X116067000Y-63821000D02*
X108857000Y-63821000D01*
X116158000Y-63861000D02*
X108766000Y-63861000D01*
X116246000Y-63901000D02*
X108678000Y-63901000D01*
X116331000Y-63941000D02*
X108593000Y-63941000D01*
X116414000Y-63981000D02*
X108510000Y-63981000D01*
X116495000Y-64020000D02*
X108429000Y-64020000D01*
X116575000Y-64060000D02*
X108349000Y-64060000D01*
X116652000Y-64100000D02*
X108272000Y-64100000D01*
X116727000Y-64140000D02*
X108197000Y-64140000D01*
X116801000Y-64180000D02*
X108123000Y-64180000D01*
X116874000Y-64220000D02*
X108050000Y-64220000D01*
X116944000Y-64260000D02*
X107980000Y-64260000D01*
X117014000Y-64300000D02*
X107910000Y-64300000D01*
X117082000Y-64340000D02*
X107842000Y-64340000D01*
X117148000Y-64380000D02*
X107776000Y-64380000D01*
X117214000Y-64420000D02*
X107710000Y-64420000D01*
X117278000Y-64460000D02*
X107646000Y-64460000D01*
X117341000Y-64500000D02*
X107583000Y-64500000D01*
X117403000Y-64540000D02*
X107521000Y-64540000D01*
X117464000Y-64580000D02*
X107460000Y-64580000D01*
X117524000Y-64620000D02*
X107400000Y-64620000D01*
X117582000Y-64660000D02*
X107342000Y-64660000D01*
X117640000Y-64700000D02*
X107284000Y-64700000D01*
X117697000Y-64740000D02*
X107227000Y-64740000D01*
X117753000Y-64780000D02*
X107171000Y-64780000D01*
X117808000Y-64820000D02*
X107116000Y-64820000D01*
X117862000Y-64860000D02*
X107062000Y-64860000D01*
X117916000Y-64900000D02*
X107008000Y-64900000D01*
X117968000Y-64940000D02*
X106956000Y-64940000D01*
X118020000Y-64980000D02*
X106904000Y-64980000D01*
X118071000Y-65020000D02*
X106853000Y-65020000D01*
X118122000Y-65060000D02*
X106802000Y-65060000D01*
X118171000Y-65100000D02*
X106753000Y-65100000D01*
X118220000Y-65140000D02*
X106704000Y-65140000D01*
X118268000Y-65180000D02*
X106656000Y-65180000D01*
X118316000Y-65220000D02*
X106608000Y-65220000D01*
X118363000Y-65260000D02*
X106561000Y-65260000D01*
X118409000Y-65300000D02*
X106515000Y-65300000D01*
X118455000Y-65340000D02*
X106469000Y-65340000D01*
X118500000Y-65380000D02*
X106424000Y-65380000D01*
X118544000Y-65420000D02*
X106380000Y-65420000D01*
X118588000Y-65460000D02*
X106336000Y-65460000D01*
X118632000Y-65500000D02*
X106292000Y-65500000D01*
X118674000Y-65540000D02*
X106250000Y-65540000D01*
X118716000Y-65580000D02*
X106208000Y-65580000D01*
X118758000Y-65620000D02*
X106166000Y-65620000D01*
X118799000Y-65660000D02*
X106125000Y-65660000D01*
X118840000Y-65700000D02*
X106084000Y-65700000D01*
X118880000Y-65740000D02*
X106044000Y-65740000D01*
X118920000Y-65780000D02*
X106004000Y-65780000D01*
X118959000Y-65820000D02*
X105965000Y-65820000D01*
X118998000Y-65860000D02*
X105926000Y-65860000D01*
X119036000Y-65900000D02*
X105888000Y-65900000D01*
X119074000Y-65940000D02*
X105850000Y-65940000D01*
X119111000Y-65980000D02*
X105813000Y-65980000D01*
X119148000Y-66020000D02*
X105776000Y-66020000D01*
X119184000Y-66060000D02*
X105740000Y-66060000D01*
X119220000Y-66100000D02*
X105704000Y-66100000D01*
X119256000Y-66140000D02*
X105668000Y-66140000D01*
X119291000Y-66180000D02*
X105633000Y-66180000D01*
X119326000Y-66220000D02*
X105598000Y-66220000D01*
X119360000Y-66260000D02*
X105564000Y-66260000D01*
X119394000Y-66300000D02*
X105530000Y-66300000D01*
X119427000Y-66340000D02*
X105497000Y-66340000D01*
X119461000Y-66380000D02*
X105463000Y-66380000D01*
X119493000Y-66420000D02*
X105431000Y-66420000D01*
X119526000Y-66460000D02*
X105398000Y-66460000D01*
X119558000Y-66500000D02*
X105366000Y-66500000D01*
X119589000Y-66540000D02*
X105335000Y-66540000D01*
X119621000Y-66580000D02*
X105303000Y-66580000D01*
X119652000Y-66620000D02*
X105272000Y-66620000D01*
X119682000Y-66660000D02*
X105242000Y-66660000D01*
X119712000Y-66700000D02*
X105212000Y-66700000D01*
X119742000Y-66740000D02*
X105182000Y-66740000D01*
X119772000Y-66780000D02*
X105152000Y-66780000D01*
X119801000Y-66820000D02*
X105123000Y-66820000D01*
X119830000Y-66860000D02*
X105094000Y-66860000D01*
X119859000Y-66900000D02*
X105065000Y-66900000D01*
X119887000Y-66940000D02*
X105037000Y-66940000D01*
X119915000Y-66980000D02*
X105009000Y-66980000D01*
X111022000Y-67020000D02*
X104982000Y-67020000D01*
X119942000Y-67020000D02*
X113902000Y-67020000D01*
X111022000Y-67060000D02*
X104954000Y-67060000D01*
X119970000Y-67060000D02*
X113902000Y-67060000D01*
X111022000Y-67100000D02*
X104927000Y-67100000D01*
X119997000Y-67100000D02*
X113902000Y-67100000D01*
X111022000Y-67140000D02*
X104901000Y-67140000D01*
X120023000Y-67140000D02*
X113902000Y-67140000D01*
X111022000Y-67180000D02*
X104874000Y-67180000D01*
X120050000Y-67180000D02*
X113902000Y-67180000D01*
X111022000Y-67220000D02*
X104848000Y-67220000D01*
X120076000Y-67220000D02*
X113902000Y-67220000D01*
X111022000Y-67260000D02*
X104822000Y-67260000D01*
X120102000Y-67260000D02*
X113902000Y-67260000D01*
X111022000Y-67300000D02*
X104797000Y-67300000D01*
X120127000Y-67300000D02*
X113902000Y-67300000D01*
X111022000Y-67340000D02*
X104772000Y-67340000D01*
X120152000Y-67340000D02*
X113902000Y-67340000D01*
X111022000Y-67380000D02*
X104747000Y-67380000D01*
X120177000Y-67380000D02*
X113902000Y-67380000D01*
X111022000Y-67420000D02*
X104722000Y-67420000D01*
X120202000Y-67420000D02*
X113902000Y-67420000D01*
X111022000Y-67460000D02*
X104698000Y-67460000D01*
X120226000Y-67460000D02*
X113902000Y-67460000D01*
X111022000Y-67500000D02*
X104674000Y-67500000D01*
X120250000Y-67500000D02*
X113902000Y-67500000D01*
X111022000Y-67540000D02*
X104650000Y-67540000D01*
X120274000Y-67540000D02*
X113902000Y-67540000D01*
X111022000Y-67580000D02*
X104627000Y-67580000D01*
X120297000Y-67580000D02*
X113902000Y-67580000D01*
X111022000Y-67620000D02*
X104603000Y-67620000D01*
X120321000Y-67620000D02*
X113902000Y-67620000D01*
X111022000Y-67660000D02*
X104580000Y-67660000D01*
X120344000Y-67660000D02*
X113902000Y-67660000D01*
X111022000Y-67700000D02*
X104558000Y-67700000D01*
X120366000Y-67700000D02*
X113902000Y-67700000D01*
X111022000Y-67740000D02*
X104535000Y-67740000D01*
X120389000Y-67740000D02*
X113902000Y-67740000D01*
X111022000Y-67780000D02*
X104513000Y-67780000D01*
X120411000Y-67780000D02*
X113902000Y-67780000D01*
X111022000Y-67820000D02*
X104491000Y-67820000D01*
X120433000Y-67820000D02*
X113902000Y-67820000D01*
X111022000Y-67860000D02*
X104470000Y-67860000D01*
X120454000Y-67860000D02*
X113902000Y-67860000D01*
X111022000Y-67900000D02*
X104448000Y-67900000D01*
X120476000Y-67900000D02*
X113902000Y-67900000D01*
X111022000Y-67940000D02*
X104427000Y-67940000D01*
X120497000Y-67940000D02*
X113902000Y-67940000D01*
X111022000Y-67980000D02*
X104406000Y-67980000D01*
X120518000Y-67980000D02*
X113902000Y-67980000D01*
X111022000Y-68020000D02*
X104386000Y-68020000D01*
X120538000Y-68020000D02*
X113902000Y-68020000D01*
X111022000Y-68060000D02*
X104365000Y-68060000D01*
X120559000Y-68060000D02*
X113902000Y-68060000D01*
X111022000Y-68100000D02*
X104345000Y-68100000D01*
X120579000Y-68100000D02*
X113902000Y-68100000D01*
X111022000Y-68140000D02*
X104325000Y-68140000D01*
X120599000Y-68140000D02*
X113902000Y-68140000D01*
X111022000Y-68180000D02*
X104306000Y-68180000D01*
X120618000Y-68180000D02*
X113902000Y-68180000D01*
X111022000Y-68220000D02*
X104286000Y-68220000D01*
X120638000Y-68220000D02*
X113902000Y-68220000D01*
X111022000Y-68260000D02*
X104267000Y-68260000D01*
X120657000Y-68260000D02*
X113902000Y-68260000D01*
X111022000Y-68300000D02*
X104248000Y-68300000D01*
X120676000Y-68300000D02*
X113902000Y-68300000D01*
X111022000Y-68340000D02*
X104229000Y-68340000D01*
X120695000Y-68340000D02*
X113902000Y-68340000D01*
X111022000Y-68380000D02*
X104211000Y-68380000D01*
X120713000Y-68380000D02*
X113902000Y-68380000D01*
X111022000Y-68420000D02*
X104193000Y-68420000D01*
X120731000Y-68420000D02*
X113902000Y-68420000D01*
X111022000Y-68460000D02*
X104175000Y-68460000D01*
X120749000Y-68460000D02*
X113902000Y-68460000D01*
X111022000Y-68500000D02*
X104157000Y-68500000D01*
X120767000Y-68500000D02*
X113902000Y-68500000D01*
X111022000Y-68540000D02*
X104139000Y-68540000D01*
X120785000Y-68540000D02*
X113902000Y-68540000D01*
X111022000Y-68580000D02*
X104122000Y-68580000D01*
X120802000Y-68580000D02*
X113902000Y-68580000D01*
X111022000Y-68620000D02*
X104105000Y-68620000D01*
X120819000Y-68620000D02*
X113902000Y-68620000D01*
X111022000Y-68660000D02*
X104088000Y-68660000D01*
X120836000Y-68660000D02*
X113902000Y-68660000D01*
X111022000Y-68700000D02*
X104072000Y-68700000D01*
X120852000Y-68700000D02*
X113902000Y-68700000D01*
X111022000Y-68740000D02*
X104055000Y-68740000D01*
X120869000Y-68740000D02*
X113902000Y-68740000D01*
X111022000Y-68780000D02*
X104039000Y-68780000D01*
X120885000Y-68780000D02*
X113902000Y-68780000D01*
X111022000Y-68820000D02*
X104023000Y-68820000D01*
X120901000Y-68820000D02*
X113902000Y-68820000D01*
X111022000Y-68860000D02*
X104007000Y-68860000D01*
X120917000Y-68860000D02*
X113902000Y-68860000D01*
X111022000Y-68900000D02*
X103992000Y-68900000D01*
X120932000Y-68900000D02*
X113902000Y-68900000D01*
X111022000Y-68940000D02*
X103976000Y-68940000D01*
X120948000Y-68940000D02*
X113902000Y-68940000D01*
X111022000Y-68980000D02*
X103961000Y-68980000D01*
X120963000Y-68980000D02*
X113902000Y-68980000D01*
X111022000Y-69020000D02*
X103946000Y-69020000D01*
X120978000Y-69020000D02*
X113902000Y-69020000D01*
X111022000Y-69060000D02*
X103932000Y-69060000D01*
X120992000Y-69060000D02*
X113902000Y-69060000D01*
X111022000Y-69100000D02*
X103917000Y-69100000D01*
X121007000Y-69100000D02*
X113902000Y-69100000D01*
X111022000Y-69140000D02*
X103903000Y-69140000D01*
X121021000Y-69140000D02*
X113902000Y-69140000D01*
X111022000Y-69180000D02*
X103889000Y-69180000D01*
X121035000Y-69180000D02*
X113902000Y-69180000D01*
X111022000Y-69220000D02*
X103875000Y-69220000D01*
X121049000Y-69220000D02*
X113902000Y-69220000D01*
X111022000Y-69260000D02*
X103862000Y-69260000D01*
X121062000Y-69260000D02*
X113902000Y-69260000D01*
X111022000Y-69300000D02*
X103848000Y-69300000D01*
X121076000Y-69300000D02*
X113902000Y-69300000D01*
X111022000Y-69340000D02*
X103835000Y-69340000D01*
X121089000Y-69340000D02*
X113902000Y-69340000D01*
X111022000Y-69380000D02*
X103822000Y-69380000D01*
X121102000Y-69380000D02*
X113902000Y-69380000D01*
X111022000Y-69420000D02*
X103809000Y-69420000D01*
X121115000Y-69420000D02*
X113902000Y-69420000D01*
X111022000Y-69460000D02*
X103797000Y-69460000D01*
X121127000Y-69460000D02*
X113902000Y-69460000D01*
X111022000Y-69500000D02*
X103784000Y-69500000D01*
X121140000Y-69500000D02*
X113902000Y-69500000D01*
X111022000Y-69540000D02*
X103772000Y-69540000D01*
X121152000Y-69540000D02*
X113902000Y-69540000D01*
X111022000Y-69580000D02*
X103760000Y-69580000D01*
X121164000Y-69580000D02*
X113902000Y-69580000D01*
X111022000Y-69620000D02*
X103748000Y-69620000D01*
X121176000Y-69620000D02*
X113902000Y-69620000D01*
X111022000Y-69660000D02*
X103737000Y-69660000D01*
X121187000Y-69660000D02*
X113902000Y-69660000D01*
X111022000Y-69700000D02*
X103725000Y-69700000D01*
X121199000Y-69700000D02*
X113902000Y-69700000D01*
X111022000Y-69740000D02*
X103714000Y-69740000D01*
X121210000Y-69740000D02*
X113902000Y-69740000D01*
X111022000Y-69780000D02*
X103703000Y-69780000D01*
X121221000Y-69780000D02*
X113902000Y-69780000D01*
X111022000Y-69820000D02*
X103692000Y-69820000D01*
X121232000Y-69820000D02*
X113902000Y-69820000D01*
X111022000Y-69860000D02*
X103682000Y-69860000D01*
X121242000Y-69860000D02*
X113902000Y-69860000D01*
X121253000Y-69900000D02*
X103671000Y-69900000D01*
X121263000Y-69940000D02*
X103661000Y-69940000D01*
X121273000Y-69980000D02*
X103651000Y-69980000D01*
X121283000Y-70020000D02*
X103641000Y-70020000D01*
X121293000Y-70060000D02*
X103631000Y-70060000D01*
X121302000Y-70100000D02*
X103622000Y-70100000D01*
X121311000Y-70140000D02*
X103613000Y-70140000D01*
X121320000Y-70180000D02*
X103604000Y-70180000D01*
X121329000Y-70220000D02*
X103595000Y-70220000D01*
X121338000Y-70260000D02*
X103586000Y-70260000D01*
X121347000Y-70300000D02*
X103577000Y-70300000D01*
X121355000Y-70340000D02*
X103569000Y-70340000D01*
X121363000Y-70380000D02*
X103561000Y-70380000D01*
X121371000Y-70420000D02*
X103553000Y-70420000D01*
X121379000Y-70460000D02*
X103545000Y-70460000D01*
X121386000Y-70500000D02*
X103538000Y-70500000D01*
X121394000Y-70540000D02*
X103530000Y-70540000D01*
X121401000Y-70580000D02*
X103523000Y-70580000D01*
X121408000Y-70620000D02*
X103516000Y-70620000D01*
X121415000Y-70660000D02*
X103509000Y-70660000D01*
X121422000Y-70700000D02*
X103502000Y-70700000D01*
X121428000Y-70740000D02*
X103496000Y-70740000D01*
X121434000Y-70780000D02*
X103490000Y-70780000D01*
X121441000Y-70820000D02*
X103483000Y-70820000D01*
X121446000Y-70860000D02*
X103478000Y-70860000D01*
X121452000Y-70900000D02*
X103472000Y-70900000D01*
X121458000Y-70940000D02*
X103466000Y-70940000D01*
X121463000Y-70980000D02*
X103461000Y-70980000D01*
X121468000Y-71020000D02*
X103456000Y-71020000D01*
X121473000Y-71060000D02*
X103451000Y-71060000D01*
X121478000Y-71100000D02*
X103446000Y-71100000D01*
X121483000Y-71140000D02*
X103441000Y-71140000D01*
X121488000Y-71180000D02*
X103436000Y-71180000D01*
X121492000Y-71220000D02*
X103432000Y-71220000D01*
X121496000Y-71260000D02*
X103428000Y-71260000D01*
X121500000Y-71300000D02*
X103424000Y-71300000D01*
X121504000Y-71340000D02*
X103420000Y-71340000D01*
X121507000Y-71380000D02*
X103417000Y-71380000D01*
X121511000Y-71420000D02*
X103413000Y-71420000D01*
X121514000Y-71460000D02*
X103410000Y-71460000D01*
X121517000Y-71501000D02*
X103407000Y-71501000D01*
X121520000Y-71541000D02*
X103404000Y-71541000D01*
X121523000Y-71581000D02*
X103401000Y-71581000D01*
X121525000Y-71621000D02*
X103399000Y-71621000D01*
X121528000Y-71661000D02*
X103396000Y-71661000D01*
X121530000Y-71701000D02*
X103394000Y-71701000D01*
X121532000Y-71741000D02*
X103392000Y-71741000D01*
X121534000Y-71781000D02*
X103390000Y-71781000D01*
X121535000Y-71821000D02*
X103389000Y-71821000D01*
X121537000Y-71861000D02*
X103387000Y-71861000D01*
X121538000Y-71901000D02*
X103386000Y-71901000D01*
X121539000Y-71941000D02*
X103385000Y-71941000D01*
X121540000Y-71981000D02*
X103384000Y-71981000D01*
X121541000Y-72021000D02*
X103383000Y-72021000D01*
X121542000Y-72061000D02*
X103382000Y-72061000D01*
X121542000Y-72101000D02*
X103382000Y-72101000D01*
X121542000Y-72141000D02*
X103382000Y-72141000D01*
X121543000Y-72181000D02*
X103381000Y-72181000D01*
X121582000Y-72181000D02*
G75*
G03X121582000Y-72181000I-9120000J0D01*
G01*
G04 #@! TO.C,C14*
X119655000Y-76409560D02*
X121455000Y-76409560D01*
X120555000Y-75509560D02*
X120555000Y-77309560D01*
X125630000Y-94389000D02*
X125710000Y-94389000D01*
X124856000Y-94349000D02*
X126484000Y-94349000D01*
X124504000Y-94309000D02*
X126836000Y-94309000D01*
X124235000Y-94269000D02*
X127105000Y-94269000D01*
X124009000Y-94229000D02*
X127331000Y-94229000D01*
X123810000Y-94189000D02*
X127530000Y-94189000D01*
X123631000Y-94149000D02*
X127709000Y-94149000D01*
X123467000Y-94109000D02*
X127873000Y-94109000D01*
X123315000Y-94069000D02*
X128025000Y-94069000D01*
X123172000Y-94029000D02*
X128168000Y-94029000D01*
X123038000Y-93989000D02*
X128302000Y-93989000D01*
X122911000Y-93949000D02*
X128429000Y-93949000D01*
X122790000Y-93909000D02*
X128550000Y-93909000D01*
X122674000Y-93869000D02*
X128666000Y-93869000D01*
X122563000Y-93829000D02*
X128777000Y-93829000D01*
X122456000Y-93789000D02*
X128884000Y-93789000D01*
X122353000Y-93749000D02*
X128987000Y-93749000D01*
X122254000Y-93709000D02*
X129086000Y-93709000D01*
X122158000Y-93669000D02*
X129182000Y-93669000D01*
X122065000Y-93629000D02*
X129275000Y-93629000D01*
X121974000Y-93589000D02*
X129366000Y-93589000D01*
X121886000Y-93549000D02*
X129454000Y-93549000D01*
X121801000Y-93509000D02*
X129539000Y-93509000D01*
X121718000Y-93469000D02*
X129622000Y-93469000D01*
X121637000Y-93430000D02*
X129703000Y-93430000D01*
X121557000Y-93390000D02*
X129783000Y-93390000D01*
X121480000Y-93350000D02*
X129860000Y-93350000D01*
X121405000Y-93310000D02*
X129935000Y-93310000D01*
X121331000Y-93270000D02*
X130009000Y-93270000D01*
X121258000Y-93230000D02*
X130082000Y-93230000D01*
X121188000Y-93190000D02*
X130152000Y-93190000D01*
X121118000Y-93150000D02*
X130222000Y-93150000D01*
X121050000Y-93110000D02*
X130290000Y-93110000D01*
X120984000Y-93070000D02*
X130356000Y-93070000D01*
X120918000Y-93030000D02*
X130422000Y-93030000D01*
X120854000Y-92990000D02*
X130486000Y-92990000D01*
X120791000Y-92950000D02*
X130549000Y-92950000D01*
X120729000Y-92910000D02*
X130611000Y-92910000D01*
X120668000Y-92870000D02*
X130672000Y-92870000D01*
X120608000Y-92830000D02*
X130732000Y-92830000D01*
X120550000Y-92790000D02*
X130790000Y-92790000D01*
X120492000Y-92750000D02*
X130848000Y-92750000D01*
X120435000Y-92710000D02*
X130905000Y-92710000D01*
X120379000Y-92670000D02*
X130961000Y-92670000D01*
X120324000Y-92630000D02*
X131016000Y-92630000D01*
X120270000Y-92590000D02*
X131070000Y-92590000D01*
X120216000Y-92550000D02*
X131124000Y-92550000D01*
X120164000Y-92510000D02*
X131176000Y-92510000D01*
X120112000Y-92470000D02*
X131228000Y-92470000D01*
X120061000Y-92430000D02*
X131279000Y-92430000D01*
X120010000Y-92390000D02*
X131330000Y-92390000D01*
X119961000Y-92350000D02*
X131379000Y-92350000D01*
X119912000Y-92310000D02*
X131428000Y-92310000D01*
X119864000Y-92270000D02*
X131476000Y-92270000D01*
X119816000Y-92230000D02*
X131524000Y-92230000D01*
X119769000Y-92190000D02*
X131571000Y-92190000D01*
X119723000Y-92150000D02*
X131617000Y-92150000D01*
X119677000Y-92110000D02*
X131663000Y-92110000D01*
X119632000Y-92070000D02*
X131708000Y-92070000D01*
X119588000Y-92030000D02*
X131752000Y-92030000D01*
X119544000Y-91990000D02*
X131796000Y-91990000D01*
X119500000Y-91950000D02*
X131840000Y-91950000D01*
X119458000Y-91910000D02*
X131882000Y-91910000D01*
X119416000Y-91870000D02*
X131924000Y-91870000D01*
X119374000Y-91830000D02*
X131966000Y-91830000D01*
X119333000Y-91790000D02*
X132007000Y-91790000D01*
X119292000Y-91750000D02*
X132048000Y-91750000D01*
X119252000Y-91710000D02*
X132088000Y-91710000D01*
X119212000Y-91670000D02*
X132128000Y-91670000D01*
X119173000Y-91630000D02*
X132167000Y-91630000D01*
X119134000Y-91590000D02*
X132206000Y-91590000D01*
X119096000Y-91550000D02*
X132244000Y-91550000D01*
X119058000Y-91510000D02*
X132282000Y-91510000D01*
X119021000Y-91470000D02*
X132319000Y-91470000D01*
X118984000Y-91430000D02*
X132356000Y-91430000D01*
X118948000Y-91390000D02*
X132392000Y-91390000D01*
X118912000Y-91350000D02*
X132428000Y-91350000D01*
X118876000Y-91310000D02*
X132464000Y-91310000D01*
X118841000Y-91270000D02*
X132499000Y-91270000D01*
X118806000Y-91230000D02*
X132534000Y-91230000D01*
X118772000Y-91190000D02*
X132568000Y-91190000D01*
X118738000Y-91150000D02*
X132602000Y-91150000D01*
X118705000Y-91110000D02*
X132635000Y-91110000D01*
X118671000Y-91070000D02*
X132669000Y-91070000D01*
X118639000Y-91030000D02*
X132701000Y-91030000D01*
X118606000Y-90990000D02*
X132734000Y-90990000D01*
X118574000Y-90950000D02*
X132766000Y-90950000D01*
X118543000Y-90910000D02*
X132797000Y-90910000D01*
X118511000Y-90870000D02*
X132829000Y-90870000D01*
X118480000Y-90830000D02*
X132860000Y-90830000D01*
X118450000Y-90790000D02*
X132890000Y-90790000D01*
X118420000Y-90750000D02*
X132920000Y-90750000D01*
X118390000Y-90710000D02*
X132950000Y-90710000D01*
X118360000Y-90670000D02*
X132980000Y-90670000D01*
X118331000Y-90630000D02*
X133009000Y-90630000D01*
X118302000Y-90590000D02*
X133038000Y-90590000D01*
X118273000Y-90550000D02*
X133067000Y-90550000D01*
X118245000Y-90510000D02*
X133095000Y-90510000D01*
X118217000Y-90470000D02*
X133123000Y-90470000D01*
X127110000Y-90430000D02*
X133150000Y-90430000D01*
X118190000Y-90430000D02*
X124230000Y-90430000D01*
X127110000Y-90390000D02*
X133178000Y-90390000D01*
X118162000Y-90390000D02*
X124230000Y-90390000D01*
X127110000Y-90350000D02*
X133205000Y-90350000D01*
X118135000Y-90350000D02*
X124230000Y-90350000D01*
X127110000Y-90310000D02*
X133231000Y-90310000D01*
X118109000Y-90310000D02*
X124230000Y-90310000D01*
X127110000Y-90270000D02*
X133258000Y-90270000D01*
X118082000Y-90270000D02*
X124230000Y-90270000D01*
X127110000Y-90230000D02*
X133284000Y-90230000D01*
X118056000Y-90230000D02*
X124230000Y-90230000D01*
X127110000Y-90190000D02*
X133310000Y-90190000D01*
X118030000Y-90190000D02*
X124230000Y-90190000D01*
X127110000Y-90150000D02*
X133335000Y-90150000D01*
X118005000Y-90150000D02*
X124230000Y-90150000D01*
X127110000Y-90110000D02*
X133360000Y-90110000D01*
X117980000Y-90110000D02*
X124230000Y-90110000D01*
X127110000Y-90070000D02*
X133385000Y-90070000D01*
X117955000Y-90070000D02*
X124230000Y-90070000D01*
X127110000Y-90030000D02*
X133410000Y-90030000D01*
X117930000Y-90030000D02*
X124230000Y-90030000D01*
X127110000Y-89990000D02*
X133434000Y-89990000D01*
X117906000Y-89990000D02*
X124230000Y-89990000D01*
X127110000Y-89950000D02*
X133458000Y-89950000D01*
X117882000Y-89950000D02*
X124230000Y-89950000D01*
X127110000Y-89910000D02*
X133482000Y-89910000D01*
X117858000Y-89910000D02*
X124230000Y-89910000D01*
X127110000Y-89870000D02*
X133505000Y-89870000D01*
X117835000Y-89870000D02*
X124230000Y-89870000D01*
X127110000Y-89830000D02*
X133529000Y-89830000D01*
X117811000Y-89830000D02*
X124230000Y-89830000D01*
X127110000Y-89790000D02*
X133552000Y-89790000D01*
X117788000Y-89790000D02*
X124230000Y-89790000D01*
X127110000Y-89750000D02*
X133574000Y-89750000D01*
X117766000Y-89750000D02*
X124230000Y-89750000D01*
X127110000Y-89710000D02*
X133597000Y-89710000D01*
X117743000Y-89710000D02*
X124230000Y-89710000D01*
X127110000Y-89670000D02*
X133619000Y-89670000D01*
X117721000Y-89670000D02*
X124230000Y-89670000D01*
X127110000Y-89630000D02*
X133641000Y-89630000D01*
X117699000Y-89630000D02*
X124230000Y-89630000D01*
X127110000Y-89590000D02*
X133662000Y-89590000D01*
X117678000Y-89590000D02*
X124230000Y-89590000D01*
X127110000Y-89550000D02*
X133684000Y-89550000D01*
X117656000Y-89550000D02*
X124230000Y-89550000D01*
X127110000Y-89510000D02*
X133705000Y-89510000D01*
X117635000Y-89510000D02*
X124230000Y-89510000D01*
X127110000Y-89470000D02*
X133726000Y-89470000D01*
X117614000Y-89470000D02*
X124230000Y-89470000D01*
X127110000Y-89430000D02*
X133746000Y-89430000D01*
X117594000Y-89430000D02*
X124230000Y-89430000D01*
X127110000Y-89390000D02*
X133767000Y-89390000D01*
X117573000Y-89390000D02*
X124230000Y-89390000D01*
X127110000Y-89350000D02*
X133787000Y-89350000D01*
X117553000Y-89350000D02*
X124230000Y-89350000D01*
X127110000Y-89310000D02*
X133807000Y-89310000D01*
X117533000Y-89310000D02*
X124230000Y-89310000D01*
X127110000Y-89270000D02*
X133826000Y-89270000D01*
X117514000Y-89270000D02*
X124230000Y-89270000D01*
X127110000Y-89230000D02*
X133846000Y-89230000D01*
X117494000Y-89230000D02*
X124230000Y-89230000D01*
X127110000Y-89190000D02*
X133865000Y-89190000D01*
X117475000Y-89190000D02*
X124230000Y-89190000D01*
X127110000Y-89150000D02*
X133884000Y-89150000D01*
X117456000Y-89150000D02*
X124230000Y-89150000D01*
X127110000Y-89110000D02*
X133903000Y-89110000D01*
X117437000Y-89110000D02*
X124230000Y-89110000D01*
X127110000Y-89070000D02*
X133921000Y-89070000D01*
X117419000Y-89070000D02*
X124230000Y-89070000D01*
X127110000Y-89030000D02*
X133939000Y-89030000D01*
X117401000Y-89030000D02*
X124230000Y-89030000D01*
X127110000Y-88990000D02*
X133957000Y-88990000D01*
X117383000Y-88990000D02*
X124230000Y-88990000D01*
X127110000Y-88950000D02*
X133975000Y-88950000D01*
X117365000Y-88950000D02*
X124230000Y-88950000D01*
X127110000Y-88910000D02*
X133993000Y-88910000D01*
X117347000Y-88910000D02*
X124230000Y-88910000D01*
X127110000Y-88870000D02*
X134010000Y-88870000D01*
X117330000Y-88870000D02*
X124230000Y-88870000D01*
X127110000Y-88830000D02*
X134027000Y-88830000D01*
X117313000Y-88830000D02*
X124230000Y-88830000D01*
X127110000Y-88790000D02*
X134044000Y-88790000D01*
X117296000Y-88790000D02*
X124230000Y-88790000D01*
X127110000Y-88750000D02*
X134060000Y-88750000D01*
X117280000Y-88750000D02*
X124230000Y-88750000D01*
X127110000Y-88710000D02*
X134077000Y-88710000D01*
X117263000Y-88710000D02*
X124230000Y-88710000D01*
X127110000Y-88670000D02*
X134093000Y-88670000D01*
X117247000Y-88670000D02*
X124230000Y-88670000D01*
X127110000Y-88630000D02*
X134109000Y-88630000D01*
X117231000Y-88630000D02*
X124230000Y-88630000D01*
X127110000Y-88590000D02*
X134125000Y-88590000D01*
X117215000Y-88590000D02*
X124230000Y-88590000D01*
X127110000Y-88550000D02*
X134140000Y-88550000D01*
X117200000Y-88550000D02*
X124230000Y-88550000D01*
X127110000Y-88510000D02*
X134156000Y-88510000D01*
X117184000Y-88510000D02*
X124230000Y-88510000D01*
X127110000Y-88470000D02*
X134171000Y-88470000D01*
X117169000Y-88470000D02*
X124230000Y-88470000D01*
X127110000Y-88430000D02*
X134186000Y-88430000D01*
X117154000Y-88430000D02*
X124230000Y-88430000D01*
X127110000Y-88390000D02*
X134200000Y-88390000D01*
X117140000Y-88390000D02*
X124230000Y-88390000D01*
X127110000Y-88350000D02*
X134215000Y-88350000D01*
X117125000Y-88350000D02*
X124230000Y-88350000D01*
X127110000Y-88310000D02*
X134229000Y-88310000D01*
X117111000Y-88310000D02*
X124230000Y-88310000D01*
X127110000Y-88270000D02*
X134243000Y-88270000D01*
X117097000Y-88270000D02*
X124230000Y-88270000D01*
X127110000Y-88230000D02*
X134257000Y-88230000D01*
X117083000Y-88230000D02*
X124230000Y-88230000D01*
X127110000Y-88190000D02*
X134270000Y-88190000D01*
X117070000Y-88190000D02*
X124230000Y-88190000D01*
X127110000Y-88150000D02*
X134284000Y-88150000D01*
X117056000Y-88150000D02*
X124230000Y-88150000D01*
X127110000Y-88110000D02*
X134297000Y-88110000D01*
X117043000Y-88110000D02*
X124230000Y-88110000D01*
X127110000Y-88070000D02*
X134310000Y-88070000D01*
X117030000Y-88070000D02*
X124230000Y-88070000D01*
X127110000Y-88030000D02*
X134323000Y-88030000D01*
X117017000Y-88030000D02*
X124230000Y-88030000D01*
X127110000Y-87990000D02*
X134335000Y-87990000D01*
X117005000Y-87990000D02*
X124230000Y-87990000D01*
X127110000Y-87950000D02*
X134348000Y-87950000D01*
X116992000Y-87950000D02*
X124230000Y-87950000D01*
X127110000Y-87910000D02*
X134360000Y-87910000D01*
X116980000Y-87910000D02*
X124230000Y-87910000D01*
X127110000Y-87870000D02*
X134372000Y-87870000D01*
X116968000Y-87870000D02*
X124230000Y-87870000D01*
X127110000Y-87830000D02*
X134384000Y-87830000D01*
X116956000Y-87830000D02*
X124230000Y-87830000D01*
X127110000Y-87790000D02*
X134395000Y-87790000D01*
X116945000Y-87790000D02*
X124230000Y-87790000D01*
X127110000Y-87750000D02*
X134407000Y-87750000D01*
X116933000Y-87750000D02*
X124230000Y-87750000D01*
X127110000Y-87710000D02*
X134418000Y-87710000D01*
X116922000Y-87710000D02*
X124230000Y-87710000D01*
X127110000Y-87670000D02*
X134429000Y-87670000D01*
X116911000Y-87670000D02*
X124230000Y-87670000D01*
X127110000Y-87630000D02*
X134440000Y-87630000D01*
X116900000Y-87630000D02*
X124230000Y-87630000D01*
X127110000Y-87590000D02*
X134450000Y-87590000D01*
X116890000Y-87590000D02*
X124230000Y-87590000D01*
X116879000Y-87550000D02*
X134461000Y-87550000D01*
X116869000Y-87510000D02*
X134471000Y-87510000D01*
X116859000Y-87470000D02*
X134481000Y-87470000D01*
X116849000Y-87430000D02*
X134491000Y-87430000D01*
X116839000Y-87390000D02*
X134501000Y-87390000D01*
X116830000Y-87350000D02*
X134510000Y-87350000D01*
X116821000Y-87310000D02*
X134519000Y-87310000D01*
X116812000Y-87270000D02*
X134528000Y-87270000D01*
X116803000Y-87230000D02*
X134537000Y-87230000D01*
X116794000Y-87190000D02*
X134546000Y-87190000D01*
X116785000Y-87150000D02*
X134555000Y-87150000D01*
X116777000Y-87110000D02*
X134563000Y-87110000D01*
X116769000Y-87070000D02*
X134571000Y-87070000D01*
X116761000Y-87030000D02*
X134579000Y-87030000D01*
X116753000Y-86990000D02*
X134587000Y-86990000D01*
X116746000Y-86950000D02*
X134594000Y-86950000D01*
X116738000Y-86910000D02*
X134602000Y-86910000D01*
X116731000Y-86870000D02*
X134609000Y-86870000D01*
X116724000Y-86830000D02*
X134616000Y-86830000D01*
X116717000Y-86790000D02*
X134623000Y-86790000D01*
X116710000Y-86750000D02*
X134630000Y-86750000D01*
X116704000Y-86710000D02*
X134636000Y-86710000D01*
X116698000Y-86670000D02*
X134642000Y-86670000D01*
X116691000Y-86630000D02*
X134649000Y-86630000D01*
X116686000Y-86590000D02*
X134654000Y-86590000D01*
X116680000Y-86550000D02*
X134660000Y-86550000D01*
X116674000Y-86510000D02*
X134666000Y-86510000D01*
X116669000Y-86470000D02*
X134671000Y-86470000D01*
X116664000Y-86430000D02*
X134676000Y-86430000D01*
X116659000Y-86390000D02*
X134681000Y-86390000D01*
X116654000Y-86350000D02*
X134686000Y-86350000D01*
X116649000Y-86310000D02*
X134691000Y-86310000D01*
X116644000Y-86270000D02*
X134696000Y-86270000D01*
X116640000Y-86230000D02*
X134700000Y-86230000D01*
X116636000Y-86190000D02*
X134704000Y-86190000D01*
X116632000Y-86150000D02*
X134708000Y-86150000D01*
X116628000Y-86110000D02*
X134712000Y-86110000D01*
X116625000Y-86070000D02*
X134715000Y-86070000D01*
X116621000Y-86030000D02*
X134719000Y-86030000D01*
X116618000Y-85990000D02*
X134722000Y-85990000D01*
X116615000Y-85949000D02*
X134725000Y-85949000D01*
X116612000Y-85909000D02*
X134728000Y-85909000D01*
X116609000Y-85869000D02*
X134731000Y-85869000D01*
X116607000Y-85829000D02*
X134733000Y-85829000D01*
X116604000Y-85789000D02*
X134736000Y-85789000D01*
X116602000Y-85749000D02*
X134738000Y-85749000D01*
X116600000Y-85709000D02*
X134740000Y-85709000D01*
X116598000Y-85669000D02*
X134742000Y-85669000D01*
X116597000Y-85629000D02*
X134743000Y-85629000D01*
X116595000Y-85589000D02*
X134745000Y-85589000D01*
X116594000Y-85549000D02*
X134746000Y-85549000D01*
X116593000Y-85509000D02*
X134747000Y-85509000D01*
X116592000Y-85469000D02*
X134748000Y-85469000D01*
X116591000Y-85429000D02*
X134749000Y-85429000D01*
X116590000Y-85389000D02*
X134750000Y-85389000D01*
X116590000Y-85349000D02*
X134750000Y-85349000D01*
X116590000Y-85309000D02*
X134750000Y-85309000D01*
X116589000Y-85269000D02*
X134751000Y-85269000D01*
X134790000Y-85269000D02*
G75*
G03X134790000Y-85269000I-9120000J0D01*
G01*
G04 #@! TO.C,J1*
X87025000Y-144024000D02*
X87025000Y-144624000D01*
X85425000Y-144024000D02*
X87025000Y-144024000D01*
X85425000Y-144624000D02*
X85425000Y-144024000D01*
X84485000Y-144024000D02*
X84485000Y-144624000D01*
X82885000Y-144024000D02*
X84485000Y-144024000D01*
X82885000Y-144624000D02*
X82885000Y-144024000D01*
X81945000Y-144024000D02*
X81945000Y-144624000D01*
X80345000Y-144024000D02*
X81945000Y-144024000D01*
X80345000Y-144624000D02*
X80345000Y-144024000D01*
X79405000Y-144024000D02*
X79405000Y-144624000D01*
X77805000Y-144024000D02*
X79405000Y-144024000D01*
X77805000Y-144624000D02*
X77805000Y-144024000D01*
X76865000Y-144024000D02*
X76865000Y-144624000D01*
X75265000Y-144024000D02*
X76865000Y-144024000D01*
X75265000Y-144624000D02*
X75265000Y-144024000D01*
X85975000Y-138604000D02*
X85975000Y-139604000D01*
X76315000Y-138604000D02*
X76315000Y-139604000D01*
X85975000Y-140134000D02*
X86225000Y-139604000D01*
X76315000Y-140134000D02*
X85975000Y-140134000D01*
X76065000Y-139604000D02*
X76315000Y-140134000D01*
X86225000Y-139604000D02*
X86225000Y-138604000D01*
X76065000Y-139604000D02*
X86225000Y-139604000D01*
X76065000Y-138604000D02*
X76065000Y-139604000D01*
X74395000Y-143594000D02*
X74395000Y-139594000D01*
X87605000Y-144624000D02*
X74685000Y-144624000D01*
X87605000Y-138604000D02*
X87605000Y-144624000D01*
X74685000Y-138604000D02*
X87605000Y-138604000D01*
X74685000Y-144624000D02*
X74685000Y-138604000D01*
D17*
G04 #@! TO.C,L2*
X137100000Y-76185000D02*
X135068000Y-76185000D01*
X137100000Y-66025000D02*
X137100000Y-76185000D01*
X135068000Y-66025000D02*
X137100000Y-66025000D01*
X129480000Y-66025000D02*
X131512000Y-66025000D01*
X129480000Y-76185000D02*
X129480000Y-66025000D01*
X131512000Y-76185000D02*
X129480000Y-76185000D01*
D13*
G04 #@! TO.C,R23*
X125484000Y-73411064D02*
X125484000Y-69306936D01*
X128904000Y-73411064D02*
X128904000Y-69306936D01*
G04 #@! TO.C,J4*
X102265000Y-144024000D02*
X102265000Y-144624000D01*
X100665000Y-144024000D02*
X102265000Y-144024000D01*
X100665000Y-144624000D02*
X100665000Y-144024000D01*
X99725000Y-144024000D02*
X99725000Y-144624000D01*
X98125000Y-144024000D02*
X99725000Y-144024000D01*
X98125000Y-144624000D02*
X98125000Y-144024000D01*
X97185000Y-144024000D02*
X97185000Y-144624000D01*
X95585000Y-144024000D02*
X97185000Y-144024000D01*
X95585000Y-144624000D02*
X95585000Y-144024000D01*
X94645000Y-144024000D02*
X94645000Y-144624000D01*
X93045000Y-144024000D02*
X94645000Y-144024000D01*
X93045000Y-144624000D02*
X93045000Y-144024000D01*
X92105000Y-144024000D02*
X92105000Y-144624000D01*
X90505000Y-144024000D02*
X92105000Y-144024000D01*
X90505000Y-144624000D02*
X90505000Y-144024000D01*
X101215000Y-138604000D02*
X101215000Y-139604000D01*
X91555000Y-138604000D02*
X91555000Y-139604000D01*
X101215000Y-140134000D02*
X101465000Y-139604000D01*
X91555000Y-140134000D02*
X101215000Y-140134000D01*
X91305000Y-139604000D02*
X91555000Y-140134000D01*
X101465000Y-139604000D02*
X101465000Y-138604000D01*
X91305000Y-139604000D02*
X101465000Y-139604000D01*
X91305000Y-138604000D02*
X91305000Y-139604000D01*
X89635000Y-143594000D02*
X89635000Y-139594000D01*
X102845000Y-144624000D02*
X89925000Y-144624000D01*
X102845000Y-138604000D02*
X102845000Y-144624000D01*
X89925000Y-138604000D02*
X102845000Y-138604000D01*
X89925000Y-144624000D02*
X89925000Y-138604000D01*
G04 #@! TO.C,C1*
X90405000Y-91934000D02*
G75*
G03X90405000Y-91934000I-5120000J0D01*
G01*
X80205000Y-91934000D02*
X90365000Y-91934000D01*
X80205000Y-91974000D02*
X90365000Y-91974000D01*
X80205000Y-92014000D02*
X90365000Y-92014000D01*
X80206000Y-92054000D02*
X90364000Y-92054000D01*
X80207000Y-92094000D02*
X90363000Y-92094000D01*
X80208000Y-92134000D02*
X90362000Y-92134000D01*
X80210000Y-92174000D02*
X90360000Y-92174000D01*
X80212000Y-92214000D02*
X90358000Y-92214000D01*
X80215000Y-92254000D02*
X90355000Y-92254000D01*
X80217000Y-92294000D02*
X90353000Y-92294000D01*
X80220000Y-92334000D02*
X90350000Y-92334000D01*
X80223000Y-92374000D02*
X90347000Y-92374000D01*
X80227000Y-92414000D02*
X90343000Y-92414000D01*
X80231000Y-92454000D02*
X90339000Y-92454000D01*
X80235000Y-92494000D02*
X90335000Y-92494000D01*
X80240000Y-92534000D02*
X90330000Y-92534000D01*
X80245000Y-92574000D02*
X90325000Y-92574000D01*
X80250000Y-92614000D02*
X90320000Y-92614000D01*
X80255000Y-92655000D02*
X90315000Y-92655000D01*
X80261000Y-92695000D02*
X90309000Y-92695000D01*
X80267000Y-92735000D02*
X90303000Y-92735000D01*
X80274000Y-92775000D02*
X90296000Y-92775000D01*
X80281000Y-92815000D02*
X90289000Y-92815000D01*
X80288000Y-92855000D02*
X90282000Y-92855000D01*
X80295000Y-92895000D02*
X90275000Y-92895000D01*
X80303000Y-92935000D02*
X90267000Y-92935000D01*
X80311000Y-92975000D02*
X90259000Y-92975000D01*
X80320000Y-93015000D02*
X90250000Y-93015000D01*
X80329000Y-93055000D02*
X90241000Y-93055000D01*
X80338000Y-93095000D02*
X90232000Y-93095000D01*
X80347000Y-93135000D02*
X90223000Y-93135000D01*
X80357000Y-93175000D02*
X90213000Y-93175000D01*
X80367000Y-93215000D02*
X84044000Y-93215000D01*
X86526000Y-93215000D02*
X90203000Y-93215000D01*
X80378000Y-93255000D02*
X84044000Y-93255000D01*
X86526000Y-93255000D02*
X90192000Y-93255000D01*
X80388000Y-93295000D02*
X84044000Y-93295000D01*
X86526000Y-93295000D02*
X90182000Y-93295000D01*
X80400000Y-93335000D02*
X84044000Y-93335000D01*
X86526000Y-93335000D02*
X90170000Y-93335000D01*
X80411000Y-93375000D02*
X84044000Y-93375000D01*
X86526000Y-93375000D02*
X90159000Y-93375000D01*
X80423000Y-93415000D02*
X84044000Y-93415000D01*
X86526000Y-93415000D02*
X90147000Y-93415000D01*
X80435000Y-93455000D02*
X84044000Y-93455000D01*
X86526000Y-93455000D02*
X90135000Y-93455000D01*
X80448000Y-93495000D02*
X84044000Y-93495000D01*
X86526000Y-93495000D02*
X90122000Y-93495000D01*
X80461000Y-93535000D02*
X84044000Y-93535000D01*
X86526000Y-93535000D02*
X90109000Y-93535000D01*
X80474000Y-93575000D02*
X84044000Y-93575000D01*
X86526000Y-93575000D02*
X90096000Y-93575000D01*
X80488000Y-93615000D02*
X84044000Y-93615000D01*
X86526000Y-93615000D02*
X90082000Y-93615000D01*
X80502000Y-93655000D02*
X84044000Y-93655000D01*
X86526000Y-93655000D02*
X90068000Y-93655000D01*
X80517000Y-93695000D02*
X84044000Y-93695000D01*
X86526000Y-93695000D02*
X90053000Y-93695000D01*
X80531000Y-93735000D02*
X84044000Y-93735000D01*
X86526000Y-93735000D02*
X90039000Y-93735000D01*
X80547000Y-93775000D02*
X84044000Y-93775000D01*
X86526000Y-93775000D02*
X90023000Y-93775000D01*
X80562000Y-93815000D02*
X84044000Y-93815000D01*
X86526000Y-93815000D02*
X90008000Y-93815000D01*
X80578000Y-93855000D02*
X84044000Y-93855000D01*
X86526000Y-93855000D02*
X89992000Y-93855000D01*
X80595000Y-93895000D02*
X84044000Y-93895000D01*
X86526000Y-93895000D02*
X89975000Y-93895000D01*
X80611000Y-93935000D02*
X84044000Y-93935000D01*
X86526000Y-93935000D02*
X89959000Y-93935000D01*
X80628000Y-93975000D02*
X84044000Y-93975000D01*
X86526000Y-93975000D02*
X89942000Y-93975000D01*
X80646000Y-94015000D02*
X84044000Y-94015000D01*
X86526000Y-94015000D02*
X89924000Y-94015000D01*
X80664000Y-94055000D02*
X84044000Y-94055000D01*
X86526000Y-94055000D02*
X89906000Y-94055000D01*
X80682000Y-94095000D02*
X84044000Y-94095000D01*
X86526000Y-94095000D02*
X89888000Y-94095000D01*
X80701000Y-94135000D02*
X84044000Y-94135000D01*
X86526000Y-94135000D02*
X89869000Y-94135000D01*
X80721000Y-94175000D02*
X84044000Y-94175000D01*
X86526000Y-94175000D02*
X89849000Y-94175000D01*
X80740000Y-94215000D02*
X84044000Y-94215000D01*
X86526000Y-94215000D02*
X89830000Y-94215000D01*
X80760000Y-94255000D02*
X84044000Y-94255000D01*
X86526000Y-94255000D02*
X89810000Y-94255000D01*
X80781000Y-94295000D02*
X84044000Y-94295000D01*
X86526000Y-94295000D02*
X89789000Y-94295000D01*
X80802000Y-94335000D02*
X84044000Y-94335000D01*
X86526000Y-94335000D02*
X89768000Y-94335000D01*
X80823000Y-94375000D02*
X84044000Y-94375000D01*
X86526000Y-94375000D02*
X89747000Y-94375000D01*
X80845000Y-94415000D02*
X84044000Y-94415000D01*
X86526000Y-94415000D02*
X89725000Y-94415000D01*
X80868000Y-94455000D02*
X84044000Y-94455000D01*
X86526000Y-94455000D02*
X89702000Y-94455000D01*
X80890000Y-94495000D02*
X84044000Y-94495000D01*
X86526000Y-94495000D02*
X89680000Y-94495000D01*
X80914000Y-94535000D02*
X84044000Y-94535000D01*
X86526000Y-94535000D02*
X89656000Y-94535000D01*
X80938000Y-94575000D02*
X84044000Y-94575000D01*
X86526000Y-94575000D02*
X89632000Y-94575000D01*
X80962000Y-94615000D02*
X84044000Y-94615000D01*
X86526000Y-94615000D02*
X89608000Y-94615000D01*
X80987000Y-94655000D02*
X84044000Y-94655000D01*
X86526000Y-94655000D02*
X89583000Y-94655000D01*
X81012000Y-94695000D02*
X84044000Y-94695000D01*
X86526000Y-94695000D02*
X89558000Y-94695000D01*
X81038000Y-94735000D02*
X84044000Y-94735000D01*
X86526000Y-94735000D02*
X89532000Y-94735000D01*
X81064000Y-94775000D02*
X84044000Y-94775000D01*
X86526000Y-94775000D02*
X89506000Y-94775000D01*
X81091000Y-94815000D02*
X84044000Y-94815000D01*
X86526000Y-94815000D02*
X89479000Y-94815000D01*
X81119000Y-94855000D02*
X84044000Y-94855000D01*
X86526000Y-94855000D02*
X89451000Y-94855000D01*
X81147000Y-94895000D02*
X84044000Y-94895000D01*
X86526000Y-94895000D02*
X89423000Y-94895000D01*
X81175000Y-94935000D02*
X84044000Y-94935000D01*
X86526000Y-94935000D02*
X89395000Y-94935000D01*
X81205000Y-94975000D02*
X84044000Y-94975000D01*
X86526000Y-94975000D02*
X89365000Y-94975000D01*
X81235000Y-95015000D02*
X84044000Y-95015000D01*
X86526000Y-95015000D02*
X89335000Y-95015000D01*
X81265000Y-95055000D02*
X84044000Y-95055000D01*
X86526000Y-95055000D02*
X89305000Y-95055000D01*
X81296000Y-95095000D02*
X84044000Y-95095000D01*
X86526000Y-95095000D02*
X89274000Y-95095000D01*
X81328000Y-95135000D02*
X84044000Y-95135000D01*
X86526000Y-95135000D02*
X89242000Y-95135000D01*
X81360000Y-95175000D02*
X84044000Y-95175000D01*
X86526000Y-95175000D02*
X89210000Y-95175000D01*
X81393000Y-95215000D02*
X84044000Y-95215000D01*
X86526000Y-95215000D02*
X89177000Y-95215000D01*
X81427000Y-95255000D02*
X84044000Y-95255000D01*
X86526000Y-95255000D02*
X89143000Y-95255000D01*
X81461000Y-95295000D02*
X84044000Y-95295000D01*
X86526000Y-95295000D02*
X89109000Y-95295000D01*
X81496000Y-95335000D02*
X84044000Y-95335000D01*
X86526000Y-95335000D02*
X89074000Y-95335000D01*
X81532000Y-95375000D02*
X84044000Y-95375000D01*
X86526000Y-95375000D02*
X89038000Y-95375000D01*
X81569000Y-95415000D02*
X84044000Y-95415000D01*
X86526000Y-95415000D02*
X89001000Y-95415000D01*
X81606000Y-95455000D02*
X84044000Y-95455000D01*
X86526000Y-95455000D02*
X88964000Y-95455000D01*
X81645000Y-95495000D02*
X84044000Y-95495000D01*
X86526000Y-95495000D02*
X88925000Y-95495000D01*
X81684000Y-95535000D02*
X84044000Y-95535000D01*
X86526000Y-95535000D02*
X88886000Y-95535000D01*
X81724000Y-95575000D02*
X84044000Y-95575000D01*
X86526000Y-95575000D02*
X88846000Y-95575000D01*
X81765000Y-95615000D02*
X84044000Y-95615000D01*
X86526000Y-95615000D02*
X88805000Y-95615000D01*
X81807000Y-95655000D02*
X84044000Y-95655000D01*
X86526000Y-95655000D02*
X88763000Y-95655000D01*
X81849000Y-95695000D02*
X88721000Y-95695000D01*
X81893000Y-95735000D02*
X88677000Y-95735000D01*
X81938000Y-95775000D02*
X88632000Y-95775000D01*
X81984000Y-95815000D02*
X88586000Y-95815000D01*
X82031000Y-95855000D02*
X88539000Y-95855000D01*
X82079000Y-95895000D02*
X88491000Y-95895000D01*
X82129000Y-95935000D02*
X88441000Y-95935000D01*
X82179000Y-95975000D02*
X88391000Y-95975000D01*
X82231000Y-96015000D02*
X88339000Y-96015000D01*
X82285000Y-96055000D02*
X88285000Y-96055000D01*
X82340000Y-96095000D02*
X88230000Y-96095000D01*
X82396000Y-96135000D02*
X88174000Y-96135000D01*
X82455000Y-96175000D02*
X88115000Y-96175000D01*
X82515000Y-96215000D02*
X88055000Y-96215000D01*
X82576000Y-96255000D02*
X87994000Y-96255000D01*
X82640000Y-96295000D02*
X87930000Y-96295000D01*
X82706000Y-96335000D02*
X87864000Y-96335000D01*
X82775000Y-96375000D02*
X87795000Y-96375000D01*
X82846000Y-96415000D02*
X87724000Y-96415000D01*
X82920000Y-96455000D02*
X87650000Y-96455000D01*
X82996000Y-96495000D02*
X87574000Y-96495000D01*
X83076000Y-96535000D02*
X87494000Y-96535000D01*
X83160000Y-96575000D02*
X87410000Y-96575000D01*
X83248000Y-96615000D02*
X87322000Y-96615000D01*
X83341000Y-96655000D02*
X87229000Y-96655000D01*
X83439000Y-96695000D02*
X87131000Y-96695000D01*
X83543000Y-96735000D02*
X87027000Y-96735000D01*
X83655000Y-96775000D02*
X86915000Y-96775000D01*
X83775000Y-96815000D02*
X86795000Y-96815000D01*
X83907000Y-96855000D02*
X86663000Y-96855000D01*
X84055000Y-96895000D02*
X86515000Y-96895000D01*
X84223000Y-96935000D02*
X86347000Y-96935000D01*
X84423000Y-96975000D02*
X86147000Y-96975000D01*
X84686000Y-97015000D02*
X85884000Y-97015000D01*
X82410000Y-86454354D02*
X82410000Y-87454354D01*
X81910000Y-86954354D02*
X82910000Y-86954354D01*
G04 #@! TO.C,C2*
X134850000Y-56881000D02*
G75*
G03X134850000Y-56881000I-9120000J0D01*
G01*
X125730000Y-47800000D02*
X125730000Y-65962000D01*
X125690000Y-47801000D02*
X125690000Y-65961000D01*
X125650000Y-47801000D02*
X125650000Y-65961000D01*
X125610000Y-47801000D02*
X125610000Y-65961000D01*
X125570000Y-47802000D02*
X125570000Y-65960000D01*
X125530000Y-47803000D02*
X125530000Y-65959000D01*
X125490000Y-47804000D02*
X125490000Y-65958000D01*
X125450000Y-47805000D02*
X125450000Y-65957000D01*
X125410000Y-47806000D02*
X125410000Y-65956000D01*
X125370000Y-47808000D02*
X125370000Y-65954000D01*
X125330000Y-47809000D02*
X125330000Y-65953000D01*
X125290000Y-47811000D02*
X125290000Y-65951000D01*
X125250000Y-47813000D02*
X125250000Y-65949000D01*
X125210000Y-47815000D02*
X125210000Y-65947000D01*
X125170000Y-47818000D02*
X125170000Y-65944000D01*
X125130000Y-47820000D02*
X125130000Y-65942000D01*
X125090000Y-47823000D02*
X125090000Y-65939000D01*
X125050000Y-47826000D02*
X125050000Y-65936000D01*
X125009000Y-47829000D02*
X125009000Y-65933000D01*
X124969000Y-47832000D02*
X124969000Y-65930000D01*
X124929000Y-47836000D02*
X124929000Y-65926000D01*
X124889000Y-47839000D02*
X124889000Y-65923000D01*
X124849000Y-47843000D02*
X124849000Y-65919000D01*
X124809000Y-47847000D02*
X124809000Y-65915000D01*
X124769000Y-47851000D02*
X124769000Y-65911000D01*
X124729000Y-47855000D02*
X124729000Y-65907000D01*
X124689000Y-47860000D02*
X124689000Y-65902000D01*
X124649000Y-47865000D02*
X124649000Y-65897000D01*
X124609000Y-47870000D02*
X124609000Y-65892000D01*
X124569000Y-47875000D02*
X124569000Y-65887000D01*
X124529000Y-47880000D02*
X124529000Y-65882000D01*
X124489000Y-47885000D02*
X124489000Y-65877000D01*
X124449000Y-47891000D02*
X124449000Y-65871000D01*
X124409000Y-47897000D02*
X124409000Y-65865000D01*
X124369000Y-47902000D02*
X124369000Y-65860000D01*
X124329000Y-47909000D02*
X124329000Y-65853000D01*
X124289000Y-47915000D02*
X124289000Y-65847000D01*
X124249000Y-47921000D02*
X124249000Y-65841000D01*
X124209000Y-47928000D02*
X124209000Y-65834000D01*
X124169000Y-47935000D02*
X124169000Y-65827000D01*
X124129000Y-47942000D02*
X124129000Y-65820000D01*
X124089000Y-47949000D02*
X124089000Y-65813000D01*
X124049000Y-47957000D02*
X124049000Y-65805000D01*
X124009000Y-47964000D02*
X124009000Y-65798000D01*
X123969000Y-47972000D02*
X123969000Y-65790000D01*
X123929000Y-47980000D02*
X123929000Y-65782000D01*
X123889000Y-47988000D02*
X123889000Y-65774000D01*
X123849000Y-47996000D02*
X123849000Y-65766000D01*
X123809000Y-48005000D02*
X123809000Y-65757000D01*
X123769000Y-48014000D02*
X123769000Y-65748000D01*
X123729000Y-48023000D02*
X123729000Y-65739000D01*
X123689000Y-48032000D02*
X123689000Y-65730000D01*
X123649000Y-48041000D02*
X123649000Y-65721000D01*
X123609000Y-48050000D02*
X123609000Y-65712000D01*
X123569000Y-48060000D02*
X123569000Y-65702000D01*
X123529000Y-48070000D02*
X123529000Y-65692000D01*
X123489000Y-48080000D02*
X123489000Y-65682000D01*
X123449000Y-48090000D02*
X123449000Y-65672000D01*
X123409000Y-48101000D02*
X123409000Y-55441000D01*
X123409000Y-58321000D02*
X123409000Y-65661000D01*
X123369000Y-48111000D02*
X123369000Y-55441000D01*
X123369000Y-58321000D02*
X123369000Y-65651000D01*
X123329000Y-48122000D02*
X123329000Y-55441000D01*
X123329000Y-58321000D02*
X123329000Y-65640000D01*
X123289000Y-48133000D02*
X123289000Y-55441000D01*
X123289000Y-58321000D02*
X123289000Y-65629000D01*
X123249000Y-48144000D02*
X123249000Y-55441000D01*
X123249000Y-58321000D02*
X123249000Y-65618000D01*
X123209000Y-48156000D02*
X123209000Y-55441000D01*
X123209000Y-58321000D02*
X123209000Y-65606000D01*
X123169000Y-48167000D02*
X123169000Y-55441000D01*
X123169000Y-58321000D02*
X123169000Y-65595000D01*
X123129000Y-48179000D02*
X123129000Y-55441000D01*
X123129000Y-58321000D02*
X123129000Y-65583000D01*
X123089000Y-48191000D02*
X123089000Y-55441000D01*
X123089000Y-58321000D02*
X123089000Y-65571000D01*
X123049000Y-48203000D02*
X123049000Y-55441000D01*
X123049000Y-58321000D02*
X123049000Y-65559000D01*
X123009000Y-48216000D02*
X123009000Y-55441000D01*
X123009000Y-58321000D02*
X123009000Y-65546000D01*
X122969000Y-48228000D02*
X122969000Y-55441000D01*
X122969000Y-58321000D02*
X122969000Y-65534000D01*
X122929000Y-48241000D02*
X122929000Y-55441000D01*
X122929000Y-58321000D02*
X122929000Y-65521000D01*
X122889000Y-48254000D02*
X122889000Y-55441000D01*
X122889000Y-58321000D02*
X122889000Y-65508000D01*
X122849000Y-48267000D02*
X122849000Y-55441000D01*
X122849000Y-58321000D02*
X122849000Y-65495000D01*
X122809000Y-48281000D02*
X122809000Y-55441000D01*
X122809000Y-58321000D02*
X122809000Y-65481000D01*
X122769000Y-48294000D02*
X122769000Y-55441000D01*
X122769000Y-58321000D02*
X122769000Y-65468000D01*
X122729000Y-48308000D02*
X122729000Y-55441000D01*
X122729000Y-58321000D02*
X122729000Y-65454000D01*
X122689000Y-48322000D02*
X122689000Y-55441000D01*
X122689000Y-58321000D02*
X122689000Y-65440000D01*
X122649000Y-48336000D02*
X122649000Y-55441000D01*
X122649000Y-58321000D02*
X122649000Y-65426000D01*
X122609000Y-48351000D02*
X122609000Y-55441000D01*
X122609000Y-58321000D02*
X122609000Y-65411000D01*
X122569000Y-48365000D02*
X122569000Y-55441000D01*
X122569000Y-58321000D02*
X122569000Y-65397000D01*
X122529000Y-48380000D02*
X122529000Y-55441000D01*
X122529000Y-58321000D02*
X122529000Y-65382000D01*
X122489000Y-48395000D02*
X122489000Y-55441000D01*
X122489000Y-58321000D02*
X122489000Y-65367000D01*
X122449000Y-48411000D02*
X122449000Y-55441000D01*
X122449000Y-58321000D02*
X122449000Y-65351000D01*
X122409000Y-48426000D02*
X122409000Y-55441000D01*
X122409000Y-58321000D02*
X122409000Y-65336000D01*
X122369000Y-48442000D02*
X122369000Y-55441000D01*
X122369000Y-58321000D02*
X122369000Y-65320000D01*
X122329000Y-48458000D02*
X122329000Y-55441000D01*
X122329000Y-58321000D02*
X122329000Y-65304000D01*
X122289000Y-48474000D02*
X122289000Y-55441000D01*
X122289000Y-58321000D02*
X122289000Y-65288000D01*
X122249000Y-48491000D02*
X122249000Y-55441000D01*
X122249000Y-58321000D02*
X122249000Y-65271000D01*
X122209000Y-48507000D02*
X122209000Y-55441000D01*
X122209000Y-58321000D02*
X122209000Y-65255000D01*
X122169000Y-48524000D02*
X122169000Y-55441000D01*
X122169000Y-58321000D02*
X122169000Y-65238000D01*
X122129000Y-48541000D02*
X122129000Y-55441000D01*
X122129000Y-58321000D02*
X122129000Y-65221000D01*
X122089000Y-48558000D02*
X122089000Y-55441000D01*
X122089000Y-58321000D02*
X122089000Y-65204000D01*
X122049000Y-48576000D02*
X122049000Y-55441000D01*
X122049000Y-58321000D02*
X122049000Y-65186000D01*
X122009000Y-48594000D02*
X122009000Y-55441000D01*
X122009000Y-58321000D02*
X122009000Y-65168000D01*
X121969000Y-48612000D02*
X121969000Y-55441000D01*
X121969000Y-58321000D02*
X121969000Y-65150000D01*
X121929000Y-48630000D02*
X121929000Y-55441000D01*
X121929000Y-58321000D02*
X121929000Y-65132000D01*
X121889000Y-48648000D02*
X121889000Y-55441000D01*
X121889000Y-58321000D02*
X121889000Y-65114000D01*
X121849000Y-48667000D02*
X121849000Y-55441000D01*
X121849000Y-58321000D02*
X121849000Y-65095000D01*
X121809000Y-48686000D02*
X121809000Y-55441000D01*
X121809000Y-58321000D02*
X121809000Y-65076000D01*
X121769000Y-48705000D02*
X121769000Y-55441000D01*
X121769000Y-58321000D02*
X121769000Y-65057000D01*
X121729000Y-48725000D02*
X121729000Y-55441000D01*
X121729000Y-58321000D02*
X121729000Y-65037000D01*
X121689000Y-48744000D02*
X121689000Y-55441000D01*
X121689000Y-58321000D02*
X121689000Y-65018000D01*
X121649000Y-48764000D02*
X121649000Y-55441000D01*
X121649000Y-58321000D02*
X121649000Y-64998000D01*
X121609000Y-48784000D02*
X121609000Y-55441000D01*
X121609000Y-58321000D02*
X121609000Y-64978000D01*
X121569000Y-48805000D02*
X121569000Y-55441000D01*
X121569000Y-58321000D02*
X121569000Y-64957000D01*
X121529000Y-48825000D02*
X121529000Y-55441000D01*
X121529000Y-58321000D02*
X121529000Y-64937000D01*
X121489000Y-48846000D02*
X121489000Y-55441000D01*
X121489000Y-58321000D02*
X121489000Y-64916000D01*
X121449000Y-48867000D02*
X121449000Y-55441000D01*
X121449000Y-58321000D02*
X121449000Y-64895000D01*
X121409000Y-48889000D02*
X121409000Y-55441000D01*
X121409000Y-58321000D02*
X121409000Y-64873000D01*
X121369000Y-48910000D02*
X121369000Y-55441000D01*
X121369000Y-58321000D02*
X121369000Y-64852000D01*
X121329000Y-48932000D02*
X121329000Y-55441000D01*
X121329000Y-58321000D02*
X121329000Y-64830000D01*
X121289000Y-48954000D02*
X121289000Y-55441000D01*
X121289000Y-58321000D02*
X121289000Y-64808000D01*
X121249000Y-48977000D02*
X121249000Y-55441000D01*
X121249000Y-58321000D02*
X121249000Y-64785000D01*
X121209000Y-48999000D02*
X121209000Y-55441000D01*
X121209000Y-58321000D02*
X121209000Y-64763000D01*
X121169000Y-49022000D02*
X121169000Y-55441000D01*
X121169000Y-58321000D02*
X121169000Y-64740000D01*
X121129000Y-49046000D02*
X121129000Y-55441000D01*
X121129000Y-58321000D02*
X121129000Y-64716000D01*
X121089000Y-49069000D02*
X121089000Y-55441000D01*
X121089000Y-58321000D02*
X121089000Y-64693000D01*
X121049000Y-49093000D02*
X121049000Y-55441000D01*
X121049000Y-58321000D02*
X121049000Y-64669000D01*
X121009000Y-49117000D02*
X121009000Y-55441000D01*
X121009000Y-58321000D02*
X121009000Y-64645000D01*
X120969000Y-49141000D02*
X120969000Y-55441000D01*
X120969000Y-58321000D02*
X120969000Y-64621000D01*
X120929000Y-49166000D02*
X120929000Y-55441000D01*
X120929000Y-58321000D02*
X120929000Y-64596000D01*
X120889000Y-49191000D02*
X120889000Y-55441000D01*
X120889000Y-58321000D02*
X120889000Y-64571000D01*
X120849000Y-49216000D02*
X120849000Y-55441000D01*
X120849000Y-58321000D02*
X120849000Y-64546000D01*
X120809000Y-49241000D02*
X120809000Y-55441000D01*
X120809000Y-58321000D02*
X120809000Y-64521000D01*
X120769000Y-49267000D02*
X120769000Y-55441000D01*
X120769000Y-58321000D02*
X120769000Y-64495000D01*
X120729000Y-49293000D02*
X120729000Y-55441000D01*
X120729000Y-58321000D02*
X120729000Y-64469000D01*
X120689000Y-49320000D02*
X120689000Y-55441000D01*
X120689000Y-58321000D02*
X120689000Y-64442000D01*
X120649000Y-49346000D02*
X120649000Y-55441000D01*
X120649000Y-58321000D02*
X120649000Y-64416000D01*
X120609000Y-49373000D02*
X120609000Y-55441000D01*
X120609000Y-58321000D02*
X120609000Y-64389000D01*
X120569000Y-49401000D02*
X120569000Y-55441000D01*
X120569000Y-58321000D02*
X120569000Y-64361000D01*
X120529000Y-49428000D02*
X120529000Y-64334000D01*
X120489000Y-49456000D02*
X120489000Y-64306000D01*
X120449000Y-49484000D02*
X120449000Y-64278000D01*
X120409000Y-49513000D02*
X120409000Y-64249000D01*
X120369000Y-49542000D02*
X120369000Y-64220000D01*
X120329000Y-49571000D02*
X120329000Y-64191000D01*
X120289000Y-49601000D02*
X120289000Y-64161000D01*
X120249000Y-49631000D02*
X120249000Y-64131000D01*
X120209000Y-49661000D02*
X120209000Y-64101000D01*
X120169000Y-49691000D02*
X120169000Y-64071000D01*
X120129000Y-49722000D02*
X120129000Y-64040000D01*
X120089000Y-49754000D02*
X120089000Y-64008000D01*
X120049000Y-49785000D02*
X120049000Y-63977000D01*
X120009000Y-49817000D02*
X120009000Y-63945000D01*
X119969000Y-49850000D02*
X119969000Y-63912000D01*
X119929000Y-49882000D02*
X119929000Y-63880000D01*
X119889000Y-49916000D02*
X119889000Y-63846000D01*
X119849000Y-49949000D02*
X119849000Y-63813000D01*
X119809000Y-49983000D02*
X119809000Y-63779000D01*
X119769000Y-50017000D02*
X119769000Y-63745000D01*
X119729000Y-50052000D02*
X119729000Y-63710000D01*
X119689000Y-50087000D02*
X119689000Y-63675000D01*
X119649000Y-50123000D02*
X119649000Y-63639000D01*
X119609000Y-50159000D02*
X119609000Y-63603000D01*
X119569000Y-50195000D02*
X119569000Y-63567000D01*
X119529000Y-50232000D02*
X119529000Y-63530000D01*
X119489000Y-50269000D02*
X119489000Y-63493000D01*
X119449000Y-50307000D02*
X119449000Y-63455000D01*
X119409000Y-50345000D02*
X119409000Y-63417000D01*
X119369000Y-50384000D02*
X119369000Y-63378000D01*
X119329000Y-50423000D02*
X119329000Y-63339000D01*
X119289000Y-50463000D02*
X119289000Y-63299000D01*
X119249000Y-50503000D02*
X119249000Y-63259000D01*
X119209000Y-50544000D02*
X119209000Y-63218000D01*
X119169000Y-50585000D02*
X119169000Y-63177000D01*
X119129000Y-50627000D02*
X119129000Y-63135000D01*
X119089000Y-50669000D02*
X119089000Y-63093000D01*
X119049000Y-50711000D02*
X119049000Y-63051000D01*
X119009000Y-50755000D02*
X119009000Y-63007000D01*
X118969000Y-50799000D02*
X118969000Y-62963000D01*
X118929000Y-50843000D02*
X118929000Y-62919000D01*
X118889000Y-50888000D02*
X118889000Y-62874000D01*
X118849000Y-50934000D02*
X118849000Y-62828000D01*
X118809000Y-50980000D02*
X118809000Y-62782000D01*
X118769000Y-51027000D02*
X118769000Y-62735000D01*
X118729000Y-51075000D02*
X118729000Y-62687000D01*
X118689000Y-51123000D02*
X118689000Y-62639000D01*
X118649000Y-51172000D02*
X118649000Y-62590000D01*
X118609000Y-51221000D02*
X118609000Y-62541000D01*
X118569000Y-51272000D02*
X118569000Y-62490000D01*
X118529000Y-51323000D02*
X118529000Y-62439000D01*
X118489000Y-51375000D02*
X118489000Y-62387000D01*
X118449000Y-51427000D02*
X118449000Y-62335000D01*
X118409000Y-51481000D02*
X118409000Y-62281000D01*
X118369000Y-51535000D02*
X118369000Y-62227000D01*
X118329000Y-51590000D02*
X118329000Y-62172000D01*
X118289000Y-51646000D02*
X118289000Y-62116000D01*
X118249000Y-51703000D02*
X118249000Y-62059000D01*
X118209000Y-51761000D02*
X118209000Y-62001000D01*
X118169000Y-51819000D02*
X118169000Y-61943000D01*
X118129000Y-51879000D02*
X118129000Y-61883000D01*
X118089000Y-51940000D02*
X118089000Y-61822000D01*
X118049000Y-52002000D02*
X118049000Y-61760000D01*
X118009000Y-52065000D02*
X118009000Y-61697000D01*
X117969000Y-52129000D02*
X117969000Y-61633000D01*
X117929000Y-52195000D02*
X117929000Y-61567000D01*
X117889000Y-52261000D02*
X117889000Y-61501000D01*
X117849000Y-52329000D02*
X117849000Y-61433000D01*
X117809000Y-52399000D02*
X117809000Y-61363000D01*
X117769000Y-52469000D02*
X117769000Y-61293000D01*
X117729000Y-52542000D02*
X117729000Y-61220000D01*
X117689000Y-52616000D02*
X117689000Y-61146000D01*
X117649000Y-52691000D02*
X117649000Y-61071000D01*
X117609000Y-52768000D02*
X117609000Y-60994000D01*
X117569000Y-52848000D02*
X117569000Y-60914000D01*
X117530000Y-52929000D02*
X117530000Y-60833000D01*
X117490000Y-53012000D02*
X117490000Y-60750000D01*
X117450000Y-53097000D02*
X117450000Y-60665000D01*
X117410000Y-53185000D02*
X117410000Y-60577000D01*
X117370000Y-53276000D02*
X117370000Y-60486000D01*
X117330000Y-53369000D02*
X117330000Y-60393000D01*
X117290000Y-53465000D02*
X117290000Y-60297000D01*
X117250000Y-53564000D02*
X117250000Y-60198000D01*
X117210000Y-53667000D02*
X117210000Y-60095000D01*
X117170000Y-53774000D02*
X117170000Y-59988000D01*
X117130000Y-53885000D02*
X117130000Y-59877000D01*
X117090000Y-54001000D02*
X117090000Y-59761000D01*
X117050000Y-54122000D02*
X117050000Y-59640000D01*
X117010000Y-54249000D02*
X117010000Y-59513000D01*
X116970000Y-54383000D02*
X116970000Y-59379000D01*
X116930000Y-54526000D02*
X116930000Y-59236000D01*
X116890000Y-54678000D02*
X116890000Y-59084000D01*
X116850000Y-54842000D02*
X116850000Y-58920000D01*
X116810000Y-55021000D02*
X116810000Y-58741000D01*
X116770000Y-55220000D02*
X116770000Y-58542000D01*
X116730000Y-55446000D02*
X116730000Y-58316000D01*
X116690000Y-55715000D02*
X116690000Y-58047000D01*
X116650000Y-56067000D02*
X116650000Y-57695000D01*
X116610000Y-56841000D02*
X116610000Y-56921000D01*
X135489440Y-51766000D02*
X133689440Y-51766000D01*
X134589440Y-50866000D02*
X134589440Y-52666000D01*
D15*
G04 #@! TO.C,G\002A\002A\002A*
G36*
X194485760Y-57276471D02*
X194155843Y-57277057D01*
X193804629Y-57278073D01*
X193647338Y-57278650D01*
X191551858Y-57286816D01*
X191692556Y-57651941D01*
X191753913Y-57813195D01*
X191812867Y-57971683D01*
X191862163Y-58107699D01*
X191891304Y-58191691D01*
X191925901Y-58293198D01*
X191975154Y-58434407D01*
X192032049Y-58595331D01*
X192080730Y-58731441D01*
X192136451Y-58886965D01*
X192188432Y-59033237D01*
X192230521Y-59152872D01*
X192254914Y-59223566D01*
X192279483Y-59295011D01*
X192320833Y-59413679D01*
X192374539Y-59566937D01*
X192436176Y-59742153D01*
X192488460Y-59890316D01*
X192568408Y-60116972D01*
X192659931Y-60377121D01*
X192753727Y-60644284D01*
X192840495Y-60891982D01*
X192873250Y-60985691D01*
X192950596Y-61207022D01*
X193035507Y-61449780D01*
X193119887Y-61690833D01*
X193195641Y-61907050D01*
X193228832Y-62001691D01*
X193301327Y-62209331D01*
X193354036Y-62364270D01*
X193388585Y-62473588D01*
X193406596Y-62544364D01*
X193409694Y-62583680D01*
X193399503Y-62598616D01*
X193377648Y-62596252D01*
X193364074Y-62591285D01*
X193308157Y-62573108D01*
X193207595Y-62544094D01*
X193079290Y-62509034D01*
X193002191Y-62488695D01*
X192850646Y-62449230D01*
X192661867Y-62400062D01*
X192460068Y-62347497D01*
X192271941Y-62298488D01*
X192089725Y-62251317D01*
X191905012Y-62204016D01*
X191738659Y-62161895D01*
X191611523Y-62130266D01*
X191605191Y-62128719D01*
X191464303Y-62093643D01*
X191291436Y-62049594D01*
X191115939Y-62004077D01*
X191049566Y-61986609D01*
X190874515Y-61940488D01*
X190670681Y-61887081D01*
X190470773Y-61834949D01*
X190382816Y-61812115D01*
X190210252Y-61766896D01*
X190003295Y-61711888D01*
X189788747Y-61654254D01*
X189604941Y-61604309D01*
X189316979Y-61526125D01*
X189086413Y-61464992D01*
X188909719Y-61420050D01*
X188783374Y-61390441D01*
X188703851Y-61375303D01*
X188667628Y-61373778D01*
X188665218Y-61375080D01*
X188674636Y-61406231D01*
X188707847Y-61488366D01*
X188761946Y-61614858D01*
X188834027Y-61779077D01*
X188921184Y-61974395D01*
X189020510Y-62194184D01*
X189115417Y-62402009D01*
X189243158Y-62680495D01*
X189379427Y-62977694D01*
X189517643Y-63279240D01*
X189651223Y-63570771D01*
X189773583Y-63837921D01*
X189878142Y-64066326D01*
X189906791Y-64128941D01*
X190006286Y-64346191D01*
X190105408Y-64562197D01*
X190198399Y-64764442D01*
X190279502Y-64940410D01*
X190342958Y-65077585D01*
X190366900Y-65129066D01*
X190475726Y-65362381D01*
X190561371Y-65546108D01*
X190627520Y-65688194D01*
X190677860Y-65796586D01*
X190716078Y-65879231D01*
X190745861Y-65944077D01*
X190770894Y-65999070D01*
X190786656Y-66033941D01*
X190827859Y-66124684D01*
X190877819Y-66233446D01*
X190940809Y-66369446D01*
X191021102Y-66541902D01*
X191122972Y-66760031D01*
X191155712Y-66830052D01*
X191193579Y-66911571D01*
X191254888Y-67044243D01*
X191336615Y-67221498D01*
X191435738Y-67436765D01*
X191549232Y-67683475D01*
X191674074Y-67955058D01*
X191807243Y-68244944D01*
X191945713Y-68546563D01*
X191995785Y-68655677D01*
X192134161Y-68957197D01*
X192267285Y-69247162D01*
X192392290Y-69519330D01*
X192506306Y-69767463D01*
X192606465Y-69985319D01*
X192689899Y-70166657D01*
X192753738Y-70305239D01*
X192795116Y-70394822D01*
X192804689Y-70415441D01*
X192914115Y-70650457D01*
X192999398Y-70834013D01*
X193063311Y-70972161D01*
X193108624Y-71070956D01*
X193138110Y-71136450D01*
X193154540Y-71174697D01*
X193160686Y-71191751D01*
X193160941Y-71193507D01*
X193173963Y-71224820D01*
X193209963Y-71303485D01*
X193264342Y-71419654D01*
X193332505Y-71563477D01*
X193383191Y-71669566D01*
X193458025Y-71826656D01*
X193522113Y-71962990D01*
X193570848Y-72068621D01*
X193599623Y-72133600D01*
X193605441Y-72149393D01*
X193618139Y-72183225D01*
X193652269Y-72261015D01*
X193701887Y-72369428D01*
X193735569Y-72441395D01*
X193803935Y-72587150D01*
X193872639Y-72734940D01*
X193929903Y-72859390D01*
X193944703Y-72891941D01*
X193992174Y-72995491D01*
X194032654Y-73081418D01*
X194051967Y-73120522D01*
X194070274Y-73158961D01*
X194112502Y-73249600D01*
X194176105Y-73386918D01*
X194258535Y-73565394D01*
X194357248Y-73779507D01*
X194469696Y-74023736D01*
X194593332Y-74292560D01*
X194725612Y-74580459D01*
X194791471Y-74723897D01*
X194930908Y-75027623D01*
X195066032Y-75321896D01*
X195193827Y-75600148D01*
X195311273Y-75855811D01*
X195415353Y-76082317D01*
X195503050Y-76273098D01*
X195571345Y-76421586D01*
X195617221Y-76521211D01*
X195627362Y-76543191D01*
X195686735Y-76671935D01*
X195739668Y-76787057D01*
X195777865Y-76870503D01*
X195787825Y-76892441D01*
X195813830Y-76939265D01*
X195825793Y-76940054D01*
X195824040Y-76914830D01*
X195815871Y-76865289D01*
X195799980Y-76785358D01*
X195775061Y-76668966D01*
X195739809Y-76510041D01*
X195692919Y-76302512D01*
X195633085Y-76040305D01*
X195621007Y-75987566D01*
X195574212Y-75782776D01*
X195525339Y-75567991D01*
X195479257Y-75364660D01*
X195440834Y-75194233D01*
X195430066Y-75146191D01*
X195392489Y-74979924D01*
X195346288Y-74778112D01*
X195297498Y-74566993D01*
X195254828Y-74384191D01*
X195211348Y-74197160D01*
X195167099Y-74003546D01*
X195127220Y-73826026D01*
X195096852Y-73687277D01*
X195096513Y-73685691D01*
X195059494Y-73517611D01*
X195016900Y-73331998D01*
X194977694Y-73167874D01*
X194976201Y-73161816D01*
X194942195Y-73020882D01*
X194900703Y-72844323D01*
X194857886Y-72658529D01*
X194831675Y-72542691D01*
X194732325Y-72100617D01*
X194640564Y-71694840D01*
X194550551Y-71299590D01*
X194478922Y-70986941D01*
X194434088Y-70791694D01*
X194388463Y-70593008D01*
X194346537Y-70410429D01*
X194312798Y-70263507D01*
X194303941Y-70224941D01*
X194274092Y-70094660D01*
X194234635Y-69922022D01*
X194190037Y-69726588D01*
X194144764Y-69527921D01*
X194129972Y-69462941D01*
X194083704Y-69259870D01*
X194034859Y-69045894D01*
X193988529Y-68843287D01*
X193949802Y-68674325D01*
X193941328Y-68637441D01*
X193903828Y-68473766D01*
X193858102Y-68273326D01*
X193809884Y-68061302D01*
X193764911Y-67862874D01*
X193764163Y-67859566D01*
X193719705Y-67663819D01*
X193672218Y-67456158D01*
X193627284Y-67260907D01*
X193590482Y-67102391D01*
X193589353Y-67097566D01*
X193552974Y-66940856D01*
X193508292Y-66746510D01*
X193460878Y-66538860D01*
X193416307Y-66342233D01*
X193414803Y-66335566D01*
X193373773Y-66155273D01*
X193332799Y-65978034D01*
X193296209Y-65822403D01*
X193268335Y-65706935D01*
X193264659Y-65692172D01*
X193241509Y-65587489D01*
X193229997Y-65509230D01*
X193232136Y-65475912D01*
X193245964Y-65472986D01*
X193279598Y-65476956D01*
X193338888Y-65489317D01*
X193429686Y-65511566D01*
X193557842Y-65545199D01*
X193729208Y-65591710D01*
X193949633Y-65652596D01*
X194224970Y-65729352D01*
X194240441Y-65733677D01*
X194389572Y-65775055D01*
X194572210Y-65825260D01*
X194760535Y-65876661D01*
X194867504Y-65905664D01*
X195199855Y-65995805D01*
X195571078Y-66097059D01*
X195958915Y-66203347D01*
X196208941Y-66272133D01*
X196366575Y-66315230D01*
X196553242Y-66365762D01*
X196736572Y-66414978D01*
X196796316Y-66430900D01*
X196977753Y-66479820D01*
X197184039Y-66536490D01*
X197379043Y-66590958D01*
X197435953Y-66607093D01*
X197585240Y-66648133D01*
X197725647Y-66684110D01*
X197837276Y-66710049D01*
X197882936Y-66718848D01*
X198007783Y-66738812D01*
X197859535Y-66140314D01*
X197732381Y-65625210D01*
X197592326Y-65054546D01*
X197440906Y-64434598D01*
X197279654Y-63771642D01*
X197193051Y-63414566D01*
X197134461Y-63172893D01*
X197074960Y-62927690D01*
X197018017Y-62693235D01*
X196967100Y-62483807D01*
X196925679Y-62313684D01*
X196907657Y-62239816D01*
X196871540Y-62091864D01*
X196824275Y-61898116D01*
X196769738Y-61674473D01*
X196711809Y-61436837D01*
X196654363Y-61201106D01*
X196640557Y-61144441D01*
X196578858Y-60891459D01*
X196511011Y-60613733D01*
X196442241Y-60332616D01*
X196377770Y-60069462D01*
X196322824Y-59845626D01*
X196320504Y-59836188D01*
X196269557Y-59625870D01*
X196219407Y-59413281D01*
X196173909Y-59215167D01*
X196136919Y-59048275D01*
X196115785Y-58947188D01*
X196082382Y-58781983D01*
X196038476Y-58568937D01*
X195987046Y-58322263D01*
X195931069Y-58056174D01*
X195873523Y-57784882D01*
X195817386Y-57522600D01*
X195815500Y-57513836D01*
X195790561Y-57404224D01*
X195769302Y-57321894D01*
X195756135Y-57283867D01*
X195755755Y-57283420D01*
X195722622Y-57281327D01*
X195631265Y-57279581D01*
X195486959Y-57278193D01*
X195294981Y-57277176D01*
X195060604Y-57276543D01*
X194789106Y-57276303D01*
X194485760Y-57276471D01*
X194485760Y-57276471D01*
G37*
X194485760Y-57276471D02*
X194155843Y-57277057D01*
X193804629Y-57278073D01*
X193647338Y-57278650D01*
X191551858Y-57286816D01*
X191692556Y-57651941D01*
X191753913Y-57813195D01*
X191812867Y-57971683D01*
X191862163Y-58107699D01*
X191891304Y-58191691D01*
X191925901Y-58293198D01*
X191975154Y-58434407D01*
X192032049Y-58595331D01*
X192080730Y-58731441D01*
X192136451Y-58886965D01*
X192188432Y-59033237D01*
X192230521Y-59152872D01*
X192254914Y-59223566D01*
X192279483Y-59295011D01*
X192320833Y-59413679D01*
X192374539Y-59566937D01*
X192436176Y-59742153D01*
X192488460Y-59890316D01*
X192568408Y-60116972D01*
X192659931Y-60377121D01*
X192753727Y-60644284D01*
X192840495Y-60891982D01*
X192873250Y-60985691D01*
X192950596Y-61207022D01*
X193035507Y-61449780D01*
X193119887Y-61690833D01*
X193195641Y-61907050D01*
X193228832Y-62001691D01*
X193301327Y-62209331D01*
X193354036Y-62364270D01*
X193388585Y-62473588D01*
X193406596Y-62544364D01*
X193409694Y-62583680D01*
X193399503Y-62598616D01*
X193377648Y-62596252D01*
X193364074Y-62591285D01*
X193308157Y-62573108D01*
X193207595Y-62544094D01*
X193079290Y-62509034D01*
X193002191Y-62488695D01*
X192850646Y-62449230D01*
X192661867Y-62400062D01*
X192460068Y-62347497D01*
X192271941Y-62298488D01*
X192089725Y-62251317D01*
X191905012Y-62204016D01*
X191738659Y-62161895D01*
X191611523Y-62130266D01*
X191605191Y-62128719D01*
X191464303Y-62093643D01*
X191291436Y-62049594D01*
X191115939Y-62004077D01*
X191049566Y-61986609D01*
X190874515Y-61940488D01*
X190670681Y-61887081D01*
X190470773Y-61834949D01*
X190382816Y-61812115D01*
X190210252Y-61766896D01*
X190003295Y-61711888D01*
X189788747Y-61654254D01*
X189604941Y-61604309D01*
X189316979Y-61526125D01*
X189086413Y-61464992D01*
X188909719Y-61420050D01*
X188783374Y-61390441D01*
X188703851Y-61375303D01*
X188667628Y-61373778D01*
X188665218Y-61375080D01*
X188674636Y-61406231D01*
X188707847Y-61488366D01*
X188761946Y-61614858D01*
X188834027Y-61779077D01*
X188921184Y-61974395D01*
X189020510Y-62194184D01*
X189115417Y-62402009D01*
X189243158Y-62680495D01*
X189379427Y-62977694D01*
X189517643Y-63279240D01*
X189651223Y-63570771D01*
X189773583Y-63837921D01*
X189878142Y-64066326D01*
X189906791Y-64128941D01*
X190006286Y-64346191D01*
X190105408Y-64562197D01*
X190198399Y-64764442D01*
X190279502Y-64940410D01*
X190342958Y-65077585D01*
X190366900Y-65129066D01*
X190475726Y-65362381D01*
X190561371Y-65546108D01*
X190627520Y-65688194D01*
X190677860Y-65796586D01*
X190716078Y-65879231D01*
X190745861Y-65944077D01*
X190770894Y-65999070D01*
X190786656Y-66033941D01*
X190827859Y-66124684D01*
X190877819Y-66233446D01*
X190940809Y-66369446D01*
X191021102Y-66541902D01*
X191122972Y-66760031D01*
X191155712Y-66830052D01*
X191193579Y-66911571D01*
X191254888Y-67044243D01*
X191336615Y-67221498D01*
X191435738Y-67436765D01*
X191549232Y-67683475D01*
X191674074Y-67955058D01*
X191807243Y-68244944D01*
X191945713Y-68546563D01*
X191995785Y-68655677D01*
X192134161Y-68957197D01*
X192267285Y-69247162D01*
X192392290Y-69519330D01*
X192506306Y-69767463D01*
X192606465Y-69985319D01*
X192689899Y-70166657D01*
X192753738Y-70305239D01*
X192795116Y-70394822D01*
X192804689Y-70415441D01*
X192914115Y-70650457D01*
X192999398Y-70834013D01*
X193063311Y-70972161D01*
X193108624Y-71070956D01*
X193138110Y-71136450D01*
X193154540Y-71174697D01*
X193160686Y-71191751D01*
X193160941Y-71193507D01*
X193173963Y-71224820D01*
X193209963Y-71303485D01*
X193264342Y-71419654D01*
X193332505Y-71563477D01*
X193383191Y-71669566D01*
X193458025Y-71826656D01*
X193522113Y-71962990D01*
X193570848Y-72068621D01*
X193599623Y-72133600D01*
X193605441Y-72149393D01*
X193618139Y-72183225D01*
X193652269Y-72261015D01*
X193701887Y-72369428D01*
X193735569Y-72441395D01*
X193803935Y-72587150D01*
X193872639Y-72734940D01*
X193929903Y-72859390D01*
X193944703Y-72891941D01*
X193992174Y-72995491D01*
X194032654Y-73081418D01*
X194051967Y-73120522D01*
X194070274Y-73158961D01*
X194112502Y-73249600D01*
X194176105Y-73386918D01*
X194258535Y-73565394D01*
X194357248Y-73779507D01*
X194469696Y-74023736D01*
X194593332Y-74292560D01*
X194725612Y-74580459D01*
X194791471Y-74723897D01*
X194930908Y-75027623D01*
X195066032Y-75321896D01*
X195193827Y-75600148D01*
X195311273Y-75855811D01*
X195415353Y-76082317D01*
X195503050Y-76273098D01*
X195571345Y-76421586D01*
X195617221Y-76521211D01*
X195627362Y-76543191D01*
X195686735Y-76671935D01*
X195739668Y-76787057D01*
X195777865Y-76870503D01*
X195787825Y-76892441D01*
X195813830Y-76939265D01*
X195825793Y-76940054D01*
X195824040Y-76914830D01*
X195815871Y-76865289D01*
X195799980Y-76785358D01*
X195775061Y-76668966D01*
X195739809Y-76510041D01*
X195692919Y-76302512D01*
X195633085Y-76040305D01*
X195621007Y-75987566D01*
X195574212Y-75782776D01*
X195525339Y-75567991D01*
X195479257Y-75364660D01*
X195440834Y-75194233D01*
X195430066Y-75146191D01*
X195392489Y-74979924D01*
X195346288Y-74778112D01*
X195297498Y-74566993D01*
X195254828Y-74384191D01*
X195211348Y-74197160D01*
X195167099Y-74003546D01*
X195127220Y-73826026D01*
X195096852Y-73687277D01*
X195096513Y-73685691D01*
X195059494Y-73517611D01*
X195016900Y-73331998D01*
X194977694Y-73167874D01*
X194976201Y-73161816D01*
X194942195Y-73020882D01*
X194900703Y-72844323D01*
X194857886Y-72658529D01*
X194831675Y-72542691D01*
X194732325Y-72100617D01*
X194640564Y-71694840D01*
X194550551Y-71299590D01*
X194478922Y-70986941D01*
X194434088Y-70791694D01*
X194388463Y-70593008D01*
X194346537Y-70410429D01*
X194312798Y-70263507D01*
X194303941Y-70224941D01*
X194274092Y-70094660D01*
X194234635Y-69922022D01*
X194190037Y-69726588D01*
X194144764Y-69527921D01*
X194129972Y-69462941D01*
X194083704Y-69259870D01*
X194034859Y-69045894D01*
X193988529Y-68843287D01*
X193949802Y-68674325D01*
X193941328Y-68637441D01*
X193903828Y-68473766D01*
X193858102Y-68273326D01*
X193809884Y-68061302D01*
X193764911Y-67862874D01*
X193764163Y-67859566D01*
X193719705Y-67663819D01*
X193672218Y-67456158D01*
X193627284Y-67260907D01*
X193590482Y-67102391D01*
X193589353Y-67097566D01*
X193552974Y-66940856D01*
X193508292Y-66746510D01*
X193460878Y-66538860D01*
X193416307Y-66342233D01*
X193414803Y-66335566D01*
X193373773Y-66155273D01*
X193332799Y-65978034D01*
X193296209Y-65822403D01*
X193268335Y-65706935D01*
X193264659Y-65692172D01*
X193241509Y-65587489D01*
X193229997Y-65509230D01*
X193232136Y-65475912D01*
X193245964Y-65472986D01*
X193279598Y-65476956D01*
X193338888Y-65489317D01*
X193429686Y-65511566D01*
X193557842Y-65545199D01*
X193729208Y-65591710D01*
X193949633Y-65652596D01*
X194224970Y-65729352D01*
X194240441Y-65733677D01*
X194389572Y-65775055D01*
X194572210Y-65825260D01*
X194760535Y-65876661D01*
X194867504Y-65905664D01*
X195199855Y-65995805D01*
X195571078Y-66097059D01*
X195958915Y-66203347D01*
X196208941Y-66272133D01*
X196366575Y-66315230D01*
X196553242Y-66365762D01*
X196736572Y-66414978D01*
X196796316Y-66430900D01*
X196977753Y-66479820D01*
X197184039Y-66536490D01*
X197379043Y-66590958D01*
X197435953Y-66607093D01*
X197585240Y-66648133D01*
X197725647Y-66684110D01*
X197837276Y-66710049D01*
X197882936Y-66718848D01*
X198007783Y-66738812D01*
X197859535Y-66140314D01*
X197732381Y-65625210D01*
X197592326Y-65054546D01*
X197440906Y-64434598D01*
X197279654Y-63771642D01*
X197193051Y-63414566D01*
X197134461Y-63172893D01*
X197074960Y-62927690D01*
X197018017Y-62693235D01*
X196967100Y-62483807D01*
X196925679Y-62313684D01*
X196907657Y-62239816D01*
X196871540Y-62091864D01*
X196824275Y-61898116D01*
X196769738Y-61674473D01*
X196711809Y-61436837D01*
X196654363Y-61201106D01*
X196640557Y-61144441D01*
X196578858Y-60891459D01*
X196511011Y-60613733D01*
X196442241Y-60332616D01*
X196377770Y-60069462D01*
X196322824Y-59845626D01*
X196320504Y-59836188D01*
X196269557Y-59625870D01*
X196219407Y-59413281D01*
X196173909Y-59215167D01*
X196136919Y-59048275D01*
X196115785Y-58947188D01*
X196082382Y-58781983D01*
X196038476Y-58568937D01*
X195987046Y-58322263D01*
X195931069Y-58056174D01*
X195873523Y-57784882D01*
X195817386Y-57522600D01*
X195815500Y-57513836D01*
X195790561Y-57404224D01*
X195769302Y-57321894D01*
X195756135Y-57283867D01*
X195755755Y-57283420D01*
X195722622Y-57281327D01*
X195631265Y-57279581D01*
X195486959Y-57278193D01*
X195294981Y-57277176D01*
X195060604Y-57276543D01*
X194789106Y-57276303D01*
X194485760Y-57276471D01*
D13*
G04 #@! TO.C,C5*
X97982000Y-48534779D02*
X97982000Y-48209221D01*
X99002000Y-48534779D02*
X99002000Y-48209221D01*
G04 #@! TO.C,J7*
X183269264Y-101285000D02*
X182845000Y-101585000D01*
X183269264Y-101885000D02*
X183269264Y-101285000D01*
X182845000Y-101585000D02*
X183269264Y-101885000D01*
X183305000Y-112615000D02*
X182545000Y-112615000D01*
X183305000Y-111255000D02*
X183305000Y-112615000D01*
X182545000Y-111255000D02*
X183305000Y-111255000D01*
X183305000Y-108475000D02*
X182545000Y-108475000D01*
X183305000Y-107115000D02*
X183305000Y-108475000D01*
X182545000Y-107115000D02*
X183305000Y-107115000D01*
X183305000Y-104335000D02*
X182545000Y-104335000D01*
X183305000Y-102975000D02*
X183305000Y-104335000D01*
X182545000Y-102975000D02*
X183305000Y-102975000D01*
X183305000Y-99990000D02*
X182545000Y-99990000D01*
X183305000Y-98630000D02*
X183305000Y-99990000D01*
X182545000Y-98630000D02*
X183305000Y-98630000D01*
X178035000Y-97330000D02*
X178035000Y-98630000D01*
X181255000Y-97330000D02*
X178035000Y-97330000D01*
X181255000Y-98630000D02*
X181255000Y-97330000D01*
X176745000Y-112820000D02*
X178541698Y-112820000D01*
X176745000Y-98630000D02*
X176745000Y-112820000D01*
X179645000Y-98630000D02*
X176745000Y-98630000D01*
X182545000Y-112820000D02*
X180748302Y-112820000D01*
X182545000Y-98630000D02*
X182545000Y-112820000D01*
X179645000Y-98630000D02*
X182545000Y-98630000D01*
G04 #@! TO.C,J8*
X194885000Y-109425000D02*
X197785000Y-109425000D01*
X197785000Y-109425000D02*
X197785000Y-123615000D01*
X197785000Y-123615000D02*
X195988302Y-123615000D01*
X194885000Y-109425000D02*
X191985000Y-109425000D01*
X191985000Y-109425000D02*
X191985000Y-123615000D01*
X191985000Y-123615000D02*
X193781698Y-123615000D01*
X196495000Y-109425000D02*
X196495000Y-108125000D01*
X196495000Y-108125000D02*
X193275000Y-108125000D01*
X193275000Y-108125000D02*
X193275000Y-109425000D01*
X197785000Y-109425000D02*
X198545000Y-109425000D01*
X198545000Y-109425000D02*
X198545000Y-110785000D01*
X198545000Y-110785000D02*
X197785000Y-110785000D01*
X197785000Y-113770000D02*
X198545000Y-113770000D01*
X198545000Y-113770000D02*
X198545000Y-115130000D01*
X198545000Y-115130000D02*
X197785000Y-115130000D01*
X197785000Y-117910000D02*
X198545000Y-117910000D01*
X198545000Y-117910000D02*
X198545000Y-119270000D01*
X198545000Y-119270000D02*
X197785000Y-119270000D01*
X197785000Y-122050000D02*
X198545000Y-122050000D01*
X198545000Y-122050000D02*
X198545000Y-123410000D01*
X198545000Y-123410000D02*
X197785000Y-123410000D01*
X198085000Y-112380000D02*
X198509264Y-112680000D01*
X198509264Y-112680000D02*
X198509264Y-112080000D01*
X198509264Y-112080000D02*
X198085000Y-112380000D01*
G04 #@! TO.C,R1*
X128442221Y-142354000D02*
X128767779Y-142354000D01*
X128442221Y-143374000D02*
X128767779Y-143374000D01*
G04 #@! TO.C,J2*
D17*
X116691024Y-45579071D02*
X116691024Y-46293357D01*
X116738643Y-46436214D01*
X116833881Y-46531452D01*
X116976738Y-46579071D01*
X117071976Y-46579071D01*
X116262452Y-45674310D02*
X116214833Y-45626691D01*
X116119595Y-45579071D01*
X115881500Y-45579071D01*
X115786262Y-45626691D01*
X115738643Y-45674310D01*
X115691024Y-45769548D01*
X115691024Y-45864786D01*
X115738643Y-46007643D01*
X116310071Y-46579071D01*
X115691024Y-46579071D01*
G04 #@! TO.C,J3*
X132722071Y-116611357D02*
X133436357Y-116611357D01*
X133579214Y-116563738D01*
X133674452Y-116468500D01*
X133722071Y-116325643D01*
X133722071Y-116230405D01*
X132722071Y-116992310D02*
X132722071Y-117611357D01*
X133103024Y-117278024D01*
X133103024Y-117420881D01*
X133150643Y-117516119D01*
X133198262Y-117563738D01*
X133293500Y-117611357D01*
X133531595Y-117611357D01*
X133626833Y-117563738D01*
X133674452Y-117516119D01*
X133722071Y-117420881D01*
X133722071Y-117135167D01*
X133674452Y-117039929D01*
X133626833Y-116992310D01*
G04 #@! TO.C,U5*
X200659904Y-45172380D02*
X200659904Y-45981904D01*
X200612285Y-46077142D01*
X200564666Y-46124761D01*
X200469428Y-46172380D01*
X200278952Y-46172380D01*
X200183714Y-46124761D01*
X200136095Y-46077142D01*
X200088476Y-45981904D01*
X200088476Y-45172380D01*
X199136095Y-45172380D02*
X199612285Y-45172380D01*
X199659904Y-45648571D01*
X199612285Y-45600952D01*
X199517047Y-45553333D01*
X199278952Y-45553333D01*
X199183714Y-45600952D01*
X199136095Y-45648571D01*
X199088476Y-45743809D01*
X199088476Y-45981904D01*
X199136095Y-46077142D01*
X199183714Y-46124761D01*
X199278952Y-46172380D01*
X199517047Y-46172380D01*
X199612285Y-46124761D01*
X199659904Y-46077142D01*
G04 #@! TO.C,J16*
D13*
X67428960Y-61208232D02*
X67428960Y-62209668D01*
X67495722Y-62409955D01*
X67629247Y-62543480D01*
X67829534Y-62610242D01*
X67963059Y-62610242D01*
X66026950Y-62610242D02*
X66828099Y-62610242D01*
X66427524Y-62610242D02*
X66427524Y-61208232D01*
X66561049Y-61408519D01*
X66694574Y-61542044D01*
X66828099Y-61608806D01*
X64825227Y-61208232D02*
X65092277Y-61208232D01*
X65225801Y-61274995D01*
X65292564Y-61341757D01*
X65426089Y-61542044D01*
X65492851Y-61809094D01*
X65492851Y-62343193D01*
X65426089Y-62476717D01*
X65359326Y-62543480D01*
X65225801Y-62610242D01*
X64958752Y-62610242D01*
X64825227Y-62543480D01*
X64758465Y-62476717D01*
X64691702Y-62343193D01*
X64691702Y-62009381D01*
X64758465Y-61875856D01*
X64825227Y-61809094D01*
X64958752Y-61742331D01*
X65225801Y-61742331D01*
X65359326Y-61809094D01*
X65426089Y-61875856D01*
X65492851Y-62009381D01*
D17*
X63659164Y-62476557D02*
X63725905Y-62543298D01*
X63926128Y-62610039D01*
X64059610Y-62610039D01*
X64259833Y-62543298D01*
X64393315Y-62409816D01*
X64460056Y-62276334D01*
X64526797Y-62009370D01*
X64526797Y-61809147D01*
X64460056Y-61542183D01*
X64393315Y-61408701D01*
X64259833Y-61275220D01*
X64059610Y-61208479D01*
X63926128Y-61208479D01*
X63725905Y-61275220D01*
X63659164Y-61341960D01*
X62858273Y-62610039D02*
X62991755Y-62543298D01*
X63058496Y-62476557D01*
X63125237Y-62343075D01*
X63125237Y-61942629D01*
X63058496Y-61809147D01*
X62991755Y-61742406D01*
X62858273Y-61675665D01*
X62658050Y-61675665D01*
X62524568Y-61742406D01*
X62457827Y-61809147D01*
X62391086Y-61942629D01*
X62391086Y-62343075D01*
X62457827Y-62476557D01*
X62524568Y-62543298D01*
X62658050Y-62610039D01*
X62858273Y-62610039D01*
X61790418Y-61675665D02*
X61790418Y-62610039D01*
X61790418Y-61809147D02*
X61723677Y-61742406D01*
X61590195Y-61675665D01*
X61389972Y-61675665D01*
X61256490Y-61742406D01*
X61189749Y-61875888D01*
X61189749Y-62610039D01*
X60522340Y-61675665D02*
X60522340Y-62610039D01*
X60522340Y-61809147D02*
X60455599Y-61742406D01*
X60322117Y-61675665D01*
X60121894Y-61675665D01*
X59988412Y-61742406D01*
X59921671Y-61875888D01*
X59921671Y-62610039D01*
X59587966Y-62743520D02*
X58520111Y-62743520D01*
X57919442Y-61208479D02*
X57785960Y-61208479D01*
X57652479Y-61275220D01*
X57585738Y-61341960D01*
X57518997Y-61475442D01*
X57452256Y-61742406D01*
X57452256Y-62076111D01*
X57518997Y-62343075D01*
X57585738Y-62476557D01*
X57652479Y-62543298D01*
X57785960Y-62610039D01*
X57919442Y-62610039D01*
X58052924Y-62543298D01*
X58119665Y-62476557D01*
X58186406Y-62343075D01*
X58253147Y-62076111D01*
X58253147Y-61742406D01*
X58186406Y-61475442D01*
X58119665Y-61341960D01*
X58052924Y-61275220D01*
X57919442Y-61208479D01*
X56117437Y-62610039D02*
X56918328Y-62610039D01*
X56517882Y-62610039D02*
X56517882Y-61208479D01*
X56651364Y-61408701D01*
X56784846Y-61542183D01*
X56918328Y-61608924D01*
X55650250Y-62610039D02*
X54916100Y-61675665D01*
X55650250Y-61675665D02*
X54916100Y-62610039D01*
X54448913Y-61341960D02*
X54382172Y-61275220D01*
X54248690Y-61208479D01*
X53914985Y-61208479D01*
X53781503Y-61275220D01*
X53714762Y-61341960D01*
X53648021Y-61475442D01*
X53648021Y-61608924D01*
X53714762Y-61809147D01*
X54515654Y-62610039D01*
X53648021Y-62610039D01*
X53180835Y-61208479D02*
X52313202Y-61208479D01*
X52780389Y-61742406D01*
X52580166Y-61742406D01*
X52446684Y-61809147D01*
X52379943Y-61875888D01*
X52313202Y-62009370D01*
X52313202Y-62343075D01*
X52379943Y-62476557D01*
X52446684Y-62543298D01*
X52580166Y-62610039D01*
X52980612Y-62610039D01*
X53114094Y-62543298D01*
X53180835Y-62476557D01*
G04 #@! TO.C,C9*
X230798666Y-83669142D02*
X230846285Y-83716761D01*
X230989142Y-83764380D01*
X231084380Y-83764380D01*
X231227238Y-83716761D01*
X231322476Y-83621523D01*
X231370095Y-83526285D01*
X231417714Y-83335809D01*
X231417714Y-83192952D01*
X231370095Y-83002476D01*
X231322476Y-82907238D01*
X231227238Y-82812000D01*
X231084380Y-82764380D01*
X230989142Y-82764380D01*
X230846285Y-82812000D01*
X230798666Y-82859619D01*
X230322476Y-83764380D02*
X230132000Y-83764380D01*
X230036761Y-83716761D01*
X229989142Y-83669142D01*
X229893904Y-83526285D01*
X229846285Y-83335809D01*
X229846285Y-82954857D01*
X229893904Y-82859619D01*
X229941523Y-82812000D01*
X230036761Y-82764380D01*
X230227238Y-82764380D01*
X230322476Y-82812000D01*
X230370095Y-82859619D01*
X230417714Y-82954857D01*
X230417714Y-83192952D01*
X230370095Y-83288190D01*
X230322476Y-83335809D01*
X230227238Y-83383428D01*
X230036761Y-83383428D01*
X229941523Y-83335809D01*
X229893904Y-83288190D01*
X229846285Y-83192952D01*
G04 #@! TO.C,C10*
X231274857Y-74779142D02*
X231322476Y-74826761D01*
X231465333Y-74874380D01*
X231560571Y-74874380D01*
X231703428Y-74826761D01*
X231798666Y-74731523D01*
X231846285Y-74636285D01*
X231893904Y-74445809D01*
X231893904Y-74302952D01*
X231846285Y-74112476D01*
X231798666Y-74017238D01*
X231703428Y-73922000D01*
X231560571Y-73874380D01*
X231465333Y-73874380D01*
X231322476Y-73922000D01*
X231274857Y-73969619D01*
X230322476Y-74874380D02*
X230893904Y-74874380D01*
X230608190Y-74874380D02*
X230608190Y-73874380D01*
X230703428Y-74017238D01*
X230798666Y-74112476D01*
X230893904Y-74160095D01*
X229703428Y-73874380D02*
X229608190Y-73874380D01*
X229512952Y-73922000D01*
X229465333Y-73969619D01*
X229417714Y-74064857D01*
X229370095Y-74255333D01*
X229370095Y-74493428D01*
X229417714Y-74683904D01*
X229465333Y-74779142D01*
X229512952Y-74826761D01*
X229608190Y-74874380D01*
X229703428Y-74874380D01*
X229798666Y-74826761D01*
X229846285Y-74779142D01*
X229893904Y-74683904D01*
X229941523Y-74493428D01*
X229941523Y-74255333D01*
X229893904Y-74064857D01*
X229846285Y-73969619D01*
X229798666Y-73922000D01*
X229703428Y-73874380D01*
G04 #@! TO.C,C11*
X231274857Y-65635142D02*
X231322476Y-65682761D01*
X231465333Y-65730380D01*
X231560571Y-65730380D01*
X231703428Y-65682761D01*
X231798666Y-65587523D01*
X231846285Y-65492285D01*
X231893904Y-65301809D01*
X231893904Y-65158952D01*
X231846285Y-64968476D01*
X231798666Y-64873238D01*
X231703428Y-64778000D01*
X231560571Y-64730380D01*
X231465333Y-64730380D01*
X231322476Y-64778000D01*
X231274857Y-64825619D01*
X230322476Y-65730380D02*
X230893904Y-65730380D01*
X230608190Y-65730380D02*
X230608190Y-64730380D01*
X230703428Y-64873238D01*
X230798666Y-64968476D01*
X230893904Y-65016095D01*
X229370095Y-65730380D02*
X229941523Y-65730380D01*
X229655809Y-65730380D02*
X229655809Y-64730380D01*
X229751047Y-64873238D01*
X229846285Y-64968476D01*
X229941523Y-65016095D01*
G04 #@! TO.C,C13*
X113164857Y-62333142D02*
X113212476Y-62380761D01*
X113355333Y-62428380D01*
X113450571Y-62428380D01*
X113593428Y-62380761D01*
X113688666Y-62285523D01*
X113736285Y-62190285D01*
X113783904Y-61999809D01*
X113783904Y-61856952D01*
X113736285Y-61666476D01*
X113688666Y-61571238D01*
X113593428Y-61476000D01*
X113450571Y-61428380D01*
X113355333Y-61428380D01*
X113212476Y-61476000D01*
X113164857Y-61523619D01*
X112212476Y-62428380D02*
X112783904Y-62428380D01*
X112498190Y-62428380D02*
X112498190Y-61428380D01*
X112593428Y-61571238D01*
X112688666Y-61666476D01*
X112783904Y-61714095D01*
X111879142Y-61428380D02*
X111260095Y-61428380D01*
X111593428Y-61809333D01*
X111450571Y-61809333D01*
X111355333Y-61856952D01*
X111307714Y-61904571D01*
X111260095Y-61999809D01*
X111260095Y-62237904D01*
X111307714Y-62333142D01*
X111355333Y-62380761D01*
X111450571Y-62428380D01*
X111736285Y-62428380D01*
X111831523Y-62380761D01*
X111879142Y-62333142D01*
G04 #@! TO.C,C14*
X126118857Y-96115142D02*
X126166476Y-96162761D01*
X126309333Y-96210380D01*
X126404571Y-96210380D01*
X126547428Y-96162761D01*
X126642666Y-96067523D01*
X126690285Y-95972285D01*
X126737904Y-95781809D01*
X126737904Y-95638952D01*
X126690285Y-95448476D01*
X126642666Y-95353238D01*
X126547428Y-95258000D01*
X126404571Y-95210380D01*
X126309333Y-95210380D01*
X126166476Y-95258000D01*
X126118857Y-95305619D01*
X125166476Y-96210380D02*
X125737904Y-96210380D01*
X125452190Y-96210380D02*
X125452190Y-95210380D01*
X125547428Y-95353238D01*
X125642666Y-95448476D01*
X125737904Y-95496095D01*
X124309333Y-95543714D02*
X124309333Y-96210380D01*
X124547428Y-95162761D02*
X124785523Y-95877047D01*
X124166476Y-95877047D01*
G04 #@! TO.C,J1*
X81478333Y-145166380D02*
X81478333Y-145880666D01*
X81525952Y-146023523D01*
X81621190Y-146118761D01*
X81764047Y-146166380D01*
X81859285Y-146166380D01*
X80478333Y-146166380D02*
X81049761Y-146166380D01*
X80764047Y-146166380D02*
X80764047Y-145166380D01*
X80859285Y-145309238D01*
X80954523Y-145404476D01*
X81049761Y-145452095D01*
G04 #@! TO.C,L2*
X135802666Y-64460380D02*
X136278857Y-64460380D01*
X136278857Y-63460380D01*
X135516952Y-63555619D02*
X135469333Y-63508000D01*
X135374095Y-63460380D01*
X135136000Y-63460380D01*
X135040761Y-63508000D01*
X134993142Y-63555619D01*
X134945523Y-63650857D01*
X134945523Y-63746095D01*
X134993142Y-63888952D01*
X135564571Y-64460380D01*
X134945523Y-64460380D01*
G04 #@! TO.C,R23*
X124086857Y-68016380D02*
X124420190Y-67540190D01*
X124658285Y-68016380D02*
X124658285Y-67016380D01*
X124277333Y-67016380D01*
X124182095Y-67064000D01*
X124134476Y-67111619D01*
X124086857Y-67206857D01*
X124086857Y-67349714D01*
X124134476Y-67444952D01*
X124182095Y-67492571D01*
X124277333Y-67540190D01*
X124658285Y-67540190D01*
X123705904Y-67111619D02*
X123658285Y-67064000D01*
X123563047Y-67016380D01*
X123324952Y-67016380D01*
X123229714Y-67064000D01*
X123182095Y-67111619D01*
X123134476Y-67206857D01*
X123134476Y-67302095D01*
X123182095Y-67444952D01*
X123753523Y-68016380D01*
X123134476Y-68016380D01*
X122801142Y-67016380D02*
X122182095Y-67016380D01*
X122515428Y-67397333D01*
X122372571Y-67397333D01*
X122277333Y-67444952D01*
X122229714Y-67492571D01*
X122182095Y-67587809D01*
X122182095Y-67825904D01*
X122229714Y-67921142D01*
X122277333Y-67968761D01*
X122372571Y-68016380D01*
X122658285Y-68016380D01*
X122753523Y-67968761D01*
X122801142Y-67921142D01*
G04 #@! TO.C,J4*
X96718333Y-145166380D02*
X96718333Y-145880666D01*
X96765952Y-146023523D01*
X96861190Y-146118761D01*
X97004047Y-146166380D01*
X97099285Y-146166380D01*
X95813571Y-145499714D02*
X95813571Y-146166380D01*
X96051666Y-145118761D02*
X96289761Y-145833047D01*
X95670714Y-145833047D01*
G04 #@! TO.C,C1*
X85510666Y-86209142D02*
X85558285Y-86256761D01*
X85701142Y-86304380D01*
X85796380Y-86304380D01*
X85939238Y-86256761D01*
X86034476Y-86161523D01*
X86082095Y-86066285D01*
X86129714Y-85875809D01*
X86129714Y-85732952D01*
X86082095Y-85542476D01*
X86034476Y-85447238D01*
X85939238Y-85352000D01*
X85796380Y-85304380D01*
X85701142Y-85304380D01*
X85558285Y-85352000D01*
X85510666Y-85399619D01*
X84558285Y-86304380D02*
X85129714Y-86304380D01*
X84844000Y-86304380D02*
X84844000Y-85304380D01*
X84939238Y-85447238D01*
X85034476Y-85542476D01*
X85129714Y-85590095D01*
G04 #@! TO.C,C2*
X125896666Y-46988142D02*
X125944285Y-47035761D01*
X126087142Y-47083380D01*
X126182380Y-47083380D01*
X126325238Y-47035761D01*
X126420476Y-46940523D01*
X126468095Y-46845285D01*
X126515714Y-46654809D01*
X126515714Y-46511952D01*
X126468095Y-46321476D01*
X126420476Y-46226238D01*
X126325238Y-46131000D01*
X126182380Y-46083380D01*
X126087142Y-46083380D01*
X125944285Y-46131000D01*
X125896666Y-46178619D01*
X125515714Y-46178619D02*
X125468095Y-46131000D01*
X125372857Y-46083380D01*
X125134761Y-46083380D01*
X125039523Y-46131000D01*
X124991904Y-46178619D01*
X124944285Y-46273857D01*
X124944285Y-46369095D01*
X124991904Y-46511952D01*
X125563333Y-47083380D01*
X124944285Y-47083380D01*
G04 #@! TO.C,C5*
X100750666Y-48617142D02*
X100798285Y-48664761D01*
X100941142Y-48712380D01*
X101036380Y-48712380D01*
X101179238Y-48664761D01*
X101274476Y-48569523D01*
X101322095Y-48474285D01*
X101369714Y-48283809D01*
X101369714Y-48140952D01*
X101322095Y-47950476D01*
X101274476Y-47855238D01*
X101179238Y-47760000D01*
X101036380Y-47712380D01*
X100941142Y-47712380D01*
X100798285Y-47760000D01*
X100750666Y-47807619D01*
X99845904Y-47712380D02*
X100322095Y-47712380D01*
X100369714Y-48188571D01*
X100322095Y-48140952D01*
X100226857Y-48093333D01*
X99988761Y-48093333D01*
X99893523Y-48140952D01*
X99845904Y-48188571D01*
X99798285Y-48283809D01*
X99798285Y-48521904D01*
X99845904Y-48617142D01*
X99893523Y-48664761D01*
X99988761Y-48712380D01*
X100226857Y-48712380D01*
X100322095Y-48664761D01*
X100369714Y-48617142D01*
G04 #@! TO.C,J7*
X179978333Y-95697380D02*
X179978333Y-96411666D01*
X180025952Y-96554523D01*
X180121190Y-96649761D01*
X180264047Y-96697380D01*
X180359285Y-96697380D01*
X179597380Y-95697380D02*
X178930714Y-95697380D01*
X179359285Y-96697380D01*
G04 #@! TO.C,J8*
X195218333Y-106492380D02*
X195218333Y-107206666D01*
X195265952Y-107349523D01*
X195361190Y-107444761D01*
X195504047Y-107492380D01*
X195599285Y-107492380D01*
X194599285Y-106920952D02*
X194694523Y-106873333D01*
X194742142Y-106825714D01*
X194789761Y-106730476D01*
X194789761Y-106682857D01*
X194742142Y-106587619D01*
X194694523Y-106540000D01*
X194599285Y-106492380D01*
X194408809Y-106492380D01*
X194313571Y-106540000D01*
X194265952Y-106587619D01*
X194218333Y-106682857D01*
X194218333Y-106730476D01*
X194265952Y-106825714D01*
X194313571Y-106873333D01*
X194408809Y-106920952D01*
X194599285Y-106920952D01*
X194694523Y-106968571D01*
X194742142Y-107016190D01*
X194789761Y-107111428D01*
X194789761Y-107301904D01*
X194742142Y-107397142D01*
X194694523Y-107444761D01*
X194599285Y-107492380D01*
X194408809Y-107492380D01*
X194313571Y-107444761D01*
X194265952Y-107397142D01*
X194218333Y-107301904D01*
X194218333Y-107111428D01*
X194265952Y-107016190D01*
X194313571Y-106968571D01*
X194408809Y-106920952D01*
G04 #@! TO.C,R1*
X128771666Y-144746380D02*
X129105000Y-144270190D01*
X129343095Y-144746380D02*
X129343095Y-143746380D01*
X128962142Y-143746380D01*
X128866904Y-143794000D01*
X128819285Y-143841619D01*
X128771666Y-143936857D01*
X128771666Y-144079714D01*
X128819285Y-144174952D01*
X128866904Y-144222571D01*
X128962142Y-144270190D01*
X129343095Y-144270190D01*
X127819285Y-144746380D02*
X128390714Y-144746380D01*
X128105000Y-144746380D02*
X128105000Y-143746380D01*
X128200238Y-143889238D01*
X128295476Y-143984476D01*
X128390714Y-144032095D01*
G04 #@! TD*
M02*
