G04 #@! TF.GenerationSoftware,KiCad,Pcbnew,(5.0.2)-1*
G04 #@! TF.CreationDate,2019-04-03T20:13:24-04:00*
G04 #@! TF.ProjectId,interface-board,696e7465-7266-4616-9365-2d626f617264,rev?*
G04 #@! TF.SameCoordinates,Original*
G04 #@! TF.FileFunction,Soldermask,Bot*
G04 #@! TF.FilePolarity,Negative*
%FSLAX46Y46*%
G04 Gerber Fmt 4.6, Leading zero omitted, Abs format (unit mm)*
G04 Created by KiCad (PCBNEW (5.0.2)-1) date 4/3/2019 8:13:24 PM*
%MOMM*%
%LPD*%
G01*
G04 APERTURE LIST*
%ADD10C,0.100000*%
G04 APERTURE END LIST*
D10*
G36*
X228572942Y-134814857D02*
X229204082Y-134940398D01*
X229995877Y-135268371D01*
X230708474Y-135744513D01*
X231314487Y-136350526D01*
X231790629Y-137063123D01*
X232118602Y-137854918D01*
X232244143Y-138486058D01*
X232285800Y-138695482D01*
X232285800Y-139552518D01*
X232275250Y-139605554D01*
X232118602Y-140393082D01*
X231790629Y-141184877D01*
X231314487Y-141897474D01*
X230708474Y-142503487D01*
X229995877Y-142979629D01*
X229204082Y-143307602D01*
X228572942Y-143433143D01*
X228363518Y-143474800D01*
X227506482Y-143474800D01*
X227297058Y-143433143D01*
X226665918Y-143307602D01*
X225874123Y-142979629D01*
X225161526Y-142503487D01*
X224555513Y-141897474D01*
X224079371Y-141184877D01*
X223751398Y-140393082D01*
X223594750Y-139605554D01*
X223584200Y-139552518D01*
X223584200Y-138695482D01*
X223625857Y-138486058D01*
X223751398Y-137854918D01*
X224079371Y-137063123D01*
X224555513Y-136350526D01*
X225161526Y-135744513D01*
X225874123Y-135268371D01*
X226665918Y-134940398D01*
X227297058Y-134814857D01*
X227506482Y-134773200D01*
X228363518Y-134773200D01*
X228572942Y-134814857D01*
X228572942Y-134814857D01*
G37*
G36*
X67822942Y-134814857D02*
X68454082Y-134940398D01*
X69245877Y-135268371D01*
X69958474Y-135744513D01*
X70564487Y-136350526D01*
X71040629Y-137063123D01*
X71368602Y-137854918D01*
X71494143Y-138486058D01*
X71535800Y-138695482D01*
X71535800Y-139552518D01*
X71525250Y-139605554D01*
X71368602Y-140393082D01*
X71040629Y-141184877D01*
X70564487Y-141897474D01*
X69958474Y-142503487D01*
X69245877Y-142979629D01*
X68454082Y-143307602D01*
X67822942Y-143433143D01*
X67613518Y-143474800D01*
X66756482Y-143474800D01*
X66547058Y-143433143D01*
X65915918Y-143307602D01*
X65124123Y-142979629D01*
X64411526Y-142503487D01*
X63805513Y-141897474D01*
X63329371Y-141184877D01*
X63001398Y-140393082D01*
X62844750Y-139605554D01*
X62834200Y-139552518D01*
X62834200Y-138695482D01*
X62875857Y-138486058D01*
X63001398Y-137854918D01*
X63329371Y-137063123D01*
X63805513Y-136350526D01*
X64411526Y-135744513D01*
X65124123Y-135268371D01*
X65915918Y-134940398D01*
X66547058Y-134814857D01*
X66756482Y-134773200D01*
X67613518Y-134773200D01*
X67822942Y-134814857D01*
X67822942Y-134814857D01*
G37*
G36*
X129734468Y-142342283D02*
X129768434Y-142352586D01*
X129799732Y-142369316D01*
X129827168Y-142391832D01*
X129849684Y-142419268D01*
X129866414Y-142450566D01*
X129876717Y-142484532D01*
X129880800Y-142525990D01*
X129880800Y-143202010D01*
X129876717Y-143243468D01*
X129866414Y-143277434D01*
X129849684Y-143308732D01*
X129827168Y-143336168D01*
X129799732Y-143358684D01*
X129768434Y-143375414D01*
X129734468Y-143385717D01*
X129693010Y-143389800D01*
X129091990Y-143389800D01*
X129050532Y-143385717D01*
X129016566Y-143375414D01*
X128985268Y-143358684D01*
X128957832Y-143336168D01*
X128935316Y-143308732D01*
X128918586Y-143277434D01*
X128908283Y-143243468D01*
X128904200Y-143202010D01*
X128904200Y-142525990D01*
X128908283Y-142484532D01*
X128918586Y-142450566D01*
X128935316Y-142419268D01*
X128957832Y-142391832D01*
X128985268Y-142369316D01*
X129016566Y-142352586D01*
X129050532Y-142342283D01*
X129091990Y-142338200D01*
X129693010Y-142338200D01*
X129734468Y-142342283D01*
X129734468Y-142342283D01*
G37*
G36*
X128159468Y-142342283D02*
X128193434Y-142352586D01*
X128224732Y-142369316D01*
X128252168Y-142391832D01*
X128274684Y-142419268D01*
X128291414Y-142450566D01*
X128301717Y-142484532D01*
X128305800Y-142525990D01*
X128305800Y-143202010D01*
X128301717Y-143243468D01*
X128291414Y-143277434D01*
X128274684Y-143308732D01*
X128252168Y-143336168D01*
X128224732Y-143358684D01*
X128193434Y-143375414D01*
X128159468Y-143385717D01*
X128118010Y-143389800D01*
X127516990Y-143389800D01*
X127475532Y-143385717D01*
X127441566Y-143375414D01*
X127410268Y-143358684D01*
X127382832Y-143336168D01*
X127360316Y-143308732D01*
X127343586Y-143277434D01*
X127333283Y-143243468D01*
X127329200Y-143202010D01*
X127329200Y-142525990D01*
X127333283Y-142484532D01*
X127343586Y-142450566D01*
X127360316Y-142419268D01*
X127382832Y-142391832D01*
X127410268Y-142369316D01*
X127441566Y-142352586D01*
X127475532Y-142342283D01*
X127516990Y-142338200D01*
X128118010Y-142338200D01*
X128159468Y-142342283D01*
X128159468Y-142342283D01*
G37*
G36*
X81325504Y-140456523D02*
X81325507Y-140456524D01*
X81499079Y-140509176D01*
X81499081Y-140509177D01*
X81499084Y-140509178D01*
X81659045Y-140594678D01*
X81799254Y-140709746D01*
X81914320Y-140849954D01*
X81999823Y-141009918D01*
X82052477Y-141183495D01*
X82065800Y-141318765D01*
X82065800Y-141869234D01*
X82052477Y-142004504D01*
X82052476Y-142004507D01*
X82052476Y-142004508D01*
X81999824Y-142178080D01*
X81999822Y-142178084D01*
X81914322Y-142338045D01*
X81799254Y-142478254D01*
X81659046Y-142593320D01*
X81659044Y-142593321D01*
X81499080Y-142678824D01*
X81380752Y-142714718D01*
X81325505Y-142731477D01*
X81145000Y-142749255D01*
X80964496Y-142731477D01*
X80909249Y-142714718D01*
X80790921Y-142678824D01*
X80630957Y-142593321D01*
X80630955Y-142593320D01*
X80490747Y-142478254D01*
X80375680Y-142338046D01*
X80290177Y-142178082D01*
X80237523Y-142004505D01*
X80224200Y-141869235D01*
X80224200Y-141318766D01*
X80237523Y-141183496D01*
X80267347Y-141085178D01*
X80290176Y-141009921D01*
X80290177Y-141009919D01*
X80290178Y-141009916D01*
X80375678Y-140849955D01*
X80490746Y-140709746D01*
X80630954Y-140594680D01*
X80790918Y-140509177D01*
X80790920Y-140509176D01*
X80964492Y-140456524D01*
X80964495Y-140456523D01*
X81145000Y-140438745D01*
X81325504Y-140456523D01*
X81325504Y-140456523D01*
G37*
G36*
X78785504Y-140456523D02*
X78785507Y-140456524D01*
X78959079Y-140509176D01*
X78959081Y-140509177D01*
X78959084Y-140509178D01*
X79119045Y-140594678D01*
X79259254Y-140709746D01*
X79374320Y-140849954D01*
X79459823Y-141009918D01*
X79512477Y-141183495D01*
X79525800Y-141318765D01*
X79525800Y-141869234D01*
X79512477Y-142004504D01*
X79512476Y-142004507D01*
X79512476Y-142004508D01*
X79459824Y-142178080D01*
X79459822Y-142178084D01*
X79374322Y-142338045D01*
X79259254Y-142478254D01*
X79119046Y-142593320D01*
X79119044Y-142593321D01*
X78959080Y-142678824D01*
X78840752Y-142714718D01*
X78785505Y-142731477D01*
X78605000Y-142749255D01*
X78424496Y-142731477D01*
X78369249Y-142714718D01*
X78250921Y-142678824D01*
X78090957Y-142593321D01*
X78090955Y-142593320D01*
X77950747Y-142478254D01*
X77835680Y-142338046D01*
X77750177Y-142178082D01*
X77697523Y-142004505D01*
X77684200Y-141869235D01*
X77684200Y-141318766D01*
X77697523Y-141183496D01*
X77727347Y-141085178D01*
X77750176Y-141009921D01*
X77750177Y-141009919D01*
X77750178Y-141009916D01*
X77835678Y-140849955D01*
X77950746Y-140709746D01*
X78090954Y-140594680D01*
X78250918Y-140509177D01*
X78250920Y-140509176D01*
X78424492Y-140456524D01*
X78424495Y-140456523D01*
X78605000Y-140438745D01*
X78785504Y-140456523D01*
X78785504Y-140456523D01*
G37*
G36*
X94025504Y-140456523D02*
X94025507Y-140456524D01*
X94199079Y-140509176D01*
X94199081Y-140509177D01*
X94199084Y-140509178D01*
X94359045Y-140594678D01*
X94499254Y-140709746D01*
X94614320Y-140849954D01*
X94699823Y-141009918D01*
X94752477Y-141183495D01*
X94765800Y-141318765D01*
X94765800Y-141869234D01*
X94752477Y-142004504D01*
X94752476Y-142004507D01*
X94752476Y-142004508D01*
X94699824Y-142178080D01*
X94699822Y-142178084D01*
X94614322Y-142338045D01*
X94499254Y-142478254D01*
X94359046Y-142593320D01*
X94359044Y-142593321D01*
X94199080Y-142678824D01*
X94080752Y-142714718D01*
X94025505Y-142731477D01*
X93845000Y-142749255D01*
X93664496Y-142731477D01*
X93609249Y-142714718D01*
X93490921Y-142678824D01*
X93330957Y-142593321D01*
X93330955Y-142593320D01*
X93190747Y-142478254D01*
X93075680Y-142338046D01*
X92990177Y-142178082D01*
X92937523Y-142004505D01*
X92924200Y-141869235D01*
X92924200Y-141318766D01*
X92937523Y-141183496D01*
X92967347Y-141085178D01*
X92990176Y-141009921D01*
X92990177Y-141009919D01*
X92990178Y-141009916D01*
X93075678Y-140849955D01*
X93190746Y-140709746D01*
X93330954Y-140594680D01*
X93490918Y-140509177D01*
X93490920Y-140509176D01*
X93664492Y-140456524D01*
X93664495Y-140456523D01*
X93845000Y-140438745D01*
X94025504Y-140456523D01*
X94025504Y-140456523D01*
G37*
G36*
X96565504Y-140456523D02*
X96565507Y-140456524D01*
X96739079Y-140509176D01*
X96739081Y-140509177D01*
X96739084Y-140509178D01*
X96899045Y-140594678D01*
X97039254Y-140709746D01*
X97154320Y-140849954D01*
X97239823Y-141009918D01*
X97292477Y-141183495D01*
X97305800Y-141318765D01*
X97305800Y-141869234D01*
X97292477Y-142004504D01*
X97292476Y-142004507D01*
X97292476Y-142004508D01*
X97239824Y-142178080D01*
X97239822Y-142178084D01*
X97154322Y-142338045D01*
X97039254Y-142478254D01*
X96899046Y-142593320D01*
X96899044Y-142593321D01*
X96739080Y-142678824D01*
X96620752Y-142714718D01*
X96565505Y-142731477D01*
X96385000Y-142749255D01*
X96204496Y-142731477D01*
X96149249Y-142714718D01*
X96030921Y-142678824D01*
X95870957Y-142593321D01*
X95870955Y-142593320D01*
X95730747Y-142478254D01*
X95615680Y-142338046D01*
X95530177Y-142178082D01*
X95477523Y-142004505D01*
X95464200Y-141869235D01*
X95464200Y-141318766D01*
X95477523Y-141183496D01*
X95507347Y-141085178D01*
X95530176Y-141009921D01*
X95530177Y-141009919D01*
X95530178Y-141009916D01*
X95615678Y-140849955D01*
X95730746Y-140709746D01*
X95870954Y-140594680D01*
X96030918Y-140509177D01*
X96030920Y-140509176D01*
X96204492Y-140456524D01*
X96204495Y-140456523D01*
X96385000Y-140438745D01*
X96565504Y-140456523D01*
X96565504Y-140456523D01*
G37*
G36*
X99105504Y-140456523D02*
X99105507Y-140456524D01*
X99279079Y-140509176D01*
X99279081Y-140509177D01*
X99279084Y-140509178D01*
X99439045Y-140594678D01*
X99579254Y-140709746D01*
X99694320Y-140849954D01*
X99779823Y-141009918D01*
X99832477Y-141183495D01*
X99845800Y-141318765D01*
X99845800Y-141869234D01*
X99832477Y-142004504D01*
X99832476Y-142004507D01*
X99832476Y-142004508D01*
X99779824Y-142178080D01*
X99779822Y-142178084D01*
X99694322Y-142338045D01*
X99579254Y-142478254D01*
X99439046Y-142593320D01*
X99439044Y-142593321D01*
X99279080Y-142678824D01*
X99160752Y-142714718D01*
X99105505Y-142731477D01*
X98925000Y-142749255D01*
X98744496Y-142731477D01*
X98689249Y-142714718D01*
X98570921Y-142678824D01*
X98410957Y-142593321D01*
X98410955Y-142593320D01*
X98270747Y-142478254D01*
X98155680Y-142338046D01*
X98070177Y-142178082D01*
X98017523Y-142004505D01*
X98004200Y-141869235D01*
X98004200Y-141318766D01*
X98017523Y-141183496D01*
X98047347Y-141085178D01*
X98070176Y-141009921D01*
X98070177Y-141009919D01*
X98070178Y-141009916D01*
X98155678Y-140849955D01*
X98270746Y-140709746D01*
X98410954Y-140594680D01*
X98570918Y-140509177D01*
X98570920Y-140509176D01*
X98744492Y-140456524D01*
X98744495Y-140456523D01*
X98925000Y-140438745D01*
X99105504Y-140456523D01*
X99105504Y-140456523D01*
G37*
G36*
X101645504Y-140456523D02*
X101645507Y-140456524D01*
X101819079Y-140509176D01*
X101819081Y-140509177D01*
X101819084Y-140509178D01*
X101979045Y-140594678D01*
X102119254Y-140709746D01*
X102234320Y-140849954D01*
X102319823Y-141009918D01*
X102372477Y-141183495D01*
X102385800Y-141318765D01*
X102385800Y-141869234D01*
X102372477Y-142004504D01*
X102372476Y-142004507D01*
X102372476Y-142004508D01*
X102319824Y-142178080D01*
X102319822Y-142178084D01*
X102234322Y-142338045D01*
X102119254Y-142478254D01*
X101979046Y-142593320D01*
X101979044Y-142593321D01*
X101819080Y-142678824D01*
X101700752Y-142714718D01*
X101645505Y-142731477D01*
X101465000Y-142749255D01*
X101284496Y-142731477D01*
X101229249Y-142714718D01*
X101110921Y-142678824D01*
X100950957Y-142593321D01*
X100950955Y-142593320D01*
X100810747Y-142478254D01*
X100695680Y-142338046D01*
X100610177Y-142178082D01*
X100557523Y-142004505D01*
X100544200Y-141869235D01*
X100544200Y-141318766D01*
X100557523Y-141183496D01*
X100587347Y-141085178D01*
X100610176Y-141009921D01*
X100610177Y-141009919D01*
X100610178Y-141009916D01*
X100695678Y-140849955D01*
X100810746Y-140709746D01*
X100950954Y-140594680D01*
X101110918Y-140509177D01*
X101110920Y-140509176D01*
X101284492Y-140456524D01*
X101284495Y-140456523D01*
X101465000Y-140438745D01*
X101645504Y-140456523D01*
X101645504Y-140456523D01*
G37*
G36*
X83865504Y-140456523D02*
X83865507Y-140456524D01*
X84039079Y-140509176D01*
X84039081Y-140509177D01*
X84039084Y-140509178D01*
X84199045Y-140594678D01*
X84339254Y-140709746D01*
X84454320Y-140849954D01*
X84539823Y-141009918D01*
X84592477Y-141183495D01*
X84605800Y-141318765D01*
X84605800Y-141869234D01*
X84592477Y-142004504D01*
X84592476Y-142004507D01*
X84592476Y-142004508D01*
X84539824Y-142178080D01*
X84539822Y-142178084D01*
X84454322Y-142338045D01*
X84339254Y-142478254D01*
X84199046Y-142593320D01*
X84199044Y-142593321D01*
X84039080Y-142678824D01*
X83920752Y-142714718D01*
X83865505Y-142731477D01*
X83685000Y-142749255D01*
X83504496Y-142731477D01*
X83449249Y-142714718D01*
X83330921Y-142678824D01*
X83170957Y-142593321D01*
X83170955Y-142593320D01*
X83030747Y-142478254D01*
X82915680Y-142338046D01*
X82830177Y-142178082D01*
X82777523Y-142004505D01*
X82764200Y-141869235D01*
X82764200Y-141318766D01*
X82777523Y-141183496D01*
X82807347Y-141085178D01*
X82830176Y-141009921D01*
X82830177Y-141009919D01*
X82830178Y-141009916D01*
X82915678Y-140849955D01*
X83030746Y-140709746D01*
X83170954Y-140594680D01*
X83330918Y-140509177D01*
X83330920Y-140509176D01*
X83504492Y-140456524D01*
X83504495Y-140456523D01*
X83685000Y-140438745D01*
X83865504Y-140456523D01*
X83865504Y-140456523D01*
G37*
G36*
X86405504Y-140456523D02*
X86405507Y-140456524D01*
X86579079Y-140509176D01*
X86579081Y-140509177D01*
X86579084Y-140509178D01*
X86739045Y-140594678D01*
X86879254Y-140709746D01*
X86994320Y-140849954D01*
X87079823Y-141009918D01*
X87132477Y-141183495D01*
X87145800Y-141318765D01*
X87145800Y-141869234D01*
X87132477Y-142004504D01*
X87132476Y-142004507D01*
X87132476Y-142004508D01*
X87079824Y-142178080D01*
X87079822Y-142178084D01*
X86994322Y-142338045D01*
X86879254Y-142478254D01*
X86739046Y-142593320D01*
X86739044Y-142593321D01*
X86579080Y-142678824D01*
X86460752Y-142714718D01*
X86405505Y-142731477D01*
X86225000Y-142749255D01*
X86044496Y-142731477D01*
X85989249Y-142714718D01*
X85870921Y-142678824D01*
X85710957Y-142593321D01*
X85710955Y-142593320D01*
X85570747Y-142478254D01*
X85455680Y-142338046D01*
X85370177Y-142178082D01*
X85317523Y-142004505D01*
X85304200Y-141869235D01*
X85304200Y-141318766D01*
X85317523Y-141183496D01*
X85347347Y-141085178D01*
X85370176Y-141009921D01*
X85370177Y-141009919D01*
X85370178Y-141009916D01*
X85455678Y-140849955D01*
X85570746Y-140709746D01*
X85710954Y-140594680D01*
X85870918Y-140509177D01*
X85870920Y-140509176D01*
X86044492Y-140456524D01*
X86044495Y-140456523D01*
X86225000Y-140438745D01*
X86405504Y-140456523D01*
X86405504Y-140456523D01*
G37*
G36*
X76844409Y-140447165D02*
X76877219Y-140457118D01*
X76907460Y-140473282D01*
X76933965Y-140495035D01*
X76955718Y-140521540D01*
X76971882Y-140551781D01*
X76981835Y-140584591D01*
X76985800Y-140624854D01*
X76985800Y-142563146D01*
X76981835Y-142603409D01*
X76971882Y-142636219D01*
X76955718Y-142666460D01*
X76933965Y-142692965D01*
X76907460Y-142714718D01*
X76877219Y-142730882D01*
X76844409Y-142740835D01*
X76804146Y-142744800D01*
X75325854Y-142744800D01*
X75285591Y-142740835D01*
X75252781Y-142730882D01*
X75222540Y-142714718D01*
X75196035Y-142692965D01*
X75174282Y-142666460D01*
X75158118Y-142636219D01*
X75148165Y-142603409D01*
X75144200Y-142563146D01*
X75144200Y-140624854D01*
X75148165Y-140584591D01*
X75158118Y-140551781D01*
X75174282Y-140521540D01*
X75196035Y-140495035D01*
X75222540Y-140473282D01*
X75252781Y-140457118D01*
X75285591Y-140447165D01*
X75325854Y-140443200D01*
X76804146Y-140443200D01*
X76844409Y-140447165D01*
X76844409Y-140447165D01*
G37*
G36*
X92084409Y-140447165D02*
X92117219Y-140457118D01*
X92147460Y-140473282D01*
X92173965Y-140495035D01*
X92195718Y-140521540D01*
X92211882Y-140551781D01*
X92221835Y-140584591D01*
X92225800Y-140624854D01*
X92225800Y-142563146D01*
X92221835Y-142603409D01*
X92211882Y-142636219D01*
X92195718Y-142666460D01*
X92173965Y-142692965D01*
X92147460Y-142714718D01*
X92117219Y-142730882D01*
X92084409Y-142740835D01*
X92044146Y-142744800D01*
X90565854Y-142744800D01*
X90525591Y-142740835D01*
X90492781Y-142730882D01*
X90462540Y-142714718D01*
X90436035Y-142692965D01*
X90414282Y-142666460D01*
X90398118Y-142636219D01*
X90388165Y-142603409D01*
X90384200Y-142563146D01*
X90384200Y-140624854D01*
X90388165Y-140584591D01*
X90398118Y-140551781D01*
X90414282Y-140521540D01*
X90436035Y-140495035D01*
X90462540Y-140473282D01*
X90492781Y-140457118D01*
X90525591Y-140447165D01*
X90565854Y-140443200D01*
X92044146Y-140443200D01*
X92084409Y-140447165D01*
X92084409Y-140447165D01*
G37*
G36*
X195205104Y-123490727D02*
X195363604Y-123522255D01*
X195487290Y-123573488D01*
X195662209Y-123645941D01*
X195930952Y-123825510D01*
X196159490Y-124054048D01*
X196339059Y-124322791D01*
X196462745Y-124621397D01*
X196525800Y-124938394D01*
X196525800Y-125261606D01*
X196462745Y-125578603D01*
X196339059Y-125877209D01*
X196159490Y-126145952D01*
X195930952Y-126374490D01*
X195662209Y-126554059D01*
X195487290Y-126626512D01*
X195363604Y-126677745D01*
X195302999Y-126689800D01*
X195046606Y-126740800D01*
X194723394Y-126740800D01*
X194467001Y-126689800D01*
X194406396Y-126677745D01*
X194282710Y-126626512D01*
X194107791Y-126554059D01*
X193839048Y-126374490D01*
X193610510Y-126145952D01*
X193430941Y-125877209D01*
X193307255Y-125578603D01*
X193244200Y-125261606D01*
X193244200Y-124938394D01*
X193307255Y-124621397D01*
X193430941Y-124322791D01*
X193610510Y-124054048D01*
X193839048Y-123825510D01*
X194107791Y-123645941D01*
X194282710Y-123573488D01*
X194406396Y-123522255D01*
X194564896Y-123490727D01*
X194723394Y-123459200D01*
X195046606Y-123459200D01*
X195205104Y-123490727D01*
X195205104Y-123490727D01*
G37*
G36*
X75800800Y-126689800D02*
X73999200Y-126689800D01*
X73999200Y-124888200D01*
X75800800Y-124888200D01*
X75800800Y-126689800D01*
X75800800Y-126689800D01*
G37*
G36*
X74988362Y-122352545D02*
X75076588Y-122361234D01*
X75189789Y-122395573D01*
X75246390Y-122412743D01*
X75384980Y-122486822D01*
X75402879Y-122496389D01*
X75438609Y-122525712D01*
X75540044Y-122608956D01*
X75623288Y-122710391D01*
X75652611Y-122746121D01*
X75652612Y-122746123D01*
X75736257Y-122902610D01*
X75736257Y-122902611D01*
X75787766Y-123072412D01*
X75805158Y-123249000D01*
X75787766Y-123425588D01*
X75758442Y-123522255D01*
X75736257Y-123595390D01*
X75709236Y-123645942D01*
X75652611Y-123751879D01*
X75623288Y-123787609D01*
X75540044Y-123889044D01*
X75438609Y-123972288D01*
X75402879Y-124001611D01*
X75402877Y-124001612D01*
X75246390Y-124085257D01*
X75189789Y-124102427D01*
X75076588Y-124136766D01*
X74988362Y-124145455D01*
X74944250Y-124149800D01*
X74855750Y-124149800D01*
X74811638Y-124145455D01*
X74723412Y-124136766D01*
X74610211Y-124102427D01*
X74553610Y-124085257D01*
X74397123Y-124001612D01*
X74397121Y-124001611D01*
X74361391Y-123972288D01*
X74259956Y-123889044D01*
X74176712Y-123787609D01*
X74147389Y-123751879D01*
X74090764Y-123645942D01*
X74063743Y-123595390D01*
X74041558Y-123522255D01*
X74012234Y-123425588D01*
X73994842Y-123249000D01*
X74012234Y-123072412D01*
X74063743Y-122902611D01*
X74063743Y-122902610D01*
X74147388Y-122746123D01*
X74147389Y-122746121D01*
X74176712Y-122710391D01*
X74259956Y-122608956D01*
X74361391Y-122525712D01*
X74397121Y-122496389D01*
X74415020Y-122486822D01*
X74553610Y-122412743D01*
X74610211Y-122395573D01*
X74723412Y-122361234D01*
X74811638Y-122352545D01*
X74855750Y-122348200D01*
X74944250Y-122348200D01*
X74988362Y-122352545D01*
X74988362Y-122352545D01*
G37*
G36*
X213937942Y-113785857D02*
X214569082Y-113911398D01*
X215360877Y-114239371D01*
X216073474Y-114715513D01*
X216679487Y-115321526D01*
X217155629Y-116034123D01*
X217483602Y-116825918D01*
X217597983Y-117400952D01*
X217650800Y-117666482D01*
X217650800Y-118523518D01*
X217636422Y-118595800D01*
X217483602Y-119364082D01*
X217155629Y-120155877D01*
X216679487Y-120868474D01*
X216073474Y-121474487D01*
X215360877Y-121950629D01*
X214569082Y-122278602D01*
X213937942Y-122404143D01*
X213728518Y-122445800D01*
X212871482Y-122445800D01*
X212662058Y-122404143D01*
X212030918Y-122278602D01*
X211239123Y-121950629D01*
X210526526Y-121474487D01*
X209920513Y-120868474D01*
X209444371Y-120155877D01*
X209116398Y-119364082D01*
X208963578Y-118595800D01*
X208949200Y-118523518D01*
X208949200Y-117666482D01*
X209002017Y-117400952D01*
X209116398Y-116825918D01*
X209444371Y-116034123D01*
X209920513Y-115321526D01*
X210526526Y-114715513D01*
X211239123Y-114239371D01*
X212030918Y-113911398D01*
X212662058Y-113785857D01*
X212871482Y-113744200D01*
X213728518Y-113744200D01*
X213937942Y-113785857D01*
X213937942Y-113785857D01*
G37*
G36*
X227187352Y-119332796D02*
X227469579Y-119449699D01*
X227723578Y-119619415D01*
X227939585Y-119835422D01*
X228109301Y-120089421D01*
X228226204Y-120371648D01*
X228285800Y-120671259D01*
X228285800Y-120976741D01*
X228226204Y-121276352D01*
X228109301Y-121558579D01*
X227939585Y-121812578D01*
X227723578Y-122028585D01*
X227469579Y-122198301D01*
X227187352Y-122315204D01*
X226887741Y-122374800D01*
X226582259Y-122374800D01*
X226282648Y-122315204D01*
X226000421Y-122198301D01*
X225746422Y-122028585D01*
X225530415Y-121812578D01*
X225360699Y-121558579D01*
X225243796Y-121276352D01*
X225184200Y-120976741D01*
X225184200Y-120671259D01*
X225243796Y-120371648D01*
X225360699Y-120089421D01*
X225530415Y-119835422D01*
X225746422Y-119619415D01*
X226000421Y-119449699D01*
X226282648Y-119332796D01*
X226582259Y-119273200D01*
X226887741Y-119273200D01*
X227187352Y-119332796D01*
X227187352Y-119332796D01*
G37*
G36*
X195483725Y-119309034D02*
X195742120Y-119387418D01*
X195980261Y-119514706D01*
X196188992Y-119686008D01*
X196360294Y-119894739D01*
X196487582Y-120132880D01*
X196565966Y-120391275D01*
X196592432Y-120660000D01*
X196565966Y-120928725D01*
X196487582Y-121187120D01*
X196360294Y-121425261D01*
X196188992Y-121633992D01*
X195980261Y-121805294D01*
X195742120Y-121932582D01*
X195483725Y-122010966D01*
X195282340Y-122030800D01*
X194487660Y-122030800D01*
X194286275Y-122010966D01*
X194027880Y-121932582D01*
X193789739Y-121805294D01*
X193581008Y-121633992D01*
X193409706Y-121425261D01*
X193282418Y-121187120D01*
X193204034Y-120928725D01*
X193177568Y-120660000D01*
X193204034Y-120391275D01*
X193282418Y-120132880D01*
X193409706Y-119894739D01*
X193581008Y-119686008D01*
X193789739Y-119514706D01*
X194027880Y-119387418D01*
X194286275Y-119309034D01*
X194487660Y-119289200D01*
X195282340Y-119289200D01*
X195483725Y-119309034D01*
X195483725Y-119309034D01*
G37*
G36*
X74988362Y-119812545D02*
X75076588Y-119821234D01*
X75189789Y-119855573D01*
X75246390Y-119872743D01*
X75356532Y-119931616D01*
X75402879Y-119956389D01*
X75438609Y-119985712D01*
X75540044Y-120068956D01*
X75611375Y-120155875D01*
X75652611Y-120206121D01*
X75652612Y-120206123D01*
X75736257Y-120362610D01*
X75744952Y-120391275D01*
X75787766Y-120532412D01*
X75805158Y-120709000D01*
X75787766Y-120885588D01*
X75774680Y-120928725D01*
X75736257Y-121055390D01*
X75672900Y-121173922D01*
X75652611Y-121211879D01*
X75623288Y-121247609D01*
X75540044Y-121349044D01*
X75438609Y-121432288D01*
X75402879Y-121461611D01*
X75402877Y-121461612D01*
X75246390Y-121545257D01*
X75206959Y-121557218D01*
X75076588Y-121596766D01*
X74988362Y-121605455D01*
X74944250Y-121609800D01*
X74855750Y-121609800D01*
X74811638Y-121605455D01*
X74723412Y-121596766D01*
X74593041Y-121557218D01*
X74553610Y-121545257D01*
X74397123Y-121461612D01*
X74397121Y-121461611D01*
X74361391Y-121432288D01*
X74259956Y-121349044D01*
X74176712Y-121247609D01*
X74147389Y-121211879D01*
X74127100Y-121173922D01*
X74063743Y-121055390D01*
X74025320Y-120928725D01*
X74012234Y-120885588D01*
X73994842Y-120709000D01*
X74012234Y-120532412D01*
X74055048Y-120391275D01*
X74063743Y-120362610D01*
X74147388Y-120206123D01*
X74147389Y-120206121D01*
X74188625Y-120155875D01*
X74259956Y-120068956D01*
X74361391Y-119985712D01*
X74397121Y-119956389D01*
X74443468Y-119931616D01*
X74553610Y-119872743D01*
X74610211Y-119855573D01*
X74723412Y-119821234D01*
X74811638Y-119812545D01*
X74855750Y-119808200D01*
X74944250Y-119808200D01*
X74988362Y-119812545D01*
X74988362Y-119812545D01*
G37*
G36*
X136524462Y-119298600D02*
X136572270Y-119303308D01*
X136694946Y-119340522D01*
X136694949Y-119340523D01*
X136808005Y-119400952D01*
X136907102Y-119482280D01*
X136988430Y-119581377D01*
X137048859Y-119694433D01*
X137048860Y-119694436D01*
X137086074Y-119817112D01*
X137098639Y-119944691D01*
X137086074Y-120072270D01*
X137048860Y-120194946D01*
X137048859Y-120194949D01*
X136988430Y-120308005D01*
X136907102Y-120407102D01*
X136808005Y-120488430D01*
X136694949Y-120548859D01*
X136694946Y-120548860D01*
X136572270Y-120586074D01*
X136524462Y-120590782D01*
X136476656Y-120595491D01*
X135862726Y-120595491D01*
X135814920Y-120590782D01*
X135767112Y-120586074D01*
X135644436Y-120548860D01*
X135644433Y-120548859D01*
X135531377Y-120488430D01*
X135432280Y-120407102D01*
X135350952Y-120308005D01*
X135290523Y-120194949D01*
X135290522Y-120194946D01*
X135253308Y-120072270D01*
X135240743Y-119944691D01*
X135253308Y-119817112D01*
X135290522Y-119694436D01*
X135290523Y-119694433D01*
X135350952Y-119581377D01*
X135432280Y-119482280D01*
X135531377Y-119400952D01*
X135644433Y-119340523D01*
X135644436Y-119340522D01*
X135767112Y-119303308D01*
X135814920Y-119298600D01*
X135862726Y-119293891D01*
X136476656Y-119293891D01*
X136524462Y-119298600D01*
X136524462Y-119298600D01*
G37*
G36*
X74988362Y-117272545D02*
X75076588Y-117281234D01*
X75189789Y-117315573D01*
X75246390Y-117332743D01*
X75373999Y-117400952D01*
X75402879Y-117416389D01*
X75438609Y-117445712D01*
X75540044Y-117528956D01*
X75593587Y-117594200D01*
X75652611Y-117666121D01*
X75652612Y-117666123D01*
X75736257Y-117822610D01*
X75736257Y-117822611D01*
X75787766Y-117992412D01*
X75805158Y-118169000D01*
X75787766Y-118345588D01*
X75766940Y-118414241D01*
X75736257Y-118515390D01*
X75693276Y-118595800D01*
X75652611Y-118671879D01*
X75623288Y-118707609D01*
X75540044Y-118809044D01*
X75438609Y-118892288D01*
X75402879Y-118921611D01*
X75402877Y-118921612D01*
X75246390Y-119005257D01*
X75189789Y-119022427D01*
X75076588Y-119056766D01*
X74988362Y-119065455D01*
X74944250Y-119069800D01*
X74855750Y-119069800D01*
X74811638Y-119065455D01*
X74723412Y-119056766D01*
X74610211Y-119022427D01*
X74553610Y-119005257D01*
X74397123Y-118921612D01*
X74397121Y-118921611D01*
X74361391Y-118892288D01*
X74259956Y-118809044D01*
X74176712Y-118707609D01*
X74147389Y-118671879D01*
X74106724Y-118595800D01*
X74063743Y-118515390D01*
X74033060Y-118414241D01*
X74012234Y-118345588D01*
X73994842Y-118169000D01*
X74012234Y-117992412D01*
X74063743Y-117822611D01*
X74063743Y-117822610D01*
X74147388Y-117666123D01*
X74147389Y-117666121D01*
X74206413Y-117594200D01*
X74259956Y-117528956D01*
X74361391Y-117445712D01*
X74397121Y-117416389D01*
X74426001Y-117400952D01*
X74553610Y-117332743D01*
X74610211Y-117315573D01*
X74723412Y-117281234D01*
X74811638Y-117272545D01*
X74855750Y-117268200D01*
X74944250Y-117268200D01*
X74988362Y-117272545D01*
X74988362Y-117272545D01*
G37*
G36*
X136524462Y-117298600D02*
X136572270Y-117303308D01*
X136694946Y-117340522D01*
X136694949Y-117340523D01*
X136808005Y-117400952D01*
X136907102Y-117482280D01*
X136988430Y-117581377D01*
X137048859Y-117694433D01*
X137048860Y-117694436D01*
X137086074Y-117817112D01*
X137098639Y-117944691D01*
X137086074Y-118072270D01*
X137069589Y-118126612D01*
X137048859Y-118194949D01*
X136988430Y-118308005D01*
X136907102Y-118407102D01*
X136808005Y-118488430D01*
X136694949Y-118548859D01*
X136694946Y-118548860D01*
X136572270Y-118586074D01*
X136524462Y-118590783D01*
X136476656Y-118595491D01*
X135862726Y-118595491D01*
X135814920Y-118590783D01*
X135767112Y-118586074D01*
X135644436Y-118548860D01*
X135644433Y-118548859D01*
X135531377Y-118488430D01*
X135432280Y-118407102D01*
X135350952Y-118308005D01*
X135290523Y-118194949D01*
X135269793Y-118126612D01*
X135253308Y-118072270D01*
X135240743Y-117944691D01*
X135253308Y-117817112D01*
X135290522Y-117694436D01*
X135290523Y-117694433D01*
X135350952Y-117581377D01*
X135432280Y-117482280D01*
X135531377Y-117400952D01*
X135644433Y-117340523D01*
X135644436Y-117340522D01*
X135767112Y-117303308D01*
X135814920Y-117298600D01*
X135862726Y-117293891D01*
X136476656Y-117293891D01*
X136524462Y-117298600D01*
X136524462Y-117298600D01*
G37*
G36*
X79433362Y-116477545D02*
X79521588Y-116486234D01*
X79632899Y-116520000D01*
X79691390Y-116537743D01*
X79829980Y-116611822D01*
X79847879Y-116621389D01*
X79883609Y-116650712D01*
X79985044Y-116733956D01*
X80060514Y-116825918D01*
X80097611Y-116871121D01*
X80097612Y-116871123D01*
X80181257Y-117027610D01*
X80181257Y-117027611D01*
X80232766Y-117197412D01*
X80250158Y-117374000D01*
X80232766Y-117550588D01*
X80223426Y-117581377D01*
X80181257Y-117720390D01*
X80142669Y-117792582D01*
X80097611Y-117876879D01*
X80086186Y-117890800D01*
X79985044Y-118014044D01*
X79883609Y-118097288D01*
X79847879Y-118126611D01*
X79847877Y-118126612D01*
X79691390Y-118210257D01*
X79634789Y-118227427D01*
X79521588Y-118261766D01*
X79433362Y-118270455D01*
X79389250Y-118274800D01*
X79300750Y-118274800D01*
X79256638Y-118270455D01*
X79168412Y-118261766D01*
X79055211Y-118227427D01*
X78998610Y-118210257D01*
X78842123Y-118126612D01*
X78842121Y-118126611D01*
X78806391Y-118097288D01*
X78704956Y-118014044D01*
X78603814Y-117890800D01*
X78592389Y-117876879D01*
X78547331Y-117792582D01*
X78508743Y-117720390D01*
X78466574Y-117581377D01*
X78457234Y-117550588D01*
X78439842Y-117374000D01*
X78457234Y-117197412D01*
X78508743Y-117027611D01*
X78508743Y-117027610D01*
X78592388Y-116871123D01*
X78592389Y-116871121D01*
X78629486Y-116825918D01*
X78704956Y-116733956D01*
X78806391Y-116650712D01*
X78842121Y-116621389D01*
X78860020Y-116611822D01*
X78998610Y-116537743D01*
X79057101Y-116520000D01*
X79168412Y-116486234D01*
X79256638Y-116477545D01*
X79300750Y-116473200D01*
X79389250Y-116473200D01*
X79433362Y-116477545D01*
X79433362Y-116477545D01*
G37*
G36*
X84513362Y-116477545D02*
X84601588Y-116486234D01*
X84712899Y-116520000D01*
X84771390Y-116537743D01*
X84909980Y-116611822D01*
X84927879Y-116621389D01*
X84963609Y-116650712D01*
X85065044Y-116733956D01*
X85140514Y-116825918D01*
X85177611Y-116871121D01*
X85177612Y-116871123D01*
X85261257Y-117027610D01*
X85261257Y-117027611D01*
X85312766Y-117197412D01*
X85330158Y-117374000D01*
X85312766Y-117550588D01*
X85303426Y-117581377D01*
X85261257Y-117720390D01*
X85222669Y-117792582D01*
X85177611Y-117876879D01*
X85166186Y-117890800D01*
X85065044Y-118014044D01*
X84963609Y-118097288D01*
X84927879Y-118126611D01*
X84927877Y-118126612D01*
X84771390Y-118210257D01*
X84714789Y-118227427D01*
X84601588Y-118261766D01*
X84513362Y-118270455D01*
X84469250Y-118274800D01*
X84380750Y-118274800D01*
X84336638Y-118270455D01*
X84248412Y-118261766D01*
X84135211Y-118227427D01*
X84078610Y-118210257D01*
X83922123Y-118126612D01*
X83922121Y-118126611D01*
X83886391Y-118097288D01*
X83784956Y-118014044D01*
X83683814Y-117890800D01*
X83672389Y-117876879D01*
X83627331Y-117792582D01*
X83588743Y-117720390D01*
X83546574Y-117581377D01*
X83537234Y-117550588D01*
X83519842Y-117374000D01*
X83537234Y-117197412D01*
X83588743Y-117027611D01*
X83588743Y-117027610D01*
X83672388Y-116871123D01*
X83672389Y-116871121D01*
X83709486Y-116825918D01*
X83784956Y-116733956D01*
X83886391Y-116650712D01*
X83922121Y-116621389D01*
X83940020Y-116611822D01*
X84078610Y-116537743D01*
X84137101Y-116520000D01*
X84248412Y-116486234D01*
X84336638Y-116477545D01*
X84380750Y-116473200D01*
X84469250Y-116473200D01*
X84513362Y-116477545D01*
X84513362Y-116477545D01*
G37*
G36*
X81973362Y-116477545D02*
X82061588Y-116486234D01*
X82172899Y-116520000D01*
X82231390Y-116537743D01*
X82369980Y-116611822D01*
X82387879Y-116621389D01*
X82423609Y-116650712D01*
X82525044Y-116733956D01*
X82600514Y-116825918D01*
X82637611Y-116871121D01*
X82637612Y-116871123D01*
X82721257Y-117027610D01*
X82721257Y-117027611D01*
X82772766Y-117197412D01*
X82790158Y-117374000D01*
X82772766Y-117550588D01*
X82763426Y-117581377D01*
X82721257Y-117720390D01*
X82682669Y-117792582D01*
X82637611Y-117876879D01*
X82626186Y-117890800D01*
X82525044Y-118014044D01*
X82423609Y-118097288D01*
X82387879Y-118126611D01*
X82387877Y-118126612D01*
X82231390Y-118210257D01*
X82174789Y-118227427D01*
X82061588Y-118261766D01*
X81973362Y-118270455D01*
X81929250Y-118274800D01*
X81840750Y-118274800D01*
X81796638Y-118270455D01*
X81708412Y-118261766D01*
X81595211Y-118227427D01*
X81538610Y-118210257D01*
X81382123Y-118126612D01*
X81382121Y-118126611D01*
X81346391Y-118097288D01*
X81244956Y-118014044D01*
X81143814Y-117890800D01*
X81132389Y-117876879D01*
X81087331Y-117792582D01*
X81048743Y-117720390D01*
X81006574Y-117581377D01*
X80997234Y-117550588D01*
X80979842Y-117374000D01*
X80997234Y-117197412D01*
X81048743Y-117027611D01*
X81048743Y-117027610D01*
X81132388Y-116871123D01*
X81132389Y-116871121D01*
X81169486Y-116825918D01*
X81244956Y-116733956D01*
X81346391Y-116650712D01*
X81382121Y-116621389D01*
X81400020Y-116611822D01*
X81538610Y-116537743D01*
X81597101Y-116520000D01*
X81708412Y-116486234D01*
X81796638Y-116477545D01*
X81840750Y-116473200D01*
X81929250Y-116473200D01*
X81973362Y-116477545D01*
X81973362Y-116477545D01*
G37*
G36*
X195483725Y-115169034D02*
X195742120Y-115247418D01*
X195980261Y-115374706D01*
X196188992Y-115546008D01*
X196360294Y-115754739D01*
X196487582Y-115992880D01*
X196565966Y-116251275D01*
X196592432Y-116520000D01*
X196565966Y-116788725D01*
X196487582Y-117047120D01*
X196360294Y-117285261D01*
X196188992Y-117493992D01*
X195980261Y-117665294D01*
X195742120Y-117792582D01*
X195483725Y-117870966D01*
X195282340Y-117890800D01*
X194487660Y-117890800D01*
X194286275Y-117870966D01*
X194027880Y-117792582D01*
X193789739Y-117665294D01*
X193581008Y-117493992D01*
X193409706Y-117285261D01*
X193282418Y-117047120D01*
X193204034Y-116788725D01*
X193177568Y-116520000D01*
X193204034Y-116251275D01*
X193282418Y-115992880D01*
X193409706Y-115754739D01*
X193581008Y-115546008D01*
X193789739Y-115374706D01*
X194027880Y-115247418D01*
X194286275Y-115169034D01*
X194487660Y-115149200D01*
X195282340Y-115149200D01*
X195483725Y-115169034D01*
X195483725Y-115169034D01*
G37*
G36*
X136524462Y-115298600D02*
X136572270Y-115303308D01*
X136694946Y-115340522D01*
X136694949Y-115340523D01*
X136808005Y-115400952D01*
X136907102Y-115482280D01*
X136988430Y-115581377D01*
X137048859Y-115694433D01*
X137048860Y-115694436D01*
X137086074Y-115817112D01*
X137098639Y-115944691D01*
X137086074Y-116072270D01*
X137067402Y-116133822D01*
X137048859Y-116194949D01*
X136988430Y-116308005D01*
X136907102Y-116407102D01*
X136808005Y-116488430D01*
X136694949Y-116548859D01*
X136694946Y-116548860D01*
X136572270Y-116586074D01*
X136524462Y-116590782D01*
X136476656Y-116595491D01*
X135862726Y-116595491D01*
X135814920Y-116590782D01*
X135767112Y-116586074D01*
X135644436Y-116548860D01*
X135644433Y-116548859D01*
X135531377Y-116488430D01*
X135432280Y-116407102D01*
X135350952Y-116308005D01*
X135290523Y-116194949D01*
X135271980Y-116133822D01*
X135253308Y-116072270D01*
X135240743Y-115944691D01*
X135253308Y-115817112D01*
X135290522Y-115694436D01*
X135290523Y-115694433D01*
X135350952Y-115581377D01*
X135432280Y-115482280D01*
X135531377Y-115400952D01*
X135644433Y-115340523D01*
X135644436Y-115340522D01*
X135767112Y-115303308D01*
X135814920Y-115298600D01*
X135862726Y-115293891D01*
X136476656Y-115293891D01*
X136524462Y-115298600D01*
X136524462Y-115298600D01*
G37*
G36*
X179965105Y-112695728D02*
X180123604Y-112727255D01*
X180247290Y-112778488D01*
X180422209Y-112850941D01*
X180690952Y-113030510D01*
X180919490Y-113259048D01*
X181099059Y-113527791D01*
X181222745Y-113826397D01*
X181285800Y-114143394D01*
X181285800Y-114466606D01*
X181222745Y-114783603D01*
X181099059Y-115082209D01*
X180919490Y-115350952D01*
X180690952Y-115579490D01*
X180422209Y-115759059D01*
X180282056Y-115817112D01*
X180123604Y-115882745D01*
X179965104Y-115914273D01*
X179806606Y-115945800D01*
X179483394Y-115945800D01*
X179324896Y-115914273D01*
X179166396Y-115882745D01*
X179007944Y-115817112D01*
X178867791Y-115759059D01*
X178599048Y-115579490D01*
X178370510Y-115350952D01*
X178190941Y-115082209D01*
X178067255Y-114783603D01*
X178004200Y-114466606D01*
X178004200Y-114143394D01*
X178067255Y-113826397D01*
X178190941Y-113527791D01*
X178370510Y-113259048D01*
X178599048Y-113030510D01*
X178867791Y-112850941D01*
X179042710Y-112778488D01*
X179166396Y-112727255D01*
X179324895Y-112695728D01*
X179483394Y-112664200D01*
X179806606Y-112664200D01*
X179965105Y-112695728D01*
X179965105Y-112695728D01*
G37*
G36*
X81973362Y-113937545D02*
X82061588Y-113946234D01*
X82168432Y-113978645D01*
X82231390Y-113997743D01*
X82369980Y-114071822D01*
X82387879Y-114081389D01*
X82423609Y-114110712D01*
X82525044Y-114193956D01*
X82586920Y-114269354D01*
X82637611Y-114331121D01*
X82637612Y-114331123D01*
X82721257Y-114487610D01*
X82736239Y-114536998D01*
X82772766Y-114657412D01*
X82790158Y-114834000D01*
X82772766Y-115010588D01*
X82743453Y-115107218D01*
X82721257Y-115180390D01*
X82685429Y-115247418D01*
X82637611Y-115336879D01*
X82625567Y-115351554D01*
X82525044Y-115474044D01*
X82440913Y-115543087D01*
X82387879Y-115586611D01*
X82387877Y-115586612D01*
X82231390Y-115670257D01*
X82174789Y-115687427D01*
X82061588Y-115721766D01*
X81973362Y-115730455D01*
X81929250Y-115734800D01*
X81840750Y-115734800D01*
X81796638Y-115730455D01*
X81708412Y-115721766D01*
X81595211Y-115687427D01*
X81538610Y-115670257D01*
X81382123Y-115586612D01*
X81382121Y-115586611D01*
X81329087Y-115543087D01*
X81244956Y-115474044D01*
X81144433Y-115351554D01*
X81132389Y-115336879D01*
X81084571Y-115247418D01*
X81048743Y-115180390D01*
X81026547Y-115107218D01*
X80997234Y-115010588D01*
X80979842Y-114834000D01*
X80997234Y-114657412D01*
X81033761Y-114536998D01*
X81048743Y-114487610D01*
X81132388Y-114331123D01*
X81132389Y-114331121D01*
X81183080Y-114269354D01*
X81244956Y-114193956D01*
X81346391Y-114110712D01*
X81382121Y-114081389D01*
X81400020Y-114071822D01*
X81538610Y-113997743D01*
X81601568Y-113978645D01*
X81708412Y-113946234D01*
X81796638Y-113937545D01*
X81840750Y-113933200D01*
X81929250Y-113933200D01*
X81973362Y-113937545D01*
X81973362Y-113937545D01*
G37*
G36*
X80245800Y-115734800D02*
X78444200Y-115734800D01*
X78444200Y-113933200D01*
X80245800Y-113933200D01*
X80245800Y-115734800D01*
X80245800Y-115734800D01*
G37*
G36*
X84513362Y-113937545D02*
X84601588Y-113946234D01*
X84708432Y-113978645D01*
X84771390Y-113997743D01*
X84909980Y-114071822D01*
X84927879Y-114081389D01*
X84963609Y-114110712D01*
X85065044Y-114193956D01*
X85126920Y-114269354D01*
X85177611Y-114331121D01*
X85177612Y-114331123D01*
X85261257Y-114487610D01*
X85276239Y-114536998D01*
X85312766Y-114657412D01*
X85330158Y-114834000D01*
X85312766Y-115010588D01*
X85283453Y-115107218D01*
X85261257Y-115180390D01*
X85225429Y-115247418D01*
X85177611Y-115336879D01*
X85165567Y-115351554D01*
X85065044Y-115474044D01*
X84980913Y-115543087D01*
X84927879Y-115586611D01*
X84927877Y-115586612D01*
X84771390Y-115670257D01*
X84714789Y-115687427D01*
X84601588Y-115721766D01*
X84513362Y-115730455D01*
X84469250Y-115734800D01*
X84380750Y-115734800D01*
X84336638Y-115730455D01*
X84248412Y-115721766D01*
X84135211Y-115687427D01*
X84078610Y-115670257D01*
X83922123Y-115586612D01*
X83922121Y-115586611D01*
X83869087Y-115543087D01*
X83784956Y-115474044D01*
X83684433Y-115351554D01*
X83672389Y-115336879D01*
X83624571Y-115247418D01*
X83588743Y-115180390D01*
X83566547Y-115107218D01*
X83537234Y-115010588D01*
X83519842Y-114834000D01*
X83537234Y-114657412D01*
X83573761Y-114536998D01*
X83588743Y-114487610D01*
X83672388Y-114331123D01*
X83672389Y-114331121D01*
X83723080Y-114269354D01*
X83784956Y-114193956D01*
X83886391Y-114110712D01*
X83922121Y-114081389D01*
X83940020Y-114071822D01*
X84078610Y-113997743D01*
X84141568Y-113978645D01*
X84248412Y-113946234D01*
X84336638Y-113937545D01*
X84380750Y-113933200D01*
X84469250Y-113933200D01*
X84513362Y-113937545D01*
X84513362Y-113937545D01*
G37*
G36*
X61865473Y-112704913D02*
X62134054Y-112816163D01*
X62375771Y-112977673D01*
X62581327Y-113183229D01*
X62742837Y-113424946D01*
X62854087Y-113693527D01*
X62910800Y-113978645D01*
X62910800Y-114269355D01*
X62854087Y-114554473D01*
X62742837Y-114823054D01*
X62581327Y-115064771D01*
X62375771Y-115270327D01*
X62134054Y-115431837D01*
X61865473Y-115543087D01*
X61580355Y-115599800D01*
X61289645Y-115599800D01*
X61004527Y-115543087D01*
X60735946Y-115431837D01*
X60494229Y-115270327D01*
X60288673Y-115064771D01*
X60127163Y-114823054D01*
X60015913Y-114554473D01*
X59959200Y-114269355D01*
X59959200Y-113978645D01*
X60015913Y-113693527D01*
X60127163Y-113424946D01*
X60288673Y-113183229D01*
X60494229Y-112977673D01*
X60735946Y-112816163D01*
X61004527Y-112704913D01*
X61289645Y-112648200D01*
X61580355Y-112648200D01*
X61865473Y-112704913D01*
X61865473Y-112704913D01*
G37*
G36*
X136935802Y-113298293D02*
X136972873Y-113309539D01*
X137007052Y-113327807D01*
X137036998Y-113352384D01*
X137061575Y-113382330D01*
X137079843Y-113416509D01*
X137091089Y-113453580D01*
X137095491Y-113498280D01*
X137095491Y-114391102D01*
X137091089Y-114435802D01*
X137079843Y-114472873D01*
X137061575Y-114507052D01*
X137036998Y-114536998D01*
X137007052Y-114561575D01*
X136972873Y-114579843D01*
X136935802Y-114591089D01*
X136891102Y-114595491D01*
X135448280Y-114595491D01*
X135403580Y-114591089D01*
X135366509Y-114579843D01*
X135332330Y-114561575D01*
X135302384Y-114536998D01*
X135277807Y-114507052D01*
X135259539Y-114472873D01*
X135248293Y-114435802D01*
X135243891Y-114391102D01*
X135243891Y-113498280D01*
X135248293Y-113453580D01*
X135259539Y-113416509D01*
X135277807Y-113382330D01*
X135302384Y-113352384D01*
X135332330Y-113327807D01*
X135366509Y-113309539D01*
X135403580Y-113298293D01*
X135448280Y-113293891D01*
X136891102Y-113293891D01*
X136935802Y-113298293D01*
X136935802Y-113298293D01*
G37*
G36*
X196585800Y-113750800D02*
X193184200Y-113750800D01*
X193184200Y-111009200D01*
X196585800Y-111009200D01*
X196585800Y-113750800D01*
X196585800Y-113750800D01*
G37*
G36*
X180243725Y-108514034D02*
X180502120Y-108592418D01*
X180740261Y-108719706D01*
X180948992Y-108891008D01*
X181120294Y-109099739D01*
X181247582Y-109337880D01*
X181325966Y-109596275D01*
X181352432Y-109865000D01*
X181325966Y-110133725D01*
X181247582Y-110392120D01*
X181120294Y-110630261D01*
X180948992Y-110838992D01*
X180740261Y-111010294D01*
X180502120Y-111137582D01*
X180243725Y-111215966D01*
X180042340Y-111235800D01*
X179247660Y-111235800D01*
X179046275Y-111215966D01*
X178787880Y-111137582D01*
X178549739Y-111010294D01*
X178341008Y-110838992D01*
X178169706Y-110630261D01*
X178042418Y-110392120D01*
X177964034Y-110133725D01*
X177937568Y-109865000D01*
X177964034Y-109596275D01*
X178042418Y-109337880D01*
X178169706Y-109099739D01*
X178341008Y-108891008D01*
X178549739Y-108719706D01*
X178787880Y-108592418D01*
X179046275Y-108514034D01*
X179247660Y-108494200D01*
X180042340Y-108494200D01*
X180243725Y-108514034D01*
X180243725Y-108514034D01*
G37*
G36*
X227143597Y-108227031D02*
X227398528Y-108332627D01*
X227627958Y-108485927D01*
X227823073Y-108681042D01*
X227924033Y-108832140D01*
X227976373Y-108910472D01*
X228081969Y-109165403D01*
X228135800Y-109436032D01*
X228135800Y-109711968D01*
X228081969Y-109982597D01*
X227976373Y-110237528D01*
X227823073Y-110466958D01*
X227627958Y-110662073D01*
X227398528Y-110815373D01*
X227143597Y-110920969D01*
X226872968Y-110974800D01*
X226597032Y-110974800D01*
X226326403Y-110920969D01*
X226071472Y-110815373D01*
X225842042Y-110662073D01*
X225646927Y-110466958D01*
X225493627Y-110237528D01*
X225388031Y-109982597D01*
X225334200Y-109711968D01*
X225334200Y-109436032D01*
X225388031Y-109165403D01*
X225493627Y-108910472D01*
X225545967Y-108832140D01*
X225646927Y-108681042D01*
X225842042Y-108485927D01*
X226071472Y-108332627D01*
X226326403Y-108227031D01*
X226597032Y-108173200D01*
X226872968Y-108173200D01*
X227143597Y-108227031D01*
X227143597Y-108227031D01*
G37*
G36*
X58332660Y-106313091D02*
X58580765Y-106415860D01*
X58696297Y-106493056D01*
X58804056Y-106565058D01*
X58993942Y-106754944D01*
X58993944Y-106754947D01*
X59114191Y-106934909D01*
X59143141Y-106978237D01*
X59245909Y-107226340D01*
X59298300Y-107489726D01*
X59298300Y-107758274D01*
X59245909Y-108021660D01*
X59143141Y-108269763D01*
X58993942Y-108493056D01*
X58804056Y-108682942D01*
X58804053Y-108682944D01*
X58580765Y-108832140D01*
X58580764Y-108832141D01*
X58580763Y-108832141D01*
X58332660Y-108934909D01*
X58069274Y-108987300D01*
X57800726Y-108987300D01*
X57537340Y-108934909D01*
X57289237Y-108832141D01*
X57289236Y-108832141D01*
X57289235Y-108832140D01*
X57065947Y-108682944D01*
X57065944Y-108682942D01*
X56876058Y-108493056D01*
X56726859Y-108269763D01*
X56624091Y-108021660D01*
X56571700Y-107758274D01*
X56571700Y-107489726D01*
X56624091Y-107226340D01*
X56726859Y-106978237D01*
X56755810Y-106934909D01*
X56876056Y-106754947D01*
X56876058Y-106754944D01*
X57065944Y-106565058D01*
X57173703Y-106493056D01*
X57289235Y-106415860D01*
X57537340Y-106313091D01*
X57800726Y-106260700D01*
X58069274Y-106260700D01*
X58332660Y-106313091D01*
X58332660Y-106313091D01*
G37*
G36*
X67298300Y-108987300D02*
X64571700Y-108987300D01*
X64571700Y-106260700D01*
X67298300Y-106260700D01*
X67298300Y-108987300D01*
X67298300Y-108987300D01*
G37*
G36*
X180243725Y-104374034D02*
X180502120Y-104452418D01*
X180740261Y-104579706D01*
X180948992Y-104751008D01*
X181120294Y-104959739D01*
X181247582Y-105197880D01*
X181325966Y-105456275D01*
X181352432Y-105725000D01*
X181325966Y-105993725D01*
X181247582Y-106252120D01*
X181120294Y-106490261D01*
X180948992Y-106698992D01*
X180740261Y-106870294D01*
X180502120Y-106997582D01*
X180243725Y-107075966D01*
X180042340Y-107095800D01*
X179247660Y-107095800D01*
X179046275Y-107075966D01*
X178787880Y-106997582D01*
X178549739Y-106870294D01*
X178341008Y-106698992D01*
X178169706Y-106490261D01*
X178042418Y-106252120D01*
X177964034Y-105993725D01*
X177937568Y-105725000D01*
X177964034Y-105456275D01*
X178042418Y-105197880D01*
X178169706Y-104959739D01*
X178341008Y-104751008D01*
X178549739Y-104579706D01*
X178787880Y-104452418D01*
X179046275Y-104374034D01*
X179247660Y-104354200D01*
X180042340Y-104354200D01*
X180243725Y-104374034D01*
X180243725Y-104374034D01*
G37*
G36*
X62332660Y-104313091D02*
X62431906Y-104354200D01*
X62580765Y-104415860D01*
X62696297Y-104493056D01*
X62804056Y-104565058D01*
X62993942Y-104754944D01*
X62993944Y-104754947D01*
X63143140Y-104978235D01*
X63245909Y-105226340D01*
X63298300Y-105489727D01*
X63298300Y-105758273D01*
X63245909Y-106021660D01*
X63143140Y-106269765D01*
X63045523Y-106415859D01*
X62993942Y-106493056D01*
X62804056Y-106682942D01*
X62804053Y-106682944D01*
X62580765Y-106832140D01*
X62580764Y-106832141D01*
X62580763Y-106832141D01*
X62332660Y-106934909D01*
X62069274Y-106987300D01*
X61800726Y-106987300D01*
X61537340Y-106934909D01*
X61289237Y-106832141D01*
X61289236Y-106832141D01*
X61289235Y-106832140D01*
X61065947Y-106682944D01*
X61065944Y-106682942D01*
X60876058Y-106493056D01*
X60824477Y-106415859D01*
X60726860Y-106269765D01*
X60624091Y-106021660D01*
X60571700Y-105758273D01*
X60571700Y-105489727D01*
X60624091Y-105226340D01*
X60726860Y-104978235D01*
X60876056Y-104754947D01*
X60876058Y-104754944D01*
X61065944Y-104565058D01*
X61173703Y-104493056D01*
X61289235Y-104415860D01*
X61438095Y-104354200D01*
X61537340Y-104313091D01*
X61800726Y-104260700D01*
X62069274Y-104260700D01*
X62332660Y-104313091D01*
X62332660Y-104313091D01*
G37*
G36*
X66332660Y-102313091D02*
X66580765Y-102415860D01*
X66696297Y-102493056D01*
X66804056Y-102565058D01*
X66993942Y-102754944D01*
X66993944Y-102754947D01*
X67114191Y-102934909D01*
X67143141Y-102978237D01*
X67146895Y-102987300D01*
X67245909Y-103226340D01*
X67298300Y-103489727D01*
X67298300Y-103758273D01*
X67245909Y-104021660D01*
X67143140Y-104269765D01*
X67086722Y-104354200D01*
X66993942Y-104493056D01*
X66804056Y-104682942D01*
X66804053Y-104682944D01*
X66580765Y-104832140D01*
X66580764Y-104832141D01*
X66580763Y-104832141D01*
X66332660Y-104934909D01*
X66069274Y-104987300D01*
X65800726Y-104987300D01*
X65537340Y-104934909D01*
X65289237Y-104832141D01*
X65289236Y-104832141D01*
X65289235Y-104832140D01*
X65065947Y-104682944D01*
X65065944Y-104682942D01*
X64876058Y-104493056D01*
X64783278Y-104354200D01*
X64726860Y-104269765D01*
X64624091Y-104021660D01*
X64571700Y-103758273D01*
X64571700Y-103489727D01*
X64624091Y-103226340D01*
X64723105Y-102987300D01*
X64726859Y-102978237D01*
X64755810Y-102934909D01*
X64876056Y-102754947D01*
X64876058Y-102754944D01*
X65065944Y-102565058D01*
X65173703Y-102493056D01*
X65289235Y-102415860D01*
X65537340Y-102313091D01*
X65800726Y-102260700D01*
X66069274Y-102260700D01*
X66332660Y-102313091D01*
X66332660Y-102313091D01*
G37*
G36*
X58332660Y-102313091D02*
X58580765Y-102415860D01*
X58696297Y-102493056D01*
X58804056Y-102565058D01*
X58993942Y-102754944D01*
X58993944Y-102754947D01*
X59114191Y-102934909D01*
X59143141Y-102978237D01*
X59146895Y-102987300D01*
X59245909Y-103226340D01*
X59298300Y-103489727D01*
X59298300Y-103758273D01*
X59245909Y-104021660D01*
X59143140Y-104269765D01*
X59086722Y-104354200D01*
X58993942Y-104493056D01*
X58804056Y-104682942D01*
X58804053Y-104682944D01*
X58580765Y-104832140D01*
X58580764Y-104832141D01*
X58580763Y-104832141D01*
X58332660Y-104934909D01*
X58069274Y-104987300D01*
X57800726Y-104987300D01*
X57537340Y-104934909D01*
X57289237Y-104832141D01*
X57289236Y-104832141D01*
X57289235Y-104832140D01*
X57065947Y-104682944D01*
X57065944Y-104682942D01*
X56876058Y-104493056D01*
X56783278Y-104354200D01*
X56726860Y-104269765D01*
X56624091Y-104021660D01*
X56571700Y-103758273D01*
X56571700Y-103489727D01*
X56624091Y-103226340D01*
X56723105Y-102987300D01*
X56726859Y-102978237D01*
X56755810Y-102934909D01*
X56876056Y-102754947D01*
X56876058Y-102754944D01*
X57065944Y-102565058D01*
X57173703Y-102493056D01*
X57289235Y-102415860D01*
X57537340Y-102313091D01*
X57800726Y-102260700D01*
X58069274Y-102260700D01*
X58332660Y-102313091D01*
X58332660Y-102313091D01*
G37*
G36*
X155322942Y-94814857D02*
X155954082Y-94940398D01*
X156745877Y-95268371D01*
X157458474Y-95744513D01*
X158064487Y-96350526D01*
X158540629Y-97063123D01*
X158868602Y-97854918D01*
X158980179Y-98415859D01*
X159035800Y-98695482D01*
X159035800Y-99552518D01*
X159025250Y-99605554D01*
X158868602Y-100393082D01*
X158540629Y-101184877D01*
X158064487Y-101897474D01*
X157458474Y-102503487D01*
X156745877Y-102979629D01*
X155954082Y-103307602D01*
X155322942Y-103433143D01*
X155113518Y-103474800D01*
X154256482Y-103474800D01*
X154047058Y-103433143D01*
X153415918Y-103307602D01*
X152624123Y-102979629D01*
X151911526Y-102503487D01*
X151305513Y-101897474D01*
X150829371Y-101184877D01*
X150501398Y-100393082D01*
X150344750Y-99605554D01*
X150334200Y-99552518D01*
X150334200Y-98695482D01*
X150389821Y-98415859D01*
X150501398Y-97854918D01*
X150829371Y-97063123D01*
X151305513Y-96350526D01*
X151911526Y-95744513D01*
X152624123Y-95268371D01*
X153415918Y-94940398D01*
X154047058Y-94814857D01*
X154256482Y-94773200D01*
X155113518Y-94773200D01*
X155322942Y-94814857D01*
X155322942Y-94814857D01*
G37*
G36*
X62332660Y-100313091D02*
X62525775Y-100393082D01*
X62580765Y-100415860D01*
X62696297Y-100493056D01*
X62804056Y-100565058D01*
X62993942Y-100754944D01*
X62993944Y-100754947D01*
X63114191Y-100934909D01*
X63143141Y-100978237D01*
X63245909Y-101226340D01*
X63298300Y-101489726D01*
X63298300Y-101758274D01*
X63245909Y-102021660D01*
X63170828Y-102202922D01*
X63143140Y-102269765D01*
X63057240Y-102398324D01*
X62993942Y-102493056D01*
X62804056Y-102682942D01*
X62804053Y-102682944D01*
X62580765Y-102832140D01*
X62580764Y-102832141D01*
X62580763Y-102832141D01*
X62332660Y-102934909D01*
X62069274Y-102987300D01*
X61800726Y-102987300D01*
X61537340Y-102934909D01*
X61289237Y-102832141D01*
X61289236Y-102832141D01*
X61289235Y-102832140D01*
X61065947Y-102682944D01*
X61065944Y-102682942D01*
X60876058Y-102493056D01*
X60812760Y-102398324D01*
X60726860Y-102269765D01*
X60699173Y-102202922D01*
X60624091Y-102021660D01*
X60571700Y-101758274D01*
X60571700Y-101489726D01*
X60624091Y-101226340D01*
X60726859Y-100978237D01*
X60755810Y-100934909D01*
X60876056Y-100754947D01*
X60876058Y-100754944D01*
X61065944Y-100565058D01*
X61173703Y-100493056D01*
X61289235Y-100415860D01*
X61344226Y-100393082D01*
X61537340Y-100313091D01*
X61800726Y-100260700D01*
X62069274Y-100260700D01*
X62332660Y-100313091D01*
X62332660Y-100313091D01*
G37*
G36*
X181345800Y-102955800D02*
X177944200Y-102955800D01*
X177944200Y-100214200D01*
X181345800Y-100214200D01*
X181345800Y-102955800D01*
X181345800Y-102955800D01*
G37*
G36*
X58332660Y-98313091D02*
X58580765Y-98415860D01*
X58696297Y-98493056D01*
X58804056Y-98565058D01*
X58993942Y-98754944D01*
X58993944Y-98754947D01*
X59114191Y-98934909D01*
X59143141Y-98978237D01*
X59245909Y-99226340D01*
X59289054Y-99443241D01*
X59298300Y-99489727D01*
X59298300Y-99758273D01*
X59245909Y-100021660D01*
X59143140Y-100269765D01*
X59060743Y-100393081D01*
X58993942Y-100493056D01*
X58804056Y-100682942D01*
X58804053Y-100682944D01*
X58580765Y-100832140D01*
X58580764Y-100832141D01*
X58580763Y-100832141D01*
X58332660Y-100934909D01*
X58069274Y-100987300D01*
X57800726Y-100987300D01*
X57537340Y-100934909D01*
X57289237Y-100832141D01*
X57289236Y-100832141D01*
X57289235Y-100832140D01*
X57065947Y-100682944D01*
X57065944Y-100682942D01*
X56876058Y-100493056D01*
X56809257Y-100393081D01*
X56726860Y-100269765D01*
X56624091Y-100021660D01*
X56571700Y-99758273D01*
X56571700Y-99489727D01*
X56580947Y-99443241D01*
X56624091Y-99226340D01*
X56726859Y-98978237D01*
X56755810Y-98934909D01*
X56876056Y-98754947D01*
X56876058Y-98754944D01*
X57065944Y-98565058D01*
X57173703Y-98493056D01*
X57289235Y-98415860D01*
X57537340Y-98313091D01*
X57800726Y-98260700D01*
X58069274Y-98260700D01*
X58332660Y-98313091D01*
X58332660Y-98313091D01*
G37*
G36*
X66332660Y-98313091D02*
X66580765Y-98415860D01*
X66696297Y-98493056D01*
X66804056Y-98565058D01*
X66993942Y-98754944D01*
X66993944Y-98754947D01*
X67114191Y-98934909D01*
X67143141Y-98978237D01*
X67245909Y-99226340D01*
X67289054Y-99443241D01*
X67298300Y-99489727D01*
X67298300Y-99758273D01*
X67245909Y-100021660D01*
X67143140Y-100269765D01*
X67060743Y-100393081D01*
X66993942Y-100493056D01*
X66804056Y-100682942D01*
X66804053Y-100682944D01*
X66580765Y-100832140D01*
X66580764Y-100832141D01*
X66580763Y-100832141D01*
X66332660Y-100934909D01*
X66069274Y-100987300D01*
X65800726Y-100987300D01*
X65537340Y-100934909D01*
X65289237Y-100832141D01*
X65289236Y-100832141D01*
X65289235Y-100832140D01*
X65065947Y-100682944D01*
X65065944Y-100682942D01*
X64876058Y-100493056D01*
X64809257Y-100393081D01*
X64726860Y-100269765D01*
X64624091Y-100021660D01*
X64571700Y-99758273D01*
X64571700Y-99489727D01*
X64580947Y-99443241D01*
X64624091Y-99226340D01*
X64726859Y-98978237D01*
X64755810Y-98934909D01*
X64876056Y-98754947D01*
X64876058Y-98754944D01*
X65065944Y-98565058D01*
X65173703Y-98493056D01*
X65289235Y-98415860D01*
X65537340Y-98313091D01*
X65800726Y-98260700D01*
X66069274Y-98260700D01*
X66332660Y-98313091D01*
X66332660Y-98313091D01*
G37*
G36*
X227187352Y-96832796D02*
X227469579Y-96949699D01*
X227723578Y-97119415D01*
X227939585Y-97335422D01*
X228109301Y-97589421D01*
X228226204Y-97871648D01*
X228285800Y-98171259D01*
X228285800Y-98476741D01*
X228226204Y-98776352D01*
X228109301Y-99058579D01*
X227939585Y-99312578D01*
X227723578Y-99528585D01*
X227469579Y-99698301D01*
X227187352Y-99815204D01*
X226887741Y-99874800D01*
X226582259Y-99874800D01*
X226282648Y-99815204D01*
X226000421Y-99698301D01*
X225746422Y-99528585D01*
X225530415Y-99312578D01*
X225360699Y-99058579D01*
X225243796Y-98776352D01*
X225184200Y-98476741D01*
X225184200Y-98171259D01*
X225243796Y-97871648D01*
X225360699Y-97589421D01*
X225530415Y-97335422D01*
X225746422Y-97119415D01*
X226000421Y-96949699D01*
X226282648Y-96832796D01*
X226582259Y-96773200D01*
X226887741Y-96773200D01*
X227187352Y-96832796D01*
X227187352Y-96832796D01*
G37*
G36*
X62332660Y-96313091D02*
X62450802Y-96362027D01*
X62580765Y-96415860D01*
X62696297Y-96493056D01*
X62804056Y-96565058D01*
X62993942Y-96754944D01*
X62993944Y-96754947D01*
X63143140Y-96978235D01*
X63245909Y-97226340D01*
X63298300Y-97489727D01*
X63298300Y-97758273D01*
X63245909Y-98021660D01*
X63143140Y-98269765D01*
X63045523Y-98415859D01*
X62993942Y-98493056D01*
X62804056Y-98682942D01*
X62804053Y-98682944D01*
X62580765Y-98832140D01*
X62580764Y-98832141D01*
X62580763Y-98832141D01*
X62332660Y-98934909D01*
X62069274Y-98987300D01*
X61800726Y-98987300D01*
X61537340Y-98934909D01*
X61289237Y-98832141D01*
X61289236Y-98832141D01*
X61289235Y-98832140D01*
X61065947Y-98682944D01*
X61065944Y-98682942D01*
X60876058Y-98493056D01*
X60824477Y-98415859D01*
X60726860Y-98269765D01*
X60624091Y-98021660D01*
X60571700Y-97758273D01*
X60571700Y-97489727D01*
X60624091Y-97226340D01*
X60726860Y-96978235D01*
X60876056Y-96754947D01*
X60876058Y-96754944D01*
X61065944Y-96565058D01*
X61173703Y-96493056D01*
X61289235Y-96415860D01*
X61419199Y-96362027D01*
X61537340Y-96313091D01*
X61800726Y-96260700D01*
X62069274Y-96260700D01*
X62332660Y-96313091D01*
X62332660Y-96313091D01*
G37*
G36*
X58332660Y-94313091D02*
X58580765Y-94415860D01*
X58696297Y-94493056D01*
X58804056Y-94565058D01*
X58993942Y-94754944D01*
X58993944Y-94754947D01*
X59114191Y-94934909D01*
X59143141Y-94978237D01*
X59245909Y-95226340D01*
X59298300Y-95489726D01*
X59298300Y-95758274D01*
X59245909Y-96021660D01*
X59143140Y-96269765D01*
X59045523Y-96415859D01*
X58993942Y-96493056D01*
X58804056Y-96682942D01*
X58804053Y-96682944D01*
X58580765Y-96832140D01*
X58580764Y-96832141D01*
X58580763Y-96832141D01*
X58332660Y-96934909D01*
X58069274Y-96987300D01*
X57800726Y-96987300D01*
X57537340Y-96934909D01*
X57289237Y-96832141D01*
X57289236Y-96832141D01*
X57289235Y-96832140D01*
X57065947Y-96682944D01*
X57065944Y-96682942D01*
X56876058Y-96493056D01*
X56824477Y-96415859D01*
X56726860Y-96269765D01*
X56624091Y-96021660D01*
X56571700Y-95758274D01*
X56571700Y-95489726D01*
X56624091Y-95226340D01*
X56726859Y-94978237D01*
X56755810Y-94934909D01*
X56876056Y-94754947D01*
X56876058Y-94754944D01*
X57065944Y-94565058D01*
X57173703Y-94493056D01*
X57289235Y-94415860D01*
X57537340Y-94313091D01*
X57800726Y-94260700D01*
X58069274Y-94260700D01*
X58332660Y-94313091D01*
X58332660Y-94313091D01*
G37*
G36*
X66332660Y-94313091D02*
X66580765Y-94415860D01*
X66696297Y-94493056D01*
X66804056Y-94565058D01*
X66993942Y-94754944D01*
X66993944Y-94754947D01*
X67114191Y-94934909D01*
X67143141Y-94978237D01*
X67245909Y-95226340D01*
X67298300Y-95489726D01*
X67298300Y-95758274D01*
X67245909Y-96021660D01*
X67143140Y-96269765D01*
X67045523Y-96415859D01*
X66993942Y-96493056D01*
X66804056Y-96682942D01*
X66804053Y-96682944D01*
X66580765Y-96832140D01*
X66580764Y-96832141D01*
X66580763Y-96832141D01*
X66332660Y-96934909D01*
X66069274Y-96987300D01*
X65800726Y-96987300D01*
X65537340Y-96934909D01*
X65289237Y-96832141D01*
X65289236Y-96832141D01*
X65289235Y-96832140D01*
X65065947Y-96682944D01*
X65065944Y-96682942D01*
X64876058Y-96493056D01*
X64824477Y-96415859D01*
X64726860Y-96269765D01*
X64624091Y-96021660D01*
X64571700Y-95758274D01*
X64571700Y-95489726D01*
X64624091Y-95226340D01*
X64726859Y-94978237D01*
X64755810Y-94934909D01*
X64876056Y-94754947D01*
X64876058Y-94754944D01*
X65065944Y-94565058D01*
X65173703Y-94493056D01*
X65289235Y-94415860D01*
X65537340Y-94313091D01*
X65800726Y-94260700D01*
X66069274Y-94260700D01*
X66332660Y-94313091D01*
X66332660Y-94313091D01*
G37*
G36*
X85591507Y-93423582D02*
X85782740Y-93502793D01*
X85953687Y-93617016D01*
X85954849Y-93617793D01*
X86101207Y-93764151D01*
X86101209Y-93764154D01*
X86216207Y-93936260D01*
X86295418Y-94127493D01*
X86335800Y-94330505D01*
X86335800Y-94537495D01*
X86295418Y-94740507D01*
X86216207Y-94931740D01*
X86101984Y-95102687D01*
X86101207Y-95103849D01*
X85954849Y-95250207D01*
X85954846Y-95250209D01*
X85782740Y-95365207D01*
X85591507Y-95444418D01*
X85388495Y-95484800D01*
X85181505Y-95484800D01*
X84978493Y-95444418D01*
X84787260Y-95365207D01*
X84615154Y-95250209D01*
X84615151Y-95250207D01*
X84468793Y-95103849D01*
X84468016Y-95102687D01*
X84353793Y-94931740D01*
X84274582Y-94740507D01*
X84234200Y-94537495D01*
X84234200Y-94330505D01*
X84274582Y-94127493D01*
X84353793Y-93936260D01*
X84468791Y-93764154D01*
X84468793Y-93764151D01*
X84615151Y-93617793D01*
X84616313Y-93617016D01*
X84787260Y-93502793D01*
X84978493Y-93423582D01*
X85181505Y-93383200D01*
X85388495Y-93383200D01*
X85591507Y-93423582D01*
X85591507Y-93423582D01*
G37*
G36*
X62332660Y-92313091D02*
X62580765Y-92415860D01*
X62696297Y-92493056D01*
X62804056Y-92565058D01*
X62993942Y-92754944D01*
X62993944Y-92754947D01*
X63114191Y-92934909D01*
X63143141Y-92978237D01*
X63245909Y-93226340D01*
X63277111Y-93383200D01*
X63298300Y-93489727D01*
X63298300Y-93758273D01*
X63245909Y-94021660D01*
X63143140Y-94269765D01*
X63102555Y-94330505D01*
X62993942Y-94493056D01*
X62804056Y-94682942D01*
X62804053Y-94682944D01*
X62580765Y-94832140D01*
X62580764Y-94832141D01*
X62580763Y-94832141D01*
X62332660Y-94934909D01*
X62069274Y-94987300D01*
X61800726Y-94987300D01*
X61537340Y-94934909D01*
X61289237Y-94832141D01*
X61289236Y-94832141D01*
X61289235Y-94832140D01*
X61065947Y-94682944D01*
X61065944Y-94682942D01*
X60876058Y-94493056D01*
X60767445Y-94330505D01*
X60726860Y-94269765D01*
X60624091Y-94021660D01*
X60571700Y-93758273D01*
X60571700Y-93489727D01*
X60592890Y-93383200D01*
X60624091Y-93226340D01*
X60726859Y-92978237D01*
X60755810Y-92934909D01*
X60876056Y-92754947D01*
X60876058Y-92754944D01*
X61065944Y-92565058D01*
X61173703Y-92493056D01*
X61289235Y-92415860D01*
X61537340Y-92313091D01*
X61800726Y-92260700D01*
X62069274Y-92260700D01*
X62332660Y-92313091D01*
X62332660Y-92313091D01*
G37*
G36*
X58332660Y-90313091D02*
X58580765Y-90415860D01*
X58696297Y-90493056D01*
X58804056Y-90565058D01*
X58993942Y-90754944D01*
X58993944Y-90754947D01*
X59143140Y-90978235D01*
X59245909Y-91226340D01*
X59298300Y-91489727D01*
X59298300Y-91758273D01*
X59245909Y-92021660D01*
X59143140Y-92269765D01*
X59045523Y-92415859D01*
X58993942Y-92493056D01*
X58804056Y-92682942D01*
X58804053Y-92682944D01*
X58580765Y-92832140D01*
X58580764Y-92832141D01*
X58580763Y-92832141D01*
X58332660Y-92934909D01*
X58069274Y-92987300D01*
X57800726Y-92987300D01*
X57537340Y-92934909D01*
X57289237Y-92832141D01*
X57289236Y-92832141D01*
X57289235Y-92832140D01*
X57065947Y-92682944D01*
X57065944Y-92682942D01*
X56876058Y-92493056D01*
X56824477Y-92415859D01*
X56726860Y-92269765D01*
X56624091Y-92021660D01*
X56571700Y-91758273D01*
X56571700Y-91489727D01*
X56624091Y-91226340D01*
X56726860Y-90978235D01*
X56876056Y-90754947D01*
X56876058Y-90754944D01*
X57065944Y-90565058D01*
X57173703Y-90493056D01*
X57289235Y-90415860D01*
X57537340Y-90313091D01*
X57800726Y-90260700D01*
X58069274Y-90260700D01*
X58332660Y-90313091D01*
X58332660Y-90313091D01*
G37*
G36*
X66332660Y-90313091D02*
X66580765Y-90415860D01*
X66696297Y-90493056D01*
X66804056Y-90565058D01*
X66993942Y-90754944D01*
X66993944Y-90754947D01*
X67143140Y-90978235D01*
X67245909Y-91226340D01*
X67298300Y-91489727D01*
X67298300Y-91758273D01*
X67245909Y-92021660D01*
X67143140Y-92269765D01*
X67045523Y-92415859D01*
X66993942Y-92493056D01*
X66804056Y-92682942D01*
X66804053Y-92682944D01*
X66580765Y-92832140D01*
X66580764Y-92832141D01*
X66580763Y-92832141D01*
X66332660Y-92934909D01*
X66069274Y-92987300D01*
X65800726Y-92987300D01*
X65537340Y-92934909D01*
X65289237Y-92832141D01*
X65289236Y-92832141D01*
X65289235Y-92832140D01*
X65065947Y-92682944D01*
X65065944Y-92682942D01*
X64876058Y-92493056D01*
X64824477Y-92415859D01*
X64726860Y-92269765D01*
X64624091Y-92021660D01*
X64571700Y-91758273D01*
X64571700Y-91489727D01*
X64624091Y-91226340D01*
X64726860Y-90978235D01*
X64876056Y-90754947D01*
X64876058Y-90754944D01*
X65065944Y-90565058D01*
X65173703Y-90493056D01*
X65289235Y-90415860D01*
X65537340Y-90313091D01*
X65800726Y-90260700D01*
X66069274Y-90260700D01*
X66332660Y-90313091D01*
X66332660Y-90313091D01*
G37*
G36*
X62332660Y-88313091D02*
X62580765Y-88415860D01*
X62696297Y-88493056D01*
X62804056Y-88565058D01*
X62993942Y-88754944D01*
X62993944Y-88754947D01*
X63143140Y-88978235D01*
X63245909Y-89226340D01*
X63298300Y-89489727D01*
X63298300Y-89758273D01*
X63245909Y-90021660D01*
X63143140Y-90269765D01*
X63045523Y-90415859D01*
X62993942Y-90493056D01*
X62804056Y-90682942D01*
X62804053Y-90682944D01*
X62580765Y-90832140D01*
X62580764Y-90832141D01*
X62580763Y-90832141D01*
X62332660Y-90934909D01*
X62069274Y-90987300D01*
X61800726Y-90987300D01*
X61537340Y-90934909D01*
X61289237Y-90832141D01*
X61289236Y-90832141D01*
X61289235Y-90832140D01*
X61065947Y-90682944D01*
X61065944Y-90682942D01*
X60876058Y-90493056D01*
X60824477Y-90415859D01*
X60726860Y-90269765D01*
X60624091Y-90021660D01*
X60571700Y-89758273D01*
X60571700Y-89489727D01*
X60624091Y-89226340D01*
X60726860Y-88978235D01*
X60876056Y-88754947D01*
X60876058Y-88754944D01*
X61065944Y-88565058D01*
X61173703Y-88493056D01*
X61289235Y-88415860D01*
X61537340Y-88313091D01*
X61800726Y-88260700D01*
X62069274Y-88260700D01*
X62332660Y-88313091D01*
X62332660Y-88313091D01*
G37*
G36*
X86335800Y-90484800D02*
X84234200Y-90484800D01*
X84234200Y-88383200D01*
X86335800Y-88383200D01*
X86335800Y-90484800D01*
X86335800Y-90484800D01*
G37*
G36*
X126034842Y-87816267D02*
X126034844Y-87816268D01*
X126034845Y-87816268D01*
X126262476Y-87910555D01*
X126262477Y-87910556D01*
X126467341Y-88047442D01*
X126641558Y-88221659D01*
X126641560Y-88221662D01*
X126778445Y-88426524D01*
X126806003Y-88493056D01*
X126872733Y-88654158D01*
X126892781Y-88754947D01*
X126920800Y-88895807D01*
X126920800Y-89142193D01*
X126872732Y-89383845D01*
X126778445Y-89611476D01*
X126778444Y-89611477D01*
X126641558Y-89816341D01*
X126467341Y-89990558D01*
X126467338Y-89990560D01*
X126262476Y-90127445D01*
X126034845Y-90221732D01*
X126034844Y-90221732D01*
X126034842Y-90221733D01*
X125793194Y-90269800D01*
X125546806Y-90269800D01*
X125305158Y-90221733D01*
X125305156Y-90221732D01*
X125305155Y-90221732D01*
X125077524Y-90127445D01*
X124872662Y-89990560D01*
X124872659Y-89990558D01*
X124698442Y-89816341D01*
X124561556Y-89611477D01*
X124561555Y-89611476D01*
X124467268Y-89383845D01*
X124419200Y-89142193D01*
X124419200Y-88895807D01*
X124447219Y-88754947D01*
X124467267Y-88654158D01*
X124533997Y-88493056D01*
X124561555Y-88426524D01*
X124698440Y-88221662D01*
X124698442Y-88221659D01*
X124872659Y-88047442D01*
X125077523Y-87910556D01*
X125077524Y-87910555D01*
X125305155Y-87816268D01*
X125305156Y-87816268D01*
X125305158Y-87816267D01*
X125546806Y-87768200D01*
X125793194Y-87768200D01*
X126034842Y-87816267D01*
X126034842Y-87816267D01*
G37*
G36*
X58332660Y-86313091D02*
X58580765Y-86415860D01*
X58696297Y-86493056D01*
X58804056Y-86565058D01*
X58993942Y-86754944D01*
X58993944Y-86754947D01*
X59114191Y-86934909D01*
X59143141Y-86978237D01*
X59245909Y-87226340D01*
X59298300Y-87489726D01*
X59298300Y-87758274D01*
X59286764Y-87816267D01*
X59245909Y-88021660D01*
X59143140Y-88269765D01*
X59067345Y-88383200D01*
X58993942Y-88493056D01*
X58804056Y-88682942D01*
X58804053Y-88682944D01*
X58580765Y-88832140D01*
X58580764Y-88832141D01*
X58580763Y-88832141D01*
X58332660Y-88934909D01*
X58069274Y-88987300D01*
X57800726Y-88987300D01*
X57537340Y-88934909D01*
X57289237Y-88832141D01*
X57289236Y-88832141D01*
X57289235Y-88832140D01*
X57065947Y-88682944D01*
X57065944Y-88682942D01*
X56876058Y-88493056D01*
X56802655Y-88383200D01*
X56726860Y-88269765D01*
X56624091Y-88021660D01*
X56583236Y-87816267D01*
X56571700Y-87758274D01*
X56571700Y-87489726D01*
X56624091Y-87226340D01*
X56726859Y-86978237D01*
X56755810Y-86934909D01*
X56876056Y-86754947D01*
X56876058Y-86754944D01*
X57065944Y-86565058D01*
X57173703Y-86493056D01*
X57289235Y-86415860D01*
X57537340Y-86313091D01*
X57800726Y-86260700D01*
X58069274Y-86260700D01*
X58332660Y-86313091D01*
X58332660Y-86313091D01*
G37*
G36*
X66332660Y-86313091D02*
X66580765Y-86415860D01*
X66696297Y-86493056D01*
X66804056Y-86565058D01*
X66993942Y-86754944D01*
X66993944Y-86754947D01*
X67114191Y-86934909D01*
X67143141Y-86978237D01*
X67245909Y-87226340D01*
X67298300Y-87489726D01*
X67298300Y-87758274D01*
X67286764Y-87816267D01*
X67245909Y-88021660D01*
X67143140Y-88269765D01*
X67067345Y-88383200D01*
X66993942Y-88493056D01*
X66804056Y-88682942D01*
X66804053Y-88682944D01*
X66580765Y-88832140D01*
X66580764Y-88832141D01*
X66580763Y-88832141D01*
X66332660Y-88934909D01*
X66069274Y-88987300D01*
X65800726Y-88987300D01*
X65537340Y-88934909D01*
X65289237Y-88832141D01*
X65289236Y-88832141D01*
X65289235Y-88832140D01*
X65065947Y-88682944D01*
X65065944Y-88682942D01*
X64876058Y-88493056D01*
X64802655Y-88383200D01*
X64726860Y-88269765D01*
X64624091Y-88021660D01*
X64583236Y-87816267D01*
X64571700Y-87758274D01*
X64571700Y-87489726D01*
X64624091Y-87226340D01*
X64726859Y-86978237D01*
X64755810Y-86934909D01*
X64876056Y-86754947D01*
X64876058Y-86754944D01*
X65065944Y-86565058D01*
X65173703Y-86493056D01*
X65289235Y-86415860D01*
X65537340Y-86313091D01*
X65800726Y-86260700D01*
X66069274Y-86260700D01*
X66332660Y-86313091D01*
X66332660Y-86313091D01*
G37*
G36*
X62332660Y-84313091D02*
X62580765Y-84415860D01*
X62696297Y-84493056D01*
X62804056Y-84565058D01*
X62993942Y-84754944D01*
X62993944Y-84754947D01*
X63143140Y-84978235D01*
X63245909Y-85226340D01*
X63298300Y-85489727D01*
X63298300Y-85758273D01*
X63245909Y-86021660D01*
X63143140Y-86269765D01*
X63045523Y-86415859D01*
X62993942Y-86493056D01*
X62804056Y-86682942D01*
X62804053Y-86682944D01*
X62580765Y-86832140D01*
X62580764Y-86832141D01*
X62580763Y-86832141D01*
X62332660Y-86934909D01*
X62069274Y-86987300D01*
X61800726Y-86987300D01*
X61537340Y-86934909D01*
X61289237Y-86832141D01*
X61289236Y-86832141D01*
X61289235Y-86832140D01*
X61065947Y-86682944D01*
X61065944Y-86682942D01*
X60876058Y-86493056D01*
X60824477Y-86415859D01*
X60726860Y-86269765D01*
X60624091Y-86021660D01*
X60571700Y-85758273D01*
X60571700Y-85489727D01*
X60624091Y-85226340D01*
X60726860Y-84978235D01*
X60876056Y-84754947D01*
X60876058Y-84754944D01*
X61065944Y-84565058D01*
X61173703Y-84493056D01*
X61289235Y-84415860D01*
X61537340Y-84313091D01*
X61800726Y-84260700D01*
X62069274Y-84260700D01*
X62332660Y-84313091D01*
X62332660Y-84313091D01*
G37*
G36*
X66332660Y-82313091D02*
X66536301Y-82397442D01*
X66580765Y-82415860D01*
X66696297Y-82493056D01*
X66804056Y-82565058D01*
X66993942Y-82754944D01*
X66993944Y-82754947D01*
X67114191Y-82934909D01*
X67143141Y-82978237D01*
X67153878Y-83004158D01*
X67245909Y-83226340D01*
X67298300Y-83489727D01*
X67298300Y-83758273D01*
X67245909Y-84021660D01*
X67143140Y-84269765D01*
X67095836Y-84340560D01*
X66993942Y-84493056D01*
X66804056Y-84682942D01*
X66804053Y-84682944D01*
X66580765Y-84832140D01*
X66580764Y-84832141D01*
X66580763Y-84832141D01*
X66332660Y-84934909D01*
X66069274Y-84987300D01*
X65800726Y-84987300D01*
X65537340Y-84934909D01*
X65289237Y-84832141D01*
X65289236Y-84832141D01*
X65289235Y-84832140D01*
X65065947Y-84682944D01*
X65065944Y-84682942D01*
X64876058Y-84493056D01*
X64774164Y-84340560D01*
X64726860Y-84269765D01*
X64624091Y-84021660D01*
X64571700Y-83758273D01*
X64571700Y-83489727D01*
X64624091Y-83226340D01*
X64716122Y-83004158D01*
X64726859Y-82978237D01*
X64755810Y-82934909D01*
X64876056Y-82754947D01*
X64876058Y-82754944D01*
X65065944Y-82565058D01*
X65173703Y-82493056D01*
X65289235Y-82415860D01*
X65333700Y-82397442D01*
X65537340Y-82313091D01*
X65800726Y-82260700D01*
X66069274Y-82260700D01*
X66332660Y-82313091D01*
X66332660Y-82313091D01*
G37*
G36*
X58332660Y-82313091D02*
X58536301Y-82397442D01*
X58580765Y-82415860D01*
X58696297Y-82493056D01*
X58804056Y-82565058D01*
X58993942Y-82754944D01*
X58993944Y-82754947D01*
X59114191Y-82934909D01*
X59143141Y-82978237D01*
X59153878Y-83004158D01*
X59245909Y-83226340D01*
X59298300Y-83489727D01*
X59298300Y-83758273D01*
X59245909Y-84021660D01*
X59143140Y-84269765D01*
X59095836Y-84340560D01*
X58993942Y-84493056D01*
X58804056Y-84682942D01*
X58804053Y-84682944D01*
X58580765Y-84832140D01*
X58580764Y-84832141D01*
X58580763Y-84832141D01*
X58332660Y-84934909D01*
X58069274Y-84987300D01*
X57800726Y-84987300D01*
X57537340Y-84934909D01*
X57289237Y-84832141D01*
X57289236Y-84832141D01*
X57289235Y-84832140D01*
X57065947Y-84682944D01*
X57065944Y-84682942D01*
X56876058Y-84493056D01*
X56774164Y-84340560D01*
X56726860Y-84269765D01*
X56624091Y-84021660D01*
X56571700Y-83758273D01*
X56571700Y-83489727D01*
X56624091Y-83226340D01*
X56716122Y-83004158D01*
X56726859Y-82978237D01*
X56755810Y-82934909D01*
X56876056Y-82754947D01*
X56876058Y-82754944D01*
X57065944Y-82565058D01*
X57173703Y-82493056D01*
X57289235Y-82415860D01*
X57333700Y-82397442D01*
X57537340Y-82313091D01*
X57800726Y-82260700D01*
X58069274Y-82260700D01*
X58332660Y-82313091D01*
X58332660Y-82313091D01*
G37*
G36*
X227604842Y-82166267D02*
X227604844Y-82166268D01*
X227604845Y-82166268D01*
X227832476Y-82260555D01*
X227911101Y-82313091D01*
X228037341Y-82397442D01*
X228211558Y-82571659D01*
X228211560Y-82571662D01*
X228348445Y-82776524D01*
X228442732Y-83004155D01*
X228490800Y-83245807D01*
X228490800Y-83492193D01*
X228442732Y-83733845D01*
X228348445Y-83961476D01*
X228348444Y-83961477D01*
X228211558Y-84166341D01*
X228037341Y-84340558D01*
X228037338Y-84340560D01*
X227832476Y-84477445D01*
X227604845Y-84571732D01*
X227604844Y-84571732D01*
X227604842Y-84571733D01*
X227363194Y-84619800D01*
X227116806Y-84619800D01*
X226875158Y-84571733D01*
X226875156Y-84571732D01*
X226875155Y-84571732D01*
X226647524Y-84477445D01*
X226442662Y-84340560D01*
X226442659Y-84340558D01*
X226268442Y-84166341D01*
X226131556Y-83961477D01*
X226131555Y-83961476D01*
X226037268Y-83733845D01*
X225989200Y-83492193D01*
X225989200Y-83245807D01*
X226037268Y-83004155D01*
X226131555Y-82776524D01*
X226268440Y-82571662D01*
X226268442Y-82571659D01*
X226442659Y-82397442D01*
X226568899Y-82313091D01*
X226647524Y-82260555D01*
X226875155Y-82166268D01*
X226875156Y-82166268D01*
X226875158Y-82166267D01*
X227116806Y-82118200D01*
X227363194Y-82118200D01*
X227604842Y-82166267D01*
X227604842Y-82166267D01*
G37*
G36*
X212604842Y-82166267D02*
X212604844Y-82166268D01*
X212604845Y-82166268D01*
X212832476Y-82260555D01*
X212911101Y-82313091D01*
X213037341Y-82397442D01*
X213211558Y-82571659D01*
X213211560Y-82571662D01*
X213348445Y-82776524D01*
X213442732Y-83004155D01*
X213490800Y-83245807D01*
X213490800Y-83492193D01*
X213442732Y-83733845D01*
X213348445Y-83961476D01*
X213348444Y-83961477D01*
X213211558Y-84166341D01*
X213037341Y-84340558D01*
X213037338Y-84340560D01*
X212832476Y-84477445D01*
X212604845Y-84571732D01*
X212604844Y-84571732D01*
X212604842Y-84571733D01*
X212363194Y-84619800D01*
X212116806Y-84619800D01*
X211875158Y-84571733D01*
X211875156Y-84571732D01*
X211875155Y-84571732D01*
X211647524Y-84477445D01*
X211442662Y-84340560D01*
X211442659Y-84340558D01*
X211268442Y-84166341D01*
X211131556Y-83961477D01*
X211131555Y-83961476D01*
X211037268Y-83733845D01*
X210989200Y-83492193D01*
X210989200Y-83245807D01*
X211037268Y-83004155D01*
X211131555Y-82776524D01*
X211268440Y-82571662D01*
X211268442Y-82571659D01*
X211442659Y-82397442D01*
X211568899Y-82313091D01*
X211647524Y-82260555D01*
X211875155Y-82166268D01*
X211875156Y-82166268D01*
X211875158Y-82166267D01*
X212116806Y-82118200D01*
X212363194Y-82118200D01*
X212604842Y-82166267D01*
X212604842Y-82166267D01*
G37*
G36*
X62332660Y-80313091D02*
X62580765Y-80415860D01*
X62696297Y-80493056D01*
X62804056Y-80565058D01*
X62993942Y-80754944D01*
X62993944Y-80754947D01*
X63143140Y-80978235D01*
X63245909Y-81226340D01*
X63298300Y-81489727D01*
X63298300Y-81758273D01*
X63245909Y-82021660D01*
X63143140Y-82269765D01*
X63057830Y-82397440D01*
X62993942Y-82493056D01*
X62804056Y-82682942D01*
X62804053Y-82682944D01*
X62580765Y-82832140D01*
X62580764Y-82832141D01*
X62580763Y-82832141D01*
X62332660Y-82934909D01*
X62069274Y-82987300D01*
X61800726Y-82987300D01*
X61537340Y-82934909D01*
X61289237Y-82832141D01*
X61289236Y-82832141D01*
X61289235Y-82832140D01*
X61065947Y-82682944D01*
X61065944Y-82682942D01*
X60876058Y-82493056D01*
X60812170Y-82397440D01*
X60726860Y-82269765D01*
X60624091Y-82021660D01*
X60571700Y-81758273D01*
X60571700Y-81489727D01*
X60624091Y-81226340D01*
X60726860Y-80978235D01*
X60876056Y-80754947D01*
X60876058Y-80754944D01*
X61065944Y-80565058D01*
X61173703Y-80493056D01*
X61289235Y-80415860D01*
X61537340Y-80313091D01*
X61800726Y-80260700D01*
X62069274Y-80260700D01*
X62332660Y-80313091D01*
X62332660Y-80313091D01*
G37*
G36*
X126920800Y-82769800D02*
X124419200Y-82769800D01*
X124419200Y-80268200D01*
X126920800Y-80268200D01*
X126920800Y-82769800D01*
X126920800Y-82769800D01*
G37*
G36*
X66332660Y-78313091D02*
X66580765Y-78415860D01*
X66783196Y-78551120D01*
X66804056Y-78565058D01*
X66993942Y-78754944D01*
X66993944Y-78754947D01*
X67129299Y-78957520D01*
X67143141Y-78978237D01*
X67245909Y-79226340D01*
X67298300Y-79489726D01*
X67298300Y-79758274D01*
X67275580Y-79872493D01*
X67245909Y-80021660D01*
X67143140Y-80269765D01*
X66995926Y-80490087D01*
X66993942Y-80493056D01*
X66804056Y-80682942D01*
X66804053Y-80682944D01*
X66580765Y-80832140D01*
X66580764Y-80832141D01*
X66580763Y-80832141D01*
X66332660Y-80934909D01*
X66069274Y-80987300D01*
X65800726Y-80987300D01*
X65537340Y-80934909D01*
X65289237Y-80832141D01*
X65289236Y-80832141D01*
X65289235Y-80832140D01*
X65065947Y-80682944D01*
X65065944Y-80682942D01*
X64876058Y-80493056D01*
X64874074Y-80490087D01*
X64726860Y-80269765D01*
X64624091Y-80021660D01*
X64594420Y-79872493D01*
X64571700Y-79758274D01*
X64571700Y-79489726D01*
X64624091Y-79226340D01*
X64726859Y-78978237D01*
X64740702Y-78957520D01*
X64876056Y-78754947D01*
X64876058Y-78754944D01*
X65065944Y-78565058D01*
X65086804Y-78551120D01*
X65289235Y-78415860D01*
X65537340Y-78313091D01*
X65800726Y-78260700D01*
X66069274Y-78260700D01*
X66332660Y-78313091D01*
X66332660Y-78313091D01*
G37*
G36*
X58332660Y-78313091D02*
X58580765Y-78415860D01*
X58783196Y-78551120D01*
X58804056Y-78565058D01*
X58993942Y-78754944D01*
X58993944Y-78754947D01*
X59129299Y-78957520D01*
X59143141Y-78978237D01*
X59245909Y-79226340D01*
X59298300Y-79489726D01*
X59298300Y-79758274D01*
X59275580Y-79872493D01*
X59245909Y-80021660D01*
X59143140Y-80269765D01*
X58995926Y-80490087D01*
X58993942Y-80493056D01*
X58804056Y-80682942D01*
X58804053Y-80682944D01*
X58580765Y-80832140D01*
X58580764Y-80832141D01*
X58580763Y-80832141D01*
X58332660Y-80934909D01*
X58069274Y-80987300D01*
X57800726Y-80987300D01*
X57537340Y-80934909D01*
X57289237Y-80832141D01*
X57289236Y-80832141D01*
X57289235Y-80832140D01*
X57065947Y-80682944D01*
X57065944Y-80682942D01*
X56876058Y-80493056D01*
X56874074Y-80490087D01*
X56726860Y-80269765D01*
X56624091Y-80021660D01*
X56594420Y-79872493D01*
X56571700Y-79758274D01*
X56571700Y-79489726D01*
X56624091Y-79226340D01*
X56726859Y-78978237D01*
X56740702Y-78957520D01*
X56876056Y-78754947D01*
X56876058Y-78754944D01*
X57065944Y-78565058D01*
X57086804Y-78551120D01*
X57289235Y-78415860D01*
X57537340Y-78313091D01*
X57800726Y-78260700D01*
X58069274Y-78260700D01*
X58332660Y-78313091D01*
X58332660Y-78313091D01*
G37*
G36*
X205566503Y-74202126D02*
X206158110Y-74447178D01*
X206690547Y-74802941D01*
X207143339Y-75255733D01*
X207499102Y-75788170D01*
X207744154Y-76379777D01*
X207869080Y-77007823D01*
X207869080Y-77648177D01*
X207744154Y-78276223D01*
X207499102Y-78867830D01*
X207143339Y-79400267D01*
X206690547Y-79853059D01*
X206158110Y-80208822D01*
X205566503Y-80453874D01*
X204938457Y-80578800D01*
X204298103Y-80578800D01*
X203670057Y-80453874D01*
X203078450Y-80208822D01*
X202546013Y-79853059D01*
X202093221Y-79400267D01*
X201737458Y-78867830D01*
X201492406Y-78276223D01*
X201367480Y-77648177D01*
X201367480Y-77007823D01*
X201492406Y-76379777D01*
X201737458Y-75788170D01*
X202093221Y-75255733D01*
X202546013Y-74802941D01*
X203078450Y-74447178D01*
X203670057Y-74202126D01*
X204298103Y-74077200D01*
X204938457Y-74077200D01*
X205566503Y-74202126D01*
X205566503Y-74202126D01*
G37*
G36*
X113712800Y-77181800D02*
X111211200Y-77181800D01*
X111211200Y-74680200D01*
X113712800Y-74680200D01*
X113712800Y-77181800D01*
X113712800Y-77181800D01*
G37*
G36*
X134990800Y-76740800D02*
X131589200Y-76740800D01*
X131589200Y-73339200D01*
X134990800Y-73339200D01*
X134990800Y-76740800D01*
X134990800Y-76740800D01*
G37*
G36*
X144906223Y-69884126D02*
X145497830Y-70129178D01*
X146030267Y-70484941D01*
X146483059Y-70937733D01*
X146838822Y-71470170D01*
X147083874Y-72061777D01*
X147208800Y-72689823D01*
X147208800Y-73330177D01*
X147083874Y-73958223D01*
X146838822Y-74549830D01*
X146483059Y-75082267D01*
X146030267Y-75535059D01*
X145497830Y-75890822D01*
X144906223Y-76135874D01*
X144278177Y-76260800D01*
X143637823Y-76260800D01*
X143009777Y-76135874D01*
X142418170Y-75890822D01*
X141885733Y-75535059D01*
X141432941Y-75082267D01*
X141077178Y-74549830D01*
X140832126Y-73958223D01*
X140707200Y-73330177D01*
X140707200Y-72689823D01*
X140832126Y-72061777D01*
X141077178Y-71470170D01*
X141432941Y-70937733D01*
X141885733Y-70484941D01*
X142418170Y-70129178D01*
X143009777Y-69884126D01*
X143637823Y-69759200D01*
X144278177Y-69759200D01*
X144906223Y-69884126D01*
X144906223Y-69884126D01*
G37*
G36*
X99394192Y-73686341D02*
X99480596Y-73694851D01*
X99697524Y-73760655D01*
X99804384Y-73817773D01*
X99897444Y-73867515D01*
X100072676Y-74011324D01*
X100216485Y-74186556D01*
X100261263Y-74270329D01*
X100323345Y-74386476D01*
X100341759Y-74447179D01*
X100389149Y-74603404D01*
X100411368Y-74829000D01*
X100397504Y-74969770D01*
X100389149Y-75054595D01*
X100323345Y-75271524D01*
X100307026Y-75302054D01*
X100216485Y-75471444D01*
X100072676Y-75646676D01*
X99897444Y-75790485D01*
X99874112Y-75802956D01*
X99697524Y-75897345D01*
X99589059Y-75930247D01*
X99480596Y-75963149D01*
X99396065Y-75971475D01*
X99311535Y-75979800D01*
X99198465Y-75979800D01*
X99113935Y-75971475D01*
X99029404Y-75963149D01*
X98812476Y-75897345D01*
X98635888Y-75802956D01*
X98612556Y-75790485D01*
X98437324Y-75646676D01*
X98293515Y-75471444D01*
X98202974Y-75302054D01*
X98186655Y-75271524D01*
X98120851Y-75054595D01*
X98112497Y-74969770D01*
X98098632Y-74829000D01*
X98120851Y-74603404D01*
X98168241Y-74447179D01*
X98186655Y-74386476D01*
X98248737Y-74270329D01*
X98293515Y-74186556D01*
X98437324Y-74011324D01*
X98612556Y-73867515D01*
X98705616Y-73817773D01*
X98812476Y-73760655D01*
X99029404Y-73694851D01*
X99115808Y-73686341D01*
X99198465Y-73678200D01*
X99311535Y-73678200D01*
X99394192Y-73686341D01*
X99394192Y-73686341D01*
G37*
G36*
X90245800Y-75979800D02*
X87944200Y-75979800D01*
X87944200Y-73678200D01*
X90245800Y-73678200D01*
X90245800Y-75979800D01*
X90245800Y-75979800D01*
G37*
G36*
X212604842Y-73166267D02*
X212604844Y-73166268D01*
X212604845Y-73166268D01*
X212832476Y-73260555D01*
X212845646Y-73269355D01*
X213037341Y-73397442D01*
X213211558Y-73571659D01*
X213211560Y-73571662D01*
X213348445Y-73776524D01*
X213442732Y-74004155D01*
X213442733Y-74004158D01*
X213490800Y-74245806D01*
X213490800Y-74492194D01*
X213446285Y-74715986D01*
X213442732Y-74733845D01*
X213348445Y-74961476D01*
X213286224Y-75054596D01*
X213211558Y-75166341D01*
X213037341Y-75340558D01*
X213037338Y-75340560D01*
X212832476Y-75477445D01*
X212604845Y-75571732D01*
X212604844Y-75571732D01*
X212604842Y-75571733D01*
X212363194Y-75619800D01*
X212116806Y-75619800D01*
X211875158Y-75571733D01*
X211875156Y-75571732D01*
X211875155Y-75571732D01*
X211647524Y-75477445D01*
X211442662Y-75340560D01*
X211442659Y-75340558D01*
X211268442Y-75166341D01*
X211193776Y-75054596D01*
X211131555Y-74961476D01*
X211037268Y-74733845D01*
X211033716Y-74715986D01*
X210989200Y-74492194D01*
X210989200Y-74245806D01*
X211037267Y-74004158D01*
X211037268Y-74004155D01*
X211131555Y-73776524D01*
X211268440Y-73571662D01*
X211268442Y-73571659D01*
X211442659Y-73397442D01*
X211634354Y-73269355D01*
X211647524Y-73260555D01*
X211875155Y-73166268D01*
X211875156Y-73166268D01*
X211875158Y-73166267D01*
X212116806Y-73118200D01*
X212363194Y-73118200D01*
X212604842Y-73166267D01*
X212604842Y-73166267D01*
G37*
G36*
X227604842Y-73166267D02*
X227604844Y-73166268D01*
X227604845Y-73166268D01*
X227832476Y-73260555D01*
X227845646Y-73269355D01*
X228037341Y-73397442D01*
X228211558Y-73571659D01*
X228211560Y-73571662D01*
X228348445Y-73776524D01*
X228442732Y-74004155D01*
X228442733Y-74004158D01*
X228490800Y-74245806D01*
X228490800Y-74492194D01*
X228446285Y-74715986D01*
X228442732Y-74733845D01*
X228348445Y-74961476D01*
X228286224Y-75054596D01*
X228211558Y-75166341D01*
X228037341Y-75340558D01*
X228037338Y-75340560D01*
X227832476Y-75477445D01*
X227604845Y-75571732D01*
X227604844Y-75571732D01*
X227604842Y-75571733D01*
X227363194Y-75619800D01*
X227116806Y-75619800D01*
X226875158Y-75571733D01*
X226875156Y-75571732D01*
X226875155Y-75571732D01*
X226647524Y-75477445D01*
X226442662Y-75340560D01*
X226442659Y-75340558D01*
X226268442Y-75166341D01*
X226193776Y-75054596D01*
X226131555Y-74961476D01*
X226037268Y-74733845D01*
X226033716Y-74715986D01*
X225989200Y-74492194D01*
X225989200Y-74245806D01*
X226037267Y-74004158D01*
X226037268Y-74004155D01*
X226131555Y-73776524D01*
X226268440Y-73571662D01*
X226268442Y-73571659D01*
X226442659Y-73397442D01*
X226634354Y-73269355D01*
X226647524Y-73260555D01*
X226875155Y-73166268D01*
X226875156Y-73166268D01*
X226875158Y-73166267D01*
X227116806Y-73118200D01*
X227363194Y-73118200D01*
X227604842Y-73166267D01*
X227604842Y-73166267D01*
G37*
G36*
X128766659Y-73537446D02*
X128802211Y-73548230D01*
X128834972Y-73565742D01*
X128863690Y-73589310D01*
X128887258Y-73618028D01*
X128904770Y-73650789D01*
X128915554Y-73686341D01*
X128919800Y-73729451D01*
X128919800Y-74788549D01*
X128915554Y-74831659D01*
X128904770Y-74867211D01*
X128887258Y-74899972D01*
X128863690Y-74928690D01*
X128834972Y-74952258D01*
X128802211Y-74969770D01*
X128766659Y-74980554D01*
X128723549Y-74984800D01*
X125664451Y-74984800D01*
X125621341Y-74980554D01*
X125585789Y-74969770D01*
X125553028Y-74952258D01*
X125524310Y-74928690D01*
X125500742Y-74899972D01*
X125483230Y-74867211D01*
X125472446Y-74831659D01*
X125468200Y-74788549D01*
X125468200Y-73729451D01*
X125472446Y-73686341D01*
X125483230Y-73650789D01*
X125500742Y-73618028D01*
X125524310Y-73589310D01*
X125553028Y-73565742D01*
X125585789Y-73548230D01*
X125621341Y-73537446D01*
X125664451Y-73533200D01*
X128723549Y-73533200D01*
X128766659Y-73537446D01*
X128766659Y-73537446D01*
G37*
G36*
X61865473Y-71704913D02*
X62134054Y-71816163D01*
X62375771Y-71977673D01*
X62581327Y-72183229D01*
X62742837Y-72424946D01*
X62854087Y-72693527D01*
X62910800Y-72978645D01*
X62910800Y-73269355D01*
X62854087Y-73554473D01*
X62742837Y-73823054D01*
X62581327Y-74064771D01*
X62375771Y-74270327D01*
X62134054Y-74431837D01*
X61865473Y-74543087D01*
X61580355Y-74599800D01*
X61289645Y-74599800D01*
X61004527Y-74543087D01*
X60735946Y-74431837D01*
X60494229Y-74270327D01*
X60288673Y-74064771D01*
X60127163Y-73823054D01*
X60015913Y-73554473D01*
X59959200Y-73269355D01*
X59959200Y-72978645D01*
X60015913Y-72693527D01*
X60127163Y-72424946D01*
X60288673Y-72183229D01*
X60494229Y-71977673D01*
X60735946Y-71816163D01*
X61004527Y-71704913D01*
X61289645Y-71648200D01*
X61580355Y-71648200D01*
X61865473Y-71704913D01*
X61865473Y-71704913D01*
G37*
G36*
X112826842Y-67228267D02*
X112826844Y-67228268D01*
X112826845Y-67228268D01*
X113054476Y-67322555D01*
X113054477Y-67322556D01*
X113259341Y-67459442D01*
X113433558Y-67633659D01*
X113433560Y-67633662D01*
X113570445Y-67838524D01*
X113652439Y-68036477D01*
X113664733Y-68066158D01*
X113701979Y-68253405D01*
X113712800Y-68307807D01*
X113712800Y-68554193D01*
X113664732Y-68795845D01*
X113570445Y-69023476D01*
X113504984Y-69121445D01*
X113433558Y-69228341D01*
X113259341Y-69402558D01*
X113259338Y-69402560D01*
X113054476Y-69539445D01*
X112826845Y-69633732D01*
X112826844Y-69633732D01*
X112826842Y-69633733D01*
X112585194Y-69681800D01*
X112338806Y-69681800D01*
X112097158Y-69633733D01*
X112097156Y-69633732D01*
X112097155Y-69633732D01*
X111869524Y-69539445D01*
X111664662Y-69402560D01*
X111664659Y-69402558D01*
X111490442Y-69228341D01*
X111419016Y-69121445D01*
X111353555Y-69023476D01*
X111259268Y-68795845D01*
X111211200Y-68554193D01*
X111211200Y-68307807D01*
X111222021Y-68253405D01*
X111259267Y-68066158D01*
X111271561Y-68036477D01*
X111353555Y-67838524D01*
X111490440Y-67633662D01*
X111490442Y-67633659D01*
X111664659Y-67459442D01*
X111869523Y-67322556D01*
X111869524Y-67322555D01*
X112097155Y-67228268D01*
X112097156Y-67228268D01*
X112097158Y-67228267D01*
X112338806Y-67180200D01*
X112585194Y-67180200D01*
X112826842Y-67228267D01*
X112826842Y-67228267D01*
G37*
G36*
X87331065Y-67336525D02*
X87415596Y-67344851D01*
X87632524Y-67410655D01*
X87670079Y-67430729D01*
X87832444Y-67517515D01*
X88007676Y-67661324D01*
X88151485Y-67836556D01*
X88184938Y-67899143D01*
X88258345Y-68036476D01*
X88324149Y-68253405D01*
X88346368Y-68479000D01*
X88324149Y-68704595D01*
X88258345Y-68921524D01*
X88222519Y-68988549D01*
X88151485Y-69121444D01*
X88007676Y-69296676D01*
X87832444Y-69440485D01*
X87739384Y-69490227D01*
X87632524Y-69547345D01*
X87524059Y-69580247D01*
X87415596Y-69613149D01*
X87331065Y-69621475D01*
X87246535Y-69629800D01*
X87133465Y-69629800D01*
X87048935Y-69621475D01*
X86964404Y-69613149D01*
X86855941Y-69580247D01*
X86747476Y-69547345D01*
X86640616Y-69490227D01*
X86547556Y-69440485D01*
X86372324Y-69296676D01*
X86228515Y-69121444D01*
X86157481Y-68988549D01*
X86121655Y-68921524D01*
X86055851Y-68704595D01*
X86033632Y-68479000D01*
X86055851Y-68253405D01*
X86121655Y-68036476D01*
X86195062Y-67899143D01*
X86228515Y-67836556D01*
X86372324Y-67661324D01*
X86547556Y-67517515D01*
X86709921Y-67430729D01*
X86747476Y-67410655D01*
X86964404Y-67344851D01*
X87048935Y-67336525D01*
X87133465Y-67328200D01*
X87246535Y-67328200D01*
X87331065Y-67336525D01*
X87331065Y-67336525D01*
G37*
G36*
X78180800Y-69629800D02*
X75879200Y-69629800D01*
X75879200Y-67328200D01*
X78180800Y-67328200D01*
X78180800Y-69629800D01*
X78180800Y-69629800D01*
G37*
G36*
X128766659Y-67737446D02*
X128802211Y-67748230D01*
X128834972Y-67765742D01*
X128863690Y-67789310D01*
X128887258Y-67818028D01*
X128904770Y-67850789D01*
X128915554Y-67886341D01*
X128919800Y-67929451D01*
X128919800Y-68988549D01*
X128915554Y-69031659D01*
X128904770Y-69067211D01*
X128887258Y-69099972D01*
X128863690Y-69128690D01*
X128834972Y-69152258D01*
X128802211Y-69169770D01*
X128766659Y-69180554D01*
X128723549Y-69184800D01*
X125664451Y-69184800D01*
X125621341Y-69180554D01*
X125585789Y-69169770D01*
X125553028Y-69152258D01*
X125524310Y-69128690D01*
X125500742Y-69099972D01*
X125483230Y-69067211D01*
X125472446Y-69031659D01*
X125468200Y-68988549D01*
X125468200Y-67929451D01*
X125472446Y-67886341D01*
X125483230Y-67850789D01*
X125500742Y-67818028D01*
X125524310Y-67789310D01*
X125553028Y-67765742D01*
X125585789Y-67748230D01*
X125621341Y-67737446D01*
X125664451Y-67733200D01*
X128723549Y-67733200D01*
X128766659Y-67737446D01*
X128766659Y-67737446D01*
G37*
G36*
X134990800Y-68870800D02*
X131589200Y-68870800D01*
X131589200Y-65469200D01*
X134990800Y-65469200D01*
X134990800Y-68870800D01*
X134990800Y-68870800D01*
G37*
G36*
X203910729Y-66301890D02*
X204074653Y-66369789D01*
X204222181Y-66468364D01*
X204347636Y-66593819D01*
X204446211Y-66741347D01*
X204514110Y-66905271D01*
X204548724Y-67079285D01*
X204548724Y-67256715D01*
X204514110Y-67430729D01*
X204446211Y-67594653D01*
X204347636Y-67742181D01*
X204222181Y-67867636D01*
X204074653Y-67966211D01*
X203910729Y-68034110D01*
X203736715Y-68068724D01*
X203559285Y-68068724D01*
X203385271Y-68034110D01*
X203221347Y-67966211D01*
X203073819Y-67867636D01*
X202948364Y-67742181D01*
X202849789Y-67594653D01*
X202781890Y-67430729D01*
X202747276Y-67256715D01*
X202747276Y-67079285D01*
X202781890Y-66905271D01*
X202849789Y-66741347D01*
X202948364Y-66593819D01*
X203073819Y-66468364D01*
X203221347Y-66369789D01*
X203385271Y-66301890D01*
X203559285Y-66267276D01*
X203736715Y-66267276D01*
X203910729Y-66301890D01*
X203910729Y-66301890D01*
G37*
G36*
X212604842Y-64166267D02*
X212604844Y-64166268D01*
X212604845Y-64166268D01*
X212832476Y-64260555D01*
X212832477Y-64260556D01*
X213037341Y-64397442D01*
X213211558Y-64571659D01*
X213211560Y-64571662D01*
X213348445Y-64776524D01*
X213442732Y-65004155D01*
X213442733Y-65004158D01*
X213490800Y-65245806D01*
X213490800Y-65492194D01*
X213483534Y-65528724D01*
X213442732Y-65733845D01*
X213348445Y-65961476D01*
X213348444Y-65961477D01*
X213211558Y-66166341D01*
X213037341Y-66340558D01*
X213037338Y-66340560D01*
X212832476Y-66477445D01*
X212604845Y-66571732D01*
X212604844Y-66571732D01*
X212604842Y-66571733D01*
X212363194Y-66619800D01*
X212116806Y-66619800D01*
X211875158Y-66571733D01*
X211875156Y-66571732D01*
X211875155Y-66571732D01*
X211647524Y-66477445D01*
X211442662Y-66340560D01*
X211442659Y-66340558D01*
X211268442Y-66166341D01*
X211131556Y-65961477D01*
X211131555Y-65961476D01*
X211037268Y-65733845D01*
X210996467Y-65528724D01*
X210989200Y-65492194D01*
X210989200Y-65245806D01*
X211037267Y-65004158D01*
X211037268Y-65004155D01*
X211131555Y-64776524D01*
X211268440Y-64571662D01*
X211268442Y-64571659D01*
X211442659Y-64397442D01*
X211647523Y-64260556D01*
X211647524Y-64260555D01*
X211875155Y-64166268D01*
X211875156Y-64166268D01*
X211875158Y-64166267D01*
X212116806Y-64118200D01*
X212363194Y-64118200D01*
X212604842Y-64166267D01*
X212604842Y-64166267D01*
G37*
G36*
X227604842Y-64166267D02*
X227604844Y-64166268D01*
X227604845Y-64166268D01*
X227832476Y-64260555D01*
X227832477Y-64260556D01*
X228037341Y-64397442D01*
X228211558Y-64571659D01*
X228211560Y-64571662D01*
X228348445Y-64776524D01*
X228442732Y-65004155D01*
X228442733Y-65004158D01*
X228490800Y-65245806D01*
X228490800Y-65492194D01*
X228483534Y-65528724D01*
X228442732Y-65733845D01*
X228348445Y-65961476D01*
X228348444Y-65961477D01*
X228211558Y-66166341D01*
X228037341Y-66340558D01*
X228037338Y-66340560D01*
X227832476Y-66477445D01*
X227604845Y-66571732D01*
X227604844Y-66571732D01*
X227604842Y-66571733D01*
X227363194Y-66619800D01*
X227116806Y-66619800D01*
X226875158Y-66571733D01*
X226875156Y-66571732D01*
X226875155Y-66571732D01*
X226647524Y-66477445D01*
X226442662Y-66340560D01*
X226442659Y-66340558D01*
X226268442Y-66166341D01*
X226131556Y-65961477D01*
X226131555Y-65961476D01*
X226037268Y-65733845D01*
X225996467Y-65528724D01*
X225989200Y-65492194D01*
X225989200Y-65245806D01*
X226037267Y-65004158D01*
X226037268Y-65004155D01*
X226131555Y-64776524D01*
X226268440Y-64571662D01*
X226268442Y-64571659D01*
X226442659Y-64397442D01*
X226647523Y-64260556D01*
X226647524Y-64260555D01*
X226875155Y-64166268D01*
X226875156Y-64166268D01*
X226875158Y-64166267D01*
X227116806Y-64118200D01*
X227363194Y-64118200D01*
X227604842Y-64166267D01*
X227604842Y-64166267D01*
G37*
G36*
X203910729Y-63761890D02*
X204074653Y-63829789D01*
X204222181Y-63928364D01*
X204347636Y-64053819D01*
X204446211Y-64201347D01*
X204514110Y-64365271D01*
X204548724Y-64539285D01*
X204548724Y-64716715D01*
X204514110Y-64890729D01*
X204446211Y-65054653D01*
X204347636Y-65202181D01*
X204222181Y-65327636D01*
X204074653Y-65426211D01*
X203910729Y-65494110D01*
X203736715Y-65528724D01*
X203559285Y-65528724D01*
X203385271Y-65494110D01*
X203221347Y-65426211D01*
X203073819Y-65327636D01*
X202948364Y-65202181D01*
X202849789Y-65054653D01*
X202781890Y-64890729D01*
X202747276Y-64716715D01*
X202747276Y-64539285D01*
X202781890Y-64365271D01*
X202849789Y-64201347D01*
X202948364Y-64053819D01*
X203073819Y-63928364D01*
X203221347Y-63829789D01*
X203385271Y-63761890D01*
X203559285Y-63727276D01*
X203736715Y-63727276D01*
X203910729Y-63761890D01*
X203910729Y-63761890D01*
G37*
G36*
X203910729Y-61221890D02*
X204074653Y-61289789D01*
X204222181Y-61388364D01*
X204347636Y-61513819D01*
X204446211Y-61661347D01*
X204514110Y-61825271D01*
X204548724Y-61999285D01*
X204548724Y-62176715D01*
X204514110Y-62350729D01*
X204446211Y-62514653D01*
X204347636Y-62662181D01*
X204222181Y-62787636D01*
X204074653Y-62886211D01*
X203910729Y-62954110D01*
X203736715Y-62988724D01*
X203559285Y-62988724D01*
X203385271Y-62954110D01*
X203221347Y-62886211D01*
X203073819Y-62787636D01*
X202948364Y-62662181D01*
X202849789Y-62514653D01*
X202781890Y-62350729D01*
X202747276Y-62176715D01*
X202747276Y-61999285D01*
X202781890Y-61825271D01*
X202849789Y-61661347D01*
X202948364Y-61513819D01*
X203073819Y-61388364D01*
X203221347Y-61289789D01*
X203385271Y-61221890D01*
X203559285Y-61187276D01*
X203736715Y-61187276D01*
X203910729Y-61221890D01*
X203910729Y-61221890D01*
G37*
G36*
X144906223Y-54390126D02*
X145497830Y-54635178D01*
X146030267Y-54990941D01*
X146483059Y-55443733D01*
X146838822Y-55976170D01*
X147083874Y-56567777D01*
X147208800Y-57195823D01*
X147208800Y-57836177D01*
X147083874Y-58464223D01*
X146838822Y-59055830D01*
X146483059Y-59588267D01*
X146030267Y-60041059D01*
X145497830Y-60396822D01*
X144906223Y-60641874D01*
X144278177Y-60766800D01*
X143637823Y-60766800D01*
X143009777Y-60641874D01*
X142418170Y-60396822D01*
X141885733Y-60041059D01*
X141432941Y-59588267D01*
X141077178Y-59055830D01*
X140832126Y-58464223D01*
X140707200Y-57836177D01*
X140707200Y-57195823D01*
X140832126Y-56567777D01*
X141077178Y-55976170D01*
X141432941Y-55443733D01*
X141885733Y-54990941D01*
X142418170Y-54635178D01*
X143009777Y-54390126D01*
X143637823Y-54265200D01*
X144278177Y-54265200D01*
X144906223Y-54390126D01*
X144906223Y-54390126D01*
G37*
G36*
X80346065Y-57176525D02*
X80430596Y-57184851D01*
X80466769Y-57195824D01*
X80647524Y-57250655D01*
X80744455Y-57302466D01*
X80847444Y-57357515D01*
X81022676Y-57501324D01*
X81142634Y-57647493D01*
X81166484Y-57676555D01*
X81273345Y-57876476D01*
X81339149Y-58093405D01*
X81361368Y-58319000D01*
X81339149Y-58544595D01*
X81273345Y-58761524D01*
X81258780Y-58788773D01*
X81166485Y-58961444D01*
X81022676Y-59136676D01*
X80847444Y-59280485D01*
X80754384Y-59330227D01*
X80647524Y-59387345D01*
X80430596Y-59453149D01*
X80346065Y-59461474D01*
X80261535Y-59469800D01*
X80148465Y-59469800D01*
X80063935Y-59461474D01*
X79979404Y-59453149D01*
X79762476Y-59387345D01*
X79655616Y-59330227D01*
X79562556Y-59280485D01*
X79387324Y-59136676D01*
X79243515Y-58961444D01*
X79151220Y-58788773D01*
X79136655Y-58761524D01*
X79070851Y-58544595D01*
X79048632Y-58319000D01*
X79070851Y-58093405D01*
X79136655Y-57876476D01*
X79243516Y-57676555D01*
X79267367Y-57647493D01*
X79387324Y-57501324D01*
X79562556Y-57357515D01*
X79665545Y-57302466D01*
X79762476Y-57250655D01*
X79943231Y-57195824D01*
X79979404Y-57184851D01*
X80063935Y-57176525D01*
X80148465Y-57168200D01*
X80261535Y-57168200D01*
X80346065Y-57176525D01*
X80346065Y-57176525D01*
G37*
G36*
X71195800Y-59469800D02*
X68894200Y-59469800D01*
X68894200Y-57168200D01*
X71195800Y-57168200D01*
X71195800Y-59469800D01*
X71195800Y-59469800D01*
G37*
G36*
X130730800Y-58131800D02*
X128229200Y-58131800D01*
X128229200Y-55630200D01*
X130730800Y-55630200D01*
X130730800Y-58131800D01*
X130730800Y-58131800D01*
G37*
G36*
X122344842Y-55678267D02*
X122344844Y-55678268D01*
X122344845Y-55678268D01*
X122572476Y-55772555D01*
X122738507Y-55883494D01*
X122777341Y-55909442D01*
X122951558Y-56083659D01*
X122951560Y-56083662D01*
X123088445Y-56288524D01*
X123102228Y-56321800D01*
X123182733Y-56516158D01*
X123230800Y-56757806D01*
X123230800Y-57004194D01*
X123208460Y-57116506D01*
X123182732Y-57245845D01*
X123088445Y-57473476D01*
X123088444Y-57473477D01*
X122951558Y-57678341D01*
X122777341Y-57852558D01*
X122777338Y-57852560D01*
X122572476Y-57989445D01*
X122344845Y-58083732D01*
X122344844Y-58083732D01*
X122344842Y-58083733D01*
X122103194Y-58131800D01*
X121856806Y-58131800D01*
X121615158Y-58083733D01*
X121615156Y-58083732D01*
X121615155Y-58083732D01*
X121387524Y-57989445D01*
X121182662Y-57852560D01*
X121182659Y-57852558D01*
X121008442Y-57678341D01*
X120871556Y-57473477D01*
X120871555Y-57473476D01*
X120777268Y-57245845D01*
X120751541Y-57116506D01*
X120729200Y-57004194D01*
X120729200Y-56757806D01*
X120777267Y-56516158D01*
X120857772Y-56321800D01*
X120871555Y-56288524D01*
X121008440Y-56083662D01*
X121008442Y-56083659D01*
X121182659Y-55909442D01*
X121221493Y-55883494D01*
X121387524Y-55772555D01*
X121615155Y-55678268D01*
X121615156Y-55678268D01*
X121615158Y-55678267D01*
X121856806Y-55630200D01*
X122103194Y-55630200D01*
X122344842Y-55678267D01*
X122344842Y-55678267D01*
G37*
G36*
X205612223Y-49945126D02*
X206203830Y-50190178D01*
X206736267Y-50545941D01*
X207189059Y-50998733D01*
X207544822Y-51531170D01*
X207789874Y-52122777D01*
X207914800Y-52750823D01*
X207914800Y-53391177D01*
X207789874Y-54019223D01*
X207544822Y-54610830D01*
X207189059Y-55143267D01*
X206736267Y-55596059D01*
X206203830Y-55951822D01*
X205612223Y-56196874D01*
X204984177Y-56321800D01*
X204343823Y-56321800D01*
X203715777Y-56196874D01*
X203124170Y-55951822D01*
X202591733Y-55596059D01*
X202138941Y-55143267D01*
X201783178Y-54610830D01*
X201538126Y-54019223D01*
X201413200Y-53391177D01*
X201413200Y-52750823D01*
X201538126Y-52122777D01*
X201783178Y-51531170D01*
X202138941Y-50998733D01*
X202591733Y-50545941D01*
X203124170Y-50190178D01*
X203715777Y-49945126D01*
X204343823Y-49820200D01*
X204984177Y-49820200D01*
X205612223Y-49945126D01*
X205612223Y-49945126D01*
G37*
G36*
X67822942Y-44814857D02*
X68454082Y-44940398D01*
X69245877Y-45268371D01*
X69958474Y-45744513D01*
X70564487Y-46350526D01*
X71040629Y-47063123D01*
X71368602Y-47854918D01*
X71474658Y-48388102D01*
X71535800Y-48695482D01*
X71535800Y-49552518D01*
X71517780Y-49643109D01*
X71368602Y-50393082D01*
X71040629Y-51184877D01*
X70564487Y-51897474D01*
X69958474Y-52503487D01*
X69245877Y-52979629D01*
X68454082Y-53307602D01*
X67883189Y-53421159D01*
X67613518Y-53474800D01*
X66756482Y-53474800D01*
X66486811Y-53421159D01*
X65915918Y-53307602D01*
X65124123Y-52979629D01*
X64411526Y-52503487D01*
X63805513Y-51897474D01*
X63329371Y-51184877D01*
X63001398Y-50393082D01*
X62852220Y-49643109D01*
X62834200Y-49552518D01*
X62834200Y-48695482D01*
X62895342Y-48388102D01*
X63001398Y-47854918D01*
X63329371Y-47063123D01*
X63805513Y-46350526D01*
X64411526Y-45744513D01*
X65124123Y-45268371D01*
X65915918Y-44940398D01*
X66547058Y-44814857D01*
X66756482Y-44773200D01*
X67613518Y-44773200D01*
X67822942Y-44814857D01*
X67822942Y-44814857D01*
G37*
G36*
X228572942Y-44814857D02*
X229204082Y-44940398D01*
X229995877Y-45268371D01*
X230708474Y-45744513D01*
X231314487Y-46350526D01*
X231790629Y-47063123D01*
X232118602Y-47854918D01*
X232224658Y-48388102D01*
X232285800Y-48695482D01*
X232285800Y-49552518D01*
X232267780Y-49643109D01*
X232118602Y-50393082D01*
X231790629Y-51184877D01*
X231314487Y-51897474D01*
X230708474Y-52503487D01*
X229995877Y-52979629D01*
X229204082Y-53307602D01*
X228633189Y-53421159D01*
X228363518Y-53474800D01*
X227506482Y-53474800D01*
X227236811Y-53421159D01*
X226665918Y-53307602D01*
X225874123Y-52979629D01*
X225161526Y-52503487D01*
X224555513Y-51897474D01*
X224079371Y-51184877D01*
X223751398Y-50393082D01*
X223602220Y-49643109D01*
X223584200Y-49552518D01*
X223584200Y-48695482D01*
X223645342Y-48388102D01*
X223751398Y-47854918D01*
X224079371Y-47063123D01*
X224555513Y-46350526D01*
X225161526Y-45744513D01*
X225874123Y-45268371D01*
X226665918Y-44940398D01*
X227297058Y-44814857D01*
X227506482Y-44773200D01*
X228363518Y-44773200D01*
X228572942Y-44814857D01*
X228572942Y-44814857D01*
G37*
G36*
X95375800Y-50356800D02*
X92974200Y-50356800D01*
X92974200Y-48755200D01*
X95375800Y-48755200D01*
X95375800Y-50356800D01*
X95375800Y-50356800D01*
G37*
G36*
X98871468Y-48675283D02*
X98905434Y-48685586D01*
X98936732Y-48702316D01*
X98964168Y-48724832D01*
X98986684Y-48752268D01*
X99003414Y-48783566D01*
X99013717Y-48817532D01*
X99017800Y-48858990D01*
X99017800Y-49460010D01*
X99013717Y-49501468D01*
X99003414Y-49535434D01*
X98986684Y-49566732D01*
X98964168Y-49594168D01*
X98936732Y-49616684D01*
X98905434Y-49633414D01*
X98871468Y-49643717D01*
X98830010Y-49647800D01*
X98153990Y-49647800D01*
X98112532Y-49643717D01*
X98078566Y-49633414D01*
X98047268Y-49616684D01*
X98019832Y-49594168D01*
X97997316Y-49566732D01*
X97980586Y-49535434D01*
X97970283Y-49501468D01*
X97966200Y-49460010D01*
X97966200Y-48858990D01*
X97970283Y-48817532D01*
X97980586Y-48783566D01*
X97997316Y-48752268D01*
X98019832Y-48724832D01*
X98047268Y-48702316D01*
X98078566Y-48685586D01*
X98112532Y-48675283D01*
X98153990Y-48671200D01*
X98830010Y-48671200D01*
X98871468Y-48675283D01*
X98871468Y-48675283D01*
G37*
G36*
X110929270Y-46734308D02*
X111048877Y-46770591D01*
X111051949Y-46771523D01*
X111165005Y-46831952D01*
X111264102Y-46913280D01*
X111345430Y-47012377D01*
X111405859Y-47125433D01*
X111405860Y-47125436D01*
X111443074Y-47248112D01*
X111452491Y-47343728D01*
X111452491Y-47957654D01*
X111443074Y-48053270D01*
X111405860Y-48175945D01*
X111405859Y-48175949D01*
X111345430Y-48289005D01*
X111264102Y-48388102D01*
X111165004Y-48469430D01*
X111051948Y-48529859D01*
X111051945Y-48529860D01*
X110929269Y-48567074D01*
X110801691Y-48579639D01*
X110674112Y-48567074D01*
X110551436Y-48529860D01*
X110551433Y-48529859D01*
X110438377Y-48469430D01*
X110339280Y-48388102D01*
X110257952Y-48289004D01*
X110197523Y-48175948D01*
X110166233Y-48072800D01*
X110160308Y-48053269D01*
X110150891Y-47957653D01*
X110150891Y-47343728D01*
X110160308Y-47248112D01*
X110193909Y-47137347D01*
X110197522Y-47125435D01*
X110230829Y-47063123D01*
X110257953Y-47012377D01*
X110339281Y-46913280D01*
X110374252Y-46884580D01*
X110438378Y-46831952D01*
X110551434Y-46771523D01*
X110554506Y-46770591D01*
X110674113Y-46734308D01*
X110801691Y-46721743D01*
X110929270Y-46734308D01*
X110929270Y-46734308D01*
G37*
G36*
X108929270Y-46734308D02*
X109048877Y-46770591D01*
X109051949Y-46771523D01*
X109165005Y-46831952D01*
X109264102Y-46913280D01*
X109345430Y-47012377D01*
X109405859Y-47125433D01*
X109405860Y-47125436D01*
X109443074Y-47248112D01*
X109452491Y-47343728D01*
X109452491Y-47957654D01*
X109443074Y-48053270D01*
X109405860Y-48175945D01*
X109405859Y-48175949D01*
X109345430Y-48289005D01*
X109264102Y-48388102D01*
X109165004Y-48469430D01*
X109051948Y-48529859D01*
X109051945Y-48529860D01*
X108929269Y-48567074D01*
X108801691Y-48579639D01*
X108674112Y-48567074D01*
X108551436Y-48529860D01*
X108551433Y-48529859D01*
X108438377Y-48469430D01*
X108339280Y-48388102D01*
X108257952Y-48289004D01*
X108197523Y-48175948D01*
X108166233Y-48072800D01*
X108160308Y-48053269D01*
X108150891Y-47957653D01*
X108150891Y-47343728D01*
X108160308Y-47248112D01*
X108193909Y-47137347D01*
X108197522Y-47125435D01*
X108230829Y-47063123D01*
X108257953Y-47012377D01*
X108339281Y-46913280D01*
X108374252Y-46884580D01*
X108438378Y-46831952D01*
X108551434Y-46771523D01*
X108554506Y-46770591D01*
X108674113Y-46734308D01*
X108801691Y-46721743D01*
X108929270Y-46734308D01*
X108929270Y-46734308D01*
G37*
G36*
X106929270Y-46734308D02*
X107048877Y-46770591D01*
X107051949Y-46771523D01*
X107165005Y-46831952D01*
X107264102Y-46913280D01*
X107345430Y-47012377D01*
X107405859Y-47125433D01*
X107405860Y-47125436D01*
X107443074Y-47248112D01*
X107452491Y-47343728D01*
X107452491Y-47957654D01*
X107443074Y-48053270D01*
X107405860Y-48175945D01*
X107405859Y-48175949D01*
X107345430Y-48289005D01*
X107264102Y-48388102D01*
X107165004Y-48469430D01*
X107051948Y-48529859D01*
X107051945Y-48529860D01*
X106929269Y-48567074D01*
X106801691Y-48579639D01*
X106674112Y-48567074D01*
X106551436Y-48529860D01*
X106551433Y-48529859D01*
X106438377Y-48469430D01*
X106339280Y-48388102D01*
X106257952Y-48289004D01*
X106197523Y-48175948D01*
X106166233Y-48072800D01*
X106160308Y-48053269D01*
X106150891Y-47957653D01*
X106150891Y-47343728D01*
X106160308Y-47248112D01*
X106193909Y-47137347D01*
X106197522Y-47125435D01*
X106230829Y-47063123D01*
X106257953Y-47012377D01*
X106339281Y-46913280D01*
X106374252Y-46884580D01*
X106438378Y-46831952D01*
X106551434Y-46771523D01*
X106554506Y-46770591D01*
X106674113Y-46734308D01*
X106801691Y-46721743D01*
X106929270Y-46734308D01*
X106929270Y-46734308D01*
G37*
G36*
X113292802Y-46729293D02*
X113329873Y-46740539D01*
X113364052Y-46758807D01*
X113393998Y-46783384D01*
X113418575Y-46813330D01*
X113436843Y-46847509D01*
X113448089Y-46884580D01*
X113452491Y-46929280D01*
X113452491Y-48372102D01*
X113448089Y-48416802D01*
X113436843Y-48453873D01*
X113418575Y-48488052D01*
X113393998Y-48517998D01*
X113364052Y-48542575D01*
X113329873Y-48560843D01*
X113292802Y-48572089D01*
X113248102Y-48576491D01*
X112355280Y-48576491D01*
X112310580Y-48572089D01*
X112273509Y-48560843D01*
X112239330Y-48542575D01*
X112209384Y-48517998D01*
X112184807Y-48488052D01*
X112166539Y-48453873D01*
X112155293Y-48416802D01*
X112150891Y-48372102D01*
X112150891Y-46929280D01*
X112155293Y-46884580D01*
X112166539Y-46847509D01*
X112184807Y-46813330D01*
X112209384Y-46783384D01*
X112239330Y-46758807D01*
X112273509Y-46740539D01*
X112310580Y-46729293D01*
X112355280Y-46724891D01*
X113248102Y-46724891D01*
X113292802Y-46729293D01*
X113292802Y-46729293D01*
G37*
G36*
X98871468Y-47100283D02*
X98905434Y-47110586D01*
X98936732Y-47127316D01*
X98964168Y-47149832D01*
X98986684Y-47177268D01*
X99003414Y-47208566D01*
X99013717Y-47242532D01*
X99017800Y-47283990D01*
X99017800Y-47885010D01*
X99013717Y-47926468D01*
X99003414Y-47960434D01*
X98986684Y-47991732D01*
X98964168Y-48019168D01*
X98936732Y-48041684D01*
X98905434Y-48058414D01*
X98871468Y-48068717D01*
X98830010Y-48072800D01*
X98153990Y-48072800D01*
X98112532Y-48068717D01*
X98078566Y-48058414D01*
X98047268Y-48041684D01*
X98019832Y-48019168D01*
X97997316Y-47991732D01*
X97980586Y-47960434D01*
X97970283Y-47926468D01*
X97966200Y-47885010D01*
X97966200Y-47283990D01*
X97970283Y-47242532D01*
X97980586Y-47208566D01*
X97997316Y-47177268D01*
X98019832Y-47149832D01*
X98047268Y-47127316D01*
X98078566Y-47110586D01*
X98112532Y-47100283D01*
X98153990Y-47096200D01*
X98830010Y-47096200D01*
X98871468Y-47100283D01*
X98871468Y-47100283D01*
G37*
G36*
X94731982Y-46226787D02*
X94882936Y-46272578D01*
X95006142Y-46338433D01*
X95022053Y-46346938D01*
X95040439Y-46362027D01*
X95143991Y-46447009D01*
X95207454Y-46524340D01*
X95244062Y-46568947D01*
X95244063Y-46568949D01*
X95318422Y-46708064D01*
X95364213Y-46859018D01*
X95379674Y-47016000D01*
X95364213Y-47172982D01*
X95318422Y-47323936D01*
X95252567Y-47447142D01*
X95244062Y-47463053D01*
X95217994Y-47494817D01*
X95143991Y-47584991D01*
X95053817Y-47658994D01*
X95022053Y-47685062D01*
X95022051Y-47685063D01*
X94882936Y-47759422D01*
X94731982Y-47805213D01*
X94614336Y-47816800D01*
X93735664Y-47816800D01*
X93618018Y-47805213D01*
X93467064Y-47759422D01*
X93327949Y-47685063D01*
X93327947Y-47685062D01*
X93296183Y-47658994D01*
X93206009Y-47584991D01*
X93132006Y-47494817D01*
X93105938Y-47463053D01*
X93097433Y-47447142D01*
X93031578Y-47323936D01*
X92985787Y-47172982D01*
X92970326Y-47016000D01*
X92985787Y-46859018D01*
X93031578Y-46708064D01*
X93105937Y-46568949D01*
X93105938Y-46568947D01*
X93142546Y-46524340D01*
X93206009Y-46447009D01*
X93309561Y-46362027D01*
X93327947Y-46346938D01*
X93343858Y-46338433D01*
X93467064Y-46272578D01*
X93618018Y-46226787D01*
X93735664Y-46215200D01*
X94614336Y-46215200D01*
X94731982Y-46226787D01*
X94731982Y-46226787D01*
G37*
G36*
X94731982Y-43686787D02*
X94882936Y-43732578D01*
X95006142Y-43798433D01*
X95022053Y-43806938D01*
X95053817Y-43833006D01*
X95143991Y-43907009D01*
X95217994Y-43997183D01*
X95244062Y-44028947D01*
X95244063Y-44028949D01*
X95318422Y-44168064D01*
X95364213Y-44319018D01*
X95379674Y-44476000D01*
X95364213Y-44632982D01*
X95318422Y-44783936D01*
X95252567Y-44907142D01*
X95244062Y-44923053D01*
X95229827Y-44940398D01*
X95143991Y-45044991D01*
X95053817Y-45118994D01*
X95022053Y-45145062D01*
X95022051Y-45145063D01*
X94882936Y-45219422D01*
X94731982Y-45265213D01*
X94614336Y-45276800D01*
X93735664Y-45276800D01*
X93618018Y-45265213D01*
X93467064Y-45219422D01*
X93327949Y-45145063D01*
X93327947Y-45145062D01*
X93296183Y-45118994D01*
X93206009Y-45044991D01*
X93120173Y-44940398D01*
X93105938Y-44923053D01*
X93097433Y-44907142D01*
X93031578Y-44783936D01*
X92985787Y-44632982D01*
X92970326Y-44476000D01*
X92985787Y-44319018D01*
X93031578Y-44168064D01*
X93105937Y-44028949D01*
X93105938Y-44028947D01*
X93132006Y-43997183D01*
X93206009Y-43907009D01*
X93296183Y-43833006D01*
X93327947Y-43806938D01*
X93343858Y-43798433D01*
X93467064Y-43732578D01*
X93618018Y-43686787D01*
X93735664Y-43675200D01*
X94614336Y-43675200D01*
X94731982Y-43686787D01*
X94731982Y-43686787D01*
G37*
G36*
X123138800Y-44229800D02*
X120837200Y-44229800D01*
X120837200Y-41928200D01*
X123138800Y-41928200D01*
X123138800Y-44229800D01*
X123138800Y-44229800D01*
G37*
G36*
X132289065Y-41936525D02*
X132373596Y-41944851D01*
X132590524Y-42010655D01*
X132697384Y-42067773D01*
X132790444Y-42117515D01*
X132790446Y-42117516D01*
X132790445Y-42117516D01*
X132965676Y-42261324D01*
X133109484Y-42436555D01*
X133216345Y-42636476D01*
X133282149Y-42853405D01*
X133304368Y-43079000D01*
X133282149Y-43304595D01*
X133216345Y-43521524D01*
X133159227Y-43628384D01*
X133109485Y-43721444D01*
X132965676Y-43896676D01*
X132790444Y-44040485D01*
X132697384Y-44090227D01*
X132590524Y-44147345D01*
X132482059Y-44180247D01*
X132373596Y-44213149D01*
X132289065Y-44221475D01*
X132204535Y-44229800D01*
X132091465Y-44229800D01*
X132006935Y-44221474D01*
X131922404Y-44213149D01*
X131813941Y-44180247D01*
X131705476Y-44147345D01*
X131598616Y-44090227D01*
X131505556Y-44040485D01*
X131330324Y-43896676D01*
X131186515Y-43721444D01*
X131136773Y-43628384D01*
X131079655Y-43521524D01*
X131013851Y-43304595D01*
X130991632Y-43079000D01*
X131013851Y-42853405D01*
X131079655Y-42636476D01*
X131186516Y-42436555D01*
X131330324Y-42261324D01*
X131505555Y-42117516D01*
X131505554Y-42117516D01*
X131505556Y-42117515D01*
X131598616Y-42067773D01*
X131705476Y-42010655D01*
X131922404Y-41944851D01*
X132006935Y-41936526D01*
X132091465Y-41928200D01*
X132204535Y-41928200D01*
X132289065Y-41936525D01*
X132289065Y-41936525D01*
G37*
M02*
