M48
;DRILL file {KiCad (5.0.2)-1} date 3/7/2019 1:49:34 AM
;FORMAT={-:-/ absolute / inch / decimal}
FMAT,2
INCH,TZ
T1C0.0157
T2C0.0197
T3C0.0236
T4C0.0394
T5C0.0402
T6C0.0433
T7C0.0472
T8C0.0512
T9C0.0551
T10C0.0689
T11C0.1260
T12C0.1693
T13C0.2520
%
G90
G05
T1
X2.175Y-4.76
X2.175Y-5.01
X2.185Y-2.58
X2.255Y-2.96
X2.425Y-2.7
X2.5Y-2.225
X2.5Y-5.16
X2.6Y-2.525
X2.62Y-4.68
X2.75Y-3.7
X2.75Y-4.5
X2.75Y-5.785
X2.775Y-3.975
X2.825Y-1.6
X2.9Y-3.85
X2.93Y-5.41
X3.Y-3.7
X3.025Y-3.975
X3.0337Y-4.6593
X3.09Y-5.76
X3.175Y-1.925
X3.175Y-4.86
X3.2038Y-5.1373
X3.225Y-3.7
X3.275Y-3.975
X3.35Y-1.6
X3.3738Y-4.7523
X3.4Y-3.85
X3.45Y-5.335
X3.4538Y-4.7973
X3.461Y-5.016
X3.4738Y-4.8773
X3.48Y-5.81
X3.5Y-3.7
X3.525Y-3.5
X3.533Y-5.0034
X3.575Y-3.975
X3.625Y-4.835
X3.6488Y-5.2281
X3.66Y-5.75
X3.6738Y-4.6273
X3.675Y-3.4
X3.675Y-3.7
X3.7039Y-5.2358
X3.72Y-5.065
X3.7238Y-4.6023
X3.7988Y-4.8273
X3.8179Y-5.101
X3.8238Y-5.4273
X3.85Y-4.86
X3.875Y-3.475
X3.875Y-3.625
X3.875Y-3.8
X3.875Y-3.975
X3.891Y-5.151
X3.8973Y-2.7503
X3.9Y-1.6
X3.9175Y-5.1115
X3.92Y-3.41
X3.92Y-4.85
X3.9491Y-4.9539
X3.9545Y-3.358
X3.99Y-5.09
X3.9938Y-5.2358
X3.9941Y-3.3774
X4.02Y-3.33
X4.025Y-2.435
X4.0265Y-2.4926
X4.05Y-3.475
X4.05Y-3.625
X4.05Y-3.8
X4.05Y-3.975
X4.06Y-5.01
X4.0691Y-2.5525
X4.075Y-3.185
X4.09Y-2.63
X4.09Y-3.03
X4.125Y-2.36
X4.13Y-5.74
X4.14Y-5.455
X4.15Y-4.91
X4.175Y-3.475
X4.175Y-3.7
X4.175Y-3.875
X4.186Y-2.472
X4.21Y-2.36
X4.21Y-2.79
X4.225Y-4.66
X4.2468Y-4.4968
X4.2468Y-4.6062
X4.2477Y-4.046
X4.2477Y-4.146
X4.2477Y-4.246
X4.25Y-5.09
X4.2727Y-4.096
X4.2727Y-4.196
X4.2727Y-4.296
X4.3Y-3.075
X4.3Y-3.325
X4.315Y-4.78
X4.325Y-3.6
X4.35Y-4.91
X4.3827Y-4.046
X4.3827Y-4.146
X4.3827Y-4.246
X4.4Y-2.85
X4.4077Y-4.096
X4.4077Y-4.196
X4.4077Y-4.296
X4.4176Y-4.4194
X4.425Y-1.6
X4.45Y-2.32
X4.47Y-2.1
X4.52Y-5.03
X4.525Y-5.29
X4.525Y-5.355
X4.535Y-4.5
X4.5352Y-5.1966
X4.55Y-2.52
X4.605Y-5.135
X4.675Y-2.035
X4.675Y-2.825
X4.71Y-5.29
X4.725Y-4.35
X4.74Y-1.96
X4.75Y-4.92
X4.8Y-4.625
X4.86Y-2.72
X4.875Y-1.6
X4.875Y-4.25
X4.92Y-2.55
X4.95Y-5.82
X4.975Y-2.8
X4.99Y-2.33
X5.Y-4.35
X5.Y-5.2
X5.025Y-5.56
X5.0324Y-5.3854
X5.05Y-4.535
X5.06Y-4.75
X5.07Y-4.91
X5.12Y-2.12
X5.125Y-5.61
X5.15Y-4.2
X5.15Y-5.16
X5.2Y-2.8
X5.23Y-4.94
X5.25Y-5.38
X5.275Y-3.75
X5.3Y-3.95
X5.3176Y-1.9694
X5.375Y-3.025
X5.375Y-4.15
X5.4Y-2.8
X5.425Y-3.675
X5.4476Y-1.6894
X5.45Y-3.225
X5.475Y-3.425
X5.475Y-3.875
X5.499Y-4.799
X5.5Y-2.925
X5.5Y-4.3
X5.5Y-4.6
X5.5Y-5.
X5.5Y-5.2
X5.5Y-5.4
X5.5Y-5.6
X5.5Y-5.8
X5.525Y-2.725
X5.55Y-4.075
X5.575Y-3.575
X5.6Y-2.6
X5.6176Y-1.9294
X5.625Y-3.1
X5.625Y-3.325
X5.625Y-3.825
X5.7Y-3.525
X5.7219Y-4.2569
X5.75Y-3.275
X5.8Y-3.025
X5.8076Y-1.5894
X5.8076Y-1.7994
X5.8176Y-2.0594
X5.825Y-2.475
X5.825Y-2.7
X6.8732Y-2.7245
X6.9597Y-2.7252
T2
X5.5726Y-2.2644
X5.5726Y-2.8744
X5.6005Y-2.1972
X5.6005Y-2.3316
X5.6005Y-2.8072
X5.6005Y-2.9416
X5.6676Y-2.1694
X5.6676Y-2.3594
X5.6676Y-2.7794
X5.6676Y-2.9694
X5.7348Y-2.1972
X5.7348Y-2.3316
X5.7348Y-2.8072
X5.7348Y-2.9416
X5.7626Y-2.2644
X5.7626Y-2.8744
X7.9608Y-3.0426
X7.9626Y-2.0894
X7.9874Y-3.1103
X7.9899Y-2.976
X7.9905Y-2.0222
X7.9905Y-2.1566
X8.054Y-3.1394
X8.0576Y-1.9944
X8.0576Y-2.1844
X8.0576Y-2.9494
X8.1217Y-3.1129
X8.1243Y-2.9785
X8.1248Y-2.0222
X8.1248Y-2.1566
X8.1508Y-3.0462
X8.1526Y-2.0894
T3
X8.8469Y-5.4773
X8.884Y-5.3875
X8.884Y-5.5671
X8.9738Y-5.3504
X8.9738Y-5.6043
X9.0636Y-5.3875
X9.0636Y-5.5671
X9.1008Y-5.4773
X8.2087Y-4.6494
X8.264Y-4.5158
X8.264Y-4.783
X8.3976Y-4.4604
X8.3976Y-4.8384
X8.5313Y-4.5158
X8.5313Y-4.783
X8.5866Y-4.6494
X2.5181Y-1.934
X2.5553Y-1.8442
X2.5553Y-2.0238
X2.6451Y-1.807
X2.6451Y-2.061
X2.7349Y-1.8442
X2.7349Y-2.0238
X2.772Y-1.934
X8.8469Y-1.934
X8.884Y-1.8442
X8.884Y-2.0238
X8.9738Y-1.807
X8.9738Y-2.061
X9.0636Y-1.8442
X9.0636Y-2.0238
X9.1008Y-1.934
X2.5181Y-5.4773
X2.5553Y-5.3875
X2.5553Y-5.5671
X2.6451Y-5.3504
X2.6451Y-5.6043
X2.7349Y-5.3875
X2.7349Y-5.5671
X2.772Y-5.4773
X5.963Y-3.9025
X6.0002Y-3.8127
X6.0002Y-3.9923
X6.09Y-3.7756
X6.09Y-4.0295
X6.1797Y-3.8127
X6.1797Y-3.9923
X6.2169Y-3.9025
T4
X3.7077Y-1.751
X3.7077Y-1.851
X3.7077Y-1.951
X8.0176Y-2.4444
X8.0176Y-2.5444
X8.0176Y-2.6444
X3.1238Y-4.521
X3.1238Y-4.621
X3.2238Y-4.521
X3.2238Y-4.621
X3.3238Y-4.521
X3.3238Y-4.621
X2.9488Y-4.6523
X2.9488Y-4.7523
X2.9488Y-4.8523
X2.9488Y-4.9523
X3.3577Y-3.521
X3.3577Y-3.7179
T5
X4.5076Y-1.7794
X4.5076Y-1.8794
X4.5076Y-1.9794
X4.1976Y-1.7794
X4.1976Y-1.8794
X4.1976Y-1.9794
T6
X2.7577Y-2.296
X3.1577Y-2.296
X3.5077Y-2.946
X3.9077Y-2.946
X4.8027Y-1.696
X5.2027Y-1.696
X3.0327Y-2.696
X3.4327Y-2.696
T7
X5.8238Y-5.0773
X5.8238Y-5.2773
X4.9476Y-3.2094
X4.9476Y-3.5047
X8.3559Y-3.2822
X8.9465Y-3.2822
X4.4276Y-2.6941
X4.4276Y-2.9894
X2.9947Y-5.5746
X3.0947Y-5.5746
X3.1947Y-5.5746
X3.2947Y-5.5746
X3.3947Y-5.5746
X5.3577Y-4.686
X5.3577Y-4.786
X8.3559Y-2.5736
X8.9465Y-2.5736
X3.5947Y-5.5746
X3.6947Y-5.5746
X3.7947Y-5.5746
X3.8947Y-5.5746
X3.9947Y-5.5746
X8.3559Y-2.9279
X8.9465Y-2.9279
X5.3577Y-4.421
X5.3577Y-4.521
X4.8024Y-2.2394
X5.0976Y-2.2394
X6.1789Y-4.8023
X6.1789Y-5.0779
X6.1789Y-5.196
X6.1789Y-5.3141
X7.1238Y-4.8023
X7.1238Y-4.9204
X7.1238Y-5.0385
X7.1238Y-5.1567
X7.1238Y-5.3535
X7.1238Y-5.6685
T8
X8.9266Y-3.871
X8.9266Y-4.7569
T9
X7.0726Y-3.9994
X7.0726Y-4.1624
X7.0726Y-4.3254
X7.6726Y-4.4244
X7.6726Y-4.5874
X7.6726Y-4.7504
T10
X2.2809Y-3.1348
X2.2809Y-3.2923
X2.2809Y-3.4498
X2.2809Y-3.6072
X2.2809Y-3.7647
X2.2809Y-3.9222
X2.2809Y-4.0797
X2.2809Y-4.2372
X2.4384Y-3.2135
X2.4384Y-3.371
X2.4384Y-3.5285
X2.4384Y-3.686
X2.4384Y-3.8435
X2.4384Y-4.0009
X2.4384Y-4.1584
X2.5959Y-3.1348
X2.5959Y-3.2923
X2.5959Y-3.4498
X2.5959Y-3.6072
X2.5959Y-3.7647
X2.5959Y-3.9222
X2.5959Y-4.0797
X2.5959Y-4.2372
T11
X5.6676Y-2.2644
X5.6676Y-2.8744
X8.0558Y-3.0444
X8.0576Y-2.0894
T12
X2.6451Y-1.934
X8.9738Y-1.934
X2.6451Y-5.4773
X6.09Y-3.9025
X8.9738Y-5.4773
T13
X8.3976Y-4.6494
T0
M30
