G04 #@! TF.GenerationSoftware,KiCad,Pcbnew,(5.0.2)-1*
G04 #@! TF.CreationDate,2019-04-03T20:13:24-04:00*
G04 #@! TF.ProjectId,interface-board,696e7465-7266-4616-9365-2d626f617264,rev?*
G04 #@! TF.SameCoordinates,Original*
G04 #@! TF.FileFunction,Legend,Top*
G04 #@! TF.FilePolarity,Positive*
%FSLAX46Y46*%
G04 Gerber Fmt 4.6, Leading zero omitted, Abs format (unit mm)*
G04 Created by KiCad (PCBNEW (5.0.2)-1) date 4/3/2019 8:13:24 PM*
%MOMM*%
%LPD*%
G01*
G04 APERTURE LIST*
%ADD10C,0.300000*%
%ADD11C,0.254000*%
%ADD12C,0.457200*%
%ADD13C,0.400000*%
%ADD14C,0.500000*%
%ADD15C,0.700000*%
%ADD16C,1.000000*%
%ADD17C,0.010000*%
%ADD18C,0.180000*%
%ADD19C,0.120000*%
%ADD20C,0.150000*%
G04 APERTURE END LIST*
D10*
X137057571Y-34138571D02*
X136200428Y-34138571D01*
X136629000Y-34138571D02*
X136629000Y-32638571D01*
X136486142Y-32852857D01*
X136343285Y-32995714D01*
X136200428Y-33067142D01*
X137914714Y-33281428D02*
X137771857Y-33210000D01*
X137700428Y-33138571D01*
X137629000Y-32995714D01*
X137629000Y-32924285D01*
X137700428Y-32781428D01*
X137771857Y-32710000D01*
X137914714Y-32638571D01*
X138200428Y-32638571D01*
X138343285Y-32710000D01*
X138414714Y-32781428D01*
X138486142Y-32924285D01*
X138486142Y-32995714D01*
X138414714Y-33138571D01*
X138343285Y-33210000D01*
X138200428Y-33281428D01*
X137914714Y-33281428D01*
X137771857Y-33352857D01*
X137700428Y-33424285D01*
X137629000Y-33567142D01*
X137629000Y-33852857D01*
X137700428Y-33995714D01*
X137771857Y-34067142D01*
X137914714Y-34138571D01*
X138200428Y-34138571D01*
X138343285Y-34067142D01*
X138414714Y-33995714D01*
X138486142Y-33852857D01*
X138486142Y-33567142D01*
X138414714Y-33424285D01*
X138343285Y-33352857D01*
X138200428Y-33281428D01*
X139914714Y-34138571D02*
X139057571Y-34138571D01*
X139486142Y-34138571D02*
X139486142Y-32638571D01*
X139343285Y-32852857D01*
X139200428Y-32995714D01*
X139057571Y-33067142D01*
X140557571Y-33995714D02*
X140629000Y-34067142D01*
X140557571Y-34138571D01*
X140486142Y-34067142D01*
X140557571Y-33995714D01*
X140557571Y-34138571D01*
X141914714Y-32638571D02*
X141629000Y-32638571D01*
X141486142Y-32710000D01*
X141414714Y-32781428D01*
X141271857Y-32995714D01*
X141200428Y-33281428D01*
X141200428Y-33852857D01*
X141271857Y-33995714D01*
X141343285Y-34067142D01*
X141486142Y-34138571D01*
X141771857Y-34138571D01*
X141914714Y-34067142D01*
X141986142Y-33995714D01*
X142057571Y-33852857D01*
X142057571Y-33495714D01*
X141986142Y-33352857D01*
X141914714Y-33281428D01*
X141771857Y-33210000D01*
X141486142Y-33210000D01*
X141343285Y-33281428D01*
X141271857Y-33352857D01*
X141200428Y-33495714D01*
X143486142Y-34138571D02*
X142629000Y-34138571D01*
X143057571Y-34138571D02*
X143057571Y-32638571D01*
X142914714Y-32852857D01*
X142771857Y-32995714D01*
X142629000Y-33067142D01*
X144414714Y-32638571D02*
X144557571Y-32638571D01*
X144700428Y-32710000D01*
X144771857Y-32781428D01*
X144843285Y-32924285D01*
X144914714Y-33210000D01*
X144914714Y-33567142D01*
X144843285Y-33852857D01*
X144771857Y-33995714D01*
X144700428Y-34067142D01*
X144557571Y-34138571D01*
X144414714Y-34138571D01*
X144271857Y-34067142D01*
X144200428Y-33995714D01*
X144129000Y-33852857D01*
X144057571Y-33567142D01*
X144057571Y-33210000D01*
X144129000Y-32924285D01*
X144200428Y-32781428D01*
X144271857Y-32710000D01*
X144414714Y-32638571D01*
X146700428Y-34138571D02*
X146700428Y-33138571D01*
X146700428Y-33281428D02*
X146771857Y-33210000D01*
X146914714Y-33138571D01*
X147129000Y-33138571D01*
X147271857Y-33210000D01*
X147343285Y-33352857D01*
X147343285Y-34138571D01*
X147343285Y-33352857D02*
X147414714Y-33210000D01*
X147557571Y-33138571D01*
X147771857Y-33138571D01*
X147914714Y-33210000D01*
X147986142Y-33352857D01*
X147986142Y-34138571D01*
X148700428Y-34138571D02*
X148700428Y-33138571D01*
X148700428Y-33281428D02*
X148771857Y-33210000D01*
X148914714Y-33138571D01*
X149129000Y-33138571D01*
X149271857Y-33210000D01*
X149343285Y-33352857D01*
X149343285Y-34138571D01*
X149343285Y-33352857D02*
X149414714Y-33210000D01*
X149557571Y-33138571D01*
X149771857Y-33138571D01*
X149914714Y-33210000D01*
X149986142Y-33352857D01*
X149986142Y-34138571D01*
X233934000Y-35560000D02*
X52324000Y-35560000D01*
X233934000Y-69342000D02*
X233934000Y-34973579D01*
X52324000Y-69342000D02*
X52324000Y-34973579D01*
X52324000Y-35560000D02*
X53450504Y-34973579D01*
X52324000Y-35560000D02*
X53450504Y-36146421D01*
X233934000Y-35560000D02*
X232807496Y-34973579D01*
X233934000Y-35560000D02*
X232807496Y-36146421D01*
X242300571Y-100178428D02*
X242300571Y-101035571D01*
X242300571Y-100607000D02*
X240800571Y-100607000D01*
X241014857Y-100749857D01*
X241157714Y-100892714D01*
X241229142Y-101035571D01*
X240800571Y-99249857D02*
X240800571Y-99107000D01*
X240872000Y-98964142D01*
X240943428Y-98892714D01*
X241086285Y-98821285D01*
X241372000Y-98749857D01*
X241729142Y-98749857D01*
X242014857Y-98821285D01*
X242157714Y-98892714D01*
X242229142Y-98964142D01*
X242300571Y-99107000D01*
X242300571Y-99249857D01*
X242229142Y-99392714D01*
X242157714Y-99464142D01*
X242014857Y-99535571D01*
X241729142Y-99607000D01*
X241372000Y-99607000D01*
X241086285Y-99535571D01*
X240943428Y-99464142D01*
X240872000Y-99392714D01*
X240800571Y-99249857D01*
X242300571Y-98035571D02*
X242300571Y-97749857D01*
X242229142Y-97607000D01*
X242157714Y-97535571D01*
X241943428Y-97392714D01*
X241657714Y-97321285D01*
X241086285Y-97321285D01*
X240943428Y-97392714D01*
X240872000Y-97464142D01*
X240800571Y-97607000D01*
X240800571Y-97892714D01*
X240872000Y-98035571D01*
X240943428Y-98107000D01*
X241086285Y-98178428D01*
X241443428Y-98178428D01*
X241586285Y-98107000D01*
X241657714Y-98035571D01*
X241729142Y-97892714D01*
X241729142Y-97607000D01*
X241657714Y-97464142D01*
X241586285Y-97392714D01*
X241443428Y-97321285D01*
X242157714Y-96678428D02*
X242229142Y-96607000D01*
X242300571Y-96678428D01*
X242229142Y-96749857D01*
X242157714Y-96678428D01*
X242300571Y-96678428D01*
X242300571Y-95892714D02*
X242300571Y-95607000D01*
X242229142Y-95464142D01*
X242157714Y-95392714D01*
X241943428Y-95249857D01*
X241657714Y-95178428D01*
X241086285Y-95178428D01*
X240943428Y-95249857D01*
X240872000Y-95321285D01*
X240800571Y-95464142D01*
X240800571Y-95749857D01*
X240872000Y-95892714D01*
X240943428Y-95964142D01*
X241086285Y-96035571D01*
X241443428Y-96035571D01*
X241586285Y-95964142D01*
X241657714Y-95892714D01*
X241729142Y-95749857D01*
X241729142Y-95464142D01*
X241657714Y-95321285D01*
X241586285Y-95249857D01*
X241443428Y-95178428D01*
X241443428Y-94321285D02*
X241372000Y-94464142D01*
X241300571Y-94535571D01*
X241157714Y-94607000D01*
X241086285Y-94607000D01*
X240943428Y-94535571D01*
X240872000Y-94464142D01*
X240800571Y-94321285D01*
X240800571Y-94035571D01*
X240872000Y-93892714D01*
X240943428Y-93821285D01*
X241086285Y-93749857D01*
X241157714Y-93749857D01*
X241300571Y-93821285D01*
X241372000Y-93892714D01*
X241443428Y-94035571D01*
X241443428Y-94321285D01*
X241514857Y-94464142D01*
X241586285Y-94535571D01*
X241729142Y-94607000D01*
X242014857Y-94607000D01*
X242157714Y-94535571D01*
X242229142Y-94464142D01*
X242300571Y-94321285D01*
X242300571Y-94035571D01*
X242229142Y-93892714D01*
X242157714Y-93821285D01*
X242014857Y-93749857D01*
X241729142Y-93749857D01*
X241586285Y-93821285D01*
X241514857Y-93892714D01*
X241443428Y-94035571D01*
X240943428Y-93178428D02*
X240872000Y-93107000D01*
X240800571Y-92964142D01*
X240800571Y-92607000D01*
X240872000Y-92464142D01*
X240943428Y-92392714D01*
X241086285Y-92321285D01*
X241229142Y-92321285D01*
X241443428Y-92392714D01*
X242300571Y-93249857D01*
X242300571Y-92321285D01*
X242300571Y-90535571D02*
X241300571Y-90535571D01*
X241443428Y-90535571D02*
X241372000Y-90464142D01*
X241300571Y-90321285D01*
X241300571Y-90107000D01*
X241372000Y-89964142D01*
X241514857Y-89892714D01*
X242300571Y-89892714D01*
X241514857Y-89892714D02*
X241372000Y-89821285D01*
X241300571Y-89678428D01*
X241300571Y-89464142D01*
X241372000Y-89321285D01*
X241514857Y-89249857D01*
X242300571Y-89249857D01*
X242300571Y-88535571D02*
X241300571Y-88535571D01*
X241443428Y-88535571D02*
X241372000Y-88464142D01*
X241300571Y-88321285D01*
X241300571Y-88107000D01*
X241372000Y-87964142D01*
X241514857Y-87892714D01*
X242300571Y-87892714D01*
X241514857Y-87892714D02*
X241372000Y-87821285D01*
X241300571Y-87678428D01*
X241300571Y-87464142D01*
X241372000Y-87321285D01*
X241514857Y-87249857D01*
X242300571Y-87249857D01*
X239522000Y-149098000D02*
X239522000Y-39116000D01*
X205740000Y-149098000D02*
X240108421Y-149098000D01*
X205740000Y-39116000D02*
X240108421Y-39116000D01*
X239522000Y-39116000D02*
X240108421Y-40242504D01*
X239522000Y-39116000D02*
X238935579Y-40242504D01*
X239522000Y-149098000D02*
X240108421Y-147971496D01*
X239522000Y-149098000D02*
X238935579Y-147971496D01*
D11*
X205111652Y-61813923D02*
X205837366Y-61813923D01*
X205474509Y-63083923D02*
X205474509Y-61813923D01*
X206986414Y-63083923D02*
X206563080Y-62479161D01*
X206260700Y-63083923D02*
X206260700Y-61813923D01*
X206744509Y-61813923D01*
X206865461Y-61874400D01*
X206925938Y-61934876D01*
X206986414Y-62055828D01*
X206986414Y-62237257D01*
X206925938Y-62358209D01*
X206865461Y-62418685D01*
X206744509Y-62479161D01*
X206260700Y-62479161D01*
X207530700Y-63083923D02*
X207530700Y-61813923D01*
X208135461Y-63083923D02*
X208135461Y-61813923D01*
X208558795Y-62721066D01*
X208982128Y-61813923D01*
X208982128Y-63083923D01*
X205293080Y-64577685D02*
X205716414Y-64577685D01*
X205897842Y-65242923D02*
X205293080Y-65242923D01*
X205293080Y-63972923D01*
X205897842Y-63972923D01*
X206442128Y-65242923D02*
X206442128Y-63972923D01*
X207167842Y-65242923D01*
X207167842Y-63972923D01*
X205716414Y-66736685D02*
X205293080Y-66736685D01*
X205293080Y-67401923D02*
X205293080Y-66131923D01*
X205897842Y-66131923D01*
X206321176Y-67039066D02*
X206925938Y-67039066D01*
X206200223Y-67401923D02*
X206623557Y-66131923D01*
X207046890Y-67401923D01*
X207470223Y-66131923D02*
X207470223Y-67160019D01*
X207530700Y-67280971D01*
X207591176Y-67341447D01*
X207712128Y-67401923D01*
X207954033Y-67401923D01*
X208074985Y-67341447D01*
X208135461Y-67280971D01*
X208195938Y-67160019D01*
X208195938Y-66131923D01*
X209405461Y-67401923D02*
X208800700Y-67401923D01*
X208800700Y-66131923D01*
X209647366Y-66131923D02*
X210373080Y-66131923D01*
X210010223Y-67401923D02*
X210010223Y-66131923D01*
D12*
X135110703Y-57538257D02*
X138981180Y-57538257D01*
X137045941Y-59473495D02*
X137045941Y-55603019D01*
X135110703Y-73692657D02*
X138981180Y-73692657D01*
D13*
X137658095Y-61579952D02*
X139086666Y-61579952D01*
X138372380Y-64079952D02*
X138372380Y-61579952D01*
X139800952Y-63960904D02*
X140158095Y-64079952D01*
X140753333Y-64079952D01*
X140991428Y-63960904D01*
X141110476Y-63841857D01*
X141229523Y-63603761D01*
X141229523Y-63365666D01*
X141110476Y-63127571D01*
X140991428Y-63008523D01*
X140753333Y-62889476D01*
X140277142Y-62770428D01*
X140039047Y-62651380D01*
X139920000Y-62532333D01*
X139800952Y-62294238D01*
X139800952Y-62056142D01*
X139920000Y-61818047D01*
X140039047Y-61699000D01*
X140277142Y-61579952D01*
X140872380Y-61579952D01*
X141229523Y-61699000D01*
X141943809Y-61579952D02*
X142777142Y-64079952D01*
X143610476Y-61579952D01*
X146348571Y-64079952D02*
X146348571Y-61579952D01*
X147539047Y-62413285D02*
X147539047Y-64079952D01*
X147539047Y-62651380D02*
X147658095Y-62532333D01*
X147896190Y-62413285D01*
X148253333Y-62413285D01*
X148491428Y-62532333D01*
X148610476Y-62770428D01*
X148610476Y-64079952D01*
X149443809Y-62413285D02*
X150396190Y-62413285D01*
X149800952Y-61579952D02*
X149800952Y-63722809D01*
X149920000Y-63960904D01*
X150158095Y-64079952D01*
X150396190Y-64079952D01*
X152181904Y-63960904D02*
X151943809Y-64079952D01*
X151467619Y-64079952D01*
X151229523Y-63960904D01*
X151110476Y-63722809D01*
X151110476Y-62770428D01*
X151229523Y-62532333D01*
X151467619Y-62413285D01*
X151943809Y-62413285D01*
X152181904Y-62532333D01*
X152300952Y-62770428D01*
X152300952Y-63008523D01*
X151110476Y-63246619D01*
X153372380Y-64079952D02*
X153372380Y-62413285D01*
X153372380Y-62889476D02*
X153491428Y-62651380D01*
X153610476Y-62532333D01*
X153848571Y-62413285D01*
X154086666Y-62413285D01*
X154562857Y-62413285D02*
X155515238Y-62413285D01*
X154920000Y-64079952D02*
X154920000Y-61937095D01*
X155039047Y-61699000D01*
X155277142Y-61579952D01*
X155515238Y-61579952D01*
X157420000Y-64079952D02*
X157420000Y-62770428D01*
X157300952Y-62532333D01*
X157062857Y-62413285D01*
X156586666Y-62413285D01*
X156348571Y-62532333D01*
X157420000Y-63960904D02*
X157181904Y-64079952D01*
X156586666Y-64079952D01*
X156348571Y-63960904D01*
X156229523Y-63722809D01*
X156229523Y-63484714D01*
X156348571Y-63246619D01*
X156586666Y-63127571D01*
X157181904Y-63127571D01*
X157420000Y-63008523D01*
X159681904Y-63960904D02*
X159443809Y-64079952D01*
X158967619Y-64079952D01*
X158729523Y-63960904D01*
X158610476Y-63841857D01*
X158491428Y-63603761D01*
X158491428Y-62889476D01*
X158610476Y-62651380D01*
X158729523Y-62532333D01*
X158967619Y-62413285D01*
X159443809Y-62413285D01*
X159681904Y-62532333D01*
X161705714Y-63960904D02*
X161467619Y-64079952D01*
X160991428Y-64079952D01*
X160753333Y-63960904D01*
X160634285Y-63722809D01*
X160634285Y-62770428D01*
X160753333Y-62532333D01*
X160991428Y-62413285D01*
X161467619Y-62413285D01*
X161705714Y-62532333D01*
X161824761Y-62770428D01*
X161824761Y-63008523D01*
X160634285Y-63246619D01*
X165872380Y-64079952D02*
X165872380Y-62770428D01*
X165753333Y-62532333D01*
X165515238Y-62413285D01*
X165039047Y-62413285D01*
X164800952Y-62532333D01*
X165872380Y-63960904D02*
X165634285Y-64079952D01*
X165039047Y-64079952D01*
X164800952Y-63960904D01*
X164681904Y-63722809D01*
X164681904Y-63484714D01*
X164800952Y-63246619D01*
X165039047Y-63127571D01*
X165634285Y-63127571D01*
X165872380Y-63008523D01*
X167062857Y-62413285D02*
X167062857Y-64079952D01*
X167062857Y-62651380D02*
X167181904Y-62532333D01*
X167420000Y-62413285D01*
X167777142Y-62413285D01*
X168015238Y-62532333D01*
X168134285Y-62770428D01*
X168134285Y-64079952D01*
X170396190Y-64079952D02*
X170396190Y-61579952D01*
X170396190Y-63960904D02*
X170158095Y-64079952D01*
X169681904Y-64079952D01*
X169443809Y-63960904D01*
X169324761Y-63841857D01*
X169205714Y-63603761D01*
X169205714Y-62889476D01*
X169324761Y-62651380D01*
X169443809Y-62532333D01*
X169681904Y-62413285D01*
X170158095Y-62413285D01*
X170396190Y-62532333D01*
X139324761Y-65849000D02*
X139086666Y-65729952D01*
X138729523Y-65729952D01*
X138372380Y-65849000D01*
X138134285Y-66087095D01*
X138015238Y-66325190D01*
X137896190Y-66801380D01*
X137896190Y-67158523D01*
X138015238Y-67634714D01*
X138134285Y-67872809D01*
X138372380Y-68110904D01*
X138729523Y-68229952D01*
X138967619Y-68229952D01*
X139324761Y-68110904D01*
X139443809Y-67991857D01*
X139443809Y-67158523D01*
X138967619Y-67158523D01*
X141705714Y-68229952D02*
X140515238Y-68229952D01*
X140515238Y-65729952D01*
X142181904Y-65729952D02*
X143015238Y-68229952D01*
X143848571Y-65729952D01*
X146586666Y-68229952D02*
X146586666Y-65729952D01*
X147539047Y-65729952D01*
X147777142Y-65849000D01*
X147896190Y-65968047D01*
X148015238Y-66206142D01*
X148015238Y-66563285D01*
X147896190Y-66801380D01*
X147777142Y-66920428D01*
X147539047Y-67039476D01*
X146586666Y-67039476D01*
X149086666Y-68229952D02*
X149086666Y-65729952D01*
X149681904Y-65729952D01*
X150039047Y-65849000D01*
X150277142Y-66087095D01*
X150396190Y-66325190D01*
X150515238Y-66801380D01*
X150515238Y-67158523D01*
X150396190Y-67634714D01*
X150277142Y-67872809D01*
X150039047Y-68110904D01*
X149681904Y-68229952D01*
X149086666Y-68229952D01*
X154324761Y-66920428D02*
X154681904Y-67039476D01*
X154800952Y-67158523D01*
X154920000Y-67396619D01*
X154920000Y-67753761D01*
X154800952Y-67991857D01*
X154681904Y-68110904D01*
X154443809Y-68229952D01*
X153491428Y-68229952D01*
X153491428Y-65729952D01*
X154324761Y-65729952D01*
X154562857Y-65849000D01*
X154681904Y-65968047D01*
X154800952Y-66206142D01*
X154800952Y-66444238D01*
X154681904Y-66682333D01*
X154562857Y-66801380D01*
X154324761Y-66920428D01*
X153491428Y-66920428D01*
X156348571Y-68229952D02*
X156110476Y-68110904D01*
X155991428Y-67991857D01*
X155872380Y-67753761D01*
X155872380Y-67039476D01*
X155991428Y-66801380D01*
X156110476Y-66682333D01*
X156348571Y-66563285D01*
X156705714Y-66563285D01*
X156943809Y-66682333D01*
X157062857Y-66801380D01*
X157181904Y-67039476D01*
X157181904Y-67753761D01*
X157062857Y-67991857D01*
X156943809Y-68110904D01*
X156705714Y-68229952D01*
X156348571Y-68229952D01*
X159324761Y-68229952D02*
X159324761Y-66920428D01*
X159205714Y-66682333D01*
X158967619Y-66563285D01*
X158491428Y-66563285D01*
X158253333Y-66682333D01*
X159324761Y-68110904D02*
X159086666Y-68229952D01*
X158491428Y-68229952D01*
X158253333Y-68110904D01*
X158134285Y-67872809D01*
X158134285Y-67634714D01*
X158253333Y-67396619D01*
X158491428Y-67277571D01*
X159086666Y-67277571D01*
X159324761Y-67158523D01*
X160515238Y-68229952D02*
X160515238Y-66563285D01*
X160515238Y-67039476D02*
X160634285Y-66801380D01*
X160753333Y-66682333D01*
X160991428Y-66563285D01*
X161229523Y-66563285D01*
X163134285Y-68229952D02*
X163134285Y-65729952D01*
X163134285Y-68110904D02*
X162896190Y-68229952D01*
X162420000Y-68229952D01*
X162181904Y-68110904D01*
X162062857Y-67991857D01*
X161943809Y-67753761D01*
X161943809Y-67039476D01*
X162062857Y-66801380D01*
X162181904Y-66682333D01*
X162420000Y-66563285D01*
X162896190Y-66563285D01*
X163134285Y-66682333D01*
X167539047Y-68229952D02*
X166110476Y-68229952D01*
X166824761Y-68229952D02*
X166824761Y-65729952D01*
X166586666Y-66087095D01*
X166348571Y-66325190D01*
X166110476Y-66444238D01*
X168610476Y-67991857D02*
X168729523Y-68110904D01*
X168610476Y-68229952D01*
X168491428Y-68110904D01*
X168610476Y-67991857D01*
X168610476Y-68229952D01*
X171110476Y-68229952D02*
X169681904Y-68229952D01*
X170396190Y-68229952D02*
X170396190Y-65729952D01*
X170158095Y-66087095D01*
X169920000Y-66325190D01*
X169681904Y-66444238D01*
D10*
X70834285Y-117273571D02*
X70120000Y-117273571D01*
X70048571Y-117987857D01*
X70120000Y-117916428D01*
X70262857Y-117845000D01*
X70620000Y-117845000D01*
X70762857Y-117916428D01*
X70834285Y-117987857D01*
X70905714Y-118130714D01*
X70905714Y-118487857D01*
X70834285Y-118630714D01*
X70762857Y-118702142D01*
X70620000Y-118773571D01*
X70262857Y-118773571D01*
X70120000Y-118702142D01*
X70048571Y-118630714D01*
X71334285Y-117273571D02*
X71834285Y-118773571D01*
X72334285Y-117273571D01*
X69977142Y-119895000D02*
X69834285Y-119823571D01*
X69620000Y-119823571D01*
X69405714Y-119895000D01*
X69262857Y-120037857D01*
X69191428Y-120180714D01*
X69120000Y-120466428D01*
X69120000Y-120680714D01*
X69191428Y-120966428D01*
X69262857Y-121109285D01*
X69405714Y-121252142D01*
X69620000Y-121323571D01*
X69762857Y-121323571D01*
X69977142Y-121252142D01*
X70048571Y-121180714D01*
X70048571Y-120680714D01*
X69762857Y-120680714D01*
X70691428Y-121323571D02*
X70691428Y-119823571D01*
X71548571Y-121323571D01*
X71548571Y-119823571D01*
X72262857Y-121323571D02*
X72262857Y-119823571D01*
X72620000Y-119823571D01*
X72834285Y-119895000D01*
X72977142Y-120037857D01*
X73048571Y-120180714D01*
X73120000Y-120466428D01*
X73120000Y-120680714D01*
X73048571Y-120966428D01*
X72977142Y-121109285D01*
X72834285Y-121252142D01*
X72620000Y-121323571D01*
X72262857Y-121323571D01*
X69977142Y-122373571D02*
X70834285Y-122373571D01*
X70405714Y-123873571D02*
X70405714Y-122373571D01*
X71191428Y-122373571D02*
X72191428Y-123873571D01*
X72191428Y-122373571D02*
X71191428Y-123873571D01*
X70870000Y-126423571D02*
X70370000Y-125709285D01*
X70012857Y-126423571D02*
X70012857Y-124923571D01*
X70584285Y-124923571D01*
X70727142Y-124995000D01*
X70798571Y-125066428D01*
X70870000Y-125209285D01*
X70870000Y-125423571D01*
X70798571Y-125566428D01*
X70727142Y-125637857D01*
X70584285Y-125709285D01*
X70012857Y-125709285D01*
X71370000Y-124923571D02*
X72370000Y-126423571D01*
X72370000Y-124923571D02*
X71370000Y-126423571D01*
X70759142Y-114494571D02*
X70759142Y-115708857D01*
X70830571Y-115851714D01*
X70902000Y-115923142D01*
X71044857Y-115994571D01*
X71330571Y-115994571D01*
X71473428Y-115923142D01*
X71544857Y-115851714D01*
X71616285Y-115708857D01*
X71616285Y-114494571D01*
X72259142Y-115566000D02*
X72973428Y-115566000D01*
X72116285Y-115994571D02*
X72616285Y-114494571D01*
X73116285Y-115994571D01*
X74473428Y-115994571D02*
X73973428Y-115280285D01*
X73616285Y-115994571D02*
X73616285Y-114494571D01*
X74187714Y-114494571D01*
X74330571Y-114566000D01*
X74402000Y-114637428D01*
X74473428Y-114780285D01*
X74473428Y-114994571D01*
X74402000Y-115137428D01*
X74330571Y-115208857D01*
X74187714Y-115280285D01*
X73616285Y-115280285D01*
X74902000Y-114494571D02*
X75759142Y-114494571D01*
X75330571Y-115994571D02*
X75330571Y-114494571D01*
X81194714Y-113005571D02*
X81194714Y-111505571D01*
X82766142Y-112862714D02*
X82694714Y-112934142D01*
X82480428Y-113005571D01*
X82337571Y-113005571D01*
X82123285Y-112934142D01*
X81980428Y-112791285D01*
X81909000Y-112648428D01*
X81837571Y-112362714D01*
X81837571Y-112148428D01*
X81909000Y-111862714D01*
X81980428Y-111719857D01*
X82123285Y-111577000D01*
X82337571Y-111505571D01*
X82480428Y-111505571D01*
X82694714Y-111577000D01*
X82766142Y-111648428D01*
X83337571Y-112934142D02*
X83551857Y-113005571D01*
X83909000Y-113005571D01*
X84051857Y-112934142D01*
X84123285Y-112862714D01*
X84194714Y-112719857D01*
X84194714Y-112577000D01*
X84123285Y-112434142D01*
X84051857Y-112362714D01*
X83909000Y-112291285D01*
X83623285Y-112219857D01*
X83480428Y-112148428D01*
X83409000Y-112077000D01*
X83337571Y-111934142D01*
X83337571Y-111791285D01*
X83409000Y-111648428D01*
X83480428Y-111577000D01*
X83623285Y-111505571D01*
X83980428Y-111505571D01*
X84194714Y-111577000D01*
X84837571Y-113005571D02*
X84837571Y-111505571D01*
X85409000Y-111505571D01*
X85551857Y-111577000D01*
X85623285Y-111648428D01*
X85694714Y-111791285D01*
X85694714Y-112005571D01*
X85623285Y-112148428D01*
X85551857Y-112219857D01*
X85409000Y-112291285D01*
X84837571Y-112291285D01*
X219382428Y-111548857D02*
X219311000Y-111477428D01*
X219239571Y-111334571D01*
X219239571Y-110977428D01*
X219311000Y-110834571D01*
X219382428Y-110763142D01*
X219525285Y-110691714D01*
X219668142Y-110691714D01*
X219882428Y-110763142D01*
X220739571Y-111620285D01*
X220739571Y-110691714D01*
X220596714Y-110048857D02*
X220668142Y-109977428D01*
X220739571Y-110048857D01*
X220668142Y-110120285D01*
X220596714Y-110048857D01*
X220739571Y-110048857D01*
X219239571Y-108620285D02*
X219239571Y-109334571D01*
X219953857Y-109406000D01*
X219882428Y-109334571D01*
X219811000Y-109191714D01*
X219811000Y-108834571D01*
X219882428Y-108691714D01*
X219953857Y-108620285D01*
X220096714Y-108548857D01*
X220453857Y-108548857D01*
X220596714Y-108620285D01*
X220668142Y-108691714D01*
X220739571Y-108834571D01*
X220739571Y-109191714D01*
X220668142Y-109334571D01*
X220596714Y-109406000D01*
X220311000Y-107977428D02*
X220311000Y-107263142D01*
X220739571Y-108120285D02*
X219239571Y-107620285D01*
X220739571Y-107120285D01*
D14*
X182862742Y-110660771D02*
X182862742Y-108946485D01*
X185862742Y-109803628D02*
X182862742Y-109803628D01*
X185719885Y-108089342D02*
X185862742Y-107660771D01*
X185862742Y-106946485D01*
X185719885Y-106660771D01*
X185577028Y-106517914D01*
X185291314Y-106375057D01*
X185005600Y-106375057D01*
X184719885Y-106517914D01*
X184577028Y-106660771D01*
X184434171Y-106946485D01*
X184291314Y-107517914D01*
X184148457Y-107803628D01*
X184005600Y-107946485D01*
X183719885Y-108089342D01*
X183434171Y-108089342D01*
X183148457Y-107946485D01*
X183005600Y-107803628D01*
X182862742Y-107517914D01*
X182862742Y-106803628D01*
X183005600Y-106375057D01*
X182862742Y-105517914D02*
X185862742Y-104517914D01*
X182862742Y-103517914D01*
X184719885Y-102517914D02*
X184719885Y-100232200D01*
X208536428Y-130623142D02*
X210250714Y-130623142D01*
X209393571Y-133623142D02*
X209393571Y-130623142D01*
X211107857Y-133480285D02*
X211536428Y-133623142D01*
X212250714Y-133623142D01*
X212536428Y-133480285D01*
X212679285Y-133337428D01*
X212822142Y-133051714D01*
X212822142Y-132766000D01*
X212679285Y-132480285D01*
X212536428Y-132337428D01*
X212250714Y-132194571D01*
X211679285Y-132051714D01*
X211393571Y-131908857D01*
X211250714Y-131766000D01*
X211107857Y-131480285D01*
X211107857Y-131194571D01*
X211250714Y-130908857D01*
X211393571Y-130766000D01*
X211679285Y-130623142D01*
X212393571Y-130623142D01*
X212822142Y-130766000D01*
X213679285Y-130623142D02*
X214679285Y-133623142D01*
X215679285Y-130623142D01*
X216679285Y-132480285D02*
X218965000Y-132480285D01*
X217822142Y-133623142D02*
X217822142Y-131337428D01*
D15*
X182753000Y-96330333D02*
X182753000Y-92830333D01*
X183586333Y-92830333D01*
X184086333Y-92997000D01*
X184419666Y-93330333D01*
X184586333Y-93663666D01*
X184753000Y-94330333D01*
X184753000Y-94830333D01*
X184586333Y-95497000D01*
X184419666Y-95830333D01*
X184086333Y-96163666D01*
X183586333Y-96330333D01*
X182753000Y-96330333D01*
X186086333Y-95330333D02*
X187753000Y-95330333D01*
X185753000Y-96330333D02*
X186919666Y-92830333D01*
X188086333Y-96330333D01*
X189253000Y-96330333D02*
X189253000Y-92830333D01*
X191253000Y-96330333D01*
X191253000Y-92830333D01*
X194753000Y-92997000D02*
X194419666Y-92830333D01*
X193919666Y-92830333D01*
X193419666Y-92997000D01*
X193086333Y-93330333D01*
X192919666Y-93663666D01*
X192753000Y-94330333D01*
X192753000Y-94830333D01*
X192919666Y-95497000D01*
X193086333Y-95830333D01*
X193419666Y-96163666D01*
X193919666Y-96330333D01*
X194253000Y-96330333D01*
X194753000Y-96163666D01*
X194919666Y-95997000D01*
X194919666Y-94830333D01*
X194253000Y-94830333D01*
X196419666Y-94497000D02*
X197586333Y-94497000D01*
X198086333Y-96330333D02*
X196419666Y-96330333D01*
X196419666Y-92830333D01*
X198086333Y-92830333D01*
X201586333Y-96330333D02*
X200419666Y-94663666D01*
X199586333Y-96330333D02*
X199586333Y-92830333D01*
X200919666Y-92830333D01*
X201253000Y-92997000D01*
X201419666Y-93163666D01*
X201586333Y-93497000D01*
X201586333Y-93997000D01*
X201419666Y-94330333D01*
X201253000Y-94497000D01*
X200919666Y-94663666D01*
X199586333Y-94663666D01*
X203086333Y-95997000D02*
X203253000Y-96163666D01*
X203086333Y-96330333D01*
X202919666Y-96163666D01*
X203086333Y-95997000D01*
X203086333Y-96330333D01*
X203086333Y-94163666D02*
X203253000Y-94330333D01*
X203086333Y-94497000D01*
X202919666Y-94330333D01*
X203086333Y-94163666D01*
X203086333Y-94497000D01*
X207419666Y-96330333D02*
X207419666Y-92830333D01*
X207419666Y-94497000D02*
X209419666Y-94497000D01*
X209419666Y-96330333D02*
X209419666Y-92830333D01*
X211086333Y-96330333D02*
X211086333Y-92830333D01*
X214586333Y-92997000D02*
X214253000Y-92830333D01*
X213753000Y-92830333D01*
X213253000Y-92997000D01*
X212919666Y-93330333D01*
X212753000Y-93663666D01*
X212586333Y-94330333D01*
X212586333Y-94830333D01*
X212753000Y-95497000D01*
X212919666Y-95830333D01*
X213253000Y-96163666D01*
X213753000Y-96330333D01*
X214086333Y-96330333D01*
X214586333Y-96163666D01*
X214753000Y-95997000D01*
X214753000Y-94830333D01*
X214086333Y-94830333D01*
X216253000Y-96330333D02*
X216253000Y-92830333D01*
X216253000Y-94497000D02*
X218253000Y-94497000D01*
X218253000Y-96330333D02*
X218253000Y-92830333D01*
X199253000Y-98780333D02*
X200419666Y-102280333D01*
X201586333Y-98780333D01*
X203419666Y-98780333D02*
X204086333Y-98780333D01*
X204419666Y-98947000D01*
X204753000Y-99280333D01*
X204919666Y-99947000D01*
X204919666Y-101113666D01*
X204753000Y-101780333D01*
X204419666Y-102113666D01*
X204086333Y-102280333D01*
X203419666Y-102280333D01*
X203086333Y-102113666D01*
X202753000Y-101780333D01*
X202586333Y-101113666D01*
X202586333Y-99947000D01*
X202753000Y-99280333D01*
X203086333Y-98947000D01*
X203419666Y-98780333D01*
X208086333Y-102280333D02*
X206419666Y-102280333D01*
X206419666Y-98780333D01*
X208753000Y-98780333D02*
X210753000Y-98780333D01*
X209753000Y-102280333D02*
X209753000Y-98780333D01*
X211753000Y-101280333D02*
X213419666Y-101280333D01*
X211419666Y-102280333D02*
X212586333Y-98780333D01*
X213753000Y-102280333D01*
X216753000Y-98947000D02*
X216419666Y-98780333D01*
X215919666Y-98780333D01*
X215419666Y-98947000D01*
X215086333Y-99280333D01*
X214919666Y-99613666D01*
X214753000Y-100280333D01*
X214753000Y-100780333D01*
X214919666Y-101447000D01*
X215086333Y-101780333D01*
X215419666Y-102113666D01*
X215919666Y-102280333D01*
X216253000Y-102280333D01*
X216753000Y-102113666D01*
X216919666Y-101947000D01*
X216919666Y-100780333D01*
X216253000Y-100780333D01*
X218419666Y-100447000D02*
X219586333Y-100447000D01*
X220086333Y-102280333D02*
X218419666Y-102280333D01*
X218419666Y-98780333D01*
X220086333Y-98780333D01*
D16*
X182469000Y-53780000D02*
X182469000Y-39048000D01*
D10*
X149213571Y-69166285D02*
X149213571Y-70623428D01*
X149299285Y-70794857D01*
X149385000Y-70880571D01*
X149556428Y-70966285D01*
X149899285Y-70966285D01*
X150070714Y-70880571D01*
X150156428Y-70794857D01*
X150242142Y-70623428D01*
X150242142Y-69166285D01*
X150842142Y-69166285D02*
X151442142Y-70966285D01*
X152042142Y-69166285D01*
X152642142Y-70966285D02*
X152642142Y-69166285D01*
X153242142Y-70452000D01*
X153842142Y-69166285D01*
X153842142Y-70966285D01*
X155985000Y-70452000D02*
X156842142Y-70452000D01*
X155813571Y-70966285D02*
X156413571Y-69166285D01*
X157013571Y-70966285D01*
X157613571Y-70023428D02*
X158213571Y-70023428D01*
X158470714Y-70966285D02*
X157613571Y-70966285D01*
X157613571Y-69166285D01*
X158470714Y-69166285D01*
X160270714Y-70966285D02*
X159670714Y-70109142D01*
X159242142Y-70966285D02*
X159242142Y-69166285D01*
X159927857Y-69166285D01*
X160099285Y-69252000D01*
X160185000Y-69337714D01*
X160270714Y-69509142D01*
X160270714Y-69766285D01*
X160185000Y-69937714D01*
X160099285Y-70023428D01*
X159927857Y-70109142D01*
X159242142Y-70109142D01*
X161385000Y-69166285D02*
X161727857Y-69166285D01*
X161899285Y-69252000D01*
X162070714Y-69423428D01*
X162156428Y-69766285D01*
X162156428Y-70366285D01*
X162070714Y-70709142D01*
X161899285Y-70880571D01*
X161727857Y-70966285D01*
X161385000Y-70966285D01*
X161213571Y-70880571D01*
X161042142Y-70709142D01*
X160956428Y-70366285D01*
X160956428Y-69766285D01*
X161042142Y-69423428D01*
X161213571Y-69252000D01*
X161385000Y-69166285D01*
X149042142Y-72166285D02*
X149470714Y-73966285D01*
X149813571Y-72680571D01*
X150156428Y-73966285D01*
X150585000Y-72166285D01*
X151270714Y-73966285D02*
X151270714Y-72766285D01*
X151270714Y-72166285D02*
X151185000Y-72252000D01*
X151270714Y-72337714D01*
X151356428Y-72252000D01*
X151270714Y-72166285D01*
X151270714Y-72337714D01*
X152385000Y-73966285D02*
X152213571Y-73880571D01*
X152127857Y-73709142D01*
X152127857Y-72166285D01*
X153327857Y-73966285D02*
X153156428Y-73880571D01*
X153070714Y-73709142D01*
X153070714Y-72166285D01*
X154699285Y-73880571D02*
X154527857Y-73966285D01*
X154185000Y-73966285D01*
X154013571Y-73880571D01*
X153927857Y-73709142D01*
X153927857Y-73023428D01*
X154013571Y-72852000D01*
X154185000Y-72766285D01*
X154527857Y-72766285D01*
X154699285Y-72852000D01*
X154785000Y-73023428D01*
X154785000Y-73194857D01*
X153927857Y-73366285D01*
X155556428Y-73966285D02*
X155556428Y-72766285D01*
X155556428Y-72937714D02*
X155642142Y-72852000D01*
X155813571Y-72766285D01*
X156070714Y-72766285D01*
X156242142Y-72852000D01*
X156327857Y-73023428D01*
X156327857Y-73966285D01*
X156327857Y-73023428D02*
X156413571Y-72852000D01*
X156585000Y-72766285D01*
X156842142Y-72766285D01*
X157013571Y-72852000D01*
X157099285Y-73023428D01*
X157099285Y-73966285D01*
X159327857Y-73966285D02*
X159327857Y-72166285D01*
X159327857Y-73023428D02*
X160356428Y-73023428D01*
X160356428Y-73966285D02*
X160356428Y-72166285D01*
X161213571Y-73966285D02*
X161213571Y-72766285D01*
X161213571Y-72166285D02*
X161127857Y-72252000D01*
X161213571Y-72337714D01*
X161299285Y-72252000D01*
X161213571Y-72166285D01*
X161213571Y-72337714D01*
X162327857Y-73966285D02*
X162156428Y-73880571D01*
X162070714Y-73709142D01*
X162070714Y-72166285D01*
X163270714Y-73966285D02*
X163099285Y-73880571D01*
X163013571Y-73709142D01*
X163013571Y-72166285D01*
X163956428Y-73966285D02*
X163956428Y-72766285D01*
X163956428Y-72166285D02*
X163870714Y-72252000D01*
X163956428Y-72337714D01*
X164042142Y-72252000D01*
X163956428Y-72166285D01*
X163956428Y-72337714D01*
X165499285Y-73880571D02*
X165327857Y-73966285D01*
X164985000Y-73966285D01*
X164813571Y-73880571D01*
X164727857Y-73709142D01*
X164727857Y-73023428D01*
X164813571Y-72852000D01*
X164985000Y-72766285D01*
X165327857Y-72766285D01*
X165499285Y-72852000D01*
X165585000Y-73023428D01*
X165585000Y-73194857D01*
X164727857Y-73366285D01*
X166356428Y-73966285D02*
X166356428Y-72766285D01*
X166356428Y-73109142D02*
X166442142Y-72937714D01*
X166527857Y-72852000D01*
X166699285Y-72766285D01*
X166870714Y-72766285D01*
X149985000Y-75766285D02*
X149985000Y-76966285D01*
X149556428Y-75080571D02*
X149127857Y-76366285D01*
X150242142Y-76366285D01*
X152213571Y-75080571D02*
X150670714Y-77394857D01*
X152642142Y-75166285D02*
X153756428Y-75166285D01*
X153156428Y-75852000D01*
X153413571Y-75852000D01*
X153585000Y-75937714D01*
X153670714Y-76023428D01*
X153756428Y-76194857D01*
X153756428Y-76623428D01*
X153670714Y-76794857D01*
X153585000Y-76880571D01*
X153413571Y-76966285D01*
X152899285Y-76966285D01*
X152727857Y-76880571D01*
X152642142Y-76794857D01*
X155813571Y-75080571D02*
X154270714Y-77394857D01*
X156327857Y-75337714D02*
X156413571Y-75252000D01*
X156585000Y-75166285D01*
X157013571Y-75166285D01*
X157185000Y-75252000D01*
X157270714Y-75337714D01*
X157356428Y-75509142D01*
X157356428Y-75680571D01*
X157270714Y-75937714D01*
X156242142Y-76966285D01*
X157356428Y-76966285D01*
X158470714Y-75166285D02*
X158642142Y-75166285D01*
X158813571Y-75252000D01*
X158899285Y-75337714D01*
X158985000Y-75509142D01*
X159070714Y-75852000D01*
X159070714Y-76280571D01*
X158985000Y-76623428D01*
X158899285Y-76794857D01*
X158813571Y-76880571D01*
X158642142Y-76966285D01*
X158470714Y-76966285D01*
X158299285Y-76880571D01*
X158213571Y-76794857D01*
X158127857Y-76623428D01*
X158042142Y-76280571D01*
X158042142Y-75852000D01*
X158127857Y-75509142D01*
X158213571Y-75337714D01*
X158299285Y-75252000D01*
X158470714Y-75166285D01*
X160785000Y-76966285D02*
X159756428Y-76966285D01*
X160270714Y-76966285D02*
X160270714Y-75166285D01*
X160099285Y-75423428D01*
X159927857Y-75594857D01*
X159756428Y-75680571D01*
X161642142Y-76966285D02*
X161985000Y-76966285D01*
X162156428Y-76880571D01*
X162242142Y-76794857D01*
X162413571Y-76537714D01*
X162499285Y-76194857D01*
X162499285Y-75509142D01*
X162413571Y-75337714D01*
X162327857Y-75252000D01*
X162156428Y-75166285D01*
X161813571Y-75166285D01*
X161642142Y-75252000D01*
X161556428Y-75337714D01*
X161470714Y-75509142D01*
X161470714Y-75937714D01*
X161556428Y-76109142D01*
X161642142Y-76194857D01*
X161813571Y-76280571D01*
X162156428Y-76280571D01*
X162327857Y-76194857D01*
X162413571Y-76109142D01*
X162499285Y-75937714D01*
D14*
X178626000Y-48128285D02*
X178483142Y-48414000D01*
X178483142Y-48842571D01*
X178626000Y-49271142D01*
X178911714Y-49556857D01*
X179197428Y-49699714D01*
X179768857Y-49842571D01*
X180197428Y-49842571D01*
X180768857Y-49699714D01*
X181054571Y-49556857D01*
X181340285Y-49271142D01*
X181483142Y-48842571D01*
X181483142Y-48556857D01*
X181340285Y-48128285D01*
X181197428Y-47985428D01*
X180197428Y-47985428D01*
X180197428Y-48556857D01*
X181483142Y-45271142D02*
X181483142Y-46699714D01*
X178483142Y-46699714D01*
X178483142Y-44699714D02*
X181483142Y-43699714D01*
X178483142Y-42699714D01*
X183483142Y-49985428D02*
X183483142Y-48271142D01*
X186483142Y-49128285D02*
X183483142Y-49128285D01*
X186340285Y-47414000D02*
X186483142Y-46985428D01*
X186483142Y-46271142D01*
X186340285Y-45985428D01*
X186197428Y-45842571D01*
X185911714Y-45699714D01*
X185626000Y-45699714D01*
X185340285Y-45842571D01*
X185197428Y-45985428D01*
X185054571Y-46271142D01*
X184911714Y-46842571D01*
X184768857Y-47128285D01*
X184626000Y-47271142D01*
X184340285Y-47414000D01*
X184054571Y-47414000D01*
X183768857Y-47271142D01*
X183626000Y-47128285D01*
X183483142Y-46842571D01*
X183483142Y-46128285D01*
X183626000Y-45699714D01*
X183483142Y-44842571D02*
X186483142Y-43842571D01*
X183483142Y-42842571D01*
X164095339Y-102722439D02*
X163797996Y-102839176D01*
X163511225Y-103157667D01*
X163330619Y-103571748D01*
X163351765Y-103975255D01*
X163468502Y-104272599D01*
X163797567Y-104761122D01*
X164116057Y-105047893D01*
X164636301Y-105324089D01*
X164944219Y-105409106D01*
X165347726Y-105387959D01*
X165740660Y-105165059D01*
X165931840Y-104952732D01*
X166112447Y-104538651D01*
X166101873Y-104336897D01*
X165358728Y-103667767D01*
X164976368Y-104092421D01*
X168130412Y-102510970D02*
X167174511Y-103572605D01*
X164945077Y-101565214D01*
X166283338Y-100078924D02*
X169181903Y-101343171D01*
X167621599Y-98592634D01*
X166462229Y-107352628D02*
X167609310Y-106078666D01*
X169265204Y-108723039D02*
X167035769Y-106715647D01*
X170306121Y-107353486D02*
X170699055Y-107130586D01*
X171177005Y-106599768D01*
X171262022Y-106291851D01*
X171251448Y-106090097D01*
X171134711Y-105792753D01*
X170922384Y-105601573D01*
X170614467Y-105516556D01*
X170412714Y-105527130D01*
X170115370Y-105643867D01*
X169626846Y-105972931D01*
X169329502Y-106089668D01*
X169127749Y-106100241D01*
X168819831Y-106015225D01*
X168607504Y-105824045D01*
X168490767Y-105526701D01*
X168480194Y-105324947D01*
X168565210Y-105017030D01*
X169043161Y-104486212D01*
X169436095Y-104263312D01*
X169903472Y-103530740D02*
X172802037Y-104794987D01*
X171241733Y-102044451D01*
X178626000Y-84010285D02*
X178483142Y-84296000D01*
X178483142Y-84724571D01*
X178626000Y-85153142D01*
X178911714Y-85438857D01*
X179197428Y-85581714D01*
X179768857Y-85724571D01*
X180197428Y-85724571D01*
X180768857Y-85581714D01*
X181054571Y-85438857D01*
X181340285Y-85153142D01*
X181483142Y-84724571D01*
X181483142Y-84438857D01*
X181340285Y-84010285D01*
X181197428Y-83867428D01*
X180197428Y-83867428D01*
X180197428Y-84438857D01*
X181483142Y-81153142D02*
X181483142Y-82581714D01*
X178483142Y-82581714D01*
X178483142Y-80581714D02*
X181483142Y-79581714D01*
X178483142Y-78581714D01*
X183483142Y-85867428D02*
X183483142Y-84153142D01*
X186483142Y-85010285D02*
X183483142Y-85010285D01*
X186340285Y-83296000D02*
X186483142Y-82867428D01*
X186483142Y-82153142D01*
X186340285Y-81867428D01*
X186197428Y-81724571D01*
X185911714Y-81581714D01*
X185626000Y-81581714D01*
X185340285Y-81724571D01*
X185197428Y-81867428D01*
X185054571Y-82153142D01*
X184911714Y-82724571D01*
X184768857Y-83010285D01*
X184626000Y-83153142D01*
X184340285Y-83296000D01*
X184054571Y-83296000D01*
X183768857Y-83153142D01*
X183626000Y-83010285D01*
X183483142Y-82724571D01*
X183483142Y-82010285D01*
X183626000Y-81581714D01*
X183483142Y-80724571D02*
X186483142Y-79724571D01*
X183483142Y-78724571D01*
X159419000Y-140076285D02*
X159276142Y-140362000D01*
X159276142Y-140790571D01*
X159419000Y-141219142D01*
X159704714Y-141504857D01*
X159990428Y-141647714D01*
X160561857Y-141790571D01*
X160990428Y-141790571D01*
X161561857Y-141647714D01*
X161847571Y-141504857D01*
X162133285Y-141219142D01*
X162276142Y-140790571D01*
X162276142Y-140504857D01*
X162133285Y-140076285D01*
X161990428Y-139933428D01*
X160990428Y-139933428D01*
X160990428Y-140504857D01*
X162276142Y-137219142D02*
X162276142Y-138647714D01*
X159276142Y-138647714D01*
X159276142Y-136647714D02*
X162276142Y-135647714D01*
X159276142Y-134647714D01*
X164276142Y-141933428D02*
X164276142Y-140219142D01*
X167276142Y-141076285D02*
X164276142Y-141076285D01*
X167133285Y-139362000D02*
X167276142Y-138933428D01*
X167276142Y-138219142D01*
X167133285Y-137933428D01*
X166990428Y-137790571D01*
X166704714Y-137647714D01*
X166419000Y-137647714D01*
X166133285Y-137790571D01*
X165990428Y-137933428D01*
X165847571Y-138219142D01*
X165704714Y-138790571D01*
X165561857Y-139076285D01*
X165419000Y-139219142D01*
X165133285Y-139362000D01*
X164847571Y-139362000D01*
X164561857Y-139219142D01*
X164419000Y-139076285D01*
X164276142Y-138790571D01*
X164276142Y-138076285D01*
X164419000Y-137647714D01*
X164276142Y-136790571D02*
X167276142Y-135790571D01*
X164276142Y-134790571D01*
D16*
X182469000Y-87816000D02*
X182469000Y-74354000D01*
X163165000Y-109279000D02*
X182469000Y-87816000D01*
X163165000Y-149284000D02*
X163165000Y-109279000D01*
D17*
G04 #@! TO.C,G\002A\002A\002A*
G36*
X164852298Y-50735625D02*
X164133881Y-52694854D01*
X165221152Y-52694854D01*
X165631284Y-52695691D01*
X165919664Y-52699721D01*
X166104483Y-52709221D01*
X166203931Y-52726468D01*
X166236200Y-52753738D01*
X166219478Y-52793308D01*
X166199422Y-52817306D01*
X166143417Y-52890946D01*
X166013990Y-53067074D01*
X165819244Y-53334430D01*
X165567280Y-53681754D01*
X165266200Y-54097786D01*
X164924104Y-54571265D01*
X164549095Y-55090932D01*
X164149273Y-55645526D01*
X163732741Y-56223786D01*
X163307600Y-56814454D01*
X162881951Y-57406268D01*
X162463895Y-57987969D01*
X162061535Y-58548296D01*
X161682971Y-59075990D01*
X161336306Y-59559789D01*
X161029639Y-59988434D01*
X160771074Y-60350665D01*
X160568711Y-60635222D01*
X160430653Y-60830844D01*
X160364999Y-60926271D01*
X160363561Y-60928529D01*
X160369087Y-60891348D01*
X160416618Y-60734418D01*
X160502022Y-60470112D01*
X160621167Y-60110803D01*
X160769918Y-59668862D01*
X160944144Y-59156663D01*
X161139711Y-58586576D01*
X161325683Y-58048283D01*
X161539449Y-57431101D01*
X161738463Y-56855770D01*
X161918170Y-56335513D01*
X162074013Y-55883555D01*
X162201437Y-55513120D01*
X162295885Y-55237432D01*
X162352802Y-55069716D01*
X162368276Y-55021974D01*
X162302354Y-55015672D01*
X162120789Y-55010331D01*
X161847882Y-55006372D01*
X161507933Y-55004215D01*
X161328429Y-55003945D01*
X160288582Y-55003945D01*
X161070103Y-53237140D01*
X161317189Y-52678006D01*
X161583866Y-52073610D01*
X161853421Y-51461893D01*
X162109139Y-50880799D01*
X162334308Y-50368269D01*
X162441696Y-50123366D01*
X163031767Y-48776397D01*
X165570714Y-48776397D01*
X164852298Y-50735625D01*
X164852298Y-50735625D01*
G37*
X164852298Y-50735625D02*
X164133881Y-52694854D01*
X165221152Y-52694854D01*
X165631284Y-52695691D01*
X165919664Y-52699721D01*
X166104483Y-52709221D01*
X166203931Y-52726468D01*
X166236200Y-52753738D01*
X166219478Y-52793308D01*
X166199422Y-52817306D01*
X166143417Y-52890946D01*
X166013990Y-53067074D01*
X165819244Y-53334430D01*
X165567280Y-53681754D01*
X165266200Y-54097786D01*
X164924104Y-54571265D01*
X164549095Y-55090932D01*
X164149273Y-55645526D01*
X163732741Y-56223786D01*
X163307600Y-56814454D01*
X162881951Y-57406268D01*
X162463895Y-57987969D01*
X162061535Y-58548296D01*
X161682971Y-59075990D01*
X161336306Y-59559789D01*
X161029639Y-59988434D01*
X160771074Y-60350665D01*
X160568711Y-60635222D01*
X160430653Y-60830844D01*
X160364999Y-60926271D01*
X160363561Y-60928529D01*
X160369087Y-60891348D01*
X160416618Y-60734418D01*
X160502022Y-60470112D01*
X160621167Y-60110803D01*
X160769918Y-59668862D01*
X160944144Y-59156663D01*
X161139711Y-58586576D01*
X161325683Y-58048283D01*
X161539449Y-57431101D01*
X161738463Y-56855770D01*
X161918170Y-56335513D01*
X162074013Y-55883555D01*
X162201437Y-55513120D01*
X162295885Y-55237432D01*
X162352802Y-55069716D01*
X162368276Y-55021974D01*
X162302354Y-55015672D01*
X162120789Y-55010331D01*
X161847882Y-55006372D01*
X161507933Y-55004215D01*
X161328429Y-55003945D01*
X160288582Y-55003945D01*
X161070103Y-53237140D01*
X161317189Y-52678006D01*
X161583866Y-52073610D01*
X161853421Y-51461893D01*
X162109139Y-50880799D01*
X162334308Y-50368269D01*
X162441696Y-50123366D01*
X163031767Y-48776397D01*
X165570714Y-48776397D01*
X164852298Y-50735625D01*
G36*
X152625323Y-50333975D02*
X153831637Y-51541767D01*
X153831637Y-58183291D01*
X154197604Y-58553862D01*
X154563572Y-58924433D01*
X152955466Y-60532539D01*
X152153309Y-59728100D01*
X151351152Y-58923660D01*
X151716739Y-58553476D01*
X152082325Y-58183291D01*
X152082325Y-56753256D01*
X150542931Y-56753256D01*
X150542931Y-58183291D01*
X151274867Y-58924433D01*
X149666761Y-60532539D01*
X148864604Y-59728100D01*
X148062448Y-58923660D01*
X148428033Y-58553476D01*
X148793620Y-58183291D01*
X148793620Y-54933972D01*
X150542931Y-54933972D01*
X152082325Y-54933972D01*
X152082325Y-52655979D01*
X151316174Y-51853240D01*
X150550022Y-51050501D01*
X150546477Y-52992237D01*
X150542931Y-54933972D01*
X148793620Y-54933972D01*
X148793620Y-51748844D01*
X151419010Y-49126182D01*
X152625323Y-50333975D01*
X152625323Y-50333975D01*
G37*
X152625323Y-50333975D02*
X153831637Y-51541767D01*
X153831637Y-58183291D01*
X154197604Y-58553862D01*
X154563572Y-58924433D01*
X152955466Y-60532539D01*
X152153309Y-59728100D01*
X151351152Y-58923660D01*
X151716739Y-58553476D01*
X152082325Y-58183291D01*
X152082325Y-56753256D01*
X150542931Y-56753256D01*
X150542931Y-58183291D01*
X151274867Y-58924433D01*
X149666761Y-60532539D01*
X148864604Y-59728100D01*
X148062448Y-58923660D01*
X148428033Y-58553476D01*
X148793620Y-58183291D01*
X148793620Y-54933972D01*
X150542931Y-54933972D01*
X152082325Y-54933972D01*
X152082325Y-52655979D01*
X151316174Y-51853240D01*
X150550022Y-51050501D01*
X150546477Y-52992237D01*
X150542931Y-54933972D01*
X148793620Y-54933972D01*
X148793620Y-51748844D01*
X151419010Y-49126182D01*
X152625323Y-50333975D01*
G36*
X158814273Y-50435358D02*
X160092079Y-51714565D01*
X159429531Y-52379879D01*
X158766984Y-53045193D01*
X157803718Y-52083771D01*
X156840452Y-51122348D01*
X156840452Y-54030182D01*
X158169075Y-54009763D01*
X159497699Y-53989344D01*
X158642439Y-54846507D01*
X157787180Y-55703669D01*
X156840452Y-55703669D01*
X156840452Y-57725748D01*
X157089867Y-57915987D01*
X157339283Y-58106225D01*
X158052822Y-57395115D01*
X158766361Y-56684004D01*
X159397606Y-57315250D01*
X160028851Y-57946495D01*
X158729691Y-59239132D01*
X158380680Y-59585173D01*
X158064584Y-59896249D01*
X157794771Y-60159394D01*
X157584609Y-60361642D01*
X157447465Y-60490024D01*
X157397093Y-60531768D01*
X157340271Y-60484410D01*
X157199171Y-60351600D01*
X156988078Y-60147232D01*
X156721278Y-59885203D01*
X156413053Y-59579408D01*
X156227398Y-59393944D01*
X155091141Y-58256119D01*
X155091141Y-51615207D01*
X156313804Y-50385679D01*
X157536468Y-49156150D01*
X158814273Y-50435358D01*
X158814273Y-50435358D01*
G37*
X158814273Y-50435358D02*
X160092079Y-51714565D01*
X159429531Y-52379879D01*
X158766984Y-53045193D01*
X157803718Y-52083771D01*
X156840452Y-51122348D01*
X156840452Y-54030182D01*
X158169075Y-54009763D01*
X159497699Y-53989344D01*
X158642439Y-54846507D01*
X157787180Y-55703669D01*
X156840452Y-55703669D01*
X156840452Y-57725748D01*
X157089867Y-57915987D01*
X157339283Y-58106225D01*
X158052822Y-57395115D01*
X158766361Y-56684004D01*
X159397606Y-57315250D01*
X160028851Y-57946495D01*
X158729691Y-59239132D01*
X158380680Y-59585173D01*
X158064584Y-59896249D01*
X157794771Y-60159394D01*
X157584609Y-60361642D01*
X157447465Y-60490024D01*
X157397093Y-60531768D01*
X157340271Y-60484410D01*
X157199171Y-60351600D01*
X156988078Y-60147232D01*
X156721278Y-59885203D01*
X156413053Y-59579408D01*
X156227398Y-59393944D01*
X155091141Y-58256119D01*
X155091141Y-51615207D01*
X156313804Y-50385679D01*
X157536468Y-49156150D01*
X158814273Y-50435358D01*
G36*
X172234391Y-51122225D02*
X172234391Y-52936989D01*
X171623553Y-53550671D01*
X171012714Y-54164353D01*
X172304364Y-55461395D01*
X172304364Y-58183291D01*
X172670332Y-58553862D01*
X173036299Y-58924433D01*
X171428193Y-60532539D01*
X170643409Y-59744963D01*
X169858624Y-58957388D01*
X170203809Y-58572540D01*
X170548994Y-58187691D01*
X170552023Y-57276856D01*
X170555053Y-56366021D01*
X169785356Y-55598711D01*
X169015659Y-54831400D01*
X169015659Y-58262925D01*
X169366293Y-58608287D01*
X169716928Y-58953649D01*
X168930107Y-59742709D01*
X168660358Y-60010519D01*
X168424687Y-60239385D01*
X168240792Y-60412524D01*
X168126369Y-60513153D01*
X168098046Y-60531768D01*
X168036756Y-60483715D01*
X167896852Y-60351007D01*
X167695713Y-60150823D01*
X167450717Y-59900342D01*
X167287021Y-59730048D01*
X166521237Y-58928327D01*
X166893792Y-58560399D01*
X167266347Y-58192472D01*
X167266347Y-53918686D01*
X168875714Y-53918686D01*
X169767519Y-53026880D01*
X170659325Y-52135074D01*
X168875714Y-50351463D01*
X168875714Y-53918686D01*
X167266347Y-53918686D01*
X167266347Y-51334449D01*
X166865759Y-50929636D01*
X166465170Y-50524824D01*
X167161829Y-49825541D01*
X167858488Y-49126259D01*
X170241987Y-49126259D01*
X172234391Y-51122225D01*
X172234391Y-51122225D01*
G37*
X172234391Y-51122225D02*
X172234391Y-52936989D01*
X171623553Y-53550671D01*
X171012714Y-54164353D01*
X172304364Y-55461395D01*
X172304364Y-58183291D01*
X172670332Y-58553862D01*
X173036299Y-58924433D01*
X171428193Y-60532539D01*
X170643409Y-59744963D01*
X169858624Y-58957388D01*
X170203809Y-58572540D01*
X170548994Y-58187691D01*
X170552023Y-57276856D01*
X170555053Y-56366021D01*
X169785356Y-55598711D01*
X169015659Y-54831400D01*
X169015659Y-58262925D01*
X169366293Y-58608287D01*
X169716928Y-58953649D01*
X168930107Y-59742709D01*
X168660358Y-60010519D01*
X168424687Y-60239385D01*
X168240792Y-60412524D01*
X168126369Y-60513153D01*
X168098046Y-60531768D01*
X168036756Y-60483715D01*
X167896852Y-60351007D01*
X167695713Y-60150823D01*
X167450717Y-59900342D01*
X167287021Y-59730048D01*
X166521237Y-58928327D01*
X166893792Y-58560399D01*
X167266347Y-58192472D01*
X167266347Y-53918686D01*
X168875714Y-53918686D01*
X169767519Y-53026880D01*
X170659325Y-52135074D01*
X168875714Y-50351463D01*
X168875714Y-53918686D01*
X167266347Y-53918686D01*
X167266347Y-51334449D01*
X166865759Y-50929636D01*
X166465170Y-50524824D01*
X167161829Y-49825541D01*
X167858488Y-49126259D01*
X170241987Y-49126259D01*
X172234391Y-51122225D01*
G36*
X176852584Y-50350787D02*
X178112077Y-51608823D01*
X178112077Y-57909183D01*
X175486665Y-60531867D01*
X173144033Y-58186191D01*
X173144033Y-57621249D01*
X174893345Y-57621249D01*
X175342603Y-58084767D01*
X175817699Y-57613312D01*
X176292794Y-57141858D01*
X176292794Y-52447325D01*
X175593069Y-51750226D01*
X174893345Y-51053127D01*
X174893345Y-57621249D01*
X173144033Y-57621249D01*
X173144033Y-51538809D01*
X174368562Y-50315780D01*
X175593090Y-49092751D01*
X176852584Y-50350787D01*
X176852584Y-50350787D01*
G37*
X176852584Y-50350787D02*
X178112077Y-51608823D01*
X178112077Y-57909183D01*
X175486665Y-60531867D01*
X173144033Y-58186191D01*
X173144033Y-57621249D01*
X174893345Y-57621249D01*
X175342603Y-58084767D01*
X175817699Y-57613312D01*
X176292794Y-57141858D01*
X176292794Y-52447325D01*
X175593069Y-51750226D01*
X174893345Y-51053127D01*
X174893345Y-57621249D01*
X173144033Y-57621249D01*
X173144033Y-51538809D01*
X174368562Y-50315780D01*
X175593090Y-49092751D01*
X176852584Y-50350787D01*
D18*
G04 #@! TO.C,U9*
X183485000Y-72904000D02*
X180183000Y-72904000D01*
X180183000Y-72904000D02*
X180183000Y-69094000D01*
X180183000Y-69094000D02*
X184374000Y-69094000D01*
X184374000Y-69094000D02*
X184374000Y-72015000D01*
X183485000Y-72904000D02*
X184374000Y-72015000D01*
G04 #@! TO.C,RV1*
X194558000Y-66084000D02*
X195258000Y-66084000D01*
X197458000Y-66084000D02*
X198158000Y-66084000D01*
X194558000Y-62284000D02*
X194558000Y-66084000D01*
X198158000Y-62284000D02*
X198158000Y-66084000D01*
X196558000Y-62284000D02*
X196158000Y-62284000D01*
D19*
G04 #@! TO.C,J11*
X74900000Y-127119000D02*
X73570000Y-127119000D01*
X73570000Y-127119000D02*
X73570000Y-125789000D01*
X73570000Y-124519000D02*
X73570000Y-116839000D01*
X76230000Y-116839000D02*
X73570000Y-116839000D01*
X76230000Y-124519000D02*
X76230000Y-116839000D01*
X76230000Y-124519000D02*
X73570000Y-124519000D01*
D17*
G04 #@! TO.C,G\002A\002A\002A*
G36*
X218132931Y-54769780D02*
X218462848Y-54770366D01*
X218814062Y-54771382D01*
X218971353Y-54771959D01*
X221066833Y-54780125D01*
X220926135Y-55145250D01*
X220864778Y-55306504D01*
X220805824Y-55464992D01*
X220756528Y-55601008D01*
X220727387Y-55685000D01*
X220692790Y-55786507D01*
X220643537Y-55927716D01*
X220586642Y-56088640D01*
X220537961Y-56224750D01*
X220482240Y-56380274D01*
X220430259Y-56526546D01*
X220388170Y-56646181D01*
X220363777Y-56716875D01*
X220339208Y-56788320D01*
X220297858Y-56906988D01*
X220244152Y-57060246D01*
X220182515Y-57235462D01*
X220130231Y-57383625D01*
X220050283Y-57610281D01*
X219958760Y-57870430D01*
X219864964Y-58137593D01*
X219778196Y-58385291D01*
X219745441Y-58479000D01*
X219668095Y-58700331D01*
X219583184Y-58943089D01*
X219498804Y-59184142D01*
X219423050Y-59400359D01*
X219389859Y-59495000D01*
X219317364Y-59702640D01*
X219264655Y-59857579D01*
X219230106Y-59966897D01*
X219212095Y-60037673D01*
X219208997Y-60076989D01*
X219219188Y-60091925D01*
X219241043Y-60089561D01*
X219254617Y-60084594D01*
X219310534Y-60066417D01*
X219411096Y-60037403D01*
X219539401Y-60002343D01*
X219616500Y-59982004D01*
X219768045Y-59942539D01*
X219956824Y-59893371D01*
X220158623Y-59840806D01*
X220346750Y-59791797D01*
X220528966Y-59744626D01*
X220713679Y-59697325D01*
X220880032Y-59655204D01*
X221007168Y-59623575D01*
X221013500Y-59622028D01*
X221154388Y-59586952D01*
X221327255Y-59542903D01*
X221502752Y-59497386D01*
X221569125Y-59479918D01*
X221744176Y-59433797D01*
X221948010Y-59380390D01*
X222147918Y-59328258D01*
X222235875Y-59305424D01*
X222408439Y-59260205D01*
X222615396Y-59205197D01*
X222829944Y-59147563D01*
X223013750Y-59097618D01*
X223301712Y-59019434D01*
X223532278Y-58958301D01*
X223708972Y-58913359D01*
X223835317Y-58883750D01*
X223914840Y-58868612D01*
X223951063Y-58867087D01*
X223953473Y-58868389D01*
X223944055Y-58899540D01*
X223910844Y-58981675D01*
X223856745Y-59108167D01*
X223784664Y-59272386D01*
X223697507Y-59467704D01*
X223598181Y-59687493D01*
X223503274Y-59895318D01*
X223375533Y-60173804D01*
X223239264Y-60471003D01*
X223101048Y-60772549D01*
X222967468Y-61064080D01*
X222845108Y-61331230D01*
X222740549Y-61559635D01*
X222711900Y-61622250D01*
X222612405Y-61839500D01*
X222513283Y-62055506D01*
X222420292Y-62257751D01*
X222339189Y-62433719D01*
X222275733Y-62570894D01*
X222251791Y-62622375D01*
X222142965Y-62855690D01*
X222057320Y-63039417D01*
X221991171Y-63181503D01*
X221940831Y-63289895D01*
X221902613Y-63372540D01*
X221872830Y-63437386D01*
X221847797Y-63492379D01*
X221832035Y-63527250D01*
X221790832Y-63617993D01*
X221740872Y-63726755D01*
X221677882Y-63862755D01*
X221597589Y-64035211D01*
X221495719Y-64253340D01*
X221462979Y-64323361D01*
X221425112Y-64404880D01*
X221363803Y-64537552D01*
X221282076Y-64714807D01*
X221182953Y-64930074D01*
X221069459Y-65176784D01*
X220944617Y-65448367D01*
X220811448Y-65738253D01*
X220672978Y-66039872D01*
X220622906Y-66148986D01*
X220484530Y-66450506D01*
X220351406Y-66740471D01*
X220226401Y-67012639D01*
X220112385Y-67260772D01*
X220012226Y-67478628D01*
X219928792Y-67659966D01*
X219864953Y-67798548D01*
X219823575Y-67888131D01*
X219814002Y-67908750D01*
X219704576Y-68143766D01*
X219619293Y-68327322D01*
X219555380Y-68465470D01*
X219510067Y-68564265D01*
X219480581Y-68629759D01*
X219464151Y-68668006D01*
X219458005Y-68685060D01*
X219457750Y-68686816D01*
X219444728Y-68718129D01*
X219408728Y-68796794D01*
X219354349Y-68912963D01*
X219286186Y-69056786D01*
X219235500Y-69162875D01*
X219160666Y-69319965D01*
X219096578Y-69456299D01*
X219047843Y-69561930D01*
X219019068Y-69626909D01*
X219013250Y-69642702D01*
X219000552Y-69676534D01*
X218966422Y-69754324D01*
X218916804Y-69862737D01*
X218883122Y-69934704D01*
X218814756Y-70080459D01*
X218746052Y-70228249D01*
X218688788Y-70352699D01*
X218673988Y-70385250D01*
X218626517Y-70488800D01*
X218586037Y-70574727D01*
X218566724Y-70613831D01*
X218548417Y-70652270D01*
X218506189Y-70742909D01*
X218442586Y-70880227D01*
X218360156Y-71058703D01*
X218261443Y-71272816D01*
X218148995Y-71517045D01*
X218025359Y-71785869D01*
X217893079Y-72073768D01*
X217827220Y-72217206D01*
X217687783Y-72520932D01*
X217552659Y-72815205D01*
X217424864Y-73093457D01*
X217307418Y-73349120D01*
X217203338Y-73575626D01*
X217115641Y-73766407D01*
X217047346Y-73914895D01*
X217001470Y-74014520D01*
X216991329Y-74036500D01*
X216931956Y-74165244D01*
X216879023Y-74280366D01*
X216840826Y-74363812D01*
X216830866Y-74385750D01*
X216804861Y-74432574D01*
X216792898Y-74433363D01*
X216794651Y-74408139D01*
X216802820Y-74358598D01*
X216818711Y-74278667D01*
X216843630Y-74162275D01*
X216878882Y-74003350D01*
X216925772Y-73795821D01*
X216985606Y-73533614D01*
X216997684Y-73480875D01*
X217044479Y-73276085D01*
X217093352Y-73061300D01*
X217139434Y-72857969D01*
X217177857Y-72687542D01*
X217188625Y-72639500D01*
X217226202Y-72473233D01*
X217272403Y-72271421D01*
X217321193Y-72060302D01*
X217363863Y-71877500D01*
X217407343Y-71690469D01*
X217451592Y-71496855D01*
X217491471Y-71319335D01*
X217521839Y-71180586D01*
X217522178Y-71179000D01*
X217559197Y-71010920D01*
X217601791Y-70825307D01*
X217640997Y-70661183D01*
X217642490Y-70655125D01*
X217676496Y-70514191D01*
X217717988Y-70337632D01*
X217760805Y-70151838D01*
X217787016Y-70036000D01*
X217886366Y-69593926D01*
X217978127Y-69188149D01*
X218068140Y-68792899D01*
X218139769Y-68480250D01*
X218184603Y-68285003D01*
X218230228Y-68086317D01*
X218272154Y-67903738D01*
X218305893Y-67756816D01*
X218314750Y-67718250D01*
X218344599Y-67587969D01*
X218384056Y-67415331D01*
X218428654Y-67219897D01*
X218473927Y-67021230D01*
X218488719Y-66956250D01*
X218534987Y-66753179D01*
X218583832Y-66539203D01*
X218630162Y-66336596D01*
X218668889Y-66167634D01*
X218677363Y-66130750D01*
X218714863Y-65967075D01*
X218760589Y-65766635D01*
X218808807Y-65554611D01*
X218853780Y-65356183D01*
X218854528Y-65352875D01*
X218898986Y-65157128D01*
X218946473Y-64949467D01*
X218991407Y-64754216D01*
X219028209Y-64595700D01*
X219029338Y-64590875D01*
X219065717Y-64434165D01*
X219110399Y-64239819D01*
X219157813Y-64032169D01*
X219202384Y-63835542D01*
X219203888Y-63828875D01*
X219244918Y-63648582D01*
X219285892Y-63471343D01*
X219322482Y-63315712D01*
X219350356Y-63200244D01*
X219354032Y-63185481D01*
X219377182Y-63080798D01*
X219388694Y-63002539D01*
X219386555Y-62969221D01*
X219372727Y-62966295D01*
X219339093Y-62970265D01*
X219279803Y-62982626D01*
X219189005Y-63004875D01*
X219060849Y-63038508D01*
X218889483Y-63085019D01*
X218669058Y-63145905D01*
X218393721Y-63222661D01*
X218378250Y-63226986D01*
X218229119Y-63268364D01*
X218046481Y-63318569D01*
X217858156Y-63369970D01*
X217751187Y-63398973D01*
X217418836Y-63489114D01*
X217047613Y-63590368D01*
X216659776Y-63696656D01*
X216409750Y-63765442D01*
X216252116Y-63808539D01*
X216065449Y-63859071D01*
X215882119Y-63908287D01*
X215822375Y-63924209D01*
X215640938Y-63973129D01*
X215434652Y-64029799D01*
X215239648Y-64084267D01*
X215182738Y-64100402D01*
X215033451Y-64141442D01*
X214893044Y-64177419D01*
X214781415Y-64203358D01*
X214735755Y-64212157D01*
X214610908Y-64232121D01*
X214759156Y-63633623D01*
X214886310Y-63118519D01*
X215026365Y-62547855D01*
X215177785Y-61927907D01*
X215339037Y-61264951D01*
X215425640Y-60907875D01*
X215484230Y-60666202D01*
X215543731Y-60420999D01*
X215600674Y-60186544D01*
X215651591Y-59977116D01*
X215693012Y-59806993D01*
X215711034Y-59733125D01*
X215747151Y-59585173D01*
X215794416Y-59391425D01*
X215848953Y-59167782D01*
X215906882Y-58930146D01*
X215964328Y-58694415D01*
X215978134Y-58637750D01*
X216039833Y-58384768D01*
X216107680Y-58107042D01*
X216176450Y-57825925D01*
X216240921Y-57562771D01*
X216295867Y-57338935D01*
X216298187Y-57329497D01*
X216349134Y-57119179D01*
X216399284Y-56906590D01*
X216444782Y-56708476D01*
X216481772Y-56541584D01*
X216502906Y-56440497D01*
X216536309Y-56275292D01*
X216580215Y-56062246D01*
X216631645Y-55815572D01*
X216687622Y-55549483D01*
X216745168Y-55278191D01*
X216801305Y-55015909D01*
X216803191Y-55007145D01*
X216828130Y-54897533D01*
X216849389Y-54815203D01*
X216862556Y-54777176D01*
X216862936Y-54776729D01*
X216896069Y-54774636D01*
X216987426Y-54772890D01*
X217131732Y-54771502D01*
X217323710Y-54770485D01*
X217558087Y-54769852D01*
X217829585Y-54769612D01*
X218132931Y-54769780D01*
X218132931Y-54769780D01*
G37*
X218132931Y-54769780D02*
X218462848Y-54770366D01*
X218814062Y-54771382D01*
X218971353Y-54771959D01*
X221066833Y-54780125D01*
X220926135Y-55145250D01*
X220864778Y-55306504D01*
X220805824Y-55464992D01*
X220756528Y-55601008D01*
X220727387Y-55685000D01*
X220692790Y-55786507D01*
X220643537Y-55927716D01*
X220586642Y-56088640D01*
X220537961Y-56224750D01*
X220482240Y-56380274D01*
X220430259Y-56526546D01*
X220388170Y-56646181D01*
X220363777Y-56716875D01*
X220339208Y-56788320D01*
X220297858Y-56906988D01*
X220244152Y-57060246D01*
X220182515Y-57235462D01*
X220130231Y-57383625D01*
X220050283Y-57610281D01*
X219958760Y-57870430D01*
X219864964Y-58137593D01*
X219778196Y-58385291D01*
X219745441Y-58479000D01*
X219668095Y-58700331D01*
X219583184Y-58943089D01*
X219498804Y-59184142D01*
X219423050Y-59400359D01*
X219389859Y-59495000D01*
X219317364Y-59702640D01*
X219264655Y-59857579D01*
X219230106Y-59966897D01*
X219212095Y-60037673D01*
X219208997Y-60076989D01*
X219219188Y-60091925D01*
X219241043Y-60089561D01*
X219254617Y-60084594D01*
X219310534Y-60066417D01*
X219411096Y-60037403D01*
X219539401Y-60002343D01*
X219616500Y-59982004D01*
X219768045Y-59942539D01*
X219956824Y-59893371D01*
X220158623Y-59840806D01*
X220346750Y-59791797D01*
X220528966Y-59744626D01*
X220713679Y-59697325D01*
X220880032Y-59655204D01*
X221007168Y-59623575D01*
X221013500Y-59622028D01*
X221154388Y-59586952D01*
X221327255Y-59542903D01*
X221502752Y-59497386D01*
X221569125Y-59479918D01*
X221744176Y-59433797D01*
X221948010Y-59380390D01*
X222147918Y-59328258D01*
X222235875Y-59305424D01*
X222408439Y-59260205D01*
X222615396Y-59205197D01*
X222829944Y-59147563D01*
X223013750Y-59097618D01*
X223301712Y-59019434D01*
X223532278Y-58958301D01*
X223708972Y-58913359D01*
X223835317Y-58883750D01*
X223914840Y-58868612D01*
X223951063Y-58867087D01*
X223953473Y-58868389D01*
X223944055Y-58899540D01*
X223910844Y-58981675D01*
X223856745Y-59108167D01*
X223784664Y-59272386D01*
X223697507Y-59467704D01*
X223598181Y-59687493D01*
X223503274Y-59895318D01*
X223375533Y-60173804D01*
X223239264Y-60471003D01*
X223101048Y-60772549D01*
X222967468Y-61064080D01*
X222845108Y-61331230D01*
X222740549Y-61559635D01*
X222711900Y-61622250D01*
X222612405Y-61839500D01*
X222513283Y-62055506D01*
X222420292Y-62257751D01*
X222339189Y-62433719D01*
X222275733Y-62570894D01*
X222251791Y-62622375D01*
X222142965Y-62855690D01*
X222057320Y-63039417D01*
X221991171Y-63181503D01*
X221940831Y-63289895D01*
X221902613Y-63372540D01*
X221872830Y-63437386D01*
X221847797Y-63492379D01*
X221832035Y-63527250D01*
X221790832Y-63617993D01*
X221740872Y-63726755D01*
X221677882Y-63862755D01*
X221597589Y-64035211D01*
X221495719Y-64253340D01*
X221462979Y-64323361D01*
X221425112Y-64404880D01*
X221363803Y-64537552D01*
X221282076Y-64714807D01*
X221182953Y-64930074D01*
X221069459Y-65176784D01*
X220944617Y-65448367D01*
X220811448Y-65738253D01*
X220672978Y-66039872D01*
X220622906Y-66148986D01*
X220484530Y-66450506D01*
X220351406Y-66740471D01*
X220226401Y-67012639D01*
X220112385Y-67260772D01*
X220012226Y-67478628D01*
X219928792Y-67659966D01*
X219864953Y-67798548D01*
X219823575Y-67888131D01*
X219814002Y-67908750D01*
X219704576Y-68143766D01*
X219619293Y-68327322D01*
X219555380Y-68465470D01*
X219510067Y-68564265D01*
X219480581Y-68629759D01*
X219464151Y-68668006D01*
X219458005Y-68685060D01*
X219457750Y-68686816D01*
X219444728Y-68718129D01*
X219408728Y-68796794D01*
X219354349Y-68912963D01*
X219286186Y-69056786D01*
X219235500Y-69162875D01*
X219160666Y-69319965D01*
X219096578Y-69456299D01*
X219047843Y-69561930D01*
X219019068Y-69626909D01*
X219013250Y-69642702D01*
X219000552Y-69676534D01*
X218966422Y-69754324D01*
X218916804Y-69862737D01*
X218883122Y-69934704D01*
X218814756Y-70080459D01*
X218746052Y-70228249D01*
X218688788Y-70352699D01*
X218673988Y-70385250D01*
X218626517Y-70488800D01*
X218586037Y-70574727D01*
X218566724Y-70613831D01*
X218548417Y-70652270D01*
X218506189Y-70742909D01*
X218442586Y-70880227D01*
X218360156Y-71058703D01*
X218261443Y-71272816D01*
X218148995Y-71517045D01*
X218025359Y-71785869D01*
X217893079Y-72073768D01*
X217827220Y-72217206D01*
X217687783Y-72520932D01*
X217552659Y-72815205D01*
X217424864Y-73093457D01*
X217307418Y-73349120D01*
X217203338Y-73575626D01*
X217115641Y-73766407D01*
X217047346Y-73914895D01*
X217001470Y-74014520D01*
X216991329Y-74036500D01*
X216931956Y-74165244D01*
X216879023Y-74280366D01*
X216840826Y-74363812D01*
X216830866Y-74385750D01*
X216804861Y-74432574D01*
X216792898Y-74433363D01*
X216794651Y-74408139D01*
X216802820Y-74358598D01*
X216818711Y-74278667D01*
X216843630Y-74162275D01*
X216878882Y-74003350D01*
X216925772Y-73795821D01*
X216985606Y-73533614D01*
X216997684Y-73480875D01*
X217044479Y-73276085D01*
X217093352Y-73061300D01*
X217139434Y-72857969D01*
X217177857Y-72687542D01*
X217188625Y-72639500D01*
X217226202Y-72473233D01*
X217272403Y-72271421D01*
X217321193Y-72060302D01*
X217363863Y-71877500D01*
X217407343Y-71690469D01*
X217451592Y-71496855D01*
X217491471Y-71319335D01*
X217521839Y-71180586D01*
X217522178Y-71179000D01*
X217559197Y-71010920D01*
X217601791Y-70825307D01*
X217640997Y-70661183D01*
X217642490Y-70655125D01*
X217676496Y-70514191D01*
X217717988Y-70337632D01*
X217760805Y-70151838D01*
X217787016Y-70036000D01*
X217886366Y-69593926D01*
X217978127Y-69188149D01*
X218068140Y-68792899D01*
X218139769Y-68480250D01*
X218184603Y-68285003D01*
X218230228Y-68086317D01*
X218272154Y-67903738D01*
X218305893Y-67756816D01*
X218314750Y-67718250D01*
X218344599Y-67587969D01*
X218384056Y-67415331D01*
X218428654Y-67219897D01*
X218473927Y-67021230D01*
X218488719Y-66956250D01*
X218534987Y-66753179D01*
X218583832Y-66539203D01*
X218630162Y-66336596D01*
X218668889Y-66167634D01*
X218677363Y-66130750D01*
X218714863Y-65967075D01*
X218760589Y-65766635D01*
X218808807Y-65554611D01*
X218853780Y-65356183D01*
X218854528Y-65352875D01*
X218898986Y-65157128D01*
X218946473Y-64949467D01*
X218991407Y-64754216D01*
X219028209Y-64595700D01*
X219029338Y-64590875D01*
X219065717Y-64434165D01*
X219110399Y-64239819D01*
X219157813Y-64032169D01*
X219202384Y-63835542D01*
X219203888Y-63828875D01*
X219244918Y-63648582D01*
X219285892Y-63471343D01*
X219322482Y-63315712D01*
X219350356Y-63200244D01*
X219354032Y-63185481D01*
X219377182Y-63080798D01*
X219388694Y-63002539D01*
X219386555Y-62969221D01*
X219372727Y-62966295D01*
X219339093Y-62970265D01*
X219279803Y-62982626D01*
X219189005Y-63004875D01*
X219060849Y-63038508D01*
X218889483Y-63085019D01*
X218669058Y-63145905D01*
X218393721Y-63222661D01*
X218378250Y-63226986D01*
X218229119Y-63268364D01*
X218046481Y-63318569D01*
X217858156Y-63369970D01*
X217751187Y-63398973D01*
X217418836Y-63489114D01*
X217047613Y-63590368D01*
X216659776Y-63696656D01*
X216409750Y-63765442D01*
X216252116Y-63808539D01*
X216065449Y-63859071D01*
X215882119Y-63908287D01*
X215822375Y-63924209D01*
X215640938Y-63973129D01*
X215434652Y-64029799D01*
X215239648Y-64084267D01*
X215182738Y-64100402D01*
X215033451Y-64141442D01*
X214893044Y-64177419D01*
X214781415Y-64203358D01*
X214735755Y-64212157D01*
X214610908Y-64232121D01*
X214759156Y-63633623D01*
X214886310Y-63118519D01*
X215026365Y-62547855D01*
X215177785Y-61927907D01*
X215339037Y-61264951D01*
X215425640Y-60907875D01*
X215484230Y-60666202D01*
X215543731Y-60420999D01*
X215600674Y-60186544D01*
X215651591Y-59977116D01*
X215693012Y-59806993D01*
X215711034Y-59733125D01*
X215747151Y-59585173D01*
X215794416Y-59391425D01*
X215848953Y-59167782D01*
X215906882Y-58930146D01*
X215964328Y-58694415D01*
X215978134Y-58637750D01*
X216039833Y-58384768D01*
X216107680Y-58107042D01*
X216176450Y-57825925D01*
X216240921Y-57562771D01*
X216295867Y-57338935D01*
X216298187Y-57329497D01*
X216349134Y-57119179D01*
X216399284Y-56906590D01*
X216444782Y-56708476D01*
X216481772Y-56541584D01*
X216502906Y-56440497D01*
X216536309Y-56275292D01*
X216580215Y-56062246D01*
X216631645Y-55815572D01*
X216687622Y-55549483D01*
X216745168Y-55278191D01*
X216801305Y-55015909D01*
X216803191Y-55007145D01*
X216828130Y-54897533D01*
X216849389Y-54815203D01*
X216862556Y-54777176D01*
X216862936Y-54776729D01*
X216896069Y-54774636D01*
X216987426Y-54772890D01*
X217131732Y-54771502D01*
X217323710Y-54770485D01*
X217558087Y-54769852D01*
X217829585Y-54769612D01*
X218132931Y-54769780D01*
G36*
X193423622Y-69976471D02*
X193753539Y-69977057D01*
X194104753Y-69978073D01*
X194262044Y-69978650D01*
X196357524Y-69986816D01*
X196216826Y-70351941D01*
X196155469Y-70513195D01*
X196096515Y-70671683D01*
X196047219Y-70807699D01*
X196018078Y-70891691D01*
X195983481Y-70993198D01*
X195934228Y-71134407D01*
X195877333Y-71295331D01*
X195828652Y-71431441D01*
X195772931Y-71586965D01*
X195720950Y-71733237D01*
X195678861Y-71852872D01*
X195654468Y-71923566D01*
X195629899Y-71995011D01*
X195588549Y-72113679D01*
X195534843Y-72266937D01*
X195473206Y-72442153D01*
X195420922Y-72590316D01*
X195340974Y-72816972D01*
X195249451Y-73077121D01*
X195155655Y-73344284D01*
X195068887Y-73591982D01*
X195036132Y-73685691D01*
X194958786Y-73907022D01*
X194873875Y-74149780D01*
X194789495Y-74390833D01*
X194713741Y-74607050D01*
X194680550Y-74701691D01*
X194608055Y-74909331D01*
X194555346Y-75064270D01*
X194520797Y-75173588D01*
X194502786Y-75244364D01*
X194499688Y-75283680D01*
X194509879Y-75298616D01*
X194531734Y-75296252D01*
X194545308Y-75291285D01*
X194601225Y-75273108D01*
X194701787Y-75244094D01*
X194830092Y-75209034D01*
X194907191Y-75188695D01*
X195058736Y-75149230D01*
X195247515Y-75100062D01*
X195449314Y-75047497D01*
X195637441Y-74998488D01*
X195819657Y-74951317D01*
X196004370Y-74904016D01*
X196170723Y-74861895D01*
X196297859Y-74830266D01*
X196304191Y-74828719D01*
X196445079Y-74793643D01*
X196617946Y-74749594D01*
X196793443Y-74704077D01*
X196859816Y-74686609D01*
X197034867Y-74640488D01*
X197238701Y-74587081D01*
X197438609Y-74534949D01*
X197526566Y-74512115D01*
X197699130Y-74466896D01*
X197906087Y-74411888D01*
X198120635Y-74354254D01*
X198304441Y-74304309D01*
X198592403Y-74226125D01*
X198822969Y-74164992D01*
X198999663Y-74120050D01*
X199126008Y-74090441D01*
X199205531Y-74075303D01*
X199241754Y-74073778D01*
X199244164Y-74075080D01*
X199234746Y-74106231D01*
X199201535Y-74188366D01*
X199147436Y-74314858D01*
X199075355Y-74479077D01*
X198988198Y-74674395D01*
X198888872Y-74894184D01*
X198793965Y-75102009D01*
X198666224Y-75380495D01*
X198529955Y-75677694D01*
X198391739Y-75979240D01*
X198258159Y-76270771D01*
X198135799Y-76537921D01*
X198031240Y-76766326D01*
X198002591Y-76828941D01*
X197903096Y-77046191D01*
X197803974Y-77262197D01*
X197710983Y-77464442D01*
X197629880Y-77640410D01*
X197566424Y-77777585D01*
X197542482Y-77829066D01*
X197433656Y-78062381D01*
X197348011Y-78246108D01*
X197281862Y-78388194D01*
X197231522Y-78496586D01*
X197193304Y-78579231D01*
X197163521Y-78644077D01*
X197138488Y-78699070D01*
X197122726Y-78733941D01*
X197081523Y-78824684D01*
X197031563Y-78933446D01*
X196968573Y-79069446D01*
X196888280Y-79241902D01*
X196786410Y-79460031D01*
X196753670Y-79530052D01*
X196715803Y-79611571D01*
X196654494Y-79744243D01*
X196572767Y-79921498D01*
X196473644Y-80136765D01*
X196360150Y-80383475D01*
X196235308Y-80655058D01*
X196102139Y-80944944D01*
X195963669Y-81246563D01*
X195913597Y-81355677D01*
X195775221Y-81657197D01*
X195642097Y-81947162D01*
X195517092Y-82219330D01*
X195403076Y-82467463D01*
X195302917Y-82685319D01*
X195219483Y-82866657D01*
X195155644Y-83005239D01*
X195114266Y-83094822D01*
X195104693Y-83115441D01*
X194995267Y-83350457D01*
X194909984Y-83534013D01*
X194846071Y-83672161D01*
X194800758Y-83770956D01*
X194771272Y-83836450D01*
X194754842Y-83874697D01*
X194748696Y-83891751D01*
X194748441Y-83893507D01*
X194735419Y-83924820D01*
X194699419Y-84003485D01*
X194645040Y-84119654D01*
X194576877Y-84263477D01*
X194526191Y-84369566D01*
X194451357Y-84526656D01*
X194387269Y-84662990D01*
X194338534Y-84768621D01*
X194309759Y-84833600D01*
X194303941Y-84849393D01*
X194291243Y-84883225D01*
X194257113Y-84961015D01*
X194207495Y-85069428D01*
X194173813Y-85141395D01*
X194105447Y-85287150D01*
X194036743Y-85434940D01*
X193979479Y-85559390D01*
X193964679Y-85591941D01*
X193917208Y-85695491D01*
X193876728Y-85781418D01*
X193857415Y-85820522D01*
X193839108Y-85858961D01*
X193796880Y-85949600D01*
X193733277Y-86086918D01*
X193650847Y-86265394D01*
X193552134Y-86479507D01*
X193439686Y-86723736D01*
X193316050Y-86992560D01*
X193183770Y-87280459D01*
X193117911Y-87423897D01*
X192978474Y-87727623D01*
X192843350Y-88021896D01*
X192715555Y-88300148D01*
X192598109Y-88555811D01*
X192494029Y-88782317D01*
X192406332Y-88973098D01*
X192338037Y-89121586D01*
X192292161Y-89221211D01*
X192282020Y-89243191D01*
X192222647Y-89371935D01*
X192169714Y-89487057D01*
X192131517Y-89570503D01*
X192121557Y-89592441D01*
X192095552Y-89639265D01*
X192083589Y-89640054D01*
X192085342Y-89614830D01*
X192093511Y-89565289D01*
X192109402Y-89485358D01*
X192134321Y-89368966D01*
X192169573Y-89210041D01*
X192216463Y-89002512D01*
X192276297Y-88740305D01*
X192288375Y-88687566D01*
X192335170Y-88482776D01*
X192384043Y-88267991D01*
X192430125Y-88064660D01*
X192468548Y-87894233D01*
X192479316Y-87846191D01*
X192516893Y-87679924D01*
X192563094Y-87478112D01*
X192611884Y-87266993D01*
X192654554Y-87084191D01*
X192698034Y-86897160D01*
X192742283Y-86703546D01*
X192782162Y-86526026D01*
X192812530Y-86387277D01*
X192812869Y-86385691D01*
X192849888Y-86217611D01*
X192892482Y-86031998D01*
X192931688Y-85867874D01*
X192933181Y-85861816D01*
X192967187Y-85720882D01*
X193008679Y-85544323D01*
X193051496Y-85358529D01*
X193077707Y-85242691D01*
X193177057Y-84800617D01*
X193268818Y-84394840D01*
X193358831Y-83999590D01*
X193430460Y-83686941D01*
X193475294Y-83491694D01*
X193520919Y-83293008D01*
X193562845Y-83110429D01*
X193596584Y-82963507D01*
X193605441Y-82924941D01*
X193635290Y-82794660D01*
X193674747Y-82622022D01*
X193719345Y-82426588D01*
X193764618Y-82227921D01*
X193779410Y-82162941D01*
X193825678Y-81959870D01*
X193874523Y-81745894D01*
X193920853Y-81543287D01*
X193959580Y-81374325D01*
X193968054Y-81337441D01*
X194005554Y-81173766D01*
X194051280Y-80973326D01*
X194099498Y-80761302D01*
X194144471Y-80562874D01*
X194145219Y-80559566D01*
X194189677Y-80363819D01*
X194237164Y-80156158D01*
X194282098Y-79960907D01*
X194318900Y-79802391D01*
X194320029Y-79797566D01*
X194356408Y-79640856D01*
X194401090Y-79446510D01*
X194448504Y-79238860D01*
X194493075Y-79042233D01*
X194494579Y-79035566D01*
X194535609Y-78855273D01*
X194576583Y-78678034D01*
X194613173Y-78522403D01*
X194641047Y-78406935D01*
X194644723Y-78392172D01*
X194667873Y-78287489D01*
X194679385Y-78209230D01*
X194677246Y-78175912D01*
X194663418Y-78172986D01*
X194629784Y-78176956D01*
X194570494Y-78189317D01*
X194479696Y-78211566D01*
X194351540Y-78245199D01*
X194180174Y-78291710D01*
X193959749Y-78352596D01*
X193684412Y-78429352D01*
X193668941Y-78433677D01*
X193519810Y-78475055D01*
X193337172Y-78525260D01*
X193148847Y-78576661D01*
X193041878Y-78605664D01*
X192709527Y-78695805D01*
X192338304Y-78797059D01*
X191950467Y-78903347D01*
X191700441Y-78972133D01*
X191542807Y-79015230D01*
X191356140Y-79065762D01*
X191172810Y-79114978D01*
X191113066Y-79130900D01*
X190931629Y-79179820D01*
X190725343Y-79236490D01*
X190530339Y-79290958D01*
X190473429Y-79307093D01*
X190324142Y-79348133D01*
X190183735Y-79384110D01*
X190072106Y-79410049D01*
X190026446Y-79418848D01*
X189901599Y-79438812D01*
X190049847Y-78840314D01*
X190177001Y-78325210D01*
X190317056Y-77754546D01*
X190468476Y-77134598D01*
X190629728Y-76471642D01*
X190716331Y-76114566D01*
X190774921Y-75872893D01*
X190834422Y-75627690D01*
X190891365Y-75393235D01*
X190942282Y-75183807D01*
X190983703Y-75013684D01*
X191001725Y-74939816D01*
X191037842Y-74791864D01*
X191085107Y-74598116D01*
X191139644Y-74374473D01*
X191197573Y-74136837D01*
X191255019Y-73901106D01*
X191268825Y-73844441D01*
X191330524Y-73591459D01*
X191398371Y-73313733D01*
X191467141Y-73032616D01*
X191531612Y-72769462D01*
X191586558Y-72545626D01*
X191588878Y-72536188D01*
X191639825Y-72325870D01*
X191689975Y-72113281D01*
X191735473Y-71915167D01*
X191772463Y-71748275D01*
X191793597Y-71647188D01*
X191827000Y-71481983D01*
X191870906Y-71268937D01*
X191922336Y-71022263D01*
X191978313Y-70756174D01*
X192035859Y-70484882D01*
X192091996Y-70222600D01*
X192093882Y-70213836D01*
X192118821Y-70104224D01*
X192140080Y-70021894D01*
X192153247Y-69983867D01*
X192153627Y-69983420D01*
X192186760Y-69981327D01*
X192278117Y-69979581D01*
X192422423Y-69978193D01*
X192614401Y-69977176D01*
X192848778Y-69976543D01*
X193120276Y-69976303D01*
X193423622Y-69976471D01*
X193423622Y-69976471D01*
G37*
X193423622Y-69976471D02*
X193753539Y-69977057D01*
X194104753Y-69978073D01*
X194262044Y-69978650D01*
X196357524Y-69986816D01*
X196216826Y-70351941D01*
X196155469Y-70513195D01*
X196096515Y-70671683D01*
X196047219Y-70807699D01*
X196018078Y-70891691D01*
X195983481Y-70993198D01*
X195934228Y-71134407D01*
X195877333Y-71295331D01*
X195828652Y-71431441D01*
X195772931Y-71586965D01*
X195720950Y-71733237D01*
X195678861Y-71852872D01*
X195654468Y-71923566D01*
X195629899Y-71995011D01*
X195588549Y-72113679D01*
X195534843Y-72266937D01*
X195473206Y-72442153D01*
X195420922Y-72590316D01*
X195340974Y-72816972D01*
X195249451Y-73077121D01*
X195155655Y-73344284D01*
X195068887Y-73591982D01*
X195036132Y-73685691D01*
X194958786Y-73907022D01*
X194873875Y-74149780D01*
X194789495Y-74390833D01*
X194713741Y-74607050D01*
X194680550Y-74701691D01*
X194608055Y-74909331D01*
X194555346Y-75064270D01*
X194520797Y-75173588D01*
X194502786Y-75244364D01*
X194499688Y-75283680D01*
X194509879Y-75298616D01*
X194531734Y-75296252D01*
X194545308Y-75291285D01*
X194601225Y-75273108D01*
X194701787Y-75244094D01*
X194830092Y-75209034D01*
X194907191Y-75188695D01*
X195058736Y-75149230D01*
X195247515Y-75100062D01*
X195449314Y-75047497D01*
X195637441Y-74998488D01*
X195819657Y-74951317D01*
X196004370Y-74904016D01*
X196170723Y-74861895D01*
X196297859Y-74830266D01*
X196304191Y-74828719D01*
X196445079Y-74793643D01*
X196617946Y-74749594D01*
X196793443Y-74704077D01*
X196859816Y-74686609D01*
X197034867Y-74640488D01*
X197238701Y-74587081D01*
X197438609Y-74534949D01*
X197526566Y-74512115D01*
X197699130Y-74466896D01*
X197906087Y-74411888D01*
X198120635Y-74354254D01*
X198304441Y-74304309D01*
X198592403Y-74226125D01*
X198822969Y-74164992D01*
X198999663Y-74120050D01*
X199126008Y-74090441D01*
X199205531Y-74075303D01*
X199241754Y-74073778D01*
X199244164Y-74075080D01*
X199234746Y-74106231D01*
X199201535Y-74188366D01*
X199147436Y-74314858D01*
X199075355Y-74479077D01*
X198988198Y-74674395D01*
X198888872Y-74894184D01*
X198793965Y-75102009D01*
X198666224Y-75380495D01*
X198529955Y-75677694D01*
X198391739Y-75979240D01*
X198258159Y-76270771D01*
X198135799Y-76537921D01*
X198031240Y-76766326D01*
X198002591Y-76828941D01*
X197903096Y-77046191D01*
X197803974Y-77262197D01*
X197710983Y-77464442D01*
X197629880Y-77640410D01*
X197566424Y-77777585D01*
X197542482Y-77829066D01*
X197433656Y-78062381D01*
X197348011Y-78246108D01*
X197281862Y-78388194D01*
X197231522Y-78496586D01*
X197193304Y-78579231D01*
X197163521Y-78644077D01*
X197138488Y-78699070D01*
X197122726Y-78733941D01*
X197081523Y-78824684D01*
X197031563Y-78933446D01*
X196968573Y-79069446D01*
X196888280Y-79241902D01*
X196786410Y-79460031D01*
X196753670Y-79530052D01*
X196715803Y-79611571D01*
X196654494Y-79744243D01*
X196572767Y-79921498D01*
X196473644Y-80136765D01*
X196360150Y-80383475D01*
X196235308Y-80655058D01*
X196102139Y-80944944D01*
X195963669Y-81246563D01*
X195913597Y-81355677D01*
X195775221Y-81657197D01*
X195642097Y-81947162D01*
X195517092Y-82219330D01*
X195403076Y-82467463D01*
X195302917Y-82685319D01*
X195219483Y-82866657D01*
X195155644Y-83005239D01*
X195114266Y-83094822D01*
X195104693Y-83115441D01*
X194995267Y-83350457D01*
X194909984Y-83534013D01*
X194846071Y-83672161D01*
X194800758Y-83770956D01*
X194771272Y-83836450D01*
X194754842Y-83874697D01*
X194748696Y-83891751D01*
X194748441Y-83893507D01*
X194735419Y-83924820D01*
X194699419Y-84003485D01*
X194645040Y-84119654D01*
X194576877Y-84263477D01*
X194526191Y-84369566D01*
X194451357Y-84526656D01*
X194387269Y-84662990D01*
X194338534Y-84768621D01*
X194309759Y-84833600D01*
X194303941Y-84849393D01*
X194291243Y-84883225D01*
X194257113Y-84961015D01*
X194207495Y-85069428D01*
X194173813Y-85141395D01*
X194105447Y-85287150D01*
X194036743Y-85434940D01*
X193979479Y-85559390D01*
X193964679Y-85591941D01*
X193917208Y-85695491D01*
X193876728Y-85781418D01*
X193857415Y-85820522D01*
X193839108Y-85858961D01*
X193796880Y-85949600D01*
X193733277Y-86086918D01*
X193650847Y-86265394D01*
X193552134Y-86479507D01*
X193439686Y-86723736D01*
X193316050Y-86992560D01*
X193183770Y-87280459D01*
X193117911Y-87423897D01*
X192978474Y-87727623D01*
X192843350Y-88021896D01*
X192715555Y-88300148D01*
X192598109Y-88555811D01*
X192494029Y-88782317D01*
X192406332Y-88973098D01*
X192338037Y-89121586D01*
X192292161Y-89221211D01*
X192282020Y-89243191D01*
X192222647Y-89371935D01*
X192169714Y-89487057D01*
X192131517Y-89570503D01*
X192121557Y-89592441D01*
X192095552Y-89639265D01*
X192083589Y-89640054D01*
X192085342Y-89614830D01*
X192093511Y-89565289D01*
X192109402Y-89485358D01*
X192134321Y-89368966D01*
X192169573Y-89210041D01*
X192216463Y-89002512D01*
X192276297Y-88740305D01*
X192288375Y-88687566D01*
X192335170Y-88482776D01*
X192384043Y-88267991D01*
X192430125Y-88064660D01*
X192468548Y-87894233D01*
X192479316Y-87846191D01*
X192516893Y-87679924D01*
X192563094Y-87478112D01*
X192611884Y-87266993D01*
X192654554Y-87084191D01*
X192698034Y-86897160D01*
X192742283Y-86703546D01*
X192782162Y-86526026D01*
X192812530Y-86387277D01*
X192812869Y-86385691D01*
X192849888Y-86217611D01*
X192892482Y-86031998D01*
X192931688Y-85867874D01*
X192933181Y-85861816D01*
X192967187Y-85720882D01*
X193008679Y-85544323D01*
X193051496Y-85358529D01*
X193077707Y-85242691D01*
X193177057Y-84800617D01*
X193268818Y-84394840D01*
X193358831Y-83999590D01*
X193430460Y-83686941D01*
X193475294Y-83491694D01*
X193520919Y-83293008D01*
X193562845Y-83110429D01*
X193596584Y-82963507D01*
X193605441Y-82924941D01*
X193635290Y-82794660D01*
X193674747Y-82622022D01*
X193719345Y-82426588D01*
X193764618Y-82227921D01*
X193779410Y-82162941D01*
X193825678Y-81959870D01*
X193874523Y-81745894D01*
X193920853Y-81543287D01*
X193959580Y-81374325D01*
X193968054Y-81337441D01*
X194005554Y-81173766D01*
X194051280Y-80973326D01*
X194099498Y-80761302D01*
X194144471Y-80562874D01*
X194145219Y-80559566D01*
X194189677Y-80363819D01*
X194237164Y-80156158D01*
X194282098Y-79960907D01*
X194318900Y-79802391D01*
X194320029Y-79797566D01*
X194356408Y-79640856D01*
X194401090Y-79446510D01*
X194448504Y-79238860D01*
X194493075Y-79042233D01*
X194494579Y-79035566D01*
X194535609Y-78855273D01*
X194576583Y-78678034D01*
X194613173Y-78522403D01*
X194641047Y-78406935D01*
X194644723Y-78392172D01*
X194667873Y-78287489D01*
X194679385Y-78209230D01*
X194677246Y-78175912D01*
X194663418Y-78172986D01*
X194629784Y-78176956D01*
X194570494Y-78189317D01*
X194479696Y-78211566D01*
X194351540Y-78245199D01*
X194180174Y-78291710D01*
X193959749Y-78352596D01*
X193684412Y-78429352D01*
X193668941Y-78433677D01*
X193519810Y-78475055D01*
X193337172Y-78525260D01*
X193148847Y-78576661D01*
X193041878Y-78605664D01*
X192709527Y-78695805D01*
X192338304Y-78797059D01*
X191950467Y-78903347D01*
X191700441Y-78972133D01*
X191542807Y-79015230D01*
X191356140Y-79065762D01*
X191172810Y-79114978D01*
X191113066Y-79130900D01*
X190931629Y-79179820D01*
X190725343Y-79236490D01*
X190530339Y-79290958D01*
X190473429Y-79307093D01*
X190324142Y-79348133D01*
X190183735Y-79384110D01*
X190072106Y-79410049D01*
X190026446Y-79418848D01*
X189901599Y-79438812D01*
X190049847Y-78840314D01*
X190177001Y-78325210D01*
X190317056Y-77754546D01*
X190468476Y-77134598D01*
X190629728Y-76471642D01*
X190716331Y-76114566D01*
X190774921Y-75872893D01*
X190834422Y-75627690D01*
X190891365Y-75393235D01*
X190942282Y-75183807D01*
X190983703Y-75013684D01*
X191001725Y-74939816D01*
X191037842Y-74791864D01*
X191085107Y-74598116D01*
X191139644Y-74374473D01*
X191197573Y-74136837D01*
X191255019Y-73901106D01*
X191268825Y-73844441D01*
X191330524Y-73591459D01*
X191398371Y-73313733D01*
X191467141Y-73032616D01*
X191531612Y-72769462D01*
X191586558Y-72545626D01*
X191588878Y-72536188D01*
X191639825Y-72325870D01*
X191689975Y-72113281D01*
X191735473Y-71915167D01*
X191772463Y-71748275D01*
X191793597Y-71647188D01*
X191827000Y-71481983D01*
X191870906Y-71268937D01*
X191922336Y-71022263D01*
X191978313Y-70756174D01*
X192035859Y-70484882D01*
X192091996Y-70222600D01*
X192093882Y-70213836D01*
X192118821Y-70104224D01*
X192140080Y-70021894D01*
X192153247Y-69983867D01*
X192153627Y-69983420D01*
X192186760Y-69981327D01*
X192278117Y-69979581D01*
X192422423Y-69978193D01*
X192614401Y-69977176D01*
X192848778Y-69976543D01*
X193120276Y-69976303D01*
X193423622Y-69976471D01*
D19*
G04 #@! TO.C,C3*
X122557000Y-131226779D02*
X122557000Y-130901221D01*
X121537000Y-131226779D02*
X121537000Y-130901221D01*
G04 #@! TO.C,C4*
X130647221Y-132844000D02*
X130972779Y-132844000D01*
X130647221Y-131824000D02*
X130972779Y-131824000D01*
G04 #@! TO.C,C7*
X96971000Y-126172779D02*
X96971000Y-125847221D01*
X95951000Y-126172779D02*
X95951000Y-125847221D01*
G04 #@! TO.C,C8*
X84525000Y-125156779D02*
X84525000Y-124831221D01*
X83505000Y-125156779D02*
X83505000Y-124831221D01*
G04 #@! TO.C,C15*
X100649000Y-44881721D02*
X100649000Y-45207279D01*
X101669000Y-44881721D02*
X101669000Y-45207279D01*
G04 #@! TO.C,C18*
X107037779Y-111403000D02*
X106712221Y-111403000D01*
X107037779Y-112423000D02*
X106712221Y-112423000D01*
G04 #@! TO.C,C19*
X102770691Y-115250470D02*
X102770691Y-114924912D01*
X101750691Y-115250470D02*
X101750691Y-114924912D01*
G04 #@! TO.C,D1*
X90150000Y-114934000D02*
X92435000Y-114934000D01*
X90150000Y-113464000D02*
X90150000Y-114934000D01*
X92435000Y-113464000D02*
X90150000Y-113464000D01*
G04 #@! TO.C,D2*
X90150000Y-116839000D02*
X92435000Y-116839000D01*
X90150000Y-115369000D02*
X90150000Y-116839000D01*
X92435000Y-115369000D02*
X90150000Y-115369000D01*
G04 #@! TO.C,D3*
X125128000Y-41609000D02*
X125128000Y-44549000D01*
X125368000Y-41609000D02*
X125368000Y-44549000D01*
X125248000Y-41609000D02*
X125248000Y-44549000D01*
X130808000Y-43079000D02*
X129788000Y-43079000D01*
X123328000Y-43079000D02*
X124348000Y-43079000D01*
X129788000Y-41609000D02*
X124348000Y-41609000D01*
X129788000Y-44549000D02*
X129788000Y-41609000D01*
X124348000Y-44549000D02*
X129788000Y-44549000D01*
X124348000Y-41609000D02*
X124348000Y-44549000D01*
G04 #@! TO.C,D4*
X73185000Y-56849000D02*
X73185000Y-59789000D01*
X73425000Y-56849000D02*
X73425000Y-59789000D01*
X73305000Y-56849000D02*
X73305000Y-59789000D01*
X78865000Y-58319000D02*
X77845000Y-58319000D01*
X71385000Y-58319000D02*
X72405000Y-58319000D01*
X77845000Y-56849000D02*
X72405000Y-56849000D01*
X77845000Y-59789000D02*
X77845000Y-56849000D01*
X72405000Y-59789000D02*
X77845000Y-59789000D01*
X72405000Y-56849000D02*
X72405000Y-59789000D01*
G04 #@! TO.C,D5*
X80170000Y-67009000D02*
X80170000Y-69949000D01*
X80410000Y-67009000D02*
X80410000Y-69949000D01*
X80290000Y-67009000D02*
X80290000Y-69949000D01*
X85850000Y-68479000D02*
X84830000Y-68479000D01*
X78370000Y-68479000D02*
X79390000Y-68479000D01*
X84830000Y-67009000D02*
X79390000Y-67009000D01*
X84830000Y-69949000D02*
X84830000Y-67009000D01*
X79390000Y-69949000D02*
X84830000Y-69949000D01*
X79390000Y-67009000D02*
X79390000Y-69949000D01*
G04 #@! TO.C,D6*
X92235000Y-73359000D02*
X92235000Y-76299000D01*
X92475000Y-73359000D02*
X92475000Y-76299000D01*
X92355000Y-73359000D02*
X92355000Y-76299000D01*
X97915000Y-74829000D02*
X96895000Y-74829000D01*
X90435000Y-74829000D02*
X91455000Y-74829000D01*
X96895000Y-73359000D02*
X91455000Y-73359000D01*
X96895000Y-76299000D02*
X96895000Y-73359000D01*
X91455000Y-76299000D02*
X96895000Y-76299000D01*
X91455000Y-73359000D02*
X91455000Y-76299000D01*
G04 #@! TO.C,J15*
X78015000Y-114834000D02*
X78015000Y-113504000D01*
X78015000Y-113504000D02*
X79345000Y-113504000D01*
X78015000Y-116104000D02*
X80615000Y-116104000D01*
X80615000Y-116104000D02*
X80615000Y-113504000D01*
X80615000Y-113504000D02*
X85755000Y-113504000D01*
X85755000Y-118704000D02*
X85755000Y-113504000D01*
X78015000Y-118704000D02*
X85755000Y-118704000D01*
X78015000Y-118704000D02*
X78015000Y-116104000D01*
D20*
G04 #@! TO.C,L1*
X221688000Y-91758000D02*
X219402000Y-91758000D01*
X221688000Y-88710000D02*
X221688000Y-91758000D01*
X219402000Y-88710000D02*
X221688000Y-88710000D01*
X219402000Y-91758000D02*
X219402000Y-88710000D01*
D19*
G04 #@! TO.C,Q1*
X129538000Y-46249000D02*
X130638000Y-46249000D01*
X129538000Y-45979000D02*
X129538000Y-46249000D01*
X128038000Y-45979000D02*
X129538000Y-45979000D01*
X129538000Y-52609000D02*
X132368000Y-52609000D01*
X129538000Y-52879000D02*
X129538000Y-52609000D01*
X128038000Y-52879000D02*
X129538000Y-52879000D01*
G04 #@! TO.C,Q2*
X90170000Y-55519000D02*
X91270000Y-55519000D01*
X90170000Y-55249000D02*
X90170000Y-55519000D01*
X88670000Y-55249000D02*
X90170000Y-55249000D01*
X90170000Y-61879000D02*
X93000000Y-61879000D01*
X90170000Y-62149000D02*
X90170000Y-61879000D01*
X88670000Y-62149000D02*
X90170000Y-62149000D01*
G04 #@! TO.C,Q3*
X97155000Y-65424000D02*
X98255000Y-65424000D01*
X97155000Y-65154000D02*
X97155000Y-65424000D01*
X95655000Y-65154000D02*
X97155000Y-65154000D01*
X97155000Y-71784000D02*
X99985000Y-71784000D01*
X97155000Y-72054000D02*
X97155000Y-71784000D01*
X95655000Y-72054000D02*
X97155000Y-72054000D01*
G04 #@! TO.C,Q4*
X101725000Y-77364000D02*
X102825000Y-77364000D01*
X101725000Y-77094000D02*
X101725000Y-77364000D01*
X100225000Y-77094000D02*
X101725000Y-77094000D01*
X101725000Y-83724000D02*
X104555000Y-83724000D01*
X101725000Y-83994000D02*
X101725000Y-83724000D01*
X100225000Y-83994000D02*
X101725000Y-83994000D01*
G04 #@! TO.C,R2*
X132877779Y-141984000D02*
X132552221Y-141984000D01*
X132877779Y-143004000D02*
X132552221Y-143004000D01*
G04 #@! TO.C,R3*
X123823000Y-134203221D02*
X123823000Y-134528779D01*
X124843000Y-134203221D02*
X124843000Y-134528779D01*
G04 #@! TO.C,R4*
X88932221Y-118519000D02*
X89257779Y-118519000D01*
X88932221Y-117499000D02*
X89257779Y-117499000D01*
G04 #@! TO.C,R5*
X88297221Y-114709000D02*
X88622779Y-114709000D01*
X88297221Y-113689000D02*
X88622779Y-113689000D01*
G04 #@! TO.C,R6*
X88297221Y-116614000D02*
X88622779Y-116614000D01*
X88297221Y-115594000D02*
X88622779Y-115594000D01*
G04 #@! TO.C,R7*
X130774221Y-121668000D02*
X131099779Y-121668000D01*
X130774221Y-120648000D02*
X131099779Y-120648000D01*
G04 #@! TO.C,R8*
X130774221Y-120271000D02*
X131099779Y-120271000D01*
X130774221Y-119251000D02*
X131099779Y-119251000D01*
G04 #@! TO.C,R17*
X223915000Y-88181936D02*
X223915000Y-92286064D01*
X227335000Y-88181936D02*
X227335000Y-92286064D01*
G04 #@! TO.C,R18*
X191678779Y-65784000D02*
X191353221Y-65784000D01*
X191678779Y-66804000D02*
X191353221Y-66804000D01*
G04 #@! TO.C,R19*
X188402221Y-72779000D02*
X188727779Y-72779000D01*
X188402221Y-71759000D02*
X188727779Y-71759000D01*
G04 #@! TO.C,R20*
X175643000Y-66304279D02*
X175643000Y-65978721D01*
X174623000Y-66304279D02*
X174623000Y-65978721D01*
G04 #@! TO.C,R21*
X176027779Y-71759000D02*
X175702221Y-71759000D01*
X176027779Y-72779000D02*
X175702221Y-72779000D01*
G04 #@! TO.C,R24*
X104990937Y-109734001D02*
X109095065Y-109734001D01*
X104990937Y-106314001D02*
X109095065Y-106314001D01*
G04 #@! TO.C,R25*
X104990937Y-105844001D02*
X109095065Y-105844001D01*
X104990937Y-102424001D02*
X109095065Y-102424001D01*
G04 #@! TO.C,R26*
X110179000Y-111948779D02*
X110179000Y-111623221D01*
X109159000Y-111948779D02*
X109159000Y-111623221D01*
G04 #@! TO.C,R27*
X104718000Y-111948779D02*
X104718000Y-111623221D01*
X103698000Y-111948779D02*
X103698000Y-111623221D01*
D20*
G04 #@! TO.C,U1*
X133970000Y-135559000D02*
X133970000Y-134159000D01*
X128870000Y-135559000D02*
X128870000Y-139709000D01*
X134020000Y-135559000D02*
X134020000Y-139709000D01*
X128870000Y-135559000D02*
X129015000Y-135559000D01*
X128870000Y-139709000D02*
X129015000Y-139709000D01*
X134020000Y-139709000D02*
X133875000Y-139709000D01*
X134020000Y-135559000D02*
X133970000Y-135559000D01*
G04 #@! TO.C,U3*
X86600000Y-121299000D02*
X85175000Y-121299000D01*
X93850000Y-121074000D02*
X93525000Y-121074000D01*
X93850000Y-128324000D02*
X93525000Y-128324000D01*
X86600000Y-128324000D02*
X86925000Y-128324000D01*
X86600000Y-121074000D02*
X86925000Y-121074000D01*
X86600000Y-128324000D02*
X86600000Y-127999000D01*
X93850000Y-128324000D02*
X93850000Y-127999000D01*
X93850000Y-121074000D02*
X93850000Y-121399000D01*
X86600000Y-121074000D02*
X86600000Y-121299000D01*
D19*
G04 #@! TO.C,U7*
X96475000Y-53167000D02*
X96475000Y-51927000D01*
X95235000Y-53167000D02*
X96475000Y-53167000D01*
X87615000Y-41206000D02*
X96235000Y-41206000D01*
X87615000Y-52927000D02*
X96235000Y-52927000D01*
X96235000Y-52927000D02*
X96235000Y-41206000D01*
X87615000Y-52927000D02*
X87615000Y-41206000D01*
D20*
G04 #@! TO.C,U8*
X109077000Y-119009691D02*
X110477000Y-119009691D01*
X109077000Y-113909691D02*
X104927000Y-113909691D01*
X109077000Y-119059691D02*
X104927000Y-119059691D01*
X109077000Y-113909691D02*
X109077000Y-114054691D01*
X104927000Y-113909691D02*
X104927000Y-114054691D01*
X104927000Y-119059691D02*
X104927000Y-118914691D01*
X109077000Y-119059691D02*
X109077000Y-119009691D01*
D19*
G04 #@! TO.C,F1*
X221935000Y-98324000D02*
X224735000Y-98324000D01*
X221935000Y-98324000D02*
X221935000Y-120824000D01*
X231535000Y-98324000D02*
X231535000Y-120824000D01*
X228735000Y-98324000D02*
X231535000Y-98324000D01*
X228735000Y-120824000D02*
X231535000Y-120824000D01*
X221935000Y-120824000D02*
X224735000Y-120824000D01*
G04 #@! TO.C,U6*
X186085000Y-62229000D02*
X183850000Y-62229000D01*
X186085000Y-67429000D02*
X186085000Y-62229000D01*
X179615000Y-67429000D02*
X186085000Y-67429000D01*
X179615000Y-62229000D02*
X179615000Y-67429000D01*
X181850000Y-62229000D02*
X179615000Y-62229000D01*
X183850000Y-62229000D02*
G75*
G02X181850000Y-62229000I-1000000J0D01*
G01*
G04 #@! TO.C,RN1*
X103962000Y-60703000D02*
X104962000Y-60703000D01*
X103962000Y-64063000D02*
X104962000Y-64063000D01*
G04 #@! TO.C,RN2*
X107772000Y-64063000D02*
X108772000Y-64063000D01*
X107772000Y-60703000D02*
X108772000Y-60703000D01*
G04 #@! TO.C,C6*
X98875000Y-44907221D02*
X98875000Y-45232779D01*
X97855000Y-44907221D02*
X97855000Y-45232779D01*
G04 #@! TO.C,Y1*
X109658000Y-139932000D02*
X109658000Y-140732000D01*
X107258000Y-139932000D02*
X109258000Y-139932000D01*
X107258000Y-140732000D02*
X107258000Y-139932000D01*
X107258000Y-143532000D02*
X107258000Y-142532000D01*
X109258000Y-143532000D02*
X107258000Y-143532000D01*
X109658000Y-142532000D02*
X109658000Y-143532000D01*
X109658000Y-142532000D02*
X110058000Y-142532000D01*
X107258000Y-143732000D02*
X109258000Y-143732000D01*
X109258000Y-139932000D02*
X109658000Y-139932000D01*
X109258000Y-143532000D02*
X109658000Y-143532000D01*
X109258000Y-143732000D02*
X109658000Y-143732000D01*
D20*
G04 #@! TO.C,U2*
X113346000Y-133242000D02*
X113346000Y-133492000D01*
X121096000Y-133242000D02*
X121096000Y-133587000D01*
X121096000Y-145142000D02*
X121096000Y-144797000D01*
X113346000Y-145142000D02*
X113346000Y-144797000D01*
X113346000Y-133242000D02*
X121096000Y-133242000D01*
X113346000Y-145142000D02*
X121096000Y-145142000D01*
X113346000Y-133492000D02*
X111521000Y-133492000D01*
D19*
G04 #@! TO.C,R9*
X96674691Y-117210912D02*
X96674691Y-117536470D01*
X95654691Y-117210912D02*
X95654691Y-117536470D01*
G04 #@! TO.C,R10*
X98579691Y-118099912D02*
X98579691Y-118425470D01*
X97559691Y-118099912D02*
X97559691Y-118425470D01*
G04 #@! TO.C,U9*
D20*
X177825786Y-67931071D02*
X177825786Y-68740595D01*
X177873405Y-68835833D01*
X177921024Y-68883452D01*
X178016262Y-68931071D01*
X178206738Y-68931071D01*
X178301976Y-68883452D01*
X178349595Y-68835833D01*
X178397214Y-68740595D01*
X178397214Y-67931071D01*
X178921024Y-68931071D02*
X179111500Y-68931071D01*
X179206738Y-68883452D01*
X179254357Y-68835833D01*
X179349595Y-68692976D01*
X179397214Y-68502500D01*
X179397214Y-68121548D01*
X179349595Y-68026310D01*
X179301976Y-67978691D01*
X179206738Y-67931071D01*
X179016262Y-67931071D01*
X178921024Y-67978691D01*
X178873405Y-68026310D01*
X178825786Y-68121548D01*
X178825786Y-68359643D01*
X178873405Y-68454881D01*
X178921024Y-68502500D01*
X179016262Y-68550119D01*
X179206738Y-68550119D01*
X179301976Y-68502500D01*
X179349595Y-68454881D01*
X179397214Y-68359643D01*
G04 #@! TO.C,RV1*
X195746761Y-60904380D02*
X195413428Y-60428190D01*
X195175333Y-60904380D02*
X195175333Y-59904380D01*
X195556285Y-59904380D01*
X195651523Y-59952000D01*
X195699142Y-59999619D01*
X195746761Y-60094857D01*
X195746761Y-60237714D01*
X195699142Y-60332952D01*
X195651523Y-60380571D01*
X195556285Y-60428190D01*
X195175333Y-60428190D01*
X196032476Y-59904380D02*
X196365809Y-60904380D01*
X196699142Y-59904380D01*
X197556285Y-60904380D02*
X196984857Y-60904380D01*
X197270571Y-60904380D02*
X197270571Y-59904380D01*
X197175333Y-60047238D01*
X197080095Y-60142476D01*
X196984857Y-60190095D01*
G04 #@! TO.C,J11*
X74120476Y-127214380D02*
X74120476Y-127928666D01*
X74072857Y-128071523D01*
X73977619Y-128166761D01*
X73834761Y-128214380D01*
X73739523Y-128214380D01*
X75120476Y-128214380D02*
X74549047Y-128214380D01*
X74834761Y-128214380D02*
X74834761Y-127214380D01*
X74739523Y-127357238D01*
X74644285Y-127452476D01*
X74549047Y-127500095D01*
X76072857Y-128214380D02*
X75501428Y-128214380D01*
X75787142Y-128214380D02*
X75787142Y-127214380D01*
X75691904Y-127357238D01*
X75596666Y-127452476D01*
X75501428Y-127500095D01*
G04 #@! TO.C,C3*
X121753333Y-129135142D02*
X121705714Y-129182761D01*
X121562857Y-129230380D01*
X121467619Y-129230380D01*
X121324761Y-129182761D01*
X121229523Y-129087523D01*
X121181904Y-128992285D01*
X121134285Y-128801809D01*
X121134285Y-128658952D01*
X121181904Y-128468476D01*
X121229523Y-128373238D01*
X121324761Y-128278000D01*
X121467619Y-128230380D01*
X121562857Y-128230380D01*
X121705714Y-128278000D01*
X121753333Y-128325619D01*
X122086666Y-128230380D02*
X122705714Y-128230380D01*
X122372380Y-128611333D01*
X122515238Y-128611333D01*
X122610476Y-128658952D01*
X122658095Y-128706571D01*
X122705714Y-128801809D01*
X122705714Y-129039904D01*
X122658095Y-129135142D01*
X122610476Y-129182761D01*
X122515238Y-129230380D01*
X122229523Y-129230380D01*
X122134285Y-129182761D01*
X122086666Y-129135142D01*
G04 #@! TO.C,C4*
X130643333Y-131261142D02*
X130595714Y-131308761D01*
X130452857Y-131356380D01*
X130357619Y-131356380D01*
X130214761Y-131308761D01*
X130119523Y-131213523D01*
X130071904Y-131118285D01*
X130024285Y-130927809D01*
X130024285Y-130784952D01*
X130071904Y-130594476D01*
X130119523Y-130499238D01*
X130214761Y-130404000D01*
X130357619Y-130356380D01*
X130452857Y-130356380D01*
X130595714Y-130404000D01*
X130643333Y-130451619D01*
X131500476Y-130689714D02*
X131500476Y-131356380D01*
X131262380Y-130308761D02*
X131024285Y-131023047D01*
X131643333Y-131023047D01*
G04 #@! TO.C,C7*
X97847333Y-126400142D02*
X97799714Y-126447761D01*
X97656857Y-126495380D01*
X97561619Y-126495380D01*
X97418761Y-126447761D01*
X97323523Y-126352523D01*
X97275904Y-126257285D01*
X97228285Y-126066809D01*
X97228285Y-125923952D01*
X97275904Y-125733476D01*
X97323523Y-125638238D01*
X97418761Y-125543000D01*
X97561619Y-125495380D01*
X97656857Y-125495380D01*
X97799714Y-125543000D01*
X97847333Y-125590619D01*
X98180666Y-125495380D02*
X98847333Y-125495380D01*
X98418761Y-126495380D01*
G04 #@! TO.C,C8*
X82099333Y-125257142D02*
X82051714Y-125304761D01*
X81908857Y-125352380D01*
X81813619Y-125352380D01*
X81670761Y-125304761D01*
X81575523Y-125209523D01*
X81527904Y-125114285D01*
X81480285Y-124923809D01*
X81480285Y-124780952D01*
X81527904Y-124590476D01*
X81575523Y-124495238D01*
X81670761Y-124400000D01*
X81813619Y-124352380D01*
X81908857Y-124352380D01*
X82051714Y-124400000D01*
X82099333Y-124447619D01*
X82670761Y-124780952D02*
X82575523Y-124733333D01*
X82527904Y-124685714D01*
X82480285Y-124590476D01*
X82480285Y-124542857D01*
X82527904Y-124447619D01*
X82575523Y-124400000D01*
X82670761Y-124352380D01*
X82861238Y-124352380D01*
X82956476Y-124400000D01*
X83004095Y-124447619D01*
X83051714Y-124542857D01*
X83051714Y-124590476D01*
X83004095Y-124685714D01*
X82956476Y-124733333D01*
X82861238Y-124780952D01*
X82670761Y-124780952D01*
X82575523Y-124828571D01*
X82527904Y-124876190D01*
X82480285Y-124971428D01*
X82480285Y-125161904D01*
X82527904Y-125257142D01*
X82575523Y-125304761D01*
X82670761Y-125352380D01*
X82861238Y-125352380D01*
X82956476Y-125304761D01*
X83004095Y-125257142D01*
X83051714Y-125161904D01*
X83051714Y-124971428D01*
X83004095Y-124876190D01*
X82956476Y-124828571D01*
X82861238Y-124780952D01*
G04 #@! TO.C,C15*
X101211142Y-43029142D02*
X101163523Y-43076761D01*
X101020666Y-43124380D01*
X100925428Y-43124380D01*
X100782571Y-43076761D01*
X100687333Y-42981523D01*
X100639714Y-42886285D01*
X100592095Y-42695809D01*
X100592095Y-42552952D01*
X100639714Y-42362476D01*
X100687333Y-42267238D01*
X100782571Y-42172000D01*
X100925428Y-42124380D01*
X101020666Y-42124380D01*
X101163523Y-42172000D01*
X101211142Y-42219619D01*
X102163523Y-43124380D02*
X101592095Y-43124380D01*
X101877809Y-43124380D02*
X101877809Y-42124380D01*
X101782571Y-42267238D01*
X101687333Y-42362476D01*
X101592095Y-42410095D01*
X103068285Y-42124380D02*
X102592095Y-42124380D01*
X102544476Y-42600571D01*
X102592095Y-42552952D01*
X102687333Y-42505333D01*
X102925428Y-42505333D01*
X103020666Y-42552952D01*
X103068285Y-42600571D01*
X103115904Y-42695809D01*
X103115904Y-42933904D01*
X103068285Y-43029142D01*
X103020666Y-43076761D01*
X102925428Y-43124380D01*
X102687333Y-43124380D01*
X102592095Y-43076761D01*
X102544476Y-43029142D01*
G04 #@! TO.C,C18*
X106261142Y-111033142D02*
X106213523Y-111080761D01*
X106070666Y-111128380D01*
X105975428Y-111128380D01*
X105832571Y-111080761D01*
X105737333Y-110985523D01*
X105689714Y-110890285D01*
X105642095Y-110699809D01*
X105642095Y-110556952D01*
X105689714Y-110366476D01*
X105737333Y-110271238D01*
X105832571Y-110176000D01*
X105975428Y-110128380D01*
X106070666Y-110128380D01*
X106213523Y-110176000D01*
X106261142Y-110223619D01*
X107213523Y-111128380D02*
X106642095Y-111128380D01*
X106927809Y-111128380D02*
X106927809Y-110128380D01*
X106832571Y-110271238D01*
X106737333Y-110366476D01*
X106642095Y-110414095D01*
X107784952Y-110556952D02*
X107689714Y-110509333D01*
X107642095Y-110461714D01*
X107594476Y-110366476D01*
X107594476Y-110318857D01*
X107642095Y-110223619D01*
X107689714Y-110176000D01*
X107784952Y-110128380D01*
X107975428Y-110128380D01*
X108070666Y-110176000D01*
X108118285Y-110223619D01*
X108165904Y-110318857D01*
X108165904Y-110366476D01*
X108118285Y-110461714D01*
X108070666Y-110509333D01*
X107975428Y-110556952D01*
X107784952Y-110556952D01*
X107689714Y-110604571D01*
X107642095Y-110652190D01*
X107594476Y-110747428D01*
X107594476Y-110937904D01*
X107642095Y-111033142D01*
X107689714Y-111080761D01*
X107784952Y-111128380D01*
X107975428Y-111128380D01*
X108070666Y-111080761D01*
X108118285Y-111033142D01*
X108165904Y-110937904D01*
X108165904Y-110747428D01*
X108118285Y-110652190D01*
X108070666Y-110604571D01*
X107975428Y-110556952D01*
G04 #@! TO.C,C19*
X103962833Y-117069833D02*
X103915214Y-117117452D01*
X103772357Y-117165071D01*
X103677119Y-117165071D01*
X103534262Y-117117452D01*
X103439024Y-117022214D01*
X103391405Y-116926976D01*
X103343786Y-116736500D01*
X103343786Y-116593643D01*
X103391405Y-116403167D01*
X103439024Y-116307929D01*
X103534262Y-116212691D01*
X103677119Y-116165071D01*
X103772357Y-116165071D01*
X103915214Y-116212691D01*
X103962833Y-116260310D01*
X104915214Y-117165071D02*
X104343786Y-117165071D01*
X104629500Y-117165071D02*
X104629500Y-116165071D01*
X104534262Y-116307929D01*
X104439024Y-116403167D01*
X104343786Y-116450786D01*
X105391405Y-117165071D02*
X105581881Y-117165071D01*
X105677119Y-117117452D01*
X105724738Y-117069833D01*
X105819976Y-116926976D01*
X105867595Y-116736500D01*
X105867595Y-116355548D01*
X105819976Y-116260310D01*
X105772357Y-116212691D01*
X105677119Y-116165071D01*
X105486643Y-116165071D01*
X105391405Y-116212691D01*
X105343786Y-116260310D01*
X105296167Y-116355548D01*
X105296167Y-116593643D01*
X105343786Y-116688881D01*
X105391405Y-116736500D01*
X105486643Y-116784119D01*
X105677119Y-116784119D01*
X105772357Y-116736500D01*
X105819976Y-116688881D01*
X105867595Y-116593643D01*
G04 #@! TO.C,D1*
X90925904Y-111509380D02*
X90925904Y-110509380D01*
X91164000Y-110509380D01*
X91306857Y-110557000D01*
X91402095Y-110652238D01*
X91449714Y-110747476D01*
X91497333Y-110937952D01*
X91497333Y-111080809D01*
X91449714Y-111271285D01*
X91402095Y-111366523D01*
X91306857Y-111461761D01*
X91164000Y-111509380D01*
X90925904Y-111509380D01*
X92449714Y-111509380D02*
X91878285Y-111509380D01*
X92164000Y-111509380D02*
X92164000Y-110509380D01*
X92068761Y-110652238D01*
X91973523Y-110747476D01*
X91878285Y-110795095D01*
G04 #@! TO.C,D2*
X90896904Y-113033380D02*
X90896904Y-112033380D01*
X91135000Y-112033380D01*
X91277857Y-112081000D01*
X91373095Y-112176238D01*
X91420714Y-112271476D01*
X91468333Y-112461952D01*
X91468333Y-112604809D01*
X91420714Y-112795285D01*
X91373095Y-112890523D01*
X91277857Y-112985761D01*
X91135000Y-113033380D01*
X90896904Y-113033380D01*
X91849285Y-112128619D02*
X91896904Y-112081000D01*
X91992142Y-112033380D01*
X92230238Y-112033380D01*
X92325476Y-112081000D01*
X92373095Y-112128619D01*
X92420714Y-112223857D01*
X92420714Y-112319095D01*
X92373095Y-112461952D01*
X91801666Y-113033380D01*
X92420714Y-113033380D01*
G04 #@! TO.C,D3*
X126329904Y-41061380D02*
X126329904Y-40061380D01*
X126568000Y-40061380D01*
X126710857Y-40109000D01*
X126806095Y-40204238D01*
X126853714Y-40299476D01*
X126901333Y-40489952D01*
X126901333Y-40632809D01*
X126853714Y-40823285D01*
X126806095Y-40918523D01*
X126710857Y-41013761D01*
X126568000Y-41061380D01*
X126329904Y-41061380D01*
X127234666Y-40061380D02*
X127853714Y-40061380D01*
X127520380Y-40442333D01*
X127663238Y-40442333D01*
X127758476Y-40489952D01*
X127806095Y-40537571D01*
X127853714Y-40632809D01*
X127853714Y-40870904D01*
X127806095Y-40966142D01*
X127758476Y-41013761D01*
X127663238Y-41061380D01*
X127377523Y-41061380D01*
X127282285Y-41013761D01*
X127234666Y-40966142D01*
G04 #@! TO.C,D4*
X74386904Y-56301380D02*
X74386904Y-55301380D01*
X74625000Y-55301380D01*
X74767857Y-55349000D01*
X74863095Y-55444238D01*
X74910714Y-55539476D01*
X74958333Y-55729952D01*
X74958333Y-55872809D01*
X74910714Y-56063285D01*
X74863095Y-56158523D01*
X74767857Y-56253761D01*
X74625000Y-56301380D01*
X74386904Y-56301380D01*
X75815476Y-55634714D02*
X75815476Y-56301380D01*
X75577380Y-55253761D02*
X75339285Y-55968047D01*
X75958333Y-55968047D01*
G04 #@! TO.C,D5*
X81371904Y-66461380D02*
X81371904Y-65461380D01*
X81610000Y-65461380D01*
X81752857Y-65509000D01*
X81848095Y-65604238D01*
X81895714Y-65699476D01*
X81943333Y-65889952D01*
X81943333Y-66032809D01*
X81895714Y-66223285D01*
X81848095Y-66318523D01*
X81752857Y-66413761D01*
X81610000Y-66461380D01*
X81371904Y-66461380D01*
X82848095Y-65461380D02*
X82371904Y-65461380D01*
X82324285Y-65937571D01*
X82371904Y-65889952D01*
X82467142Y-65842333D01*
X82705238Y-65842333D01*
X82800476Y-65889952D01*
X82848095Y-65937571D01*
X82895714Y-66032809D01*
X82895714Y-66270904D01*
X82848095Y-66366142D01*
X82800476Y-66413761D01*
X82705238Y-66461380D01*
X82467142Y-66461380D01*
X82371904Y-66413761D01*
X82324285Y-66366142D01*
G04 #@! TO.C,D6*
X85718904Y-75314380D02*
X85718904Y-74314380D01*
X85957000Y-74314380D01*
X86099857Y-74362000D01*
X86195095Y-74457238D01*
X86242714Y-74552476D01*
X86290333Y-74742952D01*
X86290333Y-74885809D01*
X86242714Y-75076285D01*
X86195095Y-75171523D01*
X86099857Y-75266761D01*
X85957000Y-75314380D01*
X85718904Y-75314380D01*
X87147476Y-74314380D02*
X86957000Y-74314380D01*
X86861761Y-74362000D01*
X86814142Y-74409619D01*
X86718904Y-74552476D01*
X86671285Y-74742952D01*
X86671285Y-75123904D01*
X86718904Y-75219142D01*
X86766523Y-75266761D01*
X86861761Y-75314380D01*
X87052238Y-75314380D01*
X87147476Y-75266761D01*
X87195095Y-75219142D01*
X87242714Y-75123904D01*
X87242714Y-74885809D01*
X87195095Y-74790571D01*
X87147476Y-74742952D01*
X87052238Y-74695333D01*
X86861761Y-74695333D01*
X86766523Y-74742952D01*
X86718904Y-74790571D01*
X86671285Y-74885809D01*
G04 #@! TO.C,J15*
X78438476Y-112228380D02*
X78438476Y-112942666D01*
X78390857Y-113085523D01*
X78295619Y-113180761D01*
X78152761Y-113228380D01*
X78057523Y-113228380D01*
X79438476Y-113228380D02*
X78867047Y-113228380D01*
X79152761Y-113228380D02*
X79152761Y-112228380D01*
X79057523Y-112371238D01*
X78962285Y-112466476D01*
X78867047Y-112514095D01*
X80343238Y-112228380D02*
X79867047Y-112228380D01*
X79819428Y-112704571D01*
X79867047Y-112656952D01*
X79962285Y-112609333D01*
X80200380Y-112609333D01*
X80295619Y-112656952D01*
X80343238Y-112704571D01*
X80390857Y-112799809D01*
X80390857Y-113037904D01*
X80343238Y-113133142D01*
X80295619Y-113180761D01*
X80200380Y-113228380D01*
X79962285Y-113228380D01*
X79867047Y-113180761D01*
X79819428Y-113133142D01*
G04 #@! TO.C,L1*
X217862333Y-90681380D02*
X217386142Y-90681380D01*
X217386142Y-89681380D01*
X218719476Y-90681380D02*
X218148047Y-90681380D01*
X218433761Y-90681380D02*
X218433761Y-89681380D01*
X218338523Y-89824238D01*
X218243285Y-89919476D01*
X218148047Y-89967095D01*
G04 #@! TO.C,Q1*
X130430761Y-45945619D02*
X130335523Y-45898000D01*
X130240285Y-45802761D01*
X130097428Y-45659904D01*
X130002190Y-45612285D01*
X129906952Y-45612285D01*
X129954571Y-45850380D02*
X129859333Y-45802761D01*
X129764095Y-45707523D01*
X129716476Y-45517047D01*
X129716476Y-45183714D01*
X129764095Y-44993238D01*
X129859333Y-44898000D01*
X129954571Y-44850380D01*
X130145047Y-44850380D01*
X130240285Y-44898000D01*
X130335523Y-44993238D01*
X130383142Y-45183714D01*
X130383142Y-45517047D01*
X130335523Y-45707523D01*
X130240285Y-45802761D01*
X130145047Y-45850380D01*
X129954571Y-45850380D01*
X131335523Y-45850380D02*
X130764095Y-45850380D01*
X131049809Y-45850380D02*
X131049809Y-44850380D01*
X130954571Y-44993238D01*
X130859333Y-45088476D01*
X130764095Y-45136095D01*
G04 #@! TO.C,Q2*
X90933761Y-55216619D02*
X90838523Y-55169000D01*
X90743285Y-55073761D01*
X90600428Y-54930904D01*
X90505190Y-54883285D01*
X90409952Y-54883285D01*
X90457571Y-55121380D02*
X90362333Y-55073761D01*
X90267095Y-54978523D01*
X90219476Y-54788047D01*
X90219476Y-54454714D01*
X90267095Y-54264238D01*
X90362333Y-54169000D01*
X90457571Y-54121380D01*
X90648047Y-54121380D01*
X90743285Y-54169000D01*
X90838523Y-54264238D01*
X90886142Y-54454714D01*
X90886142Y-54788047D01*
X90838523Y-54978523D01*
X90743285Y-55073761D01*
X90648047Y-55121380D01*
X90457571Y-55121380D01*
X91267095Y-54216619D02*
X91314714Y-54169000D01*
X91409952Y-54121380D01*
X91648047Y-54121380D01*
X91743285Y-54169000D01*
X91790904Y-54216619D01*
X91838523Y-54311857D01*
X91838523Y-54407095D01*
X91790904Y-54549952D01*
X91219476Y-55121380D01*
X91838523Y-55121380D01*
G04 #@! TO.C,Q3*
X98045761Y-65122619D02*
X97950523Y-65075000D01*
X97855285Y-64979761D01*
X97712428Y-64836904D01*
X97617190Y-64789285D01*
X97521952Y-64789285D01*
X97569571Y-65027380D02*
X97474333Y-64979761D01*
X97379095Y-64884523D01*
X97331476Y-64694047D01*
X97331476Y-64360714D01*
X97379095Y-64170238D01*
X97474333Y-64075000D01*
X97569571Y-64027380D01*
X97760047Y-64027380D01*
X97855285Y-64075000D01*
X97950523Y-64170238D01*
X97998142Y-64360714D01*
X97998142Y-64694047D01*
X97950523Y-64884523D01*
X97855285Y-64979761D01*
X97760047Y-65027380D01*
X97569571Y-65027380D01*
X98331476Y-64027380D02*
X98950523Y-64027380D01*
X98617190Y-64408333D01*
X98760047Y-64408333D01*
X98855285Y-64455952D01*
X98902904Y-64503571D01*
X98950523Y-64598809D01*
X98950523Y-64836904D01*
X98902904Y-64932142D01*
X98855285Y-64979761D01*
X98760047Y-65027380D01*
X98474333Y-65027380D01*
X98379095Y-64979761D01*
X98331476Y-64932142D01*
G04 #@! TO.C,Q4*
X102744761Y-76933619D02*
X102649523Y-76886000D01*
X102554285Y-76790761D01*
X102411428Y-76647904D01*
X102316190Y-76600285D01*
X102220952Y-76600285D01*
X102268571Y-76838380D02*
X102173333Y-76790761D01*
X102078095Y-76695523D01*
X102030476Y-76505047D01*
X102030476Y-76171714D01*
X102078095Y-75981238D01*
X102173333Y-75886000D01*
X102268571Y-75838380D01*
X102459047Y-75838380D01*
X102554285Y-75886000D01*
X102649523Y-75981238D01*
X102697142Y-76171714D01*
X102697142Y-76505047D01*
X102649523Y-76695523D01*
X102554285Y-76790761D01*
X102459047Y-76838380D01*
X102268571Y-76838380D01*
X103554285Y-76171714D02*
X103554285Y-76838380D01*
X103316190Y-75790761D02*
X103078095Y-76505047D01*
X103697142Y-76505047D01*
G04 #@! TO.C,R2*
X132548333Y-144376380D02*
X132215000Y-143900190D01*
X131976904Y-144376380D02*
X131976904Y-143376380D01*
X132357857Y-143376380D01*
X132453095Y-143424000D01*
X132500714Y-143471619D01*
X132548333Y-143566857D01*
X132548333Y-143709714D01*
X132500714Y-143804952D01*
X132453095Y-143852571D01*
X132357857Y-143900190D01*
X131976904Y-143900190D01*
X132929285Y-143471619D02*
X132976904Y-143424000D01*
X133072142Y-143376380D01*
X133310238Y-143376380D01*
X133405476Y-143424000D01*
X133453095Y-143471619D01*
X133500714Y-143566857D01*
X133500714Y-143662095D01*
X133453095Y-143804952D01*
X132881666Y-144376380D01*
X133500714Y-144376380D01*
G04 #@! TO.C,R3*
X124293333Y-132532380D02*
X123960000Y-132056190D01*
X123721904Y-132532380D02*
X123721904Y-131532380D01*
X124102857Y-131532380D01*
X124198095Y-131580000D01*
X124245714Y-131627619D01*
X124293333Y-131722857D01*
X124293333Y-131865714D01*
X124245714Y-131960952D01*
X124198095Y-132008571D01*
X124102857Y-132056190D01*
X123721904Y-132056190D01*
X124626666Y-131532380D02*
X125245714Y-131532380D01*
X124912380Y-131913333D01*
X125055238Y-131913333D01*
X125150476Y-131960952D01*
X125198095Y-132008571D01*
X125245714Y-132103809D01*
X125245714Y-132341904D01*
X125198095Y-132437142D01*
X125150476Y-132484761D01*
X125055238Y-132532380D01*
X124769523Y-132532380D01*
X124674285Y-132484761D01*
X124626666Y-132437142D01*
G04 #@! TO.C,R4*
X91497333Y-118494380D02*
X91164000Y-118018190D01*
X90925904Y-118494380D02*
X90925904Y-117494380D01*
X91306857Y-117494380D01*
X91402095Y-117542000D01*
X91449714Y-117589619D01*
X91497333Y-117684857D01*
X91497333Y-117827714D01*
X91449714Y-117922952D01*
X91402095Y-117970571D01*
X91306857Y-118018190D01*
X90925904Y-118018190D01*
X92354476Y-117827714D02*
X92354476Y-118494380D01*
X92116380Y-117446761D02*
X91878285Y-118161047D01*
X92497333Y-118161047D01*
G04 #@! TO.C,R5*
X88322333Y-111509380D02*
X87989000Y-111033190D01*
X87750904Y-111509380D02*
X87750904Y-110509380D01*
X88131857Y-110509380D01*
X88227095Y-110557000D01*
X88274714Y-110604619D01*
X88322333Y-110699857D01*
X88322333Y-110842714D01*
X88274714Y-110937952D01*
X88227095Y-110985571D01*
X88131857Y-111033190D01*
X87750904Y-111033190D01*
X89227095Y-110509380D02*
X88750904Y-110509380D01*
X88703285Y-110985571D01*
X88750904Y-110937952D01*
X88846142Y-110890333D01*
X89084238Y-110890333D01*
X89179476Y-110937952D01*
X89227095Y-110985571D01*
X89274714Y-111080809D01*
X89274714Y-111318904D01*
X89227095Y-111414142D01*
X89179476Y-111461761D01*
X89084238Y-111509380D01*
X88846142Y-111509380D01*
X88750904Y-111461761D01*
X88703285Y-111414142D01*
G04 #@! TO.C,R6*
X88322333Y-113033380D02*
X87989000Y-112557190D01*
X87750904Y-113033380D02*
X87750904Y-112033380D01*
X88131857Y-112033380D01*
X88227095Y-112081000D01*
X88274714Y-112128619D01*
X88322333Y-112223857D01*
X88322333Y-112366714D01*
X88274714Y-112461952D01*
X88227095Y-112509571D01*
X88131857Y-112557190D01*
X87750904Y-112557190D01*
X89179476Y-112033380D02*
X88989000Y-112033380D01*
X88893761Y-112081000D01*
X88846142Y-112128619D01*
X88750904Y-112271476D01*
X88703285Y-112461952D01*
X88703285Y-112842904D01*
X88750904Y-112938142D01*
X88798523Y-112985761D01*
X88893761Y-113033380D01*
X89084238Y-113033380D01*
X89179476Y-112985761D01*
X89227095Y-112938142D01*
X89274714Y-112842904D01*
X89274714Y-112604809D01*
X89227095Y-112509571D01*
X89179476Y-112461952D01*
X89084238Y-112414333D01*
X88893761Y-112414333D01*
X88798523Y-112461952D01*
X88750904Y-112509571D01*
X88703285Y-112604809D01*
G04 #@! TO.C,R7*
X130770333Y-123388380D02*
X130437000Y-122912190D01*
X130198904Y-123388380D02*
X130198904Y-122388380D01*
X130579857Y-122388380D01*
X130675095Y-122436000D01*
X130722714Y-122483619D01*
X130770333Y-122578857D01*
X130770333Y-122721714D01*
X130722714Y-122816952D01*
X130675095Y-122864571D01*
X130579857Y-122912190D01*
X130198904Y-122912190D01*
X131103666Y-122388380D02*
X131770333Y-122388380D01*
X131341761Y-123388380D01*
G04 #@! TO.C,R8*
X130770333Y-118562380D02*
X130437000Y-118086190D01*
X130198904Y-118562380D02*
X130198904Y-117562380D01*
X130579857Y-117562380D01*
X130675095Y-117610000D01*
X130722714Y-117657619D01*
X130770333Y-117752857D01*
X130770333Y-117895714D01*
X130722714Y-117990952D01*
X130675095Y-118038571D01*
X130579857Y-118086190D01*
X130198904Y-118086190D01*
X131341761Y-117990952D02*
X131246523Y-117943333D01*
X131198904Y-117895714D01*
X131151285Y-117800476D01*
X131151285Y-117752857D01*
X131198904Y-117657619D01*
X131246523Y-117610000D01*
X131341761Y-117562380D01*
X131532238Y-117562380D01*
X131627476Y-117610000D01*
X131675095Y-117657619D01*
X131722714Y-117752857D01*
X131722714Y-117800476D01*
X131675095Y-117895714D01*
X131627476Y-117943333D01*
X131532238Y-117990952D01*
X131341761Y-117990952D01*
X131246523Y-118038571D01*
X131198904Y-118086190D01*
X131151285Y-118181428D01*
X131151285Y-118371904D01*
X131198904Y-118467142D01*
X131246523Y-118514761D01*
X131341761Y-118562380D01*
X131532238Y-118562380D01*
X131627476Y-118514761D01*
X131675095Y-118467142D01*
X131722714Y-118371904D01*
X131722714Y-118181428D01*
X131675095Y-118086190D01*
X131627476Y-118038571D01*
X131532238Y-117990952D01*
G04 #@! TO.C,R17*
X228816142Y-90686380D02*
X228482809Y-90210190D01*
X228244714Y-90686380D02*
X228244714Y-89686380D01*
X228625666Y-89686380D01*
X228720904Y-89734000D01*
X228768523Y-89781619D01*
X228816142Y-89876857D01*
X228816142Y-90019714D01*
X228768523Y-90114952D01*
X228720904Y-90162571D01*
X228625666Y-90210190D01*
X228244714Y-90210190D01*
X229768523Y-90686380D02*
X229197095Y-90686380D01*
X229482809Y-90686380D02*
X229482809Y-89686380D01*
X229387571Y-89829238D01*
X229292333Y-89924476D01*
X229197095Y-89972095D01*
X230101857Y-89686380D02*
X230768523Y-89686380D01*
X230339952Y-90686380D01*
G04 #@! TO.C,R18*
X190873142Y-65222380D02*
X190539809Y-64746190D01*
X190301714Y-65222380D02*
X190301714Y-64222380D01*
X190682666Y-64222380D01*
X190777904Y-64270000D01*
X190825523Y-64317619D01*
X190873142Y-64412857D01*
X190873142Y-64555714D01*
X190825523Y-64650952D01*
X190777904Y-64698571D01*
X190682666Y-64746190D01*
X190301714Y-64746190D01*
X191825523Y-65222380D02*
X191254095Y-65222380D01*
X191539809Y-65222380D02*
X191539809Y-64222380D01*
X191444571Y-64365238D01*
X191349333Y-64460476D01*
X191254095Y-64508095D01*
X192396952Y-64650952D02*
X192301714Y-64603333D01*
X192254095Y-64555714D01*
X192206476Y-64460476D01*
X192206476Y-64412857D01*
X192254095Y-64317619D01*
X192301714Y-64270000D01*
X192396952Y-64222380D01*
X192587428Y-64222380D01*
X192682666Y-64270000D01*
X192730285Y-64317619D01*
X192777904Y-64412857D01*
X192777904Y-64460476D01*
X192730285Y-64555714D01*
X192682666Y-64603333D01*
X192587428Y-64650952D01*
X192396952Y-64650952D01*
X192301714Y-64698571D01*
X192254095Y-64746190D01*
X192206476Y-64841428D01*
X192206476Y-65031904D01*
X192254095Y-65127142D01*
X192301714Y-65174761D01*
X192396952Y-65222380D01*
X192587428Y-65222380D01*
X192682666Y-65174761D01*
X192730285Y-65127142D01*
X192777904Y-65031904D01*
X192777904Y-64841428D01*
X192730285Y-64746190D01*
X192682666Y-64698571D01*
X192587428Y-64650952D01*
G04 #@! TO.C,R19*
X187922142Y-71291380D02*
X187588809Y-70815190D01*
X187350714Y-71291380D02*
X187350714Y-70291380D01*
X187731666Y-70291380D01*
X187826904Y-70339000D01*
X187874523Y-70386619D01*
X187922142Y-70481857D01*
X187922142Y-70624714D01*
X187874523Y-70719952D01*
X187826904Y-70767571D01*
X187731666Y-70815190D01*
X187350714Y-70815190D01*
X188874523Y-71291380D02*
X188303095Y-71291380D01*
X188588809Y-71291380D02*
X188588809Y-70291380D01*
X188493571Y-70434238D01*
X188398333Y-70529476D01*
X188303095Y-70577095D01*
X189350714Y-71291380D02*
X189541190Y-71291380D01*
X189636428Y-71243761D01*
X189684047Y-71196142D01*
X189779285Y-71053285D01*
X189826904Y-70862809D01*
X189826904Y-70481857D01*
X189779285Y-70386619D01*
X189731666Y-70339000D01*
X189636428Y-70291380D01*
X189445952Y-70291380D01*
X189350714Y-70339000D01*
X189303095Y-70386619D01*
X189255476Y-70481857D01*
X189255476Y-70719952D01*
X189303095Y-70815190D01*
X189350714Y-70862809D01*
X189445952Y-70910428D01*
X189636428Y-70910428D01*
X189731666Y-70862809D01*
X189779285Y-70815190D01*
X189826904Y-70719952D01*
G04 #@! TO.C,R20*
X172102833Y-66645071D02*
X171769500Y-66168881D01*
X171531405Y-66645071D02*
X171531405Y-65645071D01*
X171912357Y-65645071D01*
X172007595Y-65692691D01*
X172055214Y-65740310D01*
X172102833Y-65835548D01*
X172102833Y-65978405D01*
X172055214Y-66073643D01*
X172007595Y-66121262D01*
X171912357Y-66168881D01*
X171531405Y-66168881D01*
X172483786Y-65740310D02*
X172531405Y-65692691D01*
X172626643Y-65645071D01*
X172864738Y-65645071D01*
X172959976Y-65692691D01*
X173007595Y-65740310D01*
X173055214Y-65835548D01*
X173055214Y-65930786D01*
X173007595Y-66073643D01*
X172436167Y-66645071D01*
X173055214Y-66645071D01*
X173674262Y-65645071D02*
X173769500Y-65645071D01*
X173864738Y-65692691D01*
X173912357Y-65740310D01*
X173959976Y-65835548D01*
X174007595Y-66026024D01*
X174007595Y-66264119D01*
X173959976Y-66454595D01*
X173912357Y-66549833D01*
X173864738Y-66597452D01*
X173769500Y-66645071D01*
X173674262Y-66645071D01*
X173579024Y-66597452D01*
X173531405Y-66549833D01*
X173483786Y-66454595D01*
X173436167Y-66264119D01*
X173436167Y-66026024D01*
X173483786Y-65835548D01*
X173531405Y-65740310D01*
X173579024Y-65692691D01*
X173674262Y-65645071D01*
G04 #@! TO.C,R21*
X175150833Y-71217071D02*
X174817500Y-70740881D01*
X174579405Y-71217071D02*
X174579405Y-70217071D01*
X174960357Y-70217071D01*
X175055595Y-70264691D01*
X175103214Y-70312310D01*
X175150833Y-70407548D01*
X175150833Y-70550405D01*
X175103214Y-70645643D01*
X175055595Y-70693262D01*
X174960357Y-70740881D01*
X174579405Y-70740881D01*
X175531786Y-70312310D02*
X175579405Y-70264691D01*
X175674643Y-70217071D01*
X175912738Y-70217071D01*
X176007976Y-70264691D01*
X176055595Y-70312310D01*
X176103214Y-70407548D01*
X176103214Y-70502786D01*
X176055595Y-70645643D01*
X175484167Y-71217071D01*
X176103214Y-71217071D01*
X177055595Y-71217071D02*
X176484167Y-71217071D01*
X176769881Y-71217071D02*
X176769881Y-70217071D01*
X176674643Y-70359929D01*
X176579405Y-70455167D01*
X176484167Y-70502786D01*
G04 #@! TO.C,R24*
X113403142Y-108461380D02*
X113069809Y-107985190D01*
X112831714Y-108461380D02*
X112831714Y-107461380D01*
X113212666Y-107461380D01*
X113307904Y-107509000D01*
X113355523Y-107556619D01*
X113403142Y-107651857D01*
X113403142Y-107794714D01*
X113355523Y-107889952D01*
X113307904Y-107937571D01*
X113212666Y-107985190D01*
X112831714Y-107985190D01*
X113784095Y-107556619D02*
X113831714Y-107509000D01*
X113926952Y-107461380D01*
X114165047Y-107461380D01*
X114260285Y-107509000D01*
X114307904Y-107556619D01*
X114355523Y-107651857D01*
X114355523Y-107747095D01*
X114307904Y-107889952D01*
X113736476Y-108461380D01*
X114355523Y-108461380D01*
X115212666Y-107794714D02*
X115212666Y-108461380D01*
X114974571Y-107413761D02*
X114736476Y-108128047D01*
X115355523Y-108128047D01*
G04 #@! TO.C,R25*
X113403142Y-104651380D02*
X113069809Y-104175190D01*
X112831714Y-104651380D02*
X112831714Y-103651380D01*
X113212666Y-103651380D01*
X113307904Y-103699000D01*
X113355523Y-103746619D01*
X113403142Y-103841857D01*
X113403142Y-103984714D01*
X113355523Y-104079952D01*
X113307904Y-104127571D01*
X113212666Y-104175190D01*
X112831714Y-104175190D01*
X113784095Y-103746619D02*
X113831714Y-103699000D01*
X113926952Y-103651380D01*
X114165047Y-103651380D01*
X114260285Y-103699000D01*
X114307904Y-103746619D01*
X114355523Y-103841857D01*
X114355523Y-103937095D01*
X114307904Y-104079952D01*
X113736476Y-104651380D01*
X114355523Y-104651380D01*
X115260285Y-103651380D02*
X114784095Y-103651380D01*
X114736476Y-104127571D01*
X114784095Y-104079952D01*
X114879333Y-104032333D01*
X115117428Y-104032333D01*
X115212666Y-104079952D01*
X115260285Y-104127571D01*
X115307904Y-104222809D01*
X115307904Y-104460904D01*
X115260285Y-104556142D01*
X115212666Y-104603761D01*
X115117428Y-104651380D01*
X114879333Y-104651380D01*
X114784095Y-104603761D01*
X114736476Y-104556142D01*
G04 #@! TO.C,R26*
X111371142Y-111196380D02*
X111037809Y-110720190D01*
X110799714Y-111196380D02*
X110799714Y-110196380D01*
X111180666Y-110196380D01*
X111275904Y-110244000D01*
X111323523Y-110291619D01*
X111371142Y-110386857D01*
X111371142Y-110529714D01*
X111323523Y-110624952D01*
X111275904Y-110672571D01*
X111180666Y-110720190D01*
X110799714Y-110720190D01*
X111752095Y-110291619D02*
X111799714Y-110244000D01*
X111894952Y-110196380D01*
X112133047Y-110196380D01*
X112228285Y-110244000D01*
X112275904Y-110291619D01*
X112323523Y-110386857D01*
X112323523Y-110482095D01*
X112275904Y-110624952D01*
X111704476Y-111196380D01*
X112323523Y-111196380D01*
X113180666Y-110196380D02*
X112990190Y-110196380D01*
X112894952Y-110244000D01*
X112847333Y-110291619D01*
X112752095Y-110434476D01*
X112704476Y-110624952D01*
X112704476Y-111005904D01*
X112752095Y-111101142D01*
X112799714Y-111148761D01*
X112894952Y-111196380D01*
X113085428Y-111196380D01*
X113180666Y-111148761D01*
X113228285Y-111101142D01*
X113275904Y-111005904D01*
X113275904Y-110767809D01*
X113228285Y-110672571D01*
X113180666Y-110624952D01*
X113085428Y-110577333D01*
X112894952Y-110577333D01*
X112799714Y-110624952D01*
X112752095Y-110672571D01*
X112704476Y-110767809D01*
G04 #@! TO.C,R27*
X101435142Y-111196380D02*
X101101809Y-110720190D01*
X100863714Y-111196380D02*
X100863714Y-110196380D01*
X101244666Y-110196380D01*
X101339904Y-110244000D01*
X101387523Y-110291619D01*
X101435142Y-110386857D01*
X101435142Y-110529714D01*
X101387523Y-110624952D01*
X101339904Y-110672571D01*
X101244666Y-110720190D01*
X100863714Y-110720190D01*
X101816095Y-110291619D02*
X101863714Y-110244000D01*
X101958952Y-110196380D01*
X102197047Y-110196380D01*
X102292285Y-110244000D01*
X102339904Y-110291619D01*
X102387523Y-110386857D01*
X102387523Y-110482095D01*
X102339904Y-110624952D01*
X101768476Y-111196380D01*
X102387523Y-111196380D01*
X102720857Y-110196380D02*
X103387523Y-110196380D01*
X102958952Y-111196380D01*
G04 #@! TO.C,U1*
X134874095Y-137086380D02*
X134874095Y-137895904D01*
X134921714Y-137991142D01*
X134969333Y-138038761D01*
X135064571Y-138086380D01*
X135255047Y-138086380D01*
X135350285Y-138038761D01*
X135397904Y-137991142D01*
X135445523Y-137895904D01*
X135445523Y-137086380D01*
X136445523Y-138086380D02*
X135874095Y-138086380D01*
X136159809Y-138086380D02*
X136159809Y-137086380D01*
X136064571Y-137229238D01*
X135969333Y-137324476D01*
X135874095Y-137372095D01*
G04 #@! TO.C,U3*
X93980095Y-119653380D02*
X93980095Y-120462904D01*
X94027714Y-120558142D01*
X94075333Y-120605761D01*
X94170571Y-120653380D01*
X94361047Y-120653380D01*
X94456285Y-120605761D01*
X94503904Y-120558142D01*
X94551523Y-120462904D01*
X94551523Y-119653380D01*
X94932476Y-119653380D02*
X95551523Y-119653380D01*
X95218190Y-120034333D01*
X95361047Y-120034333D01*
X95456285Y-120081952D01*
X95503904Y-120129571D01*
X95551523Y-120224809D01*
X95551523Y-120462904D01*
X95503904Y-120558142D01*
X95456285Y-120605761D01*
X95361047Y-120653380D01*
X95075333Y-120653380D01*
X94980095Y-120605761D01*
X94932476Y-120558142D01*
G04 #@! TO.C,U7*
X87854095Y-39770380D02*
X87854095Y-40579904D01*
X87901714Y-40675142D01*
X87949333Y-40722761D01*
X88044571Y-40770380D01*
X88235047Y-40770380D01*
X88330285Y-40722761D01*
X88377904Y-40675142D01*
X88425523Y-40579904D01*
X88425523Y-39770380D01*
X88806476Y-39770380D02*
X89473142Y-39770380D01*
X89044571Y-40770380D01*
G04 #@! TO.C,U8*
X106240095Y-119437071D02*
X106240095Y-120246595D01*
X106287714Y-120341833D01*
X106335333Y-120389452D01*
X106430571Y-120437071D01*
X106621047Y-120437071D01*
X106716285Y-120389452D01*
X106763904Y-120341833D01*
X106811523Y-120246595D01*
X106811523Y-119437071D01*
X107430571Y-119865643D02*
X107335333Y-119818024D01*
X107287714Y-119770405D01*
X107240095Y-119675167D01*
X107240095Y-119627548D01*
X107287714Y-119532310D01*
X107335333Y-119484691D01*
X107430571Y-119437071D01*
X107621047Y-119437071D01*
X107716285Y-119484691D01*
X107763904Y-119532310D01*
X107811523Y-119627548D01*
X107811523Y-119675167D01*
X107763904Y-119770405D01*
X107716285Y-119818024D01*
X107621047Y-119865643D01*
X107430571Y-119865643D01*
X107335333Y-119913262D01*
X107287714Y-119960881D01*
X107240095Y-120056119D01*
X107240095Y-120246595D01*
X107287714Y-120341833D01*
X107335333Y-120389452D01*
X107430571Y-120437071D01*
X107621047Y-120437071D01*
X107716285Y-120389452D01*
X107763904Y-120341833D01*
X107811523Y-120246595D01*
X107811523Y-120056119D01*
X107763904Y-119960881D01*
X107716285Y-119913262D01*
X107621047Y-119865643D01*
G04 #@! TO.C,F1*
X222394666Y-97396571D02*
X222061333Y-97396571D01*
X222061333Y-97920380D02*
X222061333Y-96920380D01*
X222537523Y-96920380D01*
X223442285Y-97920380D02*
X222870857Y-97920380D01*
X223156571Y-97920380D02*
X223156571Y-96920380D01*
X223061333Y-97063238D01*
X222966095Y-97158476D01*
X222870857Y-97206095D01*
G04 #@! TO.C,U6*
X177317786Y-60819071D02*
X177317786Y-61628595D01*
X177365405Y-61723833D01*
X177413024Y-61771452D01*
X177508262Y-61819071D01*
X177698738Y-61819071D01*
X177793976Y-61771452D01*
X177841595Y-61723833D01*
X177889214Y-61628595D01*
X177889214Y-60819071D01*
X178793976Y-60819071D02*
X178603500Y-60819071D01*
X178508262Y-60866691D01*
X178460643Y-60914310D01*
X178365405Y-61057167D01*
X178317786Y-61247643D01*
X178317786Y-61628595D01*
X178365405Y-61723833D01*
X178413024Y-61771452D01*
X178508262Y-61819071D01*
X178698738Y-61819071D01*
X178793976Y-61771452D01*
X178841595Y-61723833D01*
X178889214Y-61628595D01*
X178889214Y-61390500D01*
X178841595Y-61295262D01*
X178793976Y-61247643D01*
X178698738Y-61200024D01*
X178508262Y-61200024D01*
X178413024Y-61247643D01*
X178365405Y-61295262D01*
X178317786Y-61390500D01*
G04 #@! TO.C,RN1*
X103771523Y-65635380D02*
X103438190Y-65159190D01*
X103200095Y-65635380D02*
X103200095Y-64635380D01*
X103581047Y-64635380D01*
X103676285Y-64683000D01*
X103723904Y-64730619D01*
X103771523Y-64825857D01*
X103771523Y-64968714D01*
X103723904Y-65063952D01*
X103676285Y-65111571D01*
X103581047Y-65159190D01*
X103200095Y-65159190D01*
X104200095Y-65635380D02*
X104200095Y-64635380D01*
X104771523Y-65635380D01*
X104771523Y-64635380D01*
X105771523Y-65635380D02*
X105200095Y-65635380D01*
X105485809Y-65635380D02*
X105485809Y-64635380D01*
X105390571Y-64778238D01*
X105295333Y-64873476D01*
X105200095Y-64921095D01*
G04 #@! TO.C,RN2*
X107581523Y-65635380D02*
X107248190Y-65159190D01*
X107010095Y-65635380D02*
X107010095Y-64635380D01*
X107391047Y-64635380D01*
X107486285Y-64683000D01*
X107533904Y-64730619D01*
X107581523Y-64825857D01*
X107581523Y-64968714D01*
X107533904Y-65063952D01*
X107486285Y-65111571D01*
X107391047Y-65159190D01*
X107010095Y-65159190D01*
X108010095Y-65635380D02*
X108010095Y-64635380D01*
X108581523Y-65635380D01*
X108581523Y-64635380D01*
X109010095Y-64730619D02*
X109057714Y-64683000D01*
X109152952Y-64635380D01*
X109391047Y-64635380D01*
X109486285Y-64683000D01*
X109533904Y-64730619D01*
X109581523Y-64825857D01*
X109581523Y-64921095D01*
X109533904Y-65063952D01*
X108962476Y-65635380D01*
X109581523Y-65635380D01*
G04 #@! TO.C,C6*
X98131333Y-43029142D02*
X98083714Y-43076761D01*
X97940857Y-43124380D01*
X97845619Y-43124380D01*
X97702761Y-43076761D01*
X97607523Y-42981523D01*
X97559904Y-42886285D01*
X97512285Y-42695809D01*
X97512285Y-42552952D01*
X97559904Y-42362476D01*
X97607523Y-42267238D01*
X97702761Y-42172000D01*
X97845619Y-42124380D01*
X97940857Y-42124380D01*
X98083714Y-42172000D01*
X98131333Y-42219619D01*
X98988476Y-42124380D02*
X98798000Y-42124380D01*
X98702761Y-42172000D01*
X98655142Y-42219619D01*
X98559904Y-42362476D01*
X98512285Y-42552952D01*
X98512285Y-42933904D01*
X98559904Y-43029142D01*
X98607523Y-43076761D01*
X98702761Y-43124380D01*
X98893238Y-43124380D01*
X98988476Y-43076761D01*
X99036095Y-43029142D01*
X99083714Y-42933904D01*
X99083714Y-42695809D01*
X99036095Y-42600571D01*
X98988476Y-42552952D01*
X98893238Y-42505333D01*
X98702761Y-42505333D01*
X98607523Y-42552952D01*
X98559904Y-42600571D01*
X98512285Y-42695809D01*
G04 #@! TO.C,Y1*
X107981809Y-138914190D02*
X107981809Y-139390380D01*
X107648476Y-138390380D02*
X107981809Y-138914190D01*
X108315142Y-138390380D01*
X109172285Y-139390380D02*
X108600857Y-139390380D01*
X108886571Y-139390380D02*
X108886571Y-138390380D01*
X108791333Y-138533238D01*
X108696095Y-138628476D01*
X108600857Y-138676095D01*
G04 #@! TO.C,U2*
X116459095Y-131769380D02*
X116459095Y-132578904D01*
X116506714Y-132674142D01*
X116554333Y-132721761D01*
X116649571Y-132769380D01*
X116840047Y-132769380D01*
X116935285Y-132721761D01*
X116982904Y-132674142D01*
X117030523Y-132578904D01*
X117030523Y-131769380D01*
X117459095Y-131864619D02*
X117506714Y-131817000D01*
X117601952Y-131769380D01*
X117840047Y-131769380D01*
X117935285Y-131817000D01*
X117982904Y-131864619D01*
X118030523Y-131959857D01*
X118030523Y-132055095D01*
X117982904Y-132197952D01*
X117411476Y-132769380D01*
X118030523Y-132769380D01*
G04 #@! TO.C,R9*
X98047071Y-117540357D02*
X97570881Y-117873691D01*
X98047071Y-118111786D02*
X97047071Y-118111786D01*
X97047071Y-117730833D01*
X97094691Y-117635595D01*
X97142310Y-117587976D01*
X97237548Y-117540357D01*
X97380405Y-117540357D01*
X97475643Y-117587976D01*
X97523262Y-117635595D01*
X97570881Y-117730833D01*
X97570881Y-118111786D01*
X98047071Y-117064167D02*
X98047071Y-116873691D01*
X97999452Y-116778452D01*
X97951833Y-116730833D01*
X97808976Y-116635595D01*
X97618500Y-116587976D01*
X97237548Y-116587976D01*
X97142310Y-116635595D01*
X97094691Y-116683214D01*
X97047071Y-116778452D01*
X97047071Y-116968929D01*
X97094691Y-117064167D01*
X97142310Y-117111786D01*
X97237548Y-117159405D01*
X97475643Y-117159405D01*
X97570881Y-117111786D01*
X97618500Y-117064167D01*
X97666119Y-116968929D01*
X97666119Y-116778452D01*
X97618500Y-116683214D01*
X97570881Y-116635595D01*
X97475643Y-116587976D01*
G04 #@! TO.C,R10*
X99952071Y-118905548D02*
X99475881Y-119238881D01*
X99952071Y-119476976D02*
X98952071Y-119476976D01*
X98952071Y-119096024D01*
X98999691Y-119000786D01*
X99047310Y-118953167D01*
X99142548Y-118905548D01*
X99285405Y-118905548D01*
X99380643Y-118953167D01*
X99428262Y-119000786D01*
X99475881Y-119096024D01*
X99475881Y-119476976D01*
X99952071Y-117953167D02*
X99952071Y-118524595D01*
X99952071Y-118238881D02*
X98952071Y-118238881D01*
X99094929Y-118334119D01*
X99190167Y-118429357D01*
X99237786Y-118524595D01*
X98952071Y-117334119D02*
X98952071Y-117238881D01*
X98999691Y-117143643D01*
X99047310Y-117096024D01*
X99142548Y-117048405D01*
X99333024Y-117000786D01*
X99571119Y-117000786D01*
X99761595Y-117048405D01*
X99856833Y-117096024D01*
X99904452Y-117143643D01*
X99952071Y-117238881D01*
X99952071Y-117334119D01*
X99904452Y-117429357D01*
X99856833Y-117476976D01*
X99761595Y-117524595D01*
X99571119Y-117572214D01*
X99333024Y-117572214D01*
X99142548Y-117524595D01*
X99047310Y-117476976D01*
X98999691Y-117429357D01*
X98952071Y-117334119D01*
G04 #@! TO.C,J6*
X212966666Y-112247380D02*
X212966666Y-112961666D01*
X212919047Y-113104523D01*
X212823809Y-113199761D01*
X212680952Y-113247380D01*
X212585714Y-113247380D01*
X213871428Y-112247380D02*
X213680952Y-112247380D01*
X213585714Y-112295000D01*
X213538095Y-112342619D01*
X213442857Y-112485476D01*
X213395238Y-112675952D01*
X213395238Y-113056904D01*
X213442857Y-113152142D01*
X213490476Y-113199761D01*
X213585714Y-113247380D01*
X213776190Y-113247380D01*
X213871428Y-113199761D01*
X213919047Y-113152142D01*
X213966666Y-113056904D01*
X213966666Y-112818809D01*
X213919047Y-112723571D01*
X213871428Y-112675952D01*
X213776190Y-112628333D01*
X213585714Y-112628333D01*
X213490476Y-112675952D01*
X213442857Y-112723571D01*
X213395238Y-112818809D01*
G04 #@! TD*
M02*
