G04 #@! TF.GenerationSoftware,KiCad,Pcbnew,(5.0.0)*
G04 #@! TF.CreationDate,2018-10-13T16:03:11-04:00*
G04 #@! TF.ProjectId,FanBoy,46616E426F792E6B696361645F706362,rev?*
G04 #@! TF.SameCoordinates,Original*
G04 #@! TF.FileFunction,Soldermask,Bot*
G04 #@! TF.FilePolarity,Negative*
%FSLAX46Y46*%
G04 Gerber Fmt 4.6, Leading zero omitted, Abs format (unit mm)*
G04 Created by KiCad (PCBNEW (5.0.0)) date 10/13/18 16:03:11*
%MOMM*%
%LPD*%
G01*
G04 APERTURE LIST*
%ADD10C,3.301600*%
%ADD11R,1.801600X1.801600*%
%ADD12O,1.801600X1.801600*%
%ADD13R,2.101600X2.101600*%
%ADD14C,2.101600*%
%ADD15R,1.601600X1.601600*%
%ADD16C,1.601600*%
%ADD17R,2.601600X1.601600*%
%ADD18O,2.601600X1.601600*%
%ADD19R,2.301600X2.301600*%
%ADD20O,2.301600X2.301600*%
%ADD21R,2.701600X2.701600*%
%ADD22C,2.701600*%
G04 APERTURE END LIST*
D10*
G04 #@! TO.C,REF\002A\002A*
X160147000Y-74549000D03*
G04 #@! TD*
G04 #@! TO.C,REF\002A\002A*
X91694000Y-72517000D03*
G04 #@! TD*
G04 #@! TO.C,REF\002A\002A*
X88519000Y-23622000D03*
G04 #@! TD*
D11*
G04 #@! TO.C,J3*
X152654000Y-25527000D03*
D12*
X150114000Y-25527000D03*
X152654000Y-28067000D03*
X150114000Y-28067000D03*
X152654000Y-30607000D03*
X150114000Y-30607000D03*
G04 #@! TD*
D13*
G04 #@! TO.C,C11*
X165942000Y-71882000D03*
D14*
X170942000Y-71882000D03*
G04 #@! TD*
G04 #@! TO.C,C10*
X88773000Y-60452000D03*
D13*
X93773000Y-60452000D03*
G04 #@! TD*
D14*
G04 #@! TO.C,C12*
X88773000Y-49022000D03*
D13*
X93773000Y-49022000D03*
G04 #@! TD*
D10*
G04 #@! TO.C,J1*
X106934000Y-27432000D03*
X95504000Y-27432000D03*
D15*
X96774000Y-33782000D03*
D16*
X98044000Y-36322000D03*
X99314000Y-33782000D03*
X100584000Y-36322000D03*
X101854000Y-33782000D03*
X103124000Y-36322000D03*
X104394000Y-33782000D03*
X105664000Y-36322000D03*
G04 #@! TD*
D17*
G04 #@! TO.C,U1*
X157099000Y-29972000D03*
D18*
X157099000Y-27432000D03*
X157099000Y-24892000D03*
G04 #@! TD*
D16*
G04 #@! TO.C,Y1*
X122809000Y-36322000D03*
X117929000Y-36322000D03*
G04 #@! TD*
D19*
G04 #@! TO.C,D1*
X156591000Y-62992000D03*
D20*
X146431000Y-62992000D03*
G04 #@! TD*
G04 #@! TO.C,D2*
X130556000Y-62992000D03*
D19*
X140716000Y-62992000D03*
G04 #@! TD*
G04 #@! TO.C,D3*
X124841000Y-62992000D03*
D20*
X114681000Y-62992000D03*
G04 #@! TD*
G04 #@! TO.C,D4*
X99060000Y-62992000D03*
D19*
X109220000Y-62992000D03*
G04 #@! TD*
D21*
G04 #@! TO.C,J2*
X167894000Y-49276000D03*
D22*
X167894000Y-39276000D03*
G04 #@! TD*
D21*
G04 #@! TO.C,J4*
X112776000Y-71882000D03*
D22*
X117776000Y-71882000D03*
X122776000Y-71882000D03*
X127776000Y-71882000D03*
X132776000Y-71882000D03*
X137776000Y-71882000D03*
X142776000Y-71882000D03*
X147776000Y-71882000D03*
G04 #@! TD*
D13*
G04 #@! TO.C,C13*
X165942000Y-59182000D03*
D14*
X170942000Y-59182000D03*
G04 #@! TD*
D10*
G04 #@! TO.C,REF\002A\002A*
X169799000Y-24892000D03*
G04 #@! TD*
M02*
