M48
;DRILL file {KiCad (5.0.0)} date 10/13/18 16:03:15
;FORMAT={-:-/ absolute / inch / decimal}
FMAT,2
INCH,TZ
T1C0.0157
T2C0.0299
T3C0.0315
T4C0.0394
T5C0.0433
T6C0.0512
%
G90
G05
M72
T1
X3.41Y-1.13
X3.41Y-1.33
X3.41Y-1.53
X3.41Y-1.73
X3.41Y-1.93
X3.41Y-2.13
X3.41Y-2.33
X3.41Y-2.53
X3.41Y-2.73
X3.41Y-2.93
X3.51Y-1.63
X3.51Y-1.83
X3.51Y-3.03
X3.53Y-2.74
X3.55Y-2.62
X3.56Y-2.04
X3.56Y-2.23
X3.61Y-1.53
X3.61Y-1.73
X3.69Y-2.76
X3.6919Y-2.08
X3.6919Y-2.23
X3.6919Y-2.53
X3.71Y-1.63
X3.71Y-3.03
X3.73Y-1.81
X3.735Y-0.855
X3.8025Y-2.68
X3.81Y-1.53
X3.81Y-1.73
X3.81Y-2.88
X3.91Y-1.63
X3.91Y-1.83
X3.91Y-1.93
X3.91Y-2.03
X3.91Y-2.13
X3.91Y-2.23
X3.91Y-2.33
X3.91Y-3.03
X3.9525Y-2.83
X3.985Y-1.105
X4.01Y-1.53
X4.01Y-2.23
X4.01Y-2.33
X4.0102Y-1.73
X4.025Y-2.605
X4.1025Y-2.98
X4.11Y-1.63
X4.11Y-2.23
X4.11Y-2.33
X4.125Y-2.705
X4.185Y-0.83
X4.21Y-1.53
X4.21Y-2.23
X4.21Y-2.33
X4.225Y-2.805
X4.3Y-2.57
X4.31Y-1.63
X4.31Y-1.83
X4.31Y-1.93
X4.31Y-2.03
X4.31Y-2.13
X4.31Y-2.23
X4.31Y-2.33
X4.31Y-2.98
X4.3217Y-2.67
X4.38Y-1.54
X4.41Y-1.73
X4.45Y-2.67
X4.51Y-1.63
X4.51Y-1.83
X4.51Y-1.93
X4.51Y-2.03
X4.51Y-2.13
X4.51Y-2.23
X4.51Y-2.33
X4.51Y-2.98
X4.535Y-1.53
X4.59Y-0.88
X4.61Y-2.23
X4.61Y-2.33
X4.63Y-1.58
X4.6302Y-1.73
X4.71Y-1.63
X4.71Y-2.23
X4.71Y-2.33
X4.71Y-2.98
X4.72Y-2.53
X4.735Y-1.03
X4.735Y-1.53
X4.76Y-2.68
X4.81Y-2.23
X4.81Y-2.33
X4.91Y-1.63
X4.91Y-1.83
X4.91Y-1.93
X4.91Y-2.03
X4.91Y-2.13
X4.91Y-2.23
X4.91Y-2.33
X4.91Y-2.98
X4.935Y-1.155
X4.935Y-1.33
X4.985Y-1.08
X4.985Y-1.13
X5.01Y-1.73
X5.02Y-1.55
X5.0306Y-2.5956
X5.035Y-1.43
X5.085Y-0.83
X5.11Y-1.63
X5.11Y-2.68
X5.11Y-2.98
X5.115Y-1.05
X5.16Y-1.83
X5.16Y-1.93
X5.16Y-2.03
X5.16Y-2.13
X5.16Y-2.23
X5.16Y-2.33
X5.21Y-1.56
X5.21Y-1.73
X5.2274Y-2.5674
X5.2274Y-2.68
X5.235Y-0.99
X5.26Y-2.23
X5.26Y-2.33
X5.31Y-1.63
X5.31Y-2.98
X5.325Y-1.25
X5.355Y-1.41
X5.36Y-2.23
X5.36Y-2.33
X5.39Y-1.54
X5.395Y-1.09
X5.395Y-1.18
X5.415Y-1.24
X5.4243Y-2.68
X5.46Y-1.155
X5.46Y-2.23
X5.46Y-2.33
X5.465Y-2.555
X5.485Y-1.105
X5.495Y-1.25
X5.51Y-1.63
X5.51Y-2.98
X5.525Y-1.4
X5.56Y-1.83
X5.56Y-1.93
X5.56Y-2.03
X5.56Y-2.13
X5.56Y-2.23
X5.56Y-2.33
X5.61Y-1.73
X5.61Y-2.68
X5.62Y-1.55
X5.635Y-1.005
X5.655Y-1.4
X5.71Y-1.63
X5.71Y-2.98
X5.735Y-2.73
X5.7458Y-0.8942
X5.76Y-1.83
X5.76Y-1.93
X5.76Y-2.03
X5.76Y-2.13
X5.76Y-2.23
X5.76Y-2.33
X5.765Y-2.58
X5.81Y-1.53
X5.81Y-1.73
X5.86Y-2.23
X5.86Y-2.33
X5.91Y-1.63
X5.91Y-2.98
X5.96Y-2.23
X5.96Y-2.33
X6.01Y-1.53
X6.01Y-2.68
X6.01Y-2.88
X6.06Y-2.23
X6.06Y-2.33
X6.11Y-1.63
X6.11Y-2.78
X6.11Y-2.98
X6.16Y-1.83
X6.16Y-1.93
X6.16Y-2.03
X6.16Y-2.13
X6.16Y-2.23
X6.16Y-2.33
X6.2Y-2.855
X6.21Y-1.53
X6.21Y-1.73
X6.21Y-2.68
X6.31Y-1.63
X6.31Y-2.78
X6.335Y-1.33
X6.335Y-2.58
X6.36Y-0.83
X6.36Y-1.83
X6.36Y-2.03
X6.36Y-2.23
X6.36Y-2.43
X6.41Y-1.53
X6.41Y-1.73
X6.41Y-2.68
X6.46Y-1.93
X6.46Y-2.13
X6.46Y-2.53
X6.51Y-1.63
X6.51Y-2.98
X6.56Y-1.83
X6.56Y-2.03
X6.56Y-2.23
X6.56Y-2.43
X6.56Y-2.63
X6.56Y-2.73
X6.61Y-1.73
X6.72Y-2.7
X6.72Y-3.
X6.73Y-2.53
X6.81Y-1.255
X6.83Y-2.31
X6.83Y-2.48
X6.83Y-2.65
X6.83Y-2.83
X6.83Y-3.
T2
X3.81Y-1.33
X3.86Y-1.43
X3.91Y-1.33
X3.96Y-1.43
X4.01Y-1.33
X4.06Y-1.43
X4.11Y-1.33
X4.16Y-1.43
T3
X4.6429Y-1.43
X4.835Y-1.43
T4
X3.495Y-2.38
X3.6919Y-2.38
X6.5331Y-2.33
X6.73Y-2.33
X3.495Y-1.93
X3.6919Y-1.93
X6.5331Y-2.83
X6.73Y-2.83
X5.91Y-1.005
X5.91Y-1.105
X5.91Y-1.205
X6.01Y-1.005
X6.01Y-1.105
X6.01Y-1.205
X6.185Y-0.98
X6.185Y-1.08
X6.185Y-1.18
T5
X3.9Y-2.48
X4.3Y-2.48
X4.515Y-2.48
X4.915Y-2.48
X5.14Y-2.48
X5.54Y-2.48
X5.765Y-2.48
X6.165Y-2.48
T6
X6.61Y-1.5463
X6.61Y-1.94
X4.44Y-2.83
X4.6369Y-2.83
X4.8337Y-2.83
X5.0306Y-2.83
X5.2274Y-2.83
X5.4243Y-2.83
X5.6211Y-2.83
X5.818Y-2.83
T0
M30
