G04 #@! TF.GenerationSoftware,KiCad,Pcbnew,(5.0.0)*
G04 #@! TF.CreationDate,2018-10-13T16:03:11-04:00*
G04 #@! TF.ProjectId,FanBoy,46616E426F792E6B696361645F706362,rev?*
G04 #@! TF.SameCoordinates,Original*
G04 #@! TF.FileFunction,Soldermask,Top*
G04 #@! TF.FilePolarity,Negative*
%FSLAX46Y46*%
G04 Gerber Fmt 4.6, Leading zero omitted, Abs format (unit mm)*
G04 Created by KiCad (PCBNEW (5.0.0)) date 10/13/18 16:03:11*
%MOMM*%
%LPD*%
G01*
G04 APERTURE LIST*
%ADD10R,0.701600X1.651600*%
%ADD11C,3.301600*%
%ADD12R,0.651600X1.701600*%
%ADD13R,1.701600X0.651600*%
%ADD14R,1.801600X1.801600*%
%ADD15O,1.801600X1.801600*%
%ADD16R,2.101600X2.101600*%
%ADD17C,2.101600*%
%ADD18C,0.100000*%
%ADD19C,0.976600*%
%ADD20R,1.601600X1.601600*%
%ADD21C,1.601600*%
%ADD22R,2.601600X1.601600*%
%ADD23O,2.601600X1.601600*%
%ADD24R,1.551600X0.551600*%
%ADD25R,1.301600X2.301600*%
%ADD26R,5.901600X6.501600*%
%ADD27R,2.301600X2.301600*%
%ADD28O,2.301600X2.301600*%
%ADD29R,2.701600X2.701600*%
%ADD30C,2.701600*%
G04 APERTURE END LIST*
D10*
G04 #@! TO.C,U2*
X114554000Y-25367000D03*
X113284000Y-25367000D03*
X112014000Y-25367000D03*
X110744000Y-25367000D03*
X110744000Y-30767000D03*
X112014000Y-30767000D03*
X113284000Y-30767000D03*
X114554000Y-30767000D03*
G04 #@! TD*
D11*
G04 #@! TO.C,REF\002A\002A*
X160147000Y-74549000D03*
G04 #@! TD*
G04 #@! TO.C,REF\002A\002A*
X91694000Y-72517000D03*
G04 #@! TD*
G04 #@! TO.C,REF\002A\002A*
X88519000Y-23622000D03*
G04 #@! TD*
D12*
G04 #@! TO.C,U4*
X134860001Y-33959999D03*
X135660001Y-33959999D03*
X136460001Y-33959999D03*
X137260001Y-33959999D03*
X138060001Y-33959999D03*
X138860001Y-33959999D03*
X139660001Y-33959999D03*
X140460001Y-33959999D03*
D13*
X141910001Y-32509999D03*
X141910001Y-31709999D03*
X141910001Y-30909999D03*
X141910001Y-30109999D03*
X141910001Y-29309999D03*
X141910001Y-28509999D03*
X141910001Y-27709999D03*
X141910001Y-26909999D03*
D12*
X140460001Y-25459999D03*
X139660001Y-25459999D03*
X138860001Y-25459999D03*
X138060001Y-25459999D03*
X137260001Y-25459999D03*
X136460001Y-25459999D03*
X135660001Y-25459999D03*
X134860001Y-25459999D03*
D13*
X133410001Y-26909999D03*
X133410001Y-27709999D03*
X133410001Y-28509999D03*
X133410001Y-29309999D03*
X133410001Y-30109999D03*
X133410001Y-30909999D03*
X133410001Y-31709999D03*
X133410001Y-32509999D03*
G04 #@! TD*
D14*
G04 #@! TO.C,J3*
X152654000Y-25527000D03*
D15*
X150114000Y-25527000D03*
X152654000Y-28067000D03*
X150114000Y-28067000D03*
X152654000Y-30607000D03*
X150114000Y-30607000D03*
G04 #@! TD*
D16*
G04 #@! TO.C,C11*
X165942000Y-71882000D03*
D17*
X170942000Y-71882000D03*
G04 #@! TD*
G04 #@! TO.C,C10*
X88773000Y-60452000D03*
D16*
X93773000Y-60452000D03*
G04 #@! TD*
D17*
G04 #@! TO.C,C12*
X88773000Y-49022000D03*
D16*
X93773000Y-49022000D03*
G04 #@! TD*
D18*
G04 #@! TO.C,C1*
G36*
X168162081Y-33257376D02*
X168185781Y-33260891D01*
X168209023Y-33266713D01*
X168231582Y-33274785D01*
X168253242Y-33285029D01*
X168273792Y-33297347D01*
X168293037Y-33311619D01*
X168310790Y-33327710D01*
X168326881Y-33345463D01*
X168341153Y-33364708D01*
X168353471Y-33385258D01*
X168363715Y-33406918D01*
X168371787Y-33429477D01*
X168377609Y-33452719D01*
X168381124Y-33476419D01*
X168382300Y-33500350D01*
X168382300Y-34063650D01*
X168381124Y-34087581D01*
X168377609Y-34111281D01*
X168371787Y-34134523D01*
X168363715Y-34157082D01*
X168353471Y-34178742D01*
X168341153Y-34199292D01*
X168326881Y-34218537D01*
X168310790Y-34236290D01*
X168293037Y-34252381D01*
X168273792Y-34266653D01*
X168253242Y-34278971D01*
X168231582Y-34289215D01*
X168209023Y-34297287D01*
X168185781Y-34303109D01*
X168162081Y-34306624D01*
X168138150Y-34307800D01*
X167649850Y-34307800D01*
X167625919Y-34306624D01*
X167602219Y-34303109D01*
X167578977Y-34297287D01*
X167556418Y-34289215D01*
X167534758Y-34278971D01*
X167514208Y-34266653D01*
X167494963Y-34252381D01*
X167477210Y-34236290D01*
X167461119Y-34218537D01*
X167446847Y-34199292D01*
X167434529Y-34178742D01*
X167424285Y-34157082D01*
X167416213Y-34134523D01*
X167410391Y-34111281D01*
X167406876Y-34087581D01*
X167405700Y-34063650D01*
X167405700Y-33500350D01*
X167406876Y-33476419D01*
X167410391Y-33452719D01*
X167416213Y-33429477D01*
X167424285Y-33406918D01*
X167434529Y-33385258D01*
X167446847Y-33364708D01*
X167461119Y-33345463D01*
X167477210Y-33327710D01*
X167494963Y-33311619D01*
X167514208Y-33297347D01*
X167534758Y-33285029D01*
X167556418Y-33274785D01*
X167578977Y-33266713D01*
X167602219Y-33260891D01*
X167625919Y-33257376D01*
X167649850Y-33256200D01*
X168138150Y-33256200D01*
X168162081Y-33257376D01*
X168162081Y-33257376D01*
G37*
D19*
X167894000Y-33782000D03*
D18*
G36*
X166587081Y-33257376D02*
X166610781Y-33260891D01*
X166634023Y-33266713D01*
X166656582Y-33274785D01*
X166678242Y-33285029D01*
X166698792Y-33297347D01*
X166718037Y-33311619D01*
X166735790Y-33327710D01*
X166751881Y-33345463D01*
X166766153Y-33364708D01*
X166778471Y-33385258D01*
X166788715Y-33406918D01*
X166796787Y-33429477D01*
X166802609Y-33452719D01*
X166806124Y-33476419D01*
X166807300Y-33500350D01*
X166807300Y-34063650D01*
X166806124Y-34087581D01*
X166802609Y-34111281D01*
X166796787Y-34134523D01*
X166788715Y-34157082D01*
X166778471Y-34178742D01*
X166766153Y-34199292D01*
X166751881Y-34218537D01*
X166735790Y-34236290D01*
X166718037Y-34252381D01*
X166698792Y-34266653D01*
X166678242Y-34278971D01*
X166656582Y-34289215D01*
X166634023Y-34297287D01*
X166610781Y-34303109D01*
X166587081Y-34306624D01*
X166563150Y-34307800D01*
X166074850Y-34307800D01*
X166050919Y-34306624D01*
X166027219Y-34303109D01*
X166003977Y-34297287D01*
X165981418Y-34289215D01*
X165959758Y-34278971D01*
X165939208Y-34266653D01*
X165919963Y-34252381D01*
X165902210Y-34236290D01*
X165886119Y-34218537D01*
X165871847Y-34199292D01*
X165859529Y-34178742D01*
X165849285Y-34157082D01*
X165841213Y-34134523D01*
X165835391Y-34111281D01*
X165831876Y-34087581D01*
X165830700Y-34063650D01*
X165830700Y-33500350D01*
X165831876Y-33476419D01*
X165835391Y-33452719D01*
X165841213Y-33429477D01*
X165849285Y-33406918D01*
X165859529Y-33385258D01*
X165871847Y-33364708D01*
X165886119Y-33345463D01*
X165902210Y-33327710D01*
X165919963Y-33311619D01*
X165939208Y-33297347D01*
X165959758Y-33285029D01*
X165981418Y-33274785D01*
X166003977Y-33266713D01*
X166027219Y-33260891D01*
X166050919Y-33257376D01*
X166074850Y-33256200D01*
X166563150Y-33256200D01*
X166587081Y-33257376D01*
X166587081Y-33257376D01*
G37*
D19*
X166319000Y-33782000D03*
G04 #@! TD*
D18*
G04 #@! TO.C,C2*
G36*
X154192081Y-21192376D02*
X154215781Y-21195891D01*
X154239023Y-21201713D01*
X154261582Y-21209785D01*
X154283242Y-21220029D01*
X154303792Y-21232347D01*
X154323037Y-21246619D01*
X154340790Y-21262710D01*
X154356881Y-21280463D01*
X154371153Y-21299708D01*
X154383471Y-21320258D01*
X154393715Y-21341918D01*
X154401787Y-21364477D01*
X154407609Y-21387719D01*
X154411124Y-21411419D01*
X154412300Y-21435350D01*
X154412300Y-21998650D01*
X154411124Y-22022581D01*
X154407609Y-22046281D01*
X154401787Y-22069523D01*
X154393715Y-22092082D01*
X154383471Y-22113742D01*
X154371153Y-22134292D01*
X154356881Y-22153537D01*
X154340790Y-22171290D01*
X154323037Y-22187381D01*
X154303792Y-22201653D01*
X154283242Y-22213971D01*
X154261582Y-22224215D01*
X154239023Y-22232287D01*
X154215781Y-22238109D01*
X154192081Y-22241624D01*
X154168150Y-22242800D01*
X153679850Y-22242800D01*
X153655919Y-22241624D01*
X153632219Y-22238109D01*
X153608977Y-22232287D01*
X153586418Y-22224215D01*
X153564758Y-22213971D01*
X153544208Y-22201653D01*
X153524963Y-22187381D01*
X153507210Y-22171290D01*
X153491119Y-22153537D01*
X153476847Y-22134292D01*
X153464529Y-22113742D01*
X153454285Y-22092082D01*
X153446213Y-22069523D01*
X153440391Y-22046281D01*
X153436876Y-22022581D01*
X153435700Y-21998650D01*
X153435700Y-21435350D01*
X153436876Y-21411419D01*
X153440391Y-21387719D01*
X153446213Y-21364477D01*
X153454285Y-21341918D01*
X153464529Y-21320258D01*
X153476847Y-21299708D01*
X153491119Y-21280463D01*
X153507210Y-21262710D01*
X153524963Y-21246619D01*
X153544208Y-21232347D01*
X153564758Y-21220029D01*
X153586418Y-21209785D01*
X153608977Y-21201713D01*
X153632219Y-21195891D01*
X153655919Y-21192376D01*
X153679850Y-21191200D01*
X154168150Y-21191200D01*
X154192081Y-21192376D01*
X154192081Y-21192376D01*
G37*
D19*
X153924000Y-21717000D03*
D18*
G36*
X152617081Y-21192376D02*
X152640781Y-21195891D01*
X152664023Y-21201713D01*
X152686582Y-21209785D01*
X152708242Y-21220029D01*
X152728792Y-21232347D01*
X152748037Y-21246619D01*
X152765790Y-21262710D01*
X152781881Y-21280463D01*
X152796153Y-21299708D01*
X152808471Y-21320258D01*
X152818715Y-21341918D01*
X152826787Y-21364477D01*
X152832609Y-21387719D01*
X152836124Y-21411419D01*
X152837300Y-21435350D01*
X152837300Y-21998650D01*
X152836124Y-22022581D01*
X152832609Y-22046281D01*
X152826787Y-22069523D01*
X152818715Y-22092082D01*
X152808471Y-22113742D01*
X152796153Y-22134292D01*
X152781881Y-22153537D01*
X152765790Y-22171290D01*
X152748037Y-22187381D01*
X152728792Y-22201653D01*
X152708242Y-22213971D01*
X152686582Y-22224215D01*
X152664023Y-22232287D01*
X152640781Y-22238109D01*
X152617081Y-22241624D01*
X152593150Y-22242800D01*
X152104850Y-22242800D01*
X152080919Y-22241624D01*
X152057219Y-22238109D01*
X152033977Y-22232287D01*
X152011418Y-22224215D01*
X151989758Y-22213971D01*
X151969208Y-22201653D01*
X151949963Y-22187381D01*
X151932210Y-22171290D01*
X151916119Y-22153537D01*
X151901847Y-22134292D01*
X151889529Y-22113742D01*
X151879285Y-22092082D01*
X151871213Y-22069523D01*
X151865391Y-22046281D01*
X151861876Y-22022581D01*
X151860700Y-21998650D01*
X151860700Y-21435350D01*
X151861876Y-21411419D01*
X151865391Y-21387719D01*
X151871213Y-21364477D01*
X151879285Y-21341918D01*
X151889529Y-21320258D01*
X151901847Y-21299708D01*
X151916119Y-21280463D01*
X151932210Y-21262710D01*
X151949963Y-21246619D01*
X151969208Y-21232347D01*
X151989758Y-21220029D01*
X152011418Y-21209785D01*
X152033977Y-21201713D01*
X152057219Y-21195891D01*
X152080919Y-21192376D01*
X152104850Y-21191200D01*
X152593150Y-21191200D01*
X152617081Y-21192376D01*
X152617081Y-21192376D01*
G37*
D19*
X152349000Y-21717000D03*
G04 #@! TD*
D18*
G04 #@! TO.C,C3*
G36*
X112282081Y-21827376D02*
X112305781Y-21830891D01*
X112329023Y-21836713D01*
X112351582Y-21844785D01*
X112373242Y-21855029D01*
X112393792Y-21867347D01*
X112413037Y-21881619D01*
X112430790Y-21897710D01*
X112446881Y-21915463D01*
X112461153Y-21934708D01*
X112473471Y-21955258D01*
X112483715Y-21976918D01*
X112491787Y-21999477D01*
X112497609Y-22022719D01*
X112501124Y-22046419D01*
X112502300Y-22070350D01*
X112502300Y-22633650D01*
X112501124Y-22657581D01*
X112497609Y-22681281D01*
X112491787Y-22704523D01*
X112483715Y-22727082D01*
X112473471Y-22748742D01*
X112461153Y-22769292D01*
X112446881Y-22788537D01*
X112430790Y-22806290D01*
X112413037Y-22822381D01*
X112393792Y-22836653D01*
X112373242Y-22848971D01*
X112351582Y-22859215D01*
X112329023Y-22867287D01*
X112305781Y-22873109D01*
X112282081Y-22876624D01*
X112258150Y-22877800D01*
X111769850Y-22877800D01*
X111745919Y-22876624D01*
X111722219Y-22873109D01*
X111698977Y-22867287D01*
X111676418Y-22859215D01*
X111654758Y-22848971D01*
X111634208Y-22836653D01*
X111614963Y-22822381D01*
X111597210Y-22806290D01*
X111581119Y-22788537D01*
X111566847Y-22769292D01*
X111554529Y-22748742D01*
X111544285Y-22727082D01*
X111536213Y-22704523D01*
X111530391Y-22681281D01*
X111526876Y-22657581D01*
X111525700Y-22633650D01*
X111525700Y-22070350D01*
X111526876Y-22046419D01*
X111530391Y-22022719D01*
X111536213Y-21999477D01*
X111544285Y-21976918D01*
X111554529Y-21955258D01*
X111566847Y-21934708D01*
X111581119Y-21915463D01*
X111597210Y-21897710D01*
X111614963Y-21881619D01*
X111634208Y-21867347D01*
X111654758Y-21855029D01*
X111676418Y-21844785D01*
X111698977Y-21836713D01*
X111722219Y-21830891D01*
X111745919Y-21827376D01*
X111769850Y-21826200D01*
X112258150Y-21826200D01*
X112282081Y-21827376D01*
X112282081Y-21827376D01*
G37*
D19*
X112014000Y-22352000D03*
D18*
G36*
X113857081Y-21827376D02*
X113880781Y-21830891D01*
X113904023Y-21836713D01*
X113926582Y-21844785D01*
X113948242Y-21855029D01*
X113968792Y-21867347D01*
X113988037Y-21881619D01*
X114005790Y-21897710D01*
X114021881Y-21915463D01*
X114036153Y-21934708D01*
X114048471Y-21955258D01*
X114058715Y-21976918D01*
X114066787Y-21999477D01*
X114072609Y-22022719D01*
X114076124Y-22046419D01*
X114077300Y-22070350D01*
X114077300Y-22633650D01*
X114076124Y-22657581D01*
X114072609Y-22681281D01*
X114066787Y-22704523D01*
X114058715Y-22727082D01*
X114048471Y-22748742D01*
X114036153Y-22769292D01*
X114021881Y-22788537D01*
X114005790Y-22806290D01*
X113988037Y-22822381D01*
X113968792Y-22836653D01*
X113948242Y-22848971D01*
X113926582Y-22859215D01*
X113904023Y-22867287D01*
X113880781Y-22873109D01*
X113857081Y-22876624D01*
X113833150Y-22877800D01*
X113344850Y-22877800D01*
X113320919Y-22876624D01*
X113297219Y-22873109D01*
X113273977Y-22867287D01*
X113251418Y-22859215D01*
X113229758Y-22848971D01*
X113209208Y-22836653D01*
X113189963Y-22822381D01*
X113172210Y-22806290D01*
X113156119Y-22788537D01*
X113141847Y-22769292D01*
X113129529Y-22748742D01*
X113119285Y-22727082D01*
X113111213Y-22704523D01*
X113105391Y-22681281D01*
X113101876Y-22657581D01*
X113100700Y-22633650D01*
X113100700Y-22070350D01*
X113101876Y-22046419D01*
X113105391Y-22022719D01*
X113111213Y-21999477D01*
X113119285Y-21976918D01*
X113129529Y-21955258D01*
X113141847Y-21934708D01*
X113156119Y-21915463D01*
X113172210Y-21897710D01*
X113189963Y-21881619D01*
X113209208Y-21867347D01*
X113229758Y-21855029D01*
X113251418Y-21844785D01*
X113273977Y-21836713D01*
X113297219Y-21830891D01*
X113320919Y-21827376D01*
X113344850Y-21826200D01*
X113833150Y-21826200D01*
X113857081Y-21827376D01*
X113857081Y-21827376D01*
G37*
D19*
X113589000Y-22352000D03*
G04 #@! TD*
D18*
G04 #@! TO.C,C4*
G36*
X150687081Y-21192376D02*
X150710781Y-21195891D01*
X150734023Y-21201713D01*
X150756582Y-21209785D01*
X150778242Y-21220029D01*
X150798792Y-21232347D01*
X150818037Y-21246619D01*
X150835790Y-21262710D01*
X150851881Y-21280463D01*
X150866153Y-21299708D01*
X150878471Y-21320258D01*
X150888715Y-21341918D01*
X150896787Y-21364477D01*
X150902609Y-21387719D01*
X150906124Y-21411419D01*
X150907300Y-21435350D01*
X150907300Y-21998650D01*
X150906124Y-22022581D01*
X150902609Y-22046281D01*
X150896787Y-22069523D01*
X150888715Y-22092082D01*
X150878471Y-22113742D01*
X150866153Y-22134292D01*
X150851881Y-22153537D01*
X150835790Y-22171290D01*
X150818037Y-22187381D01*
X150798792Y-22201653D01*
X150778242Y-22213971D01*
X150756582Y-22224215D01*
X150734023Y-22232287D01*
X150710781Y-22238109D01*
X150687081Y-22241624D01*
X150663150Y-22242800D01*
X150174850Y-22242800D01*
X150150919Y-22241624D01*
X150127219Y-22238109D01*
X150103977Y-22232287D01*
X150081418Y-22224215D01*
X150059758Y-22213971D01*
X150039208Y-22201653D01*
X150019963Y-22187381D01*
X150002210Y-22171290D01*
X149986119Y-22153537D01*
X149971847Y-22134292D01*
X149959529Y-22113742D01*
X149949285Y-22092082D01*
X149941213Y-22069523D01*
X149935391Y-22046281D01*
X149931876Y-22022581D01*
X149930700Y-21998650D01*
X149930700Y-21435350D01*
X149931876Y-21411419D01*
X149935391Y-21387719D01*
X149941213Y-21364477D01*
X149949285Y-21341918D01*
X149959529Y-21320258D01*
X149971847Y-21299708D01*
X149986119Y-21280463D01*
X150002210Y-21262710D01*
X150019963Y-21246619D01*
X150039208Y-21232347D01*
X150059758Y-21220029D01*
X150081418Y-21209785D01*
X150103977Y-21201713D01*
X150127219Y-21195891D01*
X150150919Y-21192376D01*
X150174850Y-21191200D01*
X150663150Y-21191200D01*
X150687081Y-21192376D01*
X150687081Y-21192376D01*
G37*
D19*
X150419000Y-21717000D03*
D18*
G36*
X149112081Y-21192376D02*
X149135781Y-21195891D01*
X149159023Y-21201713D01*
X149181582Y-21209785D01*
X149203242Y-21220029D01*
X149223792Y-21232347D01*
X149243037Y-21246619D01*
X149260790Y-21262710D01*
X149276881Y-21280463D01*
X149291153Y-21299708D01*
X149303471Y-21320258D01*
X149313715Y-21341918D01*
X149321787Y-21364477D01*
X149327609Y-21387719D01*
X149331124Y-21411419D01*
X149332300Y-21435350D01*
X149332300Y-21998650D01*
X149331124Y-22022581D01*
X149327609Y-22046281D01*
X149321787Y-22069523D01*
X149313715Y-22092082D01*
X149303471Y-22113742D01*
X149291153Y-22134292D01*
X149276881Y-22153537D01*
X149260790Y-22171290D01*
X149243037Y-22187381D01*
X149223792Y-22201653D01*
X149203242Y-22213971D01*
X149181582Y-22224215D01*
X149159023Y-22232287D01*
X149135781Y-22238109D01*
X149112081Y-22241624D01*
X149088150Y-22242800D01*
X148599850Y-22242800D01*
X148575919Y-22241624D01*
X148552219Y-22238109D01*
X148528977Y-22232287D01*
X148506418Y-22224215D01*
X148484758Y-22213971D01*
X148464208Y-22201653D01*
X148444963Y-22187381D01*
X148427210Y-22171290D01*
X148411119Y-22153537D01*
X148396847Y-22134292D01*
X148384529Y-22113742D01*
X148374285Y-22092082D01*
X148366213Y-22069523D01*
X148360391Y-22046281D01*
X148356876Y-22022581D01*
X148355700Y-21998650D01*
X148355700Y-21435350D01*
X148356876Y-21411419D01*
X148360391Y-21387719D01*
X148366213Y-21364477D01*
X148374285Y-21341918D01*
X148384529Y-21320258D01*
X148396847Y-21299708D01*
X148411119Y-21280463D01*
X148427210Y-21262710D01*
X148444963Y-21246619D01*
X148464208Y-21232347D01*
X148484758Y-21220029D01*
X148506418Y-21209785D01*
X148528977Y-21201713D01*
X148552219Y-21195891D01*
X148575919Y-21192376D01*
X148599850Y-21191200D01*
X149088150Y-21191200D01*
X149112081Y-21192376D01*
X149112081Y-21192376D01*
G37*
D19*
X148844000Y-21717000D03*
G04 #@! TD*
D18*
G04 #@! TO.C,C5*
G36*
X128157081Y-25002376D02*
X128180781Y-25005891D01*
X128204023Y-25011713D01*
X128226582Y-25019785D01*
X128248242Y-25030029D01*
X128268792Y-25042347D01*
X128288037Y-25056619D01*
X128305790Y-25072710D01*
X128321881Y-25090463D01*
X128336153Y-25109708D01*
X128348471Y-25130258D01*
X128358715Y-25151918D01*
X128366787Y-25174477D01*
X128372609Y-25197719D01*
X128376124Y-25221419D01*
X128377300Y-25245350D01*
X128377300Y-25808650D01*
X128376124Y-25832581D01*
X128372609Y-25856281D01*
X128366787Y-25879523D01*
X128358715Y-25902082D01*
X128348471Y-25923742D01*
X128336153Y-25944292D01*
X128321881Y-25963537D01*
X128305790Y-25981290D01*
X128288037Y-25997381D01*
X128268792Y-26011653D01*
X128248242Y-26023971D01*
X128226582Y-26034215D01*
X128204023Y-26042287D01*
X128180781Y-26048109D01*
X128157081Y-26051624D01*
X128133150Y-26052800D01*
X127644850Y-26052800D01*
X127620919Y-26051624D01*
X127597219Y-26048109D01*
X127573977Y-26042287D01*
X127551418Y-26034215D01*
X127529758Y-26023971D01*
X127509208Y-26011653D01*
X127489963Y-25997381D01*
X127472210Y-25981290D01*
X127456119Y-25963537D01*
X127441847Y-25944292D01*
X127429529Y-25923742D01*
X127419285Y-25902082D01*
X127411213Y-25879523D01*
X127405391Y-25856281D01*
X127401876Y-25832581D01*
X127400700Y-25808650D01*
X127400700Y-25245350D01*
X127401876Y-25221419D01*
X127405391Y-25197719D01*
X127411213Y-25174477D01*
X127419285Y-25151918D01*
X127429529Y-25130258D01*
X127441847Y-25109708D01*
X127456119Y-25090463D01*
X127472210Y-25072710D01*
X127489963Y-25056619D01*
X127509208Y-25042347D01*
X127529758Y-25030029D01*
X127551418Y-25019785D01*
X127573977Y-25011713D01*
X127597219Y-25005891D01*
X127620919Y-25002376D01*
X127644850Y-25001200D01*
X128133150Y-25001200D01*
X128157081Y-25002376D01*
X128157081Y-25002376D01*
G37*
D19*
X127889000Y-25527000D03*
D18*
G36*
X126582081Y-25002376D02*
X126605781Y-25005891D01*
X126629023Y-25011713D01*
X126651582Y-25019785D01*
X126673242Y-25030029D01*
X126693792Y-25042347D01*
X126713037Y-25056619D01*
X126730790Y-25072710D01*
X126746881Y-25090463D01*
X126761153Y-25109708D01*
X126773471Y-25130258D01*
X126783715Y-25151918D01*
X126791787Y-25174477D01*
X126797609Y-25197719D01*
X126801124Y-25221419D01*
X126802300Y-25245350D01*
X126802300Y-25808650D01*
X126801124Y-25832581D01*
X126797609Y-25856281D01*
X126791787Y-25879523D01*
X126783715Y-25902082D01*
X126773471Y-25923742D01*
X126761153Y-25944292D01*
X126746881Y-25963537D01*
X126730790Y-25981290D01*
X126713037Y-25997381D01*
X126693792Y-26011653D01*
X126673242Y-26023971D01*
X126651582Y-26034215D01*
X126629023Y-26042287D01*
X126605781Y-26048109D01*
X126582081Y-26051624D01*
X126558150Y-26052800D01*
X126069850Y-26052800D01*
X126045919Y-26051624D01*
X126022219Y-26048109D01*
X125998977Y-26042287D01*
X125976418Y-26034215D01*
X125954758Y-26023971D01*
X125934208Y-26011653D01*
X125914963Y-25997381D01*
X125897210Y-25981290D01*
X125881119Y-25963537D01*
X125866847Y-25944292D01*
X125854529Y-25923742D01*
X125844285Y-25902082D01*
X125836213Y-25879523D01*
X125830391Y-25856281D01*
X125826876Y-25832581D01*
X125825700Y-25808650D01*
X125825700Y-25245350D01*
X125826876Y-25221419D01*
X125830391Y-25197719D01*
X125836213Y-25174477D01*
X125844285Y-25151918D01*
X125854529Y-25130258D01*
X125866847Y-25109708D01*
X125881119Y-25090463D01*
X125897210Y-25072710D01*
X125914963Y-25056619D01*
X125934208Y-25042347D01*
X125954758Y-25030029D01*
X125976418Y-25019785D01*
X125998977Y-25011713D01*
X126022219Y-25005891D01*
X126045919Y-25002376D01*
X126069850Y-25001200D01*
X126558150Y-25001200D01*
X126582081Y-25002376D01*
X126582081Y-25002376D01*
G37*
D19*
X126314000Y-25527000D03*
G04 #@! TD*
D18*
G04 #@! TO.C,C6*
G36*
X123229581Y-31352376D02*
X123253281Y-31355891D01*
X123276523Y-31361713D01*
X123299082Y-31369785D01*
X123320742Y-31380029D01*
X123341292Y-31392347D01*
X123360537Y-31406619D01*
X123378290Y-31422710D01*
X123394381Y-31440463D01*
X123408653Y-31459708D01*
X123420971Y-31480258D01*
X123431215Y-31501918D01*
X123439287Y-31524477D01*
X123445109Y-31547719D01*
X123448624Y-31571419D01*
X123449800Y-31595350D01*
X123449800Y-32158650D01*
X123448624Y-32182581D01*
X123445109Y-32206281D01*
X123439287Y-32229523D01*
X123431215Y-32252082D01*
X123420971Y-32273742D01*
X123408653Y-32294292D01*
X123394381Y-32313537D01*
X123378290Y-32331290D01*
X123360537Y-32347381D01*
X123341292Y-32361653D01*
X123320742Y-32373971D01*
X123299082Y-32384215D01*
X123276523Y-32392287D01*
X123253281Y-32398109D01*
X123229581Y-32401624D01*
X123205650Y-32402800D01*
X122717350Y-32402800D01*
X122693419Y-32401624D01*
X122669719Y-32398109D01*
X122646477Y-32392287D01*
X122623918Y-32384215D01*
X122602258Y-32373971D01*
X122581708Y-32361653D01*
X122562463Y-32347381D01*
X122544710Y-32331290D01*
X122528619Y-32313537D01*
X122514347Y-32294292D01*
X122502029Y-32273742D01*
X122491785Y-32252082D01*
X122483713Y-32229523D01*
X122477891Y-32206281D01*
X122474376Y-32182581D01*
X122473200Y-32158650D01*
X122473200Y-31595350D01*
X122474376Y-31571419D01*
X122477891Y-31547719D01*
X122483713Y-31524477D01*
X122491785Y-31501918D01*
X122502029Y-31480258D01*
X122514347Y-31459708D01*
X122528619Y-31440463D01*
X122544710Y-31422710D01*
X122562463Y-31406619D01*
X122581708Y-31392347D01*
X122602258Y-31380029D01*
X122623918Y-31369785D01*
X122646477Y-31361713D01*
X122669719Y-31355891D01*
X122693419Y-31352376D01*
X122717350Y-31351200D01*
X123205650Y-31351200D01*
X123229581Y-31352376D01*
X123229581Y-31352376D01*
G37*
D19*
X122961500Y-31877000D03*
D18*
G36*
X121654581Y-31352376D02*
X121678281Y-31355891D01*
X121701523Y-31361713D01*
X121724082Y-31369785D01*
X121745742Y-31380029D01*
X121766292Y-31392347D01*
X121785537Y-31406619D01*
X121803290Y-31422710D01*
X121819381Y-31440463D01*
X121833653Y-31459708D01*
X121845971Y-31480258D01*
X121856215Y-31501918D01*
X121864287Y-31524477D01*
X121870109Y-31547719D01*
X121873624Y-31571419D01*
X121874800Y-31595350D01*
X121874800Y-32158650D01*
X121873624Y-32182581D01*
X121870109Y-32206281D01*
X121864287Y-32229523D01*
X121856215Y-32252082D01*
X121845971Y-32273742D01*
X121833653Y-32294292D01*
X121819381Y-32313537D01*
X121803290Y-32331290D01*
X121785537Y-32347381D01*
X121766292Y-32361653D01*
X121745742Y-32373971D01*
X121724082Y-32384215D01*
X121701523Y-32392287D01*
X121678281Y-32398109D01*
X121654581Y-32401624D01*
X121630650Y-32402800D01*
X121142350Y-32402800D01*
X121118419Y-32401624D01*
X121094719Y-32398109D01*
X121071477Y-32392287D01*
X121048918Y-32384215D01*
X121027258Y-32373971D01*
X121006708Y-32361653D01*
X120987463Y-32347381D01*
X120969710Y-32331290D01*
X120953619Y-32313537D01*
X120939347Y-32294292D01*
X120927029Y-32273742D01*
X120916785Y-32252082D01*
X120908713Y-32229523D01*
X120902891Y-32206281D01*
X120899376Y-32182581D01*
X120898200Y-32158650D01*
X120898200Y-31595350D01*
X120899376Y-31571419D01*
X120902891Y-31547719D01*
X120908713Y-31524477D01*
X120916785Y-31501918D01*
X120927029Y-31480258D01*
X120939347Y-31459708D01*
X120953619Y-31440463D01*
X120969710Y-31422710D01*
X120987463Y-31406619D01*
X121006708Y-31392347D01*
X121027258Y-31380029D01*
X121048918Y-31369785D01*
X121071477Y-31361713D01*
X121094719Y-31355891D01*
X121118419Y-31352376D01*
X121142350Y-31351200D01*
X121630650Y-31351200D01*
X121654581Y-31352376D01*
X121654581Y-31352376D01*
G37*
D19*
X121386500Y-31877000D03*
G04 #@! TD*
D18*
G04 #@! TO.C,C7*
G36*
X118784581Y-31352376D02*
X118808281Y-31355891D01*
X118831523Y-31361713D01*
X118854082Y-31369785D01*
X118875742Y-31380029D01*
X118896292Y-31392347D01*
X118915537Y-31406619D01*
X118933290Y-31422710D01*
X118949381Y-31440463D01*
X118963653Y-31459708D01*
X118975971Y-31480258D01*
X118986215Y-31501918D01*
X118994287Y-31524477D01*
X119000109Y-31547719D01*
X119003624Y-31571419D01*
X119004800Y-31595350D01*
X119004800Y-32158650D01*
X119003624Y-32182581D01*
X119000109Y-32206281D01*
X118994287Y-32229523D01*
X118986215Y-32252082D01*
X118975971Y-32273742D01*
X118963653Y-32294292D01*
X118949381Y-32313537D01*
X118933290Y-32331290D01*
X118915537Y-32347381D01*
X118896292Y-32361653D01*
X118875742Y-32373971D01*
X118854082Y-32384215D01*
X118831523Y-32392287D01*
X118808281Y-32398109D01*
X118784581Y-32401624D01*
X118760650Y-32402800D01*
X118272350Y-32402800D01*
X118248419Y-32401624D01*
X118224719Y-32398109D01*
X118201477Y-32392287D01*
X118178918Y-32384215D01*
X118157258Y-32373971D01*
X118136708Y-32361653D01*
X118117463Y-32347381D01*
X118099710Y-32331290D01*
X118083619Y-32313537D01*
X118069347Y-32294292D01*
X118057029Y-32273742D01*
X118046785Y-32252082D01*
X118038713Y-32229523D01*
X118032891Y-32206281D01*
X118029376Y-32182581D01*
X118028200Y-32158650D01*
X118028200Y-31595350D01*
X118029376Y-31571419D01*
X118032891Y-31547719D01*
X118038713Y-31524477D01*
X118046785Y-31501918D01*
X118057029Y-31480258D01*
X118069347Y-31459708D01*
X118083619Y-31440463D01*
X118099710Y-31422710D01*
X118117463Y-31406619D01*
X118136708Y-31392347D01*
X118157258Y-31380029D01*
X118178918Y-31369785D01*
X118201477Y-31361713D01*
X118224719Y-31355891D01*
X118248419Y-31352376D01*
X118272350Y-31351200D01*
X118760650Y-31351200D01*
X118784581Y-31352376D01*
X118784581Y-31352376D01*
G37*
D19*
X118516500Y-31877000D03*
D18*
G36*
X117209581Y-31352376D02*
X117233281Y-31355891D01*
X117256523Y-31361713D01*
X117279082Y-31369785D01*
X117300742Y-31380029D01*
X117321292Y-31392347D01*
X117340537Y-31406619D01*
X117358290Y-31422710D01*
X117374381Y-31440463D01*
X117388653Y-31459708D01*
X117400971Y-31480258D01*
X117411215Y-31501918D01*
X117419287Y-31524477D01*
X117425109Y-31547719D01*
X117428624Y-31571419D01*
X117429800Y-31595350D01*
X117429800Y-32158650D01*
X117428624Y-32182581D01*
X117425109Y-32206281D01*
X117419287Y-32229523D01*
X117411215Y-32252082D01*
X117400971Y-32273742D01*
X117388653Y-32294292D01*
X117374381Y-32313537D01*
X117358290Y-32331290D01*
X117340537Y-32347381D01*
X117321292Y-32361653D01*
X117300742Y-32373971D01*
X117279082Y-32384215D01*
X117256523Y-32392287D01*
X117233281Y-32398109D01*
X117209581Y-32401624D01*
X117185650Y-32402800D01*
X116697350Y-32402800D01*
X116673419Y-32401624D01*
X116649719Y-32398109D01*
X116626477Y-32392287D01*
X116603918Y-32384215D01*
X116582258Y-32373971D01*
X116561708Y-32361653D01*
X116542463Y-32347381D01*
X116524710Y-32331290D01*
X116508619Y-32313537D01*
X116494347Y-32294292D01*
X116482029Y-32273742D01*
X116471785Y-32252082D01*
X116463713Y-32229523D01*
X116457891Y-32206281D01*
X116454376Y-32182581D01*
X116453200Y-32158650D01*
X116453200Y-31595350D01*
X116454376Y-31571419D01*
X116457891Y-31547719D01*
X116463713Y-31524477D01*
X116471785Y-31501918D01*
X116482029Y-31480258D01*
X116494347Y-31459708D01*
X116508619Y-31440463D01*
X116524710Y-31422710D01*
X116542463Y-31406619D01*
X116561708Y-31392347D01*
X116582258Y-31380029D01*
X116603918Y-31369785D01*
X116626477Y-31361713D01*
X116649719Y-31355891D01*
X116673419Y-31352376D01*
X116697350Y-31351200D01*
X117185650Y-31351200D01*
X117209581Y-31352376D01*
X117209581Y-31352376D01*
G37*
D19*
X116941500Y-31877000D03*
G04 #@! TD*
D18*
G04 #@! TO.C,C8*
G36*
X145339581Y-25979876D02*
X145363281Y-25983391D01*
X145386523Y-25989213D01*
X145409082Y-25997285D01*
X145430742Y-26007529D01*
X145451292Y-26019847D01*
X145470537Y-26034119D01*
X145488290Y-26050210D01*
X145504381Y-26067963D01*
X145518653Y-26087208D01*
X145530971Y-26107758D01*
X145541215Y-26129418D01*
X145549287Y-26151977D01*
X145555109Y-26175219D01*
X145558624Y-26198919D01*
X145559800Y-26222850D01*
X145559800Y-26711150D01*
X145558624Y-26735081D01*
X145555109Y-26758781D01*
X145549287Y-26782023D01*
X145541215Y-26804582D01*
X145530971Y-26826242D01*
X145518653Y-26846792D01*
X145504381Y-26866037D01*
X145488290Y-26883790D01*
X145470537Y-26899881D01*
X145451292Y-26914153D01*
X145430742Y-26926471D01*
X145409082Y-26936715D01*
X145386523Y-26944787D01*
X145363281Y-26950609D01*
X145339581Y-26954124D01*
X145315650Y-26955300D01*
X144752350Y-26955300D01*
X144728419Y-26954124D01*
X144704719Y-26950609D01*
X144681477Y-26944787D01*
X144658918Y-26936715D01*
X144637258Y-26926471D01*
X144616708Y-26914153D01*
X144597463Y-26899881D01*
X144579710Y-26883790D01*
X144563619Y-26866037D01*
X144549347Y-26846792D01*
X144537029Y-26826242D01*
X144526785Y-26804582D01*
X144518713Y-26782023D01*
X144512891Y-26758781D01*
X144509376Y-26735081D01*
X144508200Y-26711150D01*
X144508200Y-26222850D01*
X144509376Y-26198919D01*
X144512891Y-26175219D01*
X144518713Y-26151977D01*
X144526785Y-26129418D01*
X144537029Y-26107758D01*
X144549347Y-26087208D01*
X144563619Y-26067963D01*
X144579710Y-26050210D01*
X144597463Y-26034119D01*
X144616708Y-26019847D01*
X144637258Y-26007529D01*
X144658918Y-25997285D01*
X144681477Y-25989213D01*
X144704719Y-25983391D01*
X144728419Y-25979876D01*
X144752350Y-25978700D01*
X145315650Y-25978700D01*
X145339581Y-25979876D01*
X145339581Y-25979876D01*
G37*
D19*
X145034000Y-26467000D03*
D18*
G36*
X145339581Y-24404876D02*
X145363281Y-24408391D01*
X145386523Y-24414213D01*
X145409082Y-24422285D01*
X145430742Y-24432529D01*
X145451292Y-24444847D01*
X145470537Y-24459119D01*
X145488290Y-24475210D01*
X145504381Y-24492963D01*
X145518653Y-24512208D01*
X145530971Y-24532758D01*
X145541215Y-24554418D01*
X145549287Y-24576977D01*
X145555109Y-24600219D01*
X145558624Y-24623919D01*
X145559800Y-24647850D01*
X145559800Y-25136150D01*
X145558624Y-25160081D01*
X145555109Y-25183781D01*
X145549287Y-25207023D01*
X145541215Y-25229582D01*
X145530971Y-25251242D01*
X145518653Y-25271792D01*
X145504381Y-25291037D01*
X145488290Y-25308790D01*
X145470537Y-25324881D01*
X145451292Y-25339153D01*
X145430742Y-25351471D01*
X145409082Y-25361715D01*
X145386523Y-25369787D01*
X145363281Y-25375609D01*
X145339581Y-25379124D01*
X145315650Y-25380300D01*
X144752350Y-25380300D01*
X144728419Y-25379124D01*
X144704719Y-25375609D01*
X144681477Y-25369787D01*
X144658918Y-25361715D01*
X144637258Y-25351471D01*
X144616708Y-25339153D01*
X144597463Y-25324881D01*
X144579710Y-25308790D01*
X144563619Y-25291037D01*
X144549347Y-25271792D01*
X144537029Y-25251242D01*
X144526785Y-25229582D01*
X144518713Y-25207023D01*
X144512891Y-25183781D01*
X144509376Y-25160081D01*
X144508200Y-25136150D01*
X144508200Y-24647850D01*
X144509376Y-24623919D01*
X144512891Y-24600219D01*
X144518713Y-24576977D01*
X144526785Y-24554418D01*
X144537029Y-24532758D01*
X144549347Y-24512208D01*
X144563619Y-24492963D01*
X144579710Y-24475210D01*
X144597463Y-24459119D01*
X144616708Y-24444847D01*
X144637258Y-24432529D01*
X144658918Y-24422285D01*
X144681477Y-24414213D01*
X144704719Y-24408391D01*
X144728419Y-24404876D01*
X144752350Y-24403700D01*
X145315650Y-24403700D01*
X145339581Y-24404876D01*
X145339581Y-24404876D01*
G37*
D19*
X145034000Y-24892000D03*
G04 #@! TD*
D18*
G04 #@! TO.C,C9*
G36*
X139638081Y-36559376D02*
X139661781Y-36562891D01*
X139685023Y-36568713D01*
X139707582Y-36576785D01*
X139729242Y-36587029D01*
X139749792Y-36599347D01*
X139769037Y-36613619D01*
X139786790Y-36629710D01*
X139802881Y-36647463D01*
X139817153Y-36666708D01*
X139829471Y-36687258D01*
X139839715Y-36708918D01*
X139847787Y-36731477D01*
X139853609Y-36754719D01*
X139857124Y-36778419D01*
X139858300Y-36802350D01*
X139858300Y-37365650D01*
X139857124Y-37389581D01*
X139853609Y-37413281D01*
X139847787Y-37436523D01*
X139839715Y-37459082D01*
X139829471Y-37480742D01*
X139817153Y-37501292D01*
X139802881Y-37520537D01*
X139786790Y-37538290D01*
X139769037Y-37554381D01*
X139749792Y-37568653D01*
X139729242Y-37580971D01*
X139707582Y-37591215D01*
X139685023Y-37599287D01*
X139661781Y-37605109D01*
X139638081Y-37608624D01*
X139614150Y-37609800D01*
X139125850Y-37609800D01*
X139101919Y-37608624D01*
X139078219Y-37605109D01*
X139054977Y-37599287D01*
X139032418Y-37591215D01*
X139010758Y-37580971D01*
X138990208Y-37568653D01*
X138970963Y-37554381D01*
X138953210Y-37538290D01*
X138937119Y-37520537D01*
X138922847Y-37501292D01*
X138910529Y-37480742D01*
X138900285Y-37459082D01*
X138892213Y-37436523D01*
X138886391Y-37413281D01*
X138882876Y-37389581D01*
X138881700Y-37365650D01*
X138881700Y-36802350D01*
X138882876Y-36778419D01*
X138886391Y-36754719D01*
X138892213Y-36731477D01*
X138900285Y-36708918D01*
X138910529Y-36687258D01*
X138922847Y-36666708D01*
X138937119Y-36647463D01*
X138953210Y-36629710D01*
X138970963Y-36613619D01*
X138990208Y-36599347D01*
X139010758Y-36587029D01*
X139032418Y-36576785D01*
X139054977Y-36568713D01*
X139078219Y-36562891D01*
X139101919Y-36559376D01*
X139125850Y-36558200D01*
X139614150Y-36558200D01*
X139638081Y-36559376D01*
X139638081Y-36559376D01*
G37*
D19*
X139370000Y-37084000D03*
D18*
G36*
X138063081Y-36559376D02*
X138086781Y-36562891D01*
X138110023Y-36568713D01*
X138132582Y-36576785D01*
X138154242Y-36587029D01*
X138174792Y-36599347D01*
X138194037Y-36613619D01*
X138211790Y-36629710D01*
X138227881Y-36647463D01*
X138242153Y-36666708D01*
X138254471Y-36687258D01*
X138264715Y-36708918D01*
X138272787Y-36731477D01*
X138278609Y-36754719D01*
X138282124Y-36778419D01*
X138283300Y-36802350D01*
X138283300Y-37365650D01*
X138282124Y-37389581D01*
X138278609Y-37413281D01*
X138272787Y-37436523D01*
X138264715Y-37459082D01*
X138254471Y-37480742D01*
X138242153Y-37501292D01*
X138227881Y-37520537D01*
X138211790Y-37538290D01*
X138194037Y-37554381D01*
X138174792Y-37568653D01*
X138154242Y-37580971D01*
X138132582Y-37591215D01*
X138110023Y-37599287D01*
X138086781Y-37605109D01*
X138063081Y-37608624D01*
X138039150Y-37609800D01*
X137550850Y-37609800D01*
X137526919Y-37608624D01*
X137503219Y-37605109D01*
X137479977Y-37599287D01*
X137457418Y-37591215D01*
X137435758Y-37580971D01*
X137415208Y-37568653D01*
X137395963Y-37554381D01*
X137378210Y-37538290D01*
X137362119Y-37520537D01*
X137347847Y-37501292D01*
X137335529Y-37480742D01*
X137325285Y-37459082D01*
X137317213Y-37436523D01*
X137311391Y-37413281D01*
X137307876Y-37389581D01*
X137306700Y-37365650D01*
X137306700Y-36802350D01*
X137307876Y-36778419D01*
X137311391Y-36754719D01*
X137317213Y-36731477D01*
X137325285Y-36708918D01*
X137335529Y-36687258D01*
X137347847Y-36666708D01*
X137362119Y-36647463D01*
X137378210Y-36629710D01*
X137395963Y-36613619D01*
X137415208Y-36599347D01*
X137435758Y-36587029D01*
X137457418Y-36576785D01*
X137479977Y-36568713D01*
X137503219Y-36562891D01*
X137526919Y-36559376D01*
X137550850Y-36558200D01*
X138039150Y-36558200D01*
X138063081Y-36559376D01*
X138063081Y-36559376D01*
G37*
D19*
X137795000Y-37084000D03*
G04 #@! TD*
D18*
G04 #@! TO.C,D5*
G36*
X131115581Y-28722876D02*
X131139281Y-28726391D01*
X131162523Y-28732213D01*
X131185082Y-28740285D01*
X131206742Y-28750529D01*
X131227292Y-28762847D01*
X131246537Y-28777119D01*
X131264290Y-28793210D01*
X131280381Y-28810963D01*
X131294653Y-28830208D01*
X131306971Y-28850758D01*
X131317215Y-28872418D01*
X131325287Y-28894977D01*
X131331109Y-28918219D01*
X131334624Y-28941919D01*
X131335800Y-28965850D01*
X131335800Y-29454150D01*
X131334624Y-29478081D01*
X131331109Y-29501781D01*
X131325287Y-29525023D01*
X131317215Y-29547582D01*
X131306971Y-29569242D01*
X131294653Y-29589792D01*
X131280381Y-29609037D01*
X131264290Y-29626790D01*
X131246537Y-29642881D01*
X131227292Y-29657153D01*
X131206742Y-29669471D01*
X131185082Y-29679715D01*
X131162523Y-29687787D01*
X131139281Y-29693609D01*
X131115581Y-29697124D01*
X131091650Y-29698300D01*
X130528350Y-29698300D01*
X130504419Y-29697124D01*
X130480719Y-29693609D01*
X130457477Y-29687787D01*
X130434918Y-29679715D01*
X130413258Y-29669471D01*
X130392708Y-29657153D01*
X130373463Y-29642881D01*
X130355710Y-29626790D01*
X130339619Y-29609037D01*
X130325347Y-29589792D01*
X130313029Y-29569242D01*
X130302785Y-29547582D01*
X130294713Y-29525023D01*
X130288891Y-29501781D01*
X130285376Y-29478081D01*
X130284200Y-29454150D01*
X130284200Y-28965850D01*
X130285376Y-28941919D01*
X130288891Y-28918219D01*
X130294713Y-28894977D01*
X130302785Y-28872418D01*
X130313029Y-28850758D01*
X130325347Y-28830208D01*
X130339619Y-28810963D01*
X130355710Y-28793210D01*
X130373463Y-28777119D01*
X130392708Y-28762847D01*
X130413258Y-28750529D01*
X130434918Y-28740285D01*
X130457477Y-28732213D01*
X130480719Y-28726391D01*
X130504419Y-28722876D01*
X130528350Y-28721700D01*
X131091650Y-28721700D01*
X131115581Y-28722876D01*
X131115581Y-28722876D01*
G37*
D19*
X130810000Y-29210000D03*
D18*
G36*
X131115581Y-30297876D02*
X131139281Y-30301391D01*
X131162523Y-30307213D01*
X131185082Y-30315285D01*
X131206742Y-30325529D01*
X131227292Y-30337847D01*
X131246537Y-30352119D01*
X131264290Y-30368210D01*
X131280381Y-30385963D01*
X131294653Y-30405208D01*
X131306971Y-30425758D01*
X131317215Y-30447418D01*
X131325287Y-30469977D01*
X131331109Y-30493219D01*
X131334624Y-30516919D01*
X131335800Y-30540850D01*
X131335800Y-31029150D01*
X131334624Y-31053081D01*
X131331109Y-31076781D01*
X131325287Y-31100023D01*
X131317215Y-31122582D01*
X131306971Y-31144242D01*
X131294653Y-31164792D01*
X131280381Y-31184037D01*
X131264290Y-31201790D01*
X131246537Y-31217881D01*
X131227292Y-31232153D01*
X131206742Y-31244471D01*
X131185082Y-31254715D01*
X131162523Y-31262787D01*
X131139281Y-31268609D01*
X131115581Y-31272124D01*
X131091650Y-31273300D01*
X130528350Y-31273300D01*
X130504419Y-31272124D01*
X130480719Y-31268609D01*
X130457477Y-31262787D01*
X130434918Y-31254715D01*
X130413258Y-31244471D01*
X130392708Y-31232153D01*
X130373463Y-31217881D01*
X130355710Y-31201790D01*
X130339619Y-31184037D01*
X130325347Y-31164792D01*
X130313029Y-31144242D01*
X130302785Y-31122582D01*
X130294713Y-31100023D01*
X130288891Y-31076781D01*
X130285376Y-31053081D01*
X130284200Y-31029150D01*
X130284200Y-30540850D01*
X130285376Y-30516919D01*
X130288891Y-30493219D01*
X130294713Y-30469977D01*
X130302785Y-30447418D01*
X130313029Y-30425758D01*
X130325347Y-30405208D01*
X130339619Y-30385963D01*
X130355710Y-30368210D01*
X130373463Y-30352119D01*
X130392708Y-30337847D01*
X130413258Y-30325529D01*
X130434918Y-30315285D01*
X130457477Y-30307213D01*
X130480719Y-30301391D01*
X130504419Y-30297876D01*
X130528350Y-30296700D01*
X131091650Y-30296700D01*
X131115581Y-30297876D01*
X131115581Y-30297876D01*
G37*
D19*
X130810000Y-30785000D03*
G04 #@! TD*
D18*
G04 #@! TO.C,D6*
G36*
X131115581Y-32532876D02*
X131139281Y-32536391D01*
X131162523Y-32542213D01*
X131185082Y-32550285D01*
X131206742Y-32560529D01*
X131227292Y-32572847D01*
X131246537Y-32587119D01*
X131264290Y-32603210D01*
X131280381Y-32620963D01*
X131294653Y-32640208D01*
X131306971Y-32660758D01*
X131317215Y-32682418D01*
X131325287Y-32704977D01*
X131331109Y-32728219D01*
X131334624Y-32751919D01*
X131335800Y-32775850D01*
X131335800Y-33264150D01*
X131334624Y-33288081D01*
X131331109Y-33311781D01*
X131325287Y-33335023D01*
X131317215Y-33357582D01*
X131306971Y-33379242D01*
X131294653Y-33399792D01*
X131280381Y-33419037D01*
X131264290Y-33436790D01*
X131246537Y-33452881D01*
X131227292Y-33467153D01*
X131206742Y-33479471D01*
X131185082Y-33489715D01*
X131162523Y-33497787D01*
X131139281Y-33503609D01*
X131115581Y-33507124D01*
X131091650Y-33508300D01*
X130528350Y-33508300D01*
X130504419Y-33507124D01*
X130480719Y-33503609D01*
X130457477Y-33497787D01*
X130434918Y-33489715D01*
X130413258Y-33479471D01*
X130392708Y-33467153D01*
X130373463Y-33452881D01*
X130355710Y-33436790D01*
X130339619Y-33419037D01*
X130325347Y-33399792D01*
X130313029Y-33379242D01*
X130302785Y-33357582D01*
X130294713Y-33335023D01*
X130288891Y-33311781D01*
X130285376Y-33288081D01*
X130284200Y-33264150D01*
X130284200Y-32775850D01*
X130285376Y-32751919D01*
X130288891Y-32728219D01*
X130294713Y-32704977D01*
X130302785Y-32682418D01*
X130313029Y-32660758D01*
X130325347Y-32640208D01*
X130339619Y-32620963D01*
X130355710Y-32603210D01*
X130373463Y-32587119D01*
X130392708Y-32572847D01*
X130413258Y-32560529D01*
X130434918Y-32550285D01*
X130457477Y-32542213D01*
X130480719Y-32536391D01*
X130504419Y-32532876D01*
X130528350Y-32531700D01*
X131091650Y-32531700D01*
X131115581Y-32532876D01*
X131115581Y-32532876D01*
G37*
D19*
X130810000Y-33020000D03*
D18*
G36*
X131115581Y-34107876D02*
X131139281Y-34111391D01*
X131162523Y-34117213D01*
X131185082Y-34125285D01*
X131206742Y-34135529D01*
X131227292Y-34147847D01*
X131246537Y-34162119D01*
X131264290Y-34178210D01*
X131280381Y-34195963D01*
X131294653Y-34215208D01*
X131306971Y-34235758D01*
X131317215Y-34257418D01*
X131325287Y-34279977D01*
X131331109Y-34303219D01*
X131334624Y-34326919D01*
X131335800Y-34350850D01*
X131335800Y-34839150D01*
X131334624Y-34863081D01*
X131331109Y-34886781D01*
X131325287Y-34910023D01*
X131317215Y-34932582D01*
X131306971Y-34954242D01*
X131294653Y-34974792D01*
X131280381Y-34994037D01*
X131264290Y-35011790D01*
X131246537Y-35027881D01*
X131227292Y-35042153D01*
X131206742Y-35054471D01*
X131185082Y-35064715D01*
X131162523Y-35072787D01*
X131139281Y-35078609D01*
X131115581Y-35082124D01*
X131091650Y-35083300D01*
X130528350Y-35083300D01*
X130504419Y-35082124D01*
X130480719Y-35078609D01*
X130457477Y-35072787D01*
X130434918Y-35064715D01*
X130413258Y-35054471D01*
X130392708Y-35042153D01*
X130373463Y-35027881D01*
X130355710Y-35011790D01*
X130339619Y-34994037D01*
X130325347Y-34974792D01*
X130313029Y-34954242D01*
X130302785Y-34932582D01*
X130294713Y-34910023D01*
X130288891Y-34886781D01*
X130285376Y-34863081D01*
X130284200Y-34839150D01*
X130284200Y-34350850D01*
X130285376Y-34326919D01*
X130288891Y-34303219D01*
X130294713Y-34279977D01*
X130302785Y-34257418D01*
X130313029Y-34235758D01*
X130325347Y-34215208D01*
X130339619Y-34195963D01*
X130355710Y-34178210D01*
X130373463Y-34162119D01*
X130392708Y-34147847D01*
X130413258Y-34135529D01*
X130434918Y-34125285D01*
X130457477Y-34117213D01*
X130480719Y-34111391D01*
X130504419Y-34107876D01*
X130528350Y-34106700D01*
X131091650Y-34106700D01*
X131115581Y-34107876D01*
X131115581Y-34107876D01*
G37*
D19*
X130810000Y-34595000D03*
G04 #@! TD*
D11*
G04 #@! TO.C,J1*
X106934000Y-27432000D03*
X95504000Y-27432000D03*
D20*
X96774000Y-33782000D03*
D21*
X98044000Y-36322000D03*
X99314000Y-33782000D03*
X100584000Y-36322000D03*
X101854000Y-33782000D03*
X103124000Y-36322000D03*
X104394000Y-33782000D03*
X105664000Y-36322000D03*
G04 #@! TD*
D18*
G04 #@! TO.C,R1*
G36*
X113552081Y-33257376D02*
X113575781Y-33260891D01*
X113599023Y-33266713D01*
X113621582Y-33274785D01*
X113643242Y-33285029D01*
X113663792Y-33297347D01*
X113683037Y-33311619D01*
X113700790Y-33327710D01*
X113716881Y-33345463D01*
X113731153Y-33364708D01*
X113743471Y-33385258D01*
X113753715Y-33406918D01*
X113761787Y-33429477D01*
X113767609Y-33452719D01*
X113771124Y-33476419D01*
X113772300Y-33500350D01*
X113772300Y-34063650D01*
X113771124Y-34087581D01*
X113767609Y-34111281D01*
X113761787Y-34134523D01*
X113753715Y-34157082D01*
X113743471Y-34178742D01*
X113731153Y-34199292D01*
X113716881Y-34218537D01*
X113700790Y-34236290D01*
X113683037Y-34252381D01*
X113663792Y-34266653D01*
X113643242Y-34278971D01*
X113621582Y-34289215D01*
X113599023Y-34297287D01*
X113575781Y-34303109D01*
X113552081Y-34306624D01*
X113528150Y-34307800D01*
X113039850Y-34307800D01*
X113015919Y-34306624D01*
X112992219Y-34303109D01*
X112968977Y-34297287D01*
X112946418Y-34289215D01*
X112924758Y-34278971D01*
X112904208Y-34266653D01*
X112884963Y-34252381D01*
X112867210Y-34236290D01*
X112851119Y-34218537D01*
X112836847Y-34199292D01*
X112824529Y-34178742D01*
X112814285Y-34157082D01*
X112806213Y-34134523D01*
X112800391Y-34111281D01*
X112796876Y-34087581D01*
X112795700Y-34063650D01*
X112795700Y-33500350D01*
X112796876Y-33476419D01*
X112800391Y-33452719D01*
X112806213Y-33429477D01*
X112814285Y-33406918D01*
X112824529Y-33385258D01*
X112836847Y-33364708D01*
X112851119Y-33345463D01*
X112867210Y-33327710D01*
X112884963Y-33311619D01*
X112904208Y-33297347D01*
X112924758Y-33285029D01*
X112946418Y-33274785D01*
X112968977Y-33266713D01*
X112992219Y-33260891D01*
X113015919Y-33257376D01*
X113039850Y-33256200D01*
X113528150Y-33256200D01*
X113552081Y-33257376D01*
X113552081Y-33257376D01*
G37*
D19*
X113284000Y-33782000D03*
D18*
G36*
X111977081Y-33257376D02*
X112000781Y-33260891D01*
X112024023Y-33266713D01*
X112046582Y-33274785D01*
X112068242Y-33285029D01*
X112088792Y-33297347D01*
X112108037Y-33311619D01*
X112125790Y-33327710D01*
X112141881Y-33345463D01*
X112156153Y-33364708D01*
X112168471Y-33385258D01*
X112178715Y-33406918D01*
X112186787Y-33429477D01*
X112192609Y-33452719D01*
X112196124Y-33476419D01*
X112197300Y-33500350D01*
X112197300Y-34063650D01*
X112196124Y-34087581D01*
X112192609Y-34111281D01*
X112186787Y-34134523D01*
X112178715Y-34157082D01*
X112168471Y-34178742D01*
X112156153Y-34199292D01*
X112141881Y-34218537D01*
X112125790Y-34236290D01*
X112108037Y-34252381D01*
X112088792Y-34266653D01*
X112068242Y-34278971D01*
X112046582Y-34289215D01*
X112024023Y-34297287D01*
X112000781Y-34303109D01*
X111977081Y-34306624D01*
X111953150Y-34307800D01*
X111464850Y-34307800D01*
X111440919Y-34306624D01*
X111417219Y-34303109D01*
X111393977Y-34297287D01*
X111371418Y-34289215D01*
X111349758Y-34278971D01*
X111329208Y-34266653D01*
X111309963Y-34252381D01*
X111292210Y-34236290D01*
X111276119Y-34218537D01*
X111261847Y-34199292D01*
X111249529Y-34178742D01*
X111239285Y-34157082D01*
X111231213Y-34134523D01*
X111225391Y-34111281D01*
X111221876Y-34087581D01*
X111220700Y-34063650D01*
X111220700Y-33500350D01*
X111221876Y-33476419D01*
X111225391Y-33452719D01*
X111231213Y-33429477D01*
X111239285Y-33406918D01*
X111249529Y-33385258D01*
X111261847Y-33364708D01*
X111276119Y-33345463D01*
X111292210Y-33327710D01*
X111309963Y-33311619D01*
X111329208Y-33297347D01*
X111349758Y-33285029D01*
X111371418Y-33274785D01*
X111393977Y-33266713D01*
X111417219Y-33260891D01*
X111440919Y-33257376D01*
X111464850Y-33256200D01*
X111953150Y-33256200D01*
X111977081Y-33257376D01*
X111977081Y-33257376D01*
G37*
D19*
X111709000Y-33782000D03*
G04 #@! TD*
D18*
G04 #@! TO.C,R2*
G36*
X128157081Y-23097376D02*
X128180781Y-23100891D01*
X128204023Y-23106713D01*
X128226582Y-23114785D01*
X128248242Y-23125029D01*
X128268792Y-23137347D01*
X128288037Y-23151619D01*
X128305790Y-23167710D01*
X128321881Y-23185463D01*
X128336153Y-23204708D01*
X128348471Y-23225258D01*
X128358715Y-23246918D01*
X128366787Y-23269477D01*
X128372609Y-23292719D01*
X128376124Y-23316419D01*
X128377300Y-23340350D01*
X128377300Y-23903650D01*
X128376124Y-23927581D01*
X128372609Y-23951281D01*
X128366787Y-23974523D01*
X128358715Y-23997082D01*
X128348471Y-24018742D01*
X128336153Y-24039292D01*
X128321881Y-24058537D01*
X128305790Y-24076290D01*
X128288037Y-24092381D01*
X128268792Y-24106653D01*
X128248242Y-24118971D01*
X128226582Y-24129215D01*
X128204023Y-24137287D01*
X128180781Y-24143109D01*
X128157081Y-24146624D01*
X128133150Y-24147800D01*
X127644850Y-24147800D01*
X127620919Y-24146624D01*
X127597219Y-24143109D01*
X127573977Y-24137287D01*
X127551418Y-24129215D01*
X127529758Y-24118971D01*
X127509208Y-24106653D01*
X127489963Y-24092381D01*
X127472210Y-24076290D01*
X127456119Y-24058537D01*
X127441847Y-24039292D01*
X127429529Y-24018742D01*
X127419285Y-23997082D01*
X127411213Y-23974523D01*
X127405391Y-23951281D01*
X127401876Y-23927581D01*
X127400700Y-23903650D01*
X127400700Y-23340350D01*
X127401876Y-23316419D01*
X127405391Y-23292719D01*
X127411213Y-23269477D01*
X127419285Y-23246918D01*
X127429529Y-23225258D01*
X127441847Y-23204708D01*
X127456119Y-23185463D01*
X127472210Y-23167710D01*
X127489963Y-23151619D01*
X127509208Y-23137347D01*
X127529758Y-23125029D01*
X127551418Y-23114785D01*
X127573977Y-23106713D01*
X127597219Y-23100891D01*
X127620919Y-23097376D01*
X127644850Y-23096200D01*
X128133150Y-23096200D01*
X128157081Y-23097376D01*
X128157081Y-23097376D01*
G37*
D19*
X127889000Y-23622000D03*
D18*
G36*
X126582081Y-23097376D02*
X126605781Y-23100891D01*
X126629023Y-23106713D01*
X126651582Y-23114785D01*
X126673242Y-23125029D01*
X126693792Y-23137347D01*
X126713037Y-23151619D01*
X126730790Y-23167710D01*
X126746881Y-23185463D01*
X126761153Y-23204708D01*
X126773471Y-23225258D01*
X126783715Y-23246918D01*
X126791787Y-23269477D01*
X126797609Y-23292719D01*
X126801124Y-23316419D01*
X126802300Y-23340350D01*
X126802300Y-23903650D01*
X126801124Y-23927581D01*
X126797609Y-23951281D01*
X126791787Y-23974523D01*
X126783715Y-23997082D01*
X126773471Y-24018742D01*
X126761153Y-24039292D01*
X126746881Y-24058537D01*
X126730790Y-24076290D01*
X126713037Y-24092381D01*
X126693792Y-24106653D01*
X126673242Y-24118971D01*
X126651582Y-24129215D01*
X126629023Y-24137287D01*
X126605781Y-24143109D01*
X126582081Y-24146624D01*
X126558150Y-24147800D01*
X126069850Y-24147800D01*
X126045919Y-24146624D01*
X126022219Y-24143109D01*
X125998977Y-24137287D01*
X125976418Y-24129215D01*
X125954758Y-24118971D01*
X125934208Y-24106653D01*
X125914963Y-24092381D01*
X125897210Y-24076290D01*
X125881119Y-24058537D01*
X125866847Y-24039292D01*
X125854529Y-24018742D01*
X125844285Y-23997082D01*
X125836213Y-23974523D01*
X125830391Y-23951281D01*
X125826876Y-23927581D01*
X125825700Y-23903650D01*
X125825700Y-23340350D01*
X125826876Y-23316419D01*
X125830391Y-23292719D01*
X125836213Y-23269477D01*
X125844285Y-23246918D01*
X125854529Y-23225258D01*
X125866847Y-23204708D01*
X125881119Y-23185463D01*
X125897210Y-23167710D01*
X125914963Y-23151619D01*
X125934208Y-23137347D01*
X125954758Y-23125029D01*
X125976418Y-23114785D01*
X125998977Y-23106713D01*
X126022219Y-23100891D01*
X126045919Y-23097376D01*
X126069850Y-23096200D01*
X126558150Y-23096200D01*
X126582081Y-23097376D01*
X126582081Y-23097376D01*
G37*
D19*
X126314000Y-23622000D03*
G04 #@! TD*
D18*
G04 #@! TO.C,R3*
G36*
X136336081Y-36559376D02*
X136359781Y-36562891D01*
X136383023Y-36568713D01*
X136405582Y-36576785D01*
X136427242Y-36587029D01*
X136447792Y-36599347D01*
X136467037Y-36613619D01*
X136484790Y-36629710D01*
X136500881Y-36647463D01*
X136515153Y-36666708D01*
X136527471Y-36687258D01*
X136537715Y-36708918D01*
X136545787Y-36731477D01*
X136551609Y-36754719D01*
X136555124Y-36778419D01*
X136556300Y-36802350D01*
X136556300Y-37365650D01*
X136555124Y-37389581D01*
X136551609Y-37413281D01*
X136545787Y-37436523D01*
X136537715Y-37459082D01*
X136527471Y-37480742D01*
X136515153Y-37501292D01*
X136500881Y-37520537D01*
X136484790Y-37538290D01*
X136467037Y-37554381D01*
X136447792Y-37568653D01*
X136427242Y-37580971D01*
X136405582Y-37591215D01*
X136383023Y-37599287D01*
X136359781Y-37605109D01*
X136336081Y-37608624D01*
X136312150Y-37609800D01*
X135823850Y-37609800D01*
X135799919Y-37608624D01*
X135776219Y-37605109D01*
X135752977Y-37599287D01*
X135730418Y-37591215D01*
X135708758Y-37580971D01*
X135688208Y-37568653D01*
X135668963Y-37554381D01*
X135651210Y-37538290D01*
X135635119Y-37520537D01*
X135620847Y-37501292D01*
X135608529Y-37480742D01*
X135598285Y-37459082D01*
X135590213Y-37436523D01*
X135584391Y-37413281D01*
X135580876Y-37389581D01*
X135579700Y-37365650D01*
X135579700Y-36802350D01*
X135580876Y-36778419D01*
X135584391Y-36754719D01*
X135590213Y-36731477D01*
X135598285Y-36708918D01*
X135608529Y-36687258D01*
X135620847Y-36666708D01*
X135635119Y-36647463D01*
X135651210Y-36629710D01*
X135668963Y-36613619D01*
X135688208Y-36599347D01*
X135708758Y-36587029D01*
X135730418Y-36576785D01*
X135752977Y-36568713D01*
X135776219Y-36562891D01*
X135799919Y-36559376D01*
X135823850Y-36558200D01*
X136312150Y-36558200D01*
X136336081Y-36559376D01*
X136336081Y-36559376D01*
G37*
D19*
X136068000Y-37084000D03*
D18*
G36*
X134761081Y-36559376D02*
X134784781Y-36562891D01*
X134808023Y-36568713D01*
X134830582Y-36576785D01*
X134852242Y-36587029D01*
X134872792Y-36599347D01*
X134892037Y-36613619D01*
X134909790Y-36629710D01*
X134925881Y-36647463D01*
X134940153Y-36666708D01*
X134952471Y-36687258D01*
X134962715Y-36708918D01*
X134970787Y-36731477D01*
X134976609Y-36754719D01*
X134980124Y-36778419D01*
X134981300Y-36802350D01*
X134981300Y-37365650D01*
X134980124Y-37389581D01*
X134976609Y-37413281D01*
X134970787Y-37436523D01*
X134962715Y-37459082D01*
X134952471Y-37480742D01*
X134940153Y-37501292D01*
X134925881Y-37520537D01*
X134909790Y-37538290D01*
X134892037Y-37554381D01*
X134872792Y-37568653D01*
X134852242Y-37580971D01*
X134830582Y-37591215D01*
X134808023Y-37599287D01*
X134784781Y-37605109D01*
X134761081Y-37608624D01*
X134737150Y-37609800D01*
X134248850Y-37609800D01*
X134224919Y-37608624D01*
X134201219Y-37605109D01*
X134177977Y-37599287D01*
X134155418Y-37591215D01*
X134133758Y-37580971D01*
X134113208Y-37568653D01*
X134093963Y-37554381D01*
X134076210Y-37538290D01*
X134060119Y-37520537D01*
X134045847Y-37501292D01*
X134033529Y-37480742D01*
X134023285Y-37459082D01*
X134015213Y-37436523D01*
X134009391Y-37413281D01*
X134005876Y-37389581D01*
X134004700Y-37365650D01*
X134004700Y-36802350D01*
X134005876Y-36778419D01*
X134009391Y-36754719D01*
X134015213Y-36731477D01*
X134023285Y-36708918D01*
X134033529Y-36687258D01*
X134045847Y-36666708D01*
X134060119Y-36647463D01*
X134076210Y-36629710D01*
X134093963Y-36613619D01*
X134113208Y-36599347D01*
X134133758Y-36587029D01*
X134155418Y-36576785D01*
X134177977Y-36568713D01*
X134201219Y-36562891D01*
X134224919Y-36559376D01*
X134248850Y-36558200D01*
X134737150Y-36558200D01*
X134761081Y-36559376D01*
X134761081Y-36559376D01*
G37*
D19*
X134493000Y-37084000D03*
G04 #@! TD*
D18*
G04 #@! TO.C,R4*
G36*
X146242081Y-36559376D02*
X146265781Y-36562891D01*
X146289023Y-36568713D01*
X146311582Y-36576785D01*
X146333242Y-36587029D01*
X146353792Y-36599347D01*
X146373037Y-36613619D01*
X146390790Y-36629710D01*
X146406881Y-36647463D01*
X146421153Y-36666708D01*
X146433471Y-36687258D01*
X146443715Y-36708918D01*
X146451787Y-36731477D01*
X146457609Y-36754719D01*
X146461124Y-36778419D01*
X146462300Y-36802350D01*
X146462300Y-37365650D01*
X146461124Y-37389581D01*
X146457609Y-37413281D01*
X146451787Y-37436523D01*
X146443715Y-37459082D01*
X146433471Y-37480742D01*
X146421153Y-37501292D01*
X146406881Y-37520537D01*
X146390790Y-37538290D01*
X146373037Y-37554381D01*
X146353792Y-37568653D01*
X146333242Y-37580971D01*
X146311582Y-37591215D01*
X146289023Y-37599287D01*
X146265781Y-37605109D01*
X146242081Y-37608624D01*
X146218150Y-37609800D01*
X145729850Y-37609800D01*
X145705919Y-37608624D01*
X145682219Y-37605109D01*
X145658977Y-37599287D01*
X145636418Y-37591215D01*
X145614758Y-37580971D01*
X145594208Y-37568653D01*
X145574963Y-37554381D01*
X145557210Y-37538290D01*
X145541119Y-37520537D01*
X145526847Y-37501292D01*
X145514529Y-37480742D01*
X145504285Y-37459082D01*
X145496213Y-37436523D01*
X145490391Y-37413281D01*
X145486876Y-37389581D01*
X145485700Y-37365650D01*
X145485700Y-36802350D01*
X145486876Y-36778419D01*
X145490391Y-36754719D01*
X145496213Y-36731477D01*
X145504285Y-36708918D01*
X145514529Y-36687258D01*
X145526847Y-36666708D01*
X145541119Y-36647463D01*
X145557210Y-36629710D01*
X145574963Y-36613619D01*
X145594208Y-36599347D01*
X145614758Y-36587029D01*
X145636418Y-36576785D01*
X145658977Y-36568713D01*
X145682219Y-36562891D01*
X145705919Y-36559376D01*
X145729850Y-36558200D01*
X146218150Y-36558200D01*
X146242081Y-36559376D01*
X146242081Y-36559376D01*
G37*
D19*
X145974000Y-37084000D03*
D18*
G36*
X144667081Y-36559376D02*
X144690781Y-36562891D01*
X144714023Y-36568713D01*
X144736582Y-36576785D01*
X144758242Y-36587029D01*
X144778792Y-36599347D01*
X144798037Y-36613619D01*
X144815790Y-36629710D01*
X144831881Y-36647463D01*
X144846153Y-36666708D01*
X144858471Y-36687258D01*
X144868715Y-36708918D01*
X144876787Y-36731477D01*
X144882609Y-36754719D01*
X144886124Y-36778419D01*
X144887300Y-36802350D01*
X144887300Y-37365650D01*
X144886124Y-37389581D01*
X144882609Y-37413281D01*
X144876787Y-37436523D01*
X144868715Y-37459082D01*
X144858471Y-37480742D01*
X144846153Y-37501292D01*
X144831881Y-37520537D01*
X144815790Y-37538290D01*
X144798037Y-37554381D01*
X144778792Y-37568653D01*
X144758242Y-37580971D01*
X144736582Y-37591215D01*
X144714023Y-37599287D01*
X144690781Y-37605109D01*
X144667081Y-37608624D01*
X144643150Y-37609800D01*
X144154850Y-37609800D01*
X144130919Y-37608624D01*
X144107219Y-37605109D01*
X144083977Y-37599287D01*
X144061418Y-37591215D01*
X144039758Y-37580971D01*
X144019208Y-37568653D01*
X143999963Y-37554381D01*
X143982210Y-37538290D01*
X143966119Y-37520537D01*
X143951847Y-37501292D01*
X143939529Y-37480742D01*
X143929285Y-37459082D01*
X143921213Y-37436523D01*
X143915391Y-37413281D01*
X143911876Y-37389581D01*
X143910700Y-37365650D01*
X143910700Y-36802350D01*
X143911876Y-36778419D01*
X143915391Y-36754719D01*
X143921213Y-36731477D01*
X143929285Y-36708918D01*
X143939529Y-36687258D01*
X143951847Y-36666708D01*
X143966119Y-36647463D01*
X143982210Y-36629710D01*
X143999963Y-36613619D01*
X144019208Y-36599347D01*
X144039758Y-36587029D01*
X144061418Y-36576785D01*
X144083977Y-36568713D01*
X144107219Y-36562891D01*
X144130919Y-36559376D01*
X144154850Y-36558200D01*
X144643150Y-36558200D01*
X144667081Y-36559376D01*
X144667081Y-36559376D01*
G37*
D19*
X144399000Y-37084000D03*
G04 #@! TD*
D18*
G04 #@! TO.C,R5*
G36*
X144704581Y-31719876D02*
X144728281Y-31723391D01*
X144751523Y-31729213D01*
X144774082Y-31737285D01*
X144795742Y-31747529D01*
X144816292Y-31759847D01*
X144835537Y-31774119D01*
X144853290Y-31790210D01*
X144869381Y-31807963D01*
X144883653Y-31827208D01*
X144895971Y-31847758D01*
X144906215Y-31869418D01*
X144914287Y-31891977D01*
X144920109Y-31915219D01*
X144923624Y-31938919D01*
X144924800Y-31962850D01*
X144924800Y-32451150D01*
X144923624Y-32475081D01*
X144920109Y-32498781D01*
X144914287Y-32522023D01*
X144906215Y-32544582D01*
X144895971Y-32566242D01*
X144883653Y-32586792D01*
X144869381Y-32606037D01*
X144853290Y-32623790D01*
X144835537Y-32639881D01*
X144816292Y-32654153D01*
X144795742Y-32666471D01*
X144774082Y-32676715D01*
X144751523Y-32684787D01*
X144728281Y-32690609D01*
X144704581Y-32694124D01*
X144680650Y-32695300D01*
X144117350Y-32695300D01*
X144093419Y-32694124D01*
X144069719Y-32690609D01*
X144046477Y-32684787D01*
X144023918Y-32676715D01*
X144002258Y-32666471D01*
X143981708Y-32654153D01*
X143962463Y-32639881D01*
X143944710Y-32623790D01*
X143928619Y-32606037D01*
X143914347Y-32586792D01*
X143902029Y-32566242D01*
X143891785Y-32544582D01*
X143883713Y-32522023D01*
X143877891Y-32498781D01*
X143874376Y-32475081D01*
X143873200Y-32451150D01*
X143873200Y-31962850D01*
X143874376Y-31938919D01*
X143877891Y-31915219D01*
X143883713Y-31891977D01*
X143891785Y-31869418D01*
X143902029Y-31847758D01*
X143914347Y-31827208D01*
X143928619Y-31807963D01*
X143944710Y-31790210D01*
X143962463Y-31774119D01*
X143981708Y-31759847D01*
X144002258Y-31747529D01*
X144023918Y-31737285D01*
X144046477Y-31729213D01*
X144069719Y-31723391D01*
X144093419Y-31719876D01*
X144117350Y-31718700D01*
X144680650Y-31718700D01*
X144704581Y-31719876D01*
X144704581Y-31719876D01*
G37*
D19*
X144399000Y-32207000D03*
D18*
G36*
X144704581Y-33294876D02*
X144728281Y-33298391D01*
X144751523Y-33304213D01*
X144774082Y-33312285D01*
X144795742Y-33322529D01*
X144816292Y-33334847D01*
X144835537Y-33349119D01*
X144853290Y-33365210D01*
X144869381Y-33382963D01*
X144883653Y-33402208D01*
X144895971Y-33422758D01*
X144906215Y-33444418D01*
X144914287Y-33466977D01*
X144920109Y-33490219D01*
X144923624Y-33513919D01*
X144924800Y-33537850D01*
X144924800Y-34026150D01*
X144923624Y-34050081D01*
X144920109Y-34073781D01*
X144914287Y-34097023D01*
X144906215Y-34119582D01*
X144895971Y-34141242D01*
X144883653Y-34161792D01*
X144869381Y-34181037D01*
X144853290Y-34198790D01*
X144835537Y-34214881D01*
X144816292Y-34229153D01*
X144795742Y-34241471D01*
X144774082Y-34251715D01*
X144751523Y-34259787D01*
X144728281Y-34265609D01*
X144704581Y-34269124D01*
X144680650Y-34270300D01*
X144117350Y-34270300D01*
X144093419Y-34269124D01*
X144069719Y-34265609D01*
X144046477Y-34259787D01*
X144023918Y-34251715D01*
X144002258Y-34241471D01*
X143981708Y-34229153D01*
X143962463Y-34214881D01*
X143944710Y-34198790D01*
X143928619Y-34181037D01*
X143914347Y-34161792D01*
X143902029Y-34141242D01*
X143891785Y-34119582D01*
X143883713Y-34097023D01*
X143877891Y-34073781D01*
X143874376Y-34050081D01*
X143873200Y-34026150D01*
X143873200Y-33537850D01*
X143874376Y-33513919D01*
X143877891Y-33490219D01*
X143883713Y-33466977D01*
X143891785Y-33444418D01*
X143902029Y-33422758D01*
X143914347Y-33402208D01*
X143928619Y-33382963D01*
X143944710Y-33365210D01*
X143962463Y-33349119D01*
X143981708Y-33334847D01*
X144002258Y-33322529D01*
X144023918Y-33312285D01*
X144046477Y-33304213D01*
X144069719Y-33298391D01*
X144093419Y-33294876D01*
X144117350Y-33293700D01*
X144680650Y-33293700D01*
X144704581Y-33294876D01*
X144704581Y-33294876D01*
G37*
D19*
X144399000Y-33782000D03*
G04 #@! TD*
D18*
G04 #@! TO.C,R6*
G36*
X144704581Y-28214876D02*
X144728281Y-28218391D01*
X144751523Y-28224213D01*
X144774082Y-28232285D01*
X144795742Y-28242529D01*
X144816292Y-28254847D01*
X144835537Y-28269119D01*
X144853290Y-28285210D01*
X144869381Y-28302963D01*
X144883653Y-28322208D01*
X144895971Y-28342758D01*
X144906215Y-28364418D01*
X144914287Y-28386977D01*
X144920109Y-28410219D01*
X144923624Y-28433919D01*
X144924800Y-28457850D01*
X144924800Y-28946150D01*
X144923624Y-28970081D01*
X144920109Y-28993781D01*
X144914287Y-29017023D01*
X144906215Y-29039582D01*
X144895971Y-29061242D01*
X144883653Y-29081792D01*
X144869381Y-29101037D01*
X144853290Y-29118790D01*
X144835537Y-29134881D01*
X144816292Y-29149153D01*
X144795742Y-29161471D01*
X144774082Y-29171715D01*
X144751523Y-29179787D01*
X144728281Y-29185609D01*
X144704581Y-29189124D01*
X144680650Y-29190300D01*
X144117350Y-29190300D01*
X144093419Y-29189124D01*
X144069719Y-29185609D01*
X144046477Y-29179787D01*
X144023918Y-29171715D01*
X144002258Y-29161471D01*
X143981708Y-29149153D01*
X143962463Y-29134881D01*
X143944710Y-29118790D01*
X143928619Y-29101037D01*
X143914347Y-29081792D01*
X143902029Y-29061242D01*
X143891785Y-29039582D01*
X143883713Y-29017023D01*
X143877891Y-28993781D01*
X143874376Y-28970081D01*
X143873200Y-28946150D01*
X143873200Y-28457850D01*
X143874376Y-28433919D01*
X143877891Y-28410219D01*
X143883713Y-28386977D01*
X143891785Y-28364418D01*
X143902029Y-28342758D01*
X143914347Y-28322208D01*
X143928619Y-28302963D01*
X143944710Y-28285210D01*
X143962463Y-28269119D01*
X143981708Y-28254847D01*
X144002258Y-28242529D01*
X144023918Y-28232285D01*
X144046477Y-28224213D01*
X144069719Y-28218391D01*
X144093419Y-28214876D01*
X144117350Y-28213700D01*
X144680650Y-28213700D01*
X144704581Y-28214876D01*
X144704581Y-28214876D01*
G37*
D19*
X144399000Y-28702000D03*
D18*
G36*
X144704581Y-29789876D02*
X144728281Y-29793391D01*
X144751523Y-29799213D01*
X144774082Y-29807285D01*
X144795742Y-29817529D01*
X144816292Y-29829847D01*
X144835537Y-29844119D01*
X144853290Y-29860210D01*
X144869381Y-29877963D01*
X144883653Y-29897208D01*
X144895971Y-29917758D01*
X144906215Y-29939418D01*
X144914287Y-29961977D01*
X144920109Y-29985219D01*
X144923624Y-30008919D01*
X144924800Y-30032850D01*
X144924800Y-30521150D01*
X144923624Y-30545081D01*
X144920109Y-30568781D01*
X144914287Y-30592023D01*
X144906215Y-30614582D01*
X144895971Y-30636242D01*
X144883653Y-30656792D01*
X144869381Y-30676037D01*
X144853290Y-30693790D01*
X144835537Y-30709881D01*
X144816292Y-30724153D01*
X144795742Y-30736471D01*
X144774082Y-30746715D01*
X144751523Y-30754787D01*
X144728281Y-30760609D01*
X144704581Y-30764124D01*
X144680650Y-30765300D01*
X144117350Y-30765300D01*
X144093419Y-30764124D01*
X144069719Y-30760609D01*
X144046477Y-30754787D01*
X144023918Y-30746715D01*
X144002258Y-30736471D01*
X143981708Y-30724153D01*
X143962463Y-30709881D01*
X143944710Y-30693790D01*
X143928619Y-30676037D01*
X143914347Y-30656792D01*
X143902029Y-30636242D01*
X143891785Y-30614582D01*
X143883713Y-30592023D01*
X143877891Y-30568781D01*
X143874376Y-30545081D01*
X143873200Y-30521150D01*
X143873200Y-30032850D01*
X143874376Y-30008919D01*
X143877891Y-29985219D01*
X143883713Y-29961977D01*
X143891785Y-29939418D01*
X143902029Y-29917758D01*
X143914347Y-29897208D01*
X143928619Y-29877963D01*
X143944710Y-29860210D01*
X143962463Y-29844119D01*
X143981708Y-29829847D01*
X144002258Y-29817529D01*
X144023918Y-29807285D01*
X144046477Y-29799213D01*
X144069719Y-29793391D01*
X144093419Y-29789876D01*
X144117350Y-29788700D01*
X144680650Y-29788700D01*
X144704581Y-29789876D01*
X144704581Y-29789876D01*
G37*
D19*
X144399000Y-30277000D03*
G04 #@! TD*
D18*
G04 #@! TO.C,R7*
G36*
X132983081Y-36559376D02*
X133006781Y-36562891D01*
X133030023Y-36568713D01*
X133052582Y-36576785D01*
X133074242Y-36587029D01*
X133094792Y-36599347D01*
X133114037Y-36613619D01*
X133131790Y-36629710D01*
X133147881Y-36647463D01*
X133162153Y-36666708D01*
X133174471Y-36687258D01*
X133184715Y-36708918D01*
X133192787Y-36731477D01*
X133198609Y-36754719D01*
X133202124Y-36778419D01*
X133203300Y-36802350D01*
X133203300Y-37365650D01*
X133202124Y-37389581D01*
X133198609Y-37413281D01*
X133192787Y-37436523D01*
X133184715Y-37459082D01*
X133174471Y-37480742D01*
X133162153Y-37501292D01*
X133147881Y-37520537D01*
X133131790Y-37538290D01*
X133114037Y-37554381D01*
X133094792Y-37568653D01*
X133074242Y-37580971D01*
X133052582Y-37591215D01*
X133030023Y-37599287D01*
X133006781Y-37605109D01*
X132983081Y-37608624D01*
X132959150Y-37609800D01*
X132470850Y-37609800D01*
X132446919Y-37608624D01*
X132423219Y-37605109D01*
X132399977Y-37599287D01*
X132377418Y-37591215D01*
X132355758Y-37580971D01*
X132335208Y-37568653D01*
X132315963Y-37554381D01*
X132298210Y-37538290D01*
X132282119Y-37520537D01*
X132267847Y-37501292D01*
X132255529Y-37480742D01*
X132245285Y-37459082D01*
X132237213Y-37436523D01*
X132231391Y-37413281D01*
X132227876Y-37389581D01*
X132226700Y-37365650D01*
X132226700Y-36802350D01*
X132227876Y-36778419D01*
X132231391Y-36754719D01*
X132237213Y-36731477D01*
X132245285Y-36708918D01*
X132255529Y-36687258D01*
X132267847Y-36666708D01*
X132282119Y-36647463D01*
X132298210Y-36629710D01*
X132315963Y-36613619D01*
X132335208Y-36599347D01*
X132355758Y-36587029D01*
X132377418Y-36576785D01*
X132399977Y-36568713D01*
X132423219Y-36562891D01*
X132446919Y-36559376D01*
X132470850Y-36558200D01*
X132959150Y-36558200D01*
X132983081Y-36559376D01*
X132983081Y-36559376D01*
G37*
D19*
X132715000Y-37084000D03*
D18*
G36*
X131408081Y-36559376D02*
X131431781Y-36562891D01*
X131455023Y-36568713D01*
X131477582Y-36576785D01*
X131499242Y-36587029D01*
X131519792Y-36599347D01*
X131539037Y-36613619D01*
X131556790Y-36629710D01*
X131572881Y-36647463D01*
X131587153Y-36666708D01*
X131599471Y-36687258D01*
X131609715Y-36708918D01*
X131617787Y-36731477D01*
X131623609Y-36754719D01*
X131627124Y-36778419D01*
X131628300Y-36802350D01*
X131628300Y-37365650D01*
X131627124Y-37389581D01*
X131623609Y-37413281D01*
X131617787Y-37436523D01*
X131609715Y-37459082D01*
X131599471Y-37480742D01*
X131587153Y-37501292D01*
X131572881Y-37520537D01*
X131556790Y-37538290D01*
X131539037Y-37554381D01*
X131519792Y-37568653D01*
X131499242Y-37580971D01*
X131477582Y-37591215D01*
X131455023Y-37599287D01*
X131431781Y-37605109D01*
X131408081Y-37608624D01*
X131384150Y-37609800D01*
X130895850Y-37609800D01*
X130871919Y-37608624D01*
X130848219Y-37605109D01*
X130824977Y-37599287D01*
X130802418Y-37591215D01*
X130780758Y-37580971D01*
X130760208Y-37568653D01*
X130740963Y-37554381D01*
X130723210Y-37538290D01*
X130707119Y-37520537D01*
X130692847Y-37501292D01*
X130680529Y-37480742D01*
X130670285Y-37459082D01*
X130662213Y-37436523D01*
X130656391Y-37413281D01*
X130652876Y-37389581D01*
X130651700Y-37365650D01*
X130651700Y-36802350D01*
X130652876Y-36778419D01*
X130656391Y-36754719D01*
X130662213Y-36731477D01*
X130670285Y-36708918D01*
X130680529Y-36687258D01*
X130692847Y-36666708D01*
X130707119Y-36647463D01*
X130723210Y-36629710D01*
X130740963Y-36613619D01*
X130760208Y-36599347D01*
X130780758Y-36587029D01*
X130802418Y-36576785D01*
X130824977Y-36568713D01*
X130848219Y-36562891D01*
X130871919Y-36559376D01*
X130895850Y-36558200D01*
X131384150Y-36558200D01*
X131408081Y-36559376D01*
X131408081Y-36559376D01*
G37*
D19*
X131140000Y-37084000D03*
G04 #@! TD*
D18*
G04 #@! TO.C,R8*
G36*
X141365081Y-36559376D02*
X141388781Y-36562891D01*
X141412023Y-36568713D01*
X141434582Y-36576785D01*
X141456242Y-36587029D01*
X141476792Y-36599347D01*
X141496037Y-36613619D01*
X141513790Y-36629710D01*
X141529881Y-36647463D01*
X141544153Y-36666708D01*
X141556471Y-36687258D01*
X141566715Y-36708918D01*
X141574787Y-36731477D01*
X141580609Y-36754719D01*
X141584124Y-36778419D01*
X141585300Y-36802350D01*
X141585300Y-37365650D01*
X141584124Y-37389581D01*
X141580609Y-37413281D01*
X141574787Y-37436523D01*
X141566715Y-37459082D01*
X141556471Y-37480742D01*
X141544153Y-37501292D01*
X141529881Y-37520537D01*
X141513790Y-37538290D01*
X141496037Y-37554381D01*
X141476792Y-37568653D01*
X141456242Y-37580971D01*
X141434582Y-37591215D01*
X141412023Y-37599287D01*
X141388781Y-37605109D01*
X141365081Y-37608624D01*
X141341150Y-37609800D01*
X140852850Y-37609800D01*
X140828919Y-37608624D01*
X140805219Y-37605109D01*
X140781977Y-37599287D01*
X140759418Y-37591215D01*
X140737758Y-37580971D01*
X140717208Y-37568653D01*
X140697963Y-37554381D01*
X140680210Y-37538290D01*
X140664119Y-37520537D01*
X140649847Y-37501292D01*
X140637529Y-37480742D01*
X140627285Y-37459082D01*
X140619213Y-37436523D01*
X140613391Y-37413281D01*
X140609876Y-37389581D01*
X140608700Y-37365650D01*
X140608700Y-36802350D01*
X140609876Y-36778419D01*
X140613391Y-36754719D01*
X140619213Y-36731477D01*
X140627285Y-36708918D01*
X140637529Y-36687258D01*
X140649847Y-36666708D01*
X140664119Y-36647463D01*
X140680210Y-36629710D01*
X140697963Y-36613619D01*
X140717208Y-36599347D01*
X140737758Y-36587029D01*
X140759418Y-36576785D01*
X140781977Y-36568713D01*
X140805219Y-36562891D01*
X140828919Y-36559376D01*
X140852850Y-36558200D01*
X141341150Y-36558200D01*
X141365081Y-36559376D01*
X141365081Y-36559376D01*
G37*
D19*
X141097000Y-37084000D03*
D18*
G36*
X142940081Y-36559376D02*
X142963781Y-36562891D01*
X142987023Y-36568713D01*
X143009582Y-36576785D01*
X143031242Y-36587029D01*
X143051792Y-36599347D01*
X143071037Y-36613619D01*
X143088790Y-36629710D01*
X143104881Y-36647463D01*
X143119153Y-36666708D01*
X143131471Y-36687258D01*
X143141715Y-36708918D01*
X143149787Y-36731477D01*
X143155609Y-36754719D01*
X143159124Y-36778419D01*
X143160300Y-36802350D01*
X143160300Y-37365650D01*
X143159124Y-37389581D01*
X143155609Y-37413281D01*
X143149787Y-37436523D01*
X143141715Y-37459082D01*
X143131471Y-37480742D01*
X143119153Y-37501292D01*
X143104881Y-37520537D01*
X143088790Y-37538290D01*
X143071037Y-37554381D01*
X143051792Y-37568653D01*
X143031242Y-37580971D01*
X143009582Y-37591215D01*
X142987023Y-37599287D01*
X142963781Y-37605109D01*
X142940081Y-37608624D01*
X142916150Y-37609800D01*
X142427850Y-37609800D01*
X142403919Y-37608624D01*
X142380219Y-37605109D01*
X142356977Y-37599287D01*
X142334418Y-37591215D01*
X142312758Y-37580971D01*
X142292208Y-37568653D01*
X142272963Y-37554381D01*
X142255210Y-37538290D01*
X142239119Y-37520537D01*
X142224847Y-37501292D01*
X142212529Y-37480742D01*
X142202285Y-37459082D01*
X142194213Y-37436523D01*
X142188391Y-37413281D01*
X142184876Y-37389581D01*
X142183700Y-37365650D01*
X142183700Y-36802350D01*
X142184876Y-36778419D01*
X142188391Y-36754719D01*
X142194213Y-36731477D01*
X142202285Y-36708918D01*
X142212529Y-36687258D01*
X142224847Y-36666708D01*
X142239119Y-36647463D01*
X142255210Y-36629710D01*
X142272963Y-36613619D01*
X142292208Y-36599347D01*
X142312758Y-36587029D01*
X142334418Y-36576785D01*
X142356977Y-36568713D01*
X142380219Y-36562891D01*
X142403919Y-36559376D01*
X142427850Y-36558200D01*
X142916150Y-36558200D01*
X142940081Y-36559376D01*
X142940081Y-36559376D01*
G37*
D19*
X142672000Y-37084000D03*
G04 #@! TD*
D18*
G04 #@! TO.C,R9*
G36*
X147244581Y-31719876D02*
X147268281Y-31723391D01*
X147291523Y-31729213D01*
X147314082Y-31737285D01*
X147335742Y-31747529D01*
X147356292Y-31759847D01*
X147375537Y-31774119D01*
X147393290Y-31790210D01*
X147409381Y-31807963D01*
X147423653Y-31827208D01*
X147435971Y-31847758D01*
X147446215Y-31869418D01*
X147454287Y-31891977D01*
X147460109Y-31915219D01*
X147463624Y-31938919D01*
X147464800Y-31962850D01*
X147464800Y-32451150D01*
X147463624Y-32475081D01*
X147460109Y-32498781D01*
X147454287Y-32522023D01*
X147446215Y-32544582D01*
X147435971Y-32566242D01*
X147423653Y-32586792D01*
X147409381Y-32606037D01*
X147393290Y-32623790D01*
X147375537Y-32639881D01*
X147356292Y-32654153D01*
X147335742Y-32666471D01*
X147314082Y-32676715D01*
X147291523Y-32684787D01*
X147268281Y-32690609D01*
X147244581Y-32694124D01*
X147220650Y-32695300D01*
X146657350Y-32695300D01*
X146633419Y-32694124D01*
X146609719Y-32690609D01*
X146586477Y-32684787D01*
X146563918Y-32676715D01*
X146542258Y-32666471D01*
X146521708Y-32654153D01*
X146502463Y-32639881D01*
X146484710Y-32623790D01*
X146468619Y-32606037D01*
X146454347Y-32586792D01*
X146442029Y-32566242D01*
X146431785Y-32544582D01*
X146423713Y-32522023D01*
X146417891Y-32498781D01*
X146414376Y-32475081D01*
X146413200Y-32451150D01*
X146413200Y-31962850D01*
X146414376Y-31938919D01*
X146417891Y-31915219D01*
X146423713Y-31891977D01*
X146431785Y-31869418D01*
X146442029Y-31847758D01*
X146454347Y-31827208D01*
X146468619Y-31807963D01*
X146484710Y-31790210D01*
X146502463Y-31774119D01*
X146521708Y-31759847D01*
X146542258Y-31747529D01*
X146563918Y-31737285D01*
X146586477Y-31729213D01*
X146609719Y-31723391D01*
X146633419Y-31719876D01*
X146657350Y-31718700D01*
X147220650Y-31718700D01*
X147244581Y-31719876D01*
X147244581Y-31719876D01*
G37*
D19*
X146939000Y-32207000D03*
D18*
G36*
X147244581Y-33294876D02*
X147268281Y-33298391D01*
X147291523Y-33304213D01*
X147314082Y-33312285D01*
X147335742Y-33322529D01*
X147356292Y-33334847D01*
X147375537Y-33349119D01*
X147393290Y-33365210D01*
X147409381Y-33382963D01*
X147423653Y-33402208D01*
X147435971Y-33422758D01*
X147446215Y-33444418D01*
X147454287Y-33466977D01*
X147460109Y-33490219D01*
X147463624Y-33513919D01*
X147464800Y-33537850D01*
X147464800Y-34026150D01*
X147463624Y-34050081D01*
X147460109Y-34073781D01*
X147454287Y-34097023D01*
X147446215Y-34119582D01*
X147435971Y-34141242D01*
X147423653Y-34161792D01*
X147409381Y-34181037D01*
X147393290Y-34198790D01*
X147375537Y-34214881D01*
X147356292Y-34229153D01*
X147335742Y-34241471D01*
X147314082Y-34251715D01*
X147291523Y-34259787D01*
X147268281Y-34265609D01*
X147244581Y-34269124D01*
X147220650Y-34270300D01*
X146657350Y-34270300D01*
X146633419Y-34269124D01*
X146609719Y-34265609D01*
X146586477Y-34259787D01*
X146563918Y-34251715D01*
X146542258Y-34241471D01*
X146521708Y-34229153D01*
X146502463Y-34214881D01*
X146484710Y-34198790D01*
X146468619Y-34181037D01*
X146454347Y-34161792D01*
X146442029Y-34141242D01*
X146431785Y-34119582D01*
X146423713Y-34097023D01*
X146417891Y-34073781D01*
X146414376Y-34050081D01*
X146413200Y-34026150D01*
X146413200Y-33537850D01*
X146414376Y-33513919D01*
X146417891Y-33490219D01*
X146423713Y-33466977D01*
X146431785Y-33444418D01*
X146442029Y-33422758D01*
X146454347Y-33402208D01*
X146468619Y-33382963D01*
X146484710Y-33365210D01*
X146502463Y-33349119D01*
X146521708Y-33334847D01*
X146542258Y-33322529D01*
X146563918Y-33312285D01*
X146586477Y-33304213D01*
X146609719Y-33298391D01*
X146633419Y-33294876D01*
X146657350Y-33293700D01*
X147220650Y-33293700D01*
X147244581Y-33294876D01*
X147244581Y-33294876D01*
G37*
D19*
X146939000Y-33782000D03*
G04 #@! TD*
D18*
G04 #@! TO.C,R10*
G36*
X147244581Y-28214876D02*
X147268281Y-28218391D01*
X147291523Y-28224213D01*
X147314082Y-28232285D01*
X147335742Y-28242529D01*
X147356292Y-28254847D01*
X147375537Y-28269119D01*
X147393290Y-28285210D01*
X147409381Y-28302963D01*
X147423653Y-28322208D01*
X147435971Y-28342758D01*
X147446215Y-28364418D01*
X147454287Y-28386977D01*
X147460109Y-28410219D01*
X147463624Y-28433919D01*
X147464800Y-28457850D01*
X147464800Y-28946150D01*
X147463624Y-28970081D01*
X147460109Y-28993781D01*
X147454287Y-29017023D01*
X147446215Y-29039582D01*
X147435971Y-29061242D01*
X147423653Y-29081792D01*
X147409381Y-29101037D01*
X147393290Y-29118790D01*
X147375537Y-29134881D01*
X147356292Y-29149153D01*
X147335742Y-29161471D01*
X147314082Y-29171715D01*
X147291523Y-29179787D01*
X147268281Y-29185609D01*
X147244581Y-29189124D01*
X147220650Y-29190300D01*
X146657350Y-29190300D01*
X146633419Y-29189124D01*
X146609719Y-29185609D01*
X146586477Y-29179787D01*
X146563918Y-29171715D01*
X146542258Y-29161471D01*
X146521708Y-29149153D01*
X146502463Y-29134881D01*
X146484710Y-29118790D01*
X146468619Y-29101037D01*
X146454347Y-29081792D01*
X146442029Y-29061242D01*
X146431785Y-29039582D01*
X146423713Y-29017023D01*
X146417891Y-28993781D01*
X146414376Y-28970081D01*
X146413200Y-28946150D01*
X146413200Y-28457850D01*
X146414376Y-28433919D01*
X146417891Y-28410219D01*
X146423713Y-28386977D01*
X146431785Y-28364418D01*
X146442029Y-28342758D01*
X146454347Y-28322208D01*
X146468619Y-28302963D01*
X146484710Y-28285210D01*
X146502463Y-28269119D01*
X146521708Y-28254847D01*
X146542258Y-28242529D01*
X146563918Y-28232285D01*
X146586477Y-28224213D01*
X146609719Y-28218391D01*
X146633419Y-28214876D01*
X146657350Y-28213700D01*
X147220650Y-28213700D01*
X147244581Y-28214876D01*
X147244581Y-28214876D01*
G37*
D19*
X146939000Y-28702000D03*
D18*
G36*
X147244581Y-29789876D02*
X147268281Y-29793391D01*
X147291523Y-29799213D01*
X147314082Y-29807285D01*
X147335742Y-29817529D01*
X147356292Y-29829847D01*
X147375537Y-29844119D01*
X147393290Y-29860210D01*
X147409381Y-29877963D01*
X147423653Y-29897208D01*
X147435971Y-29917758D01*
X147446215Y-29939418D01*
X147454287Y-29961977D01*
X147460109Y-29985219D01*
X147463624Y-30008919D01*
X147464800Y-30032850D01*
X147464800Y-30521150D01*
X147463624Y-30545081D01*
X147460109Y-30568781D01*
X147454287Y-30592023D01*
X147446215Y-30614582D01*
X147435971Y-30636242D01*
X147423653Y-30656792D01*
X147409381Y-30676037D01*
X147393290Y-30693790D01*
X147375537Y-30709881D01*
X147356292Y-30724153D01*
X147335742Y-30736471D01*
X147314082Y-30746715D01*
X147291523Y-30754787D01*
X147268281Y-30760609D01*
X147244581Y-30764124D01*
X147220650Y-30765300D01*
X146657350Y-30765300D01*
X146633419Y-30764124D01*
X146609719Y-30760609D01*
X146586477Y-30754787D01*
X146563918Y-30746715D01*
X146542258Y-30736471D01*
X146521708Y-30724153D01*
X146502463Y-30709881D01*
X146484710Y-30693790D01*
X146468619Y-30676037D01*
X146454347Y-30656792D01*
X146442029Y-30636242D01*
X146431785Y-30614582D01*
X146423713Y-30592023D01*
X146417891Y-30568781D01*
X146414376Y-30545081D01*
X146413200Y-30521150D01*
X146413200Y-30032850D01*
X146414376Y-30008919D01*
X146417891Y-29985219D01*
X146423713Y-29961977D01*
X146431785Y-29939418D01*
X146442029Y-29917758D01*
X146454347Y-29897208D01*
X146468619Y-29877963D01*
X146484710Y-29860210D01*
X146502463Y-29844119D01*
X146521708Y-29829847D01*
X146542258Y-29817529D01*
X146563918Y-29807285D01*
X146586477Y-29799213D01*
X146609719Y-29793391D01*
X146633419Y-29789876D01*
X146657350Y-29788700D01*
X147220650Y-29788700D01*
X147244581Y-29789876D01*
X147244581Y-29789876D01*
G37*
D19*
X146939000Y-30277000D03*
G04 #@! TD*
D18*
G04 #@! TO.C,R11*
G36*
X129210581Y-28722876D02*
X129234281Y-28726391D01*
X129257523Y-28732213D01*
X129280082Y-28740285D01*
X129301742Y-28750529D01*
X129322292Y-28762847D01*
X129341537Y-28777119D01*
X129359290Y-28793210D01*
X129375381Y-28810963D01*
X129389653Y-28830208D01*
X129401971Y-28850758D01*
X129412215Y-28872418D01*
X129420287Y-28894977D01*
X129426109Y-28918219D01*
X129429624Y-28941919D01*
X129430800Y-28965850D01*
X129430800Y-29454150D01*
X129429624Y-29478081D01*
X129426109Y-29501781D01*
X129420287Y-29525023D01*
X129412215Y-29547582D01*
X129401971Y-29569242D01*
X129389653Y-29589792D01*
X129375381Y-29609037D01*
X129359290Y-29626790D01*
X129341537Y-29642881D01*
X129322292Y-29657153D01*
X129301742Y-29669471D01*
X129280082Y-29679715D01*
X129257523Y-29687787D01*
X129234281Y-29693609D01*
X129210581Y-29697124D01*
X129186650Y-29698300D01*
X128623350Y-29698300D01*
X128599419Y-29697124D01*
X128575719Y-29693609D01*
X128552477Y-29687787D01*
X128529918Y-29679715D01*
X128508258Y-29669471D01*
X128487708Y-29657153D01*
X128468463Y-29642881D01*
X128450710Y-29626790D01*
X128434619Y-29609037D01*
X128420347Y-29589792D01*
X128408029Y-29569242D01*
X128397785Y-29547582D01*
X128389713Y-29525023D01*
X128383891Y-29501781D01*
X128380376Y-29478081D01*
X128379200Y-29454150D01*
X128379200Y-28965850D01*
X128380376Y-28941919D01*
X128383891Y-28918219D01*
X128389713Y-28894977D01*
X128397785Y-28872418D01*
X128408029Y-28850758D01*
X128420347Y-28830208D01*
X128434619Y-28810963D01*
X128450710Y-28793210D01*
X128468463Y-28777119D01*
X128487708Y-28762847D01*
X128508258Y-28750529D01*
X128529918Y-28740285D01*
X128552477Y-28732213D01*
X128575719Y-28726391D01*
X128599419Y-28722876D01*
X128623350Y-28721700D01*
X129186650Y-28721700D01*
X129210581Y-28722876D01*
X129210581Y-28722876D01*
G37*
D19*
X128905000Y-29210000D03*
D18*
G36*
X129210581Y-30297876D02*
X129234281Y-30301391D01*
X129257523Y-30307213D01*
X129280082Y-30315285D01*
X129301742Y-30325529D01*
X129322292Y-30337847D01*
X129341537Y-30352119D01*
X129359290Y-30368210D01*
X129375381Y-30385963D01*
X129389653Y-30405208D01*
X129401971Y-30425758D01*
X129412215Y-30447418D01*
X129420287Y-30469977D01*
X129426109Y-30493219D01*
X129429624Y-30516919D01*
X129430800Y-30540850D01*
X129430800Y-31029150D01*
X129429624Y-31053081D01*
X129426109Y-31076781D01*
X129420287Y-31100023D01*
X129412215Y-31122582D01*
X129401971Y-31144242D01*
X129389653Y-31164792D01*
X129375381Y-31184037D01*
X129359290Y-31201790D01*
X129341537Y-31217881D01*
X129322292Y-31232153D01*
X129301742Y-31244471D01*
X129280082Y-31254715D01*
X129257523Y-31262787D01*
X129234281Y-31268609D01*
X129210581Y-31272124D01*
X129186650Y-31273300D01*
X128623350Y-31273300D01*
X128599419Y-31272124D01*
X128575719Y-31268609D01*
X128552477Y-31262787D01*
X128529918Y-31254715D01*
X128508258Y-31244471D01*
X128487708Y-31232153D01*
X128468463Y-31217881D01*
X128450710Y-31201790D01*
X128434619Y-31184037D01*
X128420347Y-31164792D01*
X128408029Y-31144242D01*
X128397785Y-31122582D01*
X128389713Y-31100023D01*
X128383891Y-31076781D01*
X128380376Y-31053081D01*
X128379200Y-31029150D01*
X128379200Y-30540850D01*
X128380376Y-30516919D01*
X128383891Y-30493219D01*
X128389713Y-30469977D01*
X128397785Y-30447418D01*
X128408029Y-30425758D01*
X128420347Y-30405208D01*
X128434619Y-30385963D01*
X128450710Y-30368210D01*
X128468463Y-30352119D01*
X128487708Y-30337847D01*
X128508258Y-30325529D01*
X128529918Y-30315285D01*
X128552477Y-30307213D01*
X128575719Y-30301391D01*
X128599419Y-30297876D01*
X128623350Y-30296700D01*
X129186650Y-30296700D01*
X129210581Y-30297876D01*
X129210581Y-30297876D01*
G37*
D19*
X128905000Y-30785000D03*
G04 #@! TD*
D18*
G04 #@! TO.C,R12*
G36*
X129210581Y-32532876D02*
X129234281Y-32536391D01*
X129257523Y-32542213D01*
X129280082Y-32550285D01*
X129301742Y-32560529D01*
X129322292Y-32572847D01*
X129341537Y-32587119D01*
X129359290Y-32603210D01*
X129375381Y-32620963D01*
X129389653Y-32640208D01*
X129401971Y-32660758D01*
X129412215Y-32682418D01*
X129420287Y-32704977D01*
X129426109Y-32728219D01*
X129429624Y-32751919D01*
X129430800Y-32775850D01*
X129430800Y-33264150D01*
X129429624Y-33288081D01*
X129426109Y-33311781D01*
X129420287Y-33335023D01*
X129412215Y-33357582D01*
X129401971Y-33379242D01*
X129389653Y-33399792D01*
X129375381Y-33419037D01*
X129359290Y-33436790D01*
X129341537Y-33452881D01*
X129322292Y-33467153D01*
X129301742Y-33479471D01*
X129280082Y-33489715D01*
X129257523Y-33497787D01*
X129234281Y-33503609D01*
X129210581Y-33507124D01*
X129186650Y-33508300D01*
X128623350Y-33508300D01*
X128599419Y-33507124D01*
X128575719Y-33503609D01*
X128552477Y-33497787D01*
X128529918Y-33489715D01*
X128508258Y-33479471D01*
X128487708Y-33467153D01*
X128468463Y-33452881D01*
X128450710Y-33436790D01*
X128434619Y-33419037D01*
X128420347Y-33399792D01*
X128408029Y-33379242D01*
X128397785Y-33357582D01*
X128389713Y-33335023D01*
X128383891Y-33311781D01*
X128380376Y-33288081D01*
X128379200Y-33264150D01*
X128379200Y-32775850D01*
X128380376Y-32751919D01*
X128383891Y-32728219D01*
X128389713Y-32704977D01*
X128397785Y-32682418D01*
X128408029Y-32660758D01*
X128420347Y-32640208D01*
X128434619Y-32620963D01*
X128450710Y-32603210D01*
X128468463Y-32587119D01*
X128487708Y-32572847D01*
X128508258Y-32560529D01*
X128529918Y-32550285D01*
X128552477Y-32542213D01*
X128575719Y-32536391D01*
X128599419Y-32532876D01*
X128623350Y-32531700D01*
X129186650Y-32531700D01*
X129210581Y-32532876D01*
X129210581Y-32532876D01*
G37*
D19*
X128905000Y-33020000D03*
D18*
G36*
X129210581Y-34107876D02*
X129234281Y-34111391D01*
X129257523Y-34117213D01*
X129280082Y-34125285D01*
X129301742Y-34135529D01*
X129322292Y-34147847D01*
X129341537Y-34162119D01*
X129359290Y-34178210D01*
X129375381Y-34195963D01*
X129389653Y-34215208D01*
X129401971Y-34235758D01*
X129412215Y-34257418D01*
X129420287Y-34279977D01*
X129426109Y-34303219D01*
X129429624Y-34326919D01*
X129430800Y-34350850D01*
X129430800Y-34839150D01*
X129429624Y-34863081D01*
X129426109Y-34886781D01*
X129420287Y-34910023D01*
X129412215Y-34932582D01*
X129401971Y-34954242D01*
X129389653Y-34974792D01*
X129375381Y-34994037D01*
X129359290Y-35011790D01*
X129341537Y-35027881D01*
X129322292Y-35042153D01*
X129301742Y-35054471D01*
X129280082Y-35064715D01*
X129257523Y-35072787D01*
X129234281Y-35078609D01*
X129210581Y-35082124D01*
X129186650Y-35083300D01*
X128623350Y-35083300D01*
X128599419Y-35082124D01*
X128575719Y-35078609D01*
X128552477Y-35072787D01*
X128529918Y-35064715D01*
X128508258Y-35054471D01*
X128487708Y-35042153D01*
X128468463Y-35027881D01*
X128450710Y-35011790D01*
X128434619Y-34994037D01*
X128420347Y-34974792D01*
X128408029Y-34954242D01*
X128397785Y-34932582D01*
X128389713Y-34910023D01*
X128383891Y-34886781D01*
X128380376Y-34863081D01*
X128379200Y-34839150D01*
X128379200Y-34350850D01*
X128380376Y-34326919D01*
X128383891Y-34303219D01*
X128389713Y-34279977D01*
X128397785Y-34257418D01*
X128408029Y-34235758D01*
X128420347Y-34215208D01*
X128434619Y-34195963D01*
X128450710Y-34178210D01*
X128468463Y-34162119D01*
X128487708Y-34147847D01*
X128508258Y-34135529D01*
X128529918Y-34125285D01*
X128552477Y-34117213D01*
X128575719Y-34111391D01*
X128599419Y-34107876D01*
X128623350Y-34106700D01*
X129186650Y-34106700D01*
X129210581Y-34107876D01*
X129210581Y-34107876D01*
G37*
D19*
X128905000Y-34595000D03*
G04 #@! TD*
D18*
G04 #@! TO.C,R13*
G36*
X131115581Y-24709876D02*
X131139281Y-24713391D01*
X131162523Y-24719213D01*
X131185082Y-24727285D01*
X131206742Y-24737529D01*
X131227292Y-24749847D01*
X131246537Y-24764119D01*
X131264290Y-24780210D01*
X131280381Y-24797963D01*
X131294653Y-24817208D01*
X131306971Y-24837758D01*
X131317215Y-24859418D01*
X131325287Y-24881977D01*
X131331109Y-24905219D01*
X131334624Y-24928919D01*
X131335800Y-24952850D01*
X131335800Y-25441150D01*
X131334624Y-25465081D01*
X131331109Y-25488781D01*
X131325287Y-25512023D01*
X131317215Y-25534582D01*
X131306971Y-25556242D01*
X131294653Y-25576792D01*
X131280381Y-25596037D01*
X131264290Y-25613790D01*
X131246537Y-25629881D01*
X131227292Y-25644153D01*
X131206742Y-25656471D01*
X131185082Y-25666715D01*
X131162523Y-25674787D01*
X131139281Y-25680609D01*
X131115581Y-25684124D01*
X131091650Y-25685300D01*
X130528350Y-25685300D01*
X130504419Y-25684124D01*
X130480719Y-25680609D01*
X130457477Y-25674787D01*
X130434918Y-25666715D01*
X130413258Y-25656471D01*
X130392708Y-25644153D01*
X130373463Y-25629881D01*
X130355710Y-25613790D01*
X130339619Y-25596037D01*
X130325347Y-25576792D01*
X130313029Y-25556242D01*
X130302785Y-25534582D01*
X130294713Y-25512023D01*
X130288891Y-25488781D01*
X130285376Y-25465081D01*
X130284200Y-25441150D01*
X130284200Y-24952850D01*
X130285376Y-24928919D01*
X130288891Y-24905219D01*
X130294713Y-24881977D01*
X130302785Y-24859418D01*
X130313029Y-24837758D01*
X130325347Y-24817208D01*
X130339619Y-24797963D01*
X130355710Y-24780210D01*
X130373463Y-24764119D01*
X130392708Y-24749847D01*
X130413258Y-24737529D01*
X130434918Y-24727285D01*
X130457477Y-24719213D01*
X130480719Y-24713391D01*
X130504419Y-24709876D01*
X130528350Y-24708700D01*
X131091650Y-24708700D01*
X131115581Y-24709876D01*
X131115581Y-24709876D01*
G37*
D19*
X130810000Y-25197000D03*
D18*
G36*
X131115581Y-23134876D02*
X131139281Y-23138391D01*
X131162523Y-23144213D01*
X131185082Y-23152285D01*
X131206742Y-23162529D01*
X131227292Y-23174847D01*
X131246537Y-23189119D01*
X131264290Y-23205210D01*
X131280381Y-23222963D01*
X131294653Y-23242208D01*
X131306971Y-23262758D01*
X131317215Y-23284418D01*
X131325287Y-23306977D01*
X131331109Y-23330219D01*
X131334624Y-23353919D01*
X131335800Y-23377850D01*
X131335800Y-23866150D01*
X131334624Y-23890081D01*
X131331109Y-23913781D01*
X131325287Y-23937023D01*
X131317215Y-23959582D01*
X131306971Y-23981242D01*
X131294653Y-24001792D01*
X131280381Y-24021037D01*
X131264290Y-24038790D01*
X131246537Y-24054881D01*
X131227292Y-24069153D01*
X131206742Y-24081471D01*
X131185082Y-24091715D01*
X131162523Y-24099787D01*
X131139281Y-24105609D01*
X131115581Y-24109124D01*
X131091650Y-24110300D01*
X130528350Y-24110300D01*
X130504419Y-24109124D01*
X130480719Y-24105609D01*
X130457477Y-24099787D01*
X130434918Y-24091715D01*
X130413258Y-24081471D01*
X130392708Y-24069153D01*
X130373463Y-24054881D01*
X130355710Y-24038790D01*
X130339619Y-24021037D01*
X130325347Y-24001792D01*
X130313029Y-23981242D01*
X130302785Y-23959582D01*
X130294713Y-23937023D01*
X130288891Y-23913781D01*
X130285376Y-23890081D01*
X130284200Y-23866150D01*
X130284200Y-23377850D01*
X130285376Y-23353919D01*
X130288891Y-23330219D01*
X130294713Y-23306977D01*
X130302785Y-23284418D01*
X130313029Y-23262758D01*
X130325347Y-23242208D01*
X130339619Y-23222963D01*
X130355710Y-23205210D01*
X130373463Y-23189119D01*
X130392708Y-23174847D01*
X130413258Y-23162529D01*
X130434918Y-23152285D01*
X130457477Y-23144213D01*
X130480719Y-23138391D01*
X130504419Y-23134876D01*
X130528350Y-23133700D01*
X131091650Y-23133700D01*
X131115581Y-23134876D01*
X131115581Y-23134876D01*
G37*
D19*
X130810000Y-23622000D03*
G04 #@! TD*
D22*
G04 #@! TO.C,U1*
X157099000Y-29972000D03*
D23*
X157099000Y-27432000D03*
X157099000Y-24892000D03*
G04 #@! TD*
D24*
G04 #@! TO.C,U3*
X117319000Y-23872000D03*
X117319000Y-24522000D03*
X117319000Y-25172000D03*
X117319000Y-25822000D03*
X117319000Y-26472000D03*
X117319000Y-27122000D03*
X117319000Y-27772000D03*
X117319000Y-28422000D03*
X117319000Y-29072000D03*
X117319000Y-29722000D03*
X123219000Y-29722000D03*
X123219000Y-29072000D03*
X123219000Y-28422000D03*
X123219000Y-27772000D03*
X123219000Y-27122000D03*
X123219000Y-26472000D03*
X123219000Y-25822000D03*
X123219000Y-25172000D03*
X123219000Y-24522000D03*
X123219000Y-23872000D03*
G04 #@! TD*
D21*
G04 #@! TO.C,Y1*
X122809000Y-36322000D03*
X117929000Y-36322000D03*
G04 #@! TD*
D25*
G04 #@! TO.C,Q1*
X106420000Y-44754000D03*
X101860000Y-44754000D03*
D26*
X104140000Y-51054000D03*
G04 #@! TD*
G04 #@! TO.C,Q2*
X119888000Y-51054000D03*
D25*
X117608000Y-44754000D03*
X122168000Y-44754000D03*
G04 #@! TD*
G04 #@! TO.C,Q3*
X138424000Y-44754000D03*
X133864000Y-44754000D03*
D26*
X136144000Y-51054000D03*
G04 #@! TD*
G04 #@! TO.C,Q4*
X151511000Y-51054000D03*
D25*
X149231000Y-44754000D03*
X153791000Y-44754000D03*
G04 #@! TD*
D27*
G04 #@! TO.C,D1*
X156591000Y-62992000D03*
D28*
X146431000Y-62992000D03*
G04 #@! TD*
G04 #@! TO.C,D2*
X130556000Y-62992000D03*
D27*
X140716000Y-62992000D03*
G04 #@! TD*
G04 #@! TO.C,D3*
X124841000Y-62992000D03*
D28*
X114681000Y-62992000D03*
G04 #@! TD*
G04 #@! TO.C,D4*
X99060000Y-62992000D03*
D27*
X109220000Y-62992000D03*
G04 #@! TD*
D29*
G04 #@! TO.C,J2*
X167894000Y-49276000D03*
D30*
X167894000Y-39276000D03*
G04 #@! TD*
D29*
G04 #@! TO.C,J4*
X112776000Y-71882000D03*
D30*
X117776000Y-71882000D03*
X122776000Y-71882000D03*
X127776000Y-71882000D03*
X132776000Y-71882000D03*
X137776000Y-71882000D03*
X142776000Y-71882000D03*
X147776000Y-71882000D03*
G04 #@! TD*
D16*
G04 #@! TO.C,C13*
X165942000Y-59182000D03*
D17*
X170942000Y-59182000D03*
G04 #@! TD*
D11*
G04 #@! TO.C,REF\002A\002A*
X169799000Y-24892000D03*
G04 #@! TD*
M02*
