G04 #@! TF.GenerationSoftware,KiCad,Pcbnew,(5.0.0)*
G04 #@! TF.CreationDate,2018-10-13T16:03:10-04:00*
G04 #@! TF.ProjectId,FanBoy,46616E426F792E6B696361645F706362,rev?*
G04 #@! TF.SameCoordinates,Original*
G04 #@! TF.FileFunction,Paste,Top*
G04 #@! TF.FilePolarity,Positive*
%FSLAX46Y46*%
G04 Gerber Fmt 4.6, Leading zero omitted, Abs format (unit mm)*
G04 Created by KiCad (PCBNEW (5.0.0)) date 10/13/18 16:03:10*
%MOMM*%
%LPD*%
G01*
G04 APERTURE LIST*
%ADD10R,0.600000X1.550000*%
%ADD11R,0.550000X1.600000*%
%ADD12R,1.600000X0.550000*%
%ADD13C,0.100000*%
%ADD14C,0.875000*%
%ADD15R,1.450000X0.450000*%
%ADD16R,1.200000X2.200000*%
%ADD17R,2.750000X3.050000*%
G04 APERTURE END LIST*
D10*
G04 #@! TO.C,U2*
X114554000Y-25367000D03*
X113284000Y-25367000D03*
X112014000Y-25367000D03*
X110744000Y-25367000D03*
X110744000Y-30767000D03*
X112014000Y-30767000D03*
X113284000Y-30767000D03*
X114554000Y-30767000D03*
G04 #@! TD*
D11*
G04 #@! TO.C,U4*
X134860001Y-33959999D03*
X135660001Y-33959999D03*
X136460001Y-33959999D03*
X137260001Y-33959999D03*
X138060001Y-33959999D03*
X138860001Y-33959999D03*
X139660001Y-33959999D03*
X140460001Y-33959999D03*
D12*
X141910001Y-32509999D03*
X141910001Y-31709999D03*
X141910001Y-30909999D03*
X141910001Y-30109999D03*
X141910001Y-29309999D03*
X141910001Y-28509999D03*
X141910001Y-27709999D03*
X141910001Y-26909999D03*
D11*
X140460001Y-25459999D03*
X139660001Y-25459999D03*
X138860001Y-25459999D03*
X138060001Y-25459999D03*
X137260001Y-25459999D03*
X136460001Y-25459999D03*
X135660001Y-25459999D03*
X134860001Y-25459999D03*
D12*
X133410001Y-26909999D03*
X133410001Y-27709999D03*
X133410001Y-28509999D03*
X133410001Y-29309999D03*
X133410001Y-30109999D03*
X133410001Y-30909999D03*
X133410001Y-31709999D03*
X133410001Y-32509999D03*
G04 #@! TD*
D13*
G04 #@! TO.C,C1*
G36*
X168134191Y-33308053D02*
X168155426Y-33311203D01*
X168176250Y-33316419D01*
X168196462Y-33323651D01*
X168215868Y-33332830D01*
X168234281Y-33343866D01*
X168251524Y-33356654D01*
X168267430Y-33371070D01*
X168281846Y-33386976D01*
X168294634Y-33404219D01*
X168305670Y-33422632D01*
X168314849Y-33442038D01*
X168322081Y-33462250D01*
X168327297Y-33483074D01*
X168330447Y-33504309D01*
X168331500Y-33525750D01*
X168331500Y-34038250D01*
X168330447Y-34059691D01*
X168327297Y-34080926D01*
X168322081Y-34101750D01*
X168314849Y-34121962D01*
X168305670Y-34141368D01*
X168294634Y-34159781D01*
X168281846Y-34177024D01*
X168267430Y-34192930D01*
X168251524Y-34207346D01*
X168234281Y-34220134D01*
X168215868Y-34231170D01*
X168196462Y-34240349D01*
X168176250Y-34247581D01*
X168155426Y-34252797D01*
X168134191Y-34255947D01*
X168112750Y-34257000D01*
X167675250Y-34257000D01*
X167653809Y-34255947D01*
X167632574Y-34252797D01*
X167611750Y-34247581D01*
X167591538Y-34240349D01*
X167572132Y-34231170D01*
X167553719Y-34220134D01*
X167536476Y-34207346D01*
X167520570Y-34192930D01*
X167506154Y-34177024D01*
X167493366Y-34159781D01*
X167482330Y-34141368D01*
X167473151Y-34121962D01*
X167465919Y-34101750D01*
X167460703Y-34080926D01*
X167457553Y-34059691D01*
X167456500Y-34038250D01*
X167456500Y-33525750D01*
X167457553Y-33504309D01*
X167460703Y-33483074D01*
X167465919Y-33462250D01*
X167473151Y-33442038D01*
X167482330Y-33422632D01*
X167493366Y-33404219D01*
X167506154Y-33386976D01*
X167520570Y-33371070D01*
X167536476Y-33356654D01*
X167553719Y-33343866D01*
X167572132Y-33332830D01*
X167591538Y-33323651D01*
X167611750Y-33316419D01*
X167632574Y-33311203D01*
X167653809Y-33308053D01*
X167675250Y-33307000D01*
X168112750Y-33307000D01*
X168134191Y-33308053D01*
X168134191Y-33308053D01*
G37*
D14*
X167894000Y-33782000D03*
D13*
G36*
X166559191Y-33308053D02*
X166580426Y-33311203D01*
X166601250Y-33316419D01*
X166621462Y-33323651D01*
X166640868Y-33332830D01*
X166659281Y-33343866D01*
X166676524Y-33356654D01*
X166692430Y-33371070D01*
X166706846Y-33386976D01*
X166719634Y-33404219D01*
X166730670Y-33422632D01*
X166739849Y-33442038D01*
X166747081Y-33462250D01*
X166752297Y-33483074D01*
X166755447Y-33504309D01*
X166756500Y-33525750D01*
X166756500Y-34038250D01*
X166755447Y-34059691D01*
X166752297Y-34080926D01*
X166747081Y-34101750D01*
X166739849Y-34121962D01*
X166730670Y-34141368D01*
X166719634Y-34159781D01*
X166706846Y-34177024D01*
X166692430Y-34192930D01*
X166676524Y-34207346D01*
X166659281Y-34220134D01*
X166640868Y-34231170D01*
X166621462Y-34240349D01*
X166601250Y-34247581D01*
X166580426Y-34252797D01*
X166559191Y-34255947D01*
X166537750Y-34257000D01*
X166100250Y-34257000D01*
X166078809Y-34255947D01*
X166057574Y-34252797D01*
X166036750Y-34247581D01*
X166016538Y-34240349D01*
X165997132Y-34231170D01*
X165978719Y-34220134D01*
X165961476Y-34207346D01*
X165945570Y-34192930D01*
X165931154Y-34177024D01*
X165918366Y-34159781D01*
X165907330Y-34141368D01*
X165898151Y-34121962D01*
X165890919Y-34101750D01*
X165885703Y-34080926D01*
X165882553Y-34059691D01*
X165881500Y-34038250D01*
X165881500Y-33525750D01*
X165882553Y-33504309D01*
X165885703Y-33483074D01*
X165890919Y-33462250D01*
X165898151Y-33442038D01*
X165907330Y-33422632D01*
X165918366Y-33404219D01*
X165931154Y-33386976D01*
X165945570Y-33371070D01*
X165961476Y-33356654D01*
X165978719Y-33343866D01*
X165997132Y-33332830D01*
X166016538Y-33323651D01*
X166036750Y-33316419D01*
X166057574Y-33311203D01*
X166078809Y-33308053D01*
X166100250Y-33307000D01*
X166537750Y-33307000D01*
X166559191Y-33308053D01*
X166559191Y-33308053D01*
G37*
D14*
X166319000Y-33782000D03*
G04 #@! TD*
D13*
G04 #@! TO.C,C2*
G36*
X154164191Y-21243053D02*
X154185426Y-21246203D01*
X154206250Y-21251419D01*
X154226462Y-21258651D01*
X154245868Y-21267830D01*
X154264281Y-21278866D01*
X154281524Y-21291654D01*
X154297430Y-21306070D01*
X154311846Y-21321976D01*
X154324634Y-21339219D01*
X154335670Y-21357632D01*
X154344849Y-21377038D01*
X154352081Y-21397250D01*
X154357297Y-21418074D01*
X154360447Y-21439309D01*
X154361500Y-21460750D01*
X154361500Y-21973250D01*
X154360447Y-21994691D01*
X154357297Y-22015926D01*
X154352081Y-22036750D01*
X154344849Y-22056962D01*
X154335670Y-22076368D01*
X154324634Y-22094781D01*
X154311846Y-22112024D01*
X154297430Y-22127930D01*
X154281524Y-22142346D01*
X154264281Y-22155134D01*
X154245868Y-22166170D01*
X154226462Y-22175349D01*
X154206250Y-22182581D01*
X154185426Y-22187797D01*
X154164191Y-22190947D01*
X154142750Y-22192000D01*
X153705250Y-22192000D01*
X153683809Y-22190947D01*
X153662574Y-22187797D01*
X153641750Y-22182581D01*
X153621538Y-22175349D01*
X153602132Y-22166170D01*
X153583719Y-22155134D01*
X153566476Y-22142346D01*
X153550570Y-22127930D01*
X153536154Y-22112024D01*
X153523366Y-22094781D01*
X153512330Y-22076368D01*
X153503151Y-22056962D01*
X153495919Y-22036750D01*
X153490703Y-22015926D01*
X153487553Y-21994691D01*
X153486500Y-21973250D01*
X153486500Y-21460750D01*
X153487553Y-21439309D01*
X153490703Y-21418074D01*
X153495919Y-21397250D01*
X153503151Y-21377038D01*
X153512330Y-21357632D01*
X153523366Y-21339219D01*
X153536154Y-21321976D01*
X153550570Y-21306070D01*
X153566476Y-21291654D01*
X153583719Y-21278866D01*
X153602132Y-21267830D01*
X153621538Y-21258651D01*
X153641750Y-21251419D01*
X153662574Y-21246203D01*
X153683809Y-21243053D01*
X153705250Y-21242000D01*
X154142750Y-21242000D01*
X154164191Y-21243053D01*
X154164191Y-21243053D01*
G37*
D14*
X153924000Y-21717000D03*
D13*
G36*
X152589191Y-21243053D02*
X152610426Y-21246203D01*
X152631250Y-21251419D01*
X152651462Y-21258651D01*
X152670868Y-21267830D01*
X152689281Y-21278866D01*
X152706524Y-21291654D01*
X152722430Y-21306070D01*
X152736846Y-21321976D01*
X152749634Y-21339219D01*
X152760670Y-21357632D01*
X152769849Y-21377038D01*
X152777081Y-21397250D01*
X152782297Y-21418074D01*
X152785447Y-21439309D01*
X152786500Y-21460750D01*
X152786500Y-21973250D01*
X152785447Y-21994691D01*
X152782297Y-22015926D01*
X152777081Y-22036750D01*
X152769849Y-22056962D01*
X152760670Y-22076368D01*
X152749634Y-22094781D01*
X152736846Y-22112024D01*
X152722430Y-22127930D01*
X152706524Y-22142346D01*
X152689281Y-22155134D01*
X152670868Y-22166170D01*
X152651462Y-22175349D01*
X152631250Y-22182581D01*
X152610426Y-22187797D01*
X152589191Y-22190947D01*
X152567750Y-22192000D01*
X152130250Y-22192000D01*
X152108809Y-22190947D01*
X152087574Y-22187797D01*
X152066750Y-22182581D01*
X152046538Y-22175349D01*
X152027132Y-22166170D01*
X152008719Y-22155134D01*
X151991476Y-22142346D01*
X151975570Y-22127930D01*
X151961154Y-22112024D01*
X151948366Y-22094781D01*
X151937330Y-22076368D01*
X151928151Y-22056962D01*
X151920919Y-22036750D01*
X151915703Y-22015926D01*
X151912553Y-21994691D01*
X151911500Y-21973250D01*
X151911500Y-21460750D01*
X151912553Y-21439309D01*
X151915703Y-21418074D01*
X151920919Y-21397250D01*
X151928151Y-21377038D01*
X151937330Y-21357632D01*
X151948366Y-21339219D01*
X151961154Y-21321976D01*
X151975570Y-21306070D01*
X151991476Y-21291654D01*
X152008719Y-21278866D01*
X152027132Y-21267830D01*
X152046538Y-21258651D01*
X152066750Y-21251419D01*
X152087574Y-21246203D01*
X152108809Y-21243053D01*
X152130250Y-21242000D01*
X152567750Y-21242000D01*
X152589191Y-21243053D01*
X152589191Y-21243053D01*
G37*
D14*
X152349000Y-21717000D03*
G04 #@! TD*
D13*
G04 #@! TO.C,C3*
G36*
X112254191Y-21878053D02*
X112275426Y-21881203D01*
X112296250Y-21886419D01*
X112316462Y-21893651D01*
X112335868Y-21902830D01*
X112354281Y-21913866D01*
X112371524Y-21926654D01*
X112387430Y-21941070D01*
X112401846Y-21956976D01*
X112414634Y-21974219D01*
X112425670Y-21992632D01*
X112434849Y-22012038D01*
X112442081Y-22032250D01*
X112447297Y-22053074D01*
X112450447Y-22074309D01*
X112451500Y-22095750D01*
X112451500Y-22608250D01*
X112450447Y-22629691D01*
X112447297Y-22650926D01*
X112442081Y-22671750D01*
X112434849Y-22691962D01*
X112425670Y-22711368D01*
X112414634Y-22729781D01*
X112401846Y-22747024D01*
X112387430Y-22762930D01*
X112371524Y-22777346D01*
X112354281Y-22790134D01*
X112335868Y-22801170D01*
X112316462Y-22810349D01*
X112296250Y-22817581D01*
X112275426Y-22822797D01*
X112254191Y-22825947D01*
X112232750Y-22827000D01*
X111795250Y-22827000D01*
X111773809Y-22825947D01*
X111752574Y-22822797D01*
X111731750Y-22817581D01*
X111711538Y-22810349D01*
X111692132Y-22801170D01*
X111673719Y-22790134D01*
X111656476Y-22777346D01*
X111640570Y-22762930D01*
X111626154Y-22747024D01*
X111613366Y-22729781D01*
X111602330Y-22711368D01*
X111593151Y-22691962D01*
X111585919Y-22671750D01*
X111580703Y-22650926D01*
X111577553Y-22629691D01*
X111576500Y-22608250D01*
X111576500Y-22095750D01*
X111577553Y-22074309D01*
X111580703Y-22053074D01*
X111585919Y-22032250D01*
X111593151Y-22012038D01*
X111602330Y-21992632D01*
X111613366Y-21974219D01*
X111626154Y-21956976D01*
X111640570Y-21941070D01*
X111656476Y-21926654D01*
X111673719Y-21913866D01*
X111692132Y-21902830D01*
X111711538Y-21893651D01*
X111731750Y-21886419D01*
X111752574Y-21881203D01*
X111773809Y-21878053D01*
X111795250Y-21877000D01*
X112232750Y-21877000D01*
X112254191Y-21878053D01*
X112254191Y-21878053D01*
G37*
D14*
X112014000Y-22352000D03*
D13*
G36*
X113829191Y-21878053D02*
X113850426Y-21881203D01*
X113871250Y-21886419D01*
X113891462Y-21893651D01*
X113910868Y-21902830D01*
X113929281Y-21913866D01*
X113946524Y-21926654D01*
X113962430Y-21941070D01*
X113976846Y-21956976D01*
X113989634Y-21974219D01*
X114000670Y-21992632D01*
X114009849Y-22012038D01*
X114017081Y-22032250D01*
X114022297Y-22053074D01*
X114025447Y-22074309D01*
X114026500Y-22095750D01*
X114026500Y-22608250D01*
X114025447Y-22629691D01*
X114022297Y-22650926D01*
X114017081Y-22671750D01*
X114009849Y-22691962D01*
X114000670Y-22711368D01*
X113989634Y-22729781D01*
X113976846Y-22747024D01*
X113962430Y-22762930D01*
X113946524Y-22777346D01*
X113929281Y-22790134D01*
X113910868Y-22801170D01*
X113891462Y-22810349D01*
X113871250Y-22817581D01*
X113850426Y-22822797D01*
X113829191Y-22825947D01*
X113807750Y-22827000D01*
X113370250Y-22827000D01*
X113348809Y-22825947D01*
X113327574Y-22822797D01*
X113306750Y-22817581D01*
X113286538Y-22810349D01*
X113267132Y-22801170D01*
X113248719Y-22790134D01*
X113231476Y-22777346D01*
X113215570Y-22762930D01*
X113201154Y-22747024D01*
X113188366Y-22729781D01*
X113177330Y-22711368D01*
X113168151Y-22691962D01*
X113160919Y-22671750D01*
X113155703Y-22650926D01*
X113152553Y-22629691D01*
X113151500Y-22608250D01*
X113151500Y-22095750D01*
X113152553Y-22074309D01*
X113155703Y-22053074D01*
X113160919Y-22032250D01*
X113168151Y-22012038D01*
X113177330Y-21992632D01*
X113188366Y-21974219D01*
X113201154Y-21956976D01*
X113215570Y-21941070D01*
X113231476Y-21926654D01*
X113248719Y-21913866D01*
X113267132Y-21902830D01*
X113286538Y-21893651D01*
X113306750Y-21886419D01*
X113327574Y-21881203D01*
X113348809Y-21878053D01*
X113370250Y-21877000D01*
X113807750Y-21877000D01*
X113829191Y-21878053D01*
X113829191Y-21878053D01*
G37*
D14*
X113589000Y-22352000D03*
G04 #@! TD*
D13*
G04 #@! TO.C,C4*
G36*
X150659191Y-21243053D02*
X150680426Y-21246203D01*
X150701250Y-21251419D01*
X150721462Y-21258651D01*
X150740868Y-21267830D01*
X150759281Y-21278866D01*
X150776524Y-21291654D01*
X150792430Y-21306070D01*
X150806846Y-21321976D01*
X150819634Y-21339219D01*
X150830670Y-21357632D01*
X150839849Y-21377038D01*
X150847081Y-21397250D01*
X150852297Y-21418074D01*
X150855447Y-21439309D01*
X150856500Y-21460750D01*
X150856500Y-21973250D01*
X150855447Y-21994691D01*
X150852297Y-22015926D01*
X150847081Y-22036750D01*
X150839849Y-22056962D01*
X150830670Y-22076368D01*
X150819634Y-22094781D01*
X150806846Y-22112024D01*
X150792430Y-22127930D01*
X150776524Y-22142346D01*
X150759281Y-22155134D01*
X150740868Y-22166170D01*
X150721462Y-22175349D01*
X150701250Y-22182581D01*
X150680426Y-22187797D01*
X150659191Y-22190947D01*
X150637750Y-22192000D01*
X150200250Y-22192000D01*
X150178809Y-22190947D01*
X150157574Y-22187797D01*
X150136750Y-22182581D01*
X150116538Y-22175349D01*
X150097132Y-22166170D01*
X150078719Y-22155134D01*
X150061476Y-22142346D01*
X150045570Y-22127930D01*
X150031154Y-22112024D01*
X150018366Y-22094781D01*
X150007330Y-22076368D01*
X149998151Y-22056962D01*
X149990919Y-22036750D01*
X149985703Y-22015926D01*
X149982553Y-21994691D01*
X149981500Y-21973250D01*
X149981500Y-21460750D01*
X149982553Y-21439309D01*
X149985703Y-21418074D01*
X149990919Y-21397250D01*
X149998151Y-21377038D01*
X150007330Y-21357632D01*
X150018366Y-21339219D01*
X150031154Y-21321976D01*
X150045570Y-21306070D01*
X150061476Y-21291654D01*
X150078719Y-21278866D01*
X150097132Y-21267830D01*
X150116538Y-21258651D01*
X150136750Y-21251419D01*
X150157574Y-21246203D01*
X150178809Y-21243053D01*
X150200250Y-21242000D01*
X150637750Y-21242000D01*
X150659191Y-21243053D01*
X150659191Y-21243053D01*
G37*
D14*
X150419000Y-21717000D03*
D13*
G36*
X149084191Y-21243053D02*
X149105426Y-21246203D01*
X149126250Y-21251419D01*
X149146462Y-21258651D01*
X149165868Y-21267830D01*
X149184281Y-21278866D01*
X149201524Y-21291654D01*
X149217430Y-21306070D01*
X149231846Y-21321976D01*
X149244634Y-21339219D01*
X149255670Y-21357632D01*
X149264849Y-21377038D01*
X149272081Y-21397250D01*
X149277297Y-21418074D01*
X149280447Y-21439309D01*
X149281500Y-21460750D01*
X149281500Y-21973250D01*
X149280447Y-21994691D01*
X149277297Y-22015926D01*
X149272081Y-22036750D01*
X149264849Y-22056962D01*
X149255670Y-22076368D01*
X149244634Y-22094781D01*
X149231846Y-22112024D01*
X149217430Y-22127930D01*
X149201524Y-22142346D01*
X149184281Y-22155134D01*
X149165868Y-22166170D01*
X149146462Y-22175349D01*
X149126250Y-22182581D01*
X149105426Y-22187797D01*
X149084191Y-22190947D01*
X149062750Y-22192000D01*
X148625250Y-22192000D01*
X148603809Y-22190947D01*
X148582574Y-22187797D01*
X148561750Y-22182581D01*
X148541538Y-22175349D01*
X148522132Y-22166170D01*
X148503719Y-22155134D01*
X148486476Y-22142346D01*
X148470570Y-22127930D01*
X148456154Y-22112024D01*
X148443366Y-22094781D01*
X148432330Y-22076368D01*
X148423151Y-22056962D01*
X148415919Y-22036750D01*
X148410703Y-22015926D01*
X148407553Y-21994691D01*
X148406500Y-21973250D01*
X148406500Y-21460750D01*
X148407553Y-21439309D01*
X148410703Y-21418074D01*
X148415919Y-21397250D01*
X148423151Y-21377038D01*
X148432330Y-21357632D01*
X148443366Y-21339219D01*
X148456154Y-21321976D01*
X148470570Y-21306070D01*
X148486476Y-21291654D01*
X148503719Y-21278866D01*
X148522132Y-21267830D01*
X148541538Y-21258651D01*
X148561750Y-21251419D01*
X148582574Y-21246203D01*
X148603809Y-21243053D01*
X148625250Y-21242000D01*
X149062750Y-21242000D01*
X149084191Y-21243053D01*
X149084191Y-21243053D01*
G37*
D14*
X148844000Y-21717000D03*
G04 #@! TD*
D13*
G04 #@! TO.C,C5*
G36*
X128129191Y-25053053D02*
X128150426Y-25056203D01*
X128171250Y-25061419D01*
X128191462Y-25068651D01*
X128210868Y-25077830D01*
X128229281Y-25088866D01*
X128246524Y-25101654D01*
X128262430Y-25116070D01*
X128276846Y-25131976D01*
X128289634Y-25149219D01*
X128300670Y-25167632D01*
X128309849Y-25187038D01*
X128317081Y-25207250D01*
X128322297Y-25228074D01*
X128325447Y-25249309D01*
X128326500Y-25270750D01*
X128326500Y-25783250D01*
X128325447Y-25804691D01*
X128322297Y-25825926D01*
X128317081Y-25846750D01*
X128309849Y-25866962D01*
X128300670Y-25886368D01*
X128289634Y-25904781D01*
X128276846Y-25922024D01*
X128262430Y-25937930D01*
X128246524Y-25952346D01*
X128229281Y-25965134D01*
X128210868Y-25976170D01*
X128191462Y-25985349D01*
X128171250Y-25992581D01*
X128150426Y-25997797D01*
X128129191Y-26000947D01*
X128107750Y-26002000D01*
X127670250Y-26002000D01*
X127648809Y-26000947D01*
X127627574Y-25997797D01*
X127606750Y-25992581D01*
X127586538Y-25985349D01*
X127567132Y-25976170D01*
X127548719Y-25965134D01*
X127531476Y-25952346D01*
X127515570Y-25937930D01*
X127501154Y-25922024D01*
X127488366Y-25904781D01*
X127477330Y-25886368D01*
X127468151Y-25866962D01*
X127460919Y-25846750D01*
X127455703Y-25825926D01*
X127452553Y-25804691D01*
X127451500Y-25783250D01*
X127451500Y-25270750D01*
X127452553Y-25249309D01*
X127455703Y-25228074D01*
X127460919Y-25207250D01*
X127468151Y-25187038D01*
X127477330Y-25167632D01*
X127488366Y-25149219D01*
X127501154Y-25131976D01*
X127515570Y-25116070D01*
X127531476Y-25101654D01*
X127548719Y-25088866D01*
X127567132Y-25077830D01*
X127586538Y-25068651D01*
X127606750Y-25061419D01*
X127627574Y-25056203D01*
X127648809Y-25053053D01*
X127670250Y-25052000D01*
X128107750Y-25052000D01*
X128129191Y-25053053D01*
X128129191Y-25053053D01*
G37*
D14*
X127889000Y-25527000D03*
D13*
G36*
X126554191Y-25053053D02*
X126575426Y-25056203D01*
X126596250Y-25061419D01*
X126616462Y-25068651D01*
X126635868Y-25077830D01*
X126654281Y-25088866D01*
X126671524Y-25101654D01*
X126687430Y-25116070D01*
X126701846Y-25131976D01*
X126714634Y-25149219D01*
X126725670Y-25167632D01*
X126734849Y-25187038D01*
X126742081Y-25207250D01*
X126747297Y-25228074D01*
X126750447Y-25249309D01*
X126751500Y-25270750D01*
X126751500Y-25783250D01*
X126750447Y-25804691D01*
X126747297Y-25825926D01*
X126742081Y-25846750D01*
X126734849Y-25866962D01*
X126725670Y-25886368D01*
X126714634Y-25904781D01*
X126701846Y-25922024D01*
X126687430Y-25937930D01*
X126671524Y-25952346D01*
X126654281Y-25965134D01*
X126635868Y-25976170D01*
X126616462Y-25985349D01*
X126596250Y-25992581D01*
X126575426Y-25997797D01*
X126554191Y-26000947D01*
X126532750Y-26002000D01*
X126095250Y-26002000D01*
X126073809Y-26000947D01*
X126052574Y-25997797D01*
X126031750Y-25992581D01*
X126011538Y-25985349D01*
X125992132Y-25976170D01*
X125973719Y-25965134D01*
X125956476Y-25952346D01*
X125940570Y-25937930D01*
X125926154Y-25922024D01*
X125913366Y-25904781D01*
X125902330Y-25886368D01*
X125893151Y-25866962D01*
X125885919Y-25846750D01*
X125880703Y-25825926D01*
X125877553Y-25804691D01*
X125876500Y-25783250D01*
X125876500Y-25270750D01*
X125877553Y-25249309D01*
X125880703Y-25228074D01*
X125885919Y-25207250D01*
X125893151Y-25187038D01*
X125902330Y-25167632D01*
X125913366Y-25149219D01*
X125926154Y-25131976D01*
X125940570Y-25116070D01*
X125956476Y-25101654D01*
X125973719Y-25088866D01*
X125992132Y-25077830D01*
X126011538Y-25068651D01*
X126031750Y-25061419D01*
X126052574Y-25056203D01*
X126073809Y-25053053D01*
X126095250Y-25052000D01*
X126532750Y-25052000D01*
X126554191Y-25053053D01*
X126554191Y-25053053D01*
G37*
D14*
X126314000Y-25527000D03*
G04 #@! TD*
D13*
G04 #@! TO.C,C6*
G36*
X123201691Y-31403053D02*
X123222926Y-31406203D01*
X123243750Y-31411419D01*
X123263962Y-31418651D01*
X123283368Y-31427830D01*
X123301781Y-31438866D01*
X123319024Y-31451654D01*
X123334930Y-31466070D01*
X123349346Y-31481976D01*
X123362134Y-31499219D01*
X123373170Y-31517632D01*
X123382349Y-31537038D01*
X123389581Y-31557250D01*
X123394797Y-31578074D01*
X123397947Y-31599309D01*
X123399000Y-31620750D01*
X123399000Y-32133250D01*
X123397947Y-32154691D01*
X123394797Y-32175926D01*
X123389581Y-32196750D01*
X123382349Y-32216962D01*
X123373170Y-32236368D01*
X123362134Y-32254781D01*
X123349346Y-32272024D01*
X123334930Y-32287930D01*
X123319024Y-32302346D01*
X123301781Y-32315134D01*
X123283368Y-32326170D01*
X123263962Y-32335349D01*
X123243750Y-32342581D01*
X123222926Y-32347797D01*
X123201691Y-32350947D01*
X123180250Y-32352000D01*
X122742750Y-32352000D01*
X122721309Y-32350947D01*
X122700074Y-32347797D01*
X122679250Y-32342581D01*
X122659038Y-32335349D01*
X122639632Y-32326170D01*
X122621219Y-32315134D01*
X122603976Y-32302346D01*
X122588070Y-32287930D01*
X122573654Y-32272024D01*
X122560866Y-32254781D01*
X122549830Y-32236368D01*
X122540651Y-32216962D01*
X122533419Y-32196750D01*
X122528203Y-32175926D01*
X122525053Y-32154691D01*
X122524000Y-32133250D01*
X122524000Y-31620750D01*
X122525053Y-31599309D01*
X122528203Y-31578074D01*
X122533419Y-31557250D01*
X122540651Y-31537038D01*
X122549830Y-31517632D01*
X122560866Y-31499219D01*
X122573654Y-31481976D01*
X122588070Y-31466070D01*
X122603976Y-31451654D01*
X122621219Y-31438866D01*
X122639632Y-31427830D01*
X122659038Y-31418651D01*
X122679250Y-31411419D01*
X122700074Y-31406203D01*
X122721309Y-31403053D01*
X122742750Y-31402000D01*
X123180250Y-31402000D01*
X123201691Y-31403053D01*
X123201691Y-31403053D01*
G37*
D14*
X122961500Y-31877000D03*
D13*
G36*
X121626691Y-31403053D02*
X121647926Y-31406203D01*
X121668750Y-31411419D01*
X121688962Y-31418651D01*
X121708368Y-31427830D01*
X121726781Y-31438866D01*
X121744024Y-31451654D01*
X121759930Y-31466070D01*
X121774346Y-31481976D01*
X121787134Y-31499219D01*
X121798170Y-31517632D01*
X121807349Y-31537038D01*
X121814581Y-31557250D01*
X121819797Y-31578074D01*
X121822947Y-31599309D01*
X121824000Y-31620750D01*
X121824000Y-32133250D01*
X121822947Y-32154691D01*
X121819797Y-32175926D01*
X121814581Y-32196750D01*
X121807349Y-32216962D01*
X121798170Y-32236368D01*
X121787134Y-32254781D01*
X121774346Y-32272024D01*
X121759930Y-32287930D01*
X121744024Y-32302346D01*
X121726781Y-32315134D01*
X121708368Y-32326170D01*
X121688962Y-32335349D01*
X121668750Y-32342581D01*
X121647926Y-32347797D01*
X121626691Y-32350947D01*
X121605250Y-32352000D01*
X121167750Y-32352000D01*
X121146309Y-32350947D01*
X121125074Y-32347797D01*
X121104250Y-32342581D01*
X121084038Y-32335349D01*
X121064632Y-32326170D01*
X121046219Y-32315134D01*
X121028976Y-32302346D01*
X121013070Y-32287930D01*
X120998654Y-32272024D01*
X120985866Y-32254781D01*
X120974830Y-32236368D01*
X120965651Y-32216962D01*
X120958419Y-32196750D01*
X120953203Y-32175926D01*
X120950053Y-32154691D01*
X120949000Y-32133250D01*
X120949000Y-31620750D01*
X120950053Y-31599309D01*
X120953203Y-31578074D01*
X120958419Y-31557250D01*
X120965651Y-31537038D01*
X120974830Y-31517632D01*
X120985866Y-31499219D01*
X120998654Y-31481976D01*
X121013070Y-31466070D01*
X121028976Y-31451654D01*
X121046219Y-31438866D01*
X121064632Y-31427830D01*
X121084038Y-31418651D01*
X121104250Y-31411419D01*
X121125074Y-31406203D01*
X121146309Y-31403053D01*
X121167750Y-31402000D01*
X121605250Y-31402000D01*
X121626691Y-31403053D01*
X121626691Y-31403053D01*
G37*
D14*
X121386500Y-31877000D03*
G04 #@! TD*
D13*
G04 #@! TO.C,C7*
G36*
X118756691Y-31403053D02*
X118777926Y-31406203D01*
X118798750Y-31411419D01*
X118818962Y-31418651D01*
X118838368Y-31427830D01*
X118856781Y-31438866D01*
X118874024Y-31451654D01*
X118889930Y-31466070D01*
X118904346Y-31481976D01*
X118917134Y-31499219D01*
X118928170Y-31517632D01*
X118937349Y-31537038D01*
X118944581Y-31557250D01*
X118949797Y-31578074D01*
X118952947Y-31599309D01*
X118954000Y-31620750D01*
X118954000Y-32133250D01*
X118952947Y-32154691D01*
X118949797Y-32175926D01*
X118944581Y-32196750D01*
X118937349Y-32216962D01*
X118928170Y-32236368D01*
X118917134Y-32254781D01*
X118904346Y-32272024D01*
X118889930Y-32287930D01*
X118874024Y-32302346D01*
X118856781Y-32315134D01*
X118838368Y-32326170D01*
X118818962Y-32335349D01*
X118798750Y-32342581D01*
X118777926Y-32347797D01*
X118756691Y-32350947D01*
X118735250Y-32352000D01*
X118297750Y-32352000D01*
X118276309Y-32350947D01*
X118255074Y-32347797D01*
X118234250Y-32342581D01*
X118214038Y-32335349D01*
X118194632Y-32326170D01*
X118176219Y-32315134D01*
X118158976Y-32302346D01*
X118143070Y-32287930D01*
X118128654Y-32272024D01*
X118115866Y-32254781D01*
X118104830Y-32236368D01*
X118095651Y-32216962D01*
X118088419Y-32196750D01*
X118083203Y-32175926D01*
X118080053Y-32154691D01*
X118079000Y-32133250D01*
X118079000Y-31620750D01*
X118080053Y-31599309D01*
X118083203Y-31578074D01*
X118088419Y-31557250D01*
X118095651Y-31537038D01*
X118104830Y-31517632D01*
X118115866Y-31499219D01*
X118128654Y-31481976D01*
X118143070Y-31466070D01*
X118158976Y-31451654D01*
X118176219Y-31438866D01*
X118194632Y-31427830D01*
X118214038Y-31418651D01*
X118234250Y-31411419D01*
X118255074Y-31406203D01*
X118276309Y-31403053D01*
X118297750Y-31402000D01*
X118735250Y-31402000D01*
X118756691Y-31403053D01*
X118756691Y-31403053D01*
G37*
D14*
X118516500Y-31877000D03*
D13*
G36*
X117181691Y-31403053D02*
X117202926Y-31406203D01*
X117223750Y-31411419D01*
X117243962Y-31418651D01*
X117263368Y-31427830D01*
X117281781Y-31438866D01*
X117299024Y-31451654D01*
X117314930Y-31466070D01*
X117329346Y-31481976D01*
X117342134Y-31499219D01*
X117353170Y-31517632D01*
X117362349Y-31537038D01*
X117369581Y-31557250D01*
X117374797Y-31578074D01*
X117377947Y-31599309D01*
X117379000Y-31620750D01*
X117379000Y-32133250D01*
X117377947Y-32154691D01*
X117374797Y-32175926D01*
X117369581Y-32196750D01*
X117362349Y-32216962D01*
X117353170Y-32236368D01*
X117342134Y-32254781D01*
X117329346Y-32272024D01*
X117314930Y-32287930D01*
X117299024Y-32302346D01*
X117281781Y-32315134D01*
X117263368Y-32326170D01*
X117243962Y-32335349D01*
X117223750Y-32342581D01*
X117202926Y-32347797D01*
X117181691Y-32350947D01*
X117160250Y-32352000D01*
X116722750Y-32352000D01*
X116701309Y-32350947D01*
X116680074Y-32347797D01*
X116659250Y-32342581D01*
X116639038Y-32335349D01*
X116619632Y-32326170D01*
X116601219Y-32315134D01*
X116583976Y-32302346D01*
X116568070Y-32287930D01*
X116553654Y-32272024D01*
X116540866Y-32254781D01*
X116529830Y-32236368D01*
X116520651Y-32216962D01*
X116513419Y-32196750D01*
X116508203Y-32175926D01*
X116505053Y-32154691D01*
X116504000Y-32133250D01*
X116504000Y-31620750D01*
X116505053Y-31599309D01*
X116508203Y-31578074D01*
X116513419Y-31557250D01*
X116520651Y-31537038D01*
X116529830Y-31517632D01*
X116540866Y-31499219D01*
X116553654Y-31481976D01*
X116568070Y-31466070D01*
X116583976Y-31451654D01*
X116601219Y-31438866D01*
X116619632Y-31427830D01*
X116639038Y-31418651D01*
X116659250Y-31411419D01*
X116680074Y-31406203D01*
X116701309Y-31403053D01*
X116722750Y-31402000D01*
X117160250Y-31402000D01*
X117181691Y-31403053D01*
X117181691Y-31403053D01*
G37*
D14*
X116941500Y-31877000D03*
G04 #@! TD*
D13*
G04 #@! TO.C,C8*
G36*
X145311691Y-26030553D02*
X145332926Y-26033703D01*
X145353750Y-26038919D01*
X145373962Y-26046151D01*
X145393368Y-26055330D01*
X145411781Y-26066366D01*
X145429024Y-26079154D01*
X145444930Y-26093570D01*
X145459346Y-26109476D01*
X145472134Y-26126719D01*
X145483170Y-26145132D01*
X145492349Y-26164538D01*
X145499581Y-26184750D01*
X145504797Y-26205574D01*
X145507947Y-26226809D01*
X145509000Y-26248250D01*
X145509000Y-26685750D01*
X145507947Y-26707191D01*
X145504797Y-26728426D01*
X145499581Y-26749250D01*
X145492349Y-26769462D01*
X145483170Y-26788868D01*
X145472134Y-26807281D01*
X145459346Y-26824524D01*
X145444930Y-26840430D01*
X145429024Y-26854846D01*
X145411781Y-26867634D01*
X145393368Y-26878670D01*
X145373962Y-26887849D01*
X145353750Y-26895081D01*
X145332926Y-26900297D01*
X145311691Y-26903447D01*
X145290250Y-26904500D01*
X144777750Y-26904500D01*
X144756309Y-26903447D01*
X144735074Y-26900297D01*
X144714250Y-26895081D01*
X144694038Y-26887849D01*
X144674632Y-26878670D01*
X144656219Y-26867634D01*
X144638976Y-26854846D01*
X144623070Y-26840430D01*
X144608654Y-26824524D01*
X144595866Y-26807281D01*
X144584830Y-26788868D01*
X144575651Y-26769462D01*
X144568419Y-26749250D01*
X144563203Y-26728426D01*
X144560053Y-26707191D01*
X144559000Y-26685750D01*
X144559000Y-26248250D01*
X144560053Y-26226809D01*
X144563203Y-26205574D01*
X144568419Y-26184750D01*
X144575651Y-26164538D01*
X144584830Y-26145132D01*
X144595866Y-26126719D01*
X144608654Y-26109476D01*
X144623070Y-26093570D01*
X144638976Y-26079154D01*
X144656219Y-26066366D01*
X144674632Y-26055330D01*
X144694038Y-26046151D01*
X144714250Y-26038919D01*
X144735074Y-26033703D01*
X144756309Y-26030553D01*
X144777750Y-26029500D01*
X145290250Y-26029500D01*
X145311691Y-26030553D01*
X145311691Y-26030553D01*
G37*
D14*
X145034000Y-26467000D03*
D13*
G36*
X145311691Y-24455553D02*
X145332926Y-24458703D01*
X145353750Y-24463919D01*
X145373962Y-24471151D01*
X145393368Y-24480330D01*
X145411781Y-24491366D01*
X145429024Y-24504154D01*
X145444930Y-24518570D01*
X145459346Y-24534476D01*
X145472134Y-24551719D01*
X145483170Y-24570132D01*
X145492349Y-24589538D01*
X145499581Y-24609750D01*
X145504797Y-24630574D01*
X145507947Y-24651809D01*
X145509000Y-24673250D01*
X145509000Y-25110750D01*
X145507947Y-25132191D01*
X145504797Y-25153426D01*
X145499581Y-25174250D01*
X145492349Y-25194462D01*
X145483170Y-25213868D01*
X145472134Y-25232281D01*
X145459346Y-25249524D01*
X145444930Y-25265430D01*
X145429024Y-25279846D01*
X145411781Y-25292634D01*
X145393368Y-25303670D01*
X145373962Y-25312849D01*
X145353750Y-25320081D01*
X145332926Y-25325297D01*
X145311691Y-25328447D01*
X145290250Y-25329500D01*
X144777750Y-25329500D01*
X144756309Y-25328447D01*
X144735074Y-25325297D01*
X144714250Y-25320081D01*
X144694038Y-25312849D01*
X144674632Y-25303670D01*
X144656219Y-25292634D01*
X144638976Y-25279846D01*
X144623070Y-25265430D01*
X144608654Y-25249524D01*
X144595866Y-25232281D01*
X144584830Y-25213868D01*
X144575651Y-25194462D01*
X144568419Y-25174250D01*
X144563203Y-25153426D01*
X144560053Y-25132191D01*
X144559000Y-25110750D01*
X144559000Y-24673250D01*
X144560053Y-24651809D01*
X144563203Y-24630574D01*
X144568419Y-24609750D01*
X144575651Y-24589538D01*
X144584830Y-24570132D01*
X144595866Y-24551719D01*
X144608654Y-24534476D01*
X144623070Y-24518570D01*
X144638976Y-24504154D01*
X144656219Y-24491366D01*
X144674632Y-24480330D01*
X144694038Y-24471151D01*
X144714250Y-24463919D01*
X144735074Y-24458703D01*
X144756309Y-24455553D01*
X144777750Y-24454500D01*
X145290250Y-24454500D01*
X145311691Y-24455553D01*
X145311691Y-24455553D01*
G37*
D14*
X145034000Y-24892000D03*
G04 #@! TD*
D13*
G04 #@! TO.C,C9*
G36*
X139610191Y-36610053D02*
X139631426Y-36613203D01*
X139652250Y-36618419D01*
X139672462Y-36625651D01*
X139691868Y-36634830D01*
X139710281Y-36645866D01*
X139727524Y-36658654D01*
X139743430Y-36673070D01*
X139757846Y-36688976D01*
X139770634Y-36706219D01*
X139781670Y-36724632D01*
X139790849Y-36744038D01*
X139798081Y-36764250D01*
X139803297Y-36785074D01*
X139806447Y-36806309D01*
X139807500Y-36827750D01*
X139807500Y-37340250D01*
X139806447Y-37361691D01*
X139803297Y-37382926D01*
X139798081Y-37403750D01*
X139790849Y-37423962D01*
X139781670Y-37443368D01*
X139770634Y-37461781D01*
X139757846Y-37479024D01*
X139743430Y-37494930D01*
X139727524Y-37509346D01*
X139710281Y-37522134D01*
X139691868Y-37533170D01*
X139672462Y-37542349D01*
X139652250Y-37549581D01*
X139631426Y-37554797D01*
X139610191Y-37557947D01*
X139588750Y-37559000D01*
X139151250Y-37559000D01*
X139129809Y-37557947D01*
X139108574Y-37554797D01*
X139087750Y-37549581D01*
X139067538Y-37542349D01*
X139048132Y-37533170D01*
X139029719Y-37522134D01*
X139012476Y-37509346D01*
X138996570Y-37494930D01*
X138982154Y-37479024D01*
X138969366Y-37461781D01*
X138958330Y-37443368D01*
X138949151Y-37423962D01*
X138941919Y-37403750D01*
X138936703Y-37382926D01*
X138933553Y-37361691D01*
X138932500Y-37340250D01*
X138932500Y-36827750D01*
X138933553Y-36806309D01*
X138936703Y-36785074D01*
X138941919Y-36764250D01*
X138949151Y-36744038D01*
X138958330Y-36724632D01*
X138969366Y-36706219D01*
X138982154Y-36688976D01*
X138996570Y-36673070D01*
X139012476Y-36658654D01*
X139029719Y-36645866D01*
X139048132Y-36634830D01*
X139067538Y-36625651D01*
X139087750Y-36618419D01*
X139108574Y-36613203D01*
X139129809Y-36610053D01*
X139151250Y-36609000D01*
X139588750Y-36609000D01*
X139610191Y-36610053D01*
X139610191Y-36610053D01*
G37*
D14*
X139370000Y-37084000D03*
D13*
G36*
X138035191Y-36610053D02*
X138056426Y-36613203D01*
X138077250Y-36618419D01*
X138097462Y-36625651D01*
X138116868Y-36634830D01*
X138135281Y-36645866D01*
X138152524Y-36658654D01*
X138168430Y-36673070D01*
X138182846Y-36688976D01*
X138195634Y-36706219D01*
X138206670Y-36724632D01*
X138215849Y-36744038D01*
X138223081Y-36764250D01*
X138228297Y-36785074D01*
X138231447Y-36806309D01*
X138232500Y-36827750D01*
X138232500Y-37340250D01*
X138231447Y-37361691D01*
X138228297Y-37382926D01*
X138223081Y-37403750D01*
X138215849Y-37423962D01*
X138206670Y-37443368D01*
X138195634Y-37461781D01*
X138182846Y-37479024D01*
X138168430Y-37494930D01*
X138152524Y-37509346D01*
X138135281Y-37522134D01*
X138116868Y-37533170D01*
X138097462Y-37542349D01*
X138077250Y-37549581D01*
X138056426Y-37554797D01*
X138035191Y-37557947D01*
X138013750Y-37559000D01*
X137576250Y-37559000D01*
X137554809Y-37557947D01*
X137533574Y-37554797D01*
X137512750Y-37549581D01*
X137492538Y-37542349D01*
X137473132Y-37533170D01*
X137454719Y-37522134D01*
X137437476Y-37509346D01*
X137421570Y-37494930D01*
X137407154Y-37479024D01*
X137394366Y-37461781D01*
X137383330Y-37443368D01*
X137374151Y-37423962D01*
X137366919Y-37403750D01*
X137361703Y-37382926D01*
X137358553Y-37361691D01*
X137357500Y-37340250D01*
X137357500Y-36827750D01*
X137358553Y-36806309D01*
X137361703Y-36785074D01*
X137366919Y-36764250D01*
X137374151Y-36744038D01*
X137383330Y-36724632D01*
X137394366Y-36706219D01*
X137407154Y-36688976D01*
X137421570Y-36673070D01*
X137437476Y-36658654D01*
X137454719Y-36645866D01*
X137473132Y-36634830D01*
X137492538Y-36625651D01*
X137512750Y-36618419D01*
X137533574Y-36613203D01*
X137554809Y-36610053D01*
X137576250Y-36609000D01*
X138013750Y-36609000D01*
X138035191Y-36610053D01*
X138035191Y-36610053D01*
G37*
D14*
X137795000Y-37084000D03*
G04 #@! TD*
D13*
G04 #@! TO.C,D5*
G36*
X131087691Y-28773553D02*
X131108926Y-28776703D01*
X131129750Y-28781919D01*
X131149962Y-28789151D01*
X131169368Y-28798330D01*
X131187781Y-28809366D01*
X131205024Y-28822154D01*
X131220930Y-28836570D01*
X131235346Y-28852476D01*
X131248134Y-28869719D01*
X131259170Y-28888132D01*
X131268349Y-28907538D01*
X131275581Y-28927750D01*
X131280797Y-28948574D01*
X131283947Y-28969809D01*
X131285000Y-28991250D01*
X131285000Y-29428750D01*
X131283947Y-29450191D01*
X131280797Y-29471426D01*
X131275581Y-29492250D01*
X131268349Y-29512462D01*
X131259170Y-29531868D01*
X131248134Y-29550281D01*
X131235346Y-29567524D01*
X131220930Y-29583430D01*
X131205024Y-29597846D01*
X131187781Y-29610634D01*
X131169368Y-29621670D01*
X131149962Y-29630849D01*
X131129750Y-29638081D01*
X131108926Y-29643297D01*
X131087691Y-29646447D01*
X131066250Y-29647500D01*
X130553750Y-29647500D01*
X130532309Y-29646447D01*
X130511074Y-29643297D01*
X130490250Y-29638081D01*
X130470038Y-29630849D01*
X130450632Y-29621670D01*
X130432219Y-29610634D01*
X130414976Y-29597846D01*
X130399070Y-29583430D01*
X130384654Y-29567524D01*
X130371866Y-29550281D01*
X130360830Y-29531868D01*
X130351651Y-29512462D01*
X130344419Y-29492250D01*
X130339203Y-29471426D01*
X130336053Y-29450191D01*
X130335000Y-29428750D01*
X130335000Y-28991250D01*
X130336053Y-28969809D01*
X130339203Y-28948574D01*
X130344419Y-28927750D01*
X130351651Y-28907538D01*
X130360830Y-28888132D01*
X130371866Y-28869719D01*
X130384654Y-28852476D01*
X130399070Y-28836570D01*
X130414976Y-28822154D01*
X130432219Y-28809366D01*
X130450632Y-28798330D01*
X130470038Y-28789151D01*
X130490250Y-28781919D01*
X130511074Y-28776703D01*
X130532309Y-28773553D01*
X130553750Y-28772500D01*
X131066250Y-28772500D01*
X131087691Y-28773553D01*
X131087691Y-28773553D01*
G37*
D14*
X130810000Y-29210000D03*
D13*
G36*
X131087691Y-30348553D02*
X131108926Y-30351703D01*
X131129750Y-30356919D01*
X131149962Y-30364151D01*
X131169368Y-30373330D01*
X131187781Y-30384366D01*
X131205024Y-30397154D01*
X131220930Y-30411570D01*
X131235346Y-30427476D01*
X131248134Y-30444719D01*
X131259170Y-30463132D01*
X131268349Y-30482538D01*
X131275581Y-30502750D01*
X131280797Y-30523574D01*
X131283947Y-30544809D01*
X131285000Y-30566250D01*
X131285000Y-31003750D01*
X131283947Y-31025191D01*
X131280797Y-31046426D01*
X131275581Y-31067250D01*
X131268349Y-31087462D01*
X131259170Y-31106868D01*
X131248134Y-31125281D01*
X131235346Y-31142524D01*
X131220930Y-31158430D01*
X131205024Y-31172846D01*
X131187781Y-31185634D01*
X131169368Y-31196670D01*
X131149962Y-31205849D01*
X131129750Y-31213081D01*
X131108926Y-31218297D01*
X131087691Y-31221447D01*
X131066250Y-31222500D01*
X130553750Y-31222500D01*
X130532309Y-31221447D01*
X130511074Y-31218297D01*
X130490250Y-31213081D01*
X130470038Y-31205849D01*
X130450632Y-31196670D01*
X130432219Y-31185634D01*
X130414976Y-31172846D01*
X130399070Y-31158430D01*
X130384654Y-31142524D01*
X130371866Y-31125281D01*
X130360830Y-31106868D01*
X130351651Y-31087462D01*
X130344419Y-31067250D01*
X130339203Y-31046426D01*
X130336053Y-31025191D01*
X130335000Y-31003750D01*
X130335000Y-30566250D01*
X130336053Y-30544809D01*
X130339203Y-30523574D01*
X130344419Y-30502750D01*
X130351651Y-30482538D01*
X130360830Y-30463132D01*
X130371866Y-30444719D01*
X130384654Y-30427476D01*
X130399070Y-30411570D01*
X130414976Y-30397154D01*
X130432219Y-30384366D01*
X130450632Y-30373330D01*
X130470038Y-30364151D01*
X130490250Y-30356919D01*
X130511074Y-30351703D01*
X130532309Y-30348553D01*
X130553750Y-30347500D01*
X131066250Y-30347500D01*
X131087691Y-30348553D01*
X131087691Y-30348553D01*
G37*
D14*
X130810000Y-30785000D03*
G04 #@! TD*
D13*
G04 #@! TO.C,D6*
G36*
X131087691Y-32583553D02*
X131108926Y-32586703D01*
X131129750Y-32591919D01*
X131149962Y-32599151D01*
X131169368Y-32608330D01*
X131187781Y-32619366D01*
X131205024Y-32632154D01*
X131220930Y-32646570D01*
X131235346Y-32662476D01*
X131248134Y-32679719D01*
X131259170Y-32698132D01*
X131268349Y-32717538D01*
X131275581Y-32737750D01*
X131280797Y-32758574D01*
X131283947Y-32779809D01*
X131285000Y-32801250D01*
X131285000Y-33238750D01*
X131283947Y-33260191D01*
X131280797Y-33281426D01*
X131275581Y-33302250D01*
X131268349Y-33322462D01*
X131259170Y-33341868D01*
X131248134Y-33360281D01*
X131235346Y-33377524D01*
X131220930Y-33393430D01*
X131205024Y-33407846D01*
X131187781Y-33420634D01*
X131169368Y-33431670D01*
X131149962Y-33440849D01*
X131129750Y-33448081D01*
X131108926Y-33453297D01*
X131087691Y-33456447D01*
X131066250Y-33457500D01*
X130553750Y-33457500D01*
X130532309Y-33456447D01*
X130511074Y-33453297D01*
X130490250Y-33448081D01*
X130470038Y-33440849D01*
X130450632Y-33431670D01*
X130432219Y-33420634D01*
X130414976Y-33407846D01*
X130399070Y-33393430D01*
X130384654Y-33377524D01*
X130371866Y-33360281D01*
X130360830Y-33341868D01*
X130351651Y-33322462D01*
X130344419Y-33302250D01*
X130339203Y-33281426D01*
X130336053Y-33260191D01*
X130335000Y-33238750D01*
X130335000Y-32801250D01*
X130336053Y-32779809D01*
X130339203Y-32758574D01*
X130344419Y-32737750D01*
X130351651Y-32717538D01*
X130360830Y-32698132D01*
X130371866Y-32679719D01*
X130384654Y-32662476D01*
X130399070Y-32646570D01*
X130414976Y-32632154D01*
X130432219Y-32619366D01*
X130450632Y-32608330D01*
X130470038Y-32599151D01*
X130490250Y-32591919D01*
X130511074Y-32586703D01*
X130532309Y-32583553D01*
X130553750Y-32582500D01*
X131066250Y-32582500D01*
X131087691Y-32583553D01*
X131087691Y-32583553D01*
G37*
D14*
X130810000Y-33020000D03*
D13*
G36*
X131087691Y-34158553D02*
X131108926Y-34161703D01*
X131129750Y-34166919D01*
X131149962Y-34174151D01*
X131169368Y-34183330D01*
X131187781Y-34194366D01*
X131205024Y-34207154D01*
X131220930Y-34221570D01*
X131235346Y-34237476D01*
X131248134Y-34254719D01*
X131259170Y-34273132D01*
X131268349Y-34292538D01*
X131275581Y-34312750D01*
X131280797Y-34333574D01*
X131283947Y-34354809D01*
X131285000Y-34376250D01*
X131285000Y-34813750D01*
X131283947Y-34835191D01*
X131280797Y-34856426D01*
X131275581Y-34877250D01*
X131268349Y-34897462D01*
X131259170Y-34916868D01*
X131248134Y-34935281D01*
X131235346Y-34952524D01*
X131220930Y-34968430D01*
X131205024Y-34982846D01*
X131187781Y-34995634D01*
X131169368Y-35006670D01*
X131149962Y-35015849D01*
X131129750Y-35023081D01*
X131108926Y-35028297D01*
X131087691Y-35031447D01*
X131066250Y-35032500D01*
X130553750Y-35032500D01*
X130532309Y-35031447D01*
X130511074Y-35028297D01*
X130490250Y-35023081D01*
X130470038Y-35015849D01*
X130450632Y-35006670D01*
X130432219Y-34995634D01*
X130414976Y-34982846D01*
X130399070Y-34968430D01*
X130384654Y-34952524D01*
X130371866Y-34935281D01*
X130360830Y-34916868D01*
X130351651Y-34897462D01*
X130344419Y-34877250D01*
X130339203Y-34856426D01*
X130336053Y-34835191D01*
X130335000Y-34813750D01*
X130335000Y-34376250D01*
X130336053Y-34354809D01*
X130339203Y-34333574D01*
X130344419Y-34312750D01*
X130351651Y-34292538D01*
X130360830Y-34273132D01*
X130371866Y-34254719D01*
X130384654Y-34237476D01*
X130399070Y-34221570D01*
X130414976Y-34207154D01*
X130432219Y-34194366D01*
X130450632Y-34183330D01*
X130470038Y-34174151D01*
X130490250Y-34166919D01*
X130511074Y-34161703D01*
X130532309Y-34158553D01*
X130553750Y-34157500D01*
X131066250Y-34157500D01*
X131087691Y-34158553D01*
X131087691Y-34158553D01*
G37*
D14*
X130810000Y-34595000D03*
G04 #@! TD*
D13*
G04 #@! TO.C,R1*
G36*
X113524191Y-33308053D02*
X113545426Y-33311203D01*
X113566250Y-33316419D01*
X113586462Y-33323651D01*
X113605868Y-33332830D01*
X113624281Y-33343866D01*
X113641524Y-33356654D01*
X113657430Y-33371070D01*
X113671846Y-33386976D01*
X113684634Y-33404219D01*
X113695670Y-33422632D01*
X113704849Y-33442038D01*
X113712081Y-33462250D01*
X113717297Y-33483074D01*
X113720447Y-33504309D01*
X113721500Y-33525750D01*
X113721500Y-34038250D01*
X113720447Y-34059691D01*
X113717297Y-34080926D01*
X113712081Y-34101750D01*
X113704849Y-34121962D01*
X113695670Y-34141368D01*
X113684634Y-34159781D01*
X113671846Y-34177024D01*
X113657430Y-34192930D01*
X113641524Y-34207346D01*
X113624281Y-34220134D01*
X113605868Y-34231170D01*
X113586462Y-34240349D01*
X113566250Y-34247581D01*
X113545426Y-34252797D01*
X113524191Y-34255947D01*
X113502750Y-34257000D01*
X113065250Y-34257000D01*
X113043809Y-34255947D01*
X113022574Y-34252797D01*
X113001750Y-34247581D01*
X112981538Y-34240349D01*
X112962132Y-34231170D01*
X112943719Y-34220134D01*
X112926476Y-34207346D01*
X112910570Y-34192930D01*
X112896154Y-34177024D01*
X112883366Y-34159781D01*
X112872330Y-34141368D01*
X112863151Y-34121962D01*
X112855919Y-34101750D01*
X112850703Y-34080926D01*
X112847553Y-34059691D01*
X112846500Y-34038250D01*
X112846500Y-33525750D01*
X112847553Y-33504309D01*
X112850703Y-33483074D01*
X112855919Y-33462250D01*
X112863151Y-33442038D01*
X112872330Y-33422632D01*
X112883366Y-33404219D01*
X112896154Y-33386976D01*
X112910570Y-33371070D01*
X112926476Y-33356654D01*
X112943719Y-33343866D01*
X112962132Y-33332830D01*
X112981538Y-33323651D01*
X113001750Y-33316419D01*
X113022574Y-33311203D01*
X113043809Y-33308053D01*
X113065250Y-33307000D01*
X113502750Y-33307000D01*
X113524191Y-33308053D01*
X113524191Y-33308053D01*
G37*
D14*
X113284000Y-33782000D03*
D13*
G36*
X111949191Y-33308053D02*
X111970426Y-33311203D01*
X111991250Y-33316419D01*
X112011462Y-33323651D01*
X112030868Y-33332830D01*
X112049281Y-33343866D01*
X112066524Y-33356654D01*
X112082430Y-33371070D01*
X112096846Y-33386976D01*
X112109634Y-33404219D01*
X112120670Y-33422632D01*
X112129849Y-33442038D01*
X112137081Y-33462250D01*
X112142297Y-33483074D01*
X112145447Y-33504309D01*
X112146500Y-33525750D01*
X112146500Y-34038250D01*
X112145447Y-34059691D01*
X112142297Y-34080926D01*
X112137081Y-34101750D01*
X112129849Y-34121962D01*
X112120670Y-34141368D01*
X112109634Y-34159781D01*
X112096846Y-34177024D01*
X112082430Y-34192930D01*
X112066524Y-34207346D01*
X112049281Y-34220134D01*
X112030868Y-34231170D01*
X112011462Y-34240349D01*
X111991250Y-34247581D01*
X111970426Y-34252797D01*
X111949191Y-34255947D01*
X111927750Y-34257000D01*
X111490250Y-34257000D01*
X111468809Y-34255947D01*
X111447574Y-34252797D01*
X111426750Y-34247581D01*
X111406538Y-34240349D01*
X111387132Y-34231170D01*
X111368719Y-34220134D01*
X111351476Y-34207346D01*
X111335570Y-34192930D01*
X111321154Y-34177024D01*
X111308366Y-34159781D01*
X111297330Y-34141368D01*
X111288151Y-34121962D01*
X111280919Y-34101750D01*
X111275703Y-34080926D01*
X111272553Y-34059691D01*
X111271500Y-34038250D01*
X111271500Y-33525750D01*
X111272553Y-33504309D01*
X111275703Y-33483074D01*
X111280919Y-33462250D01*
X111288151Y-33442038D01*
X111297330Y-33422632D01*
X111308366Y-33404219D01*
X111321154Y-33386976D01*
X111335570Y-33371070D01*
X111351476Y-33356654D01*
X111368719Y-33343866D01*
X111387132Y-33332830D01*
X111406538Y-33323651D01*
X111426750Y-33316419D01*
X111447574Y-33311203D01*
X111468809Y-33308053D01*
X111490250Y-33307000D01*
X111927750Y-33307000D01*
X111949191Y-33308053D01*
X111949191Y-33308053D01*
G37*
D14*
X111709000Y-33782000D03*
G04 #@! TD*
D13*
G04 #@! TO.C,R2*
G36*
X128129191Y-23148053D02*
X128150426Y-23151203D01*
X128171250Y-23156419D01*
X128191462Y-23163651D01*
X128210868Y-23172830D01*
X128229281Y-23183866D01*
X128246524Y-23196654D01*
X128262430Y-23211070D01*
X128276846Y-23226976D01*
X128289634Y-23244219D01*
X128300670Y-23262632D01*
X128309849Y-23282038D01*
X128317081Y-23302250D01*
X128322297Y-23323074D01*
X128325447Y-23344309D01*
X128326500Y-23365750D01*
X128326500Y-23878250D01*
X128325447Y-23899691D01*
X128322297Y-23920926D01*
X128317081Y-23941750D01*
X128309849Y-23961962D01*
X128300670Y-23981368D01*
X128289634Y-23999781D01*
X128276846Y-24017024D01*
X128262430Y-24032930D01*
X128246524Y-24047346D01*
X128229281Y-24060134D01*
X128210868Y-24071170D01*
X128191462Y-24080349D01*
X128171250Y-24087581D01*
X128150426Y-24092797D01*
X128129191Y-24095947D01*
X128107750Y-24097000D01*
X127670250Y-24097000D01*
X127648809Y-24095947D01*
X127627574Y-24092797D01*
X127606750Y-24087581D01*
X127586538Y-24080349D01*
X127567132Y-24071170D01*
X127548719Y-24060134D01*
X127531476Y-24047346D01*
X127515570Y-24032930D01*
X127501154Y-24017024D01*
X127488366Y-23999781D01*
X127477330Y-23981368D01*
X127468151Y-23961962D01*
X127460919Y-23941750D01*
X127455703Y-23920926D01*
X127452553Y-23899691D01*
X127451500Y-23878250D01*
X127451500Y-23365750D01*
X127452553Y-23344309D01*
X127455703Y-23323074D01*
X127460919Y-23302250D01*
X127468151Y-23282038D01*
X127477330Y-23262632D01*
X127488366Y-23244219D01*
X127501154Y-23226976D01*
X127515570Y-23211070D01*
X127531476Y-23196654D01*
X127548719Y-23183866D01*
X127567132Y-23172830D01*
X127586538Y-23163651D01*
X127606750Y-23156419D01*
X127627574Y-23151203D01*
X127648809Y-23148053D01*
X127670250Y-23147000D01*
X128107750Y-23147000D01*
X128129191Y-23148053D01*
X128129191Y-23148053D01*
G37*
D14*
X127889000Y-23622000D03*
D13*
G36*
X126554191Y-23148053D02*
X126575426Y-23151203D01*
X126596250Y-23156419D01*
X126616462Y-23163651D01*
X126635868Y-23172830D01*
X126654281Y-23183866D01*
X126671524Y-23196654D01*
X126687430Y-23211070D01*
X126701846Y-23226976D01*
X126714634Y-23244219D01*
X126725670Y-23262632D01*
X126734849Y-23282038D01*
X126742081Y-23302250D01*
X126747297Y-23323074D01*
X126750447Y-23344309D01*
X126751500Y-23365750D01*
X126751500Y-23878250D01*
X126750447Y-23899691D01*
X126747297Y-23920926D01*
X126742081Y-23941750D01*
X126734849Y-23961962D01*
X126725670Y-23981368D01*
X126714634Y-23999781D01*
X126701846Y-24017024D01*
X126687430Y-24032930D01*
X126671524Y-24047346D01*
X126654281Y-24060134D01*
X126635868Y-24071170D01*
X126616462Y-24080349D01*
X126596250Y-24087581D01*
X126575426Y-24092797D01*
X126554191Y-24095947D01*
X126532750Y-24097000D01*
X126095250Y-24097000D01*
X126073809Y-24095947D01*
X126052574Y-24092797D01*
X126031750Y-24087581D01*
X126011538Y-24080349D01*
X125992132Y-24071170D01*
X125973719Y-24060134D01*
X125956476Y-24047346D01*
X125940570Y-24032930D01*
X125926154Y-24017024D01*
X125913366Y-23999781D01*
X125902330Y-23981368D01*
X125893151Y-23961962D01*
X125885919Y-23941750D01*
X125880703Y-23920926D01*
X125877553Y-23899691D01*
X125876500Y-23878250D01*
X125876500Y-23365750D01*
X125877553Y-23344309D01*
X125880703Y-23323074D01*
X125885919Y-23302250D01*
X125893151Y-23282038D01*
X125902330Y-23262632D01*
X125913366Y-23244219D01*
X125926154Y-23226976D01*
X125940570Y-23211070D01*
X125956476Y-23196654D01*
X125973719Y-23183866D01*
X125992132Y-23172830D01*
X126011538Y-23163651D01*
X126031750Y-23156419D01*
X126052574Y-23151203D01*
X126073809Y-23148053D01*
X126095250Y-23147000D01*
X126532750Y-23147000D01*
X126554191Y-23148053D01*
X126554191Y-23148053D01*
G37*
D14*
X126314000Y-23622000D03*
G04 #@! TD*
D13*
G04 #@! TO.C,R3*
G36*
X136308191Y-36610053D02*
X136329426Y-36613203D01*
X136350250Y-36618419D01*
X136370462Y-36625651D01*
X136389868Y-36634830D01*
X136408281Y-36645866D01*
X136425524Y-36658654D01*
X136441430Y-36673070D01*
X136455846Y-36688976D01*
X136468634Y-36706219D01*
X136479670Y-36724632D01*
X136488849Y-36744038D01*
X136496081Y-36764250D01*
X136501297Y-36785074D01*
X136504447Y-36806309D01*
X136505500Y-36827750D01*
X136505500Y-37340250D01*
X136504447Y-37361691D01*
X136501297Y-37382926D01*
X136496081Y-37403750D01*
X136488849Y-37423962D01*
X136479670Y-37443368D01*
X136468634Y-37461781D01*
X136455846Y-37479024D01*
X136441430Y-37494930D01*
X136425524Y-37509346D01*
X136408281Y-37522134D01*
X136389868Y-37533170D01*
X136370462Y-37542349D01*
X136350250Y-37549581D01*
X136329426Y-37554797D01*
X136308191Y-37557947D01*
X136286750Y-37559000D01*
X135849250Y-37559000D01*
X135827809Y-37557947D01*
X135806574Y-37554797D01*
X135785750Y-37549581D01*
X135765538Y-37542349D01*
X135746132Y-37533170D01*
X135727719Y-37522134D01*
X135710476Y-37509346D01*
X135694570Y-37494930D01*
X135680154Y-37479024D01*
X135667366Y-37461781D01*
X135656330Y-37443368D01*
X135647151Y-37423962D01*
X135639919Y-37403750D01*
X135634703Y-37382926D01*
X135631553Y-37361691D01*
X135630500Y-37340250D01*
X135630500Y-36827750D01*
X135631553Y-36806309D01*
X135634703Y-36785074D01*
X135639919Y-36764250D01*
X135647151Y-36744038D01*
X135656330Y-36724632D01*
X135667366Y-36706219D01*
X135680154Y-36688976D01*
X135694570Y-36673070D01*
X135710476Y-36658654D01*
X135727719Y-36645866D01*
X135746132Y-36634830D01*
X135765538Y-36625651D01*
X135785750Y-36618419D01*
X135806574Y-36613203D01*
X135827809Y-36610053D01*
X135849250Y-36609000D01*
X136286750Y-36609000D01*
X136308191Y-36610053D01*
X136308191Y-36610053D01*
G37*
D14*
X136068000Y-37084000D03*
D13*
G36*
X134733191Y-36610053D02*
X134754426Y-36613203D01*
X134775250Y-36618419D01*
X134795462Y-36625651D01*
X134814868Y-36634830D01*
X134833281Y-36645866D01*
X134850524Y-36658654D01*
X134866430Y-36673070D01*
X134880846Y-36688976D01*
X134893634Y-36706219D01*
X134904670Y-36724632D01*
X134913849Y-36744038D01*
X134921081Y-36764250D01*
X134926297Y-36785074D01*
X134929447Y-36806309D01*
X134930500Y-36827750D01*
X134930500Y-37340250D01*
X134929447Y-37361691D01*
X134926297Y-37382926D01*
X134921081Y-37403750D01*
X134913849Y-37423962D01*
X134904670Y-37443368D01*
X134893634Y-37461781D01*
X134880846Y-37479024D01*
X134866430Y-37494930D01*
X134850524Y-37509346D01*
X134833281Y-37522134D01*
X134814868Y-37533170D01*
X134795462Y-37542349D01*
X134775250Y-37549581D01*
X134754426Y-37554797D01*
X134733191Y-37557947D01*
X134711750Y-37559000D01*
X134274250Y-37559000D01*
X134252809Y-37557947D01*
X134231574Y-37554797D01*
X134210750Y-37549581D01*
X134190538Y-37542349D01*
X134171132Y-37533170D01*
X134152719Y-37522134D01*
X134135476Y-37509346D01*
X134119570Y-37494930D01*
X134105154Y-37479024D01*
X134092366Y-37461781D01*
X134081330Y-37443368D01*
X134072151Y-37423962D01*
X134064919Y-37403750D01*
X134059703Y-37382926D01*
X134056553Y-37361691D01*
X134055500Y-37340250D01*
X134055500Y-36827750D01*
X134056553Y-36806309D01*
X134059703Y-36785074D01*
X134064919Y-36764250D01*
X134072151Y-36744038D01*
X134081330Y-36724632D01*
X134092366Y-36706219D01*
X134105154Y-36688976D01*
X134119570Y-36673070D01*
X134135476Y-36658654D01*
X134152719Y-36645866D01*
X134171132Y-36634830D01*
X134190538Y-36625651D01*
X134210750Y-36618419D01*
X134231574Y-36613203D01*
X134252809Y-36610053D01*
X134274250Y-36609000D01*
X134711750Y-36609000D01*
X134733191Y-36610053D01*
X134733191Y-36610053D01*
G37*
D14*
X134493000Y-37084000D03*
G04 #@! TD*
D13*
G04 #@! TO.C,R4*
G36*
X146214191Y-36610053D02*
X146235426Y-36613203D01*
X146256250Y-36618419D01*
X146276462Y-36625651D01*
X146295868Y-36634830D01*
X146314281Y-36645866D01*
X146331524Y-36658654D01*
X146347430Y-36673070D01*
X146361846Y-36688976D01*
X146374634Y-36706219D01*
X146385670Y-36724632D01*
X146394849Y-36744038D01*
X146402081Y-36764250D01*
X146407297Y-36785074D01*
X146410447Y-36806309D01*
X146411500Y-36827750D01*
X146411500Y-37340250D01*
X146410447Y-37361691D01*
X146407297Y-37382926D01*
X146402081Y-37403750D01*
X146394849Y-37423962D01*
X146385670Y-37443368D01*
X146374634Y-37461781D01*
X146361846Y-37479024D01*
X146347430Y-37494930D01*
X146331524Y-37509346D01*
X146314281Y-37522134D01*
X146295868Y-37533170D01*
X146276462Y-37542349D01*
X146256250Y-37549581D01*
X146235426Y-37554797D01*
X146214191Y-37557947D01*
X146192750Y-37559000D01*
X145755250Y-37559000D01*
X145733809Y-37557947D01*
X145712574Y-37554797D01*
X145691750Y-37549581D01*
X145671538Y-37542349D01*
X145652132Y-37533170D01*
X145633719Y-37522134D01*
X145616476Y-37509346D01*
X145600570Y-37494930D01*
X145586154Y-37479024D01*
X145573366Y-37461781D01*
X145562330Y-37443368D01*
X145553151Y-37423962D01*
X145545919Y-37403750D01*
X145540703Y-37382926D01*
X145537553Y-37361691D01*
X145536500Y-37340250D01*
X145536500Y-36827750D01*
X145537553Y-36806309D01*
X145540703Y-36785074D01*
X145545919Y-36764250D01*
X145553151Y-36744038D01*
X145562330Y-36724632D01*
X145573366Y-36706219D01*
X145586154Y-36688976D01*
X145600570Y-36673070D01*
X145616476Y-36658654D01*
X145633719Y-36645866D01*
X145652132Y-36634830D01*
X145671538Y-36625651D01*
X145691750Y-36618419D01*
X145712574Y-36613203D01*
X145733809Y-36610053D01*
X145755250Y-36609000D01*
X146192750Y-36609000D01*
X146214191Y-36610053D01*
X146214191Y-36610053D01*
G37*
D14*
X145974000Y-37084000D03*
D13*
G36*
X144639191Y-36610053D02*
X144660426Y-36613203D01*
X144681250Y-36618419D01*
X144701462Y-36625651D01*
X144720868Y-36634830D01*
X144739281Y-36645866D01*
X144756524Y-36658654D01*
X144772430Y-36673070D01*
X144786846Y-36688976D01*
X144799634Y-36706219D01*
X144810670Y-36724632D01*
X144819849Y-36744038D01*
X144827081Y-36764250D01*
X144832297Y-36785074D01*
X144835447Y-36806309D01*
X144836500Y-36827750D01*
X144836500Y-37340250D01*
X144835447Y-37361691D01*
X144832297Y-37382926D01*
X144827081Y-37403750D01*
X144819849Y-37423962D01*
X144810670Y-37443368D01*
X144799634Y-37461781D01*
X144786846Y-37479024D01*
X144772430Y-37494930D01*
X144756524Y-37509346D01*
X144739281Y-37522134D01*
X144720868Y-37533170D01*
X144701462Y-37542349D01*
X144681250Y-37549581D01*
X144660426Y-37554797D01*
X144639191Y-37557947D01*
X144617750Y-37559000D01*
X144180250Y-37559000D01*
X144158809Y-37557947D01*
X144137574Y-37554797D01*
X144116750Y-37549581D01*
X144096538Y-37542349D01*
X144077132Y-37533170D01*
X144058719Y-37522134D01*
X144041476Y-37509346D01*
X144025570Y-37494930D01*
X144011154Y-37479024D01*
X143998366Y-37461781D01*
X143987330Y-37443368D01*
X143978151Y-37423962D01*
X143970919Y-37403750D01*
X143965703Y-37382926D01*
X143962553Y-37361691D01*
X143961500Y-37340250D01*
X143961500Y-36827750D01*
X143962553Y-36806309D01*
X143965703Y-36785074D01*
X143970919Y-36764250D01*
X143978151Y-36744038D01*
X143987330Y-36724632D01*
X143998366Y-36706219D01*
X144011154Y-36688976D01*
X144025570Y-36673070D01*
X144041476Y-36658654D01*
X144058719Y-36645866D01*
X144077132Y-36634830D01*
X144096538Y-36625651D01*
X144116750Y-36618419D01*
X144137574Y-36613203D01*
X144158809Y-36610053D01*
X144180250Y-36609000D01*
X144617750Y-36609000D01*
X144639191Y-36610053D01*
X144639191Y-36610053D01*
G37*
D14*
X144399000Y-37084000D03*
G04 #@! TD*
D13*
G04 #@! TO.C,R5*
G36*
X144676691Y-31770553D02*
X144697926Y-31773703D01*
X144718750Y-31778919D01*
X144738962Y-31786151D01*
X144758368Y-31795330D01*
X144776781Y-31806366D01*
X144794024Y-31819154D01*
X144809930Y-31833570D01*
X144824346Y-31849476D01*
X144837134Y-31866719D01*
X144848170Y-31885132D01*
X144857349Y-31904538D01*
X144864581Y-31924750D01*
X144869797Y-31945574D01*
X144872947Y-31966809D01*
X144874000Y-31988250D01*
X144874000Y-32425750D01*
X144872947Y-32447191D01*
X144869797Y-32468426D01*
X144864581Y-32489250D01*
X144857349Y-32509462D01*
X144848170Y-32528868D01*
X144837134Y-32547281D01*
X144824346Y-32564524D01*
X144809930Y-32580430D01*
X144794024Y-32594846D01*
X144776781Y-32607634D01*
X144758368Y-32618670D01*
X144738962Y-32627849D01*
X144718750Y-32635081D01*
X144697926Y-32640297D01*
X144676691Y-32643447D01*
X144655250Y-32644500D01*
X144142750Y-32644500D01*
X144121309Y-32643447D01*
X144100074Y-32640297D01*
X144079250Y-32635081D01*
X144059038Y-32627849D01*
X144039632Y-32618670D01*
X144021219Y-32607634D01*
X144003976Y-32594846D01*
X143988070Y-32580430D01*
X143973654Y-32564524D01*
X143960866Y-32547281D01*
X143949830Y-32528868D01*
X143940651Y-32509462D01*
X143933419Y-32489250D01*
X143928203Y-32468426D01*
X143925053Y-32447191D01*
X143924000Y-32425750D01*
X143924000Y-31988250D01*
X143925053Y-31966809D01*
X143928203Y-31945574D01*
X143933419Y-31924750D01*
X143940651Y-31904538D01*
X143949830Y-31885132D01*
X143960866Y-31866719D01*
X143973654Y-31849476D01*
X143988070Y-31833570D01*
X144003976Y-31819154D01*
X144021219Y-31806366D01*
X144039632Y-31795330D01*
X144059038Y-31786151D01*
X144079250Y-31778919D01*
X144100074Y-31773703D01*
X144121309Y-31770553D01*
X144142750Y-31769500D01*
X144655250Y-31769500D01*
X144676691Y-31770553D01*
X144676691Y-31770553D01*
G37*
D14*
X144399000Y-32207000D03*
D13*
G36*
X144676691Y-33345553D02*
X144697926Y-33348703D01*
X144718750Y-33353919D01*
X144738962Y-33361151D01*
X144758368Y-33370330D01*
X144776781Y-33381366D01*
X144794024Y-33394154D01*
X144809930Y-33408570D01*
X144824346Y-33424476D01*
X144837134Y-33441719D01*
X144848170Y-33460132D01*
X144857349Y-33479538D01*
X144864581Y-33499750D01*
X144869797Y-33520574D01*
X144872947Y-33541809D01*
X144874000Y-33563250D01*
X144874000Y-34000750D01*
X144872947Y-34022191D01*
X144869797Y-34043426D01*
X144864581Y-34064250D01*
X144857349Y-34084462D01*
X144848170Y-34103868D01*
X144837134Y-34122281D01*
X144824346Y-34139524D01*
X144809930Y-34155430D01*
X144794024Y-34169846D01*
X144776781Y-34182634D01*
X144758368Y-34193670D01*
X144738962Y-34202849D01*
X144718750Y-34210081D01*
X144697926Y-34215297D01*
X144676691Y-34218447D01*
X144655250Y-34219500D01*
X144142750Y-34219500D01*
X144121309Y-34218447D01*
X144100074Y-34215297D01*
X144079250Y-34210081D01*
X144059038Y-34202849D01*
X144039632Y-34193670D01*
X144021219Y-34182634D01*
X144003976Y-34169846D01*
X143988070Y-34155430D01*
X143973654Y-34139524D01*
X143960866Y-34122281D01*
X143949830Y-34103868D01*
X143940651Y-34084462D01*
X143933419Y-34064250D01*
X143928203Y-34043426D01*
X143925053Y-34022191D01*
X143924000Y-34000750D01*
X143924000Y-33563250D01*
X143925053Y-33541809D01*
X143928203Y-33520574D01*
X143933419Y-33499750D01*
X143940651Y-33479538D01*
X143949830Y-33460132D01*
X143960866Y-33441719D01*
X143973654Y-33424476D01*
X143988070Y-33408570D01*
X144003976Y-33394154D01*
X144021219Y-33381366D01*
X144039632Y-33370330D01*
X144059038Y-33361151D01*
X144079250Y-33353919D01*
X144100074Y-33348703D01*
X144121309Y-33345553D01*
X144142750Y-33344500D01*
X144655250Y-33344500D01*
X144676691Y-33345553D01*
X144676691Y-33345553D01*
G37*
D14*
X144399000Y-33782000D03*
G04 #@! TD*
D13*
G04 #@! TO.C,R6*
G36*
X144676691Y-28265553D02*
X144697926Y-28268703D01*
X144718750Y-28273919D01*
X144738962Y-28281151D01*
X144758368Y-28290330D01*
X144776781Y-28301366D01*
X144794024Y-28314154D01*
X144809930Y-28328570D01*
X144824346Y-28344476D01*
X144837134Y-28361719D01*
X144848170Y-28380132D01*
X144857349Y-28399538D01*
X144864581Y-28419750D01*
X144869797Y-28440574D01*
X144872947Y-28461809D01*
X144874000Y-28483250D01*
X144874000Y-28920750D01*
X144872947Y-28942191D01*
X144869797Y-28963426D01*
X144864581Y-28984250D01*
X144857349Y-29004462D01*
X144848170Y-29023868D01*
X144837134Y-29042281D01*
X144824346Y-29059524D01*
X144809930Y-29075430D01*
X144794024Y-29089846D01*
X144776781Y-29102634D01*
X144758368Y-29113670D01*
X144738962Y-29122849D01*
X144718750Y-29130081D01*
X144697926Y-29135297D01*
X144676691Y-29138447D01*
X144655250Y-29139500D01*
X144142750Y-29139500D01*
X144121309Y-29138447D01*
X144100074Y-29135297D01*
X144079250Y-29130081D01*
X144059038Y-29122849D01*
X144039632Y-29113670D01*
X144021219Y-29102634D01*
X144003976Y-29089846D01*
X143988070Y-29075430D01*
X143973654Y-29059524D01*
X143960866Y-29042281D01*
X143949830Y-29023868D01*
X143940651Y-29004462D01*
X143933419Y-28984250D01*
X143928203Y-28963426D01*
X143925053Y-28942191D01*
X143924000Y-28920750D01*
X143924000Y-28483250D01*
X143925053Y-28461809D01*
X143928203Y-28440574D01*
X143933419Y-28419750D01*
X143940651Y-28399538D01*
X143949830Y-28380132D01*
X143960866Y-28361719D01*
X143973654Y-28344476D01*
X143988070Y-28328570D01*
X144003976Y-28314154D01*
X144021219Y-28301366D01*
X144039632Y-28290330D01*
X144059038Y-28281151D01*
X144079250Y-28273919D01*
X144100074Y-28268703D01*
X144121309Y-28265553D01*
X144142750Y-28264500D01*
X144655250Y-28264500D01*
X144676691Y-28265553D01*
X144676691Y-28265553D01*
G37*
D14*
X144399000Y-28702000D03*
D13*
G36*
X144676691Y-29840553D02*
X144697926Y-29843703D01*
X144718750Y-29848919D01*
X144738962Y-29856151D01*
X144758368Y-29865330D01*
X144776781Y-29876366D01*
X144794024Y-29889154D01*
X144809930Y-29903570D01*
X144824346Y-29919476D01*
X144837134Y-29936719D01*
X144848170Y-29955132D01*
X144857349Y-29974538D01*
X144864581Y-29994750D01*
X144869797Y-30015574D01*
X144872947Y-30036809D01*
X144874000Y-30058250D01*
X144874000Y-30495750D01*
X144872947Y-30517191D01*
X144869797Y-30538426D01*
X144864581Y-30559250D01*
X144857349Y-30579462D01*
X144848170Y-30598868D01*
X144837134Y-30617281D01*
X144824346Y-30634524D01*
X144809930Y-30650430D01*
X144794024Y-30664846D01*
X144776781Y-30677634D01*
X144758368Y-30688670D01*
X144738962Y-30697849D01*
X144718750Y-30705081D01*
X144697926Y-30710297D01*
X144676691Y-30713447D01*
X144655250Y-30714500D01*
X144142750Y-30714500D01*
X144121309Y-30713447D01*
X144100074Y-30710297D01*
X144079250Y-30705081D01*
X144059038Y-30697849D01*
X144039632Y-30688670D01*
X144021219Y-30677634D01*
X144003976Y-30664846D01*
X143988070Y-30650430D01*
X143973654Y-30634524D01*
X143960866Y-30617281D01*
X143949830Y-30598868D01*
X143940651Y-30579462D01*
X143933419Y-30559250D01*
X143928203Y-30538426D01*
X143925053Y-30517191D01*
X143924000Y-30495750D01*
X143924000Y-30058250D01*
X143925053Y-30036809D01*
X143928203Y-30015574D01*
X143933419Y-29994750D01*
X143940651Y-29974538D01*
X143949830Y-29955132D01*
X143960866Y-29936719D01*
X143973654Y-29919476D01*
X143988070Y-29903570D01*
X144003976Y-29889154D01*
X144021219Y-29876366D01*
X144039632Y-29865330D01*
X144059038Y-29856151D01*
X144079250Y-29848919D01*
X144100074Y-29843703D01*
X144121309Y-29840553D01*
X144142750Y-29839500D01*
X144655250Y-29839500D01*
X144676691Y-29840553D01*
X144676691Y-29840553D01*
G37*
D14*
X144399000Y-30277000D03*
G04 #@! TD*
D13*
G04 #@! TO.C,R7*
G36*
X132955191Y-36610053D02*
X132976426Y-36613203D01*
X132997250Y-36618419D01*
X133017462Y-36625651D01*
X133036868Y-36634830D01*
X133055281Y-36645866D01*
X133072524Y-36658654D01*
X133088430Y-36673070D01*
X133102846Y-36688976D01*
X133115634Y-36706219D01*
X133126670Y-36724632D01*
X133135849Y-36744038D01*
X133143081Y-36764250D01*
X133148297Y-36785074D01*
X133151447Y-36806309D01*
X133152500Y-36827750D01*
X133152500Y-37340250D01*
X133151447Y-37361691D01*
X133148297Y-37382926D01*
X133143081Y-37403750D01*
X133135849Y-37423962D01*
X133126670Y-37443368D01*
X133115634Y-37461781D01*
X133102846Y-37479024D01*
X133088430Y-37494930D01*
X133072524Y-37509346D01*
X133055281Y-37522134D01*
X133036868Y-37533170D01*
X133017462Y-37542349D01*
X132997250Y-37549581D01*
X132976426Y-37554797D01*
X132955191Y-37557947D01*
X132933750Y-37559000D01*
X132496250Y-37559000D01*
X132474809Y-37557947D01*
X132453574Y-37554797D01*
X132432750Y-37549581D01*
X132412538Y-37542349D01*
X132393132Y-37533170D01*
X132374719Y-37522134D01*
X132357476Y-37509346D01*
X132341570Y-37494930D01*
X132327154Y-37479024D01*
X132314366Y-37461781D01*
X132303330Y-37443368D01*
X132294151Y-37423962D01*
X132286919Y-37403750D01*
X132281703Y-37382926D01*
X132278553Y-37361691D01*
X132277500Y-37340250D01*
X132277500Y-36827750D01*
X132278553Y-36806309D01*
X132281703Y-36785074D01*
X132286919Y-36764250D01*
X132294151Y-36744038D01*
X132303330Y-36724632D01*
X132314366Y-36706219D01*
X132327154Y-36688976D01*
X132341570Y-36673070D01*
X132357476Y-36658654D01*
X132374719Y-36645866D01*
X132393132Y-36634830D01*
X132412538Y-36625651D01*
X132432750Y-36618419D01*
X132453574Y-36613203D01*
X132474809Y-36610053D01*
X132496250Y-36609000D01*
X132933750Y-36609000D01*
X132955191Y-36610053D01*
X132955191Y-36610053D01*
G37*
D14*
X132715000Y-37084000D03*
D13*
G36*
X131380191Y-36610053D02*
X131401426Y-36613203D01*
X131422250Y-36618419D01*
X131442462Y-36625651D01*
X131461868Y-36634830D01*
X131480281Y-36645866D01*
X131497524Y-36658654D01*
X131513430Y-36673070D01*
X131527846Y-36688976D01*
X131540634Y-36706219D01*
X131551670Y-36724632D01*
X131560849Y-36744038D01*
X131568081Y-36764250D01*
X131573297Y-36785074D01*
X131576447Y-36806309D01*
X131577500Y-36827750D01*
X131577500Y-37340250D01*
X131576447Y-37361691D01*
X131573297Y-37382926D01*
X131568081Y-37403750D01*
X131560849Y-37423962D01*
X131551670Y-37443368D01*
X131540634Y-37461781D01*
X131527846Y-37479024D01*
X131513430Y-37494930D01*
X131497524Y-37509346D01*
X131480281Y-37522134D01*
X131461868Y-37533170D01*
X131442462Y-37542349D01*
X131422250Y-37549581D01*
X131401426Y-37554797D01*
X131380191Y-37557947D01*
X131358750Y-37559000D01*
X130921250Y-37559000D01*
X130899809Y-37557947D01*
X130878574Y-37554797D01*
X130857750Y-37549581D01*
X130837538Y-37542349D01*
X130818132Y-37533170D01*
X130799719Y-37522134D01*
X130782476Y-37509346D01*
X130766570Y-37494930D01*
X130752154Y-37479024D01*
X130739366Y-37461781D01*
X130728330Y-37443368D01*
X130719151Y-37423962D01*
X130711919Y-37403750D01*
X130706703Y-37382926D01*
X130703553Y-37361691D01*
X130702500Y-37340250D01*
X130702500Y-36827750D01*
X130703553Y-36806309D01*
X130706703Y-36785074D01*
X130711919Y-36764250D01*
X130719151Y-36744038D01*
X130728330Y-36724632D01*
X130739366Y-36706219D01*
X130752154Y-36688976D01*
X130766570Y-36673070D01*
X130782476Y-36658654D01*
X130799719Y-36645866D01*
X130818132Y-36634830D01*
X130837538Y-36625651D01*
X130857750Y-36618419D01*
X130878574Y-36613203D01*
X130899809Y-36610053D01*
X130921250Y-36609000D01*
X131358750Y-36609000D01*
X131380191Y-36610053D01*
X131380191Y-36610053D01*
G37*
D14*
X131140000Y-37084000D03*
G04 #@! TD*
D13*
G04 #@! TO.C,R8*
G36*
X141337191Y-36610053D02*
X141358426Y-36613203D01*
X141379250Y-36618419D01*
X141399462Y-36625651D01*
X141418868Y-36634830D01*
X141437281Y-36645866D01*
X141454524Y-36658654D01*
X141470430Y-36673070D01*
X141484846Y-36688976D01*
X141497634Y-36706219D01*
X141508670Y-36724632D01*
X141517849Y-36744038D01*
X141525081Y-36764250D01*
X141530297Y-36785074D01*
X141533447Y-36806309D01*
X141534500Y-36827750D01*
X141534500Y-37340250D01*
X141533447Y-37361691D01*
X141530297Y-37382926D01*
X141525081Y-37403750D01*
X141517849Y-37423962D01*
X141508670Y-37443368D01*
X141497634Y-37461781D01*
X141484846Y-37479024D01*
X141470430Y-37494930D01*
X141454524Y-37509346D01*
X141437281Y-37522134D01*
X141418868Y-37533170D01*
X141399462Y-37542349D01*
X141379250Y-37549581D01*
X141358426Y-37554797D01*
X141337191Y-37557947D01*
X141315750Y-37559000D01*
X140878250Y-37559000D01*
X140856809Y-37557947D01*
X140835574Y-37554797D01*
X140814750Y-37549581D01*
X140794538Y-37542349D01*
X140775132Y-37533170D01*
X140756719Y-37522134D01*
X140739476Y-37509346D01*
X140723570Y-37494930D01*
X140709154Y-37479024D01*
X140696366Y-37461781D01*
X140685330Y-37443368D01*
X140676151Y-37423962D01*
X140668919Y-37403750D01*
X140663703Y-37382926D01*
X140660553Y-37361691D01*
X140659500Y-37340250D01*
X140659500Y-36827750D01*
X140660553Y-36806309D01*
X140663703Y-36785074D01*
X140668919Y-36764250D01*
X140676151Y-36744038D01*
X140685330Y-36724632D01*
X140696366Y-36706219D01*
X140709154Y-36688976D01*
X140723570Y-36673070D01*
X140739476Y-36658654D01*
X140756719Y-36645866D01*
X140775132Y-36634830D01*
X140794538Y-36625651D01*
X140814750Y-36618419D01*
X140835574Y-36613203D01*
X140856809Y-36610053D01*
X140878250Y-36609000D01*
X141315750Y-36609000D01*
X141337191Y-36610053D01*
X141337191Y-36610053D01*
G37*
D14*
X141097000Y-37084000D03*
D13*
G36*
X142912191Y-36610053D02*
X142933426Y-36613203D01*
X142954250Y-36618419D01*
X142974462Y-36625651D01*
X142993868Y-36634830D01*
X143012281Y-36645866D01*
X143029524Y-36658654D01*
X143045430Y-36673070D01*
X143059846Y-36688976D01*
X143072634Y-36706219D01*
X143083670Y-36724632D01*
X143092849Y-36744038D01*
X143100081Y-36764250D01*
X143105297Y-36785074D01*
X143108447Y-36806309D01*
X143109500Y-36827750D01*
X143109500Y-37340250D01*
X143108447Y-37361691D01*
X143105297Y-37382926D01*
X143100081Y-37403750D01*
X143092849Y-37423962D01*
X143083670Y-37443368D01*
X143072634Y-37461781D01*
X143059846Y-37479024D01*
X143045430Y-37494930D01*
X143029524Y-37509346D01*
X143012281Y-37522134D01*
X142993868Y-37533170D01*
X142974462Y-37542349D01*
X142954250Y-37549581D01*
X142933426Y-37554797D01*
X142912191Y-37557947D01*
X142890750Y-37559000D01*
X142453250Y-37559000D01*
X142431809Y-37557947D01*
X142410574Y-37554797D01*
X142389750Y-37549581D01*
X142369538Y-37542349D01*
X142350132Y-37533170D01*
X142331719Y-37522134D01*
X142314476Y-37509346D01*
X142298570Y-37494930D01*
X142284154Y-37479024D01*
X142271366Y-37461781D01*
X142260330Y-37443368D01*
X142251151Y-37423962D01*
X142243919Y-37403750D01*
X142238703Y-37382926D01*
X142235553Y-37361691D01*
X142234500Y-37340250D01*
X142234500Y-36827750D01*
X142235553Y-36806309D01*
X142238703Y-36785074D01*
X142243919Y-36764250D01*
X142251151Y-36744038D01*
X142260330Y-36724632D01*
X142271366Y-36706219D01*
X142284154Y-36688976D01*
X142298570Y-36673070D01*
X142314476Y-36658654D01*
X142331719Y-36645866D01*
X142350132Y-36634830D01*
X142369538Y-36625651D01*
X142389750Y-36618419D01*
X142410574Y-36613203D01*
X142431809Y-36610053D01*
X142453250Y-36609000D01*
X142890750Y-36609000D01*
X142912191Y-36610053D01*
X142912191Y-36610053D01*
G37*
D14*
X142672000Y-37084000D03*
G04 #@! TD*
D13*
G04 #@! TO.C,R9*
G36*
X147216691Y-31770553D02*
X147237926Y-31773703D01*
X147258750Y-31778919D01*
X147278962Y-31786151D01*
X147298368Y-31795330D01*
X147316781Y-31806366D01*
X147334024Y-31819154D01*
X147349930Y-31833570D01*
X147364346Y-31849476D01*
X147377134Y-31866719D01*
X147388170Y-31885132D01*
X147397349Y-31904538D01*
X147404581Y-31924750D01*
X147409797Y-31945574D01*
X147412947Y-31966809D01*
X147414000Y-31988250D01*
X147414000Y-32425750D01*
X147412947Y-32447191D01*
X147409797Y-32468426D01*
X147404581Y-32489250D01*
X147397349Y-32509462D01*
X147388170Y-32528868D01*
X147377134Y-32547281D01*
X147364346Y-32564524D01*
X147349930Y-32580430D01*
X147334024Y-32594846D01*
X147316781Y-32607634D01*
X147298368Y-32618670D01*
X147278962Y-32627849D01*
X147258750Y-32635081D01*
X147237926Y-32640297D01*
X147216691Y-32643447D01*
X147195250Y-32644500D01*
X146682750Y-32644500D01*
X146661309Y-32643447D01*
X146640074Y-32640297D01*
X146619250Y-32635081D01*
X146599038Y-32627849D01*
X146579632Y-32618670D01*
X146561219Y-32607634D01*
X146543976Y-32594846D01*
X146528070Y-32580430D01*
X146513654Y-32564524D01*
X146500866Y-32547281D01*
X146489830Y-32528868D01*
X146480651Y-32509462D01*
X146473419Y-32489250D01*
X146468203Y-32468426D01*
X146465053Y-32447191D01*
X146464000Y-32425750D01*
X146464000Y-31988250D01*
X146465053Y-31966809D01*
X146468203Y-31945574D01*
X146473419Y-31924750D01*
X146480651Y-31904538D01*
X146489830Y-31885132D01*
X146500866Y-31866719D01*
X146513654Y-31849476D01*
X146528070Y-31833570D01*
X146543976Y-31819154D01*
X146561219Y-31806366D01*
X146579632Y-31795330D01*
X146599038Y-31786151D01*
X146619250Y-31778919D01*
X146640074Y-31773703D01*
X146661309Y-31770553D01*
X146682750Y-31769500D01*
X147195250Y-31769500D01*
X147216691Y-31770553D01*
X147216691Y-31770553D01*
G37*
D14*
X146939000Y-32207000D03*
D13*
G36*
X147216691Y-33345553D02*
X147237926Y-33348703D01*
X147258750Y-33353919D01*
X147278962Y-33361151D01*
X147298368Y-33370330D01*
X147316781Y-33381366D01*
X147334024Y-33394154D01*
X147349930Y-33408570D01*
X147364346Y-33424476D01*
X147377134Y-33441719D01*
X147388170Y-33460132D01*
X147397349Y-33479538D01*
X147404581Y-33499750D01*
X147409797Y-33520574D01*
X147412947Y-33541809D01*
X147414000Y-33563250D01*
X147414000Y-34000750D01*
X147412947Y-34022191D01*
X147409797Y-34043426D01*
X147404581Y-34064250D01*
X147397349Y-34084462D01*
X147388170Y-34103868D01*
X147377134Y-34122281D01*
X147364346Y-34139524D01*
X147349930Y-34155430D01*
X147334024Y-34169846D01*
X147316781Y-34182634D01*
X147298368Y-34193670D01*
X147278962Y-34202849D01*
X147258750Y-34210081D01*
X147237926Y-34215297D01*
X147216691Y-34218447D01*
X147195250Y-34219500D01*
X146682750Y-34219500D01*
X146661309Y-34218447D01*
X146640074Y-34215297D01*
X146619250Y-34210081D01*
X146599038Y-34202849D01*
X146579632Y-34193670D01*
X146561219Y-34182634D01*
X146543976Y-34169846D01*
X146528070Y-34155430D01*
X146513654Y-34139524D01*
X146500866Y-34122281D01*
X146489830Y-34103868D01*
X146480651Y-34084462D01*
X146473419Y-34064250D01*
X146468203Y-34043426D01*
X146465053Y-34022191D01*
X146464000Y-34000750D01*
X146464000Y-33563250D01*
X146465053Y-33541809D01*
X146468203Y-33520574D01*
X146473419Y-33499750D01*
X146480651Y-33479538D01*
X146489830Y-33460132D01*
X146500866Y-33441719D01*
X146513654Y-33424476D01*
X146528070Y-33408570D01*
X146543976Y-33394154D01*
X146561219Y-33381366D01*
X146579632Y-33370330D01*
X146599038Y-33361151D01*
X146619250Y-33353919D01*
X146640074Y-33348703D01*
X146661309Y-33345553D01*
X146682750Y-33344500D01*
X147195250Y-33344500D01*
X147216691Y-33345553D01*
X147216691Y-33345553D01*
G37*
D14*
X146939000Y-33782000D03*
G04 #@! TD*
D13*
G04 #@! TO.C,R10*
G36*
X147216691Y-28265553D02*
X147237926Y-28268703D01*
X147258750Y-28273919D01*
X147278962Y-28281151D01*
X147298368Y-28290330D01*
X147316781Y-28301366D01*
X147334024Y-28314154D01*
X147349930Y-28328570D01*
X147364346Y-28344476D01*
X147377134Y-28361719D01*
X147388170Y-28380132D01*
X147397349Y-28399538D01*
X147404581Y-28419750D01*
X147409797Y-28440574D01*
X147412947Y-28461809D01*
X147414000Y-28483250D01*
X147414000Y-28920750D01*
X147412947Y-28942191D01*
X147409797Y-28963426D01*
X147404581Y-28984250D01*
X147397349Y-29004462D01*
X147388170Y-29023868D01*
X147377134Y-29042281D01*
X147364346Y-29059524D01*
X147349930Y-29075430D01*
X147334024Y-29089846D01*
X147316781Y-29102634D01*
X147298368Y-29113670D01*
X147278962Y-29122849D01*
X147258750Y-29130081D01*
X147237926Y-29135297D01*
X147216691Y-29138447D01*
X147195250Y-29139500D01*
X146682750Y-29139500D01*
X146661309Y-29138447D01*
X146640074Y-29135297D01*
X146619250Y-29130081D01*
X146599038Y-29122849D01*
X146579632Y-29113670D01*
X146561219Y-29102634D01*
X146543976Y-29089846D01*
X146528070Y-29075430D01*
X146513654Y-29059524D01*
X146500866Y-29042281D01*
X146489830Y-29023868D01*
X146480651Y-29004462D01*
X146473419Y-28984250D01*
X146468203Y-28963426D01*
X146465053Y-28942191D01*
X146464000Y-28920750D01*
X146464000Y-28483250D01*
X146465053Y-28461809D01*
X146468203Y-28440574D01*
X146473419Y-28419750D01*
X146480651Y-28399538D01*
X146489830Y-28380132D01*
X146500866Y-28361719D01*
X146513654Y-28344476D01*
X146528070Y-28328570D01*
X146543976Y-28314154D01*
X146561219Y-28301366D01*
X146579632Y-28290330D01*
X146599038Y-28281151D01*
X146619250Y-28273919D01*
X146640074Y-28268703D01*
X146661309Y-28265553D01*
X146682750Y-28264500D01*
X147195250Y-28264500D01*
X147216691Y-28265553D01*
X147216691Y-28265553D01*
G37*
D14*
X146939000Y-28702000D03*
D13*
G36*
X147216691Y-29840553D02*
X147237926Y-29843703D01*
X147258750Y-29848919D01*
X147278962Y-29856151D01*
X147298368Y-29865330D01*
X147316781Y-29876366D01*
X147334024Y-29889154D01*
X147349930Y-29903570D01*
X147364346Y-29919476D01*
X147377134Y-29936719D01*
X147388170Y-29955132D01*
X147397349Y-29974538D01*
X147404581Y-29994750D01*
X147409797Y-30015574D01*
X147412947Y-30036809D01*
X147414000Y-30058250D01*
X147414000Y-30495750D01*
X147412947Y-30517191D01*
X147409797Y-30538426D01*
X147404581Y-30559250D01*
X147397349Y-30579462D01*
X147388170Y-30598868D01*
X147377134Y-30617281D01*
X147364346Y-30634524D01*
X147349930Y-30650430D01*
X147334024Y-30664846D01*
X147316781Y-30677634D01*
X147298368Y-30688670D01*
X147278962Y-30697849D01*
X147258750Y-30705081D01*
X147237926Y-30710297D01*
X147216691Y-30713447D01*
X147195250Y-30714500D01*
X146682750Y-30714500D01*
X146661309Y-30713447D01*
X146640074Y-30710297D01*
X146619250Y-30705081D01*
X146599038Y-30697849D01*
X146579632Y-30688670D01*
X146561219Y-30677634D01*
X146543976Y-30664846D01*
X146528070Y-30650430D01*
X146513654Y-30634524D01*
X146500866Y-30617281D01*
X146489830Y-30598868D01*
X146480651Y-30579462D01*
X146473419Y-30559250D01*
X146468203Y-30538426D01*
X146465053Y-30517191D01*
X146464000Y-30495750D01*
X146464000Y-30058250D01*
X146465053Y-30036809D01*
X146468203Y-30015574D01*
X146473419Y-29994750D01*
X146480651Y-29974538D01*
X146489830Y-29955132D01*
X146500866Y-29936719D01*
X146513654Y-29919476D01*
X146528070Y-29903570D01*
X146543976Y-29889154D01*
X146561219Y-29876366D01*
X146579632Y-29865330D01*
X146599038Y-29856151D01*
X146619250Y-29848919D01*
X146640074Y-29843703D01*
X146661309Y-29840553D01*
X146682750Y-29839500D01*
X147195250Y-29839500D01*
X147216691Y-29840553D01*
X147216691Y-29840553D01*
G37*
D14*
X146939000Y-30277000D03*
G04 #@! TD*
D13*
G04 #@! TO.C,R11*
G36*
X129182691Y-28773553D02*
X129203926Y-28776703D01*
X129224750Y-28781919D01*
X129244962Y-28789151D01*
X129264368Y-28798330D01*
X129282781Y-28809366D01*
X129300024Y-28822154D01*
X129315930Y-28836570D01*
X129330346Y-28852476D01*
X129343134Y-28869719D01*
X129354170Y-28888132D01*
X129363349Y-28907538D01*
X129370581Y-28927750D01*
X129375797Y-28948574D01*
X129378947Y-28969809D01*
X129380000Y-28991250D01*
X129380000Y-29428750D01*
X129378947Y-29450191D01*
X129375797Y-29471426D01*
X129370581Y-29492250D01*
X129363349Y-29512462D01*
X129354170Y-29531868D01*
X129343134Y-29550281D01*
X129330346Y-29567524D01*
X129315930Y-29583430D01*
X129300024Y-29597846D01*
X129282781Y-29610634D01*
X129264368Y-29621670D01*
X129244962Y-29630849D01*
X129224750Y-29638081D01*
X129203926Y-29643297D01*
X129182691Y-29646447D01*
X129161250Y-29647500D01*
X128648750Y-29647500D01*
X128627309Y-29646447D01*
X128606074Y-29643297D01*
X128585250Y-29638081D01*
X128565038Y-29630849D01*
X128545632Y-29621670D01*
X128527219Y-29610634D01*
X128509976Y-29597846D01*
X128494070Y-29583430D01*
X128479654Y-29567524D01*
X128466866Y-29550281D01*
X128455830Y-29531868D01*
X128446651Y-29512462D01*
X128439419Y-29492250D01*
X128434203Y-29471426D01*
X128431053Y-29450191D01*
X128430000Y-29428750D01*
X128430000Y-28991250D01*
X128431053Y-28969809D01*
X128434203Y-28948574D01*
X128439419Y-28927750D01*
X128446651Y-28907538D01*
X128455830Y-28888132D01*
X128466866Y-28869719D01*
X128479654Y-28852476D01*
X128494070Y-28836570D01*
X128509976Y-28822154D01*
X128527219Y-28809366D01*
X128545632Y-28798330D01*
X128565038Y-28789151D01*
X128585250Y-28781919D01*
X128606074Y-28776703D01*
X128627309Y-28773553D01*
X128648750Y-28772500D01*
X129161250Y-28772500D01*
X129182691Y-28773553D01*
X129182691Y-28773553D01*
G37*
D14*
X128905000Y-29210000D03*
D13*
G36*
X129182691Y-30348553D02*
X129203926Y-30351703D01*
X129224750Y-30356919D01*
X129244962Y-30364151D01*
X129264368Y-30373330D01*
X129282781Y-30384366D01*
X129300024Y-30397154D01*
X129315930Y-30411570D01*
X129330346Y-30427476D01*
X129343134Y-30444719D01*
X129354170Y-30463132D01*
X129363349Y-30482538D01*
X129370581Y-30502750D01*
X129375797Y-30523574D01*
X129378947Y-30544809D01*
X129380000Y-30566250D01*
X129380000Y-31003750D01*
X129378947Y-31025191D01*
X129375797Y-31046426D01*
X129370581Y-31067250D01*
X129363349Y-31087462D01*
X129354170Y-31106868D01*
X129343134Y-31125281D01*
X129330346Y-31142524D01*
X129315930Y-31158430D01*
X129300024Y-31172846D01*
X129282781Y-31185634D01*
X129264368Y-31196670D01*
X129244962Y-31205849D01*
X129224750Y-31213081D01*
X129203926Y-31218297D01*
X129182691Y-31221447D01*
X129161250Y-31222500D01*
X128648750Y-31222500D01*
X128627309Y-31221447D01*
X128606074Y-31218297D01*
X128585250Y-31213081D01*
X128565038Y-31205849D01*
X128545632Y-31196670D01*
X128527219Y-31185634D01*
X128509976Y-31172846D01*
X128494070Y-31158430D01*
X128479654Y-31142524D01*
X128466866Y-31125281D01*
X128455830Y-31106868D01*
X128446651Y-31087462D01*
X128439419Y-31067250D01*
X128434203Y-31046426D01*
X128431053Y-31025191D01*
X128430000Y-31003750D01*
X128430000Y-30566250D01*
X128431053Y-30544809D01*
X128434203Y-30523574D01*
X128439419Y-30502750D01*
X128446651Y-30482538D01*
X128455830Y-30463132D01*
X128466866Y-30444719D01*
X128479654Y-30427476D01*
X128494070Y-30411570D01*
X128509976Y-30397154D01*
X128527219Y-30384366D01*
X128545632Y-30373330D01*
X128565038Y-30364151D01*
X128585250Y-30356919D01*
X128606074Y-30351703D01*
X128627309Y-30348553D01*
X128648750Y-30347500D01*
X129161250Y-30347500D01*
X129182691Y-30348553D01*
X129182691Y-30348553D01*
G37*
D14*
X128905000Y-30785000D03*
G04 #@! TD*
D13*
G04 #@! TO.C,R12*
G36*
X129182691Y-32583553D02*
X129203926Y-32586703D01*
X129224750Y-32591919D01*
X129244962Y-32599151D01*
X129264368Y-32608330D01*
X129282781Y-32619366D01*
X129300024Y-32632154D01*
X129315930Y-32646570D01*
X129330346Y-32662476D01*
X129343134Y-32679719D01*
X129354170Y-32698132D01*
X129363349Y-32717538D01*
X129370581Y-32737750D01*
X129375797Y-32758574D01*
X129378947Y-32779809D01*
X129380000Y-32801250D01*
X129380000Y-33238750D01*
X129378947Y-33260191D01*
X129375797Y-33281426D01*
X129370581Y-33302250D01*
X129363349Y-33322462D01*
X129354170Y-33341868D01*
X129343134Y-33360281D01*
X129330346Y-33377524D01*
X129315930Y-33393430D01*
X129300024Y-33407846D01*
X129282781Y-33420634D01*
X129264368Y-33431670D01*
X129244962Y-33440849D01*
X129224750Y-33448081D01*
X129203926Y-33453297D01*
X129182691Y-33456447D01*
X129161250Y-33457500D01*
X128648750Y-33457500D01*
X128627309Y-33456447D01*
X128606074Y-33453297D01*
X128585250Y-33448081D01*
X128565038Y-33440849D01*
X128545632Y-33431670D01*
X128527219Y-33420634D01*
X128509976Y-33407846D01*
X128494070Y-33393430D01*
X128479654Y-33377524D01*
X128466866Y-33360281D01*
X128455830Y-33341868D01*
X128446651Y-33322462D01*
X128439419Y-33302250D01*
X128434203Y-33281426D01*
X128431053Y-33260191D01*
X128430000Y-33238750D01*
X128430000Y-32801250D01*
X128431053Y-32779809D01*
X128434203Y-32758574D01*
X128439419Y-32737750D01*
X128446651Y-32717538D01*
X128455830Y-32698132D01*
X128466866Y-32679719D01*
X128479654Y-32662476D01*
X128494070Y-32646570D01*
X128509976Y-32632154D01*
X128527219Y-32619366D01*
X128545632Y-32608330D01*
X128565038Y-32599151D01*
X128585250Y-32591919D01*
X128606074Y-32586703D01*
X128627309Y-32583553D01*
X128648750Y-32582500D01*
X129161250Y-32582500D01*
X129182691Y-32583553D01*
X129182691Y-32583553D01*
G37*
D14*
X128905000Y-33020000D03*
D13*
G36*
X129182691Y-34158553D02*
X129203926Y-34161703D01*
X129224750Y-34166919D01*
X129244962Y-34174151D01*
X129264368Y-34183330D01*
X129282781Y-34194366D01*
X129300024Y-34207154D01*
X129315930Y-34221570D01*
X129330346Y-34237476D01*
X129343134Y-34254719D01*
X129354170Y-34273132D01*
X129363349Y-34292538D01*
X129370581Y-34312750D01*
X129375797Y-34333574D01*
X129378947Y-34354809D01*
X129380000Y-34376250D01*
X129380000Y-34813750D01*
X129378947Y-34835191D01*
X129375797Y-34856426D01*
X129370581Y-34877250D01*
X129363349Y-34897462D01*
X129354170Y-34916868D01*
X129343134Y-34935281D01*
X129330346Y-34952524D01*
X129315930Y-34968430D01*
X129300024Y-34982846D01*
X129282781Y-34995634D01*
X129264368Y-35006670D01*
X129244962Y-35015849D01*
X129224750Y-35023081D01*
X129203926Y-35028297D01*
X129182691Y-35031447D01*
X129161250Y-35032500D01*
X128648750Y-35032500D01*
X128627309Y-35031447D01*
X128606074Y-35028297D01*
X128585250Y-35023081D01*
X128565038Y-35015849D01*
X128545632Y-35006670D01*
X128527219Y-34995634D01*
X128509976Y-34982846D01*
X128494070Y-34968430D01*
X128479654Y-34952524D01*
X128466866Y-34935281D01*
X128455830Y-34916868D01*
X128446651Y-34897462D01*
X128439419Y-34877250D01*
X128434203Y-34856426D01*
X128431053Y-34835191D01*
X128430000Y-34813750D01*
X128430000Y-34376250D01*
X128431053Y-34354809D01*
X128434203Y-34333574D01*
X128439419Y-34312750D01*
X128446651Y-34292538D01*
X128455830Y-34273132D01*
X128466866Y-34254719D01*
X128479654Y-34237476D01*
X128494070Y-34221570D01*
X128509976Y-34207154D01*
X128527219Y-34194366D01*
X128545632Y-34183330D01*
X128565038Y-34174151D01*
X128585250Y-34166919D01*
X128606074Y-34161703D01*
X128627309Y-34158553D01*
X128648750Y-34157500D01*
X129161250Y-34157500D01*
X129182691Y-34158553D01*
X129182691Y-34158553D01*
G37*
D14*
X128905000Y-34595000D03*
G04 #@! TD*
D13*
G04 #@! TO.C,R13*
G36*
X131087691Y-24760553D02*
X131108926Y-24763703D01*
X131129750Y-24768919D01*
X131149962Y-24776151D01*
X131169368Y-24785330D01*
X131187781Y-24796366D01*
X131205024Y-24809154D01*
X131220930Y-24823570D01*
X131235346Y-24839476D01*
X131248134Y-24856719D01*
X131259170Y-24875132D01*
X131268349Y-24894538D01*
X131275581Y-24914750D01*
X131280797Y-24935574D01*
X131283947Y-24956809D01*
X131285000Y-24978250D01*
X131285000Y-25415750D01*
X131283947Y-25437191D01*
X131280797Y-25458426D01*
X131275581Y-25479250D01*
X131268349Y-25499462D01*
X131259170Y-25518868D01*
X131248134Y-25537281D01*
X131235346Y-25554524D01*
X131220930Y-25570430D01*
X131205024Y-25584846D01*
X131187781Y-25597634D01*
X131169368Y-25608670D01*
X131149962Y-25617849D01*
X131129750Y-25625081D01*
X131108926Y-25630297D01*
X131087691Y-25633447D01*
X131066250Y-25634500D01*
X130553750Y-25634500D01*
X130532309Y-25633447D01*
X130511074Y-25630297D01*
X130490250Y-25625081D01*
X130470038Y-25617849D01*
X130450632Y-25608670D01*
X130432219Y-25597634D01*
X130414976Y-25584846D01*
X130399070Y-25570430D01*
X130384654Y-25554524D01*
X130371866Y-25537281D01*
X130360830Y-25518868D01*
X130351651Y-25499462D01*
X130344419Y-25479250D01*
X130339203Y-25458426D01*
X130336053Y-25437191D01*
X130335000Y-25415750D01*
X130335000Y-24978250D01*
X130336053Y-24956809D01*
X130339203Y-24935574D01*
X130344419Y-24914750D01*
X130351651Y-24894538D01*
X130360830Y-24875132D01*
X130371866Y-24856719D01*
X130384654Y-24839476D01*
X130399070Y-24823570D01*
X130414976Y-24809154D01*
X130432219Y-24796366D01*
X130450632Y-24785330D01*
X130470038Y-24776151D01*
X130490250Y-24768919D01*
X130511074Y-24763703D01*
X130532309Y-24760553D01*
X130553750Y-24759500D01*
X131066250Y-24759500D01*
X131087691Y-24760553D01*
X131087691Y-24760553D01*
G37*
D14*
X130810000Y-25197000D03*
D13*
G36*
X131087691Y-23185553D02*
X131108926Y-23188703D01*
X131129750Y-23193919D01*
X131149962Y-23201151D01*
X131169368Y-23210330D01*
X131187781Y-23221366D01*
X131205024Y-23234154D01*
X131220930Y-23248570D01*
X131235346Y-23264476D01*
X131248134Y-23281719D01*
X131259170Y-23300132D01*
X131268349Y-23319538D01*
X131275581Y-23339750D01*
X131280797Y-23360574D01*
X131283947Y-23381809D01*
X131285000Y-23403250D01*
X131285000Y-23840750D01*
X131283947Y-23862191D01*
X131280797Y-23883426D01*
X131275581Y-23904250D01*
X131268349Y-23924462D01*
X131259170Y-23943868D01*
X131248134Y-23962281D01*
X131235346Y-23979524D01*
X131220930Y-23995430D01*
X131205024Y-24009846D01*
X131187781Y-24022634D01*
X131169368Y-24033670D01*
X131149962Y-24042849D01*
X131129750Y-24050081D01*
X131108926Y-24055297D01*
X131087691Y-24058447D01*
X131066250Y-24059500D01*
X130553750Y-24059500D01*
X130532309Y-24058447D01*
X130511074Y-24055297D01*
X130490250Y-24050081D01*
X130470038Y-24042849D01*
X130450632Y-24033670D01*
X130432219Y-24022634D01*
X130414976Y-24009846D01*
X130399070Y-23995430D01*
X130384654Y-23979524D01*
X130371866Y-23962281D01*
X130360830Y-23943868D01*
X130351651Y-23924462D01*
X130344419Y-23904250D01*
X130339203Y-23883426D01*
X130336053Y-23862191D01*
X130335000Y-23840750D01*
X130335000Y-23403250D01*
X130336053Y-23381809D01*
X130339203Y-23360574D01*
X130344419Y-23339750D01*
X130351651Y-23319538D01*
X130360830Y-23300132D01*
X130371866Y-23281719D01*
X130384654Y-23264476D01*
X130399070Y-23248570D01*
X130414976Y-23234154D01*
X130432219Y-23221366D01*
X130450632Y-23210330D01*
X130470038Y-23201151D01*
X130490250Y-23193919D01*
X130511074Y-23188703D01*
X130532309Y-23185553D01*
X130553750Y-23184500D01*
X131066250Y-23184500D01*
X131087691Y-23185553D01*
X131087691Y-23185553D01*
G37*
D14*
X130810000Y-23622000D03*
G04 #@! TD*
D15*
G04 #@! TO.C,U3*
X117319000Y-23872000D03*
X117319000Y-24522000D03*
X117319000Y-25172000D03*
X117319000Y-25822000D03*
X117319000Y-26472000D03*
X117319000Y-27122000D03*
X117319000Y-27772000D03*
X117319000Y-28422000D03*
X117319000Y-29072000D03*
X117319000Y-29722000D03*
X123219000Y-29722000D03*
X123219000Y-29072000D03*
X123219000Y-28422000D03*
X123219000Y-27772000D03*
X123219000Y-27122000D03*
X123219000Y-26472000D03*
X123219000Y-25822000D03*
X123219000Y-25172000D03*
X123219000Y-24522000D03*
X123219000Y-23872000D03*
G04 #@! TD*
D16*
G04 #@! TO.C,Q1*
X106420000Y-44754000D03*
X101860000Y-44754000D03*
D17*
X102615000Y-52729000D03*
X105665000Y-49379000D03*
X105665000Y-52729000D03*
X102615000Y-49379000D03*
G04 #@! TD*
G04 #@! TO.C,Q2*
X118363000Y-49379000D03*
X121413000Y-52729000D03*
X121413000Y-49379000D03*
X118363000Y-52729000D03*
D16*
X117608000Y-44754000D03*
X122168000Y-44754000D03*
G04 #@! TD*
G04 #@! TO.C,Q3*
X138424000Y-44754000D03*
X133864000Y-44754000D03*
D17*
X134619000Y-52729000D03*
X137669000Y-49379000D03*
X137669000Y-52729000D03*
X134619000Y-49379000D03*
G04 #@! TD*
G04 #@! TO.C,Q4*
X149986000Y-49379000D03*
X153036000Y-52729000D03*
X153036000Y-49379000D03*
X149986000Y-52729000D03*
D16*
X149231000Y-44754000D03*
X153791000Y-44754000D03*
G04 #@! TD*
M02*
