0
SECTION
2
HEADER
9
$INSUNITS
70
1
9
$ACADVER
1
AC1014
9
$HANDSEED
5
FFFF
0
ENDSEC
0
SECTION
2
TABLES
0
TABLE
2
VPORT
5
8
100
AcDbSymbolTable
0
ENDTAB
0
TABLE
2
LTYPE
5
5
100
AcDbSymbolTable
0
LTYPE
5
14
100
AcDbSymbolTableRecord
100
AcDbLinetypeTableRecord
2
BYBLOCK
70
0
0
LTYPE
5
15
100
AcDbSymbolTableRecord
100
AcDbLinetypeTableRecord
2
BYLAYER
70
0
0
ENDTAB
0
TABLE
2
LAYER
5
2
100
AcDbSymbolTable
70
2
0
LAYER
5
50
100
AcDbSymbolTableRecord
100
AcDbLayerTableRecord
2
0
70
0
6
CONTINUOUS
0
ENDTAB
0
TABLE
2
STYLE
5
3
100
AcDbSymbolTable
70
1
0
STYLE
5
11
100
AcDbSymbolTableRecord
100
AcDbTextStyleTableRecord
2
STANDARD
70
0
0
ENDTAB
0
TABLE
2
VIEW
5
6
100
AcDbSymbolTable
70
0
0
ENDTAB
0
TABLE
2
UCS
5
7
100
AcDbSymbolTable
70
0
0
ENDTAB
0
TABLE
2
APPID
5
9
100
AcDbSymbolTable
70
2
0
APPID
5
12
100
AcDbSymbolTableRecord
100
AcDbRegAppTableRecord
2
ACAD
70
0
0
ENDTAB
0
TABLE
2
DIMSTYLE
5
A
100
AcDbSymbolTable
70
1
0
ENDTAB
0
TABLE
2
BLOCK_RECORD
5
1
100
AcDbSymbolTable
70
1
0
BLOCK_RECORD
5
1F
100
AcDbSymbolTableRecord
100
AcDbBlockTableRecord
2
*MODEL_SPACE
0
BLOCK_RECORD
5
1B
100
AcDbSymbolTableRecord
100
AcDbBlockTableRecord
2
*PAPER_SPACE
0
ENDTAB
0
ENDSEC
0
SECTION
2
BLOCKS
0
BLOCK
5
20
100
AcDbEntity
100
AcDbBlockBegin
2
*MODEL_SPACE
0
ENDBLK
5
21
100
AcDbEntity
100
AcDbBlockEnd
0
BLOCK
5
1C
100
AcDbEntity
100
AcDbBlockBegin
2
*PAPER_SPACE
0
ENDBLK
5
1D
100
AcDbEntity
100
AcDbBlockEnd
0
ENDSEC
0
SECTION
2
ENTITIES
0
CIRCLE
5
100
100
AcDbEntity
8
0
100
AcDbCircle
10
0.65354330708661457
20
0.78740157480315043
30
0
40
0.040354330708661339
0
CIRCLE
5
101
100
AcDbEntity
8
0
100
AcDbCircle
10
-0.65354330708661379
20
0.78740157480315043
30
0
40
0.040354330708661339
0
CIRCLE
5
102
100
AcDbEntity
8
0
100
AcDbCircle
10
0.65354330708661457
20
-0.78740157480314876
30
0
40
0.040354330708661339
0
CIRCLE
5
103
100
AcDbEntity
8
0
100
AcDbCircle
10
-0.65354330708661379
20
-0.78740157480314876
30
0
40
0.040354330708661339
0
ARC
5
104
100
AcDbEntity
8
0
100
AcDbCircle
10
-0.54999999999999927
20
0.30350000000000088
30
0
40
0.055118109999999935
100
AcDbArc
50
127.48627966478422
51
232.51372033521534
0
SPLINE
5
105
100
AcDbEntity
8
0
100
AcDbSpline
70
1064
71
3
72
17
73
13
74
0
42
0.000000001
43
0.0000000001
44
0.0000000001
40
0.045859745064501092
40
0.045859745064501092
40
0.045859745064501092
40
0.045859745064501092
40
0.048211489507628116
40
0.048211489507628116
40
0.048211489507628116
40
0.048267655266971646
40
0.048267655266971646
40
0.05298524405033532
40
0.05298524405033532
40
0.058903664555572319
40
0.058903664555572319
40
0.064822085060809317
40
0.064822085060809317
40
0.064822085060809317
40
0.064822085060809317
10
-0.57854330708661517
20
0.35065173030262325
30
0
10
-0.57866085165007108
20
0.35058057468331616
30
0
10
-0.5787781297268233
20
0.35050897977243101
30
0
10
-0.57889513885709432
20
0.35043694707159145
30
0
10
-0.5788979333387273
20
0.35043522674379302
30
0
10
-0.57890075537176044
20
0.35043349539545021
30
-1.7483827159451283e-16
10
-0.5791409694169618
20
0.35028542873720081
30
0
10
-0.57949318010136053
20
0.35006574971882282
30
0
10
-0.58036275075392862
20
0.34950479306403764
30
0
10
-0.58096781678900378
20
0.34910288259667172
30
0
10
-0.58224983240721029
20
0.34820521891179518
30
0
10
-0.58292699982776375
20
0.34770884513732975
30
0
10
-0.58354330708661495
20
0.34723617038179239
30
0
0
ARC
5
106
100
AcDbEntity
8
0
100
AcDbCircle
10
-0.54999999999999927
20
0.30350000000000088
30
0
40
0.05511810999999997
100
AcDbArc
50
-121.18862248212439
51
121.1886224821245
0
SPLINE
5
107
100
AcDbEntity
8
0
100
AcDbSpline
70
1064
71
3
72
17
73
13
74
0
42
0.000000001
43
0.0000000001
44
0.0000000001
40
-0.064822085060809331
40
-0.064822085060809331
40
-0.064822085060809331
40
-0.064822085060809331
40
-0.058903664555572333
40
-0.058903664555572333
40
-0.052985244050335327
40
-0.052985244050335327
40
-0.04826765526697166
40
-0.04826765526697166
40
-0.048211489507628068
40
-0.048211489507628068
40
-0.048211489507628068
40
-0.045859745064524615
40
-0.045859745064524615
40
-0.045859745064524615
40
-0.045859745064524615
10
-0.58354330708661484
20
0.25976382961820937
30
0
10
-0.58292699982776375
20
0.25929115486267201
30
0
10
-0.58224983240721018
20
0.25879478108820653
30
0
10
-0.58096781678900367
20
0.25789711740332999
30
0
10
-0.58036275075392862
20
0.25749520693596412
30
0
10
-0.57949318010136042
20
0.256934250281179
30
0
10
-0.5791409694169618
20
0.25671457126280095
30
0
10
-0.57890075537176044
20
0.25656650460455149
30
0
10
-0.5788979333387273
20
0.25656477325620869
30
0
10
-0.57889513885709432
20
0.25656305292841031
30
0
10
-0.57877812972682541
20
0.25649102022757209
30
0
10
-0.57866085165006897
20
0.25641942531668427
30
0
10
-0.57854330708661517
20
0.25634826969737851
30
0
0
ARC
5
108
100
AcDbEntity
8
0
100
AcDbCircle
10
0.55000000000000071
20
-0.30349999999999905
30
0
40
0.055118109999999894
100
AcDbArc
50
58.81137751787611
51
301.18862248212389
0
SPLINE
5
109
100
AcDbEntity
8
0
100
AcDbSpline
70
1064
71
3
72
17
73
13
74
0
42
0.000000001
43
0.0000000001
44
0.0000000001
40
0.065828114390014333
40
0.065828114390014333
40
0.065828114390014333
40
0.065828114390014333
40
0.071746534895251318
40
0.071746534895251318
40
0.077664955400488289
40
0.077664955400488289
40
0.082382544183851963
40
0.082382544183851963
40
0.082438709943195451
40
0.082438709943195451
40
0.082438709943195451
40
0.084790454386275166
40
0.084790454386275166
40
0.084790454386275166
40
0.084790454386275166
10
0.58354330708661584
20
-0.25976382961820738
30
0
10
0.58292699982776464
20
-0.25929115486266996
30
0
10
0.5822498324072114
20
-0.2587947810882047
30
0
10
0.58096781678900489
20
-0.25789711740332816
30
0
10
0.58036275075392962
20
-0.25749520693596212
30
0
10
0.57949318010136142
20
-0.25693425028117706
30
0
10
0.5791409694169628
20
-0.25671457126279901
30
0
10
0.57890075537176144
20
-0.25656650460454955
30
0
10
0.57889793333872819
20
-0.25656477325620675
30
0
10
0.5788951388570952
20
-0.25656305292840836
30
0
10
0.57877812972682652
20
-0.2564910202275702
30
0
10
0.57866085165006975
20
-0.25641942531668221
30
0
10
0.57854330708661617
20
-0.25634826969737651
30
0
0
ARC
5
110
100
AcDbEntity
8
0
100
AcDbCircle
10
0.55000000000000071
20
-0.30349999999999905
30
0
40
0.055118109999999818
100
AcDbArc
50
-52.513720335216107
51
52.513720335215964
0
SPLINE
5
111
100
AcDbEntity
8
0
100
AcDbSpline
70
1064
71
3
72
17
73
13
74
0
42
0.000000001
43
0.0000000001
44
0.0000000001
40
-0.084790454386291569
40
-0.084790454386291569
40
-0.084790454386291569
40
-0.084790454386291569
40
-0.082438709943195451
40
-0.082438709943195451
40
-0.082438709943195451
40
-0.082382544183851963
40
-0.082382544183851963
40
-0.077664955400488289
40
-0.077664955400488289
40
-0.071746534895251318
40
-0.071746534895251318
40
-0.065828114390014347
40
-0.065828114390014347
40
-0.065828114390014347
40
-0.065828114390014347
10
0.57854330708661617
20
-0.35065173030262159
30
0
10
0.57866085165006975
20
-0.35058057468331583
30
0
10
0.57877812972682652
20
-0.3505089797724279
30
0
10
0.5788951388570952
20
-0.35043694707158973
30
0
10
0.57889793333872819
20
-0.35043522674379135
30
0
10
0.57890075537176144
20
-0.35043349539544855
30
0
10
0.5791409694169628
20
-0.35028542873719909
30
0
10
0.57949318010136142
20
-0.35006574971882104
30
0
10
0.58036275075392962
20
-0.34950479306403598
30
0
10
0.58096781678900489
20
-0.34910288259666994
30
0
10
0.5822498324072114
20
-0.3482052189117934
30
0
10
0.58292699982776464
20
-0.34770884513732808
30
0
10
0.58354330708661584
20
-0.34723617038179072
30
0
0
ARC
5
112
100
AcDbEntity
8
0
100
AcDbCircle
10
-0.54999999999999949
20
-0.6484251968503929
30
-2.4244290913592199e-48
40
0.064960629921259908
100
AcDbArc
50
121.08864596878564
51
238.91135403121436
0
SPLINE
5
113
100
AcDbEntity
8
0
100
AcDbSpline
70
1064
71
3
72
15
73
11
74
0
42
0.000000001
43
0.0000000001
44
0.0000000001
40
-0.062140204243660062
40
-0.062140204243660062
40
-0.062140204243660062
40
-0.062140204243660062
40
-0.056616346086917638
40
-0.056616346086917638
40
-0.051092487930175221
40
-0.051092487930175221
40
-0.046390575059436313
40
-0.046390575059436313
40
-0.046390575059436313
40
-0.043991742192561127
40
-0.043991742192561127
40
-0.043991742192561127
40
-0.043991742192561127
10
-0.58354330708661495
20
-0.59279489944457375
30
0
10
-0.58292251138542872
20
-0.59242057930224135
30
0
10
-0.58224701044096172
20
-0.59202901847080702
30
0
10
-0.58098077341706056
20
-0.59132343998722114
30
0
10
-0.58038989052924406
20
-0.59100900788764188
30
0
10
-0.57951923050493936
20
-0.59055722735079164
30
0
10
-0.57915908792788895
20
-0.59037603892669754
30
0
10
-0.57891598153831525
20
-0.59025519211046995
30
0
10
-0.5787919529538883
20
-0.59019353820011622
30
0
10
-0.57866772750131823
20
-0.59013228112325311
30
0
10
-0.57854330708661517
20
-0.59007142181975736
30
0
0
ARC
5
114
100
AcDbEntity
8
0
100
AcDbCircle
10
-0.54999999999999949
20
-0.6484251968503929
30
-2.4244290913592199e-48
40
0.064960629921259921
100
AcDbArc
50
-116.06521848257891
51
116.06521848257903
0
SPLINE
5
115
100
AcDbEntity
8
0
100
AcDbSpline
70
1064
71
3
72
15
73
11
74
0
42
0.000000001
43
0.0000000001
44
0.0000000001
40
0.043991742192454636
40
0.043991742192454636
40
0.043991742192454636
40
0.043991742192454636
40
0.046390575059436313
40
0.046390575059436313
40
0.046390575059436313
40
0.051092487930175221
40
0.051092487930175221
40
0.056616346086917638
40
0.056616346086917638
40
0.062140204243660062
40
0.062140204243660062
40
0.062140204243660062
40
0.062140204243660062
10
-0.57854330708661517
20
-0.70677897188102856
30
0
10
-0.57866772750132367
20
-0.70671811257753014
30
0
10
-0.57879195295388286
20
-0.70665685550067248
30
0
10
-0.57891598153831525
20
-0.70659520159031597
30
0
10
-0.57915908792788884
20
-0.70647435477408849
30
0
10
-0.57951923050493936
20
-0.70629316634999417
30
0
10
-0.58038989052924406
20
-0.70584138581314404
30
0
10
-0.58098077341706045
20
-0.70552695371356489
30
0
10
-0.58224701044096161
20
-0.70482137522997901
30
0
10
-0.58292251138542872
20
-0.70442981439854457
30
0
10
-0.58354330708661495
20
-0.70405549425621217
30
0
0
ARC
5
116
100
AcDbEntity
8
0
100
AcDbCircle
10
0.55000000000000038
20
-0.6484251968503929
30
0
40
0.064960629921259852
100
AcDbArc
50
63.934781517421108
51
296.06521848257881
0
SPLINE
5
117
100
AcDbEntity
8
0
100
AcDbSpline
70
1064
71
3
72
17
73
13
74
0
42
0.000000001
43
0.0000000001
44
0.0000000001
40
-0.080847597198423007
40
-0.080847597198423007
40
-0.080847597198423007
40
-0.080847597198423007
40
-0.07844415532183116
40
-0.07844415532183116
40
-0.07844415532183116
40
-0.078309576888195703
40
-0.078309576888195703
40
-0.073398317630366541
40
-0.073398317630366541
40
-0.068045858498278017
40
-0.068045858498278017
40
-0.062693399366189478
40
-0.062693399366189478
40
-0.062693399366189478
40
-0.062693399366189478
10
0.57854330708661617
20
-0.59007142181975736
30
0
10
0.57866713314930962
20
-0.59013199040046926
30
0
10
0.57879076610959657
20
-0.59019295296407026
30
0
10
0.57891420408860672
20
-0.59025430858410211
30
0
10
0.57892111588041162
20
-0.59025774413347776
30
0
10
0.57892815226487426
20
-0.59026123618511328
30
0
10
0.57919436600598806
20
-0.59039379014525484
30
0
10
0.579580108612611
20
-0.59058807100433786
30
0
10
0.58047385672518359
20
-0.59105356919787344
30
0
10
0.58105268779388153
20
-0.59136275226198642
30
0
10
0.58228659537083349
20
-0.59205189250906998
30
0
10
0.58294177396869551
20
-0.59243219402975311
30
0
10
0.58354330708661584
20
-0.59279489944457375
30
0
0
ARC
5
118
100
AcDbEntity
8
0
100
AcDbCircle
10
0.55000000000000038
20
-0.6484251968503929
30
0
40
0.064960629921259866
100
AcDbArc
50
-58.911354031012046
51
58.911354031214351
0
SPLINE
5
119
100
AcDbEntity
8
0
100
AcDbSpline
70
1064
71
3
72
17
73
13
74
0
42
0.000000001
43
0.0000000001
44
0.0000000001
40
0.062693399366189478
40
0.062693399366189478
40
0.062693399366189478
40
0.062693399366189478
40
0.068045858498278017
40
0.068045858498278017
40
0.073398317630366541
40
0.073398317630366541
40
0.078309576888195703
40
0.078309576888195703
40
0.07844415532183116
40
0.07844415532183116
40
0.07844415532183116
40
0.080847597198530116
40
0.080847597198530116
40
0.080847597198530116
40
0.080847597198530116
10
0.58354330708661584
20
-0.70405549425621217
30
0
10
0.58294177396869551
20
-0.70441819967103281
30
0
10
0.58228659537083349
20
-0.70479850119171594
30
0
10
0.58105268779388153
20
-0.7054876414387995
30
0
10
0.58047385672518359
20
-0.70579682450291248
30
0
10
0.579580108612611
20
-0.70626232269644795
30
0
10
0.57919436600598817
20
-0.70645660355553097
30
0
10
0.57892815226487437
20
-0.70658915751567253
30
0
10
0.57892111588041162
20
-0.70659264956730827
30
0
10
0.57891420408860672
20
-0.70659608511668393
30
0
10
0.57879076610959102
20
-0.70665744073671855
30
0
10
0.57866713314931517
20
-0.70671840330031399
30
0
10
0.57854330708661617
20
-0.70677897188102856
30
0
0
ARC
5
120
100
AcDbEntity
8
0
100
AcDbCircle
10
0.55000000000000071
20
0.64842519685039435
30
0
40
0.064960629921259852
100
AcDbArc
50
63.934781517421229
51
296.06521848257853
0
SPLINE
5
121
100
AcDbEntity
8
0
100
AcDbSpline
70
1064
71
3
72
17
73
13
74
0
42
0.000000001
43
0.0000000001
44
0.0000000001
40
-0.080847597198526092
40
-0.080847597198526092
40
-0.080847597198526092
40
-0.080847597198526092
40
-0.07844415532183098
40
-0.07844415532183098
40
-0.07844415532183098
40
-0.078309576888195537
40
-0.078309576888195537
40
-0.073398317630366375
40
-0.073398317630366375
40
-0.068045858498277878
40
-0.068045858498277878
40
-0.062693399366189395
40
-0.062693399366189395
40
-0.062693399366189395
40
-0.062693399366189395
10
0.57854330708661617
20
0.70677897188103012
30
0
10
0.57866713314931495
20
0.70671840330031566
30
0
10
0.57879076610959124
20
0.7066574407367201
30
0
10
0.57891420408860672
20
0.70659608511668548
30
0
10
0.57892111588041162
20
0.70659264956730983
30
0
10
0.57892815226487437
20
0.70658915751567419
30
0
10
0.57919436600598817
20
0.70645660355553264
30
0
10
0.579580108612611
20
0.70626232269644962
30
0
10
0.58047385672518359
20
0.70579682450291403
30
0
10
0.58105268779388175
20
0.70548764143880116
30
0
10
0.5822865953708336
20
0.70479850119171761
30
0
10
0.58294177396869551
20
0.70441819967103436
30
0
10
0.58354330708661584
20
0.70405549425621383
30
0
0
ARC
5
122
100
AcDbEntity
8
0
100
AcDbCircle
10
0.55000000000000071
20
0.64842519685039435
30
0
40
0.064960629921259824
100
AcDbArc
50
-58.91135403101184
51
58.911354031214778
0
SPLINE
5
123
100
AcDbEntity
8
0
100
AcDbSpline
70
1064
71
3
72
17
73
13
74
0
42
0.000000001
43
0.0000000001
44
0.0000000001
40
0.062693399366189395
40
0.062693399366189395
40
0.062693399366189395
40
0.062693399366189395
40
0.068045858498277878
40
0.068045858498277878
40
0.073398317630366375
40
0.073398317630366375
40
0.078309576888195537
40
0.078309576888195537
40
0.07844415532183098
40
0.07844415532183098
40
0.07844415532183098
40
0.080847597198419205
40
0.080847597198419205
40
0.080847597198419205
40
0.080847597198419205
10
0.58354330708661584
20
0.59279489944457497
30
0
10
0.58294177396869551
20
0.59243219402975433
30
0
10
0.58228659537083349
20
0.5920518925090712
30
0
10
0.58105268779388164
20
0.59136275226198765
30
0
10
0.58047385672518359
20
0.59105356919787466
30
0
10
0.579580108612611
20
0.59058807100433908
30
0
10
0.57919436600598806
20
0.59039379014525606
30
0
10
0.57892815226487426
20
0.59026123618511439
30
0
10
0.57892111588041162
20
0.59025774413347898
30
0
10
0.57891420408860672
20
0.59025430858410333
30
0
10
0.57879076610959668
20
0.59019295296407148
30
0
10
0.5786671331493094
20
0.59013199040047037
30
0
10
0.57854330708661617
20
0.59007142181975858
30
0
0
ARC
5
124
100
AcDbEntity
8
0
100
AcDbCircle
10
-0.54999999999999982
20
0.64842519685039435
30
-8.0814303045307326e-49
40
0.064960629921259908
100
AcDbArc
50
121.08864596878524
51
238.91135403121481
0
SPLINE
5
125
100
AcDbEntity
8
0
100
AcDbSpline
70
1064
71
3
72
15
73
11
74
0
42
0.000000001
43
0.0000000001
44
0.0000000001
40
-0.062140204243659958
40
-0.062140204243659958
40
-0.062140204243659958
40
-0.062140204243659958
40
-0.056616346086917534
40
-0.056616346086917534
40
-0.051092487930175109
40
-0.051092487930175109
40
-0.046390575059436341
40
-0.046390575059436341
40
-0.046390575059436341
40
-0.043991742192669984
40
-0.043991742192669984
40
-0.043991742192669984
40
-0.043991742192669984
10
-0.58354330708661495
20
0.70405549425621383
30
0
10
-0.58292251138542872
20
0.70442981439854613
30
0
10
-0.58224701044096172
20
0.70482137522998045
30
0
10
-0.58098077341706056
20
0.70552695371356644
30
0
10
-0.58038989052924406
20
0.70584138581314559
30
0
10
-0.57951923050493936
20
0.70629316634999584
30
0
10
-0.57915908792788884
20
0.70647435477409004
30
0
10
-0.57891598153831525
20
0.70659520159031752
30
0
10
-0.57879195295389396
20
0.70665685550066848
30
0
10
-0.57866772750131257
20
0.70671811257753725
30
0
10
-0.57854330708661517
20
0.70677897188103023
30
0
0
ARC
5
126
100
AcDbEntity
8
0
100
AcDbCircle
10
-0.54999999999999982
20
0.64842519685039435
30
-8.0814303045307326e-49
40
0.064960629921259852
100
AcDbArc
50
-116.06521848257852
51
116.06521848257864
0
SPLINE
5
127
100
AcDbEntity
8
0
100
AcDbSpline
70
1064
71
3
72
15
73
11
74
0
42
0.000000001
43
0.0000000001
44
0.0000000001
40
0.043991742192669971
40
0.043991742192669971
40
0.043991742192669971
40
0.043991742192669971
40
0.046390575059436341
40
0.046390575059436341
40
0.046390575059436341
40
0.051092487930175109
40
0.051092487930175109
40
0.056616346086917534
40
0.056616346086917534
40
0.062140204243659958
40
0.062140204243659958
40
0.062140204243659958
40
0.062140204243659958
10
-0.57854330708661517
20
0.59007142181975847
30
0
10
-0.57866772750131257
20
0.59013228112325145
30
0
10
-0.57879195295389396
20
0.59019353820012022
30
0
10
-0.57891598153831525
20
0.59025519211047117
30
0
10
-0.57915908792788884
20
0.59037603892669877
30
0
10
-0.57951923050493936
20
0.59055722735079286
30
0
10
-0.58038989052924406
20
0.5910090078876431
30
0
10
-0.58098077341706056
20
0.59132343998722237
30
0
10
-0.58224701044096172
20
0.59202901847080824
30
0
10
-0.58292251138542872
20
0.59242057930224257
30
0
10
-0.58354330708661495
20
0.59279489944457497
30
0
0
LWPOLYLINE
5
128
100
AcDbEntity
8
0
100
AcDbPolyline
90
32
70
1
43
0.0
10
-0.45619216333994161
20
0.67970176301680851
10
-0.57854330708661605
20
0.82551417813491879
10
-0.58354330708661417
20
0.83147294609788736
10
-0.64566929133858242
20
0.90551181102362244
10
-0.72354330708661352
20
0.90551181102362244
10
-0.7285433070866133
20
0.90551181102362244
10
-0.99999999999999944
20
0.90551181102362277
10
-0.99999999999999944
20
-0.90551181102362133
10
-0.72854330708661319
20
-0.90551181102362133
10
-0.72354330708661352
20
-0.90551181102362099
10
-0.64566929133858342
20
-0.90551181102362155
10
-0.58354330708661473
20
-0.83147294609788824
10
-0.57854330708661539
20
-0.82551417813491657
10
-0.4561921633399415
20
-0.67970176301680718
42
-0.22169466264293974
10
-0.39587370325183291
20
-0.65157480314960547
10
0.39587370325183374
20
-0.6515748031496057
42
-0.2216946626429401
10
0.45619216333994228
20
-0.67970176301680729
10
0.57854330708661605
20
-0.82551417813491668
10
0.58354330708661561
20
-0.83147294609788769
10
0.64566929133858297
20
-0.90551181102362099
10
0.72354330708661441
20
-0.90551181102362099
10
0.72854330708661419
20
-0.90551181102362133
10
1
20
-0.90551181102362177
10
1.0000000000000002
20
0.90551181102362277
10
0.72854330708661419
20
0.90551181102362277
10
0.72354330708661441
20
0.90551181102362244
10
0.64566929133858264
20
0.90551181102362255
10
0.5835433070866145
20
0.83147294609788813
10
0.57854330708661583
20
0.8255141781349179
10
0.45619216333994245
20
0.67970176301680862
42
-0.22169466264294033
10
0.39587370325183374
20
0.65157480314960692
10
-0.39587370325183291
20
0.6515748031496067
42
-0.22169466264293985
0
ENDSEC
0
SECTION
2
OBJECTS
0
DICTIONARY
5
C
100
AcDbDictionary
3
ACAD_GROUP
350
D
3
ACAD_MLINESTYLE
350
17
0
DICTIONARY
5
D
100
AcDbDictionary
0
DICTIONARY
5
1A
330
C
100
AcDbDictionary
0
DICTIONARY
5
17
100
AcDbDictionary
0
ENDSEC
0
EOF
