G04 #@! TF.GenerationSoftware,KiCad,Pcbnew,5.1.4-e60b266~84~ubuntu18.04.1*
G04 #@! TF.CreationDate,2019-10-08T20:02:31-04:00*
G04 #@! TF.ProjectId,TSAL-driver,5453414c-2d64-4726-9976-65722e6b6963,rev?*
G04 #@! TF.SameCoordinates,Original*
G04 #@! TF.FileFunction,Paste,Top*
G04 #@! TF.FilePolarity,Positive*
%FSLAX46Y46*%
G04 Gerber Fmt 4.6, Leading zero omitted, Abs format (unit mm)*
G04 Created by KiCad (PCBNEW 5.1.4-e60b266~84~ubuntu18.04.1) date 2019-10-08 20:02:31*
%MOMM*%
%LPD*%
G04 APERTURE LIST*
%ADD10R,2.000000X1.500000*%
%ADD11R,2.000000X3.800000*%
%ADD12C,0.100000*%
%ADD13C,0.875000*%
%ADD14C,0.600000*%
G04 APERTURE END LIST*
D10*
X132105000Y-94220000D03*
X132105000Y-98820000D03*
X132105000Y-96520000D03*
D11*
X138405000Y-96520000D03*
D12*
G36*
X135342691Y-82711053D02*
G01*
X135363926Y-82714203D01*
X135384750Y-82719419D01*
X135404962Y-82726651D01*
X135424368Y-82735830D01*
X135442781Y-82746866D01*
X135460024Y-82759654D01*
X135475930Y-82774070D01*
X135490346Y-82789976D01*
X135503134Y-82807219D01*
X135514170Y-82825632D01*
X135523349Y-82845038D01*
X135530581Y-82865250D01*
X135535797Y-82886074D01*
X135538947Y-82907309D01*
X135540000Y-82928750D01*
X135540000Y-83441250D01*
X135538947Y-83462691D01*
X135535797Y-83483926D01*
X135530581Y-83504750D01*
X135523349Y-83524962D01*
X135514170Y-83544368D01*
X135503134Y-83562781D01*
X135490346Y-83580024D01*
X135475930Y-83595930D01*
X135460024Y-83610346D01*
X135442781Y-83623134D01*
X135424368Y-83634170D01*
X135404962Y-83643349D01*
X135384750Y-83650581D01*
X135363926Y-83655797D01*
X135342691Y-83658947D01*
X135321250Y-83660000D01*
X134883750Y-83660000D01*
X134862309Y-83658947D01*
X134841074Y-83655797D01*
X134820250Y-83650581D01*
X134800038Y-83643349D01*
X134780632Y-83634170D01*
X134762219Y-83623134D01*
X134744976Y-83610346D01*
X134729070Y-83595930D01*
X134714654Y-83580024D01*
X134701866Y-83562781D01*
X134690830Y-83544368D01*
X134681651Y-83524962D01*
X134674419Y-83504750D01*
X134669203Y-83483926D01*
X134666053Y-83462691D01*
X134665000Y-83441250D01*
X134665000Y-82928750D01*
X134666053Y-82907309D01*
X134669203Y-82886074D01*
X134674419Y-82865250D01*
X134681651Y-82845038D01*
X134690830Y-82825632D01*
X134701866Y-82807219D01*
X134714654Y-82789976D01*
X134729070Y-82774070D01*
X134744976Y-82759654D01*
X134762219Y-82746866D01*
X134780632Y-82735830D01*
X134800038Y-82726651D01*
X134820250Y-82719419D01*
X134841074Y-82714203D01*
X134862309Y-82711053D01*
X134883750Y-82710000D01*
X135321250Y-82710000D01*
X135342691Y-82711053D01*
X135342691Y-82711053D01*
G37*
D13*
X135102500Y-83185000D03*
D12*
G36*
X136917691Y-82711053D02*
G01*
X136938926Y-82714203D01*
X136959750Y-82719419D01*
X136979962Y-82726651D01*
X136999368Y-82735830D01*
X137017781Y-82746866D01*
X137035024Y-82759654D01*
X137050930Y-82774070D01*
X137065346Y-82789976D01*
X137078134Y-82807219D01*
X137089170Y-82825632D01*
X137098349Y-82845038D01*
X137105581Y-82865250D01*
X137110797Y-82886074D01*
X137113947Y-82907309D01*
X137115000Y-82928750D01*
X137115000Y-83441250D01*
X137113947Y-83462691D01*
X137110797Y-83483926D01*
X137105581Y-83504750D01*
X137098349Y-83524962D01*
X137089170Y-83544368D01*
X137078134Y-83562781D01*
X137065346Y-83580024D01*
X137050930Y-83595930D01*
X137035024Y-83610346D01*
X137017781Y-83623134D01*
X136999368Y-83634170D01*
X136979962Y-83643349D01*
X136959750Y-83650581D01*
X136938926Y-83655797D01*
X136917691Y-83658947D01*
X136896250Y-83660000D01*
X136458750Y-83660000D01*
X136437309Y-83658947D01*
X136416074Y-83655797D01*
X136395250Y-83650581D01*
X136375038Y-83643349D01*
X136355632Y-83634170D01*
X136337219Y-83623134D01*
X136319976Y-83610346D01*
X136304070Y-83595930D01*
X136289654Y-83580024D01*
X136276866Y-83562781D01*
X136265830Y-83544368D01*
X136256651Y-83524962D01*
X136249419Y-83504750D01*
X136244203Y-83483926D01*
X136241053Y-83462691D01*
X136240000Y-83441250D01*
X136240000Y-82928750D01*
X136241053Y-82907309D01*
X136244203Y-82886074D01*
X136249419Y-82865250D01*
X136256651Y-82845038D01*
X136265830Y-82825632D01*
X136276866Y-82807219D01*
X136289654Y-82789976D01*
X136304070Y-82774070D01*
X136319976Y-82759654D01*
X136337219Y-82746866D01*
X136355632Y-82735830D01*
X136375038Y-82726651D01*
X136395250Y-82719419D01*
X136416074Y-82714203D01*
X136437309Y-82711053D01*
X136458750Y-82710000D01*
X136896250Y-82710000D01*
X136917691Y-82711053D01*
X136917691Y-82711053D01*
G37*
D13*
X136677500Y-83185000D03*
D12*
G36*
X132167691Y-101126053D02*
G01*
X132188926Y-101129203D01*
X132209750Y-101134419D01*
X132229962Y-101141651D01*
X132249368Y-101150830D01*
X132267781Y-101161866D01*
X132285024Y-101174654D01*
X132300930Y-101189070D01*
X132315346Y-101204976D01*
X132328134Y-101222219D01*
X132339170Y-101240632D01*
X132348349Y-101260038D01*
X132355581Y-101280250D01*
X132360797Y-101301074D01*
X132363947Y-101322309D01*
X132365000Y-101343750D01*
X132365000Y-101856250D01*
X132363947Y-101877691D01*
X132360797Y-101898926D01*
X132355581Y-101919750D01*
X132348349Y-101939962D01*
X132339170Y-101959368D01*
X132328134Y-101977781D01*
X132315346Y-101995024D01*
X132300930Y-102010930D01*
X132285024Y-102025346D01*
X132267781Y-102038134D01*
X132249368Y-102049170D01*
X132229962Y-102058349D01*
X132209750Y-102065581D01*
X132188926Y-102070797D01*
X132167691Y-102073947D01*
X132146250Y-102075000D01*
X131708750Y-102075000D01*
X131687309Y-102073947D01*
X131666074Y-102070797D01*
X131645250Y-102065581D01*
X131625038Y-102058349D01*
X131605632Y-102049170D01*
X131587219Y-102038134D01*
X131569976Y-102025346D01*
X131554070Y-102010930D01*
X131539654Y-101995024D01*
X131526866Y-101977781D01*
X131515830Y-101959368D01*
X131506651Y-101939962D01*
X131499419Y-101919750D01*
X131494203Y-101898926D01*
X131491053Y-101877691D01*
X131490000Y-101856250D01*
X131490000Y-101343750D01*
X131491053Y-101322309D01*
X131494203Y-101301074D01*
X131499419Y-101280250D01*
X131506651Y-101260038D01*
X131515830Y-101240632D01*
X131526866Y-101222219D01*
X131539654Y-101204976D01*
X131554070Y-101189070D01*
X131569976Y-101174654D01*
X131587219Y-101161866D01*
X131605632Y-101150830D01*
X131625038Y-101141651D01*
X131645250Y-101134419D01*
X131666074Y-101129203D01*
X131687309Y-101126053D01*
X131708750Y-101125000D01*
X132146250Y-101125000D01*
X132167691Y-101126053D01*
X132167691Y-101126053D01*
G37*
D13*
X131927500Y-101600000D03*
D12*
G36*
X133742691Y-101126053D02*
G01*
X133763926Y-101129203D01*
X133784750Y-101134419D01*
X133804962Y-101141651D01*
X133824368Y-101150830D01*
X133842781Y-101161866D01*
X133860024Y-101174654D01*
X133875930Y-101189070D01*
X133890346Y-101204976D01*
X133903134Y-101222219D01*
X133914170Y-101240632D01*
X133923349Y-101260038D01*
X133930581Y-101280250D01*
X133935797Y-101301074D01*
X133938947Y-101322309D01*
X133940000Y-101343750D01*
X133940000Y-101856250D01*
X133938947Y-101877691D01*
X133935797Y-101898926D01*
X133930581Y-101919750D01*
X133923349Y-101939962D01*
X133914170Y-101959368D01*
X133903134Y-101977781D01*
X133890346Y-101995024D01*
X133875930Y-102010930D01*
X133860024Y-102025346D01*
X133842781Y-102038134D01*
X133824368Y-102049170D01*
X133804962Y-102058349D01*
X133784750Y-102065581D01*
X133763926Y-102070797D01*
X133742691Y-102073947D01*
X133721250Y-102075000D01*
X133283750Y-102075000D01*
X133262309Y-102073947D01*
X133241074Y-102070797D01*
X133220250Y-102065581D01*
X133200038Y-102058349D01*
X133180632Y-102049170D01*
X133162219Y-102038134D01*
X133144976Y-102025346D01*
X133129070Y-102010930D01*
X133114654Y-101995024D01*
X133101866Y-101977781D01*
X133090830Y-101959368D01*
X133081651Y-101939962D01*
X133074419Y-101919750D01*
X133069203Y-101898926D01*
X133066053Y-101877691D01*
X133065000Y-101856250D01*
X133065000Y-101343750D01*
X133066053Y-101322309D01*
X133069203Y-101301074D01*
X133074419Y-101280250D01*
X133081651Y-101260038D01*
X133090830Y-101240632D01*
X133101866Y-101222219D01*
X133114654Y-101204976D01*
X133129070Y-101189070D01*
X133144976Y-101174654D01*
X133162219Y-101161866D01*
X133180632Y-101150830D01*
X133200038Y-101141651D01*
X133220250Y-101134419D01*
X133241074Y-101129203D01*
X133262309Y-101126053D01*
X133283750Y-101125000D01*
X133721250Y-101125000D01*
X133742691Y-101126053D01*
X133742691Y-101126053D01*
G37*
D13*
X133502500Y-101600000D03*
D12*
G36*
X129817691Y-95601053D02*
G01*
X129838926Y-95604203D01*
X129859750Y-95609419D01*
X129879962Y-95616651D01*
X129899368Y-95625830D01*
X129917781Y-95636866D01*
X129935024Y-95649654D01*
X129950930Y-95664070D01*
X129965346Y-95679976D01*
X129978134Y-95697219D01*
X129989170Y-95715632D01*
X129998349Y-95735038D01*
X130005581Y-95755250D01*
X130010797Y-95776074D01*
X130013947Y-95797309D01*
X130015000Y-95818750D01*
X130015000Y-96256250D01*
X130013947Y-96277691D01*
X130010797Y-96298926D01*
X130005581Y-96319750D01*
X129998349Y-96339962D01*
X129989170Y-96359368D01*
X129978134Y-96377781D01*
X129965346Y-96395024D01*
X129950930Y-96410930D01*
X129935024Y-96425346D01*
X129917781Y-96438134D01*
X129899368Y-96449170D01*
X129879962Y-96458349D01*
X129859750Y-96465581D01*
X129838926Y-96470797D01*
X129817691Y-96473947D01*
X129796250Y-96475000D01*
X129283750Y-96475000D01*
X129262309Y-96473947D01*
X129241074Y-96470797D01*
X129220250Y-96465581D01*
X129200038Y-96458349D01*
X129180632Y-96449170D01*
X129162219Y-96438134D01*
X129144976Y-96425346D01*
X129129070Y-96410930D01*
X129114654Y-96395024D01*
X129101866Y-96377781D01*
X129090830Y-96359368D01*
X129081651Y-96339962D01*
X129074419Y-96319750D01*
X129069203Y-96298926D01*
X129066053Y-96277691D01*
X129065000Y-96256250D01*
X129065000Y-95818750D01*
X129066053Y-95797309D01*
X129069203Y-95776074D01*
X129074419Y-95755250D01*
X129081651Y-95735038D01*
X129090830Y-95715632D01*
X129101866Y-95697219D01*
X129114654Y-95679976D01*
X129129070Y-95664070D01*
X129144976Y-95649654D01*
X129162219Y-95636866D01*
X129180632Y-95625830D01*
X129200038Y-95616651D01*
X129220250Y-95609419D01*
X129241074Y-95604203D01*
X129262309Y-95601053D01*
X129283750Y-95600000D01*
X129796250Y-95600000D01*
X129817691Y-95601053D01*
X129817691Y-95601053D01*
G37*
D13*
X129540000Y-96037500D03*
D12*
G36*
X129817691Y-94026053D02*
G01*
X129838926Y-94029203D01*
X129859750Y-94034419D01*
X129879962Y-94041651D01*
X129899368Y-94050830D01*
X129917781Y-94061866D01*
X129935024Y-94074654D01*
X129950930Y-94089070D01*
X129965346Y-94104976D01*
X129978134Y-94122219D01*
X129989170Y-94140632D01*
X129998349Y-94160038D01*
X130005581Y-94180250D01*
X130010797Y-94201074D01*
X130013947Y-94222309D01*
X130015000Y-94243750D01*
X130015000Y-94681250D01*
X130013947Y-94702691D01*
X130010797Y-94723926D01*
X130005581Y-94744750D01*
X129998349Y-94764962D01*
X129989170Y-94784368D01*
X129978134Y-94802781D01*
X129965346Y-94820024D01*
X129950930Y-94835930D01*
X129935024Y-94850346D01*
X129917781Y-94863134D01*
X129899368Y-94874170D01*
X129879962Y-94883349D01*
X129859750Y-94890581D01*
X129838926Y-94895797D01*
X129817691Y-94898947D01*
X129796250Y-94900000D01*
X129283750Y-94900000D01*
X129262309Y-94898947D01*
X129241074Y-94895797D01*
X129220250Y-94890581D01*
X129200038Y-94883349D01*
X129180632Y-94874170D01*
X129162219Y-94863134D01*
X129144976Y-94850346D01*
X129129070Y-94835930D01*
X129114654Y-94820024D01*
X129101866Y-94802781D01*
X129090830Y-94784368D01*
X129081651Y-94764962D01*
X129074419Y-94744750D01*
X129069203Y-94723926D01*
X129066053Y-94702691D01*
X129065000Y-94681250D01*
X129065000Y-94243750D01*
X129066053Y-94222309D01*
X129069203Y-94201074D01*
X129074419Y-94180250D01*
X129081651Y-94160038D01*
X129090830Y-94140632D01*
X129101866Y-94122219D01*
X129114654Y-94104976D01*
X129129070Y-94089070D01*
X129144976Y-94074654D01*
X129162219Y-94061866D01*
X129180632Y-94050830D01*
X129200038Y-94041651D01*
X129220250Y-94034419D01*
X129241074Y-94029203D01*
X129262309Y-94026053D01*
X129283750Y-94025000D01*
X129796250Y-94025000D01*
X129817691Y-94026053D01*
X129817691Y-94026053D01*
G37*
D13*
X129540000Y-94462500D03*
D12*
G36*
X139457691Y-101126053D02*
G01*
X139478926Y-101129203D01*
X139499750Y-101134419D01*
X139519962Y-101141651D01*
X139539368Y-101150830D01*
X139557781Y-101161866D01*
X139575024Y-101174654D01*
X139590930Y-101189070D01*
X139605346Y-101204976D01*
X139618134Y-101222219D01*
X139629170Y-101240632D01*
X139638349Y-101260038D01*
X139645581Y-101280250D01*
X139650797Y-101301074D01*
X139653947Y-101322309D01*
X139655000Y-101343750D01*
X139655000Y-101856250D01*
X139653947Y-101877691D01*
X139650797Y-101898926D01*
X139645581Y-101919750D01*
X139638349Y-101939962D01*
X139629170Y-101959368D01*
X139618134Y-101977781D01*
X139605346Y-101995024D01*
X139590930Y-102010930D01*
X139575024Y-102025346D01*
X139557781Y-102038134D01*
X139539368Y-102049170D01*
X139519962Y-102058349D01*
X139499750Y-102065581D01*
X139478926Y-102070797D01*
X139457691Y-102073947D01*
X139436250Y-102075000D01*
X138998750Y-102075000D01*
X138977309Y-102073947D01*
X138956074Y-102070797D01*
X138935250Y-102065581D01*
X138915038Y-102058349D01*
X138895632Y-102049170D01*
X138877219Y-102038134D01*
X138859976Y-102025346D01*
X138844070Y-102010930D01*
X138829654Y-101995024D01*
X138816866Y-101977781D01*
X138805830Y-101959368D01*
X138796651Y-101939962D01*
X138789419Y-101919750D01*
X138784203Y-101898926D01*
X138781053Y-101877691D01*
X138780000Y-101856250D01*
X138780000Y-101343750D01*
X138781053Y-101322309D01*
X138784203Y-101301074D01*
X138789419Y-101280250D01*
X138796651Y-101260038D01*
X138805830Y-101240632D01*
X138816866Y-101222219D01*
X138829654Y-101204976D01*
X138844070Y-101189070D01*
X138859976Y-101174654D01*
X138877219Y-101161866D01*
X138895632Y-101150830D01*
X138915038Y-101141651D01*
X138935250Y-101134419D01*
X138956074Y-101129203D01*
X138977309Y-101126053D01*
X138998750Y-101125000D01*
X139436250Y-101125000D01*
X139457691Y-101126053D01*
X139457691Y-101126053D01*
G37*
D13*
X139217500Y-101600000D03*
D12*
G36*
X137882691Y-101126053D02*
G01*
X137903926Y-101129203D01*
X137924750Y-101134419D01*
X137944962Y-101141651D01*
X137964368Y-101150830D01*
X137982781Y-101161866D01*
X138000024Y-101174654D01*
X138015930Y-101189070D01*
X138030346Y-101204976D01*
X138043134Y-101222219D01*
X138054170Y-101240632D01*
X138063349Y-101260038D01*
X138070581Y-101280250D01*
X138075797Y-101301074D01*
X138078947Y-101322309D01*
X138080000Y-101343750D01*
X138080000Y-101856250D01*
X138078947Y-101877691D01*
X138075797Y-101898926D01*
X138070581Y-101919750D01*
X138063349Y-101939962D01*
X138054170Y-101959368D01*
X138043134Y-101977781D01*
X138030346Y-101995024D01*
X138015930Y-102010930D01*
X138000024Y-102025346D01*
X137982781Y-102038134D01*
X137964368Y-102049170D01*
X137944962Y-102058349D01*
X137924750Y-102065581D01*
X137903926Y-102070797D01*
X137882691Y-102073947D01*
X137861250Y-102075000D01*
X137423750Y-102075000D01*
X137402309Y-102073947D01*
X137381074Y-102070797D01*
X137360250Y-102065581D01*
X137340038Y-102058349D01*
X137320632Y-102049170D01*
X137302219Y-102038134D01*
X137284976Y-102025346D01*
X137269070Y-102010930D01*
X137254654Y-101995024D01*
X137241866Y-101977781D01*
X137230830Y-101959368D01*
X137221651Y-101939962D01*
X137214419Y-101919750D01*
X137209203Y-101898926D01*
X137206053Y-101877691D01*
X137205000Y-101856250D01*
X137205000Y-101343750D01*
X137206053Y-101322309D01*
X137209203Y-101301074D01*
X137214419Y-101280250D01*
X137221651Y-101260038D01*
X137230830Y-101240632D01*
X137241866Y-101222219D01*
X137254654Y-101204976D01*
X137269070Y-101189070D01*
X137284976Y-101174654D01*
X137302219Y-101161866D01*
X137320632Y-101150830D01*
X137340038Y-101141651D01*
X137360250Y-101134419D01*
X137381074Y-101129203D01*
X137402309Y-101126053D01*
X137423750Y-101125000D01*
X137861250Y-101125000D01*
X137882691Y-101126053D01*
X137882691Y-101126053D01*
G37*
D13*
X137642500Y-101600000D03*
D12*
G36*
X137299703Y-84790722D02*
G01*
X137314264Y-84792882D01*
X137328543Y-84796459D01*
X137342403Y-84801418D01*
X137355710Y-84807712D01*
X137368336Y-84815280D01*
X137380159Y-84824048D01*
X137391066Y-84833934D01*
X137400952Y-84844841D01*
X137409720Y-84856664D01*
X137417288Y-84869290D01*
X137423582Y-84882597D01*
X137428541Y-84896457D01*
X137432118Y-84910736D01*
X137434278Y-84925297D01*
X137435000Y-84940000D01*
X137435000Y-85240000D01*
X137434278Y-85254703D01*
X137432118Y-85269264D01*
X137428541Y-85283543D01*
X137423582Y-85297403D01*
X137417288Y-85310710D01*
X137409720Y-85323336D01*
X137400952Y-85335159D01*
X137391066Y-85346066D01*
X137380159Y-85355952D01*
X137368336Y-85364720D01*
X137355710Y-85372288D01*
X137342403Y-85378582D01*
X137328543Y-85383541D01*
X137314264Y-85387118D01*
X137299703Y-85389278D01*
X137285000Y-85390000D01*
X135635000Y-85390000D01*
X135620297Y-85389278D01*
X135605736Y-85387118D01*
X135591457Y-85383541D01*
X135577597Y-85378582D01*
X135564290Y-85372288D01*
X135551664Y-85364720D01*
X135539841Y-85355952D01*
X135528934Y-85346066D01*
X135519048Y-85335159D01*
X135510280Y-85323336D01*
X135502712Y-85310710D01*
X135496418Y-85297403D01*
X135491459Y-85283543D01*
X135487882Y-85269264D01*
X135485722Y-85254703D01*
X135485000Y-85240000D01*
X135485000Y-84940000D01*
X135485722Y-84925297D01*
X135487882Y-84910736D01*
X135491459Y-84896457D01*
X135496418Y-84882597D01*
X135502712Y-84869290D01*
X135510280Y-84856664D01*
X135519048Y-84844841D01*
X135528934Y-84833934D01*
X135539841Y-84824048D01*
X135551664Y-84815280D01*
X135564290Y-84807712D01*
X135577597Y-84801418D01*
X135591457Y-84796459D01*
X135605736Y-84792882D01*
X135620297Y-84790722D01*
X135635000Y-84790000D01*
X137285000Y-84790000D01*
X137299703Y-84790722D01*
X137299703Y-84790722D01*
G37*
D14*
X136460000Y-85090000D03*
D12*
G36*
X137299703Y-86060722D02*
G01*
X137314264Y-86062882D01*
X137328543Y-86066459D01*
X137342403Y-86071418D01*
X137355710Y-86077712D01*
X137368336Y-86085280D01*
X137380159Y-86094048D01*
X137391066Y-86103934D01*
X137400952Y-86114841D01*
X137409720Y-86126664D01*
X137417288Y-86139290D01*
X137423582Y-86152597D01*
X137428541Y-86166457D01*
X137432118Y-86180736D01*
X137434278Y-86195297D01*
X137435000Y-86210000D01*
X137435000Y-86510000D01*
X137434278Y-86524703D01*
X137432118Y-86539264D01*
X137428541Y-86553543D01*
X137423582Y-86567403D01*
X137417288Y-86580710D01*
X137409720Y-86593336D01*
X137400952Y-86605159D01*
X137391066Y-86616066D01*
X137380159Y-86625952D01*
X137368336Y-86634720D01*
X137355710Y-86642288D01*
X137342403Y-86648582D01*
X137328543Y-86653541D01*
X137314264Y-86657118D01*
X137299703Y-86659278D01*
X137285000Y-86660000D01*
X135635000Y-86660000D01*
X135620297Y-86659278D01*
X135605736Y-86657118D01*
X135591457Y-86653541D01*
X135577597Y-86648582D01*
X135564290Y-86642288D01*
X135551664Y-86634720D01*
X135539841Y-86625952D01*
X135528934Y-86616066D01*
X135519048Y-86605159D01*
X135510280Y-86593336D01*
X135502712Y-86580710D01*
X135496418Y-86567403D01*
X135491459Y-86553543D01*
X135487882Y-86539264D01*
X135485722Y-86524703D01*
X135485000Y-86510000D01*
X135485000Y-86210000D01*
X135485722Y-86195297D01*
X135487882Y-86180736D01*
X135491459Y-86166457D01*
X135496418Y-86152597D01*
X135502712Y-86139290D01*
X135510280Y-86126664D01*
X135519048Y-86114841D01*
X135528934Y-86103934D01*
X135539841Y-86094048D01*
X135551664Y-86085280D01*
X135564290Y-86077712D01*
X135577597Y-86071418D01*
X135591457Y-86066459D01*
X135605736Y-86062882D01*
X135620297Y-86060722D01*
X135635000Y-86060000D01*
X137285000Y-86060000D01*
X137299703Y-86060722D01*
X137299703Y-86060722D01*
G37*
D14*
X136460000Y-86360000D03*
D12*
G36*
X137299703Y-87330722D02*
G01*
X137314264Y-87332882D01*
X137328543Y-87336459D01*
X137342403Y-87341418D01*
X137355710Y-87347712D01*
X137368336Y-87355280D01*
X137380159Y-87364048D01*
X137391066Y-87373934D01*
X137400952Y-87384841D01*
X137409720Y-87396664D01*
X137417288Y-87409290D01*
X137423582Y-87422597D01*
X137428541Y-87436457D01*
X137432118Y-87450736D01*
X137434278Y-87465297D01*
X137435000Y-87480000D01*
X137435000Y-87780000D01*
X137434278Y-87794703D01*
X137432118Y-87809264D01*
X137428541Y-87823543D01*
X137423582Y-87837403D01*
X137417288Y-87850710D01*
X137409720Y-87863336D01*
X137400952Y-87875159D01*
X137391066Y-87886066D01*
X137380159Y-87895952D01*
X137368336Y-87904720D01*
X137355710Y-87912288D01*
X137342403Y-87918582D01*
X137328543Y-87923541D01*
X137314264Y-87927118D01*
X137299703Y-87929278D01*
X137285000Y-87930000D01*
X135635000Y-87930000D01*
X135620297Y-87929278D01*
X135605736Y-87927118D01*
X135591457Y-87923541D01*
X135577597Y-87918582D01*
X135564290Y-87912288D01*
X135551664Y-87904720D01*
X135539841Y-87895952D01*
X135528934Y-87886066D01*
X135519048Y-87875159D01*
X135510280Y-87863336D01*
X135502712Y-87850710D01*
X135496418Y-87837403D01*
X135491459Y-87823543D01*
X135487882Y-87809264D01*
X135485722Y-87794703D01*
X135485000Y-87780000D01*
X135485000Y-87480000D01*
X135485722Y-87465297D01*
X135487882Y-87450736D01*
X135491459Y-87436457D01*
X135496418Y-87422597D01*
X135502712Y-87409290D01*
X135510280Y-87396664D01*
X135519048Y-87384841D01*
X135528934Y-87373934D01*
X135539841Y-87364048D01*
X135551664Y-87355280D01*
X135564290Y-87347712D01*
X135577597Y-87341418D01*
X135591457Y-87336459D01*
X135605736Y-87332882D01*
X135620297Y-87330722D01*
X135635000Y-87330000D01*
X137285000Y-87330000D01*
X137299703Y-87330722D01*
X137299703Y-87330722D01*
G37*
D14*
X136460000Y-87630000D03*
D12*
G36*
X137299703Y-88600722D02*
G01*
X137314264Y-88602882D01*
X137328543Y-88606459D01*
X137342403Y-88611418D01*
X137355710Y-88617712D01*
X137368336Y-88625280D01*
X137380159Y-88634048D01*
X137391066Y-88643934D01*
X137400952Y-88654841D01*
X137409720Y-88666664D01*
X137417288Y-88679290D01*
X137423582Y-88692597D01*
X137428541Y-88706457D01*
X137432118Y-88720736D01*
X137434278Y-88735297D01*
X137435000Y-88750000D01*
X137435000Y-89050000D01*
X137434278Y-89064703D01*
X137432118Y-89079264D01*
X137428541Y-89093543D01*
X137423582Y-89107403D01*
X137417288Y-89120710D01*
X137409720Y-89133336D01*
X137400952Y-89145159D01*
X137391066Y-89156066D01*
X137380159Y-89165952D01*
X137368336Y-89174720D01*
X137355710Y-89182288D01*
X137342403Y-89188582D01*
X137328543Y-89193541D01*
X137314264Y-89197118D01*
X137299703Y-89199278D01*
X137285000Y-89200000D01*
X135635000Y-89200000D01*
X135620297Y-89199278D01*
X135605736Y-89197118D01*
X135591457Y-89193541D01*
X135577597Y-89188582D01*
X135564290Y-89182288D01*
X135551664Y-89174720D01*
X135539841Y-89165952D01*
X135528934Y-89156066D01*
X135519048Y-89145159D01*
X135510280Y-89133336D01*
X135502712Y-89120710D01*
X135496418Y-89107403D01*
X135491459Y-89093543D01*
X135487882Y-89079264D01*
X135485722Y-89064703D01*
X135485000Y-89050000D01*
X135485000Y-88750000D01*
X135485722Y-88735297D01*
X135487882Y-88720736D01*
X135491459Y-88706457D01*
X135496418Y-88692597D01*
X135502712Y-88679290D01*
X135510280Y-88666664D01*
X135519048Y-88654841D01*
X135528934Y-88643934D01*
X135539841Y-88634048D01*
X135551664Y-88625280D01*
X135564290Y-88617712D01*
X135577597Y-88611418D01*
X135591457Y-88606459D01*
X135605736Y-88602882D01*
X135620297Y-88600722D01*
X135635000Y-88600000D01*
X137285000Y-88600000D01*
X137299703Y-88600722D01*
X137299703Y-88600722D01*
G37*
D14*
X136460000Y-88900000D03*
D12*
G36*
X132349703Y-88600722D02*
G01*
X132364264Y-88602882D01*
X132378543Y-88606459D01*
X132392403Y-88611418D01*
X132405710Y-88617712D01*
X132418336Y-88625280D01*
X132430159Y-88634048D01*
X132441066Y-88643934D01*
X132450952Y-88654841D01*
X132459720Y-88666664D01*
X132467288Y-88679290D01*
X132473582Y-88692597D01*
X132478541Y-88706457D01*
X132482118Y-88720736D01*
X132484278Y-88735297D01*
X132485000Y-88750000D01*
X132485000Y-89050000D01*
X132484278Y-89064703D01*
X132482118Y-89079264D01*
X132478541Y-89093543D01*
X132473582Y-89107403D01*
X132467288Y-89120710D01*
X132459720Y-89133336D01*
X132450952Y-89145159D01*
X132441066Y-89156066D01*
X132430159Y-89165952D01*
X132418336Y-89174720D01*
X132405710Y-89182288D01*
X132392403Y-89188582D01*
X132378543Y-89193541D01*
X132364264Y-89197118D01*
X132349703Y-89199278D01*
X132335000Y-89200000D01*
X130685000Y-89200000D01*
X130670297Y-89199278D01*
X130655736Y-89197118D01*
X130641457Y-89193541D01*
X130627597Y-89188582D01*
X130614290Y-89182288D01*
X130601664Y-89174720D01*
X130589841Y-89165952D01*
X130578934Y-89156066D01*
X130569048Y-89145159D01*
X130560280Y-89133336D01*
X130552712Y-89120710D01*
X130546418Y-89107403D01*
X130541459Y-89093543D01*
X130537882Y-89079264D01*
X130535722Y-89064703D01*
X130535000Y-89050000D01*
X130535000Y-88750000D01*
X130535722Y-88735297D01*
X130537882Y-88720736D01*
X130541459Y-88706457D01*
X130546418Y-88692597D01*
X130552712Y-88679290D01*
X130560280Y-88666664D01*
X130569048Y-88654841D01*
X130578934Y-88643934D01*
X130589841Y-88634048D01*
X130601664Y-88625280D01*
X130614290Y-88617712D01*
X130627597Y-88611418D01*
X130641457Y-88606459D01*
X130655736Y-88602882D01*
X130670297Y-88600722D01*
X130685000Y-88600000D01*
X132335000Y-88600000D01*
X132349703Y-88600722D01*
X132349703Y-88600722D01*
G37*
D14*
X131510000Y-88900000D03*
D12*
G36*
X132349703Y-87330722D02*
G01*
X132364264Y-87332882D01*
X132378543Y-87336459D01*
X132392403Y-87341418D01*
X132405710Y-87347712D01*
X132418336Y-87355280D01*
X132430159Y-87364048D01*
X132441066Y-87373934D01*
X132450952Y-87384841D01*
X132459720Y-87396664D01*
X132467288Y-87409290D01*
X132473582Y-87422597D01*
X132478541Y-87436457D01*
X132482118Y-87450736D01*
X132484278Y-87465297D01*
X132485000Y-87480000D01*
X132485000Y-87780000D01*
X132484278Y-87794703D01*
X132482118Y-87809264D01*
X132478541Y-87823543D01*
X132473582Y-87837403D01*
X132467288Y-87850710D01*
X132459720Y-87863336D01*
X132450952Y-87875159D01*
X132441066Y-87886066D01*
X132430159Y-87895952D01*
X132418336Y-87904720D01*
X132405710Y-87912288D01*
X132392403Y-87918582D01*
X132378543Y-87923541D01*
X132364264Y-87927118D01*
X132349703Y-87929278D01*
X132335000Y-87930000D01*
X130685000Y-87930000D01*
X130670297Y-87929278D01*
X130655736Y-87927118D01*
X130641457Y-87923541D01*
X130627597Y-87918582D01*
X130614290Y-87912288D01*
X130601664Y-87904720D01*
X130589841Y-87895952D01*
X130578934Y-87886066D01*
X130569048Y-87875159D01*
X130560280Y-87863336D01*
X130552712Y-87850710D01*
X130546418Y-87837403D01*
X130541459Y-87823543D01*
X130537882Y-87809264D01*
X130535722Y-87794703D01*
X130535000Y-87780000D01*
X130535000Y-87480000D01*
X130535722Y-87465297D01*
X130537882Y-87450736D01*
X130541459Y-87436457D01*
X130546418Y-87422597D01*
X130552712Y-87409290D01*
X130560280Y-87396664D01*
X130569048Y-87384841D01*
X130578934Y-87373934D01*
X130589841Y-87364048D01*
X130601664Y-87355280D01*
X130614290Y-87347712D01*
X130627597Y-87341418D01*
X130641457Y-87336459D01*
X130655736Y-87332882D01*
X130670297Y-87330722D01*
X130685000Y-87330000D01*
X132335000Y-87330000D01*
X132349703Y-87330722D01*
X132349703Y-87330722D01*
G37*
D14*
X131510000Y-87630000D03*
D12*
G36*
X132349703Y-86060722D02*
G01*
X132364264Y-86062882D01*
X132378543Y-86066459D01*
X132392403Y-86071418D01*
X132405710Y-86077712D01*
X132418336Y-86085280D01*
X132430159Y-86094048D01*
X132441066Y-86103934D01*
X132450952Y-86114841D01*
X132459720Y-86126664D01*
X132467288Y-86139290D01*
X132473582Y-86152597D01*
X132478541Y-86166457D01*
X132482118Y-86180736D01*
X132484278Y-86195297D01*
X132485000Y-86210000D01*
X132485000Y-86510000D01*
X132484278Y-86524703D01*
X132482118Y-86539264D01*
X132478541Y-86553543D01*
X132473582Y-86567403D01*
X132467288Y-86580710D01*
X132459720Y-86593336D01*
X132450952Y-86605159D01*
X132441066Y-86616066D01*
X132430159Y-86625952D01*
X132418336Y-86634720D01*
X132405710Y-86642288D01*
X132392403Y-86648582D01*
X132378543Y-86653541D01*
X132364264Y-86657118D01*
X132349703Y-86659278D01*
X132335000Y-86660000D01*
X130685000Y-86660000D01*
X130670297Y-86659278D01*
X130655736Y-86657118D01*
X130641457Y-86653541D01*
X130627597Y-86648582D01*
X130614290Y-86642288D01*
X130601664Y-86634720D01*
X130589841Y-86625952D01*
X130578934Y-86616066D01*
X130569048Y-86605159D01*
X130560280Y-86593336D01*
X130552712Y-86580710D01*
X130546418Y-86567403D01*
X130541459Y-86553543D01*
X130537882Y-86539264D01*
X130535722Y-86524703D01*
X130535000Y-86510000D01*
X130535000Y-86210000D01*
X130535722Y-86195297D01*
X130537882Y-86180736D01*
X130541459Y-86166457D01*
X130546418Y-86152597D01*
X130552712Y-86139290D01*
X130560280Y-86126664D01*
X130569048Y-86114841D01*
X130578934Y-86103934D01*
X130589841Y-86094048D01*
X130601664Y-86085280D01*
X130614290Y-86077712D01*
X130627597Y-86071418D01*
X130641457Y-86066459D01*
X130655736Y-86062882D01*
X130670297Y-86060722D01*
X130685000Y-86060000D01*
X132335000Y-86060000D01*
X132349703Y-86060722D01*
X132349703Y-86060722D01*
G37*
D14*
X131510000Y-86360000D03*
D12*
G36*
X132349703Y-84790722D02*
G01*
X132364264Y-84792882D01*
X132378543Y-84796459D01*
X132392403Y-84801418D01*
X132405710Y-84807712D01*
X132418336Y-84815280D01*
X132430159Y-84824048D01*
X132441066Y-84833934D01*
X132450952Y-84844841D01*
X132459720Y-84856664D01*
X132467288Y-84869290D01*
X132473582Y-84882597D01*
X132478541Y-84896457D01*
X132482118Y-84910736D01*
X132484278Y-84925297D01*
X132485000Y-84940000D01*
X132485000Y-85240000D01*
X132484278Y-85254703D01*
X132482118Y-85269264D01*
X132478541Y-85283543D01*
X132473582Y-85297403D01*
X132467288Y-85310710D01*
X132459720Y-85323336D01*
X132450952Y-85335159D01*
X132441066Y-85346066D01*
X132430159Y-85355952D01*
X132418336Y-85364720D01*
X132405710Y-85372288D01*
X132392403Y-85378582D01*
X132378543Y-85383541D01*
X132364264Y-85387118D01*
X132349703Y-85389278D01*
X132335000Y-85390000D01*
X130685000Y-85390000D01*
X130670297Y-85389278D01*
X130655736Y-85387118D01*
X130641457Y-85383541D01*
X130627597Y-85378582D01*
X130614290Y-85372288D01*
X130601664Y-85364720D01*
X130589841Y-85355952D01*
X130578934Y-85346066D01*
X130569048Y-85335159D01*
X130560280Y-85323336D01*
X130552712Y-85310710D01*
X130546418Y-85297403D01*
X130541459Y-85283543D01*
X130537882Y-85269264D01*
X130535722Y-85254703D01*
X130535000Y-85240000D01*
X130535000Y-84940000D01*
X130535722Y-84925297D01*
X130537882Y-84910736D01*
X130541459Y-84896457D01*
X130546418Y-84882597D01*
X130552712Y-84869290D01*
X130560280Y-84856664D01*
X130569048Y-84844841D01*
X130578934Y-84833934D01*
X130589841Y-84824048D01*
X130601664Y-84815280D01*
X130614290Y-84807712D01*
X130627597Y-84801418D01*
X130641457Y-84796459D01*
X130655736Y-84792882D01*
X130670297Y-84790722D01*
X130685000Y-84790000D01*
X132335000Y-84790000D01*
X132349703Y-84790722D01*
X132349703Y-84790722D01*
G37*
D14*
X131510000Y-85090000D03*
M02*
