G04 #@! TF.GenerationSoftware,KiCad,Pcbnew,5.1.4-e60b266~84~ubuntu18.04.1*
G04 #@! TF.CreationDate,2019-10-08T20:02:31-04:00*
G04 #@! TF.ProjectId,TSAL-driver,5453414c-2d64-4726-9976-65722e6b6963,rev?*
G04 #@! TF.SameCoordinates,Original*
G04 #@! TF.FileFunction,Copper,L1,Top*
G04 #@! TF.FilePolarity,Positive*
%FSLAX46Y46*%
G04 Gerber Fmt 4.6, Leading zero omitted, Abs format (unit mm)*
G04 Created by KiCad (PCBNEW 5.1.4-e60b266~84~ubuntu18.04.1) date 2019-10-08 20:02:31*
%MOMM*%
%LPD*%
G04 APERTURE LIST*
%ADD10R,2.000000X1.500000*%
%ADD11R,2.000000X3.800000*%
%ADD12C,2.100000*%
%ADD13C,0.100000*%
%ADD14C,0.875000*%
%ADD15C,0.600000*%
%ADD16C,1.150000*%
%ADD17R,1.150000X1.150000*%
%ADD18C,1.270000*%
%ADD19C,0.635000*%
%ADD20C,0.381000*%
%ADD21C,0.254000*%
G04 APERTURE END LIST*
D10*
X132105000Y-94220000D03*
X132105000Y-98820000D03*
X132105000Y-96520000D03*
D11*
X138405000Y-96520000D03*
D12*
X139700000Y-106680000D03*
X139700000Y-111760000D03*
X139700000Y-60325000D03*
X139700000Y-65405000D03*
X127635000Y-106680000D03*
X127635000Y-111760000D03*
X127635000Y-60325000D03*
X127635000Y-65405000D03*
D13*
G36*
X135342691Y-82711053D02*
G01*
X135363926Y-82714203D01*
X135384750Y-82719419D01*
X135404962Y-82726651D01*
X135424368Y-82735830D01*
X135442781Y-82746866D01*
X135460024Y-82759654D01*
X135475930Y-82774070D01*
X135490346Y-82789976D01*
X135503134Y-82807219D01*
X135514170Y-82825632D01*
X135523349Y-82845038D01*
X135530581Y-82865250D01*
X135535797Y-82886074D01*
X135538947Y-82907309D01*
X135540000Y-82928750D01*
X135540000Y-83441250D01*
X135538947Y-83462691D01*
X135535797Y-83483926D01*
X135530581Y-83504750D01*
X135523349Y-83524962D01*
X135514170Y-83544368D01*
X135503134Y-83562781D01*
X135490346Y-83580024D01*
X135475930Y-83595930D01*
X135460024Y-83610346D01*
X135442781Y-83623134D01*
X135424368Y-83634170D01*
X135404962Y-83643349D01*
X135384750Y-83650581D01*
X135363926Y-83655797D01*
X135342691Y-83658947D01*
X135321250Y-83660000D01*
X134883750Y-83660000D01*
X134862309Y-83658947D01*
X134841074Y-83655797D01*
X134820250Y-83650581D01*
X134800038Y-83643349D01*
X134780632Y-83634170D01*
X134762219Y-83623134D01*
X134744976Y-83610346D01*
X134729070Y-83595930D01*
X134714654Y-83580024D01*
X134701866Y-83562781D01*
X134690830Y-83544368D01*
X134681651Y-83524962D01*
X134674419Y-83504750D01*
X134669203Y-83483926D01*
X134666053Y-83462691D01*
X134665000Y-83441250D01*
X134665000Y-82928750D01*
X134666053Y-82907309D01*
X134669203Y-82886074D01*
X134674419Y-82865250D01*
X134681651Y-82845038D01*
X134690830Y-82825632D01*
X134701866Y-82807219D01*
X134714654Y-82789976D01*
X134729070Y-82774070D01*
X134744976Y-82759654D01*
X134762219Y-82746866D01*
X134780632Y-82735830D01*
X134800038Y-82726651D01*
X134820250Y-82719419D01*
X134841074Y-82714203D01*
X134862309Y-82711053D01*
X134883750Y-82710000D01*
X135321250Y-82710000D01*
X135342691Y-82711053D01*
X135342691Y-82711053D01*
G37*
D14*
X135102500Y-83185000D03*
D13*
G36*
X136917691Y-82711053D02*
G01*
X136938926Y-82714203D01*
X136959750Y-82719419D01*
X136979962Y-82726651D01*
X136999368Y-82735830D01*
X137017781Y-82746866D01*
X137035024Y-82759654D01*
X137050930Y-82774070D01*
X137065346Y-82789976D01*
X137078134Y-82807219D01*
X137089170Y-82825632D01*
X137098349Y-82845038D01*
X137105581Y-82865250D01*
X137110797Y-82886074D01*
X137113947Y-82907309D01*
X137115000Y-82928750D01*
X137115000Y-83441250D01*
X137113947Y-83462691D01*
X137110797Y-83483926D01*
X137105581Y-83504750D01*
X137098349Y-83524962D01*
X137089170Y-83544368D01*
X137078134Y-83562781D01*
X137065346Y-83580024D01*
X137050930Y-83595930D01*
X137035024Y-83610346D01*
X137017781Y-83623134D01*
X136999368Y-83634170D01*
X136979962Y-83643349D01*
X136959750Y-83650581D01*
X136938926Y-83655797D01*
X136917691Y-83658947D01*
X136896250Y-83660000D01*
X136458750Y-83660000D01*
X136437309Y-83658947D01*
X136416074Y-83655797D01*
X136395250Y-83650581D01*
X136375038Y-83643349D01*
X136355632Y-83634170D01*
X136337219Y-83623134D01*
X136319976Y-83610346D01*
X136304070Y-83595930D01*
X136289654Y-83580024D01*
X136276866Y-83562781D01*
X136265830Y-83544368D01*
X136256651Y-83524962D01*
X136249419Y-83504750D01*
X136244203Y-83483926D01*
X136241053Y-83462691D01*
X136240000Y-83441250D01*
X136240000Y-82928750D01*
X136241053Y-82907309D01*
X136244203Y-82886074D01*
X136249419Y-82865250D01*
X136256651Y-82845038D01*
X136265830Y-82825632D01*
X136276866Y-82807219D01*
X136289654Y-82789976D01*
X136304070Y-82774070D01*
X136319976Y-82759654D01*
X136337219Y-82746866D01*
X136355632Y-82735830D01*
X136375038Y-82726651D01*
X136395250Y-82719419D01*
X136416074Y-82714203D01*
X136437309Y-82711053D01*
X136458750Y-82710000D01*
X136896250Y-82710000D01*
X136917691Y-82711053D01*
X136917691Y-82711053D01*
G37*
D14*
X136677500Y-83185000D03*
D13*
G36*
X132167691Y-101126053D02*
G01*
X132188926Y-101129203D01*
X132209750Y-101134419D01*
X132229962Y-101141651D01*
X132249368Y-101150830D01*
X132267781Y-101161866D01*
X132285024Y-101174654D01*
X132300930Y-101189070D01*
X132315346Y-101204976D01*
X132328134Y-101222219D01*
X132339170Y-101240632D01*
X132348349Y-101260038D01*
X132355581Y-101280250D01*
X132360797Y-101301074D01*
X132363947Y-101322309D01*
X132365000Y-101343750D01*
X132365000Y-101856250D01*
X132363947Y-101877691D01*
X132360797Y-101898926D01*
X132355581Y-101919750D01*
X132348349Y-101939962D01*
X132339170Y-101959368D01*
X132328134Y-101977781D01*
X132315346Y-101995024D01*
X132300930Y-102010930D01*
X132285024Y-102025346D01*
X132267781Y-102038134D01*
X132249368Y-102049170D01*
X132229962Y-102058349D01*
X132209750Y-102065581D01*
X132188926Y-102070797D01*
X132167691Y-102073947D01*
X132146250Y-102075000D01*
X131708750Y-102075000D01*
X131687309Y-102073947D01*
X131666074Y-102070797D01*
X131645250Y-102065581D01*
X131625038Y-102058349D01*
X131605632Y-102049170D01*
X131587219Y-102038134D01*
X131569976Y-102025346D01*
X131554070Y-102010930D01*
X131539654Y-101995024D01*
X131526866Y-101977781D01*
X131515830Y-101959368D01*
X131506651Y-101939962D01*
X131499419Y-101919750D01*
X131494203Y-101898926D01*
X131491053Y-101877691D01*
X131490000Y-101856250D01*
X131490000Y-101343750D01*
X131491053Y-101322309D01*
X131494203Y-101301074D01*
X131499419Y-101280250D01*
X131506651Y-101260038D01*
X131515830Y-101240632D01*
X131526866Y-101222219D01*
X131539654Y-101204976D01*
X131554070Y-101189070D01*
X131569976Y-101174654D01*
X131587219Y-101161866D01*
X131605632Y-101150830D01*
X131625038Y-101141651D01*
X131645250Y-101134419D01*
X131666074Y-101129203D01*
X131687309Y-101126053D01*
X131708750Y-101125000D01*
X132146250Y-101125000D01*
X132167691Y-101126053D01*
X132167691Y-101126053D01*
G37*
D14*
X131927500Y-101600000D03*
D13*
G36*
X133742691Y-101126053D02*
G01*
X133763926Y-101129203D01*
X133784750Y-101134419D01*
X133804962Y-101141651D01*
X133824368Y-101150830D01*
X133842781Y-101161866D01*
X133860024Y-101174654D01*
X133875930Y-101189070D01*
X133890346Y-101204976D01*
X133903134Y-101222219D01*
X133914170Y-101240632D01*
X133923349Y-101260038D01*
X133930581Y-101280250D01*
X133935797Y-101301074D01*
X133938947Y-101322309D01*
X133940000Y-101343750D01*
X133940000Y-101856250D01*
X133938947Y-101877691D01*
X133935797Y-101898926D01*
X133930581Y-101919750D01*
X133923349Y-101939962D01*
X133914170Y-101959368D01*
X133903134Y-101977781D01*
X133890346Y-101995024D01*
X133875930Y-102010930D01*
X133860024Y-102025346D01*
X133842781Y-102038134D01*
X133824368Y-102049170D01*
X133804962Y-102058349D01*
X133784750Y-102065581D01*
X133763926Y-102070797D01*
X133742691Y-102073947D01*
X133721250Y-102075000D01*
X133283750Y-102075000D01*
X133262309Y-102073947D01*
X133241074Y-102070797D01*
X133220250Y-102065581D01*
X133200038Y-102058349D01*
X133180632Y-102049170D01*
X133162219Y-102038134D01*
X133144976Y-102025346D01*
X133129070Y-102010930D01*
X133114654Y-101995024D01*
X133101866Y-101977781D01*
X133090830Y-101959368D01*
X133081651Y-101939962D01*
X133074419Y-101919750D01*
X133069203Y-101898926D01*
X133066053Y-101877691D01*
X133065000Y-101856250D01*
X133065000Y-101343750D01*
X133066053Y-101322309D01*
X133069203Y-101301074D01*
X133074419Y-101280250D01*
X133081651Y-101260038D01*
X133090830Y-101240632D01*
X133101866Y-101222219D01*
X133114654Y-101204976D01*
X133129070Y-101189070D01*
X133144976Y-101174654D01*
X133162219Y-101161866D01*
X133180632Y-101150830D01*
X133200038Y-101141651D01*
X133220250Y-101134419D01*
X133241074Y-101129203D01*
X133262309Y-101126053D01*
X133283750Y-101125000D01*
X133721250Y-101125000D01*
X133742691Y-101126053D01*
X133742691Y-101126053D01*
G37*
D14*
X133502500Y-101600000D03*
D13*
G36*
X129817691Y-95601053D02*
G01*
X129838926Y-95604203D01*
X129859750Y-95609419D01*
X129879962Y-95616651D01*
X129899368Y-95625830D01*
X129917781Y-95636866D01*
X129935024Y-95649654D01*
X129950930Y-95664070D01*
X129965346Y-95679976D01*
X129978134Y-95697219D01*
X129989170Y-95715632D01*
X129998349Y-95735038D01*
X130005581Y-95755250D01*
X130010797Y-95776074D01*
X130013947Y-95797309D01*
X130015000Y-95818750D01*
X130015000Y-96256250D01*
X130013947Y-96277691D01*
X130010797Y-96298926D01*
X130005581Y-96319750D01*
X129998349Y-96339962D01*
X129989170Y-96359368D01*
X129978134Y-96377781D01*
X129965346Y-96395024D01*
X129950930Y-96410930D01*
X129935024Y-96425346D01*
X129917781Y-96438134D01*
X129899368Y-96449170D01*
X129879962Y-96458349D01*
X129859750Y-96465581D01*
X129838926Y-96470797D01*
X129817691Y-96473947D01*
X129796250Y-96475000D01*
X129283750Y-96475000D01*
X129262309Y-96473947D01*
X129241074Y-96470797D01*
X129220250Y-96465581D01*
X129200038Y-96458349D01*
X129180632Y-96449170D01*
X129162219Y-96438134D01*
X129144976Y-96425346D01*
X129129070Y-96410930D01*
X129114654Y-96395024D01*
X129101866Y-96377781D01*
X129090830Y-96359368D01*
X129081651Y-96339962D01*
X129074419Y-96319750D01*
X129069203Y-96298926D01*
X129066053Y-96277691D01*
X129065000Y-96256250D01*
X129065000Y-95818750D01*
X129066053Y-95797309D01*
X129069203Y-95776074D01*
X129074419Y-95755250D01*
X129081651Y-95735038D01*
X129090830Y-95715632D01*
X129101866Y-95697219D01*
X129114654Y-95679976D01*
X129129070Y-95664070D01*
X129144976Y-95649654D01*
X129162219Y-95636866D01*
X129180632Y-95625830D01*
X129200038Y-95616651D01*
X129220250Y-95609419D01*
X129241074Y-95604203D01*
X129262309Y-95601053D01*
X129283750Y-95600000D01*
X129796250Y-95600000D01*
X129817691Y-95601053D01*
X129817691Y-95601053D01*
G37*
D14*
X129540000Y-96037500D03*
D13*
G36*
X129817691Y-94026053D02*
G01*
X129838926Y-94029203D01*
X129859750Y-94034419D01*
X129879962Y-94041651D01*
X129899368Y-94050830D01*
X129917781Y-94061866D01*
X129935024Y-94074654D01*
X129950930Y-94089070D01*
X129965346Y-94104976D01*
X129978134Y-94122219D01*
X129989170Y-94140632D01*
X129998349Y-94160038D01*
X130005581Y-94180250D01*
X130010797Y-94201074D01*
X130013947Y-94222309D01*
X130015000Y-94243750D01*
X130015000Y-94681250D01*
X130013947Y-94702691D01*
X130010797Y-94723926D01*
X130005581Y-94744750D01*
X129998349Y-94764962D01*
X129989170Y-94784368D01*
X129978134Y-94802781D01*
X129965346Y-94820024D01*
X129950930Y-94835930D01*
X129935024Y-94850346D01*
X129917781Y-94863134D01*
X129899368Y-94874170D01*
X129879962Y-94883349D01*
X129859750Y-94890581D01*
X129838926Y-94895797D01*
X129817691Y-94898947D01*
X129796250Y-94900000D01*
X129283750Y-94900000D01*
X129262309Y-94898947D01*
X129241074Y-94895797D01*
X129220250Y-94890581D01*
X129200038Y-94883349D01*
X129180632Y-94874170D01*
X129162219Y-94863134D01*
X129144976Y-94850346D01*
X129129070Y-94835930D01*
X129114654Y-94820024D01*
X129101866Y-94802781D01*
X129090830Y-94784368D01*
X129081651Y-94764962D01*
X129074419Y-94744750D01*
X129069203Y-94723926D01*
X129066053Y-94702691D01*
X129065000Y-94681250D01*
X129065000Y-94243750D01*
X129066053Y-94222309D01*
X129069203Y-94201074D01*
X129074419Y-94180250D01*
X129081651Y-94160038D01*
X129090830Y-94140632D01*
X129101866Y-94122219D01*
X129114654Y-94104976D01*
X129129070Y-94089070D01*
X129144976Y-94074654D01*
X129162219Y-94061866D01*
X129180632Y-94050830D01*
X129200038Y-94041651D01*
X129220250Y-94034419D01*
X129241074Y-94029203D01*
X129262309Y-94026053D01*
X129283750Y-94025000D01*
X129796250Y-94025000D01*
X129817691Y-94026053D01*
X129817691Y-94026053D01*
G37*
D14*
X129540000Y-94462500D03*
D13*
G36*
X139457691Y-101126053D02*
G01*
X139478926Y-101129203D01*
X139499750Y-101134419D01*
X139519962Y-101141651D01*
X139539368Y-101150830D01*
X139557781Y-101161866D01*
X139575024Y-101174654D01*
X139590930Y-101189070D01*
X139605346Y-101204976D01*
X139618134Y-101222219D01*
X139629170Y-101240632D01*
X139638349Y-101260038D01*
X139645581Y-101280250D01*
X139650797Y-101301074D01*
X139653947Y-101322309D01*
X139655000Y-101343750D01*
X139655000Y-101856250D01*
X139653947Y-101877691D01*
X139650797Y-101898926D01*
X139645581Y-101919750D01*
X139638349Y-101939962D01*
X139629170Y-101959368D01*
X139618134Y-101977781D01*
X139605346Y-101995024D01*
X139590930Y-102010930D01*
X139575024Y-102025346D01*
X139557781Y-102038134D01*
X139539368Y-102049170D01*
X139519962Y-102058349D01*
X139499750Y-102065581D01*
X139478926Y-102070797D01*
X139457691Y-102073947D01*
X139436250Y-102075000D01*
X138998750Y-102075000D01*
X138977309Y-102073947D01*
X138956074Y-102070797D01*
X138935250Y-102065581D01*
X138915038Y-102058349D01*
X138895632Y-102049170D01*
X138877219Y-102038134D01*
X138859976Y-102025346D01*
X138844070Y-102010930D01*
X138829654Y-101995024D01*
X138816866Y-101977781D01*
X138805830Y-101959368D01*
X138796651Y-101939962D01*
X138789419Y-101919750D01*
X138784203Y-101898926D01*
X138781053Y-101877691D01*
X138780000Y-101856250D01*
X138780000Y-101343750D01*
X138781053Y-101322309D01*
X138784203Y-101301074D01*
X138789419Y-101280250D01*
X138796651Y-101260038D01*
X138805830Y-101240632D01*
X138816866Y-101222219D01*
X138829654Y-101204976D01*
X138844070Y-101189070D01*
X138859976Y-101174654D01*
X138877219Y-101161866D01*
X138895632Y-101150830D01*
X138915038Y-101141651D01*
X138935250Y-101134419D01*
X138956074Y-101129203D01*
X138977309Y-101126053D01*
X138998750Y-101125000D01*
X139436250Y-101125000D01*
X139457691Y-101126053D01*
X139457691Y-101126053D01*
G37*
D14*
X139217500Y-101600000D03*
D13*
G36*
X137882691Y-101126053D02*
G01*
X137903926Y-101129203D01*
X137924750Y-101134419D01*
X137944962Y-101141651D01*
X137964368Y-101150830D01*
X137982781Y-101161866D01*
X138000024Y-101174654D01*
X138015930Y-101189070D01*
X138030346Y-101204976D01*
X138043134Y-101222219D01*
X138054170Y-101240632D01*
X138063349Y-101260038D01*
X138070581Y-101280250D01*
X138075797Y-101301074D01*
X138078947Y-101322309D01*
X138080000Y-101343750D01*
X138080000Y-101856250D01*
X138078947Y-101877691D01*
X138075797Y-101898926D01*
X138070581Y-101919750D01*
X138063349Y-101939962D01*
X138054170Y-101959368D01*
X138043134Y-101977781D01*
X138030346Y-101995024D01*
X138015930Y-102010930D01*
X138000024Y-102025346D01*
X137982781Y-102038134D01*
X137964368Y-102049170D01*
X137944962Y-102058349D01*
X137924750Y-102065581D01*
X137903926Y-102070797D01*
X137882691Y-102073947D01*
X137861250Y-102075000D01*
X137423750Y-102075000D01*
X137402309Y-102073947D01*
X137381074Y-102070797D01*
X137360250Y-102065581D01*
X137340038Y-102058349D01*
X137320632Y-102049170D01*
X137302219Y-102038134D01*
X137284976Y-102025346D01*
X137269070Y-102010930D01*
X137254654Y-101995024D01*
X137241866Y-101977781D01*
X137230830Y-101959368D01*
X137221651Y-101939962D01*
X137214419Y-101919750D01*
X137209203Y-101898926D01*
X137206053Y-101877691D01*
X137205000Y-101856250D01*
X137205000Y-101343750D01*
X137206053Y-101322309D01*
X137209203Y-101301074D01*
X137214419Y-101280250D01*
X137221651Y-101260038D01*
X137230830Y-101240632D01*
X137241866Y-101222219D01*
X137254654Y-101204976D01*
X137269070Y-101189070D01*
X137284976Y-101174654D01*
X137302219Y-101161866D01*
X137320632Y-101150830D01*
X137340038Y-101141651D01*
X137360250Y-101134419D01*
X137381074Y-101129203D01*
X137402309Y-101126053D01*
X137423750Y-101125000D01*
X137861250Y-101125000D01*
X137882691Y-101126053D01*
X137882691Y-101126053D01*
G37*
D14*
X137642500Y-101600000D03*
D13*
G36*
X137299703Y-84790722D02*
G01*
X137314264Y-84792882D01*
X137328543Y-84796459D01*
X137342403Y-84801418D01*
X137355710Y-84807712D01*
X137368336Y-84815280D01*
X137380159Y-84824048D01*
X137391066Y-84833934D01*
X137400952Y-84844841D01*
X137409720Y-84856664D01*
X137417288Y-84869290D01*
X137423582Y-84882597D01*
X137428541Y-84896457D01*
X137432118Y-84910736D01*
X137434278Y-84925297D01*
X137435000Y-84940000D01*
X137435000Y-85240000D01*
X137434278Y-85254703D01*
X137432118Y-85269264D01*
X137428541Y-85283543D01*
X137423582Y-85297403D01*
X137417288Y-85310710D01*
X137409720Y-85323336D01*
X137400952Y-85335159D01*
X137391066Y-85346066D01*
X137380159Y-85355952D01*
X137368336Y-85364720D01*
X137355710Y-85372288D01*
X137342403Y-85378582D01*
X137328543Y-85383541D01*
X137314264Y-85387118D01*
X137299703Y-85389278D01*
X137285000Y-85390000D01*
X135635000Y-85390000D01*
X135620297Y-85389278D01*
X135605736Y-85387118D01*
X135591457Y-85383541D01*
X135577597Y-85378582D01*
X135564290Y-85372288D01*
X135551664Y-85364720D01*
X135539841Y-85355952D01*
X135528934Y-85346066D01*
X135519048Y-85335159D01*
X135510280Y-85323336D01*
X135502712Y-85310710D01*
X135496418Y-85297403D01*
X135491459Y-85283543D01*
X135487882Y-85269264D01*
X135485722Y-85254703D01*
X135485000Y-85240000D01*
X135485000Y-84940000D01*
X135485722Y-84925297D01*
X135487882Y-84910736D01*
X135491459Y-84896457D01*
X135496418Y-84882597D01*
X135502712Y-84869290D01*
X135510280Y-84856664D01*
X135519048Y-84844841D01*
X135528934Y-84833934D01*
X135539841Y-84824048D01*
X135551664Y-84815280D01*
X135564290Y-84807712D01*
X135577597Y-84801418D01*
X135591457Y-84796459D01*
X135605736Y-84792882D01*
X135620297Y-84790722D01*
X135635000Y-84790000D01*
X137285000Y-84790000D01*
X137299703Y-84790722D01*
X137299703Y-84790722D01*
G37*
D15*
X136460000Y-85090000D03*
D13*
G36*
X137299703Y-86060722D02*
G01*
X137314264Y-86062882D01*
X137328543Y-86066459D01*
X137342403Y-86071418D01*
X137355710Y-86077712D01*
X137368336Y-86085280D01*
X137380159Y-86094048D01*
X137391066Y-86103934D01*
X137400952Y-86114841D01*
X137409720Y-86126664D01*
X137417288Y-86139290D01*
X137423582Y-86152597D01*
X137428541Y-86166457D01*
X137432118Y-86180736D01*
X137434278Y-86195297D01*
X137435000Y-86210000D01*
X137435000Y-86510000D01*
X137434278Y-86524703D01*
X137432118Y-86539264D01*
X137428541Y-86553543D01*
X137423582Y-86567403D01*
X137417288Y-86580710D01*
X137409720Y-86593336D01*
X137400952Y-86605159D01*
X137391066Y-86616066D01*
X137380159Y-86625952D01*
X137368336Y-86634720D01*
X137355710Y-86642288D01*
X137342403Y-86648582D01*
X137328543Y-86653541D01*
X137314264Y-86657118D01*
X137299703Y-86659278D01*
X137285000Y-86660000D01*
X135635000Y-86660000D01*
X135620297Y-86659278D01*
X135605736Y-86657118D01*
X135591457Y-86653541D01*
X135577597Y-86648582D01*
X135564290Y-86642288D01*
X135551664Y-86634720D01*
X135539841Y-86625952D01*
X135528934Y-86616066D01*
X135519048Y-86605159D01*
X135510280Y-86593336D01*
X135502712Y-86580710D01*
X135496418Y-86567403D01*
X135491459Y-86553543D01*
X135487882Y-86539264D01*
X135485722Y-86524703D01*
X135485000Y-86510000D01*
X135485000Y-86210000D01*
X135485722Y-86195297D01*
X135487882Y-86180736D01*
X135491459Y-86166457D01*
X135496418Y-86152597D01*
X135502712Y-86139290D01*
X135510280Y-86126664D01*
X135519048Y-86114841D01*
X135528934Y-86103934D01*
X135539841Y-86094048D01*
X135551664Y-86085280D01*
X135564290Y-86077712D01*
X135577597Y-86071418D01*
X135591457Y-86066459D01*
X135605736Y-86062882D01*
X135620297Y-86060722D01*
X135635000Y-86060000D01*
X137285000Y-86060000D01*
X137299703Y-86060722D01*
X137299703Y-86060722D01*
G37*
D15*
X136460000Y-86360000D03*
D13*
G36*
X137299703Y-87330722D02*
G01*
X137314264Y-87332882D01*
X137328543Y-87336459D01*
X137342403Y-87341418D01*
X137355710Y-87347712D01*
X137368336Y-87355280D01*
X137380159Y-87364048D01*
X137391066Y-87373934D01*
X137400952Y-87384841D01*
X137409720Y-87396664D01*
X137417288Y-87409290D01*
X137423582Y-87422597D01*
X137428541Y-87436457D01*
X137432118Y-87450736D01*
X137434278Y-87465297D01*
X137435000Y-87480000D01*
X137435000Y-87780000D01*
X137434278Y-87794703D01*
X137432118Y-87809264D01*
X137428541Y-87823543D01*
X137423582Y-87837403D01*
X137417288Y-87850710D01*
X137409720Y-87863336D01*
X137400952Y-87875159D01*
X137391066Y-87886066D01*
X137380159Y-87895952D01*
X137368336Y-87904720D01*
X137355710Y-87912288D01*
X137342403Y-87918582D01*
X137328543Y-87923541D01*
X137314264Y-87927118D01*
X137299703Y-87929278D01*
X137285000Y-87930000D01*
X135635000Y-87930000D01*
X135620297Y-87929278D01*
X135605736Y-87927118D01*
X135591457Y-87923541D01*
X135577597Y-87918582D01*
X135564290Y-87912288D01*
X135551664Y-87904720D01*
X135539841Y-87895952D01*
X135528934Y-87886066D01*
X135519048Y-87875159D01*
X135510280Y-87863336D01*
X135502712Y-87850710D01*
X135496418Y-87837403D01*
X135491459Y-87823543D01*
X135487882Y-87809264D01*
X135485722Y-87794703D01*
X135485000Y-87780000D01*
X135485000Y-87480000D01*
X135485722Y-87465297D01*
X135487882Y-87450736D01*
X135491459Y-87436457D01*
X135496418Y-87422597D01*
X135502712Y-87409290D01*
X135510280Y-87396664D01*
X135519048Y-87384841D01*
X135528934Y-87373934D01*
X135539841Y-87364048D01*
X135551664Y-87355280D01*
X135564290Y-87347712D01*
X135577597Y-87341418D01*
X135591457Y-87336459D01*
X135605736Y-87332882D01*
X135620297Y-87330722D01*
X135635000Y-87330000D01*
X137285000Y-87330000D01*
X137299703Y-87330722D01*
X137299703Y-87330722D01*
G37*
D15*
X136460000Y-87630000D03*
D13*
G36*
X137299703Y-88600722D02*
G01*
X137314264Y-88602882D01*
X137328543Y-88606459D01*
X137342403Y-88611418D01*
X137355710Y-88617712D01*
X137368336Y-88625280D01*
X137380159Y-88634048D01*
X137391066Y-88643934D01*
X137400952Y-88654841D01*
X137409720Y-88666664D01*
X137417288Y-88679290D01*
X137423582Y-88692597D01*
X137428541Y-88706457D01*
X137432118Y-88720736D01*
X137434278Y-88735297D01*
X137435000Y-88750000D01*
X137435000Y-89050000D01*
X137434278Y-89064703D01*
X137432118Y-89079264D01*
X137428541Y-89093543D01*
X137423582Y-89107403D01*
X137417288Y-89120710D01*
X137409720Y-89133336D01*
X137400952Y-89145159D01*
X137391066Y-89156066D01*
X137380159Y-89165952D01*
X137368336Y-89174720D01*
X137355710Y-89182288D01*
X137342403Y-89188582D01*
X137328543Y-89193541D01*
X137314264Y-89197118D01*
X137299703Y-89199278D01*
X137285000Y-89200000D01*
X135635000Y-89200000D01*
X135620297Y-89199278D01*
X135605736Y-89197118D01*
X135591457Y-89193541D01*
X135577597Y-89188582D01*
X135564290Y-89182288D01*
X135551664Y-89174720D01*
X135539841Y-89165952D01*
X135528934Y-89156066D01*
X135519048Y-89145159D01*
X135510280Y-89133336D01*
X135502712Y-89120710D01*
X135496418Y-89107403D01*
X135491459Y-89093543D01*
X135487882Y-89079264D01*
X135485722Y-89064703D01*
X135485000Y-89050000D01*
X135485000Y-88750000D01*
X135485722Y-88735297D01*
X135487882Y-88720736D01*
X135491459Y-88706457D01*
X135496418Y-88692597D01*
X135502712Y-88679290D01*
X135510280Y-88666664D01*
X135519048Y-88654841D01*
X135528934Y-88643934D01*
X135539841Y-88634048D01*
X135551664Y-88625280D01*
X135564290Y-88617712D01*
X135577597Y-88611418D01*
X135591457Y-88606459D01*
X135605736Y-88602882D01*
X135620297Y-88600722D01*
X135635000Y-88600000D01*
X137285000Y-88600000D01*
X137299703Y-88600722D01*
X137299703Y-88600722D01*
G37*
D15*
X136460000Y-88900000D03*
D13*
G36*
X132349703Y-88600722D02*
G01*
X132364264Y-88602882D01*
X132378543Y-88606459D01*
X132392403Y-88611418D01*
X132405710Y-88617712D01*
X132418336Y-88625280D01*
X132430159Y-88634048D01*
X132441066Y-88643934D01*
X132450952Y-88654841D01*
X132459720Y-88666664D01*
X132467288Y-88679290D01*
X132473582Y-88692597D01*
X132478541Y-88706457D01*
X132482118Y-88720736D01*
X132484278Y-88735297D01*
X132485000Y-88750000D01*
X132485000Y-89050000D01*
X132484278Y-89064703D01*
X132482118Y-89079264D01*
X132478541Y-89093543D01*
X132473582Y-89107403D01*
X132467288Y-89120710D01*
X132459720Y-89133336D01*
X132450952Y-89145159D01*
X132441066Y-89156066D01*
X132430159Y-89165952D01*
X132418336Y-89174720D01*
X132405710Y-89182288D01*
X132392403Y-89188582D01*
X132378543Y-89193541D01*
X132364264Y-89197118D01*
X132349703Y-89199278D01*
X132335000Y-89200000D01*
X130685000Y-89200000D01*
X130670297Y-89199278D01*
X130655736Y-89197118D01*
X130641457Y-89193541D01*
X130627597Y-89188582D01*
X130614290Y-89182288D01*
X130601664Y-89174720D01*
X130589841Y-89165952D01*
X130578934Y-89156066D01*
X130569048Y-89145159D01*
X130560280Y-89133336D01*
X130552712Y-89120710D01*
X130546418Y-89107403D01*
X130541459Y-89093543D01*
X130537882Y-89079264D01*
X130535722Y-89064703D01*
X130535000Y-89050000D01*
X130535000Y-88750000D01*
X130535722Y-88735297D01*
X130537882Y-88720736D01*
X130541459Y-88706457D01*
X130546418Y-88692597D01*
X130552712Y-88679290D01*
X130560280Y-88666664D01*
X130569048Y-88654841D01*
X130578934Y-88643934D01*
X130589841Y-88634048D01*
X130601664Y-88625280D01*
X130614290Y-88617712D01*
X130627597Y-88611418D01*
X130641457Y-88606459D01*
X130655736Y-88602882D01*
X130670297Y-88600722D01*
X130685000Y-88600000D01*
X132335000Y-88600000D01*
X132349703Y-88600722D01*
X132349703Y-88600722D01*
G37*
D15*
X131510000Y-88900000D03*
D13*
G36*
X132349703Y-87330722D02*
G01*
X132364264Y-87332882D01*
X132378543Y-87336459D01*
X132392403Y-87341418D01*
X132405710Y-87347712D01*
X132418336Y-87355280D01*
X132430159Y-87364048D01*
X132441066Y-87373934D01*
X132450952Y-87384841D01*
X132459720Y-87396664D01*
X132467288Y-87409290D01*
X132473582Y-87422597D01*
X132478541Y-87436457D01*
X132482118Y-87450736D01*
X132484278Y-87465297D01*
X132485000Y-87480000D01*
X132485000Y-87780000D01*
X132484278Y-87794703D01*
X132482118Y-87809264D01*
X132478541Y-87823543D01*
X132473582Y-87837403D01*
X132467288Y-87850710D01*
X132459720Y-87863336D01*
X132450952Y-87875159D01*
X132441066Y-87886066D01*
X132430159Y-87895952D01*
X132418336Y-87904720D01*
X132405710Y-87912288D01*
X132392403Y-87918582D01*
X132378543Y-87923541D01*
X132364264Y-87927118D01*
X132349703Y-87929278D01*
X132335000Y-87930000D01*
X130685000Y-87930000D01*
X130670297Y-87929278D01*
X130655736Y-87927118D01*
X130641457Y-87923541D01*
X130627597Y-87918582D01*
X130614290Y-87912288D01*
X130601664Y-87904720D01*
X130589841Y-87895952D01*
X130578934Y-87886066D01*
X130569048Y-87875159D01*
X130560280Y-87863336D01*
X130552712Y-87850710D01*
X130546418Y-87837403D01*
X130541459Y-87823543D01*
X130537882Y-87809264D01*
X130535722Y-87794703D01*
X130535000Y-87780000D01*
X130535000Y-87480000D01*
X130535722Y-87465297D01*
X130537882Y-87450736D01*
X130541459Y-87436457D01*
X130546418Y-87422597D01*
X130552712Y-87409290D01*
X130560280Y-87396664D01*
X130569048Y-87384841D01*
X130578934Y-87373934D01*
X130589841Y-87364048D01*
X130601664Y-87355280D01*
X130614290Y-87347712D01*
X130627597Y-87341418D01*
X130641457Y-87336459D01*
X130655736Y-87332882D01*
X130670297Y-87330722D01*
X130685000Y-87330000D01*
X132335000Y-87330000D01*
X132349703Y-87330722D01*
X132349703Y-87330722D01*
G37*
D15*
X131510000Y-87630000D03*
D13*
G36*
X132349703Y-86060722D02*
G01*
X132364264Y-86062882D01*
X132378543Y-86066459D01*
X132392403Y-86071418D01*
X132405710Y-86077712D01*
X132418336Y-86085280D01*
X132430159Y-86094048D01*
X132441066Y-86103934D01*
X132450952Y-86114841D01*
X132459720Y-86126664D01*
X132467288Y-86139290D01*
X132473582Y-86152597D01*
X132478541Y-86166457D01*
X132482118Y-86180736D01*
X132484278Y-86195297D01*
X132485000Y-86210000D01*
X132485000Y-86510000D01*
X132484278Y-86524703D01*
X132482118Y-86539264D01*
X132478541Y-86553543D01*
X132473582Y-86567403D01*
X132467288Y-86580710D01*
X132459720Y-86593336D01*
X132450952Y-86605159D01*
X132441066Y-86616066D01*
X132430159Y-86625952D01*
X132418336Y-86634720D01*
X132405710Y-86642288D01*
X132392403Y-86648582D01*
X132378543Y-86653541D01*
X132364264Y-86657118D01*
X132349703Y-86659278D01*
X132335000Y-86660000D01*
X130685000Y-86660000D01*
X130670297Y-86659278D01*
X130655736Y-86657118D01*
X130641457Y-86653541D01*
X130627597Y-86648582D01*
X130614290Y-86642288D01*
X130601664Y-86634720D01*
X130589841Y-86625952D01*
X130578934Y-86616066D01*
X130569048Y-86605159D01*
X130560280Y-86593336D01*
X130552712Y-86580710D01*
X130546418Y-86567403D01*
X130541459Y-86553543D01*
X130537882Y-86539264D01*
X130535722Y-86524703D01*
X130535000Y-86510000D01*
X130535000Y-86210000D01*
X130535722Y-86195297D01*
X130537882Y-86180736D01*
X130541459Y-86166457D01*
X130546418Y-86152597D01*
X130552712Y-86139290D01*
X130560280Y-86126664D01*
X130569048Y-86114841D01*
X130578934Y-86103934D01*
X130589841Y-86094048D01*
X130601664Y-86085280D01*
X130614290Y-86077712D01*
X130627597Y-86071418D01*
X130641457Y-86066459D01*
X130655736Y-86062882D01*
X130670297Y-86060722D01*
X130685000Y-86060000D01*
X132335000Y-86060000D01*
X132349703Y-86060722D01*
X132349703Y-86060722D01*
G37*
D15*
X131510000Y-86360000D03*
D13*
G36*
X132349703Y-84790722D02*
G01*
X132364264Y-84792882D01*
X132378543Y-84796459D01*
X132392403Y-84801418D01*
X132405710Y-84807712D01*
X132418336Y-84815280D01*
X132430159Y-84824048D01*
X132441066Y-84833934D01*
X132450952Y-84844841D01*
X132459720Y-84856664D01*
X132467288Y-84869290D01*
X132473582Y-84882597D01*
X132478541Y-84896457D01*
X132482118Y-84910736D01*
X132484278Y-84925297D01*
X132485000Y-84940000D01*
X132485000Y-85240000D01*
X132484278Y-85254703D01*
X132482118Y-85269264D01*
X132478541Y-85283543D01*
X132473582Y-85297403D01*
X132467288Y-85310710D01*
X132459720Y-85323336D01*
X132450952Y-85335159D01*
X132441066Y-85346066D01*
X132430159Y-85355952D01*
X132418336Y-85364720D01*
X132405710Y-85372288D01*
X132392403Y-85378582D01*
X132378543Y-85383541D01*
X132364264Y-85387118D01*
X132349703Y-85389278D01*
X132335000Y-85390000D01*
X130685000Y-85390000D01*
X130670297Y-85389278D01*
X130655736Y-85387118D01*
X130641457Y-85383541D01*
X130627597Y-85378582D01*
X130614290Y-85372288D01*
X130601664Y-85364720D01*
X130589841Y-85355952D01*
X130578934Y-85346066D01*
X130569048Y-85335159D01*
X130560280Y-85323336D01*
X130552712Y-85310710D01*
X130546418Y-85297403D01*
X130541459Y-85283543D01*
X130537882Y-85269264D01*
X130535722Y-85254703D01*
X130535000Y-85240000D01*
X130535000Y-84940000D01*
X130535722Y-84925297D01*
X130537882Y-84910736D01*
X130541459Y-84896457D01*
X130546418Y-84882597D01*
X130552712Y-84869290D01*
X130560280Y-84856664D01*
X130569048Y-84844841D01*
X130578934Y-84833934D01*
X130589841Y-84824048D01*
X130601664Y-84815280D01*
X130614290Y-84807712D01*
X130627597Y-84801418D01*
X130641457Y-84796459D01*
X130655736Y-84792882D01*
X130670297Y-84790722D01*
X130685000Y-84790000D01*
X132335000Y-84790000D01*
X132349703Y-84790722D01*
X132349703Y-84790722D01*
G37*
D15*
X131510000Y-85090000D03*
D16*
X141671001Y-99845001D03*
X141671001Y-97305001D03*
X141671001Y-94765001D03*
X141671001Y-92225001D03*
X141671001Y-89685001D03*
X141671001Y-87145001D03*
X141671001Y-84605001D03*
X141671001Y-82065001D03*
X141671001Y-79525001D03*
X141671001Y-76985001D03*
X141671001Y-74445001D03*
X141671001Y-71905001D03*
X126176001Y-71905001D03*
X126176001Y-74445001D03*
X126176001Y-76985001D03*
X126176001Y-79525001D03*
X126176001Y-82065001D03*
X126176001Y-84605001D03*
X126176001Y-87145001D03*
X126176001Y-89685001D03*
X126176001Y-92225001D03*
X126176001Y-94765001D03*
X126176001Y-97305001D03*
D17*
X126176001Y-99845001D03*
D18*
X139700000Y-111760000D02*
X139700000Y-106680000D01*
X141671001Y-104708999D02*
X141671001Y-99845001D01*
X139700000Y-106680000D02*
X141671001Y-104708999D01*
X141671001Y-97305001D02*
X141671001Y-99845001D01*
X139916002Y-101600000D02*
X141671001Y-99845001D01*
X139217500Y-101600000D02*
X139916002Y-101600000D01*
X137699719Y-99436001D02*
X134991001Y-99436001D01*
X134375000Y-98820000D02*
X132105000Y-98820000D01*
X139217500Y-100953782D02*
X137699719Y-99436001D01*
X134991001Y-99436001D02*
X134375000Y-98820000D01*
X139217500Y-101600000D02*
X139217500Y-100953782D01*
X131927500Y-98997500D02*
X131927500Y-101600000D01*
X132105000Y-98820000D02*
X131927500Y-98997500D01*
X139700000Y-65405000D02*
X139700000Y-60325000D01*
X139700000Y-69934000D02*
X141671001Y-71905001D01*
X139700000Y-65405000D02*
X139700000Y-69934000D01*
X141671001Y-71905001D02*
X141671001Y-74445001D01*
D19*
X138405000Y-96520000D02*
X132105000Y-96520000D01*
X130022500Y-96520000D02*
X129540000Y-96037500D01*
X132105000Y-96520000D02*
X130022500Y-96520000D01*
X136460000Y-83402500D02*
X136677500Y-83185000D01*
X136460000Y-85090000D02*
X136460000Y-83402500D01*
X133740000Y-96520000D02*
X132105000Y-96520000D01*
X133803501Y-96456499D02*
X133740000Y-96520000D01*
X136460000Y-85090000D02*
X135555024Y-85090000D01*
X133803501Y-86841523D02*
X133803501Y-96456499D01*
X135555024Y-85090000D02*
X133803501Y-86841523D01*
D20*
X139065000Y-90847000D02*
X140443001Y-92225001D01*
X140443001Y-92225001D02*
X141671001Y-92225001D01*
X139065000Y-88900000D02*
X139065000Y-90847000D01*
X136460000Y-87630000D02*
X137795000Y-87630000D01*
X137795000Y-87630000D02*
X139065000Y-88900000D01*
D21*
G36*
X143485000Y-113640000D02*
G01*
X124485000Y-113640000D01*
X124485000Y-112931066D01*
X126643539Y-112931066D01*
X126745339Y-113200579D01*
X127043477Y-113346463D01*
X127364346Y-113431380D01*
X127695617Y-113452066D01*
X128024557Y-113407728D01*
X128338527Y-113300069D01*
X128524661Y-113200579D01*
X128626461Y-112931066D01*
X127635000Y-111939605D01*
X126643539Y-112931066D01*
X124485000Y-112931066D01*
X124485000Y-111820617D01*
X125942934Y-111820617D01*
X125987272Y-112149557D01*
X126094931Y-112463527D01*
X126194421Y-112649661D01*
X126463934Y-112751461D01*
X127455395Y-111760000D01*
X127814605Y-111760000D01*
X128806066Y-112751461D01*
X129075579Y-112649661D01*
X129221463Y-112351523D01*
X129306380Y-112030654D01*
X129327066Y-111699383D01*
X129282728Y-111370443D01*
X129175069Y-111056473D01*
X129075579Y-110870339D01*
X128806066Y-110768539D01*
X127814605Y-111760000D01*
X127455395Y-111760000D01*
X126463934Y-110768539D01*
X126194421Y-110870339D01*
X126048537Y-111168477D01*
X125963620Y-111489346D01*
X125942934Y-111820617D01*
X124485000Y-111820617D01*
X124485000Y-110588934D01*
X126643539Y-110588934D01*
X127635000Y-111580395D01*
X128626461Y-110588934D01*
X128524661Y-110319421D01*
X128226523Y-110173537D01*
X127905654Y-110088620D01*
X127574383Y-110067934D01*
X127245443Y-110112272D01*
X126931473Y-110219931D01*
X126745339Y-110319421D01*
X126643539Y-110588934D01*
X124485000Y-110588934D01*
X124485000Y-107851066D01*
X126643539Y-107851066D01*
X126745339Y-108120579D01*
X127043477Y-108266463D01*
X127364346Y-108351380D01*
X127695617Y-108372066D01*
X128024557Y-108327728D01*
X128338527Y-108220069D01*
X128524661Y-108120579D01*
X128626461Y-107851066D01*
X127635000Y-106859605D01*
X126643539Y-107851066D01*
X124485000Y-107851066D01*
X124485000Y-106740617D01*
X125942934Y-106740617D01*
X125987272Y-107069557D01*
X126094931Y-107383527D01*
X126194421Y-107569661D01*
X126463934Y-107671461D01*
X127455395Y-106680000D01*
X127814605Y-106680000D01*
X128806066Y-107671461D01*
X129075579Y-107569661D01*
X129221463Y-107271523D01*
X129306380Y-106950654D01*
X129327066Y-106619383D01*
X129282728Y-106290443D01*
X129175069Y-105976473D01*
X129075579Y-105790339D01*
X128806066Y-105688539D01*
X127814605Y-106680000D01*
X127455395Y-106680000D01*
X126463934Y-105688539D01*
X126194421Y-105790339D01*
X126048537Y-106088477D01*
X125963620Y-106409346D01*
X125942934Y-106740617D01*
X124485000Y-106740617D01*
X124485000Y-105508934D01*
X126643539Y-105508934D01*
X127635000Y-106500395D01*
X128626461Y-105508934D01*
X128524661Y-105239421D01*
X128226523Y-105093537D01*
X127905654Y-105008620D01*
X127574383Y-104987934D01*
X127245443Y-105032272D01*
X126931473Y-105139931D01*
X126745339Y-105239421D01*
X126643539Y-105508934D01*
X124485000Y-105508934D01*
X124485000Y-100420001D01*
X124962929Y-100420001D01*
X124975189Y-100544483D01*
X125011499Y-100664181D01*
X125070464Y-100774495D01*
X125149816Y-100871186D01*
X125246507Y-100950538D01*
X125356821Y-101009503D01*
X125476519Y-101045813D01*
X125601001Y-101058073D01*
X125890251Y-101055001D01*
X126049001Y-100896251D01*
X126049001Y-99972001D01*
X126303001Y-99972001D01*
X126303001Y-100896251D01*
X126461751Y-101055001D01*
X126751001Y-101058073D01*
X126875483Y-101045813D01*
X126995181Y-101009503D01*
X127105495Y-100950538D01*
X127202186Y-100871186D01*
X127281538Y-100774495D01*
X127340503Y-100664181D01*
X127376813Y-100544483D01*
X127389073Y-100420001D01*
X127386001Y-100130751D01*
X127227251Y-99972001D01*
X126303001Y-99972001D01*
X126049001Y-99972001D01*
X125124751Y-99972001D01*
X124966001Y-100130751D01*
X124962929Y-100420001D01*
X124485000Y-100420001D01*
X124485000Y-99270001D01*
X124962929Y-99270001D01*
X124966001Y-99559251D01*
X125124751Y-99718001D01*
X126049001Y-99718001D01*
X126049001Y-98793751D01*
X126303001Y-98793751D01*
X126303001Y-99718001D01*
X127227251Y-99718001D01*
X127386001Y-99559251D01*
X127389073Y-99270001D01*
X127376813Y-99145519D01*
X127340503Y-99025821D01*
X127281538Y-98915507D01*
X127202186Y-98818816D01*
X127105495Y-98739464D01*
X126995181Y-98680499D01*
X126875483Y-98644189D01*
X126751001Y-98631929D01*
X126461751Y-98635001D01*
X126303001Y-98793751D01*
X126049001Y-98793751D01*
X125890251Y-98635001D01*
X125601001Y-98631929D01*
X125476519Y-98644189D01*
X125356821Y-98680499D01*
X125246507Y-98739464D01*
X125149816Y-98818816D01*
X125070464Y-98915507D01*
X125011499Y-99025821D01*
X124975189Y-99145519D01*
X124962929Y-99270001D01*
X124485000Y-99270001D01*
X124485000Y-98136875D01*
X125523732Y-98136875D01*
X125567994Y-98357917D01*
X125785090Y-98456302D01*
X126017209Y-98510443D01*
X126255430Y-98518259D01*
X126490599Y-98479451D01*
X126713678Y-98395510D01*
X126784008Y-98357917D01*
X126828270Y-98136875D01*
X126176001Y-97484606D01*
X125523732Y-98136875D01*
X124485000Y-98136875D01*
X124485000Y-97384430D01*
X124962743Y-97384430D01*
X125001551Y-97619599D01*
X125085492Y-97842678D01*
X125123085Y-97913008D01*
X125344127Y-97957270D01*
X125996396Y-97305001D01*
X126355606Y-97305001D01*
X127007875Y-97957270D01*
X127228917Y-97913008D01*
X127327302Y-97695912D01*
X127381443Y-97463793D01*
X127389259Y-97225572D01*
X127350451Y-96990403D01*
X127266510Y-96767324D01*
X127228917Y-96696994D01*
X127007875Y-96652732D01*
X126355606Y-97305001D01*
X125996396Y-97305001D01*
X125344127Y-96652732D01*
X125123085Y-96696994D01*
X125024700Y-96914090D01*
X124970559Y-97146209D01*
X124962743Y-97384430D01*
X124485000Y-97384430D01*
X124485000Y-96473127D01*
X125523732Y-96473127D01*
X126176001Y-97125396D01*
X126828270Y-96473127D01*
X126784008Y-96252085D01*
X126566912Y-96153700D01*
X126334793Y-96099559D01*
X126096572Y-96091743D01*
X125861403Y-96130551D01*
X125638324Y-96214492D01*
X125567994Y-96252085D01*
X125523732Y-96473127D01*
X124485000Y-96473127D01*
X124485000Y-94645826D01*
X124966001Y-94645826D01*
X124966001Y-94884176D01*
X125012500Y-95117945D01*
X125103713Y-95338151D01*
X125236132Y-95536331D01*
X125404671Y-95704870D01*
X125602851Y-95837289D01*
X125823057Y-95928502D01*
X126056826Y-95975001D01*
X126295176Y-95975001D01*
X126528945Y-95928502D01*
X126749151Y-95837289D01*
X126947331Y-95704870D01*
X127115870Y-95536331D01*
X127248289Y-95338151D01*
X127339502Y-95117945D01*
X127382853Y-94900000D01*
X128426928Y-94900000D01*
X128439188Y-95024482D01*
X128475498Y-95144180D01*
X128534463Y-95254494D01*
X128589100Y-95321070D01*
X128571329Y-95342725D01*
X128492150Y-95490858D01*
X128443392Y-95651592D01*
X128426928Y-95818750D01*
X128426928Y-96256250D01*
X128443392Y-96423408D01*
X128492150Y-96584142D01*
X128571329Y-96732275D01*
X128677885Y-96862115D01*
X128807725Y-96968671D01*
X128955858Y-97047850D01*
X129116592Y-97096608D01*
X129266872Y-97111410D01*
X129315893Y-97160431D01*
X129345722Y-97196778D01*
X129490759Y-97315806D01*
X129656231Y-97404252D01*
X129787882Y-97444188D01*
X129835777Y-97458717D01*
X130022499Y-97477108D01*
X130069284Y-97472500D01*
X130502855Y-97472500D01*
X130515498Y-97514180D01*
X130574463Y-97624494D01*
X130611809Y-97670000D01*
X130574463Y-97715506D01*
X130515498Y-97825820D01*
X130479188Y-97945518D01*
X130466928Y-98070000D01*
X130466928Y-99570000D01*
X130479188Y-99694482D01*
X130515498Y-99814180D01*
X130574463Y-99924494D01*
X130653815Y-100021185D01*
X130657500Y-100024210D01*
X130657501Y-101662380D01*
X130675878Y-101848963D01*
X130748498Y-102088359D01*
X130866426Y-102308988D01*
X131025131Y-102502370D01*
X131218513Y-102661075D01*
X131439142Y-102779003D01*
X131678538Y-102851623D01*
X131927500Y-102876144D01*
X132176463Y-102851623D01*
X132415859Y-102779003D01*
X132636488Y-102661075D01*
X132707334Y-102602933D01*
X132710506Y-102605537D01*
X132820820Y-102664502D01*
X132940518Y-102700812D01*
X133065000Y-102713072D01*
X133216750Y-102710000D01*
X133375500Y-102551250D01*
X133375500Y-101727000D01*
X133629500Y-101727000D01*
X133629500Y-102551250D01*
X133788250Y-102710000D01*
X133940000Y-102713072D01*
X134064482Y-102700812D01*
X134184180Y-102664502D01*
X134294494Y-102605537D01*
X134391185Y-102526185D01*
X134470537Y-102429494D01*
X134529502Y-102319180D01*
X134565812Y-102199482D01*
X134578072Y-102075000D01*
X136566928Y-102075000D01*
X136579188Y-102199482D01*
X136615498Y-102319180D01*
X136674463Y-102429494D01*
X136753815Y-102526185D01*
X136850506Y-102605537D01*
X136960820Y-102664502D01*
X137080518Y-102700812D01*
X137205000Y-102713072D01*
X137356750Y-102710000D01*
X137515500Y-102551250D01*
X137515500Y-101727000D01*
X136728750Y-101727000D01*
X136570000Y-101885750D01*
X136566928Y-102075000D01*
X134578072Y-102075000D01*
X134575000Y-101885750D01*
X134416250Y-101727000D01*
X133629500Y-101727000D01*
X133375500Y-101727000D01*
X133355500Y-101727000D01*
X133355500Y-101473000D01*
X133375500Y-101473000D01*
X133375500Y-100648750D01*
X133629500Y-100648750D01*
X133629500Y-101473000D01*
X134416250Y-101473000D01*
X134575000Y-101314250D01*
X134578072Y-101125000D01*
X134565812Y-101000518D01*
X134529502Y-100880820D01*
X134470537Y-100770506D01*
X134391185Y-100673815D01*
X134294494Y-100594463D01*
X134184180Y-100535498D01*
X134064482Y-100499188D01*
X133940000Y-100486928D01*
X133788250Y-100490000D01*
X133629500Y-100648750D01*
X133375500Y-100648750D01*
X133216750Y-100490000D01*
X133197500Y-100489610D01*
X133197500Y-100198962D01*
X133229482Y-100195812D01*
X133349180Y-100159502D01*
X133459494Y-100100537D01*
X133472333Y-100090000D01*
X133848950Y-100090000D01*
X134048860Y-100289910D01*
X134088631Y-100338371D01*
X134282013Y-100497076D01*
X134502642Y-100615004D01*
X134613888Y-100648750D01*
X134742037Y-100687624D01*
X134765348Y-100689920D01*
X134928621Y-100706001D01*
X134928628Y-100706001D01*
X134991001Y-100712144D01*
X135053374Y-100706001D01*
X136727401Y-100706001D01*
X136674463Y-100770506D01*
X136615498Y-100880820D01*
X136579188Y-101000518D01*
X136566928Y-101125000D01*
X136570000Y-101314250D01*
X136728750Y-101473000D01*
X137515500Y-101473000D01*
X137515500Y-101453000D01*
X137769500Y-101453000D01*
X137769500Y-101473000D01*
X137789500Y-101473000D01*
X137789500Y-101727000D01*
X137769500Y-101727000D01*
X137769500Y-102551250D01*
X137928250Y-102710000D01*
X138080000Y-102713072D01*
X138204482Y-102700812D01*
X138324180Y-102664502D01*
X138434494Y-102605537D01*
X138437666Y-102602933D01*
X138508512Y-102661075D01*
X138729141Y-102779003D01*
X138968537Y-102851623D01*
X139217500Y-102876144D01*
X139279880Y-102870000D01*
X139853629Y-102870000D01*
X139916002Y-102876143D01*
X139978375Y-102870000D01*
X139978382Y-102870000D01*
X140164965Y-102851623D01*
X140401001Y-102780022D01*
X140401001Y-104182948D01*
X139588950Y-104995000D01*
X139534042Y-104995000D01*
X139208504Y-105059754D01*
X138901853Y-105186772D01*
X138625875Y-105371175D01*
X138391175Y-105605875D01*
X138206772Y-105881853D01*
X138079754Y-106188504D01*
X138015000Y-106514042D01*
X138015000Y-106845958D01*
X138079754Y-107171496D01*
X138206772Y-107478147D01*
X138391175Y-107754125D01*
X138430001Y-107792951D01*
X138430000Y-110647050D01*
X138391175Y-110685875D01*
X138206772Y-110961853D01*
X138079754Y-111268504D01*
X138015000Y-111594042D01*
X138015000Y-111925958D01*
X138079754Y-112251496D01*
X138206772Y-112558147D01*
X138391175Y-112834125D01*
X138625875Y-113068825D01*
X138901853Y-113253228D01*
X139208504Y-113380246D01*
X139534042Y-113445000D01*
X139865958Y-113445000D01*
X140191496Y-113380246D01*
X140498147Y-113253228D01*
X140774125Y-113068825D01*
X141008825Y-112834125D01*
X141193228Y-112558147D01*
X141320246Y-112251496D01*
X141385000Y-111925958D01*
X141385000Y-111594042D01*
X141320246Y-111268504D01*
X141193228Y-110961853D01*
X141008825Y-110685875D01*
X140970000Y-110647050D01*
X140970000Y-107792950D01*
X141008825Y-107754125D01*
X141193228Y-107478147D01*
X141320246Y-107171496D01*
X141385000Y-106845958D01*
X141385000Y-106791050D01*
X142524916Y-105651135D01*
X142573371Y-105611369D01*
X142732076Y-105417987D01*
X142850004Y-105197358D01*
X142922624Y-104957962D01*
X142941001Y-104771379D01*
X142941001Y-104771373D01*
X142947144Y-104709000D01*
X142941001Y-104646627D01*
X142941001Y-99907375D01*
X142947144Y-99845002D01*
X142941001Y-99782629D01*
X142941001Y-97242621D01*
X142922624Y-97056038D01*
X142850004Y-96816642D01*
X142732076Y-96596013D01*
X142573371Y-96402631D01*
X142379988Y-96243926D01*
X142159359Y-96125998D01*
X141919963Y-96053378D01*
X141671001Y-96028857D01*
X141422038Y-96053378D01*
X141182642Y-96125998D01*
X140962013Y-96243926D01*
X140768631Y-96402631D01*
X140609926Y-96596014D01*
X140491998Y-96816643D01*
X140419378Y-97056039D01*
X140401001Y-97242622D01*
X140401002Y-99318949D01*
X139889860Y-99830091D01*
X139117840Y-99058072D01*
X139405000Y-99058072D01*
X139529482Y-99045812D01*
X139649180Y-99009502D01*
X139759494Y-98950537D01*
X139856185Y-98871185D01*
X139935537Y-98774494D01*
X139994502Y-98664180D01*
X140030812Y-98544482D01*
X140043072Y-98420000D01*
X140043072Y-94645826D01*
X140461001Y-94645826D01*
X140461001Y-94884176D01*
X140507500Y-95117945D01*
X140598713Y-95338151D01*
X140731132Y-95536331D01*
X140899671Y-95704870D01*
X141097851Y-95837289D01*
X141318057Y-95928502D01*
X141551826Y-95975001D01*
X141790176Y-95975001D01*
X142023945Y-95928502D01*
X142244151Y-95837289D01*
X142442331Y-95704870D01*
X142610870Y-95536331D01*
X142743289Y-95338151D01*
X142834502Y-95117945D01*
X142881001Y-94884176D01*
X142881001Y-94645826D01*
X142834502Y-94412057D01*
X142743289Y-94191851D01*
X142610870Y-93993671D01*
X142442331Y-93825132D01*
X142244151Y-93692713D01*
X142023945Y-93601500D01*
X141790176Y-93555001D01*
X141551826Y-93555001D01*
X141318057Y-93601500D01*
X141097851Y-93692713D01*
X140899671Y-93825132D01*
X140731132Y-93993671D01*
X140598713Y-94191851D01*
X140507500Y-94412057D01*
X140461001Y-94645826D01*
X140043072Y-94645826D01*
X140043072Y-94620000D01*
X140030812Y-94495518D01*
X139994502Y-94375820D01*
X139935537Y-94265506D01*
X139856185Y-94168815D01*
X139759494Y-94089463D01*
X139649180Y-94030498D01*
X139529482Y-93994188D01*
X139405000Y-93981928D01*
X137405000Y-93981928D01*
X137280518Y-93994188D01*
X137160820Y-94030498D01*
X137050506Y-94089463D01*
X136953815Y-94168815D01*
X136874463Y-94265506D01*
X136815498Y-94375820D01*
X136779188Y-94495518D01*
X136766928Y-94620000D01*
X136766928Y-95567500D01*
X134756001Y-95567500D01*
X134756001Y-87236061D01*
X135008812Y-86983250D01*
X135018454Y-86995000D01*
X134979742Y-87042171D01*
X134906916Y-87178418D01*
X134862071Y-87326255D01*
X134846928Y-87480000D01*
X134846928Y-87780000D01*
X134862071Y-87933745D01*
X134906916Y-88081582D01*
X134979742Y-88217829D01*
X135018454Y-88265000D01*
X134979742Y-88312171D01*
X134906916Y-88448418D01*
X134862071Y-88596255D01*
X134846928Y-88750000D01*
X134846928Y-89050000D01*
X134862071Y-89203745D01*
X134906916Y-89351582D01*
X134979742Y-89487829D01*
X135077749Y-89607251D01*
X135197171Y-89705258D01*
X135333418Y-89778084D01*
X135481255Y-89822929D01*
X135635000Y-89838072D01*
X137285000Y-89838072D01*
X137438745Y-89822929D01*
X137586582Y-89778084D01*
X137722829Y-89705258D01*
X137842251Y-89607251D01*
X137940258Y-89487829D01*
X138013084Y-89351582D01*
X138057929Y-89203745D01*
X138070785Y-89073218D01*
X138239500Y-89241933D01*
X138239501Y-90806440D01*
X138235506Y-90847000D01*
X138251445Y-91008826D01*
X138298647Y-91164433D01*
X138375301Y-91307842D01*
X138436863Y-91382854D01*
X138478460Y-91433541D01*
X138509961Y-91459393D01*
X139830612Y-92780046D01*
X139856460Y-92811542D01*
X139887956Y-92837390D01*
X139887959Y-92837393D01*
X139982158Y-92914700D01*
X140125567Y-92991354D01*
X140281175Y-93038557D01*
X140402448Y-93050501D01*
X140402450Y-93050501D01*
X140443001Y-93054495D01*
X140483551Y-93050501D01*
X140785302Y-93050501D01*
X140899671Y-93164870D01*
X141097851Y-93297289D01*
X141318057Y-93388502D01*
X141551826Y-93435001D01*
X141790176Y-93435001D01*
X142023945Y-93388502D01*
X142244151Y-93297289D01*
X142442331Y-93164870D01*
X142610870Y-92996331D01*
X142743289Y-92798151D01*
X142834502Y-92577945D01*
X142881001Y-92344176D01*
X142881001Y-92105826D01*
X142834502Y-91872057D01*
X142743289Y-91651851D01*
X142610870Y-91453671D01*
X142442331Y-91285132D01*
X142244151Y-91152713D01*
X142023945Y-91061500D01*
X141790176Y-91015001D01*
X141551826Y-91015001D01*
X141318057Y-91061500D01*
X141097851Y-91152713D01*
X140899671Y-91285132D01*
X140785302Y-91399501D01*
X140784935Y-91399501D01*
X139890500Y-90505068D01*
X139890500Y-89565826D01*
X140461001Y-89565826D01*
X140461001Y-89804176D01*
X140507500Y-90037945D01*
X140598713Y-90258151D01*
X140731132Y-90456331D01*
X140899671Y-90624870D01*
X141097851Y-90757289D01*
X141318057Y-90848502D01*
X141551826Y-90895001D01*
X141790176Y-90895001D01*
X142023945Y-90848502D01*
X142244151Y-90757289D01*
X142442331Y-90624870D01*
X142610870Y-90456331D01*
X142743289Y-90258151D01*
X142834502Y-90037945D01*
X142881001Y-89804176D01*
X142881001Y-89565826D01*
X142834502Y-89332057D01*
X142743289Y-89111851D01*
X142610870Y-88913671D01*
X142442331Y-88745132D01*
X142244151Y-88612713D01*
X142023945Y-88521500D01*
X141790176Y-88475001D01*
X141551826Y-88475001D01*
X141318057Y-88521500D01*
X141097851Y-88612713D01*
X140899671Y-88745132D01*
X140731132Y-88913671D01*
X140598713Y-89111851D01*
X140507500Y-89332057D01*
X140461001Y-89565826D01*
X139890500Y-89565826D01*
X139890500Y-88940550D01*
X139894494Y-88899999D01*
X139890500Y-88859447D01*
X139878556Y-88738174D01*
X139831353Y-88582566D01*
X139754700Y-88439159D01*
X139754699Y-88439157D01*
X139704177Y-88377596D01*
X139651541Y-88313459D01*
X139620040Y-88287608D01*
X138407398Y-87074966D01*
X138381541Y-87043459D01*
X138360056Y-87025826D01*
X140461001Y-87025826D01*
X140461001Y-87264176D01*
X140507500Y-87497945D01*
X140598713Y-87718151D01*
X140731132Y-87916331D01*
X140899671Y-88084870D01*
X141097851Y-88217289D01*
X141318057Y-88308502D01*
X141551826Y-88355001D01*
X141790176Y-88355001D01*
X142023945Y-88308502D01*
X142244151Y-88217289D01*
X142442331Y-88084870D01*
X142610870Y-87916331D01*
X142743289Y-87718151D01*
X142834502Y-87497945D01*
X142881001Y-87264176D01*
X142881001Y-87025826D01*
X142834502Y-86792057D01*
X142743289Y-86571851D01*
X142610870Y-86373671D01*
X142442331Y-86205132D01*
X142244151Y-86072713D01*
X142023945Y-85981500D01*
X141790176Y-85935001D01*
X141551826Y-85935001D01*
X141318057Y-85981500D01*
X141097851Y-86072713D01*
X140899671Y-86205132D01*
X140731132Y-86373671D01*
X140598713Y-86571851D01*
X140507500Y-86792057D01*
X140461001Y-87025826D01*
X138360056Y-87025826D01*
X138255842Y-86940301D01*
X138112434Y-86863647D01*
X138002999Y-86830450D01*
X138013084Y-86811582D01*
X138057929Y-86663745D01*
X138073072Y-86510000D01*
X138073072Y-86210000D01*
X138057929Y-86056255D01*
X138013084Y-85908418D01*
X137940258Y-85772171D01*
X137901546Y-85725000D01*
X137940258Y-85677829D01*
X138013084Y-85541582D01*
X138057929Y-85393745D01*
X138073072Y-85240000D01*
X138073072Y-84940000D01*
X138057929Y-84786255D01*
X138013084Y-84638418D01*
X137940258Y-84502171D01*
X137926845Y-84485826D01*
X140461001Y-84485826D01*
X140461001Y-84724176D01*
X140507500Y-84957945D01*
X140598713Y-85178151D01*
X140731132Y-85376331D01*
X140899671Y-85544870D01*
X141097851Y-85677289D01*
X141318057Y-85768502D01*
X141551826Y-85815001D01*
X141790176Y-85815001D01*
X142023945Y-85768502D01*
X142244151Y-85677289D01*
X142442331Y-85544870D01*
X142610870Y-85376331D01*
X142743289Y-85178151D01*
X142834502Y-84957945D01*
X142881001Y-84724176D01*
X142881001Y-84485826D01*
X142834502Y-84252057D01*
X142743289Y-84031851D01*
X142610870Y-83833671D01*
X142442331Y-83665132D01*
X142244151Y-83532713D01*
X142023945Y-83441500D01*
X141790176Y-83395001D01*
X141551826Y-83395001D01*
X141318057Y-83441500D01*
X141097851Y-83532713D01*
X140899671Y-83665132D01*
X140731132Y-83833671D01*
X140598713Y-84031851D01*
X140507500Y-84252057D01*
X140461001Y-84485826D01*
X137926845Y-84485826D01*
X137842251Y-84382749D01*
X137722829Y-84284742D01*
X137586582Y-84211916D01*
X137438745Y-84167071D01*
X137412500Y-84164486D01*
X137412500Y-84120659D01*
X137502115Y-84047115D01*
X137608671Y-83917275D01*
X137687850Y-83769142D01*
X137736608Y-83608408D01*
X137753072Y-83441250D01*
X137753072Y-82928750D01*
X137736608Y-82761592D01*
X137687850Y-82600858D01*
X137608671Y-82452725D01*
X137502115Y-82322885D01*
X137372275Y-82216329D01*
X137224142Y-82137150D01*
X137063408Y-82088392D01*
X136896250Y-82071928D01*
X136458750Y-82071928D01*
X136291592Y-82088392D01*
X136130858Y-82137150D01*
X135982725Y-82216329D01*
X135961070Y-82234100D01*
X135894494Y-82179463D01*
X135784180Y-82120498D01*
X135664482Y-82084188D01*
X135540000Y-82071928D01*
X135388250Y-82075000D01*
X135229500Y-82233750D01*
X135229500Y-83058000D01*
X135249500Y-83058000D01*
X135249500Y-83312000D01*
X135229500Y-83312000D01*
X135229500Y-83332000D01*
X134975500Y-83332000D01*
X134975500Y-83312000D01*
X134188750Y-83312000D01*
X134030000Y-83470750D01*
X134026928Y-83660000D01*
X134039188Y-83784482D01*
X134075498Y-83904180D01*
X134134463Y-84014494D01*
X134213815Y-84111185D01*
X134310506Y-84190537D01*
X134420820Y-84249502D01*
X134540518Y-84285812D01*
X134665000Y-84298072D01*
X134816750Y-84295000D01*
X134975498Y-84136252D01*
X134975498Y-84295000D01*
X135022301Y-84295000D01*
X134878246Y-84413222D01*
X134848417Y-84449569D01*
X133163070Y-86134916D01*
X133126723Y-86164745D01*
X133119484Y-86173566D01*
X133107929Y-86056255D01*
X133063084Y-85908418D01*
X132990258Y-85772171D01*
X132951546Y-85725000D01*
X132990258Y-85677829D01*
X133063084Y-85541582D01*
X133107929Y-85393745D01*
X133123072Y-85240000D01*
X133123072Y-84940000D01*
X133107929Y-84786255D01*
X133063084Y-84638418D01*
X132990258Y-84502171D01*
X132892251Y-84382749D01*
X132772829Y-84284742D01*
X132636582Y-84211916D01*
X132488745Y-84167071D01*
X132335000Y-84151928D01*
X130685000Y-84151928D01*
X130531255Y-84167071D01*
X130383418Y-84211916D01*
X130247171Y-84284742D01*
X130127749Y-84382749D01*
X130029742Y-84502171D01*
X129956916Y-84638418D01*
X129912071Y-84786255D01*
X129896928Y-84940000D01*
X129896928Y-85240000D01*
X129912071Y-85393745D01*
X129956916Y-85541582D01*
X130029742Y-85677829D01*
X130068454Y-85725000D01*
X130029742Y-85772171D01*
X129956916Y-85908418D01*
X129912071Y-86056255D01*
X129896928Y-86210000D01*
X129896928Y-86510000D01*
X129912071Y-86663745D01*
X129956916Y-86811582D01*
X130029742Y-86947829D01*
X130068454Y-86995000D01*
X130029742Y-87042171D01*
X129956916Y-87178418D01*
X129912071Y-87326255D01*
X129896928Y-87480000D01*
X129896928Y-87780000D01*
X129912071Y-87933745D01*
X129956916Y-88081582D01*
X130028730Y-88215936D01*
X130004463Y-88245506D01*
X129945498Y-88355820D01*
X129909188Y-88475518D01*
X129896928Y-88600000D01*
X129900000Y-88614250D01*
X130058750Y-88773000D01*
X131383000Y-88773000D01*
X131383000Y-88753000D01*
X131637000Y-88753000D01*
X131637000Y-88773000D01*
X131657000Y-88773000D01*
X131657000Y-89027000D01*
X131637000Y-89027000D01*
X131637000Y-89676250D01*
X131795750Y-89835000D01*
X132485000Y-89838072D01*
X132609482Y-89825812D01*
X132729180Y-89789502D01*
X132839494Y-89730537D01*
X132851001Y-89721093D01*
X132851002Y-92833020D01*
X132390750Y-92835000D01*
X132232000Y-92993750D01*
X132232000Y-94093000D01*
X132252000Y-94093000D01*
X132252000Y-94347000D01*
X132232000Y-94347000D01*
X132232000Y-94367000D01*
X131978000Y-94367000D01*
X131978000Y-94347000D01*
X131958000Y-94347000D01*
X131958000Y-94093000D01*
X131978000Y-94093000D01*
X131978000Y-92993750D01*
X131819250Y-92835000D01*
X131105000Y-92831928D01*
X130980518Y-92844188D01*
X130860820Y-92880498D01*
X130750506Y-92939463D01*
X130653815Y-93018815D01*
X130574463Y-93115506D01*
X130515498Y-93225820D01*
X130479188Y-93345518D01*
X130466928Y-93470000D01*
X130467627Y-93575572D01*
X130466185Y-93573815D01*
X130369494Y-93494463D01*
X130259180Y-93435498D01*
X130139482Y-93399188D01*
X130015000Y-93386928D01*
X129825750Y-93390000D01*
X129667000Y-93548750D01*
X129667000Y-94335500D01*
X129687000Y-94335500D01*
X129687000Y-94589500D01*
X129667000Y-94589500D01*
X129667000Y-94609500D01*
X129413000Y-94609500D01*
X129413000Y-94589500D01*
X128588750Y-94589500D01*
X128430000Y-94748250D01*
X128426928Y-94900000D01*
X127382853Y-94900000D01*
X127386001Y-94884176D01*
X127386001Y-94645826D01*
X127339502Y-94412057D01*
X127248289Y-94191851D01*
X127136804Y-94025000D01*
X128426928Y-94025000D01*
X128430000Y-94176750D01*
X128588750Y-94335500D01*
X129413000Y-94335500D01*
X129413000Y-93548750D01*
X129254250Y-93390000D01*
X129065000Y-93386928D01*
X128940518Y-93399188D01*
X128820820Y-93435498D01*
X128710506Y-93494463D01*
X128613815Y-93573815D01*
X128534463Y-93670506D01*
X128475498Y-93780820D01*
X128439188Y-93900518D01*
X128426928Y-94025000D01*
X127136804Y-94025000D01*
X127115870Y-93993671D01*
X126947331Y-93825132D01*
X126749151Y-93692713D01*
X126528945Y-93601500D01*
X126295176Y-93555001D01*
X126056826Y-93555001D01*
X125823057Y-93601500D01*
X125602851Y-93692713D01*
X125404671Y-93825132D01*
X125236132Y-93993671D01*
X125103713Y-94191851D01*
X125012500Y-94412057D01*
X124966001Y-94645826D01*
X124485000Y-94645826D01*
X124485000Y-92105826D01*
X124966001Y-92105826D01*
X124966001Y-92344176D01*
X125012500Y-92577945D01*
X125103713Y-92798151D01*
X125236132Y-92996331D01*
X125404671Y-93164870D01*
X125602851Y-93297289D01*
X125823057Y-93388502D01*
X126056826Y-93435001D01*
X126295176Y-93435001D01*
X126528945Y-93388502D01*
X126749151Y-93297289D01*
X126947331Y-93164870D01*
X127115870Y-92996331D01*
X127248289Y-92798151D01*
X127339502Y-92577945D01*
X127386001Y-92344176D01*
X127386001Y-92105826D01*
X127339502Y-91872057D01*
X127248289Y-91651851D01*
X127115870Y-91453671D01*
X126947331Y-91285132D01*
X126749151Y-91152713D01*
X126528945Y-91061500D01*
X126295176Y-91015001D01*
X126056826Y-91015001D01*
X125823057Y-91061500D01*
X125602851Y-91152713D01*
X125404671Y-91285132D01*
X125236132Y-91453671D01*
X125103713Y-91651851D01*
X125012500Y-91872057D01*
X124966001Y-92105826D01*
X124485000Y-92105826D01*
X124485000Y-89565826D01*
X124966001Y-89565826D01*
X124966001Y-89804176D01*
X125012500Y-90037945D01*
X125103713Y-90258151D01*
X125236132Y-90456331D01*
X125404671Y-90624870D01*
X125602851Y-90757289D01*
X125823057Y-90848502D01*
X126056826Y-90895001D01*
X126295176Y-90895001D01*
X126528945Y-90848502D01*
X126749151Y-90757289D01*
X126947331Y-90624870D01*
X127115870Y-90456331D01*
X127248289Y-90258151D01*
X127339502Y-90037945D01*
X127386001Y-89804176D01*
X127386001Y-89565826D01*
X127339502Y-89332057D01*
X127284802Y-89200000D01*
X129896928Y-89200000D01*
X129909188Y-89324482D01*
X129945498Y-89444180D01*
X130004463Y-89554494D01*
X130083815Y-89651185D01*
X130180506Y-89730537D01*
X130290820Y-89789502D01*
X130410518Y-89825812D01*
X130535000Y-89838072D01*
X131224250Y-89835000D01*
X131383000Y-89676250D01*
X131383000Y-89027000D01*
X130058750Y-89027000D01*
X129900000Y-89185750D01*
X129896928Y-89200000D01*
X127284802Y-89200000D01*
X127248289Y-89111851D01*
X127115870Y-88913671D01*
X126947331Y-88745132D01*
X126749151Y-88612713D01*
X126528945Y-88521500D01*
X126295176Y-88475001D01*
X126056826Y-88475001D01*
X125823057Y-88521500D01*
X125602851Y-88612713D01*
X125404671Y-88745132D01*
X125236132Y-88913671D01*
X125103713Y-89111851D01*
X125012500Y-89332057D01*
X124966001Y-89565826D01*
X124485000Y-89565826D01*
X124485000Y-87025826D01*
X124966001Y-87025826D01*
X124966001Y-87264176D01*
X125012500Y-87497945D01*
X125103713Y-87718151D01*
X125236132Y-87916331D01*
X125404671Y-88084870D01*
X125602851Y-88217289D01*
X125823057Y-88308502D01*
X126056826Y-88355001D01*
X126295176Y-88355001D01*
X126528945Y-88308502D01*
X126749151Y-88217289D01*
X126947331Y-88084870D01*
X127115870Y-87916331D01*
X127248289Y-87718151D01*
X127339502Y-87497945D01*
X127386001Y-87264176D01*
X127386001Y-87025826D01*
X127339502Y-86792057D01*
X127248289Y-86571851D01*
X127115870Y-86373671D01*
X126947331Y-86205132D01*
X126749151Y-86072713D01*
X126528945Y-85981500D01*
X126295176Y-85935001D01*
X126056826Y-85935001D01*
X125823057Y-85981500D01*
X125602851Y-86072713D01*
X125404671Y-86205132D01*
X125236132Y-86373671D01*
X125103713Y-86571851D01*
X125012500Y-86792057D01*
X124966001Y-87025826D01*
X124485000Y-87025826D01*
X124485000Y-84485826D01*
X124966001Y-84485826D01*
X124966001Y-84724176D01*
X125012500Y-84957945D01*
X125103713Y-85178151D01*
X125236132Y-85376331D01*
X125404671Y-85544870D01*
X125602851Y-85677289D01*
X125823057Y-85768502D01*
X126056826Y-85815001D01*
X126295176Y-85815001D01*
X126528945Y-85768502D01*
X126749151Y-85677289D01*
X126947331Y-85544870D01*
X127115870Y-85376331D01*
X127248289Y-85178151D01*
X127339502Y-84957945D01*
X127386001Y-84724176D01*
X127386001Y-84485826D01*
X127339502Y-84252057D01*
X127248289Y-84031851D01*
X127115870Y-83833671D01*
X126947331Y-83665132D01*
X126749151Y-83532713D01*
X126528945Y-83441500D01*
X126295176Y-83395001D01*
X126056826Y-83395001D01*
X125823057Y-83441500D01*
X125602851Y-83532713D01*
X125404671Y-83665132D01*
X125236132Y-83833671D01*
X125103713Y-84031851D01*
X125012500Y-84252057D01*
X124966001Y-84485826D01*
X124485000Y-84485826D01*
X124485000Y-81945826D01*
X124966001Y-81945826D01*
X124966001Y-82184176D01*
X125012500Y-82417945D01*
X125103713Y-82638151D01*
X125236132Y-82836331D01*
X125404671Y-83004870D01*
X125602851Y-83137289D01*
X125823057Y-83228502D01*
X126056826Y-83275001D01*
X126295176Y-83275001D01*
X126528945Y-83228502D01*
X126749151Y-83137289D01*
X126947331Y-83004870D01*
X127115870Y-82836331D01*
X127200281Y-82710000D01*
X134026928Y-82710000D01*
X134030000Y-82899250D01*
X134188750Y-83058000D01*
X134975500Y-83058000D01*
X134975500Y-82233750D01*
X134816750Y-82075000D01*
X134665000Y-82071928D01*
X134540518Y-82084188D01*
X134420820Y-82120498D01*
X134310506Y-82179463D01*
X134213815Y-82258815D01*
X134134463Y-82355506D01*
X134075498Y-82465820D01*
X134039188Y-82585518D01*
X134026928Y-82710000D01*
X127200281Y-82710000D01*
X127248289Y-82638151D01*
X127339502Y-82417945D01*
X127386001Y-82184176D01*
X127386001Y-81945826D01*
X140461001Y-81945826D01*
X140461001Y-82184176D01*
X140507500Y-82417945D01*
X140598713Y-82638151D01*
X140731132Y-82836331D01*
X140899671Y-83004870D01*
X141097851Y-83137289D01*
X141318057Y-83228502D01*
X141551826Y-83275001D01*
X141790176Y-83275001D01*
X142023945Y-83228502D01*
X142244151Y-83137289D01*
X142442331Y-83004870D01*
X142610870Y-82836331D01*
X142743289Y-82638151D01*
X142834502Y-82417945D01*
X142881001Y-82184176D01*
X142881001Y-81945826D01*
X142834502Y-81712057D01*
X142743289Y-81491851D01*
X142610870Y-81293671D01*
X142442331Y-81125132D01*
X142244151Y-80992713D01*
X142023945Y-80901500D01*
X141790176Y-80855001D01*
X141551826Y-80855001D01*
X141318057Y-80901500D01*
X141097851Y-80992713D01*
X140899671Y-81125132D01*
X140731132Y-81293671D01*
X140598713Y-81491851D01*
X140507500Y-81712057D01*
X140461001Y-81945826D01*
X127386001Y-81945826D01*
X127339502Y-81712057D01*
X127248289Y-81491851D01*
X127115870Y-81293671D01*
X126947331Y-81125132D01*
X126749151Y-80992713D01*
X126528945Y-80901500D01*
X126295176Y-80855001D01*
X126056826Y-80855001D01*
X125823057Y-80901500D01*
X125602851Y-80992713D01*
X125404671Y-81125132D01*
X125236132Y-81293671D01*
X125103713Y-81491851D01*
X125012500Y-81712057D01*
X124966001Y-81945826D01*
X124485000Y-81945826D01*
X124485000Y-79405826D01*
X124966001Y-79405826D01*
X124966001Y-79644176D01*
X125012500Y-79877945D01*
X125103713Y-80098151D01*
X125236132Y-80296331D01*
X125404671Y-80464870D01*
X125602851Y-80597289D01*
X125823057Y-80688502D01*
X126056826Y-80735001D01*
X126295176Y-80735001D01*
X126528945Y-80688502D01*
X126749151Y-80597289D01*
X126947331Y-80464870D01*
X127115870Y-80296331D01*
X127248289Y-80098151D01*
X127339502Y-79877945D01*
X127386001Y-79644176D01*
X127386001Y-79405826D01*
X140461001Y-79405826D01*
X140461001Y-79644176D01*
X140507500Y-79877945D01*
X140598713Y-80098151D01*
X140731132Y-80296331D01*
X140899671Y-80464870D01*
X141097851Y-80597289D01*
X141318057Y-80688502D01*
X141551826Y-80735001D01*
X141790176Y-80735001D01*
X142023945Y-80688502D01*
X142244151Y-80597289D01*
X142442331Y-80464870D01*
X142610870Y-80296331D01*
X142743289Y-80098151D01*
X142834502Y-79877945D01*
X142881001Y-79644176D01*
X142881001Y-79405826D01*
X142834502Y-79172057D01*
X142743289Y-78951851D01*
X142610870Y-78753671D01*
X142442331Y-78585132D01*
X142244151Y-78452713D01*
X142023945Y-78361500D01*
X141790176Y-78315001D01*
X141551826Y-78315001D01*
X141318057Y-78361500D01*
X141097851Y-78452713D01*
X140899671Y-78585132D01*
X140731132Y-78753671D01*
X140598713Y-78951851D01*
X140507500Y-79172057D01*
X140461001Y-79405826D01*
X127386001Y-79405826D01*
X127339502Y-79172057D01*
X127248289Y-78951851D01*
X127115870Y-78753671D01*
X126947331Y-78585132D01*
X126749151Y-78452713D01*
X126528945Y-78361500D01*
X126295176Y-78315001D01*
X126056826Y-78315001D01*
X125823057Y-78361500D01*
X125602851Y-78452713D01*
X125404671Y-78585132D01*
X125236132Y-78753671D01*
X125103713Y-78951851D01*
X125012500Y-79172057D01*
X124966001Y-79405826D01*
X124485000Y-79405826D01*
X124485000Y-76865826D01*
X124966001Y-76865826D01*
X124966001Y-77104176D01*
X125012500Y-77337945D01*
X125103713Y-77558151D01*
X125236132Y-77756331D01*
X125404671Y-77924870D01*
X125602851Y-78057289D01*
X125823057Y-78148502D01*
X126056826Y-78195001D01*
X126295176Y-78195001D01*
X126528945Y-78148502D01*
X126749151Y-78057289D01*
X126947331Y-77924870D01*
X127115870Y-77756331D01*
X127248289Y-77558151D01*
X127339502Y-77337945D01*
X127386001Y-77104176D01*
X127386001Y-76865826D01*
X140461001Y-76865826D01*
X140461001Y-77104176D01*
X140507500Y-77337945D01*
X140598713Y-77558151D01*
X140731132Y-77756331D01*
X140899671Y-77924870D01*
X141097851Y-78057289D01*
X141318057Y-78148502D01*
X141551826Y-78195001D01*
X141790176Y-78195001D01*
X142023945Y-78148502D01*
X142244151Y-78057289D01*
X142442331Y-77924870D01*
X142610870Y-77756331D01*
X142743289Y-77558151D01*
X142834502Y-77337945D01*
X142881001Y-77104176D01*
X142881001Y-76865826D01*
X142834502Y-76632057D01*
X142743289Y-76411851D01*
X142610870Y-76213671D01*
X142442331Y-76045132D01*
X142244151Y-75912713D01*
X142023945Y-75821500D01*
X141790176Y-75775001D01*
X141551826Y-75775001D01*
X141318057Y-75821500D01*
X141097851Y-75912713D01*
X140899671Y-76045132D01*
X140731132Y-76213671D01*
X140598713Y-76411851D01*
X140507500Y-76632057D01*
X140461001Y-76865826D01*
X127386001Y-76865826D01*
X127339502Y-76632057D01*
X127248289Y-76411851D01*
X127115870Y-76213671D01*
X126947331Y-76045132D01*
X126749151Y-75912713D01*
X126528945Y-75821500D01*
X126295176Y-75775001D01*
X126056826Y-75775001D01*
X125823057Y-75821500D01*
X125602851Y-75912713D01*
X125404671Y-76045132D01*
X125236132Y-76213671D01*
X125103713Y-76411851D01*
X125012500Y-76632057D01*
X124966001Y-76865826D01*
X124485000Y-76865826D01*
X124485000Y-75276875D01*
X125523732Y-75276875D01*
X125567994Y-75497917D01*
X125785090Y-75596302D01*
X126017209Y-75650443D01*
X126255430Y-75658259D01*
X126490599Y-75619451D01*
X126713678Y-75535510D01*
X126784008Y-75497917D01*
X126828270Y-75276875D01*
X126176001Y-74624606D01*
X125523732Y-75276875D01*
X124485000Y-75276875D01*
X124485000Y-74524430D01*
X124962743Y-74524430D01*
X125001551Y-74759599D01*
X125085492Y-74982678D01*
X125123085Y-75053008D01*
X125344127Y-75097270D01*
X125996396Y-74445001D01*
X126355606Y-74445001D01*
X127007875Y-75097270D01*
X127228917Y-75053008D01*
X127327302Y-74835912D01*
X127381443Y-74603793D01*
X127389259Y-74365572D01*
X127350451Y-74130403D01*
X127266510Y-73907324D01*
X127228917Y-73836994D01*
X127007875Y-73792732D01*
X126355606Y-74445001D01*
X125996396Y-74445001D01*
X125344127Y-73792732D01*
X125123085Y-73836994D01*
X125024700Y-74054090D01*
X124970559Y-74286209D01*
X124962743Y-74524430D01*
X124485000Y-74524430D01*
X124485000Y-73613127D01*
X125523732Y-73613127D01*
X126176001Y-74265396D01*
X126828270Y-73613127D01*
X126784008Y-73392085D01*
X126566912Y-73293700D01*
X126334793Y-73239559D01*
X126096572Y-73231743D01*
X125861403Y-73270551D01*
X125638324Y-73354492D01*
X125567994Y-73392085D01*
X125523732Y-73613127D01*
X124485000Y-73613127D01*
X124485000Y-72736875D01*
X125523732Y-72736875D01*
X125567994Y-72957917D01*
X125785090Y-73056302D01*
X126017209Y-73110443D01*
X126255430Y-73118259D01*
X126490599Y-73079451D01*
X126713678Y-72995510D01*
X126784008Y-72957917D01*
X126828270Y-72736875D01*
X126176001Y-72084606D01*
X125523732Y-72736875D01*
X124485000Y-72736875D01*
X124485000Y-71984430D01*
X124962743Y-71984430D01*
X125001551Y-72219599D01*
X125085492Y-72442678D01*
X125123085Y-72513008D01*
X125344127Y-72557270D01*
X125996396Y-71905001D01*
X126355606Y-71905001D01*
X127007875Y-72557270D01*
X127228917Y-72513008D01*
X127327302Y-72295912D01*
X127381443Y-72063793D01*
X127389259Y-71825572D01*
X127350451Y-71590403D01*
X127266510Y-71367324D01*
X127228917Y-71296994D01*
X127007875Y-71252732D01*
X126355606Y-71905001D01*
X125996396Y-71905001D01*
X125344127Y-71252732D01*
X125123085Y-71296994D01*
X125024700Y-71514090D01*
X124970559Y-71746209D01*
X124962743Y-71984430D01*
X124485000Y-71984430D01*
X124485000Y-71073127D01*
X125523732Y-71073127D01*
X126176001Y-71725396D01*
X126828270Y-71073127D01*
X126784008Y-70852085D01*
X126566912Y-70753700D01*
X126334793Y-70699559D01*
X126096572Y-70691743D01*
X125861403Y-70730551D01*
X125638324Y-70814492D01*
X125567994Y-70852085D01*
X125523732Y-71073127D01*
X124485000Y-71073127D01*
X124485000Y-66576066D01*
X126643539Y-66576066D01*
X126745339Y-66845579D01*
X127043477Y-66991463D01*
X127364346Y-67076380D01*
X127695617Y-67097066D01*
X128024557Y-67052728D01*
X128338527Y-66945069D01*
X128524661Y-66845579D01*
X128626461Y-66576066D01*
X127635000Y-65584605D01*
X126643539Y-66576066D01*
X124485000Y-66576066D01*
X124485000Y-65465617D01*
X125942934Y-65465617D01*
X125987272Y-65794557D01*
X126094931Y-66108527D01*
X126194421Y-66294661D01*
X126463934Y-66396461D01*
X127455395Y-65405000D01*
X127814605Y-65405000D01*
X128806066Y-66396461D01*
X129075579Y-66294661D01*
X129221463Y-65996523D01*
X129306380Y-65675654D01*
X129327066Y-65344383D01*
X129282728Y-65015443D01*
X129175069Y-64701473D01*
X129075579Y-64515339D01*
X128806066Y-64413539D01*
X127814605Y-65405000D01*
X127455395Y-65405000D01*
X126463934Y-64413539D01*
X126194421Y-64515339D01*
X126048537Y-64813477D01*
X125963620Y-65134346D01*
X125942934Y-65465617D01*
X124485000Y-65465617D01*
X124485000Y-64233934D01*
X126643539Y-64233934D01*
X127635000Y-65225395D01*
X128626461Y-64233934D01*
X128524661Y-63964421D01*
X128226523Y-63818537D01*
X127905654Y-63733620D01*
X127574383Y-63712934D01*
X127245443Y-63757272D01*
X126931473Y-63864931D01*
X126745339Y-63964421D01*
X126643539Y-64233934D01*
X124485000Y-64233934D01*
X124485000Y-61496066D01*
X126643539Y-61496066D01*
X126745339Y-61765579D01*
X127043477Y-61911463D01*
X127364346Y-61996380D01*
X127695617Y-62017066D01*
X128024557Y-61972728D01*
X128338527Y-61865069D01*
X128524661Y-61765579D01*
X128626461Y-61496066D01*
X127635000Y-60504605D01*
X126643539Y-61496066D01*
X124485000Y-61496066D01*
X124485000Y-60385617D01*
X125942934Y-60385617D01*
X125987272Y-60714557D01*
X126094931Y-61028527D01*
X126194421Y-61214661D01*
X126463934Y-61316461D01*
X127455395Y-60325000D01*
X127814605Y-60325000D01*
X128806066Y-61316461D01*
X129075579Y-61214661D01*
X129221463Y-60916523D01*
X129306380Y-60595654D01*
X129327066Y-60264383D01*
X129312868Y-60159042D01*
X138015000Y-60159042D01*
X138015000Y-60490958D01*
X138079754Y-60816496D01*
X138206772Y-61123147D01*
X138391175Y-61399125D01*
X138430001Y-61437951D01*
X138430000Y-64292050D01*
X138391175Y-64330875D01*
X138206772Y-64606853D01*
X138079754Y-64913504D01*
X138015000Y-65239042D01*
X138015000Y-65570958D01*
X138079754Y-65896496D01*
X138206772Y-66203147D01*
X138391175Y-66479125D01*
X138430000Y-66517950D01*
X138430001Y-69871617D01*
X138423857Y-69934000D01*
X138448377Y-70182963D01*
X138520998Y-70422359D01*
X138638926Y-70642988D01*
X138797631Y-70836370D01*
X138846086Y-70876136D01*
X140401001Y-72431052D01*
X140401002Y-74507381D01*
X140419379Y-74693964D01*
X140491999Y-74933360D01*
X140609927Y-75153989D01*
X140768632Y-75347371D01*
X140962014Y-75506076D01*
X141182643Y-75624004D01*
X141422039Y-75696624D01*
X141671001Y-75721145D01*
X141919964Y-75696624D01*
X142159360Y-75624004D01*
X142379989Y-75506076D01*
X142573371Y-75347371D01*
X142732076Y-75153989D01*
X142850004Y-74933360D01*
X142922624Y-74693964D01*
X142941001Y-74507381D01*
X142941001Y-71967373D01*
X142947144Y-71905000D01*
X142941001Y-71842627D01*
X142941001Y-71842621D01*
X142922624Y-71656038D01*
X142850004Y-71416642D01*
X142732076Y-71196013D01*
X142573371Y-71002631D01*
X142524916Y-70962865D01*
X140970000Y-69407950D01*
X140970000Y-66517950D01*
X141008825Y-66479125D01*
X141193228Y-66203147D01*
X141320246Y-65896496D01*
X141385000Y-65570958D01*
X141385000Y-65239042D01*
X141320246Y-64913504D01*
X141193228Y-64606853D01*
X141008825Y-64330875D01*
X140970000Y-64292050D01*
X140970000Y-61437950D01*
X141008825Y-61399125D01*
X141193228Y-61123147D01*
X141320246Y-60816496D01*
X141385000Y-60490958D01*
X141385000Y-60159042D01*
X141320246Y-59833504D01*
X141193228Y-59526853D01*
X141008825Y-59250875D01*
X140774125Y-59016175D01*
X140498147Y-58831772D01*
X140191496Y-58704754D01*
X139865958Y-58640000D01*
X139534042Y-58640000D01*
X139208504Y-58704754D01*
X138901853Y-58831772D01*
X138625875Y-59016175D01*
X138391175Y-59250875D01*
X138206772Y-59526853D01*
X138079754Y-59833504D01*
X138015000Y-60159042D01*
X129312868Y-60159042D01*
X129282728Y-59935443D01*
X129175069Y-59621473D01*
X129075579Y-59435339D01*
X128806066Y-59333539D01*
X127814605Y-60325000D01*
X127455395Y-60325000D01*
X126463934Y-59333539D01*
X126194421Y-59435339D01*
X126048537Y-59733477D01*
X125963620Y-60054346D01*
X125942934Y-60385617D01*
X124485000Y-60385617D01*
X124485000Y-59153934D01*
X126643539Y-59153934D01*
X127635000Y-60145395D01*
X128626461Y-59153934D01*
X128524661Y-58884421D01*
X128226523Y-58738537D01*
X127905654Y-58653620D01*
X127574383Y-58632934D01*
X127245443Y-58677272D01*
X126931473Y-58784931D01*
X126745339Y-58884421D01*
X126643539Y-59153934D01*
X124485000Y-59153934D01*
X124485000Y-58445000D01*
X143485001Y-58445000D01*
X143485000Y-113640000D01*
X143485000Y-113640000D01*
G37*
X143485000Y-113640000D02*
X124485000Y-113640000D01*
X124485000Y-112931066D01*
X126643539Y-112931066D01*
X126745339Y-113200579D01*
X127043477Y-113346463D01*
X127364346Y-113431380D01*
X127695617Y-113452066D01*
X128024557Y-113407728D01*
X128338527Y-113300069D01*
X128524661Y-113200579D01*
X128626461Y-112931066D01*
X127635000Y-111939605D01*
X126643539Y-112931066D01*
X124485000Y-112931066D01*
X124485000Y-111820617D01*
X125942934Y-111820617D01*
X125987272Y-112149557D01*
X126094931Y-112463527D01*
X126194421Y-112649661D01*
X126463934Y-112751461D01*
X127455395Y-111760000D01*
X127814605Y-111760000D01*
X128806066Y-112751461D01*
X129075579Y-112649661D01*
X129221463Y-112351523D01*
X129306380Y-112030654D01*
X129327066Y-111699383D01*
X129282728Y-111370443D01*
X129175069Y-111056473D01*
X129075579Y-110870339D01*
X128806066Y-110768539D01*
X127814605Y-111760000D01*
X127455395Y-111760000D01*
X126463934Y-110768539D01*
X126194421Y-110870339D01*
X126048537Y-111168477D01*
X125963620Y-111489346D01*
X125942934Y-111820617D01*
X124485000Y-111820617D01*
X124485000Y-110588934D01*
X126643539Y-110588934D01*
X127635000Y-111580395D01*
X128626461Y-110588934D01*
X128524661Y-110319421D01*
X128226523Y-110173537D01*
X127905654Y-110088620D01*
X127574383Y-110067934D01*
X127245443Y-110112272D01*
X126931473Y-110219931D01*
X126745339Y-110319421D01*
X126643539Y-110588934D01*
X124485000Y-110588934D01*
X124485000Y-107851066D01*
X126643539Y-107851066D01*
X126745339Y-108120579D01*
X127043477Y-108266463D01*
X127364346Y-108351380D01*
X127695617Y-108372066D01*
X128024557Y-108327728D01*
X128338527Y-108220069D01*
X128524661Y-108120579D01*
X128626461Y-107851066D01*
X127635000Y-106859605D01*
X126643539Y-107851066D01*
X124485000Y-107851066D01*
X124485000Y-106740617D01*
X125942934Y-106740617D01*
X125987272Y-107069557D01*
X126094931Y-107383527D01*
X126194421Y-107569661D01*
X126463934Y-107671461D01*
X127455395Y-106680000D01*
X127814605Y-106680000D01*
X128806066Y-107671461D01*
X129075579Y-107569661D01*
X129221463Y-107271523D01*
X129306380Y-106950654D01*
X129327066Y-106619383D01*
X129282728Y-106290443D01*
X129175069Y-105976473D01*
X129075579Y-105790339D01*
X128806066Y-105688539D01*
X127814605Y-106680000D01*
X127455395Y-106680000D01*
X126463934Y-105688539D01*
X126194421Y-105790339D01*
X126048537Y-106088477D01*
X125963620Y-106409346D01*
X125942934Y-106740617D01*
X124485000Y-106740617D01*
X124485000Y-105508934D01*
X126643539Y-105508934D01*
X127635000Y-106500395D01*
X128626461Y-105508934D01*
X128524661Y-105239421D01*
X128226523Y-105093537D01*
X127905654Y-105008620D01*
X127574383Y-104987934D01*
X127245443Y-105032272D01*
X126931473Y-105139931D01*
X126745339Y-105239421D01*
X126643539Y-105508934D01*
X124485000Y-105508934D01*
X124485000Y-100420001D01*
X124962929Y-100420001D01*
X124975189Y-100544483D01*
X125011499Y-100664181D01*
X125070464Y-100774495D01*
X125149816Y-100871186D01*
X125246507Y-100950538D01*
X125356821Y-101009503D01*
X125476519Y-101045813D01*
X125601001Y-101058073D01*
X125890251Y-101055001D01*
X126049001Y-100896251D01*
X126049001Y-99972001D01*
X126303001Y-99972001D01*
X126303001Y-100896251D01*
X126461751Y-101055001D01*
X126751001Y-101058073D01*
X126875483Y-101045813D01*
X126995181Y-101009503D01*
X127105495Y-100950538D01*
X127202186Y-100871186D01*
X127281538Y-100774495D01*
X127340503Y-100664181D01*
X127376813Y-100544483D01*
X127389073Y-100420001D01*
X127386001Y-100130751D01*
X127227251Y-99972001D01*
X126303001Y-99972001D01*
X126049001Y-99972001D01*
X125124751Y-99972001D01*
X124966001Y-100130751D01*
X124962929Y-100420001D01*
X124485000Y-100420001D01*
X124485000Y-99270001D01*
X124962929Y-99270001D01*
X124966001Y-99559251D01*
X125124751Y-99718001D01*
X126049001Y-99718001D01*
X126049001Y-98793751D01*
X126303001Y-98793751D01*
X126303001Y-99718001D01*
X127227251Y-99718001D01*
X127386001Y-99559251D01*
X127389073Y-99270001D01*
X127376813Y-99145519D01*
X127340503Y-99025821D01*
X127281538Y-98915507D01*
X127202186Y-98818816D01*
X127105495Y-98739464D01*
X126995181Y-98680499D01*
X126875483Y-98644189D01*
X126751001Y-98631929D01*
X126461751Y-98635001D01*
X126303001Y-98793751D01*
X126049001Y-98793751D01*
X125890251Y-98635001D01*
X125601001Y-98631929D01*
X125476519Y-98644189D01*
X125356821Y-98680499D01*
X125246507Y-98739464D01*
X125149816Y-98818816D01*
X125070464Y-98915507D01*
X125011499Y-99025821D01*
X124975189Y-99145519D01*
X124962929Y-99270001D01*
X124485000Y-99270001D01*
X124485000Y-98136875D01*
X125523732Y-98136875D01*
X125567994Y-98357917D01*
X125785090Y-98456302D01*
X126017209Y-98510443D01*
X126255430Y-98518259D01*
X126490599Y-98479451D01*
X126713678Y-98395510D01*
X126784008Y-98357917D01*
X126828270Y-98136875D01*
X126176001Y-97484606D01*
X125523732Y-98136875D01*
X124485000Y-98136875D01*
X124485000Y-97384430D01*
X124962743Y-97384430D01*
X125001551Y-97619599D01*
X125085492Y-97842678D01*
X125123085Y-97913008D01*
X125344127Y-97957270D01*
X125996396Y-97305001D01*
X126355606Y-97305001D01*
X127007875Y-97957270D01*
X127228917Y-97913008D01*
X127327302Y-97695912D01*
X127381443Y-97463793D01*
X127389259Y-97225572D01*
X127350451Y-96990403D01*
X127266510Y-96767324D01*
X127228917Y-96696994D01*
X127007875Y-96652732D01*
X126355606Y-97305001D01*
X125996396Y-97305001D01*
X125344127Y-96652732D01*
X125123085Y-96696994D01*
X125024700Y-96914090D01*
X124970559Y-97146209D01*
X124962743Y-97384430D01*
X124485000Y-97384430D01*
X124485000Y-96473127D01*
X125523732Y-96473127D01*
X126176001Y-97125396D01*
X126828270Y-96473127D01*
X126784008Y-96252085D01*
X126566912Y-96153700D01*
X126334793Y-96099559D01*
X126096572Y-96091743D01*
X125861403Y-96130551D01*
X125638324Y-96214492D01*
X125567994Y-96252085D01*
X125523732Y-96473127D01*
X124485000Y-96473127D01*
X124485000Y-94645826D01*
X124966001Y-94645826D01*
X124966001Y-94884176D01*
X125012500Y-95117945D01*
X125103713Y-95338151D01*
X125236132Y-95536331D01*
X125404671Y-95704870D01*
X125602851Y-95837289D01*
X125823057Y-95928502D01*
X126056826Y-95975001D01*
X126295176Y-95975001D01*
X126528945Y-95928502D01*
X126749151Y-95837289D01*
X126947331Y-95704870D01*
X127115870Y-95536331D01*
X127248289Y-95338151D01*
X127339502Y-95117945D01*
X127382853Y-94900000D01*
X128426928Y-94900000D01*
X128439188Y-95024482D01*
X128475498Y-95144180D01*
X128534463Y-95254494D01*
X128589100Y-95321070D01*
X128571329Y-95342725D01*
X128492150Y-95490858D01*
X128443392Y-95651592D01*
X128426928Y-95818750D01*
X128426928Y-96256250D01*
X128443392Y-96423408D01*
X128492150Y-96584142D01*
X128571329Y-96732275D01*
X128677885Y-96862115D01*
X128807725Y-96968671D01*
X128955858Y-97047850D01*
X129116592Y-97096608D01*
X129266872Y-97111410D01*
X129315893Y-97160431D01*
X129345722Y-97196778D01*
X129490759Y-97315806D01*
X129656231Y-97404252D01*
X129787882Y-97444188D01*
X129835777Y-97458717D01*
X130022499Y-97477108D01*
X130069284Y-97472500D01*
X130502855Y-97472500D01*
X130515498Y-97514180D01*
X130574463Y-97624494D01*
X130611809Y-97670000D01*
X130574463Y-97715506D01*
X130515498Y-97825820D01*
X130479188Y-97945518D01*
X130466928Y-98070000D01*
X130466928Y-99570000D01*
X130479188Y-99694482D01*
X130515498Y-99814180D01*
X130574463Y-99924494D01*
X130653815Y-100021185D01*
X130657500Y-100024210D01*
X130657501Y-101662380D01*
X130675878Y-101848963D01*
X130748498Y-102088359D01*
X130866426Y-102308988D01*
X131025131Y-102502370D01*
X131218513Y-102661075D01*
X131439142Y-102779003D01*
X131678538Y-102851623D01*
X131927500Y-102876144D01*
X132176463Y-102851623D01*
X132415859Y-102779003D01*
X132636488Y-102661075D01*
X132707334Y-102602933D01*
X132710506Y-102605537D01*
X132820820Y-102664502D01*
X132940518Y-102700812D01*
X133065000Y-102713072D01*
X133216750Y-102710000D01*
X133375500Y-102551250D01*
X133375500Y-101727000D01*
X133629500Y-101727000D01*
X133629500Y-102551250D01*
X133788250Y-102710000D01*
X133940000Y-102713072D01*
X134064482Y-102700812D01*
X134184180Y-102664502D01*
X134294494Y-102605537D01*
X134391185Y-102526185D01*
X134470537Y-102429494D01*
X134529502Y-102319180D01*
X134565812Y-102199482D01*
X134578072Y-102075000D01*
X136566928Y-102075000D01*
X136579188Y-102199482D01*
X136615498Y-102319180D01*
X136674463Y-102429494D01*
X136753815Y-102526185D01*
X136850506Y-102605537D01*
X136960820Y-102664502D01*
X137080518Y-102700812D01*
X137205000Y-102713072D01*
X137356750Y-102710000D01*
X137515500Y-102551250D01*
X137515500Y-101727000D01*
X136728750Y-101727000D01*
X136570000Y-101885750D01*
X136566928Y-102075000D01*
X134578072Y-102075000D01*
X134575000Y-101885750D01*
X134416250Y-101727000D01*
X133629500Y-101727000D01*
X133375500Y-101727000D01*
X133355500Y-101727000D01*
X133355500Y-101473000D01*
X133375500Y-101473000D01*
X133375500Y-100648750D01*
X133629500Y-100648750D01*
X133629500Y-101473000D01*
X134416250Y-101473000D01*
X134575000Y-101314250D01*
X134578072Y-101125000D01*
X134565812Y-101000518D01*
X134529502Y-100880820D01*
X134470537Y-100770506D01*
X134391185Y-100673815D01*
X134294494Y-100594463D01*
X134184180Y-100535498D01*
X134064482Y-100499188D01*
X133940000Y-100486928D01*
X133788250Y-100490000D01*
X133629500Y-100648750D01*
X133375500Y-100648750D01*
X133216750Y-100490000D01*
X133197500Y-100489610D01*
X133197500Y-100198962D01*
X133229482Y-100195812D01*
X133349180Y-100159502D01*
X133459494Y-100100537D01*
X133472333Y-100090000D01*
X133848950Y-100090000D01*
X134048860Y-100289910D01*
X134088631Y-100338371D01*
X134282013Y-100497076D01*
X134502642Y-100615004D01*
X134613888Y-100648750D01*
X134742037Y-100687624D01*
X134765348Y-100689920D01*
X134928621Y-100706001D01*
X134928628Y-100706001D01*
X134991001Y-100712144D01*
X135053374Y-100706001D01*
X136727401Y-100706001D01*
X136674463Y-100770506D01*
X136615498Y-100880820D01*
X136579188Y-101000518D01*
X136566928Y-101125000D01*
X136570000Y-101314250D01*
X136728750Y-101473000D01*
X137515500Y-101473000D01*
X137515500Y-101453000D01*
X137769500Y-101453000D01*
X137769500Y-101473000D01*
X137789500Y-101473000D01*
X137789500Y-101727000D01*
X137769500Y-101727000D01*
X137769500Y-102551250D01*
X137928250Y-102710000D01*
X138080000Y-102713072D01*
X138204482Y-102700812D01*
X138324180Y-102664502D01*
X138434494Y-102605537D01*
X138437666Y-102602933D01*
X138508512Y-102661075D01*
X138729141Y-102779003D01*
X138968537Y-102851623D01*
X139217500Y-102876144D01*
X139279880Y-102870000D01*
X139853629Y-102870000D01*
X139916002Y-102876143D01*
X139978375Y-102870000D01*
X139978382Y-102870000D01*
X140164965Y-102851623D01*
X140401001Y-102780022D01*
X140401001Y-104182948D01*
X139588950Y-104995000D01*
X139534042Y-104995000D01*
X139208504Y-105059754D01*
X138901853Y-105186772D01*
X138625875Y-105371175D01*
X138391175Y-105605875D01*
X138206772Y-105881853D01*
X138079754Y-106188504D01*
X138015000Y-106514042D01*
X138015000Y-106845958D01*
X138079754Y-107171496D01*
X138206772Y-107478147D01*
X138391175Y-107754125D01*
X138430001Y-107792951D01*
X138430000Y-110647050D01*
X138391175Y-110685875D01*
X138206772Y-110961853D01*
X138079754Y-111268504D01*
X138015000Y-111594042D01*
X138015000Y-111925958D01*
X138079754Y-112251496D01*
X138206772Y-112558147D01*
X138391175Y-112834125D01*
X138625875Y-113068825D01*
X138901853Y-113253228D01*
X139208504Y-113380246D01*
X139534042Y-113445000D01*
X139865958Y-113445000D01*
X140191496Y-113380246D01*
X140498147Y-113253228D01*
X140774125Y-113068825D01*
X141008825Y-112834125D01*
X141193228Y-112558147D01*
X141320246Y-112251496D01*
X141385000Y-111925958D01*
X141385000Y-111594042D01*
X141320246Y-111268504D01*
X141193228Y-110961853D01*
X141008825Y-110685875D01*
X140970000Y-110647050D01*
X140970000Y-107792950D01*
X141008825Y-107754125D01*
X141193228Y-107478147D01*
X141320246Y-107171496D01*
X141385000Y-106845958D01*
X141385000Y-106791050D01*
X142524916Y-105651135D01*
X142573371Y-105611369D01*
X142732076Y-105417987D01*
X142850004Y-105197358D01*
X142922624Y-104957962D01*
X142941001Y-104771379D01*
X142941001Y-104771373D01*
X142947144Y-104709000D01*
X142941001Y-104646627D01*
X142941001Y-99907375D01*
X142947144Y-99845002D01*
X142941001Y-99782629D01*
X142941001Y-97242621D01*
X142922624Y-97056038D01*
X142850004Y-96816642D01*
X142732076Y-96596013D01*
X142573371Y-96402631D01*
X142379988Y-96243926D01*
X142159359Y-96125998D01*
X141919963Y-96053378D01*
X141671001Y-96028857D01*
X141422038Y-96053378D01*
X141182642Y-96125998D01*
X140962013Y-96243926D01*
X140768631Y-96402631D01*
X140609926Y-96596014D01*
X140491998Y-96816643D01*
X140419378Y-97056039D01*
X140401001Y-97242622D01*
X140401002Y-99318949D01*
X139889860Y-99830091D01*
X139117840Y-99058072D01*
X139405000Y-99058072D01*
X139529482Y-99045812D01*
X139649180Y-99009502D01*
X139759494Y-98950537D01*
X139856185Y-98871185D01*
X139935537Y-98774494D01*
X139994502Y-98664180D01*
X140030812Y-98544482D01*
X140043072Y-98420000D01*
X140043072Y-94645826D01*
X140461001Y-94645826D01*
X140461001Y-94884176D01*
X140507500Y-95117945D01*
X140598713Y-95338151D01*
X140731132Y-95536331D01*
X140899671Y-95704870D01*
X141097851Y-95837289D01*
X141318057Y-95928502D01*
X141551826Y-95975001D01*
X141790176Y-95975001D01*
X142023945Y-95928502D01*
X142244151Y-95837289D01*
X142442331Y-95704870D01*
X142610870Y-95536331D01*
X142743289Y-95338151D01*
X142834502Y-95117945D01*
X142881001Y-94884176D01*
X142881001Y-94645826D01*
X142834502Y-94412057D01*
X142743289Y-94191851D01*
X142610870Y-93993671D01*
X142442331Y-93825132D01*
X142244151Y-93692713D01*
X142023945Y-93601500D01*
X141790176Y-93555001D01*
X141551826Y-93555001D01*
X141318057Y-93601500D01*
X141097851Y-93692713D01*
X140899671Y-93825132D01*
X140731132Y-93993671D01*
X140598713Y-94191851D01*
X140507500Y-94412057D01*
X140461001Y-94645826D01*
X140043072Y-94645826D01*
X140043072Y-94620000D01*
X140030812Y-94495518D01*
X139994502Y-94375820D01*
X139935537Y-94265506D01*
X139856185Y-94168815D01*
X139759494Y-94089463D01*
X139649180Y-94030498D01*
X139529482Y-93994188D01*
X139405000Y-93981928D01*
X137405000Y-93981928D01*
X137280518Y-93994188D01*
X137160820Y-94030498D01*
X137050506Y-94089463D01*
X136953815Y-94168815D01*
X136874463Y-94265506D01*
X136815498Y-94375820D01*
X136779188Y-94495518D01*
X136766928Y-94620000D01*
X136766928Y-95567500D01*
X134756001Y-95567500D01*
X134756001Y-87236061D01*
X135008812Y-86983250D01*
X135018454Y-86995000D01*
X134979742Y-87042171D01*
X134906916Y-87178418D01*
X134862071Y-87326255D01*
X134846928Y-87480000D01*
X134846928Y-87780000D01*
X134862071Y-87933745D01*
X134906916Y-88081582D01*
X134979742Y-88217829D01*
X135018454Y-88265000D01*
X134979742Y-88312171D01*
X134906916Y-88448418D01*
X134862071Y-88596255D01*
X134846928Y-88750000D01*
X134846928Y-89050000D01*
X134862071Y-89203745D01*
X134906916Y-89351582D01*
X134979742Y-89487829D01*
X135077749Y-89607251D01*
X135197171Y-89705258D01*
X135333418Y-89778084D01*
X135481255Y-89822929D01*
X135635000Y-89838072D01*
X137285000Y-89838072D01*
X137438745Y-89822929D01*
X137586582Y-89778084D01*
X137722829Y-89705258D01*
X137842251Y-89607251D01*
X137940258Y-89487829D01*
X138013084Y-89351582D01*
X138057929Y-89203745D01*
X138070785Y-89073218D01*
X138239500Y-89241933D01*
X138239501Y-90806440D01*
X138235506Y-90847000D01*
X138251445Y-91008826D01*
X138298647Y-91164433D01*
X138375301Y-91307842D01*
X138436863Y-91382854D01*
X138478460Y-91433541D01*
X138509961Y-91459393D01*
X139830612Y-92780046D01*
X139856460Y-92811542D01*
X139887956Y-92837390D01*
X139887959Y-92837393D01*
X139982158Y-92914700D01*
X140125567Y-92991354D01*
X140281175Y-93038557D01*
X140402448Y-93050501D01*
X140402450Y-93050501D01*
X140443001Y-93054495D01*
X140483551Y-93050501D01*
X140785302Y-93050501D01*
X140899671Y-93164870D01*
X141097851Y-93297289D01*
X141318057Y-93388502D01*
X141551826Y-93435001D01*
X141790176Y-93435001D01*
X142023945Y-93388502D01*
X142244151Y-93297289D01*
X142442331Y-93164870D01*
X142610870Y-92996331D01*
X142743289Y-92798151D01*
X142834502Y-92577945D01*
X142881001Y-92344176D01*
X142881001Y-92105826D01*
X142834502Y-91872057D01*
X142743289Y-91651851D01*
X142610870Y-91453671D01*
X142442331Y-91285132D01*
X142244151Y-91152713D01*
X142023945Y-91061500D01*
X141790176Y-91015001D01*
X141551826Y-91015001D01*
X141318057Y-91061500D01*
X141097851Y-91152713D01*
X140899671Y-91285132D01*
X140785302Y-91399501D01*
X140784935Y-91399501D01*
X139890500Y-90505068D01*
X139890500Y-89565826D01*
X140461001Y-89565826D01*
X140461001Y-89804176D01*
X140507500Y-90037945D01*
X140598713Y-90258151D01*
X140731132Y-90456331D01*
X140899671Y-90624870D01*
X141097851Y-90757289D01*
X141318057Y-90848502D01*
X141551826Y-90895001D01*
X141790176Y-90895001D01*
X142023945Y-90848502D01*
X142244151Y-90757289D01*
X142442331Y-90624870D01*
X142610870Y-90456331D01*
X142743289Y-90258151D01*
X142834502Y-90037945D01*
X142881001Y-89804176D01*
X142881001Y-89565826D01*
X142834502Y-89332057D01*
X142743289Y-89111851D01*
X142610870Y-88913671D01*
X142442331Y-88745132D01*
X142244151Y-88612713D01*
X142023945Y-88521500D01*
X141790176Y-88475001D01*
X141551826Y-88475001D01*
X141318057Y-88521500D01*
X141097851Y-88612713D01*
X140899671Y-88745132D01*
X140731132Y-88913671D01*
X140598713Y-89111851D01*
X140507500Y-89332057D01*
X140461001Y-89565826D01*
X139890500Y-89565826D01*
X139890500Y-88940550D01*
X139894494Y-88899999D01*
X139890500Y-88859447D01*
X139878556Y-88738174D01*
X139831353Y-88582566D01*
X139754700Y-88439159D01*
X139754699Y-88439157D01*
X139704177Y-88377596D01*
X139651541Y-88313459D01*
X139620040Y-88287608D01*
X138407398Y-87074966D01*
X138381541Y-87043459D01*
X138360056Y-87025826D01*
X140461001Y-87025826D01*
X140461001Y-87264176D01*
X140507500Y-87497945D01*
X140598713Y-87718151D01*
X140731132Y-87916331D01*
X140899671Y-88084870D01*
X141097851Y-88217289D01*
X141318057Y-88308502D01*
X141551826Y-88355001D01*
X141790176Y-88355001D01*
X142023945Y-88308502D01*
X142244151Y-88217289D01*
X142442331Y-88084870D01*
X142610870Y-87916331D01*
X142743289Y-87718151D01*
X142834502Y-87497945D01*
X142881001Y-87264176D01*
X142881001Y-87025826D01*
X142834502Y-86792057D01*
X142743289Y-86571851D01*
X142610870Y-86373671D01*
X142442331Y-86205132D01*
X142244151Y-86072713D01*
X142023945Y-85981500D01*
X141790176Y-85935001D01*
X141551826Y-85935001D01*
X141318057Y-85981500D01*
X141097851Y-86072713D01*
X140899671Y-86205132D01*
X140731132Y-86373671D01*
X140598713Y-86571851D01*
X140507500Y-86792057D01*
X140461001Y-87025826D01*
X138360056Y-87025826D01*
X138255842Y-86940301D01*
X138112434Y-86863647D01*
X138002999Y-86830450D01*
X138013084Y-86811582D01*
X138057929Y-86663745D01*
X138073072Y-86510000D01*
X138073072Y-86210000D01*
X138057929Y-86056255D01*
X138013084Y-85908418D01*
X137940258Y-85772171D01*
X137901546Y-85725000D01*
X137940258Y-85677829D01*
X138013084Y-85541582D01*
X138057929Y-85393745D01*
X138073072Y-85240000D01*
X138073072Y-84940000D01*
X138057929Y-84786255D01*
X138013084Y-84638418D01*
X137940258Y-84502171D01*
X137926845Y-84485826D01*
X140461001Y-84485826D01*
X140461001Y-84724176D01*
X140507500Y-84957945D01*
X140598713Y-85178151D01*
X140731132Y-85376331D01*
X140899671Y-85544870D01*
X141097851Y-85677289D01*
X141318057Y-85768502D01*
X141551826Y-85815001D01*
X141790176Y-85815001D01*
X142023945Y-85768502D01*
X142244151Y-85677289D01*
X142442331Y-85544870D01*
X142610870Y-85376331D01*
X142743289Y-85178151D01*
X142834502Y-84957945D01*
X142881001Y-84724176D01*
X142881001Y-84485826D01*
X142834502Y-84252057D01*
X142743289Y-84031851D01*
X142610870Y-83833671D01*
X142442331Y-83665132D01*
X142244151Y-83532713D01*
X142023945Y-83441500D01*
X141790176Y-83395001D01*
X141551826Y-83395001D01*
X141318057Y-83441500D01*
X141097851Y-83532713D01*
X140899671Y-83665132D01*
X140731132Y-83833671D01*
X140598713Y-84031851D01*
X140507500Y-84252057D01*
X140461001Y-84485826D01*
X137926845Y-84485826D01*
X137842251Y-84382749D01*
X137722829Y-84284742D01*
X137586582Y-84211916D01*
X137438745Y-84167071D01*
X137412500Y-84164486D01*
X137412500Y-84120659D01*
X137502115Y-84047115D01*
X137608671Y-83917275D01*
X137687850Y-83769142D01*
X137736608Y-83608408D01*
X137753072Y-83441250D01*
X137753072Y-82928750D01*
X137736608Y-82761592D01*
X137687850Y-82600858D01*
X137608671Y-82452725D01*
X137502115Y-82322885D01*
X137372275Y-82216329D01*
X137224142Y-82137150D01*
X137063408Y-82088392D01*
X136896250Y-82071928D01*
X136458750Y-82071928D01*
X136291592Y-82088392D01*
X136130858Y-82137150D01*
X135982725Y-82216329D01*
X135961070Y-82234100D01*
X135894494Y-82179463D01*
X135784180Y-82120498D01*
X135664482Y-82084188D01*
X135540000Y-82071928D01*
X135388250Y-82075000D01*
X135229500Y-82233750D01*
X135229500Y-83058000D01*
X135249500Y-83058000D01*
X135249500Y-83312000D01*
X135229500Y-83312000D01*
X135229500Y-83332000D01*
X134975500Y-83332000D01*
X134975500Y-83312000D01*
X134188750Y-83312000D01*
X134030000Y-83470750D01*
X134026928Y-83660000D01*
X134039188Y-83784482D01*
X134075498Y-83904180D01*
X134134463Y-84014494D01*
X134213815Y-84111185D01*
X134310506Y-84190537D01*
X134420820Y-84249502D01*
X134540518Y-84285812D01*
X134665000Y-84298072D01*
X134816750Y-84295000D01*
X134975498Y-84136252D01*
X134975498Y-84295000D01*
X135022301Y-84295000D01*
X134878246Y-84413222D01*
X134848417Y-84449569D01*
X133163070Y-86134916D01*
X133126723Y-86164745D01*
X133119484Y-86173566D01*
X133107929Y-86056255D01*
X133063084Y-85908418D01*
X132990258Y-85772171D01*
X132951546Y-85725000D01*
X132990258Y-85677829D01*
X133063084Y-85541582D01*
X133107929Y-85393745D01*
X133123072Y-85240000D01*
X133123072Y-84940000D01*
X133107929Y-84786255D01*
X133063084Y-84638418D01*
X132990258Y-84502171D01*
X132892251Y-84382749D01*
X132772829Y-84284742D01*
X132636582Y-84211916D01*
X132488745Y-84167071D01*
X132335000Y-84151928D01*
X130685000Y-84151928D01*
X130531255Y-84167071D01*
X130383418Y-84211916D01*
X130247171Y-84284742D01*
X130127749Y-84382749D01*
X130029742Y-84502171D01*
X129956916Y-84638418D01*
X129912071Y-84786255D01*
X129896928Y-84940000D01*
X129896928Y-85240000D01*
X129912071Y-85393745D01*
X129956916Y-85541582D01*
X130029742Y-85677829D01*
X130068454Y-85725000D01*
X130029742Y-85772171D01*
X129956916Y-85908418D01*
X129912071Y-86056255D01*
X129896928Y-86210000D01*
X129896928Y-86510000D01*
X129912071Y-86663745D01*
X129956916Y-86811582D01*
X130029742Y-86947829D01*
X130068454Y-86995000D01*
X130029742Y-87042171D01*
X129956916Y-87178418D01*
X129912071Y-87326255D01*
X129896928Y-87480000D01*
X129896928Y-87780000D01*
X129912071Y-87933745D01*
X129956916Y-88081582D01*
X130028730Y-88215936D01*
X130004463Y-88245506D01*
X129945498Y-88355820D01*
X129909188Y-88475518D01*
X129896928Y-88600000D01*
X129900000Y-88614250D01*
X130058750Y-88773000D01*
X131383000Y-88773000D01*
X131383000Y-88753000D01*
X131637000Y-88753000D01*
X131637000Y-88773000D01*
X131657000Y-88773000D01*
X131657000Y-89027000D01*
X131637000Y-89027000D01*
X131637000Y-89676250D01*
X131795750Y-89835000D01*
X132485000Y-89838072D01*
X132609482Y-89825812D01*
X132729180Y-89789502D01*
X132839494Y-89730537D01*
X132851001Y-89721093D01*
X132851002Y-92833020D01*
X132390750Y-92835000D01*
X132232000Y-92993750D01*
X132232000Y-94093000D01*
X132252000Y-94093000D01*
X132252000Y-94347000D01*
X132232000Y-94347000D01*
X132232000Y-94367000D01*
X131978000Y-94367000D01*
X131978000Y-94347000D01*
X131958000Y-94347000D01*
X131958000Y-94093000D01*
X131978000Y-94093000D01*
X131978000Y-92993750D01*
X131819250Y-92835000D01*
X131105000Y-92831928D01*
X130980518Y-92844188D01*
X130860820Y-92880498D01*
X130750506Y-92939463D01*
X130653815Y-93018815D01*
X130574463Y-93115506D01*
X130515498Y-93225820D01*
X130479188Y-93345518D01*
X130466928Y-93470000D01*
X130467627Y-93575572D01*
X130466185Y-93573815D01*
X130369494Y-93494463D01*
X130259180Y-93435498D01*
X130139482Y-93399188D01*
X130015000Y-93386928D01*
X129825750Y-93390000D01*
X129667000Y-93548750D01*
X129667000Y-94335500D01*
X129687000Y-94335500D01*
X129687000Y-94589500D01*
X129667000Y-94589500D01*
X129667000Y-94609500D01*
X129413000Y-94609500D01*
X129413000Y-94589500D01*
X128588750Y-94589500D01*
X128430000Y-94748250D01*
X128426928Y-94900000D01*
X127382853Y-94900000D01*
X127386001Y-94884176D01*
X127386001Y-94645826D01*
X127339502Y-94412057D01*
X127248289Y-94191851D01*
X127136804Y-94025000D01*
X128426928Y-94025000D01*
X128430000Y-94176750D01*
X128588750Y-94335500D01*
X129413000Y-94335500D01*
X129413000Y-93548750D01*
X129254250Y-93390000D01*
X129065000Y-93386928D01*
X128940518Y-93399188D01*
X128820820Y-93435498D01*
X128710506Y-93494463D01*
X128613815Y-93573815D01*
X128534463Y-93670506D01*
X128475498Y-93780820D01*
X128439188Y-93900518D01*
X128426928Y-94025000D01*
X127136804Y-94025000D01*
X127115870Y-93993671D01*
X126947331Y-93825132D01*
X126749151Y-93692713D01*
X126528945Y-93601500D01*
X126295176Y-93555001D01*
X126056826Y-93555001D01*
X125823057Y-93601500D01*
X125602851Y-93692713D01*
X125404671Y-93825132D01*
X125236132Y-93993671D01*
X125103713Y-94191851D01*
X125012500Y-94412057D01*
X124966001Y-94645826D01*
X124485000Y-94645826D01*
X124485000Y-92105826D01*
X124966001Y-92105826D01*
X124966001Y-92344176D01*
X125012500Y-92577945D01*
X125103713Y-92798151D01*
X125236132Y-92996331D01*
X125404671Y-93164870D01*
X125602851Y-93297289D01*
X125823057Y-93388502D01*
X126056826Y-93435001D01*
X126295176Y-93435001D01*
X126528945Y-93388502D01*
X126749151Y-93297289D01*
X126947331Y-93164870D01*
X127115870Y-92996331D01*
X127248289Y-92798151D01*
X127339502Y-92577945D01*
X127386001Y-92344176D01*
X127386001Y-92105826D01*
X127339502Y-91872057D01*
X127248289Y-91651851D01*
X127115870Y-91453671D01*
X126947331Y-91285132D01*
X126749151Y-91152713D01*
X126528945Y-91061500D01*
X126295176Y-91015001D01*
X126056826Y-91015001D01*
X125823057Y-91061500D01*
X125602851Y-91152713D01*
X125404671Y-91285132D01*
X125236132Y-91453671D01*
X125103713Y-91651851D01*
X125012500Y-91872057D01*
X124966001Y-92105826D01*
X124485000Y-92105826D01*
X124485000Y-89565826D01*
X124966001Y-89565826D01*
X124966001Y-89804176D01*
X125012500Y-90037945D01*
X125103713Y-90258151D01*
X125236132Y-90456331D01*
X125404671Y-90624870D01*
X125602851Y-90757289D01*
X125823057Y-90848502D01*
X126056826Y-90895001D01*
X126295176Y-90895001D01*
X126528945Y-90848502D01*
X126749151Y-90757289D01*
X126947331Y-90624870D01*
X127115870Y-90456331D01*
X127248289Y-90258151D01*
X127339502Y-90037945D01*
X127386001Y-89804176D01*
X127386001Y-89565826D01*
X127339502Y-89332057D01*
X127284802Y-89200000D01*
X129896928Y-89200000D01*
X129909188Y-89324482D01*
X129945498Y-89444180D01*
X130004463Y-89554494D01*
X130083815Y-89651185D01*
X130180506Y-89730537D01*
X130290820Y-89789502D01*
X130410518Y-89825812D01*
X130535000Y-89838072D01*
X131224250Y-89835000D01*
X131383000Y-89676250D01*
X131383000Y-89027000D01*
X130058750Y-89027000D01*
X129900000Y-89185750D01*
X129896928Y-89200000D01*
X127284802Y-89200000D01*
X127248289Y-89111851D01*
X127115870Y-88913671D01*
X126947331Y-88745132D01*
X126749151Y-88612713D01*
X126528945Y-88521500D01*
X126295176Y-88475001D01*
X126056826Y-88475001D01*
X125823057Y-88521500D01*
X125602851Y-88612713D01*
X125404671Y-88745132D01*
X125236132Y-88913671D01*
X125103713Y-89111851D01*
X125012500Y-89332057D01*
X124966001Y-89565826D01*
X124485000Y-89565826D01*
X124485000Y-87025826D01*
X124966001Y-87025826D01*
X124966001Y-87264176D01*
X125012500Y-87497945D01*
X125103713Y-87718151D01*
X125236132Y-87916331D01*
X125404671Y-88084870D01*
X125602851Y-88217289D01*
X125823057Y-88308502D01*
X126056826Y-88355001D01*
X126295176Y-88355001D01*
X126528945Y-88308502D01*
X126749151Y-88217289D01*
X126947331Y-88084870D01*
X127115870Y-87916331D01*
X127248289Y-87718151D01*
X127339502Y-87497945D01*
X127386001Y-87264176D01*
X127386001Y-87025826D01*
X127339502Y-86792057D01*
X127248289Y-86571851D01*
X127115870Y-86373671D01*
X126947331Y-86205132D01*
X126749151Y-86072713D01*
X126528945Y-85981500D01*
X126295176Y-85935001D01*
X126056826Y-85935001D01*
X125823057Y-85981500D01*
X125602851Y-86072713D01*
X125404671Y-86205132D01*
X125236132Y-86373671D01*
X125103713Y-86571851D01*
X125012500Y-86792057D01*
X124966001Y-87025826D01*
X124485000Y-87025826D01*
X124485000Y-84485826D01*
X124966001Y-84485826D01*
X124966001Y-84724176D01*
X125012500Y-84957945D01*
X125103713Y-85178151D01*
X125236132Y-85376331D01*
X125404671Y-85544870D01*
X125602851Y-85677289D01*
X125823057Y-85768502D01*
X126056826Y-85815001D01*
X126295176Y-85815001D01*
X126528945Y-85768502D01*
X126749151Y-85677289D01*
X126947331Y-85544870D01*
X127115870Y-85376331D01*
X127248289Y-85178151D01*
X127339502Y-84957945D01*
X127386001Y-84724176D01*
X127386001Y-84485826D01*
X127339502Y-84252057D01*
X127248289Y-84031851D01*
X127115870Y-83833671D01*
X126947331Y-83665132D01*
X126749151Y-83532713D01*
X126528945Y-83441500D01*
X126295176Y-83395001D01*
X126056826Y-83395001D01*
X125823057Y-83441500D01*
X125602851Y-83532713D01*
X125404671Y-83665132D01*
X125236132Y-83833671D01*
X125103713Y-84031851D01*
X125012500Y-84252057D01*
X124966001Y-84485826D01*
X124485000Y-84485826D01*
X124485000Y-81945826D01*
X124966001Y-81945826D01*
X124966001Y-82184176D01*
X125012500Y-82417945D01*
X125103713Y-82638151D01*
X125236132Y-82836331D01*
X125404671Y-83004870D01*
X125602851Y-83137289D01*
X125823057Y-83228502D01*
X126056826Y-83275001D01*
X126295176Y-83275001D01*
X126528945Y-83228502D01*
X126749151Y-83137289D01*
X126947331Y-83004870D01*
X127115870Y-82836331D01*
X127200281Y-82710000D01*
X134026928Y-82710000D01*
X134030000Y-82899250D01*
X134188750Y-83058000D01*
X134975500Y-83058000D01*
X134975500Y-82233750D01*
X134816750Y-82075000D01*
X134665000Y-82071928D01*
X134540518Y-82084188D01*
X134420820Y-82120498D01*
X134310506Y-82179463D01*
X134213815Y-82258815D01*
X134134463Y-82355506D01*
X134075498Y-82465820D01*
X134039188Y-82585518D01*
X134026928Y-82710000D01*
X127200281Y-82710000D01*
X127248289Y-82638151D01*
X127339502Y-82417945D01*
X127386001Y-82184176D01*
X127386001Y-81945826D01*
X140461001Y-81945826D01*
X140461001Y-82184176D01*
X140507500Y-82417945D01*
X140598713Y-82638151D01*
X140731132Y-82836331D01*
X140899671Y-83004870D01*
X141097851Y-83137289D01*
X141318057Y-83228502D01*
X141551826Y-83275001D01*
X141790176Y-83275001D01*
X142023945Y-83228502D01*
X142244151Y-83137289D01*
X142442331Y-83004870D01*
X142610870Y-82836331D01*
X142743289Y-82638151D01*
X142834502Y-82417945D01*
X142881001Y-82184176D01*
X142881001Y-81945826D01*
X142834502Y-81712057D01*
X142743289Y-81491851D01*
X142610870Y-81293671D01*
X142442331Y-81125132D01*
X142244151Y-80992713D01*
X142023945Y-80901500D01*
X141790176Y-80855001D01*
X141551826Y-80855001D01*
X141318057Y-80901500D01*
X141097851Y-80992713D01*
X140899671Y-81125132D01*
X140731132Y-81293671D01*
X140598713Y-81491851D01*
X140507500Y-81712057D01*
X140461001Y-81945826D01*
X127386001Y-81945826D01*
X127339502Y-81712057D01*
X127248289Y-81491851D01*
X127115870Y-81293671D01*
X126947331Y-81125132D01*
X126749151Y-80992713D01*
X126528945Y-80901500D01*
X126295176Y-80855001D01*
X126056826Y-80855001D01*
X125823057Y-80901500D01*
X125602851Y-80992713D01*
X125404671Y-81125132D01*
X125236132Y-81293671D01*
X125103713Y-81491851D01*
X125012500Y-81712057D01*
X124966001Y-81945826D01*
X124485000Y-81945826D01*
X124485000Y-79405826D01*
X124966001Y-79405826D01*
X124966001Y-79644176D01*
X125012500Y-79877945D01*
X125103713Y-80098151D01*
X125236132Y-80296331D01*
X125404671Y-80464870D01*
X125602851Y-80597289D01*
X125823057Y-80688502D01*
X126056826Y-80735001D01*
X126295176Y-80735001D01*
X126528945Y-80688502D01*
X126749151Y-80597289D01*
X126947331Y-80464870D01*
X127115870Y-80296331D01*
X127248289Y-80098151D01*
X127339502Y-79877945D01*
X127386001Y-79644176D01*
X127386001Y-79405826D01*
X140461001Y-79405826D01*
X140461001Y-79644176D01*
X140507500Y-79877945D01*
X140598713Y-80098151D01*
X140731132Y-80296331D01*
X140899671Y-80464870D01*
X141097851Y-80597289D01*
X141318057Y-80688502D01*
X141551826Y-80735001D01*
X141790176Y-80735001D01*
X142023945Y-80688502D01*
X142244151Y-80597289D01*
X142442331Y-80464870D01*
X142610870Y-80296331D01*
X142743289Y-80098151D01*
X142834502Y-79877945D01*
X142881001Y-79644176D01*
X142881001Y-79405826D01*
X142834502Y-79172057D01*
X142743289Y-78951851D01*
X142610870Y-78753671D01*
X142442331Y-78585132D01*
X142244151Y-78452713D01*
X142023945Y-78361500D01*
X141790176Y-78315001D01*
X141551826Y-78315001D01*
X141318057Y-78361500D01*
X141097851Y-78452713D01*
X140899671Y-78585132D01*
X140731132Y-78753671D01*
X140598713Y-78951851D01*
X140507500Y-79172057D01*
X140461001Y-79405826D01*
X127386001Y-79405826D01*
X127339502Y-79172057D01*
X127248289Y-78951851D01*
X127115870Y-78753671D01*
X126947331Y-78585132D01*
X126749151Y-78452713D01*
X126528945Y-78361500D01*
X126295176Y-78315001D01*
X126056826Y-78315001D01*
X125823057Y-78361500D01*
X125602851Y-78452713D01*
X125404671Y-78585132D01*
X125236132Y-78753671D01*
X125103713Y-78951851D01*
X125012500Y-79172057D01*
X124966001Y-79405826D01*
X124485000Y-79405826D01*
X124485000Y-76865826D01*
X124966001Y-76865826D01*
X124966001Y-77104176D01*
X125012500Y-77337945D01*
X125103713Y-77558151D01*
X125236132Y-77756331D01*
X125404671Y-77924870D01*
X125602851Y-78057289D01*
X125823057Y-78148502D01*
X126056826Y-78195001D01*
X126295176Y-78195001D01*
X126528945Y-78148502D01*
X126749151Y-78057289D01*
X126947331Y-77924870D01*
X127115870Y-77756331D01*
X127248289Y-77558151D01*
X127339502Y-77337945D01*
X127386001Y-77104176D01*
X127386001Y-76865826D01*
X140461001Y-76865826D01*
X140461001Y-77104176D01*
X140507500Y-77337945D01*
X140598713Y-77558151D01*
X140731132Y-77756331D01*
X140899671Y-77924870D01*
X141097851Y-78057289D01*
X141318057Y-78148502D01*
X141551826Y-78195001D01*
X141790176Y-78195001D01*
X142023945Y-78148502D01*
X142244151Y-78057289D01*
X142442331Y-77924870D01*
X142610870Y-77756331D01*
X142743289Y-77558151D01*
X142834502Y-77337945D01*
X142881001Y-77104176D01*
X142881001Y-76865826D01*
X142834502Y-76632057D01*
X142743289Y-76411851D01*
X142610870Y-76213671D01*
X142442331Y-76045132D01*
X142244151Y-75912713D01*
X142023945Y-75821500D01*
X141790176Y-75775001D01*
X141551826Y-75775001D01*
X141318057Y-75821500D01*
X141097851Y-75912713D01*
X140899671Y-76045132D01*
X140731132Y-76213671D01*
X140598713Y-76411851D01*
X140507500Y-76632057D01*
X140461001Y-76865826D01*
X127386001Y-76865826D01*
X127339502Y-76632057D01*
X127248289Y-76411851D01*
X127115870Y-76213671D01*
X126947331Y-76045132D01*
X126749151Y-75912713D01*
X126528945Y-75821500D01*
X126295176Y-75775001D01*
X126056826Y-75775001D01*
X125823057Y-75821500D01*
X125602851Y-75912713D01*
X125404671Y-76045132D01*
X125236132Y-76213671D01*
X125103713Y-76411851D01*
X125012500Y-76632057D01*
X124966001Y-76865826D01*
X124485000Y-76865826D01*
X124485000Y-75276875D01*
X125523732Y-75276875D01*
X125567994Y-75497917D01*
X125785090Y-75596302D01*
X126017209Y-75650443D01*
X126255430Y-75658259D01*
X126490599Y-75619451D01*
X126713678Y-75535510D01*
X126784008Y-75497917D01*
X126828270Y-75276875D01*
X126176001Y-74624606D01*
X125523732Y-75276875D01*
X124485000Y-75276875D01*
X124485000Y-74524430D01*
X124962743Y-74524430D01*
X125001551Y-74759599D01*
X125085492Y-74982678D01*
X125123085Y-75053008D01*
X125344127Y-75097270D01*
X125996396Y-74445001D01*
X126355606Y-74445001D01*
X127007875Y-75097270D01*
X127228917Y-75053008D01*
X127327302Y-74835912D01*
X127381443Y-74603793D01*
X127389259Y-74365572D01*
X127350451Y-74130403D01*
X127266510Y-73907324D01*
X127228917Y-73836994D01*
X127007875Y-73792732D01*
X126355606Y-74445001D01*
X125996396Y-74445001D01*
X125344127Y-73792732D01*
X125123085Y-73836994D01*
X125024700Y-74054090D01*
X124970559Y-74286209D01*
X124962743Y-74524430D01*
X124485000Y-74524430D01*
X124485000Y-73613127D01*
X125523732Y-73613127D01*
X126176001Y-74265396D01*
X126828270Y-73613127D01*
X126784008Y-73392085D01*
X126566912Y-73293700D01*
X126334793Y-73239559D01*
X126096572Y-73231743D01*
X125861403Y-73270551D01*
X125638324Y-73354492D01*
X125567994Y-73392085D01*
X125523732Y-73613127D01*
X124485000Y-73613127D01*
X124485000Y-72736875D01*
X125523732Y-72736875D01*
X125567994Y-72957917D01*
X125785090Y-73056302D01*
X126017209Y-73110443D01*
X126255430Y-73118259D01*
X126490599Y-73079451D01*
X126713678Y-72995510D01*
X126784008Y-72957917D01*
X126828270Y-72736875D01*
X126176001Y-72084606D01*
X125523732Y-72736875D01*
X124485000Y-72736875D01*
X124485000Y-71984430D01*
X124962743Y-71984430D01*
X125001551Y-72219599D01*
X125085492Y-72442678D01*
X125123085Y-72513008D01*
X125344127Y-72557270D01*
X125996396Y-71905001D01*
X126355606Y-71905001D01*
X127007875Y-72557270D01*
X127228917Y-72513008D01*
X127327302Y-72295912D01*
X127381443Y-72063793D01*
X127389259Y-71825572D01*
X127350451Y-71590403D01*
X127266510Y-71367324D01*
X127228917Y-71296994D01*
X127007875Y-71252732D01*
X126355606Y-71905001D01*
X125996396Y-71905001D01*
X125344127Y-71252732D01*
X125123085Y-71296994D01*
X125024700Y-71514090D01*
X124970559Y-71746209D01*
X124962743Y-71984430D01*
X124485000Y-71984430D01*
X124485000Y-71073127D01*
X125523732Y-71073127D01*
X126176001Y-71725396D01*
X126828270Y-71073127D01*
X126784008Y-70852085D01*
X126566912Y-70753700D01*
X126334793Y-70699559D01*
X126096572Y-70691743D01*
X125861403Y-70730551D01*
X125638324Y-70814492D01*
X125567994Y-70852085D01*
X125523732Y-71073127D01*
X124485000Y-71073127D01*
X124485000Y-66576066D01*
X126643539Y-66576066D01*
X126745339Y-66845579D01*
X127043477Y-66991463D01*
X127364346Y-67076380D01*
X127695617Y-67097066D01*
X128024557Y-67052728D01*
X128338527Y-66945069D01*
X128524661Y-66845579D01*
X128626461Y-66576066D01*
X127635000Y-65584605D01*
X126643539Y-66576066D01*
X124485000Y-66576066D01*
X124485000Y-65465617D01*
X125942934Y-65465617D01*
X125987272Y-65794557D01*
X126094931Y-66108527D01*
X126194421Y-66294661D01*
X126463934Y-66396461D01*
X127455395Y-65405000D01*
X127814605Y-65405000D01*
X128806066Y-66396461D01*
X129075579Y-66294661D01*
X129221463Y-65996523D01*
X129306380Y-65675654D01*
X129327066Y-65344383D01*
X129282728Y-65015443D01*
X129175069Y-64701473D01*
X129075579Y-64515339D01*
X128806066Y-64413539D01*
X127814605Y-65405000D01*
X127455395Y-65405000D01*
X126463934Y-64413539D01*
X126194421Y-64515339D01*
X126048537Y-64813477D01*
X125963620Y-65134346D01*
X125942934Y-65465617D01*
X124485000Y-65465617D01*
X124485000Y-64233934D01*
X126643539Y-64233934D01*
X127635000Y-65225395D01*
X128626461Y-64233934D01*
X128524661Y-63964421D01*
X128226523Y-63818537D01*
X127905654Y-63733620D01*
X127574383Y-63712934D01*
X127245443Y-63757272D01*
X126931473Y-63864931D01*
X126745339Y-63964421D01*
X126643539Y-64233934D01*
X124485000Y-64233934D01*
X124485000Y-61496066D01*
X126643539Y-61496066D01*
X126745339Y-61765579D01*
X127043477Y-61911463D01*
X127364346Y-61996380D01*
X127695617Y-62017066D01*
X128024557Y-61972728D01*
X128338527Y-61865069D01*
X128524661Y-61765579D01*
X128626461Y-61496066D01*
X127635000Y-60504605D01*
X126643539Y-61496066D01*
X124485000Y-61496066D01*
X124485000Y-60385617D01*
X125942934Y-60385617D01*
X125987272Y-60714557D01*
X126094931Y-61028527D01*
X126194421Y-61214661D01*
X126463934Y-61316461D01*
X127455395Y-60325000D01*
X127814605Y-60325000D01*
X128806066Y-61316461D01*
X129075579Y-61214661D01*
X129221463Y-60916523D01*
X129306380Y-60595654D01*
X129327066Y-60264383D01*
X129312868Y-60159042D01*
X138015000Y-60159042D01*
X138015000Y-60490958D01*
X138079754Y-60816496D01*
X138206772Y-61123147D01*
X138391175Y-61399125D01*
X138430001Y-61437951D01*
X138430000Y-64292050D01*
X138391175Y-64330875D01*
X138206772Y-64606853D01*
X138079754Y-64913504D01*
X138015000Y-65239042D01*
X138015000Y-65570958D01*
X138079754Y-65896496D01*
X138206772Y-66203147D01*
X138391175Y-66479125D01*
X138430000Y-66517950D01*
X138430001Y-69871617D01*
X138423857Y-69934000D01*
X138448377Y-70182963D01*
X138520998Y-70422359D01*
X138638926Y-70642988D01*
X138797631Y-70836370D01*
X138846086Y-70876136D01*
X140401001Y-72431052D01*
X140401002Y-74507381D01*
X140419379Y-74693964D01*
X140491999Y-74933360D01*
X140609927Y-75153989D01*
X140768632Y-75347371D01*
X140962014Y-75506076D01*
X141182643Y-75624004D01*
X141422039Y-75696624D01*
X141671001Y-75721145D01*
X141919964Y-75696624D01*
X142159360Y-75624004D01*
X142379989Y-75506076D01*
X142573371Y-75347371D01*
X142732076Y-75153989D01*
X142850004Y-74933360D01*
X142922624Y-74693964D01*
X142941001Y-74507381D01*
X142941001Y-71967373D01*
X142947144Y-71905000D01*
X142941001Y-71842627D01*
X142941001Y-71842621D01*
X142922624Y-71656038D01*
X142850004Y-71416642D01*
X142732076Y-71196013D01*
X142573371Y-71002631D01*
X142524916Y-70962865D01*
X140970000Y-69407950D01*
X140970000Y-66517950D01*
X141008825Y-66479125D01*
X141193228Y-66203147D01*
X141320246Y-65896496D01*
X141385000Y-65570958D01*
X141385000Y-65239042D01*
X141320246Y-64913504D01*
X141193228Y-64606853D01*
X141008825Y-64330875D01*
X140970000Y-64292050D01*
X140970000Y-61437950D01*
X141008825Y-61399125D01*
X141193228Y-61123147D01*
X141320246Y-60816496D01*
X141385000Y-60490958D01*
X141385000Y-60159042D01*
X141320246Y-59833504D01*
X141193228Y-59526853D01*
X141008825Y-59250875D01*
X140774125Y-59016175D01*
X140498147Y-58831772D01*
X140191496Y-58704754D01*
X139865958Y-58640000D01*
X139534042Y-58640000D01*
X139208504Y-58704754D01*
X138901853Y-58831772D01*
X138625875Y-59016175D01*
X138391175Y-59250875D01*
X138206772Y-59526853D01*
X138079754Y-59833504D01*
X138015000Y-60159042D01*
X129312868Y-60159042D01*
X129282728Y-59935443D01*
X129175069Y-59621473D01*
X129075579Y-59435339D01*
X128806066Y-59333539D01*
X127814605Y-60325000D01*
X127455395Y-60325000D01*
X126463934Y-59333539D01*
X126194421Y-59435339D01*
X126048537Y-59733477D01*
X125963620Y-60054346D01*
X125942934Y-60385617D01*
X124485000Y-60385617D01*
X124485000Y-59153934D01*
X126643539Y-59153934D01*
X127635000Y-60145395D01*
X128626461Y-59153934D01*
X128524661Y-58884421D01*
X128226523Y-58738537D01*
X127905654Y-58653620D01*
X127574383Y-58632934D01*
X127245443Y-58677272D01*
X126931473Y-58784931D01*
X126745339Y-58884421D01*
X126643539Y-59153934D01*
X124485000Y-59153934D01*
X124485000Y-58445000D01*
X143485001Y-58445000D01*
X143485000Y-113640000D01*
M02*
