G04 #@! TF.GenerationSoftware,KiCad,Pcbnew,5.1.4-e60b266~84~ubuntu18.04.1*
G04 #@! TF.CreationDate,2019-10-08T20:02:31-04:00*
G04 #@! TF.ProjectId,TSAL-driver,5453414c-2d64-4726-9976-65722e6b6963,rev?*
G04 #@! TF.SameCoordinates,Original*
G04 #@! TF.FileFunction,Copper,L2,Bot*
G04 #@! TF.FilePolarity,Positive*
%FSLAX46Y46*%
G04 Gerber Fmt 4.6, Leading zero omitted, Abs format (unit mm)*
G04 Created by KiCad (PCBNEW 5.1.4-e60b266~84~ubuntu18.04.1) date 2019-10-08 20:02:31*
%MOMM*%
%LPD*%
G04 APERTURE LIST*
%ADD10C,2.100000*%
%ADD11C,1.150000*%
%ADD12R,1.150000X1.150000*%
%ADD13C,0.254000*%
G04 APERTURE END LIST*
D10*
X139700000Y-106680000D03*
X139700000Y-111760000D03*
X139700000Y-60325000D03*
X139700000Y-65405000D03*
X127635000Y-106680000D03*
X127635000Y-111760000D03*
X127635000Y-60325000D03*
X127635000Y-65405000D03*
D11*
X141671001Y-99845001D03*
X141671001Y-97305001D03*
X141671001Y-94765001D03*
X141671001Y-92225001D03*
X141671001Y-89685001D03*
X141671001Y-87145001D03*
X141671001Y-84605001D03*
X141671001Y-82065001D03*
X141671001Y-79525001D03*
X141671001Y-76985001D03*
X141671001Y-74445001D03*
X141671001Y-71905001D03*
X126176001Y-71905001D03*
X126176001Y-74445001D03*
X126176001Y-76985001D03*
X126176001Y-79525001D03*
X126176001Y-82065001D03*
X126176001Y-84605001D03*
X126176001Y-87145001D03*
X126176001Y-89685001D03*
X126176001Y-92225001D03*
X126176001Y-94765001D03*
X126176001Y-97305001D03*
D12*
X126176001Y-99845001D03*
D13*
G36*
X143485000Y-113640000D02*
G01*
X124485000Y-113640000D01*
X124485000Y-112931066D01*
X126643539Y-112931066D01*
X126745339Y-113200579D01*
X127043477Y-113346463D01*
X127364346Y-113431380D01*
X127695617Y-113452066D01*
X128024557Y-113407728D01*
X128338527Y-113300069D01*
X128524661Y-113200579D01*
X128626461Y-112931066D01*
X127635000Y-111939605D01*
X126643539Y-112931066D01*
X124485000Y-112931066D01*
X124485000Y-111820617D01*
X125942934Y-111820617D01*
X125987272Y-112149557D01*
X126094931Y-112463527D01*
X126194421Y-112649661D01*
X126463934Y-112751461D01*
X127455395Y-111760000D01*
X127814605Y-111760000D01*
X128806066Y-112751461D01*
X129075579Y-112649661D01*
X129221463Y-112351523D01*
X129306380Y-112030654D01*
X129327066Y-111699383D01*
X129312868Y-111594042D01*
X138015000Y-111594042D01*
X138015000Y-111925958D01*
X138079754Y-112251496D01*
X138206772Y-112558147D01*
X138391175Y-112834125D01*
X138625875Y-113068825D01*
X138901853Y-113253228D01*
X139208504Y-113380246D01*
X139534042Y-113445000D01*
X139865958Y-113445000D01*
X140191496Y-113380246D01*
X140498147Y-113253228D01*
X140774125Y-113068825D01*
X141008825Y-112834125D01*
X141193228Y-112558147D01*
X141320246Y-112251496D01*
X141385000Y-111925958D01*
X141385000Y-111594042D01*
X141320246Y-111268504D01*
X141193228Y-110961853D01*
X141008825Y-110685875D01*
X140774125Y-110451175D01*
X140498147Y-110266772D01*
X140191496Y-110139754D01*
X139865958Y-110075000D01*
X139534042Y-110075000D01*
X139208504Y-110139754D01*
X138901853Y-110266772D01*
X138625875Y-110451175D01*
X138391175Y-110685875D01*
X138206772Y-110961853D01*
X138079754Y-111268504D01*
X138015000Y-111594042D01*
X129312868Y-111594042D01*
X129282728Y-111370443D01*
X129175069Y-111056473D01*
X129075579Y-110870339D01*
X128806066Y-110768539D01*
X127814605Y-111760000D01*
X127455395Y-111760000D01*
X126463934Y-110768539D01*
X126194421Y-110870339D01*
X126048537Y-111168477D01*
X125963620Y-111489346D01*
X125942934Y-111820617D01*
X124485000Y-111820617D01*
X124485000Y-110588934D01*
X126643539Y-110588934D01*
X127635000Y-111580395D01*
X128626461Y-110588934D01*
X128524661Y-110319421D01*
X128226523Y-110173537D01*
X127905654Y-110088620D01*
X127574383Y-110067934D01*
X127245443Y-110112272D01*
X126931473Y-110219931D01*
X126745339Y-110319421D01*
X126643539Y-110588934D01*
X124485000Y-110588934D01*
X124485000Y-107851066D01*
X126643539Y-107851066D01*
X126745339Y-108120579D01*
X127043477Y-108266463D01*
X127364346Y-108351380D01*
X127695617Y-108372066D01*
X128024557Y-108327728D01*
X128338527Y-108220069D01*
X128524661Y-108120579D01*
X128626461Y-107851066D01*
X127635000Y-106859605D01*
X126643539Y-107851066D01*
X124485000Y-107851066D01*
X124485000Y-106740617D01*
X125942934Y-106740617D01*
X125987272Y-107069557D01*
X126094931Y-107383527D01*
X126194421Y-107569661D01*
X126463934Y-107671461D01*
X127455395Y-106680000D01*
X127814605Y-106680000D01*
X128806066Y-107671461D01*
X129075579Y-107569661D01*
X129221463Y-107271523D01*
X129306380Y-106950654D01*
X129327066Y-106619383D01*
X129312868Y-106514042D01*
X138015000Y-106514042D01*
X138015000Y-106845958D01*
X138079754Y-107171496D01*
X138206772Y-107478147D01*
X138391175Y-107754125D01*
X138625875Y-107988825D01*
X138901853Y-108173228D01*
X139208504Y-108300246D01*
X139534042Y-108365000D01*
X139865958Y-108365000D01*
X140191496Y-108300246D01*
X140498147Y-108173228D01*
X140774125Y-107988825D01*
X141008825Y-107754125D01*
X141193228Y-107478147D01*
X141320246Y-107171496D01*
X141385000Y-106845958D01*
X141385000Y-106514042D01*
X141320246Y-106188504D01*
X141193228Y-105881853D01*
X141008825Y-105605875D01*
X140774125Y-105371175D01*
X140498147Y-105186772D01*
X140191496Y-105059754D01*
X139865958Y-104995000D01*
X139534042Y-104995000D01*
X139208504Y-105059754D01*
X138901853Y-105186772D01*
X138625875Y-105371175D01*
X138391175Y-105605875D01*
X138206772Y-105881853D01*
X138079754Y-106188504D01*
X138015000Y-106514042D01*
X129312868Y-106514042D01*
X129282728Y-106290443D01*
X129175069Y-105976473D01*
X129075579Y-105790339D01*
X128806066Y-105688539D01*
X127814605Y-106680000D01*
X127455395Y-106680000D01*
X126463934Y-105688539D01*
X126194421Y-105790339D01*
X126048537Y-106088477D01*
X125963620Y-106409346D01*
X125942934Y-106740617D01*
X124485000Y-106740617D01*
X124485000Y-105508934D01*
X126643539Y-105508934D01*
X127635000Y-106500395D01*
X128626461Y-105508934D01*
X128524661Y-105239421D01*
X128226523Y-105093537D01*
X127905654Y-105008620D01*
X127574383Y-104987934D01*
X127245443Y-105032272D01*
X126931473Y-105139931D01*
X126745339Y-105239421D01*
X126643539Y-105508934D01*
X124485000Y-105508934D01*
X124485000Y-100420001D01*
X124962929Y-100420001D01*
X124975189Y-100544483D01*
X125011499Y-100664181D01*
X125070464Y-100774495D01*
X125149816Y-100871186D01*
X125246507Y-100950538D01*
X125356821Y-101009503D01*
X125476519Y-101045813D01*
X125601001Y-101058073D01*
X125890251Y-101055001D01*
X126049001Y-100896251D01*
X126049001Y-99972001D01*
X126303001Y-99972001D01*
X126303001Y-100896251D01*
X126461751Y-101055001D01*
X126751001Y-101058073D01*
X126875483Y-101045813D01*
X126995181Y-101009503D01*
X127105495Y-100950538D01*
X127202186Y-100871186D01*
X127281538Y-100774495D01*
X127340503Y-100664181D01*
X127376813Y-100544483D01*
X127389073Y-100420001D01*
X127386001Y-100130751D01*
X127227251Y-99972001D01*
X126303001Y-99972001D01*
X126049001Y-99972001D01*
X125124751Y-99972001D01*
X124966001Y-100130751D01*
X124962929Y-100420001D01*
X124485000Y-100420001D01*
X124485000Y-99725826D01*
X140461001Y-99725826D01*
X140461001Y-99964176D01*
X140507500Y-100197945D01*
X140598713Y-100418151D01*
X140731132Y-100616331D01*
X140899671Y-100784870D01*
X141097851Y-100917289D01*
X141318057Y-101008502D01*
X141551826Y-101055001D01*
X141790176Y-101055001D01*
X142023945Y-101008502D01*
X142244151Y-100917289D01*
X142442331Y-100784870D01*
X142610870Y-100616331D01*
X142743289Y-100418151D01*
X142834502Y-100197945D01*
X142881001Y-99964176D01*
X142881001Y-99725826D01*
X142834502Y-99492057D01*
X142743289Y-99271851D01*
X142610870Y-99073671D01*
X142442331Y-98905132D01*
X142244151Y-98772713D01*
X142023945Y-98681500D01*
X141790176Y-98635001D01*
X141551826Y-98635001D01*
X141318057Y-98681500D01*
X141097851Y-98772713D01*
X140899671Y-98905132D01*
X140731132Y-99073671D01*
X140598713Y-99271851D01*
X140507500Y-99492057D01*
X140461001Y-99725826D01*
X124485000Y-99725826D01*
X124485000Y-99270001D01*
X124962929Y-99270001D01*
X124966001Y-99559251D01*
X125124751Y-99718001D01*
X126049001Y-99718001D01*
X126049001Y-98793751D01*
X126303001Y-98793751D01*
X126303001Y-99718001D01*
X127227251Y-99718001D01*
X127386001Y-99559251D01*
X127389073Y-99270001D01*
X127376813Y-99145519D01*
X127340503Y-99025821D01*
X127281538Y-98915507D01*
X127202186Y-98818816D01*
X127105495Y-98739464D01*
X126995181Y-98680499D01*
X126875483Y-98644189D01*
X126751001Y-98631929D01*
X126461751Y-98635001D01*
X126303001Y-98793751D01*
X126049001Y-98793751D01*
X125890251Y-98635001D01*
X125601001Y-98631929D01*
X125476519Y-98644189D01*
X125356821Y-98680499D01*
X125246507Y-98739464D01*
X125149816Y-98818816D01*
X125070464Y-98915507D01*
X125011499Y-99025821D01*
X124975189Y-99145519D01*
X124962929Y-99270001D01*
X124485000Y-99270001D01*
X124485000Y-98136875D01*
X125523732Y-98136875D01*
X125567994Y-98357917D01*
X125785090Y-98456302D01*
X126017209Y-98510443D01*
X126255430Y-98518259D01*
X126490599Y-98479451D01*
X126713678Y-98395510D01*
X126784008Y-98357917D01*
X126828270Y-98136875D01*
X126176001Y-97484606D01*
X125523732Y-98136875D01*
X124485000Y-98136875D01*
X124485000Y-97384430D01*
X124962743Y-97384430D01*
X125001551Y-97619599D01*
X125085492Y-97842678D01*
X125123085Y-97913008D01*
X125344127Y-97957270D01*
X125996396Y-97305001D01*
X126355606Y-97305001D01*
X127007875Y-97957270D01*
X127228917Y-97913008D01*
X127327302Y-97695912D01*
X127381443Y-97463793D01*
X127389259Y-97225572D01*
X127382701Y-97185826D01*
X140461001Y-97185826D01*
X140461001Y-97424176D01*
X140507500Y-97657945D01*
X140598713Y-97878151D01*
X140731132Y-98076331D01*
X140899671Y-98244870D01*
X141097851Y-98377289D01*
X141318057Y-98468502D01*
X141551826Y-98515001D01*
X141790176Y-98515001D01*
X142023945Y-98468502D01*
X142244151Y-98377289D01*
X142442331Y-98244870D01*
X142610870Y-98076331D01*
X142743289Y-97878151D01*
X142834502Y-97657945D01*
X142881001Y-97424176D01*
X142881001Y-97185826D01*
X142834502Y-96952057D01*
X142743289Y-96731851D01*
X142610870Y-96533671D01*
X142442331Y-96365132D01*
X142244151Y-96232713D01*
X142023945Y-96141500D01*
X141790176Y-96095001D01*
X141551826Y-96095001D01*
X141318057Y-96141500D01*
X141097851Y-96232713D01*
X140899671Y-96365132D01*
X140731132Y-96533671D01*
X140598713Y-96731851D01*
X140507500Y-96952057D01*
X140461001Y-97185826D01*
X127382701Y-97185826D01*
X127350451Y-96990403D01*
X127266510Y-96767324D01*
X127228917Y-96696994D01*
X127007875Y-96652732D01*
X126355606Y-97305001D01*
X125996396Y-97305001D01*
X125344127Y-96652732D01*
X125123085Y-96696994D01*
X125024700Y-96914090D01*
X124970559Y-97146209D01*
X124962743Y-97384430D01*
X124485000Y-97384430D01*
X124485000Y-96473127D01*
X125523732Y-96473127D01*
X126176001Y-97125396D01*
X126828270Y-96473127D01*
X126784008Y-96252085D01*
X126566912Y-96153700D01*
X126334793Y-96099559D01*
X126096572Y-96091743D01*
X125861403Y-96130551D01*
X125638324Y-96214492D01*
X125567994Y-96252085D01*
X125523732Y-96473127D01*
X124485000Y-96473127D01*
X124485000Y-94645826D01*
X124966001Y-94645826D01*
X124966001Y-94884176D01*
X125012500Y-95117945D01*
X125103713Y-95338151D01*
X125236132Y-95536331D01*
X125404671Y-95704870D01*
X125602851Y-95837289D01*
X125823057Y-95928502D01*
X126056826Y-95975001D01*
X126295176Y-95975001D01*
X126528945Y-95928502D01*
X126749151Y-95837289D01*
X126947331Y-95704870D01*
X127115870Y-95536331D01*
X127248289Y-95338151D01*
X127339502Y-95117945D01*
X127386001Y-94884176D01*
X127386001Y-94645826D01*
X140461001Y-94645826D01*
X140461001Y-94884176D01*
X140507500Y-95117945D01*
X140598713Y-95338151D01*
X140731132Y-95536331D01*
X140899671Y-95704870D01*
X141097851Y-95837289D01*
X141318057Y-95928502D01*
X141551826Y-95975001D01*
X141790176Y-95975001D01*
X142023945Y-95928502D01*
X142244151Y-95837289D01*
X142442331Y-95704870D01*
X142610870Y-95536331D01*
X142743289Y-95338151D01*
X142834502Y-95117945D01*
X142881001Y-94884176D01*
X142881001Y-94645826D01*
X142834502Y-94412057D01*
X142743289Y-94191851D01*
X142610870Y-93993671D01*
X142442331Y-93825132D01*
X142244151Y-93692713D01*
X142023945Y-93601500D01*
X141790176Y-93555001D01*
X141551826Y-93555001D01*
X141318057Y-93601500D01*
X141097851Y-93692713D01*
X140899671Y-93825132D01*
X140731132Y-93993671D01*
X140598713Y-94191851D01*
X140507500Y-94412057D01*
X140461001Y-94645826D01*
X127386001Y-94645826D01*
X127339502Y-94412057D01*
X127248289Y-94191851D01*
X127115870Y-93993671D01*
X126947331Y-93825132D01*
X126749151Y-93692713D01*
X126528945Y-93601500D01*
X126295176Y-93555001D01*
X126056826Y-93555001D01*
X125823057Y-93601500D01*
X125602851Y-93692713D01*
X125404671Y-93825132D01*
X125236132Y-93993671D01*
X125103713Y-94191851D01*
X125012500Y-94412057D01*
X124966001Y-94645826D01*
X124485000Y-94645826D01*
X124485000Y-92105826D01*
X124966001Y-92105826D01*
X124966001Y-92344176D01*
X125012500Y-92577945D01*
X125103713Y-92798151D01*
X125236132Y-92996331D01*
X125404671Y-93164870D01*
X125602851Y-93297289D01*
X125823057Y-93388502D01*
X126056826Y-93435001D01*
X126295176Y-93435001D01*
X126528945Y-93388502D01*
X126749151Y-93297289D01*
X126947331Y-93164870D01*
X127115870Y-92996331D01*
X127248289Y-92798151D01*
X127339502Y-92577945D01*
X127386001Y-92344176D01*
X127386001Y-92105826D01*
X140461001Y-92105826D01*
X140461001Y-92344176D01*
X140507500Y-92577945D01*
X140598713Y-92798151D01*
X140731132Y-92996331D01*
X140899671Y-93164870D01*
X141097851Y-93297289D01*
X141318057Y-93388502D01*
X141551826Y-93435001D01*
X141790176Y-93435001D01*
X142023945Y-93388502D01*
X142244151Y-93297289D01*
X142442331Y-93164870D01*
X142610870Y-92996331D01*
X142743289Y-92798151D01*
X142834502Y-92577945D01*
X142881001Y-92344176D01*
X142881001Y-92105826D01*
X142834502Y-91872057D01*
X142743289Y-91651851D01*
X142610870Y-91453671D01*
X142442331Y-91285132D01*
X142244151Y-91152713D01*
X142023945Y-91061500D01*
X141790176Y-91015001D01*
X141551826Y-91015001D01*
X141318057Y-91061500D01*
X141097851Y-91152713D01*
X140899671Y-91285132D01*
X140731132Y-91453671D01*
X140598713Y-91651851D01*
X140507500Y-91872057D01*
X140461001Y-92105826D01*
X127386001Y-92105826D01*
X127339502Y-91872057D01*
X127248289Y-91651851D01*
X127115870Y-91453671D01*
X126947331Y-91285132D01*
X126749151Y-91152713D01*
X126528945Y-91061500D01*
X126295176Y-91015001D01*
X126056826Y-91015001D01*
X125823057Y-91061500D01*
X125602851Y-91152713D01*
X125404671Y-91285132D01*
X125236132Y-91453671D01*
X125103713Y-91651851D01*
X125012500Y-91872057D01*
X124966001Y-92105826D01*
X124485000Y-92105826D01*
X124485000Y-89565826D01*
X124966001Y-89565826D01*
X124966001Y-89804176D01*
X125012500Y-90037945D01*
X125103713Y-90258151D01*
X125236132Y-90456331D01*
X125404671Y-90624870D01*
X125602851Y-90757289D01*
X125823057Y-90848502D01*
X126056826Y-90895001D01*
X126295176Y-90895001D01*
X126528945Y-90848502D01*
X126749151Y-90757289D01*
X126947331Y-90624870D01*
X127115870Y-90456331D01*
X127248289Y-90258151D01*
X127339502Y-90037945D01*
X127386001Y-89804176D01*
X127386001Y-89565826D01*
X140461001Y-89565826D01*
X140461001Y-89804176D01*
X140507500Y-90037945D01*
X140598713Y-90258151D01*
X140731132Y-90456331D01*
X140899671Y-90624870D01*
X141097851Y-90757289D01*
X141318057Y-90848502D01*
X141551826Y-90895001D01*
X141790176Y-90895001D01*
X142023945Y-90848502D01*
X142244151Y-90757289D01*
X142442331Y-90624870D01*
X142610870Y-90456331D01*
X142743289Y-90258151D01*
X142834502Y-90037945D01*
X142881001Y-89804176D01*
X142881001Y-89565826D01*
X142834502Y-89332057D01*
X142743289Y-89111851D01*
X142610870Y-88913671D01*
X142442331Y-88745132D01*
X142244151Y-88612713D01*
X142023945Y-88521500D01*
X141790176Y-88475001D01*
X141551826Y-88475001D01*
X141318057Y-88521500D01*
X141097851Y-88612713D01*
X140899671Y-88745132D01*
X140731132Y-88913671D01*
X140598713Y-89111851D01*
X140507500Y-89332057D01*
X140461001Y-89565826D01*
X127386001Y-89565826D01*
X127339502Y-89332057D01*
X127248289Y-89111851D01*
X127115870Y-88913671D01*
X126947331Y-88745132D01*
X126749151Y-88612713D01*
X126528945Y-88521500D01*
X126295176Y-88475001D01*
X126056826Y-88475001D01*
X125823057Y-88521500D01*
X125602851Y-88612713D01*
X125404671Y-88745132D01*
X125236132Y-88913671D01*
X125103713Y-89111851D01*
X125012500Y-89332057D01*
X124966001Y-89565826D01*
X124485000Y-89565826D01*
X124485000Y-87025826D01*
X124966001Y-87025826D01*
X124966001Y-87264176D01*
X125012500Y-87497945D01*
X125103713Y-87718151D01*
X125236132Y-87916331D01*
X125404671Y-88084870D01*
X125602851Y-88217289D01*
X125823057Y-88308502D01*
X126056826Y-88355001D01*
X126295176Y-88355001D01*
X126528945Y-88308502D01*
X126749151Y-88217289D01*
X126947331Y-88084870D01*
X127115870Y-87916331D01*
X127248289Y-87718151D01*
X127339502Y-87497945D01*
X127386001Y-87264176D01*
X127386001Y-87025826D01*
X140461001Y-87025826D01*
X140461001Y-87264176D01*
X140507500Y-87497945D01*
X140598713Y-87718151D01*
X140731132Y-87916331D01*
X140899671Y-88084870D01*
X141097851Y-88217289D01*
X141318057Y-88308502D01*
X141551826Y-88355001D01*
X141790176Y-88355001D01*
X142023945Y-88308502D01*
X142244151Y-88217289D01*
X142442331Y-88084870D01*
X142610870Y-87916331D01*
X142743289Y-87718151D01*
X142834502Y-87497945D01*
X142881001Y-87264176D01*
X142881001Y-87025826D01*
X142834502Y-86792057D01*
X142743289Y-86571851D01*
X142610870Y-86373671D01*
X142442331Y-86205132D01*
X142244151Y-86072713D01*
X142023945Y-85981500D01*
X141790176Y-85935001D01*
X141551826Y-85935001D01*
X141318057Y-85981500D01*
X141097851Y-86072713D01*
X140899671Y-86205132D01*
X140731132Y-86373671D01*
X140598713Y-86571851D01*
X140507500Y-86792057D01*
X140461001Y-87025826D01*
X127386001Y-87025826D01*
X127339502Y-86792057D01*
X127248289Y-86571851D01*
X127115870Y-86373671D01*
X126947331Y-86205132D01*
X126749151Y-86072713D01*
X126528945Y-85981500D01*
X126295176Y-85935001D01*
X126056826Y-85935001D01*
X125823057Y-85981500D01*
X125602851Y-86072713D01*
X125404671Y-86205132D01*
X125236132Y-86373671D01*
X125103713Y-86571851D01*
X125012500Y-86792057D01*
X124966001Y-87025826D01*
X124485000Y-87025826D01*
X124485000Y-84485826D01*
X124966001Y-84485826D01*
X124966001Y-84724176D01*
X125012500Y-84957945D01*
X125103713Y-85178151D01*
X125236132Y-85376331D01*
X125404671Y-85544870D01*
X125602851Y-85677289D01*
X125823057Y-85768502D01*
X126056826Y-85815001D01*
X126295176Y-85815001D01*
X126528945Y-85768502D01*
X126749151Y-85677289D01*
X126947331Y-85544870D01*
X127115870Y-85376331D01*
X127248289Y-85178151D01*
X127339502Y-84957945D01*
X127386001Y-84724176D01*
X127386001Y-84485826D01*
X140461001Y-84485826D01*
X140461001Y-84724176D01*
X140507500Y-84957945D01*
X140598713Y-85178151D01*
X140731132Y-85376331D01*
X140899671Y-85544870D01*
X141097851Y-85677289D01*
X141318057Y-85768502D01*
X141551826Y-85815001D01*
X141790176Y-85815001D01*
X142023945Y-85768502D01*
X142244151Y-85677289D01*
X142442331Y-85544870D01*
X142610870Y-85376331D01*
X142743289Y-85178151D01*
X142834502Y-84957945D01*
X142881001Y-84724176D01*
X142881001Y-84485826D01*
X142834502Y-84252057D01*
X142743289Y-84031851D01*
X142610870Y-83833671D01*
X142442331Y-83665132D01*
X142244151Y-83532713D01*
X142023945Y-83441500D01*
X141790176Y-83395001D01*
X141551826Y-83395001D01*
X141318057Y-83441500D01*
X141097851Y-83532713D01*
X140899671Y-83665132D01*
X140731132Y-83833671D01*
X140598713Y-84031851D01*
X140507500Y-84252057D01*
X140461001Y-84485826D01*
X127386001Y-84485826D01*
X127339502Y-84252057D01*
X127248289Y-84031851D01*
X127115870Y-83833671D01*
X126947331Y-83665132D01*
X126749151Y-83532713D01*
X126528945Y-83441500D01*
X126295176Y-83395001D01*
X126056826Y-83395001D01*
X125823057Y-83441500D01*
X125602851Y-83532713D01*
X125404671Y-83665132D01*
X125236132Y-83833671D01*
X125103713Y-84031851D01*
X125012500Y-84252057D01*
X124966001Y-84485826D01*
X124485000Y-84485826D01*
X124485000Y-81945826D01*
X124966001Y-81945826D01*
X124966001Y-82184176D01*
X125012500Y-82417945D01*
X125103713Y-82638151D01*
X125236132Y-82836331D01*
X125404671Y-83004870D01*
X125602851Y-83137289D01*
X125823057Y-83228502D01*
X126056826Y-83275001D01*
X126295176Y-83275001D01*
X126528945Y-83228502D01*
X126749151Y-83137289D01*
X126947331Y-83004870D01*
X127115870Y-82836331D01*
X127248289Y-82638151D01*
X127339502Y-82417945D01*
X127386001Y-82184176D01*
X127386001Y-81945826D01*
X140461001Y-81945826D01*
X140461001Y-82184176D01*
X140507500Y-82417945D01*
X140598713Y-82638151D01*
X140731132Y-82836331D01*
X140899671Y-83004870D01*
X141097851Y-83137289D01*
X141318057Y-83228502D01*
X141551826Y-83275001D01*
X141790176Y-83275001D01*
X142023945Y-83228502D01*
X142244151Y-83137289D01*
X142442331Y-83004870D01*
X142610870Y-82836331D01*
X142743289Y-82638151D01*
X142834502Y-82417945D01*
X142881001Y-82184176D01*
X142881001Y-81945826D01*
X142834502Y-81712057D01*
X142743289Y-81491851D01*
X142610870Y-81293671D01*
X142442331Y-81125132D01*
X142244151Y-80992713D01*
X142023945Y-80901500D01*
X141790176Y-80855001D01*
X141551826Y-80855001D01*
X141318057Y-80901500D01*
X141097851Y-80992713D01*
X140899671Y-81125132D01*
X140731132Y-81293671D01*
X140598713Y-81491851D01*
X140507500Y-81712057D01*
X140461001Y-81945826D01*
X127386001Y-81945826D01*
X127339502Y-81712057D01*
X127248289Y-81491851D01*
X127115870Y-81293671D01*
X126947331Y-81125132D01*
X126749151Y-80992713D01*
X126528945Y-80901500D01*
X126295176Y-80855001D01*
X126056826Y-80855001D01*
X125823057Y-80901500D01*
X125602851Y-80992713D01*
X125404671Y-81125132D01*
X125236132Y-81293671D01*
X125103713Y-81491851D01*
X125012500Y-81712057D01*
X124966001Y-81945826D01*
X124485000Y-81945826D01*
X124485000Y-79405826D01*
X124966001Y-79405826D01*
X124966001Y-79644176D01*
X125012500Y-79877945D01*
X125103713Y-80098151D01*
X125236132Y-80296331D01*
X125404671Y-80464870D01*
X125602851Y-80597289D01*
X125823057Y-80688502D01*
X126056826Y-80735001D01*
X126295176Y-80735001D01*
X126528945Y-80688502D01*
X126749151Y-80597289D01*
X126947331Y-80464870D01*
X127115870Y-80296331D01*
X127248289Y-80098151D01*
X127339502Y-79877945D01*
X127386001Y-79644176D01*
X127386001Y-79405826D01*
X140461001Y-79405826D01*
X140461001Y-79644176D01*
X140507500Y-79877945D01*
X140598713Y-80098151D01*
X140731132Y-80296331D01*
X140899671Y-80464870D01*
X141097851Y-80597289D01*
X141318057Y-80688502D01*
X141551826Y-80735001D01*
X141790176Y-80735001D01*
X142023945Y-80688502D01*
X142244151Y-80597289D01*
X142442331Y-80464870D01*
X142610870Y-80296331D01*
X142743289Y-80098151D01*
X142834502Y-79877945D01*
X142881001Y-79644176D01*
X142881001Y-79405826D01*
X142834502Y-79172057D01*
X142743289Y-78951851D01*
X142610870Y-78753671D01*
X142442331Y-78585132D01*
X142244151Y-78452713D01*
X142023945Y-78361500D01*
X141790176Y-78315001D01*
X141551826Y-78315001D01*
X141318057Y-78361500D01*
X141097851Y-78452713D01*
X140899671Y-78585132D01*
X140731132Y-78753671D01*
X140598713Y-78951851D01*
X140507500Y-79172057D01*
X140461001Y-79405826D01*
X127386001Y-79405826D01*
X127339502Y-79172057D01*
X127248289Y-78951851D01*
X127115870Y-78753671D01*
X126947331Y-78585132D01*
X126749151Y-78452713D01*
X126528945Y-78361500D01*
X126295176Y-78315001D01*
X126056826Y-78315001D01*
X125823057Y-78361500D01*
X125602851Y-78452713D01*
X125404671Y-78585132D01*
X125236132Y-78753671D01*
X125103713Y-78951851D01*
X125012500Y-79172057D01*
X124966001Y-79405826D01*
X124485000Y-79405826D01*
X124485000Y-76865826D01*
X124966001Y-76865826D01*
X124966001Y-77104176D01*
X125012500Y-77337945D01*
X125103713Y-77558151D01*
X125236132Y-77756331D01*
X125404671Y-77924870D01*
X125602851Y-78057289D01*
X125823057Y-78148502D01*
X126056826Y-78195001D01*
X126295176Y-78195001D01*
X126528945Y-78148502D01*
X126749151Y-78057289D01*
X126947331Y-77924870D01*
X127115870Y-77756331D01*
X127248289Y-77558151D01*
X127339502Y-77337945D01*
X127386001Y-77104176D01*
X127386001Y-76865826D01*
X140461001Y-76865826D01*
X140461001Y-77104176D01*
X140507500Y-77337945D01*
X140598713Y-77558151D01*
X140731132Y-77756331D01*
X140899671Y-77924870D01*
X141097851Y-78057289D01*
X141318057Y-78148502D01*
X141551826Y-78195001D01*
X141790176Y-78195001D01*
X142023945Y-78148502D01*
X142244151Y-78057289D01*
X142442331Y-77924870D01*
X142610870Y-77756331D01*
X142743289Y-77558151D01*
X142834502Y-77337945D01*
X142881001Y-77104176D01*
X142881001Y-76865826D01*
X142834502Y-76632057D01*
X142743289Y-76411851D01*
X142610870Y-76213671D01*
X142442331Y-76045132D01*
X142244151Y-75912713D01*
X142023945Y-75821500D01*
X141790176Y-75775001D01*
X141551826Y-75775001D01*
X141318057Y-75821500D01*
X141097851Y-75912713D01*
X140899671Y-76045132D01*
X140731132Y-76213671D01*
X140598713Y-76411851D01*
X140507500Y-76632057D01*
X140461001Y-76865826D01*
X127386001Y-76865826D01*
X127339502Y-76632057D01*
X127248289Y-76411851D01*
X127115870Y-76213671D01*
X126947331Y-76045132D01*
X126749151Y-75912713D01*
X126528945Y-75821500D01*
X126295176Y-75775001D01*
X126056826Y-75775001D01*
X125823057Y-75821500D01*
X125602851Y-75912713D01*
X125404671Y-76045132D01*
X125236132Y-76213671D01*
X125103713Y-76411851D01*
X125012500Y-76632057D01*
X124966001Y-76865826D01*
X124485000Y-76865826D01*
X124485000Y-75276875D01*
X125523732Y-75276875D01*
X125567994Y-75497917D01*
X125785090Y-75596302D01*
X126017209Y-75650443D01*
X126255430Y-75658259D01*
X126490599Y-75619451D01*
X126713678Y-75535510D01*
X126784008Y-75497917D01*
X126828270Y-75276875D01*
X126176001Y-74624606D01*
X125523732Y-75276875D01*
X124485000Y-75276875D01*
X124485000Y-74524430D01*
X124962743Y-74524430D01*
X125001551Y-74759599D01*
X125085492Y-74982678D01*
X125123085Y-75053008D01*
X125344127Y-75097270D01*
X125996396Y-74445001D01*
X126355606Y-74445001D01*
X127007875Y-75097270D01*
X127228917Y-75053008D01*
X127327302Y-74835912D01*
X127381443Y-74603793D01*
X127389259Y-74365572D01*
X127382701Y-74325826D01*
X140461001Y-74325826D01*
X140461001Y-74564176D01*
X140507500Y-74797945D01*
X140598713Y-75018151D01*
X140731132Y-75216331D01*
X140899671Y-75384870D01*
X141097851Y-75517289D01*
X141318057Y-75608502D01*
X141551826Y-75655001D01*
X141790176Y-75655001D01*
X142023945Y-75608502D01*
X142244151Y-75517289D01*
X142442331Y-75384870D01*
X142610870Y-75216331D01*
X142743289Y-75018151D01*
X142834502Y-74797945D01*
X142881001Y-74564176D01*
X142881001Y-74325826D01*
X142834502Y-74092057D01*
X142743289Y-73871851D01*
X142610870Y-73673671D01*
X142442331Y-73505132D01*
X142244151Y-73372713D01*
X142023945Y-73281500D01*
X141790176Y-73235001D01*
X141551826Y-73235001D01*
X141318057Y-73281500D01*
X141097851Y-73372713D01*
X140899671Y-73505132D01*
X140731132Y-73673671D01*
X140598713Y-73871851D01*
X140507500Y-74092057D01*
X140461001Y-74325826D01*
X127382701Y-74325826D01*
X127350451Y-74130403D01*
X127266510Y-73907324D01*
X127228917Y-73836994D01*
X127007875Y-73792732D01*
X126355606Y-74445001D01*
X125996396Y-74445001D01*
X125344127Y-73792732D01*
X125123085Y-73836994D01*
X125024700Y-74054090D01*
X124970559Y-74286209D01*
X124962743Y-74524430D01*
X124485000Y-74524430D01*
X124485000Y-73613127D01*
X125523732Y-73613127D01*
X126176001Y-74265396D01*
X126828270Y-73613127D01*
X126784008Y-73392085D01*
X126566912Y-73293700D01*
X126334793Y-73239559D01*
X126096572Y-73231743D01*
X125861403Y-73270551D01*
X125638324Y-73354492D01*
X125567994Y-73392085D01*
X125523732Y-73613127D01*
X124485000Y-73613127D01*
X124485000Y-72736875D01*
X125523732Y-72736875D01*
X125567994Y-72957917D01*
X125785090Y-73056302D01*
X126017209Y-73110443D01*
X126255430Y-73118259D01*
X126490599Y-73079451D01*
X126713678Y-72995510D01*
X126784008Y-72957917D01*
X126828270Y-72736875D01*
X126176001Y-72084606D01*
X125523732Y-72736875D01*
X124485000Y-72736875D01*
X124485000Y-71984430D01*
X124962743Y-71984430D01*
X125001551Y-72219599D01*
X125085492Y-72442678D01*
X125123085Y-72513008D01*
X125344127Y-72557270D01*
X125996396Y-71905001D01*
X126355606Y-71905001D01*
X127007875Y-72557270D01*
X127228917Y-72513008D01*
X127327302Y-72295912D01*
X127381443Y-72063793D01*
X127389259Y-71825572D01*
X127382701Y-71785826D01*
X140461001Y-71785826D01*
X140461001Y-72024176D01*
X140507500Y-72257945D01*
X140598713Y-72478151D01*
X140731132Y-72676331D01*
X140899671Y-72844870D01*
X141097851Y-72977289D01*
X141318057Y-73068502D01*
X141551826Y-73115001D01*
X141790176Y-73115001D01*
X142023945Y-73068502D01*
X142244151Y-72977289D01*
X142442331Y-72844870D01*
X142610870Y-72676331D01*
X142743289Y-72478151D01*
X142834502Y-72257945D01*
X142881001Y-72024176D01*
X142881001Y-71785826D01*
X142834502Y-71552057D01*
X142743289Y-71331851D01*
X142610870Y-71133671D01*
X142442331Y-70965132D01*
X142244151Y-70832713D01*
X142023945Y-70741500D01*
X141790176Y-70695001D01*
X141551826Y-70695001D01*
X141318057Y-70741500D01*
X141097851Y-70832713D01*
X140899671Y-70965132D01*
X140731132Y-71133671D01*
X140598713Y-71331851D01*
X140507500Y-71552057D01*
X140461001Y-71785826D01*
X127382701Y-71785826D01*
X127350451Y-71590403D01*
X127266510Y-71367324D01*
X127228917Y-71296994D01*
X127007875Y-71252732D01*
X126355606Y-71905001D01*
X125996396Y-71905001D01*
X125344127Y-71252732D01*
X125123085Y-71296994D01*
X125024700Y-71514090D01*
X124970559Y-71746209D01*
X124962743Y-71984430D01*
X124485000Y-71984430D01*
X124485000Y-71073127D01*
X125523732Y-71073127D01*
X126176001Y-71725396D01*
X126828270Y-71073127D01*
X126784008Y-70852085D01*
X126566912Y-70753700D01*
X126334793Y-70699559D01*
X126096572Y-70691743D01*
X125861403Y-70730551D01*
X125638324Y-70814492D01*
X125567994Y-70852085D01*
X125523732Y-71073127D01*
X124485000Y-71073127D01*
X124485000Y-66576066D01*
X126643539Y-66576066D01*
X126745339Y-66845579D01*
X127043477Y-66991463D01*
X127364346Y-67076380D01*
X127695617Y-67097066D01*
X128024557Y-67052728D01*
X128338527Y-66945069D01*
X128524661Y-66845579D01*
X128626461Y-66576066D01*
X127635000Y-65584605D01*
X126643539Y-66576066D01*
X124485000Y-66576066D01*
X124485000Y-65465617D01*
X125942934Y-65465617D01*
X125987272Y-65794557D01*
X126094931Y-66108527D01*
X126194421Y-66294661D01*
X126463934Y-66396461D01*
X127455395Y-65405000D01*
X127814605Y-65405000D01*
X128806066Y-66396461D01*
X129075579Y-66294661D01*
X129221463Y-65996523D01*
X129306380Y-65675654D01*
X129327066Y-65344383D01*
X129312868Y-65239042D01*
X138015000Y-65239042D01*
X138015000Y-65570958D01*
X138079754Y-65896496D01*
X138206772Y-66203147D01*
X138391175Y-66479125D01*
X138625875Y-66713825D01*
X138901853Y-66898228D01*
X139208504Y-67025246D01*
X139534042Y-67090000D01*
X139865958Y-67090000D01*
X140191496Y-67025246D01*
X140498147Y-66898228D01*
X140774125Y-66713825D01*
X141008825Y-66479125D01*
X141193228Y-66203147D01*
X141320246Y-65896496D01*
X141385000Y-65570958D01*
X141385000Y-65239042D01*
X141320246Y-64913504D01*
X141193228Y-64606853D01*
X141008825Y-64330875D01*
X140774125Y-64096175D01*
X140498147Y-63911772D01*
X140191496Y-63784754D01*
X139865958Y-63720000D01*
X139534042Y-63720000D01*
X139208504Y-63784754D01*
X138901853Y-63911772D01*
X138625875Y-64096175D01*
X138391175Y-64330875D01*
X138206772Y-64606853D01*
X138079754Y-64913504D01*
X138015000Y-65239042D01*
X129312868Y-65239042D01*
X129282728Y-65015443D01*
X129175069Y-64701473D01*
X129075579Y-64515339D01*
X128806066Y-64413539D01*
X127814605Y-65405000D01*
X127455395Y-65405000D01*
X126463934Y-64413539D01*
X126194421Y-64515339D01*
X126048537Y-64813477D01*
X125963620Y-65134346D01*
X125942934Y-65465617D01*
X124485000Y-65465617D01*
X124485000Y-64233934D01*
X126643539Y-64233934D01*
X127635000Y-65225395D01*
X128626461Y-64233934D01*
X128524661Y-63964421D01*
X128226523Y-63818537D01*
X127905654Y-63733620D01*
X127574383Y-63712934D01*
X127245443Y-63757272D01*
X126931473Y-63864931D01*
X126745339Y-63964421D01*
X126643539Y-64233934D01*
X124485000Y-64233934D01*
X124485000Y-61496066D01*
X126643539Y-61496066D01*
X126745339Y-61765579D01*
X127043477Y-61911463D01*
X127364346Y-61996380D01*
X127695617Y-62017066D01*
X128024557Y-61972728D01*
X128338527Y-61865069D01*
X128524661Y-61765579D01*
X128626461Y-61496066D01*
X127635000Y-60504605D01*
X126643539Y-61496066D01*
X124485000Y-61496066D01*
X124485000Y-60385617D01*
X125942934Y-60385617D01*
X125987272Y-60714557D01*
X126094931Y-61028527D01*
X126194421Y-61214661D01*
X126463934Y-61316461D01*
X127455395Y-60325000D01*
X127814605Y-60325000D01*
X128806066Y-61316461D01*
X129075579Y-61214661D01*
X129221463Y-60916523D01*
X129306380Y-60595654D01*
X129327066Y-60264383D01*
X129312868Y-60159042D01*
X138015000Y-60159042D01*
X138015000Y-60490958D01*
X138079754Y-60816496D01*
X138206772Y-61123147D01*
X138391175Y-61399125D01*
X138625875Y-61633825D01*
X138901853Y-61818228D01*
X139208504Y-61945246D01*
X139534042Y-62010000D01*
X139865958Y-62010000D01*
X140191496Y-61945246D01*
X140498147Y-61818228D01*
X140774125Y-61633825D01*
X141008825Y-61399125D01*
X141193228Y-61123147D01*
X141320246Y-60816496D01*
X141385000Y-60490958D01*
X141385000Y-60159042D01*
X141320246Y-59833504D01*
X141193228Y-59526853D01*
X141008825Y-59250875D01*
X140774125Y-59016175D01*
X140498147Y-58831772D01*
X140191496Y-58704754D01*
X139865958Y-58640000D01*
X139534042Y-58640000D01*
X139208504Y-58704754D01*
X138901853Y-58831772D01*
X138625875Y-59016175D01*
X138391175Y-59250875D01*
X138206772Y-59526853D01*
X138079754Y-59833504D01*
X138015000Y-60159042D01*
X129312868Y-60159042D01*
X129282728Y-59935443D01*
X129175069Y-59621473D01*
X129075579Y-59435339D01*
X128806066Y-59333539D01*
X127814605Y-60325000D01*
X127455395Y-60325000D01*
X126463934Y-59333539D01*
X126194421Y-59435339D01*
X126048537Y-59733477D01*
X125963620Y-60054346D01*
X125942934Y-60385617D01*
X124485000Y-60385617D01*
X124485000Y-59153934D01*
X126643539Y-59153934D01*
X127635000Y-60145395D01*
X128626461Y-59153934D01*
X128524661Y-58884421D01*
X128226523Y-58738537D01*
X127905654Y-58653620D01*
X127574383Y-58632934D01*
X127245443Y-58677272D01*
X126931473Y-58784931D01*
X126745339Y-58884421D01*
X126643539Y-59153934D01*
X124485000Y-59153934D01*
X124485000Y-58445000D01*
X143485001Y-58445000D01*
X143485000Y-113640000D01*
X143485000Y-113640000D01*
G37*
X143485000Y-113640000D02*
X124485000Y-113640000D01*
X124485000Y-112931066D01*
X126643539Y-112931066D01*
X126745339Y-113200579D01*
X127043477Y-113346463D01*
X127364346Y-113431380D01*
X127695617Y-113452066D01*
X128024557Y-113407728D01*
X128338527Y-113300069D01*
X128524661Y-113200579D01*
X128626461Y-112931066D01*
X127635000Y-111939605D01*
X126643539Y-112931066D01*
X124485000Y-112931066D01*
X124485000Y-111820617D01*
X125942934Y-111820617D01*
X125987272Y-112149557D01*
X126094931Y-112463527D01*
X126194421Y-112649661D01*
X126463934Y-112751461D01*
X127455395Y-111760000D01*
X127814605Y-111760000D01*
X128806066Y-112751461D01*
X129075579Y-112649661D01*
X129221463Y-112351523D01*
X129306380Y-112030654D01*
X129327066Y-111699383D01*
X129312868Y-111594042D01*
X138015000Y-111594042D01*
X138015000Y-111925958D01*
X138079754Y-112251496D01*
X138206772Y-112558147D01*
X138391175Y-112834125D01*
X138625875Y-113068825D01*
X138901853Y-113253228D01*
X139208504Y-113380246D01*
X139534042Y-113445000D01*
X139865958Y-113445000D01*
X140191496Y-113380246D01*
X140498147Y-113253228D01*
X140774125Y-113068825D01*
X141008825Y-112834125D01*
X141193228Y-112558147D01*
X141320246Y-112251496D01*
X141385000Y-111925958D01*
X141385000Y-111594042D01*
X141320246Y-111268504D01*
X141193228Y-110961853D01*
X141008825Y-110685875D01*
X140774125Y-110451175D01*
X140498147Y-110266772D01*
X140191496Y-110139754D01*
X139865958Y-110075000D01*
X139534042Y-110075000D01*
X139208504Y-110139754D01*
X138901853Y-110266772D01*
X138625875Y-110451175D01*
X138391175Y-110685875D01*
X138206772Y-110961853D01*
X138079754Y-111268504D01*
X138015000Y-111594042D01*
X129312868Y-111594042D01*
X129282728Y-111370443D01*
X129175069Y-111056473D01*
X129075579Y-110870339D01*
X128806066Y-110768539D01*
X127814605Y-111760000D01*
X127455395Y-111760000D01*
X126463934Y-110768539D01*
X126194421Y-110870339D01*
X126048537Y-111168477D01*
X125963620Y-111489346D01*
X125942934Y-111820617D01*
X124485000Y-111820617D01*
X124485000Y-110588934D01*
X126643539Y-110588934D01*
X127635000Y-111580395D01*
X128626461Y-110588934D01*
X128524661Y-110319421D01*
X128226523Y-110173537D01*
X127905654Y-110088620D01*
X127574383Y-110067934D01*
X127245443Y-110112272D01*
X126931473Y-110219931D01*
X126745339Y-110319421D01*
X126643539Y-110588934D01*
X124485000Y-110588934D01*
X124485000Y-107851066D01*
X126643539Y-107851066D01*
X126745339Y-108120579D01*
X127043477Y-108266463D01*
X127364346Y-108351380D01*
X127695617Y-108372066D01*
X128024557Y-108327728D01*
X128338527Y-108220069D01*
X128524661Y-108120579D01*
X128626461Y-107851066D01*
X127635000Y-106859605D01*
X126643539Y-107851066D01*
X124485000Y-107851066D01*
X124485000Y-106740617D01*
X125942934Y-106740617D01*
X125987272Y-107069557D01*
X126094931Y-107383527D01*
X126194421Y-107569661D01*
X126463934Y-107671461D01*
X127455395Y-106680000D01*
X127814605Y-106680000D01*
X128806066Y-107671461D01*
X129075579Y-107569661D01*
X129221463Y-107271523D01*
X129306380Y-106950654D01*
X129327066Y-106619383D01*
X129312868Y-106514042D01*
X138015000Y-106514042D01*
X138015000Y-106845958D01*
X138079754Y-107171496D01*
X138206772Y-107478147D01*
X138391175Y-107754125D01*
X138625875Y-107988825D01*
X138901853Y-108173228D01*
X139208504Y-108300246D01*
X139534042Y-108365000D01*
X139865958Y-108365000D01*
X140191496Y-108300246D01*
X140498147Y-108173228D01*
X140774125Y-107988825D01*
X141008825Y-107754125D01*
X141193228Y-107478147D01*
X141320246Y-107171496D01*
X141385000Y-106845958D01*
X141385000Y-106514042D01*
X141320246Y-106188504D01*
X141193228Y-105881853D01*
X141008825Y-105605875D01*
X140774125Y-105371175D01*
X140498147Y-105186772D01*
X140191496Y-105059754D01*
X139865958Y-104995000D01*
X139534042Y-104995000D01*
X139208504Y-105059754D01*
X138901853Y-105186772D01*
X138625875Y-105371175D01*
X138391175Y-105605875D01*
X138206772Y-105881853D01*
X138079754Y-106188504D01*
X138015000Y-106514042D01*
X129312868Y-106514042D01*
X129282728Y-106290443D01*
X129175069Y-105976473D01*
X129075579Y-105790339D01*
X128806066Y-105688539D01*
X127814605Y-106680000D01*
X127455395Y-106680000D01*
X126463934Y-105688539D01*
X126194421Y-105790339D01*
X126048537Y-106088477D01*
X125963620Y-106409346D01*
X125942934Y-106740617D01*
X124485000Y-106740617D01*
X124485000Y-105508934D01*
X126643539Y-105508934D01*
X127635000Y-106500395D01*
X128626461Y-105508934D01*
X128524661Y-105239421D01*
X128226523Y-105093537D01*
X127905654Y-105008620D01*
X127574383Y-104987934D01*
X127245443Y-105032272D01*
X126931473Y-105139931D01*
X126745339Y-105239421D01*
X126643539Y-105508934D01*
X124485000Y-105508934D01*
X124485000Y-100420001D01*
X124962929Y-100420001D01*
X124975189Y-100544483D01*
X125011499Y-100664181D01*
X125070464Y-100774495D01*
X125149816Y-100871186D01*
X125246507Y-100950538D01*
X125356821Y-101009503D01*
X125476519Y-101045813D01*
X125601001Y-101058073D01*
X125890251Y-101055001D01*
X126049001Y-100896251D01*
X126049001Y-99972001D01*
X126303001Y-99972001D01*
X126303001Y-100896251D01*
X126461751Y-101055001D01*
X126751001Y-101058073D01*
X126875483Y-101045813D01*
X126995181Y-101009503D01*
X127105495Y-100950538D01*
X127202186Y-100871186D01*
X127281538Y-100774495D01*
X127340503Y-100664181D01*
X127376813Y-100544483D01*
X127389073Y-100420001D01*
X127386001Y-100130751D01*
X127227251Y-99972001D01*
X126303001Y-99972001D01*
X126049001Y-99972001D01*
X125124751Y-99972001D01*
X124966001Y-100130751D01*
X124962929Y-100420001D01*
X124485000Y-100420001D01*
X124485000Y-99725826D01*
X140461001Y-99725826D01*
X140461001Y-99964176D01*
X140507500Y-100197945D01*
X140598713Y-100418151D01*
X140731132Y-100616331D01*
X140899671Y-100784870D01*
X141097851Y-100917289D01*
X141318057Y-101008502D01*
X141551826Y-101055001D01*
X141790176Y-101055001D01*
X142023945Y-101008502D01*
X142244151Y-100917289D01*
X142442331Y-100784870D01*
X142610870Y-100616331D01*
X142743289Y-100418151D01*
X142834502Y-100197945D01*
X142881001Y-99964176D01*
X142881001Y-99725826D01*
X142834502Y-99492057D01*
X142743289Y-99271851D01*
X142610870Y-99073671D01*
X142442331Y-98905132D01*
X142244151Y-98772713D01*
X142023945Y-98681500D01*
X141790176Y-98635001D01*
X141551826Y-98635001D01*
X141318057Y-98681500D01*
X141097851Y-98772713D01*
X140899671Y-98905132D01*
X140731132Y-99073671D01*
X140598713Y-99271851D01*
X140507500Y-99492057D01*
X140461001Y-99725826D01*
X124485000Y-99725826D01*
X124485000Y-99270001D01*
X124962929Y-99270001D01*
X124966001Y-99559251D01*
X125124751Y-99718001D01*
X126049001Y-99718001D01*
X126049001Y-98793751D01*
X126303001Y-98793751D01*
X126303001Y-99718001D01*
X127227251Y-99718001D01*
X127386001Y-99559251D01*
X127389073Y-99270001D01*
X127376813Y-99145519D01*
X127340503Y-99025821D01*
X127281538Y-98915507D01*
X127202186Y-98818816D01*
X127105495Y-98739464D01*
X126995181Y-98680499D01*
X126875483Y-98644189D01*
X126751001Y-98631929D01*
X126461751Y-98635001D01*
X126303001Y-98793751D01*
X126049001Y-98793751D01*
X125890251Y-98635001D01*
X125601001Y-98631929D01*
X125476519Y-98644189D01*
X125356821Y-98680499D01*
X125246507Y-98739464D01*
X125149816Y-98818816D01*
X125070464Y-98915507D01*
X125011499Y-99025821D01*
X124975189Y-99145519D01*
X124962929Y-99270001D01*
X124485000Y-99270001D01*
X124485000Y-98136875D01*
X125523732Y-98136875D01*
X125567994Y-98357917D01*
X125785090Y-98456302D01*
X126017209Y-98510443D01*
X126255430Y-98518259D01*
X126490599Y-98479451D01*
X126713678Y-98395510D01*
X126784008Y-98357917D01*
X126828270Y-98136875D01*
X126176001Y-97484606D01*
X125523732Y-98136875D01*
X124485000Y-98136875D01*
X124485000Y-97384430D01*
X124962743Y-97384430D01*
X125001551Y-97619599D01*
X125085492Y-97842678D01*
X125123085Y-97913008D01*
X125344127Y-97957270D01*
X125996396Y-97305001D01*
X126355606Y-97305001D01*
X127007875Y-97957270D01*
X127228917Y-97913008D01*
X127327302Y-97695912D01*
X127381443Y-97463793D01*
X127389259Y-97225572D01*
X127382701Y-97185826D01*
X140461001Y-97185826D01*
X140461001Y-97424176D01*
X140507500Y-97657945D01*
X140598713Y-97878151D01*
X140731132Y-98076331D01*
X140899671Y-98244870D01*
X141097851Y-98377289D01*
X141318057Y-98468502D01*
X141551826Y-98515001D01*
X141790176Y-98515001D01*
X142023945Y-98468502D01*
X142244151Y-98377289D01*
X142442331Y-98244870D01*
X142610870Y-98076331D01*
X142743289Y-97878151D01*
X142834502Y-97657945D01*
X142881001Y-97424176D01*
X142881001Y-97185826D01*
X142834502Y-96952057D01*
X142743289Y-96731851D01*
X142610870Y-96533671D01*
X142442331Y-96365132D01*
X142244151Y-96232713D01*
X142023945Y-96141500D01*
X141790176Y-96095001D01*
X141551826Y-96095001D01*
X141318057Y-96141500D01*
X141097851Y-96232713D01*
X140899671Y-96365132D01*
X140731132Y-96533671D01*
X140598713Y-96731851D01*
X140507500Y-96952057D01*
X140461001Y-97185826D01*
X127382701Y-97185826D01*
X127350451Y-96990403D01*
X127266510Y-96767324D01*
X127228917Y-96696994D01*
X127007875Y-96652732D01*
X126355606Y-97305001D01*
X125996396Y-97305001D01*
X125344127Y-96652732D01*
X125123085Y-96696994D01*
X125024700Y-96914090D01*
X124970559Y-97146209D01*
X124962743Y-97384430D01*
X124485000Y-97384430D01*
X124485000Y-96473127D01*
X125523732Y-96473127D01*
X126176001Y-97125396D01*
X126828270Y-96473127D01*
X126784008Y-96252085D01*
X126566912Y-96153700D01*
X126334793Y-96099559D01*
X126096572Y-96091743D01*
X125861403Y-96130551D01*
X125638324Y-96214492D01*
X125567994Y-96252085D01*
X125523732Y-96473127D01*
X124485000Y-96473127D01*
X124485000Y-94645826D01*
X124966001Y-94645826D01*
X124966001Y-94884176D01*
X125012500Y-95117945D01*
X125103713Y-95338151D01*
X125236132Y-95536331D01*
X125404671Y-95704870D01*
X125602851Y-95837289D01*
X125823057Y-95928502D01*
X126056826Y-95975001D01*
X126295176Y-95975001D01*
X126528945Y-95928502D01*
X126749151Y-95837289D01*
X126947331Y-95704870D01*
X127115870Y-95536331D01*
X127248289Y-95338151D01*
X127339502Y-95117945D01*
X127386001Y-94884176D01*
X127386001Y-94645826D01*
X140461001Y-94645826D01*
X140461001Y-94884176D01*
X140507500Y-95117945D01*
X140598713Y-95338151D01*
X140731132Y-95536331D01*
X140899671Y-95704870D01*
X141097851Y-95837289D01*
X141318057Y-95928502D01*
X141551826Y-95975001D01*
X141790176Y-95975001D01*
X142023945Y-95928502D01*
X142244151Y-95837289D01*
X142442331Y-95704870D01*
X142610870Y-95536331D01*
X142743289Y-95338151D01*
X142834502Y-95117945D01*
X142881001Y-94884176D01*
X142881001Y-94645826D01*
X142834502Y-94412057D01*
X142743289Y-94191851D01*
X142610870Y-93993671D01*
X142442331Y-93825132D01*
X142244151Y-93692713D01*
X142023945Y-93601500D01*
X141790176Y-93555001D01*
X141551826Y-93555001D01*
X141318057Y-93601500D01*
X141097851Y-93692713D01*
X140899671Y-93825132D01*
X140731132Y-93993671D01*
X140598713Y-94191851D01*
X140507500Y-94412057D01*
X140461001Y-94645826D01*
X127386001Y-94645826D01*
X127339502Y-94412057D01*
X127248289Y-94191851D01*
X127115870Y-93993671D01*
X126947331Y-93825132D01*
X126749151Y-93692713D01*
X126528945Y-93601500D01*
X126295176Y-93555001D01*
X126056826Y-93555001D01*
X125823057Y-93601500D01*
X125602851Y-93692713D01*
X125404671Y-93825132D01*
X125236132Y-93993671D01*
X125103713Y-94191851D01*
X125012500Y-94412057D01*
X124966001Y-94645826D01*
X124485000Y-94645826D01*
X124485000Y-92105826D01*
X124966001Y-92105826D01*
X124966001Y-92344176D01*
X125012500Y-92577945D01*
X125103713Y-92798151D01*
X125236132Y-92996331D01*
X125404671Y-93164870D01*
X125602851Y-93297289D01*
X125823057Y-93388502D01*
X126056826Y-93435001D01*
X126295176Y-93435001D01*
X126528945Y-93388502D01*
X126749151Y-93297289D01*
X126947331Y-93164870D01*
X127115870Y-92996331D01*
X127248289Y-92798151D01*
X127339502Y-92577945D01*
X127386001Y-92344176D01*
X127386001Y-92105826D01*
X140461001Y-92105826D01*
X140461001Y-92344176D01*
X140507500Y-92577945D01*
X140598713Y-92798151D01*
X140731132Y-92996331D01*
X140899671Y-93164870D01*
X141097851Y-93297289D01*
X141318057Y-93388502D01*
X141551826Y-93435001D01*
X141790176Y-93435001D01*
X142023945Y-93388502D01*
X142244151Y-93297289D01*
X142442331Y-93164870D01*
X142610870Y-92996331D01*
X142743289Y-92798151D01*
X142834502Y-92577945D01*
X142881001Y-92344176D01*
X142881001Y-92105826D01*
X142834502Y-91872057D01*
X142743289Y-91651851D01*
X142610870Y-91453671D01*
X142442331Y-91285132D01*
X142244151Y-91152713D01*
X142023945Y-91061500D01*
X141790176Y-91015001D01*
X141551826Y-91015001D01*
X141318057Y-91061500D01*
X141097851Y-91152713D01*
X140899671Y-91285132D01*
X140731132Y-91453671D01*
X140598713Y-91651851D01*
X140507500Y-91872057D01*
X140461001Y-92105826D01*
X127386001Y-92105826D01*
X127339502Y-91872057D01*
X127248289Y-91651851D01*
X127115870Y-91453671D01*
X126947331Y-91285132D01*
X126749151Y-91152713D01*
X126528945Y-91061500D01*
X126295176Y-91015001D01*
X126056826Y-91015001D01*
X125823057Y-91061500D01*
X125602851Y-91152713D01*
X125404671Y-91285132D01*
X125236132Y-91453671D01*
X125103713Y-91651851D01*
X125012500Y-91872057D01*
X124966001Y-92105826D01*
X124485000Y-92105826D01*
X124485000Y-89565826D01*
X124966001Y-89565826D01*
X124966001Y-89804176D01*
X125012500Y-90037945D01*
X125103713Y-90258151D01*
X125236132Y-90456331D01*
X125404671Y-90624870D01*
X125602851Y-90757289D01*
X125823057Y-90848502D01*
X126056826Y-90895001D01*
X126295176Y-90895001D01*
X126528945Y-90848502D01*
X126749151Y-90757289D01*
X126947331Y-90624870D01*
X127115870Y-90456331D01*
X127248289Y-90258151D01*
X127339502Y-90037945D01*
X127386001Y-89804176D01*
X127386001Y-89565826D01*
X140461001Y-89565826D01*
X140461001Y-89804176D01*
X140507500Y-90037945D01*
X140598713Y-90258151D01*
X140731132Y-90456331D01*
X140899671Y-90624870D01*
X141097851Y-90757289D01*
X141318057Y-90848502D01*
X141551826Y-90895001D01*
X141790176Y-90895001D01*
X142023945Y-90848502D01*
X142244151Y-90757289D01*
X142442331Y-90624870D01*
X142610870Y-90456331D01*
X142743289Y-90258151D01*
X142834502Y-90037945D01*
X142881001Y-89804176D01*
X142881001Y-89565826D01*
X142834502Y-89332057D01*
X142743289Y-89111851D01*
X142610870Y-88913671D01*
X142442331Y-88745132D01*
X142244151Y-88612713D01*
X142023945Y-88521500D01*
X141790176Y-88475001D01*
X141551826Y-88475001D01*
X141318057Y-88521500D01*
X141097851Y-88612713D01*
X140899671Y-88745132D01*
X140731132Y-88913671D01*
X140598713Y-89111851D01*
X140507500Y-89332057D01*
X140461001Y-89565826D01*
X127386001Y-89565826D01*
X127339502Y-89332057D01*
X127248289Y-89111851D01*
X127115870Y-88913671D01*
X126947331Y-88745132D01*
X126749151Y-88612713D01*
X126528945Y-88521500D01*
X126295176Y-88475001D01*
X126056826Y-88475001D01*
X125823057Y-88521500D01*
X125602851Y-88612713D01*
X125404671Y-88745132D01*
X125236132Y-88913671D01*
X125103713Y-89111851D01*
X125012500Y-89332057D01*
X124966001Y-89565826D01*
X124485000Y-89565826D01*
X124485000Y-87025826D01*
X124966001Y-87025826D01*
X124966001Y-87264176D01*
X125012500Y-87497945D01*
X125103713Y-87718151D01*
X125236132Y-87916331D01*
X125404671Y-88084870D01*
X125602851Y-88217289D01*
X125823057Y-88308502D01*
X126056826Y-88355001D01*
X126295176Y-88355001D01*
X126528945Y-88308502D01*
X126749151Y-88217289D01*
X126947331Y-88084870D01*
X127115870Y-87916331D01*
X127248289Y-87718151D01*
X127339502Y-87497945D01*
X127386001Y-87264176D01*
X127386001Y-87025826D01*
X140461001Y-87025826D01*
X140461001Y-87264176D01*
X140507500Y-87497945D01*
X140598713Y-87718151D01*
X140731132Y-87916331D01*
X140899671Y-88084870D01*
X141097851Y-88217289D01*
X141318057Y-88308502D01*
X141551826Y-88355001D01*
X141790176Y-88355001D01*
X142023945Y-88308502D01*
X142244151Y-88217289D01*
X142442331Y-88084870D01*
X142610870Y-87916331D01*
X142743289Y-87718151D01*
X142834502Y-87497945D01*
X142881001Y-87264176D01*
X142881001Y-87025826D01*
X142834502Y-86792057D01*
X142743289Y-86571851D01*
X142610870Y-86373671D01*
X142442331Y-86205132D01*
X142244151Y-86072713D01*
X142023945Y-85981500D01*
X141790176Y-85935001D01*
X141551826Y-85935001D01*
X141318057Y-85981500D01*
X141097851Y-86072713D01*
X140899671Y-86205132D01*
X140731132Y-86373671D01*
X140598713Y-86571851D01*
X140507500Y-86792057D01*
X140461001Y-87025826D01*
X127386001Y-87025826D01*
X127339502Y-86792057D01*
X127248289Y-86571851D01*
X127115870Y-86373671D01*
X126947331Y-86205132D01*
X126749151Y-86072713D01*
X126528945Y-85981500D01*
X126295176Y-85935001D01*
X126056826Y-85935001D01*
X125823057Y-85981500D01*
X125602851Y-86072713D01*
X125404671Y-86205132D01*
X125236132Y-86373671D01*
X125103713Y-86571851D01*
X125012500Y-86792057D01*
X124966001Y-87025826D01*
X124485000Y-87025826D01*
X124485000Y-84485826D01*
X124966001Y-84485826D01*
X124966001Y-84724176D01*
X125012500Y-84957945D01*
X125103713Y-85178151D01*
X125236132Y-85376331D01*
X125404671Y-85544870D01*
X125602851Y-85677289D01*
X125823057Y-85768502D01*
X126056826Y-85815001D01*
X126295176Y-85815001D01*
X126528945Y-85768502D01*
X126749151Y-85677289D01*
X126947331Y-85544870D01*
X127115870Y-85376331D01*
X127248289Y-85178151D01*
X127339502Y-84957945D01*
X127386001Y-84724176D01*
X127386001Y-84485826D01*
X140461001Y-84485826D01*
X140461001Y-84724176D01*
X140507500Y-84957945D01*
X140598713Y-85178151D01*
X140731132Y-85376331D01*
X140899671Y-85544870D01*
X141097851Y-85677289D01*
X141318057Y-85768502D01*
X141551826Y-85815001D01*
X141790176Y-85815001D01*
X142023945Y-85768502D01*
X142244151Y-85677289D01*
X142442331Y-85544870D01*
X142610870Y-85376331D01*
X142743289Y-85178151D01*
X142834502Y-84957945D01*
X142881001Y-84724176D01*
X142881001Y-84485826D01*
X142834502Y-84252057D01*
X142743289Y-84031851D01*
X142610870Y-83833671D01*
X142442331Y-83665132D01*
X142244151Y-83532713D01*
X142023945Y-83441500D01*
X141790176Y-83395001D01*
X141551826Y-83395001D01*
X141318057Y-83441500D01*
X141097851Y-83532713D01*
X140899671Y-83665132D01*
X140731132Y-83833671D01*
X140598713Y-84031851D01*
X140507500Y-84252057D01*
X140461001Y-84485826D01*
X127386001Y-84485826D01*
X127339502Y-84252057D01*
X127248289Y-84031851D01*
X127115870Y-83833671D01*
X126947331Y-83665132D01*
X126749151Y-83532713D01*
X126528945Y-83441500D01*
X126295176Y-83395001D01*
X126056826Y-83395001D01*
X125823057Y-83441500D01*
X125602851Y-83532713D01*
X125404671Y-83665132D01*
X125236132Y-83833671D01*
X125103713Y-84031851D01*
X125012500Y-84252057D01*
X124966001Y-84485826D01*
X124485000Y-84485826D01*
X124485000Y-81945826D01*
X124966001Y-81945826D01*
X124966001Y-82184176D01*
X125012500Y-82417945D01*
X125103713Y-82638151D01*
X125236132Y-82836331D01*
X125404671Y-83004870D01*
X125602851Y-83137289D01*
X125823057Y-83228502D01*
X126056826Y-83275001D01*
X126295176Y-83275001D01*
X126528945Y-83228502D01*
X126749151Y-83137289D01*
X126947331Y-83004870D01*
X127115870Y-82836331D01*
X127248289Y-82638151D01*
X127339502Y-82417945D01*
X127386001Y-82184176D01*
X127386001Y-81945826D01*
X140461001Y-81945826D01*
X140461001Y-82184176D01*
X140507500Y-82417945D01*
X140598713Y-82638151D01*
X140731132Y-82836331D01*
X140899671Y-83004870D01*
X141097851Y-83137289D01*
X141318057Y-83228502D01*
X141551826Y-83275001D01*
X141790176Y-83275001D01*
X142023945Y-83228502D01*
X142244151Y-83137289D01*
X142442331Y-83004870D01*
X142610870Y-82836331D01*
X142743289Y-82638151D01*
X142834502Y-82417945D01*
X142881001Y-82184176D01*
X142881001Y-81945826D01*
X142834502Y-81712057D01*
X142743289Y-81491851D01*
X142610870Y-81293671D01*
X142442331Y-81125132D01*
X142244151Y-80992713D01*
X142023945Y-80901500D01*
X141790176Y-80855001D01*
X141551826Y-80855001D01*
X141318057Y-80901500D01*
X141097851Y-80992713D01*
X140899671Y-81125132D01*
X140731132Y-81293671D01*
X140598713Y-81491851D01*
X140507500Y-81712057D01*
X140461001Y-81945826D01*
X127386001Y-81945826D01*
X127339502Y-81712057D01*
X127248289Y-81491851D01*
X127115870Y-81293671D01*
X126947331Y-81125132D01*
X126749151Y-80992713D01*
X126528945Y-80901500D01*
X126295176Y-80855001D01*
X126056826Y-80855001D01*
X125823057Y-80901500D01*
X125602851Y-80992713D01*
X125404671Y-81125132D01*
X125236132Y-81293671D01*
X125103713Y-81491851D01*
X125012500Y-81712057D01*
X124966001Y-81945826D01*
X124485000Y-81945826D01*
X124485000Y-79405826D01*
X124966001Y-79405826D01*
X124966001Y-79644176D01*
X125012500Y-79877945D01*
X125103713Y-80098151D01*
X125236132Y-80296331D01*
X125404671Y-80464870D01*
X125602851Y-80597289D01*
X125823057Y-80688502D01*
X126056826Y-80735001D01*
X126295176Y-80735001D01*
X126528945Y-80688502D01*
X126749151Y-80597289D01*
X126947331Y-80464870D01*
X127115870Y-80296331D01*
X127248289Y-80098151D01*
X127339502Y-79877945D01*
X127386001Y-79644176D01*
X127386001Y-79405826D01*
X140461001Y-79405826D01*
X140461001Y-79644176D01*
X140507500Y-79877945D01*
X140598713Y-80098151D01*
X140731132Y-80296331D01*
X140899671Y-80464870D01*
X141097851Y-80597289D01*
X141318057Y-80688502D01*
X141551826Y-80735001D01*
X141790176Y-80735001D01*
X142023945Y-80688502D01*
X142244151Y-80597289D01*
X142442331Y-80464870D01*
X142610870Y-80296331D01*
X142743289Y-80098151D01*
X142834502Y-79877945D01*
X142881001Y-79644176D01*
X142881001Y-79405826D01*
X142834502Y-79172057D01*
X142743289Y-78951851D01*
X142610870Y-78753671D01*
X142442331Y-78585132D01*
X142244151Y-78452713D01*
X142023945Y-78361500D01*
X141790176Y-78315001D01*
X141551826Y-78315001D01*
X141318057Y-78361500D01*
X141097851Y-78452713D01*
X140899671Y-78585132D01*
X140731132Y-78753671D01*
X140598713Y-78951851D01*
X140507500Y-79172057D01*
X140461001Y-79405826D01*
X127386001Y-79405826D01*
X127339502Y-79172057D01*
X127248289Y-78951851D01*
X127115870Y-78753671D01*
X126947331Y-78585132D01*
X126749151Y-78452713D01*
X126528945Y-78361500D01*
X126295176Y-78315001D01*
X126056826Y-78315001D01*
X125823057Y-78361500D01*
X125602851Y-78452713D01*
X125404671Y-78585132D01*
X125236132Y-78753671D01*
X125103713Y-78951851D01*
X125012500Y-79172057D01*
X124966001Y-79405826D01*
X124485000Y-79405826D01*
X124485000Y-76865826D01*
X124966001Y-76865826D01*
X124966001Y-77104176D01*
X125012500Y-77337945D01*
X125103713Y-77558151D01*
X125236132Y-77756331D01*
X125404671Y-77924870D01*
X125602851Y-78057289D01*
X125823057Y-78148502D01*
X126056826Y-78195001D01*
X126295176Y-78195001D01*
X126528945Y-78148502D01*
X126749151Y-78057289D01*
X126947331Y-77924870D01*
X127115870Y-77756331D01*
X127248289Y-77558151D01*
X127339502Y-77337945D01*
X127386001Y-77104176D01*
X127386001Y-76865826D01*
X140461001Y-76865826D01*
X140461001Y-77104176D01*
X140507500Y-77337945D01*
X140598713Y-77558151D01*
X140731132Y-77756331D01*
X140899671Y-77924870D01*
X141097851Y-78057289D01*
X141318057Y-78148502D01*
X141551826Y-78195001D01*
X141790176Y-78195001D01*
X142023945Y-78148502D01*
X142244151Y-78057289D01*
X142442331Y-77924870D01*
X142610870Y-77756331D01*
X142743289Y-77558151D01*
X142834502Y-77337945D01*
X142881001Y-77104176D01*
X142881001Y-76865826D01*
X142834502Y-76632057D01*
X142743289Y-76411851D01*
X142610870Y-76213671D01*
X142442331Y-76045132D01*
X142244151Y-75912713D01*
X142023945Y-75821500D01*
X141790176Y-75775001D01*
X141551826Y-75775001D01*
X141318057Y-75821500D01*
X141097851Y-75912713D01*
X140899671Y-76045132D01*
X140731132Y-76213671D01*
X140598713Y-76411851D01*
X140507500Y-76632057D01*
X140461001Y-76865826D01*
X127386001Y-76865826D01*
X127339502Y-76632057D01*
X127248289Y-76411851D01*
X127115870Y-76213671D01*
X126947331Y-76045132D01*
X126749151Y-75912713D01*
X126528945Y-75821500D01*
X126295176Y-75775001D01*
X126056826Y-75775001D01*
X125823057Y-75821500D01*
X125602851Y-75912713D01*
X125404671Y-76045132D01*
X125236132Y-76213671D01*
X125103713Y-76411851D01*
X125012500Y-76632057D01*
X124966001Y-76865826D01*
X124485000Y-76865826D01*
X124485000Y-75276875D01*
X125523732Y-75276875D01*
X125567994Y-75497917D01*
X125785090Y-75596302D01*
X126017209Y-75650443D01*
X126255430Y-75658259D01*
X126490599Y-75619451D01*
X126713678Y-75535510D01*
X126784008Y-75497917D01*
X126828270Y-75276875D01*
X126176001Y-74624606D01*
X125523732Y-75276875D01*
X124485000Y-75276875D01*
X124485000Y-74524430D01*
X124962743Y-74524430D01*
X125001551Y-74759599D01*
X125085492Y-74982678D01*
X125123085Y-75053008D01*
X125344127Y-75097270D01*
X125996396Y-74445001D01*
X126355606Y-74445001D01*
X127007875Y-75097270D01*
X127228917Y-75053008D01*
X127327302Y-74835912D01*
X127381443Y-74603793D01*
X127389259Y-74365572D01*
X127382701Y-74325826D01*
X140461001Y-74325826D01*
X140461001Y-74564176D01*
X140507500Y-74797945D01*
X140598713Y-75018151D01*
X140731132Y-75216331D01*
X140899671Y-75384870D01*
X141097851Y-75517289D01*
X141318057Y-75608502D01*
X141551826Y-75655001D01*
X141790176Y-75655001D01*
X142023945Y-75608502D01*
X142244151Y-75517289D01*
X142442331Y-75384870D01*
X142610870Y-75216331D01*
X142743289Y-75018151D01*
X142834502Y-74797945D01*
X142881001Y-74564176D01*
X142881001Y-74325826D01*
X142834502Y-74092057D01*
X142743289Y-73871851D01*
X142610870Y-73673671D01*
X142442331Y-73505132D01*
X142244151Y-73372713D01*
X142023945Y-73281500D01*
X141790176Y-73235001D01*
X141551826Y-73235001D01*
X141318057Y-73281500D01*
X141097851Y-73372713D01*
X140899671Y-73505132D01*
X140731132Y-73673671D01*
X140598713Y-73871851D01*
X140507500Y-74092057D01*
X140461001Y-74325826D01*
X127382701Y-74325826D01*
X127350451Y-74130403D01*
X127266510Y-73907324D01*
X127228917Y-73836994D01*
X127007875Y-73792732D01*
X126355606Y-74445001D01*
X125996396Y-74445001D01*
X125344127Y-73792732D01*
X125123085Y-73836994D01*
X125024700Y-74054090D01*
X124970559Y-74286209D01*
X124962743Y-74524430D01*
X124485000Y-74524430D01*
X124485000Y-73613127D01*
X125523732Y-73613127D01*
X126176001Y-74265396D01*
X126828270Y-73613127D01*
X126784008Y-73392085D01*
X126566912Y-73293700D01*
X126334793Y-73239559D01*
X126096572Y-73231743D01*
X125861403Y-73270551D01*
X125638324Y-73354492D01*
X125567994Y-73392085D01*
X125523732Y-73613127D01*
X124485000Y-73613127D01*
X124485000Y-72736875D01*
X125523732Y-72736875D01*
X125567994Y-72957917D01*
X125785090Y-73056302D01*
X126017209Y-73110443D01*
X126255430Y-73118259D01*
X126490599Y-73079451D01*
X126713678Y-72995510D01*
X126784008Y-72957917D01*
X126828270Y-72736875D01*
X126176001Y-72084606D01*
X125523732Y-72736875D01*
X124485000Y-72736875D01*
X124485000Y-71984430D01*
X124962743Y-71984430D01*
X125001551Y-72219599D01*
X125085492Y-72442678D01*
X125123085Y-72513008D01*
X125344127Y-72557270D01*
X125996396Y-71905001D01*
X126355606Y-71905001D01*
X127007875Y-72557270D01*
X127228917Y-72513008D01*
X127327302Y-72295912D01*
X127381443Y-72063793D01*
X127389259Y-71825572D01*
X127382701Y-71785826D01*
X140461001Y-71785826D01*
X140461001Y-72024176D01*
X140507500Y-72257945D01*
X140598713Y-72478151D01*
X140731132Y-72676331D01*
X140899671Y-72844870D01*
X141097851Y-72977289D01*
X141318057Y-73068502D01*
X141551826Y-73115001D01*
X141790176Y-73115001D01*
X142023945Y-73068502D01*
X142244151Y-72977289D01*
X142442331Y-72844870D01*
X142610870Y-72676331D01*
X142743289Y-72478151D01*
X142834502Y-72257945D01*
X142881001Y-72024176D01*
X142881001Y-71785826D01*
X142834502Y-71552057D01*
X142743289Y-71331851D01*
X142610870Y-71133671D01*
X142442331Y-70965132D01*
X142244151Y-70832713D01*
X142023945Y-70741500D01*
X141790176Y-70695001D01*
X141551826Y-70695001D01*
X141318057Y-70741500D01*
X141097851Y-70832713D01*
X140899671Y-70965132D01*
X140731132Y-71133671D01*
X140598713Y-71331851D01*
X140507500Y-71552057D01*
X140461001Y-71785826D01*
X127382701Y-71785826D01*
X127350451Y-71590403D01*
X127266510Y-71367324D01*
X127228917Y-71296994D01*
X127007875Y-71252732D01*
X126355606Y-71905001D01*
X125996396Y-71905001D01*
X125344127Y-71252732D01*
X125123085Y-71296994D01*
X125024700Y-71514090D01*
X124970559Y-71746209D01*
X124962743Y-71984430D01*
X124485000Y-71984430D01*
X124485000Y-71073127D01*
X125523732Y-71073127D01*
X126176001Y-71725396D01*
X126828270Y-71073127D01*
X126784008Y-70852085D01*
X126566912Y-70753700D01*
X126334793Y-70699559D01*
X126096572Y-70691743D01*
X125861403Y-70730551D01*
X125638324Y-70814492D01*
X125567994Y-70852085D01*
X125523732Y-71073127D01*
X124485000Y-71073127D01*
X124485000Y-66576066D01*
X126643539Y-66576066D01*
X126745339Y-66845579D01*
X127043477Y-66991463D01*
X127364346Y-67076380D01*
X127695617Y-67097066D01*
X128024557Y-67052728D01*
X128338527Y-66945069D01*
X128524661Y-66845579D01*
X128626461Y-66576066D01*
X127635000Y-65584605D01*
X126643539Y-66576066D01*
X124485000Y-66576066D01*
X124485000Y-65465617D01*
X125942934Y-65465617D01*
X125987272Y-65794557D01*
X126094931Y-66108527D01*
X126194421Y-66294661D01*
X126463934Y-66396461D01*
X127455395Y-65405000D01*
X127814605Y-65405000D01*
X128806066Y-66396461D01*
X129075579Y-66294661D01*
X129221463Y-65996523D01*
X129306380Y-65675654D01*
X129327066Y-65344383D01*
X129312868Y-65239042D01*
X138015000Y-65239042D01*
X138015000Y-65570958D01*
X138079754Y-65896496D01*
X138206772Y-66203147D01*
X138391175Y-66479125D01*
X138625875Y-66713825D01*
X138901853Y-66898228D01*
X139208504Y-67025246D01*
X139534042Y-67090000D01*
X139865958Y-67090000D01*
X140191496Y-67025246D01*
X140498147Y-66898228D01*
X140774125Y-66713825D01*
X141008825Y-66479125D01*
X141193228Y-66203147D01*
X141320246Y-65896496D01*
X141385000Y-65570958D01*
X141385000Y-65239042D01*
X141320246Y-64913504D01*
X141193228Y-64606853D01*
X141008825Y-64330875D01*
X140774125Y-64096175D01*
X140498147Y-63911772D01*
X140191496Y-63784754D01*
X139865958Y-63720000D01*
X139534042Y-63720000D01*
X139208504Y-63784754D01*
X138901853Y-63911772D01*
X138625875Y-64096175D01*
X138391175Y-64330875D01*
X138206772Y-64606853D01*
X138079754Y-64913504D01*
X138015000Y-65239042D01*
X129312868Y-65239042D01*
X129282728Y-65015443D01*
X129175069Y-64701473D01*
X129075579Y-64515339D01*
X128806066Y-64413539D01*
X127814605Y-65405000D01*
X127455395Y-65405000D01*
X126463934Y-64413539D01*
X126194421Y-64515339D01*
X126048537Y-64813477D01*
X125963620Y-65134346D01*
X125942934Y-65465617D01*
X124485000Y-65465617D01*
X124485000Y-64233934D01*
X126643539Y-64233934D01*
X127635000Y-65225395D01*
X128626461Y-64233934D01*
X128524661Y-63964421D01*
X128226523Y-63818537D01*
X127905654Y-63733620D01*
X127574383Y-63712934D01*
X127245443Y-63757272D01*
X126931473Y-63864931D01*
X126745339Y-63964421D01*
X126643539Y-64233934D01*
X124485000Y-64233934D01*
X124485000Y-61496066D01*
X126643539Y-61496066D01*
X126745339Y-61765579D01*
X127043477Y-61911463D01*
X127364346Y-61996380D01*
X127695617Y-62017066D01*
X128024557Y-61972728D01*
X128338527Y-61865069D01*
X128524661Y-61765579D01*
X128626461Y-61496066D01*
X127635000Y-60504605D01*
X126643539Y-61496066D01*
X124485000Y-61496066D01*
X124485000Y-60385617D01*
X125942934Y-60385617D01*
X125987272Y-60714557D01*
X126094931Y-61028527D01*
X126194421Y-61214661D01*
X126463934Y-61316461D01*
X127455395Y-60325000D01*
X127814605Y-60325000D01*
X128806066Y-61316461D01*
X129075579Y-61214661D01*
X129221463Y-60916523D01*
X129306380Y-60595654D01*
X129327066Y-60264383D01*
X129312868Y-60159042D01*
X138015000Y-60159042D01*
X138015000Y-60490958D01*
X138079754Y-60816496D01*
X138206772Y-61123147D01*
X138391175Y-61399125D01*
X138625875Y-61633825D01*
X138901853Y-61818228D01*
X139208504Y-61945246D01*
X139534042Y-62010000D01*
X139865958Y-62010000D01*
X140191496Y-61945246D01*
X140498147Y-61818228D01*
X140774125Y-61633825D01*
X141008825Y-61399125D01*
X141193228Y-61123147D01*
X141320246Y-60816496D01*
X141385000Y-60490958D01*
X141385000Y-60159042D01*
X141320246Y-59833504D01*
X141193228Y-59526853D01*
X141008825Y-59250875D01*
X140774125Y-59016175D01*
X140498147Y-58831772D01*
X140191496Y-58704754D01*
X139865958Y-58640000D01*
X139534042Y-58640000D01*
X139208504Y-58704754D01*
X138901853Y-58831772D01*
X138625875Y-59016175D01*
X138391175Y-59250875D01*
X138206772Y-59526853D01*
X138079754Y-59833504D01*
X138015000Y-60159042D01*
X129312868Y-60159042D01*
X129282728Y-59935443D01*
X129175069Y-59621473D01*
X129075579Y-59435339D01*
X128806066Y-59333539D01*
X127814605Y-60325000D01*
X127455395Y-60325000D01*
X126463934Y-59333539D01*
X126194421Y-59435339D01*
X126048537Y-59733477D01*
X125963620Y-60054346D01*
X125942934Y-60385617D01*
X124485000Y-60385617D01*
X124485000Y-59153934D01*
X126643539Y-59153934D01*
X127635000Y-60145395D01*
X128626461Y-59153934D01*
X128524661Y-58884421D01*
X128226523Y-58738537D01*
X127905654Y-58653620D01*
X127574383Y-58632934D01*
X127245443Y-58677272D01*
X126931473Y-58784931D01*
X126745339Y-58884421D01*
X126643539Y-59153934D01*
X124485000Y-59153934D01*
X124485000Y-58445000D01*
X143485001Y-58445000D01*
X143485000Y-113640000D01*
M02*
