G04 #@! TF.GenerationSoftware,KiCad,Pcbnew,5.1.4-e60b266~84~ubuntu18.04.1*
G04 #@! TF.CreationDate,2019-10-08T20:02:31-04:00*
G04 #@! TF.ProjectId,TSAL-driver,5453414c-2d64-4726-9976-65722e6b6963,rev?*
G04 #@! TF.SameCoordinates,Original*
G04 #@! TF.FileFunction,Soldermask,Bot*
G04 #@! TF.FilePolarity,Negative*
%FSLAX46Y46*%
G04 Gerber Fmt 4.6, Leading zero omitted, Abs format (unit mm)*
G04 Created by KiCad (PCBNEW 5.1.4-e60b266~84~ubuntu18.04.1) date 2019-10-08 20:02:31*
%MOMM*%
%LPD*%
G04 APERTURE LIST*
%ADD10C,0.100000*%
G04 APERTURE END LIST*
D10*
G36*
X139914794Y-110680155D02*
G01*
X140021150Y-110701311D01*
X140121334Y-110742809D01*
X140221520Y-110784307D01*
X140401844Y-110904795D01*
X140555205Y-111058156D01*
X140675693Y-111238480D01*
X140758689Y-111438851D01*
X140801000Y-111651560D01*
X140801000Y-111868440D01*
X140758689Y-112081149D01*
X140675693Y-112281520D01*
X140555205Y-112461844D01*
X140401844Y-112615205D01*
X140221520Y-112735693D01*
X140121334Y-112777191D01*
X140021150Y-112818689D01*
X139914795Y-112839844D01*
X139808440Y-112861000D01*
X139591560Y-112861000D01*
X139485205Y-112839844D01*
X139378850Y-112818689D01*
X139278666Y-112777191D01*
X139178480Y-112735693D01*
X138998156Y-112615205D01*
X138844795Y-112461844D01*
X138724307Y-112281520D01*
X138641311Y-112081149D01*
X138599000Y-111868440D01*
X138599000Y-111651560D01*
X138641311Y-111438851D01*
X138724307Y-111238480D01*
X138844795Y-111058156D01*
X138998156Y-110904795D01*
X139178480Y-110784307D01*
X139278666Y-110742809D01*
X139378850Y-110701311D01*
X139485206Y-110680155D01*
X139591560Y-110659000D01*
X139808440Y-110659000D01*
X139914794Y-110680155D01*
X139914794Y-110680155D01*
G37*
G36*
X127849794Y-110680155D02*
G01*
X127956150Y-110701311D01*
X128056334Y-110742809D01*
X128156520Y-110784307D01*
X128336844Y-110904795D01*
X128490205Y-111058156D01*
X128610693Y-111238480D01*
X128693689Y-111438851D01*
X128736000Y-111651560D01*
X128736000Y-111868440D01*
X128693689Y-112081149D01*
X128610693Y-112281520D01*
X128490205Y-112461844D01*
X128336844Y-112615205D01*
X128156520Y-112735693D01*
X128056334Y-112777191D01*
X127956150Y-112818689D01*
X127849795Y-112839844D01*
X127743440Y-112861000D01*
X127526560Y-112861000D01*
X127420205Y-112839844D01*
X127313850Y-112818689D01*
X127213666Y-112777191D01*
X127113480Y-112735693D01*
X126933156Y-112615205D01*
X126779795Y-112461844D01*
X126659307Y-112281520D01*
X126576311Y-112081149D01*
X126534000Y-111868440D01*
X126534000Y-111651560D01*
X126576311Y-111438851D01*
X126659307Y-111238480D01*
X126779795Y-111058156D01*
X126933156Y-110904795D01*
X127113480Y-110784307D01*
X127213666Y-110742809D01*
X127313850Y-110701311D01*
X127420206Y-110680155D01*
X127526560Y-110659000D01*
X127743440Y-110659000D01*
X127849794Y-110680155D01*
X127849794Y-110680155D01*
G37*
G36*
X139914795Y-105600156D02*
G01*
X140021150Y-105621311D01*
X140121334Y-105662809D01*
X140221520Y-105704307D01*
X140401844Y-105824795D01*
X140555205Y-105978156D01*
X140675693Y-106158480D01*
X140758689Y-106358851D01*
X140801000Y-106571560D01*
X140801000Y-106788440D01*
X140758689Y-107001149D01*
X140675693Y-107201520D01*
X140555205Y-107381844D01*
X140401844Y-107535205D01*
X140221520Y-107655693D01*
X140121334Y-107697191D01*
X140021150Y-107738689D01*
X139914795Y-107759844D01*
X139808440Y-107781000D01*
X139591560Y-107781000D01*
X139485205Y-107759844D01*
X139378850Y-107738689D01*
X139178480Y-107655693D01*
X138998156Y-107535205D01*
X138844795Y-107381844D01*
X138724307Y-107201520D01*
X138641311Y-107001149D01*
X138599000Y-106788440D01*
X138599000Y-106571560D01*
X138641311Y-106358851D01*
X138724307Y-106158480D01*
X138844795Y-105978156D01*
X138998156Y-105824795D01*
X139178480Y-105704307D01*
X139378850Y-105621311D01*
X139485206Y-105600155D01*
X139591560Y-105579000D01*
X139808440Y-105579000D01*
X139914795Y-105600156D01*
X139914795Y-105600156D01*
G37*
G36*
X127849795Y-105600156D02*
G01*
X127956150Y-105621311D01*
X128056334Y-105662809D01*
X128156520Y-105704307D01*
X128336844Y-105824795D01*
X128490205Y-105978156D01*
X128610693Y-106158480D01*
X128693689Y-106358851D01*
X128736000Y-106571560D01*
X128736000Y-106788440D01*
X128693689Y-107001149D01*
X128610693Y-107201520D01*
X128490205Y-107381844D01*
X128336844Y-107535205D01*
X128156520Y-107655693D01*
X128056334Y-107697191D01*
X127956150Y-107738689D01*
X127849795Y-107759844D01*
X127743440Y-107781000D01*
X127526560Y-107781000D01*
X127420205Y-107759844D01*
X127313850Y-107738689D01*
X127113480Y-107655693D01*
X126933156Y-107535205D01*
X126779795Y-107381844D01*
X126659307Y-107201520D01*
X126576311Y-107001149D01*
X126534000Y-106788440D01*
X126534000Y-106571560D01*
X126576311Y-106358851D01*
X126659307Y-106158480D01*
X126779795Y-105978156D01*
X126933156Y-105824795D01*
X127113480Y-105704307D01*
X127313850Y-105621311D01*
X127420206Y-105600155D01*
X127526560Y-105579000D01*
X127743440Y-105579000D01*
X127849795Y-105600156D01*
X127849795Y-105600156D01*
G37*
G36*
X126802001Y-100471001D02*
G01*
X125550001Y-100471001D01*
X125550001Y-99219001D01*
X126802001Y-99219001D01*
X126802001Y-100471001D01*
X126802001Y-100471001D01*
G37*
G36*
X141853598Y-99243057D02*
G01*
X141967522Y-99290246D01*
X141967523Y-99290247D01*
X142070053Y-99358755D01*
X142157247Y-99445949D01*
X142157248Y-99445951D01*
X142225756Y-99548480D01*
X142272945Y-99662404D01*
X142297001Y-99783344D01*
X142297001Y-99906658D01*
X142272945Y-100027598D01*
X142225756Y-100141522D01*
X142225755Y-100141523D01*
X142157247Y-100244053D01*
X142070053Y-100331247D01*
X142018439Y-100365734D01*
X141967522Y-100399756D01*
X141853598Y-100446945D01*
X141732658Y-100471001D01*
X141609344Y-100471001D01*
X141488404Y-100446945D01*
X141374480Y-100399756D01*
X141323563Y-100365734D01*
X141271949Y-100331247D01*
X141184755Y-100244053D01*
X141116247Y-100141523D01*
X141116246Y-100141522D01*
X141069057Y-100027598D01*
X141045001Y-99906658D01*
X141045001Y-99783344D01*
X141069057Y-99662404D01*
X141116246Y-99548480D01*
X141184754Y-99445951D01*
X141184755Y-99445949D01*
X141271949Y-99358755D01*
X141374479Y-99290247D01*
X141374480Y-99290246D01*
X141488404Y-99243057D01*
X141609344Y-99219001D01*
X141732658Y-99219001D01*
X141853598Y-99243057D01*
X141853598Y-99243057D01*
G37*
G36*
X126358598Y-96703057D02*
G01*
X126472522Y-96750246D01*
X126472523Y-96750247D01*
X126575053Y-96818755D01*
X126662247Y-96905949D01*
X126662248Y-96905951D01*
X126730756Y-97008480D01*
X126777945Y-97122404D01*
X126802001Y-97243344D01*
X126802001Y-97366658D01*
X126777945Y-97487598D01*
X126730756Y-97601522D01*
X126730755Y-97601523D01*
X126662247Y-97704053D01*
X126575053Y-97791247D01*
X126523439Y-97825734D01*
X126472522Y-97859756D01*
X126358598Y-97906945D01*
X126237658Y-97931001D01*
X126114344Y-97931001D01*
X125993404Y-97906945D01*
X125879480Y-97859756D01*
X125828563Y-97825734D01*
X125776949Y-97791247D01*
X125689755Y-97704053D01*
X125621247Y-97601523D01*
X125621246Y-97601522D01*
X125574057Y-97487598D01*
X125550001Y-97366658D01*
X125550001Y-97243344D01*
X125574057Y-97122404D01*
X125621246Y-97008480D01*
X125689754Y-96905951D01*
X125689755Y-96905949D01*
X125776949Y-96818755D01*
X125879479Y-96750247D01*
X125879480Y-96750246D01*
X125993404Y-96703057D01*
X126114344Y-96679001D01*
X126237658Y-96679001D01*
X126358598Y-96703057D01*
X126358598Y-96703057D01*
G37*
G36*
X141853598Y-96703057D02*
G01*
X141967522Y-96750246D01*
X141967523Y-96750247D01*
X142070053Y-96818755D01*
X142157247Y-96905949D01*
X142157248Y-96905951D01*
X142225756Y-97008480D01*
X142272945Y-97122404D01*
X142297001Y-97243344D01*
X142297001Y-97366658D01*
X142272945Y-97487598D01*
X142225756Y-97601522D01*
X142225755Y-97601523D01*
X142157247Y-97704053D01*
X142070053Y-97791247D01*
X142018439Y-97825734D01*
X141967522Y-97859756D01*
X141853598Y-97906945D01*
X141732658Y-97931001D01*
X141609344Y-97931001D01*
X141488404Y-97906945D01*
X141374480Y-97859756D01*
X141323563Y-97825734D01*
X141271949Y-97791247D01*
X141184755Y-97704053D01*
X141116247Y-97601523D01*
X141116246Y-97601522D01*
X141069057Y-97487598D01*
X141045001Y-97366658D01*
X141045001Y-97243344D01*
X141069057Y-97122404D01*
X141116246Y-97008480D01*
X141184754Y-96905951D01*
X141184755Y-96905949D01*
X141271949Y-96818755D01*
X141374479Y-96750247D01*
X141374480Y-96750246D01*
X141488404Y-96703057D01*
X141609344Y-96679001D01*
X141732658Y-96679001D01*
X141853598Y-96703057D01*
X141853598Y-96703057D01*
G37*
G36*
X141853598Y-94163057D02*
G01*
X141967522Y-94210246D01*
X141967523Y-94210247D01*
X142070053Y-94278755D01*
X142157247Y-94365949D01*
X142157248Y-94365951D01*
X142225756Y-94468480D01*
X142272945Y-94582404D01*
X142297001Y-94703344D01*
X142297001Y-94826658D01*
X142272945Y-94947598D01*
X142225756Y-95061522D01*
X142225755Y-95061523D01*
X142157247Y-95164053D01*
X142070053Y-95251247D01*
X142018439Y-95285734D01*
X141967522Y-95319756D01*
X141853598Y-95366945D01*
X141732658Y-95391001D01*
X141609344Y-95391001D01*
X141488404Y-95366945D01*
X141374480Y-95319756D01*
X141323563Y-95285734D01*
X141271949Y-95251247D01*
X141184755Y-95164053D01*
X141116247Y-95061523D01*
X141116246Y-95061522D01*
X141069057Y-94947598D01*
X141045001Y-94826658D01*
X141045001Y-94703344D01*
X141069057Y-94582404D01*
X141116246Y-94468480D01*
X141184754Y-94365951D01*
X141184755Y-94365949D01*
X141271949Y-94278755D01*
X141374479Y-94210247D01*
X141374480Y-94210246D01*
X141488404Y-94163057D01*
X141609344Y-94139001D01*
X141732658Y-94139001D01*
X141853598Y-94163057D01*
X141853598Y-94163057D01*
G37*
G36*
X126358598Y-94163057D02*
G01*
X126472522Y-94210246D01*
X126472523Y-94210247D01*
X126575053Y-94278755D01*
X126662247Y-94365949D01*
X126662248Y-94365951D01*
X126730756Y-94468480D01*
X126777945Y-94582404D01*
X126802001Y-94703344D01*
X126802001Y-94826658D01*
X126777945Y-94947598D01*
X126730756Y-95061522D01*
X126730755Y-95061523D01*
X126662247Y-95164053D01*
X126575053Y-95251247D01*
X126523439Y-95285734D01*
X126472522Y-95319756D01*
X126358598Y-95366945D01*
X126237658Y-95391001D01*
X126114344Y-95391001D01*
X125993404Y-95366945D01*
X125879480Y-95319756D01*
X125828563Y-95285734D01*
X125776949Y-95251247D01*
X125689755Y-95164053D01*
X125621247Y-95061523D01*
X125621246Y-95061522D01*
X125574057Y-94947598D01*
X125550001Y-94826658D01*
X125550001Y-94703344D01*
X125574057Y-94582404D01*
X125621246Y-94468480D01*
X125689754Y-94365951D01*
X125689755Y-94365949D01*
X125776949Y-94278755D01*
X125879479Y-94210247D01*
X125879480Y-94210246D01*
X125993404Y-94163057D01*
X126114344Y-94139001D01*
X126237658Y-94139001D01*
X126358598Y-94163057D01*
X126358598Y-94163057D01*
G37*
G36*
X126358598Y-91623057D02*
G01*
X126472522Y-91670246D01*
X126472523Y-91670247D01*
X126575053Y-91738755D01*
X126662247Y-91825949D01*
X126662248Y-91825951D01*
X126730756Y-91928480D01*
X126777945Y-92042404D01*
X126802001Y-92163344D01*
X126802001Y-92286658D01*
X126777945Y-92407598D01*
X126730756Y-92521522D01*
X126730755Y-92521523D01*
X126662247Y-92624053D01*
X126575053Y-92711247D01*
X126523439Y-92745734D01*
X126472522Y-92779756D01*
X126358598Y-92826945D01*
X126237658Y-92851001D01*
X126114344Y-92851001D01*
X125993404Y-92826945D01*
X125879480Y-92779756D01*
X125828563Y-92745734D01*
X125776949Y-92711247D01*
X125689755Y-92624053D01*
X125621247Y-92521523D01*
X125621246Y-92521522D01*
X125574057Y-92407598D01*
X125550001Y-92286658D01*
X125550001Y-92163344D01*
X125574057Y-92042404D01*
X125621246Y-91928480D01*
X125689754Y-91825951D01*
X125689755Y-91825949D01*
X125776949Y-91738755D01*
X125879479Y-91670247D01*
X125879480Y-91670246D01*
X125993404Y-91623057D01*
X126114344Y-91599001D01*
X126237658Y-91599001D01*
X126358598Y-91623057D01*
X126358598Y-91623057D01*
G37*
G36*
X141853598Y-91623057D02*
G01*
X141967522Y-91670246D01*
X141967523Y-91670247D01*
X142070053Y-91738755D01*
X142157247Y-91825949D01*
X142157248Y-91825951D01*
X142225756Y-91928480D01*
X142272945Y-92042404D01*
X142297001Y-92163344D01*
X142297001Y-92286658D01*
X142272945Y-92407598D01*
X142225756Y-92521522D01*
X142225755Y-92521523D01*
X142157247Y-92624053D01*
X142070053Y-92711247D01*
X142018439Y-92745734D01*
X141967522Y-92779756D01*
X141853598Y-92826945D01*
X141732658Y-92851001D01*
X141609344Y-92851001D01*
X141488404Y-92826945D01*
X141374480Y-92779756D01*
X141323563Y-92745734D01*
X141271949Y-92711247D01*
X141184755Y-92624053D01*
X141116247Y-92521523D01*
X141116246Y-92521522D01*
X141069057Y-92407598D01*
X141045001Y-92286658D01*
X141045001Y-92163344D01*
X141069057Y-92042404D01*
X141116246Y-91928480D01*
X141184754Y-91825951D01*
X141184755Y-91825949D01*
X141271949Y-91738755D01*
X141374479Y-91670247D01*
X141374480Y-91670246D01*
X141488404Y-91623057D01*
X141609344Y-91599001D01*
X141732658Y-91599001D01*
X141853598Y-91623057D01*
X141853598Y-91623057D01*
G37*
G36*
X141853598Y-89083057D02*
G01*
X141967522Y-89130246D01*
X141967523Y-89130247D01*
X142070053Y-89198755D01*
X142157247Y-89285949D01*
X142157248Y-89285951D01*
X142225756Y-89388480D01*
X142272945Y-89502404D01*
X142297001Y-89623344D01*
X142297001Y-89746658D01*
X142272945Y-89867598D01*
X142225756Y-89981522D01*
X142225755Y-89981523D01*
X142157247Y-90084053D01*
X142070053Y-90171247D01*
X142018439Y-90205734D01*
X141967522Y-90239756D01*
X141853598Y-90286945D01*
X141732658Y-90311001D01*
X141609344Y-90311001D01*
X141488404Y-90286945D01*
X141374480Y-90239756D01*
X141323563Y-90205734D01*
X141271949Y-90171247D01*
X141184755Y-90084053D01*
X141116247Y-89981523D01*
X141116246Y-89981522D01*
X141069057Y-89867598D01*
X141045001Y-89746658D01*
X141045001Y-89623344D01*
X141069057Y-89502404D01*
X141116246Y-89388480D01*
X141184754Y-89285951D01*
X141184755Y-89285949D01*
X141271949Y-89198755D01*
X141374479Y-89130247D01*
X141374480Y-89130246D01*
X141488404Y-89083057D01*
X141609344Y-89059001D01*
X141732658Y-89059001D01*
X141853598Y-89083057D01*
X141853598Y-89083057D01*
G37*
G36*
X126358598Y-89083057D02*
G01*
X126472522Y-89130246D01*
X126472523Y-89130247D01*
X126575053Y-89198755D01*
X126662247Y-89285949D01*
X126662248Y-89285951D01*
X126730756Y-89388480D01*
X126777945Y-89502404D01*
X126802001Y-89623344D01*
X126802001Y-89746658D01*
X126777945Y-89867598D01*
X126730756Y-89981522D01*
X126730755Y-89981523D01*
X126662247Y-90084053D01*
X126575053Y-90171247D01*
X126523439Y-90205734D01*
X126472522Y-90239756D01*
X126358598Y-90286945D01*
X126237658Y-90311001D01*
X126114344Y-90311001D01*
X125993404Y-90286945D01*
X125879480Y-90239756D01*
X125828563Y-90205734D01*
X125776949Y-90171247D01*
X125689755Y-90084053D01*
X125621247Y-89981523D01*
X125621246Y-89981522D01*
X125574057Y-89867598D01*
X125550001Y-89746658D01*
X125550001Y-89623344D01*
X125574057Y-89502404D01*
X125621246Y-89388480D01*
X125689754Y-89285951D01*
X125689755Y-89285949D01*
X125776949Y-89198755D01*
X125879479Y-89130247D01*
X125879480Y-89130246D01*
X125993404Y-89083057D01*
X126114344Y-89059001D01*
X126237658Y-89059001D01*
X126358598Y-89083057D01*
X126358598Y-89083057D01*
G37*
G36*
X141853598Y-86543057D02*
G01*
X141967522Y-86590246D01*
X141967523Y-86590247D01*
X142070053Y-86658755D01*
X142157247Y-86745949D01*
X142157248Y-86745951D01*
X142225756Y-86848480D01*
X142272945Y-86962404D01*
X142297001Y-87083344D01*
X142297001Y-87206658D01*
X142272945Y-87327598D01*
X142225756Y-87441522D01*
X142225755Y-87441523D01*
X142157247Y-87544053D01*
X142070053Y-87631247D01*
X142018439Y-87665734D01*
X141967522Y-87699756D01*
X141853598Y-87746945D01*
X141732658Y-87771001D01*
X141609344Y-87771001D01*
X141488404Y-87746945D01*
X141374480Y-87699756D01*
X141323563Y-87665734D01*
X141271949Y-87631247D01*
X141184755Y-87544053D01*
X141116247Y-87441523D01*
X141116246Y-87441522D01*
X141069057Y-87327598D01*
X141045001Y-87206658D01*
X141045001Y-87083344D01*
X141069057Y-86962404D01*
X141116246Y-86848480D01*
X141184754Y-86745951D01*
X141184755Y-86745949D01*
X141271949Y-86658755D01*
X141374479Y-86590247D01*
X141374480Y-86590246D01*
X141488404Y-86543057D01*
X141609344Y-86519001D01*
X141732658Y-86519001D01*
X141853598Y-86543057D01*
X141853598Y-86543057D01*
G37*
G36*
X126358598Y-86543057D02*
G01*
X126472522Y-86590246D01*
X126472523Y-86590247D01*
X126575053Y-86658755D01*
X126662247Y-86745949D01*
X126662248Y-86745951D01*
X126730756Y-86848480D01*
X126777945Y-86962404D01*
X126802001Y-87083344D01*
X126802001Y-87206658D01*
X126777945Y-87327598D01*
X126730756Y-87441522D01*
X126730755Y-87441523D01*
X126662247Y-87544053D01*
X126575053Y-87631247D01*
X126523439Y-87665734D01*
X126472522Y-87699756D01*
X126358598Y-87746945D01*
X126237658Y-87771001D01*
X126114344Y-87771001D01*
X125993404Y-87746945D01*
X125879480Y-87699756D01*
X125828563Y-87665734D01*
X125776949Y-87631247D01*
X125689755Y-87544053D01*
X125621247Y-87441523D01*
X125621246Y-87441522D01*
X125574057Y-87327598D01*
X125550001Y-87206658D01*
X125550001Y-87083344D01*
X125574057Y-86962404D01*
X125621246Y-86848480D01*
X125689754Y-86745951D01*
X125689755Y-86745949D01*
X125776949Y-86658755D01*
X125879479Y-86590247D01*
X125879480Y-86590246D01*
X125993404Y-86543057D01*
X126114344Y-86519001D01*
X126237658Y-86519001D01*
X126358598Y-86543057D01*
X126358598Y-86543057D01*
G37*
G36*
X141853598Y-84003057D02*
G01*
X141967522Y-84050246D01*
X141967523Y-84050247D01*
X142070053Y-84118755D01*
X142157247Y-84205949D01*
X142157248Y-84205951D01*
X142225756Y-84308480D01*
X142272945Y-84422404D01*
X142297001Y-84543344D01*
X142297001Y-84666658D01*
X142272945Y-84787598D01*
X142225756Y-84901522D01*
X142225755Y-84901523D01*
X142157247Y-85004053D01*
X142070053Y-85091247D01*
X142018439Y-85125734D01*
X141967522Y-85159756D01*
X141853598Y-85206945D01*
X141732658Y-85231001D01*
X141609344Y-85231001D01*
X141488404Y-85206945D01*
X141374480Y-85159756D01*
X141323563Y-85125734D01*
X141271949Y-85091247D01*
X141184755Y-85004053D01*
X141116247Y-84901523D01*
X141116246Y-84901522D01*
X141069057Y-84787598D01*
X141045001Y-84666658D01*
X141045001Y-84543344D01*
X141069057Y-84422404D01*
X141116246Y-84308480D01*
X141184754Y-84205951D01*
X141184755Y-84205949D01*
X141271949Y-84118755D01*
X141374479Y-84050247D01*
X141374480Y-84050246D01*
X141488404Y-84003057D01*
X141609344Y-83979001D01*
X141732658Y-83979001D01*
X141853598Y-84003057D01*
X141853598Y-84003057D01*
G37*
G36*
X126358598Y-84003057D02*
G01*
X126472522Y-84050246D01*
X126472523Y-84050247D01*
X126575053Y-84118755D01*
X126662247Y-84205949D01*
X126662248Y-84205951D01*
X126730756Y-84308480D01*
X126777945Y-84422404D01*
X126802001Y-84543344D01*
X126802001Y-84666658D01*
X126777945Y-84787598D01*
X126730756Y-84901522D01*
X126730755Y-84901523D01*
X126662247Y-85004053D01*
X126575053Y-85091247D01*
X126523439Y-85125734D01*
X126472522Y-85159756D01*
X126358598Y-85206945D01*
X126237658Y-85231001D01*
X126114344Y-85231001D01*
X125993404Y-85206945D01*
X125879480Y-85159756D01*
X125828563Y-85125734D01*
X125776949Y-85091247D01*
X125689755Y-85004053D01*
X125621247Y-84901523D01*
X125621246Y-84901522D01*
X125574057Y-84787598D01*
X125550001Y-84666658D01*
X125550001Y-84543344D01*
X125574057Y-84422404D01*
X125621246Y-84308480D01*
X125689754Y-84205951D01*
X125689755Y-84205949D01*
X125776949Y-84118755D01*
X125879479Y-84050247D01*
X125879480Y-84050246D01*
X125993404Y-84003057D01*
X126114344Y-83979001D01*
X126237658Y-83979001D01*
X126358598Y-84003057D01*
X126358598Y-84003057D01*
G37*
G36*
X141853598Y-81463057D02*
G01*
X141967522Y-81510246D01*
X141967523Y-81510247D01*
X142070053Y-81578755D01*
X142157247Y-81665949D01*
X142157248Y-81665951D01*
X142225756Y-81768480D01*
X142272945Y-81882404D01*
X142297001Y-82003344D01*
X142297001Y-82126658D01*
X142272945Y-82247598D01*
X142225756Y-82361522D01*
X142225755Y-82361523D01*
X142157247Y-82464053D01*
X142070053Y-82551247D01*
X142018439Y-82585734D01*
X141967522Y-82619756D01*
X141853598Y-82666945D01*
X141732658Y-82691001D01*
X141609344Y-82691001D01*
X141488404Y-82666945D01*
X141374480Y-82619756D01*
X141323563Y-82585734D01*
X141271949Y-82551247D01*
X141184755Y-82464053D01*
X141116247Y-82361523D01*
X141116246Y-82361522D01*
X141069057Y-82247598D01*
X141045001Y-82126658D01*
X141045001Y-82003344D01*
X141069057Y-81882404D01*
X141116246Y-81768480D01*
X141184754Y-81665951D01*
X141184755Y-81665949D01*
X141271949Y-81578755D01*
X141374479Y-81510247D01*
X141374480Y-81510246D01*
X141488404Y-81463057D01*
X141609344Y-81439001D01*
X141732658Y-81439001D01*
X141853598Y-81463057D01*
X141853598Y-81463057D01*
G37*
G36*
X126358598Y-81463057D02*
G01*
X126472522Y-81510246D01*
X126472523Y-81510247D01*
X126575053Y-81578755D01*
X126662247Y-81665949D01*
X126662248Y-81665951D01*
X126730756Y-81768480D01*
X126777945Y-81882404D01*
X126802001Y-82003344D01*
X126802001Y-82126658D01*
X126777945Y-82247598D01*
X126730756Y-82361522D01*
X126730755Y-82361523D01*
X126662247Y-82464053D01*
X126575053Y-82551247D01*
X126523439Y-82585734D01*
X126472522Y-82619756D01*
X126358598Y-82666945D01*
X126237658Y-82691001D01*
X126114344Y-82691001D01*
X125993404Y-82666945D01*
X125879480Y-82619756D01*
X125828563Y-82585734D01*
X125776949Y-82551247D01*
X125689755Y-82464053D01*
X125621247Y-82361523D01*
X125621246Y-82361522D01*
X125574057Y-82247598D01*
X125550001Y-82126658D01*
X125550001Y-82003344D01*
X125574057Y-81882404D01*
X125621246Y-81768480D01*
X125689754Y-81665951D01*
X125689755Y-81665949D01*
X125776949Y-81578755D01*
X125879479Y-81510247D01*
X125879480Y-81510246D01*
X125993404Y-81463057D01*
X126114344Y-81439001D01*
X126237658Y-81439001D01*
X126358598Y-81463057D01*
X126358598Y-81463057D01*
G37*
G36*
X141853598Y-78923057D02*
G01*
X141967522Y-78970246D01*
X141967523Y-78970247D01*
X142070053Y-79038755D01*
X142157247Y-79125949D01*
X142157248Y-79125951D01*
X142225756Y-79228480D01*
X142272945Y-79342404D01*
X142297001Y-79463344D01*
X142297001Y-79586658D01*
X142272945Y-79707598D01*
X142225756Y-79821522D01*
X142225755Y-79821523D01*
X142157247Y-79924053D01*
X142070053Y-80011247D01*
X142018439Y-80045734D01*
X141967522Y-80079756D01*
X141853598Y-80126945D01*
X141732658Y-80151001D01*
X141609344Y-80151001D01*
X141488404Y-80126945D01*
X141374480Y-80079756D01*
X141323563Y-80045734D01*
X141271949Y-80011247D01*
X141184755Y-79924053D01*
X141116247Y-79821523D01*
X141116246Y-79821522D01*
X141069057Y-79707598D01*
X141045001Y-79586658D01*
X141045001Y-79463344D01*
X141069057Y-79342404D01*
X141116246Y-79228480D01*
X141184754Y-79125951D01*
X141184755Y-79125949D01*
X141271949Y-79038755D01*
X141374479Y-78970247D01*
X141374480Y-78970246D01*
X141488404Y-78923057D01*
X141609344Y-78899001D01*
X141732658Y-78899001D01*
X141853598Y-78923057D01*
X141853598Y-78923057D01*
G37*
G36*
X126358598Y-78923057D02*
G01*
X126472522Y-78970246D01*
X126472523Y-78970247D01*
X126575053Y-79038755D01*
X126662247Y-79125949D01*
X126662248Y-79125951D01*
X126730756Y-79228480D01*
X126777945Y-79342404D01*
X126802001Y-79463344D01*
X126802001Y-79586658D01*
X126777945Y-79707598D01*
X126730756Y-79821522D01*
X126730755Y-79821523D01*
X126662247Y-79924053D01*
X126575053Y-80011247D01*
X126523439Y-80045734D01*
X126472522Y-80079756D01*
X126358598Y-80126945D01*
X126237658Y-80151001D01*
X126114344Y-80151001D01*
X125993404Y-80126945D01*
X125879480Y-80079756D01*
X125828563Y-80045734D01*
X125776949Y-80011247D01*
X125689755Y-79924053D01*
X125621247Y-79821523D01*
X125621246Y-79821522D01*
X125574057Y-79707598D01*
X125550001Y-79586658D01*
X125550001Y-79463344D01*
X125574057Y-79342404D01*
X125621246Y-79228480D01*
X125689754Y-79125951D01*
X125689755Y-79125949D01*
X125776949Y-79038755D01*
X125879479Y-78970247D01*
X125879480Y-78970246D01*
X125993404Y-78923057D01*
X126114344Y-78899001D01*
X126237658Y-78899001D01*
X126358598Y-78923057D01*
X126358598Y-78923057D01*
G37*
G36*
X141853598Y-76383057D02*
G01*
X141967522Y-76430246D01*
X141967523Y-76430247D01*
X142070053Y-76498755D01*
X142157247Y-76585949D01*
X142157248Y-76585951D01*
X142225756Y-76688480D01*
X142272945Y-76802404D01*
X142297001Y-76923344D01*
X142297001Y-77046658D01*
X142272945Y-77167598D01*
X142225756Y-77281522D01*
X142225755Y-77281523D01*
X142157247Y-77384053D01*
X142070053Y-77471247D01*
X142018439Y-77505734D01*
X141967522Y-77539756D01*
X141853598Y-77586945D01*
X141732658Y-77611001D01*
X141609344Y-77611001D01*
X141488404Y-77586945D01*
X141374480Y-77539756D01*
X141323563Y-77505734D01*
X141271949Y-77471247D01*
X141184755Y-77384053D01*
X141116247Y-77281523D01*
X141116246Y-77281522D01*
X141069057Y-77167598D01*
X141045001Y-77046658D01*
X141045001Y-76923344D01*
X141069057Y-76802404D01*
X141116246Y-76688480D01*
X141184754Y-76585951D01*
X141184755Y-76585949D01*
X141271949Y-76498755D01*
X141374479Y-76430247D01*
X141374480Y-76430246D01*
X141488404Y-76383057D01*
X141609344Y-76359001D01*
X141732658Y-76359001D01*
X141853598Y-76383057D01*
X141853598Y-76383057D01*
G37*
G36*
X126358598Y-76383057D02*
G01*
X126472522Y-76430246D01*
X126472523Y-76430247D01*
X126575053Y-76498755D01*
X126662247Y-76585949D01*
X126662248Y-76585951D01*
X126730756Y-76688480D01*
X126777945Y-76802404D01*
X126802001Y-76923344D01*
X126802001Y-77046658D01*
X126777945Y-77167598D01*
X126730756Y-77281522D01*
X126730755Y-77281523D01*
X126662247Y-77384053D01*
X126575053Y-77471247D01*
X126523439Y-77505734D01*
X126472522Y-77539756D01*
X126358598Y-77586945D01*
X126237658Y-77611001D01*
X126114344Y-77611001D01*
X125993404Y-77586945D01*
X125879480Y-77539756D01*
X125828563Y-77505734D01*
X125776949Y-77471247D01*
X125689755Y-77384053D01*
X125621247Y-77281523D01*
X125621246Y-77281522D01*
X125574057Y-77167598D01*
X125550001Y-77046658D01*
X125550001Y-76923344D01*
X125574057Y-76802404D01*
X125621246Y-76688480D01*
X125689754Y-76585951D01*
X125689755Y-76585949D01*
X125776949Y-76498755D01*
X125879479Y-76430247D01*
X125879480Y-76430246D01*
X125993404Y-76383057D01*
X126114344Y-76359001D01*
X126237658Y-76359001D01*
X126358598Y-76383057D01*
X126358598Y-76383057D01*
G37*
G36*
X141853598Y-73843057D02*
G01*
X141967522Y-73890246D01*
X141967523Y-73890247D01*
X142070053Y-73958755D01*
X142157247Y-74045949D01*
X142157248Y-74045951D01*
X142225756Y-74148480D01*
X142272945Y-74262404D01*
X142297001Y-74383344D01*
X142297001Y-74506658D01*
X142272945Y-74627598D01*
X142225756Y-74741522D01*
X142225755Y-74741523D01*
X142157247Y-74844053D01*
X142070053Y-74931247D01*
X142018439Y-74965734D01*
X141967522Y-74999756D01*
X141853598Y-75046945D01*
X141732658Y-75071001D01*
X141609344Y-75071001D01*
X141488404Y-75046945D01*
X141374480Y-74999756D01*
X141323563Y-74965734D01*
X141271949Y-74931247D01*
X141184755Y-74844053D01*
X141116247Y-74741523D01*
X141116246Y-74741522D01*
X141069057Y-74627598D01*
X141045001Y-74506658D01*
X141045001Y-74383344D01*
X141069057Y-74262404D01*
X141116246Y-74148480D01*
X141184754Y-74045951D01*
X141184755Y-74045949D01*
X141271949Y-73958755D01*
X141374479Y-73890247D01*
X141374480Y-73890246D01*
X141488404Y-73843057D01*
X141609344Y-73819001D01*
X141732658Y-73819001D01*
X141853598Y-73843057D01*
X141853598Y-73843057D01*
G37*
G36*
X126358598Y-73843057D02*
G01*
X126472522Y-73890246D01*
X126472523Y-73890247D01*
X126575053Y-73958755D01*
X126662247Y-74045949D01*
X126662248Y-74045951D01*
X126730756Y-74148480D01*
X126777945Y-74262404D01*
X126802001Y-74383344D01*
X126802001Y-74506658D01*
X126777945Y-74627598D01*
X126730756Y-74741522D01*
X126730755Y-74741523D01*
X126662247Y-74844053D01*
X126575053Y-74931247D01*
X126523439Y-74965734D01*
X126472522Y-74999756D01*
X126358598Y-75046945D01*
X126237658Y-75071001D01*
X126114344Y-75071001D01*
X125993404Y-75046945D01*
X125879480Y-74999756D01*
X125828563Y-74965734D01*
X125776949Y-74931247D01*
X125689755Y-74844053D01*
X125621247Y-74741523D01*
X125621246Y-74741522D01*
X125574057Y-74627598D01*
X125550001Y-74506658D01*
X125550001Y-74383344D01*
X125574057Y-74262404D01*
X125621246Y-74148480D01*
X125689754Y-74045951D01*
X125689755Y-74045949D01*
X125776949Y-73958755D01*
X125879479Y-73890247D01*
X125879480Y-73890246D01*
X125993404Y-73843057D01*
X126114344Y-73819001D01*
X126237658Y-73819001D01*
X126358598Y-73843057D01*
X126358598Y-73843057D01*
G37*
G36*
X141853598Y-71303057D02*
G01*
X141967522Y-71350246D01*
X141967523Y-71350247D01*
X142070053Y-71418755D01*
X142157247Y-71505949D01*
X142157248Y-71505951D01*
X142225756Y-71608480D01*
X142272945Y-71722404D01*
X142297001Y-71843344D01*
X142297001Y-71966658D01*
X142272945Y-72087598D01*
X142225756Y-72201522D01*
X142225755Y-72201523D01*
X142157247Y-72304053D01*
X142070053Y-72391247D01*
X142018439Y-72425734D01*
X141967522Y-72459756D01*
X141853598Y-72506945D01*
X141732658Y-72531001D01*
X141609344Y-72531001D01*
X141488404Y-72506945D01*
X141374480Y-72459756D01*
X141323563Y-72425734D01*
X141271949Y-72391247D01*
X141184755Y-72304053D01*
X141116247Y-72201523D01*
X141116246Y-72201522D01*
X141069057Y-72087598D01*
X141045001Y-71966658D01*
X141045001Y-71843344D01*
X141069057Y-71722404D01*
X141116246Y-71608480D01*
X141184754Y-71505951D01*
X141184755Y-71505949D01*
X141271949Y-71418755D01*
X141374479Y-71350247D01*
X141374480Y-71350246D01*
X141488404Y-71303057D01*
X141609344Y-71279001D01*
X141732658Y-71279001D01*
X141853598Y-71303057D01*
X141853598Y-71303057D01*
G37*
G36*
X126358598Y-71303057D02*
G01*
X126472522Y-71350246D01*
X126472523Y-71350247D01*
X126575053Y-71418755D01*
X126662247Y-71505949D01*
X126662248Y-71505951D01*
X126730756Y-71608480D01*
X126777945Y-71722404D01*
X126802001Y-71843344D01*
X126802001Y-71966658D01*
X126777945Y-72087598D01*
X126730756Y-72201522D01*
X126730755Y-72201523D01*
X126662247Y-72304053D01*
X126575053Y-72391247D01*
X126523439Y-72425734D01*
X126472522Y-72459756D01*
X126358598Y-72506945D01*
X126237658Y-72531001D01*
X126114344Y-72531001D01*
X125993404Y-72506945D01*
X125879480Y-72459756D01*
X125828563Y-72425734D01*
X125776949Y-72391247D01*
X125689755Y-72304053D01*
X125621247Y-72201523D01*
X125621246Y-72201522D01*
X125574057Y-72087598D01*
X125550001Y-71966658D01*
X125550001Y-71843344D01*
X125574057Y-71722404D01*
X125621246Y-71608480D01*
X125689754Y-71505951D01*
X125689755Y-71505949D01*
X125776949Y-71418755D01*
X125879479Y-71350247D01*
X125879480Y-71350246D01*
X125993404Y-71303057D01*
X126114344Y-71279001D01*
X126237658Y-71279001D01*
X126358598Y-71303057D01*
X126358598Y-71303057D01*
G37*
G36*
X139914795Y-64325156D02*
G01*
X140021150Y-64346311D01*
X140221520Y-64429307D01*
X140401844Y-64549795D01*
X140555205Y-64703156D01*
X140675693Y-64883480D01*
X140758689Y-65083851D01*
X140801000Y-65296560D01*
X140801000Y-65513440D01*
X140758689Y-65726149D01*
X140675693Y-65926520D01*
X140555205Y-66106844D01*
X140401844Y-66260205D01*
X140221520Y-66380693D01*
X140121334Y-66422191D01*
X140021150Y-66463689D01*
X139914794Y-66484845D01*
X139808440Y-66506000D01*
X139591560Y-66506000D01*
X139485206Y-66484845D01*
X139378850Y-66463689D01*
X139178480Y-66380693D01*
X138998156Y-66260205D01*
X138844795Y-66106844D01*
X138724307Y-65926520D01*
X138641311Y-65726149D01*
X138599000Y-65513440D01*
X138599000Y-65296560D01*
X138641311Y-65083851D01*
X138724307Y-64883480D01*
X138844795Y-64703156D01*
X138998156Y-64549795D01*
X139178480Y-64429307D01*
X139378850Y-64346311D01*
X139485205Y-64325156D01*
X139591560Y-64304000D01*
X139808440Y-64304000D01*
X139914795Y-64325156D01*
X139914795Y-64325156D01*
G37*
G36*
X127849795Y-64325156D02*
G01*
X127956150Y-64346311D01*
X128156520Y-64429307D01*
X128336844Y-64549795D01*
X128490205Y-64703156D01*
X128610693Y-64883480D01*
X128693689Y-65083851D01*
X128736000Y-65296560D01*
X128736000Y-65513440D01*
X128693689Y-65726149D01*
X128610693Y-65926520D01*
X128490205Y-66106844D01*
X128336844Y-66260205D01*
X128156520Y-66380693D01*
X128056334Y-66422191D01*
X127956150Y-66463689D01*
X127849794Y-66484845D01*
X127743440Y-66506000D01*
X127526560Y-66506000D01*
X127420206Y-66484845D01*
X127313850Y-66463689D01*
X127113480Y-66380693D01*
X126933156Y-66260205D01*
X126779795Y-66106844D01*
X126659307Y-65926520D01*
X126576311Y-65726149D01*
X126534000Y-65513440D01*
X126534000Y-65296560D01*
X126576311Y-65083851D01*
X126659307Y-64883480D01*
X126779795Y-64703156D01*
X126933156Y-64549795D01*
X127113480Y-64429307D01*
X127313850Y-64346311D01*
X127420205Y-64325156D01*
X127526560Y-64304000D01*
X127743440Y-64304000D01*
X127849795Y-64325156D01*
X127849795Y-64325156D01*
G37*
G36*
X139914795Y-59245156D02*
G01*
X140021150Y-59266311D01*
X140221520Y-59349307D01*
X140401844Y-59469795D01*
X140555205Y-59623156D01*
X140675693Y-59803480D01*
X140758689Y-60003851D01*
X140801000Y-60216560D01*
X140801000Y-60433440D01*
X140758689Y-60646149D01*
X140675693Y-60846520D01*
X140555205Y-61026844D01*
X140401844Y-61180205D01*
X140221520Y-61300693D01*
X140021150Y-61383689D01*
X139914795Y-61404844D01*
X139808440Y-61426000D01*
X139591560Y-61426000D01*
X139485205Y-61404844D01*
X139378850Y-61383689D01*
X139278666Y-61342191D01*
X139178480Y-61300693D01*
X138998156Y-61180205D01*
X138844795Y-61026844D01*
X138724307Y-60846520D01*
X138641311Y-60646149D01*
X138599000Y-60433440D01*
X138599000Y-60216560D01*
X138641311Y-60003851D01*
X138724307Y-59803480D01*
X138844795Y-59623156D01*
X138998156Y-59469795D01*
X139178480Y-59349307D01*
X139278666Y-59307809D01*
X139378850Y-59266311D01*
X139485205Y-59245156D01*
X139591560Y-59224000D01*
X139808440Y-59224000D01*
X139914795Y-59245156D01*
X139914795Y-59245156D01*
G37*
G36*
X127849795Y-59245156D02*
G01*
X127956150Y-59266311D01*
X128156520Y-59349307D01*
X128336844Y-59469795D01*
X128490205Y-59623156D01*
X128610693Y-59803480D01*
X128693689Y-60003851D01*
X128736000Y-60216560D01*
X128736000Y-60433440D01*
X128693689Y-60646149D01*
X128610693Y-60846520D01*
X128490205Y-61026844D01*
X128336844Y-61180205D01*
X128156520Y-61300693D01*
X127956150Y-61383689D01*
X127849795Y-61404844D01*
X127743440Y-61426000D01*
X127526560Y-61426000D01*
X127420205Y-61404844D01*
X127313850Y-61383689D01*
X127213666Y-61342191D01*
X127113480Y-61300693D01*
X126933156Y-61180205D01*
X126779795Y-61026844D01*
X126659307Y-60846520D01*
X126576311Y-60646149D01*
X126534000Y-60433440D01*
X126534000Y-60216560D01*
X126576311Y-60003851D01*
X126659307Y-59803480D01*
X126779795Y-59623156D01*
X126933156Y-59469795D01*
X127113480Y-59349307D01*
X127213666Y-59307809D01*
X127313850Y-59266311D01*
X127420205Y-59245156D01*
X127526560Y-59224000D01*
X127743440Y-59224000D01*
X127849795Y-59245156D01*
X127849795Y-59245156D01*
G37*
M02*
