G04 #@! TF.GenerationSoftware,KiCad,Pcbnew,5.1.4-e60b266~84~ubuntu18.04.1*
G04 #@! TF.CreationDate,2019-10-08T20:02:31-04:00*
G04 #@! TF.ProjectId,TSAL-driver,5453414c-2d64-4726-9976-65722e6b6963,rev?*
G04 #@! TF.SameCoordinates,Original*
G04 #@! TF.FileFunction,Legend,Top*
G04 #@! TF.FilePolarity,Positive*
%FSLAX46Y46*%
G04 Gerber Fmt 4.6, Leading zero omitted, Abs format (unit mm)*
G04 Created by KiCad (PCBNEW 5.1.4-e60b266~84~ubuntu18.04.1) date 2019-10-08 20:02:31*
%MOMM*%
%LPD*%
G04 APERTURE LIST*
%ADD10C,0.203200*%
%ADD11C,0.152400*%
%ADD12C,0.010000*%
%ADD13C,0.120000*%
%ADD14C,0.127000*%
%ADD15C,0.150000*%
%ADD16C,0.050000*%
%ADD17C,0.254000*%
G04 APERTURE END LIST*
D10*
X134229626Y-81522872D02*
X134229626Y-80724586D01*
X135626626Y-81123729D02*
X134229626Y-81123729D01*
X135560102Y-80325443D02*
X135626626Y-80125872D01*
X135626626Y-79793253D01*
X135560102Y-79660205D01*
X135493578Y-79593681D01*
X135360530Y-79527158D01*
X135227483Y-79527158D01*
X135094435Y-79593681D01*
X135027911Y-79660205D01*
X134961388Y-79793253D01*
X134894864Y-80059348D01*
X134828340Y-80192396D01*
X134761816Y-80258920D01*
X134628769Y-80325443D01*
X134495721Y-80325443D01*
X134362673Y-80258920D01*
X134296150Y-80192396D01*
X134229626Y-80059348D01*
X134229626Y-79726729D01*
X134296150Y-79527158D01*
X135227483Y-78994967D02*
X135227483Y-78329729D01*
X135626626Y-79128015D02*
X134229626Y-78662348D01*
X135626626Y-78196681D01*
X135626626Y-77065777D02*
X135626626Y-77731015D01*
X134229626Y-77731015D01*
X135094435Y-76600110D02*
X135094435Y-75535729D01*
X135626626Y-74271777D02*
X134229626Y-74271777D01*
X135560102Y-74271777D02*
X135626626Y-74404824D01*
X135626626Y-74670920D01*
X135560102Y-74803967D01*
X135493578Y-74870491D01*
X135360530Y-74937015D01*
X134961388Y-74937015D01*
X134828340Y-74870491D01*
X134761816Y-74803967D01*
X134695292Y-74670920D01*
X134695292Y-74404824D01*
X134761816Y-74271777D01*
X135626626Y-73606539D02*
X134695292Y-73606539D01*
X134961388Y-73606539D02*
X134828340Y-73540015D01*
X134761816Y-73473491D01*
X134695292Y-73340443D01*
X134695292Y-73207396D01*
X135626626Y-72741729D02*
X134695292Y-72741729D01*
X134229626Y-72741729D02*
X134296150Y-72808253D01*
X134362673Y-72741729D01*
X134296150Y-72675205D01*
X134229626Y-72741729D01*
X134362673Y-72741729D01*
X134695292Y-72209539D02*
X135626626Y-71876920D01*
X134695292Y-71544300D01*
X135560102Y-70479920D02*
X135626626Y-70612967D01*
X135626626Y-70879062D01*
X135560102Y-71012110D01*
X135427054Y-71078634D01*
X134894864Y-71078634D01*
X134761816Y-71012110D01*
X134695292Y-70879062D01*
X134695292Y-70612967D01*
X134761816Y-70479920D01*
X134894864Y-70413396D01*
X135027911Y-70413396D01*
X135160959Y-71078634D01*
X135626626Y-69814681D02*
X134695292Y-69814681D01*
X134961388Y-69814681D02*
X134828340Y-69748158D01*
X134761816Y-69681634D01*
X134695292Y-69548586D01*
X134695292Y-69415539D01*
X137925326Y-80591539D02*
X137925326Y-81389824D01*
X137925326Y-80990681D02*
X136528326Y-80990681D01*
X136727897Y-81123729D01*
X136860945Y-81256777D01*
X136927469Y-81389824D01*
X137925326Y-79926300D02*
X137925326Y-79660205D01*
X137858802Y-79527158D01*
X137792278Y-79460634D01*
X137592707Y-79327586D01*
X137326611Y-79261062D01*
X136794421Y-79261062D01*
X136661373Y-79327586D01*
X136594850Y-79394110D01*
X136528326Y-79527158D01*
X136528326Y-79793253D01*
X136594850Y-79926300D01*
X136661373Y-79992824D01*
X136794421Y-80059348D01*
X137127040Y-80059348D01*
X137260088Y-79992824D01*
X137326611Y-79926300D01*
X137393135Y-79793253D01*
X137393135Y-79527158D01*
X137326611Y-79394110D01*
X137260088Y-79327586D01*
X137127040Y-79261062D01*
X137792278Y-78662348D02*
X137858802Y-78595824D01*
X137925326Y-78662348D01*
X137858802Y-78728872D01*
X137792278Y-78662348D01*
X137925326Y-78662348D01*
X136661373Y-78063634D02*
X136594850Y-77997110D01*
X136528326Y-77864062D01*
X136528326Y-77531443D01*
X136594850Y-77398396D01*
X136661373Y-77331872D01*
X136794421Y-77265348D01*
X136927469Y-77265348D01*
X137127040Y-77331872D01*
X137925326Y-78130158D01*
X137925326Y-77265348D01*
X137127040Y-76467062D02*
X137060516Y-76600110D01*
X136993992Y-76666634D01*
X136860945Y-76733158D01*
X136794421Y-76733158D01*
X136661373Y-76666634D01*
X136594850Y-76600110D01*
X136528326Y-76467062D01*
X136528326Y-76200967D01*
X136594850Y-76067920D01*
X136661373Y-76001396D01*
X136794421Y-75934872D01*
X136860945Y-75934872D01*
X136993992Y-76001396D01*
X137060516Y-76067920D01*
X137127040Y-76200967D01*
X137127040Y-76467062D01*
X137193564Y-76600110D01*
X137260088Y-76666634D01*
X137393135Y-76733158D01*
X137659230Y-76733158D01*
X137792278Y-76666634D01*
X137858802Y-76600110D01*
X137925326Y-76467062D01*
X137925326Y-76200967D01*
X137858802Y-76067920D01*
X137792278Y-76001396D01*
X137659230Y-75934872D01*
X137393135Y-75934872D01*
X137260088Y-76001396D01*
X137193564Y-76067920D01*
X137127040Y-76200967D01*
X137925326Y-74604396D02*
X137925326Y-75402681D01*
X137925326Y-75003539D02*
X136528326Y-75003539D01*
X136727897Y-75136586D01*
X136860945Y-75269634D01*
X136927469Y-75402681D01*
D11*
X139143619Y-90544952D02*
X140159619Y-90303047D01*
X139433904Y-90109523D01*
X140159619Y-89916000D01*
X139143619Y-89674095D01*
X140062857Y-89287047D02*
X140111238Y-89238666D01*
X140159619Y-89287047D01*
X140111238Y-89335428D01*
X140062857Y-89287047D01*
X140159619Y-89287047D01*
X140159619Y-88029142D02*
X139143619Y-88029142D01*
X139627428Y-88029142D02*
X139627428Y-87448571D01*
X140159619Y-87448571D02*
X139143619Y-87448571D01*
X140159619Y-86964761D02*
X139482285Y-86964761D01*
X139143619Y-86964761D02*
X139192000Y-87013142D01*
X139240380Y-86964761D01*
X139192000Y-86916380D01*
X139143619Y-86964761D01*
X139240380Y-86964761D01*
X140159619Y-86335809D02*
X140111238Y-86432571D01*
X140014476Y-86480952D01*
X139143619Y-86480952D01*
X140159619Y-85803619D02*
X140111238Y-85900380D01*
X140014476Y-85948761D01*
X139143619Y-85948761D01*
X140159619Y-85416571D02*
X139482285Y-85416571D01*
X139143619Y-85416571D02*
X139192000Y-85464952D01*
X139240380Y-85416571D01*
X139192000Y-85368190D01*
X139143619Y-85416571D01*
X139240380Y-85416571D01*
X140111238Y-84545714D02*
X140159619Y-84642476D01*
X140159619Y-84836000D01*
X140111238Y-84932761D01*
X140014476Y-84981142D01*
X139627428Y-84981142D01*
X139530666Y-84932761D01*
X139482285Y-84836000D01*
X139482285Y-84642476D01*
X139530666Y-84545714D01*
X139627428Y-84497333D01*
X139724190Y-84497333D01*
X139820952Y-84981142D01*
X140159619Y-84061904D02*
X139482285Y-84061904D01*
X139675809Y-84061904D02*
X139579047Y-84013523D01*
X139530666Y-83965142D01*
X139482285Y-83868380D01*
X139482285Y-83771619D01*
X140159619Y-82658857D02*
X139143619Y-82658857D01*
X139143619Y-82416952D01*
X139192000Y-82271809D01*
X139288761Y-82175047D01*
X139385523Y-82126666D01*
X139579047Y-82078285D01*
X139724190Y-82078285D01*
X139917714Y-82126666D01*
X140014476Y-82175047D01*
X140111238Y-82271809D01*
X140159619Y-82416952D01*
X140159619Y-82658857D01*
X140062857Y-81642857D02*
X140111238Y-81594476D01*
X140159619Y-81642857D01*
X140111238Y-81691238D01*
X140062857Y-81642857D01*
X140159619Y-81642857D01*
X140159619Y-80384952D02*
X139143619Y-80384952D01*
X139869333Y-80046285D01*
X139143619Y-79707619D01*
X140159619Y-79707619D01*
X140159619Y-79078666D02*
X140111238Y-79175428D01*
X140062857Y-79223809D01*
X139966095Y-79272190D01*
X139675809Y-79272190D01*
X139579047Y-79223809D01*
X139530666Y-79175428D01*
X139482285Y-79078666D01*
X139482285Y-78933523D01*
X139530666Y-78836761D01*
X139579047Y-78788380D01*
X139675809Y-78740000D01*
X139966095Y-78740000D01*
X140062857Y-78788380D01*
X140111238Y-78836761D01*
X140159619Y-78933523D01*
X140159619Y-79078666D01*
X140159619Y-78304571D02*
X139482285Y-78304571D01*
X139675809Y-78304571D02*
X139579047Y-78256190D01*
X139530666Y-78207809D01*
X139482285Y-78111047D01*
X139482285Y-78014285D01*
X139482285Y-77820761D02*
X139482285Y-77433714D01*
X139143619Y-77675619D02*
X140014476Y-77675619D01*
X140111238Y-77627238D01*
X140159619Y-77530476D01*
X140159619Y-77433714D01*
X140159619Y-76949904D02*
X140111238Y-77046666D01*
X140062857Y-77095047D01*
X139966095Y-77143428D01*
X139675809Y-77143428D01*
X139579047Y-77095047D01*
X139530666Y-77046666D01*
X139482285Y-76949904D01*
X139482285Y-76804761D01*
X139530666Y-76708000D01*
X139579047Y-76659619D01*
X139675809Y-76611238D01*
X139966095Y-76611238D01*
X140062857Y-76659619D01*
X140111238Y-76708000D01*
X140159619Y-76804761D01*
X140159619Y-76949904D01*
X139482285Y-76175809D02*
X140159619Y-76175809D01*
X139579047Y-76175809D02*
X139530666Y-76127428D01*
X139482285Y-76030666D01*
X139482285Y-75885523D01*
X139530666Y-75788761D01*
X139627428Y-75740380D01*
X140159619Y-75740380D01*
X140062857Y-73901904D02*
X140111238Y-73950285D01*
X140159619Y-74095428D01*
X140159619Y-74192190D01*
X140111238Y-74337333D01*
X140014476Y-74434095D01*
X139917714Y-74482476D01*
X139724190Y-74530857D01*
X139579047Y-74530857D01*
X139385523Y-74482476D01*
X139288761Y-74434095D01*
X139192000Y-74337333D01*
X139143619Y-74192190D01*
X139143619Y-74095428D01*
X139192000Y-73950285D01*
X139240380Y-73901904D01*
X140062857Y-73466476D02*
X140111238Y-73418095D01*
X140159619Y-73466476D01*
X140111238Y-73514857D01*
X140062857Y-73466476D01*
X140159619Y-73466476D01*
X139627428Y-71869904D02*
X139627428Y-72208571D01*
X140159619Y-72208571D02*
X139143619Y-72208571D01*
X139143619Y-71724761D01*
X139482285Y-70902285D02*
X140159619Y-70902285D01*
X139482285Y-71337714D02*
X140014476Y-71337714D01*
X140111238Y-71289333D01*
X140159619Y-71192571D01*
X140159619Y-71047428D01*
X140111238Y-70950666D01*
X140062857Y-70902285D01*
X139482285Y-70418476D02*
X140159619Y-70418476D01*
X139579047Y-70418476D02*
X139530666Y-70370095D01*
X139482285Y-70273333D01*
X139482285Y-70128190D01*
X139530666Y-70031428D01*
X139627428Y-69983047D01*
X140159619Y-69983047D01*
X139482285Y-69063809D02*
X140304761Y-69063809D01*
X140401523Y-69112190D01*
X140449904Y-69160571D01*
X140498285Y-69257333D01*
X140498285Y-69402476D01*
X140449904Y-69499238D01*
X140111238Y-69063809D02*
X140159619Y-69160571D01*
X140159619Y-69354095D01*
X140111238Y-69450857D01*
X140062857Y-69499238D01*
X139966095Y-69547619D01*
X139675809Y-69547619D01*
X139579047Y-69499238D01*
X139530666Y-69450857D01*
X139482285Y-69354095D01*
X139482285Y-69160571D01*
X139530666Y-69063809D01*
D12*
G36*
X128553394Y-68037708D02*
G01*
X129182412Y-67407962D01*
X132332592Y-67407962D01*
X133643934Y-68720668D01*
X132471096Y-69891984D01*
X132188625Y-69891984D01*
X132188625Y-69017328D01*
X132304504Y-68905013D01*
X132420384Y-68792699D01*
X132184656Y-68555151D01*
X131948929Y-68317603D01*
X129601663Y-68317603D01*
X129253113Y-68667466D01*
X128904564Y-69017328D01*
X132188625Y-69017328D01*
X132188625Y-69891984D01*
X129147405Y-69891984D01*
X128535890Y-69279719D01*
X127924376Y-68667455D01*
X128553394Y-68037708D01*
X128553394Y-68037708D01*
G37*
X128553394Y-68037708D02*
X129182412Y-67407962D01*
X132332592Y-67407962D01*
X133643934Y-68720668D01*
X132471096Y-69891984D01*
X132188625Y-69891984D01*
X132188625Y-69017328D01*
X132304504Y-68905013D01*
X132420384Y-68792699D01*
X132184656Y-68555151D01*
X131948929Y-68317603D01*
X129601663Y-68317603D01*
X129253113Y-68667466D01*
X128904564Y-69017328D01*
X132188625Y-69017328D01*
X132188625Y-69891984D01*
X129147405Y-69891984D01*
X128535890Y-69279719D01*
X127924376Y-68667455D01*
X128553394Y-68037708D01*
G36*
X128440121Y-70844906D02*
G01*
X128939113Y-70346805D01*
X129846495Y-70346805D01*
X130460177Y-70957643D01*
X130784437Y-70634731D01*
X131108698Y-70311818D01*
X132469646Y-70311818D01*
X132654931Y-70128834D01*
X132840217Y-69945851D01*
X133644270Y-70749904D01*
X132856694Y-71534688D01*
X132664270Y-71362096D01*
X132471846Y-71189503D01*
X132016428Y-71187989D01*
X131561011Y-71186474D01*
X131177356Y-71571322D01*
X130793700Y-71956171D01*
X132509463Y-71956171D01*
X132682144Y-71780854D01*
X132854825Y-71605536D01*
X133249355Y-71998947D01*
X133383260Y-72133821D01*
X133497693Y-72251657D01*
X133584262Y-72343604D01*
X133634577Y-72400816D01*
X133643884Y-72414977D01*
X133619858Y-72445622D01*
X133553504Y-72515574D01*
X133453412Y-72616144D01*
X133328171Y-72738642D01*
X133243024Y-72820490D01*
X132842164Y-73203382D01*
X132658200Y-73017104D01*
X132474236Y-72830827D01*
X130337343Y-72830827D01*
X130337343Y-72026143D01*
X129891440Y-71580241D01*
X129445537Y-71134338D01*
X128553732Y-72026143D01*
X130337343Y-72026143D01*
X130337343Y-72830827D01*
X129045225Y-72830827D01*
X128842818Y-73031121D01*
X128640412Y-73231415D01*
X128290771Y-72883086D01*
X127941130Y-72534756D01*
X127941130Y-71343007D01*
X128440121Y-70844906D01*
X128440121Y-70844906D01*
G37*
X128440121Y-70844906D02*
X128939113Y-70346805D01*
X129846495Y-70346805D01*
X130460177Y-70957643D01*
X130784437Y-70634731D01*
X131108698Y-70311818D01*
X132469646Y-70311818D01*
X132654931Y-70128834D01*
X132840217Y-69945851D01*
X133644270Y-70749904D01*
X132856694Y-71534688D01*
X132664270Y-71362096D01*
X132471846Y-71189503D01*
X132016428Y-71187989D01*
X131561011Y-71186474D01*
X131177356Y-71571322D01*
X130793700Y-71956171D01*
X132509463Y-71956171D01*
X132682144Y-71780854D01*
X132854825Y-71605536D01*
X133249355Y-71998947D01*
X133383260Y-72133821D01*
X133497693Y-72251657D01*
X133584262Y-72343604D01*
X133634577Y-72400816D01*
X133643884Y-72414977D01*
X133619858Y-72445622D01*
X133553504Y-72515574D01*
X133453412Y-72616144D01*
X133328171Y-72738642D01*
X133243024Y-72820490D01*
X132842164Y-73203382D01*
X132658200Y-73017104D01*
X132474236Y-72830827D01*
X130337343Y-72830827D01*
X130337343Y-72026143D01*
X129891440Y-71580241D01*
X129445537Y-71134338D01*
X128553732Y-72026143D01*
X130337343Y-72026143D01*
X130337343Y-72830827D01*
X129045225Y-72830827D01*
X128842818Y-73031121D01*
X128640412Y-73231415D01*
X128290771Y-72883086D01*
X127941130Y-72534756D01*
X127941130Y-71343007D01*
X128440121Y-70844906D01*
G36*
X128595679Y-77056864D02*
G01*
X129235283Y-76417961D01*
X129567940Y-76749235D01*
X129900597Y-77080508D01*
X129419886Y-77562141D01*
X128939174Y-78043774D01*
X130393091Y-78043774D01*
X130382882Y-77379463D01*
X130372672Y-76715151D01*
X130801254Y-77142781D01*
X131229835Y-77570410D01*
X131229835Y-78043774D01*
X132240874Y-78043774D01*
X132335994Y-77919067D01*
X132431113Y-77794359D01*
X132075558Y-77437589D01*
X131720002Y-77080820D01*
X132035625Y-76765197D01*
X132351248Y-76449575D01*
X132997566Y-77099155D01*
X133170587Y-77273660D01*
X133326125Y-77431708D01*
X133457697Y-77566615D01*
X133558821Y-77671696D01*
X133623012Y-77740268D01*
X133643884Y-77765454D01*
X133620205Y-77793865D01*
X133553800Y-77864415D01*
X133451616Y-77969961D01*
X133320602Y-78103361D01*
X133167704Y-78257474D01*
X133074972Y-78350301D01*
X132506060Y-78918430D01*
X129185604Y-78918430D01*
X128570840Y-78307098D01*
X127956075Y-77695766D01*
X128595679Y-77056864D01*
X128595679Y-77056864D01*
G37*
X128595679Y-77056864D02*
X129235283Y-76417961D01*
X129567940Y-76749235D01*
X129900597Y-77080508D01*
X129419886Y-77562141D01*
X128939174Y-78043774D01*
X130393091Y-78043774D01*
X130382882Y-77379463D01*
X130372672Y-76715151D01*
X130801254Y-77142781D01*
X131229835Y-77570410D01*
X131229835Y-78043774D01*
X132240874Y-78043774D01*
X132335994Y-77919067D01*
X132431113Y-77794359D01*
X132075558Y-77437589D01*
X131720002Y-77080820D01*
X132035625Y-76765197D01*
X132351248Y-76449575D01*
X132997566Y-77099155D01*
X133170587Y-77273660D01*
X133326125Y-77431708D01*
X133457697Y-77566615D01*
X133558821Y-77671696D01*
X133623012Y-77740268D01*
X133643884Y-77765454D01*
X133620205Y-77793865D01*
X133553800Y-77864415D01*
X133451616Y-77969961D01*
X133320602Y-78103361D01*
X133167704Y-78257474D01*
X133074972Y-78350301D01*
X132506060Y-78918430D01*
X129185604Y-78918430D01*
X128570840Y-78307098D01*
X127956075Y-77695766D01*
X128595679Y-77056864D01*
G36*
X128544988Y-80151339D02*
G01*
X129148884Y-79548182D01*
X132469646Y-79548182D01*
X132654931Y-79365198D01*
X132840217Y-79182214D01*
X133242243Y-79584241D01*
X133644270Y-79986267D01*
X133242050Y-80387346D01*
X132839830Y-80788424D01*
X132469646Y-80422838D01*
X131754628Y-80422838D01*
X131754628Y-81192535D01*
X132469646Y-81192535D01*
X132654931Y-81009551D01*
X132840217Y-80826567D01*
X133644270Y-81630620D01*
X132839830Y-82432776D01*
X132654738Y-82249984D01*
X132469646Y-82067190D01*
X130844986Y-82067190D01*
X130844986Y-81192535D01*
X130844986Y-80422838D01*
X129705990Y-80422838D01*
X129304620Y-80805913D01*
X128903251Y-81188989D01*
X129874119Y-81190762D01*
X130844986Y-81192535D01*
X130844986Y-82067190D01*
X129252422Y-82067190D01*
X128596757Y-81410843D01*
X127941091Y-80754495D01*
X128544988Y-80151339D01*
X128544988Y-80151339D01*
G37*
X128544988Y-80151339D02*
X129148884Y-79548182D01*
X132469646Y-79548182D01*
X132654931Y-79365198D01*
X132840217Y-79182214D01*
X133242243Y-79584241D01*
X133644270Y-79986267D01*
X133242050Y-80387346D01*
X132839830Y-80788424D01*
X132469646Y-80422838D01*
X131754628Y-80422838D01*
X131754628Y-81192535D01*
X132469646Y-81192535D01*
X132654931Y-81009551D01*
X132840217Y-80826567D01*
X133644270Y-81630620D01*
X132839830Y-82432776D01*
X132654738Y-82249984D01*
X132469646Y-82067190D01*
X130844986Y-82067190D01*
X130844986Y-81192535D01*
X130844986Y-80422838D01*
X129705990Y-80422838D01*
X129304620Y-80805913D01*
X128903251Y-81188989D01*
X129874119Y-81190762D01*
X130844986Y-81192535D01*
X130844986Y-82067190D01*
X129252422Y-82067190D01*
X128596757Y-81410843D01*
X127941091Y-80754495D01*
X128544988Y-80151339D01*
G36*
X128745813Y-74037851D02*
G01*
X129725427Y-74397060D01*
X129725427Y-73853424D01*
X129725846Y-73648358D01*
X129727861Y-73504168D01*
X129732611Y-73411759D01*
X129741234Y-73362035D01*
X129754869Y-73345900D01*
X129774654Y-73354261D01*
X129786653Y-73364289D01*
X129823473Y-73392292D01*
X129911537Y-73457005D01*
X130045215Y-73554378D01*
X130218877Y-73680360D01*
X130426893Y-73830900D01*
X130663633Y-74001948D01*
X130923466Y-74189453D01*
X131200763Y-74389364D01*
X131489893Y-74597630D01*
X131785227Y-74810200D01*
X132081134Y-75023025D01*
X132371985Y-75232053D01*
X132652148Y-75433233D01*
X132915995Y-75622515D01*
X133157895Y-75795847D01*
X133372217Y-75949181D01*
X133553333Y-76078463D01*
X133695611Y-76179645D01*
X133793422Y-76248674D01*
X133841136Y-76281501D01*
X133842265Y-76282220D01*
X133823674Y-76279457D01*
X133745209Y-76255691D01*
X133613056Y-76212989D01*
X133433402Y-76153417D01*
X133212431Y-76079041D01*
X132956332Y-75991928D01*
X132671288Y-75894145D01*
X132402142Y-75801159D01*
X132093551Y-75694276D01*
X131805885Y-75594769D01*
X131545757Y-75504915D01*
X131319778Y-75426994D01*
X131134560Y-75363282D01*
X130996716Y-75316058D01*
X130912858Y-75287599D01*
X130888987Y-75279862D01*
X130885836Y-75312823D01*
X130883166Y-75403606D01*
X130881186Y-75540059D01*
X130880108Y-75710034D01*
X130879973Y-75799786D01*
X130879973Y-76319709D01*
X129996570Y-75928949D01*
X129717003Y-75805406D01*
X129414805Y-75672067D01*
X129108947Y-75537290D01*
X128818400Y-75409431D01*
X128562135Y-75296846D01*
X128439683Y-75243152D01*
X127766199Y-74948117D01*
X127766199Y-73678643D01*
X128745813Y-74037851D01*
X128745813Y-74037851D01*
G37*
X128745813Y-74037851D02*
X129725427Y-74397060D01*
X129725427Y-73853424D01*
X129725846Y-73648358D01*
X129727861Y-73504168D01*
X129732611Y-73411759D01*
X129741234Y-73362035D01*
X129754869Y-73345900D01*
X129774654Y-73354261D01*
X129786653Y-73364289D01*
X129823473Y-73392292D01*
X129911537Y-73457005D01*
X130045215Y-73554378D01*
X130218877Y-73680360D01*
X130426893Y-73830900D01*
X130663633Y-74001948D01*
X130923466Y-74189453D01*
X131200763Y-74389364D01*
X131489893Y-74597630D01*
X131785227Y-74810200D01*
X132081134Y-75023025D01*
X132371985Y-75232053D01*
X132652148Y-75433233D01*
X132915995Y-75622515D01*
X133157895Y-75795847D01*
X133372217Y-75949181D01*
X133553333Y-76078463D01*
X133695611Y-76179645D01*
X133793422Y-76248674D01*
X133841136Y-76281501D01*
X133842265Y-76282220D01*
X133823674Y-76279457D01*
X133745209Y-76255691D01*
X133613056Y-76212989D01*
X133433402Y-76153417D01*
X133212431Y-76079041D01*
X132956332Y-75991928D01*
X132671288Y-75894145D01*
X132402142Y-75801159D01*
X132093551Y-75694276D01*
X131805885Y-75594769D01*
X131545757Y-75504915D01*
X131319778Y-75426994D01*
X131134560Y-75363282D01*
X130996716Y-75316058D01*
X130912858Y-75287599D01*
X130888987Y-75279862D01*
X130885836Y-75312823D01*
X130883166Y-75403606D01*
X130881186Y-75540059D01*
X130880108Y-75710034D01*
X130879973Y-75799786D01*
X130879973Y-76319709D01*
X129996570Y-75928949D01*
X129717003Y-75805406D01*
X129414805Y-75672067D01*
X129108947Y-75537290D01*
X128818400Y-75409431D01*
X128562135Y-75296846D01*
X128439683Y-75243152D01*
X127766199Y-74948117D01*
X127766199Y-73678643D01*
X128745813Y-74037851D01*
D13*
X131155000Y-93110000D02*
X137165000Y-93110000D01*
X133405000Y-99930000D02*
X137165000Y-99930000D01*
X137165000Y-93110000D02*
X137165000Y-94370000D01*
X137165000Y-99930000D02*
X137165000Y-98670000D01*
D14*
X141260000Y-113180000D02*
X138140000Y-113180000D01*
X141260000Y-105260000D02*
X141260000Y-113180000D01*
X138140000Y-105260000D02*
X141260000Y-105260000D01*
X138140000Y-113180000D02*
X138140000Y-105260000D01*
X141260000Y-66825000D02*
X138140000Y-66825000D01*
X141260000Y-58905000D02*
X141260000Y-66825000D01*
X138140000Y-58905000D02*
X141260000Y-58905000D01*
X138140000Y-66825000D02*
X138140000Y-58905000D01*
X129195000Y-113180000D02*
X126075000Y-113180000D01*
X129195000Y-105260000D02*
X129195000Y-113180000D01*
X126075000Y-105260000D02*
X129195000Y-105260000D01*
X126075000Y-113180000D02*
X126075000Y-105260000D01*
X129195000Y-66825000D02*
X126075000Y-66825000D01*
X129195000Y-58905000D02*
X129195000Y-66825000D01*
X126075000Y-58905000D02*
X129195000Y-58905000D01*
X126075000Y-66825000D02*
X126075000Y-58905000D01*
D13*
X136052779Y-82675000D02*
X135727221Y-82675000D01*
X136052779Y-83695000D02*
X135727221Y-83695000D01*
X132877779Y-101090000D02*
X132552221Y-101090000D01*
X132877779Y-102110000D02*
X132552221Y-102110000D01*
X129030000Y-95087221D02*
X129030000Y-95412779D01*
X130050000Y-95087221D02*
X130050000Y-95412779D01*
X138267221Y-102110000D02*
X138592779Y-102110000D01*
X138267221Y-101090000D02*
X138592779Y-101090000D01*
X133985000Y-84435000D02*
X130535000Y-84435000D01*
X133985000Y-84435000D02*
X135935000Y-84435000D01*
X133985000Y-89555000D02*
X132035000Y-89555000D01*
X133985000Y-89555000D02*
X135935000Y-89555000D01*
D15*
X135382095Y-91654380D02*
X135382095Y-92463904D01*
X135429714Y-92559142D01*
X135477333Y-92606761D01*
X135572571Y-92654380D01*
X135763047Y-92654380D01*
X135858285Y-92606761D01*
X135905904Y-92559142D01*
X135953523Y-92463904D01*
X135953523Y-91654380D01*
X136953523Y-92654380D02*
X136382095Y-92654380D01*
X136667809Y-92654380D02*
X136667809Y-91654380D01*
X136572571Y-91797238D01*
X136477333Y-91892476D01*
X136382095Y-91940095D01*
D16*
X141889330Y-111458961D02*
X142346725Y-111458961D01*
X142438204Y-111489454D01*
X142499190Y-111550440D01*
X142529683Y-111641919D01*
X142529683Y-111702905D01*
X141889330Y-111215017D02*
X141889330Y-110818608D01*
X142133274Y-111032059D01*
X142133274Y-110940580D01*
X142163767Y-110879594D01*
X142194260Y-110849101D01*
X142255246Y-110818608D01*
X142407711Y-110818608D01*
X142468697Y-110849101D01*
X142499190Y-110879594D01*
X142529683Y-110940580D01*
X142529683Y-111123538D01*
X142499190Y-111184524D01*
X142468697Y-111215017D01*
D17*
X137444238Y-110477904D02*
X137444238Y-111639047D01*
X137444238Y-111058476D02*
X135412238Y-111058476D01*
X135702523Y-111252000D01*
X135896047Y-111445523D01*
X135992809Y-111639047D01*
X135605761Y-109703809D02*
X135509000Y-109607047D01*
X135412238Y-109413523D01*
X135412238Y-108929714D01*
X135509000Y-108736190D01*
X135605761Y-108639428D01*
X135799285Y-108542666D01*
X135992809Y-108542666D01*
X136283095Y-108639428D01*
X137444238Y-109800571D01*
X137444238Y-108542666D01*
X135412238Y-107962095D02*
X137444238Y-107284761D01*
X135412238Y-106607428D01*
D16*
X141889330Y-65103961D02*
X142346725Y-65103961D01*
X142438204Y-65134454D01*
X142499190Y-65195440D01*
X142529683Y-65286919D01*
X142529683Y-65347905D01*
X142529683Y-64463608D02*
X142529683Y-64829524D01*
X142529683Y-64646566D02*
X141889330Y-64646566D01*
X141980809Y-64707552D01*
X142041795Y-64768538D01*
X142072288Y-64829524D01*
D17*
X136809238Y-65429190D02*
X136809238Y-66396809D01*
X134777238Y-66396809D01*
X135744857Y-64751857D02*
X135744857Y-64074523D01*
X136809238Y-63784238D02*
X136809238Y-64751857D01*
X134777238Y-64751857D01*
X134777238Y-63784238D01*
X136809238Y-62913380D02*
X134777238Y-62913380D01*
X134777238Y-62429571D01*
X134874000Y-62139285D01*
X135067523Y-61945761D01*
X135261047Y-61849000D01*
X135648095Y-61752238D01*
X135938380Y-61752238D01*
X136325428Y-61849000D01*
X136518952Y-61945761D01*
X136712476Y-62139285D01*
X136809238Y-62429571D01*
X136809238Y-62913380D01*
X136035142Y-60881380D02*
X136035142Y-59333190D01*
X136809238Y-60107285D02*
X135261047Y-60107285D01*
D16*
X125076720Y-111458961D02*
X125534115Y-111458961D01*
X125625594Y-111489454D01*
X125686580Y-111550440D01*
X125717073Y-111641919D01*
X125717073Y-111702905D01*
X125290171Y-110879594D02*
X125717073Y-110879594D01*
X125046227Y-111032059D02*
X125503622Y-111184524D01*
X125503622Y-110788115D01*
D17*
X130429000Y-110768190D02*
X130332238Y-110961714D01*
X130332238Y-111252000D01*
X130429000Y-111542285D01*
X130622523Y-111735809D01*
X130816047Y-111832571D01*
X131203095Y-111929333D01*
X131493380Y-111929333D01*
X131880428Y-111832571D01*
X132073952Y-111735809D01*
X132267476Y-111542285D01*
X132364238Y-111252000D01*
X132364238Y-111058476D01*
X132267476Y-110768190D01*
X132170714Y-110671428D01*
X131493380Y-110671428D01*
X131493380Y-111058476D01*
X132364238Y-109800571D02*
X130332238Y-109800571D01*
X132364238Y-108639428D01*
X130332238Y-108639428D01*
X132364238Y-107671809D02*
X130332238Y-107671809D01*
X130332238Y-107188000D01*
X130429000Y-106897714D01*
X130622523Y-106704190D01*
X130816047Y-106607428D01*
X131203095Y-106510666D01*
X131493380Y-106510666D01*
X131880428Y-106607428D01*
X132073952Y-106704190D01*
X132267476Y-106897714D01*
X132364238Y-107188000D01*
X132364238Y-107671809D01*
D16*
X125076720Y-65103961D02*
X125534115Y-65103961D01*
X125625594Y-65134454D01*
X125686580Y-65195440D01*
X125717073Y-65286919D01*
X125717073Y-65347905D01*
X125137706Y-64829524D02*
X125107213Y-64799031D01*
X125076720Y-64738045D01*
X125076720Y-64585580D01*
X125107213Y-64524594D01*
X125137706Y-64494101D01*
X125198692Y-64463608D01*
X125259678Y-64463608D01*
X125351157Y-64494101D01*
X125717073Y-64860017D01*
X125717073Y-64463608D01*
D17*
X132364238Y-65429190D02*
X132364238Y-66396809D01*
X130332238Y-66396809D01*
X131299857Y-64751857D02*
X131299857Y-64074523D01*
X132364238Y-63784238D02*
X132364238Y-64751857D01*
X130332238Y-64751857D01*
X130332238Y-63784238D01*
X132364238Y-62913380D02*
X130332238Y-62913380D01*
X130332238Y-62429571D01*
X130429000Y-62139285D01*
X130622523Y-61945761D01*
X130816047Y-61849000D01*
X131203095Y-61752238D01*
X131493380Y-61752238D01*
X131880428Y-61849000D01*
X132073952Y-61945761D01*
X132267476Y-62139285D01*
X132364238Y-62429571D01*
X132364238Y-62913380D01*
X131590142Y-60881380D02*
X131590142Y-59333190D01*
D15*
X133437333Y-83669142D02*
X133389714Y-83716761D01*
X133246857Y-83764380D01*
X133151619Y-83764380D01*
X133008761Y-83716761D01*
X132913523Y-83621523D01*
X132865904Y-83526285D01*
X132818285Y-83335809D01*
X132818285Y-83192952D01*
X132865904Y-83002476D01*
X132913523Y-82907238D01*
X133008761Y-82812000D01*
X133151619Y-82764380D01*
X133246857Y-82764380D01*
X133389714Y-82812000D01*
X133437333Y-82859619D01*
X134389714Y-83764380D02*
X133818285Y-83764380D01*
X134104000Y-83764380D02*
X134104000Y-82764380D01*
X134008761Y-82907238D01*
X133913523Y-83002476D01*
X133818285Y-83050095D01*
X132548333Y-103481142D02*
X132500714Y-103528761D01*
X132357857Y-103576380D01*
X132262619Y-103576380D01*
X132119761Y-103528761D01*
X132024523Y-103433523D01*
X131976904Y-103338285D01*
X131929285Y-103147809D01*
X131929285Y-103004952D01*
X131976904Y-102814476D01*
X132024523Y-102719238D01*
X132119761Y-102624000D01*
X132262619Y-102576380D01*
X132357857Y-102576380D01*
X132500714Y-102624000D01*
X132548333Y-102671619D01*
X132929285Y-102671619D02*
X132976904Y-102624000D01*
X133072142Y-102576380D01*
X133310238Y-102576380D01*
X133405476Y-102624000D01*
X133453095Y-102671619D01*
X133500714Y-102766857D01*
X133500714Y-102862095D01*
X133453095Y-103004952D01*
X132881666Y-103576380D01*
X133500714Y-103576380D01*
X129897142Y-98083666D02*
X129944761Y-98131285D01*
X129992380Y-98274142D01*
X129992380Y-98369380D01*
X129944761Y-98512238D01*
X129849523Y-98607476D01*
X129754285Y-98655095D01*
X129563809Y-98702714D01*
X129420952Y-98702714D01*
X129230476Y-98655095D01*
X129135238Y-98607476D01*
X129040000Y-98512238D01*
X128992380Y-98369380D01*
X128992380Y-98274142D01*
X129040000Y-98131285D01*
X129087619Y-98083666D01*
X128992380Y-97750333D02*
X128992380Y-97131285D01*
X129373333Y-97464619D01*
X129373333Y-97321761D01*
X129420952Y-97226523D01*
X129468571Y-97178904D01*
X129563809Y-97131285D01*
X129801904Y-97131285D01*
X129897142Y-97178904D01*
X129944761Y-97226523D01*
X129992380Y-97321761D01*
X129992380Y-97607476D01*
X129944761Y-97702714D01*
X129897142Y-97750333D01*
X138263333Y-103481142D02*
X138215714Y-103528761D01*
X138072857Y-103576380D01*
X137977619Y-103576380D01*
X137834761Y-103528761D01*
X137739523Y-103433523D01*
X137691904Y-103338285D01*
X137644285Y-103147809D01*
X137644285Y-103004952D01*
X137691904Y-102814476D01*
X137739523Y-102719238D01*
X137834761Y-102624000D01*
X137977619Y-102576380D01*
X138072857Y-102576380D01*
X138215714Y-102624000D01*
X138263333Y-102671619D01*
X139120476Y-102909714D02*
X139120476Y-103576380D01*
X138882380Y-102528761D02*
X138644285Y-103243047D01*
X139263333Y-103243047D01*
X130556095Y-83018380D02*
X130556095Y-83827904D01*
X130603714Y-83923142D01*
X130651333Y-83970761D01*
X130746571Y-84018380D01*
X130937047Y-84018380D01*
X131032285Y-83970761D01*
X131079904Y-83923142D01*
X131127523Y-83827904D01*
X131127523Y-83018380D01*
X131556095Y-83113619D02*
X131603714Y-83066000D01*
X131698952Y-83018380D01*
X131937047Y-83018380D01*
X132032285Y-83066000D01*
X132079904Y-83113619D01*
X132127523Y-83208857D01*
X132127523Y-83304095D01*
X132079904Y-83446952D01*
X131508476Y-84018380D01*
X132127523Y-84018380D01*
M02*
