G04 #@! TF.GenerationSoftware,KiCad,Pcbnew,(5.0.2)-1*
G04 #@! TF.CreationDate,2019-04-05T10:25:57-04:00*
G04 #@! TF.ProjectId,interface-board,696e7465-7266-4616-9365-2d626f617264,rev?*
G04 #@! TF.SameCoordinates,Original*
G04 #@! TF.FileFunction,Soldermask,Top*
G04 #@! TF.FilePolarity,Negative*
%FSLAX46Y46*%
G04 Gerber Fmt 4.6, Leading zero omitted, Abs format (unit mm)*
G04 Created by KiCad (PCBNEW (5.0.2)-1) date 4/5/2019 10:25:57 AM*
%MOMM*%
%LPD*%
G01*
G04 APERTURE LIST*
%ADD10C,0.100000*%
G04 APERTURE END LIST*
D10*
G36*
X178931105Y-144976728D02*
X179089604Y-145008255D01*
X179213290Y-145059488D01*
X179388209Y-145131941D01*
X179656952Y-145311510D01*
X179885490Y-145540048D01*
X180065059Y-145808791D01*
X180188745Y-146107397D01*
X180251800Y-146424394D01*
X180251800Y-146747606D01*
X180188745Y-147064603D01*
X180065059Y-147363209D01*
X179885490Y-147631952D01*
X179656952Y-147860490D01*
X179388209Y-148040059D01*
X179213290Y-148112512D01*
X179089604Y-148163745D01*
X178931104Y-148195273D01*
X178772606Y-148226800D01*
X178449394Y-148226800D01*
X178290896Y-148195273D01*
X178132396Y-148163745D01*
X178008710Y-148112512D01*
X177833791Y-148040059D01*
X177565048Y-147860490D01*
X177336510Y-147631952D01*
X177156941Y-147363209D01*
X177033255Y-147064603D01*
X176970200Y-146747606D01*
X176970200Y-146424394D01*
X177033255Y-146107397D01*
X177156941Y-145808791D01*
X177336510Y-145540048D01*
X177565048Y-145311510D01*
X177833791Y-145131941D01*
X178008710Y-145059488D01*
X178132396Y-145008255D01*
X178290895Y-144976728D01*
X178449394Y-144945200D01*
X178772606Y-144945200D01*
X178931105Y-144976728D01*
X178931105Y-144976728D01*
G37*
G36*
X164961105Y-144976728D02*
X165119604Y-145008255D01*
X165243290Y-145059488D01*
X165418209Y-145131941D01*
X165686952Y-145311510D01*
X165915490Y-145540048D01*
X166095059Y-145808791D01*
X166218745Y-146107397D01*
X166281800Y-146424394D01*
X166281800Y-146747606D01*
X166218745Y-147064603D01*
X166095059Y-147363209D01*
X165915490Y-147631952D01*
X165686952Y-147860490D01*
X165418209Y-148040059D01*
X165243290Y-148112512D01*
X165119604Y-148163745D01*
X164961104Y-148195273D01*
X164802606Y-148226800D01*
X164479394Y-148226800D01*
X164320896Y-148195273D01*
X164162396Y-148163745D01*
X164038710Y-148112512D01*
X163863791Y-148040059D01*
X163595048Y-147860490D01*
X163366510Y-147631952D01*
X163186941Y-147363209D01*
X163063255Y-147064603D01*
X163000200Y-146747606D01*
X163000200Y-146424394D01*
X163063255Y-146107397D01*
X163186941Y-145808791D01*
X163366510Y-145540048D01*
X163595048Y-145311510D01*
X163863791Y-145131941D01*
X164038710Y-145059488D01*
X164162396Y-145008255D01*
X164320895Y-144976728D01*
X164479394Y-144945200D01*
X164802606Y-144945200D01*
X164961105Y-144976728D01*
X164961105Y-144976728D01*
G37*
G36*
X64952950Y-141909775D02*
X65353469Y-142075675D01*
X65713930Y-142316528D01*
X66020472Y-142623070D01*
X66261325Y-142983531D01*
X66427225Y-143384050D01*
X66511800Y-143809239D01*
X66511800Y-144242761D01*
X66427225Y-144667950D01*
X66261325Y-145068469D01*
X66020472Y-145428930D01*
X65713930Y-145735472D01*
X65353469Y-145976325D01*
X64952950Y-146142225D01*
X64527761Y-146226800D01*
X64094239Y-146226800D01*
X63669050Y-146142225D01*
X63268531Y-145976325D01*
X62908070Y-145735472D01*
X62601528Y-145428930D01*
X62360675Y-145068469D01*
X62194775Y-144667950D01*
X62110200Y-144242761D01*
X62110200Y-143809239D01*
X62194775Y-143384050D01*
X62360675Y-142983531D01*
X62601528Y-142623070D01*
X62908070Y-142316528D01*
X63268531Y-142075675D01*
X63669050Y-141909775D01*
X64094239Y-141825200D01*
X64527761Y-141825200D01*
X64952950Y-141909775D01*
X64952950Y-141909775D01*
G37*
G36*
X212272950Y-141909775D02*
X212673469Y-142075675D01*
X213033930Y-142316528D01*
X213340472Y-142623070D01*
X213581325Y-142983531D01*
X213747225Y-143384050D01*
X213831800Y-143809239D01*
X213831800Y-144242761D01*
X213747225Y-144667950D01*
X213581325Y-145068469D01*
X213340472Y-145428930D01*
X213033930Y-145735472D01*
X212673469Y-145976325D01*
X212272950Y-146142225D01*
X211847761Y-146226800D01*
X211414239Y-146226800D01*
X210989050Y-146142225D01*
X210588531Y-145976325D01*
X210228070Y-145735472D01*
X209921528Y-145428930D01*
X209680675Y-145068469D01*
X209514775Y-144667950D01*
X209430200Y-144242761D01*
X209430200Y-143809239D01*
X209514775Y-143384050D01*
X209680675Y-142983531D01*
X209921528Y-142623070D01*
X210228070Y-142316528D01*
X210588531Y-142075675D01*
X210989050Y-141909775D01*
X211414239Y-141825200D01*
X211847761Y-141825200D01*
X212272950Y-141909775D01*
X212272950Y-141909775D01*
G37*
G36*
X122971800Y-144622800D02*
X120870200Y-144622800D01*
X120870200Y-143921200D01*
X122971800Y-143921200D01*
X122971800Y-144622800D01*
X122971800Y-144622800D01*
G37*
G36*
X113571800Y-144622800D02*
X111470200Y-144622800D01*
X111470200Y-143921200D01*
X113571800Y-143921200D01*
X113571800Y-144622800D01*
X113571800Y-144622800D01*
G37*
G36*
X165239725Y-140795034D02*
X165498120Y-140873418D01*
X165736261Y-141000706D01*
X165944992Y-141172008D01*
X166116294Y-141380739D01*
X166243582Y-141618880D01*
X166321966Y-141877275D01*
X166348432Y-142146000D01*
X166321966Y-142414725D01*
X166243582Y-142673120D01*
X166116294Y-142911261D01*
X165944992Y-143119992D01*
X165736261Y-143291294D01*
X165498120Y-143418582D01*
X165239725Y-143496966D01*
X165038340Y-143516800D01*
X164243660Y-143516800D01*
X164042275Y-143496966D01*
X163783880Y-143418582D01*
X163545739Y-143291294D01*
X163337008Y-143119992D01*
X163165706Y-142911261D01*
X163038418Y-142673120D01*
X162960034Y-142414725D01*
X162933568Y-142146000D01*
X162960034Y-141877275D01*
X163038418Y-141618880D01*
X163165706Y-141380739D01*
X163337008Y-141172008D01*
X163545739Y-141000706D01*
X163783880Y-140873418D01*
X164042275Y-140795034D01*
X164243660Y-140775200D01*
X165038340Y-140775200D01*
X165239725Y-140795034D01*
X165239725Y-140795034D01*
G37*
G36*
X179209725Y-140795034D02*
X179468120Y-140873418D01*
X179706261Y-141000706D01*
X179914992Y-141172008D01*
X180086294Y-141380739D01*
X180213582Y-141618880D01*
X180291966Y-141877275D01*
X180318432Y-142146000D01*
X180291966Y-142414725D01*
X180213582Y-142673120D01*
X180086294Y-142911261D01*
X179914992Y-143119992D01*
X179706261Y-143291294D01*
X179468120Y-143418582D01*
X179209725Y-143496966D01*
X179008340Y-143516800D01*
X178213660Y-143516800D01*
X178012275Y-143496966D01*
X177753880Y-143418582D01*
X177515739Y-143291294D01*
X177307008Y-143119992D01*
X177135706Y-142911261D01*
X177008418Y-142673120D01*
X176930034Y-142414725D01*
X176903568Y-142146000D01*
X176930034Y-141877275D01*
X177008418Y-141618880D01*
X177135706Y-141380739D01*
X177307008Y-141172008D01*
X177515739Y-141000706D01*
X177753880Y-140873418D01*
X178012275Y-140795034D01*
X178213660Y-140775200D01*
X179008340Y-140775200D01*
X179209725Y-140795034D01*
X179209725Y-140795034D01*
G37*
G36*
X122971800Y-143352800D02*
X120870200Y-143352800D01*
X120870200Y-142651200D01*
X122971800Y-142651200D01*
X122971800Y-143352800D01*
X122971800Y-143352800D01*
G37*
G36*
X113571800Y-143352800D02*
X111470200Y-143352800D01*
X111470200Y-142651200D01*
X113571800Y-142651200D01*
X113571800Y-143352800D01*
X113571800Y-143352800D01*
G37*
G36*
X109458800Y-143182800D02*
X107457200Y-143182800D01*
X107457200Y-142681200D01*
X109458800Y-142681200D01*
X109458800Y-143182800D01*
X109458800Y-143182800D01*
G37*
G36*
X132269468Y-141972283D02*
X132303434Y-141982586D01*
X132334732Y-141999316D01*
X132362168Y-142021832D01*
X132384684Y-142049268D01*
X132401414Y-142080566D01*
X132411717Y-142114532D01*
X132415800Y-142155990D01*
X132415800Y-142832010D01*
X132411717Y-142873468D01*
X132401414Y-142907434D01*
X132384684Y-142938732D01*
X132362168Y-142966168D01*
X132334732Y-142988684D01*
X132303434Y-143005414D01*
X132269468Y-143015717D01*
X132228010Y-143019800D01*
X131626990Y-143019800D01*
X131585532Y-143015717D01*
X131551566Y-143005414D01*
X131520268Y-142988684D01*
X131492832Y-142966168D01*
X131470316Y-142938732D01*
X131453586Y-142907434D01*
X131443283Y-142873468D01*
X131439200Y-142832010D01*
X131439200Y-142155990D01*
X131443283Y-142114532D01*
X131453586Y-142080566D01*
X131470316Y-142049268D01*
X131492832Y-142021832D01*
X131520268Y-141999316D01*
X131551566Y-141982586D01*
X131585532Y-141972283D01*
X131626990Y-141968200D01*
X132228010Y-141968200D01*
X132269468Y-141972283D01*
X132269468Y-141972283D01*
G37*
G36*
X133844468Y-141972283D02*
X133878434Y-141982586D01*
X133909732Y-141999316D01*
X133937168Y-142021832D01*
X133959684Y-142049268D01*
X133976414Y-142080566D01*
X133986717Y-142114532D01*
X133990800Y-142155990D01*
X133990800Y-142832010D01*
X133986717Y-142873468D01*
X133976414Y-142907434D01*
X133959684Y-142938732D01*
X133937168Y-142966168D01*
X133909732Y-142988684D01*
X133878434Y-143005414D01*
X133844468Y-143015717D01*
X133803010Y-143019800D01*
X133201990Y-143019800D01*
X133160532Y-143015717D01*
X133126566Y-143005414D01*
X133095268Y-142988684D01*
X133067832Y-142966168D01*
X133045316Y-142938732D01*
X133028586Y-142907434D01*
X133018283Y-142873468D01*
X133014200Y-142832010D01*
X133014200Y-142155990D01*
X133018283Y-142114532D01*
X133028586Y-142080566D01*
X133045316Y-142049268D01*
X133067832Y-142021832D01*
X133095268Y-141999316D01*
X133126566Y-141982586D01*
X133160532Y-141972283D01*
X133201990Y-141968200D01*
X133803010Y-141968200D01*
X133844468Y-141972283D01*
X133844468Y-141972283D01*
G37*
G36*
X100386587Y-140592234D02*
X100479384Y-140620384D01*
X100556389Y-140643743D01*
X100712877Y-140727388D01*
X100850044Y-140839956D01*
X100933288Y-140941391D01*
X100962611Y-140977121D01*
X100962612Y-140977123D01*
X101046257Y-141133610D01*
X101057905Y-141172008D01*
X101097766Y-141303412D01*
X101110800Y-141435751D01*
X101110800Y-141774248D01*
X101097766Y-141906587D01*
X101046257Y-142076389D01*
X100962611Y-142232879D01*
X100962610Y-142232880D01*
X100850044Y-142370044D01*
X100768512Y-142436954D01*
X100712879Y-142482611D01*
X100712877Y-142482612D01*
X100556390Y-142566257D01*
X100515647Y-142578616D01*
X100386588Y-142617766D01*
X100210000Y-142635158D01*
X100033413Y-142617766D01*
X99904354Y-142578616D01*
X99863611Y-142566257D01*
X99707124Y-142482612D01*
X99707122Y-142482611D01*
X99569958Y-142370044D01*
X99569954Y-142370041D01*
X99457390Y-142232880D01*
X99451510Y-142221879D01*
X99394131Y-142114532D01*
X99373743Y-142076390D01*
X99323201Y-141909775D01*
X99322234Y-141906588D01*
X99309200Y-141774249D01*
X99309200Y-141435752D01*
X99322234Y-141303413D01*
X99373743Y-141133612D01*
X99373743Y-141133611D01*
X99457388Y-140977123D01*
X99569956Y-140839956D01*
X99678295Y-140751046D01*
X99707121Y-140727389D01*
X99784651Y-140685948D01*
X99863610Y-140643743D01*
X99940615Y-140620384D01*
X100033412Y-140592234D01*
X100210000Y-140574842D01*
X100386587Y-140592234D01*
X100386587Y-140592234D01*
G37*
G36*
X97886587Y-140592234D02*
X97979384Y-140620384D01*
X98056389Y-140643743D01*
X98212877Y-140727388D01*
X98350044Y-140839956D01*
X98433288Y-140941391D01*
X98462611Y-140977121D01*
X98462612Y-140977123D01*
X98546257Y-141133610D01*
X98557905Y-141172008D01*
X98597766Y-141303412D01*
X98610800Y-141435751D01*
X98610800Y-141774248D01*
X98597766Y-141906587D01*
X98546257Y-142076389D01*
X98462611Y-142232879D01*
X98462610Y-142232880D01*
X98350044Y-142370044D01*
X98268512Y-142436954D01*
X98212879Y-142482611D01*
X98212877Y-142482612D01*
X98056390Y-142566257D01*
X98015647Y-142578616D01*
X97886588Y-142617766D01*
X97710000Y-142635158D01*
X97533413Y-142617766D01*
X97404354Y-142578616D01*
X97363611Y-142566257D01*
X97207124Y-142482612D01*
X97207122Y-142482611D01*
X97069958Y-142370044D01*
X97069954Y-142370041D01*
X96957390Y-142232880D01*
X96951510Y-142221879D01*
X96894131Y-142114532D01*
X96873743Y-142076390D01*
X96823201Y-141909775D01*
X96822234Y-141906588D01*
X96809200Y-141774249D01*
X96809200Y-141435752D01*
X96822234Y-141303413D01*
X96873743Y-141133612D01*
X96873743Y-141133611D01*
X96957388Y-140977123D01*
X97069956Y-140839956D01*
X97178295Y-140751046D01*
X97207121Y-140727389D01*
X97284651Y-140685948D01*
X97363610Y-140643743D01*
X97440615Y-140620384D01*
X97533412Y-140592234D01*
X97710000Y-140574842D01*
X97886587Y-140592234D01*
X97886587Y-140592234D01*
G37*
G36*
X95386587Y-140592234D02*
X95479384Y-140620384D01*
X95556389Y-140643743D01*
X95712877Y-140727388D01*
X95850044Y-140839956D01*
X95933288Y-140941391D01*
X95962611Y-140977121D01*
X95962612Y-140977123D01*
X96046257Y-141133610D01*
X96057905Y-141172008D01*
X96097766Y-141303412D01*
X96110800Y-141435751D01*
X96110800Y-141774248D01*
X96097766Y-141906587D01*
X96046257Y-142076389D01*
X95962611Y-142232879D01*
X95962610Y-142232880D01*
X95850044Y-142370044D01*
X95768512Y-142436954D01*
X95712879Y-142482611D01*
X95712877Y-142482612D01*
X95556390Y-142566257D01*
X95515647Y-142578616D01*
X95386588Y-142617766D01*
X95210000Y-142635158D01*
X95033413Y-142617766D01*
X94904354Y-142578616D01*
X94863611Y-142566257D01*
X94707124Y-142482612D01*
X94707122Y-142482611D01*
X94569958Y-142370044D01*
X94569954Y-142370041D01*
X94457390Y-142232880D01*
X94451510Y-142221879D01*
X94394131Y-142114532D01*
X94373743Y-142076390D01*
X94323201Y-141909775D01*
X94322234Y-141906588D01*
X94309200Y-141774249D01*
X94309200Y-141435752D01*
X94322234Y-141303413D01*
X94373743Y-141133612D01*
X94373743Y-141133611D01*
X94457388Y-140977123D01*
X94569956Y-140839956D01*
X94678295Y-140751046D01*
X94707121Y-140727389D01*
X94784651Y-140685948D01*
X94863610Y-140643743D01*
X94940615Y-140620384D01*
X95033412Y-140592234D01*
X95210000Y-140574842D01*
X95386587Y-140592234D01*
X95386587Y-140592234D01*
G37*
G36*
X102886587Y-140592234D02*
X102979384Y-140620384D01*
X103056389Y-140643743D01*
X103212877Y-140727388D01*
X103350044Y-140839956D01*
X103433288Y-140941391D01*
X103462611Y-140977121D01*
X103462612Y-140977123D01*
X103546257Y-141133610D01*
X103557905Y-141172008D01*
X103597766Y-141303412D01*
X103610800Y-141435751D01*
X103610800Y-141774248D01*
X103597766Y-141906587D01*
X103546257Y-142076389D01*
X103462611Y-142232879D01*
X103462610Y-142232880D01*
X103350044Y-142370044D01*
X103268512Y-142436954D01*
X103212879Y-142482611D01*
X103212877Y-142482612D01*
X103056390Y-142566257D01*
X103015647Y-142578616D01*
X102886588Y-142617766D01*
X102710000Y-142635158D01*
X102533413Y-142617766D01*
X102404354Y-142578616D01*
X102363611Y-142566257D01*
X102207124Y-142482612D01*
X102207122Y-142482611D01*
X102069958Y-142370044D01*
X102069954Y-142370041D01*
X101957390Y-142232880D01*
X101951510Y-142221879D01*
X101894131Y-142114532D01*
X101873743Y-142076390D01*
X101823201Y-141909775D01*
X101822234Y-141906588D01*
X101809200Y-141774249D01*
X101809200Y-141435752D01*
X101822234Y-141303413D01*
X101873743Y-141133612D01*
X101873743Y-141133611D01*
X101957388Y-140977123D01*
X102069956Y-140839956D01*
X102178295Y-140751046D01*
X102207121Y-140727389D01*
X102284651Y-140685948D01*
X102363610Y-140643743D01*
X102440615Y-140620384D01*
X102533412Y-140592234D01*
X102710000Y-140574842D01*
X102886587Y-140592234D01*
X102886587Y-140592234D01*
G37*
G36*
X93468451Y-140583188D02*
X93501483Y-140593208D01*
X93531929Y-140609483D01*
X93558616Y-140631384D01*
X93580517Y-140658071D01*
X93596792Y-140688517D01*
X93606812Y-140721549D01*
X93610800Y-140762046D01*
X93610800Y-142447954D01*
X93606812Y-142488451D01*
X93596792Y-142521483D01*
X93580517Y-142551929D01*
X93558616Y-142578616D01*
X93531929Y-142600517D01*
X93501483Y-142616792D01*
X93468451Y-142626812D01*
X93427954Y-142630800D01*
X91992046Y-142630800D01*
X91951549Y-142626812D01*
X91918517Y-142616792D01*
X91888071Y-142600517D01*
X91861384Y-142578616D01*
X91839483Y-142551929D01*
X91823208Y-142521483D01*
X91813188Y-142488451D01*
X91809200Y-142447954D01*
X91809200Y-140762046D01*
X91813188Y-140721549D01*
X91823208Y-140688517D01*
X91839483Y-140658071D01*
X91861384Y-140631384D01*
X91888071Y-140609483D01*
X91918517Y-140593208D01*
X91951549Y-140583188D01*
X91992046Y-140579200D01*
X93427954Y-140579200D01*
X93468451Y-140583188D01*
X93468451Y-140583188D01*
G37*
G36*
X83741587Y-140581234D02*
X83845813Y-140612851D01*
X83911389Y-140632743D01*
X84067877Y-140716388D01*
X84205044Y-140828956D01*
X84288288Y-140930391D01*
X84317611Y-140966121D01*
X84317612Y-140966123D01*
X84401257Y-141122610D01*
X84404594Y-141133610D01*
X84452766Y-141292412D01*
X84465800Y-141424751D01*
X84465800Y-141763248D01*
X84452766Y-141895587D01*
X84401257Y-142065389D01*
X84317611Y-142221879D01*
X84288288Y-142257609D01*
X84205044Y-142359044D01*
X84110109Y-142436954D01*
X84067879Y-142471611D01*
X84067877Y-142471612D01*
X83911390Y-142555257D01*
X83870647Y-142567616D01*
X83741588Y-142606766D01*
X83565000Y-142624158D01*
X83388413Y-142606766D01*
X83259354Y-142567616D01*
X83218611Y-142555257D01*
X83062124Y-142471612D01*
X83062122Y-142471611D01*
X82982392Y-142406179D01*
X82924954Y-142359041D01*
X82821417Y-142232880D01*
X82812389Y-142221879D01*
X82757355Y-142118918D01*
X82728743Y-142065390D01*
X82700684Y-141972891D01*
X82677234Y-141895588D01*
X82664200Y-141763249D01*
X82664200Y-141424752D01*
X82677234Y-141292413D01*
X82728743Y-141122612D01*
X82728743Y-141122611D01*
X82812388Y-140966123D01*
X82924956Y-140828956D01*
X83029998Y-140742752D01*
X83062121Y-140716389D01*
X83098492Y-140696948D01*
X83218610Y-140632743D01*
X83284186Y-140612851D01*
X83388412Y-140581234D01*
X83565000Y-140563842D01*
X83741587Y-140581234D01*
X83741587Y-140581234D01*
G37*
G36*
X78741587Y-140581234D02*
X78845813Y-140612851D01*
X78911389Y-140632743D01*
X79067877Y-140716388D01*
X79205044Y-140828956D01*
X79288288Y-140930391D01*
X79317611Y-140966121D01*
X79317612Y-140966123D01*
X79401257Y-141122610D01*
X79404594Y-141133610D01*
X79452766Y-141292412D01*
X79465800Y-141424751D01*
X79465800Y-141763248D01*
X79452766Y-141895587D01*
X79401257Y-142065389D01*
X79317611Y-142221879D01*
X79288288Y-142257609D01*
X79205044Y-142359044D01*
X79110109Y-142436954D01*
X79067879Y-142471611D01*
X79067877Y-142471612D01*
X78911390Y-142555257D01*
X78870647Y-142567616D01*
X78741588Y-142606766D01*
X78565000Y-142624158D01*
X78388413Y-142606766D01*
X78259354Y-142567616D01*
X78218611Y-142555257D01*
X78062124Y-142471612D01*
X78062122Y-142471611D01*
X77982392Y-142406179D01*
X77924954Y-142359041D01*
X77821417Y-142232880D01*
X77812389Y-142221879D01*
X77757355Y-142118918D01*
X77728743Y-142065390D01*
X77700684Y-141972891D01*
X77677234Y-141895588D01*
X77664200Y-141763249D01*
X77664200Y-141424752D01*
X77677234Y-141292413D01*
X77728743Y-141122612D01*
X77728743Y-141122611D01*
X77812388Y-140966123D01*
X77924956Y-140828956D01*
X78029998Y-140742752D01*
X78062121Y-140716389D01*
X78098492Y-140696948D01*
X78218610Y-140632743D01*
X78284186Y-140612851D01*
X78388412Y-140581234D01*
X78565000Y-140563842D01*
X78741587Y-140581234D01*
X78741587Y-140581234D01*
G37*
G36*
X86241587Y-140581234D02*
X86345813Y-140612851D01*
X86411389Y-140632743D01*
X86567877Y-140716388D01*
X86705044Y-140828956D01*
X86788288Y-140930391D01*
X86817611Y-140966121D01*
X86817612Y-140966123D01*
X86901257Y-141122610D01*
X86904594Y-141133610D01*
X86952766Y-141292412D01*
X86965800Y-141424751D01*
X86965800Y-141763248D01*
X86952766Y-141895587D01*
X86901257Y-142065389D01*
X86817611Y-142221879D01*
X86788288Y-142257609D01*
X86705044Y-142359044D01*
X86610109Y-142436954D01*
X86567879Y-142471611D01*
X86567877Y-142471612D01*
X86411390Y-142555257D01*
X86370647Y-142567616D01*
X86241588Y-142606766D01*
X86065000Y-142624158D01*
X85888413Y-142606766D01*
X85759354Y-142567616D01*
X85718611Y-142555257D01*
X85562124Y-142471612D01*
X85562122Y-142471611D01*
X85482392Y-142406179D01*
X85424954Y-142359041D01*
X85321417Y-142232880D01*
X85312389Y-142221879D01*
X85257355Y-142118918D01*
X85228743Y-142065390D01*
X85200684Y-141972891D01*
X85177234Y-141895588D01*
X85164200Y-141763249D01*
X85164200Y-141424752D01*
X85177234Y-141292413D01*
X85228743Y-141122612D01*
X85228743Y-141122611D01*
X85312388Y-140966123D01*
X85424956Y-140828956D01*
X85529998Y-140742752D01*
X85562121Y-140716389D01*
X85598492Y-140696948D01*
X85718610Y-140632743D01*
X85784186Y-140612851D01*
X85888412Y-140581234D01*
X86065000Y-140563842D01*
X86241587Y-140581234D01*
X86241587Y-140581234D01*
G37*
G36*
X81241587Y-140581234D02*
X81345813Y-140612851D01*
X81411389Y-140632743D01*
X81567877Y-140716388D01*
X81705044Y-140828956D01*
X81788288Y-140930391D01*
X81817611Y-140966121D01*
X81817612Y-140966123D01*
X81901257Y-141122610D01*
X81904594Y-141133610D01*
X81952766Y-141292412D01*
X81965800Y-141424751D01*
X81965800Y-141763248D01*
X81952766Y-141895587D01*
X81901257Y-142065389D01*
X81817611Y-142221879D01*
X81788288Y-142257609D01*
X81705044Y-142359044D01*
X81610109Y-142436954D01*
X81567879Y-142471611D01*
X81567877Y-142471612D01*
X81411390Y-142555257D01*
X81370647Y-142567616D01*
X81241588Y-142606766D01*
X81065000Y-142624158D01*
X80888413Y-142606766D01*
X80759354Y-142567616D01*
X80718611Y-142555257D01*
X80562124Y-142471612D01*
X80562122Y-142471611D01*
X80482392Y-142406179D01*
X80424954Y-142359041D01*
X80321417Y-142232880D01*
X80312389Y-142221879D01*
X80257355Y-142118918D01*
X80228743Y-142065390D01*
X80200684Y-141972891D01*
X80177234Y-141895588D01*
X80164200Y-141763249D01*
X80164200Y-141424752D01*
X80177234Y-141292413D01*
X80228743Y-141122612D01*
X80228743Y-141122611D01*
X80312388Y-140966123D01*
X80424956Y-140828956D01*
X80529998Y-140742752D01*
X80562121Y-140716389D01*
X80598492Y-140696948D01*
X80718610Y-140632743D01*
X80784186Y-140612851D01*
X80888412Y-140581234D01*
X81065000Y-140563842D01*
X81241587Y-140581234D01*
X81241587Y-140581234D01*
G37*
G36*
X76823451Y-140572188D02*
X76856483Y-140582208D01*
X76886929Y-140598483D01*
X76913616Y-140620384D01*
X76935517Y-140647071D01*
X76951792Y-140677517D01*
X76961812Y-140710549D01*
X76965800Y-140751046D01*
X76965800Y-142436954D01*
X76961812Y-142477451D01*
X76951792Y-142510483D01*
X76935517Y-142540929D01*
X76913616Y-142567616D01*
X76886929Y-142589517D01*
X76856483Y-142605792D01*
X76823451Y-142615812D01*
X76782954Y-142619800D01*
X75347046Y-142619800D01*
X75306549Y-142615812D01*
X75273517Y-142605792D01*
X75243071Y-142589517D01*
X75216384Y-142567616D01*
X75194483Y-142540929D01*
X75178208Y-142510483D01*
X75168188Y-142477451D01*
X75164200Y-142436954D01*
X75164200Y-140751046D01*
X75168188Y-140710549D01*
X75178208Y-140677517D01*
X75194483Y-140647071D01*
X75216384Y-140620384D01*
X75243071Y-140598483D01*
X75273517Y-140582208D01*
X75306549Y-140572188D01*
X75347046Y-140568200D01*
X76782954Y-140568200D01*
X76823451Y-140572188D01*
X76823451Y-140572188D01*
G37*
G36*
X122971800Y-142082800D02*
X120870200Y-142082800D01*
X120870200Y-141381200D01*
X122971800Y-141381200D01*
X122971800Y-142082800D01*
X122971800Y-142082800D01*
G37*
G36*
X113571800Y-142082800D02*
X111470200Y-142082800D01*
X111470200Y-141381200D01*
X113571800Y-141381200D01*
X113571800Y-142082800D01*
X113571800Y-142082800D01*
G37*
G36*
X109458800Y-141982800D02*
X107457200Y-141982800D01*
X107457200Y-141481200D01*
X109458800Y-141481200D01*
X109458800Y-141982800D01*
X109458800Y-141982800D01*
G37*
G36*
X133700800Y-141159800D02*
X132999200Y-141159800D01*
X132999200Y-139508200D01*
X133700800Y-139508200D01*
X133700800Y-141159800D01*
X133700800Y-141159800D01*
G37*
G36*
X129890800Y-141159800D02*
X129189200Y-141159800D01*
X129189200Y-139508200D01*
X129890800Y-139508200D01*
X129890800Y-141159800D01*
X129890800Y-141159800D01*
G37*
G36*
X131160800Y-141159800D02*
X130459200Y-141159800D01*
X130459200Y-139508200D01*
X131160800Y-139508200D01*
X131160800Y-141159800D01*
X131160800Y-141159800D01*
G37*
G36*
X132430800Y-141159800D02*
X131729200Y-141159800D01*
X131729200Y-139508200D01*
X132430800Y-139508200D01*
X132430800Y-141159800D01*
X132430800Y-141159800D01*
G37*
G36*
X113571800Y-140812800D02*
X111470200Y-140812800D01*
X111470200Y-140111200D01*
X113571800Y-140111200D01*
X113571800Y-140812800D01*
X113571800Y-140812800D01*
G37*
G36*
X122971800Y-140812800D02*
X120870200Y-140812800D01*
X120870200Y-140111200D01*
X122971800Y-140111200D01*
X122971800Y-140812800D01*
X122971800Y-140812800D01*
G37*
G36*
X109458800Y-140782800D02*
X107457200Y-140782800D01*
X107457200Y-140281200D01*
X109458800Y-140281200D01*
X109458800Y-140782800D01*
X109458800Y-140782800D01*
G37*
G36*
X91299829Y-138979209D02*
X91299832Y-138979210D01*
X91299831Y-138979210D01*
X91418269Y-139028268D01*
X91418270Y-139028269D01*
X91524864Y-139099493D01*
X91615507Y-139190136D01*
X91615509Y-139190139D01*
X91686732Y-139296731D01*
X91711681Y-139356965D01*
X91735791Y-139415171D01*
X91760800Y-139540900D01*
X91760800Y-139669100D01*
X91735791Y-139794829D01*
X91735790Y-139794831D01*
X91686732Y-139913269D01*
X91686731Y-139913270D01*
X91615507Y-140019864D01*
X91524864Y-140110507D01*
X91524861Y-140110509D01*
X91418269Y-140181732D01*
X91326662Y-140219676D01*
X91299829Y-140230791D01*
X91174100Y-140255800D01*
X91045900Y-140255800D01*
X90920171Y-140230791D01*
X90893338Y-140219676D01*
X90801731Y-140181732D01*
X90695139Y-140110509D01*
X90695136Y-140110507D01*
X90604493Y-140019864D01*
X90533269Y-139913270D01*
X90533268Y-139913269D01*
X90484210Y-139794831D01*
X90484209Y-139794829D01*
X90459200Y-139669100D01*
X90459200Y-139540900D01*
X90484209Y-139415171D01*
X90508319Y-139356965D01*
X90533268Y-139296731D01*
X90604491Y-139190139D01*
X90604493Y-139190136D01*
X90695136Y-139099493D01*
X90801730Y-139028269D01*
X90801731Y-139028268D01*
X90920169Y-138979210D01*
X90920168Y-138979210D01*
X90920171Y-138979209D01*
X91045900Y-138954200D01*
X91174100Y-138954200D01*
X91299829Y-138979209D01*
X91299829Y-138979209D01*
G37*
G36*
X74654829Y-138968209D02*
X74654832Y-138968210D01*
X74654831Y-138968210D01*
X74773269Y-139017268D01*
X74789733Y-139028269D01*
X74879864Y-139088493D01*
X74970507Y-139179136D01*
X74970509Y-139179139D01*
X75041732Y-139285731D01*
X75046288Y-139296731D01*
X75090791Y-139404171D01*
X75115800Y-139529900D01*
X75115800Y-139658100D01*
X75090791Y-139783829D01*
X75090790Y-139783831D01*
X75041732Y-139902269D01*
X75041731Y-139902270D01*
X74970507Y-140008864D01*
X74879864Y-140099507D01*
X74879861Y-140099509D01*
X74773269Y-140170732D01*
X74681662Y-140208676D01*
X74654829Y-140219791D01*
X74529100Y-140244800D01*
X74400900Y-140244800D01*
X74275171Y-140219791D01*
X74248338Y-140208676D01*
X74156731Y-140170732D01*
X74050139Y-140099509D01*
X74050136Y-140099507D01*
X73959493Y-140008864D01*
X73888269Y-139902270D01*
X73888268Y-139902269D01*
X73839210Y-139783831D01*
X73839209Y-139783829D01*
X73814200Y-139658100D01*
X73814200Y-139529900D01*
X73839209Y-139404171D01*
X73883712Y-139296731D01*
X73888268Y-139285731D01*
X73959491Y-139179139D01*
X73959493Y-139179136D01*
X74050136Y-139088493D01*
X74140267Y-139028269D01*
X74156731Y-139017268D01*
X74275169Y-138968210D01*
X74275168Y-138968210D01*
X74275171Y-138968209D01*
X74400900Y-138943200D01*
X74529100Y-138943200D01*
X74654829Y-138968209D01*
X74654829Y-138968209D01*
G37*
G36*
X122971800Y-139542800D02*
X120870200Y-139542800D01*
X120870200Y-138841200D01*
X122971800Y-138841200D01*
X122971800Y-139542800D01*
X122971800Y-139542800D01*
G37*
G36*
X113571800Y-139542800D02*
X111470200Y-139542800D01*
X111470200Y-138841200D01*
X113571800Y-138841200D01*
X113571800Y-139542800D01*
X113571800Y-139542800D01*
G37*
G36*
X179209725Y-136655034D02*
X179468120Y-136733418D01*
X179706261Y-136860706D01*
X179914992Y-137032008D01*
X180086294Y-137240739D01*
X180213582Y-137478880D01*
X180291966Y-137737275D01*
X180318432Y-138006000D01*
X180291966Y-138274725D01*
X180213582Y-138533120D01*
X180086294Y-138771261D01*
X179914992Y-138979992D01*
X179706261Y-139151294D01*
X179468120Y-139278582D01*
X179209725Y-139356966D01*
X179008340Y-139376800D01*
X178213660Y-139376800D01*
X178012275Y-139356966D01*
X177753880Y-139278582D01*
X177515739Y-139151294D01*
X177307008Y-138979992D01*
X177135706Y-138771261D01*
X177008418Y-138533120D01*
X176930034Y-138274725D01*
X176903568Y-138006000D01*
X176930034Y-137737275D01*
X177008418Y-137478880D01*
X177135706Y-137240739D01*
X177307008Y-137032008D01*
X177515739Y-136860706D01*
X177753880Y-136733418D01*
X178012275Y-136655034D01*
X178213660Y-136635200D01*
X179008340Y-136635200D01*
X179209725Y-136655034D01*
X179209725Y-136655034D01*
G37*
G36*
X165239725Y-136655034D02*
X165498120Y-136733418D01*
X165736261Y-136860706D01*
X165944992Y-137032008D01*
X166116294Y-137240739D01*
X166243582Y-137478880D01*
X166321966Y-137737275D01*
X166348432Y-138006000D01*
X166321966Y-138274725D01*
X166243582Y-138533120D01*
X166116294Y-138771261D01*
X165944992Y-138979992D01*
X165736261Y-139151294D01*
X165498120Y-139278582D01*
X165239725Y-139356966D01*
X165038340Y-139376800D01*
X164243660Y-139376800D01*
X164042275Y-139356966D01*
X163783880Y-139278582D01*
X163545739Y-139151294D01*
X163337008Y-138979992D01*
X163165706Y-138771261D01*
X163038418Y-138533120D01*
X162960034Y-138274725D01*
X162933568Y-138006000D01*
X162960034Y-137737275D01*
X163038418Y-137478880D01*
X163165706Y-137240739D01*
X163337008Y-137032008D01*
X163545739Y-136860706D01*
X163783880Y-136733418D01*
X164042275Y-136655034D01*
X164243660Y-136635200D01*
X165038340Y-136635200D01*
X165239725Y-136655034D01*
X165239725Y-136655034D01*
G37*
G36*
X122971800Y-138272800D02*
X120870200Y-138272800D01*
X120870200Y-137571200D01*
X122971800Y-137571200D01*
X122971800Y-138272800D01*
X122971800Y-138272800D01*
G37*
G36*
X113571800Y-138272800D02*
X111470200Y-138272800D01*
X111470200Y-137571200D01*
X113571800Y-137571200D01*
X113571800Y-138272800D01*
X113571800Y-138272800D01*
G37*
G36*
X113571800Y-137002800D02*
X111470200Y-137002800D01*
X111470200Y-136301200D01*
X113571800Y-136301200D01*
X113571800Y-137002800D01*
X113571800Y-137002800D01*
G37*
G36*
X122971800Y-137002800D02*
X120870200Y-137002800D01*
X120870200Y-136301200D01*
X122971800Y-136301200D01*
X122971800Y-137002800D01*
X122971800Y-137002800D01*
G37*
G36*
X132430800Y-135759800D02*
X131729200Y-135759800D01*
X131729200Y-134108200D01*
X132430800Y-134108200D01*
X132430800Y-135759800D01*
X132430800Y-135759800D01*
G37*
G36*
X133700800Y-135759800D02*
X132999200Y-135759800D01*
X132999200Y-134108200D01*
X133700800Y-134108200D01*
X133700800Y-135759800D01*
X133700800Y-135759800D01*
G37*
G36*
X129890800Y-135759800D02*
X129189200Y-135759800D01*
X129189200Y-134108200D01*
X129890800Y-134108200D01*
X129890800Y-135759800D01*
X129890800Y-135759800D01*
G37*
G36*
X131160800Y-135759800D02*
X130459200Y-135759800D01*
X130459200Y-134108200D01*
X131160800Y-134108200D01*
X131160800Y-135759800D01*
X131160800Y-135759800D01*
G37*
G36*
X122971800Y-135732800D02*
X120870200Y-135732800D01*
X120870200Y-135031200D01*
X122971800Y-135031200D01*
X122971800Y-135732800D01*
X122971800Y-135732800D01*
G37*
G36*
X113571800Y-135732800D02*
X111470200Y-135732800D01*
X111470200Y-135031200D01*
X113571800Y-135031200D01*
X113571800Y-135732800D01*
X113571800Y-135732800D01*
G37*
G36*
X124712468Y-134669283D02*
X124746434Y-134679586D01*
X124777732Y-134696316D01*
X124805168Y-134718832D01*
X124827684Y-134746268D01*
X124844414Y-134777566D01*
X124854717Y-134811532D01*
X124858800Y-134852990D01*
X124858800Y-135454010D01*
X124854717Y-135495468D01*
X124844414Y-135529434D01*
X124827684Y-135560732D01*
X124805168Y-135588168D01*
X124777732Y-135610684D01*
X124746434Y-135627414D01*
X124712468Y-135637717D01*
X124671010Y-135641800D01*
X123994990Y-135641800D01*
X123953532Y-135637717D01*
X123919566Y-135627414D01*
X123888268Y-135610684D01*
X123860832Y-135588168D01*
X123838316Y-135560732D01*
X123821586Y-135529434D01*
X123811283Y-135495468D01*
X123807200Y-135454010D01*
X123807200Y-134852990D01*
X123811283Y-134811532D01*
X123821586Y-134777566D01*
X123838316Y-134746268D01*
X123860832Y-134718832D01*
X123888268Y-134696316D01*
X123919566Y-134679586D01*
X123953532Y-134669283D01*
X123994990Y-134665200D01*
X124671010Y-134665200D01*
X124712468Y-134669283D01*
X124712468Y-134669283D01*
G37*
G36*
X180311800Y-135236800D02*
X176910200Y-135236800D01*
X176910200Y-132495200D01*
X180311800Y-132495200D01*
X180311800Y-135236800D01*
X180311800Y-135236800D01*
G37*
G36*
X166341800Y-135236800D02*
X162940200Y-135236800D01*
X162940200Y-132495200D01*
X166341800Y-132495200D01*
X166341800Y-135236800D01*
X166341800Y-135236800D01*
G37*
G36*
X122971800Y-134462800D02*
X120870200Y-134462800D01*
X120870200Y-133761200D01*
X122971800Y-133761200D01*
X122971800Y-134462800D01*
X122971800Y-134462800D01*
G37*
G36*
X113571800Y-134462800D02*
X111470200Y-134462800D01*
X111470200Y-133761200D01*
X113571800Y-133761200D01*
X113571800Y-134462800D01*
X113571800Y-134462800D01*
G37*
G36*
X124712468Y-133094283D02*
X124746434Y-133104586D01*
X124777732Y-133121316D01*
X124805168Y-133143832D01*
X124827684Y-133171268D01*
X124844414Y-133202566D01*
X124854717Y-133236532D01*
X124858800Y-133277990D01*
X124858800Y-133879010D01*
X124854717Y-133920468D01*
X124844414Y-133954434D01*
X124827684Y-133985732D01*
X124805168Y-134013168D01*
X124777732Y-134035684D01*
X124746434Y-134052414D01*
X124712468Y-134062717D01*
X124671010Y-134066800D01*
X123994990Y-134066800D01*
X123953532Y-134062717D01*
X123919566Y-134052414D01*
X123888268Y-134035684D01*
X123860832Y-134013168D01*
X123838316Y-133985732D01*
X123821586Y-133954434D01*
X123811283Y-133920468D01*
X123807200Y-133879010D01*
X123807200Y-133277990D01*
X123811283Y-133236532D01*
X123821586Y-133202566D01*
X123838316Y-133171268D01*
X123860832Y-133143832D01*
X123888268Y-133121316D01*
X123919566Y-133104586D01*
X123953532Y-133094283D01*
X123994990Y-133090200D01*
X124671010Y-133090200D01*
X124712468Y-133094283D01*
X124712468Y-133094283D01*
G37*
G36*
X131939468Y-131812283D02*
X131973434Y-131822586D01*
X132004732Y-131839316D01*
X132032168Y-131861832D01*
X132054684Y-131889268D01*
X132071414Y-131920566D01*
X132081717Y-131954532D01*
X132085800Y-131995990D01*
X132085800Y-132672010D01*
X132081717Y-132713468D01*
X132071414Y-132747434D01*
X132054684Y-132778732D01*
X132032168Y-132806168D01*
X132004732Y-132828684D01*
X131973434Y-132845414D01*
X131939468Y-132855717D01*
X131898010Y-132859800D01*
X131296990Y-132859800D01*
X131255532Y-132855717D01*
X131221566Y-132845414D01*
X131190268Y-132828684D01*
X131162832Y-132806168D01*
X131140316Y-132778732D01*
X131123586Y-132747434D01*
X131113283Y-132713468D01*
X131109200Y-132672010D01*
X131109200Y-131995990D01*
X131113283Y-131954532D01*
X131123586Y-131920566D01*
X131140316Y-131889268D01*
X131162832Y-131861832D01*
X131190268Y-131839316D01*
X131221566Y-131822586D01*
X131255532Y-131812283D01*
X131296990Y-131808200D01*
X131898010Y-131808200D01*
X131939468Y-131812283D01*
X131939468Y-131812283D01*
G37*
G36*
X130364468Y-131812283D02*
X130398434Y-131822586D01*
X130429732Y-131839316D01*
X130457168Y-131861832D01*
X130479684Y-131889268D01*
X130496414Y-131920566D01*
X130506717Y-131954532D01*
X130510800Y-131995990D01*
X130510800Y-132672010D01*
X130506717Y-132713468D01*
X130496414Y-132747434D01*
X130479684Y-132778732D01*
X130457168Y-132806168D01*
X130429732Y-132828684D01*
X130398434Y-132845414D01*
X130364468Y-132855717D01*
X130323010Y-132859800D01*
X129721990Y-132859800D01*
X129680532Y-132855717D01*
X129646566Y-132845414D01*
X129615268Y-132828684D01*
X129587832Y-132806168D01*
X129565316Y-132778732D01*
X129548586Y-132747434D01*
X129538283Y-132713468D01*
X129534200Y-132672010D01*
X129534200Y-131995990D01*
X129538283Y-131954532D01*
X129548586Y-131920566D01*
X129565316Y-131889268D01*
X129587832Y-131861832D01*
X129615268Y-131839316D01*
X129646566Y-131822586D01*
X129680532Y-131812283D01*
X129721990Y-131808200D01*
X130323010Y-131808200D01*
X130364468Y-131812283D01*
X130364468Y-131812283D01*
G37*
G36*
X122426468Y-131367283D02*
X122460434Y-131377586D01*
X122491732Y-131394316D01*
X122519168Y-131416832D01*
X122541684Y-131444268D01*
X122558414Y-131475566D01*
X122568717Y-131509532D01*
X122572800Y-131550990D01*
X122572800Y-132152010D01*
X122568717Y-132193468D01*
X122558414Y-132227434D01*
X122541684Y-132258732D01*
X122519168Y-132286168D01*
X122491732Y-132308684D01*
X122460434Y-132325414D01*
X122426468Y-132335717D01*
X122385010Y-132339800D01*
X121708990Y-132339800D01*
X121667532Y-132335717D01*
X121633566Y-132325414D01*
X121602268Y-132308684D01*
X121574832Y-132286168D01*
X121552316Y-132258732D01*
X121535586Y-132227434D01*
X121525283Y-132193468D01*
X121521200Y-132152010D01*
X121521200Y-131550990D01*
X121525283Y-131509532D01*
X121535586Y-131475566D01*
X121552316Y-131444268D01*
X121574832Y-131416832D01*
X121602268Y-131394316D01*
X121633566Y-131377586D01*
X121667532Y-131367283D01*
X121708990Y-131363200D01*
X122385010Y-131363200D01*
X122426468Y-131367283D01*
X122426468Y-131367283D01*
G37*
G36*
X122426468Y-129792283D02*
X122460434Y-129802586D01*
X122491732Y-129819316D01*
X122519168Y-129841832D01*
X122541684Y-129869268D01*
X122558414Y-129900566D01*
X122568717Y-129934532D01*
X122572800Y-129975990D01*
X122572800Y-130577010D01*
X122568717Y-130618468D01*
X122558414Y-130652434D01*
X122541684Y-130683732D01*
X122519168Y-130711168D01*
X122491732Y-130733684D01*
X122460434Y-130750414D01*
X122426468Y-130760717D01*
X122385010Y-130764800D01*
X121708990Y-130764800D01*
X121667532Y-130760717D01*
X121633566Y-130750414D01*
X121602268Y-130733684D01*
X121574832Y-130711168D01*
X121552316Y-130683732D01*
X121535586Y-130652434D01*
X121525283Y-130618468D01*
X121521200Y-130577010D01*
X121521200Y-129975990D01*
X121525283Y-129934532D01*
X121535586Y-129900566D01*
X121552316Y-129869268D01*
X121574832Y-129841832D01*
X121602268Y-129819316D01*
X121633566Y-129802586D01*
X121667532Y-129792283D01*
X121708990Y-129788200D01*
X122385010Y-129788200D01*
X122426468Y-129792283D01*
X122426468Y-129792283D01*
G37*
G36*
X185773352Y-127294796D02*
X186055579Y-127411699D01*
X186309578Y-127581415D01*
X186525585Y-127797422D01*
X186695301Y-128051421D01*
X186812204Y-128333648D01*
X186871800Y-128633259D01*
X186871800Y-128938741D01*
X186812204Y-129238352D01*
X186695301Y-129520579D01*
X186525585Y-129774578D01*
X186309578Y-129990585D01*
X186055579Y-130160301D01*
X185773352Y-130277204D01*
X185473741Y-130336800D01*
X185168259Y-130336800D01*
X184868648Y-130277204D01*
X184586421Y-130160301D01*
X184332422Y-129990585D01*
X184116415Y-129774578D01*
X183946699Y-129520579D01*
X183829796Y-129238352D01*
X183770200Y-128938741D01*
X183770200Y-128633259D01*
X183829796Y-128333648D01*
X183946699Y-128051421D01*
X184116415Y-127797422D01*
X184332422Y-127581415D01*
X184586421Y-127411699D01*
X184868648Y-127294796D01*
X185168259Y-127235200D01*
X185473741Y-127235200D01*
X185773352Y-127294796D01*
X185773352Y-127294796D01*
G37*
G36*
X208273352Y-127294796D02*
X208555579Y-127411699D01*
X208809578Y-127581415D01*
X209025585Y-127797422D01*
X209195301Y-128051421D01*
X209312204Y-128333648D01*
X209371800Y-128633259D01*
X209371800Y-128938741D01*
X209312204Y-129238352D01*
X209195301Y-129520579D01*
X209025585Y-129774578D01*
X208809578Y-129990585D01*
X208555579Y-130160301D01*
X208273352Y-130277204D01*
X207973741Y-130336800D01*
X207668259Y-130336800D01*
X207368648Y-130277204D01*
X207086421Y-130160301D01*
X206832422Y-129990585D01*
X206616415Y-129774578D01*
X206446699Y-129520579D01*
X206329796Y-129238352D01*
X206270200Y-128938741D01*
X206270200Y-128633259D01*
X206329796Y-128333648D01*
X206446699Y-128051421D01*
X206616415Y-127797422D01*
X206832422Y-127581415D01*
X207086421Y-127411699D01*
X207368648Y-127294796D01*
X207668259Y-127235200D01*
X207973741Y-127235200D01*
X208273352Y-127294796D01*
X208273352Y-127294796D01*
G37*
G36*
X196979597Y-127439031D02*
X197188081Y-127525388D01*
X197234528Y-127544627D01*
X197463958Y-127697927D01*
X197659073Y-127893042D01*
X197812373Y-128122472D01*
X197917969Y-128377403D01*
X197971800Y-128648032D01*
X197971800Y-128923968D01*
X197917969Y-129194597D01*
X197899845Y-129238352D01*
X197812373Y-129449528D01*
X197659073Y-129678958D01*
X197463958Y-129874073D01*
X197289585Y-129990585D01*
X197234528Y-130027373D01*
X196979597Y-130132969D01*
X196708968Y-130186800D01*
X196433032Y-130186800D01*
X196162403Y-130132969D01*
X195907472Y-130027373D01*
X195852415Y-129990585D01*
X195678042Y-129874073D01*
X195482927Y-129678958D01*
X195329627Y-129449528D01*
X195242155Y-129238352D01*
X195224031Y-129194597D01*
X195170200Y-128923968D01*
X195170200Y-128648032D01*
X195224031Y-128377403D01*
X195329627Y-128122472D01*
X195482927Y-127893042D01*
X195678042Y-127697927D01*
X195907472Y-127544627D01*
X195953919Y-127525388D01*
X196162403Y-127439031D01*
X196433032Y-127385200D01*
X196708968Y-127385200D01*
X196979597Y-127439031D01*
X196979597Y-127439031D01*
G37*
G36*
X93350800Y-129799800D02*
X87099200Y-129799800D01*
X87099200Y-128098200D01*
X93350800Y-128098200D01*
X93350800Y-129799800D01*
X93350800Y-129799800D01*
G37*
G36*
X78927800Y-129178800D02*
X77126200Y-129178800D01*
X77126200Y-127377200D01*
X78927800Y-127377200D01*
X78927800Y-129178800D01*
X78927800Y-129178800D01*
G37*
G36*
X80655362Y-127381545D02*
X80743588Y-127390234D01*
X80856789Y-127424573D01*
X80913390Y-127441743D01*
X81051980Y-127515822D01*
X81069879Y-127525389D01*
X81093320Y-127544627D01*
X81207044Y-127637956D01*
X81256262Y-127697930D01*
X81319611Y-127775121D01*
X81319612Y-127775123D01*
X81403257Y-127931610D01*
X81403257Y-127931611D01*
X81454766Y-128101412D01*
X81472158Y-128278000D01*
X81454766Y-128454588D01*
X81420427Y-128567789D01*
X81403257Y-128624390D01*
X81390619Y-128648033D01*
X81319611Y-128780879D01*
X81290288Y-128816609D01*
X81207044Y-128918044D01*
X81105609Y-129001288D01*
X81069879Y-129030611D01*
X81069877Y-129030612D01*
X80913390Y-129114257D01*
X80856789Y-129131427D01*
X80743588Y-129165766D01*
X80655362Y-129174455D01*
X80611250Y-129178800D01*
X80522750Y-129178800D01*
X80478638Y-129174455D01*
X80390412Y-129165766D01*
X80277211Y-129131427D01*
X80220610Y-129114257D01*
X80064123Y-129030612D01*
X80064121Y-129030611D01*
X80028391Y-129001288D01*
X79926956Y-128918044D01*
X79843712Y-128816609D01*
X79814389Y-128780879D01*
X79743381Y-128648033D01*
X79730743Y-128624390D01*
X79713573Y-128567789D01*
X79679234Y-128454588D01*
X79661842Y-128278000D01*
X79679234Y-128101412D01*
X79730743Y-127931611D01*
X79730743Y-127931610D01*
X79814388Y-127775123D01*
X79814389Y-127775121D01*
X79877738Y-127697930D01*
X79926956Y-127637956D01*
X80040680Y-127544627D01*
X80064121Y-127525389D01*
X80082020Y-127515822D01*
X80220610Y-127441743D01*
X80277211Y-127424573D01*
X80390412Y-127390234D01*
X80478638Y-127381545D01*
X80522750Y-127377200D01*
X80611250Y-127377200D01*
X80655362Y-127381545D01*
X80655362Y-127381545D01*
G37*
G36*
X86825800Y-127824800D02*
X85124200Y-127824800D01*
X85124200Y-121573200D01*
X86825800Y-121573200D01*
X86825800Y-127824800D01*
X86825800Y-127824800D01*
G37*
G36*
X95325800Y-127824800D02*
X93624200Y-127824800D01*
X93624200Y-121573200D01*
X95325800Y-121573200D01*
X95325800Y-127824800D01*
X95325800Y-127824800D01*
G37*
G36*
X96840468Y-126313283D02*
X96874434Y-126323586D01*
X96905732Y-126340316D01*
X96933168Y-126362832D01*
X96955684Y-126390268D01*
X96972414Y-126421566D01*
X96982717Y-126455532D01*
X96986800Y-126496990D01*
X96986800Y-127098010D01*
X96982717Y-127139468D01*
X96972414Y-127173434D01*
X96955684Y-127204732D01*
X96933168Y-127232168D01*
X96905732Y-127254684D01*
X96874434Y-127271414D01*
X96840468Y-127281717D01*
X96799010Y-127285800D01*
X96122990Y-127285800D01*
X96081532Y-127281717D01*
X96047566Y-127271414D01*
X96016268Y-127254684D01*
X95988832Y-127232168D01*
X95966316Y-127204732D01*
X95949586Y-127173434D01*
X95939283Y-127139468D01*
X95935200Y-127098010D01*
X95935200Y-126496990D01*
X95939283Y-126455532D01*
X95949586Y-126421566D01*
X95966316Y-126390268D01*
X95988832Y-126362832D01*
X96016268Y-126340316D01*
X96047566Y-126323586D01*
X96081532Y-126313283D01*
X96122990Y-126309200D01*
X96799010Y-126309200D01*
X96840468Y-126313283D01*
X96840468Y-126313283D01*
G37*
G36*
X78115362Y-124841545D02*
X78203588Y-124850234D01*
X78303466Y-124880532D01*
X78373390Y-124901743D01*
X78511980Y-124975822D01*
X78529879Y-124985389D01*
X78565609Y-125014712D01*
X78667044Y-125097956D01*
X78750288Y-125199391D01*
X78779611Y-125235121D01*
X78779612Y-125235123D01*
X78863257Y-125391610D01*
X78863257Y-125391611D01*
X78914766Y-125561412D01*
X78932158Y-125738000D01*
X78914766Y-125914588D01*
X78881075Y-126025650D01*
X78863257Y-126084390D01*
X78807484Y-126188732D01*
X78779611Y-126240879D01*
X78771128Y-126251215D01*
X78667044Y-126378044D01*
X78572623Y-126455532D01*
X78529879Y-126490611D01*
X78529877Y-126490612D01*
X78373390Y-126574257D01*
X78316789Y-126591427D01*
X78203588Y-126625766D01*
X78115362Y-126634455D01*
X78071250Y-126638800D01*
X77982750Y-126638800D01*
X77938638Y-126634455D01*
X77850412Y-126625766D01*
X77737211Y-126591427D01*
X77680610Y-126574257D01*
X77524123Y-126490612D01*
X77524121Y-126490611D01*
X77481377Y-126455532D01*
X77386956Y-126378044D01*
X77282872Y-126251215D01*
X77274389Y-126240879D01*
X77246516Y-126188732D01*
X77190743Y-126084390D01*
X77172925Y-126025650D01*
X77139234Y-125914588D01*
X77121842Y-125738000D01*
X77139234Y-125561412D01*
X77190743Y-125391611D01*
X77190743Y-125391610D01*
X77274388Y-125235123D01*
X77274389Y-125235121D01*
X77303712Y-125199391D01*
X77386956Y-125097956D01*
X77488391Y-125014712D01*
X77524121Y-124985389D01*
X77542020Y-124975822D01*
X77680610Y-124901743D01*
X77750534Y-124880532D01*
X77850412Y-124850234D01*
X77938638Y-124841545D01*
X77982750Y-124837200D01*
X78071250Y-124837200D01*
X78115362Y-124841545D01*
X78115362Y-124841545D01*
G37*
G36*
X80655362Y-124841545D02*
X80743588Y-124850234D01*
X80843466Y-124880532D01*
X80913390Y-124901743D01*
X81051980Y-124975822D01*
X81069879Y-124985389D01*
X81105609Y-125014712D01*
X81207044Y-125097956D01*
X81290288Y-125199391D01*
X81319611Y-125235121D01*
X81319612Y-125235123D01*
X81403257Y-125391610D01*
X81403257Y-125391611D01*
X81454766Y-125561412D01*
X81472158Y-125738000D01*
X81454766Y-125914588D01*
X81421075Y-126025650D01*
X81403257Y-126084390D01*
X81347484Y-126188732D01*
X81319611Y-126240879D01*
X81311128Y-126251215D01*
X81207044Y-126378044D01*
X81112623Y-126455532D01*
X81069879Y-126490611D01*
X81069877Y-126490612D01*
X80913390Y-126574257D01*
X80856789Y-126591427D01*
X80743588Y-126625766D01*
X80655362Y-126634455D01*
X80611250Y-126638800D01*
X80522750Y-126638800D01*
X80478638Y-126634455D01*
X80390412Y-126625766D01*
X80277211Y-126591427D01*
X80220610Y-126574257D01*
X80064123Y-126490612D01*
X80064121Y-126490611D01*
X80021377Y-126455532D01*
X79926956Y-126378044D01*
X79822872Y-126251215D01*
X79814389Y-126240879D01*
X79786516Y-126188732D01*
X79730743Y-126084390D01*
X79712925Y-126025650D01*
X79679234Y-125914588D01*
X79661842Y-125738000D01*
X79679234Y-125561412D01*
X79730743Y-125391611D01*
X79730743Y-125391610D01*
X79814388Y-125235123D01*
X79814389Y-125235121D01*
X79843712Y-125199391D01*
X79926956Y-125097956D01*
X80028391Y-125014712D01*
X80064121Y-124985389D01*
X80082020Y-124975822D01*
X80220610Y-124901743D01*
X80290534Y-124880532D01*
X80390412Y-124850234D01*
X80478638Y-124841545D01*
X80522750Y-124837200D01*
X80611250Y-124837200D01*
X80655362Y-124841545D01*
X80655362Y-124841545D01*
G37*
G36*
X84394468Y-125297283D02*
X84428434Y-125307586D01*
X84459732Y-125324316D01*
X84487168Y-125346832D01*
X84509684Y-125374268D01*
X84526414Y-125405566D01*
X84536717Y-125439532D01*
X84540800Y-125480990D01*
X84540800Y-126082010D01*
X84536717Y-126123468D01*
X84526414Y-126157434D01*
X84509684Y-126188732D01*
X84487168Y-126216168D01*
X84459732Y-126238684D01*
X84428434Y-126255414D01*
X84394468Y-126265717D01*
X84353010Y-126269800D01*
X83676990Y-126269800D01*
X83635532Y-126265717D01*
X83601566Y-126255414D01*
X83570268Y-126238684D01*
X83542832Y-126216168D01*
X83520316Y-126188732D01*
X83503586Y-126157434D01*
X83493283Y-126123468D01*
X83489200Y-126082010D01*
X83489200Y-125480990D01*
X83493283Y-125439532D01*
X83503586Y-125405566D01*
X83520316Y-125374268D01*
X83542832Y-125346832D01*
X83570268Y-125324316D01*
X83601566Y-125307586D01*
X83635532Y-125297283D01*
X83676990Y-125293200D01*
X84353010Y-125293200D01*
X84394468Y-125297283D01*
X84394468Y-125297283D01*
G37*
G36*
X96840468Y-124738283D02*
X96874434Y-124748586D01*
X96905732Y-124765316D01*
X96933168Y-124787832D01*
X96955684Y-124815268D01*
X96972414Y-124846566D01*
X96982717Y-124880532D01*
X96986800Y-124921990D01*
X96986800Y-125523010D01*
X96982717Y-125564468D01*
X96972414Y-125598434D01*
X96955684Y-125629732D01*
X96933168Y-125657168D01*
X96905732Y-125679684D01*
X96874434Y-125696414D01*
X96840468Y-125706717D01*
X96799010Y-125710800D01*
X96122990Y-125710800D01*
X96081532Y-125706717D01*
X96047566Y-125696414D01*
X96016268Y-125679684D01*
X95988832Y-125657168D01*
X95966316Y-125629732D01*
X95949586Y-125598434D01*
X95939283Y-125564468D01*
X95935200Y-125523010D01*
X95935200Y-124921990D01*
X95939283Y-124880532D01*
X95949586Y-124846566D01*
X95966316Y-124815268D01*
X95988832Y-124787832D01*
X96016268Y-124765316D01*
X96047566Y-124748586D01*
X96081532Y-124738283D01*
X96122990Y-124734200D01*
X96799010Y-124734200D01*
X96840468Y-124738283D01*
X96840468Y-124738283D01*
G37*
G36*
X84394468Y-123722283D02*
X84428434Y-123732586D01*
X84459732Y-123749316D01*
X84487168Y-123771832D01*
X84509684Y-123799268D01*
X84526414Y-123830566D01*
X84536717Y-123864532D01*
X84540800Y-123905990D01*
X84540800Y-124507010D01*
X84536717Y-124548468D01*
X84526414Y-124582434D01*
X84509684Y-124613732D01*
X84487168Y-124641168D01*
X84459732Y-124663684D01*
X84428434Y-124680414D01*
X84394468Y-124690717D01*
X84353010Y-124694800D01*
X83676990Y-124694800D01*
X83635532Y-124690717D01*
X83601566Y-124680414D01*
X83570268Y-124663684D01*
X83542832Y-124641168D01*
X83520316Y-124613732D01*
X83503586Y-124582434D01*
X83493283Y-124548468D01*
X83489200Y-124507010D01*
X83489200Y-123905990D01*
X83493283Y-123864532D01*
X83503586Y-123830566D01*
X83520316Y-123799268D01*
X83542832Y-123771832D01*
X83570268Y-123749316D01*
X83601566Y-123732586D01*
X83635532Y-123722283D01*
X83676990Y-123718200D01*
X84353010Y-123718200D01*
X84394468Y-123722283D01*
X84394468Y-123722283D01*
G37*
G36*
X74101800Y-124606800D02*
X72300200Y-124606800D01*
X72300200Y-122805200D01*
X74101800Y-122805200D01*
X74101800Y-124606800D01*
X74101800Y-124606800D01*
G37*
G36*
X80655362Y-122301545D02*
X80743588Y-122310234D01*
X80856789Y-122344573D01*
X80913390Y-122361743D01*
X81051980Y-122435822D01*
X81069879Y-122445389D01*
X81105609Y-122474712D01*
X81207044Y-122557956D01*
X81290288Y-122659391D01*
X81319611Y-122695121D01*
X81319612Y-122695123D01*
X81403257Y-122851610D01*
X81403257Y-122851611D01*
X81454766Y-123021412D01*
X81472158Y-123198000D01*
X81454766Y-123374588D01*
X81420427Y-123487789D01*
X81403257Y-123544390D01*
X81329178Y-123682980D01*
X81319611Y-123700879D01*
X81305396Y-123718200D01*
X81207044Y-123838044D01*
X81105609Y-123921288D01*
X81069879Y-123950611D01*
X81069877Y-123950612D01*
X80913390Y-124034257D01*
X80856789Y-124051427D01*
X80743588Y-124085766D01*
X80655362Y-124094455D01*
X80611250Y-124098800D01*
X80522750Y-124098800D01*
X80478638Y-124094455D01*
X80390412Y-124085766D01*
X80277211Y-124051427D01*
X80220610Y-124034257D01*
X80064123Y-123950612D01*
X80064121Y-123950611D01*
X80028391Y-123921288D01*
X79926956Y-123838044D01*
X79828604Y-123718200D01*
X79814389Y-123700879D01*
X79804822Y-123682980D01*
X79730743Y-123544390D01*
X79713573Y-123487789D01*
X79679234Y-123374588D01*
X79661842Y-123198000D01*
X79679234Y-123021412D01*
X79730743Y-122851611D01*
X79730743Y-122851610D01*
X79814388Y-122695123D01*
X79814389Y-122695121D01*
X79843712Y-122659391D01*
X79926956Y-122557956D01*
X80028391Y-122474712D01*
X80064121Y-122445389D01*
X80082020Y-122435822D01*
X80220610Y-122361743D01*
X80277211Y-122344573D01*
X80390412Y-122310234D01*
X80478638Y-122301545D01*
X80522750Y-122297200D01*
X80611250Y-122297200D01*
X80655362Y-122301545D01*
X80655362Y-122301545D01*
G37*
G36*
X78115362Y-122301545D02*
X78203588Y-122310234D01*
X78316789Y-122344573D01*
X78373390Y-122361743D01*
X78511980Y-122435822D01*
X78529879Y-122445389D01*
X78565609Y-122474712D01*
X78667044Y-122557956D01*
X78750288Y-122659391D01*
X78779611Y-122695121D01*
X78779612Y-122695123D01*
X78863257Y-122851610D01*
X78863257Y-122851611D01*
X78914766Y-123021412D01*
X78932158Y-123198000D01*
X78914766Y-123374588D01*
X78880427Y-123487789D01*
X78863257Y-123544390D01*
X78789178Y-123682980D01*
X78779611Y-123700879D01*
X78765396Y-123718200D01*
X78667044Y-123838044D01*
X78565609Y-123921288D01*
X78529879Y-123950611D01*
X78529877Y-123950612D01*
X78373390Y-124034257D01*
X78316789Y-124051427D01*
X78203588Y-124085766D01*
X78115362Y-124094455D01*
X78071250Y-124098800D01*
X77982750Y-124098800D01*
X77938638Y-124094455D01*
X77850412Y-124085766D01*
X77737211Y-124051427D01*
X77680610Y-124034257D01*
X77524123Y-123950612D01*
X77524121Y-123950611D01*
X77488391Y-123921288D01*
X77386956Y-123838044D01*
X77288604Y-123718200D01*
X77274389Y-123700879D01*
X77264822Y-123682980D01*
X77190743Y-123544390D01*
X77173573Y-123487789D01*
X77139234Y-123374588D01*
X77121842Y-123198000D01*
X77139234Y-123021412D01*
X77190743Y-122851611D01*
X77190743Y-122851610D01*
X77274388Y-122695123D01*
X77274389Y-122695121D01*
X77303712Y-122659391D01*
X77386956Y-122557956D01*
X77488391Y-122474712D01*
X77524121Y-122445389D01*
X77542020Y-122435822D01*
X77680610Y-122361743D01*
X77737211Y-122344573D01*
X77850412Y-122310234D01*
X77938638Y-122301545D01*
X77982750Y-122297200D01*
X78071250Y-122297200D01*
X78115362Y-122301545D01*
X78115362Y-122301545D01*
G37*
G36*
X73289362Y-120269545D02*
X73377588Y-120278234D01*
X73475729Y-120308005D01*
X73547390Y-120329743D01*
X73679926Y-120400586D01*
X73703879Y-120413389D01*
X73736100Y-120439832D01*
X73841044Y-120525956D01*
X73924288Y-120627391D01*
X73953611Y-120663121D01*
X73953612Y-120663123D01*
X74037257Y-120819610D01*
X74037257Y-120819611D01*
X74088766Y-120989412D01*
X74106158Y-121166000D01*
X74088766Y-121342588D01*
X74059322Y-121439650D01*
X74037257Y-121512390D01*
X73983859Y-121612290D01*
X73953611Y-121668879D01*
X73924288Y-121704609D01*
X73841044Y-121806044D01*
X73739609Y-121889288D01*
X73703879Y-121918611D01*
X73703877Y-121918612D01*
X73547390Y-122002257D01*
X73490789Y-122019427D01*
X73377588Y-122053766D01*
X73289362Y-122062455D01*
X73245250Y-122066800D01*
X73156750Y-122066800D01*
X73112638Y-122062455D01*
X73024412Y-122053766D01*
X72911211Y-122019427D01*
X72854610Y-122002257D01*
X72698123Y-121918612D01*
X72698121Y-121918611D01*
X72662391Y-121889288D01*
X72560956Y-121806044D01*
X72477712Y-121704609D01*
X72448389Y-121668879D01*
X72418141Y-121612290D01*
X72364743Y-121512390D01*
X72342678Y-121439650D01*
X72313234Y-121342588D01*
X72295842Y-121166000D01*
X72313234Y-120989412D01*
X72364743Y-120819611D01*
X72364743Y-120819610D01*
X72448388Y-120663123D01*
X72448389Y-120663121D01*
X72477712Y-120627391D01*
X72560956Y-120525956D01*
X72665900Y-120439832D01*
X72698121Y-120413389D01*
X72722074Y-120400586D01*
X72854610Y-120329743D01*
X72926271Y-120308005D01*
X73024412Y-120278234D01*
X73112638Y-120269545D01*
X73156750Y-120265200D01*
X73245250Y-120265200D01*
X73289362Y-120269545D01*
X73289362Y-120269545D01*
G37*
G36*
X132066468Y-120636283D02*
X132100434Y-120646586D01*
X132131732Y-120663316D01*
X132159168Y-120685832D01*
X132181684Y-120713268D01*
X132198414Y-120744566D01*
X132208717Y-120778532D01*
X132212800Y-120819990D01*
X132212800Y-121496010D01*
X132208717Y-121537468D01*
X132198414Y-121571434D01*
X132181684Y-121602732D01*
X132159168Y-121630168D01*
X132131732Y-121652684D01*
X132100434Y-121669414D01*
X132066468Y-121679717D01*
X132025010Y-121683800D01*
X131423990Y-121683800D01*
X131382532Y-121679717D01*
X131348566Y-121669414D01*
X131317268Y-121652684D01*
X131289832Y-121630168D01*
X131267316Y-121602732D01*
X131250586Y-121571434D01*
X131240283Y-121537468D01*
X131236200Y-121496010D01*
X131236200Y-120819990D01*
X131240283Y-120778532D01*
X131250586Y-120744566D01*
X131267316Y-120713268D01*
X131289832Y-120685832D01*
X131317268Y-120663316D01*
X131348566Y-120646586D01*
X131382532Y-120636283D01*
X131423990Y-120632200D01*
X132025010Y-120632200D01*
X132066468Y-120636283D01*
X132066468Y-120636283D01*
G37*
G36*
X130491468Y-120636283D02*
X130525434Y-120646586D01*
X130556732Y-120663316D01*
X130584168Y-120685832D01*
X130606684Y-120713268D01*
X130623414Y-120744566D01*
X130633717Y-120778532D01*
X130637800Y-120819990D01*
X130637800Y-121496010D01*
X130633717Y-121537468D01*
X130623414Y-121571434D01*
X130606684Y-121602732D01*
X130584168Y-121630168D01*
X130556732Y-121652684D01*
X130525434Y-121669414D01*
X130491468Y-121679717D01*
X130450010Y-121683800D01*
X129848990Y-121683800D01*
X129807532Y-121679717D01*
X129773566Y-121669414D01*
X129742268Y-121652684D01*
X129714832Y-121630168D01*
X129692316Y-121602732D01*
X129675586Y-121571434D01*
X129665283Y-121537468D01*
X129661200Y-121496010D01*
X129661200Y-120819990D01*
X129665283Y-120778532D01*
X129675586Y-120744566D01*
X129692316Y-120713268D01*
X129714832Y-120685832D01*
X129742268Y-120663316D01*
X129773566Y-120646586D01*
X129807532Y-120636283D01*
X129848990Y-120632200D01*
X130450010Y-120632200D01*
X130491468Y-120636283D01*
X130491468Y-120636283D01*
G37*
G36*
X77886468Y-120390283D02*
X77920434Y-120400586D01*
X77951732Y-120417316D01*
X77979168Y-120439832D01*
X78001684Y-120467268D01*
X78018414Y-120498566D01*
X78028717Y-120532532D01*
X78032800Y-120573990D01*
X78032800Y-121250010D01*
X78028717Y-121291468D01*
X78018414Y-121325434D01*
X78001684Y-121356732D01*
X77979168Y-121384168D01*
X77951732Y-121406684D01*
X77920434Y-121423414D01*
X77886468Y-121433717D01*
X77845010Y-121437800D01*
X77243990Y-121437800D01*
X77202532Y-121433717D01*
X77168566Y-121423414D01*
X77137268Y-121406684D01*
X77109832Y-121384168D01*
X77087316Y-121356732D01*
X77070586Y-121325434D01*
X77060283Y-121291468D01*
X77056200Y-121250010D01*
X77056200Y-120573990D01*
X77060283Y-120532532D01*
X77070586Y-120498566D01*
X77087316Y-120467268D01*
X77109832Y-120439832D01*
X77137268Y-120417316D01*
X77168566Y-120400586D01*
X77202532Y-120390283D01*
X77243990Y-120386200D01*
X77845010Y-120386200D01*
X77886468Y-120390283D01*
X77886468Y-120390283D01*
G37*
G36*
X76311468Y-120390283D02*
X76345434Y-120400586D01*
X76376732Y-120417316D01*
X76404168Y-120439832D01*
X76426684Y-120467268D01*
X76443414Y-120498566D01*
X76453717Y-120532532D01*
X76457800Y-120573990D01*
X76457800Y-121250010D01*
X76453717Y-121291468D01*
X76443414Y-121325434D01*
X76426684Y-121356732D01*
X76404168Y-121384168D01*
X76376732Y-121406684D01*
X76345434Y-121423414D01*
X76311468Y-121433717D01*
X76270010Y-121437800D01*
X75668990Y-121437800D01*
X75627532Y-121433717D01*
X75593566Y-121423414D01*
X75562268Y-121406684D01*
X75534832Y-121384168D01*
X75512316Y-121356732D01*
X75495586Y-121325434D01*
X75485283Y-121291468D01*
X75481200Y-121250010D01*
X75481200Y-120573990D01*
X75485283Y-120532532D01*
X75495586Y-120498566D01*
X75512316Y-120467268D01*
X75534832Y-120439832D01*
X75562268Y-120417316D01*
X75593566Y-120400586D01*
X75627532Y-120390283D01*
X75668990Y-120386200D01*
X76270010Y-120386200D01*
X76311468Y-120390283D01*
X76311468Y-120390283D01*
G37*
G36*
X93350800Y-121299800D02*
X87099200Y-121299800D01*
X87099200Y-119598200D01*
X93350800Y-119598200D01*
X93350800Y-121299800D01*
X93350800Y-121299800D01*
G37*
G36*
X136524462Y-119298600D02*
X136572270Y-119303308D01*
X136694946Y-119340522D01*
X136694949Y-119340523D01*
X136808005Y-119400952D01*
X136907102Y-119482280D01*
X136988430Y-119581377D01*
X137048859Y-119694433D01*
X137048860Y-119694436D01*
X137086074Y-119817112D01*
X137098639Y-119944691D01*
X137086074Y-120072270D01*
X137065386Y-120140468D01*
X137048859Y-120194949D01*
X136988430Y-120308005D01*
X136907102Y-120407102D01*
X136808005Y-120488430D01*
X136694949Y-120548859D01*
X136694946Y-120548860D01*
X136572270Y-120586074D01*
X136524462Y-120590782D01*
X136476656Y-120595491D01*
X135862726Y-120595491D01*
X135814920Y-120590782D01*
X135767112Y-120586074D01*
X135644436Y-120548860D01*
X135644433Y-120548859D01*
X135531377Y-120488430D01*
X135432280Y-120407102D01*
X135350952Y-120308005D01*
X135290523Y-120194949D01*
X135273996Y-120140468D01*
X135253308Y-120072270D01*
X135240743Y-119944691D01*
X135253308Y-119817112D01*
X135290522Y-119694436D01*
X135290523Y-119694433D01*
X135350952Y-119581377D01*
X135432280Y-119482280D01*
X135531377Y-119400952D01*
X135644433Y-119340523D01*
X135644436Y-119340522D01*
X135767112Y-119303308D01*
X135814920Y-119298600D01*
X135862726Y-119293891D01*
X136476656Y-119293891D01*
X136524462Y-119298600D01*
X136524462Y-119298600D01*
G37*
G36*
X130491468Y-119239283D02*
X130525434Y-119249586D01*
X130556732Y-119266316D01*
X130584168Y-119288832D01*
X130606684Y-119316268D01*
X130623414Y-119347566D01*
X130633717Y-119381532D01*
X130637800Y-119422990D01*
X130637800Y-120099010D01*
X130633717Y-120140468D01*
X130623414Y-120174434D01*
X130606684Y-120205732D01*
X130584168Y-120233168D01*
X130556732Y-120255684D01*
X130525434Y-120272414D01*
X130491468Y-120282717D01*
X130450010Y-120286800D01*
X129848990Y-120286800D01*
X129807532Y-120282717D01*
X129773566Y-120272414D01*
X129742268Y-120255684D01*
X129714832Y-120233168D01*
X129692316Y-120205732D01*
X129675586Y-120174434D01*
X129665283Y-120140468D01*
X129661200Y-120099010D01*
X129661200Y-119422990D01*
X129665283Y-119381532D01*
X129675586Y-119347566D01*
X129692316Y-119316268D01*
X129714832Y-119288832D01*
X129742268Y-119266316D01*
X129773566Y-119249586D01*
X129807532Y-119239283D01*
X129848990Y-119235200D01*
X130450010Y-119235200D01*
X130491468Y-119239283D01*
X130491468Y-119239283D01*
G37*
G36*
X132066468Y-119239283D02*
X132100434Y-119249586D01*
X132131732Y-119266316D01*
X132159168Y-119288832D01*
X132181684Y-119316268D01*
X132198414Y-119347566D01*
X132208717Y-119381532D01*
X132212800Y-119422990D01*
X132212800Y-120099010D01*
X132208717Y-120140468D01*
X132198414Y-120174434D01*
X132181684Y-120205732D01*
X132159168Y-120233168D01*
X132131732Y-120255684D01*
X132100434Y-120272414D01*
X132066468Y-120282717D01*
X132025010Y-120286800D01*
X131423990Y-120286800D01*
X131382532Y-120282717D01*
X131348566Y-120272414D01*
X131317268Y-120255684D01*
X131289832Y-120233168D01*
X131267316Y-120205732D01*
X131250586Y-120174434D01*
X131240283Y-120140468D01*
X131236200Y-120099010D01*
X131236200Y-119422990D01*
X131240283Y-119381532D01*
X131250586Y-119347566D01*
X131267316Y-119316268D01*
X131289832Y-119288832D01*
X131317268Y-119266316D01*
X131348566Y-119249586D01*
X131382532Y-119239283D01*
X131423990Y-119235200D01*
X132025010Y-119235200D01*
X132066468Y-119239283D01*
X132066468Y-119239283D01*
G37*
G36*
X63936507Y-118139582D02*
X64127740Y-118218793D01*
X64278976Y-118319846D01*
X64299849Y-118333793D01*
X64446207Y-118480151D01*
X64446209Y-118480154D01*
X64561207Y-118652260D01*
X64640418Y-118843493D01*
X64680800Y-119046505D01*
X64680800Y-119253495D01*
X64640418Y-119456507D01*
X64561207Y-119647740D01*
X64448036Y-119817112D01*
X64446207Y-119819849D01*
X64299849Y-119966207D01*
X64299846Y-119966209D01*
X64127740Y-120081207D01*
X63936507Y-120160418D01*
X63733495Y-120200800D01*
X63526505Y-120200800D01*
X63323493Y-120160418D01*
X63132260Y-120081207D01*
X62960154Y-119966209D01*
X62960151Y-119966207D01*
X62813793Y-119819849D01*
X62811964Y-119817112D01*
X62698793Y-119647740D01*
X62619582Y-119456507D01*
X62579200Y-119253495D01*
X62579200Y-119046505D01*
X62619582Y-118843493D01*
X62698793Y-118652260D01*
X62813791Y-118480154D01*
X62813793Y-118480151D01*
X62960151Y-118333793D01*
X62981024Y-118319846D01*
X63132260Y-118218793D01*
X63323493Y-118139582D01*
X63526505Y-118099200D01*
X63733495Y-118099200D01*
X63936507Y-118139582D01*
X63936507Y-118139582D01*
G37*
G36*
X98449159Y-118565974D02*
X98483125Y-118576277D01*
X98514423Y-118593007D01*
X98541859Y-118615523D01*
X98564375Y-118642959D01*
X98581105Y-118674257D01*
X98591408Y-118708223D01*
X98595491Y-118749681D01*
X98595491Y-119350701D01*
X98591408Y-119392159D01*
X98581105Y-119426125D01*
X98564375Y-119457423D01*
X98541859Y-119484859D01*
X98514423Y-119507375D01*
X98483125Y-119524105D01*
X98449159Y-119534408D01*
X98407701Y-119538491D01*
X97731681Y-119538491D01*
X97690223Y-119534408D01*
X97656257Y-119524105D01*
X97624959Y-119507375D01*
X97597523Y-119484859D01*
X97575007Y-119457423D01*
X97558277Y-119426125D01*
X97547974Y-119392159D01*
X97543891Y-119350701D01*
X97543891Y-118749681D01*
X97547974Y-118708223D01*
X97558277Y-118674257D01*
X97575007Y-118642959D01*
X97597523Y-118615523D01*
X97624959Y-118593007D01*
X97656257Y-118576277D01*
X97690223Y-118565974D01*
X97731681Y-118561891D01*
X98407701Y-118561891D01*
X98449159Y-118565974D01*
X98449159Y-118565974D01*
G37*
G36*
X73289362Y-117729545D02*
X73377588Y-117738234D01*
X73490789Y-117772573D01*
X73547390Y-117789743D01*
X73610748Y-117823609D01*
X73703879Y-117873389D01*
X73726533Y-117891981D01*
X73841044Y-117985956D01*
X73911877Y-118072268D01*
X73953611Y-118123121D01*
X73953612Y-118123123D01*
X74037257Y-118279610D01*
X74037257Y-118279611D01*
X74088766Y-118449412D01*
X74106158Y-118626000D01*
X74088766Y-118802588D01*
X74054427Y-118915789D01*
X74037257Y-118972390D01*
X73963178Y-119110980D01*
X73953611Y-119128879D01*
X73924288Y-119164609D01*
X73841044Y-119266044D01*
X73750289Y-119340523D01*
X73703879Y-119378611D01*
X73703877Y-119378612D01*
X73547390Y-119462257D01*
X73491041Y-119479350D01*
X73377588Y-119513766D01*
X73315246Y-119519906D01*
X73245250Y-119526800D01*
X73156750Y-119526800D01*
X73086754Y-119519906D01*
X73024412Y-119513766D01*
X72910959Y-119479350D01*
X72854610Y-119462257D01*
X72698123Y-119378612D01*
X72698121Y-119378611D01*
X72651711Y-119340523D01*
X72560956Y-119266044D01*
X72477712Y-119164609D01*
X72448389Y-119128879D01*
X72438822Y-119110980D01*
X72364743Y-118972390D01*
X72347573Y-118915789D01*
X72313234Y-118802588D01*
X72295842Y-118626000D01*
X72313234Y-118449412D01*
X72364743Y-118279611D01*
X72364743Y-118279610D01*
X72448388Y-118123123D01*
X72448389Y-118123121D01*
X72490123Y-118072268D01*
X72560956Y-117985956D01*
X72675467Y-117891981D01*
X72698121Y-117873389D01*
X72791252Y-117823609D01*
X72854610Y-117789743D01*
X72911211Y-117772573D01*
X73024412Y-117738234D01*
X73112638Y-117729545D01*
X73156750Y-117725200D01*
X73245250Y-117725200D01*
X73289362Y-117729545D01*
X73289362Y-117729545D01*
G37*
G36*
X110527800Y-118740491D02*
X108876200Y-118740491D01*
X108876200Y-118038891D01*
X110527800Y-118038891D01*
X110527800Y-118740491D01*
X110527800Y-118740491D01*
G37*
G36*
X105127800Y-118740491D02*
X103476200Y-118740491D01*
X103476200Y-118038891D01*
X105127800Y-118038891D01*
X105127800Y-118740491D01*
X105127800Y-118740491D01*
G37*
G36*
X82036507Y-116639582D02*
X82227740Y-116718793D01*
X82394683Y-116830341D01*
X82399849Y-116833793D01*
X82546207Y-116980151D01*
X82546209Y-116980154D01*
X82661207Y-117152260D01*
X82740418Y-117343493D01*
X82780800Y-117546505D01*
X82780800Y-117753495D01*
X82740418Y-117956507D01*
X82661207Y-118147740D01*
X82573094Y-118279610D01*
X82546207Y-118319849D01*
X82399849Y-118466207D01*
X82399846Y-118466209D01*
X82227740Y-118581207D01*
X82036507Y-118660418D01*
X81833495Y-118700800D01*
X81626505Y-118700800D01*
X81423493Y-118660418D01*
X81232260Y-118581207D01*
X81060154Y-118466209D01*
X81060151Y-118466207D01*
X80913793Y-118319849D01*
X80886906Y-118279610D01*
X80798793Y-118147740D01*
X80719582Y-117956507D01*
X80679200Y-117753495D01*
X80679200Y-117546505D01*
X80719582Y-117343493D01*
X80798793Y-117152260D01*
X80913791Y-116980154D01*
X80913793Y-116980151D01*
X81060151Y-116833793D01*
X81065317Y-116830341D01*
X81232260Y-116718793D01*
X81423493Y-116639582D01*
X81626505Y-116599200D01*
X81833495Y-116599200D01*
X82036507Y-116639582D01*
X82036507Y-116639582D01*
G37*
G36*
X96544159Y-117676974D02*
X96578125Y-117687277D01*
X96609423Y-117704007D01*
X96636859Y-117726523D01*
X96659375Y-117753959D01*
X96676105Y-117785257D01*
X96686408Y-117819223D01*
X96690491Y-117860681D01*
X96690491Y-118461701D01*
X96686408Y-118503159D01*
X96676105Y-118537125D01*
X96659375Y-118568423D01*
X96636859Y-118595859D01*
X96609423Y-118618375D01*
X96578125Y-118635105D01*
X96544159Y-118645408D01*
X96502701Y-118649491D01*
X95826681Y-118649491D01*
X95785223Y-118645408D01*
X95751257Y-118635105D01*
X95719959Y-118618375D01*
X95692523Y-118595859D01*
X95670007Y-118568423D01*
X95653277Y-118537125D01*
X95642974Y-118503159D01*
X95638891Y-118461701D01*
X95638891Y-117860681D01*
X95642974Y-117819223D01*
X95653277Y-117785257D01*
X95670007Y-117753959D01*
X95692523Y-117726523D01*
X95719959Y-117704007D01*
X95751257Y-117687277D01*
X95785223Y-117676974D01*
X95826681Y-117672891D01*
X96502701Y-117672891D01*
X96544159Y-117676974D01*
X96544159Y-117676974D01*
G37*
G36*
X136524462Y-117298600D02*
X136572270Y-117303308D01*
X136694946Y-117340522D01*
X136694949Y-117340523D01*
X136808005Y-117400952D01*
X136907102Y-117482280D01*
X136988430Y-117581377D01*
X137048859Y-117694433D01*
X137048860Y-117694436D01*
X137086074Y-117817112D01*
X137098639Y-117944691D01*
X137086074Y-118072270D01*
X137063180Y-118147739D01*
X137048859Y-118194949D01*
X136988430Y-118308005D01*
X136907102Y-118407102D01*
X136808005Y-118488430D01*
X136694949Y-118548859D01*
X136694946Y-118548860D01*
X136572270Y-118586074D01*
X136524462Y-118590783D01*
X136476656Y-118595491D01*
X135862726Y-118595491D01*
X135814920Y-118590783D01*
X135767112Y-118586074D01*
X135644436Y-118548860D01*
X135644433Y-118548859D01*
X135531377Y-118488430D01*
X135432280Y-118407102D01*
X135350952Y-118308005D01*
X135290523Y-118194949D01*
X135276202Y-118147739D01*
X135253308Y-118072270D01*
X135240743Y-117944691D01*
X135253308Y-117817112D01*
X135290522Y-117694436D01*
X135290523Y-117694433D01*
X135350952Y-117581377D01*
X135432280Y-117482280D01*
X135531377Y-117400952D01*
X135644433Y-117340523D01*
X135644436Y-117340522D01*
X135767112Y-117303308D01*
X135814920Y-117298600D01*
X135862726Y-117293891D01*
X136476656Y-117293891D01*
X136524462Y-117298600D01*
X136524462Y-117298600D01*
G37*
G36*
X98449159Y-116990974D02*
X98483125Y-117001277D01*
X98514423Y-117018007D01*
X98541859Y-117040523D01*
X98564375Y-117067959D01*
X98581105Y-117099257D01*
X98591408Y-117133223D01*
X98595491Y-117174681D01*
X98595491Y-117775701D01*
X98591408Y-117817159D01*
X98581105Y-117851125D01*
X98564375Y-117882423D01*
X98541859Y-117909859D01*
X98514423Y-117932375D01*
X98483125Y-117949105D01*
X98449159Y-117959408D01*
X98407701Y-117963491D01*
X97731681Y-117963491D01*
X97690223Y-117959408D01*
X97656257Y-117949105D01*
X97624959Y-117932375D01*
X97597523Y-117909859D01*
X97575007Y-117882423D01*
X97558277Y-117851125D01*
X97547974Y-117817159D01*
X97543891Y-117775701D01*
X97543891Y-117174681D01*
X97547974Y-117133223D01*
X97558277Y-117099257D01*
X97575007Y-117067959D01*
X97597523Y-117040523D01*
X97624959Y-117018007D01*
X97656257Y-117001277D01*
X97690223Y-116990974D01*
X97731681Y-116986891D01*
X98407701Y-116986891D01*
X98449159Y-116990974D01*
X98449159Y-116990974D01*
G37*
G36*
X195544842Y-115146267D02*
X195544844Y-115146268D01*
X195544845Y-115146268D01*
X195772476Y-115240555D01*
X195922088Y-115340523D01*
X195977341Y-115377442D01*
X196151558Y-115551659D01*
X196151560Y-115551662D01*
X196288445Y-115756524D01*
X196382732Y-115984155D01*
X196382733Y-115984158D01*
X196430800Y-116225806D01*
X196430800Y-116472194D01*
X196384538Y-116704770D01*
X196382732Y-116713845D01*
X196288445Y-116941476D01*
X196220358Y-117043375D01*
X196151558Y-117146341D01*
X195977341Y-117320558D01*
X195977338Y-117320560D01*
X195772476Y-117457445D01*
X195544845Y-117551732D01*
X195544844Y-117551732D01*
X195544842Y-117551733D01*
X195303194Y-117599800D01*
X195056806Y-117599800D01*
X194815158Y-117551733D01*
X194815156Y-117551732D01*
X194815155Y-117551732D01*
X194587524Y-117457445D01*
X194382662Y-117320560D01*
X194382659Y-117320558D01*
X194208442Y-117146341D01*
X194139642Y-117043375D01*
X194071555Y-116941476D01*
X193977268Y-116713845D01*
X193975463Y-116704770D01*
X193929200Y-116472194D01*
X193929200Y-116225806D01*
X193977267Y-115984158D01*
X193977268Y-115984155D01*
X194071555Y-115756524D01*
X194208440Y-115551662D01*
X194208442Y-115551659D01*
X194382659Y-115377442D01*
X194437912Y-115340523D01*
X194587524Y-115240555D01*
X194815155Y-115146268D01*
X194815156Y-115146268D01*
X194815158Y-115146267D01*
X195056806Y-115098200D01*
X195303194Y-115098200D01*
X195544842Y-115146267D01*
X195544842Y-115146267D01*
G37*
G36*
X186544842Y-115146267D02*
X186544844Y-115146268D01*
X186544845Y-115146268D01*
X186772476Y-115240555D01*
X186922088Y-115340523D01*
X186977341Y-115377442D01*
X187151558Y-115551659D01*
X187151560Y-115551662D01*
X187288445Y-115756524D01*
X187382732Y-115984155D01*
X187382733Y-115984158D01*
X187430800Y-116225806D01*
X187430800Y-116472194D01*
X187384538Y-116704770D01*
X187382732Y-116713845D01*
X187288445Y-116941476D01*
X187220358Y-117043375D01*
X187151558Y-117146341D01*
X186977341Y-117320558D01*
X186977338Y-117320560D01*
X186772476Y-117457445D01*
X186544845Y-117551732D01*
X186544844Y-117551732D01*
X186544842Y-117551733D01*
X186303194Y-117599800D01*
X186056806Y-117599800D01*
X185815158Y-117551733D01*
X185815156Y-117551732D01*
X185815155Y-117551732D01*
X185587524Y-117457445D01*
X185382662Y-117320560D01*
X185382659Y-117320558D01*
X185208442Y-117146341D01*
X185139642Y-117043375D01*
X185071555Y-116941476D01*
X184977268Y-116713845D01*
X184975463Y-116704770D01*
X184929200Y-116472194D01*
X184929200Y-116225806D01*
X184977267Y-115984158D01*
X184977268Y-115984155D01*
X185071555Y-115756524D01*
X185208440Y-115551662D01*
X185208442Y-115551659D01*
X185382659Y-115377442D01*
X185437912Y-115340523D01*
X185587524Y-115240555D01*
X185815155Y-115146268D01*
X185815156Y-115146268D01*
X185815158Y-115146267D01*
X186056806Y-115098200D01*
X186303194Y-115098200D01*
X186544842Y-115146267D01*
X186544842Y-115146267D01*
G37*
G36*
X177544842Y-115146267D02*
X177544844Y-115146268D01*
X177544845Y-115146268D01*
X177772476Y-115240555D01*
X177922088Y-115340523D01*
X177977341Y-115377442D01*
X178151558Y-115551659D01*
X178151560Y-115551662D01*
X178288445Y-115756524D01*
X178382732Y-115984155D01*
X178382733Y-115984158D01*
X178430800Y-116225806D01*
X178430800Y-116472194D01*
X178384538Y-116704770D01*
X178382732Y-116713845D01*
X178288445Y-116941476D01*
X178220358Y-117043375D01*
X178151558Y-117146341D01*
X177977341Y-117320558D01*
X177977338Y-117320560D01*
X177772476Y-117457445D01*
X177544845Y-117551732D01*
X177544844Y-117551732D01*
X177544842Y-117551733D01*
X177303194Y-117599800D01*
X177056806Y-117599800D01*
X176815158Y-117551733D01*
X176815156Y-117551732D01*
X176815155Y-117551732D01*
X176587524Y-117457445D01*
X176382662Y-117320560D01*
X176382659Y-117320558D01*
X176208442Y-117146341D01*
X176139642Y-117043375D01*
X176071555Y-116941476D01*
X175977268Y-116713845D01*
X175975463Y-116704770D01*
X175929200Y-116472194D01*
X175929200Y-116225806D01*
X175977267Y-115984158D01*
X175977268Y-115984155D01*
X176071555Y-115756524D01*
X176208440Y-115551662D01*
X176208442Y-115551659D01*
X176382659Y-115377442D01*
X176437912Y-115340523D01*
X176587524Y-115240555D01*
X176815155Y-115146268D01*
X176815156Y-115146268D01*
X176815158Y-115146267D01*
X177056806Y-115098200D01*
X177303194Y-115098200D01*
X177544842Y-115146267D01*
X177544842Y-115146267D01*
G37*
G36*
X105127800Y-117470491D02*
X103476200Y-117470491D01*
X103476200Y-116768891D01*
X105127800Y-116768891D01*
X105127800Y-117470491D01*
X105127800Y-117470491D01*
G37*
G36*
X110527800Y-117470491D02*
X108876200Y-117470491D01*
X108876200Y-116768891D01*
X110527800Y-116768891D01*
X110527800Y-117470491D01*
X110527800Y-117470491D01*
G37*
G36*
X96544159Y-116101974D02*
X96578125Y-116112277D01*
X96609423Y-116129007D01*
X96636859Y-116151523D01*
X96659375Y-116178959D01*
X96676105Y-116210257D01*
X96686408Y-116244223D01*
X96690491Y-116285681D01*
X96690491Y-116886701D01*
X96686408Y-116928159D01*
X96676105Y-116962125D01*
X96659375Y-116993423D01*
X96636859Y-117020859D01*
X96609423Y-117043375D01*
X96578125Y-117060105D01*
X96544159Y-117070408D01*
X96502701Y-117074491D01*
X95826681Y-117074491D01*
X95785223Y-117070408D01*
X95751257Y-117060105D01*
X95719959Y-117043375D01*
X95692523Y-117020859D01*
X95670007Y-116993423D01*
X95653277Y-116962125D01*
X95642974Y-116928159D01*
X95638891Y-116886701D01*
X95638891Y-116285681D01*
X95642974Y-116244223D01*
X95653277Y-116210257D01*
X95670007Y-116178959D01*
X95692523Y-116151523D01*
X95719959Y-116129007D01*
X95751257Y-116112277D01*
X95785223Y-116101974D01*
X95826681Y-116097891D01*
X96502701Y-116097891D01*
X96544159Y-116101974D01*
X96544159Y-116101974D01*
G37*
G36*
X73289362Y-115189545D02*
X73377588Y-115198234D01*
X73490789Y-115232573D01*
X73547390Y-115249743D01*
X73610039Y-115283230D01*
X73703879Y-115333389D01*
X73727809Y-115353028D01*
X73841044Y-115445956D01*
X73912661Y-115533223D01*
X73953611Y-115583121D01*
X73953612Y-115583123D01*
X74037257Y-115739610D01*
X74037257Y-115739611D01*
X74088766Y-115909412D01*
X74106158Y-116086000D01*
X74088766Y-116262588D01*
X74074426Y-116309859D01*
X74037257Y-116432390D01*
X73989737Y-116521292D01*
X73953611Y-116588879D01*
X73935280Y-116611215D01*
X73841044Y-116726044D01*
X73739609Y-116809288D01*
X73703879Y-116838611D01*
X73703877Y-116838612D01*
X73547390Y-116922257D01*
X73490789Y-116939427D01*
X73377588Y-116973766D01*
X73312728Y-116980154D01*
X73245250Y-116986800D01*
X73156750Y-116986800D01*
X73089272Y-116980154D01*
X73024412Y-116973766D01*
X72911211Y-116939427D01*
X72854610Y-116922257D01*
X72698123Y-116838612D01*
X72698121Y-116838611D01*
X72662391Y-116809288D01*
X72560956Y-116726044D01*
X72466720Y-116611215D01*
X72448389Y-116588879D01*
X72412263Y-116521292D01*
X72364743Y-116432390D01*
X72327574Y-116309859D01*
X72313234Y-116262588D01*
X72295842Y-116086000D01*
X72313234Y-115909412D01*
X72364743Y-115739611D01*
X72364743Y-115739610D01*
X72448388Y-115583123D01*
X72448389Y-115583121D01*
X72489339Y-115533223D01*
X72560956Y-115445956D01*
X72674191Y-115353028D01*
X72698121Y-115333389D01*
X72791961Y-115283230D01*
X72854610Y-115249743D01*
X72911211Y-115232573D01*
X73024412Y-115198234D01*
X73112638Y-115189545D01*
X73156750Y-115185200D01*
X73245250Y-115185200D01*
X73289362Y-115189545D01*
X73289362Y-115189545D01*
G37*
G36*
X212465659Y-115272446D02*
X212501211Y-115283230D01*
X212533972Y-115300742D01*
X212562690Y-115324310D01*
X212586258Y-115353028D01*
X212603770Y-115385789D01*
X212614554Y-115421341D01*
X212618800Y-115464451D01*
X212618800Y-116523549D01*
X212614554Y-116566659D01*
X212603770Y-116602211D01*
X212586258Y-116634972D01*
X212562690Y-116663690D01*
X212533972Y-116687258D01*
X212501211Y-116704770D01*
X212465659Y-116715554D01*
X212422549Y-116719800D01*
X209363451Y-116719800D01*
X209320341Y-116715554D01*
X209284789Y-116704770D01*
X209252028Y-116687258D01*
X209223310Y-116663690D01*
X209199742Y-116634972D01*
X209182230Y-116602211D01*
X209171446Y-116566659D01*
X209167200Y-116523549D01*
X209167200Y-115464451D01*
X209171446Y-115421341D01*
X209182230Y-115385789D01*
X209199742Y-115353028D01*
X209223310Y-115324310D01*
X209252028Y-115300742D01*
X209284789Y-115283230D01*
X209320341Y-115272446D01*
X209363451Y-115268200D01*
X212422549Y-115268200D01*
X212465659Y-115272446D01*
X212465659Y-115272446D01*
G37*
G36*
X92764468Y-115582283D02*
X92798434Y-115592586D01*
X92829732Y-115609316D01*
X92857168Y-115631832D01*
X92879684Y-115659268D01*
X92896414Y-115690566D01*
X92906717Y-115724532D01*
X92910800Y-115765990D01*
X92910800Y-116442010D01*
X92906717Y-116483468D01*
X92896414Y-116517434D01*
X92879684Y-116548732D01*
X92857168Y-116576168D01*
X92829732Y-116598684D01*
X92798434Y-116615414D01*
X92764468Y-116625717D01*
X92723010Y-116629800D01*
X92121990Y-116629800D01*
X92080532Y-116625717D01*
X92046566Y-116615414D01*
X92015268Y-116598684D01*
X91987832Y-116576168D01*
X91965316Y-116548732D01*
X91948586Y-116517434D01*
X91938283Y-116483468D01*
X91934200Y-116442010D01*
X91934200Y-115765990D01*
X91938283Y-115724532D01*
X91948586Y-115690566D01*
X91965316Y-115659268D01*
X91987832Y-115631832D01*
X92015268Y-115609316D01*
X92046566Y-115592586D01*
X92080532Y-115582283D01*
X92121990Y-115578200D01*
X92723010Y-115578200D01*
X92764468Y-115582283D01*
X92764468Y-115582283D01*
G37*
G36*
X88014468Y-115582283D02*
X88048434Y-115592586D01*
X88079732Y-115609316D01*
X88107168Y-115631832D01*
X88129684Y-115659268D01*
X88146414Y-115690566D01*
X88156717Y-115724532D01*
X88160800Y-115765990D01*
X88160800Y-116442010D01*
X88156717Y-116483468D01*
X88146414Y-116517434D01*
X88129684Y-116548732D01*
X88107168Y-116576168D01*
X88079732Y-116598684D01*
X88048434Y-116615414D01*
X88014468Y-116625717D01*
X87973010Y-116629800D01*
X87371990Y-116629800D01*
X87330532Y-116625717D01*
X87296566Y-116615414D01*
X87265268Y-116598684D01*
X87237832Y-116576168D01*
X87215316Y-116548732D01*
X87198586Y-116517434D01*
X87188283Y-116483468D01*
X87184200Y-116442010D01*
X87184200Y-115765990D01*
X87188283Y-115724532D01*
X87198586Y-115690566D01*
X87215316Y-115659268D01*
X87237832Y-115631832D01*
X87265268Y-115609316D01*
X87296566Y-115592586D01*
X87330532Y-115582283D01*
X87371990Y-115578200D01*
X87973010Y-115578200D01*
X88014468Y-115582283D01*
X88014468Y-115582283D01*
G37*
G36*
X89589468Y-115582283D02*
X89623434Y-115592586D01*
X89654732Y-115609316D01*
X89682168Y-115631832D01*
X89704684Y-115659268D01*
X89721414Y-115690566D01*
X89731717Y-115724532D01*
X89735800Y-115765990D01*
X89735800Y-116442010D01*
X89731717Y-116483468D01*
X89721414Y-116517434D01*
X89704684Y-116548732D01*
X89682168Y-116576168D01*
X89654732Y-116598684D01*
X89623434Y-116615414D01*
X89589468Y-116625717D01*
X89548010Y-116629800D01*
X88946990Y-116629800D01*
X88905532Y-116625717D01*
X88871566Y-116615414D01*
X88840268Y-116598684D01*
X88812832Y-116576168D01*
X88790316Y-116548732D01*
X88773586Y-116517434D01*
X88763283Y-116483468D01*
X88759200Y-116442010D01*
X88759200Y-115765990D01*
X88763283Y-115724532D01*
X88773586Y-115690566D01*
X88790316Y-115659268D01*
X88812832Y-115631832D01*
X88840268Y-115609316D01*
X88871566Y-115592586D01*
X88905532Y-115582283D01*
X88946990Y-115578200D01*
X89548010Y-115578200D01*
X89589468Y-115582283D01*
X89589468Y-115582283D01*
G37*
G36*
X91189468Y-115582283D02*
X91223434Y-115592586D01*
X91254732Y-115609316D01*
X91282168Y-115631832D01*
X91304684Y-115659268D01*
X91321414Y-115690566D01*
X91331717Y-115724532D01*
X91335800Y-115765990D01*
X91335800Y-116442010D01*
X91331717Y-116483468D01*
X91321414Y-116517434D01*
X91304684Y-116548732D01*
X91282168Y-116576168D01*
X91254732Y-116598684D01*
X91223434Y-116615414D01*
X91189468Y-116625717D01*
X91148010Y-116629800D01*
X90546990Y-116629800D01*
X90505532Y-116625717D01*
X90471566Y-116615414D01*
X90440268Y-116598684D01*
X90412832Y-116576168D01*
X90390316Y-116548732D01*
X90373586Y-116517434D01*
X90363283Y-116483468D01*
X90359200Y-116442010D01*
X90359200Y-115765990D01*
X90363283Y-115724532D01*
X90373586Y-115690566D01*
X90390316Y-115659268D01*
X90412832Y-115631832D01*
X90440268Y-115609316D01*
X90471566Y-115592586D01*
X90505532Y-115582283D01*
X90546990Y-115578200D01*
X91148010Y-115578200D01*
X91189468Y-115582283D01*
X91189468Y-115582283D01*
G37*
G36*
X136524462Y-115298600D02*
X136572270Y-115303308D01*
X136694946Y-115340522D01*
X136694949Y-115340523D01*
X136808005Y-115400952D01*
X136907102Y-115482280D01*
X136988430Y-115581377D01*
X137048859Y-115694433D01*
X137048860Y-115694436D01*
X137086074Y-115817112D01*
X137098639Y-115944691D01*
X137086074Y-116072270D01*
X137062032Y-116151523D01*
X137048859Y-116194949D01*
X136988430Y-116308005D01*
X136907102Y-116407102D01*
X136808005Y-116488430D01*
X136694949Y-116548859D01*
X136694946Y-116548860D01*
X136572270Y-116586074D01*
X136524462Y-116590782D01*
X136476656Y-116595491D01*
X135862726Y-116595491D01*
X135814920Y-116590782D01*
X135767112Y-116586074D01*
X135644436Y-116548860D01*
X135644433Y-116548859D01*
X135531377Y-116488430D01*
X135432280Y-116407102D01*
X135350952Y-116308005D01*
X135290523Y-116194949D01*
X135277350Y-116151523D01*
X135253308Y-116072270D01*
X135240743Y-115944691D01*
X135253308Y-115817112D01*
X135290522Y-115694436D01*
X135290523Y-115694433D01*
X135350952Y-115581377D01*
X135432280Y-115482280D01*
X135531377Y-115400952D01*
X135644433Y-115340523D01*
X135644436Y-115340522D01*
X135767112Y-115303308D01*
X135814920Y-115298600D01*
X135862726Y-115293891D01*
X136476656Y-115293891D01*
X136524462Y-115298600D01*
X136524462Y-115298600D01*
G37*
G36*
X102640159Y-115390974D02*
X102674125Y-115401277D01*
X102705423Y-115418007D01*
X102732859Y-115440523D01*
X102755375Y-115467959D01*
X102772105Y-115499257D01*
X102782408Y-115533223D01*
X102786491Y-115574681D01*
X102786491Y-116175701D01*
X102782408Y-116217159D01*
X102772105Y-116251125D01*
X102755375Y-116282423D01*
X102732859Y-116309859D01*
X102705423Y-116332375D01*
X102674125Y-116349105D01*
X102640159Y-116359408D01*
X102598701Y-116363491D01*
X101922681Y-116363491D01*
X101881223Y-116359408D01*
X101847257Y-116349105D01*
X101815959Y-116332375D01*
X101788523Y-116309859D01*
X101766007Y-116282423D01*
X101749277Y-116251125D01*
X101738974Y-116217159D01*
X101734891Y-116175701D01*
X101734891Y-115574681D01*
X101738974Y-115533223D01*
X101749277Y-115499257D01*
X101766007Y-115467959D01*
X101788523Y-115440523D01*
X101815959Y-115418007D01*
X101847257Y-115401277D01*
X101881223Y-115390974D01*
X101922681Y-115386891D01*
X102598701Y-115386891D01*
X102640159Y-115390974D01*
X102640159Y-115390974D01*
G37*
G36*
X105127800Y-116200491D02*
X103476200Y-116200491D01*
X103476200Y-115498891D01*
X105127800Y-115498891D01*
X105127800Y-116200491D01*
X105127800Y-116200491D01*
G37*
G36*
X110527800Y-116200491D02*
X108876200Y-116200491D01*
X108876200Y-115498891D01*
X110527800Y-115498891D01*
X110527800Y-116200491D01*
X110527800Y-116200491D01*
G37*
G36*
X105127800Y-114930491D02*
X103476200Y-114930491D01*
X103476200Y-114228891D01*
X105127800Y-114228891D01*
X105127800Y-114930491D01*
X105127800Y-114930491D01*
G37*
G36*
X110527800Y-114930491D02*
X108876200Y-114930491D01*
X108876200Y-114228891D01*
X110527800Y-114228891D01*
X110527800Y-114930491D01*
X110527800Y-114930491D01*
G37*
G36*
X102640159Y-113815974D02*
X102674125Y-113826277D01*
X102705423Y-113843007D01*
X102732859Y-113865523D01*
X102755375Y-113892959D01*
X102772105Y-113924257D01*
X102782408Y-113958223D01*
X102786491Y-113999681D01*
X102786491Y-114600701D01*
X102782408Y-114642159D01*
X102772105Y-114676125D01*
X102755375Y-114707423D01*
X102732859Y-114734859D01*
X102705423Y-114757375D01*
X102674125Y-114774105D01*
X102640159Y-114784408D01*
X102598701Y-114788491D01*
X101922681Y-114788491D01*
X101881223Y-114784408D01*
X101847257Y-114774105D01*
X101815959Y-114757375D01*
X101788523Y-114734859D01*
X101766007Y-114707423D01*
X101749277Y-114676125D01*
X101738974Y-114642159D01*
X101734891Y-114600701D01*
X101734891Y-113999681D01*
X101738974Y-113958223D01*
X101749277Y-113924257D01*
X101766007Y-113892959D01*
X101788523Y-113865523D01*
X101815959Y-113843007D01*
X101847257Y-113826277D01*
X101881223Y-113815974D01*
X101922681Y-113811891D01*
X102598701Y-113811891D01*
X102640159Y-113815974D01*
X102640159Y-113815974D01*
G37*
G36*
X92764468Y-113677283D02*
X92798434Y-113687586D01*
X92829732Y-113704316D01*
X92857168Y-113726832D01*
X92879684Y-113754268D01*
X92896414Y-113785566D01*
X92906717Y-113819532D01*
X92910800Y-113860990D01*
X92910800Y-114537010D01*
X92906717Y-114578468D01*
X92896414Y-114612434D01*
X92879684Y-114643732D01*
X92857168Y-114671168D01*
X92829732Y-114693684D01*
X92798434Y-114710414D01*
X92764468Y-114720717D01*
X92723010Y-114724800D01*
X92121990Y-114724800D01*
X92080532Y-114720717D01*
X92046566Y-114710414D01*
X92015268Y-114693684D01*
X91987832Y-114671168D01*
X91965316Y-114643732D01*
X91948586Y-114612434D01*
X91938283Y-114578468D01*
X91934200Y-114537010D01*
X91934200Y-113860990D01*
X91938283Y-113819532D01*
X91948586Y-113785566D01*
X91965316Y-113754268D01*
X91987832Y-113726832D01*
X92015268Y-113704316D01*
X92046566Y-113687586D01*
X92080532Y-113677283D01*
X92121990Y-113673200D01*
X92723010Y-113673200D01*
X92764468Y-113677283D01*
X92764468Y-113677283D01*
G37*
G36*
X91189468Y-113677283D02*
X91223434Y-113687586D01*
X91254732Y-113704316D01*
X91282168Y-113726832D01*
X91304684Y-113754268D01*
X91321414Y-113785566D01*
X91331717Y-113819532D01*
X91335800Y-113860990D01*
X91335800Y-114537010D01*
X91331717Y-114578468D01*
X91321414Y-114612434D01*
X91304684Y-114643732D01*
X91282168Y-114671168D01*
X91254732Y-114693684D01*
X91223434Y-114710414D01*
X91189468Y-114720717D01*
X91148010Y-114724800D01*
X90546990Y-114724800D01*
X90505532Y-114720717D01*
X90471566Y-114710414D01*
X90440268Y-114693684D01*
X90412832Y-114671168D01*
X90390316Y-114643732D01*
X90373586Y-114612434D01*
X90363283Y-114578468D01*
X90359200Y-114537010D01*
X90359200Y-113860990D01*
X90363283Y-113819532D01*
X90373586Y-113785566D01*
X90390316Y-113754268D01*
X90412832Y-113726832D01*
X90440268Y-113704316D01*
X90471566Y-113687586D01*
X90505532Y-113677283D01*
X90546990Y-113673200D01*
X91148010Y-113673200D01*
X91189468Y-113677283D01*
X91189468Y-113677283D01*
G37*
G36*
X89589468Y-113677283D02*
X89623434Y-113687586D01*
X89654732Y-113704316D01*
X89682168Y-113726832D01*
X89704684Y-113754268D01*
X89721414Y-113785566D01*
X89731717Y-113819532D01*
X89735800Y-113860990D01*
X89735800Y-114537010D01*
X89731717Y-114578468D01*
X89721414Y-114612434D01*
X89704684Y-114643732D01*
X89682168Y-114671168D01*
X89654732Y-114693684D01*
X89623434Y-114710414D01*
X89589468Y-114720717D01*
X89548010Y-114724800D01*
X88946990Y-114724800D01*
X88905532Y-114720717D01*
X88871566Y-114710414D01*
X88840268Y-114693684D01*
X88812832Y-114671168D01*
X88790316Y-114643732D01*
X88773586Y-114612434D01*
X88763283Y-114578468D01*
X88759200Y-114537010D01*
X88759200Y-113860990D01*
X88763283Y-113819532D01*
X88773586Y-113785566D01*
X88790316Y-113754268D01*
X88812832Y-113726832D01*
X88840268Y-113704316D01*
X88871566Y-113687586D01*
X88905532Y-113677283D01*
X88946990Y-113673200D01*
X89548010Y-113673200D01*
X89589468Y-113677283D01*
X89589468Y-113677283D01*
G37*
G36*
X88014468Y-113677283D02*
X88048434Y-113687586D01*
X88079732Y-113704316D01*
X88107168Y-113726832D01*
X88129684Y-113754268D01*
X88146414Y-113785566D01*
X88156717Y-113819532D01*
X88160800Y-113860990D01*
X88160800Y-114537010D01*
X88156717Y-114578468D01*
X88146414Y-114612434D01*
X88129684Y-114643732D01*
X88107168Y-114671168D01*
X88079732Y-114693684D01*
X88048434Y-114710414D01*
X88014468Y-114720717D01*
X87973010Y-114724800D01*
X87371990Y-114724800D01*
X87330532Y-114720717D01*
X87296566Y-114710414D01*
X87265268Y-114693684D01*
X87237832Y-114671168D01*
X87215316Y-114643732D01*
X87198586Y-114612434D01*
X87188283Y-114578468D01*
X87184200Y-114537010D01*
X87184200Y-113860990D01*
X87188283Y-113819532D01*
X87198586Y-113785566D01*
X87215316Y-113754268D01*
X87237832Y-113726832D01*
X87265268Y-113704316D01*
X87296566Y-113687586D01*
X87330532Y-113677283D01*
X87371990Y-113673200D01*
X87973010Y-113673200D01*
X88014468Y-113677283D01*
X88014468Y-113677283D01*
G37*
G36*
X136935802Y-113298293D02*
X136972873Y-113309539D01*
X137007052Y-113327807D01*
X137036998Y-113352384D01*
X137061575Y-113382330D01*
X137079843Y-113416509D01*
X137091089Y-113453580D01*
X137095491Y-113498280D01*
X137095491Y-114391102D01*
X137091089Y-114435802D01*
X137079843Y-114472873D01*
X137061575Y-114507052D01*
X137036998Y-114536998D01*
X137007052Y-114561575D01*
X136972873Y-114579843D01*
X136935802Y-114591089D01*
X136891102Y-114595491D01*
X135448280Y-114595491D01*
X135403580Y-114591089D01*
X135366509Y-114579843D01*
X135332330Y-114561575D01*
X135302384Y-114536998D01*
X135277807Y-114507052D01*
X135259539Y-114472873D01*
X135248293Y-114435802D01*
X135243891Y-114391102D01*
X135243891Y-113498280D01*
X135248293Y-113453580D01*
X135259539Y-113416509D01*
X135277807Y-113382330D01*
X135302384Y-113352384D01*
X135332330Y-113327807D01*
X135366509Y-113309539D01*
X135403580Y-113298293D01*
X135448280Y-113293891D01*
X136891102Y-113293891D01*
X136935802Y-113298293D01*
X136935802Y-113298293D01*
G37*
G36*
X206863800Y-114544800D02*
X204762200Y-114544800D01*
X204762200Y-113643200D01*
X206863800Y-113643200D01*
X206863800Y-114544800D01*
X206863800Y-114544800D01*
G37*
G36*
X104587468Y-112089283D02*
X104621434Y-112099586D01*
X104652732Y-112116316D01*
X104680168Y-112138832D01*
X104702684Y-112166268D01*
X104719414Y-112197566D01*
X104729717Y-112231532D01*
X104733800Y-112272990D01*
X104733800Y-112874010D01*
X104729717Y-112915468D01*
X104719414Y-112949434D01*
X104702684Y-112980732D01*
X104680168Y-113008168D01*
X104652732Y-113030684D01*
X104621434Y-113047414D01*
X104587468Y-113057717D01*
X104546010Y-113061800D01*
X103869990Y-113061800D01*
X103828532Y-113057717D01*
X103794566Y-113047414D01*
X103763268Y-113030684D01*
X103735832Y-113008168D01*
X103713316Y-112980732D01*
X103696586Y-112949434D01*
X103686283Y-112915468D01*
X103682200Y-112874010D01*
X103682200Y-112272990D01*
X103686283Y-112231532D01*
X103696586Y-112197566D01*
X103713316Y-112166268D01*
X103735832Y-112138832D01*
X103763268Y-112116316D01*
X103794566Y-112099586D01*
X103828532Y-112089283D01*
X103869990Y-112085200D01*
X104546010Y-112085200D01*
X104587468Y-112089283D01*
X104587468Y-112089283D01*
G37*
G36*
X110048468Y-112089283D02*
X110082434Y-112099586D01*
X110113732Y-112116316D01*
X110141168Y-112138832D01*
X110163684Y-112166268D01*
X110180414Y-112197566D01*
X110190717Y-112231532D01*
X110194800Y-112272990D01*
X110194800Y-112874010D01*
X110190717Y-112915468D01*
X110180414Y-112949434D01*
X110163684Y-112980732D01*
X110141168Y-113008168D01*
X110113732Y-113030684D01*
X110082434Y-113047414D01*
X110048468Y-113057717D01*
X110007010Y-113061800D01*
X109330990Y-113061800D01*
X109289532Y-113057717D01*
X109255566Y-113047414D01*
X109224268Y-113030684D01*
X109196832Y-113008168D01*
X109174316Y-112980732D01*
X109157586Y-112949434D01*
X109147283Y-112915468D01*
X109143200Y-112874010D01*
X109143200Y-112272990D01*
X109147283Y-112231532D01*
X109157586Y-112197566D01*
X109174316Y-112166268D01*
X109196832Y-112138832D01*
X109224268Y-112116316D01*
X109255566Y-112099586D01*
X109289532Y-112089283D01*
X109330990Y-112085200D01*
X110007010Y-112085200D01*
X110048468Y-112089283D01*
X110048468Y-112089283D01*
G37*
G36*
X206863800Y-112544800D02*
X204762200Y-112544800D01*
X204762200Y-111643200D01*
X206863800Y-111643200D01*
X206863800Y-112544800D01*
X206863800Y-112544800D01*
G37*
G36*
X108004468Y-111391283D02*
X108038434Y-111401586D01*
X108069732Y-111418316D01*
X108097168Y-111440832D01*
X108119684Y-111468268D01*
X108136414Y-111499566D01*
X108146717Y-111533532D01*
X108150800Y-111574990D01*
X108150800Y-112251010D01*
X108146717Y-112292468D01*
X108136414Y-112326434D01*
X108119684Y-112357732D01*
X108097168Y-112385168D01*
X108069732Y-112407684D01*
X108038434Y-112424414D01*
X108004468Y-112434717D01*
X107963010Y-112438800D01*
X107361990Y-112438800D01*
X107320532Y-112434717D01*
X107286566Y-112424414D01*
X107255268Y-112407684D01*
X107227832Y-112385168D01*
X107205316Y-112357732D01*
X107188586Y-112326434D01*
X107178283Y-112292468D01*
X107174200Y-112251010D01*
X107174200Y-111574990D01*
X107178283Y-111533532D01*
X107188586Y-111499566D01*
X107205316Y-111468268D01*
X107227832Y-111440832D01*
X107255268Y-111418316D01*
X107286566Y-111401586D01*
X107320532Y-111391283D01*
X107361990Y-111387200D01*
X107963010Y-111387200D01*
X108004468Y-111391283D01*
X108004468Y-111391283D01*
G37*
G36*
X106429468Y-111391283D02*
X106463434Y-111401586D01*
X106494732Y-111418316D01*
X106522168Y-111440832D01*
X106544684Y-111468268D01*
X106561414Y-111499566D01*
X106571717Y-111533532D01*
X106575800Y-111574990D01*
X106575800Y-112251010D01*
X106571717Y-112292468D01*
X106561414Y-112326434D01*
X106544684Y-112357732D01*
X106522168Y-112385168D01*
X106494732Y-112407684D01*
X106463434Y-112424414D01*
X106429468Y-112434717D01*
X106388010Y-112438800D01*
X105786990Y-112438800D01*
X105745532Y-112434717D01*
X105711566Y-112424414D01*
X105680268Y-112407684D01*
X105652832Y-112385168D01*
X105630316Y-112357732D01*
X105613586Y-112326434D01*
X105603283Y-112292468D01*
X105599200Y-112251010D01*
X105599200Y-111574990D01*
X105603283Y-111533532D01*
X105613586Y-111499566D01*
X105630316Y-111468268D01*
X105652832Y-111440832D01*
X105680268Y-111418316D01*
X105711566Y-111401586D01*
X105745532Y-111391283D01*
X105786990Y-111387200D01*
X106388010Y-111387200D01*
X106429468Y-111391283D01*
X106429468Y-111391283D01*
G37*
G36*
X110048468Y-110514283D02*
X110082434Y-110524586D01*
X110113732Y-110541316D01*
X110141168Y-110563832D01*
X110163684Y-110591268D01*
X110180414Y-110622566D01*
X110190717Y-110656532D01*
X110194800Y-110697990D01*
X110194800Y-111299010D01*
X110190717Y-111340468D01*
X110180414Y-111374434D01*
X110163684Y-111405732D01*
X110141168Y-111433168D01*
X110113732Y-111455684D01*
X110082434Y-111472414D01*
X110048468Y-111482717D01*
X110007010Y-111486800D01*
X109330990Y-111486800D01*
X109289532Y-111482717D01*
X109255566Y-111472414D01*
X109224268Y-111455684D01*
X109196832Y-111433168D01*
X109174316Y-111405732D01*
X109157586Y-111374434D01*
X109147283Y-111340468D01*
X109143200Y-111299010D01*
X109143200Y-110697990D01*
X109147283Y-110656532D01*
X109157586Y-110622566D01*
X109174316Y-110591268D01*
X109196832Y-110563832D01*
X109224268Y-110541316D01*
X109255566Y-110524586D01*
X109289532Y-110514283D01*
X109330990Y-110510200D01*
X110007010Y-110510200D01*
X110048468Y-110514283D01*
X110048468Y-110514283D01*
G37*
G36*
X104587468Y-110514283D02*
X104621434Y-110524586D01*
X104652732Y-110541316D01*
X104680168Y-110563832D01*
X104702684Y-110591268D01*
X104719414Y-110622566D01*
X104729717Y-110656532D01*
X104733800Y-110697990D01*
X104733800Y-111299010D01*
X104729717Y-111340468D01*
X104719414Y-111374434D01*
X104702684Y-111405732D01*
X104680168Y-111433168D01*
X104652732Y-111455684D01*
X104621434Y-111472414D01*
X104587468Y-111482717D01*
X104546010Y-111486800D01*
X103869990Y-111486800D01*
X103828532Y-111482717D01*
X103794566Y-111472414D01*
X103763268Y-111455684D01*
X103735832Y-111433168D01*
X103713316Y-111405732D01*
X103696586Y-111374434D01*
X103686283Y-111340468D01*
X103682200Y-111299010D01*
X103682200Y-110697990D01*
X103686283Y-110656532D01*
X103696586Y-110622566D01*
X103713316Y-110591268D01*
X103735832Y-110563832D01*
X103763268Y-110541316D01*
X103794566Y-110524586D01*
X103828532Y-110514283D01*
X103869990Y-110510200D01*
X104546010Y-110510200D01*
X104587468Y-110514283D01*
X104587468Y-110514283D01*
G37*
G36*
X212465659Y-109472446D02*
X212501211Y-109483230D01*
X212533972Y-109500742D01*
X212562690Y-109524310D01*
X212586258Y-109553028D01*
X212603770Y-109585789D01*
X212614554Y-109621341D01*
X212618800Y-109664451D01*
X212618800Y-110723549D01*
X212614554Y-110766659D01*
X212603770Y-110802211D01*
X212586258Y-110834972D01*
X212562690Y-110863690D01*
X212533972Y-110887258D01*
X212501211Y-110904770D01*
X212465659Y-110915554D01*
X212422549Y-110919800D01*
X209363451Y-110919800D01*
X209320341Y-110915554D01*
X209284789Y-110904770D01*
X209252028Y-110887258D01*
X209223310Y-110863690D01*
X209199742Y-110834972D01*
X209182230Y-110802211D01*
X209171446Y-110766659D01*
X209167200Y-110723549D01*
X209167200Y-109664451D01*
X209171446Y-109621341D01*
X209182230Y-109585789D01*
X209199742Y-109553028D01*
X209223310Y-109524310D01*
X209252028Y-109500742D01*
X209284789Y-109483230D01*
X209320341Y-109472446D01*
X209363451Y-109468200D01*
X212422549Y-109468200D01*
X212465659Y-109472446D01*
X212465659Y-109472446D01*
G37*
G36*
X104715660Y-106302447D02*
X104751212Y-106313231D01*
X104783973Y-106330743D01*
X104812691Y-106354311D01*
X104836259Y-106383029D01*
X104853771Y-106415790D01*
X104864555Y-106451342D01*
X104868801Y-106494452D01*
X104868801Y-109553550D01*
X104864555Y-109596660D01*
X104853771Y-109632212D01*
X104836259Y-109664973D01*
X104812691Y-109693691D01*
X104783973Y-109717259D01*
X104751212Y-109734771D01*
X104715660Y-109745555D01*
X104672550Y-109749801D01*
X103613452Y-109749801D01*
X103570342Y-109745555D01*
X103534790Y-109734771D01*
X103502029Y-109717259D01*
X103473311Y-109693691D01*
X103449743Y-109664973D01*
X103432231Y-109632212D01*
X103421447Y-109596660D01*
X103417201Y-109553550D01*
X103417201Y-106494452D01*
X103421447Y-106451342D01*
X103432231Y-106415790D01*
X103449743Y-106383029D01*
X103473311Y-106354311D01*
X103502029Y-106330743D01*
X103534790Y-106313231D01*
X103570342Y-106302447D01*
X103613452Y-106298201D01*
X104672550Y-106298201D01*
X104715660Y-106302447D01*
X104715660Y-106302447D01*
G37*
G36*
X110515660Y-106302447D02*
X110551212Y-106313231D01*
X110583973Y-106330743D01*
X110612691Y-106354311D01*
X110636259Y-106383029D01*
X110653771Y-106415790D01*
X110664555Y-106451342D01*
X110668801Y-106494452D01*
X110668801Y-109553550D01*
X110664555Y-109596660D01*
X110653771Y-109632212D01*
X110636259Y-109664973D01*
X110612691Y-109693691D01*
X110583973Y-109717259D01*
X110551212Y-109734771D01*
X110515660Y-109745555D01*
X110472550Y-109749801D01*
X109413452Y-109749801D01*
X109370342Y-109745555D01*
X109334790Y-109734771D01*
X109302029Y-109717259D01*
X109273311Y-109693691D01*
X109249743Y-109664973D01*
X109232231Y-109632212D01*
X109221447Y-109596660D01*
X109217201Y-109553550D01*
X109217201Y-106494452D01*
X109221447Y-106451342D01*
X109232231Y-106415790D01*
X109249743Y-106383029D01*
X109273311Y-106354311D01*
X109302029Y-106330743D01*
X109334790Y-106313231D01*
X109370342Y-106302447D01*
X109413452Y-106298201D01*
X110472550Y-106298201D01*
X110515660Y-106302447D01*
X110515660Y-106302447D01*
G37*
G36*
X75327660Y-106639091D02*
X75575765Y-106741860D01*
X75691297Y-106819056D01*
X75799056Y-106891058D01*
X75988942Y-107080944D01*
X75988944Y-107080947D01*
X76109191Y-107260909D01*
X76138141Y-107304237D01*
X76240909Y-107552340D01*
X76293300Y-107815726D01*
X76293300Y-108084274D01*
X76240909Y-108347660D01*
X76138141Y-108595763D01*
X75988942Y-108819056D01*
X75799056Y-109008942D01*
X75799053Y-109008944D01*
X75575765Y-109158140D01*
X75575764Y-109158141D01*
X75575763Y-109158141D01*
X75327660Y-109260909D01*
X75064274Y-109313300D01*
X74795726Y-109313300D01*
X74532340Y-109260909D01*
X74284237Y-109158141D01*
X74284236Y-109158141D01*
X74284235Y-109158140D01*
X74060947Y-109008944D01*
X74060944Y-109008942D01*
X73871058Y-108819056D01*
X73721859Y-108595763D01*
X73619091Y-108347660D01*
X73566700Y-108084274D01*
X73566700Y-107815726D01*
X73619091Y-107552340D01*
X73721859Y-107304237D01*
X73750810Y-107260909D01*
X73871056Y-107080947D01*
X73871058Y-107080944D01*
X74060944Y-106891058D01*
X74168703Y-106819056D01*
X74284235Y-106741860D01*
X74532340Y-106639091D01*
X74795726Y-106586700D01*
X75064274Y-106586700D01*
X75327660Y-106639091D01*
X75327660Y-106639091D01*
G37*
G36*
X67327660Y-106639091D02*
X67575765Y-106741860D01*
X67691297Y-106819056D01*
X67799056Y-106891058D01*
X67988942Y-107080944D01*
X67988944Y-107080947D01*
X68109191Y-107260909D01*
X68138141Y-107304237D01*
X68240909Y-107552340D01*
X68293300Y-107815726D01*
X68293300Y-108084274D01*
X68240909Y-108347660D01*
X68138141Y-108595763D01*
X67988942Y-108819056D01*
X67799056Y-109008942D01*
X67799053Y-109008944D01*
X67575765Y-109158140D01*
X67575764Y-109158141D01*
X67575763Y-109158141D01*
X67327660Y-109260909D01*
X67064274Y-109313300D01*
X66795726Y-109313300D01*
X66532340Y-109260909D01*
X66284237Y-109158141D01*
X66284236Y-109158141D01*
X66284235Y-109158140D01*
X66060947Y-109008944D01*
X66060944Y-109008942D01*
X65871058Y-108819056D01*
X65721859Y-108595763D01*
X65619091Y-108347660D01*
X65566700Y-108084274D01*
X65566700Y-107815726D01*
X65619091Y-107552340D01*
X65721859Y-107304237D01*
X65750810Y-107260909D01*
X65871056Y-107080947D01*
X65871058Y-107080944D01*
X66060944Y-106891058D01*
X66168703Y-106819056D01*
X66284235Y-106741860D01*
X66532340Y-106639091D01*
X66795726Y-106586700D01*
X67064274Y-106586700D01*
X67327660Y-106639091D01*
X67327660Y-106639091D01*
G37*
G36*
X71327660Y-104639091D02*
X71575765Y-104741860D01*
X71691297Y-104819056D01*
X71799056Y-104891058D01*
X71988942Y-105080944D01*
X71988944Y-105080947D01*
X72109191Y-105260909D01*
X72138141Y-105304237D01*
X72240909Y-105552340D01*
X72293300Y-105815726D01*
X72293300Y-106084274D01*
X72240909Y-106347660D01*
X72171772Y-106514572D01*
X72138140Y-106595765D01*
X72040523Y-106741859D01*
X71988942Y-106819056D01*
X71799056Y-107008942D01*
X71799053Y-107008944D01*
X71575765Y-107158140D01*
X71575764Y-107158141D01*
X71575763Y-107158141D01*
X71327660Y-107260909D01*
X71064274Y-107313300D01*
X70795726Y-107313300D01*
X70532340Y-107260909D01*
X70284237Y-107158141D01*
X70284236Y-107158141D01*
X70284235Y-107158140D01*
X70060947Y-107008944D01*
X70060944Y-107008942D01*
X69871058Y-106819056D01*
X69819477Y-106741859D01*
X69721860Y-106595765D01*
X69688229Y-106514572D01*
X69619091Y-106347660D01*
X69566700Y-106084274D01*
X69566700Y-105815726D01*
X69619091Y-105552340D01*
X69721859Y-105304237D01*
X69750810Y-105260909D01*
X69871056Y-105080947D01*
X69871058Y-105080944D01*
X70060944Y-104891058D01*
X70168703Y-104819056D01*
X70284235Y-104741860D01*
X70532340Y-104639091D01*
X70795726Y-104586700D01*
X71064274Y-104586700D01*
X71327660Y-104639091D01*
X71327660Y-104639091D01*
G37*
G36*
X104715660Y-102412447D02*
X104751212Y-102423231D01*
X104783973Y-102440743D01*
X104812691Y-102464311D01*
X104836259Y-102493029D01*
X104853771Y-102525790D01*
X104864555Y-102561342D01*
X104868801Y-102604452D01*
X104868801Y-105663550D01*
X104864555Y-105706660D01*
X104853771Y-105742212D01*
X104836259Y-105774973D01*
X104812691Y-105803691D01*
X104783973Y-105827259D01*
X104751212Y-105844771D01*
X104715660Y-105855555D01*
X104672550Y-105859801D01*
X103613452Y-105859801D01*
X103570342Y-105855555D01*
X103534790Y-105844771D01*
X103502029Y-105827259D01*
X103473311Y-105803691D01*
X103449743Y-105774973D01*
X103432231Y-105742212D01*
X103421447Y-105706660D01*
X103417201Y-105663550D01*
X103417201Y-102604452D01*
X103421447Y-102561342D01*
X103432231Y-102525790D01*
X103449743Y-102493029D01*
X103473311Y-102464311D01*
X103502029Y-102440743D01*
X103534790Y-102423231D01*
X103570342Y-102412447D01*
X103613452Y-102408201D01*
X104672550Y-102408201D01*
X104715660Y-102412447D01*
X104715660Y-102412447D01*
G37*
G36*
X110515660Y-102412447D02*
X110551212Y-102423231D01*
X110583973Y-102440743D01*
X110612691Y-102464311D01*
X110636259Y-102493029D01*
X110653771Y-102525790D01*
X110664555Y-102561342D01*
X110668801Y-102604452D01*
X110668801Y-105663550D01*
X110664555Y-105706660D01*
X110653771Y-105742212D01*
X110636259Y-105774973D01*
X110612691Y-105803691D01*
X110583973Y-105827259D01*
X110551212Y-105844771D01*
X110515660Y-105855555D01*
X110472550Y-105859801D01*
X109413452Y-105859801D01*
X109370342Y-105855555D01*
X109334790Y-105844771D01*
X109302029Y-105827259D01*
X109273311Y-105803691D01*
X109249743Y-105774973D01*
X109232231Y-105742212D01*
X109221447Y-105706660D01*
X109217201Y-105663550D01*
X109217201Y-102604452D01*
X109221447Y-102561342D01*
X109232231Y-102525790D01*
X109249743Y-102493029D01*
X109273311Y-102464311D01*
X109302029Y-102440743D01*
X109334790Y-102423231D01*
X109370342Y-102412447D01*
X109413452Y-102408201D01*
X110472550Y-102408201D01*
X110515660Y-102412447D01*
X110515660Y-102412447D01*
G37*
G36*
X67254668Y-102624572D02*
X67327660Y-102639091D01*
X67575765Y-102741860D01*
X67691297Y-102819056D01*
X67799056Y-102891058D01*
X67988942Y-103080944D01*
X67988944Y-103080947D01*
X68138140Y-103304235D01*
X68240909Y-103552340D01*
X68293300Y-103815727D01*
X68293300Y-104084273D01*
X68240909Y-104347660D01*
X68138140Y-104595765D01*
X68040523Y-104741859D01*
X67988942Y-104819056D01*
X67799056Y-105008942D01*
X67799053Y-105008944D01*
X67575765Y-105158140D01*
X67575764Y-105158141D01*
X67575763Y-105158141D01*
X67327660Y-105260909D01*
X67064274Y-105313300D01*
X66795726Y-105313300D01*
X66532340Y-105260909D01*
X66284237Y-105158141D01*
X66284236Y-105158141D01*
X66284235Y-105158140D01*
X66060947Y-105008944D01*
X66060944Y-105008942D01*
X65871058Y-104819056D01*
X65819477Y-104741859D01*
X65721860Y-104595765D01*
X65619091Y-104347660D01*
X65566700Y-104084273D01*
X65566700Y-103815727D01*
X65619091Y-103552340D01*
X65721860Y-103304235D01*
X65871056Y-103080947D01*
X65871058Y-103080944D01*
X66060944Y-102891058D01*
X66168703Y-102819056D01*
X66284235Y-102741860D01*
X66532340Y-102639091D01*
X66605332Y-102624572D01*
X66795726Y-102586700D01*
X67064274Y-102586700D01*
X67254668Y-102624572D01*
X67254668Y-102624572D01*
G37*
G36*
X75254668Y-102624572D02*
X75327660Y-102639091D01*
X75575765Y-102741860D01*
X75691297Y-102819056D01*
X75799056Y-102891058D01*
X75988942Y-103080944D01*
X75988944Y-103080947D01*
X76138140Y-103304235D01*
X76240909Y-103552340D01*
X76293300Y-103815727D01*
X76293300Y-104084273D01*
X76240909Y-104347660D01*
X76138140Y-104595765D01*
X76040523Y-104741859D01*
X75988942Y-104819056D01*
X75799056Y-105008942D01*
X75799053Y-105008944D01*
X75575765Y-105158140D01*
X75575764Y-105158141D01*
X75575763Y-105158141D01*
X75327660Y-105260909D01*
X75064274Y-105313300D01*
X74795726Y-105313300D01*
X74532340Y-105260909D01*
X74284237Y-105158141D01*
X74284236Y-105158141D01*
X74284235Y-105158140D01*
X74060947Y-105008944D01*
X74060944Y-105008942D01*
X73871058Y-104819056D01*
X73819477Y-104741859D01*
X73721860Y-104595765D01*
X73619091Y-104347660D01*
X73566700Y-104084273D01*
X73566700Y-103815727D01*
X73619091Y-103552340D01*
X73721860Y-103304235D01*
X73871056Y-103080947D01*
X73871058Y-103080944D01*
X74060944Y-102891058D01*
X74168703Y-102819056D01*
X74284235Y-102741860D01*
X74532340Y-102639091D01*
X74605332Y-102624572D01*
X74795726Y-102586700D01*
X75064274Y-102586700D01*
X75254668Y-102624572D01*
X75254668Y-102624572D01*
G37*
G36*
X71327660Y-100639091D02*
X71575765Y-100741860D01*
X71691297Y-100819056D01*
X71799056Y-100891058D01*
X71988942Y-101080944D01*
X71988944Y-101080947D01*
X72109191Y-101260909D01*
X72138141Y-101304237D01*
X72240909Y-101552340D01*
X72293300Y-101815726D01*
X72293300Y-102084274D01*
X72280954Y-102146341D01*
X72240909Y-102347660D01*
X72138140Y-102595765D01*
X72040523Y-102741859D01*
X71988942Y-102819056D01*
X71799056Y-103008942D01*
X71799053Y-103008944D01*
X71575765Y-103158140D01*
X71575764Y-103158141D01*
X71575763Y-103158141D01*
X71327660Y-103260909D01*
X71064274Y-103313300D01*
X70795726Y-103313300D01*
X70532340Y-103260909D01*
X70284237Y-103158141D01*
X70284236Y-103158141D01*
X70284235Y-103158140D01*
X70060947Y-103008944D01*
X70060944Y-103008942D01*
X69871058Y-102819056D01*
X69819477Y-102741859D01*
X69721860Y-102595765D01*
X69619091Y-102347660D01*
X69579046Y-102146341D01*
X69566700Y-102084274D01*
X69566700Y-101815726D01*
X69619091Y-101552340D01*
X69721859Y-101304237D01*
X69750810Y-101260909D01*
X69871056Y-101080947D01*
X69871058Y-101080944D01*
X70060944Y-100891058D01*
X70168703Y-100819056D01*
X70284235Y-100741860D01*
X70532340Y-100639091D01*
X70795726Y-100586700D01*
X71064274Y-100586700D01*
X71327660Y-100639091D01*
X71327660Y-100639091D01*
G37*
G36*
X195544842Y-100146267D02*
X195544844Y-100146268D01*
X195544845Y-100146268D01*
X195772476Y-100240555D01*
X195772477Y-100240556D01*
X195977341Y-100377442D01*
X196151558Y-100551659D01*
X196151560Y-100551662D01*
X196288445Y-100756524D01*
X196314345Y-100819053D01*
X196382733Y-100984158D01*
X196430800Y-101225806D01*
X196430800Y-101472193D01*
X196382732Y-101713845D01*
X196288445Y-101941476D01*
X196288444Y-101941477D01*
X196151558Y-102146341D01*
X195977341Y-102320558D01*
X195977338Y-102320560D01*
X195772476Y-102457445D01*
X195544845Y-102551732D01*
X195544844Y-102551732D01*
X195544842Y-102551733D01*
X195303194Y-102599800D01*
X195056806Y-102599800D01*
X194815158Y-102551733D01*
X194815156Y-102551732D01*
X194815155Y-102551732D01*
X194587524Y-102457445D01*
X194382662Y-102320560D01*
X194382659Y-102320558D01*
X194208442Y-102146341D01*
X194071556Y-101941477D01*
X194071555Y-101941476D01*
X193977268Y-101713845D01*
X193929200Y-101472193D01*
X193929200Y-101225806D01*
X193977267Y-100984158D01*
X194045655Y-100819053D01*
X194071555Y-100756524D01*
X194208440Y-100551662D01*
X194208442Y-100551659D01*
X194382659Y-100377442D01*
X194587523Y-100240556D01*
X194587524Y-100240555D01*
X194815155Y-100146268D01*
X194815156Y-100146268D01*
X194815158Y-100146267D01*
X195056806Y-100098200D01*
X195303194Y-100098200D01*
X195544842Y-100146267D01*
X195544842Y-100146267D01*
G37*
G36*
X186544842Y-100146267D02*
X186544844Y-100146268D01*
X186544845Y-100146268D01*
X186772476Y-100240555D01*
X186772477Y-100240556D01*
X186977341Y-100377442D01*
X187151558Y-100551659D01*
X187151560Y-100551662D01*
X187288445Y-100756524D01*
X187314345Y-100819053D01*
X187382733Y-100984158D01*
X187430800Y-101225806D01*
X187430800Y-101472193D01*
X187382732Y-101713845D01*
X187288445Y-101941476D01*
X187288444Y-101941477D01*
X187151558Y-102146341D01*
X186977341Y-102320558D01*
X186977338Y-102320560D01*
X186772476Y-102457445D01*
X186544845Y-102551732D01*
X186544844Y-102551732D01*
X186544842Y-102551733D01*
X186303194Y-102599800D01*
X186056806Y-102599800D01*
X185815158Y-102551733D01*
X185815156Y-102551732D01*
X185815155Y-102551732D01*
X185587524Y-102457445D01*
X185382662Y-102320560D01*
X185382659Y-102320558D01*
X185208442Y-102146341D01*
X185071556Y-101941477D01*
X185071555Y-101941476D01*
X184977268Y-101713845D01*
X184929200Y-101472193D01*
X184929200Y-101225806D01*
X184977267Y-100984158D01*
X185045655Y-100819053D01*
X185071555Y-100756524D01*
X185208440Y-100551662D01*
X185208442Y-100551659D01*
X185382659Y-100377442D01*
X185587523Y-100240556D01*
X185587524Y-100240555D01*
X185815155Y-100146268D01*
X185815156Y-100146268D01*
X185815158Y-100146267D01*
X186056806Y-100098200D01*
X186303194Y-100098200D01*
X186544842Y-100146267D01*
X186544842Y-100146267D01*
G37*
G36*
X177544842Y-100146267D02*
X177544844Y-100146268D01*
X177544845Y-100146268D01*
X177772476Y-100240555D01*
X177772477Y-100240556D01*
X177977341Y-100377442D01*
X178151558Y-100551659D01*
X178151560Y-100551662D01*
X178288445Y-100756524D01*
X178314345Y-100819053D01*
X178382733Y-100984158D01*
X178430800Y-101225806D01*
X178430800Y-101472193D01*
X178382732Y-101713845D01*
X178288445Y-101941476D01*
X178288444Y-101941477D01*
X178151558Y-102146341D01*
X177977341Y-102320558D01*
X177977338Y-102320560D01*
X177772476Y-102457445D01*
X177544845Y-102551732D01*
X177544844Y-102551732D01*
X177544842Y-102551733D01*
X177303194Y-102599800D01*
X177056806Y-102599800D01*
X176815158Y-102551733D01*
X176815156Y-102551732D01*
X176815155Y-102551732D01*
X176587524Y-102457445D01*
X176382662Y-102320560D01*
X176382659Y-102320558D01*
X176208442Y-102146341D01*
X176071556Y-101941477D01*
X176071555Y-101941476D01*
X175977268Y-101713845D01*
X175929200Y-101472193D01*
X175929200Y-101225806D01*
X175977267Y-100984158D01*
X176045655Y-100819053D01*
X176071555Y-100756524D01*
X176208440Y-100551662D01*
X176208442Y-100551659D01*
X176382659Y-100377442D01*
X176587523Y-100240556D01*
X176587524Y-100240555D01*
X176815155Y-100146268D01*
X176815156Y-100146268D01*
X176815158Y-100146267D01*
X177056806Y-100098200D01*
X177303194Y-100098200D01*
X177544842Y-100146267D01*
X177544842Y-100146267D01*
G37*
G36*
X75327660Y-98639091D02*
X75575765Y-98741860D01*
X75691297Y-98819056D01*
X75799056Y-98891058D01*
X75988942Y-99080944D01*
X75988944Y-99080947D01*
X76109191Y-99260909D01*
X76138141Y-99304237D01*
X76240909Y-99552340D01*
X76293300Y-99815726D01*
X76293300Y-100084274D01*
X76240909Y-100347660D01*
X76156410Y-100551659D01*
X76138140Y-100595765D01*
X76040523Y-100741859D01*
X75988942Y-100819056D01*
X75799056Y-101008942D01*
X75799053Y-101008944D01*
X75575765Y-101158140D01*
X75575764Y-101158141D01*
X75575763Y-101158141D01*
X75327660Y-101260909D01*
X75064274Y-101313300D01*
X74795726Y-101313300D01*
X74532340Y-101260909D01*
X74284237Y-101158141D01*
X74284236Y-101158141D01*
X74284235Y-101158140D01*
X74060947Y-101008944D01*
X74060944Y-101008942D01*
X73871058Y-100819056D01*
X73819477Y-100741859D01*
X73721860Y-100595765D01*
X73703591Y-100551659D01*
X73619091Y-100347660D01*
X73566700Y-100084274D01*
X73566700Y-99815726D01*
X73619091Y-99552340D01*
X73721859Y-99304237D01*
X73750810Y-99260909D01*
X73871056Y-99080947D01*
X73871058Y-99080944D01*
X74060944Y-98891058D01*
X74168703Y-98819056D01*
X74284235Y-98741860D01*
X74532340Y-98639091D01*
X74795726Y-98586700D01*
X75064274Y-98586700D01*
X75327660Y-98639091D01*
X75327660Y-98639091D01*
G37*
G36*
X67327660Y-98639091D02*
X67575765Y-98741860D01*
X67691297Y-98819056D01*
X67799056Y-98891058D01*
X67988942Y-99080944D01*
X67988944Y-99080947D01*
X68109191Y-99260909D01*
X68138141Y-99304237D01*
X68240909Y-99552340D01*
X68293300Y-99815726D01*
X68293300Y-100084274D01*
X68240909Y-100347660D01*
X68156410Y-100551659D01*
X68138140Y-100595765D01*
X68040523Y-100741859D01*
X67988942Y-100819056D01*
X67799056Y-101008942D01*
X67799053Y-101008944D01*
X67575765Y-101158140D01*
X67575764Y-101158141D01*
X67575763Y-101158141D01*
X67327660Y-101260909D01*
X67064274Y-101313300D01*
X66795726Y-101313300D01*
X66532340Y-101260909D01*
X66284237Y-101158141D01*
X66284236Y-101158141D01*
X66284235Y-101158140D01*
X66060947Y-101008944D01*
X66060944Y-101008942D01*
X65871058Y-100819056D01*
X65819477Y-100741859D01*
X65721860Y-100595765D01*
X65703591Y-100551659D01*
X65619091Y-100347660D01*
X65566700Y-100084274D01*
X65566700Y-99815726D01*
X65619091Y-99552340D01*
X65721859Y-99304237D01*
X65750810Y-99260909D01*
X65871056Y-99080947D01*
X65871058Y-99080944D01*
X66060944Y-98891058D01*
X66168703Y-98819056D01*
X66284235Y-98741860D01*
X66532340Y-98639091D01*
X66795726Y-98586700D01*
X67064274Y-98586700D01*
X67327660Y-98639091D01*
X67327660Y-98639091D01*
G37*
G36*
X71327660Y-96639091D02*
X71575765Y-96741860D01*
X71691297Y-96819056D01*
X71799056Y-96891058D01*
X71988942Y-97080944D01*
X71988944Y-97080947D01*
X72138140Y-97304235D01*
X72240909Y-97552340D01*
X72293300Y-97815727D01*
X72293300Y-98084273D01*
X72240909Y-98347660D01*
X72138140Y-98595765D01*
X72040523Y-98741859D01*
X71988942Y-98819056D01*
X71799056Y-99008942D01*
X71799053Y-99008944D01*
X71575765Y-99158140D01*
X71575764Y-99158141D01*
X71575763Y-99158141D01*
X71327660Y-99260909D01*
X71064274Y-99313300D01*
X70795726Y-99313300D01*
X70532340Y-99260909D01*
X70284237Y-99158141D01*
X70284236Y-99158141D01*
X70284235Y-99158140D01*
X70060947Y-99008944D01*
X70060944Y-99008942D01*
X69871058Y-98819056D01*
X69819477Y-98741859D01*
X69721860Y-98595765D01*
X69619091Y-98347660D01*
X69566700Y-98084273D01*
X69566700Y-97815727D01*
X69619091Y-97552340D01*
X69721860Y-97304235D01*
X69871056Y-97080947D01*
X69871058Y-97080944D01*
X70060944Y-96891058D01*
X70168703Y-96819056D01*
X70284235Y-96741860D01*
X70532340Y-96639091D01*
X70795726Y-96586700D01*
X71064274Y-96586700D01*
X71327660Y-96639091D01*
X71327660Y-96639091D01*
G37*
G36*
X75327660Y-94639091D02*
X75575765Y-94741860D01*
X75691297Y-94819056D01*
X75799056Y-94891058D01*
X75988942Y-95080944D01*
X75988944Y-95080947D01*
X76138140Y-95304235D01*
X76240909Y-95552340D01*
X76293300Y-95815727D01*
X76293300Y-96084273D01*
X76240909Y-96347660D01*
X76138140Y-96595765D01*
X76040523Y-96741859D01*
X75988942Y-96819056D01*
X75799056Y-97008942D01*
X75799053Y-97008944D01*
X75575765Y-97158140D01*
X75575764Y-97158141D01*
X75575763Y-97158141D01*
X75327660Y-97260909D01*
X75064274Y-97313300D01*
X74795726Y-97313300D01*
X74532340Y-97260909D01*
X74284237Y-97158141D01*
X74284236Y-97158141D01*
X74284235Y-97158140D01*
X74060947Y-97008944D01*
X74060944Y-97008942D01*
X73871058Y-96819056D01*
X73819477Y-96741859D01*
X73721860Y-96595765D01*
X73619091Y-96347660D01*
X73566700Y-96084273D01*
X73566700Y-95815727D01*
X73619091Y-95552340D01*
X73721860Y-95304235D01*
X73871056Y-95080947D01*
X73871058Y-95080944D01*
X74060944Y-94891058D01*
X74168703Y-94819056D01*
X74284235Y-94741860D01*
X74532340Y-94639091D01*
X74795726Y-94586700D01*
X75064274Y-94586700D01*
X75327660Y-94639091D01*
X75327660Y-94639091D01*
G37*
G36*
X67327660Y-94639091D02*
X67575765Y-94741860D01*
X67691297Y-94819056D01*
X67799056Y-94891058D01*
X67988942Y-95080944D01*
X67988944Y-95080947D01*
X68138140Y-95304235D01*
X68240909Y-95552340D01*
X68293300Y-95815727D01*
X68293300Y-96084273D01*
X68240909Y-96347660D01*
X68138140Y-96595765D01*
X68040523Y-96741859D01*
X67988942Y-96819056D01*
X67799056Y-97008942D01*
X67799053Y-97008944D01*
X67575765Y-97158140D01*
X67575764Y-97158141D01*
X67575763Y-97158141D01*
X67327660Y-97260909D01*
X67064274Y-97313300D01*
X66795726Y-97313300D01*
X66532340Y-97260909D01*
X66284237Y-97158141D01*
X66284236Y-97158141D01*
X66284235Y-97158140D01*
X66060947Y-97008944D01*
X66060944Y-97008942D01*
X65871058Y-96819056D01*
X65819477Y-96741859D01*
X65721860Y-96595765D01*
X65619091Y-96347660D01*
X65566700Y-96084273D01*
X65566700Y-95815727D01*
X65619091Y-95552340D01*
X65721860Y-95304235D01*
X65871056Y-95080947D01*
X65871058Y-95080944D01*
X66060944Y-94891058D01*
X66168703Y-94819056D01*
X66284235Y-94741860D01*
X66532340Y-94639091D01*
X66795726Y-94586700D01*
X67064274Y-94586700D01*
X67327660Y-94639091D01*
X67327660Y-94639091D01*
G37*
G36*
X85591507Y-93423582D02*
X85782740Y-93502793D01*
X85953687Y-93617016D01*
X85954849Y-93617793D01*
X86101207Y-93764151D01*
X86101209Y-93764154D01*
X86216207Y-93936260D01*
X86295418Y-94127493D01*
X86335800Y-94330505D01*
X86335800Y-94537495D01*
X86295418Y-94740507D01*
X86216207Y-94931740D01*
X86116512Y-95080944D01*
X86101207Y-95103849D01*
X85954849Y-95250207D01*
X85954846Y-95250209D01*
X85782740Y-95365207D01*
X85591507Y-95444418D01*
X85388495Y-95484800D01*
X85181505Y-95484800D01*
X84978493Y-95444418D01*
X84787260Y-95365207D01*
X84615154Y-95250209D01*
X84615151Y-95250207D01*
X84468793Y-95103849D01*
X84453488Y-95080944D01*
X84353793Y-94931740D01*
X84274582Y-94740507D01*
X84234200Y-94537495D01*
X84234200Y-94330505D01*
X84274582Y-94127493D01*
X84353793Y-93936260D01*
X84468791Y-93764154D01*
X84468793Y-93764151D01*
X84615151Y-93617793D01*
X84616313Y-93617016D01*
X84787260Y-93502793D01*
X84978493Y-93423582D01*
X85181505Y-93383200D01*
X85388495Y-93383200D01*
X85591507Y-93423582D01*
X85591507Y-93423582D01*
G37*
G36*
X71327660Y-92639091D02*
X71575765Y-92741860D01*
X71691297Y-92819056D01*
X71799056Y-92891058D01*
X71988942Y-93080944D01*
X71988944Y-93080947D01*
X72109191Y-93260909D01*
X72138141Y-93304237D01*
X72240909Y-93552340D01*
X72283042Y-93764154D01*
X72293300Y-93815727D01*
X72293300Y-94084273D01*
X72240909Y-94347660D01*
X72138140Y-94595765D01*
X72041427Y-94740507D01*
X71988942Y-94819056D01*
X71799056Y-95008942D01*
X71799053Y-95008944D01*
X71575765Y-95158140D01*
X71575764Y-95158141D01*
X71575763Y-95158141D01*
X71327660Y-95260909D01*
X71064274Y-95313300D01*
X70795726Y-95313300D01*
X70532340Y-95260909D01*
X70284237Y-95158141D01*
X70284236Y-95158141D01*
X70284235Y-95158140D01*
X70060947Y-95008944D01*
X70060944Y-95008942D01*
X69871058Y-94819056D01*
X69818573Y-94740507D01*
X69721860Y-94595765D01*
X69619091Y-94347660D01*
X69566700Y-94084273D01*
X69566700Y-93815727D01*
X69576959Y-93764154D01*
X69619091Y-93552340D01*
X69721859Y-93304237D01*
X69750810Y-93260909D01*
X69871056Y-93080947D01*
X69871058Y-93080944D01*
X70060944Y-92891058D01*
X70168703Y-92819056D01*
X70284235Y-92741860D01*
X70532340Y-92639091D01*
X70795726Y-92586700D01*
X71064274Y-92586700D01*
X71327660Y-92639091D01*
X71327660Y-92639091D01*
G37*
G36*
X67327660Y-90639091D02*
X67575765Y-90741860D01*
X67691297Y-90819056D01*
X67799056Y-90891058D01*
X67988942Y-91080944D01*
X67988944Y-91080947D01*
X68138140Y-91304235D01*
X68240909Y-91552340D01*
X68293300Y-91815727D01*
X68293300Y-92084273D01*
X68240909Y-92347660D01*
X68138140Y-92595765D01*
X68040523Y-92741859D01*
X67988942Y-92819056D01*
X67799056Y-93008942D01*
X67799053Y-93008944D01*
X67575765Y-93158140D01*
X67575764Y-93158141D01*
X67575763Y-93158141D01*
X67327660Y-93260909D01*
X67064274Y-93313300D01*
X66795726Y-93313300D01*
X66532340Y-93260909D01*
X66284237Y-93158141D01*
X66284236Y-93158141D01*
X66284235Y-93158140D01*
X66060947Y-93008944D01*
X66060944Y-93008942D01*
X65871058Y-92819056D01*
X65819477Y-92741859D01*
X65721860Y-92595765D01*
X65619091Y-92347660D01*
X65566700Y-92084273D01*
X65566700Y-91815727D01*
X65619091Y-91552340D01*
X65721860Y-91304235D01*
X65871056Y-91080947D01*
X65871058Y-91080944D01*
X66060944Y-90891058D01*
X66168703Y-90819056D01*
X66284235Y-90741860D01*
X66532340Y-90639091D01*
X66795726Y-90586700D01*
X67064274Y-90586700D01*
X67327660Y-90639091D01*
X67327660Y-90639091D01*
G37*
G36*
X75327660Y-90639091D02*
X75575765Y-90741860D01*
X75691297Y-90819056D01*
X75799056Y-90891058D01*
X75988942Y-91080944D01*
X75988944Y-91080947D01*
X76138140Y-91304235D01*
X76240909Y-91552340D01*
X76293300Y-91815727D01*
X76293300Y-92084273D01*
X76240909Y-92347660D01*
X76138140Y-92595765D01*
X76040523Y-92741859D01*
X75988942Y-92819056D01*
X75799056Y-93008942D01*
X75799053Y-93008944D01*
X75575765Y-93158140D01*
X75575764Y-93158141D01*
X75575763Y-93158141D01*
X75327660Y-93260909D01*
X75064274Y-93313300D01*
X74795726Y-93313300D01*
X74532340Y-93260909D01*
X74284237Y-93158141D01*
X74284236Y-93158141D01*
X74284235Y-93158140D01*
X74060947Y-93008944D01*
X74060944Y-93008942D01*
X73871058Y-92819056D01*
X73819477Y-92741859D01*
X73721860Y-92595765D01*
X73619091Y-92347660D01*
X73566700Y-92084273D01*
X73566700Y-91815727D01*
X73619091Y-91552340D01*
X73721860Y-91304235D01*
X73871056Y-91080947D01*
X73871058Y-91080944D01*
X74060944Y-90891058D01*
X74168703Y-90819056D01*
X74284235Y-90741860D01*
X74532340Y-90639091D01*
X74795726Y-90586700D01*
X75064274Y-90586700D01*
X75327660Y-90639091D01*
X75327660Y-90639091D01*
G37*
G36*
X71327660Y-88639091D02*
X71575765Y-88741860D01*
X71691297Y-88819056D01*
X71799056Y-88891058D01*
X71988942Y-89080944D01*
X71988944Y-89080947D01*
X72109191Y-89260909D01*
X72138141Y-89304237D01*
X72240909Y-89552340D01*
X72293300Y-89815726D01*
X72293300Y-90084274D01*
X72240909Y-90347660D01*
X72184104Y-90484800D01*
X72138140Y-90595765D01*
X72040523Y-90741859D01*
X71988942Y-90819056D01*
X71799056Y-91008942D01*
X71799053Y-91008944D01*
X71575765Y-91158140D01*
X71575764Y-91158141D01*
X71575763Y-91158141D01*
X71327660Y-91260909D01*
X71064274Y-91313300D01*
X70795726Y-91313300D01*
X70532340Y-91260909D01*
X70284237Y-91158141D01*
X70284236Y-91158141D01*
X70284235Y-91158140D01*
X70060947Y-91008944D01*
X70060944Y-91008942D01*
X69871058Y-90819056D01*
X69819477Y-90741859D01*
X69721860Y-90595765D01*
X69675897Y-90484800D01*
X69619091Y-90347660D01*
X69566700Y-90084274D01*
X69566700Y-89815726D01*
X69619091Y-89552340D01*
X69721859Y-89304237D01*
X69750810Y-89260909D01*
X69871056Y-89080947D01*
X69871058Y-89080944D01*
X70060944Y-88891058D01*
X70168703Y-88819056D01*
X70284235Y-88741860D01*
X70532340Y-88639091D01*
X70795726Y-88586700D01*
X71064274Y-88586700D01*
X71327660Y-88639091D01*
X71327660Y-88639091D01*
G37*
G36*
X86335800Y-90484800D02*
X84234200Y-90484800D01*
X84234200Y-88383200D01*
X86335800Y-88383200D01*
X86335800Y-90484800D01*
X86335800Y-90484800D01*
G37*
G36*
X126034842Y-87816267D02*
X126034844Y-87816268D01*
X126034845Y-87816268D01*
X126262476Y-87910555D01*
X126262477Y-87910556D01*
X126467341Y-88047442D01*
X126641558Y-88221659D01*
X126641560Y-88221662D01*
X126778445Y-88426524D01*
X126844791Y-88586700D01*
X126872733Y-88654158D01*
X126920800Y-88895806D01*
X126920800Y-89142194D01*
X126886765Y-89313300D01*
X126872732Y-89383845D01*
X126778445Y-89611476D01*
X126778444Y-89611477D01*
X126641558Y-89816341D01*
X126467341Y-89990558D01*
X126467338Y-89990560D01*
X126262476Y-90127445D01*
X126034845Y-90221732D01*
X126034844Y-90221732D01*
X126034842Y-90221733D01*
X125793194Y-90269800D01*
X125546806Y-90269800D01*
X125305158Y-90221733D01*
X125305156Y-90221732D01*
X125305155Y-90221732D01*
X125077524Y-90127445D01*
X124872662Y-89990560D01*
X124872659Y-89990558D01*
X124698442Y-89816341D01*
X124561556Y-89611477D01*
X124561555Y-89611476D01*
X124467268Y-89383845D01*
X124453236Y-89313300D01*
X124419200Y-89142194D01*
X124419200Y-88895806D01*
X124467267Y-88654158D01*
X124495209Y-88586700D01*
X124561555Y-88426524D01*
X124698440Y-88221662D01*
X124698442Y-88221659D01*
X124872659Y-88047442D01*
X125077523Y-87910556D01*
X125077524Y-87910555D01*
X125305155Y-87816268D01*
X125305156Y-87816268D01*
X125305158Y-87816267D01*
X125546806Y-87768200D01*
X125793194Y-87768200D01*
X126034842Y-87816267D01*
X126034842Y-87816267D01*
G37*
G36*
X75327660Y-86639091D02*
X75575765Y-86741860D01*
X75691297Y-86819056D01*
X75799056Y-86891058D01*
X75988942Y-87080944D01*
X75988944Y-87080947D01*
X76138140Y-87304235D01*
X76240909Y-87552340D01*
X76293300Y-87815727D01*
X76293300Y-88084273D01*
X76240909Y-88347660D01*
X76138140Y-88595765D01*
X76099125Y-88654155D01*
X75988942Y-88819056D01*
X75799056Y-89008942D01*
X75799053Y-89008944D01*
X75575765Y-89158140D01*
X75575764Y-89158141D01*
X75575763Y-89158141D01*
X75327660Y-89260909D01*
X75064274Y-89313300D01*
X74795726Y-89313300D01*
X74532340Y-89260909D01*
X74284237Y-89158141D01*
X74284236Y-89158141D01*
X74284235Y-89158140D01*
X74060947Y-89008944D01*
X74060944Y-89008942D01*
X73871058Y-88819056D01*
X73760875Y-88654155D01*
X73721860Y-88595765D01*
X73619091Y-88347660D01*
X73566700Y-88084273D01*
X73566700Y-87815727D01*
X73619091Y-87552340D01*
X73721860Y-87304235D01*
X73871056Y-87080947D01*
X73871058Y-87080944D01*
X74060944Y-86891058D01*
X74168703Y-86819056D01*
X74284235Y-86741860D01*
X74532340Y-86639091D01*
X74795726Y-86586700D01*
X75064274Y-86586700D01*
X75327660Y-86639091D01*
X75327660Y-86639091D01*
G37*
G36*
X67327660Y-86639091D02*
X67575765Y-86741860D01*
X67691297Y-86819056D01*
X67799056Y-86891058D01*
X67988942Y-87080944D01*
X67988944Y-87080947D01*
X68138140Y-87304235D01*
X68240909Y-87552340D01*
X68293300Y-87815727D01*
X68293300Y-88084273D01*
X68240909Y-88347660D01*
X68138140Y-88595765D01*
X68099125Y-88654155D01*
X67988942Y-88819056D01*
X67799056Y-89008942D01*
X67799053Y-89008944D01*
X67575765Y-89158140D01*
X67575764Y-89158141D01*
X67575763Y-89158141D01*
X67327660Y-89260909D01*
X67064274Y-89313300D01*
X66795726Y-89313300D01*
X66532340Y-89260909D01*
X66284237Y-89158141D01*
X66284236Y-89158141D01*
X66284235Y-89158140D01*
X66060947Y-89008944D01*
X66060944Y-89008942D01*
X65871058Y-88819056D01*
X65760875Y-88654155D01*
X65721860Y-88595765D01*
X65619091Y-88347660D01*
X65566700Y-88084273D01*
X65566700Y-87815727D01*
X65619091Y-87552340D01*
X65721860Y-87304235D01*
X65871056Y-87080947D01*
X65871058Y-87080944D01*
X66060944Y-86891058D01*
X66168703Y-86819056D01*
X66284235Y-86741860D01*
X66532340Y-86639091D01*
X66795726Y-86586700D01*
X67064274Y-86586700D01*
X67327660Y-86639091D01*
X67327660Y-86639091D01*
G37*
G36*
X71327660Y-84639091D02*
X71575765Y-84741860D01*
X71691297Y-84819056D01*
X71799056Y-84891058D01*
X71988942Y-85080944D01*
X71988944Y-85080947D01*
X72138140Y-85304235D01*
X72240909Y-85552340D01*
X72293300Y-85815727D01*
X72293300Y-86084273D01*
X72240909Y-86347660D01*
X72138140Y-86595765D01*
X72040523Y-86741859D01*
X71988942Y-86819056D01*
X71799056Y-87008942D01*
X71799053Y-87008944D01*
X71575765Y-87158140D01*
X71575764Y-87158141D01*
X71575763Y-87158141D01*
X71327660Y-87260909D01*
X71064274Y-87313300D01*
X70795726Y-87313300D01*
X70532340Y-87260909D01*
X70284237Y-87158141D01*
X70284236Y-87158141D01*
X70284235Y-87158140D01*
X70060947Y-87008944D01*
X70060944Y-87008942D01*
X69871058Y-86819056D01*
X69819477Y-86741859D01*
X69721860Y-86595765D01*
X69619091Y-86347660D01*
X69566700Y-86084273D01*
X69566700Y-85815727D01*
X69619091Y-85552340D01*
X69721860Y-85304235D01*
X69871056Y-85080947D01*
X69871058Y-85080944D01*
X70060944Y-84891058D01*
X70168703Y-84819056D01*
X70284235Y-84741860D01*
X70532340Y-84639091D01*
X70795726Y-84586700D01*
X71064274Y-84586700D01*
X71327660Y-84639091D01*
X71327660Y-84639091D01*
G37*
G36*
X67327660Y-82639091D02*
X67575765Y-82741860D01*
X67691297Y-82819056D01*
X67799056Y-82891058D01*
X67988942Y-83080944D01*
X67988944Y-83080947D01*
X68138140Y-83304235D01*
X68240909Y-83552340D01*
X68293300Y-83815727D01*
X68293300Y-84084273D01*
X68240909Y-84347660D01*
X68138140Y-84595765D01*
X68040523Y-84741859D01*
X67988942Y-84819056D01*
X67799056Y-85008942D01*
X67799053Y-85008944D01*
X67575765Y-85158140D01*
X67575764Y-85158141D01*
X67575763Y-85158141D01*
X67327660Y-85260909D01*
X67064274Y-85313300D01*
X66795726Y-85313300D01*
X66532340Y-85260909D01*
X66284237Y-85158141D01*
X66284236Y-85158141D01*
X66284235Y-85158140D01*
X66060947Y-85008944D01*
X66060944Y-85008942D01*
X65871058Y-84819056D01*
X65819477Y-84741859D01*
X65721860Y-84595765D01*
X65619091Y-84347660D01*
X65566700Y-84084273D01*
X65566700Y-83815727D01*
X65619091Y-83552340D01*
X65721860Y-83304235D01*
X65871056Y-83080947D01*
X65871058Y-83080944D01*
X66060944Y-82891058D01*
X66168703Y-82819056D01*
X66284235Y-82741860D01*
X66532340Y-82639091D01*
X66795726Y-82586700D01*
X67064274Y-82586700D01*
X67327660Y-82639091D01*
X67327660Y-82639091D01*
G37*
G36*
X75327660Y-82639091D02*
X75575765Y-82741860D01*
X75691297Y-82819056D01*
X75799056Y-82891058D01*
X75988942Y-83080944D01*
X75988944Y-83080947D01*
X76138140Y-83304235D01*
X76240909Y-83552340D01*
X76293300Y-83815727D01*
X76293300Y-84084273D01*
X76240909Y-84347660D01*
X76138140Y-84595765D01*
X76040523Y-84741859D01*
X75988942Y-84819056D01*
X75799056Y-85008942D01*
X75799053Y-85008944D01*
X75575765Y-85158140D01*
X75575764Y-85158141D01*
X75575763Y-85158141D01*
X75327660Y-85260909D01*
X75064274Y-85313300D01*
X74795726Y-85313300D01*
X74532340Y-85260909D01*
X74284237Y-85158141D01*
X74284236Y-85158141D01*
X74284235Y-85158140D01*
X74060947Y-85008944D01*
X74060944Y-85008942D01*
X73871058Y-84819056D01*
X73819477Y-84741859D01*
X73721860Y-84595765D01*
X73619091Y-84347660D01*
X73566700Y-84084273D01*
X73566700Y-83815727D01*
X73619091Y-83552340D01*
X73721860Y-83304235D01*
X73871056Y-83080947D01*
X73871058Y-83080944D01*
X74060944Y-82891058D01*
X74168703Y-82819056D01*
X74284235Y-82741860D01*
X74532340Y-82639091D01*
X74795726Y-82586700D01*
X75064274Y-82586700D01*
X75327660Y-82639091D01*
X75327660Y-82639091D01*
G37*
G36*
X100405800Y-83494800D02*
X93904200Y-83494800D01*
X93904200Y-77593200D01*
X100405800Y-77593200D01*
X100405800Y-83494800D01*
X100405800Y-83494800D01*
G37*
G36*
X104605800Y-83474800D02*
X102304200Y-83474800D01*
X102304200Y-82173200D01*
X104605800Y-82173200D01*
X104605800Y-83474800D01*
X104605800Y-83474800D01*
G37*
G36*
X71327660Y-80639091D02*
X71575765Y-80741860D01*
X71691297Y-80819056D01*
X71799056Y-80891058D01*
X71988942Y-81080944D01*
X71988944Y-81080947D01*
X72138140Y-81304235D01*
X72240909Y-81552340D01*
X72293300Y-81815727D01*
X72293300Y-82084273D01*
X72240909Y-82347660D01*
X72138140Y-82595765D01*
X72040523Y-82741859D01*
X71988942Y-82819056D01*
X71799056Y-83008942D01*
X71799053Y-83008944D01*
X71575765Y-83158140D01*
X71575764Y-83158141D01*
X71575763Y-83158141D01*
X71327660Y-83260909D01*
X71064274Y-83313300D01*
X70795726Y-83313300D01*
X70532340Y-83260909D01*
X70284237Y-83158141D01*
X70284236Y-83158141D01*
X70284235Y-83158140D01*
X70060947Y-83008944D01*
X70060944Y-83008942D01*
X69871058Y-82819056D01*
X69819477Y-82741859D01*
X69721860Y-82595765D01*
X69619091Y-82347660D01*
X69566700Y-82084273D01*
X69566700Y-81815727D01*
X69619091Y-81552340D01*
X69721860Y-81304235D01*
X69871056Y-81080947D01*
X69871058Y-81080944D01*
X70060944Y-80891058D01*
X70168703Y-80819056D01*
X70284235Y-80741860D01*
X70532340Y-80639091D01*
X70795726Y-80586700D01*
X71064274Y-80586700D01*
X71327660Y-80639091D01*
X71327660Y-80639091D01*
G37*
G36*
X126920800Y-82769800D02*
X124419200Y-82769800D01*
X124419200Y-80268200D01*
X126920800Y-80268200D01*
X126920800Y-82769800D01*
X126920800Y-82769800D01*
G37*
G36*
X76293300Y-81313300D02*
X73566700Y-81313300D01*
X73566700Y-78586700D01*
X76293300Y-78586700D01*
X76293300Y-81313300D01*
X76293300Y-81313300D01*
G37*
G36*
X67327660Y-78639091D02*
X67514346Y-78716419D01*
X67575765Y-78741860D01*
X67631663Y-78779210D01*
X67799056Y-78891058D01*
X67988942Y-79080944D01*
X67988944Y-79080947D01*
X68128153Y-79289288D01*
X68138141Y-79304237D01*
X68240909Y-79552340D01*
X68293300Y-79815726D01*
X68293300Y-80084274D01*
X68240909Y-80347660D01*
X68196914Y-80453874D01*
X68138140Y-80595765D01*
X68040523Y-80741859D01*
X67988942Y-80819056D01*
X67799056Y-81008942D01*
X67799053Y-81008944D01*
X67575765Y-81158140D01*
X67575764Y-81158141D01*
X67575763Y-81158141D01*
X67327660Y-81260909D01*
X67064274Y-81313300D01*
X66795726Y-81313300D01*
X66532340Y-81260909D01*
X66284237Y-81158141D01*
X66284236Y-81158141D01*
X66284235Y-81158140D01*
X66060947Y-81008944D01*
X66060944Y-81008942D01*
X65871058Y-80819056D01*
X65819477Y-80741859D01*
X65721860Y-80595765D01*
X65663087Y-80453874D01*
X65619091Y-80347660D01*
X65566700Y-80084274D01*
X65566700Y-79815726D01*
X65619091Y-79552340D01*
X65721859Y-79304237D01*
X65731848Y-79289288D01*
X65871056Y-79080947D01*
X65871058Y-79080944D01*
X66060944Y-78891058D01*
X66228337Y-78779210D01*
X66284235Y-78741860D01*
X66345655Y-78716419D01*
X66532340Y-78639091D01*
X66795726Y-78586700D01*
X67064274Y-78586700D01*
X67327660Y-78639091D01*
X67327660Y-78639091D01*
G37*
G36*
X205566503Y-74202126D02*
X206158110Y-74447178D01*
X206690547Y-74802941D01*
X207143339Y-75255733D01*
X207499102Y-75788170D01*
X207744154Y-76379777D01*
X207869080Y-77007823D01*
X207869080Y-77648177D01*
X207744154Y-78276223D01*
X207499102Y-78867830D01*
X207143339Y-79400267D01*
X206690547Y-79853059D01*
X206158110Y-80208822D01*
X205566503Y-80453874D01*
X204938457Y-80578800D01*
X204298103Y-80578800D01*
X203670057Y-80453874D01*
X203078450Y-80208822D01*
X202546013Y-79853059D01*
X202093221Y-79400267D01*
X201737458Y-78867830D01*
X201492406Y-78276223D01*
X201367480Y-77648177D01*
X201367480Y-77007823D01*
X201492406Y-76379777D01*
X201737458Y-75788170D01*
X202093221Y-75255733D01*
X202546013Y-74802941D01*
X203078450Y-74447178D01*
X203670057Y-74202126D01*
X204298103Y-74077200D01*
X204938457Y-74077200D01*
X205566503Y-74202126D01*
X205566503Y-74202126D01*
G37*
G36*
X87051800Y-80406800D02*
X84750200Y-80406800D01*
X84750200Y-78105200D01*
X87051800Y-78105200D01*
X87051800Y-80406800D01*
X87051800Y-80406800D01*
G37*
G36*
X104605800Y-78914800D02*
X102304200Y-78914800D01*
X102304200Y-77613200D01*
X104605800Y-77613200D01*
X104605800Y-78914800D01*
X104605800Y-78914800D01*
G37*
G36*
X113712800Y-77181800D02*
X111211200Y-77181800D01*
X111211200Y-74680200D01*
X113712800Y-74680200D01*
X113712800Y-77181800D01*
X113712800Y-77181800D01*
G37*
G36*
X144906223Y-69884126D02*
X145497830Y-70129178D01*
X146030267Y-70484941D01*
X146483059Y-70937733D01*
X146838822Y-71470170D01*
X147083874Y-72061777D01*
X147208800Y-72689823D01*
X147208800Y-73330177D01*
X147083874Y-73958223D01*
X146838822Y-74549830D01*
X146483059Y-75082267D01*
X146030267Y-75535059D01*
X145497830Y-75890822D01*
X144906223Y-76135874D01*
X144278177Y-76260800D01*
X143637823Y-76260800D01*
X143009777Y-76135874D01*
X142418170Y-75890822D01*
X141885733Y-75535059D01*
X141432941Y-75082267D01*
X141077178Y-74549830D01*
X140832126Y-73958223D01*
X140707200Y-73330177D01*
X140707200Y-72689823D01*
X140832126Y-72061777D01*
X141077178Y-71470170D01*
X141432941Y-70937733D01*
X141885733Y-70484941D01*
X142418170Y-70129178D01*
X143009777Y-69884126D01*
X143637823Y-69759200D01*
X144278177Y-69759200D01*
X144906223Y-69884126D01*
X144906223Y-69884126D01*
G37*
G36*
X99396065Y-73686526D02*
X99480596Y-73694851D01*
X99697524Y-73760655D01*
X99804384Y-73817773D01*
X99897444Y-73867515D01*
X100072676Y-74011324D01*
X100216485Y-74186556D01*
X100258654Y-74265449D01*
X100323345Y-74386476D01*
X100341759Y-74447179D01*
X100372898Y-74549830D01*
X100389149Y-74603405D01*
X100411368Y-74829000D01*
X100389149Y-75054595D01*
X100323345Y-75271524D01*
X100307026Y-75302054D01*
X100216485Y-75471444D01*
X100072676Y-75646676D01*
X99897444Y-75790485D01*
X99874112Y-75802956D01*
X99697524Y-75897345D01*
X99589059Y-75930247D01*
X99480596Y-75963149D01*
X99396065Y-75971475D01*
X99311535Y-75979800D01*
X99198465Y-75979800D01*
X99113935Y-75971475D01*
X99029404Y-75963149D01*
X98812476Y-75897345D01*
X98635888Y-75802956D01*
X98612556Y-75790485D01*
X98437324Y-75646676D01*
X98293515Y-75471444D01*
X98202974Y-75302054D01*
X98186655Y-75271524D01*
X98120851Y-75054595D01*
X98098632Y-74829000D01*
X98120851Y-74603405D01*
X98137103Y-74549830D01*
X98168241Y-74447179D01*
X98186655Y-74386476D01*
X98251346Y-74265449D01*
X98293515Y-74186556D01*
X98437324Y-74011324D01*
X98612556Y-73867515D01*
X98705616Y-73817773D01*
X98812476Y-73760655D01*
X99029404Y-73694851D01*
X99113935Y-73686526D01*
X99198465Y-73678200D01*
X99311535Y-73678200D01*
X99396065Y-73686526D01*
X99396065Y-73686526D01*
G37*
G36*
X90245800Y-75979800D02*
X87944200Y-75979800D01*
X87944200Y-73678200D01*
X90245800Y-73678200D01*
X90245800Y-75979800D01*
X90245800Y-75979800D01*
G37*
G36*
X189694468Y-71747283D02*
X189728434Y-71757586D01*
X189759732Y-71774316D01*
X189787168Y-71796832D01*
X189809684Y-71824268D01*
X189826414Y-71855566D01*
X189836717Y-71889532D01*
X189840800Y-71930990D01*
X189840800Y-72607010D01*
X189836717Y-72648468D01*
X189826414Y-72682434D01*
X189809684Y-72713732D01*
X189787168Y-72741168D01*
X189759732Y-72763684D01*
X189728434Y-72780414D01*
X189694468Y-72790717D01*
X189653010Y-72794800D01*
X189051990Y-72794800D01*
X189010532Y-72790717D01*
X188976566Y-72780414D01*
X188945268Y-72763684D01*
X188917832Y-72741168D01*
X188895316Y-72713732D01*
X188878586Y-72682434D01*
X188868283Y-72648468D01*
X188864200Y-72607010D01*
X188864200Y-71930990D01*
X188868283Y-71889532D01*
X188878586Y-71855566D01*
X188895316Y-71824268D01*
X188917832Y-71796832D01*
X188945268Y-71774316D01*
X188976566Y-71757586D01*
X189010532Y-71747283D01*
X189051990Y-71743200D01*
X189653010Y-71743200D01*
X189694468Y-71747283D01*
X189694468Y-71747283D01*
G37*
G36*
X188119468Y-71747283D02*
X188153434Y-71757586D01*
X188184732Y-71774316D01*
X188212168Y-71796832D01*
X188234684Y-71824268D01*
X188251414Y-71855566D01*
X188261717Y-71889532D01*
X188265800Y-71930990D01*
X188265800Y-72607010D01*
X188261717Y-72648468D01*
X188251414Y-72682434D01*
X188234684Y-72713732D01*
X188212168Y-72741168D01*
X188184732Y-72763684D01*
X188153434Y-72780414D01*
X188119468Y-72790717D01*
X188078010Y-72794800D01*
X187476990Y-72794800D01*
X187435532Y-72790717D01*
X187401566Y-72780414D01*
X187370268Y-72763684D01*
X187342832Y-72741168D01*
X187320316Y-72713732D01*
X187303586Y-72682434D01*
X187293283Y-72648468D01*
X187289200Y-72607010D01*
X187289200Y-71930990D01*
X187293283Y-71889532D01*
X187303586Y-71855566D01*
X187320316Y-71824268D01*
X187342832Y-71796832D01*
X187370268Y-71774316D01*
X187401566Y-71757586D01*
X187435532Y-71747283D01*
X187476990Y-71743200D01*
X188078010Y-71743200D01*
X188119468Y-71747283D01*
X188119468Y-71747283D01*
G37*
G36*
X175419468Y-71747283D02*
X175453434Y-71757586D01*
X175484732Y-71774316D01*
X175512168Y-71796832D01*
X175534684Y-71824268D01*
X175551414Y-71855566D01*
X175561717Y-71889532D01*
X175565800Y-71930990D01*
X175565800Y-72607010D01*
X175561717Y-72648468D01*
X175551414Y-72682434D01*
X175534684Y-72713732D01*
X175512168Y-72741168D01*
X175484732Y-72763684D01*
X175453434Y-72780414D01*
X175419468Y-72790717D01*
X175378010Y-72794800D01*
X174776990Y-72794800D01*
X174735532Y-72790717D01*
X174701566Y-72780414D01*
X174670268Y-72763684D01*
X174642832Y-72741168D01*
X174620316Y-72713732D01*
X174603586Y-72682434D01*
X174593283Y-72648468D01*
X174589200Y-72607010D01*
X174589200Y-71930990D01*
X174593283Y-71889532D01*
X174603586Y-71855566D01*
X174620316Y-71824268D01*
X174642832Y-71796832D01*
X174670268Y-71774316D01*
X174701566Y-71757586D01*
X174735532Y-71747283D01*
X174776990Y-71743200D01*
X175378010Y-71743200D01*
X175419468Y-71747283D01*
X175419468Y-71747283D01*
G37*
G36*
X176994468Y-71747283D02*
X177028434Y-71757586D01*
X177059732Y-71774316D01*
X177087168Y-71796832D01*
X177109684Y-71824268D01*
X177126414Y-71855566D01*
X177136717Y-71889532D01*
X177140800Y-71930990D01*
X177140800Y-72607010D01*
X177136717Y-72648468D01*
X177126414Y-72682434D01*
X177109684Y-72713732D01*
X177087168Y-72741168D01*
X177059732Y-72763684D01*
X177028434Y-72780414D01*
X176994468Y-72790717D01*
X176953010Y-72794800D01*
X176351990Y-72794800D01*
X176310532Y-72790717D01*
X176276566Y-72780414D01*
X176245268Y-72763684D01*
X176217832Y-72741168D01*
X176195316Y-72713732D01*
X176178586Y-72682434D01*
X176168283Y-72648468D01*
X176164200Y-72607010D01*
X176164200Y-71930990D01*
X176168283Y-71889532D01*
X176178586Y-71855566D01*
X176195316Y-71824268D01*
X176217832Y-71796832D01*
X176245268Y-71774316D01*
X176276566Y-71757586D01*
X176310532Y-71747283D01*
X176351990Y-71743200D01*
X176953010Y-71743200D01*
X176994468Y-71747283D01*
X176994468Y-71747283D01*
G37*
G36*
X179740800Y-72719800D02*
X178439200Y-72719800D01*
X178439200Y-71818200D01*
X179740800Y-71818200D01*
X179740800Y-72719800D01*
X179740800Y-72719800D01*
G37*
G36*
X186040800Y-72719800D02*
X184739200Y-72719800D01*
X184739200Y-71818200D01*
X186040800Y-71818200D01*
X186040800Y-72719800D01*
X186040800Y-72719800D01*
G37*
G36*
X95835800Y-71554800D02*
X89334200Y-71554800D01*
X89334200Y-65653200D01*
X95835800Y-65653200D01*
X95835800Y-71554800D01*
X95835800Y-71554800D01*
G37*
G36*
X100035800Y-71534800D02*
X97734200Y-71534800D01*
X97734200Y-70233200D01*
X100035800Y-70233200D01*
X100035800Y-71534800D01*
X100035800Y-71534800D01*
G37*
G36*
X82036507Y-69239582D02*
X82227740Y-69318793D01*
X82378976Y-69419846D01*
X82399849Y-69433793D01*
X82546207Y-69580151D01*
X82546209Y-69580154D01*
X82661207Y-69752260D01*
X82740418Y-69943493D01*
X82780800Y-70146505D01*
X82780800Y-70353495D01*
X82740418Y-70556507D01*
X82661207Y-70747740D01*
X82619249Y-70810534D01*
X82546207Y-70919849D01*
X82399849Y-71066207D01*
X82399846Y-71066209D01*
X82227740Y-71181207D01*
X82036507Y-71260418D01*
X81833495Y-71300800D01*
X81626505Y-71300800D01*
X81423493Y-71260418D01*
X81232260Y-71181207D01*
X81060154Y-71066209D01*
X81060151Y-71066207D01*
X80913793Y-70919849D01*
X80840751Y-70810534D01*
X80798793Y-70747740D01*
X80719582Y-70556507D01*
X80679200Y-70353495D01*
X80679200Y-70146505D01*
X80719582Y-69943493D01*
X80798793Y-69752260D01*
X80913791Y-69580154D01*
X80913793Y-69580151D01*
X81060151Y-69433793D01*
X81081024Y-69419846D01*
X81232260Y-69318793D01*
X81423493Y-69239582D01*
X81626505Y-69199200D01*
X81833495Y-69199200D01*
X82036507Y-69239582D01*
X82036507Y-69239582D01*
G37*
G36*
X86042065Y-67953525D02*
X86126596Y-67961851D01*
X86235059Y-67994753D01*
X86343524Y-68027655D01*
X86415557Y-68066158D01*
X86543444Y-68134515D01*
X86718676Y-68278324D01*
X86854227Y-68443493D01*
X86862484Y-68453555D01*
X86969345Y-68653476D01*
X86969345Y-68653477D01*
X87030020Y-68853495D01*
X87035149Y-68870405D01*
X87057368Y-69096000D01*
X87035149Y-69321595D01*
X86969345Y-69538524D01*
X86947093Y-69580154D01*
X86862485Y-69738444D01*
X86718676Y-69913676D01*
X86543444Y-70057485D01*
X86450384Y-70107227D01*
X86343524Y-70164345D01*
X86292575Y-70179800D01*
X86126596Y-70230149D01*
X86095618Y-70233200D01*
X85957535Y-70246800D01*
X85844465Y-70246800D01*
X85706382Y-70233200D01*
X85675404Y-70230149D01*
X85509425Y-70179800D01*
X85458476Y-70164345D01*
X85351616Y-70107227D01*
X85258556Y-70057485D01*
X85083324Y-69913676D01*
X84939515Y-69738444D01*
X84854907Y-69580154D01*
X84832655Y-69538524D01*
X84766851Y-69321595D01*
X84744632Y-69096000D01*
X84766851Y-68870405D01*
X84771981Y-68853495D01*
X84832655Y-68653477D01*
X84832655Y-68653476D01*
X84939516Y-68453555D01*
X84947774Y-68443493D01*
X85083324Y-68278324D01*
X85258556Y-68134515D01*
X85386443Y-68066158D01*
X85458476Y-68027655D01*
X85566941Y-67994753D01*
X85675404Y-67961851D01*
X85759935Y-67953525D01*
X85844465Y-67945200D01*
X85957535Y-67945200D01*
X86042065Y-67953525D01*
X86042065Y-67953525D01*
G37*
G36*
X179740800Y-70179800D02*
X178439200Y-70179800D01*
X178439200Y-69278200D01*
X179740800Y-69278200D01*
X179740800Y-70179800D01*
X179740800Y-70179800D01*
G37*
G36*
X186040800Y-70179800D02*
X184739200Y-70179800D01*
X184739200Y-69278200D01*
X186040800Y-69278200D01*
X186040800Y-70179800D01*
X186040800Y-70179800D01*
G37*
G36*
X63936507Y-67739582D02*
X64127740Y-67818793D01*
X64157269Y-67838524D01*
X64299849Y-67933793D01*
X64446207Y-68080151D01*
X64446209Y-68080154D01*
X64561207Y-68252260D01*
X64640418Y-68443493D01*
X64680800Y-68646505D01*
X64680800Y-68853495D01*
X64640418Y-69056507D01*
X64561207Y-69247740D01*
X64457759Y-69402560D01*
X64446207Y-69419849D01*
X64299849Y-69566207D01*
X64299846Y-69566209D01*
X64127740Y-69681207D01*
X63936507Y-69760418D01*
X63733495Y-69800800D01*
X63526505Y-69800800D01*
X63323493Y-69760418D01*
X63132260Y-69681207D01*
X62960154Y-69566209D01*
X62960151Y-69566207D01*
X62813793Y-69419849D01*
X62802241Y-69402560D01*
X62698793Y-69247740D01*
X62619582Y-69056507D01*
X62579200Y-68853495D01*
X62579200Y-68646505D01*
X62619582Y-68443493D01*
X62698793Y-68252260D01*
X62813791Y-68080154D01*
X62813793Y-68080151D01*
X62960151Y-67933793D01*
X63102731Y-67838524D01*
X63132260Y-67818793D01*
X63323493Y-67739582D01*
X63526505Y-67699200D01*
X63733495Y-67699200D01*
X63936507Y-67739582D01*
X63936507Y-67739582D01*
G37*
G36*
X112826842Y-67228267D02*
X112826844Y-67228268D01*
X112826845Y-67228268D01*
X113054476Y-67322555D01*
X113149703Y-67386184D01*
X113259341Y-67459442D01*
X113433558Y-67633659D01*
X113433560Y-67633662D01*
X113570445Y-67838524D01*
X113664732Y-68066155D01*
X113664733Y-68066158D01*
X113712800Y-68307806D01*
X113712800Y-68554193D01*
X113664732Y-68795845D01*
X113570445Y-69023476D01*
X113570444Y-69023477D01*
X113433558Y-69228341D01*
X113259341Y-69402558D01*
X113259338Y-69402560D01*
X113054476Y-69539445D01*
X112826845Y-69633732D01*
X112826844Y-69633732D01*
X112826842Y-69633733D01*
X112585194Y-69681800D01*
X112338806Y-69681800D01*
X112097158Y-69633733D01*
X112097156Y-69633732D01*
X112097155Y-69633732D01*
X111869524Y-69539445D01*
X111664662Y-69402560D01*
X111664659Y-69402558D01*
X111490442Y-69228341D01*
X111353556Y-69023477D01*
X111353555Y-69023476D01*
X111259268Y-68795845D01*
X111211200Y-68554193D01*
X111211200Y-68307806D01*
X111259267Y-68066158D01*
X111259268Y-68066155D01*
X111353555Y-67838524D01*
X111490440Y-67633662D01*
X111490442Y-67633659D01*
X111664659Y-67459442D01*
X111774297Y-67386184D01*
X111869524Y-67322555D01*
X112097155Y-67228268D01*
X112097156Y-67228268D01*
X112097158Y-67228267D01*
X112338806Y-67180200D01*
X112585194Y-67180200D01*
X112826842Y-67228267D01*
X112826842Y-67228267D01*
G37*
G36*
X203910729Y-66301890D02*
X204074653Y-66369789D01*
X204222181Y-66468364D01*
X204347636Y-66593819D01*
X204446211Y-66741347D01*
X204514110Y-66905271D01*
X204548724Y-67079285D01*
X204548724Y-67256715D01*
X204514110Y-67430729D01*
X204446211Y-67594653D01*
X204347636Y-67742181D01*
X204222181Y-67867636D01*
X204074653Y-67966211D01*
X203910729Y-68034110D01*
X203736715Y-68068724D01*
X203559285Y-68068724D01*
X203385271Y-68034110D01*
X203221347Y-67966211D01*
X203073819Y-67867636D01*
X202948364Y-67742181D01*
X202849789Y-67594653D01*
X202781890Y-67430729D01*
X202747276Y-67256715D01*
X202747276Y-67079285D01*
X202781890Y-66905271D01*
X202849789Y-66741347D01*
X202948364Y-66593819D01*
X203073819Y-66468364D01*
X203221347Y-66369789D01*
X203385271Y-66301890D01*
X203559285Y-66267276D01*
X203736715Y-66267276D01*
X203910729Y-66301890D01*
X203910729Y-66301890D01*
G37*
G36*
X175512468Y-66444783D02*
X175546434Y-66455086D01*
X175577732Y-66471816D01*
X175605168Y-66494332D01*
X175627684Y-66521768D01*
X175644414Y-66553066D01*
X175654717Y-66587032D01*
X175658800Y-66628490D01*
X175658800Y-67229510D01*
X175654717Y-67270968D01*
X175644414Y-67304934D01*
X175627684Y-67336232D01*
X175605168Y-67363668D01*
X175577732Y-67386184D01*
X175546434Y-67402914D01*
X175512468Y-67413217D01*
X175471010Y-67417300D01*
X174794990Y-67417300D01*
X174753532Y-67413217D01*
X174719566Y-67402914D01*
X174688268Y-67386184D01*
X174660832Y-67363668D01*
X174638316Y-67336232D01*
X174621586Y-67304934D01*
X174611283Y-67270968D01*
X174607200Y-67229510D01*
X174607200Y-66628490D01*
X174611283Y-66587032D01*
X174621586Y-66553066D01*
X174638316Y-66521768D01*
X174660832Y-66494332D01*
X174688268Y-66471816D01*
X174719566Y-66455086D01*
X174753532Y-66444783D01*
X174794990Y-66440700D01*
X175471010Y-66440700D01*
X175512468Y-66444783D01*
X175512468Y-66444783D01*
G37*
G36*
X179135800Y-67039800D02*
X177034200Y-67039800D01*
X177034200Y-65158200D01*
X179135800Y-65158200D01*
X179135800Y-67039800D01*
X179135800Y-67039800D01*
G37*
G36*
X188665800Y-67039800D02*
X186564200Y-67039800D01*
X186564200Y-65158200D01*
X188665800Y-65158200D01*
X188665800Y-67039800D01*
X188665800Y-67039800D01*
G37*
G36*
X100035800Y-66974800D02*
X97734200Y-66974800D01*
X97734200Y-65673200D01*
X100035800Y-65673200D01*
X100035800Y-66974800D01*
X100035800Y-66974800D01*
G37*
G36*
X191070468Y-65772283D02*
X191104434Y-65782586D01*
X191135732Y-65799316D01*
X191163168Y-65821832D01*
X191185684Y-65849268D01*
X191202414Y-65880566D01*
X191212717Y-65914532D01*
X191216800Y-65955990D01*
X191216800Y-66632010D01*
X191212717Y-66673468D01*
X191202414Y-66707434D01*
X191185684Y-66738732D01*
X191163168Y-66766168D01*
X191135732Y-66788684D01*
X191104434Y-66805414D01*
X191070468Y-66815717D01*
X191029010Y-66819800D01*
X190427990Y-66819800D01*
X190386532Y-66815717D01*
X190352566Y-66805414D01*
X190321268Y-66788684D01*
X190293832Y-66766168D01*
X190271316Y-66738732D01*
X190254586Y-66707434D01*
X190244283Y-66673468D01*
X190240200Y-66632010D01*
X190240200Y-65955990D01*
X190244283Y-65914532D01*
X190254586Y-65880566D01*
X190271316Y-65849268D01*
X190293832Y-65821832D01*
X190321268Y-65799316D01*
X190352566Y-65782586D01*
X190386532Y-65772283D01*
X190427990Y-65768200D01*
X191029010Y-65768200D01*
X191070468Y-65772283D01*
X191070468Y-65772283D01*
G37*
G36*
X192645468Y-65772283D02*
X192679434Y-65782586D01*
X192710732Y-65799316D01*
X192738168Y-65821832D01*
X192760684Y-65849268D01*
X192777414Y-65880566D01*
X192787717Y-65914532D01*
X192791800Y-65955990D01*
X192791800Y-66632010D01*
X192787717Y-66673468D01*
X192777414Y-66707434D01*
X192760684Y-66738732D01*
X192738168Y-66766168D01*
X192710732Y-66788684D01*
X192679434Y-66805414D01*
X192645468Y-66815717D01*
X192604010Y-66819800D01*
X192002990Y-66819800D01*
X191961532Y-66815717D01*
X191927566Y-66805414D01*
X191896268Y-66788684D01*
X191868832Y-66766168D01*
X191846316Y-66738732D01*
X191829586Y-66707434D01*
X191819283Y-66673468D01*
X191815200Y-66632010D01*
X191815200Y-65955990D01*
X191819283Y-65914532D01*
X191829586Y-65880566D01*
X191846316Y-65849268D01*
X191868832Y-65821832D01*
X191896268Y-65799316D01*
X191927566Y-65782586D01*
X191961532Y-65772283D01*
X192002990Y-65768200D01*
X192604010Y-65768200D01*
X192645468Y-65772283D01*
X192645468Y-65772283D01*
G37*
G36*
X197208800Y-66534800D02*
X195507200Y-66534800D01*
X195507200Y-64933200D01*
X197208800Y-64933200D01*
X197208800Y-66534800D01*
X197208800Y-66534800D01*
G37*
G36*
X175512468Y-64869783D02*
X175546434Y-64880086D01*
X175577732Y-64896816D01*
X175605168Y-64919332D01*
X175627684Y-64946768D01*
X175644414Y-64978066D01*
X175654717Y-65012032D01*
X175658800Y-65053490D01*
X175658800Y-65654510D01*
X175654717Y-65695968D01*
X175644414Y-65729934D01*
X175627684Y-65761232D01*
X175605168Y-65788668D01*
X175577732Y-65811184D01*
X175546434Y-65827914D01*
X175512468Y-65838217D01*
X175471010Y-65842300D01*
X174794990Y-65842300D01*
X174753532Y-65838217D01*
X174719566Y-65827914D01*
X174688268Y-65811184D01*
X174660832Y-65788668D01*
X174638316Y-65761232D01*
X174621586Y-65729934D01*
X174611283Y-65695968D01*
X174607200Y-65654510D01*
X174607200Y-65053490D01*
X174611283Y-65012032D01*
X174621586Y-64978066D01*
X174638316Y-64946768D01*
X174660832Y-64919332D01*
X174688268Y-64896816D01*
X174719566Y-64880086D01*
X174753532Y-64869783D01*
X174794990Y-64865700D01*
X175471010Y-64865700D01*
X175512468Y-64869783D01*
X175512468Y-64869783D01*
G37*
G36*
X203910729Y-63761890D02*
X204074653Y-63829789D01*
X204222181Y-63928364D01*
X204347636Y-64053819D01*
X204446211Y-64201347D01*
X204514110Y-64365271D01*
X204548724Y-64539285D01*
X204548724Y-64716715D01*
X204514110Y-64890729D01*
X204446211Y-65054653D01*
X204347636Y-65202181D01*
X204222181Y-65327636D01*
X204074653Y-65426211D01*
X203910729Y-65494110D01*
X203736715Y-65528724D01*
X203559285Y-65528724D01*
X203385271Y-65494110D01*
X203221347Y-65426211D01*
X203073819Y-65327636D01*
X202948364Y-65202181D01*
X202849789Y-65054653D01*
X202781890Y-64890729D01*
X202747276Y-64716715D01*
X202747276Y-64539285D01*
X202781890Y-64365271D01*
X202849789Y-64201347D01*
X202948364Y-64053819D01*
X203073819Y-63928364D01*
X203221347Y-63829789D01*
X203385271Y-63761890D01*
X203559285Y-63727276D01*
X203736715Y-63727276D01*
X203910729Y-63761890D01*
X203910729Y-63761890D01*
G37*
G36*
X188665800Y-64499800D02*
X186564200Y-64499800D01*
X186564200Y-62618200D01*
X188665800Y-62618200D01*
X188665800Y-64499800D01*
X188665800Y-64499800D01*
G37*
G36*
X179135800Y-64499800D02*
X177034200Y-64499800D01*
X177034200Y-62618200D01*
X179135800Y-62618200D01*
X179135800Y-64499800D01*
X179135800Y-64499800D01*
G37*
G36*
X109622800Y-63883800D02*
X108721200Y-63883800D01*
X108721200Y-62532200D01*
X109622800Y-62532200D01*
X109622800Y-63883800D01*
X109622800Y-63883800D01*
G37*
G36*
X107822800Y-63883800D02*
X106921200Y-63883800D01*
X106921200Y-62532200D01*
X107822800Y-62532200D01*
X107822800Y-63883800D01*
X107822800Y-63883800D01*
G37*
G36*
X105812800Y-63883800D02*
X104911200Y-63883800D01*
X104911200Y-62532200D01*
X105812800Y-62532200D01*
X105812800Y-63883800D01*
X105812800Y-63883800D01*
G37*
G36*
X104012800Y-63883800D02*
X103111200Y-63883800D01*
X103111200Y-62532200D01*
X104012800Y-62532200D01*
X104012800Y-63883800D01*
X104012800Y-63883800D01*
G37*
G36*
X198008800Y-63134800D02*
X196707200Y-63134800D01*
X196707200Y-61833200D01*
X198008800Y-61833200D01*
X198008800Y-63134800D01*
X198008800Y-63134800D01*
G37*
G36*
X196008800Y-63134800D02*
X194707200Y-63134800D01*
X194707200Y-61833200D01*
X196008800Y-61833200D01*
X196008800Y-63134800D01*
X196008800Y-63134800D01*
G37*
G36*
X203910729Y-61221890D02*
X204074653Y-61289789D01*
X204222181Y-61388364D01*
X204347636Y-61513819D01*
X204446211Y-61661347D01*
X204514110Y-61825271D01*
X204548724Y-61999285D01*
X204548724Y-62176715D01*
X204514110Y-62350729D01*
X204446211Y-62514653D01*
X204347636Y-62662181D01*
X204222181Y-62787636D01*
X204074653Y-62886211D01*
X203910729Y-62954110D01*
X203736715Y-62988724D01*
X203559285Y-62988724D01*
X203385271Y-62954110D01*
X203221347Y-62886211D01*
X203073819Y-62787636D01*
X202948364Y-62662181D01*
X202849789Y-62514653D01*
X202781890Y-62350729D01*
X202747276Y-62176715D01*
X202747276Y-61999285D01*
X202781890Y-61825271D01*
X202849789Y-61661347D01*
X202948364Y-61513819D01*
X203073819Y-61388364D01*
X203221347Y-61289789D01*
X203385271Y-61221890D01*
X203559285Y-61187276D01*
X203736715Y-61187276D01*
X203910729Y-61221890D01*
X203910729Y-61221890D01*
G37*
G36*
X105812800Y-62233800D02*
X104911200Y-62233800D01*
X104911200Y-60882200D01*
X105812800Y-60882200D01*
X105812800Y-62233800D01*
X105812800Y-62233800D01*
G37*
G36*
X107822800Y-62233800D02*
X106921200Y-62233800D01*
X106921200Y-60882200D01*
X107822800Y-60882200D01*
X107822800Y-62233800D01*
X107822800Y-62233800D01*
G37*
G36*
X109622800Y-62233800D02*
X108721200Y-62233800D01*
X108721200Y-60882200D01*
X109622800Y-60882200D01*
X109622800Y-62233800D01*
X109622800Y-62233800D01*
G37*
G36*
X104012800Y-62233800D02*
X103111200Y-62233800D01*
X103111200Y-60882200D01*
X104012800Y-60882200D01*
X104012800Y-62233800D01*
X104012800Y-62233800D01*
G37*
G36*
X88850800Y-61649800D02*
X82349200Y-61649800D01*
X82349200Y-55748200D01*
X88850800Y-55748200D01*
X88850800Y-61649800D01*
X88850800Y-61649800D01*
G37*
G36*
X93050800Y-61629800D02*
X90749200Y-61629800D01*
X90749200Y-60328200D01*
X93050800Y-60328200D01*
X93050800Y-61629800D01*
X93050800Y-61629800D01*
G37*
G36*
X144906223Y-54390126D02*
X145497830Y-54635178D01*
X146030267Y-54990941D01*
X146483059Y-55443733D01*
X146838822Y-55976170D01*
X147083874Y-56567777D01*
X147208800Y-57195823D01*
X147208800Y-57836177D01*
X147083874Y-58464223D01*
X146838822Y-59055830D01*
X146483059Y-59588267D01*
X146030267Y-60041059D01*
X145497830Y-60396822D01*
X144906223Y-60641874D01*
X144278177Y-60766800D01*
X143637823Y-60766800D01*
X143009777Y-60641874D01*
X142418170Y-60396822D01*
X141885733Y-60041059D01*
X141432941Y-59588267D01*
X141077178Y-59055830D01*
X140832126Y-58464223D01*
X140707200Y-57836177D01*
X140707200Y-57195823D01*
X140832126Y-56567777D01*
X141077178Y-55976170D01*
X141432941Y-55443733D01*
X141885733Y-54990941D01*
X142418170Y-54635178D01*
X143009777Y-54390126D01*
X143637823Y-54265200D01*
X144278177Y-54265200D01*
X144906223Y-54390126D01*
X144906223Y-54390126D01*
G37*
G36*
X71195800Y-59469800D02*
X68894200Y-59469800D01*
X68894200Y-57168200D01*
X71195800Y-57168200D01*
X71195800Y-59469800D01*
X71195800Y-59469800D01*
G37*
G36*
X80346065Y-57176525D02*
X80430596Y-57184851D01*
X80466769Y-57195824D01*
X80647524Y-57250655D01*
X80744455Y-57302466D01*
X80847444Y-57357515D01*
X81022676Y-57501324D01*
X81142634Y-57647493D01*
X81166484Y-57676555D01*
X81273345Y-57876476D01*
X81339149Y-58093405D01*
X81361368Y-58319000D01*
X81339149Y-58544595D01*
X81273345Y-58761524D01*
X81258780Y-58788773D01*
X81166485Y-58961444D01*
X81022676Y-59136676D01*
X80847444Y-59280485D01*
X80754384Y-59330227D01*
X80647524Y-59387345D01*
X80430596Y-59453149D01*
X80346065Y-59461474D01*
X80261535Y-59469800D01*
X80148465Y-59469800D01*
X80063935Y-59461474D01*
X79979404Y-59453149D01*
X79762476Y-59387345D01*
X79655616Y-59330227D01*
X79562556Y-59280485D01*
X79387324Y-59136676D01*
X79243515Y-58961444D01*
X79151220Y-58788773D01*
X79136655Y-58761524D01*
X79070851Y-58544595D01*
X79048632Y-58319000D01*
X79070851Y-58093405D01*
X79136655Y-57876476D01*
X79243516Y-57676555D01*
X79267367Y-57647493D01*
X79387324Y-57501324D01*
X79562556Y-57357515D01*
X79665545Y-57302466D01*
X79762476Y-57250655D01*
X79943231Y-57195824D01*
X79979404Y-57184851D01*
X80063935Y-57176525D01*
X80148465Y-57168200D01*
X80261535Y-57168200D01*
X80346065Y-57176525D01*
X80346065Y-57176525D01*
G37*
G36*
X122344842Y-55678267D02*
X122344844Y-55678268D01*
X122344845Y-55678268D01*
X122572476Y-55772555D01*
X122738507Y-55883494D01*
X122777341Y-55909442D01*
X122951558Y-56083659D01*
X122951560Y-56083662D01*
X123088445Y-56288524D01*
X123102228Y-56321800D01*
X123182733Y-56516158D01*
X123230800Y-56757806D01*
X123230800Y-57004194D01*
X123208460Y-57116506D01*
X123182732Y-57245845D01*
X123088445Y-57473476D01*
X123088444Y-57473477D01*
X122951558Y-57678341D01*
X122777341Y-57852558D01*
X122777338Y-57852560D01*
X122572476Y-57989445D01*
X122344845Y-58083732D01*
X122344844Y-58083732D01*
X122344842Y-58083733D01*
X122103194Y-58131800D01*
X121856806Y-58131800D01*
X121615158Y-58083733D01*
X121615156Y-58083732D01*
X121615155Y-58083732D01*
X121387524Y-57989445D01*
X121182662Y-57852560D01*
X121182659Y-57852558D01*
X121008442Y-57678341D01*
X120871556Y-57473477D01*
X120871555Y-57473476D01*
X120777268Y-57245845D01*
X120751541Y-57116506D01*
X120729200Y-57004194D01*
X120729200Y-56757806D01*
X120777267Y-56516158D01*
X120857772Y-56321800D01*
X120871555Y-56288524D01*
X121008440Y-56083662D01*
X121008442Y-56083659D01*
X121182659Y-55909442D01*
X121221493Y-55883494D01*
X121387524Y-55772555D01*
X121615155Y-55678268D01*
X121615156Y-55678268D01*
X121615158Y-55678267D01*
X121856806Y-55630200D01*
X122103194Y-55630200D01*
X122344842Y-55678267D01*
X122344842Y-55678267D01*
G37*
G36*
X130730800Y-58131800D02*
X128229200Y-58131800D01*
X128229200Y-55630200D01*
X130730800Y-55630200D01*
X130730800Y-58131800D01*
X130730800Y-58131800D01*
G37*
G36*
X93050800Y-57069800D02*
X90749200Y-57069800D01*
X90749200Y-55768200D01*
X93050800Y-55768200D01*
X93050800Y-57069800D01*
X93050800Y-57069800D01*
G37*
G36*
X205612223Y-49945126D02*
X206203830Y-50190178D01*
X206736267Y-50545941D01*
X207189059Y-50998733D01*
X207544822Y-51531170D01*
X207789874Y-52122777D01*
X207914800Y-52750823D01*
X207914800Y-53391177D01*
X207789874Y-54019223D01*
X207544822Y-54610830D01*
X207189059Y-55143267D01*
X206736267Y-55596059D01*
X206203830Y-55951822D01*
X205612223Y-56196874D01*
X204984177Y-56321800D01*
X204343823Y-56321800D01*
X203715777Y-56196874D01*
X203124170Y-55951822D01*
X202591733Y-55596059D01*
X202138941Y-55143267D01*
X201783178Y-54610830D01*
X201538126Y-54019223D01*
X201413200Y-53391177D01*
X201413200Y-52750823D01*
X201538126Y-52122777D01*
X201783178Y-51531170D01*
X202138941Y-50998733D01*
X202591733Y-50545941D01*
X203124170Y-50190178D01*
X203715777Y-49945126D01*
X204343823Y-49820200D01*
X204984177Y-49820200D01*
X205612223Y-49945126D01*
X205612223Y-49945126D01*
G37*
G36*
X128218800Y-52379800D02*
X121717200Y-52379800D01*
X121717200Y-46478200D01*
X128218800Y-46478200D01*
X128218800Y-52379800D01*
X128218800Y-52379800D01*
G37*
G36*
X132418800Y-52359800D02*
X130117200Y-52359800D01*
X130117200Y-51058200D01*
X132418800Y-51058200D01*
X132418800Y-52359800D01*
X132418800Y-52359800D01*
G37*
G36*
X95375800Y-50356800D02*
X92974200Y-50356800D01*
X92974200Y-48755200D01*
X95375800Y-48755200D01*
X95375800Y-50356800D01*
X95375800Y-50356800D01*
G37*
G36*
X110929270Y-46734308D02*
X111048877Y-46770591D01*
X111051949Y-46771523D01*
X111165005Y-46831952D01*
X111264102Y-46913280D01*
X111345430Y-47012377D01*
X111405859Y-47125433D01*
X111405860Y-47125436D01*
X111443074Y-47248112D01*
X111452491Y-47343728D01*
X111452491Y-47957654D01*
X111443074Y-48053270D01*
X111405860Y-48175945D01*
X111405859Y-48175949D01*
X111345430Y-48289005D01*
X111264102Y-48388102D01*
X111165004Y-48469430D01*
X111051948Y-48529859D01*
X111051945Y-48529860D01*
X110929269Y-48567074D01*
X110801691Y-48579639D01*
X110674112Y-48567074D01*
X110551436Y-48529860D01*
X110551433Y-48529859D01*
X110438377Y-48469430D01*
X110339280Y-48388102D01*
X110257952Y-48289004D01*
X110197523Y-48175948D01*
X110197522Y-48175945D01*
X110160308Y-48053269D01*
X110150891Y-47957653D01*
X110150891Y-47343728D01*
X110160308Y-47248112D01*
X110197522Y-47125436D01*
X110197522Y-47125435D01*
X110229823Y-47065004D01*
X110257953Y-47012377D01*
X110339281Y-46913280D01*
X110374252Y-46884580D01*
X110438378Y-46831952D01*
X110551434Y-46771523D01*
X110554506Y-46770591D01*
X110674113Y-46734308D01*
X110801691Y-46721743D01*
X110929270Y-46734308D01*
X110929270Y-46734308D01*
G37*
G36*
X106929270Y-46734308D02*
X107048877Y-46770591D01*
X107051949Y-46771523D01*
X107165005Y-46831952D01*
X107264102Y-46913280D01*
X107345430Y-47012377D01*
X107405859Y-47125433D01*
X107405860Y-47125436D01*
X107443074Y-47248112D01*
X107452491Y-47343728D01*
X107452491Y-47957654D01*
X107443074Y-48053270D01*
X107405860Y-48175945D01*
X107405859Y-48175949D01*
X107345430Y-48289005D01*
X107264102Y-48388102D01*
X107165004Y-48469430D01*
X107051948Y-48529859D01*
X107051945Y-48529860D01*
X106929269Y-48567074D01*
X106801691Y-48579639D01*
X106674112Y-48567074D01*
X106551436Y-48529860D01*
X106551433Y-48529859D01*
X106438377Y-48469430D01*
X106339280Y-48388102D01*
X106257952Y-48289004D01*
X106197523Y-48175948D01*
X106197522Y-48175945D01*
X106160308Y-48053269D01*
X106150891Y-47957653D01*
X106150891Y-47343728D01*
X106160308Y-47248112D01*
X106197522Y-47125436D01*
X106197522Y-47125435D01*
X106229823Y-47065004D01*
X106257953Y-47012377D01*
X106339281Y-46913280D01*
X106374252Y-46884580D01*
X106438378Y-46831952D01*
X106551434Y-46771523D01*
X106554506Y-46770591D01*
X106674113Y-46734308D01*
X106801691Y-46721743D01*
X106929270Y-46734308D01*
X106929270Y-46734308D01*
G37*
G36*
X108929270Y-46734308D02*
X109048877Y-46770591D01*
X109051949Y-46771523D01*
X109165005Y-46831952D01*
X109264102Y-46913280D01*
X109345430Y-47012377D01*
X109405859Y-47125433D01*
X109405860Y-47125436D01*
X109443074Y-47248112D01*
X109452491Y-47343728D01*
X109452491Y-47957654D01*
X109443074Y-48053270D01*
X109405860Y-48175945D01*
X109405859Y-48175949D01*
X109345430Y-48289005D01*
X109264102Y-48388102D01*
X109165004Y-48469430D01*
X109051948Y-48529859D01*
X109051945Y-48529860D01*
X108929269Y-48567074D01*
X108801691Y-48579639D01*
X108674112Y-48567074D01*
X108551436Y-48529860D01*
X108551433Y-48529859D01*
X108438377Y-48469430D01*
X108339280Y-48388102D01*
X108257952Y-48289004D01*
X108197523Y-48175948D01*
X108197522Y-48175945D01*
X108160308Y-48053269D01*
X108150891Y-47957653D01*
X108150891Y-47343728D01*
X108160308Y-47248112D01*
X108197522Y-47125436D01*
X108197522Y-47125435D01*
X108229823Y-47065004D01*
X108257953Y-47012377D01*
X108339281Y-46913280D01*
X108374252Y-46884580D01*
X108438378Y-46831952D01*
X108551434Y-46771523D01*
X108554506Y-46770591D01*
X108674113Y-46734308D01*
X108801691Y-46721743D01*
X108929270Y-46734308D01*
X108929270Y-46734308D01*
G37*
G36*
X113292802Y-46729293D02*
X113329873Y-46740539D01*
X113364052Y-46758807D01*
X113393998Y-46783384D01*
X113418575Y-46813330D01*
X113436843Y-46847509D01*
X113448089Y-46884580D01*
X113452491Y-46929280D01*
X113452491Y-48372102D01*
X113448089Y-48416802D01*
X113436843Y-48453873D01*
X113418575Y-48488052D01*
X113393998Y-48517998D01*
X113364052Y-48542575D01*
X113329873Y-48560843D01*
X113292802Y-48572089D01*
X113248102Y-48576491D01*
X112355280Y-48576491D01*
X112310580Y-48572089D01*
X112273509Y-48560843D01*
X112239330Y-48542575D01*
X112209384Y-48517998D01*
X112184807Y-48488052D01*
X112166539Y-48453873D01*
X112155293Y-48416802D01*
X112150891Y-48372102D01*
X112150891Y-46929280D01*
X112155293Y-46884580D01*
X112166539Y-46847509D01*
X112184807Y-46813330D01*
X112209384Y-46783384D01*
X112239330Y-46758807D01*
X112273509Y-46740539D01*
X112310580Y-46729293D01*
X112355280Y-46724891D01*
X113248102Y-46724891D01*
X113292802Y-46729293D01*
X113292802Y-46729293D01*
G37*
G36*
X94731982Y-46226787D02*
X94882936Y-46272578D01*
X94964578Y-46316217D01*
X95022053Y-46346938D01*
X95048848Y-46368928D01*
X95143991Y-46447009D01*
X95217994Y-46537183D01*
X95244062Y-46568947D01*
X95244063Y-46568949D01*
X95318422Y-46708064D01*
X95364213Y-46859018D01*
X95379674Y-47016000D01*
X95364213Y-47172982D01*
X95318422Y-47323936D01*
X95252567Y-47447142D01*
X95244062Y-47463053D01*
X95217994Y-47494817D01*
X95143991Y-47584991D01*
X95053817Y-47658994D01*
X95022053Y-47685062D01*
X95022051Y-47685063D01*
X94882936Y-47759422D01*
X94731982Y-47805213D01*
X94614336Y-47816800D01*
X93735664Y-47816800D01*
X93618018Y-47805213D01*
X93467064Y-47759422D01*
X93327949Y-47685063D01*
X93327947Y-47685062D01*
X93296183Y-47658994D01*
X93206009Y-47584991D01*
X93132006Y-47494817D01*
X93105938Y-47463053D01*
X93097433Y-47447142D01*
X93031578Y-47323936D01*
X92985787Y-47172982D01*
X92970326Y-47016000D01*
X92985787Y-46859018D01*
X93031578Y-46708064D01*
X93105937Y-46568949D01*
X93105938Y-46568947D01*
X93132006Y-46537183D01*
X93206009Y-46447009D01*
X93301152Y-46368928D01*
X93327947Y-46346938D01*
X93385422Y-46316217D01*
X93467064Y-46272578D01*
X93618018Y-46226787D01*
X93735664Y-46215200D01*
X94614336Y-46215200D01*
X94731982Y-46226787D01*
X94731982Y-46226787D01*
G37*
G36*
X132418800Y-47799800D02*
X130117200Y-47799800D01*
X130117200Y-46498200D01*
X132418800Y-46498200D01*
X132418800Y-47799800D01*
X132418800Y-47799800D01*
G37*
G36*
X212272950Y-42849775D02*
X212673469Y-43015675D01*
X213033930Y-43256528D01*
X213340472Y-43563070D01*
X213581325Y-43923531D01*
X213747225Y-44324050D01*
X213831800Y-44749239D01*
X213831800Y-45182761D01*
X213747225Y-45607950D01*
X213581325Y-46008469D01*
X213340472Y-46368930D01*
X213033930Y-46675472D01*
X212673469Y-46916325D01*
X212272950Y-47082225D01*
X211847761Y-47166800D01*
X211414239Y-47166800D01*
X210989050Y-47082225D01*
X210588531Y-46916325D01*
X210228070Y-46675472D01*
X209921528Y-46368930D01*
X209680675Y-46008469D01*
X209514775Y-45607950D01*
X209430200Y-45182761D01*
X209430200Y-44749239D01*
X209514775Y-44324050D01*
X209680675Y-43923531D01*
X209921528Y-43563070D01*
X210228070Y-43256528D01*
X210588531Y-43015675D01*
X210989050Y-42849775D01*
X211414239Y-42765200D01*
X211847761Y-42765200D01*
X212272950Y-42849775D01*
X212272950Y-42849775D01*
G37*
G36*
X64952950Y-42849775D02*
X65353469Y-43015675D01*
X65713930Y-43256528D01*
X66020472Y-43563070D01*
X66261325Y-43923531D01*
X66427225Y-44324050D01*
X66511800Y-44749239D01*
X66511800Y-45182761D01*
X66427225Y-45607950D01*
X66261325Y-46008469D01*
X66020472Y-46368930D01*
X65713930Y-46675472D01*
X65353469Y-46916325D01*
X64952950Y-47082225D01*
X64527761Y-47166800D01*
X64094239Y-47166800D01*
X63669050Y-47082225D01*
X63268531Y-46916325D01*
X62908070Y-46675472D01*
X62601528Y-46368930D01*
X62360675Y-46008469D01*
X62194775Y-45607950D01*
X62110200Y-45182761D01*
X62110200Y-44749239D01*
X62194775Y-44324050D01*
X62360675Y-43923531D01*
X62601528Y-43563070D01*
X62908070Y-43256528D01*
X63268531Y-43015675D01*
X63669050Y-42849775D01*
X64094239Y-42765200D01*
X64527761Y-42765200D01*
X64952950Y-42849775D01*
X64952950Y-42849775D01*
G37*
G36*
X98744468Y-45373283D02*
X98778434Y-45383586D01*
X98809732Y-45400316D01*
X98837168Y-45422832D01*
X98859684Y-45450268D01*
X98876414Y-45481566D01*
X98886717Y-45515532D01*
X98890800Y-45556990D01*
X98890800Y-46158010D01*
X98886717Y-46199468D01*
X98876414Y-46233434D01*
X98859684Y-46264732D01*
X98837168Y-46292168D01*
X98809732Y-46314684D01*
X98778434Y-46331414D01*
X98744468Y-46341717D01*
X98703010Y-46345800D01*
X98026990Y-46345800D01*
X97985532Y-46341717D01*
X97951566Y-46331414D01*
X97920268Y-46314684D01*
X97892832Y-46292168D01*
X97870316Y-46264732D01*
X97853586Y-46233434D01*
X97843283Y-46199468D01*
X97839200Y-46158010D01*
X97839200Y-45556990D01*
X97843283Y-45515532D01*
X97853586Y-45481566D01*
X97870316Y-45450268D01*
X97892832Y-45422832D01*
X97920268Y-45400316D01*
X97951566Y-45383586D01*
X97985532Y-45373283D01*
X98026990Y-45369200D01*
X98703010Y-45369200D01*
X98744468Y-45373283D01*
X98744468Y-45373283D01*
G37*
G36*
X101538468Y-45347783D02*
X101572434Y-45358086D01*
X101603732Y-45374816D01*
X101631168Y-45397332D01*
X101653684Y-45424768D01*
X101670414Y-45456066D01*
X101680717Y-45490032D01*
X101684800Y-45531490D01*
X101684800Y-46132510D01*
X101680717Y-46173968D01*
X101670414Y-46207934D01*
X101653684Y-46239232D01*
X101631168Y-46266668D01*
X101603732Y-46289184D01*
X101572434Y-46305914D01*
X101538468Y-46316217D01*
X101497010Y-46320300D01*
X100820990Y-46320300D01*
X100779532Y-46316217D01*
X100745566Y-46305914D01*
X100714268Y-46289184D01*
X100686832Y-46266668D01*
X100664316Y-46239232D01*
X100647586Y-46207934D01*
X100637283Y-46173968D01*
X100633200Y-46132510D01*
X100633200Y-45531490D01*
X100637283Y-45490032D01*
X100647586Y-45456066D01*
X100664316Y-45424768D01*
X100686832Y-45397332D01*
X100714268Y-45374816D01*
X100745566Y-45358086D01*
X100779532Y-45347783D01*
X100820990Y-45343700D01*
X101497010Y-45343700D01*
X101538468Y-45347783D01*
X101538468Y-45347783D01*
G37*
G36*
X94731982Y-43686787D02*
X94882936Y-43732578D01*
X94959291Y-43773391D01*
X95022053Y-43806938D01*
X95040810Y-43822332D01*
X95143991Y-43907009D01*
X95205525Y-43981990D01*
X95244062Y-44028947D01*
X95244063Y-44028949D01*
X95318422Y-44168064D01*
X95364213Y-44319018D01*
X95379674Y-44476000D01*
X95364213Y-44632982D01*
X95318422Y-44783936D01*
X95252567Y-44907142D01*
X95244062Y-44923053D01*
X95217994Y-44954817D01*
X95143991Y-45044991D01*
X95053817Y-45118994D01*
X95022053Y-45145062D01*
X95022051Y-45145063D01*
X94882936Y-45219422D01*
X94731982Y-45265213D01*
X94614336Y-45276800D01*
X93735664Y-45276800D01*
X93618018Y-45265213D01*
X93467064Y-45219422D01*
X93327949Y-45145063D01*
X93327947Y-45145062D01*
X93296183Y-45118994D01*
X93206009Y-45044991D01*
X93132006Y-44954817D01*
X93105938Y-44923053D01*
X93097433Y-44907142D01*
X93031578Y-44783936D01*
X92985787Y-44632982D01*
X92970326Y-44476000D01*
X92985787Y-44319018D01*
X93031578Y-44168064D01*
X93105937Y-44028949D01*
X93105938Y-44028947D01*
X93144475Y-43981990D01*
X93206009Y-43907009D01*
X93309190Y-43822332D01*
X93327947Y-43806938D01*
X93390709Y-43773391D01*
X93467064Y-43732578D01*
X93618018Y-43686787D01*
X93735664Y-43675200D01*
X94614336Y-43675200D01*
X94731982Y-43686787D01*
X94731982Y-43686787D01*
G37*
G36*
X98744468Y-43798283D02*
X98778434Y-43808586D01*
X98809732Y-43825316D01*
X98837168Y-43847832D01*
X98859684Y-43875268D01*
X98876414Y-43906566D01*
X98886717Y-43940532D01*
X98890800Y-43981990D01*
X98890800Y-44583010D01*
X98886717Y-44624468D01*
X98876414Y-44658434D01*
X98859684Y-44689732D01*
X98837168Y-44717168D01*
X98809732Y-44739684D01*
X98778434Y-44756414D01*
X98744468Y-44766717D01*
X98703010Y-44770800D01*
X98026990Y-44770800D01*
X97985532Y-44766717D01*
X97951566Y-44756414D01*
X97920268Y-44739684D01*
X97892832Y-44717168D01*
X97870316Y-44689732D01*
X97853586Y-44658434D01*
X97843283Y-44624468D01*
X97839200Y-44583010D01*
X97839200Y-43981990D01*
X97843283Y-43940532D01*
X97853586Y-43906566D01*
X97870316Y-43875268D01*
X97892832Y-43847832D01*
X97920268Y-43825316D01*
X97951566Y-43808586D01*
X97985532Y-43798283D01*
X98026990Y-43794200D01*
X98703010Y-43794200D01*
X98744468Y-43798283D01*
X98744468Y-43798283D01*
G37*
G36*
X101538468Y-43772783D02*
X101572434Y-43783086D01*
X101603732Y-43799816D01*
X101631168Y-43822332D01*
X101653684Y-43849768D01*
X101670414Y-43881066D01*
X101680717Y-43915032D01*
X101684800Y-43956490D01*
X101684800Y-44557510D01*
X101680717Y-44598968D01*
X101670414Y-44632934D01*
X101653684Y-44664232D01*
X101631168Y-44691668D01*
X101603732Y-44714184D01*
X101572434Y-44730914D01*
X101538468Y-44741217D01*
X101497010Y-44745300D01*
X100820990Y-44745300D01*
X100779532Y-44741217D01*
X100745566Y-44730914D01*
X100714268Y-44714184D01*
X100686832Y-44691668D01*
X100664316Y-44664232D01*
X100647586Y-44632934D01*
X100637283Y-44598968D01*
X100633200Y-44557510D01*
X100633200Y-43956490D01*
X100637283Y-43915032D01*
X100647586Y-43881066D01*
X100664316Y-43849768D01*
X100686832Y-43822332D01*
X100714268Y-43799816D01*
X100745566Y-43783086D01*
X100779532Y-43772783D01*
X100820990Y-43768700D01*
X101497010Y-43768700D01*
X101538468Y-43772783D01*
X101538468Y-43772783D01*
G37*
G36*
X132289065Y-41936525D02*
X132373596Y-41944851D01*
X132590524Y-42010655D01*
X132697384Y-42067773D01*
X132790444Y-42117515D01*
X132790446Y-42117516D01*
X132790445Y-42117516D01*
X132965676Y-42261324D01*
X133109484Y-42436555D01*
X133216345Y-42636476D01*
X133282149Y-42853405D01*
X133304368Y-43079000D01*
X133282149Y-43304595D01*
X133216345Y-43521524D01*
X133194138Y-43563070D01*
X133109485Y-43721444D01*
X132965676Y-43896676D01*
X132790444Y-44040485D01*
X132697384Y-44090227D01*
X132590524Y-44147345D01*
X132482059Y-44180247D01*
X132373596Y-44213149D01*
X132289065Y-44221475D01*
X132204535Y-44229800D01*
X132091465Y-44229800D01*
X132006935Y-44221474D01*
X131922404Y-44213149D01*
X131813941Y-44180247D01*
X131705476Y-44147345D01*
X131598616Y-44090227D01*
X131505556Y-44040485D01*
X131330324Y-43896676D01*
X131186515Y-43721444D01*
X131101862Y-43563070D01*
X131079655Y-43521524D01*
X131013851Y-43304595D01*
X130991632Y-43079000D01*
X131013851Y-42853405D01*
X131079655Y-42636476D01*
X131186516Y-42436555D01*
X131330324Y-42261324D01*
X131505555Y-42117516D01*
X131505554Y-42117516D01*
X131505556Y-42117515D01*
X131598616Y-42067773D01*
X131705476Y-42010655D01*
X131922404Y-41944851D01*
X132006935Y-41936526D01*
X132091465Y-41928200D01*
X132204535Y-41928200D01*
X132289065Y-41936525D01*
X132289065Y-41936525D01*
G37*
G36*
X123138800Y-44229800D02*
X120837200Y-44229800D01*
X120837200Y-41928200D01*
X123138800Y-41928200D01*
X123138800Y-44229800D01*
X123138800Y-44229800D01*
G37*
M02*
