G04 #@! TF.GenerationSoftware,KiCad,Pcbnew,(5.0.2)-1*
G04 #@! TF.CreationDate,2019-04-05T10:25:57-04:00*
G04 #@! TF.ProjectId,interface-board,696e7465-7266-4616-9365-2d626f617264,rev?*
G04 #@! TF.SameCoordinates,Original*
G04 #@! TF.FileFunction,Copper,L2,Bot*
G04 #@! TF.FilePolarity,Positive*
%FSLAX46Y46*%
G04 Gerber Fmt 4.6, Leading zero omitted, Abs format (unit mm)*
G04 Created by KiCad (PCBNEW (5.0.2)-1) date 4/5/2019 10:25:57 AM*
%MOMM*%
%LPD*%
G01*
G04 APERTURE LIST*
G04 #@! TA.AperFunction,ComponentPad*
%ADD10O,1.700000X1.950000*%
G04 #@! TD*
G04 #@! TA.AperFunction,Conductor*
%ADD11C,0.100000*%
G04 #@! TD*
G04 #@! TA.AperFunction,ComponentPad*
%ADD12C,1.700000*%
G04 #@! TD*
G04 #@! TA.AperFunction,ComponentPad*
%ADD13R,1.700000X1.700000*%
G04 #@! TD*
G04 #@! TA.AperFunction,ComponentPad*
%ADD14O,1.700000X1.700000*%
G04 #@! TD*
G04 #@! TA.AperFunction,ComponentPad*
%ADD15C,2.625000*%
G04 #@! TD*
G04 #@! TA.AperFunction,ComponentPad*
%ADD16R,2.625000X2.625000*%
G04 #@! TD*
G04 #@! TA.AperFunction,ComponentPad*
%ADD17O,1.200000X1.750000*%
G04 #@! TD*
G04 #@! TA.AperFunction,ComponentPad*
%ADD18C,1.200000*%
G04 #@! TD*
G04 #@! TA.AperFunction,ComponentPad*
%ADD19O,1.750000X1.200000*%
G04 #@! TD*
G04 #@! TA.AperFunction,ComponentPad*
%ADD20C,6.400000*%
G04 #@! TD*
G04 #@! TA.AperFunction,ComponentPad*
%ADD21C,1.699848*%
G04 #@! TD*
G04 #@! TA.AperFunction,ComponentPad*
%ADD22C,0.800000*%
G04 #@! TD*
G04 #@! TA.AperFunction,ComponentPad*
%ADD23C,2.400000*%
G04 #@! TD*
G04 #@! TA.AperFunction,ComponentPad*
%ADD24R,2.400000X2.400000*%
G04 #@! TD*
G04 #@! TA.AperFunction,ComponentPad*
%ADD25O,2.200000X2.200000*%
G04 #@! TD*
G04 #@! TA.AperFunction,ComponentPad*
%ADD26R,2.200000X2.200000*%
G04 #@! TD*
G04 #@! TA.AperFunction,SMDPad,CuDef*
%ADD27R,3.300000X3.300000*%
G04 #@! TD*
G04 #@! TA.AperFunction,SMDPad,CuDef*
%ADD28C,1.350000*%
G04 #@! TD*
G04 #@! TA.AperFunction,ComponentPad*
%ADD29O,2.300000X1.500000*%
G04 #@! TD*
G04 #@! TA.AperFunction,ComponentPad*
%ADD30R,2.300000X1.500000*%
G04 #@! TD*
G04 #@! TA.AperFunction,ComponentPad*
%ADD31C,3.000000*%
G04 #@! TD*
G04 #@! TA.AperFunction,ComponentPad*
%ADD32R,2.000000X2.000000*%
G04 #@! TD*
G04 #@! TA.AperFunction,ComponentPad*
%ADD33C,2.000000*%
G04 #@! TD*
G04 #@! TA.AperFunction,SMDPad,CuDef*
%ADD34C,0.875000*%
G04 #@! TD*
G04 #@! TA.AperFunction,ComponentPad*
%ADD35O,3.300000X2.640000*%
G04 #@! TD*
G04 #@! TA.AperFunction,ComponentPad*
%ADD36R,3.300000X2.640000*%
G04 #@! TD*
G04 #@! TA.AperFunction,ViaPad*
%ADD37C,0.800000*%
G04 #@! TD*
G04 #@! TA.AperFunction,Conductor*
%ADD38C,0.635000*%
G04 #@! TD*
G04 #@! TA.AperFunction,Conductor*
%ADD39C,0.304800*%
G04 #@! TD*
G04 #@! TA.AperFunction,Conductor*
%ADD40C,0.200000*%
G04 #@! TD*
G04 #@! TA.AperFunction,Conductor*
%ADD41C,0.203200*%
G04 #@! TD*
G04 #@! TA.AperFunction,Conductor*
%ADD42C,3.175000*%
G04 #@! TD*
G04 #@! TA.AperFunction,Conductor*
%ADD43C,0.254000*%
G04 #@! TD*
G04 APERTURE END LIST*
D10*
G04 #@! TO.P,J1,5*
G04 #@! TO.N,/Main/HECS_AN1*
X86065000Y-141594000D03*
G04 #@! TO.P,J1,4*
G04 #@! TO.N,/Main/HECS_AN2*
X83565000Y-141594000D03*
G04 #@! TO.P,J1,3*
G04 #@! TO.N,/Main/HECS_AN3*
X81065000Y-141594000D03*
G04 #@! TO.P,J1,2*
G04 #@! TO.N,+5V*
X78565000Y-141594000D03*
D11*
G04 #@! TD*
G04 #@! TO.N,GND*
G04 #@! TO.C,J1*
G36*
X76689504Y-140620204D02*
X76713773Y-140623804D01*
X76737571Y-140629765D01*
X76760671Y-140638030D01*
X76782849Y-140648520D01*
X76803893Y-140661133D01*
X76823598Y-140675747D01*
X76841777Y-140692223D01*
X76858253Y-140710402D01*
X76872867Y-140730107D01*
X76885480Y-140751151D01*
X76895970Y-140773329D01*
X76904235Y-140796429D01*
X76910196Y-140820227D01*
X76913796Y-140844496D01*
X76915000Y-140869000D01*
X76915000Y-142319000D01*
X76913796Y-142343504D01*
X76910196Y-142367773D01*
X76904235Y-142391571D01*
X76895970Y-142414671D01*
X76885480Y-142436849D01*
X76872867Y-142457893D01*
X76858253Y-142477598D01*
X76841777Y-142495777D01*
X76823598Y-142512253D01*
X76803893Y-142526867D01*
X76782849Y-142539480D01*
X76760671Y-142549970D01*
X76737571Y-142558235D01*
X76713773Y-142564196D01*
X76689504Y-142567796D01*
X76665000Y-142569000D01*
X75465000Y-142569000D01*
X75440496Y-142567796D01*
X75416227Y-142564196D01*
X75392429Y-142558235D01*
X75369329Y-142549970D01*
X75347151Y-142539480D01*
X75326107Y-142526867D01*
X75306402Y-142512253D01*
X75288223Y-142495777D01*
X75271747Y-142477598D01*
X75257133Y-142457893D01*
X75244520Y-142436849D01*
X75234030Y-142414671D01*
X75225765Y-142391571D01*
X75219804Y-142367773D01*
X75216204Y-142343504D01*
X75215000Y-142319000D01*
X75215000Y-140869000D01*
X75216204Y-140844496D01*
X75219804Y-140820227D01*
X75225765Y-140796429D01*
X75234030Y-140773329D01*
X75244520Y-140751151D01*
X75257133Y-140730107D01*
X75271747Y-140710402D01*
X75288223Y-140692223D01*
X75306402Y-140675747D01*
X75326107Y-140661133D01*
X75347151Y-140648520D01*
X75369329Y-140638030D01*
X75392429Y-140629765D01*
X75416227Y-140623804D01*
X75440496Y-140620204D01*
X75465000Y-140619000D01*
X76665000Y-140619000D01*
X76689504Y-140620204D01*
X76689504Y-140620204D01*
G37*
D12*
G04 #@! TO.P,J1,1*
G04 #@! TO.N,GND*
X76065000Y-141594000D03*
G04 #@! TD*
D10*
G04 #@! TO.P,J4,5*
G04 #@! TO.N,+12V*
X102710000Y-141605000D03*
G04 #@! TO.P,J4,4*
G04 #@! TO.N,/Main/IMD_OK*
X100210000Y-141605000D03*
G04 #@! TO.P,J4,3*
G04 #@! TO.N,GND*
X97710000Y-141605000D03*
G04 #@! TO.P,J4,2*
X95210000Y-141605000D03*
D11*
G04 #@! TD*
G04 #@! TO.N,GND*
G04 #@! TO.C,J4*
G36*
X93334504Y-140631204D02*
X93358773Y-140634804D01*
X93382571Y-140640765D01*
X93405671Y-140649030D01*
X93427849Y-140659520D01*
X93448893Y-140672133D01*
X93468598Y-140686747D01*
X93486777Y-140703223D01*
X93503253Y-140721402D01*
X93517867Y-140741107D01*
X93530480Y-140762151D01*
X93540970Y-140784329D01*
X93549235Y-140807429D01*
X93555196Y-140831227D01*
X93558796Y-140855496D01*
X93560000Y-140880000D01*
X93560000Y-142330000D01*
X93558796Y-142354504D01*
X93555196Y-142378773D01*
X93549235Y-142402571D01*
X93540970Y-142425671D01*
X93530480Y-142447849D01*
X93517867Y-142468893D01*
X93503253Y-142488598D01*
X93486777Y-142506777D01*
X93468598Y-142523253D01*
X93448893Y-142537867D01*
X93427849Y-142550480D01*
X93405671Y-142560970D01*
X93382571Y-142569235D01*
X93358773Y-142575196D01*
X93334504Y-142578796D01*
X93310000Y-142580000D01*
X92110000Y-142580000D01*
X92085496Y-142578796D01*
X92061227Y-142575196D01*
X92037429Y-142569235D01*
X92014329Y-142560970D01*
X91992151Y-142550480D01*
X91971107Y-142537867D01*
X91951402Y-142523253D01*
X91933223Y-142506777D01*
X91916747Y-142488598D01*
X91902133Y-142468893D01*
X91889520Y-142447849D01*
X91879030Y-142425671D01*
X91870765Y-142402571D01*
X91864804Y-142378773D01*
X91861204Y-142354504D01*
X91860000Y-142330000D01*
X91860000Y-140880000D01*
X91861204Y-140855496D01*
X91864804Y-140831227D01*
X91870765Y-140807429D01*
X91879030Y-140784329D01*
X91889520Y-140762151D01*
X91902133Y-140741107D01*
X91916747Y-140721402D01*
X91933223Y-140703223D01*
X91951402Y-140686747D01*
X91971107Y-140672133D01*
X91992151Y-140659520D01*
X92014329Y-140649030D01*
X92037429Y-140640765D01*
X92061227Y-140634804D01*
X92085496Y-140631204D01*
X92110000Y-140630000D01*
X93310000Y-140630000D01*
X93334504Y-140631204D01*
X93334504Y-140631204D01*
G37*
D12*
G04 #@! TO.P,J4,1*
G04 #@! TO.N,GND*
X92710000Y-141605000D03*
G04 #@! TD*
D13*
G04 #@! TO.P,J15,1*
G04 #@! TO.N,/Main/sheet5C830476/MISO*
X78027000Y-128278000D03*
D14*
G04 #@! TO.P,J15,2*
G04 #@! TO.N,+5V*
X80567000Y-128278000D03*
G04 #@! TO.P,J15,3*
G04 #@! TO.N,/Main/sheet5C830476/SCK*
X78027000Y-125738000D03*
G04 #@! TO.P,J15,4*
G04 #@! TO.N,/Main/sheet5C830476/MOSI*
X80567000Y-125738000D03*
G04 #@! TO.P,J15,5*
G04 #@! TO.N,/Main/sheet5C830476/RESET*
X78027000Y-123198000D03*
G04 #@! TO.P,J15,6*
G04 #@! TO.N,GND*
X80567000Y-123198000D03*
G04 #@! TD*
D15*
G04 #@! TO.P,J16,23*
G04 #@! TO.N,/Main/SHDN_LOOP_OUT*
X66930000Y-107950000D03*
G04 #@! TO.P,J16,22*
G04 #@! TO.N,+5V*
X66930000Y-103950000D03*
G04 #@! TO.P,J16,21*
G04 #@! TO.N,/Main/TEMP_1*
X66930000Y-99950000D03*
G04 #@! TO.P,J16,20*
G04 #@! TO.N,/Main/IMD_OK*
X66930000Y-95950000D03*
G04 #@! TO.P,J16,19*
G04 #@! TO.N,/Main/HECS_AN1*
X66930000Y-91950000D03*
G04 #@! TO.P,J16,18*
G04 #@! TO.N,/Main/HECS_AN2*
X66930000Y-87950000D03*
G04 #@! TO.P,J16,17*
G04 #@! TO.N,/Main/HECS_AN3*
X66930000Y-83950000D03*
G04 #@! TO.P,J16,16*
G04 #@! TO.N,N/C*
X66930000Y-79950000D03*
G04 #@! TO.P,J16,15*
G04 #@! TO.N,/Main/SHDN_LOOP_OUT*
X70930000Y-105950000D03*
G04 #@! TO.P,J16,14*
X70930000Y-101950000D03*
G04 #@! TO.P,J16,13*
G04 #@! TO.N,/Main/CAN+*
X70930000Y-97950000D03*
G04 #@! TO.P,J16,12*
G04 #@! TO.N,/Main/CAN-*
X70930000Y-93950000D03*
G04 #@! TO.P,J16,11*
G04 #@! TO.N,N/C*
X70930000Y-89950000D03*
G04 #@! TO.P,J16,10*
G04 #@! TO.N,+12V*
X70930000Y-85950000D03*
G04 #@! TO.P,J16,9*
G04 #@! TO.N,/Main/FANOUT2*
X70930000Y-81950000D03*
G04 #@! TO.P,J16,8*
G04 #@! TO.N,/Main/SHDN_LOOP_OUT*
X74930000Y-107950000D03*
G04 #@! TO.P,J16,7*
X74930000Y-103950000D03*
G04 #@! TO.P,J16,6*
G04 #@! TO.N,GND*
X74930000Y-99950000D03*
G04 #@! TO.P,J16,5*
X74930000Y-95950000D03*
G04 #@! TO.P,J16,4*
X74930000Y-91950000D03*
G04 #@! TO.P,J16,3*
G04 #@! TO.N,+12V*
X74930000Y-87950000D03*
G04 #@! TO.P,J16,2*
G04 #@! TO.N,/Main/FANOUT3*
X74930000Y-83950000D03*
D16*
G04 #@! TO.P,J16,1*
G04 #@! TO.N,/Main/FANOUT1*
X74930000Y-79950000D03*
G04 #@! TD*
D17*
G04 #@! TO.P,J2,4*
G04 #@! TO.N,+12V*
X106801691Y-47650691D03*
G04 #@! TO.P,J2,3*
X108801691Y-47650691D03*
G04 #@! TO.P,J2,2*
G04 #@! TO.N,/Main/FANOUT0*
X110801691Y-47650691D03*
D11*
G04 #@! TD*
G04 #@! TO.N,/Main/FANOUT0*
G04 #@! TO.C,J2*
G36*
X113176196Y-46776895D02*
X113200464Y-46780495D01*
X113224263Y-46786456D01*
X113247362Y-46794721D01*
X113269541Y-46805211D01*
X113290584Y-46817823D01*
X113310290Y-46832438D01*
X113328468Y-46848914D01*
X113344944Y-46867092D01*
X113359559Y-46886798D01*
X113372171Y-46907841D01*
X113382661Y-46930020D01*
X113390926Y-46953119D01*
X113396887Y-46976918D01*
X113400487Y-47001186D01*
X113401691Y-47025690D01*
X113401691Y-48275692D01*
X113400487Y-48300196D01*
X113396887Y-48324464D01*
X113390926Y-48348263D01*
X113382661Y-48371362D01*
X113372171Y-48393541D01*
X113359559Y-48414584D01*
X113344944Y-48434290D01*
X113328468Y-48452468D01*
X113310290Y-48468944D01*
X113290584Y-48483559D01*
X113269541Y-48496171D01*
X113247362Y-48506661D01*
X113224263Y-48514926D01*
X113200464Y-48520887D01*
X113176196Y-48524487D01*
X113151692Y-48525691D01*
X112451690Y-48525691D01*
X112427186Y-48524487D01*
X112402918Y-48520887D01*
X112379119Y-48514926D01*
X112356020Y-48506661D01*
X112333841Y-48496171D01*
X112312798Y-48483559D01*
X112293092Y-48468944D01*
X112274914Y-48452468D01*
X112258438Y-48434290D01*
X112243823Y-48414584D01*
X112231211Y-48393541D01*
X112220721Y-48371362D01*
X112212456Y-48348263D01*
X112206495Y-48324464D01*
X112202895Y-48300196D01*
X112201691Y-48275692D01*
X112201691Y-47025690D01*
X112202895Y-47001186D01*
X112206495Y-46976918D01*
X112212456Y-46953119D01*
X112220721Y-46930020D01*
X112231211Y-46907841D01*
X112243823Y-46886798D01*
X112258438Y-46867092D01*
X112274914Y-46848914D01*
X112293092Y-46832438D01*
X112312798Y-46817823D01*
X112333841Y-46805211D01*
X112356020Y-46794721D01*
X112379119Y-46786456D01*
X112402918Y-46780495D01*
X112427186Y-46776895D01*
X112451690Y-46775691D01*
X113151692Y-46775691D01*
X113176196Y-46776895D01*
X113176196Y-46776895D01*
G37*
D18*
G04 #@! TO.P,J2,1*
G04 #@! TO.N,/Main/FANOUT0*
X112801691Y-47650691D03*
G04 #@! TD*
D19*
G04 #@! TO.P,J3,4*
G04 #@! TO.N,+5V*
X136169691Y-119944691D03*
G04 #@! TO.P,J3,3*
X136169691Y-117944691D03*
G04 #@! TO.P,J3,2*
G04 #@! TO.N,/Main/TEMP_1*
X136169691Y-115944691D03*
D11*
G04 #@! TD*
G04 #@! TO.N,/Main/TEMP_2*
G04 #@! TO.C,J3*
G36*
X136819196Y-113345895D02*
X136843464Y-113349495D01*
X136867263Y-113355456D01*
X136890362Y-113363721D01*
X136912541Y-113374211D01*
X136933584Y-113386823D01*
X136953290Y-113401438D01*
X136971468Y-113417914D01*
X136987944Y-113436092D01*
X137002559Y-113455798D01*
X137015171Y-113476841D01*
X137025661Y-113499020D01*
X137033926Y-113522119D01*
X137039887Y-113545918D01*
X137043487Y-113570186D01*
X137044691Y-113594690D01*
X137044691Y-114294692D01*
X137043487Y-114319196D01*
X137039887Y-114343464D01*
X137033926Y-114367263D01*
X137025661Y-114390362D01*
X137015171Y-114412541D01*
X137002559Y-114433584D01*
X136987944Y-114453290D01*
X136971468Y-114471468D01*
X136953290Y-114487944D01*
X136933584Y-114502559D01*
X136912541Y-114515171D01*
X136890362Y-114525661D01*
X136867263Y-114533926D01*
X136843464Y-114539887D01*
X136819196Y-114543487D01*
X136794692Y-114544691D01*
X135544690Y-114544691D01*
X135520186Y-114543487D01*
X135495918Y-114539887D01*
X135472119Y-114533926D01*
X135449020Y-114525661D01*
X135426841Y-114515171D01*
X135405798Y-114502559D01*
X135386092Y-114487944D01*
X135367914Y-114471468D01*
X135351438Y-114453290D01*
X135336823Y-114433584D01*
X135324211Y-114412541D01*
X135313721Y-114390362D01*
X135305456Y-114367263D01*
X135299495Y-114343464D01*
X135295895Y-114319196D01*
X135294691Y-114294692D01*
X135294691Y-113594690D01*
X135295895Y-113570186D01*
X135299495Y-113545918D01*
X135305456Y-113522119D01*
X135313721Y-113499020D01*
X135324211Y-113476841D01*
X135336823Y-113455798D01*
X135351438Y-113436092D01*
X135367914Y-113417914D01*
X135386092Y-113401438D01*
X135405798Y-113386823D01*
X135426841Y-113374211D01*
X135449020Y-113363721D01*
X135472119Y-113355456D01*
X135495918Y-113349495D01*
X135520186Y-113345895D01*
X135544690Y-113344691D01*
X136794692Y-113344691D01*
X136819196Y-113345895D01*
X136819196Y-113345895D01*
G37*
D18*
G04 #@! TO.P,J3,1*
G04 #@! TO.N,/Main/TEMP_2*
X136169691Y-113944691D03*
G04 #@! TD*
D20*
G04 #@! TO.P,U5,1*
G04 #@! TO.N,Net-(C10-Pad1)*
X204664000Y-53071000D03*
G04 #@! TO.P,U5,5*
G04 #@! TO.N,/Main/HV-*
X204618280Y-77328000D03*
G04 #@! TO.P,U5,8*
G04 #@! TO.N,GND*
X143958000Y-73010000D03*
G04 #@! TO.P,U5,9*
G04 #@! TO.N,Net-(C2-Pad1)*
X143958000Y-57516000D03*
D21*
G04 #@! TO.P,U5,2*
G04 #@! TO.N,/Main/sheet5C830478/TRIM_HV*
X203648000Y-62088000D03*
G04 #@! TO.P,U5,3*
G04 #@! TO.N,/Main/sheet5C830478/EN_HV*
X203648000Y-64628000D03*
G04 #@! TO.P,U5,4*
G04 #@! TO.N,/Main/sheet5C830478/FAULT_HV*
X203648000Y-67168000D03*
D22*
G04 #@! TO.P,U5,1*
G04 #@! TO.N,Net-(C10-Pad1)*
X204664000Y-50658000D03*
X206370249Y-51364751D03*
X207077000Y-53071000D03*
X206370249Y-54777249D03*
X204664000Y-55484000D03*
X202957751Y-54777249D03*
X202251000Y-53071000D03*
X202957751Y-51364751D03*
G04 #@! TO.P,U5,5*
G04 #@! TO.N,/Main/HV-*
X204664000Y-74915000D03*
X206356858Y-75654080D03*
X207031280Y-77373720D03*
X206292200Y-79066578D03*
X204572560Y-79741000D03*
X202879702Y-79001920D03*
X202205280Y-77282280D03*
X202944360Y-75589422D03*
G04 #@! TO.P,U5,9*
G04 #@! TO.N,Net-(C2-Pad1)*
X143958000Y-55103000D03*
X145664249Y-55809751D03*
X146371000Y-57516000D03*
X145664249Y-59222249D03*
X143958000Y-59929000D03*
X142251751Y-59222249D03*
X141545000Y-57516000D03*
X142251751Y-55809751D03*
G04 #@! TO.P,U5,8*
G04 #@! TO.N,GND*
X143958000Y-70597000D03*
X145664249Y-71303751D03*
X146371000Y-73010000D03*
X145664249Y-74716249D03*
X143958000Y-75423000D03*
X142251751Y-74716249D03*
X141545000Y-73010000D03*
X142251751Y-71303751D03*
G04 #@! TD*
D14*
G04 #@! TO.P,J11,4*
G04 #@! TO.N,+5V*
X73201000Y-116086000D03*
G04 #@! TO.P,J11,3*
G04 #@! TO.N,GND*
X73201000Y-118626000D03*
G04 #@! TO.P,J11,2*
G04 #@! TO.N,/Main/UART_TX*
X73201000Y-121166000D03*
D13*
G04 #@! TO.P,J11,1*
G04 #@! TO.N,/Main/UART_RX*
X73201000Y-123706000D03*
G04 #@! TD*
D23*
G04 #@! TO.P,C9,2*
G04 #@! TO.N,/Main/HV-*
X177180000Y-101349000D03*
G04 #@! TO.P,C9,1*
G04 #@! TO.N,Net-(C10-Pad1)*
X177180000Y-116349000D03*
G04 #@! TD*
G04 #@! TO.P,C10,2*
G04 #@! TO.N,/Main/HV-*
X186180000Y-101349000D03*
G04 #@! TO.P,C10,1*
G04 #@! TO.N,Net-(C10-Pad1)*
X186180000Y-116349000D03*
G04 #@! TD*
G04 #@! TO.P,C11,2*
G04 #@! TO.N,/Main/HV-*
X195180000Y-101349000D03*
G04 #@! TO.P,C11,1*
G04 #@! TO.N,Net-(C10-Pad1)*
X195180000Y-116349000D03*
G04 #@! TD*
G04 #@! TO.P,C13,2*
G04 #@! TO.N,GND*
X112462000Y-68431000D03*
D24*
G04 #@! TO.P,C13,1*
G04 #@! TO.N,/Main/sheet5C830478/12V_OUT*
X112462000Y-75931000D03*
G04 #@! TD*
D23*
G04 #@! TO.P,C14,2*
G04 #@! TO.N,GND*
X125670000Y-89019000D03*
D24*
G04 #@! TO.P,C14,1*
G04 #@! TO.N,/Main/sheet5C830478/12V_OUT*
X125670000Y-81519000D03*
G04 #@! TD*
D25*
G04 #@! TO.P,D3,2*
G04 #@! TO.N,/Main/FANOUT0*
X132148000Y-43079000D03*
D26*
G04 #@! TO.P,D3,1*
G04 #@! TO.N,+12V*
X121988000Y-43079000D03*
G04 #@! TD*
D25*
G04 #@! TO.P,D4,2*
G04 #@! TO.N,/Main/FANOUT2*
X80205000Y-58319000D03*
D26*
G04 #@! TO.P,D4,1*
G04 #@! TO.N,+12V*
X70045000Y-58319000D03*
G04 #@! TD*
D25*
G04 #@! TO.P,D5,2*
G04 #@! TO.N,/Main/FANOUT1*
X85901000Y-69096000D03*
D26*
G04 #@! TO.P,D5,1*
G04 #@! TO.N,+12V*
X85901000Y-79256000D03*
G04 #@! TD*
D25*
G04 #@! TO.P,D6,2*
G04 #@! TO.N,/Main/FANOUT3*
X99255000Y-74829000D03*
D26*
G04 #@! TO.P,D6,1*
G04 #@! TO.N,+12V*
X89095000Y-74829000D03*
G04 #@! TD*
D27*
G04 #@! TO.P,L2,2*
G04 #@! TO.N,/Main/sheet5C830478/12V_OUT*
X133290000Y-75040000D03*
G04 #@! TO.P,L2,1*
G04 #@! TO.N,Net-(C2-Pad1)*
X133290000Y-67170000D03*
G04 #@! TD*
D11*
G04 #@! TO.N,Net-(C2-Pad1)*
G04 #@! TO.C,R23*
G36*
X128643505Y-67785204D02*
X128667773Y-67788804D01*
X128691572Y-67794765D01*
X128714671Y-67803030D01*
X128736850Y-67813520D01*
X128757893Y-67826132D01*
X128777599Y-67840747D01*
X128795777Y-67857223D01*
X128812253Y-67875401D01*
X128826868Y-67895107D01*
X128839480Y-67916150D01*
X128849970Y-67938329D01*
X128858235Y-67961428D01*
X128864196Y-67985227D01*
X128867796Y-68009495D01*
X128869000Y-68033999D01*
X128869000Y-68884001D01*
X128867796Y-68908505D01*
X128864196Y-68932773D01*
X128858235Y-68956572D01*
X128849970Y-68979671D01*
X128839480Y-69001850D01*
X128826868Y-69022893D01*
X128812253Y-69042599D01*
X128795777Y-69060777D01*
X128777599Y-69077253D01*
X128757893Y-69091868D01*
X128736850Y-69104480D01*
X128714671Y-69114970D01*
X128691572Y-69123235D01*
X128667773Y-69129196D01*
X128643505Y-69132796D01*
X128619001Y-69134000D01*
X125768999Y-69134000D01*
X125744495Y-69132796D01*
X125720227Y-69129196D01*
X125696428Y-69123235D01*
X125673329Y-69114970D01*
X125651150Y-69104480D01*
X125630107Y-69091868D01*
X125610401Y-69077253D01*
X125592223Y-69060777D01*
X125575747Y-69042599D01*
X125561132Y-69022893D01*
X125548520Y-69001850D01*
X125538030Y-68979671D01*
X125529765Y-68956572D01*
X125523804Y-68932773D01*
X125520204Y-68908505D01*
X125519000Y-68884001D01*
X125519000Y-68033999D01*
X125520204Y-68009495D01*
X125523804Y-67985227D01*
X125529765Y-67961428D01*
X125538030Y-67938329D01*
X125548520Y-67916150D01*
X125561132Y-67895107D01*
X125575747Y-67875401D01*
X125592223Y-67857223D01*
X125610401Y-67840747D01*
X125630107Y-67826132D01*
X125651150Y-67813520D01*
X125673329Y-67803030D01*
X125696428Y-67794765D01*
X125720227Y-67788804D01*
X125744495Y-67785204D01*
X125768999Y-67784000D01*
X128619001Y-67784000D01*
X128643505Y-67785204D01*
X128643505Y-67785204D01*
G37*
D28*
G04 #@! TD*
G04 #@! TO.P,R23,2*
G04 #@! TO.N,Net-(C2-Pad1)*
X127194000Y-68459000D03*
D11*
G04 #@! TO.N,/Main/sheet5C830478/12V_OUT*
G04 #@! TO.C,R23*
G36*
X128643505Y-73585204D02*
X128667773Y-73588804D01*
X128691572Y-73594765D01*
X128714671Y-73603030D01*
X128736850Y-73613520D01*
X128757893Y-73626132D01*
X128777599Y-73640747D01*
X128795777Y-73657223D01*
X128812253Y-73675401D01*
X128826868Y-73695107D01*
X128839480Y-73716150D01*
X128849970Y-73738329D01*
X128858235Y-73761428D01*
X128864196Y-73785227D01*
X128867796Y-73809495D01*
X128869000Y-73833999D01*
X128869000Y-74684001D01*
X128867796Y-74708505D01*
X128864196Y-74732773D01*
X128858235Y-74756572D01*
X128849970Y-74779671D01*
X128839480Y-74801850D01*
X128826868Y-74822893D01*
X128812253Y-74842599D01*
X128795777Y-74860777D01*
X128777599Y-74877253D01*
X128757893Y-74891868D01*
X128736850Y-74904480D01*
X128714671Y-74914970D01*
X128691572Y-74923235D01*
X128667773Y-74929196D01*
X128643505Y-74932796D01*
X128619001Y-74934000D01*
X125768999Y-74934000D01*
X125744495Y-74932796D01*
X125720227Y-74929196D01*
X125696428Y-74923235D01*
X125673329Y-74914970D01*
X125651150Y-74904480D01*
X125630107Y-74891868D01*
X125610401Y-74877253D01*
X125592223Y-74860777D01*
X125575747Y-74842599D01*
X125561132Y-74822893D01*
X125548520Y-74801850D01*
X125538030Y-74779671D01*
X125529765Y-74756572D01*
X125523804Y-74732773D01*
X125520204Y-74708505D01*
X125519000Y-74684001D01*
X125519000Y-73833999D01*
X125520204Y-73809495D01*
X125523804Y-73785227D01*
X125529765Y-73761428D01*
X125538030Y-73738329D01*
X125548520Y-73716150D01*
X125561132Y-73695107D01*
X125575747Y-73675401D01*
X125592223Y-73657223D01*
X125610401Y-73640747D01*
X125630107Y-73626132D01*
X125651150Y-73613520D01*
X125673329Y-73603030D01*
X125696428Y-73594765D01*
X125720227Y-73588804D01*
X125744495Y-73585204D01*
X125768999Y-73584000D01*
X128619001Y-73584000D01*
X128643505Y-73585204D01*
X128643505Y-73585204D01*
G37*
D28*
G04 #@! TD*
G04 #@! TO.P,R23,1*
G04 #@! TO.N,/Main/sheet5C830478/12V_OUT*
X127194000Y-74259000D03*
D29*
G04 #@! TO.P,U7,3*
G04 #@! TO.N,+5V*
X94175000Y-44476000D03*
G04 #@! TO.P,U7,2*
G04 #@! TO.N,GND*
X94175000Y-47016000D03*
D30*
G04 #@! TO.P,U7,1*
G04 #@! TO.N,+12V*
X94175000Y-49556000D03*
G04 #@! TD*
D31*
G04 #@! TO.P,F1,2*
G04 #@! TO.N,/Main/HV+*
X185321000Y-128786000D03*
G04 #@! TO.P,F1,1*
G04 #@! TO.N,/Main/sheet5C830478/HV+*
X207821000Y-128786000D03*
G04 #@! TD*
D32*
G04 #@! TO.P,C1,1*
G04 #@! TO.N,+12V*
X85285000Y-89434000D03*
D33*
G04 #@! TO.P,C1,2*
G04 #@! TO.N,GND*
X85285000Y-94434000D03*
G04 #@! TD*
D24*
G04 #@! TO.P,C2,1*
G04 #@! TO.N,Net-(C2-Pad1)*
X129480000Y-56881000D03*
D23*
G04 #@! TO.P,C2,2*
G04 #@! TO.N,GND*
X121980000Y-56881000D03*
G04 #@! TD*
D11*
G04 #@! TO.N,GND*
G04 #@! TO.C,C5*
G36*
X98769691Y-47148053D02*
X98790926Y-47151203D01*
X98811750Y-47156419D01*
X98831962Y-47163651D01*
X98851368Y-47172830D01*
X98869781Y-47183866D01*
X98887024Y-47196654D01*
X98902930Y-47211070D01*
X98917346Y-47226976D01*
X98930134Y-47244219D01*
X98941170Y-47262632D01*
X98950349Y-47282038D01*
X98957581Y-47302250D01*
X98962797Y-47323074D01*
X98965947Y-47344309D01*
X98967000Y-47365750D01*
X98967000Y-47803250D01*
X98965947Y-47824691D01*
X98962797Y-47845926D01*
X98957581Y-47866750D01*
X98950349Y-47886962D01*
X98941170Y-47906368D01*
X98930134Y-47924781D01*
X98917346Y-47942024D01*
X98902930Y-47957930D01*
X98887024Y-47972346D01*
X98869781Y-47985134D01*
X98851368Y-47996170D01*
X98831962Y-48005349D01*
X98811750Y-48012581D01*
X98790926Y-48017797D01*
X98769691Y-48020947D01*
X98748250Y-48022000D01*
X98235750Y-48022000D01*
X98214309Y-48020947D01*
X98193074Y-48017797D01*
X98172250Y-48012581D01*
X98152038Y-48005349D01*
X98132632Y-47996170D01*
X98114219Y-47985134D01*
X98096976Y-47972346D01*
X98081070Y-47957930D01*
X98066654Y-47942024D01*
X98053866Y-47924781D01*
X98042830Y-47906368D01*
X98033651Y-47886962D01*
X98026419Y-47866750D01*
X98021203Y-47845926D01*
X98018053Y-47824691D01*
X98017000Y-47803250D01*
X98017000Y-47365750D01*
X98018053Y-47344309D01*
X98021203Y-47323074D01*
X98026419Y-47302250D01*
X98033651Y-47282038D01*
X98042830Y-47262632D01*
X98053866Y-47244219D01*
X98066654Y-47226976D01*
X98081070Y-47211070D01*
X98096976Y-47196654D01*
X98114219Y-47183866D01*
X98132632Y-47172830D01*
X98152038Y-47163651D01*
X98172250Y-47156419D01*
X98193074Y-47151203D01*
X98214309Y-47148053D01*
X98235750Y-47147000D01*
X98748250Y-47147000D01*
X98769691Y-47148053D01*
X98769691Y-47148053D01*
G37*
D34*
G04 #@! TD*
G04 #@! TO.P,C5,2*
G04 #@! TO.N,GND*
X98492000Y-47584500D03*
D11*
G04 #@! TO.N,+12V*
G04 #@! TO.C,C5*
G36*
X98769691Y-48723053D02*
X98790926Y-48726203D01*
X98811750Y-48731419D01*
X98831962Y-48738651D01*
X98851368Y-48747830D01*
X98869781Y-48758866D01*
X98887024Y-48771654D01*
X98902930Y-48786070D01*
X98917346Y-48801976D01*
X98930134Y-48819219D01*
X98941170Y-48837632D01*
X98950349Y-48857038D01*
X98957581Y-48877250D01*
X98962797Y-48898074D01*
X98965947Y-48919309D01*
X98967000Y-48940750D01*
X98967000Y-49378250D01*
X98965947Y-49399691D01*
X98962797Y-49420926D01*
X98957581Y-49441750D01*
X98950349Y-49461962D01*
X98941170Y-49481368D01*
X98930134Y-49499781D01*
X98917346Y-49517024D01*
X98902930Y-49532930D01*
X98887024Y-49547346D01*
X98869781Y-49560134D01*
X98851368Y-49571170D01*
X98831962Y-49580349D01*
X98811750Y-49587581D01*
X98790926Y-49592797D01*
X98769691Y-49595947D01*
X98748250Y-49597000D01*
X98235750Y-49597000D01*
X98214309Y-49595947D01*
X98193074Y-49592797D01*
X98172250Y-49587581D01*
X98152038Y-49580349D01*
X98132632Y-49571170D01*
X98114219Y-49560134D01*
X98096976Y-49547346D01*
X98081070Y-49532930D01*
X98066654Y-49517024D01*
X98053866Y-49499781D01*
X98042830Y-49481368D01*
X98033651Y-49461962D01*
X98026419Y-49441750D01*
X98021203Y-49420926D01*
X98018053Y-49399691D01*
X98017000Y-49378250D01*
X98017000Y-48940750D01*
X98018053Y-48919309D01*
X98021203Y-48898074D01*
X98026419Y-48877250D01*
X98033651Y-48857038D01*
X98042830Y-48837632D01*
X98053866Y-48819219D01*
X98066654Y-48801976D01*
X98081070Y-48786070D01*
X98096976Y-48771654D01*
X98114219Y-48758866D01*
X98132632Y-48747830D01*
X98152038Y-48738651D01*
X98172250Y-48731419D01*
X98193074Y-48726203D01*
X98214309Y-48723053D01*
X98235750Y-48722000D01*
X98748250Y-48722000D01*
X98769691Y-48723053D01*
X98769691Y-48723053D01*
G37*
D34*
G04 #@! TD*
G04 #@! TO.P,C5,1*
G04 #@! TO.N,+12V*
X98492000Y-49159500D03*
D35*
G04 #@! TO.P,J7,3*
G04 #@! TO.N,/Main/HV-*
X164641000Y-142146000D03*
G04 #@! TO.P,J7,2*
X164641000Y-138006000D03*
D36*
G04 #@! TO.P,J7,1*
X164641000Y-133866000D03*
G04 #@! TD*
G04 #@! TO.P,J8,1*
G04 #@! TO.N,/Main/HV+*
X178611000Y-133866000D03*
D35*
G04 #@! TO.P,J8,2*
X178611000Y-138006000D03*
G04 #@! TO.P,J8,3*
X178611000Y-142146000D03*
G04 #@! TD*
D11*
G04 #@! TO.N,/Main/CAN-*
G04 #@! TO.C,R1*
G36*
X129632691Y-142390053D02*
X129653926Y-142393203D01*
X129674750Y-142398419D01*
X129694962Y-142405651D01*
X129714368Y-142414830D01*
X129732781Y-142425866D01*
X129750024Y-142438654D01*
X129765930Y-142453070D01*
X129780346Y-142468976D01*
X129793134Y-142486219D01*
X129804170Y-142504632D01*
X129813349Y-142524038D01*
X129820581Y-142544250D01*
X129825797Y-142565074D01*
X129828947Y-142586309D01*
X129830000Y-142607750D01*
X129830000Y-143120250D01*
X129828947Y-143141691D01*
X129825797Y-143162926D01*
X129820581Y-143183750D01*
X129813349Y-143203962D01*
X129804170Y-143223368D01*
X129793134Y-143241781D01*
X129780346Y-143259024D01*
X129765930Y-143274930D01*
X129750024Y-143289346D01*
X129732781Y-143302134D01*
X129714368Y-143313170D01*
X129694962Y-143322349D01*
X129674750Y-143329581D01*
X129653926Y-143334797D01*
X129632691Y-143337947D01*
X129611250Y-143339000D01*
X129173750Y-143339000D01*
X129152309Y-143337947D01*
X129131074Y-143334797D01*
X129110250Y-143329581D01*
X129090038Y-143322349D01*
X129070632Y-143313170D01*
X129052219Y-143302134D01*
X129034976Y-143289346D01*
X129019070Y-143274930D01*
X129004654Y-143259024D01*
X128991866Y-143241781D01*
X128980830Y-143223368D01*
X128971651Y-143203962D01*
X128964419Y-143183750D01*
X128959203Y-143162926D01*
X128956053Y-143141691D01*
X128955000Y-143120250D01*
X128955000Y-142607750D01*
X128956053Y-142586309D01*
X128959203Y-142565074D01*
X128964419Y-142544250D01*
X128971651Y-142524038D01*
X128980830Y-142504632D01*
X128991866Y-142486219D01*
X129004654Y-142468976D01*
X129019070Y-142453070D01*
X129034976Y-142438654D01*
X129052219Y-142425866D01*
X129070632Y-142414830D01*
X129090038Y-142405651D01*
X129110250Y-142398419D01*
X129131074Y-142393203D01*
X129152309Y-142390053D01*
X129173750Y-142389000D01*
X129611250Y-142389000D01*
X129632691Y-142390053D01*
X129632691Y-142390053D01*
G37*
D34*
G04 #@! TD*
G04 #@! TO.P,R1,2*
G04 #@! TO.N,/Main/CAN-*
X129392500Y-142864000D03*
D11*
G04 #@! TO.N,/Main/CAN+*
G04 #@! TO.C,R1*
G36*
X128057691Y-142390053D02*
X128078926Y-142393203D01*
X128099750Y-142398419D01*
X128119962Y-142405651D01*
X128139368Y-142414830D01*
X128157781Y-142425866D01*
X128175024Y-142438654D01*
X128190930Y-142453070D01*
X128205346Y-142468976D01*
X128218134Y-142486219D01*
X128229170Y-142504632D01*
X128238349Y-142524038D01*
X128245581Y-142544250D01*
X128250797Y-142565074D01*
X128253947Y-142586309D01*
X128255000Y-142607750D01*
X128255000Y-143120250D01*
X128253947Y-143141691D01*
X128250797Y-143162926D01*
X128245581Y-143183750D01*
X128238349Y-143203962D01*
X128229170Y-143223368D01*
X128218134Y-143241781D01*
X128205346Y-143259024D01*
X128190930Y-143274930D01*
X128175024Y-143289346D01*
X128157781Y-143302134D01*
X128139368Y-143313170D01*
X128119962Y-143322349D01*
X128099750Y-143329581D01*
X128078926Y-143334797D01*
X128057691Y-143337947D01*
X128036250Y-143339000D01*
X127598750Y-143339000D01*
X127577309Y-143337947D01*
X127556074Y-143334797D01*
X127535250Y-143329581D01*
X127515038Y-143322349D01*
X127495632Y-143313170D01*
X127477219Y-143302134D01*
X127459976Y-143289346D01*
X127444070Y-143274930D01*
X127429654Y-143259024D01*
X127416866Y-143241781D01*
X127405830Y-143223368D01*
X127396651Y-143203962D01*
X127389419Y-143183750D01*
X127384203Y-143162926D01*
X127381053Y-143141691D01*
X127380000Y-143120250D01*
X127380000Y-142607750D01*
X127381053Y-142586309D01*
X127384203Y-142565074D01*
X127389419Y-142544250D01*
X127396651Y-142524038D01*
X127405830Y-142504632D01*
X127416866Y-142486219D01*
X127429654Y-142468976D01*
X127444070Y-142453070D01*
X127459976Y-142438654D01*
X127477219Y-142425866D01*
X127495632Y-142414830D01*
X127515038Y-142405651D01*
X127535250Y-142398419D01*
X127556074Y-142393203D01*
X127577309Y-142390053D01*
X127598750Y-142389000D01*
X128036250Y-142389000D01*
X128057691Y-142390053D01*
X128057691Y-142390053D01*
G37*
D34*
G04 #@! TD*
G04 #@! TO.P,R1,1*
G04 #@! TO.N,/Main/CAN+*
X127817500Y-142864000D03*
D37*
G04 #@! TO.N,GND*
X97790000Y-123444000D03*
X92075000Y-122809000D03*
X105156000Y-138557000D03*
G04 #@! TO.N,*
X69850000Y-146939000D03*
G04 #@! TO.N,+12V*
X84124800Y-134264400D03*
G04 #@! TO.N,GND*
X87630000Y-135509000D03*
X115873000Y-119896000D03*
X147514000Y-40371000D03*
X147514000Y-45705000D03*
X147768000Y-52309000D03*
X142688000Y-49007000D03*
X138370000Y-42911000D03*
X135068000Y-50023000D03*
X130605000Y-113673000D03*
X109601000Y-121412000D03*
X115189000Y-114300000D03*
X128524000Y-120650000D03*
X139700000Y-147320000D03*
X139700000Y-142240000D03*
X139700000Y-137160000D03*
X139700000Y-132080000D03*
X139700000Y-127000000D03*
X139700000Y-116840000D03*
X139700000Y-109220000D03*
X140970000Y-103505000D03*
X142875000Y-97155000D03*
X144780000Y-89535000D03*
X146050000Y-83185000D03*
X142670000Y-78621000D03*
X141146000Y-83066000D03*
X139065000Y-87765000D03*
X138860000Y-94369000D03*
X135558000Y-91702000D03*
X136955000Y-99703000D03*
X131367000Y-101608000D03*
X136525000Y-105410000D03*
X133526000Y-96528000D03*
X136701000Y-81415000D03*
X136525000Y-76835000D03*
X137160000Y-71120000D03*
X132080000Y-71120000D03*
X126365000Y-71120000D03*
X118745000Y-71755000D03*
X111760000Y-72390000D03*
X109220000Y-78105000D03*
X109220000Y-84455000D03*
X109855000Y-91440000D03*
X131621000Y-107323000D03*
X125398000Y-106815000D03*
X124636000Y-112403000D03*
X121920000Y-117475000D03*
X120015000Y-110490000D03*
X102870000Y-100965000D03*
X102870000Y-96520000D03*
X102870000Y-92075000D03*
X102870000Y-88265000D03*
X106045000Y-98425000D03*
X106045000Y-93980000D03*
X106045000Y-88265000D03*
X98425000Y-100965000D03*
X98425000Y-96520000D03*
X98425000Y-92075000D03*
X98425000Y-88265000D03*
X90805000Y-100965000D03*
X83185000Y-100965000D03*
X76835000Y-100965000D03*
G04 #@! TO.N,/Main/CAN-*
X69850000Y-93980000D03*
G04 #@! TO.N,GND*
X81915000Y-93980000D03*
X88900000Y-93980000D03*
X89535000Y-88900000D03*
X93345000Y-86360000D03*
X86360000Y-97790000D03*
X93345000Y-93980000D03*
X71755000Y-40640000D03*
X85090000Y-40640000D03*
X99060000Y-40640000D03*
X112395000Y-40640000D03*
X123825000Y-40640000D03*
X80645000Y-48895000D03*
X66040000Y-64135000D03*
X147955000Y-62865000D03*
X147955000Y-68580000D03*
X143305000Y-64778000D03*
X147320000Y-76835000D03*
X139700000Y-74295000D03*
X140335000Y-69215000D03*
X101346000Y-129286000D03*
X103124000Y-127254000D03*
X105410000Y-124714000D03*
X110490000Y-124714000D03*
X107950000Y-129286000D03*
X120650000Y-124968000D03*
X114808000Y-127762000D03*
X128778000Y-124714000D03*
X127000000Y-132080000D03*
X119634000Y-134366000D03*
X132842000Y-125476000D03*
X125730000Y-147828000D03*
X88392000Y-147574000D03*
X92964000Y-146050000D03*
X104902000Y-145796000D03*
X78486000Y-146304000D03*
X74422000Y-137414000D03*
X130048000Y-53848000D03*
X126746000Y-59182000D03*
X124968000Y-64770000D03*
X123444000Y-69088000D03*
X115570000Y-64008000D03*
X113538000Y-53340000D03*
X113030000Y-58928000D03*
X103886000Y-66802000D03*
X103886000Y-76962000D03*
X106934000Y-70866000D03*
X176776380Y-69220080D03*
X174579280Y-69202300D03*
X101395000Y-132850000D03*
X139675209Y-121895209D03*
X102387691Y-117373691D03*
X119679710Y-50664010D03*
X63459177Y-54720897D03*
X102411000Y-120912000D03*
X117651000Y-142756000D03*
X132891000Y-145296000D03*
X83361000Y-122690000D03*
X83869000Y-130310000D03*
X77265000Y-118118000D03*
X78789000Y-120658000D03*
G04 #@! TO.N,+5V*
X145336090Y-108125090D03*
X130810000Y-131064000D03*
G04 #@! TO.N,Net-(Q1-Pad1)*
X118745000Y-51689000D03*
X104775000Y-59944000D03*
G04 #@! TO.N,Net-(Q3-Pad1)*
X102235000Y-61849000D03*
X98992168Y-69856507D03*
G04 #@! TO.N,Net-(Q4-Pad1)*
X103505000Y-80899000D03*
X102272063Y-63312062D03*
G04 #@! TO.N,Net-(U1-Pad1)*
X114935000Y-134366000D03*
X133350000Y-136652000D03*
G04 #@! TO.N,Net-(U1-Pad4)*
X114935000Y-136017000D03*
X127823830Y-136788701D03*
G04 #@! TO.N,/Main/sheet5C830478/12V_OUT*
X108526000Y-109119000D03*
X107891000Y-107849000D03*
X108526000Y-106579000D03*
X107891000Y-105309000D03*
X108526000Y-104039000D03*
X107891000Y-102769000D03*
X111955000Y-109119000D03*
X111320000Y-107849000D03*
X111955000Y-106579000D03*
X111320000Y-105309000D03*
X111955000Y-104039000D03*
X111320000Y-102769000D03*
G04 #@! TO.N,/Main/sheet5C830476/LED1*
X96490000Y-122614000D03*
X94066081Y-116898383D03*
G04 #@! TO.N,/Main/sheet5C830476/LED2*
X93302729Y-117544384D03*
X85612677Y-120526370D03*
G04 #@! TO.N,/Main/TEMP_1*
X97053691Y-121420800D03*
X70915000Y-114042534D03*
G04 #@! TO.N,/Main/sheet5C830476/RESET*
X90473000Y-122690000D03*
G04 #@! TO.N,/Main/sheet5C830476/MOSI*
X94079691Y-132988681D03*
X89737520Y-127085938D03*
G04 #@! TO.N,/Main/sheet5C830476/SCK*
X94488000Y-128651000D03*
X115195194Y-131994158D03*
G04 #@! TO.N,/Main/sheet5C830476/MISO*
X92680000Y-132793010D03*
X87907960Y-127455164D03*
G04 #@! TO.N,/Main/CAN-*
X130175000Y-142494000D03*
G04 #@! TO.N,/Main/CAN+*
X127635000Y-141224000D03*
G04 #@! TO.N,/Main/DC_DC_EN*
X88235000Y-123884000D03*
X100307956Y-125829462D03*
G04 #@! TO.N,/Main/sheet5C830476/FAN_CTRL_3*
X98831691Y-130835691D03*
X101450564Y-85786683D03*
G04 #@! TO.N,/Main/sheet5C830476/FAN_CTRL_1*
X102108000Y-84582000D03*
X96973898Y-129564948D03*
G04 #@! TO.N,/Main/sheet5C830476/FAN_CTRL_2*
X100444955Y-85293955D03*
X103356030Y-64833012D03*
X106324400Y-62788800D03*
X87727000Y-121867610D03*
G04 #@! TO.N,/Main/sheet5C830476/FAN_CTRL_0*
X99568000Y-86614000D03*
X99568000Y-123190000D03*
G04 #@! TO.N,/Main/sheet5C830476/CAN_CS*
X116967000Y-130429000D03*
X99504791Y-129832391D03*
G04 #@! TD*
D38*
G04 #@! TO.N,+12V*
X84124800Y-134264400D02*
X80619600Y-134264400D01*
X80619600Y-134264400D02*
X71018400Y-124663200D01*
X71018400Y-124663200D02*
X71018400Y-116128800D01*
X71018400Y-116128800D02*
X69494400Y-114604800D01*
X69494400Y-114604800D02*
X69494400Y-112318800D01*
X73617501Y-89262499D02*
X74930000Y-87950000D01*
X73099999Y-89780001D02*
X73617501Y-89262499D01*
X73099999Y-108713201D02*
X73099999Y-89780001D01*
X69494400Y-112318800D02*
X73099999Y-108713201D01*
D39*
G04 #@! TO.N,GND*
X174597060Y-69220080D02*
X174579280Y-69202300D01*
X176776380Y-69220080D02*
X174597060Y-69220080D01*
D38*
G04 #@! TO.N,+5V*
X131209999Y-130664001D02*
X131209999Y-123900001D01*
X130810000Y-131064000D02*
X131209999Y-130664001D01*
X135894691Y-119944691D02*
X136169691Y-119944691D01*
X131939381Y-123900001D02*
X135894691Y-119944691D01*
X131209999Y-123900001D02*
X131939381Y-123900001D01*
X136169691Y-117944691D02*
X136169691Y-119944691D01*
X136444691Y-117944691D02*
X136169691Y-117944691D01*
X144936091Y-109453291D02*
X136444691Y-117944691D01*
X144936091Y-108525089D02*
X144936091Y-109453291D01*
X145336090Y-108125090D02*
X144936091Y-108525089D01*
D40*
G04 #@! TO.N,Net-(Q1-Pad1)*
X113309982Y-51689000D02*
X118745000Y-51689000D01*
X105454981Y-59544001D02*
X113309982Y-51689000D01*
X105174999Y-59544001D02*
X105454981Y-59544001D01*
X104775000Y-59944000D02*
X105174999Y-59544001D01*
G04 #@! TO.N,Net-(Q3-Pad1)*
X98992168Y-65091832D02*
X102235000Y-61849000D01*
X98992168Y-69856507D02*
X98992168Y-65091832D01*
G04 #@! TO.N,Net-(Q4-Pad1)*
X102272063Y-79666063D02*
X102272063Y-63312062D01*
X103505000Y-80899000D02*
X102272063Y-79666063D01*
G04 #@! TO.N,Net-(U1-Pad1)*
X114935000Y-134931685D02*
X116092006Y-136088691D01*
X114935000Y-134366000D02*
X114935000Y-134931685D01*
X132786691Y-136088691D02*
X133350000Y-136652000D01*
X116092006Y-136088691D02*
X132786691Y-136088691D01*
D41*
G04 #@! TO.N,Net-(U1-Pad4)*
X114935000Y-136017000D02*
X115706701Y-136788701D01*
X127258145Y-136788701D02*
X127823830Y-136788701D01*
X115706701Y-136788701D02*
X127258145Y-136788701D01*
D42*
G04 #@! TO.N,/Main/sheet5C830478/12V_OUT*
X132509000Y-74259000D02*
X133290000Y-75040000D01*
X127194000Y-74259000D02*
X132509000Y-74259000D01*
D41*
G04 #@! TO.N,/Main/sheet5C830476/LED1*
X96490000Y-122614000D02*
X94066081Y-120190081D01*
X94066081Y-117464068D02*
X94066081Y-116898383D01*
X94066081Y-120190081D02*
X94066081Y-117464068D01*
G04 #@! TO.N,/Main/sheet5C830476/LED2*
X93302729Y-117544384D02*
X88594663Y-117544384D01*
X88594663Y-117544384D02*
X86012676Y-120126371D01*
X86012676Y-120126371D02*
X85612677Y-120526370D01*
G04 #@! TO.N,/Main/IMD_OK*
X100210000Y-141480000D02*
X100210000Y-141605000D01*
X97930000Y-139200000D02*
X100210000Y-141480000D01*
X66930000Y-95950000D02*
X64509478Y-98370522D01*
X64509478Y-98370522D02*
X64509478Y-112601478D01*
X64509478Y-112601478D02*
X69137000Y-117229000D01*
X69137000Y-117229000D02*
X69137000Y-125357000D01*
X69137000Y-125357000D02*
X82980000Y-139200000D01*
X82980000Y-139200000D02*
X97930000Y-139200000D01*
G04 #@! TO.N,/Main/TEMP_1*
X97053691Y-121420800D02*
X97053691Y-118770691D01*
X97053691Y-118770691D02*
X92325534Y-114042534D01*
X70915000Y-114042534D02*
X92325534Y-114042534D01*
G04 #@! TO.N,/Main/sheet5C830476/RESET*
X79997029Y-121227971D02*
X78027000Y-123198000D01*
X85949446Y-121227971D02*
X79997029Y-121227971D01*
X86011417Y-121166000D02*
X85949446Y-121227971D01*
X88949000Y-121166000D02*
X86011417Y-121166000D01*
X90473000Y-122690000D02*
X88949000Y-121166000D01*
G04 #@! TO.N,/Main/sheet5C830476/MOSI*
X93334002Y-130785179D02*
X93334002Y-130799002D01*
X94107000Y-131572000D02*
X94107000Y-132715000D01*
X93334002Y-130799002D02*
X94107000Y-131572000D01*
D40*
X93334002Y-130799002D02*
X93334002Y-130682420D01*
X93334002Y-130682420D02*
X90137519Y-127485937D01*
X90137519Y-127485937D02*
X89737520Y-127085938D01*
X89337521Y-126685939D02*
X89737520Y-127085938D01*
X89329593Y-126678011D02*
X89337521Y-126685939D01*
X89226834Y-126678011D02*
X89329593Y-126678011D01*
D41*
X81507011Y-126678011D02*
X80567000Y-125738000D01*
X89226834Y-126678011D02*
X81507011Y-126678011D01*
G04 #@! TO.N,/Main/sheet5C830476/SCK*
X91880000Y-126043000D02*
X94488000Y-128651000D01*
X97265473Y-131994158D02*
X114629509Y-131994158D01*
X114629509Y-131994158D02*
X115195194Y-131994158D01*
X94488000Y-129216685D02*
X97265473Y-131994158D01*
X94488000Y-128651000D02*
X94488000Y-129216685D01*
D40*
X89113786Y-125997001D02*
X87770001Y-125997001D01*
X91880000Y-126043000D02*
X89159785Y-126043000D01*
X89159785Y-126043000D02*
X89113786Y-125997001D01*
D41*
X78876999Y-124888001D02*
X78027000Y-125738000D01*
X79178601Y-124586399D02*
X78876999Y-124888001D01*
X86359399Y-124586399D02*
X79178601Y-124586399D01*
X87770001Y-125997001D02*
X86359399Y-124586399D01*
G04 #@! TO.N,/Main/sheet5C830476/MISO*
X92680000Y-131396010D02*
X92680000Y-131744764D01*
X92680000Y-131744764D02*
X92680000Y-132793010D01*
D40*
X92680000Y-131396010D02*
X88739154Y-127455164D01*
D41*
X81265466Y-127006692D02*
X81713938Y-127455164D01*
D40*
X88473645Y-127455164D02*
X87907960Y-127455164D01*
X88739154Y-127455164D02*
X88473645Y-127455164D01*
D41*
X78027000Y-128278000D02*
X78027000Y-127224800D01*
X81713938Y-127455164D02*
X87342275Y-127455164D01*
X87342275Y-127455164D02*
X87907960Y-127455164D01*
X78027000Y-127224800D02*
X78245108Y-127006692D01*
X78245108Y-127006692D02*
X81265466Y-127006692D01*
D39*
G04 #@! TO.N,/Main/CAN-*
X129805000Y-142864000D02*
X130175000Y-142494000D01*
X129392500Y-142864000D02*
X129805000Y-142864000D01*
D40*
X126018200Y-146174000D02*
X108051800Y-146174000D01*
X129392500Y-142864000D02*
X127987500Y-144269000D01*
X127987500Y-144269000D02*
X127923200Y-144269000D01*
X127923200Y-144269000D02*
X126018200Y-146174000D01*
D41*
X105562400Y-143684600D02*
X108051800Y-146174000D01*
X105562400Y-141782800D02*
X105562400Y-143684600D01*
X102576389Y-138796789D02*
X105562400Y-141782800D01*
X83147015Y-138796789D02*
X102576389Y-138796789D01*
X69540211Y-125189985D02*
X83147015Y-138796789D01*
X64912689Y-112434463D02*
X69540211Y-117061985D01*
X69617501Y-95262499D02*
X69617501Y-95651369D01*
X69540211Y-117061985D02*
X69540211Y-125189985D01*
X70930000Y-93950000D02*
X69617501Y-95262499D01*
X67470870Y-97798000D02*
X66151226Y-97798001D01*
X69617501Y-95651369D02*
X67470870Y-97798000D01*
X66151226Y-97798001D02*
X64912689Y-99036538D01*
X64912689Y-99036538D02*
X64912689Y-112434463D01*
D39*
G04 #@! TO.N,/Main/CAN+*
X127817500Y-141406500D02*
X127635000Y-141224000D01*
X127817500Y-142864000D02*
X127817500Y-141406500D01*
D40*
X125831800Y-145724000D02*
X127817500Y-143738300D01*
X127817500Y-143439000D02*
X127817500Y-142864000D01*
X108238200Y-145724000D02*
X125831800Y-145724000D01*
X127817500Y-143738300D02*
X127817500Y-143439000D01*
D41*
X108172024Y-145724000D02*
X108238200Y-145724000D01*
X105965610Y-143517586D02*
X108172024Y-145724000D01*
X102743404Y-138393579D02*
X105965610Y-141615785D01*
X83314030Y-138393578D02*
X102743404Y-138393579D01*
X69943422Y-116894970D02*
X69943422Y-125022970D01*
X69073845Y-97950000D02*
X68822634Y-98201211D01*
X69943422Y-125022970D02*
X83314030Y-138393578D01*
X70930000Y-97950000D02*
X69073845Y-97950000D01*
X68822634Y-98201211D02*
X66318242Y-98201211D01*
X66318242Y-98201211D02*
X65315900Y-99203553D01*
X65315900Y-99203553D02*
X65315900Y-112267448D01*
X105965610Y-141615785D02*
X105965610Y-143517586D01*
X65315900Y-112267448D02*
X69943422Y-116894970D01*
G04 #@! TO.N,/Main/DC_DC_EN*
X99907957Y-125429463D02*
X100307956Y-125829462D01*
X99886494Y-125408000D02*
X99907957Y-125429463D01*
X88235000Y-123884000D02*
X89759000Y-125408000D01*
X89759000Y-125408000D02*
X99886494Y-125408000D01*
G04 #@! TO.N,/Main/sheet5C830476/FAN_CTRL_3*
X101050565Y-123250341D02*
X101050565Y-86186682D01*
X101050565Y-86186682D02*
X101450564Y-85786683D01*
D40*
X96273897Y-129900949D02*
X96273897Y-129801897D01*
X96808640Y-130435692D02*
X96273897Y-129900949D01*
X98831691Y-130835691D02*
X98431692Y-130435692D01*
X98431692Y-130435692D02*
X96808640Y-130435692D01*
X97309899Y-128864947D02*
X97608290Y-129163338D01*
X96637897Y-128864947D02*
X97309899Y-128864947D01*
X96273897Y-129228947D02*
X96637897Y-128864947D01*
X96273897Y-129692691D02*
X96273897Y-129228947D01*
X97608290Y-129163338D02*
X97996532Y-129163338D01*
X101050565Y-126109305D02*
X101050565Y-123250341D01*
X97996532Y-129163338D02*
X101050565Y-126109305D01*
X96273897Y-129692691D02*
X96273897Y-129900949D01*
D41*
G04 #@! TO.N,/Main/sheet5C830476/FAN_CTRL_1*
X102224001Y-85263686D02*
X102108000Y-85147685D01*
X102108000Y-85147685D02*
X102108000Y-84582000D01*
X96973898Y-129564948D02*
X98162884Y-129564948D01*
D40*
X101498691Y-126229141D02*
X101464141Y-126263691D01*
X101498691Y-86859691D02*
X101498691Y-126229141D01*
X102224001Y-86134381D02*
X101498691Y-86859691D01*
X102224001Y-85263686D02*
X102224001Y-86134381D01*
D41*
X98162884Y-129564948D02*
X101464141Y-126263691D01*
D40*
G04 #@! TO.N,/Main/sheet5C830476/FAN_CTRL_2*
X103356030Y-64833012D02*
X104280188Y-64833012D01*
X104280188Y-64833012D02*
X106324400Y-62788800D01*
D41*
X100444955Y-85859640D02*
X100444955Y-85750691D01*
X100444955Y-85750691D02*
X100444955Y-85293955D01*
X100504902Y-85810638D02*
X100504902Y-123904098D01*
X88126999Y-122267609D02*
X87727000Y-121867610D01*
X90864179Y-125004789D02*
X88126999Y-122267609D01*
X100444955Y-85750691D02*
X100504902Y-85810638D01*
X100504902Y-123904098D02*
X99404211Y-125004789D01*
X99404211Y-125004789D02*
X90864179Y-125004789D01*
G04 #@! TO.N,/Main/sheet5C830476/FAN_CTRL_0*
X99568000Y-87179685D02*
X100101691Y-87713376D01*
X99568000Y-86614000D02*
X99568000Y-87179685D01*
X99967999Y-122790001D02*
X99568000Y-123190000D01*
X100101691Y-122656309D02*
X99967999Y-122790001D01*
X100101691Y-122580691D02*
X100101691Y-122656309D01*
X100101691Y-87713376D02*
X100101691Y-122580691D01*
G04 #@! TO.N,/Main/sheet5C830476/CAN_CS*
X116401315Y-130429000D02*
X116274315Y-130302000D01*
X116967000Y-130429000D02*
X116401315Y-130429000D01*
X116274315Y-130302000D02*
X100711000Y-130302000D01*
X100711000Y-130302000D02*
X100442000Y-130033000D01*
D40*
X100241391Y-129832391D02*
X99504791Y-129832391D01*
X100442000Y-130033000D02*
X100241391Y-129832391D01*
G04 #@! TD*
D43*
G04 #@! TO.N,+12V*
G36*
X123004000Y-43922811D02*
X117275052Y-50954000D01*
X113382366Y-50954000D01*
X113309982Y-50939602D01*
X113237598Y-50954000D01*
X113237594Y-50954000D01*
X113023199Y-50996646D01*
X112780077Y-51159095D01*
X112739073Y-51220462D01*
X105162434Y-58797102D01*
X105102614Y-58809001D01*
X105102611Y-58809001D01*
X104888216Y-58851647D01*
X104802381Y-58909000D01*
X104569126Y-58909000D01*
X104188720Y-59066569D01*
X103897569Y-59357720D01*
X103740000Y-59738126D01*
X103740000Y-60149874D01*
X103897569Y-60530280D01*
X103953342Y-60586053D01*
X103160537Y-61378857D01*
X103112431Y-61262720D01*
X102821280Y-60971569D01*
X102440874Y-60814000D01*
X102029126Y-60814000D01*
X101648720Y-60971569D01*
X101357569Y-61262720D01*
X101200000Y-61643126D01*
X101200000Y-61844553D01*
X98523631Y-64520923D01*
X98462264Y-64561927D01*
X98421260Y-64623294D01*
X98421259Y-64623295D01*
X98299814Y-64805050D01*
X98242770Y-65091832D01*
X98257169Y-65164221D01*
X98257168Y-69127796D01*
X98114737Y-69270227D01*
X97957168Y-69650633D01*
X97957168Y-70062381D01*
X98114737Y-70442787D01*
X98405888Y-70733938D01*
X98786294Y-70891507D01*
X99198042Y-70891507D01*
X99578448Y-70733938D01*
X99869599Y-70442787D01*
X100027168Y-70062381D01*
X100027168Y-69650633D01*
X99869599Y-69270227D01*
X99727168Y-69127796D01*
X99727168Y-65396278D01*
X101344979Y-63778468D01*
X101394632Y-63898342D01*
X101537064Y-64040774D01*
X101537063Y-77767860D01*
X88456464Y-85897134D01*
X88420288Y-85930998D01*
X88404808Y-85959819D01*
X86702453Y-90432000D01*
X83624710Y-90432000D01*
X75394058Y-89165746D01*
X70132644Y-87024206D01*
X69784601Y-85519005D01*
X70948141Y-84355465D01*
X73476739Y-85250920D01*
X73826830Y-85601011D01*
X74542618Y-85897500D01*
X75302560Y-85897500D01*
X76001355Y-86144965D01*
X76050395Y-86152076D01*
X76098424Y-86139879D01*
X76130327Y-86118166D01*
X77302827Y-85025666D01*
X77331794Y-84985462D01*
X77343248Y-84933456D01*
X77399434Y-74829000D01*
X97486010Y-74829000D01*
X97620666Y-75505963D01*
X98004135Y-76079865D01*
X98578037Y-76463334D01*
X99084120Y-76564000D01*
X99425880Y-76564000D01*
X99931963Y-76463334D01*
X100505865Y-76079865D01*
X100889334Y-75505963D01*
X101023990Y-74829000D01*
X100889334Y-74152037D01*
X100505865Y-73578135D01*
X99931963Y-73194666D01*
X99425880Y-73094000D01*
X99084120Y-73094000D01*
X98578037Y-73194666D01*
X98004135Y-73578135D01*
X97620666Y-74152037D01*
X97486010Y-74829000D01*
X77399434Y-74829000D01*
X77416373Y-71782831D01*
X77406976Y-71734177D01*
X77384442Y-71697915D01*
X75813804Y-69924778D01*
X80095000Y-69924778D01*
X80095000Y-70575222D01*
X80343914Y-71176153D01*
X80803847Y-71636086D01*
X81404778Y-71885000D01*
X82055222Y-71885000D01*
X82656153Y-71636086D01*
X83116086Y-71176153D01*
X83365000Y-70575222D01*
X83365000Y-69924778D01*
X83116086Y-69323847D01*
X82888239Y-69096000D01*
X84132010Y-69096000D01*
X84266666Y-69772963D01*
X84650135Y-70346865D01*
X85224037Y-70730334D01*
X85730120Y-70831000D01*
X86071880Y-70831000D01*
X86577963Y-70730334D01*
X87151865Y-70346865D01*
X87535334Y-69772963D01*
X87669990Y-69096000D01*
X87535334Y-68419037D01*
X87151865Y-67845135D01*
X86577963Y-67461666D01*
X86071880Y-67361000D01*
X85730120Y-67361000D01*
X85224037Y-67461666D01*
X84650135Y-67845135D01*
X84266666Y-68419037D01*
X84132010Y-69096000D01*
X82888239Y-69096000D01*
X82656153Y-68863914D01*
X82055222Y-68615000D01*
X81404778Y-68615000D01*
X80803847Y-68863914D01*
X80343914Y-69323847D01*
X80095000Y-69924778D01*
X75813804Y-69924778D01*
X75487000Y-69555840D01*
X75487000Y-67064000D01*
X75477333Y-67015399D01*
X75449803Y-66974197D01*
X68502000Y-60026394D01*
X68502000Y-58319000D01*
X78436010Y-58319000D01*
X78570666Y-58995963D01*
X78954135Y-59569865D01*
X79528037Y-59953334D01*
X80034120Y-60054000D01*
X80375880Y-60054000D01*
X80881963Y-59953334D01*
X81455865Y-59569865D01*
X81839334Y-58995963D01*
X81973990Y-58319000D01*
X81839334Y-57642037D01*
X81455865Y-57068135D01*
X80881963Y-56684666D01*
X80375880Y-56584000D01*
X80034120Y-56584000D01*
X79528037Y-56684666D01*
X78954135Y-57068135D01*
X78570666Y-57642037D01*
X78436010Y-58319000D01*
X68502000Y-58319000D01*
X68502000Y-56995177D01*
X93179851Y-48667000D01*
X98223483Y-48667000D01*
X98235750Y-48669440D01*
X98748250Y-48669440D01*
X98760517Y-48667000D01*
X101287000Y-48667000D01*
X101328108Y-48660163D01*
X105438269Y-47254055D01*
X109566691Y-47254055D01*
X109566691Y-48047326D01*
X109638347Y-48407563D01*
X109911306Y-48816076D01*
X110319818Y-49089035D01*
X110801691Y-49184886D01*
X111283563Y-49089035D01*
X111692076Y-48816076D01*
X111723119Y-48769617D01*
X111817105Y-48910277D01*
X112108255Y-49104818D01*
X112451690Y-49173131D01*
X113151692Y-49173131D01*
X113495127Y-49104818D01*
X113786277Y-48910277D01*
X113980818Y-48619127D01*
X114049131Y-48275692D01*
X114049131Y-47025690D01*
X113980818Y-46682255D01*
X113786277Y-46391105D01*
X113495127Y-46196564D01*
X113151692Y-46128251D01*
X112451690Y-46128251D01*
X112108255Y-46196564D01*
X111817105Y-46391105D01*
X111723119Y-46531765D01*
X111692076Y-46485306D01*
X111283564Y-46212347D01*
X110801691Y-46116496D01*
X110319819Y-46212347D01*
X109911307Y-46485306D01*
X109638347Y-46893818D01*
X109566691Y-47254055D01*
X105438269Y-47254055D01*
X120612123Y-42063000D01*
X123004000Y-42063000D01*
X123004000Y-43922811D01*
X123004000Y-43922811D01*
G37*
X123004000Y-43922811D02*
X117275052Y-50954000D01*
X113382366Y-50954000D01*
X113309982Y-50939602D01*
X113237598Y-50954000D01*
X113237594Y-50954000D01*
X113023199Y-50996646D01*
X112780077Y-51159095D01*
X112739073Y-51220462D01*
X105162434Y-58797102D01*
X105102614Y-58809001D01*
X105102611Y-58809001D01*
X104888216Y-58851647D01*
X104802381Y-58909000D01*
X104569126Y-58909000D01*
X104188720Y-59066569D01*
X103897569Y-59357720D01*
X103740000Y-59738126D01*
X103740000Y-60149874D01*
X103897569Y-60530280D01*
X103953342Y-60586053D01*
X103160537Y-61378857D01*
X103112431Y-61262720D01*
X102821280Y-60971569D01*
X102440874Y-60814000D01*
X102029126Y-60814000D01*
X101648720Y-60971569D01*
X101357569Y-61262720D01*
X101200000Y-61643126D01*
X101200000Y-61844553D01*
X98523631Y-64520923D01*
X98462264Y-64561927D01*
X98421260Y-64623294D01*
X98421259Y-64623295D01*
X98299814Y-64805050D01*
X98242770Y-65091832D01*
X98257169Y-65164221D01*
X98257168Y-69127796D01*
X98114737Y-69270227D01*
X97957168Y-69650633D01*
X97957168Y-70062381D01*
X98114737Y-70442787D01*
X98405888Y-70733938D01*
X98786294Y-70891507D01*
X99198042Y-70891507D01*
X99578448Y-70733938D01*
X99869599Y-70442787D01*
X100027168Y-70062381D01*
X100027168Y-69650633D01*
X99869599Y-69270227D01*
X99727168Y-69127796D01*
X99727168Y-65396278D01*
X101344979Y-63778468D01*
X101394632Y-63898342D01*
X101537064Y-64040774D01*
X101537063Y-77767860D01*
X88456464Y-85897134D01*
X88420288Y-85930998D01*
X88404808Y-85959819D01*
X86702453Y-90432000D01*
X83624710Y-90432000D01*
X75394058Y-89165746D01*
X70132644Y-87024206D01*
X69784601Y-85519005D01*
X70948141Y-84355465D01*
X73476739Y-85250920D01*
X73826830Y-85601011D01*
X74542618Y-85897500D01*
X75302560Y-85897500D01*
X76001355Y-86144965D01*
X76050395Y-86152076D01*
X76098424Y-86139879D01*
X76130327Y-86118166D01*
X77302827Y-85025666D01*
X77331794Y-84985462D01*
X77343248Y-84933456D01*
X77399434Y-74829000D01*
X97486010Y-74829000D01*
X97620666Y-75505963D01*
X98004135Y-76079865D01*
X98578037Y-76463334D01*
X99084120Y-76564000D01*
X99425880Y-76564000D01*
X99931963Y-76463334D01*
X100505865Y-76079865D01*
X100889334Y-75505963D01*
X101023990Y-74829000D01*
X100889334Y-74152037D01*
X100505865Y-73578135D01*
X99931963Y-73194666D01*
X99425880Y-73094000D01*
X99084120Y-73094000D01*
X98578037Y-73194666D01*
X98004135Y-73578135D01*
X97620666Y-74152037D01*
X97486010Y-74829000D01*
X77399434Y-74829000D01*
X77416373Y-71782831D01*
X77406976Y-71734177D01*
X77384442Y-71697915D01*
X75813804Y-69924778D01*
X80095000Y-69924778D01*
X80095000Y-70575222D01*
X80343914Y-71176153D01*
X80803847Y-71636086D01*
X81404778Y-71885000D01*
X82055222Y-71885000D01*
X82656153Y-71636086D01*
X83116086Y-71176153D01*
X83365000Y-70575222D01*
X83365000Y-69924778D01*
X83116086Y-69323847D01*
X82888239Y-69096000D01*
X84132010Y-69096000D01*
X84266666Y-69772963D01*
X84650135Y-70346865D01*
X85224037Y-70730334D01*
X85730120Y-70831000D01*
X86071880Y-70831000D01*
X86577963Y-70730334D01*
X87151865Y-70346865D01*
X87535334Y-69772963D01*
X87669990Y-69096000D01*
X87535334Y-68419037D01*
X87151865Y-67845135D01*
X86577963Y-67461666D01*
X86071880Y-67361000D01*
X85730120Y-67361000D01*
X85224037Y-67461666D01*
X84650135Y-67845135D01*
X84266666Y-68419037D01*
X84132010Y-69096000D01*
X82888239Y-69096000D01*
X82656153Y-68863914D01*
X82055222Y-68615000D01*
X81404778Y-68615000D01*
X80803847Y-68863914D01*
X80343914Y-69323847D01*
X80095000Y-69924778D01*
X75813804Y-69924778D01*
X75487000Y-69555840D01*
X75487000Y-67064000D01*
X75477333Y-67015399D01*
X75449803Y-66974197D01*
X68502000Y-60026394D01*
X68502000Y-58319000D01*
X78436010Y-58319000D01*
X78570666Y-58995963D01*
X78954135Y-59569865D01*
X79528037Y-59953334D01*
X80034120Y-60054000D01*
X80375880Y-60054000D01*
X80881963Y-59953334D01*
X81455865Y-59569865D01*
X81839334Y-58995963D01*
X81973990Y-58319000D01*
X81839334Y-57642037D01*
X81455865Y-57068135D01*
X80881963Y-56684666D01*
X80375880Y-56584000D01*
X80034120Y-56584000D01*
X79528037Y-56684666D01*
X78954135Y-57068135D01*
X78570666Y-57642037D01*
X78436010Y-58319000D01*
X68502000Y-58319000D01*
X68502000Y-56995177D01*
X93179851Y-48667000D01*
X98223483Y-48667000D01*
X98235750Y-48669440D01*
X98748250Y-48669440D01*
X98760517Y-48667000D01*
X101287000Y-48667000D01*
X101328108Y-48660163D01*
X105438269Y-47254055D01*
X109566691Y-47254055D01*
X109566691Y-48047326D01*
X109638347Y-48407563D01*
X109911306Y-48816076D01*
X110319818Y-49089035D01*
X110801691Y-49184886D01*
X111283563Y-49089035D01*
X111692076Y-48816076D01*
X111723119Y-48769617D01*
X111817105Y-48910277D01*
X112108255Y-49104818D01*
X112451690Y-49173131D01*
X113151692Y-49173131D01*
X113495127Y-49104818D01*
X113786277Y-48910277D01*
X113980818Y-48619127D01*
X114049131Y-48275692D01*
X114049131Y-47025690D01*
X113980818Y-46682255D01*
X113786277Y-46391105D01*
X113495127Y-46196564D01*
X113151692Y-46128251D01*
X112451690Y-46128251D01*
X112108255Y-46196564D01*
X111817105Y-46391105D01*
X111723119Y-46531765D01*
X111692076Y-46485306D01*
X111283564Y-46212347D01*
X110801691Y-46116496D01*
X110319819Y-46212347D01*
X109911307Y-46485306D01*
X109638347Y-46893818D01*
X109566691Y-47254055D01*
X105438269Y-47254055D01*
X120612123Y-42063000D01*
X123004000Y-42063000D01*
X123004000Y-43922811D01*
G04 #@! TO.N,/Main/sheet5C830478/12V_OUT*
G36*
X134941000Y-89618747D02*
X129379324Y-101500510D01*
X117503013Y-109839196D01*
X107002000Y-109629510D01*
X107002000Y-102199290D01*
X111265903Y-99148283D01*
X111299802Y-99112139D01*
X111319000Y-99045000D01*
X111319000Y-88653996D01*
X123835000Y-88653996D01*
X123835000Y-89384004D01*
X124114362Y-90058444D01*
X124630556Y-90574638D01*
X125304996Y-90854000D01*
X126035004Y-90854000D01*
X126709444Y-90574638D01*
X127225638Y-90058444D01*
X127505000Y-89384004D01*
X127505000Y-88653996D01*
X127225638Y-87979556D01*
X126709444Y-87463362D01*
X126035004Y-87184000D01*
X125304996Y-87184000D01*
X124630556Y-87463362D01*
X124114362Y-87979556D01*
X123835000Y-88653996D01*
X111319000Y-88653996D01*
X111319000Y-74522978D01*
X125167756Y-73264000D01*
X134941000Y-73264000D01*
X134941000Y-89618747D01*
X134941000Y-89618747D01*
G37*
X134941000Y-89618747D02*
X129379324Y-101500510D01*
X117503013Y-109839196D01*
X107002000Y-109629510D01*
X107002000Y-102199290D01*
X111265903Y-99148283D01*
X111299802Y-99112139D01*
X111319000Y-99045000D01*
X111319000Y-88653996D01*
X123835000Y-88653996D01*
X123835000Y-89384004D01*
X124114362Y-90058444D01*
X124630556Y-90574638D01*
X125304996Y-90854000D01*
X126035004Y-90854000D01*
X126709444Y-90574638D01*
X127225638Y-90058444D01*
X127505000Y-89384004D01*
X127505000Y-88653996D01*
X127225638Y-87979556D01*
X126709444Y-87463362D01*
X126035004Y-87184000D01*
X125304996Y-87184000D01*
X124630556Y-87463362D01*
X124114362Y-87979556D01*
X123835000Y-88653996D01*
X111319000Y-88653996D01*
X111319000Y-74522978D01*
X125167756Y-73264000D01*
X134941000Y-73264000D01*
X134941000Y-89618747D01*
G04 #@! TO.N,GND*
G36*
X148463000Y-54864000D02*
X148403040Y-75916807D01*
X141481054Y-106906315D01*
X141478000Y-106934000D01*
X141478000Y-111923554D01*
X137441941Y-115959614D01*
X137444909Y-115944691D01*
X137368772Y-115561924D01*
X137151952Y-115237430D01*
X136827458Y-115020610D01*
X136541307Y-114963691D01*
X135798075Y-114963691D01*
X135511924Y-115020610D01*
X135187430Y-115237430D01*
X134970610Y-115561924D01*
X134894473Y-115944691D01*
X134970610Y-116327458D01*
X135187430Y-116651952D01*
X135511924Y-116868772D01*
X135798075Y-116925691D01*
X136475864Y-116925691D01*
X136437864Y-116963691D01*
X135798075Y-116963691D01*
X135511924Y-117020610D01*
X135187430Y-117237430D01*
X134970610Y-117561924D01*
X134894473Y-117944691D01*
X134970610Y-118327458D01*
X135187430Y-118651952D01*
X135471191Y-118841555D01*
X135471192Y-119047827D01*
X135187430Y-119237430D01*
X134970610Y-119561924D01*
X134894473Y-119944691D01*
X134896529Y-119955025D01*
X131650054Y-123201501D01*
X131278793Y-123201501D01*
X131209999Y-123187817D01*
X131141205Y-123201501D01*
X130937458Y-123242029D01*
X130706409Y-123396411D01*
X130552027Y-123627460D01*
X130497815Y-123900001D01*
X130511500Y-123968800D01*
X130511499Y-130342295D01*
X130367599Y-130401900D01*
X130147900Y-130621599D01*
X130029000Y-130908649D01*
X130029000Y-131219351D01*
X130147900Y-131506401D01*
X130367599Y-131726100D01*
X130654649Y-131845000D01*
X130965351Y-131845000D01*
X131252401Y-131726100D01*
X131472100Y-131506401D01*
X131554601Y-131307226D01*
X131655267Y-131206560D01*
X131713588Y-131167591D01*
X131867971Y-130936542D01*
X131908499Y-130732795D01*
X131908499Y-130732792D01*
X131922182Y-130664002D01*
X131908499Y-130595212D01*
X131908499Y-124606041D01*
X131939381Y-124612184D01*
X132008171Y-124598501D01*
X132008175Y-124598501D01*
X132211922Y-124557973D01*
X132442971Y-124403591D01*
X132481941Y-124345268D01*
X135901519Y-120925691D01*
X136541307Y-120925691D01*
X136827458Y-120868772D01*
X137151952Y-120651952D01*
X137368772Y-120327458D01*
X137444909Y-119944691D01*
X137368772Y-119561924D01*
X137151952Y-119237430D01*
X136868191Y-119047827D01*
X136868191Y-118841555D01*
X137151952Y-118651952D01*
X137368772Y-118327458D01*
X137444909Y-117944691D01*
X137442853Y-117934356D01*
X141478000Y-113899210D01*
X141478000Y-148650000D01*
X64331311Y-148650000D01*
X63492479Y-148575136D01*
X62699836Y-148358294D01*
X61958115Y-148004510D01*
X61290770Y-147524976D01*
X60718884Y-146934835D01*
X60617292Y-146783649D01*
X69069000Y-146783649D01*
X69069000Y-147094351D01*
X69187900Y-147381401D01*
X69407599Y-147601100D01*
X69694649Y-147720000D01*
X70005351Y-147720000D01*
X70292401Y-147601100D01*
X70512100Y-147381401D01*
X70631000Y-147094351D01*
X70631000Y-146783649D01*
X70512100Y-146496599D01*
X70292401Y-146276900D01*
X70005351Y-146158000D01*
X69694649Y-146158000D01*
X69407599Y-146276900D01*
X69187900Y-146496599D01*
X69069000Y-146783649D01*
X60617292Y-146783649D01*
X60260546Y-146252757D01*
X59930237Y-145500292D01*
X59737555Y-144697712D01*
X59687000Y-144009284D01*
X59687000Y-143522553D01*
X61780000Y-143522553D01*
X61780000Y-144529447D01*
X62165322Y-145459696D01*
X62877304Y-146171678D01*
X63807553Y-146557000D01*
X64814447Y-146557000D01*
X65744696Y-146171678D01*
X66456678Y-145459696D01*
X66842000Y-144529447D01*
X66842000Y-143522553D01*
X66456678Y-142592304D01*
X65744696Y-141880322D01*
X65743316Y-141879750D01*
X74580000Y-141879750D01*
X74580000Y-142695310D01*
X74676673Y-142928699D01*
X74855302Y-143107327D01*
X75088691Y-143204000D01*
X75779250Y-143204000D01*
X75938000Y-143045250D01*
X75938000Y-141721000D01*
X74738750Y-141721000D01*
X74580000Y-141879750D01*
X65743316Y-141879750D01*
X64814447Y-141495000D01*
X63807553Y-141495000D01*
X62877304Y-141880322D01*
X62165322Y-142592304D01*
X61780000Y-143522553D01*
X59687000Y-143522553D01*
X59687000Y-139398867D01*
X73484000Y-139398867D01*
X73484000Y-139789133D01*
X73633348Y-140149692D01*
X73909308Y-140425652D01*
X74269867Y-140575000D01*
X74580000Y-140575000D01*
X74580000Y-141308250D01*
X74738750Y-141467000D01*
X75938000Y-141467000D01*
X75938000Y-140142750D01*
X76192000Y-140142750D01*
X76192000Y-141467000D01*
X76212000Y-141467000D01*
X76212000Y-141721000D01*
X76192000Y-141721000D01*
X76192000Y-143045250D01*
X76350750Y-143204000D01*
X77041309Y-143204000D01*
X77274698Y-143107327D01*
X77453327Y-142928699D01*
X77550000Y-142695310D01*
X77550000Y-142415684D01*
X77677500Y-142606501D01*
X78084689Y-142878576D01*
X78565000Y-142974116D01*
X79045312Y-142878576D01*
X79452501Y-142606501D01*
X79724576Y-142199311D01*
X79796000Y-141840238D01*
X79796000Y-141347762D01*
X79834000Y-141347762D01*
X79834000Y-141840239D01*
X79905424Y-142199312D01*
X80177500Y-142606501D01*
X80584689Y-142878576D01*
X81065000Y-142974116D01*
X81545312Y-142878576D01*
X81952501Y-142606501D01*
X82224576Y-142199311D01*
X82296000Y-141840238D01*
X82296000Y-141347762D01*
X82334000Y-141347762D01*
X82334000Y-141840239D01*
X82405424Y-142199312D01*
X82677500Y-142606501D01*
X83084689Y-142878576D01*
X83565000Y-142974116D01*
X84045312Y-142878576D01*
X84452501Y-142606501D01*
X84724576Y-142199311D01*
X84796000Y-141840238D01*
X84796000Y-141347762D01*
X84834000Y-141347762D01*
X84834000Y-141840239D01*
X84905424Y-142199312D01*
X85177500Y-142606501D01*
X85584689Y-142878576D01*
X86065000Y-142974116D01*
X86545312Y-142878576D01*
X86952501Y-142606501D01*
X87224576Y-142199311D01*
X87285952Y-141890750D01*
X91225000Y-141890750D01*
X91225000Y-142706310D01*
X91321673Y-142939699D01*
X91500302Y-143118327D01*
X91733691Y-143215000D01*
X92424250Y-143215000D01*
X92583000Y-143056250D01*
X92583000Y-141732000D01*
X92837000Y-141732000D01*
X92837000Y-143056250D01*
X92995750Y-143215000D01*
X93686309Y-143215000D01*
X93919698Y-143118327D01*
X94098327Y-142939699D01*
X94174664Y-142755407D01*
X94338807Y-142932497D01*
X94853110Y-143171476D01*
X95083000Y-143050155D01*
X95083000Y-141732000D01*
X95337000Y-141732000D01*
X95337000Y-143050155D01*
X95566890Y-143171476D01*
X96081193Y-142932497D01*
X96460000Y-142523811D01*
X96838807Y-142932497D01*
X97353110Y-143171476D01*
X97583000Y-143050155D01*
X97583000Y-141732000D01*
X95337000Y-141732000D01*
X95083000Y-141732000D01*
X92837000Y-141732000D01*
X92583000Y-141732000D01*
X91383750Y-141732000D01*
X91225000Y-141890750D01*
X87285952Y-141890750D01*
X87296000Y-141840238D01*
X87296000Y-141347761D01*
X87224576Y-140988688D01*
X86952501Y-140581499D01*
X86545311Y-140309424D01*
X86065000Y-140213884D01*
X85584688Y-140309424D01*
X85177499Y-140581499D01*
X84905424Y-140988689D01*
X84834000Y-141347762D01*
X84796000Y-141347762D01*
X84796000Y-141347761D01*
X84724576Y-140988688D01*
X84452501Y-140581499D01*
X84045311Y-140309424D01*
X83565000Y-140213884D01*
X83084688Y-140309424D01*
X82677499Y-140581499D01*
X82405424Y-140988689D01*
X82334000Y-141347762D01*
X82296000Y-141347762D01*
X82296000Y-141347761D01*
X82224576Y-140988688D01*
X81952501Y-140581499D01*
X81545311Y-140309424D01*
X81065000Y-140213884D01*
X80584688Y-140309424D01*
X80177499Y-140581499D01*
X79905424Y-140988689D01*
X79834000Y-141347762D01*
X79796000Y-141347762D01*
X79796000Y-141347761D01*
X79724576Y-140988688D01*
X79452501Y-140581499D01*
X79045311Y-140309424D01*
X78565000Y-140213884D01*
X78084688Y-140309424D01*
X77677499Y-140581499D01*
X77550000Y-140772315D01*
X77550000Y-140492690D01*
X77453327Y-140259301D01*
X77274698Y-140080673D01*
X77041309Y-139984000D01*
X76350750Y-139984000D01*
X76192000Y-140142750D01*
X75938000Y-140142750D01*
X75779250Y-139984000D01*
X75365284Y-139984000D01*
X75446000Y-139789133D01*
X75446000Y-139398867D01*
X75296652Y-139038308D01*
X75020692Y-138762348D01*
X74660133Y-138613000D01*
X74269867Y-138613000D01*
X73909308Y-138762348D01*
X73633348Y-139038308D01*
X73484000Y-139398867D01*
X59687000Y-139398867D01*
X59687000Y-118875302D01*
X62249000Y-118875302D01*
X62249000Y-119424698D01*
X62459245Y-119932273D01*
X62847727Y-120320755D01*
X63355302Y-120531000D01*
X63904698Y-120531000D01*
X64412273Y-120320755D01*
X64800755Y-119932273D01*
X65011000Y-119424698D01*
X65011000Y-118875302D01*
X64800755Y-118367727D01*
X64412273Y-117979245D01*
X63904698Y-117769000D01*
X63355302Y-117769000D01*
X62847727Y-117979245D01*
X62459245Y-118367727D01*
X62249000Y-118875302D01*
X59687000Y-118875302D01*
X59687000Y-98370522D01*
X64017424Y-98370522D01*
X64026878Y-98418050D01*
X64026879Y-112553945D01*
X64017424Y-112601478D01*
X64053412Y-112782398D01*
X64054880Y-112789779D01*
X64161544Y-112949413D01*
X64201840Y-112976338D01*
X68654400Y-117428899D01*
X68654401Y-125309467D01*
X68644946Y-125357000D01*
X68676574Y-125516001D01*
X68682402Y-125545301D01*
X68789066Y-125704935D01*
X68829362Y-125731860D01*
X82605140Y-139507639D01*
X82632065Y-139547935D01*
X82791699Y-139654599D01*
X82932471Y-139682600D01*
X82979999Y-139692054D01*
X83027527Y-139682600D01*
X90129000Y-139682600D01*
X90129000Y-139800133D01*
X90278348Y-140160692D01*
X90554308Y-140436652D01*
X90914867Y-140586000D01*
X91225000Y-140586000D01*
X91225000Y-141319250D01*
X91383750Y-141478000D01*
X92583000Y-141478000D01*
X92583000Y-140153750D01*
X92837000Y-140153750D01*
X92837000Y-141478000D01*
X95083000Y-141478000D01*
X95083000Y-140159845D01*
X95337000Y-140159845D01*
X95337000Y-141478000D01*
X97583000Y-141478000D01*
X97583000Y-140159845D01*
X97353110Y-140038524D01*
X96838807Y-140277503D01*
X96460000Y-140686189D01*
X96081193Y-140277503D01*
X95566890Y-140038524D01*
X95337000Y-140159845D01*
X95083000Y-140159845D01*
X94853110Y-140038524D01*
X94338807Y-140277503D01*
X94174664Y-140454593D01*
X94098327Y-140270301D01*
X93919698Y-140091673D01*
X93686309Y-139995000D01*
X92995750Y-139995000D01*
X92837000Y-140153750D01*
X92583000Y-140153750D01*
X92424250Y-139995000D01*
X92010284Y-139995000D01*
X92091000Y-139800133D01*
X92091000Y-139682600D01*
X97730102Y-139682600D01*
X98102635Y-140055134D01*
X98066890Y-140038524D01*
X97837000Y-140159845D01*
X97837000Y-141478000D01*
X97857000Y-141478000D01*
X97857000Y-141732000D01*
X97837000Y-141732000D01*
X97837000Y-143050155D01*
X98066890Y-143171476D01*
X98581193Y-142932497D01*
X98975053Y-142507571D01*
X99072779Y-142243768D01*
X99322500Y-142617501D01*
X99729689Y-142889576D01*
X100210000Y-142985116D01*
X100690312Y-142889576D01*
X101097501Y-142617501D01*
X101369576Y-142210311D01*
X101441000Y-141851238D01*
X101441000Y-141358762D01*
X101479000Y-141358762D01*
X101479000Y-141851239D01*
X101550424Y-142210312D01*
X101822500Y-142617501D01*
X102229689Y-142889576D01*
X102710000Y-142985116D01*
X103190312Y-142889576D01*
X103597501Y-142617501D01*
X103869576Y-142210311D01*
X103941000Y-141851238D01*
X103941000Y-141358761D01*
X103869576Y-140999688D01*
X103597501Y-140592499D01*
X103190311Y-140320424D01*
X102710000Y-140224884D01*
X102229688Y-140320424D01*
X101822499Y-140592499D01*
X101550424Y-140999689D01*
X101479000Y-141358762D01*
X101441000Y-141358762D01*
X101441000Y-141358761D01*
X101369576Y-140999688D01*
X101097501Y-140592499D01*
X100690311Y-140320424D01*
X100210000Y-140224884D01*
X99732386Y-140319887D01*
X98691887Y-139279389D01*
X102376491Y-139279389D01*
X105079800Y-141982699D01*
X105079801Y-143637068D01*
X105070346Y-143684600D01*
X105098319Y-143825227D01*
X105107802Y-143872901D01*
X105214466Y-144032535D01*
X105254762Y-144059460D01*
X107682741Y-146487440D01*
X107705019Y-146520781D01*
X107738360Y-146543059D01*
X107744158Y-146548857D01*
X107863498Y-146628598D01*
X108051799Y-146666054D01*
X108107370Y-146655000D01*
X125970831Y-146655000D01*
X126018200Y-146664422D01*
X126065569Y-146655000D01*
X126065573Y-146655000D01*
X126205877Y-146627092D01*
X126364981Y-146520781D01*
X126391816Y-146480620D01*
X128144179Y-144728258D01*
X128175177Y-144722092D01*
X128334281Y-144615781D01*
X128361116Y-144575620D01*
X129209273Y-143727464D01*
X129611250Y-143727464D01*
X129843621Y-143681243D01*
X130040615Y-143549615D01*
X130172243Y-143352621D01*
X130187683Y-143275000D01*
X130330351Y-143275000D01*
X130617401Y-143156100D01*
X130837100Y-142936401D01*
X130956000Y-142649351D01*
X130956000Y-142338649D01*
X130837100Y-142051599D01*
X130617401Y-141831900D01*
X130330351Y-141713000D01*
X130019649Y-141713000D01*
X129732599Y-141831900D01*
X129563963Y-142000536D01*
X129173750Y-142000536D01*
X128941379Y-142046757D01*
X128744385Y-142178385D01*
X128612757Y-142375379D01*
X128605000Y-142414376D01*
X128597243Y-142375379D01*
X128465615Y-142178385D01*
X128350900Y-142101734D01*
X128350900Y-141536516D01*
X128416000Y-141379351D01*
X128416000Y-141068649D01*
X128297100Y-140781599D01*
X128077401Y-140561900D01*
X127790351Y-140443000D01*
X127479649Y-140443000D01*
X127192599Y-140561900D01*
X126972900Y-140781599D01*
X126854000Y-141068649D01*
X126854000Y-141379351D01*
X126972900Y-141666401D01*
X127192599Y-141886100D01*
X127284101Y-141924001D01*
X127284101Y-142101734D01*
X127169385Y-142178385D01*
X127037757Y-142375379D01*
X126991536Y-142607750D01*
X126991536Y-143120250D01*
X127037757Y-143352621D01*
X127169385Y-143549615D01*
X127263237Y-143612326D01*
X125632564Y-145243000D01*
X108373524Y-145243000D01*
X106448210Y-143317688D01*
X106448210Y-141663312D01*
X106457664Y-141615784D01*
X106447368Y-141564025D01*
X106420209Y-141427484D01*
X106313545Y-141267850D01*
X106273250Y-141240926D01*
X103118264Y-138085941D01*
X103091339Y-138045645D01*
X102931705Y-137938981D01*
X102931695Y-137938979D01*
X102743404Y-137901525D01*
X102695871Y-137910980D01*
X83513929Y-137910978D01*
X80569585Y-134966635D01*
X80619599Y-134976583D01*
X80688388Y-134962900D01*
X83770276Y-134962900D01*
X83969449Y-135045400D01*
X84280151Y-135045400D01*
X84567201Y-134926500D01*
X84786900Y-134706801D01*
X84905800Y-134419751D01*
X84905800Y-134210649D01*
X114154000Y-134210649D01*
X114154000Y-134521351D01*
X114272900Y-134808401D01*
X114456594Y-134992095D01*
X114481908Y-135119361D01*
X114561384Y-135238305D01*
X114561387Y-135238308D01*
X114588220Y-135278466D01*
X114622243Y-135301200D01*
X114492599Y-135354900D01*
X114272900Y-135574599D01*
X114154000Y-135861649D01*
X114154000Y-136172351D01*
X114272900Y-136459401D01*
X114492599Y-136679100D01*
X114779649Y-136798000D01*
X115033501Y-136798000D01*
X115331841Y-137096340D01*
X115358766Y-137136636D01*
X115518400Y-137243300D01*
X115659172Y-137271301D01*
X115706700Y-137280755D01*
X115754228Y-137271301D01*
X127201929Y-137271301D01*
X127381429Y-137450801D01*
X127668479Y-137569701D01*
X127979181Y-137569701D01*
X128266231Y-137450801D01*
X128485930Y-137231102D01*
X128604830Y-136944052D01*
X128604830Y-136633350D01*
X128578462Y-136569691D01*
X132569000Y-136569691D01*
X132569000Y-136807351D01*
X132687900Y-137094401D01*
X132907599Y-137314100D01*
X133194649Y-137433000D01*
X133505351Y-137433000D01*
X133792401Y-137314100D01*
X134012100Y-137094401D01*
X134131000Y-136807351D01*
X134131000Y-136496649D01*
X134012100Y-136209599D01*
X133792401Y-135989900D01*
X133505351Y-135871000D01*
X133249236Y-135871000D01*
X133160306Y-135782070D01*
X133133472Y-135741910D01*
X132974368Y-135635599D01*
X132834064Y-135607691D01*
X132834060Y-135607691D01*
X132786691Y-135598269D01*
X132739322Y-135607691D01*
X116291243Y-135607691D01*
X115544526Y-134860975D01*
X115597100Y-134808401D01*
X115716000Y-134521351D01*
X115716000Y-134210649D01*
X115597100Y-133923599D01*
X115377401Y-133703900D01*
X115090351Y-133585000D01*
X114779649Y-133585000D01*
X114492599Y-133703900D01*
X114272900Y-133923599D01*
X114154000Y-134210649D01*
X84905800Y-134210649D01*
X84905800Y-134109049D01*
X84786900Y-133821999D01*
X84567201Y-133602300D01*
X84280151Y-133483400D01*
X83969449Y-133483400D01*
X83770276Y-133565900D01*
X80908928Y-133565900D01*
X72271722Y-124928695D01*
X72351000Y-124944464D01*
X74051000Y-124944464D01*
X74199659Y-124914894D01*
X74325686Y-124830686D01*
X74409894Y-124704659D01*
X74439464Y-124556000D01*
X74439464Y-122856000D01*
X74409894Y-122707341D01*
X74325686Y-122581314D01*
X74199659Y-122497106D01*
X74051000Y-122467536D01*
X72351000Y-122467536D01*
X72202341Y-122497106D01*
X72076314Y-122581314D01*
X71992106Y-122707341D01*
X71962536Y-122856000D01*
X71962536Y-124556000D01*
X71978305Y-124635278D01*
X71716900Y-124373873D01*
X71716900Y-118753002D01*
X71880844Y-118753002D01*
X71759524Y-118982890D01*
X71929355Y-119392924D01*
X72319642Y-119821183D01*
X72717963Y-120008245D01*
X72313499Y-120278499D01*
X72041424Y-120685688D01*
X71945884Y-121166000D01*
X72041424Y-121646312D01*
X72313499Y-122053501D01*
X72720688Y-122325576D01*
X73079761Y-122397000D01*
X73322239Y-122397000D01*
X73681312Y-122325576D01*
X74088501Y-122053501D01*
X74360576Y-121646312D01*
X74456116Y-121166000D01*
X74360576Y-120685688D01*
X74088501Y-120278499D01*
X73684037Y-120008245D01*
X74082358Y-119821183D01*
X74472645Y-119392924D01*
X74642476Y-118982890D01*
X74521155Y-118753000D01*
X73328000Y-118753000D01*
X73328000Y-118773000D01*
X73074000Y-118773000D01*
X73074000Y-118753000D01*
X73054000Y-118753000D01*
X73054000Y-118499000D01*
X73074000Y-118499000D01*
X73074000Y-118479000D01*
X73328000Y-118479000D01*
X73328000Y-118499000D01*
X74521155Y-118499000D01*
X74642476Y-118269110D01*
X74472645Y-117859076D01*
X74082358Y-117430817D01*
X73964147Y-117375302D01*
X80349000Y-117375302D01*
X80349000Y-117924698D01*
X80559245Y-118432273D01*
X80947727Y-118820755D01*
X81455302Y-119031000D01*
X82004698Y-119031000D01*
X82512273Y-118820755D01*
X82900755Y-118432273D01*
X83111000Y-117924698D01*
X83111000Y-117375302D01*
X82900755Y-116867727D01*
X82512273Y-116479245D01*
X82004698Y-116269000D01*
X81455302Y-116269000D01*
X80947727Y-116479245D01*
X80559245Y-116867727D01*
X80349000Y-117375302D01*
X73964147Y-117375302D01*
X73684037Y-117243755D01*
X74088501Y-116973501D01*
X74360576Y-116566312D01*
X74456116Y-116086000D01*
X74360576Y-115605688D01*
X74088501Y-115198499D01*
X73681312Y-114926424D01*
X73322239Y-114855000D01*
X73079761Y-114855000D01*
X72720688Y-114926424D01*
X72313499Y-115198499D01*
X72041424Y-115605688D01*
X71945884Y-116086000D01*
X72041424Y-116566312D01*
X72313499Y-116973501D01*
X72717963Y-117243755D01*
X72319642Y-117430817D01*
X71929355Y-117859076D01*
X71759524Y-118269110D01*
X71880844Y-118498998D01*
X71716900Y-118498998D01*
X71716900Y-116197588D01*
X71730583Y-116128799D01*
X71716900Y-116060010D01*
X71716900Y-116060006D01*
X71676372Y-115856259D01*
X71521990Y-115625210D01*
X71463669Y-115586241D01*
X70659463Y-114782036D01*
X70759649Y-114823534D01*
X71070351Y-114823534D01*
X71357401Y-114704634D01*
X71536901Y-114525134D01*
X92125636Y-114525134D01*
X93774368Y-116173866D01*
X93623680Y-116236283D01*
X93403981Y-116455982D01*
X93285081Y-116743032D01*
X93285081Y-116763384D01*
X93147378Y-116763384D01*
X92860328Y-116882284D01*
X92680828Y-117061784D01*
X88642190Y-117061784D01*
X88594662Y-117052330D01*
X88547134Y-117061784D01*
X88406362Y-117089785D01*
X88246728Y-117196449D01*
X88219803Y-117236745D01*
X85711179Y-119745370D01*
X85457326Y-119745370D01*
X85170276Y-119864270D01*
X84950577Y-120083969D01*
X84831677Y-120371019D01*
X84831677Y-120681721D01*
X84858042Y-120745371D01*
X80044558Y-120745371D01*
X79997029Y-120735917D01*
X79949500Y-120745371D01*
X79808728Y-120773372D01*
X79649094Y-120880036D01*
X79622171Y-120920329D01*
X78504614Y-122037887D01*
X78148239Y-121967000D01*
X77905761Y-121967000D01*
X77546688Y-122038424D01*
X77139499Y-122310499D01*
X76867424Y-122717688D01*
X76771884Y-123198000D01*
X76867424Y-123678312D01*
X77139499Y-124085501D01*
X77546688Y-124357576D01*
X77905761Y-124429000D01*
X78148239Y-124429000D01*
X78507312Y-124357576D01*
X78914501Y-124085501D01*
X79180445Y-123687488D01*
X79295355Y-123964924D01*
X79421917Y-124103799D01*
X79226130Y-124103799D01*
X79178601Y-124094345D01*
X79131072Y-124103799D01*
X78990300Y-124131800D01*
X78830666Y-124238464D01*
X78803741Y-124278760D01*
X78504614Y-124577887D01*
X78148239Y-124507000D01*
X77905761Y-124507000D01*
X77546688Y-124578424D01*
X77139499Y-124850499D01*
X76867424Y-125257688D01*
X76771884Y-125738000D01*
X76867424Y-126218312D01*
X77139499Y-126625501D01*
X77546688Y-126897576D01*
X77651321Y-126918389D01*
X77592318Y-127006693D01*
X77572402Y-127036499D01*
X77571798Y-127039536D01*
X77177000Y-127039536D01*
X77028341Y-127069106D01*
X76902314Y-127153314D01*
X76818106Y-127279341D01*
X76788536Y-127428000D01*
X76788536Y-129128000D01*
X76818106Y-129276659D01*
X76902314Y-129402686D01*
X77028341Y-129486894D01*
X77177000Y-129516464D01*
X78877000Y-129516464D01*
X79025659Y-129486894D01*
X79151686Y-129402686D01*
X79235894Y-129276659D01*
X79265464Y-129128000D01*
X79265464Y-127489292D01*
X79613488Y-127489292D01*
X79407424Y-127797688D01*
X79311884Y-128278000D01*
X79407424Y-128758312D01*
X79679499Y-129165501D01*
X80086688Y-129437576D01*
X80445761Y-129509000D01*
X80688239Y-129509000D01*
X81047312Y-129437576D01*
X81454501Y-129165501D01*
X81726576Y-128758312D01*
X81822116Y-128278000D01*
X81754706Y-127939108D01*
X81761465Y-127937764D01*
X87286059Y-127937764D01*
X87465559Y-128117264D01*
X87752609Y-128236164D01*
X88063311Y-128236164D01*
X88350361Y-128117264D01*
X88531461Y-127936164D01*
X88539918Y-127936164D01*
X92197400Y-131593647D01*
X92197400Y-132171109D01*
X92017900Y-132350609D01*
X91899000Y-132637659D01*
X91899000Y-132948361D01*
X92017900Y-133235411D01*
X92237599Y-133455110D01*
X92524649Y-133574010D01*
X92835351Y-133574010D01*
X93122401Y-133455110D01*
X93338169Y-133239342D01*
X93417591Y-133431082D01*
X93637290Y-133650781D01*
X93924340Y-133769681D01*
X94235042Y-133769681D01*
X94522092Y-133650781D01*
X94741791Y-133431082D01*
X94860691Y-133144032D01*
X94860691Y-132833330D01*
X94741791Y-132546280D01*
X94589600Y-132394089D01*
X94589600Y-131619527D01*
X94599054Y-131571999D01*
X94584293Y-131497791D01*
X94561599Y-131383699D01*
X94454935Y-131224065D01*
X94414640Y-131197141D01*
X93805680Y-130588182D01*
X93787094Y-130494743D01*
X93747637Y-130435692D01*
X93707618Y-130375799D01*
X93707616Y-130375797D01*
X93680783Y-130335639D01*
X93640625Y-130308806D01*
X90518520Y-127186702D01*
X90518520Y-126930587D01*
X90399620Y-126643537D01*
X90280083Y-126524000D01*
X91678502Y-126524000D01*
X93707000Y-128552499D01*
X93707000Y-128806351D01*
X93825900Y-129093401D01*
X94007557Y-129275058D01*
X94033402Y-129404986D01*
X94140066Y-129564620D01*
X94180362Y-129591545D01*
X96890613Y-132301797D01*
X96917538Y-132342093D01*
X97077172Y-132448757D01*
X97217944Y-132476758D01*
X97217945Y-132476758D01*
X97265473Y-132486212D01*
X97313001Y-132476758D01*
X114573293Y-132476758D01*
X114752793Y-132656258D01*
X115039843Y-132775158D01*
X115350545Y-132775158D01*
X115637595Y-132656258D01*
X115857294Y-132436559D01*
X115976194Y-132149509D01*
X115976194Y-131838807D01*
X115857294Y-131551757D01*
X115637595Y-131332058D01*
X115350545Y-131213158D01*
X115039843Y-131213158D01*
X114752793Y-131332058D01*
X114573293Y-131511558D01*
X99240856Y-131511558D01*
X99274092Y-131497791D01*
X99493791Y-131278092D01*
X99612691Y-130991042D01*
X99612691Y-130680340D01*
X99584960Y-130613391D01*
X99660142Y-130613391D01*
X99947192Y-130494491D01*
X100084093Y-130357591D01*
X100336138Y-130609636D01*
X100363065Y-130649935D01*
X100522699Y-130756599D01*
X100663471Y-130784600D01*
X100710999Y-130794054D01*
X100758527Y-130784600D01*
X116064851Y-130784600D01*
X116213014Y-130883599D01*
X116342942Y-130909443D01*
X116524599Y-131091100D01*
X116811649Y-131210000D01*
X117122351Y-131210000D01*
X117409401Y-131091100D01*
X117629100Y-130871401D01*
X117748000Y-130584351D01*
X117748000Y-130273649D01*
X117629100Y-129986599D01*
X117409401Y-129766900D01*
X117122351Y-129648000D01*
X116811649Y-129648000D01*
X116524599Y-129766900D01*
X116447170Y-129844329D01*
X116321844Y-129819400D01*
X116321843Y-129819400D01*
X116274315Y-129809946D01*
X116226787Y-129819400D01*
X100910898Y-129819400D01*
X100749641Y-129658143D01*
X100742824Y-129653588D01*
X100615007Y-129525771D01*
X100588172Y-129485610D01*
X100429068Y-129379299D01*
X100288764Y-129351391D01*
X100288760Y-129351391D01*
X100241391Y-129341969D01*
X100194022Y-129351391D01*
X100128292Y-129351391D01*
X99947192Y-129170291D01*
X99660142Y-129051391D01*
X99358939Y-129051391D01*
X101812131Y-126598200D01*
X101845472Y-126575922D01*
X101951783Y-126416818D01*
X101979691Y-126276514D01*
X101979691Y-126276511D01*
X101989113Y-126229142D01*
X101979691Y-126181773D01*
X101979691Y-113594690D01*
X134906227Y-113594690D01*
X134906227Y-114294692D01*
X134954827Y-114539021D01*
X135093228Y-114746154D01*
X135300361Y-114884555D01*
X135544690Y-114933155D01*
X136794692Y-114933155D01*
X137039021Y-114884555D01*
X137246154Y-114746154D01*
X137384555Y-114539021D01*
X137433155Y-114294692D01*
X137433155Y-113594690D01*
X137384555Y-113350361D01*
X137246154Y-113143228D01*
X137039021Y-113004827D01*
X136794692Y-112956227D01*
X135544690Y-112956227D01*
X135300361Y-113004827D01*
X135093228Y-113143228D01*
X134954827Y-113350361D01*
X134906227Y-113594690D01*
X101979691Y-113594690D01*
X101979691Y-102134000D01*
X106240000Y-102134000D01*
X106240000Y-109754000D01*
X106283602Y-109985243D01*
X106417113Y-110193959D01*
X106620332Y-110335695D01*
X106862323Y-110388873D01*
X117529323Y-110601873D01*
X117680237Y-110586771D01*
X117906890Y-110486692D01*
X129844890Y-102104692D01*
X130055113Y-101854202D01*
X135643113Y-89916202D01*
X135703000Y-89647000D01*
X135703000Y-73137000D01*
X135654664Y-72893996D01*
X135517013Y-72687987D01*
X135311004Y-72550336D01*
X135068000Y-72502000D01*
X133422670Y-72502000D01*
X133277071Y-72404714D01*
X132702879Y-72290500D01*
X132702875Y-72290500D01*
X132509000Y-72251936D01*
X132315125Y-72290500D01*
X127000121Y-72290500D01*
X126425929Y-72404714D01*
X126280330Y-72502000D01*
X125162000Y-72502000D01*
X125104510Y-72504608D01*
X111134510Y-73774608D01*
X110948996Y-73820336D01*
X110742987Y-73957987D01*
X110605336Y-74163996D01*
X110557000Y-74407000D01*
X110557000Y-98718552D01*
X106505484Y-101617587D01*
X106288336Y-101890996D01*
X106240000Y-102134000D01*
X101979691Y-102134000D01*
X101979691Y-87058927D01*
X102530621Y-86507997D01*
X102570782Y-86481162D01*
X102677093Y-86322058D01*
X102705001Y-86181754D01*
X102705001Y-86181750D01*
X102714423Y-86134382D01*
X102705001Y-86087014D01*
X102705001Y-85319256D01*
X102716055Y-85263685D01*
X102685321Y-85109180D01*
X102770100Y-85024401D01*
X102889000Y-84737351D01*
X102889000Y-84426649D01*
X102770100Y-84139599D01*
X102550401Y-83919900D01*
X102263351Y-83801000D01*
X101952649Y-83801000D01*
X101665599Y-83919900D01*
X101445900Y-84139599D01*
X101327000Y-84426649D01*
X101327000Y-84737351D01*
X101438147Y-85005683D01*
X101295213Y-85005683D01*
X101189103Y-85049635D01*
X101107055Y-84851554D01*
X100887356Y-84631855D01*
X100600306Y-84512955D01*
X100289604Y-84512955D01*
X100002554Y-84631855D01*
X99782855Y-84851554D01*
X99663955Y-85138604D01*
X99663955Y-85449306D01*
X99782855Y-85736356D01*
X99964512Y-85918013D01*
X99967738Y-85934228D01*
X99723351Y-85833000D01*
X99412649Y-85833000D01*
X99125599Y-85951900D01*
X98905900Y-86171599D01*
X98787000Y-86458649D01*
X98787000Y-86769351D01*
X98905900Y-87056401D01*
X99087557Y-87238058D01*
X99109847Y-87350113D01*
X99113402Y-87367986D01*
X99220066Y-87527620D01*
X99260361Y-87554545D01*
X99619091Y-87913275D01*
X99619092Y-122409000D01*
X99412649Y-122409000D01*
X99125599Y-122527900D01*
X98905900Y-122747599D01*
X98787000Y-123034649D01*
X98787000Y-123345351D01*
X98905900Y-123632401D01*
X99125599Y-123852100D01*
X99412649Y-123971000D01*
X99723351Y-123971000D01*
X99778235Y-123948266D01*
X99204313Y-124522189D01*
X91064078Y-124522189D01*
X88508000Y-121966112D01*
X88508000Y-121712259D01*
X88481632Y-121648600D01*
X88749102Y-121648600D01*
X89692000Y-122591499D01*
X89692000Y-122845351D01*
X89810900Y-123132401D01*
X90030599Y-123352100D01*
X90317649Y-123471000D01*
X90628351Y-123471000D01*
X90915401Y-123352100D01*
X91135100Y-123132401D01*
X91254000Y-122845351D01*
X91254000Y-122534649D01*
X91135100Y-122247599D01*
X90915401Y-122027900D01*
X90628351Y-121909000D01*
X90374499Y-121909000D01*
X89323862Y-120858364D01*
X89296935Y-120818065D01*
X89137301Y-120711401D01*
X88996529Y-120683400D01*
X88996528Y-120683400D01*
X88949000Y-120673946D01*
X88901472Y-120683400D01*
X86392982Y-120683400D01*
X86393677Y-120681721D01*
X86393677Y-120427868D01*
X88794562Y-118026984D01*
X92680828Y-118026984D01*
X92860328Y-118206484D01*
X93147378Y-118325384D01*
X93458080Y-118325384D01*
X93583482Y-118273441D01*
X93583481Y-120142553D01*
X93574027Y-120190081D01*
X93583481Y-120237609D01*
X93611482Y-120378381D01*
X93718146Y-120538016D01*
X93758445Y-120564943D01*
X95709000Y-122515499D01*
X95709000Y-122769351D01*
X95827900Y-123056401D01*
X96047599Y-123276100D01*
X96334649Y-123395000D01*
X96645351Y-123395000D01*
X96932401Y-123276100D01*
X97152100Y-123056401D01*
X97271000Y-122769351D01*
X97271000Y-122458649D01*
X97164610Y-122201800D01*
X97209042Y-122201800D01*
X97496092Y-122082900D01*
X97715791Y-121863201D01*
X97834691Y-121576151D01*
X97834691Y-121265449D01*
X97715791Y-120978399D01*
X97536291Y-120798899D01*
X97536291Y-118818220D01*
X97545745Y-118770691D01*
X97508290Y-118582390D01*
X97401626Y-118422756D01*
X97361330Y-118395831D01*
X92700396Y-113734898D01*
X92673469Y-113694599D01*
X92513835Y-113587935D01*
X92373063Y-113559934D01*
X92373062Y-113559934D01*
X92325534Y-113550480D01*
X92278006Y-113559934D01*
X71536901Y-113559934D01*
X71357401Y-113380434D01*
X71070351Y-113261534D01*
X70759649Y-113261534D01*
X70472599Y-113380434D01*
X70252900Y-113600133D01*
X70192900Y-113744986D01*
X70192900Y-112608127D01*
X73545270Y-109255758D01*
X73603588Y-109216791D01*
X73642555Y-109158473D01*
X73642557Y-109158471D01*
X73682989Y-109097960D01*
X73970709Y-109385680D01*
X74593142Y-109643500D01*
X75266858Y-109643500D01*
X75889291Y-109385680D01*
X76365680Y-108909291D01*
X76623500Y-108286858D01*
X76623500Y-107613142D01*
X76365680Y-106990709D01*
X75889291Y-106514320D01*
X75266858Y-106256500D01*
X74593142Y-106256500D01*
X73970709Y-106514320D01*
X73798499Y-106686530D01*
X73798499Y-105213470D01*
X73970709Y-105385680D01*
X74593142Y-105643500D01*
X75266858Y-105643500D01*
X75889291Y-105385680D01*
X76365680Y-104909291D01*
X76623500Y-104286858D01*
X76623500Y-103613142D01*
X76365680Y-102990709D01*
X75889291Y-102514320D01*
X75266858Y-102256500D01*
X74593142Y-102256500D01*
X73970709Y-102514320D01*
X73798499Y-102686530D01*
X73798499Y-101475832D01*
X73867997Y-101627787D01*
X74590898Y-101906484D01*
X75365425Y-101887324D01*
X75992003Y-101627787D01*
X76128888Y-101328493D01*
X74930000Y-100129605D01*
X74915858Y-100143748D01*
X74736253Y-99964143D01*
X74750395Y-99950000D01*
X75109605Y-99950000D01*
X76308493Y-101148888D01*
X76607787Y-101012003D01*
X76886484Y-100289102D01*
X76867324Y-99514575D01*
X76607787Y-98887997D01*
X76308493Y-98751112D01*
X75109605Y-99950000D01*
X74750395Y-99950000D01*
X74736253Y-99935858D01*
X74915858Y-99756253D01*
X74930000Y-99770395D01*
X76128888Y-98571507D01*
X75992003Y-98272213D01*
X75269102Y-97993516D01*
X74494575Y-98012676D01*
X73867997Y-98272213D01*
X73798499Y-98424168D01*
X73798499Y-97475832D01*
X73867997Y-97627787D01*
X74590898Y-97906484D01*
X75365425Y-97887324D01*
X75992003Y-97627787D01*
X76128888Y-97328493D01*
X74930000Y-96129605D01*
X74915858Y-96143748D01*
X74736253Y-95964143D01*
X74750395Y-95950000D01*
X75109605Y-95950000D01*
X76308493Y-97148888D01*
X76607787Y-97012003D01*
X76886484Y-96289102D01*
X76869105Y-95586532D01*
X84312073Y-95586532D01*
X84410736Y-95853387D01*
X85020461Y-96079908D01*
X85670460Y-96055856D01*
X86159264Y-95853387D01*
X86257927Y-95586532D01*
X85285000Y-94613605D01*
X84312073Y-95586532D01*
X76869105Y-95586532D01*
X76867324Y-95514575D01*
X76607787Y-94887997D01*
X76308493Y-94751112D01*
X75109605Y-95950000D01*
X74750395Y-95950000D01*
X74736253Y-95935858D01*
X74915858Y-95756253D01*
X74930000Y-95770395D01*
X76128888Y-94571507D01*
X75992003Y-94272213D01*
X75725479Y-94169461D01*
X83639092Y-94169461D01*
X83663144Y-94819460D01*
X83865613Y-95308264D01*
X84132468Y-95406927D01*
X85105395Y-94434000D01*
X85464605Y-94434000D01*
X86437532Y-95406927D01*
X86704387Y-95308264D01*
X86930908Y-94698539D01*
X86906856Y-94048540D01*
X86704387Y-93559736D01*
X86437532Y-93461073D01*
X85464605Y-94434000D01*
X85105395Y-94434000D01*
X84132468Y-93461073D01*
X83865613Y-93559736D01*
X83639092Y-94169461D01*
X75725479Y-94169461D01*
X75269102Y-93993516D01*
X74494575Y-94012676D01*
X73867997Y-94272213D01*
X73798499Y-94424168D01*
X73798499Y-93475832D01*
X73867997Y-93627787D01*
X74590898Y-93906484D01*
X75365425Y-93887324D01*
X75992003Y-93627787D01*
X76128888Y-93328493D01*
X76081863Y-93281468D01*
X84312073Y-93281468D01*
X85285000Y-94254395D01*
X86257927Y-93281468D01*
X86159264Y-93014613D01*
X85549539Y-92788092D01*
X84899540Y-92812144D01*
X84410736Y-93014613D01*
X84312073Y-93281468D01*
X76081863Y-93281468D01*
X74930000Y-92129605D01*
X74915858Y-92143748D01*
X74736253Y-91964143D01*
X74750395Y-91950000D01*
X75109605Y-91950000D01*
X76308493Y-93148888D01*
X76607787Y-93012003D01*
X76886484Y-92289102D01*
X76867324Y-91514575D01*
X76607787Y-90887997D01*
X76308493Y-90751112D01*
X75109605Y-91950000D01*
X74750395Y-91950000D01*
X74736253Y-91935858D01*
X74915858Y-91756253D01*
X74930000Y-91770395D01*
X76128888Y-90571507D01*
X75992003Y-90272213D01*
X75269102Y-89993516D01*
X74494575Y-90012676D01*
X73867997Y-90272213D01*
X73798499Y-90424168D01*
X73798499Y-90069328D01*
X74160059Y-89707769D01*
X74160061Y-89707766D01*
X74317548Y-89550279D01*
X75120608Y-89877147D01*
X75263444Y-89916616D01*
X83518444Y-91186616D01*
X83615000Y-91194000D01*
X86790000Y-91194000D01*
X87049901Y-91138376D01*
X87251835Y-90994814D01*
X87383459Y-90784903D01*
X89040714Y-86431202D01*
X101791063Y-78507171D01*
X101791063Y-79618694D01*
X101781641Y-79666063D01*
X101791063Y-79713432D01*
X101791063Y-79713435D01*
X101818971Y-79853739D01*
X101925282Y-80012844D01*
X101965443Y-80039679D01*
X102724000Y-80798236D01*
X102724000Y-81054351D01*
X102842900Y-81341401D01*
X103062599Y-81561100D01*
X103349649Y-81680000D01*
X103660351Y-81680000D01*
X103947401Y-81561100D01*
X104167100Y-81341401D01*
X104286000Y-81054351D01*
X104286000Y-80743649D01*
X104167100Y-80456599D01*
X103947401Y-80236900D01*
X103660351Y-80118000D01*
X103404236Y-80118000D01*
X102753063Y-79466827D01*
X102753063Y-77909311D01*
X103205181Y-77628331D01*
X103319013Y-77538013D01*
X103456664Y-77332004D01*
X103505000Y-77089000D01*
X103505000Y-67549000D01*
X124781000Y-67549000D01*
X124781000Y-69327000D01*
X124829336Y-69570004D01*
X124966987Y-69776013D01*
X125172996Y-69913664D01*
X125416000Y-69962000D01*
X135195000Y-69962000D01*
X135424910Y-69918917D01*
X135633926Y-69785878D01*
X144396926Y-61403878D01*
X144544664Y-61188004D01*
X144562766Y-61097000D01*
X144670305Y-61097000D01*
X145986474Y-60551825D01*
X146993825Y-59544474D01*
X147539000Y-58228305D01*
X147539000Y-56803695D01*
X146993825Y-55487526D01*
X145986474Y-54480175D01*
X144670305Y-53935000D01*
X144562766Y-53935000D01*
X144544664Y-53843996D01*
X144407013Y-53637987D01*
X144201004Y-53500336D01*
X143958000Y-53452000D01*
X131893000Y-53452000D01*
X131742028Y-53470208D01*
X131517484Y-53574933D01*
X129780120Y-54849000D01*
X128083000Y-54849000D01*
X127839996Y-54897336D01*
X127633987Y-55034987D01*
X127496336Y-55240996D01*
X127448000Y-55484000D01*
X127448000Y-59068412D01*
X124810892Y-67356466D01*
X124781000Y-67549000D01*
X103505000Y-67549000D01*
X103505000Y-65614012D01*
X103511381Y-65614012D01*
X103798431Y-65495112D01*
X103979531Y-65314012D01*
X104232819Y-65314012D01*
X104280188Y-65323434D01*
X104327557Y-65314012D01*
X104327561Y-65314012D01*
X104467865Y-65286104D01*
X104626969Y-65179793D01*
X104653804Y-65139632D01*
X106223636Y-63569800D01*
X106479751Y-63569800D01*
X106766801Y-63450900D01*
X106986500Y-63231201D01*
X107105400Y-62944151D01*
X107105400Y-62633449D01*
X106986500Y-62346399D01*
X106766801Y-62126700D01*
X106479751Y-62007800D01*
X106169049Y-62007800D01*
X105881999Y-62126700D01*
X105662300Y-62346399D01*
X105543400Y-62633449D01*
X105543400Y-62889564D01*
X104080952Y-64352012D01*
X103979531Y-64352012D01*
X103798431Y-64170912D01*
X103511381Y-64052012D01*
X103505000Y-64052012D01*
X103505000Y-62112026D01*
X104892026Y-60725000D01*
X104930351Y-60725000D01*
X105217401Y-60606100D01*
X105437100Y-60386401D01*
X105556000Y-60099351D01*
X105556000Y-60061026D01*
X105614290Y-60002736D01*
X105642658Y-59997093D01*
X105801762Y-59890782D01*
X105828597Y-59850621D01*
X113355219Y-52324000D01*
X116840000Y-52324000D01*
X117141311Y-52247960D01*
X117235625Y-52170000D01*
X118121499Y-52170000D01*
X118302599Y-52351100D01*
X118589649Y-52470000D01*
X118900351Y-52470000D01*
X119187401Y-52351100D01*
X119407100Y-52131401D01*
X119526000Y-51844351D01*
X119526000Y-51533649D01*
X119407100Y-51246599D01*
X119187401Y-51026900D01*
X118900351Y-50908000D01*
X118589649Y-50908000D01*
X118302599Y-51026900D01*
X118121499Y-51208000D01*
X118051011Y-51208000D01*
X123623280Y-44369105D01*
X123717664Y-44211004D01*
X123766000Y-43968000D01*
X123766000Y-43079000D01*
X130637986Y-43079000D01*
X130752929Y-43656857D01*
X131080259Y-44146741D01*
X131570143Y-44474071D01*
X132002137Y-44560000D01*
X132293863Y-44560000D01*
X132725857Y-44474071D01*
X133215741Y-44146741D01*
X133543071Y-43656857D01*
X133658014Y-43079000D01*
X133543071Y-42501143D01*
X133215741Y-42011259D01*
X132725857Y-41683929D01*
X132293863Y-41598000D01*
X132002137Y-41598000D01*
X131570143Y-41683929D01*
X131080259Y-42011259D01*
X130752929Y-42501143D01*
X130637986Y-43079000D01*
X123766000Y-43079000D01*
X123766000Y-41936000D01*
X123717664Y-41692996D01*
X123580013Y-41486987D01*
X123374004Y-41349336D01*
X123131000Y-41301000D01*
X120591000Y-41301000D01*
X120385458Y-41335186D01*
X101181386Y-47905000D01*
X99602000Y-47905000D01*
X99602000Y-47870250D01*
X99443250Y-47711500D01*
X98619000Y-47711500D01*
X98619000Y-47731500D01*
X98365000Y-47731500D01*
X98365000Y-47711500D01*
X97540750Y-47711500D01*
X97382000Y-47870250D01*
X97382000Y-47905000D01*
X95644438Y-47905000D01*
X95903173Y-47428684D01*
X95917318Y-47357185D01*
X95794656Y-47143000D01*
X94302000Y-47143000D01*
X94302000Y-47163000D01*
X94048000Y-47163000D01*
X94048000Y-47143000D01*
X92555344Y-47143000D01*
X92432682Y-47357185D01*
X92446827Y-47428684D01*
X92705855Y-47905540D01*
X92808040Y-47988256D01*
X68171954Y-56302338D01*
X67925987Y-56454987D01*
X67788336Y-56660996D01*
X67740000Y-56904000D01*
X67740000Y-60079000D01*
X67788336Y-60322004D01*
X67925987Y-60528013D01*
X74725000Y-67327026D01*
X74725000Y-69604000D01*
X74759720Y-69811096D01*
X74884666Y-70025049D01*
X76653035Y-72021410D01*
X76616646Y-78565517D01*
X76601394Y-78488841D01*
X76517186Y-78362814D01*
X76391159Y-78278606D01*
X76242500Y-78249036D01*
X73617500Y-78249036D01*
X73468841Y-78278606D01*
X73342814Y-78362814D01*
X73258606Y-78488841D01*
X73229036Y-78637500D01*
X73229036Y-81262500D01*
X73258606Y-81411159D01*
X73342814Y-81537186D01*
X73468841Y-81621394D01*
X73617500Y-81650964D01*
X76242500Y-81650964D01*
X76391159Y-81621394D01*
X76517186Y-81537186D01*
X76600817Y-81412022D01*
X76589040Y-83529949D01*
X76365680Y-82990709D01*
X75889291Y-82514320D01*
X75266858Y-82256500D01*
X74593142Y-82256500D01*
X73970709Y-82514320D01*
X73494320Y-82990709D01*
X73236500Y-83613142D01*
X73236500Y-84286858D01*
X73270778Y-84369613D01*
X71220372Y-83643500D01*
X71266858Y-83643500D01*
X71889291Y-83385680D01*
X72365680Y-82909291D01*
X72623500Y-82286858D01*
X72623500Y-81613142D01*
X72365680Y-80990709D01*
X71889291Y-80514320D01*
X71266858Y-80256500D01*
X70593142Y-80256500D01*
X69970709Y-80514320D01*
X69494320Y-80990709D01*
X69236500Y-81613142D01*
X69236500Y-82286858D01*
X69494320Y-82909291D01*
X69970709Y-83385680D01*
X70593142Y-83643500D01*
X70640322Y-83643500D01*
X70465987Y-83759987D01*
X69195987Y-85029987D01*
X69106375Y-85142685D01*
X69018673Y-85374408D01*
X69026324Y-85622055D01*
X69405074Y-87260055D01*
X69577507Y-87568765D01*
X69784358Y-87705147D01*
X71138942Y-88256500D01*
X70593142Y-88256500D01*
X69970709Y-88514320D01*
X69494320Y-88990709D01*
X69236500Y-89613142D01*
X69236500Y-90286858D01*
X69494320Y-90909291D01*
X69970709Y-91385680D01*
X70593142Y-91643500D01*
X71266858Y-91643500D01*
X71889291Y-91385680D01*
X72365680Y-90909291D01*
X72401500Y-90822814D01*
X72401500Y-93077186D01*
X72365680Y-92990709D01*
X71889291Y-92514320D01*
X71266858Y-92256500D01*
X70593142Y-92256500D01*
X69970709Y-92514320D01*
X69494320Y-92990709D01*
X69324282Y-93401217D01*
X69187900Y-93537599D01*
X69069000Y-93824649D01*
X69069000Y-94135351D01*
X69187900Y-94422401D01*
X69366709Y-94601210D01*
X69433952Y-94763550D01*
X69309865Y-94887637D01*
X69269566Y-94914564D01*
X69162902Y-95074199D01*
X69134901Y-95214970D01*
X69125447Y-95262499D01*
X69134901Y-95310027D01*
X69134901Y-95451469D01*
X68623500Y-95962871D01*
X68623500Y-95613142D01*
X68365680Y-94990709D01*
X67889291Y-94514320D01*
X67266858Y-94256500D01*
X66593142Y-94256500D01*
X65970709Y-94514320D01*
X65494320Y-94990709D01*
X65236500Y-95613142D01*
X65236500Y-96286858D01*
X65433952Y-96763550D01*
X64201842Y-97995660D01*
X64161543Y-98022587D01*
X64054879Y-98182222D01*
X64026878Y-98322993D01*
X64017424Y-98370522D01*
X59687000Y-98370522D01*
X59687000Y-91613142D01*
X65236500Y-91613142D01*
X65236500Y-92286858D01*
X65494320Y-92909291D01*
X65970709Y-93385680D01*
X66593142Y-93643500D01*
X67266858Y-93643500D01*
X67889291Y-93385680D01*
X68365680Y-92909291D01*
X68623500Y-92286858D01*
X68623500Y-91613142D01*
X68365680Y-90990709D01*
X67889291Y-90514320D01*
X67266858Y-90256500D01*
X66593142Y-90256500D01*
X65970709Y-90514320D01*
X65494320Y-90990709D01*
X65236500Y-91613142D01*
X59687000Y-91613142D01*
X59687000Y-87613142D01*
X65236500Y-87613142D01*
X65236500Y-88286858D01*
X65494320Y-88909291D01*
X65970709Y-89385680D01*
X66593142Y-89643500D01*
X67266858Y-89643500D01*
X67889291Y-89385680D01*
X68365680Y-88909291D01*
X68623500Y-88286858D01*
X68623500Y-87613142D01*
X68365680Y-86990709D01*
X67889291Y-86514320D01*
X67266858Y-86256500D01*
X66593142Y-86256500D01*
X65970709Y-86514320D01*
X65494320Y-86990709D01*
X65236500Y-87613142D01*
X59687000Y-87613142D01*
X59687000Y-83613142D01*
X65236500Y-83613142D01*
X65236500Y-84286858D01*
X65494320Y-84909291D01*
X65970709Y-85385680D01*
X66593142Y-85643500D01*
X67266858Y-85643500D01*
X67889291Y-85385680D01*
X68365680Y-84909291D01*
X68623500Y-84286858D01*
X68623500Y-83613142D01*
X68365680Y-82990709D01*
X67889291Y-82514320D01*
X67266858Y-82256500D01*
X66593142Y-82256500D01*
X65970709Y-82514320D01*
X65494320Y-82990709D01*
X65236500Y-83613142D01*
X59687000Y-83613142D01*
X59687000Y-79613142D01*
X65236500Y-79613142D01*
X65236500Y-80286858D01*
X65494320Y-80909291D01*
X65970709Y-81385680D01*
X66593142Y-81643500D01*
X67266858Y-81643500D01*
X67889291Y-81385680D01*
X68365680Y-80909291D01*
X68623500Y-80286858D01*
X68623500Y-79613142D01*
X68365680Y-78990709D01*
X67889291Y-78514320D01*
X67266858Y-78256500D01*
X66593142Y-78256500D01*
X65970709Y-78514320D01*
X65494320Y-78990709D01*
X65236500Y-79613142D01*
X59687000Y-79613142D01*
X59687000Y-68475302D01*
X62249000Y-68475302D01*
X62249000Y-69024698D01*
X62459245Y-69532273D01*
X62847727Y-69920755D01*
X63355302Y-70131000D01*
X63904698Y-70131000D01*
X64412273Y-69920755D01*
X64800755Y-69532273D01*
X65011000Y-69024698D01*
X65011000Y-68475302D01*
X64800755Y-67967727D01*
X64412273Y-67579245D01*
X63904698Y-67369000D01*
X63355302Y-67369000D01*
X62847727Y-67579245D01*
X62459245Y-67967727D01*
X62249000Y-68475302D01*
X59687000Y-68475302D01*
X59687000Y-44986311D01*
X59733743Y-44462553D01*
X61780000Y-44462553D01*
X61780000Y-45469447D01*
X62165322Y-46399696D01*
X62877304Y-47111678D01*
X63807553Y-47497000D01*
X64814447Y-47497000D01*
X65744696Y-47111678D01*
X65835683Y-47020691D01*
X97382000Y-47020691D01*
X97382000Y-47298750D01*
X97540750Y-47457500D01*
X98365000Y-47457500D01*
X98365000Y-46670750D01*
X98619000Y-46670750D01*
X98619000Y-47457500D01*
X99443250Y-47457500D01*
X99602000Y-47298750D01*
X99602000Y-47020691D01*
X99505327Y-46787302D01*
X99326699Y-46608673D01*
X99093310Y-46512000D01*
X98777750Y-46512000D01*
X98619000Y-46670750D01*
X98365000Y-46670750D01*
X98206250Y-46512000D01*
X97890690Y-46512000D01*
X97657301Y-46608673D01*
X97478673Y-46787302D01*
X97382000Y-47020691D01*
X65835683Y-47020691D01*
X66181559Y-46674815D01*
X92432682Y-46674815D01*
X92555344Y-46889000D01*
X94048000Y-46889000D01*
X94048000Y-45631000D01*
X94302000Y-45631000D01*
X94302000Y-46889000D01*
X95794656Y-46889000D01*
X95917318Y-46674815D01*
X95903173Y-46603316D01*
X95644145Y-46126460D01*
X95222349Y-45785028D01*
X94702000Y-45631000D01*
X94302000Y-45631000D01*
X94048000Y-45631000D01*
X93648000Y-45631000D01*
X93127651Y-45785028D01*
X92705855Y-46126460D01*
X92446827Y-46603316D01*
X92432682Y-46674815D01*
X66181559Y-46674815D01*
X66456678Y-46399696D01*
X66842000Y-45469447D01*
X66842000Y-44476000D01*
X92621843Y-44476000D01*
X92709622Y-44917294D01*
X92959595Y-45291405D01*
X93333706Y-45541378D01*
X93663609Y-45607000D01*
X94686391Y-45607000D01*
X95016294Y-45541378D01*
X95390405Y-45291405D01*
X95640378Y-44917294D01*
X95728157Y-44476000D01*
X95640378Y-44034706D01*
X95390405Y-43660595D01*
X95016294Y-43410622D01*
X94686391Y-43345000D01*
X93663609Y-43345000D01*
X93333706Y-43410622D01*
X92959595Y-43660595D01*
X92709622Y-44034706D01*
X92621843Y-44476000D01*
X66842000Y-44476000D01*
X66842000Y-44462553D01*
X66456678Y-43532304D01*
X65744696Y-42820322D01*
X64814447Y-42435000D01*
X63807553Y-42435000D01*
X62877304Y-42820322D01*
X62165322Y-43532304D01*
X61780000Y-44462553D01*
X59733743Y-44462553D01*
X59761863Y-44147479D01*
X59978705Y-43354839D01*
X60332492Y-42613111D01*
X60812027Y-41945768D01*
X61402165Y-41373884D01*
X62084247Y-40915544D01*
X62836708Y-40585237D01*
X63639287Y-40392555D01*
X64327716Y-40342000D01*
X148463000Y-40342000D01*
X148463000Y-54864000D01*
X148463000Y-54864000D01*
G37*
X148463000Y-54864000D02*
X148403040Y-75916807D01*
X141481054Y-106906315D01*
X141478000Y-106934000D01*
X141478000Y-111923554D01*
X137441941Y-115959614D01*
X137444909Y-115944691D01*
X137368772Y-115561924D01*
X137151952Y-115237430D01*
X136827458Y-115020610D01*
X136541307Y-114963691D01*
X135798075Y-114963691D01*
X135511924Y-115020610D01*
X135187430Y-115237430D01*
X134970610Y-115561924D01*
X134894473Y-115944691D01*
X134970610Y-116327458D01*
X135187430Y-116651952D01*
X135511924Y-116868772D01*
X135798075Y-116925691D01*
X136475864Y-116925691D01*
X136437864Y-116963691D01*
X135798075Y-116963691D01*
X135511924Y-117020610D01*
X135187430Y-117237430D01*
X134970610Y-117561924D01*
X134894473Y-117944691D01*
X134970610Y-118327458D01*
X135187430Y-118651952D01*
X135471191Y-118841555D01*
X135471192Y-119047827D01*
X135187430Y-119237430D01*
X134970610Y-119561924D01*
X134894473Y-119944691D01*
X134896529Y-119955025D01*
X131650054Y-123201501D01*
X131278793Y-123201501D01*
X131209999Y-123187817D01*
X131141205Y-123201501D01*
X130937458Y-123242029D01*
X130706409Y-123396411D01*
X130552027Y-123627460D01*
X130497815Y-123900001D01*
X130511500Y-123968800D01*
X130511499Y-130342295D01*
X130367599Y-130401900D01*
X130147900Y-130621599D01*
X130029000Y-130908649D01*
X130029000Y-131219351D01*
X130147900Y-131506401D01*
X130367599Y-131726100D01*
X130654649Y-131845000D01*
X130965351Y-131845000D01*
X131252401Y-131726100D01*
X131472100Y-131506401D01*
X131554601Y-131307226D01*
X131655267Y-131206560D01*
X131713588Y-131167591D01*
X131867971Y-130936542D01*
X131908499Y-130732795D01*
X131908499Y-130732792D01*
X131922182Y-130664002D01*
X131908499Y-130595212D01*
X131908499Y-124606041D01*
X131939381Y-124612184D01*
X132008171Y-124598501D01*
X132008175Y-124598501D01*
X132211922Y-124557973D01*
X132442971Y-124403591D01*
X132481941Y-124345268D01*
X135901519Y-120925691D01*
X136541307Y-120925691D01*
X136827458Y-120868772D01*
X137151952Y-120651952D01*
X137368772Y-120327458D01*
X137444909Y-119944691D01*
X137368772Y-119561924D01*
X137151952Y-119237430D01*
X136868191Y-119047827D01*
X136868191Y-118841555D01*
X137151952Y-118651952D01*
X137368772Y-118327458D01*
X137444909Y-117944691D01*
X137442853Y-117934356D01*
X141478000Y-113899210D01*
X141478000Y-148650000D01*
X64331311Y-148650000D01*
X63492479Y-148575136D01*
X62699836Y-148358294D01*
X61958115Y-148004510D01*
X61290770Y-147524976D01*
X60718884Y-146934835D01*
X60617292Y-146783649D01*
X69069000Y-146783649D01*
X69069000Y-147094351D01*
X69187900Y-147381401D01*
X69407599Y-147601100D01*
X69694649Y-147720000D01*
X70005351Y-147720000D01*
X70292401Y-147601100D01*
X70512100Y-147381401D01*
X70631000Y-147094351D01*
X70631000Y-146783649D01*
X70512100Y-146496599D01*
X70292401Y-146276900D01*
X70005351Y-146158000D01*
X69694649Y-146158000D01*
X69407599Y-146276900D01*
X69187900Y-146496599D01*
X69069000Y-146783649D01*
X60617292Y-146783649D01*
X60260546Y-146252757D01*
X59930237Y-145500292D01*
X59737555Y-144697712D01*
X59687000Y-144009284D01*
X59687000Y-143522553D01*
X61780000Y-143522553D01*
X61780000Y-144529447D01*
X62165322Y-145459696D01*
X62877304Y-146171678D01*
X63807553Y-146557000D01*
X64814447Y-146557000D01*
X65744696Y-146171678D01*
X66456678Y-145459696D01*
X66842000Y-144529447D01*
X66842000Y-143522553D01*
X66456678Y-142592304D01*
X65744696Y-141880322D01*
X65743316Y-141879750D01*
X74580000Y-141879750D01*
X74580000Y-142695310D01*
X74676673Y-142928699D01*
X74855302Y-143107327D01*
X75088691Y-143204000D01*
X75779250Y-143204000D01*
X75938000Y-143045250D01*
X75938000Y-141721000D01*
X74738750Y-141721000D01*
X74580000Y-141879750D01*
X65743316Y-141879750D01*
X64814447Y-141495000D01*
X63807553Y-141495000D01*
X62877304Y-141880322D01*
X62165322Y-142592304D01*
X61780000Y-143522553D01*
X59687000Y-143522553D01*
X59687000Y-139398867D01*
X73484000Y-139398867D01*
X73484000Y-139789133D01*
X73633348Y-140149692D01*
X73909308Y-140425652D01*
X74269867Y-140575000D01*
X74580000Y-140575000D01*
X74580000Y-141308250D01*
X74738750Y-141467000D01*
X75938000Y-141467000D01*
X75938000Y-140142750D01*
X76192000Y-140142750D01*
X76192000Y-141467000D01*
X76212000Y-141467000D01*
X76212000Y-141721000D01*
X76192000Y-141721000D01*
X76192000Y-143045250D01*
X76350750Y-143204000D01*
X77041309Y-143204000D01*
X77274698Y-143107327D01*
X77453327Y-142928699D01*
X77550000Y-142695310D01*
X77550000Y-142415684D01*
X77677500Y-142606501D01*
X78084689Y-142878576D01*
X78565000Y-142974116D01*
X79045312Y-142878576D01*
X79452501Y-142606501D01*
X79724576Y-142199311D01*
X79796000Y-141840238D01*
X79796000Y-141347762D01*
X79834000Y-141347762D01*
X79834000Y-141840239D01*
X79905424Y-142199312D01*
X80177500Y-142606501D01*
X80584689Y-142878576D01*
X81065000Y-142974116D01*
X81545312Y-142878576D01*
X81952501Y-142606501D01*
X82224576Y-142199311D01*
X82296000Y-141840238D01*
X82296000Y-141347762D01*
X82334000Y-141347762D01*
X82334000Y-141840239D01*
X82405424Y-142199312D01*
X82677500Y-142606501D01*
X83084689Y-142878576D01*
X83565000Y-142974116D01*
X84045312Y-142878576D01*
X84452501Y-142606501D01*
X84724576Y-142199311D01*
X84796000Y-141840238D01*
X84796000Y-141347762D01*
X84834000Y-141347762D01*
X84834000Y-141840239D01*
X84905424Y-142199312D01*
X85177500Y-142606501D01*
X85584689Y-142878576D01*
X86065000Y-142974116D01*
X86545312Y-142878576D01*
X86952501Y-142606501D01*
X87224576Y-142199311D01*
X87285952Y-141890750D01*
X91225000Y-141890750D01*
X91225000Y-142706310D01*
X91321673Y-142939699D01*
X91500302Y-143118327D01*
X91733691Y-143215000D01*
X92424250Y-143215000D01*
X92583000Y-143056250D01*
X92583000Y-141732000D01*
X92837000Y-141732000D01*
X92837000Y-143056250D01*
X92995750Y-143215000D01*
X93686309Y-143215000D01*
X93919698Y-143118327D01*
X94098327Y-142939699D01*
X94174664Y-142755407D01*
X94338807Y-142932497D01*
X94853110Y-143171476D01*
X95083000Y-143050155D01*
X95083000Y-141732000D01*
X95337000Y-141732000D01*
X95337000Y-143050155D01*
X95566890Y-143171476D01*
X96081193Y-142932497D01*
X96460000Y-142523811D01*
X96838807Y-142932497D01*
X97353110Y-143171476D01*
X97583000Y-143050155D01*
X97583000Y-141732000D01*
X95337000Y-141732000D01*
X95083000Y-141732000D01*
X92837000Y-141732000D01*
X92583000Y-141732000D01*
X91383750Y-141732000D01*
X91225000Y-141890750D01*
X87285952Y-141890750D01*
X87296000Y-141840238D01*
X87296000Y-141347761D01*
X87224576Y-140988688D01*
X86952501Y-140581499D01*
X86545311Y-140309424D01*
X86065000Y-140213884D01*
X85584688Y-140309424D01*
X85177499Y-140581499D01*
X84905424Y-140988689D01*
X84834000Y-141347762D01*
X84796000Y-141347762D01*
X84796000Y-141347761D01*
X84724576Y-140988688D01*
X84452501Y-140581499D01*
X84045311Y-140309424D01*
X83565000Y-140213884D01*
X83084688Y-140309424D01*
X82677499Y-140581499D01*
X82405424Y-140988689D01*
X82334000Y-141347762D01*
X82296000Y-141347762D01*
X82296000Y-141347761D01*
X82224576Y-140988688D01*
X81952501Y-140581499D01*
X81545311Y-140309424D01*
X81065000Y-140213884D01*
X80584688Y-140309424D01*
X80177499Y-140581499D01*
X79905424Y-140988689D01*
X79834000Y-141347762D01*
X79796000Y-141347762D01*
X79796000Y-141347761D01*
X79724576Y-140988688D01*
X79452501Y-140581499D01*
X79045311Y-140309424D01*
X78565000Y-140213884D01*
X78084688Y-140309424D01*
X77677499Y-140581499D01*
X77550000Y-140772315D01*
X77550000Y-140492690D01*
X77453327Y-140259301D01*
X77274698Y-140080673D01*
X77041309Y-139984000D01*
X76350750Y-139984000D01*
X76192000Y-140142750D01*
X75938000Y-140142750D01*
X75779250Y-139984000D01*
X75365284Y-139984000D01*
X75446000Y-139789133D01*
X75446000Y-139398867D01*
X75296652Y-139038308D01*
X75020692Y-138762348D01*
X74660133Y-138613000D01*
X74269867Y-138613000D01*
X73909308Y-138762348D01*
X73633348Y-139038308D01*
X73484000Y-139398867D01*
X59687000Y-139398867D01*
X59687000Y-118875302D01*
X62249000Y-118875302D01*
X62249000Y-119424698D01*
X62459245Y-119932273D01*
X62847727Y-120320755D01*
X63355302Y-120531000D01*
X63904698Y-120531000D01*
X64412273Y-120320755D01*
X64800755Y-119932273D01*
X65011000Y-119424698D01*
X65011000Y-118875302D01*
X64800755Y-118367727D01*
X64412273Y-117979245D01*
X63904698Y-117769000D01*
X63355302Y-117769000D01*
X62847727Y-117979245D01*
X62459245Y-118367727D01*
X62249000Y-118875302D01*
X59687000Y-118875302D01*
X59687000Y-98370522D01*
X64017424Y-98370522D01*
X64026878Y-98418050D01*
X64026879Y-112553945D01*
X64017424Y-112601478D01*
X64053412Y-112782398D01*
X64054880Y-112789779D01*
X64161544Y-112949413D01*
X64201840Y-112976338D01*
X68654400Y-117428899D01*
X68654401Y-125309467D01*
X68644946Y-125357000D01*
X68676574Y-125516001D01*
X68682402Y-125545301D01*
X68789066Y-125704935D01*
X68829362Y-125731860D01*
X82605140Y-139507639D01*
X82632065Y-139547935D01*
X82791699Y-139654599D01*
X82932471Y-139682600D01*
X82979999Y-139692054D01*
X83027527Y-139682600D01*
X90129000Y-139682600D01*
X90129000Y-139800133D01*
X90278348Y-140160692D01*
X90554308Y-140436652D01*
X90914867Y-140586000D01*
X91225000Y-140586000D01*
X91225000Y-141319250D01*
X91383750Y-141478000D01*
X92583000Y-141478000D01*
X92583000Y-140153750D01*
X92837000Y-140153750D01*
X92837000Y-141478000D01*
X95083000Y-141478000D01*
X95083000Y-140159845D01*
X95337000Y-140159845D01*
X95337000Y-141478000D01*
X97583000Y-141478000D01*
X97583000Y-140159845D01*
X97353110Y-140038524D01*
X96838807Y-140277503D01*
X96460000Y-140686189D01*
X96081193Y-140277503D01*
X95566890Y-140038524D01*
X95337000Y-140159845D01*
X95083000Y-140159845D01*
X94853110Y-140038524D01*
X94338807Y-140277503D01*
X94174664Y-140454593D01*
X94098327Y-140270301D01*
X93919698Y-140091673D01*
X93686309Y-139995000D01*
X92995750Y-139995000D01*
X92837000Y-140153750D01*
X92583000Y-140153750D01*
X92424250Y-139995000D01*
X92010284Y-139995000D01*
X92091000Y-139800133D01*
X92091000Y-139682600D01*
X97730102Y-139682600D01*
X98102635Y-140055134D01*
X98066890Y-140038524D01*
X97837000Y-140159845D01*
X97837000Y-141478000D01*
X97857000Y-141478000D01*
X97857000Y-141732000D01*
X97837000Y-141732000D01*
X97837000Y-143050155D01*
X98066890Y-143171476D01*
X98581193Y-142932497D01*
X98975053Y-142507571D01*
X99072779Y-142243768D01*
X99322500Y-142617501D01*
X99729689Y-142889576D01*
X100210000Y-142985116D01*
X100690312Y-142889576D01*
X101097501Y-142617501D01*
X101369576Y-142210311D01*
X101441000Y-141851238D01*
X101441000Y-141358762D01*
X101479000Y-141358762D01*
X101479000Y-141851239D01*
X101550424Y-142210312D01*
X101822500Y-142617501D01*
X102229689Y-142889576D01*
X102710000Y-142985116D01*
X103190312Y-142889576D01*
X103597501Y-142617501D01*
X103869576Y-142210311D01*
X103941000Y-141851238D01*
X103941000Y-141358761D01*
X103869576Y-140999688D01*
X103597501Y-140592499D01*
X103190311Y-140320424D01*
X102710000Y-140224884D01*
X102229688Y-140320424D01*
X101822499Y-140592499D01*
X101550424Y-140999689D01*
X101479000Y-141358762D01*
X101441000Y-141358762D01*
X101441000Y-141358761D01*
X101369576Y-140999688D01*
X101097501Y-140592499D01*
X100690311Y-140320424D01*
X100210000Y-140224884D01*
X99732386Y-140319887D01*
X98691887Y-139279389D01*
X102376491Y-139279389D01*
X105079800Y-141982699D01*
X105079801Y-143637068D01*
X105070346Y-143684600D01*
X105098319Y-143825227D01*
X105107802Y-143872901D01*
X105214466Y-144032535D01*
X105254762Y-144059460D01*
X107682741Y-146487440D01*
X107705019Y-146520781D01*
X107738360Y-146543059D01*
X107744158Y-146548857D01*
X107863498Y-146628598D01*
X108051799Y-146666054D01*
X108107370Y-146655000D01*
X125970831Y-146655000D01*
X126018200Y-146664422D01*
X126065569Y-146655000D01*
X126065573Y-146655000D01*
X126205877Y-146627092D01*
X126364981Y-146520781D01*
X126391816Y-146480620D01*
X128144179Y-144728258D01*
X128175177Y-144722092D01*
X128334281Y-144615781D01*
X128361116Y-144575620D01*
X129209273Y-143727464D01*
X129611250Y-143727464D01*
X129843621Y-143681243D01*
X130040615Y-143549615D01*
X130172243Y-143352621D01*
X130187683Y-143275000D01*
X130330351Y-143275000D01*
X130617401Y-143156100D01*
X130837100Y-142936401D01*
X130956000Y-142649351D01*
X130956000Y-142338649D01*
X130837100Y-142051599D01*
X130617401Y-141831900D01*
X130330351Y-141713000D01*
X130019649Y-141713000D01*
X129732599Y-141831900D01*
X129563963Y-142000536D01*
X129173750Y-142000536D01*
X128941379Y-142046757D01*
X128744385Y-142178385D01*
X128612757Y-142375379D01*
X128605000Y-142414376D01*
X128597243Y-142375379D01*
X128465615Y-142178385D01*
X128350900Y-142101734D01*
X128350900Y-141536516D01*
X128416000Y-141379351D01*
X128416000Y-141068649D01*
X128297100Y-140781599D01*
X128077401Y-140561900D01*
X127790351Y-140443000D01*
X127479649Y-140443000D01*
X127192599Y-140561900D01*
X126972900Y-140781599D01*
X126854000Y-141068649D01*
X126854000Y-141379351D01*
X126972900Y-141666401D01*
X127192599Y-141886100D01*
X127284101Y-141924001D01*
X127284101Y-142101734D01*
X127169385Y-142178385D01*
X127037757Y-142375379D01*
X126991536Y-142607750D01*
X126991536Y-143120250D01*
X127037757Y-143352621D01*
X127169385Y-143549615D01*
X127263237Y-143612326D01*
X125632564Y-145243000D01*
X108373524Y-145243000D01*
X106448210Y-143317688D01*
X106448210Y-141663312D01*
X106457664Y-141615784D01*
X106447368Y-141564025D01*
X106420209Y-141427484D01*
X106313545Y-141267850D01*
X106273250Y-141240926D01*
X103118264Y-138085941D01*
X103091339Y-138045645D01*
X102931705Y-137938981D01*
X102931695Y-137938979D01*
X102743404Y-137901525D01*
X102695871Y-137910980D01*
X83513929Y-137910978D01*
X80569585Y-134966635D01*
X80619599Y-134976583D01*
X80688388Y-134962900D01*
X83770276Y-134962900D01*
X83969449Y-135045400D01*
X84280151Y-135045400D01*
X84567201Y-134926500D01*
X84786900Y-134706801D01*
X84905800Y-134419751D01*
X84905800Y-134210649D01*
X114154000Y-134210649D01*
X114154000Y-134521351D01*
X114272900Y-134808401D01*
X114456594Y-134992095D01*
X114481908Y-135119361D01*
X114561384Y-135238305D01*
X114561387Y-135238308D01*
X114588220Y-135278466D01*
X114622243Y-135301200D01*
X114492599Y-135354900D01*
X114272900Y-135574599D01*
X114154000Y-135861649D01*
X114154000Y-136172351D01*
X114272900Y-136459401D01*
X114492599Y-136679100D01*
X114779649Y-136798000D01*
X115033501Y-136798000D01*
X115331841Y-137096340D01*
X115358766Y-137136636D01*
X115518400Y-137243300D01*
X115659172Y-137271301D01*
X115706700Y-137280755D01*
X115754228Y-137271301D01*
X127201929Y-137271301D01*
X127381429Y-137450801D01*
X127668479Y-137569701D01*
X127979181Y-137569701D01*
X128266231Y-137450801D01*
X128485930Y-137231102D01*
X128604830Y-136944052D01*
X128604830Y-136633350D01*
X128578462Y-136569691D01*
X132569000Y-136569691D01*
X132569000Y-136807351D01*
X132687900Y-137094401D01*
X132907599Y-137314100D01*
X133194649Y-137433000D01*
X133505351Y-137433000D01*
X133792401Y-137314100D01*
X134012100Y-137094401D01*
X134131000Y-136807351D01*
X134131000Y-136496649D01*
X134012100Y-136209599D01*
X133792401Y-135989900D01*
X133505351Y-135871000D01*
X133249236Y-135871000D01*
X133160306Y-135782070D01*
X133133472Y-135741910D01*
X132974368Y-135635599D01*
X132834064Y-135607691D01*
X132834060Y-135607691D01*
X132786691Y-135598269D01*
X132739322Y-135607691D01*
X116291243Y-135607691D01*
X115544526Y-134860975D01*
X115597100Y-134808401D01*
X115716000Y-134521351D01*
X115716000Y-134210649D01*
X115597100Y-133923599D01*
X115377401Y-133703900D01*
X115090351Y-133585000D01*
X114779649Y-133585000D01*
X114492599Y-133703900D01*
X114272900Y-133923599D01*
X114154000Y-134210649D01*
X84905800Y-134210649D01*
X84905800Y-134109049D01*
X84786900Y-133821999D01*
X84567201Y-133602300D01*
X84280151Y-133483400D01*
X83969449Y-133483400D01*
X83770276Y-133565900D01*
X80908928Y-133565900D01*
X72271722Y-124928695D01*
X72351000Y-124944464D01*
X74051000Y-124944464D01*
X74199659Y-124914894D01*
X74325686Y-124830686D01*
X74409894Y-124704659D01*
X74439464Y-124556000D01*
X74439464Y-122856000D01*
X74409894Y-122707341D01*
X74325686Y-122581314D01*
X74199659Y-122497106D01*
X74051000Y-122467536D01*
X72351000Y-122467536D01*
X72202341Y-122497106D01*
X72076314Y-122581314D01*
X71992106Y-122707341D01*
X71962536Y-122856000D01*
X71962536Y-124556000D01*
X71978305Y-124635278D01*
X71716900Y-124373873D01*
X71716900Y-118753002D01*
X71880844Y-118753002D01*
X71759524Y-118982890D01*
X71929355Y-119392924D01*
X72319642Y-119821183D01*
X72717963Y-120008245D01*
X72313499Y-120278499D01*
X72041424Y-120685688D01*
X71945884Y-121166000D01*
X72041424Y-121646312D01*
X72313499Y-122053501D01*
X72720688Y-122325576D01*
X73079761Y-122397000D01*
X73322239Y-122397000D01*
X73681312Y-122325576D01*
X74088501Y-122053501D01*
X74360576Y-121646312D01*
X74456116Y-121166000D01*
X74360576Y-120685688D01*
X74088501Y-120278499D01*
X73684037Y-120008245D01*
X74082358Y-119821183D01*
X74472645Y-119392924D01*
X74642476Y-118982890D01*
X74521155Y-118753000D01*
X73328000Y-118753000D01*
X73328000Y-118773000D01*
X73074000Y-118773000D01*
X73074000Y-118753000D01*
X73054000Y-118753000D01*
X73054000Y-118499000D01*
X73074000Y-118499000D01*
X73074000Y-118479000D01*
X73328000Y-118479000D01*
X73328000Y-118499000D01*
X74521155Y-118499000D01*
X74642476Y-118269110D01*
X74472645Y-117859076D01*
X74082358Y-117430817D01*
X73964147Y-117375302D01*
X80349000Y-117375302D01*
X80349000Y-117924698D01*
X80559245Y-118432273D01*
X80947727Y-118820755D01*
X81455302Y-119031000D01*
X82004698Y-119031000D01*
X82512273Y-118820755D01*
X82900755Y-118432273D01*
X83111000Y-117924698D01*
X83111000Y-117375302D01*
X82900755Y-116867727D01*
X82512273Y-116479245D01*
X82004698Y-116269000D01*
X81455302Y-116269000D01*
X80947727Y-116479245D01*
X80559245Y-116867727D01*
X80349000Y-117375302D01*
X73964147Y-117375302D01*
X73684037Y-117243755D01*
X74088501Y-116973501D01*
X74360576Y-116566312D01*
X74456116Y-116086000D01*
X74360576Y-115605688D01*
X74088501Y-115198499D01*
X73681312Y-114926424D01*
X73322239Y-114855000D01*
X73079761Y-114855000D01*
X72720688Y-114926424D01*
X72313499Y-115198499D01*
X72041424Y-115605688D01*
X71945884Y-116086000D01*
X72041424Y-116566312D01*
X72313499Y-116973501D01*
X72717963Y-117243755D01*
X72319642Y-117430817D01*
X71929355Y-117859076D01*
X71759524Y-118269110D01*
X71880844Y-118498998D01*
X71716900Y-118498998D01*
X71716900Y-116197588D01*
X71730583Y-116128799D01*
X71716900Y-116060010D01*
X71716900Y-116060006D01*
X71676372Y-115856259D01*
X71521990Y-115625210D01*
X71463669Y-115586241D01*
X70659463Y-114782036D01*
X70759649Y-114823534D01*
X71070351Y-114823534D01*
X71357401Y-114704634D01*
X71536901Y-114525134D01*
X92125636Y-114525134D01*
X93774368Y-116173866D01*
X93623680Y-116236283D01*
X93403981Y-116455982D01*
X93285081Y-116743032D01*
X93285081Y-116763384D01*
X93147378Y-116763384D01*
X92860328Y-116882284D01*
X92680828Y-117061784D01*
X88642190Y-117061784D01*
X88594662Y-117052330D01*
X88547134Y-117061784D01*
X88406362Y-117089785D01*
X88246728Y-117196449D01*
X88219803Y-117236745D01*
X85711179Y-119745370D01*
X85457326Y-119745370D01*
X85170276Y-119864270D01*
X84950577Y-120083969D01*
X84831677Y-120371019D01*
X84831677Y-120681721D01*
X84858042Y-120745371D01*
X80044558Y-120745371D01*
X79997029Y-120735917D01*
X79949500Y-120745371D01*
X79808728Y-120773372D01*
X79649094Y-120880036D01*
X79622171Y-120920329D01*
X78504614Y-122037887D01*
X78148239Y-121967000D01*
X77905761Y-121967000D01*
X77546688Y-122038424D01*
X77139499Y-122310499D01*
X76867424Y-122717688D01*
X76771884Y-123198000D01*
X76867424Y-123678312D01*
X77139499Y-124085501D01*
X77546688Y-124357576D01*
X77905761Y-124429000D01*
X78148239Y-124429000D01*
X78507312Y-124357576D01*
X78914501Y-124085501D01*
X79180445Y-123687488D01*
X79295355Y-123964924D01*
X79421917Y-124103799D01*
X79226130Y-124103799D01*
X79178601Y-124094345D01*
X79131072Y-124103799D01*
X78990300Y-124131800D01*
X78830666Y-124238464D01*
X78803741Y-124278760D01*
X78504614Y-124577887D01*
X78148239Y-124507000D01*
X77905761Y-124507000D01*
X77546688Y-124578424D01*
X77139499Y-124850499D01*
X76867424Y-125257688D01*
X76771884Y-125738000D01*
X76867424Y-126218312D01*
X77139499Y-126625501D01*
X77546688Y-126897576D01*
X77651321Y-126918389D01*
X77592318Y-127006693D01*
X77572402Y-127036499D01*
X77571798Y-127039536D01*
X77177000Y-127039536D01*
X77028341Y-127069106D01*
X76902314Y-127153314D01*
X76818106Y-127279341D01*
X76788536Y-127428000D01*
X76788536Y-129128000D01*
X76818106Y-129276659D01*
X76902314Y-129402686D01*
X77028341Y-129486894D01*
X77177000Y-129516464D01*
X78877000Y-129516464D01*
X79025659Y-129486894D01*
X79151686Y-129402686D01*
X79235894Y-129276659D01*
X79265464Y-129128000D01*
X79265464Y-127489292D01*
X79613488Y-127489292D01*
X79407424Y-127797688D01*
X79311884Y-128278000D01*
X79407424Y-128758312D01*
X79679499Y-129165501D01*
X80086688Y-129437576D01*
X80445761Y-129509000D01*
X80688239Y-129509000D01*
X81047312Y-129437576D01*
X81454501Y-129165501D01*
X81726576Y-128758312D01*
X81822116Y-128278000D01*
X81754706Y-127939108D01*
X81761465Y-127937764D01*
X87286059Y-127937764D01*
X87465559Y-128117264D01*
X87752609Y-128236164D01*
X88063311Y-128236164D01*
X88350361Y-128117264D01*
X88531461Y-127936164D01*
X88539918Y-127936164D01*
X92197400Y-131593647D01*
X92197400Y-132171109D01*
X92017900Y-132350609D01*
X91899000Y-132637659D01*
X91899000Y-132948361D01*
X92017900Y-133235411D01*
X92237599Y-133455110D01*
X92524649Y-133574010D01*
X92835351Y-133574010D01*
X93122401Y-133455110D01*
X93338169Y-133239342D01*
X93417591Y-133431082D01*
X93637290Y-133650781D01*
X93924340Y-133769681D01*
X94235042Y-133769681D01*
X94522092Y-133650781D01*
X94741791Y-133431082D01*
X94860691Y-133144032D01*
X94860691Y-132833330D01*
X94741791Y-132546280D01*
X94589600Y-132394089D01*
X94589600Y-131619527D01*
X94599054Y-131571999D01*
X94584293Y-131497791D01*
X94561599Y-131383699D01*
X94454935Y-131224065D01*
X94414640Y-131197141D01*
X93805680Y-130588182D01*
X93787094Y-130494743D01*
X93747637Y-130435692D01*
X93707618Y-130375799D01*
X93707616Y-130375797D01*
X93680783Y-130335639D01*
X93640625Y-130308806D01*
X90518520Y-127186702D01*
X90518520Y-126930587D01*
X90399620Y-126643537D01*
X90280083Y-126524000D01*
X91678502Y-126524000D01*
X93707000Y-128552499D01*
X93707000Y-128806351D01*
X93825900Y-129093401D01*
X94007557Y-129275058D01*
X94033402Y-129404986D01*
X94140066Y-129564620D01*
X94180362Y-129591545D01*
X96890613Y-132301797D01*
X96917538Y-132342093D01*
X97077172Y-132448757D01*
X97217944Y-132476758D01*
X97217945Y-132476758D01*
X97265473Y-132486212D01*
X97313001Y-132476758D01*
X114573293Y-132476758D01*
X114752793Y-132656258D01*
X115039843Y-132775158D01*
X115350545Y-132775158D01*
X115637595Y-132656258D01*
X115857294Y-132436559D01*
X115976194Y-132149509D01*
X115976194Y-131838807D01*
X115857294Y-131551757D01*
X115637595Y-131332058D01*
X115350545Y-131213158D01*
X115039843Y-131213158D01*
X114752793Y-131332058D01*
X114573293Y-131511558D01*
X99240856Y-131511558D01*
X99274092Y-131497791D01*
X99493791Y-131278092D01*
X99612691Y-130991042D01*
X99612691Y-130680340D01*
X99584960Y-130613391D01*
X99660142Y-130613391D01*
X99947192Y-130494491D01*
X100084093Y-130357591D01*
X100336138Y-130609636D01*
X100363065Y-130649935D01*
X100522699Y-130756599D01*
X100663471Y-130784600D01*
X100710999Y-130794054D01*
X100758527Y-130784600D01*
X116064851Y-130784600D01*
X116213014Y-130883599D01*
X116342942Y-130909443D01*
X116524599Y-131091100D01*
X116811649Y-131210000D01*
X117122351Y-131210000D01*
X117409401Y-131091100D01*
X117629100Y-130871401D01*
X117748000Y-130584351D01*
X117748000Y-130273649D01*
X117629100Y-129986599D01*
X117409401Y-129766900D01*
X117122351Y-129648000D01*
X116811649Y-129648000D01*
X116524599Y-129766900D01*
X116447170Y-129844329D01*
X116321844Y-129819400D01*
X116321843Y-129819400D01*
X116274315Y-129809946D01*
X116226787Y-129819400D01*
X100910898Y-129819400D01*
X100749641Y-129658143D01*
X100742824Y-129653588D01*
X100615007Y-129525771D01*
X100588172Y-129485610D01*
X100429068Y-129379299D01*
X100288764Y-129351391D01*
X100288760Y-129351391D01*
X100241391Y-129341969D01*
X100194022Y-129351391D01*
X100128292Y-129351391D01*
X99947192Y-129170291D01*
X99660142Y-129051391D01*
X99358939Y-129051391D01*
X101812131Y-126598200D01*
X101845472Y-126575922D01*
X101951783Y-126416818D01*
X101979691Y-126276514D01*
X101979691Y-126276511D01*
X101989113Y-126229142D01*
X101979691Y-126181773D01*
X101979691Y-113594690D01*
X134906227Y-113594690D01*
X134906227Y-114294692D01*
X134954827Y-114539021D01*
X135093228Y-114746154D01*
X135300361Y-114884555D01*
X135544690Y-114933155D01*
X136794692Y-114933155D01*
X137039021Y-114884555D01*
X137246154Y-114746154D01*
X137384555Y-114539021D01*
X137433155Y-114294692D01*
X137433155Y-113594690D01*
X137384555Y-113350361D01*
X137246154Y-113143228D01*
X137039021Y-113004827D01*
X136794692Y-112956227D01*
X135544690Y-112956227D01*
X135300361Y-113004827D01*
X135093228Y-113143228D01*
X134954827Y-113350361D01*
X134906227Y-113594690D01*
X101979691Y-113594690D01*
X101979691Y-102134000D01*
X106240000Y-102134000D01*
X106240000Y-109754000D01*
X106283602Y-109985243D01*
X106417113Y-110193959D01*
X106620332Y-110335695D01*
X106862323Y-110388873D01*
X117529323Y-110601873D01*
X117680237Y-110586771D01*
X117906890Y-110486692D01*
X129844890Y-102104692D01*
X130055113Y-101854202D01*
X135643113Y-89916202D01*
X135703000Y-89647000D01*
X135703000Y-73137000D01*
X135654664Y-72893996D01*
X135517013Y-72687987D01*
X135311004Y-72550336D01*
X135068000Y-72502000D01*
X133422670Y-72502000D01*
X133277071Y-72404714D01*
X132702879Y-72290500D01*
X132702875Y-72290500D01*
X132509000Y-72251936D01*
X132315125Y-72290500D01*
X127000121Y-72290500D01*
X126425929Y-72404714D01*
X126280330Y-72502000D01*
X125162000Y-72502000D01*
X125104510Y-72504608D01*
X111134510Y-73774608D01*
X110948996Y-73820336D01*
X110742987Y-73957987D01*
X110605336Y-74163996D01*
X110557000Y-74407000D01*
X110557000Y-98718552D01*
X106505484Y-101617587D01*
X106288336Y-101890996D01*
X106240000Y-102134000D01*
X101979691Y-102134000D01*
X101979691Y-87058927D01*
X102530621Y-86507997D01*
X102570782Y-86481162D01*
X102677093Y-86322058D01*
X102705001Y-86181754D01*
X102705001Y-86181750D01*
X102714423Y-86134382D01*
X102705001Y-86087014D01*
X102705001Y-85319256D01*
X102716055Y-85263685D01*
X102685321Y-85109180D01*
X102770100Y-85024401D01*
X102889000Y-84737351D01*
X102889000Y-84426649D01*
X102770100Y-84139599D01*
X102550401Y-83919900D01*
X102263351Y-83801000D01*
X101952649Y-83801000D01*
X101665599Y-83919900D01*
X101445900Y-84139599D01*
X101327000Y-84426649D01*
X101327000Y-84737351D01*
X101438147Y-85005683D01*
X101295213Y-85005683D01*
X101189103Y-85049635D01*
X101107055Y-84851554D01*
X100887356Y-84631855D01*
X100600306Y-84512955D01*
X100289604Y-84512955D01*
X100002554Y-84631855D01*
X99782855Y-84851554D01*
X99663955Y-85138604D01*
X99663955Y-85449306D01*
X99782855Y-85736356D01*
X99964512Y-85918013D01*
X99967738Y-85934228D01*
X99723351Y-85833000D01*
X99412649Y-85833000D01*
X99125599Y-85951900D01*
X98905900Y-86171599D01*
X98787000Y-86458649D01*
X98787000Y-86769351D01*
X98905900Y-87056401D01*
X99087557Y-87238058D01*
X99109847Y-87350113D01*
X99113402Y-87367986D01*
X99220066Y-87527620D01*
X99260361Y-87554545D01*
X99619091Y-87913275D01*
X99619092Y-122409000D01*
X99412649Y-122409000D01*
X99125599Y-122527900D01*
X98905900Y-122747599D01*
X98787000Y-123034649D01*
X98787000Y-123345351D01*
X98905900Y-123632401D01*
X99125599Y-123852100D01*
X99412649Y-123971000D01*
X99723351Y-123971000D01*
X99778235Y-123948266D01*
X99204313Y-124522189D01*
X91064078Y-124522189D01*
X88508000Y-121966112D01*
X88508000Y-121712259D01*
X88481632Y-121648600D01*
X88749102Y-121648600D01*
X89692000Y-122591499D01*
X89692000Y-122845351D01*
X89810900Y-123132401D01*
X90030599Y-123352100D01*
X90317649Y-123471000D01*
X90628351Y-123471000D01*
X90915401Y-123352100D01*
X91135100Y-123132401D01*
X91254000Y-122845351D01*
X91254000Y-122534649D01*
X91135100Y-122247599D01*
X90915401Y-122027900D01*
X90628351Y-121909000D01*
X90374499Y-121909000D01*
X89323862Y-120858364D01*
X89296935Y-120818065D01*
X89137301Y-120711401D01*
X88996529Y-120683400D01*
X88996528Y-120683400D01*
X88949000Y-120673946D01*
X88901472Y-120683400D01*
X86392982Y-120683400D01*
X86393677Y-120681721D01*
X86393677Y-120427868D01*
X88794562Y-118026984D01*
X92680828Y-118026984D01*
X92860328Y-118206484D01*
X93147378Y-118325384D01*
X93458080Y-118325384D01*
X93583482Y-118273441D01*
X93583481Y-120142553D01*
X93574027Y-120190081D01*
X93583481Y-120237609D01*
X93611482Y-120378381D01*
X93718146Y-120538016D01*
X93758445Y-120564943D01*
X95709000Y-122515499D01*
X95709000Y-122769351D01*
X95827900Y-123056401D01*
X96047599Y-123276100D01*
X96334649Y-123395000D01*
X96645351Y-123395000D01*
X96932401Y-123276100D01*
X97152100Y-123056401D01*
X97271000Y-122769351D01*
X97271000Y-122458649D01*
X97164610Y-122201800D01*
X97209042Y-122201800D01*
X97496092Y-122082900D01*
X97715791Y-121863201D01*
X97834691Y-121576151D01*
X97834691Y-121265449D01*
X97715791Y-120978399D01*
X97536291Y-120798899D01*
X97536291Y-118818220D01*
X97545745Y-118770691D01*
X97508290Y-118582390D01*
X97401626Y-118422756D01*
X97361330Y-118395831D01*
X92700396Y-113734898D01*
X92673469Y-113694599D01*
X92513835Y-113587935D01*
X92373063Y-113559934D01*
X92373062Y-113559934D01*
X92325534Y-113550480D01*
X92278006Y-113559934D01*
X71536901Y-113559934D01*
X71357401Y-113380434D01*
X71070351Y-113261534D01*
X70759649Y-113261534D01*
X70472599Y-113380434D01*
X70252900Y-113600133D01*
X70192900Y-113744986D01*
X70192900Y-112608127D01*
X73545270Y-109255758D01*
X73603588Y-109216791D01*
X73642555Y-109158473D01*
X73642557Y-109158471D01*
X73682989Y-109097960D01*
X73970709Y-109385680D01*
X74593142Y-109643500D01*
X75266858Y-109643500D01*
X75889291Y-109385680D01*
X76365680Y-108909291D01*
X76623500Y-108286858D01*
X76623500Y-107613142D01*
X76365680Y-106990709D01*
X75889291Y-106514320D01*
X75266858Y-106256500D01*
X74593142Y-106256500D01*
X73970709Y-106514320D01*
X73798499Y-106686530D01*
X73798499Y-105213470D01*
X73970709Y-105385680D01*
X74593142Y-105643500D01*
X75266858Y-105643500D01*
X75889291Y-105385680D01*
X76365680Y-104909291D01*
X76623500Y-104286858D01*
X76623500Y-103613142D01*
X76365680Y-102990709D01*
X75889291Y-102514320D01*
X75266858Y-102256500D01*
X74593142Y-102256500D01*
X73970709Y-102514320D01*
X73798499Y-102686530D01*
X73798499Y-101475832D01*
X73867997Y-101627787D01*
X74590898Y-101906484D01*
X75365425Y-101887324D01*
X75992003Y-101627787D01*
X76128888Y-101328493D01*
X74930000Y-100129605D01*
X74915858Y-100143748D01*
X74736253Y-99964143D01*
X74750395Y-99950000D01*
X75109605Y-99950000D01*
X76308493Y-101148888D01*
X76607787Y-101012003D01*
X76886484Y-100289102D01*
X76867324Y-99514575D01*
X76607787Y-98887997D01*
X76308493Y-98751112D01*
X75109605Y-99950000D01*
X74750395Y-99950000D01*
X74736253Y-99935858D01*
X74915858Y-99756253D01*
X74930000Y-99770395D01*
X76128888Y-98571507D01*
X75992003Y-98272213D01*
X75269102Y-97993516D01*
X74494575Y-98012676D01*
X73867997Y-98272213D01*
X73798499Y-98424168D01*
X73798499Y-97475832D01*
X73867997Y-97627787D01*
X74590898Y-97906484D01*
X75365425Y-97887324D01*
X75992003Y-97627787D01*
X76128888Y-97328493D01*
X74930000Y-96129605D01*
X74915858Y-96143748D01*
X74736253Y-95964143D01*
X74750395Y-95950000D01*
X75109605Y-95950000D01*
X76308493Y-97148888D01*
X76607787Y-97012003D01*
X76886484Y-96289102D01*
X76869105Y-95586532D01*
X84312073Y-95586532D01*
X84410736Y-95853387D01*
X85020461Y-96079908D01*
X85670460Y-96055856D01*
X86159264Y-95853387D01*
X86257927Y-95586532D01*
X85285000Y-94613605D01*
X84312073Y-95586532D01*
X76869105Y-95586532D01*
X76867324Y-95514575D01*
X76607787Y-94887997D01*
X76308493Y-94751112D01*
X75109605Y-95950000D01*
X74750395Y-95950000D01*
X74736253Y-95935858D01*
X74915858Y-95756253D01*
X74930000Y-95770395D01*
X76128888Y-94571507D01*
X75992003Y-94272213D01*
X75725479Y-94169461D01*
X83639092Y-94169461D01*
X83663144Y-94819460D01*
X83865613Y-95308264D01*
X84132468Y-95406927D01*
X85105395Y-94434000D01*
X85464605Y-94434000D01*
X86437532Y-95406927D01*
X86704387Y-95308264D01*
X86930908Y-94698539D01*
X86906856Y-94048540D01*
X86704387Y-93559736D01*
X86437532Y-93461073D01*
X85464605Y-94434000D01*
X85105395Y-94434000D01*
X84132468Y-93461073D01*
X83865613Y-93559736D01*
X83639092Y-94169461D01*
X75725479Y-94169461D01*
X75269102Y-93993516D01*
X74494575Y-94012676D01*
X73867997Y-94272213D01*
X73798499Y-94424168D01*
X73798499Y-93475832D01*
X73867997Y-93627787D01*
X74590898Y-93906484D01*
X75365425Y-93887324D01*
X75992003Y-93627787D01*
X76128888Y-93328493D01*
X76081863Y-93281468D01*
X84312073Y-93281468D01*
X85285000Y-94254395D01*
X86257927Y-93281468D01*
X86159264Y-93014613D01*
X85549539Y-92788092D01*
X84899540Y-92812144D01*
X84410736Y-93014613D01*
X84312073Y-93281468D01*
X76081863Y-93281468D01*
X74930000Y-92129605D01*
X74915858Y-92143748D01*
X74736253Y-91964143D01*
X74750395Y-91950000D01*
X75109605Y-91950000D01*
X76308493Y-93148888D01*
X76607787Y-93012003D01*
X76886484Y-92289102D01*
X76867324Y-91514575D01*
X76607787Y-90887997D01*
X76308493Y-90751112D01*
X75109605Y-91950000D01*
X74750395Y-91950000D01*
X74736253Y-91935858D01*
X74915858Y-91756253D01*
X74930000Y-91770395D01*
X76128888Y-90571507D01*
X75992003Y-90272213D01*
X75269102Y-89993516D01*
X74494575Y-90012676D01*
X73867997Y-90272213D01*
X73798499Y-90424168D01*
X73798499Y-90069328D01*
X74160059Y-89707769D01*
X74160061Y-89707766D01*
X74317548Y-89550279D01*
X75120608Y-89877147D01*
X75263444Y-89916616D01*
X83518444Y-91186616D01*
X83615000Y-91194000D01*
X86790000Y-91194000D01*
X87049901Y-91138376D01*
X87251835Y-90994814D01*
X87383459Y-90784903D01*
X89040714Y-86431202D01*
X101791063Y-78507171D01*
X101791063Y-79618694D01*
X101781641Y-79666063D01*
X101791063Y-79713432D01*
X101791063Y-79713435D01*
X101818971Y-79853739D01*
X101925282Y-80012844D01*
X101965443Y-80039679D01*
X102724000Y-80798236D01*
X102724000Y-81054351D01*
X102842900Y-81341401D01*
X103062599Y-81561100D01*
X103349649Y-81680000D01*
X103660351Y-81680000D01*
X103947401Y-81561100D01*
X104167100Y-81341401D01*
X104286000Y-81054351D01*
X104286000Y-80743649D01*
X104167100Y-80456599D01*
X103947401Y-80236900D01*
X103660351Y-80118000D01*
X103404236Y-80118000D01*
X102753063Y-79466827D01*
X102753063Y-77909311D01*
X103205181Y-77628331D01*
X103319013Y-77538013D01*
X103456664Y-77332004D01*
X103505000Y-77089000D01*
X103505000Y-67549000D01*
X124781000Y-67549000D01*
X124781000Y-69327000D01*
X124829336Y-69570004D01*
X124966987Y-69776013D01*
X125172996Y-69913664D01*
X125416000Y-69962000D01*
X135195000Y-69962000D01*
X135424910Y-69918917D01*
X135633926Y-69785878D01*
X144396926Y-61403878D01*
X144544664Y-61188004D01*
X144562766Y-61097000D01*
X144670305Y-61097000D01*
X145986474Y-60551825D01*
X146993825Y-59544474D01*
X147539000Y-58228305D01*
X147539000Y-56803695D01*
X146993825Y-55487526D01*
X145986474Y-54480175D01*
X144670305Y-53935000D01*
X144562766Y-53935000D01*
X144544664Y-53843996D01*
X144407013Y-53637987D01*
X144201004Y-53500336D01*
X143958000Y-53452000D01*
X131893000Y-53452000D01*
X131742028Y-53470208D01*
X131517484Y-53574933D01*
X129780120Y-54849000D01*
X128083000Y-54849000D01*
X127839996Y-54897336D01*
X127633987Y-55034987D01*
X127496336Y-55240996D01*
X127448000Y-55484000D01*
X127448000Y-59068412D01*
X124810892Y-67356466D01*
X124781000Y-67549000D01*
X103505000Y-67549000D01*
X103505000Y-65614012D01*
X103511381Y-65614012D01*
X103798431Y-65495112D01*
X103979531Y-65314012D01*
X104232819Y-65314012D01*
X104280188Y-65323434D01*
X104327557Y-65314012D01*
X104327561Y-65314012D01*
X104467865Y-65286104D01*
X104626969Y-65179793D01*
X104653804Y-65139632D01*
X106223636Y-63569800D01*
X106479751Y-63569800D01*
X106766801Y-63450900D01*
X106986500Y-63231201D01*
X107105400Y-62944151D01*
X107105400Y-62633449D01*
X106986500Y-62346399D01*
X106766801Y-62126700D01*
X106479751Y-62007800D01*
X106169049Y-62007800D01*
X105881999Y-62126700D01*
X105662300Y-62346399D01*
X105543400Y-62633449D01*
X105543400Y-62889564D01*
X104080952Y-64352012D01*
X103979531Y-64352012D01*
X103798431Y-64170912D01*
X103511381Y-64052012D01*
X103505000Y-64052012D01*
X103505000Y-62112026D01*
X104892026Y-60725000D01*
X104930351Y-60725000D01*
X105217401Y-60606100D01*
X105437100Y-60386401D01*
X105556000Y-60099351D01*
X105556000Y-60061026D01*
X105614290Y-60002736D01*
X105642658Y-59997093D01*
X105801762Y-59890782D01*
X105828597Y-59850621D01*
X113355219Y-52324000D01*
X116840000Y-52324000D01*
X117141311Y-52247960D01*
X117235625Y-52170000D01*
X118121499Y-52170000D01*
X118302599Y-52351100D01*
X118589649Y-52470000D01*
X118900351Y-52470000D01*
X119187401Y-52351100D01*
X119407100Y-52131401D01*
X119526000Y-51844351D01*
X119526000Y-51533649D01*
X119407100Y-51246599D01*
X119187401Y-51026900D01*
X118900351Y-50908000D01*
X118589649Y-50908000D01*
X118302599Y-51026900D01*
X118121499Y-51208000D01*
X118051011Y-51208000D01*
X123623280Y-44369105D01*
X123717664Y-44211004D01*
X123766000Y-43968000D01*
X123766000Y-43079000D01*
X130637986Y-43079000D01*
X130752929Y-43656857D01*
X131080259Y-44146741D01*
X131570143Y-44474071D01*
X132002137Y-44560000D01*
X132293863Y-44560000D01*
X132725857Y-44474071D01*
X133215741Y-44146741D01*
X133543071Y-43656857D01*
X133658014Y-43079000D01*
X133543071Y-42501143D01*
X133215741Y-42011259D01*
X132725857Y-41683929D01*
X132293863Y-41598000D01*
X132002137Y-41598000D01*
X131570143Y-41683929D01*
X131080259Y-42011259D01*
X130752929Y-42501143D01*
X130637986Y-43079000D01*
X123766000Y-43079000D01*
X123766000Y-41936000D01*
X123717664Y-41692996D01*
X123580013Y-41486987D01*
X123374004Y-41349336D01*
X123131000Y-41301000D01*
X120591000Y-41301000D01*
X120385458Y-41335186D01*
X101181386Y-47905000D01*
X99602000Y-47905000D01*
X99602000Y-47870250D01*
X99443250Y-47711500D01*
X98619000Y-47711500D01*
X98619000Y-47731500D01*
X98365000Y-47731500D01*
X98365000Y-47711500D01*
X97540750Y-47711500D01*
X97382000Y-47870250D01*
X97382000Y-47905000D01*
X95644438Y-47905000D01*
X95903173Y-47428684D01*
X95917318Y-47357185D01*
X95794656Y-47143000D01*
X94302000Y-47143000D01*
X94302000Y-47163000D01*
X94048000Y-47163000D01*
X94048000Y-47143000D01*
X92555344Y-47143000D01*
X92432682Y-47357185D01*
X92446827Y-47428684D01*
X92705855Y-47905540D01*
X92808040Y-47988256D01*
X68171954Y-56302338D01*
X67925987Y-56454987D01*
X67788336Y-56660996D01*
X67740000Y-56904000D01*
X67740000Y-60079000D01*
X67788336Y-60322004D01*
X67925987Y-60528013D01*
X74725000Y-67327026D01*
X74725000Y-69604000D01*
X74759720Y-69811096D01*
X74884666Y-70025049D01*
X76653035Y-72021410D01*
X76616646Y-78565517D01*
X76601394Y-78488841D01*
X76517186Y-78362814D01*
X76391159Y-78278606D01*
X76242500Y-78249036D01*
X73617500Y-78249036D01*
X73468841Y-78278606D01*
X73342814Y-78362814D01*
X73258606Y-78488841D01*
X73229036Y-78637500D01*
X73229036Y-81262500D01*
X73258606Y-81411159D01*
X73342814Y-81537186D01*
X73468841Y-81621394D01*
X73617500Y-81650964D01*
X76242500Y-81650964D01*
X76391159Y-81621394D01*
X76517186Y-81537186D01*
X76600817Y-81412022D01*
X76589040Y-83529949D01*
X76365680Y-82990709D01*
X75889291Y-82514320D01*
X75266858Y-82256500D01*
X74593142Y-82256500D01*
X73970709Y-82514320D01*
X73494320Y-82990709D01*
X73236500Y-83613142D01*
X73236500Y-84286858D01*
X73270778Y-84369613D01*
X71220372Y-83643500D01*
X71266858Y-83643500D01*
X71889291Y-83385680D01*
X72365680Y-82909291D01*
X72623500Y-82286858D01*
X72623500Y-81613142D01*
X72365680Y-80990709D01*
X71889291Y-80514320D01*
X71266858Y-80256500D01*
X70593142Y-80256500D01*
X69970709Y-80514320D01*
X69494320Y-80990709D01*
X69236500Y-81613142D01*
X69236500Y-82286858D01*
X69494320Y-82909291D01*
X69970709Y-83385680D01*
X70593142Y-83643500D01*
X70640322Y-83643500D01*
X70465987Y-83759987D01*
X69195987Y-85029987D01*
X69106375Y-85142685D01*
X69018673Y-85374408D01*
X69026324Y-85622055D01*
X69405074Y-87260055D01*
X69577507Y-87568765D01*
X69784358Y-87705147D01*
X71138942Y-88256500D01*
X70593142Y-88256500D01*
X69970709Y-88514320D01*
X69494320Y-88990709D01*
X69236500Y-89613142D01*
X69236500Y-90286858D01*
X69494320Y-90909291D01*
X69970709Y-91385680D01*
X70593142Y-91643500D01*
X71266858Y-91643500D01*
X71889291Y-91385680D01*
X72365680Y-90909291D01*
X72401500Y-90822814D01*
X72401500Y-93077186D01*
X72365680Y-92990709D01*
X71889291Y-92514320D01*
X71266858Y-92256500D01*
X70593142Y-92256500D01*
X69970709Y-92514320D01*
X69494320Y-92990709D01*
X69324282Y-93401217D01*
X69187900Y-93537599D01*
X69069000Y-93824649D01*
X69069000Y-94135351D01*
X69187900Y-94422401D01*
X69366709Y-94601210D01*
X69433952Y-94763550D01*
X69309865Y-94887637D01*
X69269566Y-94914564D01*
X69162902Y-95074199D01*
X69134901Y-95214970D01*
X69125447Y-95262499D01*
X69134901Y-95310027D01*
X69134901Y-95451469D01*
X68623500Y-95962871D01*
X68623500Y-95613142D01*
X68365680Y-94990709D01*
X67889291Y-94514320D01*
X67266858Y-94256500D01*
X66593142Y-94256500D01*
X65970709Y-94514320D01*
X65494320Y-94990709D01*
X65236500Y-95613142D01*
X65236500Y-96286858D01*
X65433952Y-96763550D01*
X64201842Y-97995660D01*
X64161543Y-98022587D01*
X64054879Y-98182222D01*
X64026878Y-98322993D01*
X64017424Y-98370522D01*
X59687000Y-98370522D01*
X59687000Y-91613142D01*
X65236500Y-91613142D01*
X65236500Y-92286858D01*
X65494320Y-92909291D01*
X65970709Y-93385680D01*
X66593142Y-93643500D01*
X67266858Y-93643500D01*
X67889291Y-93385680D01*
X68365680Y-92909291D01*
X68623500Y-92286858D01*
X68623500Y-91613142D01*
X68365680Y-90990709D01*
X67889291Y-90514320D01*
X67266858Y-90256500D01*
X66593142Y-90256500D01*
X65970709Y-90514320D01*
X65494320Y-90990709D01*
X65236500Y-91613142D01*
X59687000Y-91613142D01*
X59687000Y-87613142D01*
X65236500Y-87613142D01*
X65236500Y-88286858D01*
X65494320Y-88909291D01*
X65970709Y-89385680D01*
X66593142Y-89643500D01*
X67266858Y-89643500D01*
X67889291Y-89385680D01*
X68365680Y-88909291D01*
X68623500Y-88286858D01*
X68623500Y-87613142D01*
X68365680Y-86990709D01*
X67889291Y-86514320D01*
X67266858Y-86256500D01*
X66593142Y-86256500D01*
X65970709Y-86514320D01*
X65494320Y-86990709D01*
X65236500Y-87613142D01*
X59687000Y-87613142D01*
X59687000Y-83613142D01*
X65236500Y-83613142D01*
X65236500Y-84286858D01*
X65494320Y-84909291D01*
X65970709Y-85385680D01*
X66593142Y-85643500D01*
X67266858Y-85643500D01*
X67889291Y-85385680D01*
X68365680Y-84909291D01*
X68623500Y-84286858D01*
X68623500Y-83613142D01*
X68365680Y-82990709D01*
X67889291Y-82514320D01*
X67266858Y-82256500D01*
X66593142Y-82256500D01*
X65970709Y-82514320D01*
X65494320Y-82990709D01*
X65236500Y-83613142D01*
X59687000Y-83613142D01*
X59687000Y-79613142D01*
X65236500Y-79613142D01*
X65236500Y-80286858D01*
X65494320Y-80909291D01*
X65970709Y-81385680D01*
X66593142Y-81643500D01*
X67266858Y-81643500D01*
X67889291Y-81385680D01*
X68365680Y-80909291D01*
X68623500Y-80286858D01*
X68623500Y-79613142D01*
X68365680Y-78990709D01*
X67889291Y-78514320D01*
X67266858Y-78256500D01*
X66593142Y-78256500D01*
X65970709Y-78514320D01*
X65494320Y-78990709D01*
X65236500Y-79613142D01*
X59687000Y-79613142D01*
X59687000Y-68475302D01*
X62249000Y-68475302D01*
X62249000Y-69024698D01*
X62459245Y-69532273D01*
X62847727Y-69920755D01*
X63355302Y-70131000D01*
X63904698Y-70131000D01*
X64412273Y-69920755D01*
X64800755Y-69532273D01*
X65011000Y-69024698D01*
X65011000Y-68475302D01*
X64800755Y-67967727D01*
X64412273Y-67579245D01*
X63904698Y-67369000D01*
X63355302Y-67369000D01*
X62847727Y-67579245D01*
X62459245Y-67967727D01*
X62249000Y-68475302D01*
X59687000Y-68475302D01*
X59687000Y-44986311D01*
X59733743Y-44462553D01*
X61780000Y-44462553D01*
X61780000Y-45469447D01*
X62165322Y-46399696D01*
X62877304Y-47111678D01*
X63807553Y-47497000D01*
X64814447Y-47497000D01*
X65744696Y-47111678D01*
X65835683Y-47020691D01*
X97382000Y-47020691D01*
X97382000Y-47298750D01*
X97540750Y-47457500D01*
X98365000Y-47457500D01*
X98365000Y-46670750D01*
X98619000Y-46670750D01*
X98619000Y-47457500D01*
X99443250Y-47457500D01*
X99602000Y-47298750D01*
X99602000Y-47020691D01*
X99505327Y-46787302D01*
X99326699Y-46608673D01*
X99093310Y-46512000D01*
X98777750Y-46512000D01*
X98619000Y-46670750D01*
X98365000Y-46670750D01*
X98206250Y-46512000D01*
X97890690Y-46512000D01*
X97657301Y-46608673D01*
X97478673Y-46787302D01*
X97382000Y-47020691D01*
X65835683Y-47020691D01*
X66181559Y-46674815D01*
X92432682Y-46674815D01*
X92555344Y-46889000D01*
X94048000Y-46889000D01*
X94048000Y-45631000D01*
X94302000Y-45631000D01*
X94302000Y-46889000D01*
X95794656Y-46889000D01*
X95917318Y-46674815D01*
X95903173Y-46603316D01*
X95644145Y-46126460D01*
X95222349Y-45785028D01*
X94702000Y-45631000D01*
X94302000Y-45631000D01*
X94048000Y-45631000D01*
X93648000Y-45631000D01*
X93127651Y-45785028D01*
X92705855Y-46126460D01*
X92446827Y-46603316D01*
X92432682Y-46674815D01*
X66181559Y-46674815D01*
X66456678Y-46399696D01*
X66842000Y-45469447D01*
X66842000Y-44476000D01*
X92621843Y-44476000D01*
X92709622Y-44917294D01*
X92959595Y-45291405D01*
X93333706Y-45541378D01*
X93663609Y-45607000D01*
X94686391Y-45607000D01*
X95016294Y-45541378D01*
X95390405Y-45291405D01*
X95640378Y-44917294D01*
X95728157Y-44476000D01*
X95640378Y-44034706D01*
X95390405Y-43660595D01*
X95016294Y-43410622D01*
X94686391Y-43345000D01*
X93663609Y-43345000D01*
X93333706Y-43410622D01*
X92959595Y-43660595D01*
X92709622Y-44034706D01*
X92621843Y-44476000D01*
X66842000Y-44476000D01*
X66842000Y-44462553D01*
X66456678Y-43532304D01*
X65744696Y-42820322D01*
X64814447Y-42435000D01*
X63807553Y-42435000D01*
X62877304Y-42820322D01*
X62165322Y-43532304D01*
X61780000Y-44462553D01*
X59733743Y-44462553D01*
X59761863Y-44147479D01*
X59978705Y-43354839D01*
X60332492Y-42613111D01*
X60812027Y-41945768D01*
X61402165Y-41373884D01*
X62084247Y-40915544D01*
X62836708Y-40585237D01*
X63639287Y-40392555D01*
X64327716Y-40342000D01*
X148463000Y-40342000D01*
X148463000Y-54864000D01*
G36*
X86946000Y-121712259D02*
X86946000Y-122022961D01*
X87064900Y-122310011D01*
X87284599Y-122529710D01*
X87571649Y-122648610D01*
X87825502Y-122648610D01*
X88279892Y-123103000D01*
X88079649Y-123103000D01*
X87792599Y-123221900D01*
X87572900Y-123441599D01*
X87454000Y-123728649D01*
X87454000Y-124039351D01*
X87572900Y-124326401D01*
X87792599Y-124546100D01*
X88079649Y-124665000D01*
X88333502Y-124665000D01*
X89190298Y-125521797D01*
X89161159Y-125516001D01*
X89161155Y-125516001D01*
X89113786Y-125506579D01*
X89066417Y-125516001D01*
X87971500Y-125516001D01*
X86734261Y-124278763D01*
X86707334Y-124238464D01*
X86547700Y-124131800D01*
X86406928Y-124103799D01*
X86406927Y-124103799D01*
X86359399Y-124094345D01*
X86311871Y-124103799D01*
X81712083Y-124103799D01*
X81838645Y-123964924D01*
X82008476Y-123554890D01*
X81887155Y-123325000D01*
X80694000Y-123325000D01*
X80694000Y-123345000D01*
X80440000Y-123345000D01*
X80440000Y-123325000D01*
X80420000Y-123325000D01*
X80420000Y-123071000D01*
X80440000Y-123071000D01*
X80440000Y-121877181D01*
X80694000Y-121877181D01*
X80694000Y-123071000D01*
X81887155Y-123071000D01*
X82008476Y-122841110D01*
X81838645Y-122431076D01*
X81448358Y-122002817D01*
X80923892Y-121756514D01*
X80694000Y-121877181D01*
X80440000Y-121877181D01*
X80210108Y-121756514D01*
X80098635Y-121808865D01*
X80196929Y-121710571D01*
X85901918Y-121710571D01*
X85949446Y-121720025D01*
X85996974Y-121710571D01*
X85996975Y-121710571D01*
X86137747Y-121682570D01*
X86188587Y-121648600D01*
X86972368Y-121648600D01*
X86946000Y-121712259D01*
X86946000Y-121712259D01*
G37*
X86946000Y-121712259D02*
X86946000Y-122022961D01*
X87064900Y-122310011D01*
X87284599Y-122529710D01*
X87571649Y-122648610D01*
X87825502Y-122648610D01*
X88279892Y-123103000D01*
X88079649Y-123103000D01*
X87792599Y-123221900D01*
X87572900Y-123441599D01*
X87454000Y-123728649D01*
X87454000Y-124039351D01*
X87572900Y-124326401D01*
X87792599Y-124546100D01*
X88079649Y-124665000D01*
X88333502Y-124665000D01*
X89190298Y-125521797D01*
X89161159Y-125516001D01*
X89161155Y-125516001D01*
X89113786Y-125506579D01*
X89066417Y-125516001D01*
X87971500Y-125516001D01*
X86734261Y-124278763D01*
X86707334Y-124238464D01*
X86547700Y-124131800D01*
X86406928Y-124103799D01*
X86406927Y-124103799D01*
X86359399Y-124094345D01*
X86311871Y-124103799D01*
X81712083Y-124103799D01*
X81838645Y-123964924D01*
X82008476Y-123554890D01*
X81887155Y-123325000D01*
X80694000Y-123325000D01*
X80694000Y-123345000D01*
X80440000Y-123345000D01*
X80440000Y-123325000D01*
X80420000Y-123325000D01*
X80420000Y-123071000D01*
X80440000Y-123071000D01*
X80440000Y-121877181D01*
X80694000Y-121877181D01*
X80694000Y-123071000D01*
X81887155Y-123071000D01*
X82008476Y-122841110D01*
X81838645Y-122431076D01*
X81448358Y-122002817D01*
X80923892Y-121756514D01*
X80694000Y-121877181D01*
X80440000Y-121877181D01*
X80210108Y-121756514D01*
X80098635Y-121808865D01*
X80196929Y-121710571D01*
X85901918Y-121710571D01*
X85949446Y-121720025D01*
X85996974Y-121710571D01*
X85996975Y-121710571D01*
X86137747Y-121682570D01*
X86188587Y-121648600D01*
X86972368Y-121648600D01*
X86946000Y-121712259D01*
G04 #@! TO.N,Net-(C2-Pad1)*
G36*
X143831000Y-60890734D02*
X135144040Y-69200000D01*
X125543000Y-69200000D01*
X125543000Y-67568719D01*
X128204022Y-59205507D01*
X128210000Y-59167000D01*
X128210000Y-55611000D01*
X129988000Y-55611000D01*
X130036601Y-55601333D01*
X130063103Y-55586413D01*
X131934575Y-54214000D01*
X143831000Y-54214000D01*
X143831000Y-60890734D01*
X143831000Y-60890734D01*
G37*
X143831000Y-60890734D02*
X135144040Y-69200000D01*
X125543000Y-69200000D01*
X125543000Y-67568719D01*
X128204022Y-59205507D01*
X128210000Y-59167000D01*
X128210000Y-55611000D01*
X129988000Y-55611000D01*
X130036601Y-55601333D01*
X130063103Y-55586413D01*
X131934575Y-54214000D01*
X143831000Y-54214000D01*
X143831000Y-60890734D01*
G04 #@! TD*
M02*
