G04 #@! TF.GenerationSoftware,KiCad,Pcbnew,(5.0.2)-1*
G04 #@! TF.CreationDate,2019-04-05T10:25:57-04:00*
G04 #@! TF.ProjectId,interface-board,696e7465-7266-4616-9365-2d626f617264,rev?*
G04 #@! TF.SameCoordinates,Original*
G04 #@! TF.FileFunction,Legend,Top*
G04 #@! TF.FilePolarity,Positive*
%FSLAX46Y46*%
G04 Gerber Fmt 4.6, Leading zero omitted, Abs format (unit mm)*
G04 Created by KiCad (PCBNEW (5.0.2)-1) date 4/5/2019 10:25:57 AM*
%MOMM*%
%LPD*%
G01*
G04 APERTURE LIST*
%ADD10C,0.254000*%
%ADD11C,0.457200*%
%ADD12C,0.300000*%
%ADD13C,0.700000*%
%ADD14C,1.000000*%
%ADD15C,0.500000*%
%ADD16C,0.010000*%
%ADD17C,0.127000*%
%ADD18C,0.180000*%
%ADD19C,0.120000*%
%ADD20C,0.150000*%
%ADD21C,0.050000*%
G04 APERTURE END LIST*
D10*
X205111652Y-61813923D02*
X205837366Y-61813923D01*
X205474509Y-63083923D02*
X205474509Y-61813923D01*
X206986414Y-63083923D02*
X206563080Y-62479161D01*
X206260700Y-63083923D02*
X206260700Y-61813923D01*
X206744509Y-61813923D01*
X206865461Y-61874400D01*
X206925938Y-61934876D01*
X206986414Y-62055828D01*
X206986414Y-62237257D01*
X206925938Y-62358209D01*
X206865461Y-62418685D01*
X206744509Y-62479161D01*
X206260700Y-62479161D01*
X207530700Y-63083923D02*
X207530700Y-61813923D01*
X208135461Y-63083923D02*
X208135461Y-61813923D01*
X208558795Y-62721066D01*
X208982128Y-61813923D01*
X208982128Y-63083923D01*
X205293080Y-64577685D02*
X205716414Y-64577685D01*
X205897842Y-65242923D02*
X205293080Y-65242923D01*
X205293080Y-63972923D01*
X205897842Y-63972923D01*
X206442128Y-65242923D02*
X206442128Y-63972923D01*
X207167842Y-65242923D01*
X207167842Y-63972923D01*
X205716414Y-66736685D02*
X205293080Y-66736685D01*
X205293080Y-67401923D02*
X205293080Y-66131923D01*
X205897842Y-66131923D01*
X206321176Y-67039066D02*
X206925938Y-67039066D01*
X206200223Y-67401923D02*
X206623557Y-66131923D01*
X207046890Y-67401923D01*
X207470223Y-66131923D02*
X207470223Y-67160019D01*
X207530700Y-67280971D01*
X207591176Y-67341447D01*
X207712128Y-67401923D01*
X207954033Y-67401923D01*
X208074985Y-67341447D01*
X208135461Y-67280971D01*
X208195938Y-67160019D01*
X208195938Y-66131923D01*
X209405461Y-67401923D02*
X208800700Y-67401923D01*
X208800700Y-66131923D01*
X209647366Y-66131923D02*
X210373080Y-66131923D01*
X210010223Y-67401923D02*
X210010223Y-66131923D01*
D11*
X135110703Y-57538257D02*
X138981180Y-57538257D01*
X137045941Y-59473495D02*
X137045941Y-55603019D01*
X135110703Y-73692657D02*
X138981180Y-73692657D01*
D12*
X69105285Y-115249571D02*
X68391000Y-115249571D01*
X68319571Y-115963857D01*
X68391000Y-115892428D01*
X68533857Y-115821000D01*
X68891000Y-115821000D01*
X69033857Y-115892428D01*
X69105285Y-115963857D01*
X69176714Y-116106714D01*
X69176714Y-116463857D01*
X69105285Y-116606714D01*
X69033857Y-116678142D01*
X68891000Y-116749571D01*
X68533857Y-116749571D01*
X68391000Y-116678142D01*
X68319571Y-116606714D01*
X69605285Y-115249571D02*
X70105285Y-116749571D01*
X70605285Y-115249571D01*
X68248142Y-117871000D02*
X68105285Y-117799571D01*
X67891000Y-117799571D01*
X67676714Y-117871000D01*
X67533857Y-118013857D01*
X67462428Y-118156714D01*
X67391000Y-118442428D01*
X67391000Y-118656714D01*
X67462428Y-118942428D01*
X67533857Y-119085285D01*
X67676714Y-119228142D01*
X67891000Y-119299571D01*
X68033857Y-119299571D01*
X68248142Y-119228142D01*
X68319571Y-119156714D01*
X68319571Y-118656714D01*
X68033857Y-118656714D01*
X68962428Y-119299571D02*
X68962428Y-117799571D01*
X69819571Y-119299571D01*
X69819571Y-117799571D01*
X70533857Y-119299571D02*
X70533857Y-117799571D01*
X70891000Y-117799571D01*
X71105285Y-117871000D01*
X71248142Y-118013857D01*
X71319571Y-118156714D01*
X71391000Y-118442428D01*
X71391000Y-118656714D01*
X71319571Y-118942428D01*
X71248142Y-119085285D01*
X71105285Y-119228142D01*
X70891000Y-119299571D01*
X70533857Y-119299571D01*
X68248142Y-120349571D02*
X69105285Y-120349571D01*
X68676714Y-121849571D02*
X68676714Y-120349571D01*
X69462428Y-120349571D02*
X70462428Y-121849571D01*
X70462428Y-120349571D02*
X69462428Y-121849571D01*
X69141000Y-124399571D02*
X68641000Y-123685285D01*
X68283857Y-124399571D02*
X68283857Y-122899571D01*
X68855285Y-122899571D01*
X68998142Y-122971000D01*
X69069571Y-123042428D01*
X69141000Y-123185285D01*
X69141000Y-123399571D01*
X69069571Y-123542428D01*
X68998142Y-123613857D01*
X68855285Y-123685285D01*
X68283857Y-123685285D01*
X69641000Y-122899571D02*
X70641000Y-124399571D01*
X70641000Y-122899571D02*
X69641000Y-124399571D01*
X69538142Y-125424571D02*
X69538142Y-126638857D01*
X69609571Y-126781714D01*
X69681000Y-126853142D01*
X69823857Y-126924571D01*
X70109571Y-126924571D01*
X70252428Y-126853142D01*
X70323857Y-126781714D01*
X70395285Y-126638857D01*
X70395285Y-125424571D01*
X71038142Y-126496000D02*
X71752428Y-126496000D01*
X70895285Y-126924571D02*
X71395285Y-125424571D01*
X71895285Y-126924571D01*
X73252428Y-126924571D02*
X72752428Y-126210285D01*
X72395285Y-126924571D02*
X72395285Y-125424571D01*
X72966714Y-125424571D01*
X73109571Y-125496000D01*
X73181000Y-125567428D01*
X73252428Y-125710285D01*
X73252428Y-125924571D01*
X73181000Y-126067428D01*
X73109571Y-126138857D01*
X72966714Y-126210285D01*
X72395285Y-126210285D01*
X73681000Y-125424571D02*
X74538142Y-125424571D01*
X74109571Y-126924571D02*
X74109571Y-125424571D01*
X81194714Y-113005571D02*
X81194714Y-111505571D01*
X82766142Y-112862714D02*
X82694714Y-112934142D01*
X82480428Y-113005571D01*
X82337571Y-113005571D01*
X82123285Y-112934142D01*
X81980428Y-112791285D01*
X81909000Y-112648428D01*
X81837571Y-112362714D01*
X81837571Y-112148428D01*
X81909000Y-111862714D01*
X81980428Y-111719857D01*
X82123285Y-111577000D01*
X82337571Y-111505571D01*
X82480428Y-111505571D01*
X82694714Y-111577000D01*
X82766142Y-111648428D01*
X83337571Y-112934142D02*
X83551857Y-113005571D01*
X83909000Y-113005571D01*
X84051857Y-112934142D01*
X84123285Y-112862714D01*
X84194714Y-112719857D01*
X84194714Y-112577000D01*
X84123285Y-112434142D01*
X84051857Y-112362714D01*
X83909000Y-112291285D01*
X83623285Y-112219857D01*
X83480428Y-112148428D01*
X83409000Y-112077000D01*
X83337571Y-111934142D01*
X83337571Y-111791285D01*
X83409000Y-111648428D01*
X83480428Y-111577000D01*
X83623285Y-111505571D01*
X83980428Y-111505571D01*
X84194714Y-111577000D01*
X84837571Y-113005571D02*
X84837571Y-111505571D01*
X85409000Y-111505571D01*
X85551857Y-111577000D01*
X85623285Y-111648428D01*
X85694714Y-111791285D01*
X85694714Y-112005571D01*
X85623285Y-112148428D01*
X85551857Y-112219857D01*
X85409000Y-112291285D01*
X84837571Y-112291285D01*
D13*
X182905714Y-93753142D02*
X182905714Y-90753142D01*
X183620000Y-90753142D01*
X184048571Y-90896000D01*
X184334285Y-91181714D01*
X184477142Y-91467428D01*
X184620000Y-92038857D01*
X184620000Y-92467428D01*
X184477142Y-93038857D01*
X184334285Y-93324571D01*
X184048571Y-93610285D01*
X183620000Y-93753142D01*
X182905714Y-93753142D01*
X185762857Y-92896000D02*
X187191428Y-92896000D01*
X185477142Y-93753142D02*
X186477142Y-90753142D01*
X187477142Y-93753142D01*
X188477142Y-93753142D02*
X188477142Y-90753142D01*
X190191428Y-93753142D01*
X190191428Y-90753142D01*
X193191428Y-90896000D02*
X192905714Y-90753142D01*
X192477142Y-90753142D01*
X192048571Y-90896000D01*
X191762857Y-91181714D01*
X191620000Y-91467428D01*
X191477142Y-92038857D01*
X191477142Y-92467428D01*
X191620000Y-93038857D01*
X191762857Y-93324571D01*
X192048571Y-93610285D01*
X192477142Y-93753142D01*
X192762857Y-93753142D01*
X193191428Y-93610285D01*
X193334285Y-93467428D01*
X193334285Y-92467428D01*
X192762857Y-92467428D01*
X194620000Y-92181714D02*
X195620000Y-92181714D01*
X196048571Y-93753142D02*
X194620000Y-93753142D01*
X194620000Y-90753142D01*
X196048571Y-90753142D01*
X199048571Y-93753142D02*
X198048571Y-92324571D01*
X197334285Y-93753142D02*
X197334285Y-90753142D01*
X198477142Y-90753142D01*
X198762857Y-90896000D01*
X198905714Y-91038857D01*
X199048571Y-91324571D01*
X199048571Y-91753142D01*
X198905714Y-92038857D01*
X198762857Y-92181714D01*
X198477142Y-92324571D01*
X197334285Y-92324571D01*
X200334285Y-93467428D02*
X200477142Y-93610285D01*
X200334285Y-93753142D01*
X200191428Y-93610285D01*
X200334285Y-93467428D01*
X200334285Y-93753142D01*
X200334285Y-91896000D02*
X200477142Y-92038857D01*
X200334285Y-92181714D01*
X200191428Y-92038857D01*
X200334285Y-91896000D01*
X200334285Y-92181714D01*
X204048571Y-93753142D02*
X204048571Y-90753142D01*
X204048571Y-92181714D02*
X205762857Y-92181714D01*
X205762857Y-93753142D02*
X205762857Y-90753142D01*
X207191428Y-93753142D02*
X207191428Y-90753142D01*
X210191428Y-90896000D02*
X209905714Y-90753142D01*
X209477142Y-90753142D01*
X209048571Y-90896000D01*
X208762857Y-91181714D01*
X208620000Y-91467428D01*
X208477142Y-92038857D01*
X208477142Y-92467428D01*
X208620000Y-93038857D01*
X208762857Y-93324571D01*
X209048571Y-93610285D01*
X209477142Y-93753142D01*
X209762857Y-93753142D01*
X210191428Y-93610285D01*
X210334285Y-93467428D01*
X210334285Y-92467428D01*
X209762857Y-92467428D01*
X211620000Y-93753142D02*
X211620000Y-90753142D01*
X211620000Y-92181714D02*
X213334285Y-92181714D01*
X213334285Y-93753142D02*
X213334285Y-90753142D01*
X197048571Y-95953142D02*
X198048571Y-98953142D01*
X199048571Y-95953142D01*
X200620000Y-95953142D02*
X201191428Y-95953142D01*
X201477142Y-96096000D01*
X201762857Y-96381714D01*
X201905714Y-96953142D01*
X201905714Y-97953142D01*
X201762857Y-98524571D01*
X201477142Y-98810285D01*
X201191428Y-98953142D01*
X200620000Y-98953142D01*
X200334285Y-98810285D01*
X200048571Y-98524571D01*
X199905714Y-97953142D01*
X199905714Y-96953142D01*
X200048571Y-96381714D01*
X200334285Y-96096000D01*
X200620000Y-95953142D01*
X204620000Y-98953142D02*
X203191428Y-98953142D01*
X203191428Y-95953142D01*
X205191428Y-95953142D02*
X206905714Y-95953142D01*
X206048571Y-98953142D02*
X206048571Y-95953142D01*
X207762857Y-98096000D02*
X209191428Y-98096000D01*
X207477142Y-98953142D02*
X208477142Y-95953142D01*
X209477142Y-98953142D01*
X212048571Y-96096000D02*
X211762857Y-95953142D01*
X211334285Y-95953142D01*
X210905714Y-96096000D01*
X210620000Y-96381714D01*
X210477142Y-96667428D01*
X210334285Y-97238857D01*
X210334285Y-97667428D01*
X210477142Y-98238857D01*
X210620000Y-98524571D01*
X210905714Y-98810285D01*
X211334285Y-98953142D01*
X211620000Y-98953142D01*
X212048571Y-98810285D01*
X212191428Y-98667428D01*
X212191428Y-97667428D01*
X211620000Y-97667428D01*
X213477142Y-97381714D02*
X214477142Y-97381714D01*
X214905714Y-98953142D02*
X213477142Y-98953142D01*
X213477142Y-95953142D01*
X214905714Y-95953142D01*
D14*
X182469000Y-53780000D02*
X182469000Y-39048000D01*
D15*
X178626000Y-48128285D02*
X178483142Y-48414000D01*
X178483142Y-48842571D01*
X178626000Y-49271142D01*
X178911714Y-49556857D01*
X179197428Y-49699714D01*
X179768857Y-49842571D01*
X180197428Y-49842571D01*
X180768857Y-49699714D01*
X181054571Y-49556857D01*
X181340285Y-49271142D01*
X181483142Y-48842571D01*
X181483142Y-48556857D01*
X181340285Y-48128285D01*
X181197428Y-47985428D01*
X180197428Y-47985428D01*
X180197428Y-48556857D01*
X181483142Y-45271142D02*
X181483142Y-46699714D01*
X178483142Y-46699714D01*
X178483142Y-44699714D02*
X181483142Y-43699714D01*
X178483142Y-42699714D01*
X183483142Y-49985428D02*
X183483142Y-48271142D01*
X186483142Y-49128285D02*
X183483142Y-49128285D01*
X186340285Y-47414000D02*
X186483142Y-46985428D01*
X186483142Y-46271142D01*
X186340285Y-45985428D01*
X186197428Y-45842571D01*
X185911714Y-45699714D01*
X185626000Y-45699714D01*
X185340285Y-45842571D01*
X185197428Y-45985428D01*
X185054571Y-46271142D01*
X184911714Y-46842571D01*
X184768857Y-47128285D01*
X184626000Y-47271142D01*
X184340285Y-47414000D01*
X184054571Y-47414000D01*
X183768857Y-47271142D01*
X183626000Y-47128285D01*
X183483142Y-46842571D01*
X183483142Y-46128285D01*
X183626000Y-45699714D01*
X183483142Y-44842571D02*
X186483142Y-43842571D01*
X183483142Y-42842571D01*
X164095339Y-102722439D02*
X163797996Y-102839176D01*
X163511225Y-103157667D01*
X163330619Y-103571748D01*
X163351765Y-103975255D01*
X163468502Y-104272599D01*
X163797567Y-104761122D01*
X164116057Y-105047893D01*
X164636301Y-105324089D01*
X164944219Y-105409106D01*
X165347726Y-105387959D01*
X165740660Y-105165059D01*
X165931840Y-104952732D01*
X166112447Y-104538651D01*
X166101873Y-104336897D01*
X165358728Y-103667767D01*
X164976368Y-104092421D01*
X168130412Y-102510970D02*
X167174511Y-103572605D01*
X164945077Y-101565214D01*
X166283338Y-100078924D02*
X169181903Y-101343171D01*
X167621599Y-98592634D01*
X166462229Y-107352628D02*
X167609310Y-106078666D01*
X169265204Y-108723039D02*
X167035769Y-106715647D01*
X170306121Y-107353486D02*
X170699055Y-107130586D01*
X171177005Y-106599768D01*
X171262022Y-106291851D01*
X171251448Y-106090097D01*
X171134711Y-105792753D01*
X170922384Y-105601573D01*
X170614467Y-105516556D01*
X170412714Y-105527130D01*
X170115370Y-105643867D01*
X169626846Y-105972931D01*
X169329502Y-106089668D01*
X169127749Y-106100241D01*
X168819831Y-106015225D01*
X168607504Y-105824045D01*
X168490767Y-105526701D01*
X168480194Y-105324947D01*
X168565210Y-105017030D01*
X169043161Y-104486212D01*
X169436095Y-104263312D01*
X169903472Y-103530740D02*
X172802037Y-104794987D01*
X171241733Y-102044451D01*
X178626000Y-84010285D02*
X178483142Y-84296000D01*
X178483142Y-84724571D01*
X178626000Y-85153142D01*
X178911714Y-85438857D01*
X179197428Y-85581714D01*
X179768857Y-85724571D01*
X180197428Y-85724571D01*
X180768857Y-85581714D01*
X181054571Y-85438857D01*
X181340285Y-85153142D01*
X181483142Y-84724571D01*
X181483142Y-84438857D01*
X181340285Y-84010285D01*
X181197428Y-83867428D01*
X180197428Y-83867428D01*
X180197428Y-84438857D01*
X181483142Y-81153142D02*
X181483142Y-82581714D01*
X178483142Y-82581714D01*
X178483142Y-80581714D02*
X181483142Y-79581714D01*
X178483142Y-78581714D01*
X183483142Y-85867428D02*
X183483142Y-84153142D01*
X186483142Y-85010285D02*
X183483142Y-85010285D01*
X186340285Y-83296000D02*
X186483142Y-82867428D01*
X186483142Y-82153142D01*
X186340285Y-81867428D01*
X186197428Y-81724571D01*
X185911714Y-81581714D01*
X185626000Y-81581714D01*
X185340285Y-81724571D01*
X185197428Y-81867428D01*
X185054571Y-82153142D01*
X184911714Y-82724571D01*
X184768857Y-83010285D01*
X184626000Y-83153142D01*
X184340285Y-83296000D01*
X184054571Y-83296000D01*
X183768857Y-83153142D01*
X183626000Y-83010285D01*
X183483142Y-82724571D01*
X183483142Y-82010285D01*
X183626000Y-81581714D01*
X183483142Y-80724571D02*
X186483142Y-79724571D01*
X183483142Y-78724571D01*
X153021000Y-140076285D02*
X152878142Y-140362000D01*
X152878142Y-140790571D01*
X153021000Y-141219142D01*
X153306714Y-141504857D01*
X153592428Y-141647714D01*
X154163857Y-141790571D01*
X154592428Y-141790571D01*
X155163857Y-141647714D01*
X155449571Y-141504857D01*
X155735285Y-141219142D01*
X155878142Y-140790571D01*
X155878142Y-140504857D01*
X155735285Y-140076285D01*
X155592428Y-139933428D01*
X154592428Y-139933428D01*
X154592428Y-140504857D01*
X155878142Y-137219142D02*
X155878142Y-138647714D01*
X152878142Y-138647714D01*
X152878142Y-136647714D02*
X155878142Y-135647714D01*
X152878142Y-134647714D01*
X157878142Y-141933428D02*
X157878142Y-140219142D01*
X160878142Y-141076285D02*
X157878142Y-141076285D01*
X160735285Y-139362000D02*
X160878142Y-138933428D01*
X160878142Y-138219142D01*
X160735285Y-137933428D01*
X160592428Y-137790571D01*
X160306714Y-137647714D01*
X160021000Y-137647714D01*
X159735285Y-137790571D01*
X159592428Y-137933428D01*
X159449571Y-138219142D01*
X159306714Y-138790571D01*
X159163857Y-139076285D01*
X159021000Y-139219142D01*
X158735285Y-139362000D01*
X158449571Y-139362000D01*
X158163857Y-139219142D01*
X158021000Y-139076285D01*
X157878142Y-138790571D01*
X157878142Y-138076285D01*
X158021000Y-137647714D01*
X157878142Y-136790571D02*
X160878142Y-135790571D01*
X157878142Y-134790571D01*
D14*
X182469000Y-87816000D02*
X182469000Y-74354000D01*
X157021000Y-116086000D02*
X182469000Y-87816000D01*
X157021000Y-149106000D02*
X157021000Y-116086000D01*
D16*
G04 #@! TO.C,G\002A\002A\002A*
G36*
X154638971Y-76310268D02*
X154677885Y-75935715D01*
X154711681Y-75772594D01*
X154872164Y-75306237D01*
X155088715Y-74932787D01*
X155299127Y-74695113D01*
X155459213Y-74496064D01*
X155511500Y-74323915D01*
X155565113Y-74112289D01*
X155704960Y-73897687D01*
X155899550Y-73724775D01*
X155957852Y-73690792D01*
X156169830Y-73629269D01*
X156499922Y-73601280D01*
X156943781Y-73606714D01*
X157497059Y-73645460D01*
X158155410Y-73717406D01*
X158442202Y-73754777D01*
X159007441Y-73825687D01*
X159633874Y-73893021D01*
X160333956Y-73957829D01*
X161120141Y-74021165D01*
X162004881Y-74084083D01*
X163000630Y-74147635D01*
X163304056Y-74165866D01*
X164073521Y-74221076D01*
X164734330Y-74289954D01*
X165304344Y-74375109D01*
X165801425Y-74479151D01*
X166189504Y-74587392D01*
X166873839Y-74844304D01*
X167447706Y-75153470D01*
X167920457Y-75525051D01*
X168301444Y-75969209D01*
X168600022Y-76496103D01*
X168825542Y-77115894D01*
X168937186Y-77572439D01*
X168974785Y-77834603D01*
X169003044Y-78192907D01*
X169021671Y-78616814D01*
X169030371Y-79075785D01*
X169028853Y-79539283D01*
X169016822Y-79976771D01*
X168993985Y-80357711D01*
X168966365Y-80610779D01*
X168872310Y-81105497D01*
X168748342Y-81489735D01*
X168589344Y-81777568D01*
X168504962Y-81879433D01*
X168364740Y-82013810D01*
X168238117Y-82080711D01*
X168069145Y-82102788D01*
X167950002Y-82104089D01*
X167625879Y-82059626D01*
X167393699Y-81927814D01*
X167251253Y-81706422D01*
X167196330Y-81393218D01*
X167195500Y-81342025D01*
X167206447Y-81174797D01*
X167236197Y-80918627D01*
X167280108Y-80609389D01*
X167329524Y-80305975D01*
X167395360Y-79878861D01*
X167431869Y-79500206D01*
X167443048Y-79109498D01*
X167435131Y-78708250D01*
X167421240Y-78361370D01*
X167403609Y-78110319D01*
X167376458Y-77923940D01*
X167334006Y-77771079D01*
X167270472Y-77620581D01*
X167211282Y-77501750D01*
X166938289Y-77080219D01*
X166581268Y-76721559D01*
X166135010Y-76423622D01*
X165594306Y-76184264D01*
X164953945Y-76001338D01*
X164208720Y-75872697D01*
X163353421Y-75796197D01*
X163036250Y-75781669D01*
X162083750Y-75747384D01*
X162527674Y-75989567D01*
X162940294Y-76257695D01*
X163327214Y-76588788D01*
X163657670Y-76952474D01*
X163900902Y-77318381D01*
X163928474Y-77372634D01*
X164021671Y-77584911D01*
X164080886Y-77784698D01*
X164115641Y-78017124D01*
X164135454Y-78327320D01*
X164136815Y-78360227D01*
X164114660Y-79032658D01*
X163988278Y-79637606D01*
X163753324Y-80186026D01*
X163405452Y-80688875D01*
X163075879Y-81035185D01*
X162547531Y-81456066D01*
X161969116Y-81770735D01*
X161317995Y-81991206D01*
X161235924Y-82011423D01*
X160856133Y-82071720D01*
X160390231Y-82099281D01*
X160115250Y-82097283D01*
X160115250Y-80310128D01*
X160580898Y-80280044D01*
X160947567Y-80226384D01*
X161242300Y-80141291D01*
X161492140Y-80016910D01*
X161724130Y-79845385D01*
X161728761Y-79841431D01*
X161979453Y-79590493D01*
X162148816Y-79323367D01*
X162247773Y-79011061D01*
X162287247Y-78624584D01*
X162287294Y-78359000D01*
X162269004Y-78033976D01*
X162227257Y-77787539D01*
X162152787Y-77572071D01*
X162120467Y-77501750D01*
X161994450Y-77298103D01*
X161794952Y-77043817D01*
X161546388Y-76769161D01*
X161454045Y-76675533D01*
X161072559Y-76328102D01*
X160704844Y-76067340D01*
X160313802Y-75874052D01*
X159862334Y-75729044D01*
X159448500Y-75637890D01*
X159082604Y-75572479D01*
X158688389Y-75509215D01*
X158287791Y-75450826D01*
X157902743Y-75400047D01*
X157555180Y-75359606D01*
X157267036Y-75332236D01*
X157060246Y-75320669D01*
X156956776Y-75327622D01*
X156879252Y-75401928D01*
X156776722Y-75557098D01*
X156688301Y-75725229D01*
X156560171Y-76102734D01*
X156485448Y-76557283D01*
X156465998Y-77049848D01*
X156503691Y-77541401D01*
X156582685Y-77931577D01*
X156782864Y-78499045D01*
X157051089Y-78974998D01*
X157400879Y-79382620D01*
X157462538Y-79440511D01*
X157920852Y-79800563D01*
X158406827Y-80060697D01*
X158939800Y-80227253D01*
X159539109Y-80306570D01*
X160115250Y-80310128D01*
X160115250Y-82097283D01*
X159874426Y-82095532D01*
X159344925Y-82061902D01*
X158837935Y-81999818D01*
X158389665Y-81910707D01*
X158337250Y-81897121D01*
X157564502Y-81629695D01*
X156870316Y-81264110D01*
X156259008Y-80804528D01*
X155734894Y-80255113D01*
X155302293Y-79620028D01*
X154965519Y-78903435D01*
X154835693Y-78520148D01*
X154749440Y-78149841D01*
X154685062Y-77708714D01*
X154644139Y-77231753D01*
X154628249Y-76753943D01*
X154638971Y-76310268D01*
X154638971Y-76310268D01*
G37*
X154638971Y-76310268D02*
X154677885Y-75935715D01*
X154711681Y-75772594D01*
X154872164Y-75306237D01*
X155088715Y-74932787D01*
X155299127Y-74695113D01*
X155459213Y-74496064D01*
X155511500Y-74323915D01*
X155565113Y-74112289D01*
X155704960Y-73897687D01*
X155899550Y-73724775D01*
X155957852Y-73690792D01*
X156169830Y-73629269D01*
X156499922Y-73601280D01*
X156943781Y-73606714D01*
X157497059Y-73645460D01*
X158155410Y-73717406D01*
X158442202Y-73754777D01*
X159007441Y-73825687D01*
X159633874Y-73893021D01*
X160333956Y-73957829D01*
X161120141Y-74021165D01*
X162004881Y-74084083D01*
X163000630Y-74147635D01*
X163304056Y-74165866D01*
X164073521Y-74221076D01*
X164734330Y-74289954D01*
X165304344Y-74375109D01*
X165801425Y-74479151D01*
X166189504Y-74587392D01*
X166873839Y-74844304D01*
X167447706Y-75153470D01*
X167920457Y-75525051D01*
X168301444Y-75969209D01*
X168600022Y-76496103D01*
X168825542Y-77115894D01*
X168937186Y-77572439D01*
X168974785Y-77834603D01*
X169003044Y-78192907D01*
X169021671Y-78616814D01*
X169030371Y-79075785D01*
X169028853Y-79539283D01*
X169016822Y-79976771D01*
X168993985Y-80357711D01*
X168966365Y-80610779D01*
X168872310Y-81105497D01*
X168748342Y-81489735D01*
X168589344Y-81777568D01*
X168504962Y-81879433D01*
X168364740Y-82013810D01*
X168238117Y-82080711D01*
X168069145Y-82102788D01*
X167950002Y-82104089D01*
X167625879Y-82059626D01*
X167393699Y-81927814D01*
X167251253Y-81706422D01*
X167196330Y-81393218D01*
X167195500Y-81342025D01*
X167206447Y-81174797D01*
X167236197Y-80918627D01*
X167280108Y-80609389D01*
X167329524Y-80305975D01*
X167395360Y-79878861D01*
X167431869Y-79500206D01*
X167443048Y-79109498D01*
X167435131Y-78708250D01*
X167421240Y-78361370D01*
X167403609Y-78110319D01*
X167376458Y-77923940D01*
X167334006Y-77771079D01*
X167270472Y-77620581D01*
X167211282Y-77501750D01*
X166938289Y-77080219D01*
X166581268Y-76721559D01*
X166135010Y-76423622D01*
X165594306Y-76184264D01*
X164953945Y-76001338D01*
X164208720Y-75872697D01*
X163353421Y-75796197D01*
X163036250Y-75781669D01*
X162083750Y-75747384D01*
X162527674Y-75989567D01*
X162940294Y-76257695D01*
X163327214Y-76588788D01*
X163657670Y-76952474D01*
X163900902Y-77318381D01*
X163928474Y-77372634D01*
X164021671Y-77584911D01*
X164080886Y-77784698D01*
X164115641Y-78017124D01*
X164135454Y-78327320D01*
X164136815Y-78360227D01*
X164114660Y-79032658D01*
X163988278Y-79637606D01*
X163753324Y-80186026D01*
X163405452Y-80688875D01*
X163075879Y-81035185D01*
X162547531Y-81456066D01*
X161969116Y-81770735D01*
X161317995Y-81991206D01*
X161235924Y-82011423D01*
X160856133Y-82071720D01*
X160390231Y-82099281D01*
X160115250Y-82097283D01*
X160115250Y-80310128D01*
X160580898Y-80280044D01*
X160947567Y-80226384D01*
X161242300Y-80141291D01*
X161492140Y-80016910D01*
X161724130Y-79845385D01*
X161728761Y-79841431D01*
X161979453Y-79590493D01*
X162148816Y-79323367D01*
X162247773Y-79011061D01*
X162287247Y-78624584D01*
X162287294Y-78359000D01*
X162269004Y-78033976D01*
X162227257Y-77787539D01*
X162152787Y-77572071D01*
X162120467Y-77501750D01*
X161994450Y-77298103D01*
X161794952Y-77043817D01*
X161546388Y-76769161D01*
X161454045Y-76675533D01*
X161072559Y-76328102D01*
X160704844Y-76067340D01*
X160313802Y-75874052D01*
X159862334Y-75729044D01*
X159448500Y-75637890D01*
X159082604Y-75572479D01*
X158688389Y-75509215D01*
X158287791Y-75450826D01*
X157902743Y-75400047D01*
X157555180Y-75359606D01*
X157267036Y-75332236D01*
X157060246Y-75320669D01*
X156956776Y-75327622D01*
X156879252Y-75401928D01*
X156776722Y-75557098D01*
X156688301Y-75725229D01*
X156560171Y-76102734D01*
X156485448Y-76557283D01*
X156465998Y-77049848D01*
X156503691Y-77541401D01*
X156582685Y-77931577D01*
X156782864Y-78499045D01*
X157051089Y-78974998D01*
X157400879Y-79382620D01*
X157462538Y-79440511D01*
X157920852Y-79800563D01*
X158406827Y-80060697D01*
X158939800Y-80227253D01*
X159539109Y-80306570D01*
X160115250Y-80310128D01*
X160115250Y-82097283D01*
X159874426Y-82095532D01*
X159344925Y-82061902D01*
X158837935Y-81999818D01*
X158389665Y-81910707D01*
X158337250Y-81897121D01*
X157564502Y-81629695D01*
X156870316Y-81264110D01*
X156259008Y-80804528D01*
X155734894Y-80255113D01*
X155302293Y-79620028D01*
X154965519Y-78903435D01*
X154835693Y-78520148D01*
X154749440Y-78149841D01*
X154685062Y-77708714D01*
X154644139Y-77231753D01*
X154628249Y-76753943D01*
X154638971Y-76310268D01*
G36*
X154599978Y-55420486D02*
X154608394Y-55153907D01*
X154626785Y-54955727D01*
X154658918Y-54796653D01*
X154708559Y-54647398D01*
X154760001Y-54523229D01*
X155063283Y-53981219D01*
X155474035Y-53506660D01*
X155992318Y-53099508D01*
X156618194Y-52759716D01*
X157351724Y-52487235D01*
X157522636Y-52437679D01*
X157721087Y-52387297D01*
X157915528Y-52350491D01*
X158131522Y-52325143D01*
X158394632Y-52309133D01*
X158730422Y-52300342D01*
X159164456Y-52296650D01*
X159226250Y-52296444D01*
X159669798Y-52296835D01*
X160012654Y-52302380D01*
X160281088Y-52315186D01*
X160501371Y-52337359D01*
X160699773Y-52371006D01*
X160902566Y-52418236D01*
X160972500Y-52436515D01*
X161698838Y-52682295D01*
X162362970Y-53012269D01*
X162953210Y-53416952D01*
X163457871Y-53886859D01*
X163865269Y-54412507D01*
X164163718Y-54984410D01*
X164188124Y-55046404D01*
X164290596Y-55411366D01*
X164357858Y-55851742D01*
X164388070Y-56324474D01*
X164379397Y-56786503D01*
X164329999Y-57194771D01*
X164287393Y-57372250D01*
X164118771Y-57831863D01*
X163894661Y-58242306D01*
X163592877Y-58638915D01*
X163289635Y-58961051D01*
X162800568Y-59391336D01*
X162293950Y-59719329D01*
X161731047Y-59967958D01*
X161417000Y-60069496D01*
X161019668Y-60156419D01*
X160537909Y-60217025D01*
X160011822Y-60249922D01*
X159924750Y-60250545D01*
X159924750Y-58481644D01*
X160505960Y-58453057D01*
X160994218Y-58361721D01*
X161410838Y-58200320D01*
X161777132Y-57961538D01*
X161985452Y-57774271D01*
X162170619Y-57559994D01*
X162340800Y-57314120D01*
X162413968Y-57181750D01*
X162489010Y-57007808D01*
X162532297Y-56845592D01*
X162549992Y-56653158D01*
X162548260Y-56388563D01*
X162544937Y-56290548D01*
X162524436Y-55964593D01*
X162486058Y-55724528D01*
X162421768Y-55529625D01*
X162375790Y-55433298D01*
X162052259Y-54943677D01*
X161642393Y-54546191D01*
X161152323Y-54245918D01*
X160759402Y-54094629D01*
X160482046Y-54036648D01*
X160112682Y-53996809D01*
X159685047Y-53975440D01*
X159232877Y-53972869D01*
X158789910Y-53989425D01*
X158389883Y-54025436D01*
X158121261Y-54068933D01*
X157565552Y-54228568D01*
X157119526Y-54451300D01*
X156781909Y-54738435D01*
X156551428Y-55091281D01*
X156426810Y-55511143D01*
X156401894Y-55833962D01*
X156457542Y-56378589D01*
X156628171Y-56869309D01*
X156913753Y-57306080D01*
X157314257Y-57688862D01*
X157829655Y-58017612D01*
X158014065Y-58109162D01*
X158583570Y-58318717D01*
X159218204Y-58441780D01*
X159924750Y-58481644D01*
X159924750Y-60250545D01*
X159481510Y-60253721D01*
X158987072Y-60227033D01*
X158568612Y-60168466D01*
X158567629Y-60168265D01*
X157771110Y-59950847D01*
X157042386Y-59641668D01*
X156389712Y-59247245D01*
X155821346Y-58774092D01*
X155345542Y-58228726D01*
X154970557Y-57617660D01*
X154782073Y-57180895D01*
X154707170Y-56966478D01*
X154655720Y-56784076D01*
X154623393Y-56600890D01*
X154605859Y-56384118D01*
X154598788Y-56100961D01*
X154597770Y-55784750D01*
X154599978Y-55420486D01*
X154599978Y-55420486D01*
G37*
X154599978Y-55420486D02*
X154608394Y-55153907D01*
X154626785Y-54955727D01*
X154658918Y-54796653D01*
X154708559Y-54647398D01*
X154760001Y-54523229D01*
X155063283Y-53981219D01*
X155474035Y-53506660D01*
X155992318Y-53099508D01*
X156618194Y-52759716D01*
X157351724Y-52487235D01*
X157522636Y-52437679D01*
X157721087Y-52387297D01*
X157915528Y-52350491D01*
X158131522Y-52325143D01*
X158394632Y-52309133D01*
X158730422Y-52300342D01*
X159164456Y-52296650D01*
X159226250Y-52296444D01*
X159669798Y-52296835D01*
X160012654Y-52302380D01*
X160281088Y-52315186D01*
X160501371Y-52337359D01*
X160699773Y-52371006D01*
X160902566Y-52418236D01*
X160972500Y-52436515D01*
X161698838Y-52682295D01*
X162362970Y-53012269D01*
X162953210Y-53416952D01*
X163457871Y-53886859D01*
X163865269Y-54412507D01*
X164163718Y-54984410D01*
X164188124Y-55046404D01*
X164290596Y-55411366D01*
X164357858Y-55851742D01*
X164388070Y-56324474D01*
X164379397Y-56786503D01*
X164329999Y-57194771D01*
X164287393Y-57372250D01*
X164118771Y-57831863D01*
X163894661Y-58242306D01*
X163592877Y-58638915D01*
X163289635Y-58961051D01*
X162800568Y-59391336D01*
X162293950Y-59719329D01*
X161731047Y-59967958D01*
X161417000Y-60069496D01*
X161019668Y-60156419D01*
X160537909Y-60217025D01*
X160011822Y-60249922D01*
X159924750Y-60250545D01*
X159924750Y-58481644D01*
X160505960Y-58453057D01*
X160994218Y-58361721D01*
X161410838Y-58200320D01*
X161777132Y-57961538D01*
X161985452Y-57774271D01*
X162170619Y-57559994D01*
X162340800Y-57314120D01*
X162413968Y-57181750D01*
X162489010Y-57007808D01*
X162532297Y-56845592D01*
X162549992Y-56653158D01*
X162548260Y-56388563D01*
X162544937Y-56290548D01*
X162524436Y-55964593D01*
X162486058Y-55724528D01*
X162421768Y-55529625D01*
X162375790Y-55433298D01*
X162052259Y-54943677D01*
X161642393Y-54546191D01*
X161152323Y-54245918D01*
X160759402Y-54094629D01*
X160482046Y-54036648D01*
X160112682Y-53996809D01*
X159685047Y-53975440D01*
X159232877Y-53972869D01*
X158789910Y-53989425D01*
X158389883Y-54025436D01*
X158121261Y-54068933D01*
X157565552Y-54228568D01*
X157119526Y-54451300D01*
X156781909Y-54738435D01*
X156551428Y-55091281D01*
X156426810Y-55511143D01*
X156401894Y-55833962D01*
X156457542Y-56378589D01*
X156628171Y-56869309D01*
X156913753Y-57306080D01*
X157314257Y-57688862D01*
X157829655Y-58017612D01*
X158014065Y-58109162D01*
X158583570Y-58318717D01*
X159218204Y-58441780D01*
X159924750Y-58481644D01*
X159924750Y-60250545D01*
X159481510Y-60253721D01*
X158987072Y-60227033D01*
X158568612Y-60168466D01*
X158567629Y-60168265D01*
X157771110Y-59950847D01*
X157042386Y-59641668D01*
X156389712Y-59247245D01*
X155821346Y-58774092D01*
X155345542Y-58228726D01*
X154970557Y-57617660D01*
X154782073Y-57180895D01*
X154707170Y-56966478D01*
X154655720Y-56784076D01*
X154623393Y-56600890D01*
X154605859Y-56384118D01*
X154598788Y-56100961D01*
X154597770Y-55784750D01*
X154599978Y-55420486D01*
G36*
X149694315Y-93899459D02*
X149739992Y-93487187D01*
X149761696Y-93374062D01*
X149970912Y-92672547D01*
X150277512Y-92003515D01*
X150668509Y-91383477D01*
X151130914Y-90828945D01*
X151651738Y-90356426D01*
X152217994Y-89982433D01*
X152558750Y-89818569D01*
X152740774Y-89745590D01*
X152896382Y-89694896D01*
X153055136Y-89662538D01*
X153246598Y-89644566D01*
X153500332Y-89637033D01*
X153845899Y-89635988D01*
X153924000Y-89636196D01*
X154293501Y-89638933D01*
X154568558Y-89647528D01*
X154781717Y-89666465D01*
X154965526Y-89700230D01*
X155152531Y-89753306D01*
X155375281Y-89830177D01*
X155402154Y-89839842D01*
X156054541Y-90131596D01*
X156628968Y-90513780D01*
X157135763Y-90986774D01*
X157521776Y-91403242D01*
X157750214Y-90929496D01*
X158093767Y-90301673D01*
X158473159Y-89763209D01*
X158879058Y-89325013D01*
X159302137Y-88997992D01*
X159493827Y-88890902D01*
X159674851Y-88813743D01*
X159859364Y-88767941D01*
X160089921Y-88746221D01*
X160369250Y-88741250D01*
X160666082Y-88746477D01*
X160882009Y-88768056D01*
X161062905Y-88814839D01*
X161254641Y-88895677D01*
X161311148Y-88922982D01*
X161720960Y-89177228D01*
X162139917Y-89534538D01*
X162549314Y-89974064D01*
X162930449Y-90474961D01*
X163264618Y-91016383D01*
X163370093Y-91217750D01*
X163646798Y-91868187D01*
X163882646Y-92619419D01*
X164073660Y-93450714D01*
X164215863Y-94341341D01*
X164305278Y-95270566D01*
X164337928Y-96217658D01*
X164338000Y-96263554D01*
X164338000Y-97081628D01*
X164131625Y-97350847D01*
X163956936Y-97538818D01*
X163754356Y-97702224D01*
X163671250Y-97752658D01*
X163599266Y-97787876D01*
X163523210Y-97816116D01*
X163429210Y-97838040D01*
X163303397Y-97854311D01*
X163131901Y-97865590D01*
X162900852Y-97872541D01*
X162596378Y-97875825D01*
X162496500Y-97875896D01*
X162496500Y-96159225D01*
X162496500Y-95716451D01*
X162487582Y-95461370D01*
X162463565Y-95131138D01*
X162428552Y-94776145D01*
X162402269Y-94559230D01*
X162259889Y-93690748D01*
X162074335Y-92931840D01*
X161841167Y-92271128D01*
X161555945Y-91697237D01*
X161214231Y-91198792D01*
X160990595Y-90942092D01*
X160732169Y-90686697D01*
X160526226Y-90532592D01*
X160353309Y-90476404D01*
X160193964Y-90514763D01*
X160028736Y-90644296D01*
X159924687Y-90757375D01*
X159710627Y-91056570D01*
X159490280Y-91454248D01*
X159274708Y-91923087D01*
X159074971Y-92435761D01*
X158902133Y-92964944D01*
X158767253Y-93483314D01*
X158714500Y-93746818D01*
X158678954Y-94018555D01*
X158650017Y-94373925D01*
X158630469Y-94769618D01*
X158623091Y-95162325D01*
X158623086Y-95170625D01*
X158623000Y-96075500D01*
X159178625Y-96075656D01*
X159414441Y-96077703D01*
X159747794Y-96083320D01*
X160149289Y-96091872D01*
X160589534Y-96102725D01*
X161039135Y-96115241D01*
X161115375Y-96117519D01*
X162496500Y-96159225D01*
X162496500Y-97875896D01*
X162204610Y-97876104D01*
X161711679Y-97874041D01*
X161194750Y-97870888D01*
X160585741Y-97864151D01*
X159938329Y-97852039D01*
X159283553Y-97835473D01*
X158652456Y-97815371D01*
X158076077Y-97792651D01*
X157585459Y-97768233D01*
X157448250Y-97759996D01*
X156910743Y-97727656D01*
X156648881Y-97713086D01*
X156648881Y-95916750D01*
X156675967Y-95631000D01*
X156697734Y-95248869D01*
X156697912Y-94827554D01*
X156678701Y-94400873D01*
X156642303Y-94002640D01*
X156590922Y-93666670D01*
X156533632Y-93445325D01*
X156267597Y-92851873D01*
X155927949Y-92350185D01*
X155522201Y-91946154D01*
X155057867Y-91645675D01*
X154542460Y-91454640D01*
X153983494Y-91378944D01*
X153898184Y-91377895D01*
X153495504Y-91410462D01*
X153154428Y-91516525D01*
X152833644Y-91712784D01*
X152617683Y-91895490D01*
X152366902Y-92160718D01*
X152114884Y-92484415D01*
X151897369Y-92817430D01*
X151771455Y-93059250D01*
X151671449Y-93308534D01*
X151600082Y-93549213D01*
X151552914Y-93810856D01*
X151525507Y-94123030D01*
X151513423Y-94515304D01*
X151511687Y-94789625D01*
X151511000Y-95758000D01*
X152638125Y-95762649D01*
X153063654Y-95767875D01*
X153573738Y-95779638D01*
X154126177Y-95796633D01*
X154678767Y-95817558D01*
X155189306Y-95841108D01*
X155207065Y-95842024D01*
X156648881Y-95916750D01*
X156648881Y-97713086D01*
X156292739Y-97693270D01*
X155640661Y-97659246D01*
X155000935Y-97627988D01*
X154419984Y-97601902D01*
X154305000Y-97597110D01*
X153511660Y-97564613D01*
X152835292Y-97536722D01*
X152265980Y-97512707D01*
X151793805Y-97491839D01*
X151408853Y-97473390D01*
X151101207Y-97456629D01*
X150860949Y-97440828D01*
X150678165Y-97425258D01*
X150542937Y-97409188D01*
X150445348Y-97391891D01*
X150375484Y-97372636D01*
X150323426Y-97350696D01*
X150279259Y-97325339D01*
X150236366Y-97297922D01*
X150138544Y-97228221D01*
X150067345Y-97146917D01*
X150010443Y-97026816D01*
X149955512Y-96840722D01*
X149890228Y-96561441D01*
X149878394Y-96508084D01*
X149790625Y-96021933D01*
X149727121Y-95485432D01*
X149689092Y-94931144D01*
X149677753Y-94391632D01*
X149694315Y-93899459D01*
X149694315Y-93899459D01*
G37*
X149694315Y-93899459D02*
X149739992Y-93487187D01*
X149761696Y-93374062D01*
X149970912Y-92672547D01*
X150277512Y-92003515D01*
X150668509Y-91383477D01*
X151130914Y-90828945D01*
X151651738Y-90356426D01*
X152217994Y-89982433D01*
X152558750Y-89818569D01*
X152740774Y-89745590D01*
X152896382Y-89694896D01*
X153055136Y-89662538D01*
X153246598Y-89644566D01*
X153500332Y-89637033D01*
X153845899Y-89635988D01*
X153924000Y-89636196D01*
X154293501Y-89638933D01*
X154568558Y-89647528D01*
X154781717Y-89666465D01*
X154965526Y-89700230D01*
X155152531Y-89753306D01*
X155375281Y-89830177D01*
X155402154Y-89839842D01*
X156054541Y-90131596D01*
X156628968Y-90513780D01*
X157135763Y-90986774D01*
X157521776Y-91403242D01*
X157750214Y-90929496D01*
X158093767Y-90301673D01*
X158473159Y-89763209D01*
X158879058Y-89325013D01*
X159302137Y-88997992D01*
X159493827Y-88890902D01*
X159674851Y-88813743D01*
X159859364Y-88767941D01*
X160089921Y-88746221D01*
X160369250Y-88741250D01*
X160666082Y-88746477D01*
X160882009Y-88768056D01*
X161062905Y-88814839D01*
X161254641Y-88895677D01*
X161311148Y-88922982D01*
X161720960Y-89177228D01*
X162139917Y-89534538D01*
X162549314Y-89974064D01*
X162930449Y-90474961D01*
X163264618Y-91016383D01*
X163370093Y-91217750D01*
X163646798Y-91868187D01*
X163882646Y-92619419D01*
X164073660Y-93450714D01*
X164215863Y-94341341D01*
X164305278Y-95270566D01*
X164337928Y-96217658D01*
X164338000Y-96263554D01*
X164338000Y-97081628D01*
X164131625Y-97350847D01*
X163956936Y-97538818D01*
X163754356Y-97702224D01*
X163671250Y-97752658D01*
X163599266Y-97787876D01*
X163523210Y-97816116D01*
X163429210Y-97838040D01*
X163303397Y-97854311D01*
X163131901Y-97865590D01*
X162900852Y-97872541D01*
X162596378Y-97875825D01*
X162496500Y-97875896D01*
X162496500Y-96159225D01*
X162496500Y-95716451D01*
X162487582Y-95461370D01*
X162463565Y-95131138D01*
X162428552Y-94776145D01*
X162402269Y-94559230D01*
X162259889Y-93690748D01*
X162074335Y-92931840D01*
X161841167Y-92271128D01*
X161555945Y-91697237D01*
X161214231Y-91198792D01*
X160990595Y-90942092D01*
X160732169Y-90686697D01*
X160526226Y-90532592D01*
X160353309Y-90476404D01*
X160193964Y-90514763D01*
X160028736Y-90644296D01*
X159924687Y-90757375D01*
X159710627Y-91056570D01*
X159490280Y-91454248D01*
X159274708Y-91923087D01*
X159074971Y-92435761D01*
X158902133Y-92964944D01*
X158767253Y-93483314D01*
X158714500Y-93746818D01*
X158678954Y-94018555D01*
X158650017Y-94373925D01*
X158630469Y-94769618D01*
X158623091Y-95162325D01*
X158623086Y-95170625D01*
X158623000Y-96075500D01*
X159178625Y-96075656D01*
X159414441Y-96077703D01*
X159747794Y-96083320D01*
X160149289Y-96091872D01*
X160589534Y-96102725D01*
X161039135Y-96115241D01*
X161115375Y-96117519D01*
X162496500Y-96159225D01*
X162496500Y-97875896D01*
X162204610Y-97876104D01*
X161711679Y-97874041D01*
X161194750Y-97870888D01*
X160585741Y-97864151D01*
X159938329Y-97852039D01*
X159283553Y-97835473D01*
X158652456Y-97815371D01*
X158076077Y-97792651D01*
X157585459Y-97768233D01*
X157448250Y-97759996D01*
X156910743Y-97727656D01*
X156648881Y-97713086D01*
X156648881Y-95916750D01*
X156675967Y-95631000D01*
X156697734Y-95248869D01*
X156697912Y-94827554D01*
X156678701Y-94400873D01*
X156642303Y-94002640D01*
X156590922Y-93666670D01*
X156533632Y-93445325D01*
X156267597Y-92851873D01*
X155927949Y-92350185D01*
X155522201Y-91946154D01*
X155057867Y-91645675D01*
X154542460Y-91454640D01*
X153983494Y-91378944D01*
X153898184Y-91377895D01*
X153495504Y-91410462D01*
X153154428Y-91516525D01*
X152833644Y-91712784D01*
X152617683Y-91895490D01*
X152366902Y-92160718D01*
X152114884Y-92484415D01*
X151897369Y-92817430D01*
X151771455Y-93059250D01*
X151671449Y-93308534D01*
X151600082Y-93549213D01*
X151552914Y-93810856D01*
X151525507Y-94123030D01*
X151513423Y-94515304D01*
X151511687Y-94789625D01*
X151511000Y-95758000D01*
X152638125Y-95762649D01*
X153063654Y-95767875D01*
X153573738Y-95779638D01*
X154126177Y-95796633D01*
X154678767Y-95817558D01*
X155189306Y-95841108D01*
X155207065Y-95842024D01*
X156648881Y-95916750D01*
X156648881Y-97713086D01*
X156292739Y-97693270D01*
X155640661Y-97659246D01*
X155000935Y-97627988D01*
X154419984Y-97601902D01*
X154305000Y-97597110D01*
X153511660Y-97564613D01*
X152835292Y-97536722D01*
X152265980Y-97512707D01*
X151793805Y-97491839D01*
X151408853Y-97473390D01*
X151101207Y-97456629D01*
X150860949Y-97440828D01*
X150678165Y-97425258D01*
X150542937Y-97409188D01*
X150445348Y-97391891D01*
X150375484Y-97372636D01*
X150323426Y-97350696D01*
X150279259Y-97325339D01*
X150236366Y-97297922D01*
X150138544Y-97228221D01*
X150067345Y-97146917D01*
X150010443Y-97026816D01*
X149955512Y-96840722D01*
X149890228Y-96561441D01*
X149878394Y-96508084D01*
X149790625Y-96021933D01*
X149727121Y-95485432D01*
X149689092Y-94931144D01*
X149677753Y-94391632D01*
X149694315Y-93899459D01*
G36*
X149694315Y-67038959D02*
X149739992Y-66626687D01*
X149761696Y-66513562D01*
X149970912Y-65812047D01*
X150277512Y-65143015D01*
X150668509Y-64522977D01*
X151130914Y-63968445D01*
X151651738Y-63495926D01*
X152217994Y-63121933D01*
X152558750Y-62958069D01*
X152740774Y-62885090D01*
X152896382Y-62834396D01*
X153055136Y-62802038D01*
X153246598Y-62784066D01*
X153500332Y-62776533D01*
X153845899Y-62775488D01*
X153924000Y-62775696D01*
X154293501Y-62778433D01*
X154568558Y-62787028D01*
X154781717Y-62805965D01*
X154965526Y-62839730D01*
X155152531Y-62892806D01*
X155375281Y-62969677D01*
X155402154Y-62979342D01*
X156054541Y-63271096D01*
X156628968Y-63653280D01*
X157135763Y-64126274D01*
X157521776Y-64542742D01*
X157750214Y-64068996D01*
X158093767Y-63441173D01*
X158473159Y-62902709D01*
X158879058Y-62464513D01*
X159302137Y-62137492D01*
X159493827Y-62030402D01*
X159674851Y-61953243D01*
X159859364Y-61907441D01*
X160089921Y-61885721D01*
X160369250Y-61880750D01*
X160666082Y-61885977D01*
X160882009Y-61907556D01*
X161062905Y-61954339D01*
X161254641Y-62035177D01*
X161311148Y-62062482D01*
X161720960Y-62316728D01*
X162139917Y-62674038D01*
X162549314Y-63113564D01*
X162930449Y-63614461D01*
X163264618Y-64155883D01*
X163370093Y-64357250D01*
X163646798Y-65007687D01*
X163882646Y-65758919D01*
X164073660Y-66590214D01*
X164215863Y-67480841D01*
X164305278Y-68410066D01*
X164337928Y-69357158D01*
X164338000Y-69403054D01*
X164338000Y-70221128D01*
X164131625Y-70490347D01*
X163956936Y-70678318D01*
X163754356Y-70841724D01*
X163671250Y-70892158D01*
X163599266Y-70927376D01*
X163523210Y-70955616D01*
X163429210Y-70977540D01*
X163303397Y-70993811D01*
X163131901Y-71005090D01*
X162900852Y-71012041D01*
X162596378Y-71015325D01*
X162496500Y-71015396D01*
X162496500Y-69298725D01*
X162496500Y-68855951D01*
X162487582Y-68600870D01*
X162463565Y-68270638D01*
X162428552Y-67915645D01*
X162402269Y-67698730D01*
X162259889Y-66830248D01*
X162074335Y-66071340D01*
X161841167Y-65410628D01*
X161555945Y-64836737D01*
X161214231Y-64338292D01*
X160990595Y-64081592D01*
X160732169Y-63826197D01*
X160526226Y-63672092D01*
X160353309Y-63615904D01*
X160193964Y-63654263D01*
X160028736Y-63783796D01*
X159924687Y-63896875D01*
X159710627Y-64196070D01*
X159490280Y-64593748D01*
X159274708Y-65062587D01*
X159074971Y-65575261D01*
X158902133Y-66104444D01*
X158767253Y-66622814D01*
X158714500Y-66886318D01*
X158678954Y-67158055D01*
X158650017Y-67513425D01*
X158630469Y-67909118D01*
X158623091Y-68301825D01*
X158623086Y-68310125D01*
X158623000Y-69215000D01*
X159178625Y-69215156D01*
X159414441Y-69217203D01*
X159747794Y-69222820D01*
X160149289Y-69231372D01*
X160589534Y-69242225D01*
X161039135Y-69254741D01*
X161115375Y-69257019D01*
X162496500Y-69298725D01*
X162496500Y-71015396D01*
X162204610Y-71015604D01*
X161711679Y-71013541D01*
X161194750Y-71010388D01*
X160585741Y-71003651D01*
X159938329Y-70991539D01*
X159283553Y-70974973D01*
X158652456Y-70954871D01*
X158076077Y-70932151D01*
X157585459Y-70907733D01*
X157448250Y-70899496D01*
X156910743Y-70867156D01*
X156648881Y-70852586D01*
X156648881Y-69056250D01*
X156675967Y-68770500D01*
X156697734Y-68388369D01*
X156697912Y-67967054D01*
X156678701Y-67540373D01*
X156642303Y-67142140D01*
X156590922Y-66806170D01*
X156533632Y-66584825D01*
X156267597Y-65991373D01*
X155927949Y-65489685D01*
X155522201Y-65085654D01*
X155057867Y-64785175D01*
X154542460Y-64594140D01*
X153983494Y-64518444D01*
X153898184Y-64517395D01*
X153495504Y-64549962D01*
X153154428Y-64656025D01*
X152833644Y-64852284D01*
X152617683Y-65034990D01*
X152366902Y-65300218D01*
X152114884Y-65623915D01*
X151897369Y-65956930D01*
X151771455Y-66198750D01*
X151671449Y-66448034D01*
X151600082Y-66688713D01*
X151552914Y-66950356D01*
X151525507Y-67262530D01*
X151513423Y-67654804D01*
X151511687Y-67929125D01*
X151511000Y-68897500D01*
X152638125Y-68902149D01*
X153063654Y-68907375D01*
X153573738Y-68919138D01*
X154126177Y-68936133D01*
X154678767Y-68957058D01*
X155189306Y-68980608D01*
X155207065Y-68981524D01*
X156648881Y-69056250D01*
X156648881Y-70852586D01*
X156292739Y-70832770D01*
X155640661Y-70798746D01*
X155000935Y-70767488D01*
X154419984Y-70741402D01*
X154305000Y-70736610D01*
X153511660Y-70704113D01*
X152835292Y-70676222D01*
X152265980Y-70652207D01*
X151793805Y-70631339D01*
X151408853Y-70612890D01*
X151101207Y-70596129D01*
X150860949Y-70580328D01*
X150678165Y-70564758D01*
X150542937Y-70548688D01*
X150445348Y-70531391D01*
X150375484Y-70512136D01*
X150323426Y-70490196D01*
X150279259Y-70464839D01*
X150236366Y-70437422D01*
X150138544Y-70367721D01*
X150067345Y-70286417D01*
X150010443Y-70166316D01*
X149955512Y-69980222D01*
X149890228Y-69700941D01*
X149878394Y-69647584D01*
X149790625Y-69161433D01*
X149727121Y-68624932D01*
X149689092Y-68070644D01*
X149677753Y-67531132D01*
X149694315Y-67038959D01*
X149694315Y-67038959D01*
G37*
X149694315Y-67038959D02*
X149739992Y-66626687D01*
X149761696Y-66513562D01*
X149970912Y-65812047D01*
X150277512Y-65143015D01*
X150668509Y-64522977D01*
X151130914Y-63968445D01*
X151651738Y-63495926D01*
X152217994Y-63121933D01*
X152558750Y-62958069D01*
X152740774Y-62885090D01*
X152896382Y-62834396D01*
X153055136Y-62802038D01*
X153246598Y-62784066D01*
X153500332Y-62776533D01*
X153845899Y-62775488D01*
X153924000Y-62775696D01*
X154293501Y-62778433D01*
X154568558Y-62787028D01*
X154781717Y-62805965D01*
X154965526Y-62839730D01*
X155152531Y-62892806D01*
X155375281Y-62969677D01*
X155402154Y-62979342D01*
X156054541Y-63271096D01*
X156628968Y-63653280D01*
X157135763Y-64126274D01*
X157521776Y-64542742D01*
X157750214Y-64068996D01*
X158093767Y-63441173D01*
X158473159Y-62902709D01*
X158879058Y-62464513D01*
X159302137Y-62137492D01*
X159493827Y-62030402D01*
X159674851Y-61953243D01*
X159859364Y-61907441D01*
X160089921Y-61885721D01*
X160369250Y-61880750D01*
X160666082Y-61885977D01*
X160882009Y-61907556D01*
X161062905Y-61954339D01*
X161254641Y-62035177D01*
X161311148Y-62062482D01*
X161720960Y-62316728D01*
X162139917Y-62674038D01*
X162549314Y-63113564D01*
X162930449Y-63614461D01*
X163264618Y-64155883D01*
X163370093Y-64357250D01*
X163646798Y-65007687D01*
X163882646Y-65758919D01*
X164073660Y-66590214D01*
X164215863Y-67480841D01*
X164305278Y-68410066D01*
X164337928Y-69357158D01*
X164338000Y-69403054D01*
X164338000Y-70221128D01*
X164131625Y-70490347D01*
X163956936Y-70678318D01*
X163754356Y-70841724D01*
X163671250Y-70892158D01*
X163599266Y-70927376D01*
X163523210Y-70955616D01*
X163429210Y-70977540D01*
X163303397Y-70993811D01*
X163131901Y-71005090D01*
X162900852Y-71012041D01*
X162596378Y-71015325D01*
X162496500Y-71015396D01*
X162496500Y-69298725D01*
X162496500Y-68855951D01*
X162487582Y-68600870D01*
X162463565Y-68270638D01*
X162428552Y-67915645D01*
X162402269Y-67698730D01*
X162259889Y-66830248D01*
X162074335Y-66071340D01*
X161841167Y-65410628D01*
X161555945Y-64836737D01*
X161214231Y-64338292D01*
X160990595Y-64081592D01*
X160732169Y-63826197D01*
X160526226Y-63672092D01*
X160353309Y-63615904D01*
X160193964Y-63654263D01*
X160028736Y-63783796D01*
X159924687Y-63896875D01*
X159710627Y-64196070D01*
X159490280Y-64593748D01*
X159274708Y-65062587D01*
X159074971Y-65575261D01*
X158902133Y-66104444D01*
X158767253Y-66622814D01*
X158714500Y-66886318D01*
X158678954Y-67158055D01*
X158650017Y-67513425D01*
X158630469Y-67909118D01*
X158623091Y-68301825D01*
X158623086Y-68310125D01*
X158623000Y-69215000D01*
X159178625Y-69215156D01*
X159414441Y-69217203D01*
X159747794Y-69222820D01*
X160149289Y-69231372D01*
X160589534Y-69242225D01*
X161039135Y-69254741D01*
X161115375Y-69257019D01*
X162496500Y-69298725D01*
X162496500Y-71015396D01*
X162204610Y-71015604D01*
X161711679Y-71013541D01*
X161194750Y-71010388D01*
X160585741Y-71003651D01*
X159938329Y-70991539D01*
X159283553Y-70974973D01*
X158652456Y-70954871D01*
X158076077Y-70932151D01*
X157585459Y-70907733D01*
X157448250Y-70899496D01*
X156910743Y-70867156D01*
X156648881Y-70852586D01*
X156648881Y-69056250D01*
X156675967Y-68770500D01*
X156697734Y-68388369D01*
X156697912Y-67967054D01*
X156678701Y-67540373D01*
X156642303Y-67142140D01*
X156590922Y-66806170D01*
X156533632Y-66584825D01*
X156267597Y-65991373D01*
X155927949Y-65489685D01*
X155522201Y-65085654D01*
X155057867Y-64785175D01*
X154542460Y-64594140D01*
X153983494Y-64518444D01*
X153898184Y-64517395D01*
X153495504Y-64549962D01*
X153154428Y-64656025D01*
X152833644Y-64852284D01*
X152617683Y-65034990D01*
X152366902Y-65300218D01*
X152114884Y-65623915D01*
X151897369Y-65956930D01*
X151771455Y-66198750D01*
X151671449Y-66448034D01*
X151600082Y-66688713D01*
X151552914Y-66950356D01*
X151525507Y-67262530D01*
X151513423Y-67654804D01*
X151511687Y-67929125D01*
X151511000Y-68897500D01*
X152638125Y-68902149D01*
X153063654Y-68907375D01*
X153573738Y-68919138D01*
X154126177Y-68936133D01*
X154678767Y-68957058D01*
X155189306Y-68980608D01*
X155207065Y-68981524D01*
X156648881Y-69056250D01*
X156648881Y-70852586D01*
X156292739Y-70832770D01*
X155640661Y-70798746D01*
X155000935Y-70767488D01*
X154419984Y-70741402D01*
X154305000Y-70736610D01*
X153511660Y-70704113D01*
X152835292Y-70676222D01*
X152265980Y-70652207D01*
X151793805Y-70631339D01*
X151408853Y-70612890D01*
X151101207Y-70596129D01*
X150860949Y-70580328D01*
X150678165Y-70564758D01*
X150542937Y-70548688D01*
X150445348Y-70531391D01*
X150375484Y-70512136D01*
X150323426Y-70490196D01*
X150279259Y-70464839D01*
X150236366Y-70437422D01*
X150138544Y-70367721D01*
X150067345Y-70286417D01*
X150010443Y-70166316D01*
X149955512Y-69980222D01*
X149890228Y-69700941D01*
X149878394Y-69647584D01*
X149790625Y-69161433D01*
X149727121Y-68624932D01*
X149689092Y-68070644D01*
X149677753Y-67531132D01*
X149694315Y-67038959D01*
G36*
X154630590Y-85014247D02*
X154670619Y-84876561D01*
X154766225Y-84748168D01*
X154889378Y-84625961D01*
X155156256Y-84372086D01*
X157210812Y-84416346D01*
X157846918Y-84428226D01*
X158566740Y-84438602D01*
X159326998Y-84447048D01*
X160084413Y-84453139D01*
X160795704Y-84456452D01*
X161329761Y-84456770D01*
X161930292Y-84456150D01*
X162417255Y-84458103D01*
X162804083Y-84464662D01*
X163104206Y-84477858D01*
X163331056Y-84499725D01*
X163498066Y-84532293D01*
X163618666Y-84577595D01*
X163706288Y-84637663D01*
X163774364Y-84714529D01*
X163836324Y-84810225D01*
X163853143Y-84838530D01*
X163928735Y-85057474D01*
X163952047Y-85330861D01*
X163923265Y-85600490D01*
X163850084Y-85796577D01*
X163776194Y-85907660D01*
X163697652Y-85996428D01*
X163599807Y-86065693D01*
X163468010Y-86118266D01*
X163287612Y-86156958D01*
X163043962Y-86184581D01*
X162722412Y-86203945D01*
X162308311Y-86217861D01*
X161787011Y-86229141D01*
X161575750Y-86233000D01*
X161055344Y-86238836D01*
X160441480Y-86240015D01*
X159767604Y-86236824D01*
X159067161Y-86229551D01*
X158373597Y-86218481D01*
X157720358Y-86203902D01*
X157511750Y-86198149D01*
X156904941Y-86179947D01*
X156412074Y-86163626D01*
X156020123Y-86148219D01*
X155716063Y-86132758D01*
X155486867Y-86116273D01*
X155319508Y-86097798D01*
X155200962Y-86076363D01*
X155118202Y-86051001D01*
X155058203Y-86020744D01*
X155049482Y-86015144D01*
X154800391Y-85795015D01*
X154662193Y-85526944D01*
X154622500Y-85213241D01*
X154630590Y-85014247D01*
X154630590Y-85014247D01*
G37*
X154630590Y-85014247D02*
X154670619Y-84876561D01*
X154766225Y-84748168D01*
X154889378Y-84625961D01*
X155156256Y-84372086D01*
X157210812Y-84416346D01*
X157846918Y-84428226D01*
X158566740Y-84438602D01*
X159326998Y-84447048D01*
X160084413Y-84453139D01*
X160795704Y-84456452D01*
X161329761Y-84456770D01*
X161930292Y-84456150D01*
X162417255Y-84458103D01*
X162804083Y-84464662D01*
X163104206Y-84477858D01*
X163331056Y-84499725D01*
X163498066Y-84532293D01*
X163618666Y-84577595D01*
X163706288Y-84637663D01*
X163774364Y-84714529D01*
X163836324Y-84810225D01*
X163853143Y-84838530D01*
X163928735Y-85057474D01*
X163952047Y-85330861D01*
X163923265Y-85600490D01*
X163850084Y-85796577D01*
X163776194Y-85907660D01*
X163697652Y-85996428D01*
X163599807Y-86065693D01*
X163468010Y-86118266D01*
X163287612Y-86156958D01*
X163043962Y-86184581D01*
X162722412Y-86203945D01*
X162308311Y-86217861D01*
X161787011Y-86229141D01*
X161575750Y-86233000D01*
X161055344Y-86238836D01*
X160441480Y-86240015D01*
X159767604Y-86236824D01*
X159067161Y-86229551D01*
X158373597Y-86218481D01*
X157720358Y-86203902D01*
X157511750Y-86198149D01*
X156904941Y-86179947D01*
X156412074Y-86163626D01*
X156020123Y-86148219D01*
X155716063Y-86132758D01*
X155486867Y-86116273D01*
X155319508Y-86097798D01*
X155200962Y-86076363D01*
X155118202Y-86051001D01*
X155058203Y-86020744D01*
X155049482Y-86015144D01*
X154800391Y-85795015D01*
X154662193Y-85526944D01*
X154622500Y-85213241D01*
X154630590Y-85014247D01*
G36*
X154630590Y-48374747D02*
X154670619Y-48237061D01*
X154766225Y-48108668D01*
X154889378Y-47986461D01*
X155156256Y-47732586D01*
X157210812Y-47776846D01*
X157846918Y-47788726D01*
X158566740Y-47799102D01*
X159326998Y-47807548D01*
X160084413Y-47813639D01*
X160795704Y-47816952D01*
X161329761Y-47817270D01*
X161930292Y-47816650D01*
X162417255Y-47818603D01*
X162804083Y-47825162D01*
X163104206Y-47838358D01*
X163331056Y-47860225D01*
X163498066Y-47892793D01*
X163618666Y-47938095D01*
X163706288Y-47998163D01*
X163774364Y-48075029D01*
X163836324Y-48170725D01*
X163853143Y-48199030D01*
X163928735Y-48417974D01*
X163952047Y-48691361D01*
X163923265Y-48960990D01*
X163850084Y-49157077D01*
X163776194Y-49268160D01*
X163697652Y-49356928D01*
X163599807Y-49426193D01*
X163468010Y-49478766D01*
X163287612Y-49517458D01*
X163043962Y-49545081D01*
X162722412Y-49564445D01*
X162308311Y-49578361D01*
X161787011Y-49589641D01*
X161575750Y-49593500D01*
X161055344Y-49599336D01*
X160441480Y-49600515D01*
X159767604Y-49597324D01*
X159067161Y-49590051D01*
X158373597Y-49578981D01*
X157720358Y-49564402D01*
X157511750Y-49558649D01*
X156904941Y-49540447D01*
X156412074Y-49524126D01*
X156020123Y-49508719D01*
X155716063Y-49493258D01*
X155486867Y-49476773D01*
X155319508Y-49458298D01*
X155200962Y-49436863D01*
X155118202Y-49411501D01*
X155058203Y-49381244D01*
X155049482Y-49375644D01*
X154800391Y-49155515D01*
X154662193Y-48887444D01*
X154622500Y-48573741D01*
X154630590Y-48374747D01*
X154630590Y-48374747D01*
G37*
X154630590Y-48374747D02*
X154670619Y-48237061D01*
X154766225Y-48108668D01*
X154889378Y-47986461D01*
X155156256Y-47732586D01*
X157210812Y-47776846D01*
X157846918Y-47788726D01*
X158566740Y-47799102D01*
X159326998Y-47807548D01*
X160084413Y-47813639D01*
X160795704Y-47816952D01*
X161329761Y-47817270D01*
X161930292Y-47816650D01*
X162417255Y-47818603D01*
X162804083Y-47825162D01*
X163104206Y-47838358D01*
X163331056Y-47860225D01*
X163498066Y-47892793D01*
X163618666Y-47938095D01*
X163706288Y-47998163D01*
X163774364Y-48075029D01*
X163836324Y-48170725D01*
X163853143Y-48199030D01*
X163928735Y-48417974D01*
X163952047Y-48691361D01*
X163923265Y-48960990D01*
X163850084Y-49157077D01*
X163776194Y-49268160D01*
X163697652Y-49356928D01*
X163599807Y-49426193D01*
X163468010Y-49478766D01*
X163287612Y-49517458D01*
X163043962Y-49545081D01*
X162722412Y-49564445D01*
X162308311Y-49578361D01*
X161787011Y-49589641D01*
X161575750Y-49593500D01*
X161055344Y-49599336D01*
X160441480Y-49600515D01*
X159767604Y-49597324D01*
X159067161Y-49590051D01*
X158373597Y-49578981D01*
X157720358Y-49564402D01*
X157511750Y-49558649D01*
X156904941Y-49540447D01*
X156412074Y-49524126D01*
X156020123Y-49508719D01*
X155716063Y-49493258D01*
X155486867Y-49476773D01*
X155319508Y-49458298D01*
X155200962Y-49436863D01*
X155118202Y-49411501D01*
X155058203Y-49381244D01*
X155049482Y-49375644D01*
X154800391Y-49155515D01*
X154662193Y-48887444D01*
X154622500Y-48573741D01*
X154630590Y-48374747D01*
G36*
X150391756Y-84504485D02*
X150560856Y-84235156D01*
X150802130Y-84028664D01*
X151103430Y-83906883D01*
X151320500Y-83883500D01*
X151652102Y-83940217D01*
X151932369Y-84095591D01*
X152149098Y-84327461D01*
X152290086Y-84613663D01*
X152343132Y-84932036D01*
X152296032Y-85260416D01*
X152199498Y-85479984D01*
X151985892Y-85735050D01*
X151712222Y-85897757D01*
X151405084Y-85968243D01*
X151091074Y-85946649D01*
X150796790Y-85833115D01*
X150548826Y-85627779D01*
X150438985Y-85470744D01*
X150318672Y-85144154D01*
X150306978Y-84814776D01*
X150391756Y-84504485D01*
X150391756Y-84504485D01*
G37*
X150391756Y-84504485D02*
X150560856Y-84235156D01*
X150802130Y-84028664D01*
X151103430Y-83906883D01*
X151320500Y-83883500D01*
X151652102Y-83940217D01*
X151932369Y-84095591D01*
X152149098Y-84327461D01*
X152290086Y-84613663D01*
X152343132Y-84932036D01*
X152296032Y-85260416D01*
X152199498Y-85479984D01*
X151985892Y-85735050D01*
X151712222Y-85897757D01*
X151405084Y-85968243D01*
X151091074Y-85946649D01*
X150796790Y-85833115D01*
X150548826Y-85627779D01*
X150438985Y-85470744D01*
X150318672Y-85144154D01*
X150306978Y-84814776D01*
X150391756Y-84504485D01*
G36*
X150391756Y-47864985D02*
X150560856Y-47595656D01*
X150802130Y-47389164D01*
X151103430Y-47267383D01*
X151320500Y-47244000D01*
X151652102Y-47300717D01*
X151932369Y-47456091D01*
X152149098Y-47687961D01*
X152290086Y-47974163D01*
X152343132Y-48292536D01*
X152296032Y-48620916D01*
X152199498Y-48840484D01*
X151985892Y-49095550D01*
X151712222Y-49258257D01*
X151405084Y-49328743D01*
X151091074Y-49307149D01*
X150796790Y-49193615D01*
X150548826Y-48988279D01*
X150438985Y-48831244D01*
X150318672Y-48504654D01*
X150306978Y-48175276D01*
X150391756Y-47864985D01*
X150391756Y-47864985D01*
G37*
X150391756Y-47864985D02*
X150560856Y-47595656D01*
X150802130Y-47389164D01*
X151103430Y-47267383D01*
X151320500Y-47244000D01*
X151652102Y-47300717D01*
X151932369Y-47456091D01*
X152149098Y-47687961D01*
X152290086Y-47974163D01*
X152343132Y-48292536D01*
X152296032Y-48620916D01*
X152199498Y-48840484D01*
X151985892Y-49095550D01*
X151712222Y-49258257D01*
X151405084Y-49328743D01*
X151091074Y-49307149D01*
X150796790Y-49193615D01*
X150548826Y-48988279D01*
X150438985Y-48831244D01*
X150318672Y-48504654D01*
X150306978Y-48175276D01*
X150391756Y-47864985D01*
D17*
G04 #@! TO.C,J16*
X86980000Y-68550000D02*
G75*
G03X81980000Y-63550000I-5000000J0D01*
G01*
X86980000Y-119350000D02*
X86980000Y-68550000D01*
X81980000Y-124350000D02*
G75*
G03X86980000Y-119350000I0J5000000D01*
G01*
X59880000Y-124350000D02*
X81980000Y-124350000D01*
X54880000Y-119350000D02*
G75*
G03X59880000Y-124350000I5000000J0D01*
G01*
X54880000Y-68550000D02*
X54880000Y-119350000D01*
X59880000Y-63550000D02*
G75*
G03X54880000Y-68550000I0J-5000000D01*
G01*
X81980000Y-63550000D02*
X59880000Y-63550000D01*
X78750000Y-79980000D02*
G75*
G03X78750000Y-79980000I-200000J0D01*
G01*
D16*
G04 #@! TO.C,G\002A\002A\002A*
G36*
X138619625Y-93211702D02*
X140578854Y-93930119D01*
X140578854Y-92842848D01*
X140579691Y-92432716D01*
X140583721Y-92144336D01*
X140593221Y-91959517D01*
X140610468Y-91860069D01*
X140637738Y-91827800D01*
X140677308Y-91844522D01*
X140701306Y-91864578D01*
X140774946Y-91920583D01*
X140951074Y-92050010D01*
X141218430Y-92244756D01*
X141565754Y-92496720D01*
X141981786Y-92797800D01*
X142455265Y-93139896D01*
X142974932Y-93514905D01*
X143529526Y-93914727D01*
X144107786Y-94331259D01*
X144698454Y-94756400D01*
X145290268Y-95182049D01*
X145871969Y-95600105D01*
X146432296Y-96002465D01*
X146959990Y-96381029D01*
X147443789Y-96727694D01*
X147872434Y-97034361D01*
X148234665Y-97292926D01*
X148519222Y-97495289D01*
X148714844Y-97633347D01*
X148810271Y-97699001D01*
X148812529Y-97700439D01*
X148775348Y-97694913D01*
X148618418Y-97647382D01*
X148354112Y-97561978D01*
X147994803Y-97442833D01*
X147552862Y-97294082D01*
X147040663Y-97119856D01*
X146470576Y-96924289D01*
X145932283Y-96738317D01*
X145315101Y-96524551D01*
X144739770Y-96325537D01*
X144219513Y-96145830D01*
X143767555Y-95989987D01*
X143397120Y-95862563D01*
X143121432Y-95768115D01*
X142953716Y-95711198D01*
X142905974Y-95695724D01*
X142899672Y-95761646D01*
X142894331Y-95943211D01*
X142890372Y-96216118D01*
X142888215Y-96556067D01*
X142887945Y-96735571D01*
X142887945Y-97775418D01*
X141121140Y-96993897D01*
X140562006Y-96746811D01*
X139957610Y-96480134D01*
X139345893Y-96210579D01*
X138764799Y-95954861D01*
X138252269Y-95729692D01*
X138007366Y-95622304D01*
X136660397Y-95032233D01*
X136660397Y-92493286D01*
X138619625Y-93211702D01*
X138619625Y-93211702D01*
G37*
X138619625Y-93211702D02*
X140578854Y-93930119D01*
X140578854Y-92842848D01*
X140579691Y-92432716D01*
X140583721Y-92144336D01*
X140593221Y-91959517D01*
X140610468Y-91860069D01*
X140637738Y-91827800D01*
X140677308Y-91844522D01*
X140701306Y-91864578D01*
X140774946Y-91920583D01*
X140951074Y-92050010D01*
X141218430Y-92244756D01*
X141565754Y-92496720D01*
X141981786Y-92797800D01*
X142455265Y-93139896D01*
X142974932Y-93514905D01*
X143529526Y-93914727D01*
X144107786Y-94331259D01*
X144698454Y-94756400D01*
X145290268Y-95182049D01*
X145871969Y-95600105D01*
X146432296Y-96002465D01*
X146959990Y-96381029D01*
X147443789Y-96727694D01*
X147872434Y-97034361D01*
X148234665Y-97292926D01*
X148519222Y-97495289D01*
X148714844Y-97633347D01*
X148810271Y-97699001D01*
X148812529Y-97700439D01*
X148775348Y-97694913D01*
X148618418Y-97647382D01*
X148354112Y-97561978D01*
X147994803Y-97442833D01*
X147552862Y-97294082D01*
X147040663Y-97119856D01*
X146470576Y-96924289D01*
X145932283Y-96738317D01*
X145315101Y-96524551D01*
X144739770Y-96325537D01*
X144219513Y-96145830D01*
X143767555Y-95989987D01*
X143397120Y-95862563D01*
X143121432Y-95768115D01*
X142953716Y-95711198D01*
X142905974Y-95695724D01*
X142899672Y-95761646D01*
X142894331Y-95943211D01*
X142890372Y-96216118D01*
X142888215Y-96556067D01*
X142887945Y-96735571D01*
X142887945Y-97775418D01*
X141121140Y-96993897D01*
X140562006Y-96746811D01*
X139957610Y-96480134D01*
X139345893Y-96210579D01*
X138764799Y-95954861D01*
X138252269Y-95729692D01*
X138007366Y-95622304D01*
X136660397Y-95032233D01*
X136660397Y-92493286D01*
X138619625Y-93211702D01*
G36*
X138217975Y-105438677D02*
X139425767Y-104232363D01*
X146067291Y-104232363D01*
X146437862Y-103866396D01*
X146808433Y-103500428D01*
X148416539Y-105108534D01*
X147612100Y-105910691D01*
X146807660Y-106712848D01*
X146437476Y-106347261D01*
X146067291Y-105981675D01*
X144637256Y-105981675D01*
X144637256Y-107521069D01*
X146067291Y-107521069D01*
X146808433Y-106789133D01*
X148416539Y-108397239D01*
X147612100Y-109199396D01*
X146807660Y-110001552D01*
X146437476Y-109635967D01*
X146067291Y-109270380D01*
X142817972Y-109270380D01*
X142817972Y-107521069D01*
X142817972Y-105981675D01*
X140539979Y-105981675D01*
X139737240Y-106747826D01*
X138934501Y-107513978D01*
X140876237Y-107517523D01*
X142817972Y-107521069D01*
X142817972Y-109270380D01*
X139632844Y-109270380D01*
X137010182Y-106644990D01*
X138217975Y-105438677D01*
X138217975Y-105438677D01*
G37*
X138217975Y-105438677D02*
X139425767Y-104232363D01*
X146067291Y-104232363D01*
X146437862Y-103866396D01*
X146808433Y-103500428D01*
X148416539Y-105108534D01*
X147612100Y-105910691D01*
X146807660Y-106712848D01*
X146437476Y-106347261D01*
X146067291Y-105981675D01*
X144637256Y-105981675D01*
X144637256Y-107521069D01*
X146067291Y-107521069D01*
X146808433Y-106789133D01*
X148416539Y-108397239D01*
X147612100Y-109199396D01*
X146807660Y-110001552D01*
X146437476Y-109635967D01*
X146067291Y-109270380D01*
X142817972Y-109270380D01*
X142817972Y-107521069D01*
X142817972Y-105981675D01*
X140539979Y-105981675D01*
X139737240Y-106747826D01*
X138934501Y-107513978D01*
X140876237Y-107517523D01*
X142817972Y-107521069D01*
X142817972Y-109270380D01*
X139632844Y-109270380D01*
X137010182Y-106644990D01*
X138217975Y-105438677D01*
G36*
X138319358Y-99249727D02*
X139598565Y-97971921D01*
X140263879Y-98634469D01*
X140929193Y-99297016D01*
X139967771Y-100260282D01*
X139006348Y-101223548D01*
X141914182Y-101223548D01*
X141893763Y-99894925D01*
X141873344Y-98566301D01*
X142730507Y-99421561D01*
X143587669Y-100276820D01*
X143587669Y-101223548D01*
X145609748Y-101223548D01*
X145799987Y-100974133D01*
X145990225Y-100724717D01*
X145279115Y-100011178D01*
X144568004Y-99297639D01*
X145199250Y-98666394D01*
X145830495Y-98035149D01*
X147123132Y-99334309D01*
X147469173Y-99683320D01*
X147780249Y-99999416D01*
X148043394Y-100269229D01*
X148245642Y-100479391D01*
X148374024Y-100616535D01*
X148415768Y-100666907D01*
X148368410Y-100723729D01*
X148235600Y-100864829D01*
X148031232Y-101075922D01*
X147769203Y-101342722D01*
X147463408Y-101650947D01*
X147277944Y-101836602D01*
X146140119Y-102972859D01*
X139499207Y-102972859D01*
X138269679Y-101750196D01*
X137040150Y-100527532D01*
X138319358Y-99249727D01*
X138319358Y-99249727D01*
G37*
X138319358Y-99249727D02*
X139598565Y-97971921D01*
X140263879Y-98634469D01*
X140929193Y-99297016D01*
X139967771Y-100260282D01*
X139006348Y-101223548D01*
X141914182Y-101223548D01*
X141893763Y-99894925D01*
X141873344Y-98566301D01*
X142730507Y-99421561D01*
X143587669Y-100276820D01*
X143587669Y-101223548D01*
X145609748Y-101223548D01*
X145799987Y-100974133D01*
X145990225Y-100724717D01*
X145279115Y-100011178D01*
X144568004Y-99297639D01*
X145199250Y-98666394D01*
X145830495Y-98035149D01*
X147123132Y-99334309D01*
X147469173Y-99683320D01*
X147780249Y-99999416D01*
X148043394Y-100269229D01*
X148245642Y-100479391D01*
X148374024Y-100616535D01*
X148415768Y-100666907D01*
X148368410Y-100723729D01*
X148235600Y-100864829D01*
X148031232Y-101075922D01*
X147769203Y-101342722D01*
X147463408Y-101650947D01*
X147277944Y-101836602D01*
X146140119Y-102972859D01*
X139499207Y-102972859D01*
X138269679Y-101750196D01*
X137040150Y-100527532D01*
X138319358Y-99249727D01*
G36*
X139006225Y-85829609D02*
X140820989Y-85829609D01*
X141434671Y-86440447D01*
X142048353Y-87051286D01*
X143345395Y-85759636D01*
X146067291Y-85759636D01*
X146437862Y-85393668D01*
X146808433Y-85027701D01*
X148416539Y-86635807D01*
X147628963Y-87420591D01*
X146841388Y-88205376D01*
X146456540Y-87860191D01*
X146071691Y-87515006D01*
X145160856Y-87511977D01*
X144250021Y-87508947D01*
X143482711Y-88278644D01*
X142715400Y-89048341D01*
X146146925Y-89048341D01*
X146492287Y-88697707D01*
X146837649Y-88347072D01*
X147626709Y-89133893D01*
X147894519Y-89403642D01*
X148123385Y-89639313D01*
X148296524Y-89823208D01*
X148397153Y-89937631D01*
X148415768Y-89965954D01*
X148367715Y-90027244D01*
X148235007Y-90167148D01*
X148034823Y-90368287D01*
X147784342Y-90613283D01*
X147614048Y-90776979D01*
X146812327Y-91542763D01*
X146444399Y-91170208D01*
X146076472Y-90797653D01*
X141802686Y-90797653D01*
X141802686Y-89188286D01*
X140910880Y-88296481D01*
X140019074Y-87404675D01*
X138235463Y-89188286D01*
X141802686Y-89188286D01*
X141802686Y-90797653D01*
X139218449Y-90797653D01*
X138813636Y-91198241D01*
X138408824Y-91598830D01*
X137709541Y-90902171D01*
X137010259Y-90205512D01*
X137010259Y-87822013D01*
X139006225Y-85829609D01*
X139006225Y-85829609D01*
G37*
X139006225Y-85829609D02*
X140820989Y-85829609D01*
X141434671Y-86440447D01*
X142048353Y-87051286D01*
X143345395Y-85759636D01*
X146067291Y-85759636D01*
X146437862Y-85393668D01*
X146808433Y-85027701D01*
X148416539Y-86635807D01*
X147628963Y-87420591D01*
X146841388Y-88205376D01*
X146456540Y-87860191D01*
X146071691Y-87515006D01*
X145160856Y-87511977D01*
X144250021Y-87508947D01*
X143482711Y-88278644D01*
X142715400Y-89048341D01*
X146146925Y-89048341D01*
X146492287Y-88697707D01*
X146837649Y-88347072D01*
X147626709Y-89133893D01*
X147894519Y-89403642D01*
X148123385Y-89639313D01*
X148296524Y-89823208D01*
X148397153Y-89937631D01*
X148415768Y-89965954D01*
X148367715Y-90027244D01*
X148235007Y-90167148D01*
X148034823Y-90368287D01*
X147784342Y-90613283D01*
X147614048Y-90776979D01*
X146812327Y-91542763D01*
X146444399Y-91170208D01*
X146076472Y-90797653D01*
X141802686Y-90797653D01*
X141802686Y-89188286D01*
X140910880Y-88296481D01*
X140019074Y-87404675D01*
X138235463Y-89188286D01*
X141802686Y-89188286D01*
X141802686Y-90797653D01*
X139218449Y-90797653D01*
X138813636Y-91198241D01*
X138408824Y-91598830D01*
X137709541Y-90902171D01*
X137010259Y-90205512D01*
X137010259Y-87822013D01*
X139006225Y-85829609D01*
G36*
X138234787Y-81211416D02*
X139492823Y-79951923D01*
X145793183Y-79951923D01*
X148415867Y-82577335D01*
X146070191Y-84919967D01*
X145505249Y-84919967D01*
X145505249Y-83170655D01*
X145968767Y-82721397D01*
X145497312Y-82246301D01*
X145025858Y-81771206D01*
X140331325Y-81771206D01*
X139634226Y-82470931D01*
X138937127Y-83170655D01*
X145505249Y-83170655D01*
X145505249Y-84919967D01*
X139422809Y-84919967D01*
X138199780Y-83695438D01*
X136976751Y-82470910D01*
X138234787Y-81211416D01*
X138234787Y-81211416D01*
G37*
X138234787Y-81211416D02*
X139492823Y-79951923D01*
X145793183Y-79951923D01*
X148415867Y-82577335D01*
X146070191Y-84919967D01*
X145505249Y-84919967D01*
X145505249Y-83170655D01*
X145968767Y-82721397D01*
X145497312Y-82246301D01*
X145025858Y-81771206D01*
X140331325Y-81771206D01*
X139634226Y-82470931D01*
X138937127Y-83170655D01*
X145505249Y-83170655D01*
X145505249Y-84919967D01*
X139422809Y-84919967D01*
X138199780Y-83695438D01*
X136976751Y-82470910D01*
X138234787Y-81211416D01*
D18*
G04 #@! TO.C,U9*
X183485000Y-72904000D02*
X180183000Y-72904000D01*
X180183000Y-72904000D02*
X180183000Y-69094000D01*
X180183000Y-69094000D02*
X184374000Y-69094000D01*
X184374000Y-69094000D02*
X184374000Y-72015000D01*
X183485000Y-72904000D02*
X184374000Y-72015000D01*
G04 #@! TO.C,RV1*
X194558000Y-66084000D02*
X195258000Y-66084000D01*
X197458000Y-66084000D02*
X198158000Y-66084000D01*
X194558000Y-62284000D02*
X194558000Y-66084000D01*
X198158000Y-62284000D02*
X198158000Y-66084000D01*
X196558000Y-62284000D02*
X196158000Y-62284000D01*
D16*
G04 #@! TO.C,G\002A\002A\002A*
G36*
X193423622Y-69976471D02*
X193753539Y-69977057D01*
X194104753Y-69978073D01*
X194262044Y-69978650D01*
X196357524Y-69986816D01*
X196216826Y-70351941D01*
X196155469Y-70513195D01*
X196096515Y-70671683D01*
X196047219Y-70807699D01*
X196018078Y-70891691D01*
X195983481Y-70993198D01*
X195934228Y-71134407D01*
X195877333Y-71295331D01*
X195828652Y-71431441D01*
X195772931Y-71586965D01*
X195720950Y-71733237D01*
X195678861Y-71852872D01*
X195654468Y-71923566D01*
X195629899Y-71995011D01*
X195588549Y-72113679D01*
X195534843Y-72266937D01*
X195473206Y-72442153D01*
X195420922Y-72590316D01*
X195340974Y-72816972D01*
X195249451Y-73077121D01*
X195155655Y-73344284D01*
X195068887Y-73591982D01*
X195036132Y-73685691D01*
X194958786Y-73907022D01*
X194873875Y-74149780D01*
X194789495Y-74390833D01*
X194713741Y-74607050D01*
X194680550Y-74701691D01*
X194608055Y-74909331D01*
X194555346Y-75064270D01*
X194520797Y-75173588D01*
X194502786Y-75244364D01*
X194499688Y-75283680D01*
X194509879Y-75298616D01*
X194531734Y-75296252D01*
X194545308Y-75291285D01*
X194601225Y-75273108D01*
X194701787Y-75244094D01*
X194830092Y-75209034D01*
X194907191Y-75188695D01*
X195058736Y-75149230D01*
X195247515Y-75100062D01*
X195449314Y-75047497D01*
X195637441Y-74998488D01*
X195819657Y-74951317D01*
X196004370Y-74904016D01*
X196170723Y-74861895D01*
X196297859Y-74830266D01*
X196304191Y-74828719D01*
X196445079Y-74793643D01*
X196617946Y-74749594D01*
X196793443Y-74704077D01*
X196859816Y-74686609D01*
X197034867Y-74640488D01*
X197238701Y-74587081D01*
X197438609Y-74534949D01*
X197526566Y-74512115D01*
X197699130Y-74466896D01*
X197906087Y-74411888D01*
X198120635Y-74354254D01*
X198304441Y-74304309D01*
X198592403Y-74226125D01*
X198822969Y-74164992D01*
X198999663Y-74120050D01*
X199126008Y-74090441D01*
X199205531Y-74075303D01*
X199241754Y-74073778D01*
X199244164Y-74075080D01*
X199234746Y-74106231D01*
X199201535Y-74188366D01*
X199147436Y-74314858D01*
X199075355Y-74479077D01*
X198988198Y-74674395D01*
X198888872Y-74894184D01*
X198793965Y-75102009D01*
X198666224Y-75380495D01*
X198529955Y-75677694D01*
X198391739Y-75979240D01*
X198258159Y-76270771D01*
X198135799Y-76537921D01*
X198031240Y-76766326D01*
X198002591Y-76828941D01*
X197903096Y-77046191D01*
X197803974Y-77262197D01*
X197710983Y-77464442D01*
X197629880Y-77640410D01*
X197566424Y-77777585D01*
X197542482Y-77829066D01*
X197433656Y-78062381D01*
X197348011Y-78246108D01*
X197281862Y-78388194D01*
X197231522Y-78496586D01*
X197193304Y-78579231D01*
X197163521Y-78644077D01*
X197138488Y-78699070D01*
X197122726Y-78733941D01*
X197081523Y-78824684D01*
X197031563Y-78933446D01*
X196968573Y-79069446D01*
X196888280Y-79241902D01*
X196786410Y-79460031D01*
X196753670Y-79530052D01*
X196715803Y-79611571D01*
X196654494Y-79744243D01*
X196572767Y-79921498D01*
X196473644Y-80136765D01*
X196360150Y-80383475D01*
X196235308Y-80655058D01*
X196102139Y-80944944D01*
X195963669Y-81246563D01*
X195913597Y-81355677D01*
X195775221Y-81657197D01*
X195642097Y-81947162D01*
X195517092Y-82219330D01*
X195403076Y-82467463D01*
X195302917Y-82685319D01*
X195219483Y-82866657D01*
X195155644Y-83005239D01*
X195114266Y-83094822D01*
X195104693Y-83115441D01*
X194995267Y-83350457D01*
X194909984Y-83534013D01*
X194846071Y-83672161D01*
X194800758Y-83770956D01*
X194771272Y-83836450D01*
X194754842Y-83874697D01*
X194748696Y-83891751D01*
X194748441Y-83893507D01*
X194735419Y-83924820D01*
X194699419Y-84003485D01*
X194645040Y-84119654D01*
X194576877Y-84263477D01*
X194526191Y-84369566D01*
X194451357Y-84526656D01*
X194387269Y-84662990D01*
X194338534Y-84768621D01*
X194309759Y-84833600D01*
X194303941Y-84849393D01*
X194291243Y-84883225D01*
X194257113Y-84961015D01*
X194207495Y-85069428D01*
X194173813Y-85141395D01*
X194105447Y-85287150D01*
X194036743Y-85434940D01*
X193979479Y-85559390D01*
X193964679Y-85591941D01*
X193917208Y-85695491D01*
X193876728Y-85781418D01*
X193857415Y-85820522D01*
X193839108Y-85858961D01*
X193796880Y-85949600D01*
X193733277Y-86086918D01*
X193650847Y-86265394D01*
X193552134Y-86479507D01*
X193439686Y-86723736D01*
X193316050Y-86992560D01*
X193183770Y-87280459D01*
X193117911Y-87423897D01*
X192978474Y-87727623D01*
X192843350Y-88021896D01*
X192715555Y-88300148D01*
X192598109Y-88555811D01*
X192494029Y-88782317D01*
X192406332Y-88973098D01*
X192338037Y-89121586D01*
X192292161Y-89221211D01*
X192282020Y-89243191D01*
X192222647Y-89371935D01*
X192169714Y-89487057D01*
X192131517Y-89570503D01*
X192121557Y-89592441D01*
X192095552Y-89639265D01*
X192083589Y-89640054D01*
X192085342Y-89614830D01*
X192093511Y-89565289D01*
X192109402Y-89485358D01*
X192134321Y-89368966D01*
X192169573Y-89210041D01*
X192216463Y-89002512D01*
X192276297Y-88740305D01*
X192288375Y-88687566D01*
X192335170Y-88482776D01*
X192384043Y-88267991D01*
X192430125Y-88064660D01*
X192468548Y-87894233D01*
X192479316Y-87846191D01*
X192516893Y-87679924D01*
X192563094Y-87478112D01*
X192611884Y-87266993D01*
X192654554Y-87084191D01*
X192698034Y-86897160D01*
X192742283Y-86703546D01*
X192782162Y-86526026D01*
X192812530Y-86387277D01*
X192812869Y-86385691D01*
X192849888Y-86217611D01*
X192892482Y-86031998D01*
X192931688Y-85867874D01*
X192933181Y-85861816D01*
X192967187Y-85720882D01*
X193008679Y-85544323D01*
X193051496Y-85358529D01*
X193077707Y-85242691D01*
X193177057Y-84800617D01*
X193268818Y-84394840D01*
X193358831Y-83999590D01*
X193430460Y-83686941D01*
X193475294Y-83491694D01*
X193520919Y-83293008D01*
X193562845Y-83110429D01*
X193596584Y-82963507D01*
X193605441Y-82924941D01*
X193635290Y-82794660D01*
X193674747Y-82622022D01*
X193719345Y-82426588D01*
X193764618Y-82227921D01*
X193779410Y-82162941D01*
X193825678Y-81959870D01*
X193874523Y-81745894D01*
X193920853Y-81543287D01*
X193959580Y-81374325D01*
X193968054Y-81337441D01*
X194005554Y-81173766D01*
X194051280Y-80973326D01*
X194099498Y-80761302D01*
X194144471Y-80562874D01*
X194145219Y-80559566D01*
X194189677Y-80363819D01*
X194237164Y-80156158D01*
X194282098Y-79960907D01*
X194318900Y-79802391D01*
X194320029Y-79797566D01*
X194356408Y-79640856D01*
X194401090Y-79446510D01*
X194448504Y-79238860D01*
X194493075Y-79042233D01*
X194494579Y-79035566D01*
X194535609Y-78855273D01*
X194576583Y-78678034D01*
X194613173Y-78522403D01*
X194641047Y-78406935D01*
X194644723Y-78392172D01*
X194667873Y-78287489D01*
X194679385Y-78209230D01*
X194677246Y-78175912D01*
X194663418Y-78172986D01*
X194629784Y-78176956D01*
X194570494Y-78189317D01*
X194479696Y-78211566D01*
X194351540Y-78245199D01*
X194180174Y-78291710D01*
X193959749Y-78352596D01*
X193684412Y-78429352D01*
X193668941Y-78433677D01*
X193519810Y-78475055D01*
X193337172Y-78525260D01*
X193148847Y-78576661D01*
X193041878Y-78605664D01*
X192709527Y-78695805D01*
X192338304Y-78797059D01*
X191950467Y-78903347D01*
X191700441Y-78972133D01*
X191542807Y-79015230D01*
X191356140Y-79065762D01*
X191172810Y-79114978D01*
X191113066Y-79130900D01*
X190931629Y-79179820D01*
X190725343Y-79236490D01*
X190530339Y-79290958D01*
X190473429Y-79307093D01*
X190324142Y-79348133D01*
X190183735Y-79384110D01*
X190072106Y-79410049D01*
X190026446Y-79418848D01*
X189901599Y-79438812D01*
X190049847Y-78840314D01*
X190177001Y-78325210D01*
X190317056Y-77754546D01*
X190468476Y-77134598D01*
X190629728Y-76471642D01*
X190716331Y-76114566D01*
X190774921Y-75872893D01*
X190834422Y-75627690D01*
X190891365Y-75393235D01*
X190942282Y-75183807D01*
X190983703Y-75013684D01*
X191001725Y-74939816D01*
X191037842Y-74791864D01*
X191085107Y-74598116D01*
X191139644Y-74374473D01*
X191197573Y-74136837D01*
X191255019Y-73901106D01*
X191268825Y-73844441D01*
X191330524Y-73591459D01*
X191398371Y-73313733D01*
X191467141Y-73032616D01*
X191531612Y-72769462D01*
X191586558Y-72545626D01*
X191588878Y-72536188D01*
X191639825Y-72325870D01*
X191689975Y-72113281D01*
X191735473Y-71915167D01*
X191772463Y-71748275D01*
X191793597Y-71647188D01*
X191827000Y-71481983D01*
X191870906Y-71268937D01*
X191922336Y-71022263D01*
X191978313Y-70756174D01*
X192035859Y-70484882D01*
X192091996Y-70222600D01*
X192093882Y-70213836D01*
X192118821Y-70104224D01*
X192140080Y-70021894D01*
X192153247Y-69983867D01*
X192153627Y-69983420D01*
X192186760Y-69981327D01*
X192278117Y-69979581D01*
X192422423Y-69978193D01*
X192614401Y-69977176D01*
X192848778Y-69976543D01*
X193120276Y-69976303D01*
X193423622Y-69976471D01*
X193423622Y-69976471D01*
G37*
X193423622Y-69976471D02*
X193753539Y-69977057D01*
X194104753Y-69978073D01*
X194262044Y-69978650D01*
X196357524Y-69986816D01*
X196216826Y-70351941D01*
X196155469Y-70513195D01*
X196096515Y-70671683D01*
X196047219Y-70807699D01*
X196018078Y-70891691D01*
X195983481Y-70993198D01*
X195934228Y-71134407D01*
X195877333Y-71295331D01*
X195828652Y-71431441D01*
X195772931Y-71586965D01*
X195720950Y-71733237D01*
X195678861Y-71852872D01*
X195654468Y-71923566D01*
X195629899Y-71995011D01*
X195588549Y-72113679D01*
X195534843Y-72266937D01*
X195473206Y-72442153D01*
X195420922Y-72590316D01*
X195340974Y-72816972D01*
X195249451Y-73077121D01*
X195155655Y-73344284D01*
X195068887Y-73591982D01*
X195036132Y-73685691D01*
X194958786Y-73907022D01*
X194873875Y-74149780D01*
X194789495Y-74390833D01*
X194713741Y-74607050D01*
X194680550Y-74701691D01*
X194608055Y-74909331D01*
X194555346Y-75064270D01*
X194520797Y-75173588D01*
X194502786Y-75244364D01*
X194499688Y-75283680D01*
X194509879Y-75298616D01*
X194531734Y-75296252D01*
X194545308Y-75291285D01*
X194601225Y-75273108D01*
X194701787Y-75244094D01*
X194830092Y-75209034D01*
X194907191Y-75188695D01*
X195058736Y-75149230D01*
X195247515Y-75100062D01*
X195449314Y-75047497D01*
X195637441Y-74998488D01*
X195819657Y-74951317D01*
X196004370Y-74904016D01*
X196170723Y-74861895D01*
X196297859Y-74830266D01*
X196304191Y-74828719D01*
X196445079Y-74793643D01*
X196617946Y-74749594D01*
X196793443Y-74704077D01*
X196859816Y-74686609D01*
X197034867Y-74640488D01*
X197238701Y-74587081D01*
X197438609Y-74534949D01*
X197526566Y-74512115D01*
X197699130Y-74466896D01*
X197906087Y-74411888D01*
X198120635Y-74354254D01*
X198304441Y-74304309D01*
X198592403Y-74226125D01*
X198822969Y-74164992D01*
X198999663Y-74120050D01*
X199126008Y-74090441D01*
X199205531Y-74075303D01*
X199241754Y-74073778D01*
X199244164Y-74075080D01*
X199234746Y-74106231D01*
X199201535Y-74188366D01*
X199147436Y-74314858D01*
X199075355Y-74479077D01*
X198988198Y-74674395D01*
X198888872Y-74894184D01*
X198793965Y-75102009D01*
X198666224Y-75380495D01*
X198529955Y-75677694D01*
X198391739Y-75979240D01*
X198258159Y-76270771D01*
X198135799Y-76537921D01*
X198031240Y-76766326D01*
X198002591Y-76828941D01*
X197903096Y-77046191D01*
X197803974Y-77262197D01*
X197710983Y-77464442D01*
X197629880Y-77640410D01*
X197566424Y-77777585D01*
X197542482Y-77829066D01*
X197433656Y-78062381D01*
X197348011Y-78246108D01*
X197281862Y-78388194D01*
X197231522Y-78496586D01*
X197193304Y-78579231D01*
X197163521Y-78644077D01*
X197138488Y-78699070D01*
X197122726Y-78733941D01*
X197081523Y-78824684D01*
X197031563Y-78933446D01*
X196968573Y-79069446D01*
X196888280Y-79241902D01*
X196786410Y-79460031D01*
X196753670Y-79530052D01*
X196715803Y-79611571D01*
X196654494Y-79744243D01*
X196572767Y-79921498D01*
X196473644Y-80136765D01*
X196360150Y-80383475D01*
X196235308Y-80655058D01*
X196102139Y-80944944D01*
X195963669Y-81246563D01*
X195913597Y-81355677D01*
X195775221Y-81657197D01*
X195642097Y-81947162D01*
X195517092Y-82219330D01*
X195403076Y-82467463D01*
X195302917Y-82685319D01*
X195219483Y-82866657D01*
X195155644Y-83005239D01*
X195114266Y-83094822D01*
X195104693Y-83115441D01*
X194995267Y-83350457D01*
X194909984Y-83534013D01*
X194846071Y-83672161D01*
X194800758Y-83770956D01*
X194771272Y-83836450D01*
X194754842Y-83874697D01*
X194748696Y-83891751D01*
X194748441Y-83893507D01*
X194735419Y-83924820D01*
X194699419Y-84003485D01*
X194645040Y-84119654D01*
X194576877Y-84263477D01*
X194526191Y-84369566D01*
X194451357Y-84526656D01*
X194387269Y-84662990D01*
X194338534Y-84768621D01*
X194309759Y-84833600D01*
X194303941Y-84849393D01*
X194291243Y-84883225D01*
X194257113Y-84961015D01*
X194207495Y-85069428D01*
X194173813Y-85141395D01*
X194105447Y-85287150D01*
X194036743Y-85434940D01*
X193979479Y-85559390D01*
X193964679Y-85591941D01*
X193917208Y-85695491D01*
X193876728Y-85781418D01*
X193857415Y-85820522D01*
X193839108Y-85858961D01*
X193796880Y-85949600D01*
X193733277Y-86086918D01*
X193650847Y-86265394D01*
X193552134Y-86479507D01*
X193439686Y-86723736D01*
X193316050Y-86992560D01*
X193183770Y-87280459D01*
X193117911Y-87423897D01*
X192978474Y-87727623D01*
X192843350Y-88021896D01*
X192715555Y-88300148D01*
X192598109Y-88555811D01*
X192494029Y-88782317D01*
X192406332Y-88973098D01*
X192338037Y-89121586D01*
X192292161Y-89221211D01*
X192282020Y-89243191D01*
X192222647Y-89371935D01*
X192169714Y-89487057D01*
X192131517Y-89570503D01*
X192121557Y-89592441D01*
X192095552Y-89639265D01*
X192083589Y-89640054D01*
X192085342Y-89614830D01*
X192093511Y-89565289D01*
X192109402Y-89485358D01*
X192134321Y-89368966D01*
X192169573Y-89210041D01*
X192216463Y-89002512D01*
X192276297Y-88740305D01*
X192288375Y-88687566D01*
X192335170Y-88482776D01*
X192384043Y-88267991D01*
X192430125Y-88064660D01*
X192468548Y-87894233D01*
X192479316Y-87846191D01*
X192516893Y-87679924D01*
X192563094Y-87478112D01*
X192611884Y-87266993D01*
X192654554Y-87084191D01*
X192698034Y-86897160D01*
X192742283Y-86703546D01*
X192782162Y-86526026D01*
X192812530Y-86387277D01*
X192812869Y-86385691D01*
X192849888Y-86217611D01*
X192892482Y-86031998D01*
X192931688Y-85867874D01*
X192933181Y-85861816D01*
X192967187Y-85720882D01*
X193008679Y-85544323D01*
X193051496Y-85358529D01*
X193077707Y-85242691D01*
X193177057Y-84800617D01*
X193268818Y-84394840D01*
X193358831Y-83999590D01*
X193430460Y-83686941D01*
X193475294Y-83491694D01*
X193520919Y-83293008D01*
X193562845Y-83110429D01*
X193596584Y-82963507D01*
X193605441Y-82924941D01*
X193635290Y-82794660D01*
X193674747Y-82622022D01*
X193719345Y-82426588D01*
X193764618Y-82227921D01*
X193779410Y-82162941D01*
X193825678Y-81959870D01*
X193874523Y-81745894D01*
X193920853Y-81543287D01*
X193959580Y-81374325D01*
X193968054Y-81337441D01*
X194005554Y-81173766D01*
X194051280Y-80973326D01*
X194099498Y-80761302D01*
X194144471Y-80562874D01*
X194145219Y-80559566D01*
X194189677Y-80363819D01*
X194237164Y-80156158D01*
X194282098Y-79960907D01*
X194318900Y-79802391D01*
X194320029Y-79797566D01*
X194356408Y-79640856D01*
X194401090Y-79446510D01*
X194448504Y-79238860D01*
X194493075Y-79042233D01*
X194494579Y-79035566D01*
X194535609Y-78855273D01*
X194576583Y-78678034D01*
X194613173Y-78522403D01*
X194641047Y-78406935D01*
X194644723Y-78392172D01*
X194667873Y-78287489D01*
X194679385Y-78209230D01*
X194677246Y-78175912D01*
X194663418Y-78172986D01*
X194629784Y-78176956D01*
X194570494Y-78189317D01*
X194479696Y-78211566D01*
X194351540Y-78245199D01*
X194180174Y-78291710D01*
X193959749Y-78352596D01*
X193684412Y-78429352D01*
X193668941Y-78433677D01*
X193519810Y-78475055D01*
X193337172Y-78525260D01*
X193148847Y-78576661D01*
X193041878Y-78605664D01*
X192709527Y-78695805D01*
X192338304Y-78797059D01*
X191950467Y-78903347D01*
X191700441Y-78972133D01*
X191542807Y-79015230D01*
X191356140Y-79065762D01*
X191172810Y-79114978D01*
X191113066Y-79130900D01*
X190931629Y-79179820D01*
X190725343Y-79236490D01*
X190530339Y-79290958D01*
X190473429Y-79307093D01*
X190324142Y-79348133D01*
X190183735Y-79384110D01*
X190072106Y-79410049D01*
X190026446Y-79418848D01*
X189901599Y-79438812D01*
X190049847Y-78840314D01*
X190177001Y-78325210D01*
X190317056Y-77754546D01*
X190468476Y-77134598D01*
X190629728Y-76471642D01*
X190716331Y-76114566D01*
X190774921Y-75872893D01*
X190834422Y-75627690D01*
X190891365Y-75393235D01*
X190942282Y-75183807D01*
X190983703Y-75013684D01*
X191001725Y-74939816D01*
X191037842Y-74791864D01*
X191085107Y-74598116D01*
X191139644Y-74374473D01*
X191197573Y-74136837D01*
X191255019Y-73901106D01*
X191268825Y-73844441D01*
X191330524Y-73591459D01*
X191398371Y-73313733D01*
X191467141Y-73032616D01*
X191531612Y-72769462D01*
X191586558Y-72545626D01*
X191588878Y-72536188D01*
X191639825Y-72325870D01*
X191689975Y-72113281D01*
X191735473Y-71915167D01*
X191772463Y-71748275D01*
X191793597Y-71647188D01*
X191827000Y-71481983D01*
X191870906Y-71268937D01*
X191922336Y-71022263D01*
X191978313Y-70756174D01*
X192035859Y-70484882D01*
X192091996Y-70222600D01*
X192093882Y-70213836D01*
X192118821Y-70104224D01*
X192140080Y-70021894D01*
X192153247Y-69983867D01*
X192153627Y-69983420D01*
X192186760Y-69981327D01*
X192278117Y-69979581D01*
X192422423Y-69978193D01*
X192614401Y-69977176D01*
X192848778Y-69976543D01*
X193120276Y-69976303D01*
X193423622Y-69976471D01*
D19*
G04 #@! TO.C,C3*
X122557000Y-131226779D02*
X122557000Y-130901221D01*
X121537000Y-131226779D02*
X121537000Y-130901221D01*
G04 #@! TO.C,C4*
X130647221Y-132844000D02*
X130972779Y-132844000D01*
X130647221Y-131824000D02*
X130972779Y-131824000D01*
G04 #@! TO.C,C7*
X96971000Y-126172779D02*
X96971000Y-125847221D01*
X95951000Y-126172779D02*
X95951000Y-125847221D01*
G04 #@! TO.C,C8*
X84525000Y-125156779D02*
X84525000Y-124831221D01*
X83505000Y-125156779D02*
X83505000Y-124831221D01*
G04 #@! TO.C,C15*
X100649000Y-44881721D02*
X100649000Y-45207279D01*
X101669000Y-44881721D02*
X101669000Y-45207279D01*
G04 #@! TO.C,C18*
X107037779Y-111403000D02*
X106712221Y-111403000D01*
X107037779Y-112423000D02*
X106712221Y-112423000D01*
G04 #@! TO.C,C19*
X102770691Y-115250470D02*
X102770691Y-114924912D01*
X101750691Y-115250470D02*
X101750691Y-114924912D01*
G04 #@! TO.C,D1*
X90150000Y-114934000D02*
X92435000Y-114934000D01*
X90150000Y-113464000D02*
X90150000Y-114934000D01*
X92435000Y-113464000D02*
X90150000Y-113464000D01*
G04 #@! TO.C,D2*
X90150000Y-116839000D02*
X92435000Y-116839000D01*
X90150000Y-115369000D02*
X90150000Y-116839000D01*
X92435000Y-115369000D02*
X90150000Y-115369000D01*
G04 #@! TO.C,D3*
X125128000Y-41609000D02*
X125128000Y-44549000D01*
X125368000Y-41609000D02*
X125368000Y-44549000D01*
X125248000Y-41609000D02*
X125248000Y-44549000D01*
X130808000Y-43079000D02*
X129788000Y-43079000D01*
X123328000Y-43079000D02*
X124348000Y-43079000D01*
X129788000Y-41609000D02*
X124348000Y-41609000D01*
X129788000Y-44549000D02*
X129788000Y-41609000D01*
X124348000Y-44549000D02*
X129788000Y-44549000D01*
X124348000Y-41609000D02*
X124348000Y-44549000D01*
G04 #@! TO.C,D4*
X73185000Y-56849000D02*
X73185000Y-59789000D01*
X73425000Y-56849000D02*
X73425000Y-59789000D01*
X73305000Y-56849000D02*
X73305000Y-59789000D01*
X78865000Y-58319000D02*
X77845000Y-58319000D01*
X71385000Y-58319000D02*
X72405000Y-58319000D01*
X77845000Y-56849000D02*
X72405000Y-56849000D01*
X77845000Y-59789000D02*
X77845000Y-56849000D01*
X72405000Y-59789000D02*
X77845000Y-59789000D01*
X72405000Y-56849000D02*
X72405000Y-59789000D01*
G04 #@! TO.C,D5*
X84431000Y-76116000D02*
X87371000Y-76116000D01*
X84431000Y-75876000D02*
X87371000Y-75876000D01*
X84431000Y-75996000D02*
X87371000Y-75996000D01*
X85901000Y-70436000D02*
X85901000Y-71456000D01*
X85901000Y-77916000D02*
X85901000Y-76896000D01*
X84431000Y-71456000D02*
X84431000Y-76896000D01*
X87371000Y-71456000D02*
X84431000Y-71456000D01*
X87371000Y-76896000D02*
X87371000Y-71456000D01*
X84431000Y-76896000D02*
X87371000Y-76896000D01*
G04 #@! TO.C,D6*
X92235000Y-73359000D02*
X92235000Y-76299000D01*
X92475000Y-73359000D02*
X92475000Y-76299000D01*
X92355000Y-73359000D02*
X92355000Y-76299000D01*
X97915000Y-74829000D02*
X96895000Y-74829000D01*
X90435000Y-74829000D02*
X91455000Y-74829000D01*
X96895000Y-73359000D02*
X91455000Y-73359000D01*
X96895000Y-76299000D02*
X96895000Y-73359000D01*
X91455000Y-76299000D02*
X96895000Y-76299000D01*
X91455000Y-73359000D02*
X91455000Y-76299000D01*
D20*
G04 #@! TO.C,L1*
X206956000Y-114618000D02*
X204670000Y-114618000D01*
X206956000Y-111570000D02*
X206956000Y-114618000D01*
X204670000Y-111570000D02*
X206956000Y-111570000D01*
X204670000Y-114618000D02*
X204670000Y-111570000D01*
D19*
G04 #@! TO.C,Q1*
X129538000Y-46249000D02*
X130638000Y-46249000D01*
X129538000Y-45979000D02*
X129538000Y-46249000D01*
X128038000Y-45979000D02*
X129538000Y-45979000D01*
X129538000Y-52609000D02*
X132368000Y-52609000D01*
X129538000Y-52879000D02*
X129538000Y-52609000D01*
X128038000Y-52879000D02*
X129538000Y-52879000D01*
G04 #@! TO.C,Q2*
X90170000Y-55519000D02*
X91270000Y-55519000D01*
X90170000Y-55249000D02*
X90170000Y-55519000D01*
X88670000Y-55249000D02*
X90170000Y-55249000D01*
X90170000Y-61879000D02*
X93000000Y-61879000D01*
X90170000Y-62149000D02*
X90170000Y-61879000D01*
X88670000Y-62149000D02*
X90170000Y-62149000D01*
G04 #@! TO.C,Q3*
X97155000Y-65424000D02*
X98255000Y-65424000D01*
X97155000Y-65154000D02*
X97155000Y-65424000D01*
X95655000Y-65154000D02*
X97155000Y-65154000D01*
X97155000Y-71784000D02*
X99985000Y-71784000D01*
X97155000Y-72054000D02*
X97155000Y-71784000D01*
X95655000Y-72054000D02*
X97155000Y-72054000D01*
G04 #@! TO.C,Q4*
X101725000Y-77364000D02*
X102825000Y-77364000D01*
X101725000Y-77094000D02*
X101725000Y-77364000D01*
X100225000Y-77094000D02*
X101725000Y-77094000D01*
X101725000Y-83724000D02*
X104555000Y-83724000D01*
X101725000Y-83994000D02*
X101725000Y-83724000D01*
X100225000Y-83994000D02*
X101725000Y-83994000D01*
G04 #@! TO.C,R2*
X132877779Y-141984000D02*
X132552221Y-141984000D01*
X132877779Y-143004000D02*
X132552221Y-143004000D01*
G04 #@! TO.C,R3*
X123823000Y-134203221D02*
X123823000Y-134528779D01*
X124843000Y-134203221D02*
X124843000Y-134528779D01*
G04 #@! TO.C,R4*
X76594221Y-121422000D02*
X76919779Y-121422000D01*
X76594221Y-120402000D02*
X76919779Y-120402000D01*
G04 #@! TO.C,R5*
X88297221Y-114709000D02*
X88622779Y-114709000D01*
X88297221Y-113689000D02*
X88622779Y-113689000D01*
G04 #@! TO.C,R6*
X88297221Y-116614000D02*
X88622779Y-116614000D01*
X88297221Y-115594000D02*
X88622779Y-115594000D01*
G04 #@! TO.C,R7*
X130774221Y-121668000D02*
X131099779Y-121668000D01*
X130774221Y-120648000D02*
X131099779Y-120648000D01*
G04 #@! TO.C,R8*
X130774221Y-120271000D02*
X131099779Y-120271000D01*
X130774221Y-119251000D02*
X131099779Y-119251000D01*
G04 #@! TO.C,R17*
X209183000Y-111041936D02*
X209183000Y-115146064D01*
X212603000Y-111041936D02*
X212603000Y-115146064D01*
G04 #@! TO.C,R18*
X191678779Y-65784000D02*
X191353221Y-65784000D01*
X191678779Y-66804000D02*
X191353221Y-66804000D01*
G04 #@! TO.C,R19*
X188402221Y-72779000D02*
X188727779Y-72779000D01*
X188402221Y-71759000D02*
X188727779Y-71759000D01*
G04 #@! TO.C,R20*
X175643000Y-66304279D02*
X175643000Y-65978721D01*
X174623000Y-66304279D02*
X174623000Y-65978721D01*
G04 #@! TO.C,R21*
X176027779Y-71759000D02*
X175702221Y-71759000D01*
X176027779Y-72779000D02*
X175702221Y-72779000D01*
G04 #@! TO.C,R24*
X104990937Y-109734001D02*
X109095065Y-109734001D01*
X104990937Y-106314001D02*
X109095065Y-106314001D01*
G04 #@! TO.C,R25*
X104990937Y-105844001D02*
X109095065Y-105844001D01*
X104990937Y-102424001D02*
X109095065Y-102424001D01*
G04 #@! TO.C,R26*
X110179000Y-111948779D02*
X110179000Y-111623221D01*
X109159000Y-111948779D02*
X109159000Y-111623221D01*
G04 #@! TO.C,R27*
X104718000Y-111948779D02*
X104718000Y-111623221D01*
X103698000Y-111948779D02*
X103698000Y-111623221D01*
D20*
G04 #@! TO.C,U1*
X133970000Y-135559000D02*
X133970000Y-134159000D01*
X128870000Y-135559000D02*
X128870000Y-139709000D01*
X134020000Y-135559000D02*
X134020000Y-139709000D01*
X128870000Y-135559000D02*
X129015000Y-135559000D01*
X128870000Y-139709000D02*
X129015000Y-139709000D01*
X134020000Y-139709000D02*
X133875000Y-139709000D01*
X134020000Y-135559000D02*
X133970000Y-135559000D01*
G04 #@! TO.C,U3*
X86600000Y-121299000D02*
X85175000Y-121299000D01*
X93850000Y-121074000D02*
X93525000Y-121074000D01*
X93850000Y-128324000D02*
X93525000Y-128324000D01*
X86600000Y-128324000D02*
X86925000Y-128324000D01*
X86600000Y-121074000D02*
X86925000Y-121074000D01*
X86600000Y-128324000D02*
X86600000Y-127999000D01*
X93850000Y-128324000D02*
X93850000Y-127999000D01*
X93850000Y-121074000D02*
X93850000Y-121399000D01*
X86600000Y-121074000D02*
X86600000Y-121299000D01*
D19*
G04 #@! TO.C,U7*
X96475000Y-53167000D02*
X96475000Y-51927000D01*
X95235000Y-53167000D02*
X96475000Y-53167000D01*
X87615000Y-41206000D02*
X96235000Y-41206000D01*
X87615000Y-52927000D02*
X96235000Y-52927000D01*
X96235000Y-52927000D02*
X96235000Y-41206000D01*
X87615000Y-52927000D02*
X87615000Y-41206000D01*
D20*
G04 #@! TO.C,U8*
X109077000Y-119009691D02*
X110477000Y-119009691D01*
X109077000Y-113909691D02*
X104927000Y-113909691D01*
X109077000Y-119059691D02*
X104927000Y-119059691D01*
X109077000Y-113909691D02*
X109077000Y-114054691D01*
X104927000Y-113909691D02*
X104927000Y-114054691D01*
X104927000Y-119059691D02*
X104927000Y-118914691D01*
X109077000Y-119059691D02*
X109077000Y-119009691D01*
D19*
G04 #@! TO.C,U6*
X186085000Y-62229000D02*
X183850000Y-62229000D01*
X186085000Y-67429000D02*
X186085000Y-62229000D01*
X179615000Y-67429000D02*
X186085000Y-67429000D01*
X179615000Y-62229000D02*
X179615000Y-67429000D01*
X181850000Y-62229000D02*
X179615000Y-62229000D01*
X183850000Y-62229000D02*
G75*
G02X181850000Y-62229000I-1000000J0D01*
G01*
G04 #@! TO.C,RN1*
X103962000Y-60703000D02*
X104962000Y-60703000D01*
X103962000Y-64063000D02*
X104962000Y-64063000D01*
G04 #@! TO.C,RN2*
X107772000Y-64063000D02*
X108772000Y-64063000D01*
X107772000Y-60703000D02*
X108772000Y-60703000D01*
G04 #@! TO.C,C6*
X98875000Y-44907221D02*
X98875000Y-45232779D01*
X97855000Y-44907221D02*
X97855000Y-45232779D01*
G04 #@! TO.C,Y1*
X109658000Y-139932000D02*
X109658000Y-140732000D01*
X107258000Y-139932000D02*
X109258000Y-139932000D01*
X107258000Y-140732000D02*
X107258000Y-139932000D01*
X107258000Y-143532000D02*
X107258000Y-142532000D01*
X109258000Y-143532000D02*
X107258000Y-143532000D01*
X109658000Y-142532000D02*
X109658000Y-143532000D01*
X109658000Y-142532000D02*
X110058000Y-142532000D01*
X107258000Y-143732000D02*
X109258000Y-143732000D01*
X109258000Y-139932000D02*
X109658000Y-139932000D01*
X109258000Y-143532000D02*
X109658000Y-143532000D01*
X109258000Y-143732000D02*
X109658000Y-143732000D01*
D20*
G04 #@! TO.C,U2*
X113346000Y-133242000D02*
X113346000Y-133492000D01*
X121096000Y-133242000D02*
X121096000Y-133587000D01*
X121096000Y-145142000D02*
X121096000Y-144797000D01*
X113346000Y-145142000D02*
X113346000Y-144797000D01*
X113346000Y-133242000D02*
X121096000Y-133242000D01*
X113346000Y-145142000D02*
X121096000Y-145142000D01*
X113346000Y-133492000D02*
X111521000Y-133492000D01*
D19*
G04 #@! TO.C,R9*
X96674691Y-117210912D02*
X96674691Y-117536470D01*
X95654691Y-117210912D02*
X95654691Y-117536470D01*
G04 #@! TO.C,R10*
X98579691Y-118099912D02*
X98579691Y-118425470D01*
X97559691Y-118099912D02*
X97559691Y-118425470D01*
G04 #@! TO.C,J16*
D20*
X60150476Y-125182380D02*
X60150476Y-125896666D01*
X60102857Y-126039523D01*
X60007619Y-126134761D01*
X59864761Y-126182380D01*
X59769523Y-126182380D01*
X61150476Y-126182380D02*
X60579047Y-126182380D01*
X60864761Y-126182380D02*
X60864761Y-125182380D01*
X60769523Y-125325238D01*
X60674285Y-125420476D01*
X60579047Y-125468095D01*
X62007619Y-125182380D02*
X61817142Y-125182380D01*
X61721904Y-125230000D01*
X61674285Y-125277619D01*
X61579047Y-125420476D01*
X61531428Y-125610952D01*
X61531428Y-125991904D01*
X61579047Y-126087142D01*
X61626666Y-126134761D01*
X61721904Y-126182380D01*
X61912380Y-126182380D01*
X62007619Y-126134761D01*
X62055238Y-126087142D01*
X62102857Y-125991904D01*
X62102857Y-125753809D01*
X62055238Y-125658571D01*
X62007619Y-125610952D01*
X61912380Y-125563333D01*
X61721904Y-125563333D01*
X61626666Y-125610952D01*
X61579047Y-125658571D01*
X61531428Y-125753809D01*
D21*
X53404950Y-72740283D02*
X53471716Y-72807050D01*
X53538483Y-73007350D01*
X53538483Y-73140883D01*
X53471716Y-73341183D01*
X53338183Y-73474716D01*
X53204650Y-73541483D01*
X52937583Y-73608250D01*
X52737283Y-73608250D01*
X52470216Y-73541483D01*
X52336683Y-73474716D01*
X52203150Y-73341183D01*
X52136383Y-73140883D01*
X52136383Y-73007350D01*
X52203150Y-72807050D01*
X52269916Y-72740283D01*
X53538483Y-71939083D02*
X53471716Y-72072616D01*
X53404950Y-72139383D01*
X53271416Y-72206150D01*
X52870816Y-72206150D01*
X52737283Y-72139383D01*
X52670516Y-72072616D01*
X52603750Y-71939083D01*
X52603750Y-71738783D01*
X52670516Y-71605250D01*
X52737283Y-71538483D01*
X52870816Y-71471716D01*
X53271416Y-71471716D01*
X53404950Y-71538483D01*
X53471716Y-71605250D01*
X53538483Y-71738783D01*
X53538483Y-71939083D01*
X52603750Y-70870816D02*
X53538483Y-70870816D01*
X52737283Y-70870816D02*
X52670516Y-70804050D01*
X52603750Y-70670516D01*
X52603750Y-70470216D01*
X52670516Y-70336683D01*
X52804050Y-70269916D01*
X53538483Y-70269916D01*
X52603750Y-69602250D02*
X53538483Y-69602250D01*
X52737283Y-69602250D02*
X52670516Y-69535483D01*
X52603750Y-69401950D01*
X52603750Y-69201650D01*
X52670516Y-69068116D01*
X52804050Y-69001350D01*
X53538483Y-69001350D01*
X53672016Y-68667516D02*
X53672016Y-67599250D01*
X52136383Y-66998350D02*
X52136383Y-66864816D01*
X52203150Y-66731283D01*
X52269916Y-66664516D01*
X52403450Y-66597750D01*
X52670516Y-66530983D01*
X53004350Y-66530983D01*
X53271416Y-66597750D01*
X53404950Y-66664516D01*
X53471716Y-66731283D01*
X53538483Y-66864816D01*
X53538483Y-66998350D01*
X53471716Y-67131883D01*
X53404950Y-67198650D01*
X53271416Y-67265416D01*
X53004350Y-67332183D01*
X52670516Y-67332183D01*
X52403450Y-67265416D01*
X52269916Y-67198650D01*
X52203150Y-67131883D01*
X52136383Y-66998350D01*
X53538483Y-65195650D02*
X53538483Y-65996850D01*
X53538483Y-65596250D02*
X52136383Y-65596250D01*
X52336683Y-65729783D01*
X52470216Y-65863316D01*
X52536983Y-65996850D01*
X53538483Y-64728283D02*
X52603750Y-63993850D01*
X52603750Y-64728283D02*
X53538483Y-63993850D01*
X52269916Y-63526483D02*
X52203150Y-63459716D01*
X52136383Y-63326183D01*
X52136383Y-62992350D01*
X52203150Y-62858816D01*
X52269916Y-62792050D01*
X52403450Y-62725283D01*
X52536983Y-62725283D01*
X52737283Y-62792050D01*
X53538483Y-63593250D01*
X53538483Y-62725283D01*
X52136383Y-62257916D02*
X52136383Y-61389950D01*
X52670516Y-61857316D01*
X52670516Y-61657016D01*
X52737283Y-61523483D01*
X52804050Y-61456716D01*
X52937583Y-61389950D01*
X53271416Y-61389950D01*
X53404950Y-61456716D01*
X53471716Y-61523483D01*
X53538483Y-61657016D01*
X53538483Y-62057616D01*
X53471716Y-62191150D01*
X53404950Y-62257916D01*
G04 #@! TO.C,REF\002A\002A*
D20*
X210297666Y-139178380D02*
X209964333Y-138702190D01*
X209726238Y-139178380D02*
X209726238Y-138178380D01*
X210107190Y-138178380D01*
X210202428Y-138226000D01*
X210250047Y-138273619D01*
X210297666Y-138368857D01*
X210297666Y-138511714D01*
X210250047Y-138606952D01*
X210202428Y-138654571D01*
X210107190Y-138702190D01*
X209726238Y-138702190D01*
X210726238Y-138654571D02*
X211059571Y-138654571D01*
X211202428Y-139178380D02*
X210726238Y-139178380D01*
X210726238Y-138178380D01*
X211202428Y-138178380D01*
X211964333Y-138654571D02*
X211631000Y-138654571D01*
X211631000Y-139178380D02*
X211631000Y-138178380D01*
X212107190Y-138178380D01*
X212631000Y-138178380D02*
X212631000Y-138416476D01*
X212392904Y-138321238D02*
X212631000Y-138416476D01*
X212869095Y-138321238D01*
X212488142Y-138606952D02*
X212631000Y-138416476D01*
X212773857Y-138606952D01*
X213392904Y-138178380D02*
X213392904Y-138416476D01*
X213154809Y-138321238D02*
X213392904Y-138416476D01*
X213631000Y-138321238D01*
X213250047Y-138606952D02*
X213392904Y-138416476D01*
X213535761Y-138606952D01*
X210297666Y-40118380D02*
X209964333Y-39642190D01*
X209726238Y-40118380D02*
X209726238Y-39118380D01*
X210107190Y-39118380D01*
X210202428Y-39166000D01*
X210250047Y-39213619D01*
X210297666Y-39308857D01*
X210297666Y-39451714D01*
X210250047Y-39546952D01*
X210202428Y-39594571D01*
X210107190Y-39642190D01*
X209726238Y-39642190D01*
X210726238Y-39594571D02*
X211059571Y-39594571D01*
X211202428Y-40118380D02*
X210726238Y-40118380D01*
X210726238Y-39118380D01*
X211202428Y-39118380D01*
X211964333Y-39594571D02*
X211631000Y-39594571D01*
X211631000Y-40118380D02*
X211631000Y-39118380D01*
X212107190Y-39118380D01*
X212631000Y-39118380D02*
X212631000Y-39356476D01*
X212392904Y-39261238D02*
X212631000Y-39356476D01*
X212869095Y-39261238D01*
X212488142Y-39546952D02*
X212631000Y-39356476D01*
X212773857Y-39546952D01*
X213392904Y-39118380D02*
X213392904Y-39356476D01*
X213154809Y-39261238D02*
X213392904Y-39356476D01*
X213631000Y-39261238D01*
X213250047Y-39546952D02*
X213392904Y-39356476D01*
X213535761Y-39546952D01*
X62977666Y-40118380D02*
X62644333Y-39642190D01*
X62406238Y-40118380D02*
X62406238Y-39118380D01*
X62787190Y-39118380D01*
X62882428Y-39166000D01*
X62930047Y-39213619D01*
X62977666Y-39308857D01*
X62977666Y-39451714D01*
X62930047Y-39546952D01*
X62882428Y-39594571D01*
X62787190Y-39642190D01*
X62406238Y-39642190D01*
X63406238Y-39594571D02*
X63739571Y-39594571D01*
X63882428Y-40118380D02*
X63406238Y-40118380D01*
X63406238Y-39118380D01*
X63882428Y-39118380D01*
X64644333Y-39594571D02*
X64311000Y-39594571D01*
X64311000Y-40118380D02*
X64311000Y-39118380D01*
X64787190Y-39118380D01*
X65311000Y-39118380D02*
X65311000Y-39356476D01*
X65072904Y-39261238D02*
X65311000Y-39356476D01*
X65549095Y-39261238D01*
X65168142Y-39546952D02*
X65311000Y-39356476D01*
X65453857Y-39546952D01*
X66072904Y-39118380D02*
X66072904Y-39356476D01*
X65834809Y-39261238D02*
X66072904Y-39356476D01*
X66311000Y-39261238D01*
X65930047Y-39546952D02*
X66072904Y-39356476D01*
X66215761Y-39546952D01*
X62977666Y-139178380D02*
X62644333Y-138702190D01*
X62406238Y-139178380D02*
X62406238Y-138178380D01*
X62787190Y-138178380D01*
X62882428Y-138226000D01*
X62930047Y-138273619D01*
X62977666Y-138368857D01*
X62977666Y-138511714D01*
X62930047Y-138606952D01*
X62882428Y-138654571D01*
X62787190Y-138702190D01*
X62406238Y-138702190D01*
X63406238Y-138654571D02*
X63739571Y-138654571D01*
X63882428Y-139178380D02*
X63406238Y-139178380D01*
X63406238Y-138178380D01*
X63882428Y-138178380D01*
X64644333Y-138654571D02*
X64311000Y-138654571D01*
X64311000Y-139178380D02*
X64311000Y-138178380D01*
X64787190Y-138178380D01*
X65311000Y-138178380D02*
X65311000Y-138416476D01*
X65072904Y-138321238D02*
X65311000Y-138416476D01*
X65549095Y-138321238D01*
X65168142Y-138606952D02*
X65311000Y-138416476D01*
X65453857Y-138606952D01*
X66072904Y-138178380D02*
X66072904Y-138416476D01*
X65834809Y-138321238D02*
X66072904Y-138416476D01*
X66311000Y-138321238D01*
X65930047Y-138606952D02*
X66072904Y-138416476D01*
X66215761Y-138606952D01*
G04 #@! TO.C,U9*
X177825786Y-67931071D02*
X177825786Y-68740595D01*
X177873405Y-68835833D01*
X177921024Y-68883452D01*
X178016262Y-68931071D01*
X178206738Y-68931071D01*
X178301976Y-68883452D01*
X178349595Y-68835833D01*
X178397214Y-68740595D01*
X178397214Y-67931071D01*
X178921024Y-68931071D02*
X179111500Y-68931071D01*
X179206738Y-68883452D01*
X179254357Y-68835833D01*
X179349595Y-68692976D01*
X179397214Y-68502500D01*
X179397214Y-68121548D01*
X179349595Y-68026310D01*
X179301976Y-67978691D01*
X179206738Y-67931071D01*
X179016262Y-67931071D01*
X178921024Y-67978691D01*
X178873405Y-68026310D01*
X178825786Y-68121548D01*
X178825786Y-68359643D01*
X178873405Y-68454881D01*
X178921024Y-68502500D01*
X179016262Y-68550119D01*
X179206738Y-68550119D01*
X179301976Y-68502500D01*
X179349595Y-68454881D01*
X179397214Y-68359643D01*
G04 #@! TO.C,RV1*
X195746761Y-60904380D02*
X195413428Y-60428190D01*
X195175333Y-60904380D02*
X195175333Y-59904380D01*
X195556285Y-59904380D01*
X195651523Y-59952000D01*
X195699142Y-59999619D01*
X195746761Y-60094857D01*
X195746761Y-60237714D01*
X195699142Y-60332952D01*
X195651523Y-60380571D01*
X195556285Y-60428190D01*
X195175333Y-60428190D01*
X196032476Y-59904380D02*
X196365809Y-60904380D01*
X196699142Y-59904380D01*
X197556285Y-60904380D02*
X196984857Y-60904380D01*
X197270571Y-60904380D02*
X197270571Y-59904380D01*
X197175333Y-60047238D01*
X197080095Y-60142476D01*
X196984857Y-60190095D01*
G04 #@! TO.C,C3*
X121753333Y-129135142D02*
X121705714Y-129182761D01*
X121562857Y-129230380D01*
X121467619Y-129230380D01*
X121324761Y-129182761D01*
X121229523Y-129087523D01*
X121181904Y-128992285D01*
X121134285Y-128801809D01*
X121134285Y-128658952D01*
X121181904Y-128468476D01*
X121229523Y-128373238D01*
X121324761Y-128278000D01*
X121467619Y-128230380D01*
X121562857Y-128230380D01*
X121705714Y-128278000D01*
X121753333Y-128325619D01*
X122086666Y-128230380D02*
X122705714Y-128230380D01*
X122372380Y-128611333D01*
X122515238Y-128611333D01*
X122610476Y-128658952D01*
X122658095Y-128706571D01*
X122705714Y-128801809D01*
X122705714Y-129039904D01*
X122658095Y-129135142D01*
X122610476Y-129182761D01*
X122515238Y-129230380D01*
X122229523Y-129230380D01*
X122134285Y-129182761D01*
X122086666Y-129135142D01*
G04 #@! TO.C,C4*
X130643333Y-131261142D02*
X130595714Y-131308761D01*
X130452857Y-131356380D01*
X130357619Y-131356380D01*
X130214761Y-131308761D01*
X130119523Y-131213523D01*
X130071904Y-131118285D01*
X130024285Y-130927809D01*
X130024285Y-130784952D01*
X130071904Y-130594476D01*
X130119523Y-130499238D01*
X130214761Y-130404000D01*
X130357619Y-130356380D01*
X130452857Y-130356380D01*
X130595714Y-130404000D01*
X130643333Y-130451619D01*
X131500476Y-130689714D02*
X131500476Y-131356380D01*
X131262380Y-130308761D02*
X131024285Y-131023047D01*
X131643333Y-131023047D01*
G04 #@! TO.C,C7*
X97847333Y-126400142D02*
X97799714Y-126447761D01*
X97656857Y-126495380D01*
X97561619Y-126495380D01*
X97418761Y-126447761D01*
X97323523Y-126352523D01*
X97275904Y-126257285D01*
X97228285Y-126066809D01*
X97228285Y-125923952D01*
X97275904Y-125733476D01*
X97323523Y-125638238D01*
X97418761Y-125543000D01*
X97561619Y-125495380D01*
X97656857Y-125495380D01*
X97799714Y-125543000D01*
X97847333Y-125590619D01*
X98180666Y-125495380D02*
X98847333Y-125495380D01*
X98418761Y-126495380D01*
G04 #@! TO.C,C8*
X82099333Y-125257142D02*
X82051714Y-125304761D01*
X81908857Y-125352380D01*
X81813619Y-125352380D01*
X81670761Y-125304761D01*
X81575523Y-125209523D01*
X81527904Y-125114285D01*
X81480285Y-124923809D01*
X81480285Y-124780952D01*
X81527904Y-124590476D01*
X81575523Y-124495238D01*
X81670761Y-124400000D01*
X81813619Y-124352380D01*
X81908857Y-124352380D01*
X82051714Y-124400000D01*
X82099333Y-124447619D01*
X82670761Y-124780952D02*
X82575523Y-124733333D01*
X82527904Y-124685714D01*
X82480285Y-124590476D01*
X82480285Y-124542857D01*
X82527904Y-124447619D01*
X82575523Y-124400000D01*
X82670761Y-124352380D01*
X82861238Y-124352380D01*
X82956476Y-124400000D01*
X83004095Y-124447619D01*
X83051714Y-124542857D01*
X83051714Y-124590476D01*
X83004095Y-124685714D01*
X82956476Y-124733333D01*
X82861238Y-124780952D01*
X82670761Y-124780952D01*
X82575523Y-124828571D01*
X82527904Y-124876190D01*
X82480285Y-124971428D01*
X82480285Y-125161904D01*
X82527904Y-125257142D01*
X82575523Y-125304761D01*
X82670761Y-125352380D01*
X82861238Y-125352380D01*
X82956476Y-125304761D01*
X83004095Y-125257142D01*
X83051714Y-125161904D01*
X83051714Y-124971428D01*
X83004095Y-124876190D01*
X82956476Y-124828571D01*
X82861238Y-124780952D01*
G04 #@! TO.C,C15*
X101211142Y-43029142D02*
X101163523Y-43076761D01*
X101020666Y-43124380D01*
X100925428Y-43124380D01*
X100782571Y-43076761D01*
X100687333Y-42981523D01*
X100639714Y-42886285D01*
X100592095Y-42695809D01*
X100592095Y-42552952D01*
X100639714Y-42362476D01*
X100687333Y-42267238D01*
X100782571Y-42172000D01*
X100925428Y-42124380D01*
X101020666Y-42124380D01*
X101163523Y-42172000D01*
X101211142Y-42219619D01*
X102163523Y-43124380D02*
X101592095Y-43124380D01*
X101877809Y-43124380D02*
X101877809Y-42124380D01*
X101782571Y-42267238D01*
X101687333Y-42362476D01*
X101592095Y-42410095D01*
X103068285Y-42124380D02*
X102592095Y-42124380D01*
X102544476Y-42600571D01*
X102592095Y-42552952D01*
X102687333Y-42505333D01*
X102925428Y-42505333D01*
X103020666Y-42552952D01*
X103068285Y-42600571D01*
X103115904Y-42695809D01*
X103115904Y-42933904D01*
X103068285Y-43029142D01*
X103020666Y-43076761D01*
X102925428Y-43124380D01*
X102687333Y-43124380D01*
X102592095Y-43076761D01*
X102544476Y-43029142D01*
G04 #@! TO.C,C18*
X106261142Y-110855142D02*
X106213523Y-110902761D01*
X106070666Y-110950380D01*
X105975428Y-110950380D01*
X105832571Y-110902761D01*
X105737333Y-110807523D01*
X105689714Y-110712285D01*
X105642095Y-110521809D01*
X105642095Y-110378952D01*
X105689714Y-110188476D01*
X105737333Y-110093238D01*
X105832571Y-109998000D01*
X105975428Y-109950380D01*
X106070666Y-109950380D01*
X106213523Y-109998000D01*
X106261142Y-110045619D01*
X107213523Y-110950380D02*
X106642095Y-110950380D01*
X106927809Y-110950380D02*
X106927809Y-109950380D01*
X106832571Y-110093238D01*
X106737333Y-110188476D01*
X106642095Y-110236095D01*
X107784952Y-110378952D02*
X107689714Y-110331333D01*
X107642095Y-110283714D01*
X107594476Y-110188476D01*
X107594476Y-110140857D01*
X107642095Y-110045619D01*
X107689714Y-109998000D01*
X107784952Y-109950380D01*
X107975428Y-109950380D01*
X108070666Y-109998000D01*
X108118285Y-110045619D01*
X108165904Y-110140857D01*
X108165904Y-110188476D01*
X108118285Y-110283714D01*
X108070666Y-110331333D01*
X107975428Y-110378952D01*
X107784952Y-110378952D01*
X107689714Y-110426571D01*
X107642095Y-110474190D01*
X107594476Y-110569428D01*
X107594476Y-110759904D01*
X107642095Y-110855142D01*
X107689714Y-110902761D01*
X107784952Y-110950380D01*
X107975428Y-110950380D01*
X108070666Y-110902761D01*
X108118285Y-110855142D01*
X108165904Y-110759904D01*
X108165904Y-110569428D01*
X108118285Y-110474190D01*
X108070666Y-110426571D01*
X107975428Y-110378952D01*
G04 #@! TO.C,C19*
X99355142Y-115427142D02*
X99307523Y-115474761D01*
X99164666Y-115522380D01*
X99069428Y-115522380D01*
X98926571Y-115474761D01*
X98831333Y-115379523D01*
X98783714Y-115284285D01*
X98736095Y-115093809D01*
X98736095Y-114950952D01*
X98783714Y-114760476D01*
X98831333Y-114665238D01*
X98926571Y-114570000D01*
X99069428Y-114522380D01*
X99164666Y-114522380D01*
X99307523Y-114570000D01*
X99355142Y-114617619D01*
X100307523Y-115522380D02*
X99736095Y-115522380D01*
X100021809Y-115522380D02*
X100021809Y-114522380D01*
X99926571Y-114665238D01*
X99831333Y-114760476D01*
X99736095Y-114808095D01*
X100783714Y-115522380D02*
X100974190Y-115522380D01*
X101069428Y-115474761D01*
X101117047Y-115427142D01*
X101212285Y-115284285D01*
X101259904Y-115093809D01*
X101259904Y-114712857D01*
X101212285Y-114617619D01*
X101164666Y-114570000D01*
X101069428Y-114522380D01*
X100878952Y-114522380D01*
X100783714Y-114570000D01*
X100736095Y-114617619D01*
X100688476Y-114712857D01*
X100688476Y-114950952D01*
X100736095Y-115046190D01*
X100783714Y-115093809D01*
X100878952Y-115141428D01*
X101069428Y-115141428D01*
X101164666Y-115093809D01*
X101212285Y-115046190D01*
X101259904Y-114950952D01*
G04 #@! TO.C,D1*
X90925904Y-111509380D02*
X90925904Y-110509380D01*
X91164000Y-110509380D01*
X91306857Y-110557000D01*
X91402095Y-110652238D01*
X91449714Y-110747476D01*
X91497333Y-110937952D01*
X91497333Y-111080809D01*
X91449714Y-111271285D01*
X91402095Y-111366523D01*
X91306857Y-111461761D01*
X91164000Y-111509380D01*
X90925904Y-111509380D01*
X92449714Y-111509380D02*
X91878285Y-111509380D01*
X92164000Y-111509380D02*
X92164000Y-110509380D01*
X92068761Y-110652238D01*
X91973523Y-110747476D01*
X91878285Y-110795095D01*
G04 #@! TO.C,D2*
X90896904Y-113033380D02*
X90896904Y-112033380D01*
X91135000Y-112033380D01*
X91277857Y-112081000D01*
X91373095Y-112176238D01*
X91420714Y-112271476D01*
X91468333Y-112461952D01*
X91468333Y-112604809D01*
X91420714Y-112795285D01*
X91373095Y-112890523D01*
X91277857Y-112985761D01*
X91135000Y-113033380D01*
X90896904Y-113033380D01*
X91849285Y-112128619D02*
X91896904Y-112081000D01*
X91992142Y-112033380D01*
X92230238Y-112033380D01*
X92325476Y-112081000D01*
X92373095Y-112128619D01*
X92420714Y-112223857D01*
X92420714Y-112319095D01*
X92373095Y-112461952D01*
X91801666Y-113033380D01*
X92420714Y-113033380D01*
G04 #@! TO.C,D3*
X126329904Y-41061380D02*
X126329904Y-40061380D01*
X126568000Y-40061380D01*
X126710857Y-40109000D01*
X126806095Y-40204238D01*
X126853714Y-40299476D01*
X126901333Y-40489952D01*
X126901333Y-40632809D01*
X126853714Y-40823285D01*
X126806095Y-40918523D01*
X126710857Y-41013761D01*
X126568000Y-41061380D01*
X126329904Y-41061380D01*
X127234666Y-40061380D02*
X127853714Y-40061380D01*
X127520380Y-40442333D01*
X127663238Y-40442333D01*
X127758476Y-40489952D01*
X127806095Y-40537571D01*
X127853714Y-40632809D01*
X127853714Y-40870904D01*
X127806095Y-40966142D01*
X127758476Y-41013761D01*
X127663238Y-41061380D01*
X127377523Y-41061380D01*
X127282285Y-41013761D01*
X127234666Y-40966142D01*
G04 #@! TO.C,D4*
X74386904Y-56301380D02*
X74386904Y-55301380D01*
X74625000Y-55301380D01*
X74767857Y-55349000D01*
X74863095Y-55444238D01*
X74910714Y-55539476D01*
X74958333Y-55729952D01*
X74958333Y-55872809D01*
X74910714Y-56063285D01*
X74863095Y-56158523D01*
X74767857Y-56253761D01*
X74625000Y-56301380D01*
X74386904Y-56301380D01*
X75815476Y-55634714D02*
X75815476Y-56301380D01*
X75577380Y-55253761D02*
X75339285Y-55968047D01*
X75958333Y-55968047D01*
G04 #@! TO.C,D5*
X83883380Y-74914095D02*
X82883380Y-74914095D01*
X82883380Y-74676000D01*
X82931000Y-74533142D01*
X83026238Y-74437904D01*
X83121476Y-74390285D01*
X83311952Y-74342666D01*
X83454809Y-74342666D01*
X83645285Y-74390285D01*
X83740523Y-74437904D01*
X83835761Y-74533142D01*
X83883380Y-74676000D01*
X83883380Y-74914095D01*
X82883380Y-73437904D02*
X82883380Y-73914095D01*
X83359571Y-73961714D01*
X83311952Y-73914095D01*
X83264333Y-73818857D01*
X83264333Y-73580761D01*
X83311952Y-73485523D01*
X83359571Y-73437904D01*
X83454809Y-73390285D01*
X83692904Y-73390285D01*
X83788142Y-73437904D01*
X83835761Y-73485523D01*
X83883380Y-73580761D01*
X83883380Y-73818857D01*
X83835761Y-73914095D01*
X83788142Y-73961714D01*
G04 #@! TO.C,D6*
X91336904Y-77922380D02*
X91336904Y-76922380D01*
X91575000Y-76922380D01*
X91717857Y-76970000D01*
X91813095Y-77065238D01*
X91860714Y-77160476D01*
X91908333Y-77350952D01*
X91908333Y-77493809D01*
X91860714Y-77684285D01*
X91813095Y-77779523D01*
X91717857Y-77874761D01*
X91575000Y-77922380D01*
X91336904Y-77922380D01*
X92765476Y-76922380D02*
X92575000Y-76922380D01*
X92479761Y-76970000D01*
X92432142Y-77017619D01*
X92336904Y-77160476D01*
X92289285Y-77350952D01*
X92289285Y-77731904D01*
X92336904Y-77827142D01*
X92384523Y-77874761D01*
X92479761Y-77922380D01*
X92670238Y-77922380D01*
X92765476Y-77874761D01*
X92813095Y-77827142D01*
X92860714Y-77731904D01*
X92860714Y-77493809D01*
X92813095Y-77398571D01*
X92765476Y-77350952D01*
X92670238Y-77303333D01*
X92479761Y-77303333D01*
X92384523Y-77350952D01*
X92336904Y-77398571D01*
X92289285Y-77493809D01*
G04 #@! TO.C,L1*
X203130333Y-113541380D02*
X202654142Y-113541380D01*
X202654142Y-112541380D01*
X203987476Y-113541380D02*
X203416047Y-113541380D01*
X203701761Y-113541380D02*
X203701761Y-112541380D01*
X203606523Y-112684238D01*
X203511285Y-112779476D01*
X203416047Y-112827095D01*
G04 #@! TO.C,Q1*
X130430761Y-45945619D02*
X130335523Y-45898000D01*
X130240285Y-45802761D01*
X130097428Y-45659904D01*
X130002190Y-45612285D01*
X129906952Y-45612285D01*
X129954571Y-45850380D02*
X129859333Y-45802761D01*
X129764095Y-45707523D01*
X129716476Y-45517047D01*
X129716476Y-45183714D01*
X129764095Y-44993238D01*
X129859333Y-44898000D01*
X129954571Y-44850380D01*
X130145047Y-44850380D01*
X130240285Y-44898000D01*
X130335523Y-44993238D01*
X130383142Y-45183714D01*
X130383142Y-45517047D01*
X130335523Y-45707523D01*
X130240285Y-45802761D01*
X130145047Y-45850380D01*
X129954571Y-45850380D01*
X131335523Y-45850380D02*
X130764095Y-45850380D01*
X131049809Y-45850380D02*
X131049809Y-44850380D01*
X130954571Y-44993238D01*
X130859333Y-45088476D01*
X130764095Y-45136095D01*
G04 #@! TO.C,Q2*
X90933761Y-55216619D02*
X90838523Y-55169000D01*
X90743285Y-55073761D01*
X90600428Y-54930904D01*
X90505190Y-54883285D01*
X90409952Y-54883285D01*
X90457571Y-55121380D02*
X90362333Y-55073761D01*
X90267095Y-54978523D01*
X90219476Y-54788047D01*
X90219476Y-54454714D01*
X90267095Y-54264238D01*
X90362333Y-54169000D01*
X90457571Y-54121380D01*
X90648047Y-54121380D01*
X90743285Y-54169000D01*
X90838523Y-54264238D01*
X90886142Y-54454714D01*
X90886142Y-54788047D01*
X90838523Y-54978523D01*
X90743285Y-55073761D01*
X90648047Y-55121380D01*
X90457571Y-55121380D01*
X91267095Y-54216619D02*
X91314714Y-54169000D01*
X91409952Y-54121380D01*
X91648047Y-54121380D01*
X91743285Y-54169000D01*
X91790904Y-54216619D01*
X91838523Y-54311857D01*
X91838523Y-54407095D01*
X91790904Y-54549952D01*
X91219476Y-55121380D01*
X91838523Y-55121380D01*
G04 #@! TO.C,Q3*
X98045761Y-65122619D02*
X97950523Y-65075000D01*
X97855285Y-64979761D01*
X97712428Y-64836904D01*
X97617190Y-64789285D01*
X97521952Y-64789285D01*
X97569571Y-65027380D02*
X97474333Y-64979761D01*
X97379095Y-64884523D01*
X97331476Y-64694047D01*
X97331476Y-64360714D01*
X97379095Y-64170238D01*
X97474333Y-64075000D01*
X97569571Y-64027380D01*
X97760047Y-64027380D01*
X97855285Y-64075000D01*
X97950523Y-64170238D01*
X97998142Y-64360714D01*
X97998142Y-64694047D01*
X97950523Y-64884523D01*
X97855285Y-64979761D01*
X97760047Y-65027380D01*
X97569571Y-65027380D01*
X98331476Y-64027380D02*
X98950523Y-64027380D01*
X98617190Y-64408333D01*
X98760047Y-64408333D01*
X98855285Y-64455952D01*
X98902904Y-64503571D01*
X98950523Y-64598809D01*
X98950523Y-64836904D01*
X98902904Y-64932142D01*
X98855285Y-64979761D01*
X98760047Y-65027380D01*
X98474333Y-65027380D01*
X98379095Y-64979761D01*
X98331476Y-64932142D01*
G04 #@! TO.C,Q4*
X102744761Y-76933619D02*
X102649523Y-76886000D01*
X102554285Y-76790761D01*
X102411428Y-76647904D01*
X102316190Y-76600285D01*
X102220952Y-76600285D01*
X102268571Y-76838380D02*
X102173333Y-76790761D01*
X102078095Y-76695523D01*
X102030476Y-76505047D01*
X102030476Y-76171714D01*
X102078095Y-75981238D01*
X102173333Y-75886000D01*
X102268571Y-75838380D01*
X102459047Y-75838380D01*
X102554285Y-75886000D01*
X102649523Y-75981238D01*
X102697142Y-76171714D01*
X102697142Y-76505047D01*
X102649523Y-76695523D01*
X102554285Y-76790761D01*
X102459047Y-76838380D01*
X102268571Y-76838380D01*
X103554285Y-76171714D02*
X103554285Y-76838380D01*
X103316190Y-75790761D02*
X103078095Y-76505047D01*
X103697142Y-76505047D01*
G04 #@! TO.C,R2*
X132548333Y-144376380D02*
X132215000Y-143900190D01*
X131976904Y-144376380D02*
X131976904Y-143376380D01*
X132357857Y-143376380D01*
X132453095Y-143424000D01*
X132500714Y-143471619D01*
X132548333Y-143566857D01*
X132548333Y-143709714D01*
X132500714Y-143804952D01*
X132453095Y-143852571D01*
X132357857Y-143900190D01*
X131976904Y-143900190D01*
X132929285Y-143471619D02*
X132976904Y-143424000D01*
X133072142Y-143376380D01*
X133310238Y-143376380D01*
X133405476Y-143424000D01*
X133453095Y-143471619D01*
X133500714Y-143566857D01*
X133500714Y-143662095D01*
X133453095Y-143804952D01*
X132881666Y-144376380D01*
X133500714Y-144376380D01*
G04 #@! TO.C,R3*
X124293333Y-132532380D02*
X123960000Y-132056190D01*
X123721904Y-132532380D02*
X123721904Y-131532380D01*
X124102857Y-131532380D01*
X124198095Y-131580000D01*
X124245714Y-131627619D01*
X124293333Y-131722857D01*
X124293333Y-131865714D01*
X124245714Y-131960952D01*
X124198095Y-132008571D01*
X124102857Y-132056190D01*
X123721904Y-132056190D01*
X124626666Y-131532380D02*
X125245714Y-131532380D01*
X124912380Y-131913333D01*
X125055238Y-131913333D01*
X125150476Y-131960952D01*
X125198095Y-132008571D01*
X125245714Y-132103809D01*
X125245714Y-132341904D01*
X125198095Y-132437142D01*
X125150476Y-132484761D01*
X125055238Y-132532380D01*
X124769523Y-132532380D01*
X124674285Y-132484761D01*
X124626666Y-132437142D01*
G04 #@! TO.C,R4*
X79159333Y-121397380D02*
X78826000Y-120921190D01*
X78587904Y-121397380D02*
X78587904Y-120397380D01*
X78968857Y-120397380D01*
X79064095Y-120445000D01*
X79111714Y-120492619D01*
X79159333Y-120587857D01*
X79159333Y-120730714D01*
X79111714Y-120825952D01*
X79064095Y-120873571D01*
X78968857Y-120921190D01*
X78587904Y-120921190D01*
X80016476Y-120730714D02*
X80016476Y-121397380D01*
X79778380Y-120349761D02*
X79540285Y-121064047D01*
X80159333Y-121064047D01*
G04 #@! TO.C,R5*
X88322333Y-111509380D02*
X87989000Y-111033190D01*
X87750904Y-111509380D02*
X87750904Y-110509380D01*
X88131857Y-110509380D01*
X88227095Y-110557000D01*
X88274714Y-110604619D01*
X88322333Y-110699857D01*
X88322333Y-110842714D01*
X88274714Y-110937952D01*
X88227095Y-110985571D01*
X88131857Y-111033190D01*
X87750904Y-111033190D01*
X89227095Y-110509380D02*
X88750904Y-110509380D01*
X88703285Y-110985571D01*
X88750904Y-110937952D01*
X88846142Y-110890333D01*
X89084238Y-110890333D01*
X89179476Y-110937952D01*
X89227095Y-110985571D01*
X89274714Y-111080809D01*
X89274714Y-111318904D01*
X89227095Y-111414142D01*
X89179476Y-111461761D01*
X89084238Y-111509380D01*
X88846142Y-111509380D01*
X88750904Y-111461761D01*
X88703285Y-111414142D01*
G04 #@! TO.C,R6*
X88322333Y-113033380D02*
X87989000Y-112557190D01*
X87750904Y-113033380D02*
X87750904Y-112033380D01*
X88131857Y-112033380D01*
X88227095Y-112081000D01*
X88274714Y-112128619D01*
X88322333Y-112223857D01*
X88322333Y-112366714D01*
X88274714Y-112461952D01*
X88227095Y-112509571D01*
X88131857Y-112557190D01*
X87750904Y-112557190D01*
X89179476Y-112033380D02*
X88989000Y-112033380D01*
X88893761Y-112081000D01*
X88846142Y-112128619D01*
X88750904Y-112271476D01*
X88703285Y-112461952D01*
X88703285Y-112842904D01*
X88750904Y-112938142D01*
X88798523Y-112985761D01*
X88893761Y-113033380D01*
X89084238Y-113033380D01*
X89179476Y-112985761D01*
X89227095Y-112938142D01*
X89274714Y-112842904D01*
X89274714Y-112604809D01*
X89227095Y-112509571D01*
X89179476Y-112461952D01*
X89084238Y-112414333D01*
X88893761Y-112414333D01*
X88798523Y-112461952D01*
X88750904Y-112509571D01*
X88703285Y-112604809D01*
G04 #@! TO.C,R7*
X130770333Y-123388380D02*
X130437000Y-122912190D01*
X130198904Y-123388380D02*
X130198904Y-122388380D01*
X130579857Y-122388380D01*
X130675095Y-122436000D01*
X130722714Y-122483619D01*
X130770333Y-122578857D01*
X130770333Y-122721714D01*
X130722714Y-122816952D01*
X130675095Y-122864571D01*
X130579857Y-122912190D01*
X130198904Y-122912190D01*
X131103666Y-122388380D02*
X131770333Y-122388380D01*
X131341761Y-123388380D01*
G04 #@! TO.C,R8*
X130770333Y-118562380D02*
X130437000Y-118086190D01*
X130198904Y-118562380D02*
X130198904Y-117562380D01*
X130579857Y-117562380D01*
X130675095Y-117610000D01*
X130722714Y-117657619D01*
X130770333Y-117752857D01*
X130770333Y-117895714D01*
X130722714Y-117990952D01*
X130675095Y-118038571D01*
X130579857Y-118086190D01*
X130198904Y-118086190D01*
X131341761Y-117990952D02*
X131246523Y-117943333D01*
X131198904Y-117895714D01*
X131151285Y-117800476D01*
X131151285Y-117752857D01*
X131198904Y-117657619D01*
X131246523Y-117610000D01*
X131341761Y-117562380D01*
X131532238Y-117562380D01*
X131627476Y-117610000D01*
X131675095Y-117657619D01*
X131722714Y-117752857D01*
X131722714Y-117800476D01*
X131675095Y-117895714D01*
X131627476Y-117943333D01*
X131532238Y-117990952D01*
X131341761Y-117990952D01*
X131246523Y-118038571D01*
X131198904Y-118086190D01*
X131151285Y-118181428D01*
X131151285Y-118371904D01*
X131198904Y-118467142D01*
X131246523Y-118514761D01*
X131341761Y-118562380D01*
X131532238Y-118562380D01*
X131627476Y-118514761D01*
X131675095Y-118467142D01*
X131722714Y-118371904D01*
X131722714Y-118181428D01*
X131675095Y-118086190D01*
X131627476Y-118038571D01*
X131532238Y-117990952D01*
G04 #@! TO.C,R17*
X214084142Y-113546380D02*
X213750809Y-113070190D01*
X213512714Y-113546380D02*
X213512714Y-112546380D01*
X213893666Y-112546380D01*
X213988904Y-112594000D01*
X214036523Y-112641619D01*
X214084142Y-112736857D01*
X214084142Y-112879714D01*
X214036523Y-112974952D01*
X213988904Y-113022571D01*
X213893666Y-113070190D01*
X213512714Y-113070190D01*
X215036523Y-113546380D02*
X214465095Y-113546380D01*
X214750809Y-113546380D02*
X214750809Y-112546380D01*
X214655571Y-112689238D01*
X214560333Y-112784476D01*
X214465095Y-112832095D01*
X215369857Y-112546380D02*
X216036523Y-112546380D01*
X215607952Y-113546380D01*
G04 #@! TO.C,R18*
X190873142Y-65222380D02*
X190539809Y-64746190D01*
X190301714Y-65222380D02*
X190301714Y-64222380D01*
X190682666Y-64222380D01*
X190777904Y-64270000D01*
X190825523Y-64317619D01*
X190873142Y-64412857D01*
X190873142Y-64555714D01*
X190825523Y-64650952D01*
X190777904Y-64698571D01*
X190682666Y-64746190D01*
X190301714Y-64746190D01*
X191825523Y-65222380D02*
X191254095Y-65222380D01*
X191539809Y-65222380D02*
X191539809Y-64222380D01*
X191444571Y-64365238D01*
X191349333Y-64460476D01*
X191254095Y-64508095D01*
X192396952Y-64650952D02*
X192301714Y-64603333D01*
X192254095Y-64555714D01*
X192206476Y-64460476D01*
X192206476Y-64412857D01*
X192254095Y-64317619D01*
X192301714Y-64270000D01*
X192396952Y-64222380D01*
X192587428Y-64222380D01*
X192682666Y-64270000D01*
X192730285Y-64317619D01*
X192777904Y-64412857D01*
X192777904Y-64460476D01*
X192730285Y-64555714D01*
X192682666Y-64603333D01*
X192587428Y-64650952D01*
X192396952Y-64650952D01*
X192301714Y-64698571D01*
X192254095Y-64746190D01*
X192206476Y-64841428D01*
X192206476Y-65031904D01*
X192254095Y-65127142D01*
X192301714Y-65174761D01*
X192396952Y-65222380D01*
X192587428Y-65222380D01*
X192682666Y-65174761D01*
X192730285Y-65127142D01*
X192777904Y-65031904D01*
X192777904Y-64841428D01*
X192730285Y-64746190D01*
X192682666Y-64698571D01*
X192587428Y-64650952D01*
G04 #@! TO.C,R19*
X187922142Y-71291380D02*
X187588809Y-70815190D01*
X187350714Y-71291380D02*
X187350714Y-70291380D01*
X187731666Y-70291380D01*
X187826904Y-70339000D01*
X187874523Y-70386619D01*
X187922142Y-70481857D01*
X187922142Y-70624714D01*
X187874523Y-70719952D01*
X187826904Y-70767571D01*
X187731666Y-70815190D01*
X187350714Y-70815190D01*
X188874523Y-71291380D02*
X188303095Y-71291380D01*
X188588809Y-71291380D02*
X188588809Y-70291380D01*
X188493571Y-70434238D01*
X188398333Y-70529476D01*
X188303095Y-70577095D01*
X189350714Y-71291380D02*
X189541190Y-71291380D01*
X189636428Y-71243761D01*
X189684047Y-71196142D01*
X189779285Y-71053285D01*
X189826904Y-70862809D01*
X189826904Y-70481857D01*
X189779285Y-70386619D01*
X189731666Y-70339000D01*
X189636428Y-70291380D01*
X189445952Y-70291380D01*
X189350714Y-70339000D01*
X189303095Y-70386619D01*
X189255476Y-70481857D01*
X189255476Y-70719952D01*
X189303095Y-70815190D01*
X189350714Y-70862809D01*
X189445952Y-70910428D01*
X189636428Y-70910428D01*
X189731666Y-70862809D01*
X189779285Y-70815190D01*
X189826904Y-70719952D01*
G04 #@! TO.C,R20*
X172102833Y-66645071D02*
X171769500Y-66168881D01*
X171531405Y-66645071D02*
X171531405Y-65645071D01*
X171912357Y-65645071D01*
X172007595Y-65692691D01*
X172055214Y-65740310D01*
X172102833Y-65835548D01*
X172102833Y-65978405D01*
X172055214Y-66073643D01*
X172007595Y-66121262D01*
X171912357Y-66168881D01*
X171531405Y-66168881D01*
X172483786Y-65740310D02*
X172531405Y-65692691D01*
X172626643Y-65645071D01*
X172864738Y-65645071D01*
X172959976Y-65692691D01*
X173007595Y-65740310D01*
X173055214Y-65835548D01*
X173055214Y-65930786D01*
X173007595Y-66073643D01*
X172436167Y-66645071D01*
X173055214Y-66645071D01*
X173674262Y-65645071D02*
X173769500Y-65645071D01*
X173864738Y-65692691D01*
X173912357Y-65740310D01*
X173959976Y-65835548D01*
X174007595Y-66026024D01*
X174007595Y-66264119D01*
X173959976Y-66454595D01*
X173912357Y-66549833D01*
X173864738Y-66597452D01*
X173769500Y-66645071D01*
X173674262Y-66645071D01*
X173579024Y-66597452D01*
X173531405Y-66549833D01*
X173483786Y-66454595D01*
X173436167Y-66264119D01*
X173436167Y-66026024D01*
X173483786Y-65835548D01*
X173531405Y-65740310D01*
X173579024Y-65692691D01*
X173674262Y-65645071D01*
G04 #@! TO.C,R21*
X175150833Y-71217071D02*
X174817500Y-70740881D01*
X174579405Y-71217071D02*
X174579405Y-70217071D01*
X174960357Y-70217071D01*
X175055595Y-70264691D01*
X175103214Y-70312310D01*
X175150833Y-70407548D01*
X175150833Y-70550405D01*
X175103214Y-70645643D01*
X175055595Y-70693262D01*
X174960357Y-70740881D01*
X174579405Y-70740881D01*
X175531786Y-70312310D02*
X175579405Y-70264691D01*
X175674643Y-70217071D01*
X175912738Y-70217071D01*
X176007976Y-70264691D01*
X176055595Y-70312310D01*
X176103214Y-70407548D01*
X176103214Y-70502786D01*
X176055595Y-70645643D01*
X175484167Y-71217071D01*
X176103214Y-71217071D01*
X177055595Y-71217071D02*
X176484167Y-71217071D01*
X176769881Y-71217071D02*
X176769881Y-70217071D01*
X176674643Y-70359929D01*
X176579405Y-70455167D01*
X176484167Y-70502786D01*
G04 #@! TO.C,R24*
X113403142Y-108461380D02*
X113069809Y-107985190D01*
X112831714Y-108461380D02*
X112831714Y-107461380D01*
X113212666Y-107461380D01*
X113307904Y-107509000D01*
X113355523Y-107556619D01*
X113403142Y-107651857D01*
X113403142Y-107794714D01*
X113355523Y-107889952D01*
X113307904Y-107937571D01*
X113212666Y-107985190D01*
X112831714Y-107985190D01*
X113784095Y-107556619D02*
X113831714Y-107509000D01*
X113926952Y-107461380D01*
X114165047Y-107461380D01*
X114260285Y-107509000D01*
X114307904Y-107556619D01*
X114355523Y-107651857D01*
X114355523Y-107747095D01*
X114307904Y-107889952D01*
X113736476Y-108461380D01*
X114355523Y-108461380D01*
X115212666Y-107794714D02*
X115212666Y-108461380D01*
X114974571Y-107413761D02*
X114736476Y-108128047D01*
X115355523Y-108128047D01*
G04 #@! TO.C,R25*
X113403142Y-104651380D02*
X113069809Y-104175190D01*
X112831714Y-104651380D02*
X112831714Y-103651380D01*
X113212666Y-103651380D01*
X113307904Y-103699000D01*
X113355523Y-103746619D01*
X113403142Y-103841857D01*
X113403142Y-103984714D01*
X113355523Y-104079952D01*
X113307904Y-104127571D01*
X113212666Y-104175190D01*
X112831714Y-104175190D01*
X113784095Y-103746619D02*
X113831714Y-103699000D01*
X113926952Y-103651380D01*
X114165047Y-103651380D01*
X114260285Y-103699000D01*
X114307904Y-103746619D01*
X114355523Y-103841857D01*
X114355523Y-103937095D01*
X114307904Y-104079952D01*
X113736476Y-104651380D01*
X114355523Y-104651380D01*
X115260285Y-103651380D02*
X114784095Y-103651380D01*
X114736476Y-104127571D01*
X114784095Y-104079952D01*
X114879333Y-104032333D01*
X115117428Y-104032333D01*
X115212666Y-104079952D01*
X115260285Y-104127571D01*
X115307904Y-104222809D01*
X115307904Y-104460904D01*
X115260285Y-104556142D01*
X115212666Y-104603761D01*
X115117428Y-104651380D01*
X114879333Y-104651380D01*
X114784095Y-104603761D01*
X114736476Y-104556142D01*
G04 #@! TO.C,R26*
X111293142Y-112220380D02*
X110959809Y-111744190D01*
X110721714Y-112220380D02*
X110721714Y-111220380D01*
X111102666Y-111220380D01*
X111197904Y-111268000D01*
X111245523Y-111315619D01*
X111293142Y-111410857D01*
X111293142Y-111553714D01*
X111245523Y-111648952D01*
X111197904Y-111696571D01*
X111102666Y-111744190D01*
X110721714Y-111744190D01*
X111674095Y-111315619D02*
X111721714Y-111268000D01*
X111816952Y-111220380D01*
X112055047Y-111220380D01*
X112150285Y-111268000D01*
X112197904Y-111315619D01*
X112245523Y-111410857D01*
X112245523Y-111506095D01*
X112197904Y-111648952D01*
X111626476Y-112220380D01*
X112245523Y-112220380D01*
X113102666Y-111220380D02*
X112912190Y-111220380D01*
X112816952Y-111268000D01*
X112769333Y-111315619D01*
X112674095Y-111458476D01*
X112626476Y-111648952D01*
X112626476Y-112029904D01*
X112674095Y-112125142D01*
X112721714Y-112172761D01*
X112816952Y-112220380D01*
X113007428Y-112220380D01*
X113102666Y-112172761D01*
X113150285Y-112125142D01*
X113197904Y-112029904D01*
X113197904Y-111791809D01*
X113150285Y-111696571D01*
X113102666Y-111648952D01*
X113007428Y-111601333D01*
X112816952Y-111601333D01*
X112721714Y-111648952D01*
X112674095Y-111696571D01*
X112626476Y-111791809D01*
G04 #@! TO.C,R27*
X101260142Y-112220380D02*
X100926809Y-111744190D01*
X100688714Y-112220380D02*
X100688714Y-111220380D01*
X101069666Y-111220380D01*
X101164904Y-111268000D01*
X101212523Y-111315619D01*
X101260142Y-111410857D01*
X101260142Y-111553714D01*
X101212523Y-111648952D01*
X101164904Y-111696571D01*
X101069666Y-111744190D01*
X100688714Y-111744190D01*
X101641095Y-111315619D02*
X101688714Y-111268000D01*
X101783952Y-111220380D01*
X102022047Y-111220380D01*
X102117285Y-111268000D01*
X102164904Y-111315619D01*
X102212523Y-111410857D01*
X102212523Y-111506095D01*
X102164904Y-111648952D01*
X101593476Y-112220380D01*
X102212523Y-112220380D01*
X102545857Y-111220380D02*
X103212523Y-111220380D01*
X102783952Y-112220380D01*
G04 #@! TO.C,U1*
X134874095Y-137086380D02*
X134874095Y-137895904D01*
X134921714Y-137991142D01*
X134969333Y-138038761D01*
X135064571Y-138086380D01*
X135255047Y-138086380D01*
X135350285Y-138038761D01*
X135397904Y-137991142D01*
X135445523Y-137895904D01*
X135445523Y-137086380D01*
X136445523Y-138086380D02*
X135874095Y-138086380D01*
X136159809Y-138086380D02*
X136159809Y-137086380D01*
X136064571Y-137229238D01*
X135969333Y-137324476D01*
X135874095Y-137372095D01*
G04 #@! TO.C,U3*
X93980095Y-119653380D02*
X93980095Y-120462904D01*
X94027714Y-120558142D01*
X94075333Y-120605761D01*
X94170571Y-120653380D01*
X94361047Y-120653380D01*
X94456285Y-120605761D01*
X94503904Y-120558142D01*
X94551523Y-120462904D01*
X94551523Y-119653380D01*
X94932476Y-119653380D02*
X95551523Y-119653380D01*
X95218190Y-120034333D01*
X95361047Y-120034333D01*
X95456285Y-120081952D01*
X95503904Y-120129571D01*
X95551523Y-120224809D01*
X95551523Y-120462904D01*
X95503904Y-120558142D01*
X95456285Y-120605761D01*
X95361047Y-120653380D01*
X95075333Y-120653380D01*
X94980095Y-120605761D01*
X94932476Y-120558142D01*
G04 #@! TO.C,U7*
X87854095Y-39770380D02*
X87854095Y-40579904D01*
X87901714Y-40675142D01*
X87949333Y-40722761D01*
X88044571Y-40770380D01*
X88235047Y-40770380D01*
X88330285Y-40722761D01*
X88377904Y-40675142D01*
X88425523Y-40579904D01*
X88425523Y-39770380D01*
X88806476Y-39770380D02*
X89473142Y-39770380D01*
X89044571Y-40770380D01*
G04 #@! TO.C,U8*
X106240095Y-119437071D02*
X106240095Y-120246595D01*
X106287714Y-120341833D01*
X106335333Y-120389452D01*
X106430571Y-120437071D01*
X106621047Y-120437071D01*
X106716285Y-120389452D01*
X106763904Y-120341833D01*
X106811523Y-120246595D01*
X106811523Y-119437071D01*
X107430571Y-119865643D02*
X107335333Y-119818024D01*
X107287714Y-119770405D01*
X107240095Y-119675167D01*
X107240095Y-119627548D01*
X107287714Y-119532310D01*
X107335333Y-119484691D01*
X107430571Y-119437071D01*
X107621047Y-119437071D01*
X107716285Y-119484691D01*
X107763904Y-119532310D01*
X107811523Y-119627548D01*
X107811523Y-119675167D01*
X107763904Y-119770405D01*
X107716285Y-119818024D01*
X107621047Y-119865643D01*
X107430571Y-119865643D01*
X107335333Y-119913262D01*
X107287714Y-119960881D01*
X107240095Y-120056119D01*
X107240095Y-120246595D01*
X107287714Y-120341833D01*
X107335333Y-120389452D01*
X107430571Y-120437071D01*
X107621047Y-120437071D01*
X107716285Y-120389452D01*
X107763904Y-120341833D01*
X107811523Y-120246595D01*
X107811523Y-120056119D01*
X107763904Y-119960881D01*
X107716285Y-119913262D01*
X107621047Y-119865643D01*
G04 #@! TO.C,U6*
X177317786Y-60819071D02*
X177317786Y-61628595D01*
X177365405Y-61723833D01*
X177413024Y-61771452D01*
X177508262Y-61819071D01*
X177698738Y-61819071D01*
X177793976Y-61771452D01*
X177841595Y-61723833D01*
X177889214Y-61628595D01*
X177889214Y-60819071D01*
X178793976Y-60819071D02*
X178603500Y-60819071D01*
X178508262Y-60866691D01*
X178460643Y-60914310D01*
X178365405Y-61057167D01*
X178317786Y-61247643D01*
X178317786Y-61628595D01*
X178365405Y-61723833D01*
X178413024Y-61771452D01*
X178508262Y-61819071D01*
X178698738Y-61819071D01*
X178793976Y-61771452D01*
X178841595Y-61723833D01*
X178889214Y-61628595D01*
X178889214Y-61390500D01*
X178841595Y-61295262D01*
X178793976Y-61247643D01*
X178698738Y-61200024D01*
X178508262Y-61200024D01*
X178413024Y-61247643D01*
X178365405Y-61295262D01*
X178317786Y-61390500D01*
G04 #@! TO.C,RN1*
X103771523Y-65635380D02*
X103438190Y-65159190D01*
X103200095Y-65635380D02*
X103200095Y-64635380D01*
X103581047Y-64635380D01*
X103676285Y-64683000D01*
X103723904Y-64730619D01*
X103771523Y-64825857D01*
X103771523Y-64968714D01*
X103723904Y-65063952D01*
X103676285Y-65111571D01*
X103581047Y-65159190D01*
X103200095Y-65159190D01*
X104200095Y-65635380D02*
X104200095Y-64635380D01*
X104771523Y-65635380D01*
X104771523Y-64635380D01*
X105771523Y-65635380D02*
X105200095Y-65635380D01*
X105485809Y-65635380D02*
X105485809Y-64635380D01*
X105390571Y-64778238D01*
X105295333Y-64873476D01*
X105200095Y-64921095D01*
G04 #@! TO.C,RN2*
X107581523Y-65635380D02*
X107248190Y-65159190D01*
X107010095Y-65635380D02*
X107010095Y-64635380D01*
X107391047Y-64635380D01*
X107486285Y-64683000D01*
X107533904Y-64730619D01*
X107581523Y-64825857D01*
X107581523Y-64968714D01*
X107533904Y-65063952D01*
X107486285Y-65111571D01*
X107391047Y-65159190D01*
X107010095Y-65159190D01*
X108010095Y-65635380D02*
X108010095Y-64635380D01*
X108581523Y-65635380D01*
X108581523Y-64635380D01*
X109010095Y-64730619D02*
X109057714Y-64683000D01*
X109152952Y-64635380D01*
X109391047Y-64635380D01*
X109486285Y-64683000D01*
X109533904Y-64730619D01*
X109581523Y-64825857D01*
X109581523Y-64921095D01*
X109533904Y-65063952D01*
X108962476Y-65635380D01*
X109581523Y-65635380D01*
G04 #@! TO.C,C6*
X98131333Y-43029142D02*
X98083714Y-43076761D01*
X97940857Y-43124380D01*
X97845619Y-43124380D01*
X97702761Y-43076761D01*
X97607523Y-42981523D01*
X97559904Y-42886285D01*
X97512285Y-42695809D01*
X97512285Y-42552952D01*
X97559904Y-42362476D01*
X97607523Y-42267238D01*
X97702761Y-42172000D01*
X97845619Y-42124380D01*
X97940857Y-42124380D01*
X98083714Y-42172000D01*
X98131333Y-42219619D01*
X98988476Y-42124380D02*
X98798000Y-42124380D01*
X98702761Y-42172000D01*
X98655142Y-42219619D01*
X98559904Y-42362476D01*
X98512285Y-42552952D01*
X98512285Y-42933904D01*
X98559904Y-43029142D01*
X98607523Y-43076761D01*
X98702761Y-43124380D01*
X98893238Y-43124380D01*
X98988476Y-43076761D01*
X99036095Y-43029142D01*
X99083714Y-42933904D01*
X99083714Y-42695809D01*
X99036095Y-42600571D01*
X98988476Y-42552952D01*
X98893238Y-42505333D01*
X98702761Y-42505333D01*
X98607523Y-42552952D01*
X98559904Y-42600571D01*
X98512285Y-42695809D01*
G04 #@! TO.C,Y1*
X107981809Y-138914190D02*
X107981809Y-139390380D01*
X107648476Y-138390380D02*
X107981809Y-138914190D01*
X108315142Y-138390380D01*
X109172285Y-139390380D02*
X108600857Y-139390380D01*
X108886571Y-139390380D02*
X108886571Y-138390380D01*
X108791333Y-138533238D01*
X108696095Y-138628476D01*
X108600857Y-138676095D01*
G04 #@! TO.C,U2*
X116459095Y-131769380D02*
X116459095Y-132578904D01*
X116506714Y-132674142D01*
X116554333Y-132721761D01*
X116649571Y-132769380D01*
X116840047Y-132769380D01*
X116935285Y-132721761D01*
X116982904Y-132674142D01*
X117030523Y-132578904D01*
X117030523Y-131769380D01*
X117459095Y-131864619D02*
X117506714Y-131817000D01*
X117601952Y-131769380D01*
X117840047Y-131769380D01*
X117935285Y-131817000D01*
X117982904Y-131864619D01*
X118030523Y-131959857D01*
X118030523Y-132055095D01*
X117982904Y-132197952D01*
X117411476Y-132769380D01*
X118030523Y-132769380D01*
G04 #@! TO.C,R9*
X98047071Y-117540357D02*
X97570881Y-117873691D01*
X98047071Y-118111786D02*
X97047071Y-118111786D01*
X97047071Y-117730833D01*
X97094691Y-117635595D01*
X97142310Y-117587976D01*
X97237548Y-117540357D01*
X97380405Y-117540357D01*
X97475643Y-117587976D01*
X97523262Y-117635595D01*
X97570881Y-117730833D01*
X97570881Y-118111786D01*
X98047071Y-117064167D02*
X98047071Y-116873691D01*
X97999452Y-116778452D01*
X97951833Y-116730833D01*
X97808976Y-116635595D01*
X97618500Y-116587976D01*
X97237548Y-116587976D01*
X97142310Y-116635595D01*
X97094691Y-116683214D01*
X97047071Y-116778452D01*
X97047071Y-116968929D01*
X97094691Y-117064167D01*
X97142310Y-117111786D01*
X97237548Y-117159405D01*
X97475643Y-117159405D01*
X97570881Y-117111786D01*
X97618500Y-117064167D01*
X97666119Y-116968929D01*
X97666119Y-116778452D01*
X97618500Y-116683214D01*
X97570881Y-116635595D01*
X97475643Y-116587976D01*
G04 #@! TO.C,R10*
X99952071Y-118905548D02*
X99475881Y-119238881D01*
X99952071Y-119476976D02*
X98952071Y-119476976D01*
X98952071Y-119096024D01*
X98999691Y-119000786D01*
X99047310Y-118953167D01*
X99142548Y-118905548D01*
X99285405Y-118905548D01*
X99380643Y-118953167D01*
X99428262Y-119000786D01*
X99475881Y-119096024D01*
X99475881Y-119476976D01*
X99952071Y-117953167D02*
X99952071Y-118524595D01*
X99952071Y-118238881D02*
X98952071Y-118238881D01*
X99094929Y-118334119D01*
X99190167Y-118429357D01*
X99237786Y-118524595D01*
X98952071Y-117334119D02*
X98952071Y-117238881D01*
X98999691Y-117143643D01*
X99047310Y-117096024D01*
X99142548Y-117048405D01*
X99333024Y-117000786D01*
X99571119Y-117000786D01*
X99761595Y-117048405D01*
X99856833Y-117096024D01*
X99904452Y-117143643D01*
X99952071Y-117238881D01*
X99952071Y-117334119D01*
X99904452Y-117429357D01*
X99856833Y-117476976D01*
X99761595Y-117524595D01*
X99571119Y-117572214D01*
X99333024Y-117572214D01*
X99142548Y-117524595D01*
X99047310Y-117476976D01*
X98999691Y-117429357D01*
X98952071Y-117334119D01*
G04 #@! TD*
M02*
