M48
;DRILL file {KiCad (5.0.2)-1} date 4/5/2019 10:26:02 AM
;FORMAT={-:-/ absolute / inch / decimal}
FMAT,2
INCH,TZ
T1C0.0157
T2C0.0197
T3C0.0295
T4C0.0374
T5C0.0394
T6C0.0433
T7C0.0472
T8C0.0512
T9C0.0551
T10C0.0689
T11C0.1260
%
G90
G05
T1
X2.4984Y-2.1544
X2.6Y-2.525
X2.75Y-3.7
X2.75Y-5.785
X2.7919Y-4.4899
X2.825Y-1.6
X2.93Y-5.41
X3.025Y-3.975
X3.0419Y-4.6503
X3.09Y-5.76
X3.1019Y-4.7503
X3.175Y-1.925
X3.225Y-3.7
X3.275Y-3.975
X3.2819Y-4.8303
X3.3019Y-5.1303
X3.312Y-5.286
X3.35Y-1.6
X3.3706Y-4.7451
X3.4Y-3.85
X3.45Y-5.335
X3.4538Y-4.7979
X3.4609Y-5.0179
X3.4738Y-4.8773
X3.48Y-5.81
X3.5Y-3.7
X3.525Y-3.5
X3.533Y-5.0034
X3.5619Y-4.8303
X3.575Y-3.975
X3.625Y-4.835
X3.6488Y-5.2281
X3.66Y-5.75
X3.6733Y-4.6277
X3.675Y-3.4
X3.675Y-3.7
X3.7034Y-4.6023
X3.7039Y-5.2358
X3.72Y-5.065
X3.7988Y-4.8273
X3.8179Y-5.101
X3.821Y-4.7803
X3.85Y-4.86
X3.875Y-3.475
X3.875Y-3.625
X3.875Y-3.8
X3.875Y-3.975
X3.891Y-5.151
X3.8973Y-2.7503
X3.9Y-1.6
X3.9175Y-5.1115
X3.92Y-3.41
X3.92Y-4.85
X3.9491Y-4.9539
X3.9545Y-3.358
X3.99Y-5.09
X3.9919Y-5.2303
X3.9941Y-3.3774
X4.02Y-3.33
X4.025Y-2.435
X4.0265Y-2.4926
X4.031Y-4.621
X4.0319Y-4.7603
X4.05Y-3.475
X4.05Y-3.625
X4.05Y-3.8
X4.05Y-3.975
X4.06Y-5.01
X4.0691Y-2.5525
X4.075Y-3.185
X4.09Y-2.63
X4.09Y-3.03
X4.125Y-2.36
X4.13Y-5.74
X4.14Y-5.455
X4.15Y-4.91
X4.175Y-3.475
X4.175Y-3.7
X4.175Y-3.875
X4.186Y-2.472
X4.21Y-2.79
X4.2477Y-4.046
X4.2477Y-4.146
X4.2477Y-4.246
X4.25Y-5.09
X4.2727Y-4.096
X4.2727Y-4.196
X4.2727Y-4.296
X4.3Y-3.075
X4.3Y-3.325
X4.315Y-4.78
X4.325Y-3.6
X4.35Y-4.91
X4.3827Y-4.046
X4.3827Y-4.146
X4.3827Y-4.246
X4.4Y-2.85
X4.4077Y-4.096
X4.4077Y-4.196
X4.4077Y-4.296
X4.425Y-1.6
X4.45Y-2.32
X4.47Y-2.1
X4.52Y-5.03
X4.525Y-5.29
X4.525Y-5.355
X4.535Y-4.5
X4.5352Y-5.1966
X4.55Y-2.52
X4.5619Y-4.7203
X4.605Y-5.135
X4.6319Y-5.6203
X4.675Y-2.035
X4.675Y-2.825
X4.71Y-5.29
X4.7118Y-1.9946
X4.725Y-4.35
X4.75Y-4.92
X4.8Y-4.625
X4.86Y-2.72
X4.875Y-1.6
X4.9069Y-4.4253
X4.92Y-2.55
X4.9369Y-4.2053
X4.95Y-5.82
X4.975Y-2.8
X4.99Y-2.33
X5.Y-5.2
X5.025Y-5.56
X5.0324Y-5.3854
X5.06Y-4.75
X5.07Y-4.91
X5.12Y-2.12
X5.125Y-5.61
X5.1419Y-4.4753
X5.15Y-5.16
X5.1719Y-4.0003
X5.1819Y-4.2253
X5.2Y-2.8
X5.23Y-4.94
X5.2319Y-5.7203
X5.25Y-5.38
X5.2569Y-3.8003
X5.3176Y-1.9694
X5.3369Y-3.6103
X5.375Y-3.025
X5.375Y-4.15
X5.3819Y-3.2053
X5.3919Y-3.9253
X5.4Y-2.8
X5.4476Y-1.6894
X5.4669Y-3.7153
X5.475Y-3.4553
X5.499Y-4.799
X5.5Y-2.925
X5.5Y-4.3
X5.5Y-4.6
X5.5Y-5.
X5.5Y-5.2
X5.5Y-5.4
X5.5Y-5.6
X5.5Y-5.8
X5.525Y-2.725
X5.55Y-4.075
X5.5569Y-3.2703
X5.6169Y-3.0953
X5.6176Y-1.9294
X5.625Y-3.825
X5.6419Y-2.5503
X5.7Y-3.525
X5.7219Y-4.2569
X5.75Y-3.275
X5.8Y-3.025
X5.8076Y-1.5894
X5.8076Y-1.7994
X5.8176Y-2.0594
X5.825Y-2.475
X5.825Y-2.7
X6.8732Y-2.7245
X6.9597Y-2.7252
T2
X5.5726Y-2.2644
X5.5726Y-2.8744
X5.6005Y-2.1972
X5.6005Y-2.3316
X5.6005Y-2.8072
X5.6005Y-2.9416
X5.6676Y-2.1694
X5.6676Y-2.3594
X5.6676Y-2.7794
X5.6676Y-2.9694
X5.7348Y-2.1972
X5.7348Y-2.3316
X5.7348Y-2.8072
X5.7348Y-2.9416
X5.7626Y-2.2644
X5.7626Y-2.8744
X7.9608Y-3.0426
X7.9626Y-2.0894
X7.9874Y-3.1103
X7.9899Y-2.976
X7.9905Y-2.0222
X7.9905Y-2.1566
X8.054Y-3.1394
X8.0576Y-1.9944
X8.0576Y-2.1844
X8.0576Y-2.9494
X8.1217Y-3.1129
X8.1243Y-2.9785
X8.1248Y-2.0222
X8.1248Y-2.1566
X8.1508Y-3.0462
X8.1526Y-2.0894
T3
X5.361Y-4.486
X5.361Y-4.5648
X5.361Y-4.6435
X5.361Y-4.7222
X4.2048Y-1.876
X4.2835Y-1.876
X4.3623Y-1.876
X4.441Y-1.876
T4
X3.65Y-5.575
X3.7484Y-5.575
X3.8469Y-5.575
X3.9453Y-5.575
X4.0437Y-5.575
X2.9947Y-5.5746
X3.0931Y-5.5746
X3.1915Y-5.5746
X3.29Y-5.5746
X3.3884Y-5.5746
T5
X3.7077Y-1.751
X3.7077Y-1.851
X3.7077Y-1.951
X2.8819Y-4.5703
X2.8819Y-4.6703
X2.8819Y-4.7703
X2.8819Y-4.8703
X3.3577Y-3.521
X3.3577Y-3.7179
X3.0719Y-4.8503
X3.0719Y-4.9503
X3.0719Y-5.0503
X3.1719Y-4.8503
X3.1719Y-4.9503
X3.1719Y-5.0503
X8.0176Y-2.4444
X8.0176Y-2.5444
X8.0176Y-2.6444
T6
X2.7577Y-2.296
X3.1577Y-2.296
X3.5077Y-2.946
X3.9077Y-2.946
X4.8027Y-1.696
X5.2027Y-1.696
X3.3819Y-2.7203
X3.3819Y-3.1203
T7
X6.9756Y-3.9901
X6.9756Y-4.5807
X4.9476Y-3.2094
X4.9476Y-3.5047
X7.3299Y-3.9901
X7.3299Y-4.5807
X4.8024Y-2.2394
X5.0976Y-2.2394
X7.6843Y-3.9901
X7.6843Y-4.5807
X4.4276Y-2.6941
X4.4276Y-2.9894
T8
X7.2961Y-5.0703
X8.1819Y-5.0703
T9
X6.4819Y-5.2703
X6.4819Y-5.4333
X6.4819Y-5.5963
X7.0319Y-5.2703
X7.0319Y-5.4333
X7.0319Y-5.5963
T10
X2.635Y-3.1476
X2.635Y-3.3051
X2.635Y-3.4626
X2.635Y-3.6201
X2.635Y-3.7776
X2.635Y-3.935
X2.635Y-4.0925
X2.635Y-4.25
X2.7925Y-3.2264
X2.7925Y-3.3839
X2.7925Y-3.5413
X2.7925Y-3.6988
X2.7925Y-3.8563
X2.7925Y-4.0138
X2.7925Y-4.1713
X2.95Y-3.1476
X2.95Y-3.3051
X2.95Y-3.4626
X2.95Y-3.6201
X2.95Y-3.7776
X2.95Y-3.935
X2.95Y-4.0925
X2.95Y-4.25
T11
X5.6676Y-2.2644
X5.6676Y-2.8744
X8.0558Y-3.0444
X8.0576Y-2.0894
T0
M30
