G04 #@! TF.GenerationSoftware,KiCad,Pcbnew,(5.0.2)-1*
G04 #@! TF.CreationDate,2019-04-05T10:25:58-04:00*
G04 #@! TF.ProjectId,interface-board,696e7465-7266-4616-9365-2d626f617264,rev?*
G04 #@! TF.SameCoordinates,Original*
G04 #@! TF.FileFunction,Soldermask,Bot*
G04 #@! TF.FilePolarity,Negative*
%FSLAX46Y46*%
G04 Gerber Fmt 4.6, Leading zero omitted, Abs format (unit mm)*
G04 Created by KiCad (PCBNEW (5.0.2)-1) date 4/5/2019 10:25:58 AM*
%MOMM*%
%LPD*%
G01*
G04 APERTURE LIST*
%ADD10C,0.100000*%
G04 APERTURE END LIST*
D10*
G36*
X178931105Y-144976728D02*
X179089604Y-145008255D01*
X179213290Y-145059488D01*
X179388209Y-145131941D01*
X179656952Y-145311510D01*
X179885490Y-145540048D01*
X180065059Y-145808791D01*
X180188745Y-146107397D01*
X180251800Y-146424394D01*
X180251800Y-146747606D01*
X180188745Y-147064603D01*
X180065059Y-147363209D01*
X179885490Y-147631952D01*
X179656952Y-147860490D01*
X179388209Y-148040059D01*
X179213290Y-148112512D01*
X179089604Y-148163745D01*
X178931104Y-148195273D01*
X178772606Y-148226800D01*
X178449394Y-148226800D01*
X178290896Y-148195273D01*
X178132396Y-148163745D01*
X178008710Y-148112512D01*
X177833791Y-148040059D01*
X177565048Y-147860490D01*
X177336510Y-147631952D01*
X177156941Y-147363209D01*
X177033255Y-147064603D01*
X176970200Y-146747606D01*
X176970200Y-146424394D01*
X177033255Y-146107397D01*
X177156941Y-145808791D01*
X177336510Y-145540048D01*
X177565048Y-145311510D01*
X177833791Y-145131941D01*
X178008710Y-145059488D01*
X178132396Y-145008255D01*
X178290895Y-144976728D01*
X178449394Y-144945200D01*
X178772606Y-144945200D01*
X178931105Y-144976728D01*
X178931105Y-144976728D01*
G37*
G36*
X164961105Y-144976728D02*
X165119604Y-145008255D01*
X165243290Y-145059488D01*
X165418209Y-145131941D01*
X165686952Y-145311510D01*
X165915490Y-145540048D01*
X166095059Y-145808791D01*
X166218745Y-146107397D01*
X166281800Y-146424394D01*
X166281800Y-146747606D01*
X166218745Y-147064603D01*
X166095059Y-147363209D01*
X165915490Y-147631952D01*
X165686952Y-147860490D01*
X165418209Y-148040059D01*
X165243290Y-148112512D01*
X165119604Y-148163745D01*
X164961104Y-148195273D01*
X164802606Y-148226800D01*
X164479394Y-148226800D01*
X164320896Y-148195273D01*
X164162396Y-148163745D01*
X164038710Y-148112512D01*
X163863791Y-148040059D01*
X163595048Y-147860490D01*
X163366510Y-147631952D01*
X163186941Y-147363209D01*
X163063255Y-147064603D01*
X163000200Y-146747606D01*
X163000200Y-146424394D01*
X163063255Y-146107397D01*
X163186941Y-145808791D01*
X163366510Y-145540048D01*
X163595048Y-145311510D01*
X163863791Y-145131941D01*
X164038710Y-145059488D01*
X164162396Y-145008255D01*
X164320895Y-144976728D01*
X164479394Y-144945200D01*
X164802606Y-144945200D01*
X164961105Y-144976728D01*
X164961105Y-144976728D01*
G37*
G36*
X64952950Y-141909775D02*
X65353469Y-142075675D01*
X65713930Y-142316528D01*
X66020472Y-142623070D01*
X66261325Y-142983531D01*
X66427225Y-143384050D01*
X66511800Y-143809239D01*
X66511800Y-144242761D01*
X66427225Y-144667950D01*
X66261325Y-145068469D01*
X66020472Y-145428930D01*
X65713930Y-145735472D01*
X65353469Y-145976325D01*
X64952950Y-146142225D01*
X64527761Y-146226800D01*
X64094239Y-146226800D01*
X63669050Y-146142225D01*
X63268531Y-145976325D01*
X62908070Y-145735472D01*
X62601528Y-145428930D01*
X62360675Y-145068469D01*
X62194775Y-144667950D01*
X62110200Y-144242761D01*
X62110200Y-143809239D01*
X62194775Y-143384050D01*
X62360675Y-142983531D01*
X62601528Y-142623070D01*
X62908070Y-142316528D01*
X63268531Y-142075675D01*
X63669050Y-141909775D01*
X64094239Y-141825200D01*
X64527761Y-141825200D01*
X64952950Y-141909775D01*
X64952950Y-141909775D01*
G37*
G36*
X212272950Y-141909775D02*
X212673469Y-142075675D01*
X213033930Y-142316528D01*
X213340472Y-142623070D01*
X213581325Y-142983531D01*
X213747225Y-143384050D01*
X213831800Y-143809239D01*
X213831800Y-144242761D01*
X213747225Y-144667950D01*
X213581325Y-145068469D01*
X213340472Y-145428930D01*
X213033930Y-145735472D01*
X212673469Y-145976325D01*
X212272950Y-146142225D01*
X211847761Y-146226800D01*
X211414239Y-146226800D01*
X210989050Y-146142225D01*
X210588531Y-145976325D01*
X210228070Y-145735472D01*
X209921528Y-145428930D01*
X209680675Y-145068469D01*
X209514775Y-144667950D01*
X209430200Y-144242761D01*
X209430200Y-143809239D01*
X209514775Y-143384050D01*
X209680675Y-142983531D01*
X209921528Y-142623070D01*
X210228070Y-142316528D01*
X210588531Y-142075675D01*
X210989050Y-141909775D01*
X211414239Y-141825200D01*
X211847761Y-141825200D01*
X212272950Y-141909775D01*
X212272950Y-141909775D01*
G37*
G36*
X165239725Y-140795034D02*
X165498120Y-140873418D01*
X165736261Y-141000706D01*
X165944992Y-141172008D01*
X166116294Y-141380739D01*
X166243582Y-141618880D01*
X166321966Y-141877275D01*
X166348432Y-142146000D01*
X166321966Y-142414725D01*
X166243582Y-142673120D01*
X166116294Y-142911261D01*
X165944992Y-143119992D01*
X165736261Y-143291294D01*
X165498120Y-143418582D01*
X165239725Y-143496966D01*
X165038340Y-143516800D01*
X164243660Y-143516800D01*
X164042275Y-143496966D01*
X163783880Y-143418582D01*
X163545739Y-143291294D01*
X163337008Y-143119992D01*
X163165706Y-142911261D01*
X163038418Y-142673120D01*
X162960034Y-142414725D01*
X162933568Y-142146000D01*
X162960034Y-141877275D01*
X163038418Y-141618880D01*
X163165706Y-141380739D01*
X163337008Y-141172008D01*
X163545739Y-141000706D01*
X163783880Y-140873418D01*
X164042275Y-140795034D01*
X164243660Y-140775200D01*
X165038340Y-140775200D01*
X165239725Y-140795034D01*
X165239725Y-140795034D01*
G37*
G36*
X179209725Y-140795034D02*
X179468120Y-140873418D01*
X179706261Y-141000706D01*
X179914992Y-141172008D01*
X180086294Y-141380739D01*
X180213582Y-141618880D01*
X180291966Y-141877275D01*
X180318432Y-142146000D01*
X180291966Y-142414725D01*
X180213582Y-142673120D01*
X180086294Y-142911261D01*
X179914992Y-143119992D01*
X179706261Y-143291294D01*
X179468120Y-143418582D01*
X179209725Y-143496966D01*
X179008340Y-143516800D01*
X178213660Y-143516800D01*
X178012275Y-143496966D01*
X177753880Y-143418582D01*
X177515739Y-143291294D01*
X177307008Y-143119992D01*
X177135706Y-142911261D01*
X177008418Y-142673120D01*
X176930034Y-142414725D01*
X176903568Y-142146000D01*
X176930034Y-141877275D01*
X177008418Y-141618880D01*
X177135706Y-141380739D01*
X177307008Y-141172008D01*
X177515739Y-141000706D01*
X177753880Y-140873418D01*
X178012275Y-140795034D01*
X178213660Y-140775200D01*
X179008340Y-140775200D01*
X179209725Y-140795034D01*
X179209725Y-140795034D01*
G37*
G36*
X128159468Y-142342283D02*
X128193434Y-142352586D01*
X128224732Y-142369316D01*
X128252168Y-142391832D01*
X128274684Y-142419268D01*
X128291414Y-142450566D01*
X128301717Y-142484532D01*
X128305800Y-142525990D01*
X128305800Y-143202010D01*
X128301717Y-143243468D01*
X128291414Y-143277434D01*
X128274684Y-143308732D01*
X128252168Y-143336168D01*
X128224732Y-143358684D01*
X128193434Y-143375414D01*
X128159468Y-143385717D01*
X128118010Y-143389800D01*
X127516990Y-143389800D01*
X127475532Y-143385717D01*
X127441566Y-143375414D01*
X127410268Y-143358684D01*
X127382832Y-143336168D01*
X127360316Y-143308732D01*
X127343586Y-143277434D01*
X127333283Y-143243468D01*
X127329200Y-143202010D01*
X127329200Y-142525990D01*
X127333283Y-142484532D01*
X127343586Y-142450566D01*
X127360316Y-142419268D01*
X127382832Y-142391832D01*
X127410268Y-142369316D01*
X127441566Y-142352586D01*
X127475532Y-142342283D01*
X127516990Y-142338200D01*
X128118010Y-142338200D01*
X128159468Y-142342283D01*
X128159468Y-142342283D01*
G37*
G36*
X129734468Y-142342283D02*
X129768434Y-142352586D01*
X129799732Y-142369316D01*
X129827168Y-142391832D01*
X129849684Y-142419268D01*
X129866414Y-142450566D01*
X129876717Y-142484532D01*
X129880800Y-142525990D01*
X129880800Y-143202010D01*
X129876717Y-143243468D01*
X129866414Y-143277434D01*
X129849684Y-143308732D01*
X129827168Y-143336168D01*
X129799732Y-143358684D01*
X129768434Y-143375414D01*
X129734468Y-143385717D01*
X129693010Y-143389800D01*
X129091990Y-143389800D01*
X129050532Y-143385717D01*
X129016566Y-143375414D01*
X128985268Y-143358684D01*
X128957832Y-143336168D01*
X128935316Y-143308732D01*
X128918586Y-143277434D01*
X128908283Y-143243468D01*
X128904200Y-143202010D01*
X128904200Y-142525990D01*
X128908283Y-142484532D01*
X128918586Y-142450566D01*
X128935316Y-142419268D01*
X128957832Y-142391832D01*
X128985268Y-142369316D01*
X129016566Y-142352586D01*
X129050532Y-142342283D01*
X129091990Y-142338200D01*
X129693010Y-142338200D01*
X129734468Y-142342283D01*
X129734468Y-142342283D01*
G37*
G36*
X95386587Y-140592234D02*
X95479384Y-140620384D01*
X95556389Y-140643743D01*
X95712877Y-140727388D01*
X95850044Y-140839956D01*
X95933288Y-140941391D01*
X95962611Y-140977121D01*
X95962612Y-140977123D01*
X96046257Y-141133610D01*
X96057905Y-141172008D01*
X96097766Y-141303412D01*
X96110800Y-141435751D01*
X96110800Y-141774248D01*
X96097766Y-141906587D01*
X96046257Y-142076389D01*
X95962611Y-142232879D01*
X95962610Y-142232880D01*
X95850044Y-142370044D01*
X95768512Y-142436954D01*
X95712879Y-142482611D01*
X95712877Y-142482612D01*
X95556390Y-142566257D01*
X95515647Y-142578616D01*
X95386588Y-142617766D01*
X95210000Y-142635158D01*
X95033413Y-142617766D01*
X94904354Y-142578616D01*
X94863611Y-142566257D01*
X94707124Y-142482612D01*
X94707122Y-142482611D01*
X94624401Y-142414724D01*
X94569954Y-142370041D01*
X94457390Y-142232880D01*
X94451510Y-142221879D01*
X94410951Y-142146000D01*
X94373743Y-142076390D01*
X94323201Y-141909775D01*
X94322234Y-141906588D01*
X94309200Y-141774249D01*
X94309200Y-141435752D01*
X94322234Y-141303413D01*
X94373743Y-141133612D01*
X94373743Y-141133611D01*
X94457388Y-140977123D01*
X94569956Y-140839956D01*
X94678295Y-140751046D01*
X94707121Y-140727389D01*
X94784651Y-140685948D01*
X94863610Y-140643743D01*
X94940615Y-140620384D01*
X95033412Y-140592234D01*
X95210000Y-140574842D01*
X95386587Y-140592234D01*
X95386587Y-140592234D01*
G37*
G36*
X97886587Y-140592234D02*
X97979384Y-140620384D01*
X98056389Y-140643743D01*
X98212877Y-140727388D01*
X98350044Y-140839956D01*
X98433288Y-140941391D01*
X98462611Y-140977121D01*
X98462612Y-140977123D01*
X98546257Y-141133610D01*
X98557905Y-141172008D01*
X98597766Y-141303412D01*
X98610800Y-141435751D01*
X98610800Y-141774248D01*
X98597766Y-141906587D01*
X98546257Y-142076389D01*
X98462611Y-142232879D01*
X98462610Y-142232880D01*
X98350044Y-142370044D01*
X98268512Y-142436954D01*
X98212879Y-142482611D01*
X98212877Y-142482612D01*
X98056390Y-142566257D01*
X98015647Y-142578616D01*
X97886588Y-142617766D01*
X97710000Y-142635158D01*
X97533413Y-142617766D01*
X97404354Y-142578616D01*
X97363611Y-142566257D01*
X97207124Y-142482612D01*
X97207122Y-142482611D01*
X97124401Y-142414724D01*
X97069954Y-142370041D01*
X96957390Y-142232880D01*
X96951510Y-142221879D01*
X96910951Y-142146000D01*
X96873743Y-142076390D01*
X96823201Y-141909775D01*
X96822234Y-141906588D01*
X96809200Y-141774249D01*
X96809200Y-141435752D01*
X96822234Y-141303413D01*
X96873743Y-141133612D01*
X96873743Y-141133611D01*
X96957388Y-140977123D01*
X97069956Y-140839956D01*
X97178295Y-140751046D01*
X97207121Y-140727389D01*
X97284651Y-140685948D01*
X97363610Y-140643743D01*
X97440615Y-140620384D01*
X97533412Y-140592234D01*
X97710000Y-140574842D01*
X97886587Y-140592234D01*
X97886587Y-140592234D01*
G37*
G36*
X100386587Y-140592234D02*
X100479384Y-140620384D01*
X100556389Y-140643743D01*
X100712877Y-140727388D01*
X100850044Y-140839956D01*
X100933288Y-140941391D01*
X100962611Y-140977121D01*
X100962612Y-140977123D01*
X101046257Y-141133610D01*
X101057905Y-141172008D01*
X101097766Y-141303412D01*
X101110800Y-141435751D01*
X101110800Y-141774248D01*
X101097766Y-141906587D01*
X101046257Y-142076389D01*
X100962611Y-142232879D01*
X100962610Y-142232880D01*
X100850044Y-142370044D01*
X100768512Y-142436954D01*
X100712879Y-142482611D01*
X100712877Y-142482612D01*
X100556390Y-142566257D01*
X100515647Y-142578616D01*
X100386588Y-142617766D01*
X100210000Y-142635158D01*
X100033413Y-142617766D01*
X99904354Y-142578616D01*
X99863611Y-142566257D01*
X99707124Y-142482612D01*
X99707122Y-142482611D01*
X99624401Y-142414724D01*
X99569954Y-142370041D01*
X99457390Y-142232880D01*
X99451510Y-142221879D01*
X99410951Y-142146000D01*
X99373743Y-142076390D01*
X99323201Y-141909775D01*
X99322234Y-141906588D01*
X99309200Y-141774249D01*
X99309200Y-141435752D01*
X99322234Y-141303413D01*
X99373743Y-141133612D01*
X99373743Y-141133611D01*
X99457388Y-140977123D01*
X99569956Y-140839956D01*
X99678295Y-140751046D01*
X99707121Y-140727389D01*
X99784651Y-140685948D01*
X99863610Y-140643743D01*
X99940615Y-140620384D01*
X100033412Y-140592234D01*
X100210000Y-140574842D01*
X100386587Y-140592234D01*
X100386587Y-140592234D01*
G37*
G36*
X102886587Y-140592234D02*
X102979384Y-140620384D01*
X103056389Y-140643743D01*
X103212877Y-140727388D01*
X103350044Y-140839956D01*
X103433288Y-140941391D01*
X103462611Y-140977121D01*
X103462612Y-140977123D01*
X103546257Y-141133610D01*
X103557905Y-141172008D01*
X103597766Y-141303412D01*
X103610800Y-141435751D01*
X103610800Y-141774248D01*
X103597766Y-141906587D01*
X103546257Y-142076389D01*
X103462611Y-142232879D01*
X103462610Y-142232880D01*
X103350044Y-142370044D01*
X103268512Y-142436954D01*
X103212879Y-142482611D01*
X103212877Y-142482612D01*
X103056390Y-142566257D01*
X103015647Y-142578616D01*
X102886588Y-142617766D01*
X102710000Y-142635158D01*
X102533413Y-142617766D01*
X102404354Y-142578616D01*
X102363611Y-142566257D01*
X102207124Y-142482612D01*
X102207122Y-142482611D01*
X102124401Y-142414724D01*
X102069954Y-142370041D01*
X101957390Y-142232880D01*
X101951510Y-142221879D01*
X101910951Y-142146000D01*
X101873743Y-142076390D01*
X101823201Y-141909775D01*
X101822234Y-141906588D01*
X101809200Y-141774249D01*
X101809200Y-141435752D01*
X101822234Y-141303413D01*
X101873743Y-141133612D01*
X101873743Y-141133611D01*
X101957388Y-140977123D01*
X102069956Y-140839956D01*
X102178295Y-140751046D01*
X102207121Y-140727389D01*
X102284651Y-140685948D01*
X102363610Y-140643743D01*
X102440615Y-140620384D01*
X102533412Y-140592234D01*
X102710000Y-140574842D01*
X102886587Y-140592234D01*
X102886587Y-140592234D01*
G37*
G36*
X93468451Y-140583188D02*
X93501483Y-140593208D01*
X93531929Y-140609483D01*
X93558616Y-140631384D01*
X93580517Y-140658071D01*
X93596792Y-140688517D01*
X93606812Y-140721549D01*
X93610800Y-140762046D01*
X93610800Y-142447954D01*
X93606812Y-142488451D01*
X93596792Y-142521483D01*
X93580517Y-142551929D01*
X93558616Y-142578616D01*
X93531929Y-142600517D01*
X93501483Y-142616792D01*
X93468451Y-142626812D01*
X93427954Y-142630800D01*
X91992046Y-142630800D01*
X91951549Y-142626812D01*
X91918517Y-142616792D01*
X91888071Y-142600517D01*
X91861384Y-142578616D01*
X91839483Y-142551929D01*
X91823208Y-142521483D01*
X91813188Y-142488451D01*
X91809200Y-142447954D01*
X91809200Y-140762046D01*
X91813188Y-140721549D01*
X91823208Y-140688517D01*
X91839483Y-140658071D01*
X91861384Y-140631384D01*
X91888071Y-140609483D01*
X91918517Y-140593208D01*
X91951549Y-140583188D01*
X91992046Y-140579200D01*
X93427954Y-140579200D01*
X93468451Y-140583188D01*
X93468451Y-140583188D01*
G37*
G36*
X83741587Y-140581234D02*
X83845813Y-140612851D01*
X83911389Y-140632743D01*
X84067877Y-140716388D01*
X84205044Y-140828956D01*
X84288288Y-140930391D01*
X84317611Y-140966121D01*
X84317612Y-140966123D01*
X84401257Y-141122610D01*
X84404594Y-141133610D01*
X84452766Y-141292412D01*
X84465800Y-141424751D01*
X84465800Y-141763248D01*
X84452766Y-141895587D01*
X84401257Y-142065389D01*
X84317611Y-142221879D01*
X84288288Y-142257609D01*
X84205044Y-142359044D01*
X84110109Y-142436954D01*
X84067879Y-142471611D01*
X84067877Y-142471612D01*
X83911390Y-142555257D01*
X83870647Y-142567616D01*
X83741588Y-142606766D01*
X83565000Y-142624158D01*
X83388413Y-142606766D01*
X83259354Y-142567616D01*
X83218611Y-142555257D01*
X83062124Y-142471612D01*
X83062122Y-142471611D01*
X82982392Y-142406179D01*
X82924954Y-142359041D01*
X82821417Y-142232880D01*
X82812389Y-142221879D01*
X82734623Y-142076390D01*
X82728743Y-142065390D01*
X82680571Y-141906587D01*
X82677234Y-141895588D01*
X82664200Y-141763249D01*
X82664200Y-141424752D01*
X82677234Y-141292413D01*
X82728743Y-141122612D01*
X82728743Y-141122611D01*
X82812388Y-140966123D01*
X82924956Y-140828956D01*
X83029998Y-140742752D01*
X83062121Y-140716389D01*
X83098492Y-140696948D01*
X83218610Y-140632743D01*
X83284186Y-140612851D01*
X83388412Y-140581234D01*
X83565000Y-140563842D01*
X83741587Y-140581234D01*
X83741587Y-140581234D01*
G37*
G36*
X78741587Y-140581234D02*
X78845813Y-140612851D01*
X78911389Y-140632743D01*
X79067877Y-140716388D01*
X79205044Y-140828956D01*
X79288288Y-140930391D01*
X79317611Y-140966121D01*
X79317612Y-140966123D01*
X79401257Y-141122610D01*
X79404594Y-141133610D01*
X79452766Y-141292412D01*
X79465800Y-141424751D01*
X79465800Y-141763248D01*
X79452766Y-141895587D01*
X79401257Y-142065389D01*
X79317611Y-142221879D01*
X79288288Y-142257609D01*
X79205044Y-142359044D01*
X79110109Y-142436954D01*
X79067879Y-142471611D01*
X79067877Y-142471612D01*
X78911390Y-142555257D01*
X78870647Y-142567616D01*
X78741588Y-142606766D01*
X78565000Y-142624158D01*
X78388413Y-142606766D01*
X78259354Y-142567616D01*
X78218611Y-142555257D01*
X78062124Y-142471612D01*
X78062122Y-142471611D01*
X77982392Y-142406179D01*
X77924954Y-142359041D01*
X77821417Y-142232880D01*
X77812389Y-142221879D01*
X77734623Y-142076390D01*
X77728743Y-142065390D01*
X77680571Y-141906587D01*
X77677234Y-141895588D01*
X77664200Y-141763249D01*
X77664200Y-141424752D01*
X77677234Y-141292413D01*
X77728743Y-141122612D01*
X77728743Y-141122611D01*
X77812388Y-140966123D01*
X77924956Y-140828956D01*
X78029998Y-140742752D01*
X78062121Y-140716389D01*
X78098492Y-140696948D01*
X78218610Y-140632743D01*
X78284186Y-140612851D01*
X78388412Y-140581234D01*
X78565000Y-140563842D01*
X78741587Y-140581234D01*
X78741587Y-140581234D01*
G37*
G36*
X81241587Y-140581234D02*
X81345813Y-140612851D01*
X81411389Y-140632743D01*
X81567877Y-140716388D01*
X81705044Y-140828956D01*
X81788288Y-140930391D01*
X81817611Y-140966121D01*
X81817612Y-140966123D01*
X81901257Y-141122610D01*
X81904594Y-141133610D01*
X81952766Y-141292412D01*
X81965800Y-141424751D01*
X81965800Y-141763248D01*
X81952766Y-141895587D01*
X81901257Y-142065389D01*
X81817611Y-142221879D01*
X81788288Y-142257609D01*
X81705044Y-142359044D01*
X81610109Y-142436954D01*
X81567879Y-142471611D01*
X81567877Y-142471612D01*
X81411390Y-142555257D01*
X81370647Y-142567616D01*
X81241588Y-142606766D01*
X81065000Y-142624158D01*
X80888413Y-142606766D01*
X80759354Y-142567616D01*
X80718611Y-142555257D01*
X80562124Y-142471612D01*
X80562122Y-142471611D01*
X80482392Y-142406179D01*
X80424954Y-142359041D01*
X80321417Y-142232880D01*
X80312389Y-142221879D01*
X80234623Y-142076390D01*
X80228743Y-142065390D01*
X80180571Y-141906587D01*
X80177234Y-141895588D01*
X80164200Y-141763249D01*
X80164200Y-141424752D01*
X80177234Y-141292413D01*
X80228743Y-141122612D01*
X80228743Y-141122611D01*
X80312388Y-140966123D01*
X80424956Y-140828956D01*
X80529998Y-140742752D01*
X80562121Y-140716389D01*
X80598492Y-140696948D01*
X80718610Y-140632743D01*
X80784186Y-140612851D01*
X80888412Y-140581234D01*
X81065000Y-140563842D01*
X81241587Y-140581234D01*
X81241587Y-140581234D01*
G37*
G36*
X86241587Y-140581234D02*
X86345813Y-140612851D01*
X86411389Y-140632743D01*
X86567877Y-140716388D01*
X86705044Y-140828956D01*
X86788288Y-140930391D01*
X86817611Y-140966121D01*
X86817612Y-140966123D01*
X86901257Y-141122610D01*
X86904594Y-141133610D01*
X86952766Y-141292412D01*
X86965800Y-141424751D01*
X86965800Y-141763248D01*
X86952766Y-141895587D01*
X86901257Y-142065389D01*
X86817611Y-142221879D01*
X86788288Y-142257609D01*
X86705044Y-142359044D01*
X86610109Y-142436954D01*
X86567879Y-142471611D01*
X86567877Y-142471612D01*
X86411390Y-142555257D01*
X86370647Y-142567616D01*
X86241588Y-142606766D01*
X86065000Y-142624158D01*
X85888413Y-142606766D01*
X85759354Y-142567616D01*
X85718611Y-142555257D01*
X85562124Y-142471612D01*
X85562122Y-142471611D01*
X85482392Y-142406179D01*
X85424954Y-142359041D01*
X85321417Y-142232880D01*
X85312389Y-142221879D01*
X85234623Y-142076390D01*
X85228743Y-142065390D01*
X85180571Y-141906587D01*
X85177234Y-141895588D01*
X85164200Y-141763249D01*
X85164200Y-141424752D01*
X85177234Y-141292413D01*
X85228743Y-141122612D01*
X85228743Y-141122611D01*
X85312388Y-140966123D01*
X85424956Y-140828956D01*
X85529998Y-140742752D01*
X85562121Y-140716389D01*
X85598492Y-140696948D01*
X85718610Y-140632743D01*
X85784186Y-140612851D01*
X85888412Y-140581234D01*
X86065000Y-140563842D01*
X86241587Y-140581234D01*
X86241587Y-140581234D01*
G37*
G36*
X76823451Y-140572188D02*
X76856483Y-140582208D01*
X76886929Y-140598483D01*
X76913616Y-140620384D01*
X76935517Y-140647071D01*
X76951792Y-140677517D01*
X76961812Y-140710549D01*
X76965800Y-140751046D01*
X76965800Y-142436954D01*
X76961812Y-142477451D01*
X76951792Y-142510483D01*
X76935517Y-142540929D01*
X76913616Y-142567616D01*
X76886929Y-142589517D01*
X76856483Y-142605792D01*
X76823451Y-142615812D01*
X76782954Y-142619800D01*
X75347046Y-142619800D01*
X75306549Y-142615812D01*
X75273517Y-142605792D01*
X75243071Y-142589517D01*
X75216384Y-142567616D01*
X75194483Y-142540929D01*
X75178208Y-142510483D01*
X75168188Y-142477451D01*
X75164200Y-142436954D01*
X75164200Y-140751046D01*
X75168188Y-140710549D01*
X75178208Y-140677517D01*
X75194483Y-140647071D01*
X75216384Y-140620384D01*
X75243071Y-140598483D01*
X75273517Y-140582208D01*
X75306549Y-140572188D01*
X75347046Y-140568200D01*
X76782954Y-140568200D01*
X76823451Y-140572188D01*
X76823451Y-140572188D01*
G37*
G36*
X91299829Y-138979209D02*
X91299832Y-138979210D01*
X91299831Y-138979210D01*
X91418269Y-139028268D01*
X91418270Y-139028269D01*
X91524864Y-139099493D01*
X91615507Y-139190136D01*
X91615509Y-139190139D01*
X91686732Y-139296731D01*
X91711681Y-139356965D01*
X91735791Y-139415171D01*
X91760800Y-139540900D01*
X91760800Y-139669100D01*
X91735791Y-139794829D01*
X91735790Y-139794831D01*
X91686732Y-139913269D01*
X91686731Y-139913270D01*
X91615507Y-140019864D01*
X91524864Y-140110507D01*
X91524861Y-140110509D01*
X91418269Y-140181732D01*
X91326662Y-140219676D01*
X91299829Y-140230791D01*
X91174100Y-140255800D01*
X91045900Y-140255800D01*
X90920171Y-140230791D01*
X90893338Y-140219676D01*
X90801731Y-140181732D01*
X90695139Y-140110509D01*
X90695136Y-140110507D01*
X90604493Y-140019864D01*
X90533269Y-139913270D01*
X90533268Y-139913269D01*
X90484210Y-139794831D01*
X90484209Y-139794829D01*
X90459200Y-139669100D01*
X90459200Y-139540900D01*
X90484209Y-139415171D01*
X90508319Y-139356965D01*
X90533268Y-139296731D01*
X90604491Y-139190139D01*
X90604493Y-139190136D01*
X90695136Y-139099493D01*
X90801730Y-139028269D01*
X90801731Y-139028268D01*
X90920169Y-138979210D01*
X90920168Y-138979210D01*
X90920171Y-138979209D01*
X91045900Y-138954200D01*
X91174100Y-138954200D01*
X91299829Y-138979209D01*
X91299829Y-138979209D01*
G37*
G36*
X74654829Y-138968209D02*
X74654832Y-138968210D01*
X74654831Y-138968210D01*
X74773269Y-139017268D01*
X74789733Y-139028269D01*
X74879864Y-139088493D01*
X74970507Y-139179136D01*
X74970509Y-139179139D01*
X75041732Y-139285731D01*
X75046288Y-139296731D01*
X75090791Y-139404171D01*
X75115800Y-139529900D01*
X75115800Y-139658100D01*
X75090791Y-139783829D01*
X75090790Y-139783831D01*
X75041732Y-139902269D01*
X75041731Y-139902270D01*
X74970507Y-140008864D01*
X74879864Y-140099507D01*
X74879861Y-140099509D01*
X74773269Y-140170732D01*
X74681662Y-140208676D01*
X74654829Y-140219791D01*
X74529100Y-140244800D01*
X74400900Y-140244800D01*
X74275171Y-140219791D01*
X74248338Y-140208676D01*
X74156731Y-140170732D01*
X74050139Y-140099509D01*
X74050136Y-140099507D01*
X73959493Y-140008864D01*
X73888269Y-139902270D01*
X73888268Y-139902269D01*
X73839210Y-139783831D01*
X73839209Y-139783829D01*
X73814200Y-139658100D01*
X73814200Y-139529900D01*
X73839209Y-139404171D01*
X73883712Y-139296731D01*
X73888268Y-139285731D01*
X73959491Y-139179139D01*
X73959493Y-139179136D01*
X74050136Y-139088493D01*
X74140267Y-139028269D01*
X74156731Y-139017268D01*
X74275169Y-138968210D01*
X74275168Y-138968210D01*
X74275171Y-138968209D01*
X74400900Y-138943200D01*
X74529100Y-138943200D01*
X74654829Y-138968209D01*
X74654829Y-138968209D01*
G37*
G36*
X179209725Y-136655034D02*
X179468120Y-136733418D01*
X179706261Y-136860706D01*
X179914992Y-137032008D01*
X180086294Y-137240739D01*
X180213582Y-137478880D01*
X180291966Y-137737275D01*
X180318432Y-138006000D01*
X180291966Y-138274725D01*
X180213582Y-138533120D01*
X180086294Y-138771261D01*
X179914992Y-138979992D01*
X179706261Y-139151294D01*
X179468120Y-139278582D01*
X179209725Y-139356966D01*
X179008340Y-139376800D01*
X178213660Y-139376800D01*
X178012275Y-139356966D01*
X177753880Y-139278582D01*
X177515739Y-139151294D01*
X177307008Y-138979992D01*
X177135706Y-138771261D01*
X177008418Y-138533120D01*
X176930034Y-138274725D01*
X176903568Y-138006000D01*
X176930034Y-137737275D01*
X177008418Y-137478880D01*
X177135706Y-137240739D01*
X177307008Y-137032008D01*
X177515739Y-136860706D01*
X177753880Y-136733418D01*
X178012275Y-136655034D01*
X178213660Y-136635200D01*
X179008340Y-136635200D01*
X179209725Y-136655034D01*
X179209725Y-136655034D01*
G37*
G36*
X165239725Y-136655034D02*
X165498120Y-136733418D01*
X165736261Y-136860706D01*
X165944992Y-137032008D01*
X166116294Y-137240739D01*
X166243582Y-137478880D01*
X166321966Y-137737275D01*
X166348432Y-138006000D01*
X166321966Y-138274725D01*
X166243582Y-138533120D01*
X166116294Y-138771261D01*
X165944992Y-138979992D01*
X165736261Y-139151294D01*
X165498120Y-139278582D01*
X165239725Y-139356966D01*
X165038340Y-139376800D01*
X164243660Y-139376800D01*
X164042275Y-139356966D01*
X163783880Y-139278582D01*
X163545739Y-139151294D01*
X163337008Y-138979992D01*
X163165706Y-138771261D01*
X163038418Y-138533120D01*
X162960034Y-138274725D01*
X162933568Y-138006000D01*
X162960034Y-137737275D01*
X163038418Y-137478880D01*
X163165706Y-137240739D01*
X163337008Y-137032008D01*
X163545739Y-136860706D01*
X163783880Y-136733418D01*
X164042275Y-136655034D01*
X164243660Y-136635200D01*
X165038340Y-136635200D01*
X165239725Y-136655034D01*
X165239725Y-136655034D01*
G37*
G36*
X166341800Y-135236800D02*
X162940200Y-135236800D01*
X162940200Y-132495200D01*
X166341800Y-132495200D01*
X166341800Y-135236800D01*
X166341800Y-135236800D01*
G37*
G36*
X180311800Y-135236800D02*
X176910200Y-135236800D01*
X176910200Y-132495200D01*
X180311800Y-132495200D01*
X180311800Y-135236800D01*
X180311800Y-135236800D01*
G37*
G36*
X185773352Y-127294796D02*
X186055579Y-127411699D01*
X186309578Y-127581415D01*
X186525585Y-127797422D01*
X186695301Y-128051421D01*
X186812204Y-128333648D01*
X186871800Y-128633259D01*
X186871800Y-128938741D01*
X186812204Y-129238352D01*
X186695301Y-129520579D01*
X186525585Y-129774578D01*
X186309578Y-129990585D01*
X186055579Y-130160301D01*
X185773352Y-130277204D01*
X185473741Y-130336800D01*
X185168259Y-130336800D01*
X184868648Y-130277204D01*
X184586421Y-130160301D01*
X184332422Y-129990585D01*
X184116415Y-129774578D01*
X183946699Y-129520579D01*
X183829796Y-129238352D01*
X183770200Y-128938741D01*
X183770200Y-128633259D01*
X183829796Y-128333648D01*
X183946699Y-128051421D01*
X184116415Y-127797422D01*
X184332422Y-127581415D01*
X184586421Y-127411699D01*
X184868648Y-127294796D01*
X185168259Y-127235200D01*
X185473741Y-127235200D01*
X185773352Y-127294796D01*
X185773352Y-127294796D01*
G37*
G36*
X208273352Y-127294796D02*
X208555579Y-127411699D01*
X208809578Y-127581415D01*
X209025585Y-127797422D01*
X209195301Y-128051421D01*
X209312204Y-128333648D01*
X209371800Y-128633259D01*
X209371800Y-128938741D01*
X209312204Y-129238352D01*
X209195301Y-129520579D01*
X209025585Y-129774578D01*
X208809578Y-129990585D01*
X208555579Y-130160301D01*
X208273352Y-130277204D01*
X207973741Y-130336800D01*
X207668259Y-130336800D01*
X207368648Y-130277204D01*
X207086421Y-130160301D01*
X206832422Y-129990585D01*
X206616415Y-129774578D01*
X206446699Y-129520579D01*
X206329796Y-129238352D01*
X206270200Y-128938741D01*
X206270200Y-128633259D01*
X206329796Y-128333648D01*
X206446699Y-128051421D01*
X206616415Y-127797422D01*
X206832422Y-127581415D01*
X207086421Y-127411699D01*
X207368648Y-127294796D01*
X207668259Y-127235200D01*
X207973741Y-127235200D01*
X208273352Y-127294796D01*
X208273352Y-127294796D01*
G37*
G36*
X196979597Y-127439031D02*
X197188081Y-127525388D01*
X197234528Y-127544627D01*
X197463958Y-127697927D01*
X197659073Y-127893042D01*
X197812373Y-128122472D01*
X197917969Y-128377403D01*
X197971800Y-128648032D01*
X197971800Y-128923968D01*
X197917969Y-129194597D01*
X197899845Y-129238352D01*
X197812373Y-129449528D01*
X197659073Y-129678958D01*
X197463958Y-129874073D01*
X197289585Y-129990585D01*
X197234528Y-130027373D01*
X196979597Y-130132969D01*
X196708968Y-130186800D01*
X196433032Y-130186800D01*
X196162403Y-130132969D01*
X195907472Y-130027373D01*
X195852415Y-129990585D01*
X195678042Y-129874073D01*
X195482927Y-129678958D01*
X195329627Y-129449528D01*
X195242155Y-129238352D01*
X195224031Y-129194597D01*
X195170200Y-128923968D01*
X195170200Y-128648032D01*
X195224031Y-128377403D01*
X195329627Y-128122472D01*
X195482927Y-127893042D01*
X195678042Y-127697927D01*
X195907472Y-127544627D01*
X195953919Y-127525388D01*
X196162403Y-127439031D01*
X196433032Y-127385200D01*
X196708968Y-127385200D01*
X196979597Y-127439031D01*
X196979597Y-127439031D01*
G37*
G36*
X78927800Y-129178800D02*
X77126200Y-129178800D01*
X77126200Y-127377200D01*
X78927800Y-127377200D01*
X78927800Y-129178800D01*
X78927800Y-129178800D01*
G37*
G36*
X80655362Y-127381545D02*
X80743588Y-127390234D01*
X80856789Y-127424573D01*
X80913390Y-127441743D01*
X81051980Y-127515822D01*
X81069879Y-127525389D01*
X81093320Y-127544627D01*
X81207044Y-127637956D01*
X81256262Y-127697930D01*
X81319611Y-127775121D01*
X81319612Y-127775123D01*
X81403257Y-127931610D01*
X81403257Y-127931611D01*
X81454766Y-128101412D01*
X81472158Y-128278000D01*
X81454766Y-128454588D01*
X81420427Y-128567789D01*
X81403257Y-128624390D01*
X81390619Y-128648033D01*
X81319611Y-128780879D01*
X81290288Y-128816609D01*
X81207044Y-128918044D01*
X81105609Y-129001288D01*
X81069879Y-129030611D01*
X81069877Y-129030612D01*
X80913390Y-129114257D01*
X80856789Y-129131427D01*
X80743588Y-129165766D01*
X80655362Y-129174455D01*
X80611250Y-129178800D01*
X80522750Y-129178800D01*
X80478638Y-129174455D01*
X80390412Y-129165766D01*
X80277211Y-129131427D01*
X80220610Y-129114257D01*
X80064123Y-129030612D01*
X80064121Y-129030611D01*
X80028391Y-129001288D01*
X79926956Y-128918044D01*
X79843712Y-128816609D01*
X79814389Y-128780879D01*
X79743381Y-128648033D01*
X79730743Y-128624390D01*
X79713573Y-128567789D01*
X79679234Y-128454588D01*
X79661842Y-128278000D01*
X79679234Y-128101412D01*
X79730743Y-127931611D01*
X79730743Y-127931610D01*
X79814388Y-127775123D01*
X79814389Y-127775121D01*
X79877738Y-127697930D01*
X79926956Y-127637956D01*
X80040680Y-127544627D01*
X80064121Y-127525389D01*
X80082020Y-127515822D01*
X80220610Y-127441743D01*
X80277211Y-127424573D01*
X80390412Y-127390234D01*
X80478638Y-127381545D01*
X80522750Y-127377200D01*
X80611250Y-127377200D01*
X80655362Y-127381545D01*
X80655362Y-127381545D01*
G37*
G36*
X78115362Y-124841545D02*
X78203588Y-124850234D01*
X78316789Y-124884573D01*
X78373390Y-124901743D01*
X78511980Y-124975822D01*
X78529879Y-124985389D01*
X78565609Y-125014712D01*
X78667044Y-125097956D01*
X78750288Y-125199391D01*
X78779611Y-125235121D01*
X78779612Y-125235123D01*
X78863257Y-125391610D01*
X78863257Y-125391611D01*
X78914766Y-125561412D01*
X78932158Y-125738000D01*
X78914766Y-125914588D01*
X78880427Y-126027789D01*
X78863257Y-126084390D01*
X78789178Y-126222980D01*
X78779611Y-126240879D01*
X78750288Y-126276609D01*
X78667044Y-126378044D01*
X78565609Y-126461288D01*
X78529879Y-126490611D01*
X78529877Y-126490612D01*
X78373390Y-126574257D01*
X78316789Y-126591427D01*
X78203588Y-126625766D01*
X78115362Y-126634455D01*
X78071250Y-126638800D01*
X77982750Y-126638800D01*
X77938638Y-126634455D01*
X77850412Y-126625766D01*
X77737211Y-126591427D01*
X77680610Y-126574257D01*
X77524123Y-126490612D01*
X77524121Y-126490611D01*
X77488391Y-126461288D01*
X77386956Y-126378044D01*
X77303712Y-126276609D01*
X77274389Y-126240879D01*
X77264822Y-126222980D01*
X77190743Y-126084390D01*
X77173573Y-126027789D01*
X77139234Y-125914588D01*
X77121842Y-125738000D01*
X77139234Y-125561412D01*
X77190743Y-125391611D01*
X77190743Y-125391610D01*
X77274388Y-125235123D01*
X77274389Y-125235121D01*
X77303712Y-125199391D01*
X77386956Y-125097956D01*
X77488391Y-125014712D01*
X77524121Y-124985389D01*
X77542020Y-124975822D01*
X77680610Y-124901743D01*
X77737211Y-124884573D01*
X77850412Y-124850234D01*
X77938638Y-124841545D01*
X77982750Y-124837200D01*
X78071250Y-124837200D01*
X78115362Y-124841545D01*
X78115362Y-124841545D01*
G37*
G36*
X80655362Y-124841545D02*
X80743588Y-124850234D01*
X80856789Y-124884573D01*
X80913390Y-124901743D01*
X81051980Y-124975822D01*
X81069879Y-124985389D01*
X81105609Y-125014712D01*
X81207044Y-125097956D01*
X81290288Y-125199391D01*
X81319611Y-125235121D01*
X81319612Y-125235123D01*
X81403257Y-125391610D01*
X81403257Y-125391611D01*
X81454766Y-125561412D01*
X81472158Y-125738000D01*
X81454766Y-125914588D01*
X81420427Y-126027789D01*
X81403257Y-126084390D01*
X81329178Y-126222980D01*
X81319611Y-126240879D01*
X81290288Y-126276609D01*
X81207044Y-126378044D01*
X81105609Y-126461288D01*
X81069879Y-126490611D01*
X81069877Y-126490612D01*
X80913390Y-126574257D01*
X80856789Y-126591427D01*
X80743588Y-126625766D01*
X80655362Y-126634455D01*
X80611250Y-126638800D01*
X80522750Y-126638800D01*
X80478638Y-126634455D01*
X80390412Y-126625766D01*
X80277211Y-126591427D01*
X80220610Y-126574257D01*
X80064123Y-126490612D01*
X80064121Y-126490611D01*
X80028391Y-126461288D01*
X79926956Y-126378044D01*
X79843712Y-126276609D01*
X79814389Y-126240879D01*
X79804822Y-126222980D01*
X79730743Y-126084390D01*
X79713573Y-126027789D01*
X79679234Y-125914588D01*
X79661842Y-125738000D01*
X79679234Y-125561412D01*
X79730743Y-125391611D01*
X79730743Y-125391610D01*
X79814388Y-125235123D01*
X79814389Y-125235121D01*
X79843712Y-125199391D01*
X79926956Y-125097956D01*
X80028391Y-125014712D01*
X80064121Y-124985389D01*
X80082020Y-124975822D01*
X80220610Y-124901743D01*
X80277211Y-124884573D01*
X80390412Y-124850234D01*
X80478638Y-124841545D01*
X80522750Y-124837200D01*
X80611250Y-124837200D01*
X80655362Y-124841545D01*
X80655362Y-124841545D01*
G37*
G36*
X74101800Y-124606800D02*
X72300200Y-124606800D01*
X72300200Y-122805200D01*
X74101800Y-122805200D01*
X74101800Y-124606800D01*
X74101800Y-124606800D01*
G37*
G36*
X78115362Y-122301545D02*
X78203588Y-122310234D01*
X78316789Y-122344573D01*
X78373390Y-122361743D01*
X78511980Y-122435822D01*
X78529879Y-122445389D01*
X78565609Y-122474712D01*
X78667044Y-122557956D01*
X78750288Y-122659391D01*
X78779611Y-122695121D01*
X78779612Y-122695123D01*
X78863257Y-122851610D01*
X78863257Y-122851611D01*
X78914766Y-123021412D01*
X78932158Y-123198000D01*
X78914766Y-123374588D01*
X78880427Y-123487789D01*
X78863257Y-123544390D01*
X78789178Y-123682980D01*
X78779611Y-123700879D01*
X78750288Y-123736609D01*
X78667044Y-123838044D01*
X78565609Y-123921288D01*
X78529879Y-123950611D01*
X78529877Y-123950612D01*
X78373390Y-124034257D01*
X78316789Y-124051427D01*
X78203588Y-124085766D01*
X78115362Y-124094455D01*
X78071250Y-124098800D01*
X77982750Y-124098800D01*
X77938638Y-124094455D01*
X77850412Y-124085766D01*
X77737211Y-124051427D01*
X77680610Y-124034257D01*
X77524123Y-123950612D01*
X77524121Y-123950611D01*
X77488391Y-123921288D01*
X77386956Y-123838044D01*
X77303712Y-123736609D01*
X77274389Y-123700879D01*
X77264822Y-123682980D01*
X77190743Y-123544390D01*
X77173573Y-123487789D01*
X77139234Y-123374588D01*
X77121842Y-123198000D01*
X77139234Y-123021412D01*
X77190743Y-122851611D01*
X77190743Y-122851610D01*
X77274388Y-122695123D01*
X77274389Y-122695121D01*
X77303712Y-122659391D01*
X77386956Y-122557956D01*
X77488391Y-122474712D01*
X77524121Y-122445389D01*
X77542020Y-122435822D01*
X77680610Y-122361743D01*
X77737211Y-122344573D01*
X77850412Y-122310234D01*
X77938638Y-122301545D01*
X77982750Y-122297200D01*
X78071250Y-122297200D01*
X78115362Y-122301545D01*
X78115362Y-122301545D01*
G37*
G36*
X80655362Y-122301545D02*
X80743588Y-122310234D01*
X80856789Y-122344573D01*
X80913390Y-122361743D01*
X81051980Y-122435822D01*
X81069879Y-122445389D01*
X81105609Y-122474712D01*
X81207044Y-122557956D01*
X81290288Y-122659391D01*
X81319611Y-122695121D01*
X81319612Y-122695123D01*
X81403257Y-122851610D01*
X81403257Y-122851611D01*
X81454766Y-123021412D01*
X81472158Y-123198000D01*
X81454766Y-123374588D01*
X81420427Y-123487789D01*
X81403257Y-123544390D01*
X81329178Y-123682980D01*
X81319611Y-123700879D01*
X81290288Y-123736609D01*
X81207044Y-123838044D01*
X81105609Y-123921288D01*
X81069879Y-123950611D01*
X81069877Y-123950612D01*
X80913390Y-124034257D01*
X80856789Y-124051427D01*
X80743588Y-124085766D01*
X80655362Y-124094455D01*
X80611250Y-124098800D01*
X80522750Y-124098800D01*
X80478638Y-124094455D01*
X80390412Y-124085766D01*
X80277211Y-124051427D01*
X80220610Y-124034257D01*
X80064123Y-123950612D01*
X80064121Y-123950611D01*
X80028391Y-123921288D01*
X79926956Y-123838044D01*
X79843712Y-123736609D01*
X79814389Y-123700879D01*
X79804822Y-123682980D01*
X79730743Y-123544390D01*
X79713573Y-123487789D01*
X79679234Y-123374588D01*
X79661842Y-123198000D01*
X79679234Y-123021412D01*
X79730743Y-122851611D01*
X79730743Y-122851610D01*
X79814388Y-122695123D01*
X79814389Y-122695121D01*
X79843712Y-122659391D01*
X79926956Y-122557956D01*
X80028391Y-122474712D01*
X80064121Y-122445389D01*
X80082020Y-122435822D01*
X80220610Y-122361743D01*
X80277211Y-122344573D01*
X80390412Y-122310234D01*
X80478638Y-122301545D01*
X80522750Y-122297200D01*
X80611250Y-122297200D01*
X80655362Y-122301545D01*
X80655362Y-122301545D01*
G37*
G36*
X73289362Y-120269545D02*
X73377588Y-120278234D01*
X73475729Y-120308005D01*
X73547390Y-120329743D01*
X73685980Y-120403822D01*
X73703879Y-120413389D01*
X73739609Y-120442712D01*
X73841044Y-120525956D01*
X73924288Y-120627391D01*
X73953611Y-120663121D01*
X73953612Y-120663123D01*
X74037257Y-120819610D01*
X74037257Y-120819611D01*
X74088766Y-120989412D01*
X74106158Y-121166000D01*
X74088766Y-121342588D01*
X74054427Y-121455789D01*
X74037257Y-121512390D01*
X73963178Y-121650980D01*
X73953611Y-121668879D01*
X73924288Y-121704609D01*
X73841044Y-121806044D01*
X73739609Y-121889288D01*
X73703879Y-121918611D01*
X73703877Y-121918612D01*
X73547390Y-122002257D01*
X73490789Y-122019427D01*
X73377588Y-122053766D01*
X73289362Y-122062455D01*
X73245250Y-122066800D01*
X73156750Y-122066800D01*
X73112638Y-122062455D01*
X73024412Y-122053766D01*
X72911211Y-122019427D01*
X72854610Y-122002257D01*
X72698123Y-121918612D01*
X72698121Y-121918611D01*
X72662391Y-121889288D01*
X72560956Y-121806044D01*
X72477712Y-121704609D01*
X72448389Y-121668879D01*
X72438822Y-121650980D01*
X72364743Y-121512390D01*
X72347573Y-121455789D01*
X72313234Y-121342588D01*
X72295842Y-121166000D01*
X72313234Y-120989412D01*
X72364743Y-120819611D01*
X72364743Y-120819610D01*
X72448388Y-120663123D01*
X72448389Y-120663121D01*
X72477712Y-120627391D01*
X72560956Y-120525956D01*
X72662391Y-120442712D01*
X72698121Y-120413389D01*
X72716020Y-120403822D01*
X72854610Y-120329743D01*
X72926271Y-120308005D01*
X73024412Y-120278234D01*
X73112638Y-120269545D01*
X73156750Y-120265200D01*
X73245250Y-120265200D01*
X73289362Y-120269545D01*
X73289362Y-120269545D01*
G37*
G36*
X136524462Y-119298600D02*
X136572270Y-119303308D01*
X136694946Y-119340522D01*
X136694949Y-119340523D01*
X136808005Y-119400952D01*
X136907102Y-119482280D01*
X136988430Y-119581377D01*
X137048859Y-119694433D01*
X137048860Y-119694436D01*
X137086074Y-119817112D01*
X137098639Y-119944691D01*
X137086074Y-120072270D01*
X137059334Y-120160418D01*
X137048859Y-120194949D01*
X136988430Y-120308005D01*
X136907102Y-120407102D01*
X136808005Y-120488430D01*
X136694949Y-120548859D01*
X136694946Y-120548860D01*
X136572270Y-120586074D01*
X136524462Y-120590782D01*
X136476656Y-120595491D01*
X135862726Y-120595491D01*
X135814920Y-120590782D01*
X135767112Y-120586074D01*
X135644436Y-120548860D01*
X135644433Y-120548859D01*
X135531377Y-120488430D01*
X135432280Y-120407102D01*
X135350952Y-120308005D01*
X135290523Y-120194949D01*
X135280048Y-120160418D01*
X135253308Y-120072270D01*
X135240743Y-119944691D01*
X135253308Y-119817112D01*
X135290522Y-119694436D01*
X135290523Y-119694433D01*
X135350952Y-119581377D01*
X135432280Y-119482280D01*
X135531377Y-119400952D01*
X135644433Y-119340523D01*
X135644436Y-119340522D01*
X135767112Y-119303308D01*
X135814920Y-119298600D01*
X135862726Y-119293891D01*
X136476656Y-119293891D01*
X136524462Y-119298600D01*
X136524462Y-119298600D01*
G37*
G36*
X63936507Y-118139582D02*
X64127740Y-118218793D01*
X64278976Y-118319846D01*
X64299849Y-118333793D01*
X64446207Y-118480151D01*
X64446209Y-118480154D01*
X64561207Y-118652260D01*
X64640418Y-118843493D01*
X64680800Y-119046505D01*
X64680800Y-119253495D01*
X64640418Y-119456507D01*
X64561207Y-119647740D01*
X64448036Y-119817112D01*
X64446207Y-119819849D01*
X64299849Y-119966207D01*
X64299846Y-119966209D01*
X64127740Y-120081207D01*
X63936507Y-120160418D01*
X63733495Y-120200800D01*
X63526505Y-120200800D01*
X63323493Y-120160418D01*
X63132260Y-120081207D01*
X62960154Y-119966209D01*
X62960151Y-119966207D01*
X62813793Y-119819849D01*
X62811964Y-119817112D01*
X62698793Y-119647740D01*
X62619582Y-119456507D01*
X62579200Y-119253495D01*
X62579200Y-119046505D01*
X62619582Y-118843493D01*
X62698793Y-118652260D01*
X62813791Y-118480154D01*
X62813793Y-118480151D01*
X62960151Y-118333793D01*
X62981024Y-118319846D01*
X63132260Y-118218793D01*
X63323493Y-118139582D01*
X63526505Y-118099200D01*
X63733495Y-118099200D01*
X63936507Y-118139582D01*
X63936507Y-118139582D01*
G37*
G36*
X73289362Y-117729545D02*
X73377588Y-117738234D01*
X73490789Y-117772573D01*
X73547390Y-117789743D01*
X73685980Y-117863822D01*
X73703879Y-117873389D01*
X73739609Y-117902712D01*
X73841044Y-117985956D01*
X73911877Y-118072268D01*
X73953611Y-118123121D01*
X73953612Y-118123123D01*
X74037257Y-118279610D01*
X74037257Y-118279611D01*
X74088766Y-118449412D01*
X74106158Y-118626000D01*
X74088766Y-118802588D01*
X74054427Y-118915789D01*
X74037257Y-118972390D01*
X73963178Y-119110980D01*
X73953611Y-119128879D01*
X73924288Y-119164609D01*
X73841044Y-119266044D01*
X73750289Y-119340523D01*
X73703879Y-119378611D01*
X73703877Y-119378612D01*
X73547390Y-119462257D01*
X73490789Y-119479427D01*
X73377588Y-119513766D01*
X73289362Y-119522455D01*
X73245250Y-119526800D01*
X73156750Y-119526800D01*
X73112638Y-119522455D01*
X73024412Y-119513766D01*
X72911211Y-119479427D01*
X72854610Y-119462257D01*
X72698123Y-119378612D01*
X72698121Y-119378611D01*
X72651711Y-119340523D01*
X72560956Y-119266044D01*
X72477712Y-119164609D01*
X72448389Y-119128879D01*
X72438822Y-119110980D01*
X72364743Y-118972390D01*
X72347573Y-118915789D01*
X72313234Y-118802588D01*
X72295842Y-118626000D01*
X72313234Y-118449412D01*
X72364743Y-118279611D01*
X72364743Y-118279610D01*
X72448388Y-118123123D01*
X72448389Y-118123121D01*
X72490123Y-118072268D01*
X72560956Y-117985956D01*
X72662391Y-117902712D01*
X72698121Y-117873389D01*
X72716020Y-117863822D01*
X72854610Y-117789743D01*
X72911211Y-117772573D01*
X73024412Y-117738234D01*
X73112638Y-117729545D01*
X73156750Y-117725200D01*
X73245250Y-117725200D01*
X73289362Y-117729545D01*
X73289362Y-117729545D01*
G37*
G36*
X82036507Y-116639582D02*
X82227740Y-116718793D01*
X82398687Y-116833016D01*
X82399849Y-116833793D01*
X82546207Y-116980151D01*
X82546209Y-116980154D01*
X82661207Y-117152260D01*
X82740418Y-117343493D01*
X82780800Y-117546505D01*
X82780800Y-117753495D01*
X82740418Y-117956507D01*
X82661207Y-118147740D01*
X82573094Y-118279610D01*
X82546207Y-118319849D01*
X82399849Y-118466207D01*
X82399846Y-118466209D01*
X82227740Y-118581207D01*
X82036507Y-118660418D01*
X81833495Y-118700800D01*
X81626505Y-118700800D01*
X81423493Y-118660418D01*
X81232260Y-118581207D01*
X81060154Y-118466209D01*
X81060151Y-118466207D01*
X80913793Y-118319849D01*
X80886906Y-118279610D01*
X80798793Y-118147740D01*
X80719582Y-117956507D01*
X80679200Y-117753495D01*
X80679200Y-117546505D01*
X80719582Y-117343493D01*
X80798793Y-117152260D01*
X80913791Y-116980154D01*
X80913793Y-116980151D01*
X81060151Y-116833793D01*
X81061313Y-116833016D01*
X81232260Y-116718793D01*
X81423493Y-116639582D01*
X81626505Y-116599200D01*
X81833495Y-116599200D01*
X82036507Y-116639582D01*
X82036507Y-116639582D01*
G37*
G36*
X136524462Y-117298600D02*
X136572270Y-117303308D01*
X136694946Y-117340522D01*
X136694949Y-117340523D01*
X136808005Y-117400952D01*
X136907102Y-117482280D01*
X136988430Y-117581377D01*
X137048859Y-117694433D01*
X137048860Y-117694436D01*
X137086074Y-117817112D01*
X137098639Y-117944691D01*
X137086074Y-118072270D01*
X137063180Y-118147739D01*
X137048859Y-118194949D01*
X136988430Y-118308005D01*
X136907102Y-118407102D01*
X136808005Y-118488430D01*
X136694949Y-118548859D01*
X136694946Y-118548860D01*
X136572270Y-118586074D01*
X136524462Y-118590783D01*
X136476656Y-118595491D01*
X135862726Y-118595491D01*
X135814920Y-118590783D01*
X135767112Y-118586074D01*
X135644436Y-118548860D01*
X135644433Y-118548859D01*
X135531377Y-118488430D01*
X135432280Y-118407102D01*
X135350952Y-118308005D01*
X135290523Y-118194949D01*
X135276202Y-118147739D01*
X135253308Y-118072270D01*
X135240743Y-117944691D01*
X135253308Y-117817112D01*
X135290522Y-117694436D01*
X135290523Y-117694433D01*
X135350952Y-117581377D01*
X135432280Y-117482280D01*
X135531377Y-117400952D01*
X135644433Y-117340523D01*
X135644436Y-117340522D01*
X135767112Y-117303308D01*
X135814920Y-117298600D01*
X135862726Y-117293891D01*
X136476656Y-117293891D01*
X136524462Y-117298600D01*
X136524462Y-117298600D01*
G37*
G36*
X186544842Y-115146267D02*
X186544844Y-115146268D01*
X186544845Y-115146268D01*
X186772476Y-115240555D01*
X186922088Y-115340523D01*
X186977341Y-115377442D01*
X187151558Y-115551659D01*
X187151560Y-115551662D01*
X187288445Y-115756524D01*
X187382732Y-115984155D01*
X187382733Y-115984158D01*
X187430800Y-116225806D01*
X187430800Y-116472194D01*
X187406275Y-116595491D01*
X187382732Y-116713845D01*
X187288445Y-116941476D01*
X187288444Y-116941477D01*
X187151558Y-117146341D01*
X186977341Y-117320558D01*
X186977338Y-117320560D01*
X186772476Y-117457445D01*
X186544845Y-117551732D01*
X186544844Y-117551732D01*
X186544842Y-117551733D01*
X186303194Y-117599800D01*
X186056806Y-117599800D01*
X185815158Y-117551733D01*
X185815156Y-117551732D01*
X185815155Y-117551732D01*
X185587524Y-117457445D01*
X185382662Y-117320560D01*
X185382659Y-117320558D01*
X185208442Y-117146341D01*
X185071556Y-116941477D01*
X185071555Y-116941476D01*
X184977268Y-116713845D01*
X184953726Y-116595491D01*
X184929200Y-116472194D01*
X184929200Y-116225806D01*
X184977267Y-115984158D01*
X184977268Y-115984155D01*
X185071555Y-115756524D01*
X185208440Y-115551662D01*
X185208442Y-115551659D01*
X185382659Y-115377442D01*
X185437912Y-115340523D01*
X185587524Y-115240555D01*
X185815155Y-115146268D01*
X185815156Y-115146268D01*
X185815158Y-115146267D01*
X186056806Y-115098200D01*
X186303194Y-115098200D01*
X186544842Y-115146267D01*
X186544842Y-115146267D01*
G37*
G36*
X177544842Y-115146267D02*
X177544844Y-115146268D01*
X177544845Y-115146268D01*
X177772476Y-115240555D01*
X177922088Y-115340523D01*
X177977341Y-115377442D01*
X178151558Y-115551659D01*
X178151560Y-115551662D01*
X178288445Y-115756524D01*
X178382732Y-115984155D01*
X178382733Y-115984158D01*
X178430800Y-116225806D01*
X178430800Y-116472194D01*
X178406275Y-116595491D01*
X178382732Y-116713845D01*
X178288445Y-116941476D01*
X178288444Y-116941477D01*
X178151558Y-117146341D01*
X177977341Y-117320558D01*
X177977338Y-117320560D01*
X177772476Y-117457445D01*
X177544845Y-117551732D01*
X177544844Y-117551732D01*
X177544842Y-117551733D01*
X177303194Y-117599800D01*
X177056806Y-117599800D01*
X176815158Y-117551733D01*
X176815156Y-117551732D01*
X176815155Y-117551732D01*
X176587524Y-117457445D01*
X176382662Y-117320560D01*
X176382659Y-117320558D01*
X176208442Y-117146341D01*
X176071556Y-116941477D01*
X176071555Y-116941476D01*
X175977268Y-116713845D01*
X175953726Y-116595491D01*
X175929200Y-116472194D01*
X175929200Y-116225806D01*
X175977267Y-115984158D01*
X175977268Y-115984155D01*
X176071555Y-115756524D01*
X176208440Y-115551662D01*
X176208442Y-115551659D01*
X176382659Y-115377442D01*
X176437912Y-115340523D01*
X176587524Y-115240555D01*
X176815155Y-115146268D01*
X176815156Y-115146268D01*
X176815158Y-115146267D01*
X177056806Y-115098200D01*
X177303194Y-115098200D01*
X177544842Y-115146267D01*
X177544842Y-115146267D01*
G37*
G36*
X195544842Y-115146267D02*
X195544844Y-115146268D01*
X195544845Y-115146268D01*
X195772476Y-115240555D01*
X195922088Y-115340523D01*
X195977341Y-115377442D01*
X196151558Y-115551659D01*
X196151560Y-115551662D01*
X196288445Y-115756524D01*
X196382732Y-115984155D01*
X196382733Y-115984158D01*
X196430800Y-116225806D01*
X196430800Y-116472194D01*
X196406275Y-116595491D01*
X196382732Y-116713845D01*
X196288445Y-116941476D01*
X196288444Y-116941477D01*
X196151558Y-117146341D01*
X195977341Y-117320558D01*
X195977338Y-117320560D01*
X195772476Y-117457445D01*
X195544845Y-117551732D01*
X195544844Y-117551732D01*
X195544842Y-117551733D01*
X195303194Y-117599800D01*
X195056806Y-117599800D01*
X194815158Y-117551733D01*
X194815156Y-117551732D01*
X194815155Y-117551732D01*
X194587524Y-117457445D01*
X194382662Y-117320560D01*
X194382659Y-117320558D01*
X194208442Y-117146341D01*
X194071556Y-116941477D01*
X194071555Y-116941476D01*
X193977268Y-116713845D01*
X193953726Y-116595491D01*
X193929200Y-116472194D01*
X193929200Y-116225806D01*
X193977267Y-115984158D01*
X193977268Y-115984155D01*
X194071555Y-115756524D01*
X194208440Y-115551662D01*
X194208442Y-115551659D01*
X194382659Y-115377442D01*
X194437912Y-115340523D01*
X194587524Y-115240555D01*
X194815155Y-115146268D01*
X194815156Y-115146268D01*
X194815158Y-115146267D01*
X195056806Y-115098200D01*
X195303194Y-115098200D01*
X195544842Y-115146267D01*
X195544842Y-115146267D01*
G37*
G36*
X73289362Y-115189545D02*
X73377588Y-115198234D01*
X73490789Y-115232573D01*
X73547390Y-115249743D01*
X73629984Y-115293891D01*
X73703879Y-115333389D01*
X73739609Y-115362712D01*
X73841044Y-115445956D01*
X73924288Y-115547391D01*
X73953611Y-115583121D01*
X73953612Y-115583123D01*
X74037257Y-115739610D01*
X74037257Y-115739611D01*
X74088766Y-115909412D01*
X74106158Y-116086000D01*
X74088766Y-116262588D01*
X74054427Y-116375789D01*
X74037257Y-116432390D01*
X73975002Y-116548859D01*
X73953611Y-116588879D01*
X73924288Y-116624609D01*
X73841044Y-116726044D01*
X73739609Y-116809288D01*
X73703879Y-116838611D01*
X73703877Y-116838612D01*
X73547390Y-116922257D01*
X73490789Y-116939427D01*
X73377588Y-116973766D01*
X73312728Y-116980154D01*
X73245250Y-116986800D01*
X73156750Y-116986800D01*
X73089272Y-116980154D01*
X73024412Y-116973766D01*
X72911211Y-116939427D01*
X72854610Y-116922257D01*
X72698123Y-116838612D01*
X72698121Y-116838611D01*
X72662391Y-116809288D01*
X72560956Y-116726044D01*
X72477712Y-116624609D01*
X72448389Y-116588879D01*
X72426998Y-116548859D01*
X72364743Y-116432390D01*
X72347573Y-116375789D01*
X72313234Y-116262588D01*
X72295842Y-116086000D01*
X72313234Y-115909412D01*
X72364743Y-115739611D01*
X72364743Y-115739610D01*
X72448388Y-115583123D01*
X72448389Y-115583121D01*
X72477712Y-115547391D01*
X72560956Y-115445956D01*
X72662391Y-115362712D01*
X72698121Y-115333389D01*
X72772016Y-115293891D01*
X72854610Y-115249743D01*
X72911211Y-115232573D01*
X73024412Y-115198234D01*
X73112638Y-115189545D01*
X73156750Y-115185200D01*
X73245250Y-115185200D01*
X73289362Y-115189545D01*
X73289362Y-115189545D01*
G37*
G36*
X136524462Y-115298600D02*
X136572270Y-115303308D01*
X136694946Y-115340522D01*
X136694949Y-115340523D01*
X136808005Y-115400952D01*
X136907102Y-115482280D01*
X136988430Y-115581377D01*
X137048859Y-115694433D01*
X137048860Y-115694436D01*
X137086074Y-115817112D01*
X137098639Y-115944691D01*
X137086074Y-116072270D01*
X137048860Y-116194946D01*
X137048859Y-116194949D01*
X136988430Y-116308005D01*
X136907102Y-116407102D01*
X136808005Y-116488430D01*
X136694949Y-116548859D01*
X136694946Y-116548860D01*
X136572270Y-116586074D01*
X136524462Y-116590782D01*
X136476656Y-116595491D01*
X135862726Y-116595491D01*
X135814920Y-116590782D01*
X135767112Y-116586074D01*
X135644436Y-116548860D01*
X135644433Y-116548859D01*
X135531377Y-116488430D01*
X135432280Y-116407102D01*
X135350952Y-116308005D01*
X135290523Y-116194949D01*
X135290522Y-116194946D01*
X135253308Y-116072270D01*
X135240743Y-115944691D01*
X135253308Y-115817112D01*
X135290522Y-115694436D01*
X135290523Y-115694433D01*
X135350952Y-115581377D01*
X135432280Y-115482280D01*
X135531377Y-115400952D01*
X135644433Y-115340523D01*
X135644436Y-115340522D01*
X135767112Y-115303308D01*
X135814920Y-115298600D01*
X135862726Y-115293891D01*
X136476656Y-115293891D01*
X136524462Y-115298600D01*
X136524462Y-115298600D01*
G37*
G36*
X136935802Y-113298293D02*
X136972873Y-113309539D01*
X137007052Y-113327807D01*
X137036998Y-113352384D01*
X137061575Y-113382330D01*
X137079843Y-113416509D01*
X137091089Y-113453580D01*
X137095491Y-113498280D01*
X137095491Y-114391102D01*
X137091089Y-114435802D01*
X137079843Y-114472873D01*
X137061575Y-114507052D01*
X137036998Y-114536998D01*
X137007052Y-114561575D01*
X136972873Y-114579843D01*
X136935802Y-114591089D01*
X136891102Y-114595491D01*
X135448280Y-114595491D01*
X135403580Y-114591089D01*
X135366509Y-114579843D01*
X135332330Y-114561575D01*
X135302384Y-114536998D01*
X135277807Y-114507052D01*
X135259539Y-114472873D01*
X135248293Y-114435802D01*
X135243891Y-114391102D01*
X135243891Y-113498280D01*
X135248293Y-113453580D01*
X135259539Y-113416509D01*
X135277807Y-113382330D01*
X135302384Y-113352384D01*
X135332330Y-113327807D01*
X135366509Y-113309539D01*
X135403580Y-113298293D01*
X135448280Y-113293891D01*
X136891102Y-113293891D01*
X136935802Y-113298293D01*
X136935802Y-113298293D01*
G37*
G36*
X75327660Y-106639091D02*
X75575765Y-106741860D01*
X75691297Y-106819056D01*
X75799056Y-106891058D01*
X75988942Y-107080944D01*
X75988944Y-107080947D01*
X76109191Y-107260909D01*
X76138141Y-107304237D01*
X76240909Y-107552340D01*
X76293300Y-107815726D01*
X76293300Y-108084274D01*
X76240909Y-108347660D01*
X76138141Y-108595763D01*
X75988942Y-108819056D01*
X75799056Y-109008942D01*
X75799053Y-109008944D01*
X75575765Y-109158140D01*
X75575764Y-109158141D01*
X75575763Y-109158141D01*
X75327660Y-109260909D01*
X75064274Y-109313300D01*
X74795726Y-109313300D01*
X74532340Y-109260909D01*
X74284237Y-109158141D01*
X74284236Y-109158141D01*
X74284235Y-109158140D01*
X74060947Y-109008944D01*
X74060944Y-109008942D01*
X73871058Y-108819056D01*
X73721859Y-108595763D01*
X73619091Y-108347660D01*
X73566700Y-108084274D01*
X73566700Y-107815726D01*
X73619091Y-107552340D01*
X73721859Y-107304237D01*
X73750810Y-107260909D01*
X73871056Y-107080947D01*
X73871058Y-107080944D01*
X74060944Y-106891058D01*
X74168703Y-106819056D01*
X74284235Y-106741860D01*
X74532340Y-106639091D01*
X74795726Y-106586700D01*
X75064274Y-106586700D01*
X75327660Y-106639091D01*
X75327660Y-106639091D01*
G37*
G36*
X67327660Y-106639091D02*
X67575765Y-106741860D01*
X67691297Y-106819056D01*
X67799056Y-106891058D01*
X67988942Y-107080944D01*
X67988944Y-107080947D01*
X68109191Y-107260909D01*
X68138141Y-107304237D01*
X68240909Y-107552340D01*
X68293300Y-107815726D01*
X68293300Y-108084274D01*
X68240909Y-108347660D01*
X68138141Y-108595763D01*
X67988942Y-108819056D01*
X67799056Y-109008942D01*
X67799053Y-109008944D01*
X67575765Y-109158140D01*
X67575764Y-109158141D01*
X67575763Y-109158141D01*
X67327660Y-109260909D01*
X67064274Y-109313300D01*
X66795726Y-109313300D01*
X66532340Y-109260909D01*
X66284237Y-109158141D01*
X66284236Y-109158141D01*
X66284235Y-109158140D01*
X66060947Y-109008944D01*
X66060944Y-109008942D01*
X65871058Y-108819056D01*
X65721859Y-108595763D01*
X65619091Y-108347660D01*
X65566700Y-108084274D01*
X65566700Y-107815726D01*
X65619091Y-107552340D01*
X65721859Y-107304237D01*
X65750810Y-107260909D01*
X65871056Y-107080947D01*
X65871058Y-107080944D01*
X66060944Y-106891058D01*
X66168703Y-106819056D01*
X66284235Y-106741860D01*
X66532340Y-106639091D01*
X66795726Y-106586700D01*
X67064274Y-106586700D01*
X67327660Y-106639091D01*
X67327660Y-106639091D01*
G37*
G36*
X71327660Y-104639091D02*
X71575765Y-104741860D01*
X71691297Y-104819056D01*
X71799056Y-104891058D01*
X71988942Y-105080944D01*
X71988944Y-105080947D01*
X72138140Y-105304235D01*
X72240909Y-105552340D01*
X72293300Y-105815727D01*
X72293300Y-106084273D01*
X72240909Y-106347660D01*
X72138140Y-106595765D01*
X72040523Y-106741859D01*
X71988942Y-106819056D01*
X71799056Y-107008942D01*
X71799053Y-107008944D01*
X71575765Y-107158140D01*
X71575764Y-107158141D01*
X71575763Y-107158141D01*
X71327660Y-107260909D01*
X71064274Y-107313300D01*
X70795726Y-107313300D01*
X70532340Y-107260909D01*
X70284237Y-107158141D01*
X70284236Y-107158141D01*
X70284235Y-107158140D01*
X70060947Y-107008944D01*
X70060944Y-107008942D01*
X69871058Y-106819056D01*
X69819477Y-106741859D01*
X69721860Y-106595765D01*
X69619091Y-106347660D01*
X69566700Y-106084273D01*
X69566700Y-105815727D01*
X69619091Y-105552340D01*
X69721860Y-105304235D01*
X69871056Y-105080947D01*
X69871058Y-105080944D01*
X70060944Y-104891058D01*
X70168703Y-104819056D01*
X70284235Y-104741860D01*
X70532340Y-104639091D01*
X70795726Y-104586700D01*
X71064274Y-104586700D01*
X71327660Y-104639091D01*
X71327660Y-104639091D01*
G37*
G36*
X67327660Y-102639091D02*
X67575765Y-102741860D01*
X67691297Y-102819056D01*
X67799056Y-102891058D01*
X67988942Y-103080944D01*
X67988944Y-103080947D01*
X68138140Y-103304235D01*
X68240909Y-103552340D01*
X68293300Y-103815727D01*
X68293300Y-104084273D01*
X68240909Y-104347660D01*
X68138140Y-104595765D01*
X68040523Y-104741859D01*
X67988942Y-104819056D01*
X67799056Y-105008942D01*
X67799053Y-105008944D01*
X67575765Y-105158140D01*
X67575764Y-105158141D01*
X67575763Y-105158141D01*
X67327660Y-105260909D01*
X67064274Y-105313300D01*
X66795726Y-105313300D01*
X66532340Y-105260909D01*
X66284237Y-105158141D01*
X66284236Y-105158141D01*
X66284235Y-105158140D01*
X66060947Y-105008944D01*
X66060944Y-105008942D01*
X65871058Y-104819056D01*
X65819477Y-104741859D01*
X65721860Y-104595765D01*
X65619091Y-104347660D01*
X65566700Y-104084273D01*
X65566700Y-103815727D01*
X65619091Y-103552340D01*
X65721860Y-103304235D01*
X65871056Y-103080947D01*
X65871058Y-103080944D01*
X66060944Y-102891058D01*
X66168703Y-102819056D01*
X66284235Y-102741860D01*
X66532340Y-102639091D01*
X66795726Y-102586700D01*
X67064274Y-102586700D01*
X67327660Y-102639091D01*
X67327660Y-102639091D01*
G37*
G36*
X75327660Y-102639091D02*
X75575765Y-102741860D01*
X75691297Y-102819056D01*
X75799056Y-102891058D01*
X75988942Y-103080944D01*
X75988944Y-103080947D01*
X76138140Y-103304235D01*
X76240909Y-103552340D01*
X76293300Y-103815727D01*
X76293300Y-104084273D01*
X76240909Y-104347660D01*
X76138140Y-104595765D01*
X76040523Y-104741859D01*
X75988942Y-104819056D01*
X75799056Y-105008942D01*
X75799053Y-105008944D01*
X75575765Y-105158140D01*
X75575764Y-105158141D01*
X75575763Y-105158141D01*
X75327660Y-105260909D01*
X75064274Y-105313300D01*
X74795726Y-105313300D01*
X74532340Y-105260909D01*
X74284237Y-105158141D01*
X74284236Y-105158141D01*
X74284235Y-105158140D01*
X74060947Y-105008944D01*
X74060944Y-105008942D01*
X73871058Y-104819056D01*
X73819477Y-104741859D01*
X73721860Y-104595765D01*
X73619091Y-104347660D01*
X73566700Y-104084273D01*
X73566700Y-103815727D01*
X73619091Y-103552340D01*
X73721860Y-103304235D01*
X73871056Y-103080947D01*
X73871058Y-103080944D01*
X74060944Y-102891058D01*
X74168703Y-102819056D01*
X74284235Y-102741860D01*
X74532340Y-102639091D01*
X74795726Y-102586700D01*
X75064274Y-102586700D01*
X75327660Y-102639091D01*
X75327660Y-102639091D01*
G37*
G36*
X71327660Y-100639091D02*
X71575765Y-100741860D01*
X71691297Y-100819056D01*
X71799056Y-100891058D01*
X71988942Y-101080944D01*
X71988944Y-101080947D01*
X72109191Y-101260909D01*
X72138141Y-101304237D01*
X72240909Y-101552340D01*
X72293300Y-101815726D01*
X72293300Y-102084274D01*
X72280954Y-102146341D01*
X72240909Y-102347660D01*
X72138140Y-102595765D01*
X72040523Y-102741859D01*
X71988942Y-102819056D01*
X71799056Y-103008942D01*
X71799053Y-103008944D01*
X71575765Y-103158140D01*
X71575764Y-103158141D01*
X71575763Y-103158141D01*
X71327660Y-103260909D01*
X71064274Y-103313300D01*
X70795726Y-103313300D01*
X70532340Y-103260909D01*
X70284237Y-103158141D01*
X70284236Y-103158141D01*
X70284235Y-103158140D01*
X70060947Y-103008944D01*
X70060944Y-103008942D01*
X69871058Y-102819056D01*
X69819477Y-102741859D01*
X69721860Y-102595765D01*
X69619091Y-102347660D01*
X69579046Y-102146341D01*
X69566700Y-102084274D01*
X69566700Y-101815726D01*
X69619091Y-101552340D01*
X69721859Y-101304237D01*
X69750810Y-101260909D01*
X69871056Y-101080947D01*
X69871058Y-101080944D01*
X70060944Y-100891058D01*
X70168703Y-100819056D01*
X70284235Y-100741860D01*
X70532340Y-100639091D01*
X70795726Y-100586700D01*
X71064274Y-100586700D01*
X71327660Y-100639091D01*
X71327660Y-100639091D01*
G37*
G36*
X177544842Y-100146267D02*
X177544844Y-100146268D01*
X177544845Y-100146268D01*
X177772476Y-100240555D01*
X177772477Y-100240556D01*
X177977341Y-100377442D01*
X178151558Y-100551659D01*
X178151560Y-100551662D01*
X178288445Y-100756524D01*
X178314345Y-100819053D01*
X178382733Y-100984158D01*
X178430800Y-101225806D01*
X178430800Y-101472193D01*
X178382732Y-101713845D01*
X178288445Y-101941476D01*
X178288444Y-101941477D01*
X178151558Y-102146341D01*
X177977341Y-102320558D01*
X177977338Y-102320560D01*
X177772476Y-102457445D01*
X177544845Y-102551732D01*
X177544844Y-102551732D01*
X177544842Y-102551733D01*
X177303194Y-102599800D01*
X177056806Y-102599800D01*
X176815158Y-102551733D01*
X176815156Y-102551732D01*
X176815155Y-102551732D01*
X176587524Y-102457445D01*
X176382662Y-102320560D01*
X176382659Y-102320558D01*
X176208442Y-102146341D01*
X176071556Y-101941477D01*
X176071555Y-101941476D01*
X175977268Y-101713845D01*
X175929200Y-101472193D01*
X175929200Y-101225806D01*
X175977267Y-100984158D01*
X176045655Y-100819053D01*
X176071555Y-100756524D01*
X176208440Y-100551662D01*
X176208442Y-100551659D01*
X176382659Y-100377442D01*
X176587523Y-100240556D01*
X176587524Y-100240555D01*
X176815155Y-100146268D01*
X176815156Y-100146268D01*
X176815158Y-100146267D01*
X177056806Y-100098200D01*
X177303194Y-100098200D01*
X177544842Y-100146267D01*
X177544842Y-100146267D01*
G37*
G36*
X195544842Y-100146267D02*
X195544844Y-100146268D01*
X195544845Y-100146268D01*
X195772476Y-100240555D01*
X195772477Y-100240556D01*
X195977341Y-100377442D01*
X196151558Y-100551659D01*
X196151560Y-100551662D01*
X196288445Y-100756524D01*
X196314345Y-100819053D01*
X196382733Y-100984158D01*
X196430800Y-101225806D01*
X196430800Y-101472193D01*
X196382732Y-101713845D01*
X196288445Y-101941476D01*
X196288444Y-101941477D01*
X196151558Y-102146341D01*
X195977341Y-102320558D01*
X195977338Y-102320560D01*
X195772476Y-102457445D01*
X195544845Y-102551732D01*
X195544844Y-102551732D01*
X195544842Y-102551733D01*
X195303194Y-102599800D01*
X195056806Y-102599800D01*
X194815158Y-102551733D01*
X194815156Y-102551732D01*
X194815155Y-102551732D01*
X194587524Y-102457445D01*
X194382662Y-102320560D01*
X194382659Y-102320558D01*
X194208442Y-102146341D01*
X194071556Y-101941477D01*
X194071555Y-101941476D01*
X193977268Y-101713845D01*
X193929200Y-101472193D01*
X193929200Y-101225806D01*
X193977267Y-100984158D01*
X194045655Y-100819053D01*
X194071555Y-100756524D01*
X194208440Y-100551662D01*
X194208442Y-100551659D01*
X194382659Y-100377442D01*
X194587523Y-100240556D01*
X194587524Y-100240555D01*
X194815155Y-100146268D01*
X194815156Y-100146268D01*
X194815158Y-100146267D01*
X195056806Y-100098200D01*
X195303194Y-100098200D01*
X195544842Y-100146267D01*
X195544842Y-100146267D01*
G37*
G36*
X186544842Y-100146267D02*
X186544844Y-100146268D01*
X186544845Y-100146268D01*
X186772476Y-100240555D01*
X186772477Y-100240556D01*
X186977341Y-100377442D01*
X187151558Y-100551659D01*
X187151560Y-100551662D01*
X187288445Y-100756524D01*
X187314345Y-100819053D01*
X187382733Y-100984158D01*
X187430800Y-101225806D01*
X187430800Y-101472193D01*
X187382732Y-101713845D01*
X187288445Y-101941476D01*
X187288444Y-101941477D01*
X187151558Y-102146341D01*
X186977341Y-102320558D01*
X186977338Y-102320560D01*
X186772476Y-102457445D01*
X186544845Y-102551732D01*
X186544844Y-102551732D01*
X186544842Y-102551733D01*
X186303194Y-102599800D01*
X186056806Y-102599800D01*
X185815158Y-102551733D01*
X185815156Y-102551732D01*
X185815155Y-102551732D01*
X185587524Y-102457445D01*
X185382662Y-102320560D01*
X185382659Y-102320558D01*
X185208442Y-102146341D01*
X185071556Y-101941477D01*
X185071555Y-101941476D01*
X184977268Y-101713845D01*
X184929200Y-101472193D01*
X184929200Y-101225806D01*
X184977267Y-100984158D01*
X185045655Y-100819053D01*
X185071555Y-100756524D01*
X185208440Y-100551662D01*
X185208442Y-100551659D01*
X185382659Y-100377442D01*
X185587523Y-100240556D01*
X185587524Y-100240555D01*
X185815155Y-100146268D01*
X185815156Y-100146268D01*
X185815158Y-100146267D01*
X186056806Y-100098200D01*
X186303194Y-100098200D01*
X186544842Y-100146267D01*
X186544842Y-100146267D01*
G37*
G36*
X67327660Y-98639091D02*
X67575765Y-98741860D01*
X67691297Y-98819056D01*
X67799056Y-98891058D01*
X67988942Y-99080944D01*
X67988944Y-99080947D01*
X68109191Y-99260909D01*
X68138141Y-99304237D01*
X68240909Y-99552340D01*
X68293300Y-99815726D01*
X68293300Y-100084274D01*
X68240909Y-100347660D01*
X68156410Y-100551659D01*
X68138140Y-100595765D01*
X68040523Y-100741859D01*
X67988942Y-100819056D01*
X67799056Y-101008942D01*
X67799053Y-101008944D01*
X67575765Y-101158140D01*
X67575764Y-101158141D01*
X67575763Y-101158141D01*
X67327660Y-101260909D01*
X67064274Y-101313300D01*
X66795726Y-101313300D01*
X66532340Y-101260909D01*
X66284237Y-101158141D01*
X66284236Y-101158141D01*
X66284235Y-101158140D01*
X66060947Y-101008944D01*
X66060944Y-101008942D01*
X65871058Y-100819056D01*
X65819477Y-100741859D01*
X65721860Y-100595765D01*
X65703591Y-100551659D01*
X65619091Y-100347660D01*
X65566700Y-100084274D01*
X65566700Y-99815726D01*
X65619091Y-99552340D01*
X65721859Y-99304237D01*
X65750810Y-99260909D01*
X65871056Y-99080947D01*
X65871058Y-99080944D01*
X66060944Y-98891058D01*
X66168703Y-98819056D01*
X66284235Y-98741860D01*
X66532340Y-98639091D01*
X66795726Y-98586700D01*
X67064274Y-98586700D01*
X67327660Y-98639091D01*
X67327660Y-98639091D01*
G37*
G36*
X75327660Y-98639091D02*
X75575765Y-98741860D01*
X75691297Y-98819056D01*
X75799056Y-98891058D01*
X75988942Y-99080944D01*
X75988944Y-99080947D01*
X76109191Y-99260909D01*
X76138141Y-99304237D01*
X76240909Y-99552340D01*
X76293300Y-99815726D01*
X76293300Y-100084274D01*
X76240909Y-100347660D01*
X76156410Y-100551659D01*
X76138140Y-100595765D01*
X76040523Y-100741859D01*
X75988942Y-100819056D01*
X75799056Y-101008942D01*
X75799053Y-101008944D01*
X75575765Y-101158140D01*
X75575764Y-101158141D01*
X75575763Y-101158141D01*
X75327660Y-101260909D01*
X75064274Y-101313300D01*
X74795726Y-101313300D01*
X74532340Y-101260909D01*
X74284237Y-101158141D01*
X74284236Y-101158141D01*
X74284235Y-101158140D01*
X74060947Y-101008944D01*
X74060944Y-101008942D01*
X73871058Y-100819056D01*
X73819477Y-100741859D01*
X73721860Y-100595765D01*
X73703591Y-100551659D01*
X73619091Y-100347660D01*
X73566700Y-100084274D01*
X73566700Y-99815726D01*
X73619091Y-99552340D01*
X73721859Y-99304237D01*
X73750810Y-99260909D01*
X73871056Y-99080947D01*
X73871058Y-99080944D01*
X74060944Y-98891058D01*
X74168703Y-98819056D01*
X74284235Y-98741860D01*
X74532340Y-98639091D01*
X74795726Y-98586700D01*
X75064274Y-98586700D01*
X75327660Y-98639091D01*
X75327660Y-98639091D01*
G37*
G36*
X71327660Y-96639091D02*
X71575765Y-96741860D01*
X71691297Y-96819056D01*
X71799056Y-96891058D01*
X71988942Y-97080944D01*
X71988944Y-97080947D01*
X72138140Y-97304235D01*
X72240909Y-97552340D01*
X72293300Y-97815727D01*
X72293300Y-98084273D01*
X72240909Y-98347660D01*
X72138140Y-98595765D01*
X72040523Y-98741859D01*
X71988942Y-98819056D01*
X71799056Y-99008942D01*
X71799053Y-99008944D01*
X71575765Y-99158140D01*
X71575764Y-99158141D01*
X71575763Y-99158141D01*
X71327660Y-99260909D01*
X71064274Y-99313300D01*
X70795726Y-99313300D01*
X70532340Y-99260909D01*
X70284237Y-99158141D01*
X70284236Y-99158141D01*
X70284235Y-99158140D01*
X70060947Y-99008944D01*
X70060944Y-99008942D01*
X69871058Y-98819056D01*
X69819477Y-98741859D01*
X69721860Y-98595765D01*
X69619091Y-98347660D01*
X69566700Y-98084273D01*
X69566700Y-97815727D01*
X69619091Y-97552340D01*
X69721860Y-97304235D01*
X69871056Y-97080947D01*
X69871058Y-97080944D01*
X70060944Y-96891058D01*
X70168703Y-96819056D01*
X70284235Y-96741860D01*
X70532340Y-96639091D01*
X70795726Y-96586700D01*
X71064274Y-96586700D01*
X71327660Y-96639091D01*
X71327660Y-96639091D01*
G37*
G36*
X75327660Y-94639091D02*
X75575765Y-94741860D01*
X75691297Y-94819056D01*
X75799056Y-94891058D01*
X75988942Y-95080944D01*
X75988944Y-95080947D01*
X76138140Y-95304235D01*
X76240909Y-95552340D01*
X76293300Y-95815727D01*
X76293300Y-96084273D01*
X76240909Y-96347660D01*
X76138140Y-96595765D01*
X76040523Y-96741859D01*
X75988942Y-96819056D01*
X75799056Y-97008942D01*
X75799053Y-97008944D01*
X75575765Y-97158140D01*
X75575764Y-97158141D01*
X75575763Y-97158141D01*
X75327660Y-97260909D01*
X75064274Y-97313300D01*
X74795726Y-97313300D01*
X74532340Y-97260909D01*
X74284237Y-97158141D01*
X74284236Y-97158141D01*
X74284235Y-97158140D01*
X74060947Y-97008944D01*
X74060944Y-97008942D01*
X73871058Y-96819056D01*
X73819477Y-96741859D01*
X73721860Y-96595765D01*
X73619091Y-96347660D01*
X73566700Y-96084273D01*
X73566700Y-95815727D01*
X73619091Y-95552340D01*
X73721860Y-95304235D01*
X73871056Y-95080947D01*
X73871058Y-95080944D01*
X74060944Y-94891058D01*
X74168703Y-94819056D01*
X74284235Y-94741860D01*
X74532340Y-94639091D01*
X74795726Y-94586700D01*
X75064274Y-94586700D01*
X75327660Y-94639091D01*
X75327660Y-94639091D01*
G37*
G36*
X67327660Y-94639091D02*
X67575765Y-94741860D01*
X67691297Y-94819056D01*
X67799056Y-94891058D01*
X67988942Y-95080944D01*
X67988944Y-95080947D01*
X68138140Y-95304235D01*
X68240909Y-95552340D01*
X68293300Y-95815727D01*
X68293300Y-96084273D01*
X68240909Y-96347660D01*
X68138140Y-96595765D01*
X68040523Y-96741859D01*
X67988942Y-96819056D01*
X67799056Y-97008942D01*
X67799053Y-97008944D01*
X67575765Y-97158140D01*
X67575764Y-97158141D01*
X67575763Y-97158141D01*
X67327660Y-97260909D01*
X67064274Y-97313300D01*
X66795726Y-97313300D01*
X66532340Y-97260909D01*
X66284237Y-97158141D01*
X66284236Y-97158141D01*
X66284235Y-97158140D01*
X66060947Y-97008944D01*
X66060944Y-97008942D01*
X65871058Y-96819056D01*
X65819477Y-96741859D01*
X65721860Y-96595765D01*
X65619091Y-96347660D01*
X65566700Y-96084273D01*
X65566700Y-95815727D01*
X65619091Y-95552340D01*
X65721860Y-95304235D01*
X65871056Y-95080947D01*
X65871058Y-95080944D01*
X66060944Y-94891058D01*
X66168703Y-94819056D01*
X66284235Y-94741860D01*
X66532340Y-94639091D01*
X66795726Y-94586700D01*
X67064274Y-94586700D01*
X67327660Y-94639091D01*
X67327660Y-94639091D01*
G37*
G36*
X85591507Y-93423582D02*
X85782740Y-93502793D01*
X85953687Y-93617016D01*
X85954849Y-93617793D01*
X86101207Y-93764151D01*
X86101209Y-93764154D01*
X86216207Y-93936260D01*
X86295418Y-94127493D01*
X86335800Y-94330505D01*
X86335800Y-94537495D01*
X86295418Y-94740507D01*
X86216207Y-94931740D01*
X86116512Y-95080944D01*
X86101207Y-95103849D01*
X85954849Y-95250207D01*
X85954846Y-95250209D01*
X85782740Y-95365207D01*
X85591507Y-95444418D01*
X85388495Y-95484800D01*
X85181505Y-95484800D01*
X84978493Y-95444418D01*
X84787260Y-95365207D01*
X84615154Y-95250209D01*
X84615151Y-95250207D01*
X84468793Y-95103849D01*
X84453488Y-95080944D01*
X84353793Y-94931740D01*
X84274582Y-94740507D01*
X84234200Y-94537495D01*
X84234200Y-94330505D01*
X84274582Y-94127493D01*
X84353793Y-93936260D01*
X84468791Y-93764154D01*
X84468793Y-93764151D01*
X84615151Y-93617793D01*
X84616313Y-93617016D01*
X84787260Y-93502793D01*
X84978493Y-93423582D01*
X85181505Y-93383200D01*
X85388495Y-93383200D01*
X85591507Y-93423582D01*
X85591507Y-93423582D01*
G37*
G36*
X71327660Y-92639091D02*
X71575765Y-92741860D01*
X71691297Y-92819056D01*
X71799056Y-92891058D01*
X71988942Y-93080944D01*
X71988944Y-93080947D01*
X72109191Y-93260909D01*
X72138141Y-93304237D01*
X72240909Y-93552340D01*
X72283042Y-93764154D01*
X72293300Y-93815727D01*
X72293300Y-94084273D01*
X72240909Y-94347660D01*
X72138140Y-94595765D01*
X72041427Y-94740507D01*
X71988942Y-94819056D01*
X71799056Y-95008942D01*
X71799053Y-95008944D01*
X71575765Y-95158140D01*
X71575764Y-95158141D01*
X71575763Y-95158141D01*
X71327660Y-95260909D01*
X71064274Y-95313300D01*
X70795726Y-95313300D01*
X70532340Y-95260909D01*
X70284237Y-95158141D01*
X70284236Y-95158141D01*
X70284235Y-95158140D01*
X70060947Y-95008944D01*
X70060944Y-95008942D01*
X69871058Y-94819056D01*
X69818573Y-94740507D01*
X69721860Y-94595765D01*
X69619091Y-94347660D01*
X69566700Y-94084273D01*
X69566700Y-93815727D01*
X69576959Y-93764154D01*
X69619091Y-93552340D01*
X69721859Y-93304237D01*
X69750810Y-93260909D01*
X69871056Y-93080947D01*
X69871058Y-93080944D01*
X70060944Y-92891058D01*
X70168703Y-92819056D01*
X70284235Y-92741860D01*
X70532340Y-92639091D01*
X70795726Y-92586700D01*
X71064274Y-92586700D01*
X71327660Y-92639091D01*
X71327660Y-92639091D01*
G37*
G36*
X75327660Y-90639091D02*
X75575765Y-90741860D01*
X75691297Y-90819056D01*
X75799056Y-90891058D01*
X75988942Y-91080944D01*
X75988944Y-91080947D01*
X76138140Y-91304235D01*
X76240909Y-91552340D01*
X76293300Y-91815727D01*
X76293300Y-92084273D01*
X76240909Y-92347660D01*
X76138140Y-92595765D01*
X76040523Y-92741859D01*
X75988942Y-92819056D01*
X75799056Y-93008942D01*
X75799053Y-93008944D01*
X75575765Y-93158140D01*
X75575764Y-93158141D01*
X75575763Y-93158141D01*
X75327660Y-93260909D01*
X75064274Y-93313300D01*
X74795726Y-93313300D01*
X74532340Y-93260909D01*
X74284237Y-93158141D01*
X74284236Y-93158141D01*
X74284235Y-93158140D01*
X74060947Y-93008944D01*
X74060944Y-93008942D01*
X73871058Y-92819056D01*
X73819477Y-92741859D01*
X73721860Y-92595765D01*
X73619091Y-92347660D01*
X73566700Y-92084273D01*
X73566700Y-91815727D01*
X73619091Y-91552340D01*
X73721860Y-91304235D01*
X73871056Y-91080947D01*
X73871058Y-91080944D01*
X74060944Y-90891058D01*
X74168703Y-90819056D01*
X74284235Y-90741860D01*
X74532340Y-90639091D01*
X74795726Y-90586700D01*
X75064274Y-90586700D01*
X75327660Y-90639091D01*
X75327660Y-90639091D01*
G37*
G36*
X67327660Y-90639091D02*
X67575765Y-90741860D01*
X67691297Y-90819056D01*
X67799056Y-90891058D01*
X67988942Y-91080944D01*
X67988944Y-91080947D01*
X68138140Y-91304235D01*
X68240909Y-91552340D01*
X68293300Y-91815727D01*
X68293300Y-92084273D01*
X68240909Y-92347660D01*
X68138140Y-92595765D01*
X68040523Y-92741859D01*
X67988942Y-92819056D01*
X67799056Y-93008942D01*
X67799053Y-93008944D01*
X67575765Y-93158140D01*
X67575764Y-93158141D01*
X67575763Y-93158141D01*
X67327660Y-93260909D01*
X67064274Y-93313300D01*
X66795726Y-93313300D01*
X66532340Y-93260909D01*
X66284237Y-93158141D01*
X66284236Y-93158141D01*
X66284235Y-93158140D01*
X66060947Y-93008944D01*
X66060944Y-93008942D01*
X65871058Y-92819056D01*
X65819477Y-92741859D01*
X65721860Y-92595765D01*
X65619091Y-92347660D01*
X65566700Y-92084273D01*
X65566700Y-91815727D01*
X65619091Y-91552340D01*
X65721860Y-91304235D01*
X65871056Y-91080947D01*
X65871058Y-91080944D01*
X66060944Y-90891058D01*
X66168703Y-90819056D01*
X66284235Y-90741860D01*
X66532340Y-90639091D01*
X66795726Y-90586700D01*
X67064274Y-90586700D01*
X67327660Y-90639091D01*
X67327660Y-90639091D01*
G37*
G36*
X71327660Y-88639091D02*
X71575765Y-88741860D01*
X71691297Y-88819056D01*
X71799056Y-88891058D01*
X71988942Y-89080944D01*
X71988944Y-89080947D01*
X72109191Y-89260909D01*
X72138141Y-89304237D01*
X72240909Y-89552340D01*
X72293300Y-89815726D01*
X72293300Y-90084274D01*
X72240909Y-90347660D01*
X72184104Y-90484800D01*
X72138140Y-90595765D01*
X72040523Y-90741859D01*
X71988942Y-90819056D01*
X71799056Y-91008942D01*
X71799053Y-91008944D01*
X71575765Y-91158140D01*
X71575764Y-91158141D01*
X71575763Y-91158141D01*
X71327660Y-91260909D01*
X71064274Y-91313300D01*
X70795726Y-91313300D01*
X70532340Y-91260909D01*
X70284237Y-91158141D01*
X70284236Y-91158141D01*
X70284235Y-91158140D01*
X70060947Y-91008944D01*
X70060944Y-91008942D01*
X69871058Y-90819056D01*
X69819477Y-90741859D01*
X69721860Y-90595765D01*
X69675897Y-90484800D01*
X69619091Y-90347660D01*
X69566700Y-90084274D01*
X69566700Y-89815726D01*
X69619091Y-89552340D01*
X69721859Y-89304237D01*
X69750810Y-89260909D01*
X69871056Y-89080947D01*
X69871058Y-89080944D01*
X70060944Y-88891058D01*
X70168703Y-88819056D01*
X70284235Y-88741860D01*
X70532340Y-88639091D01*
X70795726Y-88586700D01*
X71064274Y-88586700D01*
X71327660Y-88639091D01*
X71327660Y-88639091D01*
G37*
G36*
X86335800Y-90484800D02*
X84234200Y-90484800D01*
X84234200Y-88383200D01*
X86335800Y-88383200D01*
X86335800Y-90484800D01*
X86335800Y-90484800D01*
G37*
G36*
X126034842Y-87816267D02*
X126034844Y-87816268D01*
X126034845Y-87816268D01*
X126262476Y-87910555D01*
X126262477Y-87910556D01*
X126467341Y-88047442D01*
X126641558Y-88221659D01*
X126641560Y-88221662D01*
X126778445Y-88426524D01*
X126844791Y-88586700D01*
X126872733Y-88654158D01*
X126920800Y-88895806D01*
X126920800Y-89142194D01*
X126886765Y-89313300D01*
X126872732Y-89383845D01*
X126778445Y-89611476D01*
X126778444Y-89611477D01*
X126641558Y-89816341D01*
X126467341Y-89990558D01*
X126467338Y-89990560D01*
X126262476Y-90127445D01*
X126034845Y-90221732D01*
X126034844Y-90221732D01*
X126034842Y-90221733D01*
X125793194Y-90269800D01*
X125546806Y-90269800D01*
X125305158Y-90221733D01*
X125305156Y-90221732D01*
X125305155Y-90221732D01*
X125077524Y-90127445D01*
X124872662Y-89990560D01*
X124872659Y-89990558D01*
X124698442Y-89816341D01*
X124561556Y-89611477D01*
X124561555Y-89611476D01*
X124467268Y-89383845D01*
X124453236Y-89313300D01*
X124419200Y-89142194D01*
X124419200Y-88895806D01*
X124467267Y-88654158D01*
X124495209Y-88586700D01*
X124561555Y-88426524D01*
X124698440Y-88221662D01*
X124698442Y-88221659D01*
X124872659Y-88047442D01*
X125077523Y-87910556D01*
X125077524Y-87910555D01*
X125305155Y-87816268D01*
X125305156Y-87816268D01*
X125305158Y-87816267D01*
X125546806Y-87768200D01*
X125793194Y-87768200D01*
X126034842Y-87816267D01*
X126034842Y-87816267D01*
G37*
G36*
X67327660Y-86639091D02*
X67575765Y-86741860D01*
X67691297Y-86819056D01*
X67799056Y-86891058D01*
X67988942Y-87080944D01*
X67988944Y-87080947D01*
X68138140Y-87304235D01*
X68240909Y-87552340D01*
X68293300Y-87815727D01*
X68293300Y-88084273D01*
X68240909Y-88347660D01*
X68138140Y-88595765D01*
X68099125Y-88654155D01*
X67988942Y-88819056D01*
X67799056Y-89008942D01*
X67799053Y-89008944D01*
X67575765Y-89158140D01*
X67575764Y-89158141D01*
X67575763Y-89158141D01*
X67327660Y-89260909D01*
X67064274Y-89313300D01*
X66795726Y-89313300D01*
X66532340Y-89260909D01*
X66284237Y-89158141D01*
X66284236Y-89158141D01*
X66284235Y-89158140D01*
X66060947Y-89008944D01*
X66060944Y-89008942D01*
X65871058Y-88819056D01*
X65760875Y-88654155D01*
X65721860Y-88595765D01*
X65619091Y-88347660D01*
X65566700Y-88084273D01*
X65566700Y-87815727D01*
X65619091Y-87552340D01*
X65721860Y-87304235D01*
X65871056Y-87080947D01*
X65871058Y-87080944D01*
X66060944Y-86891058D01*
X66168703Y-86819056D01*
X66284235Y-86741860D01*
X66532340Y-86639091D01*
X66795726Y-86586700D01*
X67064274Y-86586700D01*
X67327660Y-86639091D01*
X67327660Y-86639091D01*
G37*
G36*
X75327660Y-86639091D02*
X75575765Y-86741860D01*
X75691297Y-86819056D01*
X75799056Y-86891058D01*
X75988942Y-87080944D01*
X75988944Y-87080947D01*
X76138140Y-87304235D01*
X76240909Y-87552340D01*
X76293300Y-87815727D01*
X76293300Y-88084273D01*
X76240909Y-88347660D01*
X76138140Y-88595765D01*
X76099125Y-88654155D01*
X75988942Y-88819056D01*
X75799056Y-89008942D01*
X75799053Y-89008944D01*
X75575765Y-89158140D01*
X75575764Y-89158141D01*
X75575763Y-89158141D01*
X75327660Y-89260909D01*
X75064274Y-89313300D01*
X74795726Y-89313300D01*
X74532340Y-89260909D01*
X74284237Y-89158141D01*
X74284236Y-89158141D01*
X74284235Y-89158140D01*
X74060947Y-89008944D01*
X74060944Y-89008942D01*
X73871058Y-88819056D01*
X73760875Y-88654155D01*
X73721860Y-88595765D01*
X73619091Y-88347660D01*
X73566700Y-88084273D01*
X73566700Y-87815727D01*
X73619091Y-87552340D01*
X73721860Y-87304235D01*
X73871056Y-87080947D01*
X73871058Y-87080944D01*
X74060944Y-86891058D01*
X74168703Y-86819056D01*
X74284235Y-86741860D01*
X74532340Y-86639091D01*
X74795726Y-86586700D01*
X75064274Y-86586700D01*
X75327660Y-86639091D01*
X75327660Y-86639091D01*
G37*
G36*
X71327660Y-84639091D02*
X71575765Y-84741860D01*
X71691297Y-84819056D01*
X71799056Y-84891058D01*
X71988942Y-85080944D01*
X71988944Y-85080947D01*
X72138140Y-85304235D01*
X72240909Y-85552340D01*
X72293300Y-85815727D01*
X72293300Y-86084273D01*
X72240909Y-86347660D01*
X72138140Y-86595765D01*
X72040523Y-86741859D01*
X71988942Y-86819056D01*
X71799056Y-87008942D01*
X71799053Y-87008944D01*
X71575765Y-87158140D01*
X71575764Y-87158141D01*
X71575763Y-87158141D01*
X71327660Y-87260909D01*
X71064274Y-87313300D01*
X70795726Y-87313300D01*
X70532340Y-87260909D01*
X70284237Y-87158141D01*
X70284236Y-87158141D01*
X70284235Y-87158140D01*
X70060947Y-87008944D01*
X70060944Y-87008942D01*
X69871058Y-86819056D01*
X69819477Y-86741859D01*
X69721860Y-86595765D01*
X69619091Y-86347660D01*
X69566700Y-86084273D01*
X69566700Y-85815727D01*
X69619091Y-85552340D01*
X69721860Y-85304235D01*
X69871056Y-85080947D01*
X69871058Y-85080944D01*
X70060944Y-84891058D01*
X70168703Y-84819056D01*
X70284235Y-84741860D01*
X70532340Y-84639091D01*
X70795726Y-84586700D01*
X71064274Y-84586700D01*
X71327660Y-84639091D01*
X71327660Y-84639091D01*
G37*
G36*
X75327660Y-82639091D02*
X75575765Y-82741860D01*
X75691297Y-82819056D01*
X75799056Y-82891058D01*
X75988942Y-83080944D01*
X75988944Y-83080947D01*
X76138140Y-83304235D01*
X76240909Y-83552340D01*
X76293300Y-83815727D01*
X76293300Y-84084273D01*
X76240909Y-84347660D01*
X76138140Y-84595765D01*
X76040523Y-84741859D01*
X75988942Y-84819056D01*
X75799056Y-85008942D01*
X75799053Y-85008944D01*
X75575765Y-85158140D01*
X75575764Y-85158141D01*
X75575763Y-85158141D01*
X75327660Y-85260909D01*
X75064274Y-85313300D01*
X74795726Y-85313300D01*
X74532340Y-85260909D01*
X74284237Y-85158141D01*
X74284236Y-85158141D01*
X74284235Y-85158140D01*
X74060947Y-85008944D01*
X74060944Y-85008942D01*
X73871058Y-84819056D01*
X73819477Y-84741859D01*
X73721860Y-84595765D01*
X73619091Y-84347660D01*
X73566700Y-84084273D01*
X73566700Y-83815727D01*
X73619091Y-83552340D01*
X73721860Y-83304235D01*
X73871056Y-83080947D01*
X73871058Y-83080944D01*
X74060944Y-82891058D01*
X74168703Y-82819056D01*
X74284235Y-82741860D01*
X74532340Y-82639091D01*
X74795726Y-82586700D01*
X75064274Y-82586700D01*
X75327660Y-82639091D01*
X75327660Y-82639091D01*
G37*
G36*
X67327660Y-82639091D02*
X67575765Y-82741860D01*
X67691297Y-82819056D01*
X67799056Y-82891058D01*
X67988942Y-83080944D01*
X67988944Y-83080947D01*
X68138140Y-83304235D01*
X68240909Y-83552340D01*
X68293300Y-83815727D01*
X68293300Y-84084273D01*
X68240909Y-84347660D01*
X68138140Y-84595765D01*
X68040523Y-84741859D01*
X67988942Y-84819056D01*
X67799056Y-85008942D01*
X67799053Y-85008944D01*
X67575765Y-85158140D01*
X67575764Y-85158141D01*
X67575763Y-85158141D01*
X67327660Y-85260909D01*
X67064274Y-85313300D01*
X66795726Y-85313300D01*
X66532340Y-85260909D01*
X66284237Y-85158141D01*
X66284236Y-85158141D01*
X66284235Y-85158140D01*
X66060947Y-85008944D01*
X66060944Y-85008942D01*
X65871058Y-84819056D01*
X65819477Y-84741859D01*
X65721860Y-84595765D01*
X65619091Y-84347660D01*
X65566700Y-84084273D01*
X65566700Y-83815727D01*
X65619091Y-83552340D01*
X65721860Y-83304235D01*
X65871056Y-83080947D01*
X65871058Y-83080944D01*
X66060944Y-82891058D01*
X66168703Y-82819056D01*
X66284235Y-82741860D01*
X66532340Y-82639091D01*
X66795726Y-82586700D01*
X67064274Y-82586700D01*
X67327660Y-82639091D01*
X67327660Y-82639091D01*
G37*
G36*
X71327660Y-80639091D02*
X71575765Y-80741860D01*
X71691297Y-80819056D01*
X71799056Y-80891058D01*
X71988942Y-81080944D01*
X71988944Y-81080947D01*
X72138140Y-81304235D01*
X72240909Y-81552340D01*
X72293300Y-81815727D01*
X72293300Y-82084273D01*
X72240909Y-82347660D01*
X72138140Y-82595765D01*
X72040523Y-82741859D01*
X71988942Y-82819056D01*
X71799056Y-83008942D01*
X71799053Y-83008944D01*
X71575765Y-83158140D01*
X71575764Y-83158141D01*
X71575763Y-83158141D01*
X71327660Y-83260909D01*
X71064274Y-83313300D01*
X70795726Y-83313300D01*
X70532340Y-83260909D01*
X70284237Y-83158141D01*
X70284236Y-83158141D01*
X70284235Y-83158140D01*
X70060947Y-83008944D01*
X70060944Y-83008942D01*
X69871058Y-82819056D01*
X69819477Y-82741859D01*
X69721860Y-82595765D01*
X69619091Y-82347660D01*
X69566700Y-82084273D01*
X69566700Y-81815727D01*
X69619091Y-81552340D01*
X69721860Y-81304235D01*
X69871056Y-81080947D01*
X69871058Y-81080944D01*
X70060944Y-80891058D01*
X70168703Y-80819056D01*
X70284235Y-80741860D01*
X70532340Y-80639091D01*
X70795726Y-80586700D01*
X71064274Y-80586700D01*
X71327660Y-80639091D01*
X71327660Y-80639091D01*
G37*
G36*
X126920800Y-82769800D02*
X124419200Y-82769800D01*
X124419200Y-80268200D01*
X126920800Y-80268200D01*
X126920800Y-82769800D01*
X126920800Y-82769800D01*
G37*
G36*
X67327660Y-78639091D02*
X67514346Y-78716419D01*
X67575765Y-78741860D01*
X67631663Y-78779210D01*
X67799056Y-78891058D01*
X67988942Y-79080944D01*
X67988944Y-79080947D01*
X68128153Y-79289288D01*
X68138141Y-79304237D01*
X68240909Y-79552340D01*
X68293300Y-79815726D01*
X68293300Y-80084274D01*
X68240909Y-80347660D01*
X68196914Y-80453874D01*
X68138140Y-80595765D01*
X68040523Y-80741859D01*
X67988942Y-80819056D01*
X67799056Y-81008942D01*
X67799053Y-81008944D01*
X67575765Y-81158140D01*
X67575764Y-81158141D01*
X67575763Y-81158141D01*
X67327660Y-81260909D01*
X67064274Y-81313300D01*
X66795726Y-81313300D01*
X66532340Y-81260909D01*
X66284237Y-81158141D01*
X66284236Y-81158141D01*
X66284235Y-81158140D01*
X66060947Y-81008944D01*
X66060944Y-81008942D01*
X65871058Y-80819056D01*
X65819477Y-80741859D01*
X65721860Y-80595765D01*
X65663087Y-80453874D01*
X65619091Y-80347660D01*
X65566700Y-80084274D01*
X65566700Y-79815726D01*
X65619091Y-79552340D01*
X65721859Y-79304237D01*
X65731848Y-79289288D01*
X65871056Y-79080947D01*
X65871058Y-79080944D01*
X66060944Y-78891058D01*
X66228337Y-78779210D01*
X66284235Y-78741860D01*
X66345655Y-78716419D01*
X66532340Y-78639091D01*
X66795726Y-78586700D01*
X67064274Y-78586700D01*
X67327660Y-78639091D01*
X67327660Y-78639091D01*
G37*
G36*
X76293300Y-81313300D02*
X73566700Y-81313300D01*
X73566700Y-78586700D01*
X76293300Y-78586700D01*
X76293300Y-81313300D01*
X76293300Y-81313300D01*
G37*
G36*
X205566503Y-74202126D02*
X206158110Y-74447178D01*
X206690547Y-74802941D01*
X207143339Y-75255733D01*
X207499102Y-75788170D01*
X207744154Y-76379777D01*
X207869080Y-77007823D01*
X207869080Y-77648177D01*
X207744154Y-78276223D01*
X207499102Y-78867830D01*
X207143339Y-79400267D01*
X206690547Y-79853059D01*
X206158110Y-80208822D01*
X205566503Y-80453874D01*
X204938457Y-80578800D01*
X204298103Y-80578800D01*
X203670057Y-80453874D01*
X203078450Y-80208822D01*
X202546013Y-79853059D01*
X202093221Y-79400267D01*
X201737458Y-78867830D01*
X201492406Y-78276223D01*
X201367480Y-77648177D01*
X201367480Y-77007823D01*
X201492406Y-76379777D01*
X201737458Y-75788170D01*
X202093221Y-75255733D01*
X202546013Y-74802941D01*
X203078450Y-74447178D01*
X203670057Y-74202126D01*
X204298103Y-74077200D01*
X204938457Y-74077200D01*
X205566503Y-74202126D01*
X205566503Y-74202126D01*
G37*
G36*
X87051800Y-80406800D02*
X84750200Y-80406800D01*
X84750200Y-78105200D01*
X87051800Y-78105200D01*
X87051800Y-80406800D01*
X87051800Y-80406800D01*
G37*
G36*
X113712800Y-77181800D02*
X111211200Y-77181800D01*
X111211200Y-74680200D01*
X113712800Y-74680200D01*
X113712800Y-77181800D01*
X113712800Y-77181800D01*
G37*
G36*
X134990800Y-76740800D02*
X131589200Y-76740800D01*
X131589200Y-73339200D01*
X134990800Y-73339200D01*
X134990800Y-76740800D01*
X134990800Y-76740800D01*
G37*
G36*
X144906223Y-69884126D02*
X145497830Y-70129178D01*
X146030267Y-70484941D01*
X146483059Y-70937733D01*
X146838822Y-71470170D01*
X147083874Y-72061777D01*
X147208800Y-72689823D01*
X147208800Y-73330177D01*
X147083874Y-73958223D01*
X146838822Y-74549830D01*
X146483059Y-75082267D01*
X146030267Y-75535059D01*
X145497830Y-75890822D01*
X144906223Y-76135874D01*
X144278177Y-76260800D01*
X143637823Y-76260800D01*
X143009777Y-76135874D01*
X142418170Y-75890822D01*
X141885733Y-75535059D01*
X141432941Y-75082267D01*
X141077178Y-74549830D01*
X140832126Y-73958223D01*
X140707200Y-73330177D01*
X140707200Y-72689823D01*
X140832126Y-72061777D01*
X141077178Y-71470170D01*
X141432941Y-70937733D01*
X141885733Y-70484941D01*
X142418170Y-70129178D01*
X143009777Y-69884126D01*
X143637823Y-69759200D01*
X144278177Y-69759200D01*
X144906223Y-69884126D01*
X144906223Y-69884126D01*
G37*
G36*
X99394192Y-73686341D02*
X99480596Y-73694851D01*
X99697524Y-73760655D01*
X99804384Y-73817773D01*
X99897444Y-73867515D01*
X100072676Y-74011324D01*
X100216485Y-74186556D01*
X100258654Y-74265449D01*
X100323345Y-74386476D01*
X100341759Y-74447179D01*
X100389149Y-74603404D01*
X100411368Y-74829000D01*
X100397504Y-74969770D01*
X100389149Y-75054595D01*
X100323345Y-75271524D01*
X100307026Y-75302054D01*
X100216485Y-75471444D01*
X100072676Y-75646676D01*
X99897444Y-75790485D01*
X99874112Y-75802956D01*
X99697524Y-75897345D01*
X99589059Y-75930247D01*
X99480596Y-75963149D01*
X99396065Y-75971475D01*
X99311535Y-75979800D01*
X99198465Y-75979800D01*
X99113935Y-75971475D01*
X99029404Y-75963149D01*
X98812476Y-75897345D01*
X98635888Y-75802956D01*
X98612556Y-75790485D01*
X98437324Y-75646676D01*
X98293515Y-75471444D01*
X98202974Y-75302054D01*
X98186655Y-75271524D01*
X98120851Y-75054595D01*
X98112497Y-74969770D01*
X98098632Y-74829000D01*
X98120851Y-74603404D01*
X98168241Y-74447179D01*
X98186655Y-74386476D01*
X98251346Y-74265449D01*
X98293515Y-74186556D01*
X98437324Y-74011324D01*
X98612556Y-73867515D01*
X98705616Y-73817773D01*
X98812476Y-73760655D01*
X99029404Y-73694851D01*
X99115808Y-73686341D01*
X99198465Y-73678200D01*
X99311535Y-73678200D01*
X99394192Y-73686341D01*
X99394192Y-73686341D01*
G37*
G36*
X90245800Y-75979800D02*
X87944200Y-75979800D01*
X87944200Y-73678200D01*
X90245800Y-73678200D01*
X90245800Y-75979800D01*
X90245800Y-75979800D01*
G37*
G36*
X128766659Y-73537446D02*
X128802211Y-73548230D01*
X128834972Y-73565742D01*
X128863690Y-73589310D01*
X128887258Y-73618028D01*
X128904770Y-73650789D01*
X128915554Y-73686341D01*
X128919800Y-73729451D01*
X128919800Y-74788549D01*
X128915554Y-74831659D01*
X128904770Y-74867211D01*
X128887258Y-74899972D01*
X128863690Y-74928690D01*
X128834972Y-74952258D01*
X128802211Y-74969770D01*
X128766659Y-74980554D01*
X128723549Y-74984800D01*
X125664451Y-74984800D01*
X125621341Y-74980554D01*
X125585789Y-74969770D01*
X125553028Y-74952258D01*
X125524310Y-74928690D01*
X125500742Y-74899972D01*
X125483230Y-74867211D01*
X125472446Y-74831659D01*
X125468200Y-74788549D01*
X125468200Y-73729451D01*
X125472446Y-73686341D01*
X125483230Y-73650789D01*
X125500742Y-73618028D01*
X125524310Y-73589310D01*
X125553028Y-73565742D01*
X125585789Y-73548230D01*
X125621341Y-73537446D01*
X125664451Y-73533200D01*
X128723549Y-73533200D01*
X128766659Y-73537446D01*
X128766659Y-73537446D01*
G37*
G36*
X82036507Y-69239582D02*
X82227740Y-69318793D01*
X82378976Y-69419846D01*
X82399849Y-69433793D01*
X82546207Y-69580151D01*
X82546209Y-69580154D01*
X82661207Y-69752260D01*
X82740418Y-69943493D01*
X82780800Y-70146505D01*
X82780800Y-70353495D01*
X82740418Y-70556507D01*
X82661207Y-70747740D01*
X82619249Y-70810534D01*
X82546207Y-70919849D01*
X82399849Y-71066207D01*
X82399846Y-71066209D01*
X82227740Y-71181207D01*
X82036507Y-71260418D01*
X81833495Y-71300800D01*
X81626505Y-71300800D01*
X81423493Y-71260418D01*
X81232260Y-71181207D01*
X81060154Y-71066209D01*
X81060151Y-71066207D01*
X80913793Y-70919849D01*
X80840751Y-70810534D01*
X80798793Y-70747740D01*
X80719582Y-70556507D01*
X80679200Y-70353495D01*
X80679200Y-70146505D01*
X80719582Y-69943493D01*
X80798793Y-69752260D01*
X80913791Y-69580154D01*
X80913793Y-69580151D01*
X81060151Y-69433793D01*
X81081024Y-69419846D01*
X81232260Y-69318793D01*
X81423493Y-69239582D01*
X81626505Y-69199200D01*
X81833495Y-69199200D01*
X82036507Y-69239582D01*
X82036507Y-69239582D01*
G37*
G36*
X86001914Y-67949571D02*
X86126596Y-67961851D01*
X86235059Y-67994753D01*
X86343524Y-68027655D01*
X86415557Y-68066158D01*
X86543444Y-68134515D01*
X86718676Y-68278324D01*
X86854227Y-68443493D01*
X86862484Y-68453555D01*
X86969345Y-68653476D01*
X86969345Y-68653477D01*
X87035149Y-68870404D01*
X87046785Y-68988549D01*
X87057368Y-69096000D01*
X87035149Y-69321595D01*
X86969345Y-69538524D01*
X86947093Y-69580154D01*
X86862485Y-69738444D01*
X86718676Y-69913676D01*
X86543444Y-70057485D01*
X86450384Y-70107227D01*
X86343524Y-70164345D01*
X86235059Y-70197247D01*
X86126596Y-70230149D01*
X86042065Y-70238474D01*
X85957535Y-70246800D01*
X85844465Y-70246800D01*
X85759935Y-70238474D01*
X85675404Y-70230149D01*
X85566941Y-70197247D01*
X85458476Y-70164345D01*
X85351616Y-70107227D01*
X85258556Y-70057485D01*
X85083324Y-69913676D01*
X84939515Y-69738444D01*
X84854907Y-69580154D01*
X84832655Y-69538524D01*
X84766851Y-69321595D01*
X84744632Y-69096000D01*
X84755215Y-68988549D01*
X84766851Y-68870404D01*
X84832655Y-68653477D01*
X84832655Y-68653476D01*
X84939516Y-68453555D01*
X84947774Y-68443493D01*
X85083324Y-68278324D01*
X85258556Y-68134515D01*
X85386443Y-68066158D01*
X85458476Y-68027655D01*
X85566941Y-67994753D01*
X85675404Y-67961851D01*
X85800086Y-67949571D01*
X85844465Y-67945200D01*
X85957535Y-67945200D01*
X86001914Y-67949571D01*
X86001914Y-67949571D01*
G37*
G36*
X63936507Y-67739582D02*
X64127740Y-67818793D01*
X64200838Y-67867636D01*
X64299849Y-67933793D01*
X64446207Y-68080151D01*
X64446209Y-68080154D01*
X64561207Y-68252260D01*
X64640418Y-68443493D01*
X64680800Y-68646505D01*
X64680800Y-68853495D01*
X64640418Y-69056507D01*
X64561207Y-69247740D01*
X64457759Y-69402560D01*
X64446207Y-69419849D01*
X64299849Y-69566207D01*
X64299846Y-69566209D01*
X64127740Y-69681207D01*
X63936507Y-69760418D01*
X63733495Y-69800800D01*
X63526505Y-69800800D01*
X63323493Y-69760418D01*
X63132260Y-69681207D01*
X62960154Y-69566209D01*
X62960151Y-69566207D01*
X62813793Y-69419849D01*
X62802241Y-69402560D01*
X62698793Y-69247740D01*
X62619582Y-69056507D01*
X62579200Y-68853495D01*
X62579200Y-68646505D01*
X62619582Y-68443493D01*
X62698793Y-68252260D01*
X62813791Y-68080154D01*
X62813793Y-68080151D01*
X62960151Y-67933793D01*
X63059162Y-67867636D01*
X63132260Y-67818793D01*
X63323493Y-67739582D01*
X63526505Y-67699200D01*
X63733495Y-67699200D01*
X63936507Y-67739582D01*
X63936507Y-67739582D01*
G37*
G36*
X112826842Y-67228267D02*
X112826844Y-67228268D01*
X112826845Y-67228268D01*
X113054476Y-67322555D01*
X113054477Y-67322556D01*
X113259341Y-67459442D01*
X113433558Y-67633659D01*
X113433560Y-67633662D01*
X113570445Y-67838524D01*
X113664732Y-68066155D01*
X113664733Y-68066158D01*
X113712800Y-68307806D01*
X113712800Y-68554193D01*
X113664732Y-68795845D01*
X113570445Y-69023476D01*
X113570444Y-69023477D01*
X113433558Y-69228341D01*
X113259341Y-69402558D01*
X113259338Y-69402560D01*
X113054476Y-69539445D01*
X112826845Y-69633732D01*
X112826844Y-69633732D01*
X112826842Y-69633733D01*
X112585194Y-69681800D01*
X112338806Y-69681800D01*
X112097158Y-69633733D01*
X112097156Y-69633732D01*
X112097155Y-69633732D01*
X111869524Y-69539445D01*
X111664662Y-69402560D01*
X111664659Y-69402558D01*
X111490442Y-69228341D01*
X111353556Y-69023477D01*
X111353555Y-69023476D01*
X111259268Y-68795845D01*
X111211200Y-68554193D01*
X111211200Y-68307806D01*
X111259267Y-68066158D01*
X111259268Y-68066155D01*
X111353555Y-67838524D01*
X111490440Y-67633662D01*
X111490442Y-67633659D01*
X111664659Y-67459442D01*
X111869523Y-67322556D01*
X111869524Y-67322555D01*
X112097155Y-67228268D01*
X112097156Y-67228268D01*
X112097158Y-67228267D01*
X112338806Y-67180200D01*
X112585194Y-67180200D01*
X112826842Y-67228267D01*
X112826842Y-67228267D01*
G37*
G36*
X128766659Y-67737446D02*
X128802211Y-67748230D01*
X128834972Y-67765742D01*
X128863690Y-67789310D01*
X128887258Y-67818028D01*
X128904770Y-67850789D01*
X128915554Y-67886341D01*
X128919800Y-67929451D01*
X128919800Y-68988549D01*
X128915554Y-69031659D01*
X128904770Y-69067211D01*
X128887258Y-69099972D01*
X128863690Y-69128690D01*
X128834972Y-69152258D01*
X128802211Y-69169770D01*
X128766659Y-69180554D01*
X128723549Y-69184800D01*
X125664451Y-69184800D01*
X125621341Y-69180554D01*
X125585789Y-69169770D01*
X125553028Y-69152258D01*
X125524310Y-69128690D01*
X125500742Y-69099972D01*
X125483230Y-69067211D01*
X125472446Y-69031659D01*
X125468200Y-68988549D01*
X125468200Y-67929451D01*
X125472446Y-67886341D01*
X125483230Y-67850789D01*
X125500742Y-67818028D01*
X125524310Y-67789310D01*
X125553028Y-67765742D01*
X125585789Y-67748230D01*
X125621341Y-67737446D01*
X125664451Y-67733200D01*
X128723549Y-67733200D01*
X128766659Y-67737446D01*
X128766659Y-67737446D01*
G37*
G36*
X134990800Y-68870800D02*
X131589200Y-68870800D01*
X131589200Y-65469200D01*
X134990800Y-65469200D01*
X134990800Y-68870800D01*
X134990800Y-68870800D01*
G37*
G36*
X203910729Y-66301890D02*
X204074653Y-66369789D01*
X204222181Y-66468364D01*
X204347636Y-66593819D01*
X204446211Y-66741347D01*
X204514110Y-66905271D01*
X204548724Y-67079285D01*
X204548724Y-67256715D01*
X204514110Y-67430729D01*
X204446211Y-67594653D01*
X204347636Y-67742181D01*
X204222181Y-67867636D01*
X204074653Y-67966211D01*
X203910729Y-68034110D01*
X203736715Y-68068724D01*
X203559285Y-68068724D01*
X203385271Y-68034110D01*
X203221347Y-67966211D01*
X203073819Y-67867636D01*
X202948364Y-67742181D01*
X202849789Y-67594653D01*
X202781890Y-67430729D01*
X202747276Y-67256715D01*
X202747276Y-67079285D01*
X202781890Y-66905271D01*
X202849789Y-66741347D01*
X202948364Y-66593819D01*
X203073819Y-66468364D01*
X203221347Y-66369789D01*
X203385271Y-66301890D01*
X203559285Y-66267276D01*
X203736715Y-66267276D01*
X203910729Y-66301890D01*
X203910729Y-66301890D01*
G37*
G36*
X203910729Y-63761890D02*
X204074653Y-63829789D01*
X204222181Y-63928364D01*
X204347636Y-64053819D01*
X204446211Y-64201347D01*
X204514110Y-64365271D01*
X204548724Y-64539285D01*
X204548724Y-64716715D01*
X204514110Y-64890729D01*
X204446211Y-65054653D01*
X204347636Y-65202181D01*
X204222181Y-65327636D01*
X204074653Y-65426211D01*
X203910729Y-65494110D01*
X203736715Y-65528724D01*
X203559285Y-65528724D01*
X203385271Y-65494110D01*
X203221347Y-65426211D01*
X203073819Y-65327636D01*
X202948364Y-65202181D01*
X202849789Y-65054653D01*
X202781890Y-64890729D01*
X202747276Y-64716715D01*
X202747276Y-64539285D01*
X202781890Y-64365271D01*
X202849789Y-64201347D01*
X202948364Y-64053819D01*
X203073819Y-63928364D01*
X203221347Y-63829789D01*
X203385271Y-63761890D01*
X203559285Y-63727276D01*
X203736715Y-63727276D01*
X203910729Y-63761890D01*
X203910729Y-63761890D01*
G37*
G36*
X203910729Y-61221890D02*
X204074653Y-61289789D01*
X204222181Y-61388364D01*
X204347636Y-61513819D01*
X204446211Y-61661347D01*
X204514110Y-61825271D01*
X204548724Y-61999285D01*
X204548724Y-62176715D01*
X204514110Y-62350729D01*
X204446211Y-62514653D01*
X204347636Y-62662181D01*
X204222181Y-62787636D01*
X204074653Y-62886211D01*
X203910729Y-62954110D01*
X203736715Y-62988724D01*
X203559285Y-62988724D01*
X203385271Y-62954110D01*
X203221347Y-62886211D01*
X203073819Y-62787636D01*
X202948364Y-62662181D01*
X202849789Y-62514653D01*
X202781890Y-62350729D01*
X202747276Y-62176715D01*
X202747276Y-61999285D01*
X202781890Y-61825271D01*
X202849789Y-61661347D01*
X202948364Y-61513819D01*
X203073819Y-61388364D01*
X203221347Y-61289789D01*
X203385271Y-61221890D01*
X203559285Y-61187276D01*
X203736715Y-61187276D01*
X203910729Y-61221890D01*
X203910729Y-61221890D01*
G37*
G36*
X144906223Y-54390126D02*
X145497830Y-54635178D01*
X146030267Y-54990941D01*
X146483059Y-55443733D01*
X146838822Y-55976170D01*
X147083874Y-56567777D01*
X147208800Y-57195823D01*
X147208800Y-57836177D01*
X147083874Y-58464223D01*
X146838822Y-59055830D01*
X146483059Y-59588267D01*
X146030267Y-60041059D01*
X145497830Y-60396822D01*
X144906223Y-60641874D01*
X144278177Y-60766800D01*
X143637823Y-60766800D01*
X143009777Y-60641874D01*
X142418170Y-60396822D01*
X141885733Y-60041059D01*
X141432941Y-59588267D01*
X141077178Y-59055830D01*
X140832126Y-58464223D01*
X140707200Y-57836177D01*
X140707200Y-57195823D01*
X140832126Y-56567777D01*
X141077178Y-55976170D01*
X141432941Y-55443733D01*
X141885733Y-54990941D01*
X142418170Y-54635178D01*
X143009777Y-54390126D01*
X143637823Y-54265200D01*
X144278177Y-54265200D01*
X144906223Y-54390126D01*
X144906223Y-54390126D01*
G37*
G36*
X71195800Y-59469800D02*
X68894200Y-59469800D01*
X68894200Y-57168200D01*
X71195800Y-57168200D01*
X71195800Y-59469800D01*
X71195800Y-59469800D01*
G37*
G36*
X80346065Y-57176525D02*
X80430596Y-57184851D01*
X80466769Y-57195824D01*
X80647524Y-57250655D01*
X80744455Y-57302466D01*
X80847444Y-57357515D01*
X81022676Y-57501324D01*
X81142634Y-57647493D01*
X81166484Y-57676555D01*
X81273345Y-57876476D01*
X81339149Y-58093405D01*
X81361368Y-58319000D01*
X81339149Y-58544595D01*
X81273345Y-58761524D01*
X81258780Y-58788773D01*
X81166485Y-58961444D01*
X81022676Y-59136676D01*
X80847444Y-59280485D01*
X80754384Y-59330227D01*
X80647524Y-59387345D01*
X80430596Y-59453149D01*
X80346065Y-59461474D01*
X80261535Y-59469800D01*
X80148465Y-59469800D01*
X80063935Y-59461474D01*
X79979404Y-59453149D01*
X79762476Y-59387345D01*
X79655616Y-59330227D01*
X79562556Y-59280485D01*
X79387324Y-59136676D01*
X79243515Y-58961444D01*
X79151220Y-58788773D01*
X79136655Y-58761524D01*
X79070851Y-58544595D01*
X79048632Y-58319000D01*
X79070851Y-58093405D01*
X79136655Y-57876476D01*
X79243516Y-57676555D01*
X79267367Y-57647493D01*
X79387324Y-57501324D01*
X79562556Y-57357515D01*
X79665545Y-57302466D01*
X79762476Y-57250655D01*
X79943231Y-57195824D01*
X79979404Y-57184851D01*
X80063935Y-57176525D01*
X80148465Y-57168200D01*
X80261535Y-57168200D01*
X80346065Y-57176525D01*
X80346065Y-57176525D01*
G37*
G36*
X130730800Y-58131800D02*
X128229200Y-58131800D01*
X128229200Y-55630200D01*
X130730800Y-55630200D01*
X130730800Y-58131800D01*
X130730800Y-58131800D01*
G37*
G36*
X122344842Y-55678267D02*
X122344844Y-55678268D01*
X122344845Y-55678268D01*
X122572476Y-55772555D01*
X122738507Y-55883494D01*
X122777341Y-55909442D01*
X122951558Y-56083659D01*
X122951560Y-56083662D01*
X123088445Y-56288524D01*
X123102228Y-56321800D01*
X123182733Y-56516158D01*
X123230800Y-56757806D01*
X123230800Y-57004194D01*
X123208460Y-57116506D01*
X123182732Y-57245845D01*
X123088445Y-57473476D01*
X123088444Y-57473477D01*
X122951558Y-57678341D01*
X122777341Y-57852558D01*
X122777338Y-57852560D01*
X122572476Y-57989445D01*
X122344845Y-58083732D01*
X122344844Y-58083732D01*
X122344842Y-58083733D01*
X122103194Y-58131800D01*
X121856806Y-58131800D01*
X121615158Y-58083733D01*
X121615156Y-58083732D01*
X121615155Y-58083732D01*
X121387524Y-57989445D01*
X121182662Y-57852560D01*
X121182659Y-57852558D01*
X121008442Y-57678341D01*
X120871556Y-57473477D01*
X120871555Y-57473476D01*
X120777268Y-57245845D01*
X120751541Y-57116506D01*
X120729200Y-57004194D01*
X120729200Y-56757806D01*
X120777267Y-56516158D01*
X120857772Y-56321800D01*
X120871555Y-56288524D01*
X121008440Y-56083662D01*
X121008442Y-56083659D01*
X121182659Y-55909442D01*
X121221493Y-55883494D01*
X121387524Y-55772555D01*
X121615155Y-55678268D01*
X121615156Y-55678268D01*
X121615158Y-55678267D01*
X121856806Y-55630200D01*
X122103194Y-55630200D01*
X122344842Y-55678267D01*
X122344842Y-55678267D01*
G37*
G36*
X205612223Y-49945126D02*
X206203830Y-50190178D01*
X206736267Y-50545941D01*
X207189059Y-50998733D01*
X207544822Y-51531170D01*
X207789874Y-52122777D01*
X207914800Y-52750823D01*
X207914800Y-53391177D01*
X207789874Y-54019223D01*
X207544822Y-54610830D01*
X207189059Y-55143267D01*
X206736267Y-55596059D01*
X206203830Y-55951822D01*
X205612223Y-56196874D01*
X204984177Y-56321800D01*
X204343823Y-56321800D01*
X203715777Y-56196874D01*
X203124170Y-55951822D01*
X202591733Y-55596059D01*
X202138941Y-55143267D01*
X201783178Y-54610830D01*
X201538126Y-54019223D01*
X201413200Y-53391177D01*
X201413200Y-52750823D01*
X201538126Y-52122777D01*
X201783178Y-51531170D01*
X202138941Y-50998733D01*
X202591733Y-50545941D01*
X203124170Y-50190178D01*
X203715777Y-49945126D01*
X204343823Y-49820200D01*
X204984177Y-49820200D01*
X205612223Y-49945126D01*
X205612223Y-49945126D01*
G37*
G36*
X95375800Y-50356800D02*
X92974200Y-50356800D01*
X92974200Y-48755200D01*
X95375800Y-48755200D01*
X95375800Y-50356800D01*
X95375800Y-50356800D01*
G37*
G36*
X98871468Y-48675283D02*
X98905434Y-48685586D01*
X98936732Y-48702316D01*
X98964168Y-48724832D01*
X98986684Y-48752268D01*
X99003414Y-48783566D01*
X99013717Y-48817532D01*
X99017800Y-48858990D01*
X99017800Y-49460010D01*
X99013717Y-49501468D01*
X99003414Y-49535434D01*
X98986684Y-49566732D01*
X98964168Y-49594168D01*
X98936732Y-49616684D01*
X98905434Y-49633414D01*
X98871468Y-49643717D01*
X98830010Y-49647800D01*
X98153990Y-49647800D01*
X98112532Y-49643717D01*
X98078566Y-49633414D01*
X98047268Y-49616684D01*
X98019832Y-49594168D01*
X97997316Y-49566732D01*
X97980586Y-49535434D01*
X97970283Y-49501468D01*
X97966200Y-49460010D01*
X97966200Y-48858990D01*
X97970283Y-48817532D01*
X97980586Y-48783566D01*
X97997316Y-48752268D01*
X98019832Y-48724832D01*
X98047268Y-48702316D01*
X98078566Y-48685586D01*
X98112532Y-48675283D01*
X98153990Y-48671200D01*
X98830010Y-48671200D01*
X98871468Y-48675283D01*
X98871468Y-48675283D01*
G37*
G36*
X108929270Y-46734308D02*
X109048877Y-46770591D01*
X109051949Y-46771523D01*
X109165005Y-46831952D01*
X109264102Y-46913280D01*
X109345430Y-47012377D01*
X109405859Y-47125433D01*
X109405860Y-47125436D01*
X109443074Y-47248112D01*
X109452491Y-47343728D01*
X109452491Y-47957654D01*
X109443074Y-48053270D01*
X109405860Y-48175945D01*
X109405859Y-48175949D01*
X109345430Y-48289005D01*
X109264102Y-48388102D01*
X109165004Y-48469430D01*
X109051948Y-48529859D01*
X109051945Y-48529860D01*
X108929269Y-48567074D01*
X108801691Y-48579639D01*
X108674112Y-48567074D01*
X108551436Y-48529860D01*
X108551433Y-48529859D01*
X108438377Y-48469430D01*
X108339280Y-48388102D01*
X108257952Y-48289004D01*
X108197523Y-48175948D01*
X108166233Y-48072800D01*
X108160308Y-48053269D01*
X108150891Y-47957653D01*
X108150891Y-47343728D01*
X108160308Y-47248112D01*
X108193909Y-47137347D01*
X108197522Y-47125435D01*
X108229823Y-47065004D01*
X108257953Y-47012377D01*
X108339281Y-46913280D01*
X108374252Y-46884580D01*
X108438378Y-46831952D01*
X108551434Y-46771523D01*
X108554506Y-46770591D01*
X108674113Y-46734308D01*
X108801691Y-46721743D01*
X108929270Y-46734308D01*
X108929270Y-46734308D01*
G37*
G36*
X110929270Y-46734308D02*
X111048877Y-46770591D01*
X111051949Y-46771523D01*
X111165005Y-46831952D01*
X111264102Y-46913280D01*
X111345430Y-47012377D01*
X111405859Y-47125433D01*
X111405860Y-47125436D01*
X111443074Y-47248112D01*
X111452491Y-47343728D01*
X111452491Y-47957654D01*
X111443074Y-48053270D01*
X111405860Y-48175945D01*
X111405859Y-48175949D01*
X111345430Y-48289005D01*
X111264102Y-48388102D01*
X111165004Y-48469430D01*
X111051948Y-48529859D01*
X111051945Y-48529860D01*
X110929269Y-48567074D01*
X110801691Y-48579639D01*
X110674112Y-48567074D01*
X110551436Y-48529860D01*
X110551433Y-48529859D01*
X110438377Y-48469430D01*
X110339280Y-48388102D01*
X110257952Y-48289004D01*
X110197523Y-48175948D01*
X110166233Y-48072800D01*
X110160308Y-48053269D01*
X110150891Y-47957653D01*
X110150891Y-47343728D01*
X110160308Y-47248112D01*
X110193909Y-47137347D01*
X110197522Y-47125435D01*
X110229823Y-47065004D01*
X110257953Y-47012377D01*
X110339281Y-46913280D01*
X110374252Y-46884580D01*
X110438378Y-46831952D01*
X110551434Y-46771523D01*
X110554506Y-46770591D01*
X110674113Y-46734308D01*
X110801691Y-46721743D01*
X110929270Y-46734308D01*
X110929270Y-46734308D01*
G37*
G36*
X106929270Y-46734308D02*
X107048877Y-46770591D01*
X107051949Y-46771523D01*
X107165005Y-46831952D01*
X107264102Y-46913280D01*
X107345430Y-47012377D01*
X107405859Y-47125433D01*
X107405860Y-47125436D01*
X107443074Y-47248112D01*
X107452491Y-47343728D01*
X107452491Y-47957654D01*
X107443074Y-48053270D01*
X107405860Y-48175945D01*
X107405859Y-48175949D01*
X107345430Y-48289005D01*
X107264102Y-48388102D01*
X107165004Y-48469430D01*
X107051948Y-48529859D01*
X107051945Y-48529860D01*
X106929269Y-48567074D01*
X106801691Y-48579639D01*
X106674112Y-48567074D01*
X106551436Y-48529860D01*
X106551433Y-48529859D01*
X106438377Y-48469430D01*
X106339280Y-48388102D01*
X106257952Y-48289004D01*
X106197523Y-48175948D01*
X106166233Y-48072800D01*
X106160308Y-48053269D01*
X106150891Y-47957653D01*
X106150891Y-47343728D01*
X106160308Y-47248112D01*
X106193909Y-47137347D01*
X106197522Y-47125435D01*
X106229823Y-47065004D01*
X106257953Y-47012377D01*
X106339281Y-46913280D01*
X106374252Y-46884580D01*
X106438378Y-46831952D01*
X106551434Y-46771523D01*
X106554506Y-46770591D01*
X106674113Y-46734308D01*
X106801691Y-46721743D01*
X106929270Y-46734308D01*
X106929270Y-46734308D01*
G37*
G36*
X113292802Y-46729293D02*
X113329873Y-46740539D01*
X113364052Y-46758807D01*
X113393998Y-46783384D01*
X113418575Y-46813330D01*
X113436843Y-46847509D01*
X113448089Y-46884580D01*
X113452491Y-46929280D01*
X113452491Y-48372102D01*
X113448089Y-48416802D01*
X113436843Y-48453873D01*
X113418575Y-48488052D01*
X113393998Y-48517998D01*
X113364052Y-48542575D01*
X113329873Y-48560843D01*
X113292802Y-48572089D01*
X113248102Y-48576491D01*
X112355280Y-48576491D01*
X112310580Y-48572089D01*
X112273509Y-48560843D01*
X112239330Y-48542575D01*
X112209384Y-48517998D01*
X112184807Y-48488052D01*
X112166539Y-48453873D01*
X112155293Y-48416802D01*
X112150891Y-48372102D01*
X112150891Y-46929280D01*
X112155293Y-46884580D01*
X112166539Y-46847509D01*
X112184807Y-46813330D01*
X112209384Y-46783384D01*
X112239330Y-46758807D01*
X112273509Y-46740539D01*
X112310580Y-46729293D01*
X112355280Y-46724891D01*
X113248102Y-46724891D01*
X113292802Y-46729293D01*
X113292802Y-46729293D01*
G37*
G36*
X98871468Y-47100283D02*
X98905434Y-47110586D01*
X98936732Y-47127316D01*
X98964168Y-47149832D01*
X98986684Y-47177268D01*
X99003414Y-47208566D01*
X99013717Y-47242532D01*
X99017800Y-47283990D01*
X99017800Y-47885010D01*
X99013717Y-47926468D01*
X99003414Y-47960434D01*
X98986684Y-47991732D01*
X98964168Y-48019168D01*
X98936732Y-48041684D01*
X98905434Y-48058414D01*
X98871468Y-48068717D01*
X98830010Y-48072800D01*
X98153990Y-48072800D01*
X98112532Y-48068717D01*
X98078566Y-48058414D01*
X98047268Y-48041684D01*
X98019832Y-48019168D01*
X97997316Y-47991732D01*
X97980586Y-47960434D01*
X97970283Y-47926468D01*
X97966200Y-47885010D01*
X97966200Y-47283990D01*
X97970283Y-47242532D01*
X97980586Y-47208566D01*
X97997316Y-47177268D01*
X98019832Y-47149832D01*
X98047268Y-47127316D01*
X98078566Y-47110586D01*
X98112532Y-47100283D01*
X98153990Y-47096200D01*
X98830010Y-47096200D01*
X98871468Y-47100283D01*
X98871468Y-47100283D01*
G37*
G36*
X94731982Y-46226787D02*
X94882936Y-46272578D01*
X95006142Y-46338433D01*
X95022053Y-46346938D01*
X95048848Y-46368928D01*
X95143991Y-46447009D01*
X95217994Y-46537183D01*
X95244062Y-46568947D01*
X95244063Y-46568949D01*
X95318422Y-46708064D01*
X95364213Y-46859018D01*
X95379674Y-47016000D01*
X95364213Y-47172982D01*
X95318422Y-47323936D01*
X95252567Y-47447142D01*
X95244062Y-47463053D01*
X95217994Y-47494817D01*
X95143991Y-47584991D01*
X95053817Y-47658994D01*
X95022053Y-47685062D01*
X95022051Y-47685063D01*
X94882936Y-47759422D01*
X94731982Y-47805213D01*
X94614336Y-47816800D01*
X93735664Y-47816800D01*
X93618018Y-47805213D01*
X93467064Y-47759422D01*
X93327949Y-47685063D01*
X93327947Y-47685062D01*
X93296183Y-47658994D01*
X93206009Y-47584991D01*
X93132006Y-47494817D01*
X93105938Y-47463053D01*
X93097433Y-47447142D01*
X93031578Y-47323936D01*
X92985787Y-47172982D01*
X92970326Y-47016000D01*
X92985787Y-46859018D01*
X93031578Y-46708064D01*
X93105937Y-46568949D01*
X93105938Y-46568947D01*
X93132006Y-46537183D01*
X93206009Y-46447009D01*
X93301152Y-46368928D01*
X93327947Y-46346938D01*
X93343858Y-46338433D01*
X93467064Y-46272578D01*
X93618018Y-46226787D01*
X93735664Y-46215200D01*
X94614336Y-46215200D01*
X94731982Y-46226787D01*
X94731982Y-46226787D01*
G37*
G36*
X64952950Y-42849775D02*
X65353469Y-43015675D01*
X65713930Y-43256528D01*
X66020472Y-43563070D01*
X66261325Y-43923531D01*
X66427225Y-44324050D01*
X66511800Y-44749239D01*
X66511800Y-45182761D01*
X66427225Y-45607950D01*
X66261325Y-46008469D01*
X66020472Y-46368930D01*
X65713930Y-46675472D01*
X65353469Y-46916325D01*
X64952950Y-47082225D01*
X64527761Y-47166800D01*
X64094239Y-47166800D01*
X63669050Y-47082225D01*
X63268531Y-46916325D01*
X62908070Y-46675472D01*
X62601528Y-46368930D01*
X62360675Y-46008469D01*
X62194775Y-45607950D01*
X62110200Y-45182761D01*
X62110200Y-44749239D01*
X62194775Y-44324050D01*
X62360675Y-43923531D01*
X62601528Y-43563070D01*
X62908070Y-43256528D01*
X63268531Y-43015675D01*
X63669050Y-42849775D01*
X64094239Y-42765200D01*
X64527761Y-42765200D01*
X64952950Y-42849775D01*
X64952950Y-42849775D01*
G37*
G36*
X212272950Y-42849775D02*
X212673469Y-43015675D01*
X213033930Y-43256528D01*
X213340472Y-43563070D01*
X213581325Y-43923531D01*
X213747225Y-44324050D01*
X213831800Y-44749239D01*
X213831800Y-45182761D01*
X213747225Y-45607950D01*
X213581325Y-46008469D01*
X213340472Y-46368930D01*
X213033930Y-46675472D01*
X212673469Y-46916325D01*
X212272950Y-47082225D01*
X211847761Y-47166800D01*
X211414239Y-47166800D01*
X210989050Y-47082225D01*
X210588531Y-46916325D01*
X210228070Y-46675472D01*
X209921528Y-46368930D01*
X209680675Y-46008469D01*
X209514775Y-45607950D01*
X209430200Y-45182761D01*
X209430200Y-44749239D01*
X209514775Y-44324050D01*
X209680675Y-43923531D01*
X209921528Y-43563070D01*
X210228070Y-43256528D01*
X210588531Y-43015675D01*
X210989050Y-42849775D01*
X211414239Y-42765200D01*
X211847761Y-42765200D01*
X212272950Y-42849775D01*
X212272950Y-42849775D01*
G37*
G36*
X94731982Y-43686787D02*
X94882936Y-43732578D01*
X95006142Y-43798433D01*
X95022053Y-43806938D01*
X95053817Y-43833006D01*
X95143991Y-43907009D01*
X95217994Y-43997183D01*
X95244062Y-44028947D01*
X95244063Y-44028949D01*
X95318422Y-44168064D01*
X95364213Y-44319018D01*
X95379674Y-44476000D01*
X95364213Y-44632982D01*
X95318422Y-44783936D01*
X95252567Y-44907142D01*
X95244062Y-44923053D01*
X95217994Y-44954817D01*
X95143991Y-45044991D01*
X95053817Y-45118994D01*
X95022053Y-45145062D01*
X95022051Y-45145063D01*
X94882936Y-45219422D01*
X94731982Y-45265213D01*
X94614336Y-45276800D01*
X93735664Y-45276800D01*
X93618018Y-45265213D01*
X93467064Y-45219422D01*
X93327949Y-45145063D01*
X93327947Y-45145062D01*
X93296183Y-45118994D01*
X93206009Y-45044991D01*
X93132006Y-44954817D01*
X93105938Y-44923053D01*
X93097433Y-44907142D01*
X93031578Y-44783936D01*
X92985787Y-44632982D01*
X92970326Y-44476000D01*
X92985787Y-44319018D01*
X93031578Y-44168064D01*
X93105937Y-44028949D01*
X93105938Y-44028947D01*
X93132006Y-43997183D01*
X93206009Y-43907009D01*
X93296183Y-43833006D01*
X93327947Y-43806938D01*
X93343858Y-43798433D01*
X93467064Y-43732578D01*
X93618018Y-43686787D01*
X93735664Y-43675200D01*
X94614336Y-43675200D01*
X94731982Y-43686787D01*
X94731982Y-43686787D01*
G37*
G36*
X123138800Y-44229800D02*
X120837200Y-44229800D01*
X120837200Y-41928200D01*
X123138800Y-41928200D01*
X123138800Y-44229800D01*
X123138800Y-44229800D01*
G37*
G36*
X132289065Y-41936525D02*
X132373596Y-41944851D01*
X132590524Y-42010655D01*
X132697384Y-42067773D01*
X132790444Y-42117515D01*
X132790446Y-42117516D01*
X132790445Y-42117516D01*
X132965676Y-42261324D01*
X133109484Y-42436555D01*
X133216345Y-42636476D01*
X133282149Y-42853405D01*
X133304368Y-43079000D01*
X133282149Y-43304595D01*
X133216345Y-43521524D01*
X133194138Y-43563070D01*
X133109485Y-43721444D01*
X132965676Y-43896676D01*
X132790444Y-44040485D01*
X132697384Y-44090227D01*
X132590524Y-44147345D01*
X132482059Y-44180247D01*
X132373596Y-44213149D01*
X132289065Y-44221475D01*
X132204535Y-44229800D01*
X132091465Y-44229800D01*
X132006935Y-44221474D01*
X131922404Y-44213149D01*
X131813941Y-44180247D01*
X131705476Y-44147345D01*
X131598616Y-44090227D01*
X131505556Y-44040485D01*
X131330324Y-43896676D01*
X131186515Y-43721444D01*
X131101862Y-43563070D01*
X131079655Y-43521524D01*
X131013851Y-43304595D01*
X130991632Y-43079000D01*
X131013851Y-42853405D01*
X131079655Y-42636476D01*
X131186516Y-42436555D01*
X131330324Y-42261324D01*
X131505555Y-42117516D01*
X131505554Y-42117516D01*
X131505556Y-42117515D01*
X131598616Y-42067773D01*
X131705476Y-42010655D01*
X131922404Y-41944851D01*
X132006935Y-41936526D01*
X132091465Y-41928200D01*
X132204535Y-41928200D01*
X132289065Y-41936525D01*
X132289065Y-41936525D01*
G37*
M02*
