G04 #@! TF.GenerationSoftware,KiCad,Pcbnew,(5.0.0)*
G04 #@! TF.CreationDate,2018-10-13T15:52:45-04:00*
G04 #@! TF.ProjectId,GLVColoumbCounterTest,474C56436F6C6F756D62436F756E7465,rev?*
G04 #@! TF.SameCoordinates,Original*
G04 #@! TF.FileFunction,Copper,L2,Bot,Signal*
G04 #@! TF.FilePolarity,Positive*
%FSLAX46Y46*%
G04 Gerber Fmt 4.6, Leading zero omitted, Abs format (unit mm)*
G04 Created by KiCad (PCBNEW (5.0.0)) date 10/13/18 15:52:45*
%MOMM*%
%LPD*%
G01*
G04 APERTURE LIST*
G04 #@! TA.AperFunction,ComponentPad*
%ADD10C,2.500000*%
G04 #@! TD*
G04 #@! TA.AperFunction,ComponentPad*
%ADD11R,1.500000X1.500000*%
G04 #@! TD*
G04 #@! TA.AperFunction,ComponentPad*
%ADD12C,1.500000*%
G04 #@! TD*
G04 #@! TA.AperFunction,ComponentPad*
%ADD13R,2.600000X2.600000*%
G04 #@! TD*
G04 #@! TA.AperFunction,ComponentPad*
%ADD14C,2.600000*%
G04 #@! TD*
G04 #@! TA.AperFunction,ComponentPad*
%ADD15R,1.500000X2.500000*%
G04 #@! TD*
G04 #@! TA.AperFunction,ComponentPad*
%ADD16O,1.500000X2.500000*%
G04 #@! TD*
G04 #@! TA.AperFunction,ComponentPad*
%ADD17R,1.700000X1.700000*%
G04 #@! TD*
G04 #@! TA.AperFunction,ComponentPad*
%ADD18O,1.700000X1.700000*%
G04 #@! TD*
G04 #@! TA.AperFunction,ViaPad*
%ADD19C,0.800000*%
G04 #@! TD*
G04 #@! TA.AperFunction,Conductor*
%ADD20C,0.304800*%
G04 #@! TD*
G04 #@! TA.AperFunction,Conductor*
%ADD21C,0.889000*%
G04 #@! TD*
G04 #@! TA.AperFunction,Conductor*
%ADD22C,3.810000*%
G04 #@! TD*
G04 #@! TA.AperFunction,Conductor*
%ADD23C,0.254000*%
G04 #@! TD*
G04 APERTURE END LIST*
D10*
G04 #@! TO.P,K1,1*
G04 #@! TO.N,+BATT*
X109982000Y-54366000D03*
G04 #@! TO.P,K1,5*
G04 #@! TO.N,Net-(J1-Pad6)*
X102482000Y-50866000D03*
G04 #@! TO.P,K1,10*
G04 #@! TO.N,N/C*
X109982000Y-47366000D03*
G04 #@! TO.P,K1,2*
G04 #@! TO.N,+5V*
X102482000Y-70866000D03*
G04 #@! TO.P,K1,9*
G04 #@! TO.N,Net-(D3-Pad2)*
X109982000Y-70866000D03*
G04 #@! TD*
D11*
G04 #@! TO.P,J2,1*
G04 #@! TO.N,Net-(J2-Pad1)*
X161290000Y-58420000D03*
D12*
G04 #@! TO.P,J2,2*
G04 #@! TO.N,Net-(J2-Pad2)*
X160020000Y-60960000D03*
G04 #@! TO.P,J2,3*
G04 #@! TO.N,GND*
X158750000Y-58420000D03*
G04 #@! TO.P,J2,4*
G04 #@! TO.N,N/C*
X157480000Y-60960000D03*
G04 #@! TO.P,J2,5*
X156210000Y-58420000D03*
G04 #@! TO.P,J2,6*
G04 #@! TO.N,GND*
X154940000Y-60960000D03*
G04 #@! TO.P,J2,7*
G04 #@! TO.N,N/C*
X153670000Y-58420000D03*
G04 #@! TO.P,J2,8*
X152400000Y-60960000D03*
G04 #@! TD*
D13*
G04 #@! TO.P,J1,1*
G04 #@! TO.N,GND*
X140970000Y-49530000D03*
D14*
G04 #@! TO.P,J1,2*
X135970000Y-49530000D03*
G04 #@! TO.P,J1,3*
X130970000Y-49530000D03*
G04 #@! TO.P,J1,4*
G04 #@! TO.N,/LOAD*
X125970000Y-49530000D03*
G04 #@! TO.P,J1,5*
G04 #@! TO.N,+12V*
X120970000Y-49530000D03*
G04 #@! TO.P,J1,6*
G04 #@! TO.N,Net-(J1-Pad6)*
X115970000Y-49530000D03*
G04 #@! TD*
D15*
G04 #@! TO.P,U1,1*
G04 #@! TO.N,+12V*
X135255000Y-60960000D03*
D16*
G04 #@! TO.P,U1,2*
G04 #@! TO.N,GND*
X137795000Y-60960000D03*
G04 #@! TO.P,U1,3*
G04 #@! TO.N,+5V*
X140335000Y-60960000D03*
G04 #@! TD*
D17*
G04 #@! TO.P,J3,1*
G04 #@! TO.N,/MISO*
X161036000Y-78232000D03*
D18*
G04 #@! TO.P,J3,2*
G04 #@! TO.N,+5V*
X163576000Y-78232000D03*
G04 #@! TO.P,J3,3*
G04 #@! TO.N,/SCK*
X161036000Y-75692000D03*
G04 #@! TO.P,J3,4*
G04 #@! TO.N,/MOSI*
X163576000Y-75692000D03*
G04 #@! TO.P,J3,5*
G04 #@! TO.N,/RESET*
X161036000Y-73152000D03*
G04 #@! TO.P,J3,6*
G04 #@! TO.N,GND*
X163576000Y-73152000D03*
G04 #@! TD*
D12*
G04 #@! TO.P,Y1,1*
G04 #@! TO.N,Net-(C9-Pad1)*
X154686000Y-76835000D03*
G04 #@! TO.P,Y1,2*
G04 #@! TO.N,Net-(C10-Pad1)*
X149806000Y-76835000D03*
G04 #@! TD*
D19*
G04 #@! TO.N,GND*
X116840000Y-69850000D03*
X125730000Y-76962000D03*
X112268000Y-73406000D03*
X121539000Y-68453000D03*
X123698000Y-73025000D03*
X131064000Y-73533000D03*
X127000000Y-71755000D03*
X146177000Y-74168000D03*
X148209000Y-66421000D03*
X163322000Y-70993000D03*
X163322000Y-62865000D03*
X156845000Y-50292000D03*
X138430000Y-54610000D03*
X103505000Y-58293000D03*
X106553000Y-64897000D03*
X106045000Y-77978000D03*
X144399000Y-52832000D03*
X151130000Y-47117000D03*
X162179000Y-46482000D03*
X101600000Y-46736000D03*
X117475000Y-45847000D03*
X133350000Y-46228000D03*
X133731000Y-57404000D03*
X151765000Y-66675000D03*
G04 #@! TO.N,+12V*
X121920000Y-59690000D03*
X121920000Y-57785000D03*
X121920000Y-55880000D03*
X121920000Y-53975000D03*
X120015000Y-53975000D03*
X122555000Y-52070000D03*
X120650000Y-52070000D03*
X130810000Y-64262000D03*
G04 #@! TO.N,/LOAD*
X127508000Y-61468000D03*
X127508000Y-59436000D03*
X127508000Y-57404000D03*
X127508000Y-55372000D03*
X127000000Y-53340000D03*
X129032000Y-53340000D03*
G04 #@! TO.N,Net-(J1-Pad6)*
X105410000Y-52070000D03*
X105410000Y-49022000D03*
X107569000Y-50165000D03*
X111887000Y-50673000D03*
X113030000Y-48768000D03*
X114046000Y-51308000D03*
X109601000Y-50673000D03*
G04 #@! TO.N,/MISO*
X137541000Y-70104000D03*
X158750000Y-66294000D03*
G04 #@! TO.N,/SCK*
X135128000Y-67437000D03*
X158750000Y-68580000D03*
G04 #@! TO.N,/RESET*
X135128000Y-76835000D03*
X158623000Y-70358000D03*
G04 #@! TO.N,/MOSI*
X139319000Y-70104000D03*
X157353000Y-67564000D03*
G04 #@! TO.N,+BATT*
X109982000Y-60960000D03*
X112014000Y-60960000D03*
X110998000Y-59690000D03*
X112014000Y-58166000D03*
X108966000Y-59690000D03*
X109982000Y-58166000D03*
X108966000Y-56642000D03*
X110998000Y-56642000D03*
X112014000Y-55372000D03*
G04 #@! TO.N,/SCL*
X125222000Y-68326000D03*
X139065000Y-73914000D03*
G04 #@! TO.N,/SDA*
X125476000Y-69596000D03*
X137414000Y-73914000D03*
X126873000Y-73914000D03*
G04 #@! TO.N,/D10*
X140843000Y-69596000D03*
X157353000Y-64770000D03*
G04 #@! TO.N,/RELAY_CTRL*
X118872000Y-75438000D03*
X141192000Y-73628000D03*
G04 #@! TD*
D20*
G04 #@! TO.N,*
X127889000Y-74549000D02*
X127508000Y-74549000D01*
D21*
G04 #@! TO.N,+12V*
X126492000Y-64262000D02*
X130810000Y-64262000D01*
X121920000Y-59690000D02*
X126492000Y-64262000D01*
D22*
X120970000Y-49530000D02*
X120970000Y-50993000D01*
D20*
G04 #@! TO.N,/MISO*
X153416000Y-66294000D02*
X152450810Y-65328810D01*
X158750000Y-66294000D02*
X153416000Y-66294000D01*
X152450810Y-65328810D02*
X140995716Y-65328810D01*
X140995716Y-65328810D02*
X137014001Y-69310525D01*
X137014001Y-69310525D02*
X137014001Y-69958001D01*
X137395001Y-69958001D02*
X137541000Y-70104000D01*
X137014001Y-69958001D02*
X137395001Y-69958001D01*
G04 #@! TO.N,/SCK*
X159149999Y-68979999D02*
X158750000Y-68580000D01*
X159639000Y-69469000D02*
X159149999Y-68979999D01*
X161036000Y-75692000D02*
X159639000Y-74295000D01*
X159639000Y-74295000D02*
X159639000Y-69469000D01*
X135128000Y-70055750D02*
X135128000Y-67437000D01*
X136795461Y-71723211D02*
X135128000Y-70055750D01*
X141255789Y-71723211D02*
X136795461Y-71723211D01*
X158750000Y-68580000D02*
X157175526Y-68580000D01*
X156718336Y-68122810D02*
X142570190Y-68122810D01*
X142570190Y-68122810D02*
X142240000Y-68453000D01*
X142240000Y-68453000D02*
X142240000Y-70739000D01*
X157175526Y-68580000D02*
X156718336Y-68122810D01*
X142240000Y-70739000D02*
X141255789Y-71723211D01*
G04 #@! TO.N,/RESET*
X139178474Y-76835000D02*
X142875000Y-73138474D01*
X135128000Y-76835000D02*
X139178474Y-76835000D01*
X142875000Y-73138474D02*
X142875000Y-68961000D01*
X142875000Y-68961000D02*
X143154380Y-68681620D01*
X156486870Y-68681620D02*
X157020250Y-69215000D01*
X143154380Y-68681620D02*
X156486870Y-68681620D01*
X157020250Y-69215000D02*
X157480000Y-69215000D01*
X157480000Y-69215000D02*
X158623000Y-70358000D01*
G04 #@! TO.N,/MOSI*
X157353000Y-67564000D02*
X139954000Y-67564000D01*
X138919001Y-68598999D02*
X139954000Y-67564000D01*
X139319000Y-70104000D02*
X138919001Y-69704001D01*
X138919001Y-69704001D02*
X138919001Y-68598999D01*
D22*
G04 #@! TO.N,+BATT*
X109982000Y-54366000D02*
X109982000Y-60198000D01*
X109982000Y-60198000D02*
X114046000Y-60198000D01*
X114046000Y-60198000D02*
X114046000Y-56896000D01*
X114046000Y-56896000D02*
X112014000Y-54864000D01*
X111231999Y-55615999D02*
X109982000Y-54366000D01*
X112014000Y-54864000D02*
X111262001Y-55615999D01*
X111262001Y-55615999D02*
X111231999Y-55615999D01*
D20*
G04 #@! TO.N,/SCL*
X138665001Y-73514001D02*
X139065000Y-73914000D01*
X138258599Y-73107599D02*
X138665001Y-73514001D01*
X137026927Y-73107599D02*
X138258599Y-73107599D01*
X132645327Y-68725999D02*
X137026927Y-73107599D01*
X125222000Y-68326000D02*
X125621999Y-68725999D01*
X125621999Y-68725999D02*
X132645327Y-68725999D01*
G04 #@! TO.N,/SDA*
X125476000Y-70161685D02*
X125476000Y-69596000D01*
X125476000Y-71951315D02*
X125476000Y-70161685D01*
X126873000Y-73914000D02*
X126873000Y-73348315D01*
X126873000Y-73348315D02*
X125476000Y-71951315D01*
X137014001Y-74313999D02*
X137414000Y-73914000D01*
X136988599Y-74339401D02*
X137014001Y-74313999D01*
X130676927Y-74339401D02*
X136988599Y-74339401D01*
X126873000Y-73914000D02*
X130251526Y-73914000D01*
X130251526Y-73914000D02*
X130676927Y-74339401D01*
G04 #@! TO.N,/D10*
X136398000Y-69136250D02*
X140764250Y-64770000D01*
X140764250Y-64770000D02*
X157353000Y-64770000D01*
X136398000Y-70535474D02*
X136398000Y-69136250D01*
X137026927Y-71164401D02*
X136398000Y-70535474D01*
X140290599Y-71164401D02*
X137026927Y-71164401D01*
X140290599Y-71164401D02*
X140843000Y-70612000D01*
X140843000Y-70612000D02*
X140843000Y-69596000D01*
G04 #@! TO.N,/RELAY_CTRL*
X139382000Y-75438000D02*
X118872000Y-75438000D01*
X141192000Y-73628000D02*
X139382000Y-75438000D01*
G04 #@! TD*
D23*
G04 #@! TO.N,Net-(J1-Pad6)*
G36*
X108383974Y-48433767D02*
X108914233Y-48964026D01*
X109607050Y-49251000D01*
X110356950Y-49251000D01*
X111049767Y-48964026D01*
X111580026Y-48433767D01*
X111809818Y-47879000D01*
X114647958Y-47879000D01*
X115218395Y-47935082D01*
X115760998Y-48099369D01*
X116266734Y-48369124D01*
X116275188Y-48374761D01*
X116647961Y-48723292D01*
X116883782Y-49163925D01*
X116965277Y-49657000D01*
X116883782Y-50150075D01*
X116647961Y-50590708D01*
X116275188Y-50939239D01*
X114817160Y-51911258D01*
X114017490Y-52363299D01*
X113272540Y-52650099D01*
X113005058Y-52471373D01*
X112903777Y-52451227D01*
X112014000Y-52274239D01*
X112013999Y-52274239D01*
X111558836Y-52364777D01*
X110973058Y-51973373D01*
X109982000Y-51776239D01*
X108990941Y-51973373D01*
X108150762Y-52534762D01*
X107867296Y-52959000D01*
X103690347Y-52959000D01*
X103194680Y-52903023D01*
X102730770Y-52740292D01*
X102308752Y-52474363D01*
X102096316Y-52304414D01*
X101780691Y-51954051D01*
X101596515Y-51527675D01*
X101531876Y-51049577D01*
X101574605Y-50558549D01*
X101595826Y-50452445D01*
X101720414Y-50093812D01*
X101932346Y-49789463D01*
X102225488Y-49548205D01*
X103432883Y-48805193D01*
X104462125Y-48295624D01*
X105561535Y-47984445D01*
X106705165Y-47879000D01*
X108154182Y-47879000D01*
X108383974Y-48433767D01*
X108383974Y-48433767D01*
G37*
X108383974Y-48433767D02*
X108914233Y-48964026D01*
X109607050Y-49251000D01*
X110356950Y-49251000D01*
X111049767Y-48964026D01*
X111580026Y-48433767D01*
X111809818Y-47879000D01*
X114647958Y-47879000D01*
X115218395Y-47935082D01*
X115760998Y-48099369D01*
X116266734Y-48369124D01*
X116275188Y-48374761D01*
X116647961Y-48723292D01*
X116883782Y-49163925D01*
X116965277Y-49657000D01*
X116883782Y-50150075D01*
X116647961Y-50590708D01*
X116275188Y-50939239D01*
X114817160Y-51911258D01*
X114017490Y-52363299D01*
X113272540Y-52650099D01*
X113005058Y-52471373D01*
X112903777Y-52451227D01*
X112014000Y-52274239D01*
X112013999Y-52274239D01*
X111558836Y-52364777D01*
X110973058Y-51973373D01*
X109982000Y-51776239D01*
X108990941Y-51973373D01*
X108150762Y-52534762D01*
X107867296Y-52959000D01*
X103690347Y-52959000D01*
X103194680Y-52903023D01*
X102730770Y-52740292D01*
X102308752Y-52474363D01*
X102096316Y-52304414D01*
X101780691Y-51954051D01*
X101596515Y-51527675D01*
X101531876Y-51049577D01*
X101574605Y-50558549D01*
X101595826Y-50452445D01*
X101720414Y-50093812D01*
X101932346Y-49789463D01*
X102225488Y-49548205D01*
X103432883Y-48805193D01*
X104462125Y-48295624D01*
X105561535Y-47984445D01*
X106705165Y-47879000D01*
X108154182Y-47879000D01*
X108383974Y-48433767D01*
G04 #@! TO.N,+12V*
G36*
X124841000Y-54389267D02*
X124841000Y-62357000D01*
X118999000Y-62357000D01*
X118999000Y-54359970D01*
X119245311Y-50419000D01*
X122607725Y-50419000D01*
X124841000Y-54389267D01*
X124841000Y-54389267D01*
G37*
X124841000Y-54389267D02*
X124841000Y-62357000D01*
X118999000Y-62357000D01*
X118999000Y-54359970D01*
X119245311Y-50419000D01*
X122607725Y-50419000D01*
X124841000Y-54389267D01*
G04 #@! TO.N,/LOAD*
G36*
X128416304Y-50867310D02*
X128420656Y-50873817D01*
X130937000Y-54396699D01*
X130937000Y-62357000D01*
X127127000Y-62357000D01*
X127127000Y-54864000D01*
X127108902Y-54798659D01*
X125593077Y-52272284D01*
X124869024Y-49858774D01*
X127202580Y-48925352D01*
X128416304Y-50867310D01*
X128416304Y-50867310D01*
G37*
X128416304Y-50867310D02*
X128420656Y-50873817D01*
X130937000Y-54396699D01*
X130937000Y-62357000D01*
X127127000Y-62357000D01*
X127127000Y-54864000D01*
X127108902Y-54798659D01*
X125593077Y-52272284D01*
X124869024Y-49858774D01*
X127202580Y-48925352D01*
X128416304Y-50867310D01*
G04 #@! TO.N,GND*
G36*
X170076411Y-44544470D02*
X170707926Y-44742375D01*
X171286749Y-45063223D01*
X171789236Y-45493906D01*
X172194853Y-46016825D01*
X172487043Y-46610633D01*
X172653862Y-47251061D01*
X172688499Y-47911958D01*
X172589537Y-48566309D01*
X172361016Y-49187410D01*
X172012280Y-49749864D01*
X171557565Y-50230712D01*
X171015455Y-50610301D01*
X170408078Y-50873137D01*
X169744381Y-51011790D01*
X169400732Y-51029800D01*
X168464077Y-51029800D01*
X168421566Y-51038256D01*
X167851297Y-51113334D01*
X167790457Y-51129636D01*
X167685076Y-51157872D01*
X167133736Y-51386244D01*
X166984705Y-51472287D01*
X166511260Y-51835574D01*
X166389576Y-51957258D01*
X166026288Y-52430704D01*
X165940244Y-52579735D01*
X165711872Y-53131076D01*
X165684483Y-53233295D01*
X165667334Y-53297297D01*
X165592256Y-53867567D01*
X165583800Y-53910078D01*
X165583801Y-69914923D01*
X165592255Y-69957421D01*
X165667334Y-70527702D01*
X165711872Y-70693924D01*
X165940244Y-71245265D01*
X166018267Y-71380403D01*
X166026288Y-71394296D01*
X166389574Y-71867740D01*
X166511258Y-71989424D01*
X166984705Y-72352713D01*
X167129150Y-72436108D01*
X167133736Y-72438756D01*
X167685076Y-72667128D01*
X167740521Y-72681984D01*
X167851297Y-72711666D01*
X168421566Y-72786744D01*
X168464077Y-72795200D01*
X169448110Y-72795200D01*
X170139911Y-72865470D01*
X170771426Y-73063375D01*
X171350249Y-73384223D01*
X171852736Y-73814906D01*
X172258353Y-74337825D01*
X172550543Y-74931633D01*
X172717362Y-75572061D01*
X172751999Y-76232958D01*
X172653037Y-76887309D01*
X172424516Y-77508410D01*
X172075780Y-78070864D01*
X171621065Y-78551712D01*
X171078955Y-78931301D01*
X170471578Y-79194137D01*
X169807881Y-79332790D01*
X169464232Y-79350800D01*
X164483088Y-79350800D01*
X164610000Y-79266000D01*
X164926986Y-78791597D01*
X165038297Y-78232000D01*
X164926986Y-77672403D01*
X164610000Y-77198000D01*
X164256801Y-76962000D01*
X164610000Y-76726000D01*
X164926986Y-76251597D01*
X165038297Y-75692000D01*
X165027663Y-75638536D01*
X167233800Y-75638536D01*
X167233800Y-76507464D01*
X167566325Y-77310250D01*
X168180750Y-77924675D01*
X168983536Y-78257200D01*
X169852464Y-78257200D01*
X170655250Y-77924675D01*
X171269675Y-77310250D01*
X171602200Y-76507464D01*
X171602200Y-75638536D01*
X171269675Y-74835750D01*
X170655250Y-74221325D01*
X169852464Y-73888800D01*
X168983536Y-73888800D01*
X168180750Y-74221325D01*
X167566325Y-74835750D01*
X167233800Y-75638536D01*
X165027663Y-75638536D01*
X164926986Y-75132403D01*
X164610000Y-74658000D01*
X164273825Y-74433375D01*
X164457358Y-74347183D01*
X164847645Y-73918924D01*
X165017476Y-73508890D01*
X164896155Y-73279000D01*
X163703000Y-73279000D01*
X163703000Y-73299000D01*
X163449000Y-73299000D01*
X163449000Y-73279000D01*
X163429000Y-73279000D01*
X163429000Y-73025000D01*
X163449000Y-73025000D01*
X163449000Y-71831181D01*
X163703000Y-71831181D01*
X163703000Y-73025000D01*
X164896155Y-73025000D01*
X165017476Y-72795110D01*
X164847645Y-72385076D01*
X164457358Y-71956817D01*
X163932892Y-71710514D01*
X163703000Y-71831181D01*
X163449000Y-71831181D01*
X163219108Y-71710514D01*
X162694642Y-71956817D01*
X162304355Y-72385076D01*
X162282964Y-72436723D01*
X162070000Y-72118000D01*
X161595597Y-71801014D01*
X161177253Y-71717800D01*
X160894747Y-71717800D01*
X160476403Y-71801014D01*
X160375600Y-71868368D01*
X160375600Y-69541540D01*
X160390029Y-69469000D01*
X160375600Y-69396459D01*
X160375600Y-69396456D01*
X160332861Y-69181593D01*
X160237246Y-69038495D01*
X160211151Y-68999441D01*
X160211149Y-68999439D01*
X160170058Y-68937942D01*
X160108560Y-68896850D01*
X159734200Y-68522491D01*
X159734200Y-68384230D01*
X159584365Y-68022495D01*
X159307505Y-67745635D01*
X158945770Y-67595800D01*
X158554230Y-67595800D01*
X158337200Y-67685696D01*
X158337200Y-67368230D01*
X158247237Y-67151040D01*
X158554230Y-67278200D01*
X158945770Y-67278200D01*
X159307505Y-67128365D01*
X159584365Y-66851505D01*
X159734200Y-66489770D01*
X159734200Y-66098230D01*
X159584365Y-65736495D01*
X159307505Y-65459635D01*
X158945770Y-65309800D01*
X158554230Y-65309800D01*
X158192495Y-65459635D01*
X158094730Y-65557400D01*
X157957470Y-65557400D01*
X158187365Y-65327505D01*
X158337200Y-64965770D01*
X158337200Y-64574230D01*
X158187365Y-64212495D01*
X157910505Y-63935635D01*
X157548770Y-63785800D01*
X157157230Y-63785800D01*
X156795495Y-63935635D01*
X156697730Y-64033400D01*
X140836790Y-64033400D01*
X140764250Y-64018971D01*
X140691709Y-64033400D01*
X140691706Y-64033400D01*
X140476843Y-64076139D01*
X140294691Y-64197849D01*
X140294689Y-64197851D01*
X140233192Y-64238942D01*
X140192101Y-64300439D01*
X135928440Y-68564101D01*
X135866943Y-68605192D01*
X135864600Y-68608699D01*
X135864600Y-68092270D01*
X135962365Y-67994505D01*
X136112200Y-67632770D01*
X136112200Y-67241230D01*
X135962365Y-66879495D01*
X135685505Y-66602635D01*
X135323770Y-66452800D01*
X134932230Y-66452800D01*
X134570495Y-66602635D01*
X134293635Y-66879495D01*
X134143800Y-67241230D01*
X134143800Y-67632770D01*
X134293635Y-67994505D01*
X134391401Y-68092271D01*
X134391400Y-69430363D01*
X133217478Y-68256441D01*
X133176385Y-68194941D01*
X132932734Y-68032138D01*
X132717871Y-67989399D01*
X132717867Y-67989399D01*
X132645327Y-67974970D01*
X132572787Y-67989399D01*
X126147866Y-67989399D01*
X126056365Y-67768495D01*
X125779505Y-67491635D01*
X125417770Y-67341800D01*
X125026230Y-67341800D01*
X124664495Y-67491635D01*
X124387635Y-67768495D01*
X124237800Y-68130230D01*
X124237800Y-68521770D01*
X124387635Y-68883505D01*
X124612636Y-69108506D01*
X124491800Y-69400230D01*
X124491800Y-69791770D01*
X124641635Y-70153505D01*
X124739401Y-70251271D01*
X124739400Y-71878774D01*
X124724971Y-71951315D01*
X124739400Y-72023855D01*
X124739400Y-72023858D01*
X124782139Y-72238721D01*
X124944942Y-72482373D01*
X125006442Y-72523466D01*
X125980301Y-73497325D01*
X125888800Y-73718230D01*
X125888800Y-74109770D01*
X126038635Y-74471505D01*
X126268530Y-74701400D01*
X119527270Y-74701400D01*
X119429505Y-74603635D01*
X119067770Y-74453800D01*
X118676230Y-74453800D01*
X118314495Y-74603635D01*
X118037635Y-74880495D01*
X117887800Y-75242230D01*
X117887800Y-75633770D01*
X118037635Y-75995505D01*
X118314495Y-76272365D01*
X118676230Y-76422200D01*
X119067770Y-76422200D01*
X119429505Y-76272365D01*
X119527270Y-76174600D01*
X134396530Y-76174600D01*
X134293635Y-76277495D01*
X134143800Y-76639230D01*
X134143800Y-77030770D01*
X134293635Y-77392505D01*
X134570495Y-77669365D01*
X134932230Y-77819200D01*
X135323770Y-77819200D01*
X135685505Y-77669365D01*
X135783270Y-77571600D01*
X139105934Y-77571600D01*
X139178474Y-77586029D01*
X139251014Y-77571600D01*
X139251018Y-77571600D01*
X139465881Y-77528861D01*
X139709532Y-77366058D01*
X139750625Y-77304558D01*
X140485572Y-76569611D01*
X148471800Y-76569611D01*
X148471800Y-77100389D01*
X148674919Y-77590764D01*
X149050236Y-77966081D01*
X149540611Y-78169200D01*
X150071389Y-78169200D01*
X150561764Y-77966081D01*
X150937081Y-77590764D01*
X151140200Y-77100389D01*
X151140200Y-76569611D01*
X153351800Y-76569611D01*
X153351800Y-77100389D01*
X153554919Y-77590764D01*
X153930236Y-77966081D01*
X154420611Y-78169200D01*
X154951389Y-78169200D01*
X155441764Y-77966081D01*
X155817081Y-77590764D01*
X156020200Y-77100389D01*
X156020200Y-76569611D01*
X155817081Y-76079236D01*
X155441764Y-75703919D01*
X154951389Y-75500800D01*
X154420611Y-75500800D01*
X153930236Y-75703919D01*
X153554919Y-76079236D01*
X153351800Y-76569611D01*
X151140200Y-76569611D01*
X150937081Y-76079236D01*
X150561764Y-75703919D01*
X150071389Y-75500800D01*
X149540611Y-75500800D01*
X149050236Y-75703919D01*
X148674919Y-76079236D01*
X148471800Y-76569611D01*
X140485572Y-76569611D01*
X143344561Y-73710623D01*
X143406058Y-73669532D01*
X143447149Y-73608035D01*
X143447151Y-73608033D01*
X143568861Y-73425881D01*
X143577402Y-73382942D01*
X143611600Y-73211018D01*
X143611600Y-73211015D01*
X143626029Y-73138475D01*
X143611600Y-73065934D01*
X143611600Y-69418220D01*
X156181761Y-69418220D01*
X156448100Y-69684560D01*
X156489192Y-69746058D01*
X156550689Y-69787149D01*
X156550691Y-69787151D01*
X156700543Y-69887279D01*
X156732843Y-69908861D01*
X156947706Y-69951600D01*
X156947709Y-69951600D01*
X157020249Y-69966029D01*
X157092790Y-69951600D01*
X157174891Y-69951600D01*
X157638800Y-70415510D01*
X157638800Y-70553770D01*
X157788635Y-70915505D01*
X158065495Y-71192365D01*
X158427230Y-71342200D01*
X158818770Y-71342200D01*
X158902401Y-71307559D01*
X158902400Y-74222460D01*
X158887971Y-74295000D01*
X158902400Y-74367540D01*
X158902400Y-74367543D01*
X158945139Y-74582406D01*
X159107942Y-74826058D01*
X159169442Y-74867151D01*
X159643483Y-75341192D01*
X159573703Y-75692000D01*
X159685014Y-76251597D01*
X160002000Y-76726000D01*
X160113816Y-76800713D01*
X159958057Y-76831696D01*
X159764815Y-76960815D01*
X159635696Y-77154057D01*
X159590355Y-77382000D01*
X159590355Y-79082000D01*
X159635696Y-79309943D01*
X159662996Y-79350800D01*
X96553390Y-79350800D01*
X95861590Y-79280530D01*
X95230074Y-79082625D01*
X94651251Y-78761777D01*
X94148767Y-78331097D01*
X93743147Y-77808175D01*
X93450957Y-77214366D01*
X93284138Y-76573939D01*
X93249501Y-75913043D01*
X93291016Y-75638536D01*
X94335800Y-75638536D01*
X94335800Y-76507464D01*
X94668325Y-77310250D01*
X95282750Y-77924675D01*
X96085536Y-78257200D01*
X96954464Y-78257200D01*
X97757250Y-77924675D01*
X98371675Y-77310250D01*
X98704200Y-76507464D01*
X98704200Y-75638536D01*
X98371675Y-74835750D01*
X97757250Y-74221325D01*
X96954464Y-73888800D01*
X96085536Y-73888800D01*
X95282750Y-74221325D01*
X94668325Y-74835750D01*
X94335800Y-75638536D01*
X93291016Y-75638536D01*
X93348463Y-75258691D01*
X93576981Y-74637594D01*
X93925720Y-74075136D01*
X94380435Y-73594288D01*
X94922550Y-73214697D01*
X95529921Y-72951864D01*
X96193619Y-72813210D01*
X96537269Y-72795200D01*
X97473923Y-72795200D01*
X97516436Y-72786743D01*
X98086703Y-72711666D01*
X98139377Y-72697552D01*
X98252924Y-72667128D01*
X98804265Y-72438756D01*
X98953296Y-72352712D01*
X99426742Y-71989424D01*
X99548426Y-71867740D01*
X99911713Y-71394295D01*
X99997756Y-71245264D01*
X100226128Y-70693924D01*
X100270666Y-70527702D01*
X100274161Y-70501155D01*
X100647800Y-70501155D01*
X100647800Y-71230845D01*
X100927040Y-71904991D01*
X101443009Y-72420960D01*
X102117155Y-72700200D01*
X102846845Y-72700200D01*
X103520991Y-72420960D01*
X104036960Y-71904991D01*
X104316200Y-71230845D01*
X104316200Y-70501155D01*
X108147800Y-70501155D01*
X108147800Y-71230845D01*
X108427040Y-71904991D01*
X108943009Y-72420960D01*
X109617155Y-72700200D01*
X110346845Y-72700200D01*
X111020991Y-72420960D01*
X111536960Y-71904991D01*
X111816200Y-71230845D01*
X111816200Y-70501155D01*
X111536960Y-69827009D01*
X111020991Y-69311040D01*
X110346845Y-69031800D01*
X109617155Y-69031800D01*
X108943009Y-69311040D01*
X108427040Y-69827009D01*
X108147800Y-70501155D01*
X104316200Y-70501155D01*
X104036960Y-69827009D01*
X103520991Y-69311040D01*
X102846845Y-69031800D01*
X102117155Y-69031800D01*
X101443009Y-69311040D01*
X100927040Y-69827009D01*
X100647800Y-70501155D01*
X100274161Y-70501155D01*
X100345744Y-69957434D01*
X100354200Y-69914923D01*
X100354200Y-53910077D01*
X100345744Y-53867566D01*
X100270666Y-53297297D01*
X100253517Y-53233295D01*
X100226128Y-53131076D01*
X99997756Y-52579736D01*
X99962820Y-52519225D01*
X99911713Y-52430705D01*
X99548424Y-51957258D01*
X99426740Y-51835574D01*
X98953296Y-51472288D01*
X98922850Y-51454710D01*
X98804265Y-51386244D01*
X98252924Y-51157872D01*
X98122243Y-51122857D01*
X98086703Y-51113334D01*
X97516436Y-51038257D01*
X97473923Y-51029800D01*
X96489890Y-51029800D01*
X95798090Y-50959530D01*
X95166574Y-50761625D01*
X94696676Y-50501155D01*
X100647800Y-50501155D01*
X100647800Y-51230845D01*
X100927040Y-51904991D01*
X100931280Y-51909231D01*
X101089433Y-52275363D01*
X101200581Y-52448573D01*
X101537098Y-52822127D01*
X101612209Y-52892964D01*
X101838319Y-53073852D01*
X101896469Y-53115235D01*
X102336669Y-53392621D01*
X102465011Y-53454590D01*
X102955987Y-53626815D01*
X103094916Y-53658600D01*
X103611937Y-53716989D01*
X103683197Y-53721000D01*
X107572332Y-53721000D01*
X107444034Y-54366000D01*
X107492800Y-54611164D01*
X107492801Y-59952832D01*
X107444034Y-60198000D01*
X107637225Y-61169238D01*
X108187387Y-61992613D01*
X109010762Y-62542775D01*
X109736836Y-62687200D01*
X109736837Y-62687200D01*
X109982000Y-62735966D01*
X110227164Y-62687200D01*
X113800836Y-62687200D01*
X114046000Y-62735966D01*
X114291163Y-62687200D01*
X114291164Y-62687200D01*
X115017238Y-62542775D01*
X115840613Y-61992613D01*
X116390775Y-61169238D01*
X116583966Y-60198000D01*
X116535200Y-59952836D01*
X116535200Y-57141163D01*
X116583966Y-56896000D01*
X116390775Y-55924762D01*
X115979487Y-55309226D01*
X115979486Y-55309225D01*
X115840613Y-55101387D01*
X115632775Y-54962514D01*
X115026261Y-54356000D01*
X118237000Y-54356000D01*
X118237000Y-62484000D01*
X118285336Y-62727004D01*
X118422987Y-62933013D01*
X118628996Y-63070664D01*
X118872000Y-63119000D01*
X123894199Y-63119000D01*
X125692957Y-64917758D01*
X125750349Y-65003651D01*
X126090621Y-65231014D01*
X126390684Y-65290700D01*
X126390688Y-65290700D01*
X126491999Y-65310852D01*
X126593310Y-65290700D01*
X130911316Y-65290700D01*
X131211379Y-65231014D01*
X131551651Y-65003651D01*
X131779014Y-64663379D01*
X131858853Y-64262000D01*
X131779014Y-63860621D01*
X131551651Y-63520349D01*
X131211379Y-63292986D01*
X130911316Y-63233300D01*
X126918101Y-63233300D01*
X126752382Y-63067581D01*
X126756996Y-63070664D01*
X127000000Y-63119000D01*
X131064000Y-63119000D01*
X131307004Y-63070664D01*
X131513013Y-62933013D01*
X131650664Y-62727004D01*
X131699000Y-62484000D01*
X131699000Y-59710000D01*
X133909355Y-59710000D01*
X133909355Y-62210000D01*
X133954696Y-62437943D01*
X134083815Y-62631185D01*
X134277057Y-62760304D01*
X134505000Y-62805645D01*
X136005000Y-62805645D01*
X136232943Y-62760304D01*
X136426185Y-62631185D01*
X136555304Y-62437943D01*
X136600645Y-62210000D01*
X136600645Y-62152585D01*
X136905460Y-62529145D01*
X137382316Y-62788173D01*
X137453815Y-62802318D01*
X137668000Y-62679656D01*
X137668000Y-61087000D01*
X137648000Y-61087000D01*
X137648000Y-60833000D01*
X137668000Y-60833000D01*
X137668000Y-59240344D01*
X137922000Y-59240344D01*
X137922000Y-60833000D01*
X137942000Y-60833000D01*
X137942000Y-61087000D01*
X137922000Y-61087000D01*
X137922000Y-62679656D01*
X138136185Y-62802318D01*
X138207684Y-62788173D01*
X138684540Y-62529145D01*
X139025972Y-62107349D01*
X139072298Y-61950847D01*
X139078212Y-61980579D01*
X139373097Y-62421904D01*
X139814422Y-62716788D01*
X140335000Y-62820338D01*
X140855579Y-62716788D01*
X141296904Y-62421904D01*
X141591788Y-61980579D01*
X141669200Y-61591404D01*
X141669200Y-60694611D01*
X151065800Y-60694611D01*
X151065800Y-61225389D01*
X151268919Y-61715764D01*
X151644236Y-62091081D01*
X152134611Y-62294200D01*
X152665389Y-62294200D01*
X153155764Y-62091081D01*
X153315328Y-61931517D01*
X154148088Y-61931517D01*
X154216077Y-62172460D01*
X154735171Y-62357201D01*
X155285448Y-62329230D01*
X155663923Y-62172460D01*
X155731912Y-61931517D01*
X154940000Y-61139605D01*
X154148088Y-61931517D01*
X153315328Y-61931517D01*
X153531081Y-61715764D01*
X153635905Y-61462696D01*
X153727540Y-61683923D01*
X153968483Y-61751912D01*
X154760395Y-60960000D01*
X155119605Y-60960000D01*
X155911517Y-61751912D01*
X156152460Y-61683923D01*
X156237155Y-61445942D01*
X156348919Y-61715764D01*
X156724236Y-62091081D01*
X157214611Y-62294200D01*
X157745389Y-62294200D01*
X158235764Y-62091081D01*
X158611081Y-61715764D01*
X158750000Y-61380382D01*
X158888919Y-61715764D01*
X159264236Y-62091081D01*
X159754611Y-62294200D01*
X160285389Y-62294200D01*
X160775764Y-62091081D01*
X161151081Y-61715764D01*
X161354200Y-61225389D01*
X161354200Y-60694611D01*
X161151081Y-60204236D01*
X160775764Y-59828919D01*
X160623006Y-59765645D01*
X162040000Y-59765645D01*
X162267943Y-59720304D01*
X162461185Y-59591185D01*
X162590304Y-59397943D01*
X162635645Y-59170000D01*
X162635645Y-57670000D01*
X162590304Y-57442057D01*
X162461185Y-57248815D01*
X162267943Y-57119696D01*
X162040000Y-57074355D01*
X160540000Y-57074355D01*
X160312057Y-57119696D01*
X160118815Y-57248815D01*
X159989696Y-57442057D01*
X159944355Y-57670000D01*
X159944355Y-57690968D01*
X159721517Y-57628088D01*
X158929605Y-58420000D01*
X159721517Y-59211912D01*
X159944355Y-59149032D01*
X159944355Y-59170000D01*
X159989696Y-59397943D01*
X160118815Y-59591185D01*
X160170620Y-59625800D01*
X159754611Y-59625800D01*
X159264236Y-59828919D01*
X158888919Y-60204236D01*
X158750000Y-60539618D01*
X158611081Y-60204236D01*
X158235764Y-59828919D01*
X157745389Y-59625800D01*
X157214611Y-59625800D01*
X156724236Y-59828919D01*
X156348919Y-60204236D01*
X156244095Y-60457304D01*
X156152460Y-60236077D01*
X155911517Y-60168088D01*
X155119605Y-60960000D01*
X154760395Y-60960000D01*
X153968483Y-60168088D01*
X153727540Y-60236077D01*
X153642845Y-60474058D01*
X153531081Y-60204236D01*
X153315328Y-59988483D01*
X154148088Y-59988483D01*
X154940000Y-60780395D01*
X155731912Y-59988483D01*
X155663923Y-59747540D01*
X155144829Y-59562799D01*
X154594552Y-59590770D01*
X154216077Y-59747540D01*
X154148088Y-59988483D01*
X153315328Y-59988483D01*
X153155764Y-59828919D01*
X152665389Y-59625800D01*
X152134611Y-59625800D01*
X151644236Y-59828919D01*
X151268919Y-60204236D01*
X151065800Y-60694611D01*
X141669200Y-60694611D01*
X141669200Y-60328596D01*
X141591788Y-59939421D01*
X141296903Y-59498096D01*
X140855578Y-59203212D01*
X140335000Y-59099662D01*
X139814421Y-59203212D01*
X139373096Y-59498097D01*
X139078212Y-59939422D01*
X139072298Y-59969153D01*
X139025972Y-59812651D01*
X138684540Y-59390855D01*
X138207684Y-59131827D01*
X138136185Y-59117682D01*
X137922000Y-59240344D01*
X137668000Y-59240344D01*
X137453815Y-59117682D01*
X137382316Y-59131827D01*
X136905460Y-59390855D01*
X136600645Y-59767415D01*
X136600645Y-59710000D01*
X136555304Y-59482057D01*
X136426185Y-59288815D01*
X136232943Y-59159696D01*
X136005000Y-59114355D01*
X134505000Y-59114355D01*
X134277057Y-59159696D01*
X134083815Y-59288815D01*
X133954696Y-59482057D01*
X133909355Y-59710000D01*
X131699000Y-59710000D01*
X131699000Y-58154611D01*
X152335800Y-58154611D01*
X152335800Y-58685389D01*
X152538919Y-59175764D01*
X152914236Y-59551081D01*
X153404611Y-59754200D01*
X153935389Y-59754200D01*
X154425764Y-59551081D01*
X154801081Y-59175764D01*
X154940000Y-58840382D01*
X155078919Y-59175764D01*
X155454236Y-59551081D01*
X155944611Y-59754200D01*
X156475389Y-59754200D01*
X156965764Y-59551081D01*
X157125328Y-59391517D01*
X157958088Y-59391517D01*
X158026077Y-59632460D01*
X158545171Y-59817201D01*
X159095448Y-59789230D01*
X159473923Y-59632460D01*
X159541912Y-59391517D01*
X158750000Y-58599605D01*
X157958088Y-59391517D01*
X157125328Y-59391517D01*
X157341081Y-59175764D01*
X157445905Y-58922696D01*
X157537540Y-59143923D01*
X157778483Y-59211912D01*
X158570395Y-58420000D01*
X157778483Y-57628088D01*
X157537540Y-57696077D01*
X157452845Y-57934058D01*
X157341081Y-57664236D01*
X157125328Y-57448483D01*
X157958088Y-57448483D01*
X158750000Y-58240395D01*
X159541912Y-57448483D01*
X159473923Y-57207540D01*
X158954829Y-57022799D01*
X158404552Y-57050770D01*
X158026077Y-57207540D01*
X157958088Y-57448483D01*
X157125328Y-57448483D01*
X156965764Y-57288919D01*
X156475389Y-57085800D01*
X155944611Y-57085800D01*
X155454236Y-57288919D01*
X155078919Y-57664236D01*
X154940000Y-57999618D01*
X154801081Y-57664236D01*
X154425764Y-57288919D01*
X153935389Y-57085800D01*
X153404611Y-57085800D01*
X152914236Y-57288919D01*
X152538919Y-57664236D01*
X152335800Y-58154611D01*
X131699000Y-58154611D01*
X131699000Y-54356000D01*
X131682631Y-54212749D01*
X131580721Y-53986914D01*
X129901166Y-51635536D01*
X148945800Y-51635536D01*
X148945800Y-52504464D01*
X149278325Y-53307250D01*
X149892750Y-53921675D01*
X150695536Y-54254200D01*
X151564464Y-54254200D01*
X152367250Y-53921675D01*
X152981675Y-53307250D01*
X153314200Y-52504464D01*
X153314200Y-51635536D01*
X160375800Y-51635536D01*
X160375800Y-52504464D01*
X160708325Y-53307250D01*
X161322750Y-53921675D01*
X162125536Y-54254200D01*
X162994464Y-54254200D01*
X163797250Y-53921675D01*
X164411675Y-53307250D01*
X164744200Y-52504464D01*
X164744200Y-51635536D01*
X164411675Y-50832750D01*
X163797250Y-50218325D01*
X162994464Y-49885800D01*
X162125536Y-49885800D01*
X161322750Y-50218325D01*
X160708325Y-50832750D01*
X160375800Y-51635536D01*
X153314200Y-51635536D01*
X152981675Y-50832750D01*
X152367250Y-50218325D01*
X151564464Y-49885800D01*
X150695536Y-49885800D01*
X149892750Y-50218325D01*
X149278325Y-50832750D01*
X148945800Y-51635536D01*
X129901166Y-51635536D01*
X129375396Y-50899459D01*
X129780146Y-50899459D01*
X129915504Y-51197455D01*
X130633880Y-51474066D01*
X131403427Y-51454710D01*
X132024496Y-51197455D01*
X132159854Y-50899459D01*
X134780146Y-50899459D01*
X134915504Y-51197455D01*
X135633880Y-51474066D01*
X136403427Y-51454710D01*
X137024496Y-51197455D01*
X137159854Y-50899459D01*
X135970000Y-49709605D01*
X134780146Y-50899459D01*
X132159854Y-50899459D01*
X130970000Y-49709605D01*
X129780146Y-50899459D01*
X129375396Y-50899459D01*
X129052100Y-50446845D01*
X128268998Y-49193880D01*
X129025934Y-49193880D01*
X129045290Y-49963427D01*
X129302545Y-50584496D01*
X129600541Y-50719854D01*
X130790395Y-49530000D01*
X131149605Y-49530000D01*
X132339459Y-50719854D01*
X132637455Y-50584496D01*
X132914066Y-49866120D01*
X132897158Y-49193880D01*
X134025934Y-49193880D01*
X134045290Y-49963427D01*
X134302545Y-50584496D01*
X134600541Y-50719854D01*
X135790395Y-49530000D01*
X136149605Y-49530000D01*
X137339459Y-50719854D01*
X137637455Y-50584496D01*
X137914066Y-49866120D01*
X137912800Y-49815750D01*
X139035000Y-49815750D01*
X139035000Y-50956310D01*
X139131673Y-51189699D01*
X139310302Y-51368327D01*
X139543691Y-51465000D01*
X140684250Y-51465000D01*
X140843000Y-51306250D01*
X140843000Y-49657000D01*
X141097000Y-49657000D01*
X141097000Y-51306250D01*
X141255750Y-51465000D01*
X142396309Y-51465000D01*
X142629698Y-51368327D01*
X142808327Y-51189699D01*
X142905000Y-50956310D01*
X142905000Y-49815750D01*
X142746250Y-49657000D01*
X141097000Y-49657000D01*
X140843000Y-49657000D01*
X139193750Y-49657000D01*
X139035000Y-49815750D01*
X137912800Y-49815750D01*
X137894710Y-49096573D01*
X137637455Y-48475504D01*
X137339459Y-48340146D01*
X136149605Y-49530000D01*
X135790395Y-49530000D01*
X134600541Y-48340146D01*
X134302545Y-48475504D01*
X134025934Y-49193880D01*
X132897158Y-49193880D01*
X132894710Y-49096573D01*
X132637455Y-48475504D01*
X132339459Y-48340146D01*
X131149605Y-49530000D01*
X130790395Y-49530000D01*
X129600541Y-48340146D01*
X129302545Y-48475504D01*
X129025934Y-49193880D01*
X128268998Y-49193880D01*
X127792479Y-48431451D01*
X127708454Y-48324495D01*
X127504139Y-48184343D01*
X127391664Y-48160541D01*
X129780146Y-48160541D01*
X130970000Y-49350395D01*
X132159854Y-48160541D01*
X134780146Y-48160541D01*
X135970000Y-49350395D01*
X137159854Y-48160541D01*
X137134031Y-48103690D01*
X139035000Y-48103690D01*
X139035000Y-49244250D01*
X139193750Y-49403000D01*
X140843000Y-49403000D01*
X140843000Y-47753750D01*
X141097000Y-47753750D01*
X141097000Y-49403000D01*
X142746250Y-49403000D01*
X142905000Y-49244250D01*
X142905000Y-48103690D01*
X142808327Y-47870301D01*
X142629698Y-47691673D01*
X142396309Y-47595000D01*
X141255750Y-47595000D01*
X141097000Y-47753750D01*
X140843000Y-47753750D01*
X140684250Y-47595000D01*
X139543691Y-47595000D01*
X139310302Y-47691673D01*
X139131673Y-47870301D01*
X139035000Y-48103690D01*
X137134031Y-48103690D01*
X137024496Y-47862545D01*
X136306120Y-47585934D01*
X135536573Y-47605290D01*
X134915504Y-47862545D01*
X134780146Y-48160541D01*
X132159854Y-48160541D01*
X132024496Y-47862545D01*
X131306120Y-47585934D01*
X130536573Y-47605290D01*
X129915504Y-47862545D01*
X129780146Y-48160541D01*
X127391664Y-48160541D01*
X127261742Y-48133047D01*
X127241483Y-48136821D01*
X127037314Y-47932652D01*
X126344791Y-47645800D01*
X125595209Y-47645800D01*
X124902686Y-47932652D01*
X124372652Y-48462686D01*
X124085800Y-49155209D01*
X124085800Y-49708253D01*
X124082252Y-49719821D01*
X124085800Y-49757015D01*
X124085800Y-49904791D01*
X124104114Y-49949006D01*
X124105780Y-49966466D01*
X124867780Y-52506466D01*
X124931492Y-52650705D01*
X126365000Y-55039885D01*
X126365000Y-62484000D01*
X126413336Y-62727004D01*
X126416419Y-62731618D01*
X125603000Y-61918199D01*
X125603000Y-54356000D01*
X125521450Y-54044684D01*
X123459200Y-50378462D01*
X123459200Y-49284836D01*
X123314775Y-48558762D01*
X122764613Y-47735387D01*
X122139255Y-47317536D01*
X167233800Y-47317536D01*
X167233800Y-48186464D01*
X167566325Y-48989250D01*
X168180750Y-49603675D01*
X168983536Y-49936200D01*
X169852464Y-49936200D01*
X170655250Y-49603675D01*
X171269675Y-48989250D01*
X171602200Y-48186464D01*
X171602200Y-47317536D01*
X171269675Y-46514750D01*
X170655250Y-45900325D01*
X169852464Y-45567800D01*
X168983536Y-45567800D01*
X168180750Y-45900325D01*
X167566325Y-46514750D01*
X167233800Y-47317536D01*
X122139255Y-47317536D01*
X121941237Y-47185225D01*
X120970000Y-46992034D01*
X119998762Y-47185225D01*
X119175387Y-47735387D01*
X118625225Y-48558763D01*
X118480800Y-49284837D01*
X118480800Y-50435382D01*
X118238237Y-54316390D01*
X118237000Y-54356000D01*
X115026261Y-54356000D01*
X113947484Y-53277223D01*
X113910041Y-53221187D01*
X114299991Y-53071060D01*
X114384330Y-53031251D01*
X115196206Y-52572310D01*
X115235956Y-52547871D01*
X116706542Y-51567480D01*
X116787984Y-51502970D01*
X117183708Y-51132981D01*
X117309894Y-50968769D01*
X117441154Y-50723508D01*
X117567348Y-50597314D01*
X117854200Y-49904791D01*
X117854200Y-49155209D01*
X117567348Y-48462686D01*
X117037314Y-47932652D01*
X116823214Y-47843969D01*
X116787984Y-47811030D01*
X116706553Y-47746527D01*
X116684246Y-47731655D01*
X116630849Y-47699719D01*
X116108598Y-47421155D01*
X115993762Y-47373683D01*
X115427261Y-47202160D01*
X115305378Y-47177960D01*
X114716320Y-47120047D01*
X114654190Y-47117000D01*
X111816200Y-47117000D01*
X111816200Y-47001155D01*
X111536960Y-46327009D01*
X111020991Y-45811040D01*
X110346845Y-45531800D01*
X109617155Y-45531800D01*
X108943009Y-45811040D01*
X108427040Y-46327009D01*
X108147800Y-47001155D01*
X108147800Y-47117000D01*
X106699318Y-47117000D01*
X106641017Y-47119682D01*
X105479917Y-47226738D01*
X105365280Y-47248059D01*
X104243330Y-47565618D01*
X104134524Y-47607541D01*
X103089555Y-48124896D01*
X103038497Y-48153167D01*
X101818711Y-48903804D01*
X101747991Y-48954306D01*
X101434604Y-49212226D01*
X101317020Y-49339658D01*
X101093728Y-49660321D01*
X100927040Y-49827009D01*
X100647800Y-50501155D01*
X94696676Y-50501155D01*
X94587751Y-50440777D01*
X94085267Y-50010097D01*
X93679647Y-49487175D01*
X93387457Y-48893366D01*
X93220638Y-48252939D01*
X93186001Y-47592043D01*
X93227516Y-47317536D01*
X94335800Y-47317536D01*
X94335800Y-48186464D01*
X94668325Y-48989250D01*
X95282750Y-49603675D01*
X96085536Y-49936200D01*
X96954464Y-49936200D01*
X97757250Y-49603675D01*
X98371675Y-48989250D01*
X98704200Y-48186464D01*
X98704200Y-47317536D01*
X98371675Y-46514750D01*
X97757250Y-45900325D01*
X96954464Y-45567800D01*
X96085536Y-45567800D01*
X95282750Y-45900325D01*
X94668325Y-46514750D01*
X94335800Y-47317536D01*
X93227516Y-47317536D01*
X93284963Y-46937691D01*
X93513481Y-46316594D01*
X93862220Y-45754136D01*
X94316935Y-45273288D01*
X94859050Y-44893697D01*
X95466421Y-44630864D01*
X96130119Y-44492210D01*
X96473769Y-44474200D01*
X169384610Y-44474200D01*
X170076411Y-44544470D01*
X170076411Y-44544470D01*
G37*
X170076411Y-44544470D02*
X170707926Y-44742375D01*
X171286749Y-45063223D01*
X171789236Y-45493906D01*
X172194853Y-46016825D01*
X172487043Y-46610633D01*
X172653862Y-47251061D01*
X172688499Y-47911958D01*
X172589537Y-48566309D01*
X172361016Y-49187410D01*
X172012280Y-49749864D01*
X171557565Y-50230712D01*
X171015455Y-50610301D01*
X170408078Y-50873137D01*
X169744381Y-51011790D01*
X169400732Y-51029800D01*
X168464077Y-51029800D01*
X168421566Y-51038256D01*
X167851297Y-51113334D01*
X167790457Y-51129636D01*
X167685076Y-51157872D01*
X167133736Y-51386244D01*
X166984705Y-51472287D01*
X166511260Y-51835574D01*
X166389576Y-51957258D01*
X166026288Y-52430704D01*
X165940244Y-52579735D01*
X165711872Y-53131076D01*
X165684483Y-53233295D01*
X165667334Y-53297297D01*
X165592256Y-53867567D01*
X165583800Y-53910078D01*
X165583801Y-69914923D01*
X165592255Y-69957421D01*
X165667334Y-70527702D01*
X165711872Y-70693924D01*
X165940244Y-71245265D01*
X166018267Y-71380403D01*
X166026288Y-71394296D01*
X166389574Y-71867740D01*
X166511258Y-71989424D01*
X166984705Y-72352713D01*
X167129150Y-72436108D01*
X167133736Y-72438756D01*
X167685076Y-72667128D01*
X167740521Y-72681984D01*
X167851297Y-72711666D01*
X168421566Y-72786744D01*
X168464077Y-72795200D01*
X169448110Y-72795200D01*
X170139911Y-72865470D01*
X170771426Y-73063375D01*
X171350249Y-73384223D01*
X171852736Y-73814906D01*
X172258353Y-74337825D01*
X172550543Y-74931633D01*
X172717362Y-75572061D01*
X172751999Y-76232958D01*
X172653037Y-76887309D01*
X172424516Y-77508410D01*
X172075780Y-78070864D01*
X171621065Y-78551712D01*
X171078955Y-78931301D01*
X170471578Y-79194137D01*
X169807881Y-79332790D01*
X169464232Y-79350800D01*
X164483088Y-79350800D01*
X164610000Y-79266000D01*
X164926986Y-78791597D01*
X165038297Y-78232000D01*
X164926986Y-77672403D01*
X164610000Y-77198000D01*
X164256801Y-76962000D01*
X164610000Y-76726000D01*
X164926986Y-76251597D01*
X165038297Y-75692000D01*
X165027663Y-75638536D01*
X167233800Y-75638536D01*
X167233800Y-76507464D01*
X167566325Y-77310250D01*
X168180750Y-77924675D01*
X168983536Y-78257200D01*
X169852464Y-78257200D01*
X170655250Y-77924675D01*
X171269675Y-77310250D01*
X171602200Y-76507464D01*
X171602200Y-75638536D01*
X171269675Y-74835750D01*
X170655250Y-74221325D01*
X169852464Y-73888800D01*
X168983536Y-73888800D01*
X168180750Y-74221325D01*
X167566325Y-74835750D01*
X167233800Y-75638536D01*
X165027663Y-75638536D01*
X164926986Y-75132403D01*
X164610000Y-74658000D01*
X164273825Y-74433375D01*
X164457358Y-74347183D01*
X164847645Y-73918924D01*
X165017476Y-73508890D01*
X164896155Y-73279000D01*
X163703000Y-73279000D01*
X163703000Y-73299000D01*
X163449000Y-73299000D01*
X163449000Y-73279000D01*
X163429000Y-73279000D01*
X163429000Y-73025000D01*
X163449000Y-73025000D01*
X163449000Y-71831181D01*
X163703000Y-71831181D01*
X163703000Y-73025000D01*
X164896155Y-73025000D01*
X165017476Y-72795110D01*
X164847645Y-72385076D01*
X164457358Y-71956817D01*
X163932892Y-71710514D01*
X163703000Y-71831181D01*
X163449000Y-71831181D01*
X163219108Y-71710514D01*
X162694642Y-71956817D01*
X162304355Y-72385076D01*
X162282964Y-72436723D01*
X162070000Y-72118000D01*
X161595597Y-71801014D01*
X161177253Y-71717800D01*
X160894747Y-71717800D01*
X160476403Y-71801014D01*
X160375600Y-71868368D01*
X160375600Y-69541540D01*
X160390029Y-69469000D01*
X160375600Y-69396459D01*
X160375600Y-69396456D01*
X160332861Y-69181593D01*
X160237246Y-69038495D01*
X160211151Y-68999441D01*
X160211149Y-68999439D01*
X160170058Y-68937942D01*
X160108560Y-68896850D01*
X159734200Y-68522491D01*
X159734200Y-68384230D01*
X159584365Y-68022495D01*
X159307505Y-67745635D01*
X158945770Y-67595800D01*
X158554230Y-67595800D01*
X158337200Y-67685696D01*
X158337200Y-67368230D01*
X158247237Y-67151040D01*
X158554230Y-67278200D01*
X158945770Y-67278200D01*
X159307505Y-67128365D01*
X159584365Y-66851505D01*
X159734200Y-66489770D01*
X159734200Y-66098230D01*
X159584365Y-65736495D01*
X159307505Y-65459635D01*
X158945770Y-65309800D01*
X158554230Y-65309800D01*
X158192495Y-65459635D01*
X158094730Y-65557400D01*
X157957470Y-65557400D01*
X158187365Y-65327505D01*
X158337200Y-64965770D01*
X158337200Y-64574230D01*
X158187365Y-64212495D01*
X157910505Y-63935635D01*
X157548770Y-63785800D01*
X157157230Y-63785800D01*
X156795495Y-63935635D01*
X156697730Y-64033400D01*
X140836790Y-64033400D01*
X140764250Y-64018971D01*
X140691709Y-64033400D01*
X140691706Y-64033400D01*
X140476843Y-64076139D01*
X140294691Y-64197849D01*
X140294689Y-64197851D01*
X140233192Y-64238942D01*
X140192101Y-64300439D01*
X135928440Y-68564101D01*
X135866943Y-68605192D01*
X135864600Y-68608699D01*
X135864600Y-68092270D01*
X135962365Y-67994505D01*
X136112200Y-67632770D01*
X136112200Y-67241230D01*
X135962365Y-66879495D01*
X135685505Y-66602635D01*
X135323770Y-66452800D01*
X134932230Y-66452800D01*
X134570495Y-66602635D01*
X134293635Y-66879495D01*
X134143800Y-67241230D01*
X134143800Y-67632770D01*
X134293635Y-67994505D01*
X134391401Y-68092271D01*
X134391400Y-69430363D01*
X133217478Y-68256441D01*
X133176385Y-68194941D01*
X132932734Y-68032138D01*
X132717871Y-67989399D01*
X132717867Y-67989399D01*
X132645327Y-67974970D01*
X132572787Y-67989399D01*
X126147866Y-67989399D01*
X126056365Y-67768495D01*
X125779505Y-67491635D01*
X125417770Y-67341800D01*
X125026230Y-67341800D01*
X124664495Y-67491635D01*
X124387635Y-67768495D01*
X124237800Y-68130230D01*
X124237800Y-68521770D01*
X124387635Y-68883505D01*
X124612636Y-69108506D01*
X124491800Y-69400230D01*
X124491800Y-69791770D01*
X124641635Y-70153505D01*
X124739401Y-70251271D01*
X124739400Y-71878774D01*
X124724971Y-71951315D01*
X124739400Y-72023855D01*
X124739400Y-72023858D01*
X124782139Y-72238721D01*
X124944942Y-72482373D01*
X125006442Y-72523466D01*
X125980301Y-73497325D01*
X125888800Y-73718230D01*
X125888800Y-74109770D01*
X126038635Y-74471505D01*
X126268530Y-74701400D01*
X119527270Y-74701400D01*
X119429505Y-74603635D01*
X119067770Y-74453800D01*
X118676230Y-74453800D01*
X118314495Y-74603635D01*
X118037635Y-74880495D01*
X117887800Y-75242230D01*
X117887800Y-75633770D01*
X118037635Y-75995505D01*
X118314495Y-76272365D01*
X118676230Y-76422200D01*
X119067770Y-76422200D01*
X119429505Y-76272365D01*
X119527270Y-76174600D01*
X134396530Y-76174600D01*
X134293635Y-76277495D01*
X134143800Y-76639230D01*
X134143800Y-77030770D01*
X134293635Y-77392505D01*
X134570495Y-77669365D01*
X134932230Y-77819200D01*
X135323770Y-77819200D01*
X135685505Y-77669365D01*
X135783270Y-77571600D01*
X139105934Y-77571600D01*
X139178474Y-77586029D01*
X139251014Y-77571600D01*
X139251018Y-77571600D01*
X139465881Y-77528861D01*
X139709532Y-77366058D01*
X139750625Y-77304558D01*
X140485572Y-76569611D01*
X148471800Y-76569611D01*
X148471800Y-77100389D01*
X148674919Y-77590764D01*
X149050236Y-77966081D01*
X149540611Y-78169200D01*
X150071389Y-78169200D01*
X150561764Y-77966081D01*
X150937081Y-77590764D01*
X151140200Y-77100389D01*
X151140200Y-76569611D01*
X153351800Y-76569611D01*
X153351800Y-77100389D01*
X153554919Y-77590764D01*
X153930236Y-77966081D01*
X154420611Y-78169200D01*
X154951389Y-78169200D01*
X155441764Y-77966081D01*
X155817081Y-77590764D01*
X156020200Y-77100389D01*
X156020200Y-76569611D01*
X155817081Y-76079236D01*
X155441764Y-75703919D01*
X154951389Y-75500800D01*
X154420611Y-75500800D01*
X153930236Y-75703919D01*
X153554919Y-76079236D01*
X153351800Y-76569611D01*
X151140200Y-76569611D01*
X150937081Y-76079236D01*
X150561764Y-75703919D01*
X150071389Y-75500800D01*
X149540611Y-75500800D01*
X149050236Y-75703919D01*
X148674919Y-76079236D01*
X148471800Y-76569611D01*
X140485572Y-76569611D01*
X143344561Y-73710623D01*
X143406058Y-73669532D01*
X143447149Y-73608035D01*
X143447151Y-73608033D01*
X143568861Y-73425881D01*
X143577402Y-73382942D01*
X143611600Y-73211018D01*
X143611600Y-73211015D01*
X143626029Y-73138475D01*
X143611600Y-73065934D01*
X143611600Y-69418220D01*
X156181761Y-69418220D01*
X156448100Y-69684560D01*
X156489192Y-69746058D01*
X156550689Y-69787149D01*
X156550691Y-69787151D01*
X156700543Y-69887279D01*
X156732843Y-69908861D01*
X156947706Y-69951600D01*
X156947709Y-69951600D01*
X157020249Y-69966029D01*
X157092790Y-69951600D01*
X157174891Y-69951600D01*
X157638800Y-70415510D01*
X157638800Y-70553770D01*
X157788635Y-70915505D01*
X158065495Y-71192365D01*
X158427230Y-71342200D01*
X158818770Y-71342200D01*
X158902401Y-71307559D01*
X158902400Y-74222460D01*
X158887971Y-74295000D01*
X158902400Y-74367540D01*
X158902400Y-74367543D01*
X158945139Y-74582406D01*
X159107942Y-74826058D01*
X159169442Y-74867151D01*
X159643483Y-75341192D01*
X159573703Y-75692000D01*
X159685014Y-76251597D01*
X160002000Y-76726000D01*
X160113816Y-76800713D01*
X159958057Y-76831696D01*
X159764815Y-76960815D01*
X159635696Y-77154057D01*
X159590355Y-77382000D01*
X159590355Y-79082000D01*
X159635696Y-79309943D01*
X159662996Y-79350800D01*
X96553390Y-79350800D01*
X95861590Y-79280530D01*
X95230074Y-79082625D01*
X94651251Y-78761777D01*
X94148767Y-78331097D01*
X93743147Y-77808175D01*
X93450957Y-77214366D01*
X93284138Y-76573939D01*
X93249501Y-75913043D01*
X93291016Y-75638536D01*
X94335800Y-75638536D01*
X94335800Y-76507464D01*
X94668325Y-77310250D01*
X95282750Y-77924675D01*
X96085536Y-78257200D01*
X96954464Y-78257200D01*
X97757250Y-77924675D01*
X98371675Y-77310250D01*
X98704200Y-76507464D01*
X98704200Y-75638536D01*
X98371675Y-74835750D01*
X97757250Y-74221325D01*
X96954464Y-73888800D01*
X96085536Y-73888800D01*
X95282750Y-74221325D01*
X94668325Y-74835750D01*
X94335800Y-75638536D01*
X93291016Y-75638536D01*
X93348463Y-75258691D01*
X93576981Y-74637594D01*
X93925720Y-74075136D01*
X94380435Y-73594288D01*
X94922550Y-73214697D01*
X95529921Y-72951864D01*
X96193619Y-72813210D01*
X96537269Y-72795200D01*
X97473923Y-72795200D01*
X97516436Y-72786743D01*
X98086703Y-72711666D01*
X98139377Y-72697552D01*
X98252924Y-72667128D01*
X98804265Y-72438756D01*
X98953296Y-72352712D01*
X99426742Y-71989424D01*
X99548426Y-71867740D01*
X99911713Y-71394295D01*
X99997756Y-71245264D01*
X100226128Y-70693924D01*
X100270666Y-70527702D01*
X100274161Y-70501155D01*
X100647800Y-70501155D01*
X100647800Y-71230845D01*
X100927040Y-71904991D01*
X101443009Y-72420960D01*
X102117155Y-72700200D01*
X102846845Y-72700200D01*
X103520991Y-72420960D01*
X104036960Y-71904991D01*
X104316200Y-71230845D01*
X104316200Y-70501155D01*
X108147800Y-70501155D01*
X108147800Y-71230845D01*
X108427040Y-71904991D01*
X108943009Y-72420960D01*
X109617155Y-72700200D01*
X110346845Y-72700200D01*
X111020991Y-72420960D01*
X111536960Y-71904991D01*
X111816200Y-71230845D01*
X111816200Y-70501155D01*
X111536960Y-69827009D01*
X111020991Y-69311040D01*
X110346845Y-69031800D01*
X109617155Y-69031800D01*
X108943009Y-69311040D01*
X108427040Y-69827009D01*
X108147800Y-70501155D01*
X104316200Y-70501155D01*
X104036960Y-69827009D01*
X103520991Y-69311040D01*
X102846845Y-69031800D01*
X102117155Y-69031800D01*
X101443009Y-69311040D01*
X100927040Y-69827009D01*
X100647800Y-70501155D01*
X100274161Y-70501155D01*
X100345744Y-69957434D01*
X100354200Y-69914923D01*
X100354200Y-53910077D01*
X100345744Y-53867566D01*
X100270666Y-53297297D01*
X100253517Y-53233295D01*
X100226128Y-53131076D01*
X99997756Y-52579736D01*
X99962820Y-52519225D01*
X99911713Y-52430705D01*
X99548424Y-51957258D01*
X99426740Y-51835574D01*
X98953296Y-51472288D01*
X98922850Y-51454710D01*
X98804265Y-51386244D01*
X98252924Y-51157872D01*
X98122243Y-51122857D01*
X98086703Y-51113334D01*
X97516436Y-51038257D01*
X97473923Y-51029800D01*
X96489890Y-51029800D01*
X95798090Y-50959530D01*
X95166574Y-50761625D01*
X94696676Y-50501155D01*
X100647800Y-50501155D01*
X100647800Y-51230845D01*
X100927040Y-51904991D01*
X100931280Y-51909231D01*
X101089433Y-52275363D01*
X101200581Y-52448573D01*
X101537098Y-52822127D01*
X101612209Y-52892964D01*
X101838319Y-53073852D01*
X101896469Y-53115235D01*
X102336669Y-53392621D01*
X102465011Y-53454590D01*
X102955987Y-53626815D01*
X103094916Y-53658600D01*
X103611937Y-53716989D01*
X103683197Y-53721000D01*
X107572332Y-53721000D01*
X107444034Y-54366000D01*
X107492800Y-54611164D01*
X107492801Y-59952832D01*
X107444034Y-60198000D01*
X107637225Y-61169238D01*
X108187387Y-61992613D01*
X109010762Y-62542775D01*
X109736836Y-62687200D01*
X109736837Y-62687200D01*
X109982000Y-62735966D01*
X110227164Y-62687200D01*
X113800836Y-62687200D01*
X114046000Y-62735966D01*
X114291163Y-62687200D01*
X114291164Y-62687200D01*
X115017238Y-62542775D01*
X115840613Y-61992613D01*
X116390775Y-61169238D01*
X116583966Y-60198000D01*
X116535200Y-59952836D01*
X116535200Y-57141163D01*
X116583966Y-56896000D01*
X116390775Y-55924762D01*
X115979487Y-55309226D01*
X115979486Y-55309225D01*
X115840613Y-55101387D01*
X115632775Y-54962514D01*
X115026261Y-54356000D01*
X118237000Y-54356000D01*
X118237000Y-62484000D01*
X118285336Y-62727004D01*
X118422987Y-62933013D01*
X118628996Y-63070664D01*
X118872000Y-63119000D01*
X123894199Y-63119000D01*
X125692957Y-64917758D01*
X125750349Y-65003651D01*
X126090621Y-65231014D01*
X126390684Y-65290700D01*
X126390688Y-65290700D01*
X126491999Y-65310852D01*
X126593310Y-65290700D01*
X130911316Y-65290700D01*
X131211379Y-65231014D01*
X131551651Y-65003651D01*
X131779014Y-64663379D01*
X131858853Y-64262000D01*
X131779014Y-63860621D01*
X131551651Y-63520349D01*
X131211379Y-63292986D01*
X130911316Y-63233300D01*
X126918101Y-63233300D01*
X126752382Y-63067581D01*
X126756996Y-63070664D01*
X127000000Y-63119000D01*
X131064000Y-63119000D01*
X131307004Y-63070664D01*
X131513013Y-62933013D01*
X131650664Y-62727004D01*
X131699000Y-62484000D01*
X131699000Y-59710000D01*
X133909355Y-59710000D01*
X133909355Y-62210000D01*
X133954696Y-62437943D01*
X134083815Y-62631185D01*
X134277057Y-62760304D01*
X134505000Y-62805645D01*
X136005000Y-62805645D01*
X136232943Y-62760304D01*
X136426185Y-62631185D01*
X136555304Y-62437943D01*
X136600645Y-62210000D01*
X136600645Y-62152585D01*
X136905460Y-62529145D01*
X137382316Y-62788173D01*
X137453815Y-62802318D01*
X137668000Y-62679656D01*
X137668000Y-61087000D01*
X137648000Y-61087000D01*
X137648000Y-60833000D01*
X137668000Y-60833000D01*
X137668000Y-59240344D01*
X137922000Y-59240344D01*
X137922000Y-60833000D01*
X137942000Y-60833000D01*
X137942000Y-61087000D01*
X137922000Y-61087000D01*
X137922000Y-62679656D01*
X138136185Y-62802318D01*
X138207684Y-62788173D01*
X138684540Y-62529145D01*
X139025972Y-62107349D01*
X139072298Y-61950847D01*
X139078212Y-61980579D01*
X139373097Y-62421904D01*
X139814422Y-62716788D01*
X140335000Y-62820338D01*
X140855579Y-62716788D01*
X141296904Y-62421904D01*
X141591788Y-61980579D01*
X141669200Y-61591404D01*
X141669200Y-60694611D01*
X151065800Y-60694611D01*
X151065800Y-61225389D01*
X151268919Y-61715764D01*
X151644236Y-62091081D01*
X152134611Y-62294200D01*
X152665389Y-62294200D01*
X153155764Y-62091081D01*
X153315328Y-61931517D01*
X154148088Y-61931517D01*
X154216077Y-62172460D01*
X154735171Y-62357201D01*
X155285448Y-62329230D01*
X155663923Y-62172460D01*
X155731912Y-61931517D01*
X154940000Y-61139605D01*
X154148088Y-61931517D01*
X153315328Y-61931517D01*
X153531081Y-61715764D01*
X153635905Y-61462696D01*
X153727540Y-61683923D01*
X153968483Y-61751912D01*
X154760395Y-60960000D01*
X155119605Y-60960000D01*
X155911517Y-61751912D01*
X156152460Y-61683923D01*
X156237155Y-61445942D01*
X156348919Y-61715764D01*
X156724236Y-62091081D01*
X157214611Y-62294200D01*
X157745389Y-62294200D01*
X158235764Y-62091081D01*
X158611081Y-61715764D01*
X158750000Y-61380382D01*
X158888919Y-61715764D01*
X159264236Y-62091081D01*
X159754611Y-62294200D01*
X160285389Y-62294200D01*
X160775764Y-62091081D01*
X161151081Y-61715764D01*
X161354200Y-61225389D01*
X161354200Y-60694611D01*
X161151081Y-60204236D01*
X160775764Y-59828919D01*
X160623006Y-59765645D01*
X162040000Y-59765645D01*
X162267943Y-59720304D01*
X162461185Y-59591185D01*
X162590304Y-59397943D01*
X162635645Y-59170000D01*
X162635645Y-57670000D01*
X162590304Y-57442057D01*
X162461185Y-57248815D01*
X162267943Y-57119696D01*
X162040000Y-57074355D01*
X160540000Y-57074355D01*
X160312057Y-57119696D01*
X160118815Y-57248815D01*
X159989696Y-57442057D01*
X159944355Y-57670000D01*
X159944355Y-57690968D01*
X159721517Y-57628088D01*
X158929605Y-58420000D01*
X159721517Y-59211912D01*
X159944355Y-59149032D01*
X159944355Y-59170000D01*
X159989696Y-59397943D01*
X160118815Y-59591185D01*
X160170620Y-59625800D01*
X159754611Y-59625800D01*
X159264236Y-59828919D01*
X158888919Y-60204236D01*
X158750000Y-60539618D01*
X158611081Y-60204236D01*
X158235764Y-59828919D01*
X157745389Y-59625800D01*
X157214611Y-59625800D01*
X156724236Y-59828919D01*
X156348919Y-60204236D01*
X156244095Y-60457304D01*
X156152460Y-60236077D01*
X155911517Y-60168088D01*
X155119605Y-60960000D01*
X154760395Y-60960000D01*
X153968483Y-60168088D01*
X153727540Y-60236077D01*
X153642845Y-60474058D01*
X153531081Y-60204236D01*
X153315328Y-59988483D01*
X154148088Y-59988483D01*
X154940000Y-60780395D01*
X155731912Y-59988483D01*
X155663923Y-59747540D01*
X155144829Y-59562799D01*
X154594552Y-59590770D01*
X154216077Y-59747540D01*
X154148088Y-59988483D01*
X153315328Y-59988483D01*
X153155764Y-59828919D01*
X152665389Y-59625800D01*
X152134611Y-59625800D01*
X151644236Y-59828919D01*
X151268919Y-60204236D01*
X151065800Y-60694611D01*
X141669200Y-60694611D01*
X141669200Y-60328596D01*
X141591788Y-59939421D01*
X141296903Y-59498096D01*
X140855578Y-59203212D01*
X140335000Y-59099662D01*
X139814421Y-59203212D01*
X139373096Y-59498097D01*
X139078212Y-59939422D01*
X139072298Y-59969153D01*
X139025972Y-59812651D01*
X138684540Y-59390855D01*
X138207684Y-59131827D01*
X138136185Y-59117682D01*
X137922000Y-59240344D01*
X137668000Y-59240344D01*
X137453815Y-59117682D01*
X137382316Y-59131827D01*
X136905460Y-59390855D01*
X136600645Y-59767415D01*
X136600645Y-59710000D01*
X136555304Y-59482057D01*
X136426185Y-59288815D01*
X136232943Y-59159696D01*
X136005000Y-59114355D01*
X134505000Y-59114355D01*
X134277057Y-59159696D01*
X134083815Y-59288815D01*
X133954696Y-59482057D01*
X133909355Y-59710000D01*
X131699000Y-59710000D01*
X131699000Y-58154611D01*
X152335800Y-58154611D01*
X152335800Y-58685389D01*
X152538919Y-59175764D01*
X152914236Y-59551081D01*
X153404611Y-59754200D01*
X153935389Y-59754200D01*
X154425764Y-59551081D01*
X154801081Y-59175764D01*
X154940000Y-58840382D01*
X155078919Y-59175764D01*
X155454236Y-59551081D01*
X155944611Y-59754200D01*
X156475389Y-59754200D01*
X156965764Y-59551081D01*
X157125328Y-59391517D01*
X157958088Y-59391517D01*
X158026077Y-59632460D01*
X158545171Y-59817201D01*
X159095448Y-59789230D01*
X159473923Y-59632460D01*
X159541912Y-59391517D01*
X158750000Y-58599605D01*
X157958088Y-59391517D01*
X157125328Y-59391517D01*
X157341081Y-59175764D01*
X157445905Y-58922696D01*
X157537540Y-59143923D01*
X157778483Y-59211912D01*
X158570395Y-58420000D01*
X157778483Y-57628088D01*
X157537540Y-57696077D01*
X157452845Y-57934058D01*
X157341081Y-57664236D01*
X157125328Y-57448483D01*
X157958088Y-57448483D01*
X158750000Y-58240395D01*
X159541912Y-57448483D01*
X159473923Y-57207540D01*
X158954829Y-57022799D01*
X158404552Y-57050770D01*
X158026077Y-57207540D01*
X157958088Y-57448483D01*
X157125328Y-57448483D01*
X156965764Y-57288919D01*
X156475389Y-57085800D01*
X155944611Y-57085800D01*
X155454236Y-57288919D01*
X155078919Y-57664236D01*
X154940000Y-57999618D01*
X154801081Y-57664236D01*
X154425764Y-57288919D01*
X153935389Y-57085800D01*
X153404611Y-57085800D01*
X152914236Y-57288919D01*
X152538919Y-57664236D01*
X152335800Y-58154611D01*
X131699000Y-58154611D01*
X131699000Y-54356000D01*
X131682631Y-54212749D01*
X131580721Y-53986914D01*
X129901166Y-51635536D01*
X148945800Y-51635536D01*
X148945800Y-52504464D01*
X149278325Y-53307250D01*
X149892750Y-53921675D01*
X150695536Y-54254200D01*
X151564464Y-54254200D01*
X152367250Y-53921675D01*
X152981675Y-53307250D01*
X153314200Y-52504464D01*
X153314200Y-51635536D01*
X160375800Y-51635536D01*
X160375800Y-52504464D01*
X160708325Y-53307250D01*
X161322750Y-53921675D01*
X162125536Y-54254200D01*
X162994464Y-54254200D01*
X163797250Y-53921675D01*
X164411675Y-53307250D01*
X164744200Y-52504464D01*
X164744200Y-51635536D01*
X164411675Y-50832750D01*
X163797250Y-50218325D01*
X162994464Y-49885800D01*
X162125536Y-49885800D01*
X161322750Y-50218325D01*
X160708325Y-50832750D01*
X160375800Y-51635536D01*
X153314200Y-51635536D01*
X152981675Y-50832750D01*
X152367250Y-50218325D01*
X151564464Y-49885800D01*
X150695536Y-49885800D01*
X149892750Y-50218325D01*
X149278325Y-50832750D01*
X148945800Y-51635536D01*
X129901166Y-51635536D01*
X129375396Y-50899459D01*
X129780146Y-50899459D01*
X129915504Y-51197455D01*
X130633880Y-51474066D01*
X131403427Y-51454710D01*
X132024496Y-51197455D01*
X132159854Y-50899459D01*
X134780146Y-50899459D01*
X134915504Y-51197455D01*
X135633880Y-51474066D01*
X136403427Y-51454710D01*
X137024496Y-51197455D01*
X137159854Y-50899459D01*
X135970000Y-49709605D01*
X134780146Y-50899459D01*
X132159854Y-50899459D01*
X130970000Y-49709605D01*
X129780146Y-50899459D01*
X129375396Y-50899459D01*
X129052100Y-50446845D01*
X128268998Y-49193880D01*
X129025934Y-49193880D01*
X129045290Y-49963427D01*
X129302545Y-50584496D01*
X129600541Y-50719854D01*
X130790395Y-49530000D01*
X131149605Y-49530000D01*
X132339459Y-50719854D01*
X132637455Y-50584496D01*
X132914066Y-49866120D01*
X132897158Y-49193880D01*
X134025934Y-49193880D01*
X134045290Y-49963427D01*
X134302545Y-50584496D01*
X134600541Y-50719854D01*
X135790395Y-49530000D01*
X136149605Y-49530000D01*
X137339459Y-50719854D01*
X137637455Y-50584496D01*
X137914066Y-49866120D01*
X137912800Y-49815750D01*
X139035000Y-49815750D01*
X139035000Y-50956310D01*
X139131673Y-51189699D01*
X139310302Y-51368327D01*
X139543691Y-51465000D01*
X140684250Y-51465000D01*
X140843000Y-51306250D01*
X140843000Y-49657000D01*
X141097000Y-49657000D01*
X141097000Y-51306250D01*
X141255750Y-51465000D01*
X142396309Y-51465000D01*
X142629698Y-51368327D01*
X142808327Y-51189699D01*
X142905000Y-50956310D01*
X142905000Y-49815750D01*
X142746250Y-49657000D01*
X141097000Y-49657000D01*
X140843000Y-49657000D01*
X139193750Y-49657000D01*
X139035000Y-49815750D01*
X137912800Y-49815750D01*
X137894710Y-49096573D01*
X137637455Y-48475504D01*
X137339459Y-48340146D01*
X136149605Y-49530000D01*
X135790395Y-49530000D01*
X134600541Y-48340146D01*
X134302545Y-48475504D01*
X134025934Y-49193880D01*
X132897158Y-49193880D01*
X132894710Y-49096573D01*
X132637455Y-48475504D01*
X132339459Y-48340146D01*
X131149605Y-49530000D01*
X130790395Y-49530000D01*
X129600541Y-48340146D01*
X129302545Y-48475504D01*
X129025934Y-49193880D01*
X128268998Y-49193880D01*
X127792479Y-48431451D01*
X127708454Y-48324495D01*
X127504139Y-48184343D01*
X127391664Y-48160541D01*
X129780146Y-48160541D01*
X130970000Y-49350395D01*
X132159854Y-48160541D01*
X134780146Y-48160541D01*
X135970000Y-49350395D01*
X137159854Y-48160541D01*
X137134031Y-48103690D01*
X139035000Y-48103690D01*
X139035000Y-49244250D01*
X139193750Y-49403000D01*
X140843000Y-49403000D01*
X140843000Y-47753750D01*
X141097000Y-47753750D01*
X141097000Y-49403000D01*
X142746250Y-49403000D01*
X142905000Y-49244250D01*
X142905000Y-48103690D01*
X142808327Y-47870301D01*
X142629698Y-47691673D01*
X142396309Y-47595000D01*
X141255750Y-47595000D01*
X141097000Y-47753750D01*
X140843000Y-47753750D01*
X140684250Y-47595000D01*
X139543691Y-47595000D01*
X139310302Y-47691673D01*
X139131673Y-47870301D01*
X139035000Y-48103690D01*
X137134031Y-48103690D01*
X137024496Y-47862545D01*
X136306120Y-47585934D01*
X135536573Y-47605290D01*
X134915504Y-47862545D01*
X134780146Y-48160541D01*
X132159854Y-48160541D01*
X132024496Y-47862545D01*
X131306120Y-47585934D01*
X130536573Y-47605290D01*
X129915504Y-47862545D01*
X129780146Y-48160541D01*
X127391664Y-48160541D01*
X127261742Y-48133047D01*
X127241483Y-48136821D01*
X127037314Y-47932652D01*
X126344791Y-47645800D01*
X125595209Y-47645800D01*
X124902686Y-47932652D01*
X124372652Y-48462686D01*
X124085800Y-49155209D01*
X124085800Y-49708253D01*
X124082252Y-49719821D01*
X124085800Y-49757015D01*
X124085800Y-49904791D01*
X124104114Y-49949006D01*
X124105780Y-49966466D01*
X124867780Y-52506466D01*
X124931492Y-52650705D01*
X126365000Y-55039885D01*
X126365000Y-62484000D01*
X126413336Y-62727004D01*
X126416419Y-62731618D01*
X125603000Y-61918199D01*
X125603000Y-54356000D01*
X125521450Y-54044684D01*
X123459200Y-50378462D01*
X123459200Y-49284836D01*
X123314775Y-48558762D01*
X122764613Y-47735387D01*
X122139255Y-47317536D01*
X167233800Y-47317536D01*
X167233800Y-48186464D01*
X167566325Y-48989250D01*
X168180750Y-49603675D01*
X168983536Y-49936200D01*
X169852464Y-49936200D01*
X170655250Y-49603675D01*
X171269675Y-48989250D01*
X171602200Y-48186464D01*
X171602200Y-47317536D01*
X171269675Y-46514750D01*
X170655250Y-45900325D01*
X169852464Y-45567800D01*
X168983536Y-45567800D01*
X168180750Y-45900325D01*
X167566325Y-46514750D01*
X167233800Y-47317536D01*
X122139255Y-47317536D01*
X121941237Y-47185225D01*
X120970000Y-46992034D01*
X119998762Y-47185225D01*
X119175387Y-47735387D01*
X118625225Y-48558763D01*
X118480800Y-49284837D01*
X118480800Y-50435382D01*
X118238237Y-54316390D01*
X118237000Y-54356000D01*
X115026261Y-54356000D01*
X113947484Y-53277223D01*
X113910041Y-53221187D01*
X114299991Y-53071060D01*
X114384330Y-53031251D01*
X115196206Y-52572310D01*
X115235956Y-52547871D01*
X116706542Y-51567480D01*
X116787984Y-51502970D01*
X117183708Y-51132981D01*
X117309894Y-50968769D01*
X117441154Y-50723508D01*
X117567348Y-50597314D01*
X117854200Y-49904791D01*
X117854200Y-49155209D01*
X117567348Y-48462686D01*
X117037314Y-47932652D01*
X116823214Y-47843969D01*
X116787984Y-47811030D01*
X116706553Y-47746527D01*
X116684246Y-47731655D01*
X116630849Y-47699719D01*
X116108598Y-47421155D01*
X115993762Y-47373683D01*
X115427261Y-47202160D01*
X115305378Y-47177960D01*
X114716320Y-47120047D01*
X114654190Y-47117000D01*
X111816200Y-47117000D01*
X111816200Y-47001155D01*
X111536960Y-46327009D01*
X111020991Y-45811040D01*
X110346845Y-45531800D01*
X109617155Y-45531800D01*
X108943009Y-45811040D01*
X108427040Y-46327009D01*
X108147800Y-47001155D01*
X108147800Y-47117000D01*
X106699318Y-47117000D01*
X106641017Y-47119682D01*
X105479917Y-47226738D01*
X105365280Y-47248059D01*
X104243330Y-47565618D01*
X104134524Y-47607541D01*
X103089555Y-48124896D01*
X103038497Y-48153167D01*
X101818711Y-48903804D01*
X101747991Y-48954306D01*
X101434604Y-49212226D01*
X101317020Y-49339658D01*
X101093728Y-49660321D01*
X100927040Y-49827009D01*
X100647800Y-50501155D01*
X94696676Y-50501155D01*
X94587751Y-50440777D01*
X94085267Y-50010097D01*
X93679647Y-49487175D01*
X93387457Y-48893366D01*
X93220638Y-48252939D01*
X93186001Y-47592043D01*
X93227516Y-47317536D01*
X94335800Y-47317536D01*
X94335800Y-48186464D01*
X94668325Y-48989250D01*
X95282750Y-49603675D01*
X96085536Y-49936200D01*
X96954464Y-49936200D01*
X97757250Y-49603675D01*
X98371675Y-48989250D01*
X98704200Y-48186464D01*
X98704200Y-47317536D01*
X98371675Y-46514750D01*
X97757250Y-45900325D01*
X96954464Y-45567800D01*
X96085536Y-45567800D01*
X95282750Y-45900325D01*
X94668325Y-46514750D01*
X94335800Y-47317536D01*
X93227516Y-47317536D01*
X93284963Y-46937691D01*
X93513481Y-46316594D01*
X93862220Y-45754136D01*
X94316935Y-45273288D01*
X94859050Y-44893697D01*
X95466421Y-44630864D01*
X96130119Y-44492210D01*
X96473769Y-44474200D01*
X169384610Y-44474200D01*
X170076411Y-44544470D01*
G36*
X136454778Y-73577160D02*
X136471911Y-73602801D01*
X130982036Y-73602801D01*
X130823677Y-73444442D01*
X130782584Y-73382942D01*
X130538933Y-73220139D01*
X130324070Y-73177400D01*
X130324066Y-73177400D01*
X130251526Y-73162971D01*
X130178986Y-73177400D01*
X127590033Y-73177400D01*
X127566861Y-73060908D01*
X127404058Y-72817257D01*
X127342558Y-72776164D01*
X126212600Y-71646206D01*
X126212600Y-70251270D01*
X126310365Y-70153505D01*
X126460200Y-69791770D01*
X126460200Y-69462599D01*
X132340218Y-69462599D01*
X136454778Y-73577160D01*
X136454778Y-73577160D01*
G37*
X136454778Y-73577160D02*
X136471911Y-73602801D01*
X130982036Y-73602801D01*
X130823677Y-73444442D01*
X130782584Y-73382942D01*
X130538933Y-73220139D01*
X130324070Y-73177400D01*
X130324066Y-73177400D01*
X130251526Y-73162971D01*
X130178986Y-73177400D01*
X127590033Y-73177400D01*
X127566861Y-73060908D01*
X127404058Y-72817257D01*
X127342558Y-72776164D01*
X126212600Y-71646206D01*
X126212600Y-70251270D01*
X126310365Y-70153505D01*
X126460200Y-69791770D01*
X126460200Y-69462599D01*
X132340218Y-69462599D01*
X136454778Y-73577160D01*
G36*
X152843850Y-66763560D02*
X152884942Y-66825058D01*
X152888447Y-66827400D01*
X140538835Y-66827400D01*
X141300825Y-66065410D01*
X152145701Y-66065410D01*
X152843850Y-66763560D01*
X152843850Y-66763560D01*
G37*
X152843850Y-66763560D02*
X152884942Y-66825058D01*
X152888447Y-66827400D01*
X140538835Y-66827400D01*
X141300825Y-66065410D01*
X152145701Y-66065410D01*
X152843850Y-66763560D01*
G36*
X143891000Y-51943000D02*
X130498716Y-51943000D01*
X128778000Y-49239018D01*
X128778000Y-47117000D01*
X143891000Y-47117000D01*
X143891000Y-51943000D01*
X143891000Y-51943000D01*
G37*
X143891000Y-51943000D02*
X130498716Y-51943000D01*
X128778000Y-49239018D01*
X128778000Y-47117000D01*
X143891000Y-47117000D01*
X143891000Y-51943000D01*
G04 #@! TD*
M02*
