G04 #@! TF.GenerationSoftware,KiCad,Pcbnew,(5.0.0)*
G04 #@! TF.CreationDate,2018-10-13T15:52:45-04:00*
G04 #@! TF.ProjectId,GLVColoumbCounterTest,474C56436F6C6F756D62436F756E7465,rev?*
G04 #@! TF.SameCoordinates,Original*
G04 #@! TF.FileFunction,Soldermask,Top*
G04 #@! TF.FilePolarity,Negative*
%FSLAX46Y46*%
G04 Gerber Fmt 4.6, Leading zero omitted, Abs format (unit mm)*
G04 Created by KiCad (PCBNEW (5.0.0)) date 10/13/18 15:52:45*
%MOMM*%
%LPD*%
G01*
G04 APERTURE LIST*
%ADD10C,3.301600*%
%ADD11C,2.601600*%
%ADD12R,1.701600X0.651600*%
%ADD13R,0.651600X1.701600*%
%ADD14R,1.601600X1.601600*%
%ADD15C,1.601600*%
%ADD16C,0.100000*%
%ADD17C,0.976600*%
%ADD18R,2.701600X2.701600*%
%ADD19C,2.701600*%
%ADD20R,1.001600X0.901600*%
%ADD21R,1.601600X2.601600*%
%ADD22O,1.601600X2.601600*%
%ADD23R,1.651600X0.701600*%
%ADD24R,0.701600X1.651600*%
%ADD25R,1.551600X0.551600*%
%ADD26C,1.451600*%
%ADD27R,1.801600X1.801600*%
%ADD28O,1.801600X1.801600*%
%ADD29R,1.001600X1.301600*%
G04 APERTURE END LIST*
D10*
G04 #@! TO.C,REF\002A\002A*
X169418000Y-47752000D03*
G04 #@! TD*
G04 #@! TO.C,REF\002A\002A*
X169418000Y-76073000D03*
G04 #@! TD*
G04 #@! TO.C,REF\002A\002A*
X96520000Y-47752000D03*
G04 #@! TD*
G04 #@! TO.C,REF\002A\002A*
X96520000Y-76073000D03*
G04 #@! TD*
D11*
G04 #@! TO.C,K1*
X109982000Y-54366000D03*
X102482000Y-50866000D03*
X109982000Y-47366000D03*
X102482000Y-70866000D03*
X109982000Y-70866000D03*
G04 #@! TD*
D12*
G04 #@! TO.C,U4*
X143696000Y-74428000D03*
X143696000Y-73628000D03*
X143696000Y-72828000D03*
X143696000Y-72028000D03*
X143696000Y-71228000D03*
X143696000Y-70428000D03*
X143696000Y-69628000D03*
X143696000Y-68828000D03*
D13*
X142246000Y-67378000D03*
X141446000Y-67378000D03*
X140646000Y-67378000D03*
X139846000Y-67378000D03*
X139046000Y-67378000D03*
X138246000Y-67378000D03*
X137446000Y-67378000D03*
X136646000Y-67378000D03*
D12*
X135196000Y-68828000D03*
X135196000Y-69628000D03*
X135196000Y-70428000D03*
X135196000Y-71228000D03*
X135196000Y-72028000D03*
X135196000Y-72828000D03*
X135196000Y-73628000D03*
X135196000Y-74428000D03*
D13*
X136646000Y-75878000D03*
X137446000Y-75878000D03*
X138246000Y-75878000D03*
X139046000Y-75878000D03*
X139846000Y-75878000D03*
X140646000Y-75878000D03*
X141446000Y-75878000D03*
X142246000Y-75878000D03*
G04 #@! TD*
D10*
G04 #@! TO.C,J2*
X151130000Y-52070000D03*
X162560000Y-52070000D03*
D14*
X161290000Y-58420000D03*
D15*
X160020000Y-60960000D03*
X158750000Y-58420000D03*
X157480000Y-60960000D03*
X156210000Y-58420000D03*
X154940000Y-60960000D03*
X153670000Y-58420000D03*
X152400000Y-60960000D03*
G04 #@! TD*
D16*
G04 #@! TO.C,C1*
G36*
X139968081Y-63737376D02*
X139991781Y-63740891D01*
X140015023Y-63746713D01*
X140037582Y-63754785D01*
X140059242Y-63765029D01*
X140079792Y-63777347D01*
X140099037Y-63791619D01*
X140116790Y-63807710D01*
X140132881Y-63825463D01*
X140147153Y-63844708D01*
X140159471Y-63865258D01*
X140169715Y-63886918D01*
X140177787Y-63909477D01*
X140183609Y-63932719D01*
X140187124Y-63956419D01*
X140188300Y-63980350D01*
X140188300Y-64543650D01*
X140187124Y-64567581D01*
X140183609Y-64591281D01*
X140177787Y-64614523D01*
X140169715Y-64637082D01*
X140159471Y-64658742D01*
X140147153Y-64679292D01*
X140132881Y-64698537D01*
X140116790Y-64716290D01*
X140099037Y-64732381D01*
X140079792Y-64746653D01*
X140059242Y-64758971D01*
X140037582Y-64769215D01*
X140015023Y-64777287D01*
X139991781Y-64783109D01*
X139968081Y-64786624D01*
X139944150Y-64787800D01*
X139455850Y-64787800D01*
X139431919Y-64786624D01*
X139408219Y-64783109D01*
X139384977Y-64777287D01*
X139362418Y-64769215D01*
X139340758Y-64758971D01*
X139320208Y-64746653D01*
X139300963Y-64732381D01*
X139283210Y-64716290D01*
X139267119Y-64698537D01*
X139252847Y-64679292D01*
X139240529Y-64658742D01*
X139230285Y-64637082D01*
X139222213Y-64614523D01*
X139216391Y-64591281D01*
X139212876Y-64567581D01*
X139211700Y-64543650D01*
X139211700Y-63980350D01*
X139212876Y-63956419D01*
X139216391Y-63932719D01*
X139222213Y-63909477D01*
X139230285Y-63886918D01*
X139240529Y-63865258D01*
X139252847Y-63844708D01*
X139267119Y-63825463D01*
X139283210Y-63807710D01*
X139300963Y-63791619D01*
X139320208Y-63777347D01*
X139340758Y-63765029D01*
X139362418Y-63754785D01*
X139384977Y-63746713D01*
X139408219Y-63740891D01*
X139431919Y-63737376D01*
X139455850Y-63736200D01*
X139944150Y-63736200D01*
X139968081Y-63737376D01*
X139968081Y-63737376D01*
G37*
D17*
X139700000Y-64262000D03*
D16*
G36*
X141543081Y-63737376D02*
X141566781Y-63740891D01*
X141590023Y-63746713D01*
X141612582Y-63754785D01*
X141634242Y-63765029D01*
X141654792Y-63777347D01*
X141674037Y-63791619D01*
X141691790Y-63807710D01*
X141707881Y-63825463D01*
X141722153Y-63844708D01*
X141734471Y-63865258D01*
X141744715Y-63886918D01*
X141752787Y-63909477D01*
X141758609Y-63932719D01*
X141762124Y-63956419D01*
X141763300Y-63980350D01*
X141763300Y-64543650D01*
X141762124Y-64567581D01*
X141758609Y-64591281D01*
X141752787Y-64614523D01*
X141744715Y-64637082D01*
X141734471Y-64658742D01*
X141722153Y-64679292D01*
X141707881Y-64698537D01*
X141691790Y-64716290D01*
X141674037Y-64732381D01*
X141654792Y-64746653D01*
X141634242Y-64758971D01*
X141612582Y-64769215D01*
X141590023Y-64777287D01*
X141566781Y-64783109D01*
X141543081Y-64786624D01*
X141519150Y-64787800D01*
X141030850Y-64787800D01*
X141006919Y-64786624D01*
X140983219Y-64783109D01*
X140959977Y-64777287D01*
X140937418Y-64769215D01*
X140915758Y-64758971D01*
X140895208Y-64746653D01*
X140875963Y-64732381D01*
X140858210Y-64716290D01*
X140842119Y-64698537D01*
X140827847Y-64679292D01*
X140815529Y-64658742D01*
X140805285Y-64637082D01*
X140797213Y-64614523D01*
X140791391Y-64591281D01*
X140787876Y-64567581D01*
X140786700Y-64543650D01*
X140786700Y-63980350D01*
X140787876Y-63956419D01*
X140791391Y-63932719D01*
X140797213Y-63909477D01*
X140805285Y-63886918D01*
X140815529Y-63865258D01*
X140827847Y-63844708D01*
X140842119Y-63825463D01*
X140858210Y-63807710D01*
X140875963Y-63791619D01*
X140895208Y-63777347D01*
X140915758Y-63765029D01*
X140937418Y-63754785D01*
X140959977Y-63746713D01*
X140983219Y-63740891D01*
X141006919Y-63737376D01*
X141030850Y-63736200D01*
X141519150Y-63736200D01*
X141543081Y-63737376D01*
X141543081Y-63737376D01*
G37*
D17*
X141275000Y-64262000D03*
G04 #@! TD*
D16*
G04 #@! TO.C,C2*
G36*
X163627581Y-63977876D02*
X163651281Y-63981391D01*
X163674523Y-63987213D01*
X163697082Y-63995285D01*
X163718742Y-64005529D01*
X163739292Y-64017847D01*
X163758537Y-64032119D01*
X163776290Y-64048210D01*
X163792381Y-64065963D01*
X163806653Y-64085208D01*
X163818971Y-64105758D01*
X163829215Y-64127418D01*
X163837287Y-64149977D01*
X163843109Y-64173219D01*
X163846624Y-64196919D01*
X163847800Y-64220850D01*
X163847800Y-64709150D01*
X163846624Y-64733081D01*
X163843109Y-64756781D01*
X163837287Y-64780023D01*
X163829215Y-64802582D01*
X163818971Y-64824242D01*
X163806653Y-64844792D01*
X163792381Y-64864037D01*
X163776290Y-64881790D01*
X163758537Y-64897881D01*
X163739292Y-64912153D01*
X163718742Y-64924471D01*
X163697082Y-64934715D01*
X163674523Y-64942787D01*
X163651281Y-64948609D01*
X163627581Y-64952124D01*
X163603650Y-64953300D01*
X163040350Y-64953300D01*
X163016419Y-64952124D01*
X162992719Y-64948609D01*
X162969477Y-64942787D01*
X162946918Y-64934715D01*
X162925258Y-64924471D01*
X162904708Y-64912153D01*
X162885463Y-64897881D01*
X162867710Y-64881790D01*
X162851619Y-64864037D01*
X162837347Y-64844792D01*
X162825029Y-64824242D01*
X162814785Y-64802582D01*
X162806713Y-64780023D01*
X162800891Y-64756781D01*
X162797376Y-64733081D01*
X162796200Y-64709150D01*
X162796200Y-64220850D01*
X162797376Y-64196919D01*
X162800891Y-64173219D01*
X162806713Y-64149977D01*
X162814785Y-64127418D01*
X162825029Y-64105758D01*
X162837347Y-64085208D01*
X162851619Y-64065963D01*
X162867710Y-64048210D01*
X162885463Y-64032119D01*
X162904708Y-64017847D01*
X162925258Y-64005529D01*
X162946918Y-63995285D01*
X162969477Y-63987213D01*
X162992719Y-63981391D01*
X163016419Y-63977876D01*
X163040350Y-63976700D01*
X163603650Y-63976700D01*
X163627581Y-63977876D01*
X163627581Y-63977876D01*
G37*
D17*
X163322000Y-64465000D03*
D16*
G36*
X163627581Y-65552876D02*
X163651281Y-65556391D01*
X163674523Y-65562213D01*
X163697082Y-65570285D01*
X163718742Y-65580529D01*
X163739292Y-65592847D01*
X163758537Y-65607119D01*
X163776290Y-65623210D01*
X163792381Y-65640963D01*
X163806653Y-65660208D01*
X163818971Y-65680758D01*
X163829215Y-65702418D01*
X163837287Y-65724977D01*
X163843109Y-65748219D01*
X163846624Y-65771919D01*
X163847800Y-65795850D01*
X163847800Y-66284150D01*
X163846624Y-66308081D01*
X163843109Y-66331781D01*
X163837287Y-66355023D01*
X163829215Y-66377582D01*
X163818971Y-66399242D01*
X163806653Y-66419792D01*
X163792381Y-66439037D01*
X163776290Y-66456790D01*
X163758537Y-66472881D01*
X163739292Y-66487153D01*
X163718742Y-66499471D01*
X163697082Y-66509715D01*
X163674523Y-66517787D01*
X163651281Y-66523609D01*
X163627581Y-66527124D01*
X163603650Y-66528300D01*
X163040350Y-66528300D01*
X163016419Y-66527124D01*
X162992719Y-66523609D01*
X162969477Y-66517787D01*
X162946918Y-66509715D01*
X162925258Y-66499471D01*
X162904708Y-66487153D01*
X162885463Y-66472881D01*
X162867710Y-66456790D01*
X162851619Y-66439037D01*
X162837347Y-66419792D01*
X162825029Y-66399242D01*
X162814785Y-66377582D01*
X162806713Y-66355023D01*
X162800891Y-66331781D01*
X162797376Y-66308081D01*
X162796200Y-66284150D01*
X162796200Y-65795850D01*
X162797376Y-65771919D01*
X162800891Y-65748219D01*
X162806713Y-65724977D01*
X162814785Y-65702418D01*
X162825029Y-65680758D01*
X162837347Y-65660208D01*
X162851619Y-65640963D01*
X162867710Y-65623210D01*
X162885463Y-65607119D01*
X162904708Y-65592847D01*
X162925258Y-65580529D01*
X162946918Y-65570285D01*
X162969477Y-65562213D01*
X162992719Y-65556391D01*
X163016419Y-65552876D01*
X163040350Y-65551700D01*
X163603650Y-65551700D01*
X163627581Y-65552876D01*
X163627581Y-65552876D01*
G37*
D17*
X163322000Y-66040000D03*
G04 #@! TD*
D16*
G04 #@! TO.C,C3*
G36*
X136615081Y-63737376D02*
X136638781Y-63740891D01*
X136662023Y-63746713D01*
X136684582Y-63754785D01*
X136706242Y-63765029D01*
X136726792Y-63777347D01*
X136746037Y-63791619D01*
X136763790Y-63807710D01*
X136779881Y-63825463D01*
X136794153Y-63844708D01*
X136806471Y-63865258D01*
X136816715Y-63886918D01*
X136824787Y-63909477D01*
X136830609Y-63932719D01*
X136834124Y-63956419D01*
X136835300Y-63980350D01*
X136835300Y-64543650D01*
X136834124Y-64567581D01*
X136830609Y-64591281D01*
X136824787Y-64614523D01*
X136816715Y-64637082D01*
X136806471Y-64658742D01*
X136794153Y-64679292D01*
X136779881Y-64698537D01*
X136763790Y-64716290D01*
X136746037Y-64732381D01*
X136726792Y-64746653D01*
X136706242Y-64758971D01*
X136684582Y-64769215D01*
X136662023Y-64777287D01*
X136638781Y-64783109D01*
X136615081Y-64786624D01*
X136591150Y-64787800D01*
X136102850Y-64787800D01*
X136078919Y-64786624D01*
X136055219Y-64783109D01*
X136031977Y-64777287D01*
X136009418Y-64769215D01*
X135987758Y-64758971D01*
X135967208Y-64746653D01*
X135947963Y-64732381D01*
X135930210Y-64716290D01*
X135914119Y-64698537D01*
X135899847Y-64679292D01*
X135887529Y-64658742D01*
X135877285Y-64637082D01*
X135869213Y-64614523D01*
X135863391Y-64591281D01*
X135859876Y-64567581D01*
X135858700Y-64543650D01*
X135858700Y-63980350D01*
X135859876Y-63956419D01*
X135863391Y-63932719D01*
X135869213Y-63909477D01*
X135877285Y-63886918D01*
X135887529Y-63865258D01*
X135899847Y-63844708D01*
X135914119Y-63825463D01*
X135930210Y-63807710D01*
X135947963Y-63791619D01*
X135967208Y-63777347D01*
X135987758Y-63765029D01*
X136009418Y-63754785D01*
X136031977Y-63746713D01*
X136055219Y-63740891D01*
X136078919Y-63737376D01*
X136102850Y-63736200D01*
X136591150Y-63736200D01*
X136615081Y-63737376D01*
X136615081Y-63737376D01*
G37*
D17*
X136347000Y-64262000D03*
D16*
G36*
X138190081Y-63737376D02*
X138213781Y-63740891D01*
X138237023Y-63746713D01*
X138259582Y-63754785D01*
X138281242Y-63765029D01*
X138301792Y-63777347D01*
X138321037Y-63791619D01*
X138338790Y-63807710D01*
X138354881Y-63825463D01*
X138369153Y-63844708D01*
X138381471Y-63865258D01*
X138391715Y-63886918D01*
X138399787Y-63909477D01*
X138405609Y-63932719D01*
X138409124Y-63956419D01*
X138410300Y-63980350D01*
X138410300Y-64543650D01*
X138409124Y-64567581D01*
X138405609Y-64591281D01*
X138399787Y-64614523D01*
X138391715Y-64637082D01*
X138381471Y-64658742D01*
X138369153Y-64679292D01*
X138354881Y-64698537D01*
X138338790Y-64716290D01*
X138321037Y-64732381D01*
X138301792Y-64746653D01*
X138281242Y-64758971D01*
X138259582Y-64769215D01*
X138237023Y-64777287D01*
X138213781Y-64783109D01*
X138190081Y-64786624D01*
X138166150Y-64787800D01*
X137677850Y-64787800D01*
X137653919Y-64786624D01*
X137630219Y-64783109D01*
X137606977Y-64777287D01*
X137584418Y-64769215D01*
X137562758Y-64758971D01*
X137542208Y-64746653D01*
X137522963Y-64732381D01*
X137505210Y-64716290D01*
X137489119Y-64698537D01*
X137474847Y-64679292D01*
X137462529Y-64658742D01*
X137452285Y-64637082D01*
X137444213Y-64614523D01*
X137438391Y-64591281D01*
X137434876Y-64567581D01*
X137433700Y-64543650D01*
X137433700Y-63980350D01*
X137434876Y-63956419D01*
X137438391Y-63932719D01*
X137444213Y-63909477D01*
X137452285Y-63886918D01*
X137462529Y-63865258D01*
X137474847Y-63844708D01*
X137489119Y-63825463D01*
X137505210Y-63807710D01*
X137522963Y-63791619D01*
X137542208Y-63777347D01*
X137562758Y-63765029D01*
X137584418Y-63754785D01*
X137606977Y-63746713D01*
X137630219Y-63740891D01*
X137653919Y-63737376D01*
X137677850Y-63736200D01*
X138166150Y-63736200D01*
X138190081Y-63737376D01*
X138190081Y-63737376D01*
G37*
D17*
X137922000Y-64262000D03*
G04 #@! TD*
D16*
G04 #@! TO.C,C4*
G36*
X146355581Y-67610376D02*
X146379281Y-67613891D01*
X146402523Y-67619713D01*
X146425082Y-67627785D01*
X146446742Y-67638029D01*
X146467292Y-67650347D01*
X146486537Y-67664619D01*
X146504290Y-67680710D01*
X146520381Y-67698463D01*
X146534653Y-67717708D01*
X146546971Y-67738258D01*
X146557215Y-67759918D01*
X146565287Y-67782477D01*
X146571109Y-67805719D01*
X146574624Y-67829419D01*
X146575800Y-67853350D01*
X146575800Y-68341650D01*
X146574624Y-68365581D01*
X146571109Y-68389281D01*
X146565287Y-68412523D01*
X146557215Y-68435082D01*
X146546971Y-68456742D01*
X146534653Y-68477292D01*
X146520381Y-68496537D01*
X146504290Y-68514290D01*
X146486537Y-68530381D01*
X146467292Y-68544653D01*
X146446742Y-68556971D01*
X146425082Y-68567215D01*
X146402523Y-68575287D01*
X146379281Y-68581109D01*
X146355581Y-68584624D01*
X146331650Y-68585800D01*
X145768350Y-68585800D01*
X145744419Y-68584624D01*
X145720719Y-68581109D01*
X145697477Y-68575287D01*
X145674918Y-68567215D01*
X145653258Y-68556971D01*
X145632708Y-68544653D01*
X145613463Y-68530381D01*
X145595710Y-68514290D01*
X145579619Y-68496537D01*
X145565347Y-68477292D01*
X145553029Y-68456742D01*
X145542785Y-68435082D01*
X145534713Y-68412523D01*
X145528891Y-68389281D01*
X145525376Y-68365581D01*
X145524200Y-68341650D01*
X145524200Y-67853350D01*
X145525376Y-67829419D01*
X145528891Y-67805719D01*
X145534713Y-67782477D01*
X145542785Y-67759918D01*
X145553029Y-67738258D01*
X145565347Y-67717708D01*
X145579619Y-67698463D01*
X145595710Y-67680710D01*
X145613463Y-67664619D01*
X145632708Y-67650347D01*
X145653258Y-67638029D01*
X145674918Y-67627785D01*
X145697477Y-67619713D01*
X145720719Y-67613891D01*
X145744419Y-67610376D01*
X145768350Y-67609200D01*
X146331650Y-67609200D01*
X146355581Y-67610376D01*
X146355581Y-67610376D01*
G37*
D17*
X146050000Y-68097500D03*
D16*
G36*
X146355581Y-66035376D02*
X146379281Y-66038891D01*
X146402523Y-66044713D01*
X146425082Y-66052785D01*
X146446742Y-66063029D01*
X146467292Y-66075347D01*
X146486537Y-66089619D01*
X146504290Y-66105710D01*
X146520381Y-66123463D01*
X146534653Y-66142708D01*
X146546971Y-66163258D01*
X146557215Y-66184918D01*
X146565287Y-66207477D01*
X146571109Y-66230719D01*
X146574624Y-66254419D01*
X146575800Y-66278350D01*
X146575800Y-66766650D01*
X146574624Y-66790581D01*
X146571109Y-66814281D01*
X146565287Y-66837523D01*
X146557215Y-66860082D01*
X146546971Y-66881742D01*
X146534653Y-66902292D01*
X146520381Y-66921537D01*
X146504290Y-66939290D01*
X146486537Y-66955381D01*
X146467292Y-66969653D01*
X146446742Y-66981971D01*
X146425082Y-66992215D01*
X146402523Y-67000287D01*
X146379281Y-67006109D01*
X146355581Y-67009624D01*
X146331650Y-67010800D01*
X145768350Y-67010800D01*
X145744419Y-67009624D01*
X145720719Y-67006109D01*
X145697477Y-67000287D01*
X145674918Y-66992215D01*
X145653258Y-66981971D01*
X145632708Y-66969653D01*
X145613463Y-66955381D01*
X145595710Y-66939290D01*
X145579619Y-66921537D01*
X145565347Y-66902292D01*
X145553029Y-66881742D01*
X145542785Y-66860082D01*
X145534713Y-66837523D01*
X145528891Y-66814281D01*
X145525376Y-66790581D01*
X145524200Y-66766650D01*
X145524200Y-66278350D01*
X145525376Y-66254419D01*
X145528891Y-66230719D01*
X145534713Y-66207477D01*
X145542785Y-66184918D01*
X145553029Y-66163258D01*
X145565347Y-66142708D01*
X145579619Y-66123463D01*
X145595710Y-66105710D01*
X145613463Y-66089619D01*
X145632708Y-66075347D01*
X145653258Y-66063029D01*
X145674918Y-66052785D01*
X145697477Y-66044713D01*
X145720719Y-66038891D01*
X145744419Y-66035376D01*
X145768350Y-66034200D01*
X146331650Y-66034200D01*
X146355581Y-66035376D01*
X146355581Y-66035376D01*
G37*
D17*
X146050000Y-66522500D03*
G04 #@! TD*
D16*
G04 #@! TO.C,C5*
G36*
X126543581Y-65171876D02*
X126567281Y-65175391D01*
X126590523Y-65181213D01*
X126613082Y-65189285D01*
X126634742Y-65199529D01*
X126655292Y-65211847D01*
X126674537Y-65226119D01*
X126692290Y-65242210D01*
X126708381Y-65259963D01*
X126722653Y-65279208D01*
X126734971Y-65299758D01*
X126745215Y-65321418D01*
X126753287Y-65343977D01*
X126759109Y-65367219D01*
X126762624Y-65390919D01*
X126763800Y-65414850D01*
X126763800Y-65903150D01*
X126762624Y-65927081D01*
X126759109Y-65950781D01*
X126753287Y-65974023D01*
X126745215Y-65996582D01*
X126734971Y-66018242D01*
X126722653Y-66038792D01*
X126708381Y-66058037D01*
X126692290Y-66075790D01*
X126674537Y-66091881D01*
X126655292Y-66106153D01*
X126634742Y-66118471D01*
X126613082Y-66128715D01*
X126590523Y-66136787D01*
X126567281Y-66142609D01*
X126543581Y-66146124D01*
X126519650Y-66147300D01*
X125956350Y-66147300D01*
X125932419Y-66146124D01*
X125908719Y-66142609D01*
X125885477Y-66136787D01*
X125862918Y-66128715D01*
X125841258Y-66118471D01*
X125820708Y-66106153D01*
X125801463Y-66091881D01*
X125783710Y-66075790D01*
X125767619Y-66058037D01*
X125753347Y-66038792D01*
X125741029Y-66018242D01*
X125730785Y-65996582D01*
X125722713Y-65974023D01*
X125716891Y-65950781D01*
X125713376Y-65927081D01*
X125712200Y-65903150D01*
X125712200Y-65414850D01*
X125713376Y-65390919D01*
X125716891Y-65367219D01*
X125722713Y-65343977D01*
X125730785Y-65321418D01*
X125741029Y-65299758D01*
X125753347Y-65279208D01*
X125767619Y-65259963D01*
X125783710Y-65242210D01*
X125801463Y-65226119D01*
X125820708Y-65211847D01*
X125841258Y-65199529D01*
X125862918Y-65189285D01*
X125885477Y-65181213D01*
X125908719Y-65175391D01*
X125932419Y-65171876D01*
X125956350Y-65170700D01*
X126519650Y-65170700D01*
X126543581Y-65171876D01*
X126543581Y-65171876D01*
G37*
D17*
X126238000Y-65659000D03*
D16*
G36*
X126543581Y-63596876D02*
X126567281Y-63600391D01*
X126590523Y-63606213D01*
X126613082Y-63614285D01*
X126634742Y-63624529D01*
X126655292Y-63636847D01*
X126674537Y-63651119D01*
X126692290Y-63667210D01*
X126708381Y-63684963D01*
X126722653Y-63704208D01*
X126734971Y-63724758D01*
X126745215Y-63746418D01*
X126753287Y-63768977D01*
X126759109Y-63792219D01*
X126762624Y-63815919D01*
X126763800Y-63839850D01*
X126763800Y-64328150D01*
X126762624Y-64352081D01*
X126759109Y-64375781D01*
X126753287Y-64399023D01*
X126745215Y-64421582D01*
X126734971Y-64443242D01*
X126722653Y-64463792D01*
X126708381Y-64483037D01*
X126692290Y-64500790D01*
X126674537Y-64516881D01*
X126655292Y-64531153D01*
X126634742Y-64543471D01*
X126613082Y-64553715D01*
X126590523Y-64561787D01*
X126567281Y-64567609D01*
X126543581Y-64571124D01*
X126519650Y-64572300D01*
X125956350Y-64572300D01*
X125932419Y-64571124D01*
X125908719Y-64567609D01*
X125885477Y-64561787D01*
X125862918Y-64553715D01*
X125841258Y-64543471D01*
X125820708Y-64531153D01*
X125801463Y-64516881D01*
X125783710Y-64500790D01*
X125767619Y-64483037D01*
X125753347Y-64463792D01*
X125741029Y-64443242D01*
X125730785Y-64421582D01*
X125722713Y-64399023D01*
X125716891Y-64375781D01*
X125713376Y-64352081D01*
X125712200Y-64328150D01*
X125712200Y-63839850D01*
X125713376Y-63815919D01*
X125716891Y-63792219D01*
X125722713Y-63768977D01*
X125730785Y-63746418D01*
X125741029Y-63724758D01*
X125753347Y-63704208D01*
X125767619Y-63684963D01*
X125783710Y-63667210D01*
X125801463Y-63651119D01*
X125820708Y-63636847D01*
X125841258Y-63624529D01*
X125862918Y-63614285D01*
X125885477Y-63606213D01*
X125908719Y-63600391D01*
X125932419Y-63596876D01*
X125956350Y-63595700D01*
X126519650Y-63595700D01*
X126543581Y-63596876D01*
X126543581Y-63596876D01*
G37*
D17*
X126238000Y-64084000D03*
G04 #@! TD*
D16*
G04 #@! TO.C,C6*
G36*
X117399581Y-63596876D02*
X117423281Y-63600391D01*
X117446523Y-63606213D01*
X117469082Y-63614285D01*
X117490742Y-63624529D01*
X117511292Y-63636847D01*
X117530537Y-63651119D01*
X117548290Y-63667210D01*
X117564381Y-63684963D01*
X117578653Y-63704208D01*
X117590971Y-63724758D01*
X117601215Y-63746418D01*
X117609287Y-63768977D01*
X117615109Y-63792219D01*
X117618624Y-63815919D01*
X117619800Y-63839850D01*
X117619800Y-64328150D01*
X117618624Y-64352081D01*
X117615109Y-64375781D01*
X117609287Y-64399023D01*
X117601215Y-64421582D01*
X117590971Y-64443242D01*
X117578653Y-64463792D01*
X117564381Y-64483037D01*
X117548290Y-64500790D01*
X117530537Y-64516881D01*
X117511292Y-64531153D01*
X117490742Y-64543471D01*
X117469082Y-64553715D01*
X117446523Y-64561787D01*
X117423281Y-64567609D01*
X117399581Y-64571124D01*
X117375650Y-64572300D01*
X116812350Y-64572300D01*
X116788419Y-64571124D01*
X116764719Y-64567609D01*
X116741477Y-64561787D01*
X116718918Y-64553715D01*
X116697258Y-64543471D01*
X116676708Y-64531153D01*
X116657463Y-64516881D01*
X116639710Y-64500790D01*
X116623619Y-64483037D01*
X116609347Y-64463792D01*
X116597029Y-64443242D01*
X116586785Y-64421582D01*
X116578713Y-64399023D01*
X116572891Y-64375781D01*
X116569376Y-64352081D01*
X116568200Y-64328150D01*
X116568200Y-63839850D01*
X116569376Y-63815919D01*
X116572891Y-63792219D01*
X116578713Y-63768977D01*
X116586785Y-63746418D01*
X116597029Y-63724758D01*
X116609347Y-63704208D01*
X116623619Y-63684963D01*
X116639710Y-63667210D01*
X116657463Y-63651119D01*
X116676708Y-63636847D01*
X116697258Y-63624529D01*
X116718918Y-63614285D01*
X116741477Y-63606213D01*
X116764719Y-63600391D01*
X116788419Y-63596876D01*
X116812350Y-63595700D01*
X117375650Y-63595700D01*
X117399581Y-63596876D01*
X117399581Y-63596876D01*
G37*
D17*
X117094000Y-64084000D03*
D16*
G36*
X117399581Y-65171876D02*
X117423281Y-65175391D01*
X117446523Y-65181213D01*
X117469082Y-65189285D01*
X117490742Y-65199529D01*
X117511292Y-65211847D01*
X117530537Y-65226119D01*
X117548290Y-65242210D01*
X117564381Y-65259963D01*
X117578653Y-65279208D01*
X117590971Y-65299758D01*
X117601215Y-65321418D01*
X117609287Y-65343977D01*
X117615109Y-65367219D01*
X117618624Y-65390919D01*
X117619800Y-65414850D01*
X117619800Y-65903150D01*
X117618624Y-65927081D01*
X117615109Y-65950781D01*
X117609287Y-65974023D01*
X117601215Y-65996582D01*
X117590971Y-66018242D01*
X117578653Y-66038792D01*
X117564381Y-66058037D01*
X117548290Y-66075790D01*
X117530537Y-66091881D01*
X117511292Y-66106153D01*
X117490742Y-66118471D01*
X117469082Y-66128715D01*
X117446523Y-66136787D01*
X117423281Y-66142609D01*
X117399581Y-66146124D01*
X117375650Y-66147300D01*
X116812350Y-66147300D01*
X116788419Y-66146124D01*
X116764719Y-66142609D01*
X116741477Y-66136787D01*
X116718918Y-66128715D01*
X116697258Y-66118471D01*
X116676708Y-66106153D01*
X116657463Y-66091881D01*
X116639710Y-66075790D01*
X116623619Y-66058037D01*
X116609347Y-66038792D01*
X116597029Y-66018242D01*
X116586785Y-65996582D01*
X116578713Y-65974023D01*
X116572891Y-65950781D01*
X116569376Y-65927081D01*
X116568200Y-65903150D01*
X116568200Y-65414850D01*
X116569376Y-65390919D01*
X116572891Y-65367219D01*
X116578713Y-65343977D01*
X116586785Y-65321418D01*
X116597029Y-65299758D01*
X116609347Y-65279208D01*
X116623619Y-65259963D01*
X116639710Y-65242210D01*
X116657463Y-65226119D01*
X116676708Y-65211847D01*
X116697258Y-65199529D01*
X116718918Y-65189285D01*
X116741477Y-65181213D01*
X116764719Y-65175391D01*
X116788419Y-65171876D01*
X116812350Y-65170700D01*
X117375650Y-65170700D01*
X117399581Y-65171876D01*
X117399581Y-65171876D01*
G37*
D17*
X117094000Y-65659000D03*
G04 #@! TD*
D16*
G04 #@! TO.C,C7*
G36*
X146355581Y-69616876D02*
X146379281Y-69620391D01*
X146402523Y-69626213D01*
X146425082Y-69634285D01*
X146446742Y-69644529D01*
X146467292Y-69656847D01*
X146486537Y-69671119D01*
X146504290Y-69687210D01*
X146520381Y-69704963D01*
X146534653Y-69724208D01*
X146546971Y-69744758D01*
X146557215Y-69766418D01*
X146565287Y-69788977D01*
X146571109Y-69812219D01*
X146574624Y-69835919D01*
X146575800Y-69859850D01*
X146575800Y-70348150D01*
X146574624Y-70372081D01*
X146571109Y-70395781D01*
X146565287Y-70419023D01*
X146557215Y-70441582D01*
X146546971Y-70463242D01*
X146534653Y-70483792D01*
X146520381Y-70503037D01*
X146504290Y-70520790D01*
X146486537Y-70536881D01*
X146467292Y-70551153D01*
X146446742Y-70563471D01*
X146425082Y-70573715D01*
X146402523Y-70581787D01*
X146379281Y-70587609D01*
X146355581Y-70591124D01*
X146331650Y-70592300D01*
X145768350Y-70592300D01*
X145744419Y-70591124D01*
X145720719Y-70587609D01*
X145697477Y-70581787D01*
X145674918Y-70573715D01*
X145653258Y-70563471D01*
X145632708Y-70551153D01*
X145613463Y-70536881D01*
X145595710Y-70520790D01*
X145579619Y-70503037D01*
X145565347Y-70483792D01*
X145553029Y-70463242D01*
X145542785Y-70441582D01*
X145534713Y-70419023D01*
X145528891Y-70395781D01*
X145525376Y-70372081D01*
X145524200Y-70348150D01*
X145524200Y-69859850D01*
X145525376Y-69835919D01*
X145528891Y-69812219D01*
X145534713Y-69788977D01*
X145542785Y-69766418D01*
X145553029Y-69744758D01*
X145565347Y-69724208D01*
X145579619Y-69704963D01*
X145595710Y-69687210D01*
X145613463Y-69671119D01*
X145632708Y-69656847D01*
X145653258Y-69644529D01*
X145674918Y-69634285D01*
X145697477Y-69626213D01*
X145720719Y-69620391D01*
X145744419Y-69616876D01*
X145768350Y-69615700D01*
X146331650Y-69615700D01*
X146355581Y-69616876D01*
X146355581Y-69616876D01*
G37*
D17*
X146050000Y-70104000D03*
D16*
G36*
X146355581Y-71191876D02*
X146379281Y-71195391D01*
X146402523Y-71201213D01*
X146425082Y-71209285D01*
X146446742Y-71219529D01*
X146467292Y-71231847D01*
X146486537Y-71246119D01*
X146504290Y-71262210D01*
X146520381Y-71279963D01*
X146534653Y-71299208D01*
X146546971Y-71319758D01*
X146557215Y-71341418D01*
X146565287Y-71363977D01*
X146571109Y-71387219D01*
X146574624Y-71410919D01*
X146575800Y-71434850D01*
X146575800Y-71923150D01*
X146574624Y-71947081D01*
X146571109Y-71970781D01*
X146565287Y-71994023D01*
X146557215Y-72016582D01*
X146546971Y-72038242D01*
X146534653Y-72058792D01*
X146520381Y-72078037D01*
X146504290Y-72095790D01*
X146486537Y-72111881D01*
X146467292Y-72126153D01*
X146446742Y-72138471D01*
X146425082Y-72148715D01*
X146402523Y-72156787D01*
X146379281Y-72162609D01*
X146355581Y-72166124D01*
X146331650Y-72167300D01*
X145768350Y-72167300D01*
X145744419Y-72166124D01*
X145720719Y-72162609D01*
X145697477Y-72156787D01*
X145674918Y-72148715D01*
X145653258Y-72138471D01*
X145632708Y-72126153D01*
X145613463Y-72111881D01*
X145595710Y-72095790D01*
X145579619Y-72078037D01*
X145565347Y-72058792D01*
X145553029Y-72038242D01*
X145542785Y-72016582D01*
X145534713Y-71994023D01*
X145528891Y-71970781D01*
X145525376Y-71947081D01*
X145524200Y-71923150D01*
X145524200Y-71434850D01*
X145525376Y-71410919D01*
X145528891Y-71387219D01*
X145534713Y-71363977D01*
X145542785Y-71341418D01*
X145553029Y-71319758D01*
X145565347Y-71299208D01*
X145579619Y-71279963D01*
X145595710Y-71262210D01*
X145613463Y-71246119D01*
X145632708Y-71231847D01*
X145653258Y-71219529D01*
X145674918Y-71209285D01*
X145697477Y-71201213D01*
X145720719Y-71195391D01*
X145744419Y-71191876D01*
X145768350Y-71190700D01*
X146331650Y-71190700D01*
X146355581Y-71191876D01*
X146355581Y-71191876D01*
G37*
D17*
X146050000Y-71679000D03*
G04 #@! TD*
D16*
G04 #@! TO.C,D1*
G36*
X132602081Y-76945376D02*
X132625781Y-76948891D01*
X132649023Y-76954713D01*
X132671582Y-76962785D01*
X132693242Y-76973029D01*
X132713792Y-76985347D01*
X132733037Y-76999619D01*
X132750790Y-77015710D01*
X132766881Y-77033463D01*
X132781153Y-77052708D01*
X132793471Y-77073258D01*
X132803715Y-77094918D01*
X132811787Y-77117477D01*
X132817609Y-77140719D01*
X132821124Y-77164419D01*
X132822300Y-77188350D01*
X132822300Y-77751650D01*
X132821124Y-77775581D01*
X132817609Y-77799281D01*
X132811787Y-77822523D01*
X132803715Y-77845082D01*
X132793471Y-77866742D01*
X132781153Y-77887292D01*
X132766881Y-77906537D01*
X132750790Y-77924290D01*
X132733037Y-77940381D01*
X132713792Y-77954653D01*
X132693242Y-77966971D01*
X132671582Y-77977215D01*
X132649023Y-77985287D01*
X132625781Y-77991109D01*
X132602081Y-77994624D01*
X132578150Y-77995800D01*
X132089850Y-77995800D01*
X132065919Y-77994624D01*
X132042219Y-77991109D01*
X132018977Y-77985287D01*
X131996418Y-77977215D01*
X131974758Y-77966971D01*
X131954208Y-77954653D01*
X131934963Y-77940381D01*
X131917210Y-77924290D01*
X131901119Y-77906537D01*
X131886847Y-77887292D01*
X131874529Y-77866742D01*
X131864285Y-77845082D01*
X131856213Y-77822523D01*
X131850391Y-77799281D01*
X131846876Y-77775581D01*
X131845700Y-77751650D01*
X131845700Y-77188350D01*
X131846876Y-77164419D01*
X131850391Y-77140719D01*
X131856213Y-77117477D01*
X131864285Y-77094918D01*
X131874529Y-77073258D01*
X131886847Y-77052708D01*
X131901119Y-77033463D01*
X131917210Y-77015710D01*
X131934963Y-76999619D01*
X131954208Y-76985347D01*
X131974758Y-76973029D01*
X131996418Y-76962785D01*
X132018977Y-76954713D01*
X132042219Y-76948891D01*
X132065919Y-76945376D01*
X132089850Y-76944200D01*
X132578150Y-76944200D01*
X132602081Y-76945376D01*
X132602081Y-76945376D01*
G37*
D17*
X132334000Y-77470000D03*
D16*
G36*
X131027081Y-76945376D02*
X131050781Y-76948891D01*
X131074023Y-76954713D01*
X131096582Y-76962785D01*
X131118242Y-76973029D01*
X131138792Y-76985347D01*
X131158037Y-76999619D01*
X131175790Y-77015710D01*
X131191881Y-77033463D01*
X131206153Y-77052708D01*
X131218471Y-77073258D01*
X131228715Y-77094918D01*
X131236787Y-77117477D01*
X131242609Y-77140719D01*
X131246124Y-77164419D01*
X131247300Y-77188350D01*
X131247300Y-77751650D01*
X131246124Y-77775581D01*
X131242609Y-77799281D01*
X131236787Y-77822523D01*
X131228715Y-77845082D01*
X131218471Y-77866742D01*
X131206153Y-77887292D01*
X131191881Y-77906537D01*
X131175790Y-77924290D01*
X131158037Y-77940381D01*
X131138792Y-77954653D01*
X131118242Y-77966971D01*
X131096582Y-77977215D01*
X131074023Y-77985287D01*
X131050781Y-77991109D01*
X131027081Y-77994624D01*
X131003150Y-77995800D01*
X130514850Y-77995800D01*
X130490919Y-77994624D01*
X130467219Y-77991109D01*
X130443977Y-77985287D01*
X130421418Y-77977215D01*
X130399758Y-77966971D01*
X130379208Y-77954653D01*
X130359963Y-77940381D01*
X130342210Y-77924290D01*
X130326119Y-77906537D01*
X130311847Y-77887292D01*
X130299529Y-77866742D01*
X130289285Y-77845082D01*
X130281213Y-77822523D01*
X130275391Y-77799281D01*
X130271876Y-77775581D01*
X130270700Y-77751650D01*
X130270700Y-77188350D01*
X130271876Y-77164419D01*
X130275391Y-77140719D01*
X130281213Y-77117477D01*
X130289285Y-77094918D01*
X130299529Y-77073258D01*
X130311847Y-77052708D01*
X130326119Y-77033463D01*
X130342210Y-77015710D01*
X130359963Y-76999619D01*
X130379208Y-76985347D01*
X130399758Y-76973029D01*
X130421418Y-76962785D01*
X130443977Y-76954713D01*
X130467219Y-76948891D01*
X130490919Y-76945376D01*
X130514850Y-76944200D01*
X131003150Y-76944200D01*
X131027081Y-76945376D01*
X131027081Y-76945376D01*
G37*
D17*
X130759000Y-77470000D03*
G04 #@! TD*
D16*
G04 #@! TO.C,D2*
G36*
X122645081Y-76945376D02*
X122668781Y-76948891D01*
X122692023Y-76954713D01*
X122714582Y-76962785D01*
X122736242Y-76973029D01*
X122756792Y-76985347D01*
X122776037Y-76999619D01*
X122793790Y-77015710D01*
X122809881Y-77033463D01*
X122824153Y-77052708D01*
X122836471Y-77073258D01*
X122846715Y-77094918D01*
X122854787Y-77117477D01*
X122860609Y-77140719D01*
X122864124Y-77164419D01*
X122865300Y-77188350D01*
X122865300Y-77751650D01*
X122864124Y-77775581D01*
X122860609Y-77799281D01*
X122854787Y-77822523D01*
X122846715Y-77845082D01*
X122836471Y-77866742D01*
X122824153Y-77887292D01*
X122809881Y-77906537D01*
X122793790Y-77924290D01*
X122776037Y-77940381D01*
X122756792Y-77954653D01*
X122736242Y-77966971D01*
X122714582Y-77977215D01*
X122692023Y-77985287D01*
X122668781Y-77991109D01*
X122645081Y-77994624D01*
X122621150Y-77995800D01*
X122132850Y-77995800D01*
X122108919Y-77994624D01*
X122085219Y-77991109D01*
X122061977Y-77985287D01*
X122039418Y-77977215D01*
X122017758Y-77966971D01*
X121997208Y-77954653D01*
X121977963Y-77940381D01*
X121960210Y-77924290D01*
X121944119Y-77906537D01*
X121929847Y-77887292D01*
X121917529Y-77866742D01*
X121907285Y-77845082D01*
X121899213Y-77822523D01*
X121893391Y-77799281D01*
X121889876Y-77775581D01*
X121888700Y-77751650D01*
X121888700Y-77188350D01*
X121889876Y-77164419D01*
X121893391Y-77140719D01*
X121899213Y-77117477D01*
X121907285Y-77094918D01*
X121917529Y-77073258D01*
X121929847Y-77052708D01*
X121944119Y-77033463D01*
X121960210Y-77015710D01*
X121977963Y-76999619D01*
X121997208Y-76985347D01*
X122017758Y-76973029D01*
X122039418Y-76962785D01*
X122061977Y-76954713D01*
X122085219Y-76948891D01*
X122108919Y-76945376D01*
X122132850Y-76944200D01*
X122621150Y-76944200D01*
X122645081Y-76945376D01*
X122645081Y-76945376D01*
G37*
D17*
X122377000Y-77470000D03*
D16*
G36*
X124220081Y-76945376D02*
X124243781Y-76948891D01*
X124267023Y-76954713D01*
X124289582Y-76962785D01*
X124311242Y-76973029D01*
X124331792Y-76985347D01*
X124351037Y-76999619D01*
X124368790Y-77015710D01*
X124384881Y-77033463D01*
X124399153Y-77052708D01*
X124411471Y-77073258D01*
X124421715Y-77094918D01*
X124429787Y-77117477D01*
X124435609Y-77140719D01*
X124439124Y-77164419D01*
X124440300Y-77188350D01*
X124440300Y-77751650D01*
X124439124Y-77775581D01*
X124435609Y-77799281D01*
X124429787Y-77822523D01*
X124421715Y-77845082D01*
X124411471Y-77866742D01*
X124399153Y-77887292D01*
X124384881Y-77906537D01*
X124368790Y-77924290D01*
X124351037Y-77940381D01*
X124331792Y-77954653D01*
X124311242Y-77966971D01*
X124289582Y-77977215D01*
X124267023Y-77985287D01*
X124243781Y-77991109D01*
X124220081Y-77994624D01*
X124196150Y-77995800D01*
X123707850Y-77995800D01*
X123683919Y-77994624D01*
X123660219Y-77991109D01*
X123636977Y-77985287D01*
X123614418Y-77977215D01*
X123592758Y-77966971D01*
X123572208Y-77954653D01*
X123552963Y-77940381D01*
X123535210Y-77924290D01*
X123519119Y-77906537D01*
X123504847Y-77887292D01*
X123492529Y-77866742D01*
X123482285Y-77845082D01*
X123474213Y-77822523D01*
X123468391Y-77799281D01*
X123464876Y-77775581D01*
X123463700Y-77751650D01*
X123463700Y-77188350D01*
X123464876Y-77164419D01*
X123468391Y-77140719D01*
X123474213Y-77117477D01*
X123482285Y-77094918D01*
X123492529Y-77073258D01*
X123504847Y-77052708D01*
X123519119Y-77033463D01*
X123535210Y-77015710D01*
X123552963Y-76999619D01*
X123572208Y-76985347D01*
X123592758Y-76973029D01*
X123614418Y-76962785D01*
X123636977Y-76954713D01*
X123660219Y-76948891D01*
X123683919Y-76945376D01*
X123707850Y-76944200D01*
X124196150Y-76944200D01*
X124220081Y-76945376D01*
X124220081Y-76945376D01*
G37*
D17*
X123952000Y-77470000D03*
G04 #@! TD*
D18*
G04 #@! TO.C,J1*
X140970000Y-49530000D03*
D19*
X135970000Y-49530000D03*
X130970000Y-49530000D03*
X125970000Y-49530000D03*
X120970000Y-49530000D03*
X115970000Y-49530000D03*
G04 #@! TD*
D20*
G04 #@! TO.C,Q1*
X112236000Y-77150000D03*
X112236000Y-75250000D03*
X110236000Y-76200000D03*
G04 #@! TD*
D16*
G04 #@! TO.C,R2*
G36*
X116637581Y-76474876D02*
X116661281Y-76478391D01*
X116684523Y-76484213D01*
X116707082Y-76492285D01*
X116728742Y-76502529D01*
X116749292Y-76514847D01*
X116768537Y-76529119D01*
X116786290Y-76545210D01*
X116802381Y-76562963D01*
X116816653Y-76582208D01*
X116828971Y-76602758D01*
X116839215Y-76624418D01*
X116847287Y-76646977D01*
X116853109Y-76670219D01*
X116856624Y-76693919D01*
X116857800Y-76717850D01*
X116857800Y-77206150D01*
X116856624Y-77230081D01*
X116853109Y-77253781D01*
X116847287Y-77277023D01*
X116839215Y-77299582D01*
X116828971Y-77321242D01*
X116816653Y-77341792D01*
X116802381Y-77361037D01*
X116786290Y-77378790D01*
X116768537Y-77394881D01*
X116749292Y-77409153D01*
X116728742Y-77421471D01*
X116707082Y-77431715D01*
X116684523Y-77439787D01*
X116661281Y-77445609D01*
X116637581Y-77449124D01*
X116613650Y-77450300D01*
X116050350Y-77450300D01*
X116026419Y-77449124D01*
X116002719Y-77445609D01*
X115979477Y-77439787D01*
X115956918Y-77431715D01*
X115935258Y-77421471D01*
X115914708Y-77409153D01*
X115895463Y-77394881D01*
X115877710Y-77378790D01*
X115861619Y-77361037D01*
X115847347Y-77341792D01*
X115835029Y-77321242D01*
X115824785Y-77299582D01*
X115816713Y-77277023D01*
X115810891Y-77253781D01*
X115807376Y-77230081D01*
X115806200Y-77206150D01*
X115806200Y-76717850D01*
X115807376Y-76693919D01*
X115810891Y-76670219D01*
X115816713Y-76646977D01*
X115824785Y-76624418D01*
X115835029Y-76602758D01*
X115847347Y-76582208D01*
X115861619Y-76562963D01*
X115877710Y-76545210D01*
X115895463Y-76529119D01*
X115914708Y-76514847D01*
X115935258Y-76502529D01*
X115956918Y-76492285D01*
X115979477Y-76484213D01*
X116002719Y-76478391D01*
X116026419Y-76474876D01*
X116050350Y-76473700D01*
X116613650Y-76473700D01*
X116637581Y-76474876D01*
X116637581Y-76474876D01*
G37*
D17*
X116332000Y-76962000D03*
D16*
G36*
X116637581Y-74899876D02*
X116661281Y-74903391D01*
X116684523Y-74909213D01*
X116707082Y-74917285D01*
X116728742Y-74927529D01*
X116749292Y-74939847D01*
X116768537Y-74954119D01*
X116786290Y-74970210D01*
X116802381Y-74987963D01*
X116816653Y-75007208D01*
X116828971Y-75027758D01*
X116839215Y-75049418D01*
X116847287Y-75071977D01*
X116853109Y-75095219D01*
X116856624Y-75118919D01*
X116857800Y-75142850D01*
X116857800Y-75631150D01*
X116856624Y-75655081D01*
X116853109Y-75678781D01*
X116847287Y-75702023D01*
X116839215Y-75724582D01*
X116828971Y-75746242D01*
X116816653Y-75766792D01*
X116802381Y-75786037D01*
X116786290Y-75803790D01*
X116768537Y-75819881D01*
X116749292Y-75834153D01*
X116728742Y-75846471D01*
X116707082Y-75856715D01*
X116684523Y-75864787D01*
X116661281Y-75870609D01*
X116637581Y-75874124D01*
X116613650Y-75875300D01*
X116050350Y-75875300D01*
X116026419Y-75874124D01*
X116002719Y-75870609D01*
X115979477Y-75864787D01*
X115956918Y-75856715D01*
X115935258Y-75846471D01*
X115914708Y-75834153D01*
X115895463Y-75819881D01*
X115877710Y-75803790D01*
X115861619Y-75786037D01*
X115847347Y-75766792D01*
X115835029Y-75746242D01*
X115824785Y-75724582D01*
X115816713Y-75702023D01*
X115810891Y-75678781D01*
X115807376Y-75655081D01*
X115806200Y-75631150D01*
X115806200Y-75142850D01*
X115807376Y-75118919D01*
X115810891Y-75095219D01*
X115816713Y-75071977D01*
X115824785Y-75049418D01*
X115835029Y-75027758D01*
X115847347Y-75007208D01*
X115861619Y-74987963D01*
X115877710Y-74970210D01*
X115895463Y-74954119D01*
X115914708Y-74939847D01*
X115935258Y-74927529D01*
X115956918Y-74917285D01*
X115979477Y-74909213D01*
X116002719Y-74903391D01*
X116026419Y-74899876D01*
X116050350Y-74898700D01*
X116613650Y-74898700D01*
X116637581Y-74899876D01*
X116637581Y-74899876D01*
G37*
D17*
X116332000Y-75387000D03*
G04 #@! TD*
D16*
G04 #@! TO.C,R3*
G36*
X129097081Y-76945376D02*
X129120781Y-76948891D01*
X129144023Y-76954713D01*
X129166582Y-76962785D01*
X129188242Y-76973029D01*
X129208792Y-76985347D01*
X129228037Y-76999619D01*
X129245790Y-77015710D01*
X129261881Y-77033463D01*
X129276153Y-77052708D01*
X129288471Y-77073258D01*
X129298715Y-77094918D01*
X129306787Y-77117477D01*
X129312609Y-77140719D01*
X129316124Y-77164419D01*
X129317300Y-77188350D01*
X129317300Y-77751650D01*
X129316124Y-77775581D01*
X129312609Y-77799281D01*
X129306787Y-77822523D01*
X129298715Y-77845082D01*
X129288471Y-77866742D01*
X129276153Y-77887292D01*
X129261881Y-77906537D01*
X129245790Y-77924290D01*
X129228037Y-77940381D01*
X129208792Y-77954653D01*
X129188242Y-77966971D01*
X129166582Y-77977215D01*
X129144023Y-77985287D01*
X129120781Y-77991109D01*
X129097081Y-77994624D01*
X129073150Y-77995800D01*
X128584850Y-77995800D01*
X128560919Y-77994624D01*
X128537219Y-77991109D01*
X128513977Y-77985287D01*
X128491418Y-77977215D01*
X128469758Y-77966971D01*
X128449208Y-77954653D01*
X128429963Y-77940381D01*
X128412210Y-77924290D01*
X128396119Y-77906537D01*
X128381847Y-77887292D01*
X128369529Y-77866742D01*
X128359285Y-77845082D01*
X128351213Y-77822523D01*
X128345391Y-77799281D01*
X128341876Y-77775581D01*
X128340700Y-77751650D01*
X128340700Y-77188350D01*
X128341876Y-77164419D01*
X128345391Y-77140719D01*
X128351213Y-77117477D01*
X128359285Y-77094918D01*
X128369529Y-77073258D01*
X128381847Y-77052708D01*
X128396119Y-77033463D01*
X128412210Y-77015710D01*
X128429963Y-76999619D01*
X128449208Y-76985347D01*
X128469758Y-76973029D01*
X128491418Y-76962785D01*
X128513977Y-76954713D01*
X128537219Y-76948891D01*
X128560919Y-76945376D01*
X128584850Y-76944200D01*
X129073150Y-76944200D01*
X129097081Y-76945376D01*
X129097081Y-76945376D01*
G37*
D17*
X128829000Y-77470000D03*
D16*
G36*
X127522081Y-76945376D02*
X127545781Y-76948891D01*
X127569023Y-76954713D01*
X127591582Y-76962785D01*
X127613242Y-76973029D01*
X127633792Y-76985347D01*
X127653037Y-76999619D01*
X127670790Y-77015710D01*
X127686881Y-77033463D01*
X127701153Y-77052708D01*
X127713471Y-77073258D01*
X127723715Y-77094918D01*
X127731787Y-77117477D01*
X127737609Y-77140719D01*
X127741124Y-77164419D01*
X127742300Y-77188350D01*
X127742300Y-77751650D01*
X127741124Y-77775581D01*
X127737609Y-77799281D01*
X127731787Y-77822523D01*
X127723715Y-77845082D01*
X127713471Y-77866742D01*
X127701153Y-77887292D01*
X127686881Y-77906537D01*
X127670790Y-77924290D01*
X127653037Y-77940381D01*
X127633792Y-77954653D01*
X127613242Y-77966971D01*
X127591582Y-77977215D01*
X127569023Y-77985287D01*
X127545781Y-77991109D01*
X127522081Y-77994624D01*
X127498150Y-77995800D01*
X127009850Y-77995800D01*
X126985919Y-77994624D01*
X126962219Y-77991109D01*
X126938977Y-77985287D01*
X126916418Y-77977215D01*
X126894758Y-77966971D01*
X126874208Y-77954653D01*
X126854963Y-77940381D01*
X126837210Y-77924290D01*
X126821119Y-77906537D01*
X126806847Y-77887292D01*
X126794529Y-77866742D01*
X126784285Y-77845082D01*
X126776213Y-77822523D01*
X126770391Y-77799281D01*
X126766876Y-77775581D01*
X126765700Y-77751650D01*
X126765700Y-77188350D01*
X126766876Y-77164419D01*
X126770391Y-77140719D01*
X126776213Y-77117477D01*
X126784285Y-77094918D01*
X126794529Y-77073258D01*
X126806847Y-77052708D01*
X126821119Y-77033463D01*
X126837210Y-77015710D01*
X126854963Y-76999619D01*
X126874208Y-76985347D01*
X126894758Y-76973029D01*
X126916418Y-76962785D01*
X126938977Y-76954713D01*
X126962219Y-76948891D01*
X126985919Y-76945376D01*
X127009850Y-76944200D01*
X127498150Y-76944200D01*
X127522081Y-76945376D01*
X127522081Y-76945376D01*
G37*
D17*
X127254000Y-77470000D03*
G04 #@! TD*
D16*
G04 #@! TO.C,R4*
G36*
X119089081Y-76945376D02*
X119112781Y-76948891D01*
X119136023Y-76954713D01*
X119158582Y-76962785D01*
X119180242Y-76973029D01*
X119200792Y-76985347D01*
X119220037Y-76999619D01*
X119237790Y-77015710D01*
X119253881Y-77033463D01*
X119268153Y-77052708D01*
X119280471Y-77073258D01*
X119290715Y-77094918D01*
X119298787Y-77117477D01*
X119304609Y-77140719D01*
X119308124Y-77164419D01*
X119309300Y-77188350D01*
X119309300Y-77751650D01*
X119308124Y-77775581D01*
X119304609Y-77799281D01*
X119298787Y-77822523D01*
X119290715Y-77845082D01*
X119280471Y-77866742D01*
X119268153Y-77887292D01*
X119253881Y-77906537D01*
X119237790Y-77924290D01*
X119220037Y-77940381D01*
X119200792Y-77954653D01*
X119180242Y-77966971D01*
X119158582Y-77977215D01*
X119136023Y-77985287D01*
X119112781Y-77991109D01*
X119089081Y-77994624D01*
X119065150Y-77995800D01*
X118576850Y-77995800D01*
X118552919Y-77994624D01*
X118529219Y-77991109D01*
X118505977Y-77985287D01*
X118483418Y-77977215D01*
X118461758Y-77966971D01*
X118441208Y-77954653D01*
X118421963Y-77940381D01*
X118404210Y-77924290D01*
X118388119Y-77906537D01*
X118373847Y-77887292D01*
X118361529Y-77866742D01*
X118351285Y-77845082D01*
X118343213Y-77822523D01*
X118337391Y-77799281D01*
X118333876Y-77775581D01*
X118332700Y-77751650D01*
X118332700Y-77188350D01*
X118333876Y-77164419D01*
X118337391Y-77140719D01*
X118343213Y-77117477D01*
X118351285Y-77094918D01*
X118361529Y-77073258D01*
X118373847Y-77052708D01*
X118388119Y-77033463D01*
X118404210Y-77015710D01*
X118421963Y-76999619D01*
X118441208Y-76985347D01*
X118461758Y-76973029D01*
X118483418Y-76962785D01*
X118505977Y-76954713D01*
X118529219Y-76948891D01*
X118552919Y-76945376D01*
X118576850Y-76944200D01*
X119065150Y-76944200D01*
X119089081Y-76945376D01*
X119089081Y-76945376D01*
G37*
D17*
X118821000Y-77470000D03*
D16*
G36*
X120664081Y-76945376D02*
X120687781Y-76948891D01*
X120711023Y-76954713D01*
X120733582Y-76962785D01*
X120755242Y-76973029D01*
X120775792Y-76985347D01*
X120795037Y-76999619D01*
X120812790Y-77015710D01*
X120828881Y-77033463D01*
X120843153Y-77052708D01*
X120855471Y-77073258D01*
X120865715Y-77094918D01*
X120873787Y-77117477D01*
X120879609Y-77140719D01*
X120883124Y-77164419D01*
X120884300Y-77188350D01*
X120884300Y-77751650D01*
X120883124Y-77775581D01*
X120879609Y-77799281D01*
X120873787Y-77822523D01*
X120865715Y-77845082D01*
X120855471Y-77866742D01*
X120843153Y-77887292D01*
X120828881Y-77906537D01*
X120812790Y-77924290D01*
X120795037Y-77940381D01*
X120775792Y-77954653D01*
X120755242Y-77966971D01*
X120733582Y-77977215D01*
X120711023Y-77985287D01*
X120687781Y-77991109D01*
X120664081Y-77994624D01*
X120640150Y-77995800D01*
X120151850Y-77995800D01*
X120127919Y-77994624D01*
X120104219Y-77991109D01*
X120080977Y-77985287D01*
X120058418Y-77977215D01*
X120036758Y-77966971D01*
X120016208Y-77954653D01*
X119996963Y-77940381D01*
X119979210Y-77924290D01*
X119963119Y-77906537D01*
X119948847Y-77887292D01*
X119936529Y-77866742D01*
X119926285Y-77845082D01*
X119918213Y-77822523D01*
X119912391Y-77799281D01*
X119908876Y-77775581D01*
X119907700Y-77751650D01*
X119907700Y-77188350D01*
X119908876Y-77164419D01*
X119912391Y-77140719D01*
X119918213Y-77117477D01*
X119926285Y-77094918D01*
X119936529Y-77073258D01*
X119948847Y-77052708D01*
X119963119Y-77033463D01*
X119979210Y-77015710D01*
X119996963Y-76999619D01*
X120016208Y-76985347D01*
X120036758Y-76973029D01*
X120058418Y-76962785D01*
X120080977Y-76954713D01*
X120104219Y-76948891D01*
X120127919Y-76945376D01*
X120151850Y-76944200D01*
X120640150Y-76944200D01*
X120664081Y-76945376D01*
X120664081Y-76945376D01*
G37*
D17*
X120396000Y-77470000D03*
G04 #@! TD*
D16*
G04 #@! TO.C,R5*
G36*
X114605581Y-76474876D02*
X114629281Y-76478391D01*
X114652523Y-76484213D01*
X114675082Y-76492285D01*
X114696742Y-76502529D01*
X114717292Y-76514847D01*
X114736537Y-76529119D01*
X114754290Y-76545210D01*
X114770381Y-76562963D01*
X114784653Y-76582208D01*
X114796971Y-76602758D01*
X114807215Y-76624418D01*
X114815287Y-76646977D01*
X114821109Y-76670219D01*
X114824624Y-76693919D01*
X114825800Y-76717850D01*
X114825800Y-77206150D01*
X114824624Y-77230081D01*
X114821109Y-77253781D01*
X114815287Y-77277023D01*
X114807215Y-77299582D01*
X114796971Y-77321242D01*
X114784653Y-77341792D01*
X114770381Y-77361037D01*
X114754290Y-77378790D01*
X114736537Y-77394881D01*
X114717292Y-77409153D01*
X114696742Y-77421471D01*
X114675082Y-77431715D01*
X114652523Y-77439787D01*
X114629281Y-77445609D01*
X114605581Y-77449124D01*
X114581650Y-77450300D01*
X114018350Y-77450300D01*
X113994419Y-77449124D01*
X113970719Y-77445609D01*
X113947477Y-77439787D01*
X113924918Y-77431715D01*
X113903258Y-77421471D01*
X113882708Y-77409153D01*
X113863463Y-77394881D01*
X113845710Y-77378790D01*
X113829619Y-77361037D01*
X113815347Y-77341792D01*
X113803029Y-77321242D01*
X113792785Y-77299582D01*
X113784713Y-77277023D01*
X113778891Y-77253781D01*
X113775376Y-77230081D01*
X113774200Y-77206150D01*
X113774200Y-76717850D01*
X113775376Y-76693919D01*
X113778891Y-76670219D01*
X113784713Y-76646977D01*
X113792785Y-76624418D01*
X113803029Y-76602758D01*
X113815347Y-76582208D01*
X113829619Y-76562963D01*
X113845710Y-76545210D01*
X113863463Y-76529119D01*
X113882708Y-76514847D01*
X113903258Y-76502529D01*
X113924918Y-76492285D01*
X113947477Y-76484213D01*
X113970719Y-76478391D01*
X113994419Y-76474876D01*
X114018350Y-76473700D01*
X114581650Y-76473700D01*
X114605581Y-76474876D01*
X114605581Y-76474876D01*
G37*
D17*
X114300000Y-76962000D03*
D16*
G36*
X114605581Y-74899876D02*
X114629281Y-74903391D01*
X114652523Y-74909213D01*
X114675082Y-74917285D01*
X114696742Y-74927529D01*
X114717292Y-74939847D01*
X114736537Y-74954119D01*
X114754290Y-74970210D01*
X114770381Y-74987963D01*
X114784653Y-75007208D01*
X114796971Y-75027758D01*
X114807215Y-75049418D01*
X114815287Y-75071977D01*
X114821109Y-75095219D01*
X114824624Y-75118919D01*
X114825800Y-75142850D01*
X114825800Y-75631150D01*
X114824624Y-75655081D01*
X114821109Y-75678781D01*
X114815287Y-75702023D01*
X114807215Y-75724582D01*
X114796971Y-75746242D01*
X114784653Y-75766792D01*
X114770381Y-75786037D01*
X114754290Y-75803790D01*
X114736537Y-75819881D01*
X114717292Y-75834153D01*
X114696742Y-75846471D01*
X114675082Y-75856715D01*
X114652523Y-75864787D01*
X114629281Y-75870609D01*
X114605581Y-75874124D01*
X114581650Y-75875300D01*
X114018350Y-75875300D01*
X113994419Y-75874124D01*
X113970719Y-75870609D01*
X113947477Y-75864787D01*
X113924918Y-75856715D01*
X113903258Y-75846471D01*
X113882708Y-75834153D01*
X113863463Y-75819881D01*
X113845710Y-75803790D01*
X113829619Y-75786037D01*
X113815347Y-75766792D01*
X113803029Y-75746242D01*
X113792785Y-75724582D01*
X113784713Y-75702023D01*
X113778891Y-75678781D01*
X113775376Y-75655081D01*
X113774200Y-75631150D01*
X113774200Y-75142850D01*
X113775376Y-75118919D01*
X113778891Y-75095219D01*
X113784713Y-75071977D01*
X113792785Y-75049418D01*
X113803029Y-75027758D01*
X113815347Y-75007208D01*
X113829619Y-74987963D01*
X113845710Y-74970210D01*
X113863463Y-74954119D01*
X113882708Y-74939847D01*
X113903258Y-74927529D01*
X113924918Y-74917285D01*
X113947477Y-74909213D01*
X113970719Y-74903391D01*
X113994419Y-74899876D01*
X114018350Y-74898700D01*
X114581650Y-74898700D01*
X114605581Y-74899876D01*
X114605581Y-74899876D01*
G37*
D17*
X114300000Y-75387000D03*
G04 #@! TD*
D16*
G04 #@! TO.C,R6*
G36*
X146609581Y-59913876D02*
X146633281Y-59917391D01*
X146656523Y-59923213D01*
X146679082Y-59931285D01*
X146700742Y-59941529D01*
X146721292Y-59953847D01*
X146740537Y-59968119D01*
X146758290Y-59984210D01*
X146774381Y-60001963D01*
X146788653Y-60021208D01*
X146800971Y-60041758D01*
X146811215Y-60063418D01*
X146819287Y-60085977D01*
X146825109Y-60109219D01*
X146828624Y-60132919D01*
X146829800Y-60156850D01*
X146829800Y-60645150D01*
X146828624Y-60669081D01*
X146825109Y-60692781D01*
X146819287Y-60716023D01*
X146811215Y-60738582D01*
X146800971Y-60760242D01*
X146788653Y-60780792D01*
X146774381Y-60800037D01*
X146758290Y-60817790D01*
X146740537Y-60833881D01*
X146721292Y-60848153D01*
X146700742Y-60860471D01*
X146679082Y-60870715D01*
X146656523Y-60878787D01*
X146633281Y-60884609D01*
X146609581Y-60888124D01*
X146585650Y-60889300D01*
X146022350Y-60889300D01*
X145998419Y-60888124D01*
X145974719Y-60884609D01*
X145951477Y-60878787D01*
X145928918Y-60870715D01*
X145907258Y-60860471D01*
X145886708Y-60848153D01*
X145867463Y-60833881D01*
X145849710Y-60817790D01*
X145833619Y-60800037D01*
X145819347Y-60780792D01*
X145807029Y-60760242D01*
X145796785Y-60738582D01*
X145788713Y-60716023D01*
X145782891Y-60692781D01*
X145779376Y-60669081D01*
X145778200Y-60645150D01*
X145778200Y-60156850D01*
X145779376Y-60132919D01*
X145782891Y-60109219D01*
X145788713Y-60085977D01*
X145796785Y-60063418D01*
X145807029Y-60041758D01*
X145819347Y-60021208D01*
X145833619Y-60001963D01*
X145849710Y-59984210D01*
X145867463Y-59968119D01*
X145886708Y-59953847D01*
X145907258Y-59941529D01*
X145928918Y-59931285D01*
X145951477Y-59923213D01*
X145974719Y-59917391D01*
X145998419Y-59913876D01*
X146022350Y-59912700D01*
X146585650Y-59912700D01*
X146609581Y-59913876D01*
X146609581Y-59913876D01*
G37*
D17*
X146304000Y-60401000D03*
D16*
G36*
X146609581Y-61488876D02*
X146633281Y-61492391D01*
X146656523Y-61498213D01*
X146679082Y-61506285D01*
X146700742Y-61516529D01*
X146721292Y-61528847D01*
X146740537Y-61543119D01*
X146758290Y-61559210D01*
X146774381Y-61576963D01*
X146788653Y-61596208D01*
X146800971Y-61616758D01*
X146811215Y-61638418D01*
X146819287Y-61660977D01*
X146825109Y-61684219D01*
X146828624Y-61707919D01*
X146829800Y-61731850D01*
X146829800Y-62220150D01*
X146828624Y-62244081D01*
X146825109Y-62267781D01*
X146819287Y-62291023D01*
X146811215Y-62313582D01*
X146800971Y-62335242D01*
X146788653Y-62355792D01*
X146774381Y-62375037D01*
X146758290Y-62392790D01*
X146740537Y-62408881D01*
X146721292Y-62423153D01*
X146700742Y-62435471D01*
X146679082Y-62445715D01*
X146656523Y-62453787D01*
X146633281Y-62459609D01*
X146609581Y-62463124D01*
X146585650Y-62464300D01*
X146022350Y-62464300D01*
X145998419Y-62463124D01*
X145974719Y-62459609D01*
X145951477Y-62453787D01*
X145928918Y-62445715D01*
X145907258Y-62435471D01*
X145886708Y-62423153D01*
X145867463Y-62408881D01*
X145849710Y-62392790D01*
X145833619Y-62375037D01*
X145819347Y-62355792D01*
X145807029Y-62335242D01*
X145796785Y-62313582D01*
X145788713Y-62291023D01*
X145782891Y-62267781D01*
X145779376Y-62244081D01*
X145778200Y-62220150D01*
X145778200Y-61731850D01*
X145779376Y-61707919D01*
X145782891Y-61684219D01*
X145788713Y-61660977D01*
X145796785Y-61638418D01*
X145807029Y-61616758D01*
X145819347Y-61596208D01*
X145833619Y-61576963D01*
X145849710Y-61559210D01*
X145867463Y-61543119D01*
X145886708Y-61528847D01*
X145907258Y-61516529D01*
X145928918Y-61506285D01*
X145951477Y-61498213D01*
X145974719Y-61492391D01*
X145998419Y-61488876D01*
X146022350Y-61487700D01*
X146585650Y-61487700D01*
X146609581Y-61488876D01*
X146609581Y-61488876D01*
G37*
D17*
X146304000Y-61976000D03*
G04 #@! TD*
D16*
G04 #@! TO.C,R7*
G36*
X163627581Y-67279876D02*
X163651281Y-67283391D01*
X163674523Y-67289213D01*
X163697082Y-67297285D01*
X163718742Y-67307529D01*
X163739292Y-67319847D01*
X163758537Y-67334119D01*
X163776290Y-67350210D01*
X163792381Y-67367963D01*
X163806653Y-67387208D01*
X163818971Y-67407758D01*
X163829215Y-67429418D01*
X163837287Y-67451977D01*
X163843109Y-67475219D01*
X163846624Y-67498919D01*
X163847800Y-67522850D01*
X163847800Y-68011150D01*
X163846624Y-68035081D01*
X163843109Y-68058781D01*
X163837287Y-68082023D01*
X163829215Y-68104582D01*
X163818971Y-68126242D01*
X163806653Y-68146792D01*
X163792381Y-68166037D01*
X163776290Y-68183790D01*
X163758537Y-68199881D01*
X163739292Y-68214153D01*
X163718742Y-68226471D01*
X163697082Y-68236715D01*
X163674523Y-68244787D01*
X163651281Y-68250609D01*
X163627581Y-68254124D01*
X163603650Y-68255300D01*
X163040350Y-68255300D01*
X163016419Y-68254124D01*
X162992719Y-68250609D01*
X162969477Y-68244787D01*
X162946918Y-68236715D01*
X162925258Y-68226471D01*
X162904708Y-68214153D01*
X162885463Y-68199881D01*
X162867710Y-68183790D01*
X162851619Y-68166037D01*
X162837347Y-68146792D01*
X162825029Y-68126242D01*
X162814785Y-68104582D01*
X162806713Y-68082023D01*
X162800891Y-68058781D01*
X162797376Y-68035081D01*
X162796200Y-68011150D01*
X162796200Y-67522850D01*
X162797376Y-67498919D01*
X162800891Y-67475219D01*
X162806713Y-67451977D01*
X162814785Y-67429418D01*
X162825029Y-67407758D01*
X162837347Y-67387208D01*
X162851619Y-67367963D01*
X162867710Y-67350210D01*
X162885463Y-67334119D01*
X162904708Y-67319847D01*
X162925258Y-67307529D01*
X162946918Y-67297285D01*
X162969477Y-67289213D01*
X162992719Y-67283391D01*
X163016419Y-67279876D01*
X163040350Y-67278700D01*
X163603650Y-67278700D01*
X163627581Y-67279876D01*
X163627581Y-67279876D01*
G37*
D17*
X163322000Y-67767000D03*
D16*
G36*
X163627581Y-68854876D02*
X163651281Y-68858391D01*
X163674523Y-68864213D01*
X163697082Y-68872285D01*
X163718742Y-68882529D01*
X163739292Y-68894847D01*
X163758537Y-68909119D01*
X163776290Y-68925210D01*
X163792381Y-68942963D01*
X163806653Y-68962208D01*
X163818971Y-68982758D01*
X163829215Y-69004418D01*
X163837287Y-69026977D01*
X163843109Y-69050219D01*
X163846624Y-69073919D01*
X163847800Y-69097850D01*
X163847800Y-69586150D01*
X163846624Y-69610081D01*
X163843109Y-69633781D01*
X163837287Y-69657023D01*
X163829215Y-69679582D01*
X163818971Y-69701242D01*
X163806653Y-69721792D01*
X163792381Y-69741037D01*
X163776290Y-69758790D01*
X163758537Y-69774881D01*
X163739292Y-69789153D01*
X163718742Y-69801471D01*
X163697082Y-69811715D01*
X163674523Y-69819787D01*
X163651281Y-69825609D01*
X163627581Y-69829124D01*
X163603650Y-69830300D01*
X163040350Y-69830300D01*
X163016419Y-69829124D01*
X162992719Y-69825609D01*
X162969477Y-69819787D01*
X162946918Y-69811715D01*
X162925258Y-69801471D01*
X162904708Y-69789153D01*
X162885463Y-69774881D01*
X162867710Y-69758790D01*
X162851619Y-69741037D01*
X162837347Y-69721792D01*
X162825029Y-69701242D01*
X162814785Y-69679582D01*
X162806713Y-69657023D01*
X162800891Y-69633781D01*
X162797376Y-69610081D01*
X162796200Y-69586150D01*
X162796200Y-69097850D01*
X162797376Y-69073919D01*
X162800891Y-69050219D01*
X162806713Y-69026977D01*
X162814785Y-69004418D01*
X162825029Y-68982758D01*
X162837347Y-68962208D01*
X162851619Y-68942963D01*
X162867710Y-68925210D01*
X162885463Y-68909119D01*
X162904708Y-68894847D01*
X162925258Y-68882529D01*
X162946918Y-68872285D01*
X162969477Y-68864213D01*
X162992719Y-68858391D01*
X163016419Y-68854876D01*
X163040350Y-68853700D01*
X163603650Y-68853700D01*
X163627581Y-68854876D01*
X163627581Y-68854876D01*
G37*
D17*
X163322000Y-69342000D03*
G04 #@! TD*
D16*
G04 #@! TO.C,R9*
G36*
X128575581Y-63596876D02*
X128599281Y-63600391D01*
X128622523Y-63606213D01*
X128645082Y-63614285D01*
X128666742Y-63624529D01*
X128687292Y-63636847D01*
X128706537Y-63651119D01*
X128724290Y-63667210D01*
X128740381Y-63684963D01*
X128754653Y-63704208D01*
X128766971Y-63724758D01*
X128777215Y-63746418D01*
X128785287Y-63768977D01*
X128791109Y-63792219D01*
X128794624Y-63815919D01*
X128795800Y-63839850D01*
X128795800Y-64328150D01*
X128794624Y-64352081D01*
X128791109Y-64375781D01*
X128785287Y-64399023D01*
X128777215Y-64421582D01*
X128766971Y-64443242D01*
X128754653Y-64463792D01*
X128740381Y-64483037D01*
X128724290Y-64500790D01*
X128706537Y-64516881D01*
X128687292Y-64531153D01*
X128666742Y-64543471D01*
X128645082Y-64553715D01*
X128622523Y-64561787D01*
X128599281Y-64567609D01*
X128575581Y-64571124D01*
X128551650Y-64572300D01*
X127988350Y-64572300D01*
X127964419Y-64571124D01*
X127940719Y-64567609D01*
X127917477Y-64561787D01*
X127894918Y-64553715D01*
X127873258Y-64543471D01*
X127852708Y-64531153D01*
X127833463Y-64516881D01*
X127815710Y-64500790D01*
X127799619Y-64483037D01*
X127785347Y-64463792D01*
X127773029Y-64443242D01*
X127762785Y-64421582D01*
X127754713Y-64399023D01*
X127748891Y-64375781D01*
X127745376Y-64352081D01*
X127744200Y-64328150D01*
X127744200Y-63839850D01*
X127745376Y-63815919D01*
X127748891Y-63792219D01*
X127754713Y-63768977D01*
X127762785Y-63746418D01*
X127773029Y-63724758D01*
X127785347Y-63704208D01*
X127799619Y-63684963D01*
X127815710Y-63667210D01*
X127833463Y-63651119D01*
X127852708Y-63636847D01*
X127873258Y-63624529D01*
X127894918Y-63614285D01*
X127917477Y-63606213D01*
X127940719Y-63600391D01*
X127964419Y-63596876D01*
X127988350Y-63595700D01*
X128551650Y-63595700D01*
X128575581Y-63596876D01*
X128575581Y-63596876D01*
G37*
D17*
X128270000Y-64084000D03*
D16*
G36*
X128575581Y-65171876D02*
X128599281Y-65175391D01*
X128622523Y-65181213D01*
X128645082Y-65189285D01*
X128666742Y-65199529D01*
X128687292Y-65211847D01*
X128706537Y-65226119D01*
X128724290Y-65242210D01*
X128740381Y-65259963D01*
X128754653Y-65279208D01*
X128766971Y-65299758D01*
X128777215Y-65321418D01*
X128785287Y-65343977D01*
X128791109Y-65367219D01*
X128794624Y-65390919D01*
X128795800Y-65414850D01*
X128795800Y-65903150D01*
X128794624Y-65927081D01*
X128791109Y-65950781D01*
X128785287Y-65974023D01*
X128777215Y-65996582D01*
X128766971Y-66018242D01*
X128754653Y-66038792D01*
X128740381Y-66058037D01*
X128724290Y-66075790D01*
X128706537Y-66091881D01*
X128687292Y-66106153D01*
X128666742Y-66118471D01*
X128645082Y-66128715D01*
X128622523Y-66136787D01*
X128599281Y-66142609D01*
X128575581Y-66146124D01*
X128551650Y-66147300D01*
X127988350Y-66147300D01*
X127964419Y-66146124D01*
X127940719Y-66142609D01*
X127917477Y-66136787D01*
X127894918Y-66128715D01*
X127873258Y-66118471D01*
X127852708Y-66106153D01*
X127833463Y-66091881D01*
X127815710Y-66075790D01*
X127799619Y-66058037D01*
X127785347Y-66038792D01*
X127773029Y-66018242D01*
X127762785Y-65996582D01*
X127754713Y-65974023D01*
X127748891Y-65950781D01*
X127745376Y-65927081D01*
X127744200Y-65903150D01*
X127744200Y-65414850D01*
X127745376Y-65390919D01*
X127748891Y-65367219D01*
X127754713Y-65343977D01*
X127762785Y-65321418D01*
X127773029Y-65299758D01*
X127785347Y-65279208D01*
X127799619Y-65259963D01*
X127815710Y-65242210D01*
X127833463Y-65226119D01*
X127852708Y-65211847D01*
X127873258Y-65199529D01*
X127894918Y-65189285D01*
X127917477Y-65181213D01*
X127940719Y-65175391D01*
X127964419Y-65171876D01*
X127988350Y-65170700D01*
X128551650Y-65170700D01*
X128575581Y-65171876D01*
X128575581Y-65171876D01*
G37*
D17*
X128270000Y-65659000D03*
G04 #@! TD*
D16*
G04 #@! TO.C,R10*
G36*
X124511581Y-65171876D02*
X124535281Y-65175391D01*
X124558523Y-65181213D01*
X124581082Y-65189285D01*
X124602742Y-65199529D01*
X124623292Y-65211847D01*
X124642537Y-65226119D01*
X124660290Y-65242210D01*
X124676381Y-65259963D01*
X124690653Y-65279208D01*
X124702971Y-65299758D01*
X124713215Y-65321418D01*
X124721287Y-65343977D01*
X124727109Y-65367219D01*
X124730624Y-65390919D01*
X124731800Y-65414850D01*
X124731800Y-65903150D01*
X124730624Y-65927081D01*
X124727109Y-65950781D01*
X124721287Y-65974023D01*
X124713215Y-65996582D01*
X124702971Y-66018242D01*
X124690653Y-66038792D01*
X124676381Y-66058037D01*
X124660290Y-66075790D01*
X124642537Y-66091881D01*
X124623292Y-66106153D01*
X124602742Y-66118471D01*
X124581082Y-66128715D01*
X124558523Y-66136787D01*
X124535281Y-66142609D01*
X124511581Y-66146124D01*
X124487650Y-66147300D01*
X123924350Y-66147300D01*
X123900419Y-66146124D01*
X123876719Y-66142609D01*
X123853477Y-66136787D01*
X123830918Y-66128715D01*
X123809258Y-66118471D01*
X123788708Y-66106153D01*
X123769463Y-66091881D01*
X123751710Y-66075790D01*
X123735619Y-66058037D01*
X123721347Y-66038792D01*
X123709029Y-66018242D01*
X123698785Y-65996582D01*
X123690713Y-65974023D01*
X123684891Y-65950781D01*
X123681376Y-65927081D01*
X123680200Y-65903150D01*
X123680200Y-65414850D01*
X123681376Y-65390919D01*
X123684891Y-65367219D01*
X123690713Y-65343977D01*
X123698785Y-65321418D01*
X123709029Y-65299758D01*
X123721347Y-65279208D01*
X123735619Y-65259963D01*
X123751710Y-65242210D01*
X123769463Y-65226119D01*
X123788708Y-65211847D01*
X123809258Y-65199529D01*
X123830918Y-65189285D01*
X123853477Y-65181213D01*
X123876719Y-65175391D01*
X123900419Y-65171876D01*
X123924350Y-65170700D01*
X124487650Y-65170700D01*
X124511581Y-65171876D01*
X124511581Y-65171876D01*
G37*
D17*
X124206000Y-65659000D03*
D16*
G36*
X124511581Y-63596876D02*
X124535281Y-63600391D01*
X124558523Y-63606213D01*
X124581082Y-63614285D01*
X124602742Y-63624529D01*
X124623292Y-63636847D01*
X124642537Y-63651119D01*
X124660290Y-63667210D01*
X124676381Y-63684963D01*
X124690653Y-63704208D01*
X124702971Y-63724758D01*
X124713215Y-63746418D01*
X124721287Y-63768977D01*
X124727109Y-63792219D01*
X124730624Y-63815919D01*
X124731800Y-63839850D01*
X124731800Y-64328150D01*
X124730624Y-64352081D01*
X124727109Y-64375781D01*
X124721287Y-64399023D01*
X124713215Y-64421582D01*
X124702971Y-64443242D01*
X124690653Y-64463792D01*
X124676381Y-64483037D01*
X124660290Y-64500790D01*
X124642537Y-64516881D01*
X124623292Y-64531153D01*
X124602742Y-64543471D01*
X124581082Y-64553715D01*
X124558523Y-64561787D01*
X124535281Y-64567609D01*
X124511581Y-64571124D01*
X124487650Y-64572300D01*
X123924350Y-64572300D01*
X123900419Y-64571124D01*
X123876719Y-64567609D01*
X123853477Y-64561787D01*
X123830918Y-64553715D01*
X123809258Y-64543471D01*
X123788708Y-64531153D01*
X123769463Y-64516881D01*
X123751710Y-64500790D01*
X123735619Y-64483037D01*
X123721347Y-64463792D01*
X123709029Y-64443242D01*
X123698785Y-64421582D01*
X123690713Y-64399023D01*
X123684891Y-64375781D01*
X123681376Y-64352081D01*
X123680200Y-64328150D01*
X123680200Y-63839850D01*
X123681376Y-63815919D01*
X123684891Y-63792219D01*
X123690713Y-63768977D01*
X123698785Y-63746418D01*
X123709029Y-63724758D01*
X123721347Y-63704208D01*
X123735619Y-63684963D01*
X123751710Y-63667210D01*
X123769463Y-63651119D01*
X123788708Y-63636847D01*
X123809258Y-63624529D01*
X123830918Y-63614285D01*
X123853477Y-63606213D01*
X123876719Y-63600391D01*
X123900419Y-63596876D01*
X123924350Y-63595700D01*
X124487650Y-63595700D01*
X124511581Y-63596876D01*
X124511581Y-63596876D01*
G37*
D17*
X124206000Y-64084000D03*
G04 #@! TD*
D16*
G04 #@! TO.C,R11*
G36*
X119431581Y-65171876D02*
X119455281Y-65175391D01*
X119478523Y-65181213D01*
X119501082Y-65189285D01*
X119522742Y-65199529D01*
X119543292Y-65211847D01*
X119562537Y-65226119D01*
X119580290Y-65242210D01*
X119596381Y-65259963D01*
X119610653Y-65279208D01*
X119622971Y-65299758D01*
X119633215Y-65321418D01*
X119641287Y-65343977D01*
X119647109Y-65367219D01*
X119650624Y-65390919D01*
X119651800Y-65414850D01*
X119651800Y-65903150D01*
X119650624Y-65927081D01*
X119647109Y-65950781D01*
X119641287Y-65974023D01*
X119633215Y-65996582D01*
X119622971Y-66018242D01*
X119610653Y-66038792D01*
X119596381Y-66058037D01*
X119580290Y-66075790D01*
X119562537Y-66091881D01*
X119543292Y-66106153D01*
X119522742Y-66118471D01*
X119501082Y-66128715D01*
X119478523Y-66136787D01*
X119455281Y-66142609D01*
X119431581Y-66146124D01*
X119407650Y-66147300D01*
X118844350Y-66147300D01*
X118820419Y-66146124D01*
X118796719Y-66142609D01*
X118773477Y-66136787D01*
X118750918Y-66128715D01*
X118729258Y-66118471D01*
X118708708Y-66106153D01*
X118689463Y-66091881D01*
X118671710Y-66075790D01*
X118655619Y-66058037D01*
X118641347Y-66038792D01*
X118629029Y-66018242D01*
X118618785Y-65996582D01*
X118610713Y-65974023D01*
X118604891Y-65950781D01*
X118601376Y-65927081D01*
X118600200Y-65903150D01*
X118600200Y-65414850D01*
X118601376Y-65390919D01*
X118604891Y-65367219D01*
X118610713Y-65343977D01*
X118618785Y-65321418D01*
X118629029Y-65299758D01*
X118641347Y-65279208D01*
X118655619Y-65259963D01*
X118671710Y-65242210D01*
X118689463Y-65226119D01*
X118708708Y-65211847D01*
X118729258Y-65199529D01*
X118750918Y-65189285D01*
X118773477Y-65181213D01*
X118796719Y-65175391D01*
X118820419Y-65171876D01*
X118844350Y-65170700D01*
X119407650Y-65170700D01*
X119431581Y-65171876D01*
X119431581Y-65171876D01*
G37*
D17*
X119126000Y-65659000D03*
D16*
G36*
X119431581Y-63596876D02*
X119455281Y-63600391D01*
X119478523Y-63606213D01*
X119501082Y-63614285D01*
X119522742Y-63624529D01*
X119543292Y-63636847D01*
X119562537Y-63651119D01*
X119580290Y-63667210D01*
X119596381Y-63684963D01*
X119610653Y-63704208D01*
X119622971Y-63724758D01*
X119633215Y-63746418D01*
X119641287Y-63768977D01*
X119647109Y-63792219D01*
X119650624Y-63815919D01*
X119651800Y-63839850D01*
X119651800Y-64328150D01*
X119650624Y-64352081D01*
X119647109Y-64375781D01*
X119641287Y-64399023D01*
X119633215Y-64421582D01*
X119622971Y-64443242D01*
X119610653Y-64463792D01*
X119596381Y-64483037D01*
X119580290Y-64500790D01*
X119562537Y-64516881D01*
X119543292Y-64531153D01*
X119522742Y-64543471D01*
X119501082Y-64553715D01*
X119478523Y-64561787D01*
X119455281Y-64567609D01*
X119431581Y-64571124D01*
X119407650Y-64572300D01*
X118844350Y-64572300D01*
X118820419Y-64571124D01*
X118796719Y-64567609D01*
X118773477Y-64561787D01*
X118750918Y-64553715D01*
X118729258Y-64543471D01*
X118708708Y-64531153D01*
X118689463Y-64516881D01*
X118671710Y-64500790D01*
X118655619Y-64483037D01*
X118641347Y-64463792D01*
X118629029Y-64443242D01*
X118618785Y-64421582D01*
X118610713Y-64399023D01*
X118604891Y-64375781D01*
X118601376Y-64352081D01*
X118600200Y-64328150D01*
X118600200Y-63839850D01*
X118601376Y-63815919D01*
X118604891Y-63792219D01*
X118610713Y-63768977D01*
X118618785Y-63746418D01*
X118629029Y-63724758D01*
X118641347Y-63704208D01*
X118655619Y-63684963D01*
X118671710Y-63667210D01*
X118689463Y-63651119D01*
X118708708Y-63636847D01*
X118729258Y-63624529D01*
X118750918Y-63614285D01*
X118773477Y-63606213D01*
X118796719Y-63600391D01*
X118820419Y-63596876D01*
X118844350Y-63595700D01*
X119407650Y-63595700D01*
X119431581Y-63596876D01*
X119431581Y-63596876D01*
G37*
D17*
X119126000Y-64084000D03*
G04 #@! TD*
D16*
G04 #@! TO.C,R12*
G36*
X115367581Y-63596876D02*
X115391281Y-63600391D01*
X115414523Y-63606213D01*
X115437082Y-63614285D01*
X115458742Y-63624529D01*
X115479292Y-63636847D01*
X115498537Y-63651119D01*
X115516290Y-63667210D01*
X115532381Y-63684963D01*
X115546653Y-63704208D01*
X115558971Y-63724758D01*
X115569215Y-63746418D01*
X115577287Y-63768977D01*
X115583109Y-63792219D01*
X115586624Y-63815919D01*
X115587800Y-63839850D01*
X115587800Y-64328150D01*
X115586624Y-64352081D01*
X115583109Y-64375781D01*
X115577287Y-64399023D01*
X115569215Y-64421582D01*
X115558971Y-64443242D01*
X115546653Y-64463792D01*
X115532381Y-64483037D01*
X115516290Y-64500790D01*
X115498537Y-64516881D01*
X115479292Y-64531153D01*
X115458742Y-64543471D01*
X115437082Y-64553715D01*
X115414523Y-64561787D01*
X115391281Y-64567609D01*
X115367581Y-64571124D01*
X115343650Y-64572300D01*
X114780350Y-64572300D01*
X114756419Y-64571124D01*
X114732719Y-64567609D01*
X114709477Y-64561787D01*
X114686918Y-64553715D01*
X114665258Y-64543471D01*
X114644708Y-64531153D01*
X114625463Y-64516881D01*
X114607710Y-64500790D01*
X114591619Y-64483037D01*
X114577347Y-64463792D01*
X114565029Y-64443242D01*
X114554785Y-64421582D01*
X114546713Y-64399023D01*
X114540891Y-64375781D01*
X114537376Y-64352081D01*
X114536200Y-64328150D01*
X114536200Y-63839850D01*
X114537376Y-63815919D01*
X114540891Y-63792219D01*
X114546713Y-63768977D01*
X114554785Y-63746418D01*
X114565029Y-63724758D01*
X114577347Y-63704208D01*
X114591619Y-63684963D01*
X114607710Y-63667210D01*
X114625463Y-63651119D01*
X114644708Y-63636847D01*
X114665258Y-63624529D01*
X114686918Y-63614285D01*
X114709477Y-63606213D01*
X114732719Y-63600391D01*
X114756419Y-63596876D01*
X114780350Y-63595700D01*
X115343650Y-63595700D01*
X115367581Y-63596876D01*
X115367581Y-63596876D01*
G37*
D17*
X115062000Y-64084000D03*
D16*
G36*
X115367581Y-65171876D02*
X115391281Y-65175391D01*
X115414523Y-65181213D01*
X115437082Y-65189285D01*
X115458742Y-65199529D01*
X115479292Y-65211847D01*
X115498537Y-65226119D01*
X115516290Y-65242210D01*
X115532381Y-65259963D01*
X115546653Y-65279208D01*
X115558971Y-65299758D01*
X115569215Y-65321418D01*
X115577287Y-65343977D01*
X115583109Y-65367219D01*
X115586624Y-65390919D01*
X115587800Y-65414850D01*
X115587800Y-65903150D01*
X115586624Y-65927081D01*
X115583109Y-65950781D01*
X115577287Y-65974023D01*
X115569215Y-65996582D01*
X115558971Y-66018242D01*
X115546653Y-66038792D01*
X115532381Y-66058037D01*
X115516290Y-66075790D01*
X115498537Y-66091881D01*
X115479292Y-66106153D01*
X115458742Y-66118471D01*
X115437082Y-66128715D01*
X115414523Y-66136787D01*
X115391281Y-66142609D01*
X115367581Y-66146124D01*
X115343650Y-66147300D01*
X114780350Y-66147300D01*
X114756419Y-66146124D01*
X114732719Y-66142609D01*
X114709477Y-66136787D01*
X114686918Y-66128715D01*
X114665258Y-66118471D01*
X114644708Y-66106153D01*
X114625463Y-66091881D01*
X114607710Y-66075790D01*
X114591619Y-66058037D01*
X114577347Y-66038792D01*
X114565029Y-66018242D01*
X114554785Y-65996582D01*
X114546713Y-65974023D01*
X114540891Y-65950781D01*
X114537376Y-65927081D01*
X114536200Y-65903150D01*
X114536200Y-65414850D01*
X114537376Y-65390919D01*
X114540891Y-65367219D01*
X114546713Y-65343977D01*
X114554785Y-65321418D01*
X114565029Y-65299758D01*
X114577347Y-65279208D01*
X114591619Y-65259963D01*
X114607710Y-65242210D01*
X114625463Y-65226119D01*
X114644708Y-65211847D01*
X114665258Y-65199529D01*
X114686918Y-65189285D01*
X114709477Y-65181213D01*
X114732719Y-65175391D01*
X114756419Y-65171876D01*
X114780350Y-65170700D01*
X115343650Y-65170700D01*
X115367581Y-65171876D01*
X115367581Y-65171876D01*
G37*
D17*
X115062000Y-65659000D03*
G04 #@! TD*
D16*
G04 #@! TO.C,R13*
G36*
X121463581Y-65222876D02*
X121487281Y-65226391D01*
X121510523Y-65232213D01*
X121533082Y-65240285D01*
X121554742Y-65250529D01*
X121575292Y-65262847D01*
X121594537Y-65277119D01*
X121612290Y-65293210D01*
X121628381Y-65310963D01*
X121642653Y-65330208D01*
X121654971Y-65350758D01*
X121665215Y-65372418D01*
X121673287Y-65394977D01*
X121679109Y-65418219D01*
X121682624Y-65441919D01*
X121683800Y-65465850D01*
X121683800Y-65954150D01*
X121682624Y-65978081D01*
X121679109Y-66001781D01*
X121673287Y-66025023D01*
X121665215Y-66047582D01*
X121654971Y-66069242D01*
X121642653Y-66089792D01*
X121628381Y-66109037D01*
X121612290Y-66126790D01*
X121594537Y-66142881D01*
X121575292Y-66157153D01*
X121554742Y-66169471D01*
X121533082Y-66179715D01*
X121510523Y-66187787D01*
X121487281Y-66193609D01*
X121463581Y-66197124D01*
X121439650Y-66198300D01*
X120876350Y-66198300D01*
X120852419Y-66197124D01*
X120828719Y-66193609D01*
X120805477Y-66187787D01*
X120782918Y-66179715D01*
X120761258Y-66169471D01*
X120740708Y-66157153D01*
X120721463Y-66142881D01*
X120703710Y-66126790D01*
X120687619Y-66109037D01*
X120673347Y-66089792D01*
X120661029Y-66069242D01*
X120650785Y-66047582D01*
X120642713Y-66025023D01*
X120636891Y-66001781D01*
X120633376Y-65978081D01*
X120632200Y-65954150D01*
X120632200Y-65465850D01*
X120633376Y-65441919D01*
X120636891Y-65418219D01*
X120642713Y-65394977D01*
X120650785Y-65372418D01*
X120661029Y-65350758D01*
X120673347Y-65330208D01*
X120687619Y-65310963D01*
X120703710Y-65293210D01*
X120721463Y-65277119D01*
X120740708Y-65262847D01*
X120761258Y-65250529D01*
X120782918Y-65240285D01*
X120805477Y-65232213D01*
X120828719Y-65226391D01*
X120852419Y-65222876D01*
X120876350Y-65221700D01*
X121439650Y-65221700D01*
X121463581Y-65222876D01*
X121463581Y-65222876D01*
G37*
D17*
X121158000Y-65710000D03*
D16*
G36*
X121463581Y-63647876D02*
X121487281Y-63651391D01*
X121510523Y-63657213D01*
X121533082Y-63665285D01*
X121554742Y-63675529D01*
X121575292Y-63687847D01*
X121594537Y-63702119D01*
X121612290Y-63718210D01*
X121628381Y-63735963D01*
X121642653Y-63755208D01*
X121654971Y-63775758D01*
X121665215Y-63797418D01*
X121673287Y-63819977D01*
X121679109Y-63843219D01*
X121682624Y-63866919D01*
X121683800Y-63890850D01*
X121683800Y-64379150D01*
X121682624Y-64403081D01*
X121679109Y-64426781D01*
X121673287Y-64450023D01*
X121665215Y-64472582D01*
X121654971Y-64494242D01*
X121642653Y-64514792D01*
X121628381Y-64534037D01*
X121612290Y-64551790D01*
X121594537Y-64567881D01*
X121575292Y-64582153D01*
X121554742Y-64594471D01*
X121533082Y-64604715D01*
X121510523Y-64612787D01*
X121487281Y-64618609D01*
X121463581Y-64622124D01*
X121439650Y-64623300D01*
X120876350Y-64623300D01*
X120852419Y-64622124D01*
X120828719Y-64618609D01*
X120805477Y-64612787D01*
X120782918Y-64604715D01*
X120761258Y-64594471D01*
X120740708Y-64582153D01*
X120721463Y-64567881D01*
X120703710Y-64551790D01*
X120687619Y-64534037D01*
X120673347Y-64514792D01*
X120661029Y-64494242D01*
X120650785Y-64472582D01*
X120642713Y-64450023D01*
X120636891Y-64426781D01*
X120633376Y-64403081D01*
X120632200Y-64379150D01*
X120632200Y-63890850D01*
X120633376Y-63866919D01*
X120636891Y-63843219D01*
X120642713Y-63819977D01*
X120650785Y-63797418D01*
X120661029Y-63775758D01*
X120673347Y-63755208D01*
X120687619Y-63735963D01*
X120703710Y-63718210D01*
X120721463Y-63702119D01*
X120740708Y-63687847D01*
X120761258Y-63675529D01*
X120782918Y-63665285D01*
X120805477Y-63657213D01*
X120828719Y-63651391D01*
X120852419Y-63647876D01*
X120876350Y-63646700D01*
X121439650Y-63646700D01*
X121463581Y-63647876D01*
X121463581Y-63647876D01*
G37*
D17*
X121158000Y-64135000D03*
G04 #@! TD*
D16*
G04 #@! TO.C,R15*
G36*
X123204081Y-73897376D02*
X123227781Y-73900891D01*
X123251023Y-73906713D01*
X123273582Y-73914785D01*
X123295242Y-73925029D01*
X123315792Y-73937347D01*
X123335037Y-73951619D01*
X123352790Y-73967710D01*
X123368881Y-73985463D01*
X123383153Y-74004708D01*
X123395471Y-74025258D01*
X123405715Y-74046918D01*
X123413787Y-74069477D01*
X123419609Y-74092719D01*
X123423124Y-74116419D01*
X123424300Y-74140350D01*
X123424300Y-74703650D01*
X123423124Y-74727581D01*
X123419609Y-74751281D01*
X123413787Y-74774523D01*
X123405715Y-74797082D01*
X123395471Y-74818742D01*
X123383153Y-74839292D01*
X123368881Y-74858537D01*
X123352790Y-74876290D01*
X123335037Y-74892381D01*
X123315792Y-74906653D01*
X123295242Y-74918971D01*
X123273582Y-74929215D01*
X123251023Y-74937287D01*
X123227781Y-74943109D01*
X123204081Y-74946624D01*
X123180150Y-74947800D01*
X122691850Y-74947800D01*
X122667919Y-74946624D01*
X122644219Y-74943109D01*
X122620977Y-74937287D01*
X122598418Y-74929215D01*
X122576758Y-74918971D01*
X122556208Y-74906653D01*
X122536963Y-74892381D01*
X122519210Y-74876290D01*
X122503119Y-74858537D01*
X122488847Y-74839292D01*
X122476529Y-74818742D01*
X122466285Y-74797082D01*
X122458213Y-74774523D01*
X122452391Y-74751281D01*
X122448876Y-74727581D01*
X122447700Y-74703650D01*
X122447700Y-74140350D01*
X122448876Y-74116419D01*
X122452391Y-74092719D01*
X122458213Y-74069477D01*
X122466285Y-74046918D01*
X122476529Y-74025258D01*
X122488847Y-74004708D01*
X122503119Y-73985463D01*
X122519210Y-73967710D01*
X122536963Y-73951619D01*
X122556208Y-73937347D01*
X122576758Y-73925029D01*
X122598418Y-73914785D01*
X122620977Y-73906713D01*
X122644219Y-73900891D01*
X122667919Y-73897376D01*
X122691850Y-73896200D01*
X123180150Y-73896200D01*
X123204081Y-73897376D01*
X123204081Y-73897376D01*
G37*
D17*
X122936000Y-74422000D03*
D16*
G36*
X124779081Y-73897376D02*
X124802781Y-73900891D01*
X124826023Y-73906713D01*
X124848582Y-73914785D01*
X124870242Y-73925029D01*
X124890792Y-73937347D01*
X124910037Y-73951619D01*
X124927790Y-73967710D01*
X124943881Y-73985463D01*
X124958153Y-74004708D01*
X124970471Y-74025258D01*
X124980715Y-74046918D01*
X124988787Y-74069477D01*
X124994609Y-74092719D01*
X124998124Y-74116419D01*
X124999300Y-74140350D01*
X124999300Y-74703650D01*
X124998124Y-74727581D01*
X124994609Y-74751281D01*
X124988787Y-74774523D01*
X124980715Y-74797082D01*
X124970471Y-74818742D01*
X124958153Y-74839292D01*
X124943881Y-74858537D01*
X124927790Y-74876290D01*
X124910037Y-74892381D01*
X124890792Y-74906653D01*
X124870242Y-74918971D01*
X124848582Y-74929215D01*
X124826023Y-74937287D01*
X124802781Y-74943109D01*
X124779081Y-74946624D01*
X124755150Y-74947800D01*
X124266850Y-74947800D01*
X124242919Y-74946624D01*
X124219219Y-74943109D01*
X124195977Y-74937287D01*
X124173418Y-74929215D01*
X124151758Y-74918971D01*
X124131208Y-74906653D01*
X124111963Y-74892381D01*
X124094210Y-74876290D01*
X124078119Y-74858537D01*
X124063847Y-74839292D01*
X124051529Y-74818742D01*
X124041285Y-74797082D01*
X124033213Y-74774523D01*
X124027391Y-74751281D01*
X124023876Y-74727581D01*
X124022700Y-74703650D01*
X124022700Y-74140350D01*
X124023876Y-74116419D01*
X124027391Y-74092719D01*
X124033213Y-74069477D01*
X124041285Y-74046918D01*
X124051529Y-74025258D01*
X124063847Y-74004708D01*
X124078119Y-73985463D01*
X124094210Y-73967710D01*
X124111963Y-73951619D01*
X124131208Y-73937347D01*
X124151758Y-73925029D01*
X124173418Y-73914785D01*
X124195977Y-73906713D01*
X124219219Y-73900891D01*
X124242919Y-73897376D01*
X124266850Y-73896200D01*
X124755150Y-73896200D01*
X124779081Y-73897376D01*
X124779081Y-73897376D01*
G37*
D17*
X124511000Y-74422000D03*
G04 #@! TD*
D16*
G04 #@! TO.C,R17*
G36*
X131332081Y-74659376D02*
X131355781Y-74662891D01*
X131379023Y-74668713D01*
X131401582Y-74676785D01*
X131423242Y-74687029D01*
X131443792Y-74699347D01*
X131463037Y-74713619D01*
X131480790Y-74729710D01*
X131496881Y-74747463D01*
X131511153Y-74766708D01*
X131523471Y-74787258D01*
X131533715Y-74808918D01*
X131541787Y-74831477D01*
X131547609Y-74854719D01*
X131551124Y-74878419D01*
X131552300Y-74902350D01*
X131552300Y-75465650D01*
X131551124Y-75489581D01*
X131547609Y-75513281D01*
X131541787Y-75536523D01*
X131533715Y-75559082D01*
X131523471Y-75580742D01*
X131511153Y-75601292D01*
X131496881Y-75620537D01*
X131480790Y-75638290D01*
X131463037Y-75654381D01*
X131443792Y-75668653D01*
X131423242Y-75680971D01*
X131401582Y-75691215D01*
X131379023Y-75699287D01*
X131355781Y-75705109D01*
X131332081Y-75708624D01*
X131308150Y-75709800D01*
X130819850Y-75709800D01*
X130795919Y-75708624D01*
X130772219Y-75705109D01*
X130748977Y-75699287D01*
X130726418Y-75691215D01*
X130704758Y-75680971D01*
X130684208Y-75668653D01*
X130664963Y-75654381D01*
X130647210Y-75638290D01*
X130631119Y-75620537D01*
X130616847Y-75601292D01*
X130604529Y-75580742D01*
X130594285Y-75559082D01*
X130586213Y-75536523D01*
X130580391Y-75513281D01*
X130576876Y-75489581D01*
X130575700Y-75465650D01*
X130575700Y-74902350D01*
X130576876Y-74878419D01*
X130580391Y-74854719D01*
X130586213Y-74831477D01*
X130594285Y-74808918D01*
X130604529Y-74787258D01*
X130616847Y-74766708D01*
X130631119Y-74747463D01*
X130647210Y-74729710D01*
X130664963Y-74713619D01*
X130684208Y-74699347D01*
X130704758Y-74687029D01*
X130726418Y-74676785D01*
X130748977Y-74668713D01*
X130772219Y-74662891D01*
X130795919Y-74659376D01*
X130819850Y-74658200D01*
X131308150Y-74658200D01*
X131332081Y-74659376D01*
X131332081Y-74659376D01*
G37*
D17*
X131064000Y-75184000D03*
D16*
G36*
X132907081Y-74659376D02*
X132930781Y-74662891D01*
X132954023Y-74668713D01*
X132976582Y-74676785D01*
X132998242Y-74687029D01*
X133018792Y-74699347D01*
X133038037Y-74713619D01*
X133055790Y-74729710D01*
X133071881Y-74747463D01*
X133086153Y-74766708D01*
X133098471Y-74787258D01*
X133108715Y-74808918D01*
X133116787Y-74831477D01*
X133122609Y-74854719D01*
X133126124Y-74878419D01*
X133127300Y-74902350D01*
X133127300Y-75465650D01*
X133126124Y-75489581D01*
X133122609Y-75513281D01*
X133116787Y-75536523D01*
X133108715Y-75559082D01*
X133098471Y-75580742D01*
X133086153Y-75601292D01*
X133071881Y-75620537D01*
X133055790Y-75638290D01*
X133038037Y-75654381D01*
X133018792Y-75668653D01*
X132998242Y-75680971D01*
X132976582Y-75691215D01*
X132954023Y-75699287D01*
X132930781Y-75705109D01*
X132907081Y-75708624D01*
X132883150Y-75709800D01*
X132394850Y-75709800D01*
X132370919Y-75708624D01*
X132347219Y-75705109D01*
X132323977Y-75699287D01*
X132301418Y-75691215D01*
X132279758Y-75680971D01*
X132259208Y-75668653D01*
X132239963Y-75654381D01*
X132222210Y-75638290D01*
X132206119Y-75620537D01*
X132191847Y-75601292D01*
X132179529Y-75580742D01*
X132169285Y-75559082D01*
X132161213Y-75536523D01*
X132155391Y-75513281D01*
X132151876Y-75489581D01*
X132150700Y-75465650D01*
X132150700Y-74902350D01*
X132151876Y-74878419D01*
X132155391Y-74854719D01*
X132161213Y-74831477D01*
X132169285Y-74808918D01*
X132179529Y-74787258D01*
X132191847Y-74766708D01*
X132206119Y-74747463D01*
X132222210Y-74729710D01*
X132239963Y-74713619D01*
X132259208Y-74699347D01*
X132279758Y-74687029D01*
X132301418Y-74676785D01*
X132323977Y-74668713D01*
X132347219Y-74662891D01*
X132370919Y-74659376D01*
X132394850Y-74658200D01*
X132883150Y-74658200D01*
X132907081Y-74659376D01*
X132907081Y-74659376D01*
G37*
D17*
X132639000Y-75184000D03*
G04 #@! TD*
D21*
G04 #@! TO.C,U1*
X135255000Y-60960000D03*
D22*
X137795000Y-60960000D03*
X140335000Y-60960000D03*
G04 #@! TD*
D23*
G04 #@! TO.C,U2*
X123632000Y-71755000D03*
X123632000Y-70485000D03*
X123632000Y-69215000D03*
X123632000Y-67945000D03*
X129032000Y-67945000D03*
X129032000Y-69215000D03*
X129032000Y-70485000D03*
X129032000Y-71755000D03*
G04 #@! TD*
G04 #@! TO.C,U3*
X114394000Y-67945000D03*
X114394000Y-69215000D03*
X114394000Y-70485000D03*
X114394000Y-71755000D03*
X119794000Y-71755000D03*
X119794000Y-70485000D03*
X119794000Y-69215000D03*
X119794000Y-67945000D03*
G04 #@! TD*
D24*
G04 #@! TO.C,U5*
X147955000Y-70010000D03*
X149225000Y-70010000D03*
X150495000Y-70010000D03*
X151765000Y-70010000D03*
X151765000Y-64610000D03*
X150495000Y-64610000D03*
X149225000Y-64610000D03*
X147955000Y-64610000D03*
G04 #@! TD*
D25*
G04 #@! TO.C,U6*
X155292000Y-64385000D03*
X155292000Y-65035000D03*
X155292000Y-65685000D03*
X155292000Y-66335000D03*
X155292000Y-66985000D03*
X155292000Y-67635000D03*
X155292000Y-68285000D03*
X155292000Y-68935000D03*
X155292000Y-69585000D03*
X155292000Y-70235000D03*
X161192000Y-70235000D03*
X161192000Y-69585000D03*
X161192000Y-68935000D03*
X161192000Y-68285000D03*
X161192000Y-67635000D03*
X161192000Y-66985000D03*
X161192000Y-66335000D03*
X161192000Y-65685000D03*
X161192000Y-65035000D03*
X161192000Y-64385000D03*
G04 #@! TD*
D16*
G04 #@! TO.C,C8*
G36*
X134659581Y-63737376D02*
X134683281Y-63740891D01*
X134706523Y-63746713D01*
X134729082Y-63754785D01*
X134750742Y-63765029D01*
X134771292Y-63777347D01*
X134790537Y-63791619D01*
X134808290Y-63807710D01*
X134824381Y-63825463D01*
X134838653Y-63844708D01*
X134850971Y-63865258D01*
X134861215Y-63886918D01*
X134869287Y-63909477D01*
X134875109Y-63932719D01*
X134878624Y-63956419D01*
X134879800Y-63980350D01*
X134879800Y-64543650D01*
X134878624Y-64567581D01*
X134875109Y-64591281D01*
X134869287Y-64614523D01*
X134861215Y-64637082D01*
X134850971Y-64658742D01*
X134838653Y-64679292D01*
X134824381Y-64698537D01*
X134808290Y-64716290D01*
X134790537Y-64732381D01*
X134771292Y-64746653D01*
X134750742Y-64758971D01*
X134729082Y-64769215D01*
X134706523Y-64777287D01*
X134683281Y-64783109D01*
X134659581Y-64786624D01*
X134635650Y-64787800D01*
X134147350Y-64787800D01*
X134123419Y-64786624D01*
X134099719Y-64783109D01*
X134076477Y-64777287D01*
X134053918Y-64769215D01*
X134032258Y-64758971D01*
X134011708Y-64746653D01*
X133992463Y-64732381D01*
X133974710Y-64716290D01*
X133958619Y-64698537D01*
X133944347Y-64679292D01*
X133932029Y-64658742D01*
X133921785Y-64637082D01*
X133913713Y-64614523D01*
X133907891Y-64591281D01*
X133904376Y-64567581D01*
X133903200Y-64543650D01*
X133903200Y-63980350D01*
X133904376Y-63956419D01*
X133907891Y-63932719D01*
X133913713Y-63909477D01*
X133921785Y-63886918D01*
X133932029Y-63865258D01*
X133944347Y-63844708D01*
X133958619Y-63825463D01*
X133974710Y-63807710D01*
X133992463Y-63791619D01*
X134011708Y-63777347D01*
X134032258Y-63765029D01*
X134053918Y-63754785D01*
X134076477Y-63746713D01*
X134099719Y-63740891D01*
X134123419Y-63737376D01*
X134147350Y-63736200D01*
X134635650Y-63736200D01*
X134659581Y-63737376D01*
X134659581Y-63737376D01*
G37*
D17*
X134391500Y-64262000D03*
D16*
G36*
X133084581Y-63737376D02*
X133108281Y-63740891D01*
X133131523Y-63746713D01*
X133154082Y-63754785D01*
X133175742Y-63765029D01*
X133196292Y-63777347D01*
X133215537Y-63791619D01*
X133233290Y-63807710D01*
X133249381Y-63825463D01*
X133263653Y-63844708D01*
X133275971Y-63865258D01*
X133286215Y-63886918D01*
X133294287Y-63909477D01*
X133300109Y-63932719D01*
X133303624Y-63956419D01*
X133304800Y-63980350D01*
X133304800Y-64543650D01*
X133303624Y-64567581D01*
X133300109Y-64591281D01*
X133294287Y-64614523D01*
X133286215Y-64637082D01*
X133275971Y-64658742D01*
X133263653Y-64679292D01*
X133249381Y-64698537D01*
X133233290Y-64716290D01*
X133215537Y-64732381D01*
X133196292Y-64746653D01*
X133175742Y-64758971D01*
X133154082Y-64769215D01*
X133131523Y-64777287D01*
X133108281Y-64783109D01*
X133084581Y-64786624D01*
X133060650Y-64787800D01*
X132572350Y-64787800D01*
X132548419Y-64786624D01*
X132524719Y-64783109D01*
X132501477Y-64777287D01*
X132478918Y-64769215D01*
X132457258Y-64758971D01*
X132436708Y-64746653D01*
X132417463Y-64732381D01*
X132399710Y-64716290D01*
X132383619Y-64698537D01*
X132369347Y-64679292D01*
X132357029Y-64658742D01*
X132346785Y-64637082D01*
X132338713Y-64614523D01*
X132332891Y-64591281D01*
X132329376Y-64567581D01*
X132328200Y-64543650D01*
X132328200Y-63980350D01*
X132329376Y-63956419D01*
X132332891Y-63932719D01*
X132338713Y-63909477D01*
X132346785Y-63886918D01*
X132357029Y-63865258D01*
X132369347Y-63844708D01*
X132383619Y-63825463D01*
X132399710Y-63807710D01*
X132417463Y-63791619D01*
X132436708Y-63777347D01*
X132457258Y-63765029D01*
X132478918Y-63754785D01*
X132501477Y-63746713D01*
X132524719Y-63740891D01*
X132548419Y-63737376D01*
X132572350Y-63736200D01*
X133060650Y-63736200D01*
X133084581Y-63737376D01*
X133084581Y-63737376D01*
G37*
D17*
X132816500Y-64262000D03*
G04 #@! TD*
D16*
G04 #@! TO.C,C9*
G36*
X153227081Y-72119376D02*
X153250781Y-72122891D01*
X153274023Y-72128713D01*
X153296582Y-72136785D01*
X153318242Y-72147029D01*
X153338792Y-72159347D01*
X153358037Y-72173619D01*
X153375790Y-72189710D01*
X153391881Y-72207463D01*
X153406153Y-72226708D01*
X153418471Y-72247258D01*
X153428715Y-72268918D01*
X153436787Y-72291477D01*
X153442609Y-72314719D01*
X153446124Y-72338419D01*
X153447300Y-72362350D01*
X153447300Y-72925650D01*
X153446124Y-72949581D01*
X153442609Y-72973281D01*
X153436787Y-72996523D01*
X153428715Y-73019082D01*
X153418471Y-73040742D01*
X153406153Y-73061292D01*
X153391881Y-73080537D01*
X153375790Y-73098290D01*
X153358037Y-73114381D01*
X153338792Y-73128653D01*
X153318242Y-73140971D01*
X153296582Y-73151215D01*
X153274023Y-73159287D01*
X153250781Y-73165109D01*
X153227081Y-73168624D01*
X153203150Y-73169800D01*
X152714850Y-73169800D01*
X152690919Y-73168624D01*
X152667219Y-73165109D01*
X152643977Y-73159287D01*
X152621418Y-73151215D01*
X152599758Y-73140971D01*
X152579208Y-73128653D01*
X152559963Y-73114381D01*
X152542210Y-73098290D01*
X152526119Y-73080537D01*
X152511847Y-73061292D01*
X152499529Y-73040742D01*
X152489285Y-73019082D01*
X152481213Y-72996523D01*
X152475391Y-72973281D01*
X152471876Y-72949581D01*
X152470700Y-72925650D01*
X152470700Y-72362350D01*
X152471876Y-72338419D01*
X152475391Y-72314719D01*
X152481213Y-72291477D01*
X152489285Y-72268918D01*
X152499529Y-72247258D01*
X152511847Y-72226708D01*
X152526119Y-72207463D01*
X152542210Y-72189710D01*
X152559963Y-72173619D01*
X152579208Y-72159347D01*
X152599758Y-72147029D01*
X152621418Y-72136785D01*
X152643977Y-72128713D01*
X152667219Y-72122891D01*
X152690919Y-72119376D01*
X152714850Y-72118200D01*
X153203150Y-72118200D01*
X153227081Y-72119376D01*
X153227081Y-72119376D01*
G37*
D17*
X152959000Y-72644000D03*
D16*
G36*
X151652081Y-72119376D02*
X151675781Y-72122891D01*
X151699023Y-72128713D01*
X151721582Y-72136785D01*
X151743242Y-72147029D01*
X151763792Y-72159347D01*
X151783037Y-72173619D01*
X151800790Y-72189710D01*
X151816881Y-72207463D01*
X151831153Y-72226708D01*
X151843471Y-72247258D01*
X151853715Y-72268918D01*
X151861787Y-72291477D01*
X151867609Y-72314719D01*
X151871124Y-72338419D01*
X151872300Y-72362350D01*
X151872300Y-72925650D01*
X151871124Y-72949581D01*
X151867609Y-72973281D01*
X151861787Y-72996523D01*
X151853715Y-73019082D01*
X151843471Y-73040742D01*
X151831153Y-73061292D01*
X151816881Y-73080537D01*
X151800790Y-73098290D01*
X151783037Y-73114381D01*
X151763792Y-73128653D01*
X151743242Y-73140971D01*
X151721582Y-73151215D01*
X151699023Y-73159287D01*
X151675781Y-73165109D01*
X151652081Y-73168624D01*
X151628150Y-73169800D01*
X151139850Y-73169800D01*
X151115919Y-73168624D01*
X151092219Y-73165109D01*
X151068977Y-73159287D01*
X151046418Y-73151215D01*
X151024758Y-73140971D01*
X151004208Y-73128653D01*
X150984963Y-73114381D01*
X150967210Y-73098290D01*
X150951119Y-73080537D01*
X150936847Y-73061292D01*
X150924529Y-73040742D01*
X150914285Y-73019082D01*
X150906213Y-72996523D01*
X150900391Y-72973281D01*
X150896876Y-72949581D01*
X150895700Y-72925650D01*
X150895700Y-72362350D01*
X150896876Y-72338419D01*
X150900391Y-72314719D01*
X150906213Y-72291477D01*
X150914285Y-72268918D01*
X150924529Y-72247258D01*
X150936847Y-72226708D01*
X150951119Y-72207463D01*
X150967210Y-72189710D01*
X150984963Y-72173619D01*
X151004208Y-72159347D01*
X151024758Y-72147029D01*
X151046418Y-72136785D01*
X151068977Y-72128713D01*
X151092219Y-72122891D01*
X151115919Y-72119376D01*
X151139850Y-72118200D01*
X151628150Y-72118200D01*
X151652081Y-72119376D01*
X151652081Y-72119376D01*
G37*
D17*
X151384000Y-72644000D03*
G04 #@! TD*
D16*
G04 #@! TO.C,C10*
G36*
X148096081Y-72119376D02*
X148119781Y-72122891D01*
X148143023Y-72128713D01*
X148165582Y-72136785D01*
X148187242Y-72147029D01*
X148207792Y-72159347D01*
X148227037Y-72173619D01*
X148244790Y-72189710D01*
X148260881Y-72207463D01*
X148275153Y-72226708D01*
X148287471Y-72247258D01*
X148297715Y-72268918D01*
X148305787Y-72291477D01*
X148311609Y-72314719D01*
X148315124Y-72338419D01*
X148316300Y-72362350D01*
X148316300Y-72925650D01*
X148315124Y-72949581D01*
X148311609Y-72973281D01*
X148305787Y-72996523D01*
X148297715Y-73019082D01*
X148287471Y-73040742D01*
X148275153Y-73061292D01*
X148260881Y-73080537D01*
X148244790Y-73098290D01*
X148227037Y-73114381D01*
X148207792Y-73128653D01*
X148187242Y-73140971D01*
X148165582Y-73151215D01*
X148143023Y-73159287D01*
X148119781Y-73165109D01*
X148096081Y-73168624D01*
X148072150Y-73169800D01*
X147583850Y-73169800D01*
X147559919Y-73168624D01*
X147536219Y-73165109D01*
X147512977Y-73159287D01*
X147490418Y-73151215D01*
X147468758Y-73140971D01*
X147448208Y-73128653D01*
X147428963Y-73114381D01*
X147411210Y-73098290D01*
X147395119Y-73080537D01*
X147380847Y-73061292D01*
X147368529Y-73040742D01*
X147358285Y-73019082D01*
X147350213Y-72996523D01*
X147344391Y-72973281D01*
X147340876Y-72949581D01*
X147339700Y-72925650D01*
X147339700Y-72362350D01*
X147340876Y-72338419D01*
X147344391Y-72314719D01*
X147350213Y-72291477D01*
X147358285Y-72268918D01*
X147368529Y-72247258D01*
X147380847Y-72226708D01*
X147395119Y-72207463D01*
X147411210Y-72189710D01*
X147428963Y-72173619D01*
X147448208Y-72159347D01*
X147468758Y-72147029D01*
X147490418Y-72136785D01*
X147512977Y-72128713D01*
X147536219Y-72122891D01*
X147559919Y-72119376D01*
X147583850Y-72118200D01*
X148072150Y-72118200D01*
X148096081Y-72119376D01*
X148096081Y-72119376D01*
G37*
D17*
X147828000Y-72644000D03*
D16*
G36*
X149671081Y-72119376D02*
X149694781Y-72122891D01*
X149718023Y-72128713D01*
X149740582Y-72136785D01*
X149762242Y-72147029D01*
X149782792Y-72159347D01*
X149802037Y-72173619D01*
X149819790Y-72189710D01*
X149835881Y-72207463D01*
X149850153Y-72226708D01*
X149862471Y-72247258D01*
X149872715Y-72268918D01*
X149880787Y-72291477D01*
X149886609Y-72314719D01*
X149890124Y-72338419D01*
X149891300Y-72362350D01*
X149891300Y-72925650D01*
X149890124Y-72949581D01*
X149886609Y-72973281D01*
X149880787Y-72996523D01*
X149872715Y-73019082D01*
X149862471Y-73040742D01*
X149850153Y-73061292D01*
X149835881Y-73080537D01*
X149819790Y-73098290D01*
X149802037Y-73114381D01*
X149782792Y-73128653D01*
X149762242Y-73140971D01*
X149740582Y-73151215D01*
X149718023Y-73159287D01*
X149694781Y-73165109D01*
X149671081Y-73168624D01*
X149647150Y-73169800D01*
X149158850Y-73169800D01*
X149134919Y-73168624D01*
X149111219Y-73165109D01*
X149087977Y-73159287D01*
X149065418Y-73151215D01*
X149043758Y-73140971D01*
X149023208Y-73128653D01*
X149003963Y-73114381D01*
X148986210Y-73098290D01*
X148970119Y-73080537D01*
X148955847Y-73061292D01*
X148943529Y-73040742D01*
X148933285Y-73019082D01*
X148925213Y-72996523D01*
X148919391Y-72973281D01*
X148915876Y-72949581D01*
X148914700Y-72925650D01*
X148914700Y-72362350D01*
X148915876Y-72338419D01*
X148919391Y-72314719D01*
X148925213Y-72291477D01*
X148933285Y-72268918D01*
X148943529Y-72247258D01*
X148955847Y-72226708D01*
X148970119Y-72207463D01*
X148986210Y-72189710D01*
X149003963Y-72173619D01*
X149023208Y-72159347D01*
X149043758Y-72147029D01*
X149065418Y-72136785D01*
X149087977Y-72128713D01*
X149111219Y-72122891D01*
X149134919Y-72119376D01*
X149158850Y-72118200D01*
X149647150Y-72118200D01*
X149671081Y-72119376D01*
X149671081Y-72119376D01*
G37*
D17*
X149403000Y-72644000D03*
G04 #@! TD*
D16*
G04 #@! TO.C,C11*
G36*
X132766581Y-70353376D02*
X132790281Y-70356891D01*
X132813523Y-70362713D01*
X132836082Y-70370785D01*
X132857742Y-70381029D01*
X132878292Y-70393347D01*
X132897537Y-70407619D01*
X132915290Y-70423710D01*
X132931381Y-70441463D01*
X132945653Y-70460708D01*
X132957971Y-70481258D01*
X132968215Y-70502918D01*
X132976287Y-70525477D01*
X132982109Y-70548719D01*
X132985624Y-70572419D01*
X132986800Y-70596350D01*
X132986800Y-71084650D01*
X132985624Y-71108581D01*
X132982109Y-71132281D01*
X132976287Y-71155523D01*
X132968215Y-71178082D01*
X132957971Y-71199742D01*
X132945653Y-71220292D01*
X132931381Y-71239537D01*
X132915290Y-71257290D01*
X132897537Y-71273381D01*
X132878292Y-71287653D01*
X132857742Y-71299971D01*
X132836082Y-71310215D01*
X132813523Y-71318287D01*
X132790281Y-71324109D01*
X132766581Y-71327624D01*
X132742650Y-71328800D01*
X132179350Y-71328800D01*
X132155419Y-71327624D01*
X132131719Y-71324109D01*
X132108477Y-71318287D01*
X132085918Y-71310215D01*
X132064258Y-71299971D01*
X132043708Y-71287653D01*
X132024463Y-71273381D01*
X132006710Y-71257290D01*
X131990619Y-71239537D01*
X131976347Y-71220292D01*
X131964029Y-71199742D01*
X131953785Y-71178082D01*
X131945713Y-71155523D01*
X131939891Y-71132281D01*
X131936376Y-71108581D01*
X131935200Y-71084650D01*
X131935200Y-70596350D01*
X131936376Y-70572419D01*
X131939891Y-70548719D01*
X131945713Y-70525477D01*
X131953785Y-70502918D01*
X131964029Y-70481258D01*
X131976347Y-70460708D01*
X131990619Y-70441463D01*
X132006710Y-70423710D01*
X132024463Y-70407619D01*
X132043708Y-70393347D01*
X132064258Y-70381029D01*
X132085918Y-70370785D01*
X132108477Y-70362713D01*
X132131719Y-70356891D01*
X132155419Y-70353376D01*
X132179350Y-70352200D01*
X132742650Y-70352200D01*
X132766581Y-70353376D01*
X132766581Y-70353376D01*
G37*
D17*
X132461000Y-70840500D03*
D16*
G36*
X132766581Y-71928376D02*
X132790281Y-71931891D01*
X132813523Y-71937713D01*
X132836082Y-71945785D01*
X132857742Y-71956029D01*
X132878292Y-71968347D01*
X132897537Y-71982619D01*
X132915290Y-71998710D01*
X132931381Y-72016463D01*
X132945653Y-72035708D01*
X132957971Y-72056258D01*
X132968215Y-72077918D01*
X132976287Y-72100477D01*
X132982109Y-72123719D01*
X132985624Y-72147419D01*
X132986800Y-72171350D01*
X132986800Y-72659650D01*
X132985624Y-72683581D01*
X132982109Y-72707281D01*
X132976287Y-72730523D01*
X132968215Y-72753082D01*
X132957971Y-72774742D01*
X132945653Y-72795292D01*
X132931381Y-72814537D01*
X132915290Y-72832290D01*
X132897537Y-72848381D01*
X132878292Y-72862653D01*
X132857742Y-72874971D01*
X132836082Y-72885215D01*
X132813523Y-72893287D01*
X132790281Y-72899109D01*
X132766581Y-72902624D01*
X132742650Y-72903800D01*
X132179350Y-72903800D01*
X132155419Y-72902624D01*
X132131719Y-72899109D01*
X132108477Y-72893287D01*
X132085918Y-72885215D01*
X132064258Y-72874971D01*
X132043708Y-72862653D01*
X132024463Y-72848381D01*
X132006710Y-72832290D01*
X131990619Y-72814537D01*
X131976347Y-72795292D01*
X131964029Y-72774742D01*
X131953785Y-72753082D01*
X131945713Y-72730523D01*
X131939891Y-72707281D01*
X131936376Y-72683581D01*
X131935200Y-72659650D01*
X131935200Y-72171350D01*
X131936376Y-72147419D01*
X131939891Y-72123719D01*
X131945713Y-72100477D01*
X131953785Y-72077918D01*
X131964029Y-72056258D01*
X131976347Y-72035708D01*
X131990619Y-72016463D01*
X132006710Y-71998710D01*
X132024463Y-71982619D01*
X132043708Y-71968347D01*
X132064258Y-71956029D01*
X132085918Y-71945785D01*
X132108477Y-71937713D01*
X132131719Y-71931891D01*
X132155419Y-71928376D01*
X132179350Y-71927200D01*
X132742650Y-71927200D01*
X132766581Y-71928376D01*
X132766581Y-71928376D01*
G37*
D17*
X132461000Y-72415500D03*
G04 #@! TD*
D16*
G04 #@! TO.C,R1*
G36*
X130108334Y-54790494D02*
X130134429Y-54794365D01*
X130160019Y-54800775D01*
X130184857Y-54809662D01*
X130208704Y-54820941D01*
X130231331Y-54834503D01*
X130252520Y-54850218D01*
X130272066Y-54867934D01*
X130289782Y-54887480D01*
X130305497Y-54908669D01*
X130319059Y-54931296D01*
X130330338Y-54955143D01*
X130339225Y-54979981D01*
X130345635Y-55005571D01*
X130349506Y-55031666D01*
X130350800Y-55058014D01*
X130350800Y-57971986D01*
X130349506Y-57998334D01*
X130345635Y-58024429D01*
X130339225Y-58050019D01*
X130330338Y-58074857D01*
X130319059Y-58098704D01*
X130305497Y-58121331D01*
X130289782Y-58142520D01*
X130272066Y-58162066D01*
X130252520Y-58179782D01*
X130231331Y-58195497D01*
X130208704Y-58209059D01*
X130184857Y-58220338D01*
X130160019Y-58229225D01*
X130134429Y-58235635D01*
X130108334Y-58239506D01*
X130081986Y-58240800D01*
X129168014Y-58240800D01*
X129141666Y-58239506D01*
X129115571Y-58235635D01*
X129089981Y-58229225D01*
X129065143Y-58220338D01*
X129041296Y-58209059D01*
X129018669Y-58195497D01*
X128997480Y-58179782D01*
X128977934Y-58162066D01*
X128960218Y-58142520D01*
X128944503Y-58121331D01*
X128930941Y-58098704D01*
X128919662Y-58074857D01*
X128910775Y-58050019D01*
X128904365Y-58024429D01*
X128900494Y-57998334D01*
X128899200Y-57971986D01*
X128899200Y-55058014D01*
X128900494Y-55031666D01*
X128904365Y-55005571D01*
X128910775Y-54979981D01*
X128919662Y-54955143D01*
X128930941Y-54931296D01*
X128944503Y-54908669D01*
X128960218Y-54887480D01*
X128977934Y-54867934D01*
X128997480Y-54850218D01*
X129018669Y-54834503D01*
X129041296Y-54820941D01*
X129065143Y-54809662D01*
X129089981Y-54800775D01*
X129115571Y-54794365D01*
X129141666Y-54790494D01*
X129168014Y-54789200D01*
X130081986Y-54789200D01*
X130108334Y-54790494D01*
X130108334Y-54790494D01*
G37*
D26*
X129625000Y-56515000D03*
D16*
G36*
X124308334Y-54790494D02*
X124334429Y-54794365D01*
X124360019Y-54800775D01*
X124384857Y-54809662D01*
X124408704Y-54820941D01*
X124431331Y-54834503D01*
X124452520Y-54850218D01*
X124472066Y-54867934D01*
X124489782Y-54887480D01*
X124505497Y-54908669D01*
X124519059Y-54931296D01*
X124530338Y-54955143D01*
X124539225Y-54979981D01*
X124545635Y-55005571D01*
X124549506Y-55031666D01*
X124550800Y-55058014D01*
X124550800Y-57971986D01*
X124549506Y-57998334D01*
X124545635Y-58024429D01*
X124539225Y-58050019D01*
X124530338Y-58074857D01*
X124519059Y-58098704D01*
X124505497Y-58121331D01*
X124489782Y-58142520D01*
X124472066Y-58162066D01*
X124452520Y-58179782D01*
X124431331Y-58195497D01*
X124408704Y-58209059D01*
X124384857Y-58220338D01*
X124360019Y-58229225D01*
X124334429Y-58235635D01*
X124308334Y-58239506D01*
X124281986Y-58240800D01*
X123368014Y-58240800D01*
X123341666Y-58239506D01*
X123315571Y-58235635D01*
X123289981Y-58229225D01*
X123265143Y-58220338D01*
X123241296Y-58209059D01*
X123218669Y-58195497D01*
X123197480Y-58179782D01*
X123177934Y-58162066D01*
X123160218Y-58142520D01*
X123144503Y-58121331D01*
X123130941Y-58098704D01*
X123119662Y-58074857D01*
X123110775Y-58050019D01*
X123104365Y-58024429D01*
X123100494Y-57998334D01*
X123099200Y-57971986D01*
X123099200Y-55058014D01*
X123100494Y-55031666D01*
X123104365Y-55005571D01*
X123110775Y-54979981D01*
X123119662Y-54955143D01*
X123130941Y-54931296D01*
X123144503Y-54908669D01*
X123160218Y-54887480D01*
X123177934Y-54867934D01*
X123197480Y-54850218D01*
X123218669Y-54834503D01*
X123241296Y-54820941D01*
X123265143Y-54809662D01*
X123289981Y-54800775D01*
X123315571Y-54794365D01*
X123341666Y-54790494D01*
X123368014Y-54789200D01*
X124281986Y-54789200D01*
X124308334Y-54790494D01*
X124308334Y-54790494D01*
G37*
D26*
X123825000Y-56515000D03*
G04 #@! TD*
D16*
G04 #@! TO.C,R8*
G36*
X120516084Y-58638058D02*
X120542179Y-58641929D01*
X120567769Y-58648339D01*
X120592607Y-58657226D01*
X120616454Y-58668505D01*
X120639081Y-58682067D01*
X120660270Y-58697782D01*
X120679816Y-58715498D01*
X120697532Y-58735044D01*
X120713247Y-58756233D01*
X120726809Y-58778860D01*
X120738088Y-58802707D01*
X120746975Y-58827545D01*
X120753385Y-58853135D01*
X120757256Y-58879230D01*
X120758550Y-58905578D01*
X120758550Y-61819550D01*
X120757256Y-61845898D01*
X120753385Y-61871993D01*
X120746975Y-61897583D01*
X120738088Y-61922421D01*
X120726809Y-61946268D01*
X120713247Y-61968895D01*
X120697532Y-61990084D01*
X120679816Y-62009630D01*
X120660270Y-62027346D01*
X120639081Y-62043061D01*
X120616454Y-62056623D01*
X120592607Y-62067902D01*
X120567769Y-62076789D01*
X120542179Y-62083199D01*
X120516084Y-62087070D01*
X120489736Y-62088364D01*
X119575764Y-62088364D01*
X119549416Y-62087070D01*
X119523321Y-62083199D01*
X119497731Y-62076789D01*
X119472893Y-62067902D01*
X119449046Y-62056623D01*
X119426419Y-62043061D01*
X119405230Y-62027346D01*
X119385684Y-62009630D01*
X119367968Y-61990084D01*
X119352253Y-61968895D01*
X119338691Y-61946268D01*
X119327412Y-61922421D01*
X119318525Y-61897583D01*
X119312115Y-61871993D01*
X119308244Y-61845898D01*
X119306950Y-61819550D01*
X119306950Y-58905578D01*
X119308244Y-58879230D01*
X119312115Y-58853135D01*
X119318525Y-58827545D01*
X119327412Y-58802707D01*
X119338691Y-58778860D01*
X119352253Y-58756233D01*
X119367968Y-58735044D01*
X119385684Y-58715498D01*
X119405230Y-58697782D01*
X119426419Y-58682067D01*
X119449046Y-58668505D01*
X119472893Y-58657226D01*
X119497731Y-58648339D01*
X119523321Y-58641929D01*
X119549416Y-58638058D01*
X119575764Y-58636764D01*
X120489736Y-58636764D01*
X120516084Y-58638058D01*
X120516084Y-58638058D01*
G37*
D26*
X120032750Y-60362564D03*
D16*
G36*
X114716084Y-58638058D02*
X114742179Y-58641929D01*
X114767769Y-58648339D01*
X114792607Y-58657226D01*
X114816454Y-58668505D01*
X114839081Y-58682067D01*
X114860270Y-58697782D01*
X114879816Y-58715498D01*
X114897532Y-58735044D01*
X114913247Y-58756233D01*
X114926809Y-58778860D01*
X114938088Y-58802707D01*
X114946975Y-58827545D01*
X114953385Y-58853135D01*
X114957256Y-58879230D01*
X114958550Y-58905578D01*
X114958550Y-61819550D01*
X114957256Y-61845898D01*
X114953385Y-61871993D01*
X114946975Y-61897583D01*
X114938088Y-61922421D01*
X114926809Y-61946268D01*
X114913247Y-61968895D01*
X114897532Y-61990084D01*
X114879816Y-62009630D01*
X114860270Y-62027346D01*
X114839081Y-62043061D01*
X114816454Y-62056623D01*
X114792607Y-62067902D01*
X114767769Y-62076789D01*
X114742179Y-62083199D01*
X114716084Y-62087070D01*
X114689736Y-62088364D01*
X113775764Y-62088364D01*
X113749416Y-62087070D01*
X113723321Y-62083199D01*
X113697731Y-62076789D01*
X113672893Y-62067902D01*
X113649046Y-62056623D01*
X113626419Y-62043061D01*
X113605230Y-62027346D01*
X113585684Y-62009630D01*
X113567968Y-61990084D01*
X113552253Y-61968895D01*
X113538691Y-61946268D01*
X113527412Y-61922421D01*
X113518525Y-61897583D01*
X113512115Y-61871993D01*
X113508244Y-61845898D01*
X113506950Y-61819550D01*
X113506950Y-58905578D01*
X113508244Y-58879230D01*
X113512115Y-58853135D01*
X113518525Y-58827545D01*
X113527412Y-58802707D01*
X113538691Y-58778860D01*
X113552253Y-58756233D01*
X113567968Y-58735044D01*
X113585684Y-58715498D01*
X113605230Y-58697782D01*
X113626419Y-58682067D01*
X113649046Y-58668505D01*
X113672893Y-58657226D01*
X113697731Y-58648339D01*
X113723321Y-58641929D01*
X113749416Y-58638058D01*
X113775764Y-58636764D01*
X114689736Y-58636764D01*
X114716084Y-58638058D01*
X114716084Y-58638058D01*
G37*
D26*
X114232750Y-60362564D03*
G04 #@! TD*
D16*
G04 #@! TO.C,R14*
G36*
X124308334Y-58600494D02*
X124334429Y-58604365D01*
X124360019Y-58610775D01*
X124384857Y-58619662D01*
X124408704Y-58630941D01*
X124431331Y-58644503D01*
X124452520Y-58660218D01*
X124472066Y-58677934D01*
X124489782Y-58697480D01*
X124505497Y-58718669D01*
X124519059Y-58741296D01*
X124530338Y-58765143D01*
X124539225Y-58789981D01*
X124545635Y-58815571D01*
X124549506Y-58841666D01*
X124550800Y-58868014D01*
X124550800Y-61781986D01*
X124549506Y-61808334D01*
X124545635Y-61834429D01*
X124539225Y-61860019D01*
X124530338Y-61884857D01*
X124519059Y-61908704D01*
X124505497Y-61931331D01*
X124489782Y-61952520D01*
X124472066Y-61972066D01*
X124452520Y-61989782D01*
X124431331Y-62005497D01*
X124408704Y-62019059D01*
X124384857Y-62030338D01*
X124360019Y-62039225D01*
X124334429Y-62045635D01*
X124308334Y-62049506D01*
X124281986Y-62050800D01*
X123368014Y-62050800D01*
X123341666Y-62049506D01*
X123315571Y-62045635D01*
X123289981Y-62039225D01*
X123265143Y-62030338D01*
X123241296Y-62019059D01*
X123218669Y-62005497D01*
X123197480Y-61989782D01*
X123177934Y-61972066D01*
X123160218Y-61952520D01*
X123144503Y-61931331D01*
X123130941Y-61908704D01*
X123119662Y-61884857D01*
X123110775Y-61860019D01*
X123104365Y-61834429D01*
X123100494Y-61808334D01*
X123099200Y-61781986D01*
X123099200Y-58868014D01*
X123100494Y-58841666D01*
X123104365Y-58815571D01*
X123110775Y-58789981D01*
X123119662Y-58765143D01*
X123130941Y-58741296D01*
X123144503Y-58718669D01*
X123160218Y-58697480D01*
X123177934Y-58677934D01*
X123197480Y-58660218D01*
X123218669Y-58644503D01*
X123241296Y-58630941D01*
X123265143Y-58619662D01*
X123289981Y-58610775D01*
X123315571Y-58604365D01*
X123341666Y-58600494D01*
X123368014Y-58599200D01*
X124281986Y-58599200D01*
X124308334Y-58600494D01*
X124308334Y-58600494D01*
G37*
D26*
X123825000Y-60325000D03*
D16*
G36*
X130108334Y-58600494D02*
X130134429Y-58604365D01*
X130160019Y-58610775D01*
X130184857Y-58619662D01*
X130208704Y-58630941D01*
X130231331Y-58644503D01*
X130252520Y-58660218D01*
X130272066Y-58677934D01*
X130289782Y-58697480D01*
X130305497Y-58718669D01*
X130319059Y-58741296D01*
X130330338Y-58765143D01*
X130339225Y-58789981D01*
X130345635Y-58815571D01*
X130349506Y-58841666D01*
X130350800Y-58868014D01*
X130350800Y-61781986D01*
X130349506Y-61808334D01*
X130345635Y-61834429D01*
X130339225Y-61860019D01*
X130330338Y-61884857D01*
X130319059Y-61908704D01*
X130305497Y-61931331D01*
X130289782Y-61952520D01*
X130272066Y-61972066D01*
X130252520Y-61989782D01*
X130231331Y-62005497D01*
X130208704Y-62019059D01*
X130184857Y-62030338D01*
X130160019Y-62039225D01*
X130134429Y-62045635D01*
X130108334Y-62049506D01*
X130081986Y-62050800D01*
X129168014Y-62050800D01*
X129141666Y-62049506D01*
X129115571Y-62045635D01*
X129089981Y-62039225D01*
X129065143Y-62030338D01*
X129041296Y-62019059D01*
X129018669Y-62005497D01*
X128997480Y-61989782D01*
X128977934Y-61972066D01*
X128960218Y-61952520D01*
X128944503Y-61931331D01*
X128930941Y-61908704D01*
X128919662Y-61884857D01*
X128910775Y-61860019D01*
X128904365Y-61834429D01*
X128900494Y-61808334D01*
X128899200Y-61781986D01*
X128899200Y-58868014D01*
X128900494Y-58841666D01*
X128904365Y-58815571D01*
X128910775Y-58789981D01*
X128919662Y-58765143D01*
X128930941Y-58741296D01*
X128944503Y-58718669D01*
X128960218Y-58697480D01*
X128977934Y-58677934D01*
X128997480Y-58660218D01*
X129018669Y-58644503D01*
X129041296Y-58630941D01*
X129065143Y-58619662D01*
X129089981Y-58610775D01*
X129115571Y-58604365D01*
X129141666Y-58600494D01*
X129168014Y-58599200D01*
X130081986Y-58599200D01*
X130108334Y-58600494D01*
X130108334Y-58600494D01*
G37*
D26*
X129625000Y-60325000D03*
G04 #@! TD*
D16*
G04 #@! TO.C,R16*
G36*
X114716084Y-54828058D02*
X114742179Y-54831929D01*
X114767769Y-54838339D01*
X114792607Y-54847226D01*
X114816454Y-54858505D01*
X114839081Y-54872067D01*
X114860270Y-54887782D01*
X114879816Y-54905498D01*
X114897532Y-54925044D01*
X114913247Y-54946233D01*
X114926809Y-54968860D01*
X114938088Y-54992707D01*
X114946975Y-55017545D01*
X114953385Y-55043135D01*
X114957256Y-55069230D01*
X114958550Y-55095578D01*
X114958550Y-58009550D01*
X114957256Y-58035898D01*
X114953385Y-58061993D01*
X114946975Y-58087583D01*
X114938088Y-58112421D01*
X114926809Y-58136268D01*
X114913247Y-58158895D01*
X114897532Y-58180084D01*
X114879816Y-58199630D01*
X114860270Y-58217346D01*
X114839081Y-58233061D01*
X114816454Y-58246623D01*
X114792607Y-58257902D01*
X114767769Y-58266789D01*
X114742179Y-58273199D01*
X114716084Y-58277070D01*
X114689736Y-58278364D01*
X113775764Y-58278364D01*
X113749416Y-58277070D01*
X113723321Y-58273199D01*
X113697731Y-58266789D01*
X113672893Y-58257902D01*
X113649046Y-58246623D01*
X113626419Y-58233061D01*
X113605230Y-58217346D01*
X113585684Y-58199630D01*
X113567968Y-58180084D01*
X113552253Y-58158895D01*
X113538691Y-58136268D01*
X113527412Y-58112421D01*
X113518525Y-58087583D01*
X113512115Y-58061993D01*
X113508244Y-58035898D01*
X113506950Y-58009550D01*
X113506950Y-55095578D01*
X113508244Y-55069230D01*
X113512115Y-55043135D01*
X113518525Y-55017545D01*
X113527412Y-54992707D01*
X113538691Y-54968860D01*
X113552253Y-54946233D01*
X113567968Y-54925044D01*
X113585684Y-54905498D01*
X113605230Y-54887782D01*
X113626419Y-54872067D01*
X113649046Y-54858505D01*
X113672893Y-54847226D01*
X113697731Y-54838339D01*
X113723321Y-54831929D01*
X113749416Y-54828058D01*
X113775764Y-54826764D01*
X114689736Y-54826764D01*
X114716084Y-54828058D01*
X114716084Y-54828058D01*
G37*
D26*
X114232750Y-56552564D03*
D16*
G36*
X120516084Y-54828058D02*
X120542179Y-54831929D01*
X120567769Y-54838339D01*
X120592607Y-54847226D01*
X120616454Y-54858505D01*
X120639081Y-54872067D01*
X120660270Y-54887782D01*
X120679816Y-54905498D01*
X120697532Y-54925044D01*
X120713247Y-54946233D01*
X120726809Y-54968860D01*
X120738088Y-54992707D01*
X120746975Y-55017545D01*
X120753385Y-55043135D01*
X120757256Y-55069230D01*
X120758550Y-55095578D01*
X120758550Y-58009550D01*
X120757256Y-58035898D01*
X120753385Y-58061993D01*
X120746975Y-58087583D01*
X120738088Y-58112421D01*
X120726809Y-58136268D01*
X120713247Y-58158895D01*
X120697532Y-58180084D01*
X120679816Y-58199630D01*
X120660270Y-58217346D01*
X120639081Y-58233061D01*
X120616454Y-58246623D01*
X120592607Y-58257902D01*
X120567769Y-58266789D01*
X120542179Y-58273199D01*
X120516084Y-58277070D01*
X120489736Y-58278364D01*
X119575764Y-58278364D01*
X119549416Y-58277070D01*
X119523321Y-58273199D01*
X119497731Y-58266789D01*
X119472893Y-58257902D01*
X119449046Y-58246623D01*
X119426419Y-58233061D01*
X119405230Y-58217346D01*
X119385684Y-58199630D01*
X119367968Y-58180084D01*
X119352253Y-58158895D01*
X119338691Y-58136268D01*
X119327412Y-58112421D01*
X119318525Y-58087583D01*
X119312115Y-58061993D01*
X119308244Y-58035898D01*
X119306950Y-58009550D01*
X119306950Y-55095578D01*
X119308244Y-55069230D01*
X119312115Y-55043135D01*
X119318525Y-55017545D01*
X119327412Y-54992707D01*
X119338691Y-54968860D01*
X119352253Y-54946233D01*
X119367968Y-54925044D01*
X119385684Y-54905498D01*
X119405230Y-54887782D01*
X119426419Y-54872067D01*
X119449046Y-54858505D01*
X119472893Y-54847226D01*
X119497731Y-54838339D01*
X119523321Y-54831929D01*
X119549416Y-54828058D01*
X119575764Y-54826764D01*
X120489736Y-54826764D01*
X120516084Y-54828058D01*
X120516084Y-54828058D01*
G37*
D26*
X120032750Y-56552564D03*
G04 #@! TD*
D27*
G04 #@! TO.C,J3*
X161036000Y-78232000D03*
D28*
X163576000Y-78232000D03*
X161036000Y-75692000D03*
X163576000Y-75692000D03*
X161036000Y-73152000D03*
X163576000Y-73152000D03*
G04 #@! TD*
D29*
G04 #@! TO.C,D3*
X104522000Y-75692000D03*
X107822000Y-75692000D03*
G04 #@! TD*
D15*
G04 #@! TO.C,Y1*
X154686000Y-76835000D03*
X149806000Y-76835000D03*
G04 #@! TD*
M02*
