  0
SECTION
  2
HEADER
  9
$ANGBASE
  50
0.0
  9
$ANGDIR
  70
  1
  9
$MEASUREMENT
  70
0
  0
ENDSEC
  0
SECTION
  2
TABLES
  0
TABLE
  2
LTYPE
  70
4
  0
LTYPE
  5
40F
  2
CONTINUOUS
  70
0
  3
Solid line
  72
65
  73
0
  40
0.0
  0
LTYPE
  5
410
  2
DASHDOT
 70
0
  3
Dash Dot ____ _ ____ _
 72
65
 73
4
 40
2.0
 49
1.25
 49
-0.25
 49
0.25
 49
-0.25
  0
LTYPE
  5
411
  2
DASHED
 70
0
  3
Dashed __ __ __ __ __
 72
65
 73
2
 40
0.75
 49
0.5
 49
-0.25
  0
LTYPE
  5
43B
  2
DOTTED
 70
0
  3
Dotted .  .  .  .
 72
65
 73
2
 40
0.2
 49
0.0
 49
-0.2
  0
ENDTAB
  0
TABLE
  2
STYLE
  70
4
  0
STYLE
  2
KICAD
  70
0
  40
0
  41
1
  42
1
  50
0
  71
0
  3
isocp.shx
  0
STYLE
  2
KICADB
  70
0
  40
0
  41
1
  42
1
  50
0
  71
0
  3
isocp.shx
  0
STYLE
  2
KICADI
  70
0
  40
0
  41
1
  42
1
  50
15
  71
0
  3
isocp.shx
  0
STYLE
  2
KICADBI
  70
0
  40
0
  41
1
  42
1
  50
15
  71
0
  3
isocp.shx
  0
ENDTAB
  0
TABLE
  2
LAYER
  70
30
  0
LAYER
  2
BLACK
  70
0
  62
7
  6
CONTINUOUS
  0
LAYER
  2
GRAY1
  70
0
  62
251
  6
CONTINUOUS
  0
LAYER
  2
GRAY2
  70
0
  62
8
  6
CONTINUOUS
  0
LAYER
  2
GRAY3
  70
0
  62
9
  6
CONTINUOUS
  0
LAYER
  2
WHITE
  70
0
  62
7
  6
CONTINUOUS
  0
LAYER
  2
LYELLOW
  70
0
  62
51
  6
CONTINUOUS
  0
LAYER
  2
BLUE1
  70
0
  62
178
  6
CONTINUOUS
  0
LAYER
  2
GREEN1
  70
0
  62
98
  6
CONTINUOUS
  0
LAYER
  2
CYAN1
  70
0
  62
138
  6
CONTINUOUS
  0
LAYER
  2
RED1
  70
0
  62
18
  6
CONTINUOUS
  0
LAYER
  2
MAGENTA1
  70
0
  62
228
  6
CONTINUOUS
  0
LAYER
  2
BROWN1
  70
0
  62
58
  6
CONTINUOUS
  0
LAYER
  2
BLUE2
  70
0
  62
5
  6
CONTINUOUS
  0
LAYER
  2
GREEN2
  70
0
  62
3
  6
CONTINUOUS
  0
LAYER
  2
CYAN2
  70
0
  62
4
  6
CONTINUOUS
  0
LAYER
  2
RED2
  70
0
  62
1
  6
CONTINUOUS
  0
LAYER
  2
MAGENTA2
  70
0
  62
6
  6
CONTINUOUS
  0
LAYER
  2
BROWN2
  70
0
  62
54
  6
CONTINUOUS
  0
LAYER
  2
BLUE3
  70
0
  62
171
  6
CONTINUOUS
  0
LAYER
  2
GREEN3
  70
0
  62
91
  6
CONTINUOUS
  0
LAYER
  2
CYAN3
  70
0
  62
131
  6
CONTINUOUS
  0
LAYER
  2
RED3
  70
0
  62
11
  6
CONTINUOUS
  0
LAYER
  2
MAGENTA3
  70
0
  62
221
  6
CONTINUOUS
  0
LAYER
  2
YELLOW3
  70
0
  62
2
  6
CONTINUOUS
  0
LAYER
  2
BLUE4
  70
0
  62
5
  6
CONTINUOUS
  0
LAYER
  2
GREEN4
  70
0
  62
3
  6
CONTINUOUS
  0
LAYER
  2
CYAN4
  70
0
  62
4
  6
CONTINUOUS
  0
LAYER
  2
RED4
  70
0
  62
1
  6
CONTINUOUS
  0
LAYER
  2
MAGENTA4
  70
0
  62
6
  6
CONTINUOUS
  0
LAYER
  2
YELLOW4
  70
0
  62
2
  6
CONTINUOUS
  0
ENDTAB
  0
ENDSEC
  0
SECTION
  2
ENTITIES
0
LINE
8
BLACK
6
CONTINUOUS
10
123.178
20
-115.919
11
123.939
21
-116.359
0
LINE
8
BLACK
6
CONTINUOUS
10
123.939
20
-116.359
11
124.505
21
-117.033
0
LINE
8
BLACK
6
CONTINUOUS
10
124.505
20
-117.033
11
124.806
21
-117.86
0
LINE
8
BLACK
6
CONTINUOUS
10
124.806
20
-117.86
11
124.806
21
-118.74
0
LINE
8
BLACK
6
CONTINUOUS
10
124.806
20
-118.74
11
124.505
21
-119.567
0
LINE
8
BLACK
6
CONTINUOUS
10
124.505
20
-119.567
11
123.939
21
-120.241
0
LINE
8
BLACK
6
CONTINUOUS
10
123.939
20
-120.241
11
123.178
21
-120.681
0
LINE
8
BLACK
6
CONTINUOUS
10
123.178
20
-120.681
11
122.311
21
-120.833
0
LINE
8
BLACK
6
CONTINUOUS
10
122.311
20
-120.833
11
121.444
21
-120.681
0
LINE
8
BLACK
6
CONTINUOUS
10
121.444
20
-120.681
11
120.683
21
-120.241
0
LINE
8
BLACK
6
CONTINUOUS
10
120.683
20
-120.241
11
120.117
21
-119.567
0
LINE
8
BLACK
6
CONTINUOUS
10
120.117
20
-119.567
11
119.816
21
-118.74
0
LINE
8
BLACK
6
CONTINUOUS
10
119.816
20
-118.74
11
119.816
21
-117.86
0
LINE
8
BLACK
6
CONTINUOUS
10
119.816
20
-117.86
11
120.117
21
-117.033
0
LINE
8
BLACK
6
CONTINUOUS
10
120.117
20
-117.033
11
120.683
21
-116.359
0
LINE
8
BLACK
6
CONTINUOUS
10
120.683
20
-116.359
11
121.444
21
-115.919
0
LINE
8
BLACK
6
CONTINUOUS
10
121.444
20
-115.919
11
122.311
21
-115.767
0
LINE
8
BLACK
6
CONTINUOUS
10
122.311
20
-115.767
11
123.178
21
-115.919
0
LINE
8
BLACK
6
CONTINUOUS
10
163.178
20
-115.919
11
163.939
21
-116.359
0
LINE
8
BLACK
6
CONTINUOUS
10
163.939
20
-116.359
11
164.505
21
-117.033
0
LINE
8
BLACK
6
CONTINUOUS
10
164.505
20
-117.033
11
164.806
21
-117.86
0
LINE
8
BLACK
6
CONTINUOUS
10
164.806
20
-117.86
11
164.806
21
-118.74
0
LINE
8
BLACK
6
CONTINUOUS
10
164.806
20
-118.74
11
164.505
21
-119.567
0
LINE
8
BLACK
6
CONTINUOUS
10
164.505
20
-119.567
11
163.939
21
-120.241
0
LINE
8
BLACK
6
CONTINUOUS
10
163.939
20
-120.241
11
163.178
21
-120.681
0
LINE
8
BLACK
6
CONTINUOUS
10
163.178
20
-120.681
11
162.311
21
-120.833
0
LINE
8
BLACK
6
CONTINUOUS
10
162.311
20
-120.833
11
161.444
21
-120.681
0
LINE
8
BLACK
6
CONTINUOUS
10
161.444
20
-120.681
11
160.683
21
-120.241
0
LINE
8
BLACK
6
CONTINUOUS
10
160.683
20
-120.241
11
160.117
21
-119.567
0
LINE
8
BLACK
6
CONTINUOUS
10
160.117
20
-119.567
11
159.816
21
-118.74
0
LINE
8
BLACK
6
CONTINUOUS
10
159.816
20
-118.74
11
159.816
21
-117.86
0
LINE
8
BLACK
6
CONTINUOUS
10
159.816
20
-117.86
11
160.117
21
-117.033
0
LINE
8
BLACK
6
CONTINUOUS
10
160.117
20
-117.033
11
160.683
21
-116.359
0
LINE
8
BLACK
6
CONTINUOUS
10
160.683
20
-116.359
11
161.444
21
-115.919
0
LINE
8
BLACK
6
CONTINUOUS
10
161.444
20
-115.919
11
162.311
21
-115.767
0
LINE
8
BLACK
6
CONTINUOUS
10
162.311
20
-115.767
11
163.178
21
-115.919
0
LINE
8
BLACK
6
CONTINUOUS
10
159.319
20
-114.191
11
159.793
21
-114.464
0
LINE
8
BLACK
6
CONTINUOUS
10
159.793
20
-114.464
11
160.144
21
-114.883
0
LINE
8
BLACK
6
CONTINUOUS
10
160.144
20
-114.883
11
160.331
21
-115.397
0
LINE
8
BLACK
6
CONTINUOUS
10
160.331
20
-115.397
11
160.331
21
-115.943
0
LINE
8
BLACK
6
CONTINUOUS
10
160.331
20
-115.943
11
160.144
21
-116.457
0
LINE
8
BLACK
6
CONTINUOUS
10
160.144
20
-116.457
11
159.793
21
-116.876
0
LINE
8
BLACK
6
CONTINUOUS
10
159.793
20
-116.876
11
159.319
21
-117.149
0
LINE
8
BLACK
6
CONTINUOUS
10
159.319
20
-117.149
11
158.781
21
-117.244
0
LINE
8
BLACK
6
CONTINUOUS
10
158.781
20
-117.244
11
158.243
21
-117.149
0
LINE
8
BLACK
6
CONTINUOUS
10
158.243
20
-117.149
11
157.769
21
-116.876
0
LINE
8
BLACK
6
CONTINUOUS
10
157.769
20
-116.876
11
157.418
21
-116.457
0
LINE
8
BLACK
6
CONTINUOUS
10
157.418
20
-116.457
11
157.231
21
-115.943
0
LINE
8
BLACK
6
CONTINUOUS
10
157.231
20
-115.943
11
157.231
21
-115.397
0
LINE
8
BLACK
6
CONTINUOUS
10
157.231
20
-115.397
11
157.418
21
-114.883
0
LINE
8
BLACK
6
CONTINUOUS
10
157.418
20
-114.883
11
157.769
21
-114.464
0
LINE
8
BLACK
6
CONTINUOUS
10
157.769
20
-114.464
11
158.243
21
-114.191
0
LINE
8
BLACK
6
CONTINUOUS
10
158.243
20
-114.191
11
158.781
21
-114.096
0
LINE
8
BLACK
6
CONTINUOUS
10
158.781
20
-114.096
11
159.319
21
-114.191
0
LINE
8
BLACK
6
CONTINUOUS
10
126.379
20
-114.191
11
126.853
21
-114.464
0
LINE
8
BLACK
6
CONTINUOUS
10
126.853
20
-114.464
11
127.204
21
-114.883
0
LINE
8
BLACK
6
CONTINUOUS
10
127.204
20
-114.883
11
127.391
21
-115.397
0
LINE
8
BLACK
6
CONTINUOUS
10
127.391
20
-115.397
11
127.391
21
-115.943
0
LINE
8
BLACK
6
CONTINUOUS
10
127.391
20
-115.943
11
127.204
21
-116.457
0
LINE
8
BLACK
6
CONTINUOUS
10
127.204
20
-116.457
11
126.853
21
-116.876
0
LINE
8
BLACK
6
CONTINUOUS
10
126.853
20
-116.876
11
126.379
21
-117.149
0
LINE
8
BLACK
6
CONTINUOUS
10
126.379
20
-117.149
11
125.841
21
-117.244
0
LINE
8
BLACK
6
CONTINUOUS
10
125.841
20
-117.244
11
125.303
21
-117.149
0
LINE
8
BLACK
6
CONTINUOUS
10
125.303
20
-117.149
11
124.829
21
-116.876
0
LINE
8
BLACK
6
CONTINUOUS
10
124.829
20
-116.876
11
124.478
21
-116.457
0
LINE
8
BLACK
6
CONTINUOUS
10
124.478
20
-116.457
11
124.291
21
-115.943
0
LINE
8
BLACK
6
CONTINUOUS
10
124.291
20
-115.943
11
124.291
21
-115.397
0
LINE
8
BLACK
6
CONTINUOUS
10
124.291
20
-115.397
11
124.478
21
-114.883
0
LINE
8
BLACK
6
CONTINUOUS
10
124.478
20
-114.883
11
124.829
21
-114.464
0
LINE
8
BLACK
6
CONTINUOUS
10
124.829
20
-114.464
11
125.303
21
-114.191
0
LINE
8
BLACK
6
CONTINUOUS
10
125.303
20
-114.191
11
125.841
21
-114.096
0
LINE
8
BLACK
6
CONTINUOUS
10
125.841
20
-114.096
11
126.379
21
-114.191
0
LINE
8
BLACK
6
CONTINUOUS
10
135.085
20
-114.339
11
135.512
21
-114.585
0
LINE
8
BLACK
6
CONTINUOUS
10
135.512
20
-114.585
11
135.828
21
-114.962
0
LINE
8
BLACK
6
CONTINUOUS
10
135.828
20
-114.962
11
135.996
21
-115.424
0
LINE
8
BLACK
6
CONTINUOUS
10
135.996
20
-115.424
11
135.996
21
-115.916
0
LINE
8
BLACK
6
CONTINUOUS
10
135.996
20
-115.916
11
135.828
21
-116.378
0
LINE
8
BLACK
6
CONTINUOUS
10
135.828
20
-116.378
11
135.512
21
-116.755
0
LINE
8
BLACK
6
CONTINUOUS
10
135.512
20
-116.755
11
135.085
21
-117.001
0
LINE
8
BLACK
6
CONTINUOUS
10
135.085
20
-117.001
11
134.601
21
-117.087
0
LINE
8
BLACK
6
CONTINUOUS
10
134.601
20
-117.087
11
134.117
21
-117.001
0
LINE
8
BLACK
6
CONTINUOUS
10
134.117
20
-117.001
11
133.69
21
-116.755
0
LINE
8
BLACK
6
CONTINUOUS
10
133.69
20
-116.755
11
133.374
21
-116.378
0
LINE
8
BLACK
6
CONTINUOUS
10
133.374
20
-116.378
11
133.206
21
-115.916
0
LINE
8
BLACK
6
CONTINUOUS
10
133.206
20
-115.916
11
133.206
21
-115.424
0
LINE
8
BLACK
6
CONTINUOUS
10
133.206
20
-115.424
11
133.374
21
-114.962
0
LINE
8
BLACK
6
CONTINUOUS
10
133.374
20
-114.962
11
133.69
21
-114.585
0
LINE
8
BLACK
6
CONTINUOUS
10
133.69
20
-114.585
11
134.117
21
-114.339
0
LINE
8
BLACK
6
CONTINUOUS
10
134.117
20
-114.339
11
134.601
21
-114.253
0
LINE
8
BLACK
6
CONTINUOUS
10
134.601
20
-114.253
11
135.085
21
-114.339
0
LINE
8
BLACK
6
CONTINUOUS
10
119.084
20
-108.422
11
119.121
21
-108.415
0
LINE
8
BLACK
6
CONTINUOUS
10
119.121
20
-108.415
11
119.23
21
-108.435
0
LINE
8
BLACK
6
CONTINUOUS
10
119.23
20
-108.435
11
119.455
21
-108.454
0
LINE
8
BLACK
6
CONTINUOUS
10
119.455
20
-108.454
11
119.524
21
-108.486
0
LINE
8
BLACK
6
CONTINUOUS
10
119.524
20
-108.486
11
119.56
21
-108.493
0
LINE
8
BLACK
6
CONTINUOUS
10
119.56
20
-108.493
11
119.656
21
-108.548
0
LINE
8
BLACK
6
CONTINUOUS
10
119.656
20
-108.548
11
119.861
21
-108.644
0
LINE
8
BLACK
6
CONTINUOUS
10
119.861
20
-108.644
11
119.914
21
-108.697
0
LINE
8
BLACK
6
CONTINUOUS
10
119.914
20
-108.697
11
119.947
21
-108.716
0
LINE
8
BLACK
6
CONTINUOUS
10
119.947
20
-108.716
11
120.018
21
-108.801
0
LINE
8
BLACK
6
CONTINUOUS
10
120.018
20
-108.801
11
120.177
21
-108.96
0
LINE
8
BLACK
6
CONTINUOUS
10
120.177
20
-108.96
11
120.21
21
-109.029
0
LINE
8
BLACK
6
CONTINUOUS
10
120.21
20
-109.029
11
120.233
21
-109.058
0
LINE
8
BLACK
6
CONTINUOUS
10
120.233
20
-109.058
11
120.271
21
-109.162
0
LINE
8
BLACK
6
CONTINUOUS
10
120.271
20
-109.162
11
120.367
21
-109.366
0
LINE
8
BLACK
6
CONTINUOUS
10
120.367
20
-109.366
11
120.373
21
-109.442
0
LINE
8
BLACK
6
CONTINUOUS
10
120.373
20
-109.442
11
120.386
21
-109.477
0
LINE
8
BLACK
6
CONTINUOUS
10
120.386
20
-109.477
11
120.386
21
-109.587
0
LINE
8
BLACK
6
CONTINUOUS
10
120.386
20
-109.587
11
120.406
21
-109.812
0
LINE
8
BLACK
6
CONTINUOUS
10
120.406
20
-109.812
11
120.386
21
-109.886
0
LINE
8
BLACK
6
CONTINUOUS
10
120.386
20
-109.886
11
120.386
21
-109.923
0
LINE
8
BLACK
6
CONTINUOUS
10
120.386
20
-109.923
11
120.348
21
-110.027
0
LINE
8
BLACK
6
CONTINUOUS
10
120.348
20
-110.027
11
120.29
21
-110.245
0
LINE
8
BLACK
6
CONTINUOUS
10
120.29
20
-110.245
11
120.246
21
-110.307
0
LINE
8
BLACK
6
CONTINUOUS
10
120.246
20
-110.307
11
120.233
21
-110.342
0
LINE
8
BLACK
6
CONTINUOUS
10
120.233
20
-110.342
11
120.162
21
-110.427
0
LINE
8
BLACK
6
CONTINUOUS
10
120.162
20
-110.427
11
120.098
21
-110.519
0
LINE
8
BLACK
6
CONTINUOUS
10
120.098
20
-110.519
11
120.018
21
-110.599
0
LINE
8
BLACK
6
CONTINUOUS
10
120.018
20
-110.599
11
119.947
21
-110.684
0
LINE
8
BLACK
6
CONTINUOUS
10
119.947
20
-110.684
11
119.914
21
-110.703
0
LINE
8
BLACK
6
CONTINUOUS
10
119.914
20
-110.703
11
115.966
21
-114.651
0
LINE
8
BLACK
6
CONTINUOUS
10
115.966
20
-114.651
11
115.858
21
-114.78
0
LINE
8
BLACK
6
CONTINUOUS
10
115.858
20
-114.78
11
115.712
21
-114.864
0
LINE
8
BLACK
6
CONTINUOUS
10
115.712
20
-114.864
11
115.574
21
-114.961
0
LINE
8
BLACK
6
CONTINUOUS
10
115.574
20
-114.961
11
115.519
21
-114.975
0
LINE
8
BLACK
6
CONTINUOUS
10
115.519
20
-114.975
11
115.47
21
-115.004
0
LINE
8
BLACK
6
CONTINUOUS
10
115.47
20
-115.004
11
115.304
21
-115.033
0
LINE
8
BLACK
6
CONTINUOUS
10
115.304
20
-115.033
11
115.141
21
-115.077
0
LINE
8
BLACK
6
CONTINUOUS
10
115.141
20
-115.077
11
114.974
21
-115.062
0
LINE
8
BLACK
6
CONTINUOUS
10
114.974
20
-115.062
11
114.703
21
-115.062
0
LINE
8
BLACK
6
CONTINUOUS
10
114.703
20
-115.062
11
114.574
21
-115.417
0
LINE
8
BLACK
6
CONTINUOUS
10
114.574
20
-115.417
11
113.849
21
-116.281
0
LINE
8
BLACK
6
CONTINUOUS
10
113.849
20
-116.281
11
112.871
21
-116.845
0
LINE
8
BLACK
6
CONTINUOUS
10
112.871
20
-116.845
11
111.76
21
-117.041
0
LINE
8
BLACK
6
CONTINUOUS
10
111.76
20
-117.041
11
110.649
21
-116.845
0
LINE
8
BLACK
6
CONTINUOUS
10
110.649
20
-116.845
11
109.671
21
-116.281
0
LINE
8
BLACK
6
CONTINUOUS
10
109.671
20
-116.281
11
108.946
21
-115.417
0
LINE
8
BLACK
6
CONTINUOUS
10
108.946
20
-115.417
11
108.56
21
-114.356
0
LINE
8
BLACK
6
CONTINUOUS
10
108.56
20
-114.356
11
108.56
21
-113.228
0
LINE
8
BLACK
6
CONTINUOUS
10
108.56
20
-113.228
11
108.946
21
-112.167
0
LINE
8
BLACK
6
CONTINUOUS
10
108.946
20
-112.167
11
109.671
21
-111.303
0
LINE
8
BLACK
6
CONTINUOUS
10
109.671
20
-111.303
11
110.649
21
-110.739
0
LINE
8
BLACK
6
CONTINUOUS
10
110.649
20
-110.739
11
111.76
21
-110.543
0
LINE
8
BLACK
6
CONTINUOUS
10
111.76
20
-110.543
11
112.871
21
-110.739
0
LINE
8
BLACK
6
CONTINUOUS
10
112.871
20
-110.739
11
113.849
21
-111.303
0
LINE
8
BLACK
6
CONTINUOUS
10
113.849
20
-111.303
11
114.574
21
-112.167
0
LINE
8
BLACK
6
CONTINUOUS
10
114.574
20
-112.167
11
114.65
21
-112.375
0
LINE
8
BLACK
6
CONTINUOUS
10
114.65
20
-112.375
11
118.224
21
-108.801
0
LINE
8
BLACK
6
CONTINUOUS
10
118.224
20
-108.801
11
118.295
21
-108.716
0
LINE
8
BLACK
6
CONTINUOUS
10
118.295
20
-108.716
11
118.391
21
-108.661
0
LINE
8
BLACK
6
CONTINUOUS
10
118.391
20
-108.661
11
118.576
21
-108.531
0
LINE
8
BLACK
6
CONTINUOUS
10
118.576
20
-108.531
11
118.649
21
-108.512
0
LINE
8
BLACK
6
CONTINUOUS
10
118.649
20
-108.512
11
118.682
21
-108.493
0
LINE
8
BLACK
6
CONTINUOUS
10
118.682
20
-108.493
11
118.79
21
-108.474
0
LINE
8
BLACK
6
CONTINUOUS
10
118.79
20
-108.474
11
119.009
21
-108.415
0
LINE
8
BLACK
6
CONTINUOUS
10
119.009
20
-108.415
11
119.084
21
-108.422
0
LINE
8
BLACK
6
CONTINUOUS
10
163.833
20
-105.761
11
163.834
21
-105.744
0
LINE
8
BLACK
6
CONTINUOUS
10
163.834
20
-105.744
11
163.837
21
-105.739
0
LINE
8
BLACK
6
CONTINUOUS
10
163.837
20
-105.739
11
163.838
21
-105.733
0
LINE
8
BLACK
6
CONTINUOUS
10
163.838
20
-105.733
11
163.846
21
-105.719
0
LINE
8
BLACK
6
CONTINUOUS
10
163.846
20
-105.719
11
163.853
21
-105.704
0
LINE
8
BLACK
6
CONTINUOUS
10
163.853
20
-105.704
11
163.857
21
-105.7
0
LINE
8
BLACK
6
CONTINUOUS
10
163.857
20
-105.7
11
163.86
21
-105.695
0
LINE
8
BLACK
6
CONTINUOUS
10
163.86
20
-105.695
11
163.872
21
-105.685
0
LINE
8
BLACK
6
CONTINUOUS
10
163.872
20
-105.685
11
163.884
21
-105.673
0
LINE
8
BLACK
6
CONTINUOUS
10
163.884
20
-105.673
11
163.889
21
-105.67
0
LINE
8
BLACK
6
CONTINUOUS
10
163.889
20
-105.67
11
163.893
21
-105.667
0
LINE
8
BLACK
6
CONTINUOUS
10
163.893
20
-105.667
11
163.909
21
-105.661
0
LINE
8
BLACK
6
CONTINUOUS
10
163.909
20
-105.661
11
163.924
21
-105.654
0
LINE
8
BLACK
6
CONTINUOUS
10
163.924
20
-105.654
11
163.93
21
-105.654
0
LINE
8
BLACK
6
CONTINUOUS
10
163.93
20
-105.654
11
163.935
21
-105.652
0
LINE
8
BLACK
6
CONTINUOUS
10
163.935
20
-105.652
11
163.952
21
-105.652
0
LINE
8
BLACK
6
CONTINUOUS
10
163.952
20
-105.652
11
163.968
21
-105.65
0
LINE
8
BLACK
6
CONTINUOUS
10
163.968
20
-105.65
11
163.973
21
-105.652
0
LINE
8
BLACK
6
CONTINUOUS
10
163.973
20
-105.652
11
163.979
21
-105.652
0
LINE
8
BLACK
6
CONTINUOUS
10
163.979
20
-105.652
11
163.995
21
-105.657
0
LINE
8
BLACK
6
CONTINUOUS
10
163.995
20
-105.657
11
164.011
21
-105.662
0
LINE
8
BLACK
6
CONTINUOUS
10
164.011
20
-105.662
11
164.015
21
-105.665
0
LINE
8
BLACK
6
CONTINUOUS
10
164.015
20
-105.665
11
164.02
21
-105.667
0
LINE
8
BLACK
6
CONTINUOUS
10
164.02
20
-105.667
11
164.033
21
-105.678
0
LINE
8
BLACK
6
CONTINUOUS
10
164.033
20
-105.678
11
164.047
21
-105.687
0
LINE
8
BLACK
6
CONTINUOUS
10
164.047
20
-105.687
11
164.423
21
-106.063
0
LINE
8
BLACK
6
CONTINUOUS
10
164.423
20
-106.063
11
165.122
21
-106.353
0
LINE
8
BLACK
6
CONTINUOUS
10
165.122
20
-106.353
11
165.88
21
-106.353
0
LINE
8
BLACK
6
CONTINUOUS
10
165.88
20
-106.353
11
166.579
21
-106.063
0
LINE
8
BLACK
6
CONTINUOUS
10
166.579
20
-106.063
11
167.114
21
-105.528
0
LINE
8
BLACK
6
CONTINUOUS
10
167.114
20
-105.528
11
167.404
21
-104.829
0
LINE
8
BLACK
6
CONTINUOUS
10
167.404
20
-104.829
11
167.404
21
-104.071
0
LINE
8
BLACK
6
CONTINUOUS
10
167.404
20
-104.071
11
167.114
21
-103.372
0
LINE
8
BLACK
6
CONTINUOUS
10
167.114
20
-103.372
11
166.579
21
-102.837
0
LINE
8
BLACK
6
CONTINUOUS
10
166.579
20
-102.837
11
165.88
21
-102.547
0
LINE
8
BLACK
6
CONTINUOUS
10
165.88
20
-102.547
11
165.122
21
-102.547
0
LINE
8
BLACK
6
CONTINUOUS
10
165.122
20
-102.547
11
164.423
21
-102.837
0
LINE
8
BLACK
6
CONTINUOUS
10
164.423
20
-102.837
11
164.047
21
-103.213
0
LINE
8
BLACK
6
CONTINUOUS
10
164.047
20
-103.213
11
164.033
21
-103.222
0
LINE
8
BLACK
6
CONTINUOUS
10
164.033
20
-103.222
11
164.02
21
-103.233
0
LINE
8
BLACK
6
CONTINUOUS
10
164.02
20
-103.233
11
164.015
21
-103.235
0
LINE
8
BLACK
6
CONTINUOUS
10
164.015
20
-103.235
11
164.011
21
-103.238
0
LINE
8
BLACK
6
CONTINUOUS
10
164.011
20
-103.238
11
163.995
21
-103.243
0
LINE
8
BLACK
6
CONTINUOUS
10
163.995
20
-103.243
11
163.979
21
-103.248
0
LINE
8
BLACK
6
CONTINUOUS
10
163.979
20
-103.248
11
163.973
21
-103.248
0
LINE
8
BLACK
6
CONTINUOUS
10
163.973
20
-103.248
11
163.968
21
-103.25
0
LINE
8
BLACK
6
CONTINUOUS
10
163.968
20
-103.25
11
163.952
21
-103.248
0
LINE
8
BLACK
6
CONTINUOUS
10
163.952
20
-103.248
11
163.935
21
-103.248
0
LINE
8
BLACK
6
CONTINUOUS
10
163.935
20
-103.248
11
163.93
21
-103.246
0
LINE
8
BLACK
6
CONTINUOUS
10
163.93
20
-103.246
11
163.924
21
-103.246
0
LINE
8
BLACK
6
CONTINUOUS
10
163.924
20
-103.246
11
163.909
21
-103.239
0
LINE
8
BLACK
6
CONTINUOUS
10
163.909
20
-103.239
11
163.893
21
-103.233
0
LINE
8
BLACK
6
CONTINUOUS
10
163.893
20
-103.233
11
163.889
21
-103.23
0
LINE
8
BLACK
6
CONTINUOUS
10
163.889
20
-103.23
11
163.884
21
-103.227
0
LINE
8
BLACK
6
CONTINUOUS
10
163.884
20
-103.227
11
163.872
21
-103.215
0
LINE
8
BLACK
6
CONTINUOUS
10
163.872
20
-103.215
11
163.86
21
-103.205
0
LINE
8
BLACK
6
CONTINUOUS
10
163.86
20
-103.205
11
163.857
21
-103.2
0
LINE
8
BLACK
6
CONTINUOUS
10
163.857
20
-103.2
11
163.853
21
-103.196
0
LINE
8
BLACK
6
CONTINUOUS
10
163.853
20
-103.196
11
163.846
21
-103.181
0
LINE
8
BLACK
6
CONTINUOUS
10
163.846
20
-103.181
11
163.838
21
-103.167
0
LINE
8
BLACK
6
CONTINUOUS
10
163.838
20
-103.167
11
163.837
21
-103.161
0
LINE
8
BLACK
6
CONTINUOUS
10
163.837
20
-103.161
11
163.834
21
-103.156
0
LINE
8
BLACK
6
CONTINUOUS
10
163.834
20
-103.156
11
163.833
21
-103.139
0
LINE
8
BLACK
6
CONTINUOUS
10
163.833
20
-103.139
11
163.83
21
-103.123
0
LINE
8
BLACK
6
CONTINUOUS
10
163.83
20
-103.123
11
163.83
21
-94.7769
0
LINE
8
BLACK
6
CONTINUOUS
10
163.83
20
-94.7769
11
163.833
21
-94.7605
0
LINE
8
BLACK
6
CONTINUOUS
10
163.833
20
-94.7605
11
163.834
21
-94.744
0
LINE
8
BLACK
6
CONTINUOUS
10
163.834
20
-94.744
11
163.837
21
-94.7389
0
LINE
8
BLACK
6
CONTINUOUS
10
163.837
20
-94.7389
11
163.838
21
-94.7334
0
LINE
8
BLACK
6
CONTINUOUS
10
163.838
20
-94.7334
11
163.846
21
-94.719
0
LINE
8
BLACK
6
CONTINUOUS
10
163.846
20
-94.719
11
163.853
21
-94.704
0
LINE
8
BLACK
6
CONTINUOUS
10
163.853
20
-94.704
11
163.857
21
-94.7001
0
LINE
8
BLACK
6
CONTINUOUS
10
163.857
20
-94.7001
11
163.86
21
-94.6952
0
LINE
8
BLACK
6
CONTINUOUS
10
163.86
20
-94.6952
11
163.872
21
-94.6846
0
LINE
8
BLACK
6
CONTINUOUS
10
163.872
20
-94.6846
11
163.884
21
-94.6728
0
LINE
8
BLACK
6
CONTINUOUS
10
163.884
20
-94.6728
11
163.889
21
-94.6705
0
LINE
8
BLACK
6
CONTINUOUS
10
163.889
20
-94.6705
11
163.893
21
-94.6669
0
LINE
8
BLACK
6
CONTINUOUS
10
163.893
20
-94.6669
11
163.909
21
-94.6612
0
LINE
8
BLACK
6
CONTINUOUS
10
163.909
20
-94.6612
11
163.924
21
-94.6542
0
LINE
8
BLACK
6
CONTINUOUS
10
163.924
20
-94.6542
11
163.93
21
-94.6537
0
LINE
8
BLACK
6
CONTINUOUS
10
163.93
20
-94.6537
11
163.935
21
-94.6518
0
LINE
8
BLACK
6
CONTINUOUS
10
163.935
20
-94.6518
11
163.952
21
-94.6518
0
LINE
8
BLACK
6
CONTINUOUS
10
163.952
20
-94.6518
11
163.968
21
-94.6503
0
LINE
8
BLACK
6
CONTINUOUS
10
163.968
20
-94.6503
11
163.973
21
-94.6518
0
LINE
8
BLACK
6
CONTINUOUS
10
163.973
20
-94.6518
11
163.979
21
-94.6518
0
LINE
8
BLACK
6
CONTINUOUS
10
163.979
20
-94.6518
11
163.995
21
-94.6575
0
LINE
8
BLACK
6
CONTINUOUS
10
163.995
20
-94.6575
11
164.011
21
-94.6618
0
LINE
8
BLACK
6
CONTINUOUS
10
164.011
20
-94.6618
11
164.015
21
-94.665
0
LINE
8
BLACK
6
CONTINUOUS
10
164.015
20
-94.665
11
164.02
21
-94.6669
0
LINE
8
BLACK
6
CONTINUOUS
10
164.02
20
-94.6669
11
164.033
21
-94.6775
0
LINE
8
BLACK
6
CONTINUOUS
10
164.033
20
-94.6775
11
164.047
21
-94.6871
0
LINE
8
BLACK
6
CONTINUOUS
10
164.047
20
-94.6871
11
164.423
21
-95.0633
0
LINE
8
BLACK
6
CONTINUOUS
10
164.423
20
-95.0633
11
165.122
21
-95.353
0
LINE
8
BLACK
6
CONTINUOUS
10
165.122
20
-95.353
11
165.88
21
-95.353
0
LINE
8
BLACK
6
CONTINUOUS
10
165.88
20
-95.353
11
166.579
21
-95.0633
0
LINE
8
BLACK
6
CONTINUOUS
10
166.579
20
-95.0633
11
167.114
21
-94.528
0
LINE
8
BLACK
6
CONTINUOUS
10
167.114
20
-94.528
11
167.404
21
-93.8285
0
LINE
8
BLACK
6
CONTINUOUS
10
167.404
20
-93.8285
11
167.404
21
-93.0715
0
LINE
8
BLACK
6
CONTINUOUS
10
167.404
20
-93.0715
11
167.114
21
-92.372
0
LINE
8
BLACK
6
CONTINUOUS
10
167.114
20
-92.372
11
166.579
21
-91.8367
0
LINE
8
BLACK
6
CONTINUOUS
10
166.579
20
-91.8367
11
165.88
21
-91.547
0
LINE
8
BLACK
6
CONTINUOUS
10
165.88
20
-91.547
11
165.755
21
-91.547
0
LINE
8
BLACK
6
CONTINUOUS
10
165.755
20
-91.547
11
165.74
21
-91.5443
0
LINE
8
BLACK
6
CONTINUOUS
10
165.74
20
-91.5443
11
165.724
21
-91.5432
0
LINE
8
BLACK
6
CONTINUOUS
10
165.724
20
-91.5432
11
165.718
21
-91.5405
0
LINE
8
BLACK
6
CONTINUOUS
10
165.718
20
-91.5405
11
165.711
21
-91.5393
0
LINE
8
BLACK
6
CONTINUOUS
10
165.711
20
-91.5393
11
165.698
21
-91.5315
0
LINE
8
BLACK
6
CONTINUOUS
10
165.698
20
-91.5315
11
165.684
21
-91.5252
0
LINE
8
BLACK
6
CONTINUOUS
10
165.684
20
-91.5252
11
165.679
21
-91.5206
0
LINE
8
BLACK
6
CONTINUOUS
10
165.679
20
-91.5206
11
165.673
21
-91.5173
0
LINE
8
BLACK
6
CONTINUOUS
10
165.673
20
-91.5173
11
165.663
21
-91.5053
0
LINE
8
BLACK
6
CONTINUOUS
10
165.663
20
-91.5053
11
165.652
21
-91.4945
0
LINE
8
BLACK
6
CONTINUOUS
10
165.652
20
-91.4945
11
165.649
21
-91.4886
0
LINE
8
BLACK
6
CONTINUOUS
10
165.649
20
-91.4886
11
165.645
21
-91.4835
0
LINE
8
BLACK
6
CONTINUOUS
10
165.645
20
-91.4835
11
165.64
21
-91.4688
0
LINE
8
BLACK
6
CONTINUOUS
10
165.64
20
-91.4688
11
165.633
21
-91.4548
0
LINE
8
BLACK
6
CONTINUOUS
10
165.633
20
-91.4548
11
165.632
21
-91.4483
0
LINE
8
BLACK
6
CONTINUOUS
10
165.632
20
-91.4483
11
165.63
21
-91.4421
0
LINE
8
BLACK
6
CONTINUOUS
10
165.63
20
-91.4421
11
165.63
21
-91.4265
0
LINE
8
BLACK
6
CONTINUOUS
10
165.63
20
-91.4265
11
165.628
21
-91.411
0
LINE
8
BLACK
6
CONTINUOUS
10
165.628
20
-91.411
11
165.81
21
-88.864
0
LINE
8
BLACK
6
CONTINUOUS
10
165.81
20
-88.864
11
165.812
21
-88.8576
0
LINE
8
BLACK
6
CONTINUOUS
10
165.812
20
-88.8576
11
165.812
21
-88.8509
0
LINE
8
BLACK
6
CONTINUOUS
10
165.812
20
-88.8509
11
165.817
21
-88.8363
0
LINE
8
BLACK
6
CONTINUOUS
10
165.817
20
-88.8363
11
165.821
21
-88.8212
0
LINE
8
BLACK
6
CONTINUOUS
10
165.821
20
-88.8212
11
165.825
21
-88.8157
0
LINE
8
BLACK
6
CONTINUOUS
10
165.825
20
-88.8157
11
165.827
21
-88.8095
0
LINE
8
BLACK
6
CONTINUOUS
10
165.827
20
-88.8095
11
165.837
21
-88.7976
0
LINE
8
BLACK
6
CONTINUOUS
10
165.837
20
-88.7976
11
165.846
21
-88.7846
0
LINE
8
BLACK
6
CONTINUOUS
10
165.846
20
-88.7846
11
165.851
21
-88.7808
0
LINE
8
BLACK
6
CONTINUOUS
10
165.851
20
-88.7808
11
165.855
21
-88.7757
0
LINE
8
BLACK
6
CONTINUOUS
10
165.855
20
-88.7757
11
165.869
21
-88.7679
0
LINE
8
BLACK
6
CONTINUOUS
10
165.869
20
-88.7679
11
165.881
21
-88.7588
0
LINE
8
BLACK
6
CONTINUOUS
10
165.881
20
-88.7588
11
165.888
21
-88.757
0
LINE
8
BLACK
6
CONTINUOUS
10
165.888
20
-88.757
11
165.893
21
-88.7537
0
LINE
8
BLACK
6
CONTINUOUS
10
165.893
20
-88.7537
11
165.909
21
-88.751
0
LINE
8
BLACK
6
CONTINUOUS
10
165.909
20
-88.751
11
165.924
21
-88.7467
0
LINE
8
BLACK
6
CONTINUOUS
10
165.924
20
-88.7467
11
165.93
21
-88.7471
0
LINE
8
BLACK
6
CONTINUOUS
10
165.93
20
-88.7471
11
165.937
21
-88.746
0
LINE
8
BLACK
6
CONTINUOUS
10
165.937
20
-88.746
11
172.436
21
-88.746
0
LINE
8
BLACK
6
CONTINUOUS
10
172.436
20
-88.746
11
172.441
21
-88.7469
0
LINE
8
BLACK
6
CONTINUOUS
10
172.441
20
-88.7469
11
172.446
21
-88.7464
0
LINE
8
BLACK
6
CONTINUOUS
10
172.446
20
-88.7464
11
173.31
21
-88.8174
0
LINE
8
BLACK
6
CONTINUOUS
10
173.31
20
-88.8174
11
173.32
21
-88.8201
0
LINE
8
BLACK
6
CONTINUOUS
10
173.32
20
-88.8201
11
173.331
21
-88.8208
0
LINE
8
BLACK
6
CONTINUOUS
10
173.331
20
-88.8208
11
174.142
21
-89.0246
0
LINE
8
BLACK
6
CONTINUOUS
10
174.142
20
-89.0246
11
174.151
21
-89.0289
0
LINE
8
BLACK
6
CONTINUOUS
10
174.151
20
-89.0289
11
174.162
21
-89.0313
0
LINE
8
BLACK
6
CONTINUOUS
10
174.162
20
-89.0313
11
174.929
21
-89.3649
0
LINE
8
BLACK
6
CONTINUOUS
10
174.929
20
-89.3649
11
174.938
21
-89.3707
0
LINE
8
BLACK
6
CONTINUOUS
10
174.938
20
-89.3707
11
174.947
21
-89.3747
0
LINE
8
BLACK
6
CONTINUOUS
10
174.947
20
-89.3747
11
175.649
21
-89.8291
0
LINE
8
BLACK
6
CONTINUOUS
10
175.649
20
-89.8291
11
175.657
21
-89.8362
0
LINE
8
BLACK
6
CONTINUOUS
10
175.657
20
-89.8362
11
175.666
21
-89.8418
0
LINE
8
BLACK
6
CONTINUOUS
10
175.666
20
-89.8418
11
176.285
21
-90.4048
0
LINE
8
BLACK
6
CONTINUOUS
10
176.285
20
-90.4048
11
176.291
21
-90.4131
0
LINE
8
BLACK
6
CONTINUOUS
10
176.291
20
-90.4131
11
176.299
21
-90.42
0
LINE
8
BLACK
6
CONTINUOUS
10
176.299
20
-90.42
11
176.817
21
-91.0765
0
LINE
8
BLACK
6
CONTINUOUS
10
176.817
20
-91.0765
11
176.822
21
-91.0857
0
LINE
8
BLACK
6
CONTINUOUS
10
176.822
20
-91.0857
11
176.829
21
-91.0938
0
LINE
8
BLACK
6
CONTINUOUS
10
176.829
20
-91.0938
11
177.233
21
-91.8262
0
LINE
8
BLACK
6
CONTINUOUS
10
177.233
20
-91.8262
11
177.237
21
-91.8361
0
LINE
8
BLACK
6
CONTINUOUS
10
177.237
20
-91.8361
11
177.242
21
-91.8451
0
LINE
8
BLACK
6
CONTINUOUS
10
177.242
20
-91.8451
11
177.521
21
-92.6337
0
LINE
8
BLACK
6
CONTINUOUS
10
177.521
20
-92.6337
11
177.523
21
-92.644
0
LINE
8
BLACK
6
CONTINUOUS
10
177.523
20
-92.644
11
177.526
21
-92.6538
0
LINE
8
BLACK
6
CONTINUOUS
10
177.526
20
-92.6538
11
177.675
21
-93.49
0
LINE
8
BLACK
6
CONTINUOUS
10
177.675
20
-93.49
11
177.675
21
-93.4983
0
LINE
8
BLACK
6
CONTINUOUS
10
177.675
20
-93.4983
11
177.677
21
-93.5063
0
LINE
8
BLACK
6
CONTINUOUS
10
177.677
20
-93.5063
11
177.7
21
-93.9913
0
LINE
8
BLACK
6
CONTINUOUS
10
177.7
20
-93.9913
11
177.699
21
-93.9943
0
LINE
8
BLACK
6
CONTINUOUS
10
177.699
20
-93.9943
11
177.7
21
-93.9973
0
LINE
8
BLACK
6
CONTINUOUS
10
177.7
20
-93.9973
11
177.7
21
-109.444
0
LINE
8
BLACK
6
CONTINUOUS
10
177.7
20
-109.444
11
177.699
21
-109.449
0
LINE
8
BLACK
6
CONTINUOUS
10
177.699
20
-109.449
11
177.7
21
-109.454
0
LINE
8
BLACK
6
CONTINUOUS
10
177.7
20
-109.454
11
177.629
21
-110.318
0
LINE
8
BLACK
6
CONTINUOUS
10
177.629
20
-110.318
11
177.626
21
-110.328
0
LINE
8
BLACK
6
CONTINUOUS
10
177.626
20
-110.328
11
177.625
21
-110.339
0
LINE
8
BLACK
6
CONTINUOUS
10
177.625
20
-110.339
11
177.421
21
-111.15
0
LINE
8
BLACK
6
CONTINUOUS
10
177.421
20
-111.15
11
177.417
21
-111.159
0
LINE
8
BLACK
6
CONTINUOUS
10
177.417
20
-111.159
11
177.415
21
-111.17
0
LINE
8
BLACK
6
CONTINUOUS
10
177.415
20
-111.17
11
177.081
21
-111.937
0
LINE
8
BLACK
6
CONTINUOUS
10
177.081
20
-111.937
11
177.075
21
-111.945
0
LINE
8
BLACK
6
CONTINUOUS
10
177.075
20
-111.945
11
177.071
21
-111.955
0
LINE
8
BLACK
6
CONTINUOUS
10
177.071
20
-111.955
11
176.617
21
-112.657
0
LINE
8
BLACK
6
CONTINUOUS
10
176.617
20
-112.657
11
176.61
21
-112.665
0
LINE
8
BLACK
6
CONTINUOUS
10
176.61
20
-112.665
11
176.604
21
-112.674
0
LINE
8
BLACK
6
CONTINUOUS
10
176.604
20
-112.674
11
176.041
21
-113.293
0
LINE
8
BLACK
6
CONTINUOUS
10
176.041
20
-113.293
11
176.033
21
-113.299
0
LINE
8
BLACK
6
CONTINUOUS
10
176.033
20
-113.299
11
176.026
21
-113.307
0
LINE
8
BLACK
6
CONTINUOUS
10
176.026
20
-113.307
11
175.37
21
-113.825
0
LINE
8
BLACK
6
CONTINUOUS
10
175.37
20
-113.825
11
175.36
21
-113.83
0
LINE
8
BLACK
6
CONTINUOUS
10
175.36
20
-113.83
11
175.352
21
-113.837
0
LINE
8
BLACK
6
CONTINUOUS
10
175.352
20
-113.837
11
174.62
21
-114.241
0
LINE
8
BLACK
6
CONTINUOUS
10
174.62
20
-114.241
11
174.61
21
-114.245
0
LINE
8
BLACK
6
CONTINUOUS
10
174.61
20
-114.245
11
174.601
21
-114.25
0
LINE
8
BLACK
6
CONTINUOUS
10
174.601
20
-114.25
11
173.812
21
-114.529
0
LINE
8
BLACK
6
CONTINUOUS
10
173.812
20
-114.529
11
173.802
21
-114.531
0
LINE
8
BLACK
6
CONTINUOUS
10
173.802
20
-114.531
11
173.792
21
-114.534
0
LINE
8
BLACK
6
CONTINUOUS
10
173.792
20
-114.534
11
172.956
21
-114.683
0
LINE
8
BLACK
6
CONTINUOUS
10
172.956
20
-114.683
11
172.948
21
-114.683
0
LINE
8
BLACK
6
CONTINUOUS
10
172.948
20
-114.683
11
172.94
21
-114.685
0
LINE
8
BLACK
6
CONTINUOUS
10
172.94
20
-114.685
11
172.455
21
-114.708
0
LINE
8
BLACK
6
CONTINUOUS
10
172.455
20
-114.708
11
172.452
21
-114.707
0
LINE
8
BLACK
6
CONTINUOUS
10
172.452
20
-114.707
11
172.449
21
-114.708
0
LINE
8
BLACK
6
CONTINUOUS
10
172.449
20
-114.708
11
165.934
21
-114.708
0
LINE
8
BLACK
6
CONTINUOUS
10
165.934
20
-114.708
11
165.922
21
-114.706
0
LINE
8
BLACK
6
CONTINUOUS
10
165.922
20
-114.706
11
165.91
21
-114.706
0
LINE
8
BLACK
6
CONTINUOUS
10
165.91
20
-114.706
11
165.859
21
-114.696
0
LINE
8
BLACK
6
CONTINUOUS
10
165.859
20
-114.696
11
165.848
21
-114.691
0
LINE
8
BLACK
6
CONTINUOUS
10
165.848
20
-114.691
11
165.837
21
-114.689
0
LINE
8
BLACK
6
CONTINUOUS
10
165.837
20
-114.689
11
165.828
21
-114.683
0
LINE
8
BLACK
6
CONTINUOUS
10
165.828
20
-114.683
11
165.818
21
-114.68
0
LINE
8
BLACK
6
CONTINUOUS
10
165.818
20
-114.68
11
165.809
21
-114.672
0
LINE
8
BLACK
6
CONTINUOUS
10
165.809
20
-114.672
11
165.799
21
-114.666
0
LINE
8
BLACK
6
CONTINUOUS
10
165.799
20
-114.666
11
165.793
21
-114.657
0
LINE
8
BLACK
6
CONTINUOUS
10
165.793
20
-114.657
11
165.785
21
-114.65
0
LINE
8
BLACK
6
CONTINUOUS
10
165.785
20
-114.65
11
165.779
21
-114.64
0
LINE
8
BLACK
6
CONTINUOUS
10
165.779
20
-114.64
11
165.772
21
-114.631
0
LINE
8
BLACK
6
CONTINUOUS
10
165.772
20
-114.631
11
165.769
21
-114.621
0
LINE
8
BLACK
6
CONTINUOUS
10
165.769
20
-114.621
11
165.764
21
-114.612
0
LINE
8
BLACK
6
CONTINUOUS
10
165.764
20
-114.612
11
165.762
21
-114.6
0
LINE
8
BLACK
6
CONTINUOUS
10
165.762
20
-114.6
11
165.758
21
-114.589
0
LINE
8
BLACK
6
CONTINUOUS
10
165.758
20
-114.589
11
165.357
21
-111.778
0
LINE
8
BLACK
6
CONTINUOUS
10
165.357
20
-111.778
11
165.342
21
-111.746
0
LINE
8
BLACK
6
CONTINUOUS
10
165.342
20
-111.746
11
164.872
21
-111.198
0
LINE
8
BLACK
6
CONTINUOUS
10
164.872
20
-111.198
11
164.59
21
-111.035
0
LINE
8
BLACK
6
CONTINUOUS
10
164.59
20
-111.035
11
164.274
21
-110.658
0
LINE
8
BLACK
6
CONTINUOUS
10
164.274
20
-110.658
11
164.174
21
-110.384
0
LINE
8
BLACK
6
CONTINUOUS
10
164.174
20
-110.384
11
163.861
21
-110.018
0
LINE
8
BLACK
6
CONTINUOUS
10
163.861
20
-110.018
11
163.86
21
-110.017
0
LINE
8
BLACK
6
CONTINUOUS
10
163.86
20
-110.017
11
163.86
21
-110.017
0
LINE
8
BLACK
6
CONTINUOUS
10
163.86
20
-110.017
11
163.849
21
-109.998
0
LINE
8
BLACK
6
CONTINUOUS
10
163.849
20
-109.998
11
163.838
21
-109.98
0
LINE
8
BLACK
6
CONTINUOUS
10
163.838
20
-109.98
11
163.838
21
-109.979
0
LINE
8
BLACK
6
CONTINUOUS
10
163.838
20
-109.979
11
163.838
21
-109.978
0
LINE
8
BLACK
6
CONTINUOUS
10
163.838
20
-109.978
11
163.834
21
-109.957
0
LINE
8
BLACK
6
CONTINUOUS
10
163.834
20
-109.957
11
163.83
21
-109.936
0
LINE
8
BLACK
6
CONTINUOUS
10
163.83
20
-109.936
11
163.83
21
-109.936
0
LINE
8
BLACK
6
CONTINUOUS
10
163.83
20
-109.936
11
163.83
21
-109.935
0
LINE
8
BLACK
6
CONTINUOUS
10
163.83
20
-109.935
11
163.83
21
-105.777
0
LINE
8
BLACK
6
CONTINUOUS
10
163.83
20
-105.777
11
163.833
21
-105.761
0
LINE
8
BLACK
6
CONTINUOUS
10
171.728
20
-105.766
11
170.366
21
-106.331
0
LINE
8
BLACK
6
CONTINUOUS
10
170.366
20
-106.331
11
169.323
21
-107.374
0
LINE
8
BLACK
6
CONTINUOUS
10
169.323
20
-107.374
11
168.758
21
-108.736
0
LINE
8
BLACK
6
CONTINUOUS
10
168.758
20
-108.736
11
168.758
21
-110.212
0
LINE
8
BLACK
6
CONTINUOUS
10
168.758
20
-110.212
11
169.323
21
-111.574
0
LINE
8
BLACK
6
CONTINUOUS
10
169.323
20
-111.574
11
170.366
21
-112.617
0
LINE
8
BLACK
6
CONTINUOUS
10
170.366
20
-112.617
11
171.728
21
-113.182
0
LINE
8
BLACK
6
CONTINUOUS
10
171.728
20
-113.182
11
173.204
21
-113.182
0
LINE
8
BLACK
6
CONTINUOUS
10
173.204
20
-113.182
11
174.566
21
-112.617
0
LINE
8
BLACK
6
CONTINUOUS
10
174.566
20
-112.617
11
175.609
21
-111.574
0
LINE
8
BLACK
6
CONTINUOUS
10
175.609
20
-111.574
11
176.174
21
-110.212
0
LINE
8
BLACK
6
CONTINUOUS
10
176.174
20
-110.212
11
176.174
21
-108.736
0
LINE
8
BLACK
6
CONTINUOUS
10
176.174
20
-108.736
11
175.609
21
-107.374
0
LINE
8
BLACK
6
CONTINUOUS
10
175.609
20
-107.374
11
174.566
21
-106.331
0
LINE
8
BLACK
6
CONTINUOUS
10
174.566
20
-106.331
11
173.204
21
-105.766
0
LINE
8
BLACK
6
CONTINUOUS
10
173.204
20
-105.766
11
171.728
21
-105.766
0
LINE
8
BLACK
6
CONTINUOUS
10
173.577
20
-106.421
11
174.555
21
-106.985
0
LINE
8
BLACK
6
CONTINUOUS
10
174.555
20
-106.985
11
175.28
21
-107.849
0
LINE
8
BLACK
6
CONTINUOUS
10
175.28
20
-107.849
11
175.666
21
-108.91
0
LINE
8
BLACK
6
CONTINUOUS
10
175.666
20
-108.91
11
175.666
21
-110.038
0
LINE
8
BLACK
6
CONTINUOUS
10
175.666
20
-110.038
11
175.28
21
-111.099
0
LINE
8
BLACK
6
CONTINUOUS
10
175.28
20
-111.099
11
174.555
21
-111.963
0
LINE
8
BLACK
6
CONTINUOUS
10
174.555
20
-111.963
11
173.577
21
-112.527
0
LINE
8
BLACK
6
CONTINUOUS
10
173.577
20
-112.527
11
172.466
21
-112.723
0
LINE
8
BLACK
6
CONTINUOUS
10
172.466
20
-112.723
11
171.355
21
-112.527
0
LINE
8
BLACK
6
CONTINUOUS
10
171.355
20
-112.527
11
170.377
21
-111.963
0
LINE
8
BLACK
6
CONTINUOUS
10
170.377
20
-111.963
11
169.652
21
-111.099
0
LINE
8
BLACK
6
CONTINUOUS
10
169.652
20
-111.099
11
169.266
21
-110.038
0
LINE
8
BLACK
6
CONTINUOUS
10
169.266
20
-110.038
11
169.266
21
-108.91
0
LINE
8
BLACK
6
CONTINUOUS
10
169.266
20
-108.91
11
169.652
21
-107.849
0
LINE
8
BLACK
6
CONTINUOUS
10
169.652
20
-107.849
11
170.377
21
-106.985
0
LINE
8
BLACK
6
CONTINUOUS
10
170.377
20
-106.985
11
171.355
21
-106.421
0
LINE
8
BLACK
6
CONTINUOUS
10
171.355
20
-106.421
11
172.466
21
-106.225
0
LINE
8
BLACK
6
CONTINUOUS
10
172.466
20
-106.225
11
173.577
21
-106.421
0
LINE
8
BLACK
6
CONTINUOUS
10
113.626
20
-103.353
11
116.789
21
-103.353
0
LINE
8
BLACK
6
CONTINUOUS
10
116.789
20
-103.353
11
116.809
21
-103.351
0
LINE
8
BLACK
6
CONTINUOUS
10
116.809
20
-103.351
11
116.829
21
-103.356
0
LINE
8
BLACK
6
CONTINUOUS
10
116.829
20
-103.356
11
116.849
21
-103.36
0
LINE
8
BLACK
6
CONTINUOUS
10
116.849
20
-103.36
11
116.855
21
-103.363
0
LINE
8
BLACK
6
CONTINUOUS
10
116.855
20
-103.363
11
116.861
21
-103.365
0
LINE
8
BLACK
6
CONTINUOUS
10
116.861
20
-103.365
11
116.878
21
-103.376
0
LINE
8
BLACK
6
CONTINUOUS
10
116.878
20
-103.376
11
116.895
21
-103.386
0
LINE
8
BLACK
6
CONTINUOUS
10
116.895
20
-103.386
11
116.908
21
-103.402
0
LINE
8
BLACK
6
CONTINUOUS
10
116.908
20
-103.402
11
118.518
21
-105.012
0
LINE
8
BLACK
6
CONTINUOUS
10
118.518
20
-105.012
11
118.77
21
-104.866
0
LINE
8
BLACK
6
CONTINUOUS
10
118.77
20
-104.866
11
119.121
21
-104.804
0
LINE
8
BLACK
6
CONTINUOUS
10
119.121
20
-104.804
11
119.472
21
-104.866
0
LINE
8
BLACK
6
CONTINUOUS
10
119.472
20
-104.866
11
119.78
21
-105.044
0
LINE
8
BLACK
6
CONTINUOUS
10
119.78
20
-105.044
11
120.009
21
-105.317
0
LINE
8
BLACK
6
CONTINUOUS
10
120.009
20
-105.317
11
120.131
21
-105.652
0
LINE
8
BLACK
6
CONTINUOUS
10
120.131
20
-105.652
11
120.131
21
-106.008
0
LINE
8
BLACK
6
CONTINUOUS
10
120.131
20
-106.008
11
120.009
21
-106.343
0
LINE
8
BLACK
6
CONTINUOUS
10
120.009
20
-106.343
11
119.78
21
-106.616
0
LINE
8
BLACK
6
CONTINUOUS
10
119.78
20
-106.616
11
119.472
21
-106.794
0
LINE
8
BLACK
6
CONTINUOUS
10
119.472
20
-106.794
11
119.121
21
-106.856
0
LINE
8
BLACK
6
CONTINUOUS
10
119.121
20
-106.856
11
118.77
21
-106.794
0
LINE
8
BLACK
6
CONTINUOUS
10
118.77
20
-106.794
11
118.462
21
-106.616
0
LINE
8
BLACK
6
CONTINUOUS
10
118.462
20
-106.616
11
118.233
21
-106.343
0
LINE
8
BLACK
6
CONTINUOUS
10
118.233
20
-106.343
11
118.111
21
-106.008
0
LINE
8
BLACK
6
CONTINUOUS
10
118.111
20
-106.008
11
118.111
21
-105.652
0
LINE
8
BLACK
6
CONTINUOUS
10
118.111
20
-105.652
11
118.233
21
-105.317
0
LINE
8
BLACK
6
CONTINUOUS
10
118.233
20
-105.317
11
118.306
21
-105.23
0
LINE
8
BLACK
6
CONTINUOUS
10
118.306
20
-105.23
11
116.733
21
-103.657
0
LINE
8
BLACK
6
CONTINUOUS
10
116.733
20
-103.657
11
113.626
21
-103.657
0
LINE
8
BLACK
6
CONTINUOUS
10
113.626
20
-103.657
11
113.626
21
-104.482
0
LINE
8
BLACK
6
CONTINUOUS
10
113.626
20
-104.482
11
111.926
21
-104.482
0
LINE
8
BLACK
6
CONTINUOUS
10
111.926
20
-104.482
11
111.926
21
-102.782
0
LINE
8
BLACK
6
CONTINUOUS
10
111.926
20
-102.782
11
113.626
21
-102.782
0
LINE
8
BLACK
6
CONTINUOUS
10
113.626
20
-102.782
11
113.626
21
-103.353
0
LINE
8
BLACK
6
CONTINUOUS
10
165.985
20
-103.119
11
166.412
21
-103.365
0
LINE
8
BLACK
6
CONTINUOUS
10
166.412
20
-103.365
11
166.728
21
-103.742
0
LINE
8
BLACK
6
CONTINUOUS
10
166.728
20
-103.742
11
166.896
21
-104.204
0
LINE
8
BLACK
6
CONTINUOUS
10
166.896
20
-104.204
11
166.896
21
-104.696
0
LINE
8
BLACK
6
CONTINUOUS
10
166.896
20
-104.696
11
166.728
21
-105.158
0
LINE
8
BLACK
6
CONTINUOUS
10
166.728
20
-105.158
11
166.412
21
-105.535
0
LINE
8
BLACK
6
CONTINUOUS
10
166.412
20
-105.535
11
165.985
21
-105.781
0
LINE
8
BLACK
6
CONTINUOUS
10
165.985
20
-105.781
11
165.501
21
-105.867
0
LINE
8
BLACK
6
CONTINUOUS
10
165.501
20
-105.867
11
165.017
21
-105.781
0
LINE
8
BLACK
6
CONTINUOUS
10
165.017
20
-105.781
11
164.59
21
-105.535
0
LINE
8
BLACK
6
CONTINUOUS
10
164.59
20
-105.535
11
164.274
21
-105.158
0
LINE
8
BLACK
6
CONTINUOUS
10
164.274
20
-105.158
11
164.106
21
-104.696
0
LINE
8
BLACK
6
CONTINUOUS
10
164.106
20
-104.696
11
164.106
21
-104.204
0
LINE
8
BLACK
6
CONTINUOUS
10
164.106
20
-104.204
11
164.274
21
-103.742
0
LINE
8
BLACK
6
CONTINUOUS
10
164.274
20
-103.742
11
164.59
21
-103.365
0
LINE
8
BLACK
6
CONTINUOUS
10
164.59
20
-103.365
11
165.017
21
-103.119
0
LINE
8
BLACK
6
CONTINUOUS
10
165.017
20
-103.119
11
165.501
21
-103.033
0
LINE
8
BLACK
6
CONTINUOUS
10
165.501
20
-103.033
11
165.985
21
-103.119
0
LINE
8
BLACK
6
CONTINUOUS
10
113.071
20
-100.281
11
113.331
21
-100.431
0
LINE
8
BLACK
6
CONTINUOUS
10
113.331
20
-100.431
11
113.523
21
-100.66
0
LINE
8
BLACK
6
CONTINUOUS
10
113.523
20
-100.66
11
113.579
21
-100.813
0
LINE
8
BLACK
6
CONTINUOUS
10
113.579
20
-100.813
11
116.999
21
-100.813
0
LINE
8
BLACK
6
CONTINUOUS
10
116.999
20
-100.813
11
117.019
21
-100.811
0
LINE
8
BLACK
6
CONTINUOUS
10
117.019
20
-100.811
11
117.039
21
-100.816
0
LINE
8
BLACK
6
CONTINUOUS
10
117.039
20
-100.816
11
117.059
21
-100.82
0
LINE
8
BLACK
6
CONTINUOUS
10
117.059
20
-100.82
11
117.065
21
-100.823
0
LINE
8
BLACK
6
CONTINUOUS
10
117.065
20
-100.823
11
117.071
21
-100.825
0
LINE
8
BLACK
6
CONTINUOUS
10
117.071
20
-100.825
11
117.088
21
-100.836
0
LINE
8
BLACK
6
CONTINUOUS
10
117.088
20
-100.836
11
117.105
21
-100.846
0
LINE
8
BLACK
6
CONTINUOUS
10
117.105
20
-100.846
11
117.118
21
-100.862
0
LINE
8
BLACK
6
CONTINUOUS
10
117.118
20
-100.862
11
118.518
21
-102.262
0
LINE
8
BLACK
6
CONTINUOUS
10
118.518
20
-102.262
11
118.77
21
-102.116
0
LINE
8
BLACK
6
CONTINUOUS
10
118.77
20
-102.116
11
119.121
21
-102.054
0
LINE
8
BLACK
6
CONTINUOUS
10
119.121
20
-102.054
11
119.472
21
-102.116
0
LINE
8
BLACK
6
CONTINUOUS
10
119.472
20
-102.116
11
119.78
21
-102.294
0
LINE
8
BLACK
6
CONTINUOUS
10
119.78
20
-102.294
11
120.009
21
-102.567
0
LINE
8
BLACK
6
CONTINUOUS
10
120.009
20
-102.567
11
120.131
21
-102.902
0
LINE
8
BLACK
6
CONTINUOUS
10
120.131
20
-102.902
11
120.131
21
-103.258
0
LINE
8
BLACK
6
CONTINUOUS
10
120.131
20
-103.258
11
120.009
21
-103.593
0
LINE
8
BLACK
6
CONTINUOUS
10
120.009
20
-103.593
11
119.78
21
-103.866
0
LINE
8
BLACK
6
CONTINUOUS
10
119.78
20
-103.866
11
119.472
21
-104.044
0
LINE
8
BLACK
6
CONTINUOUS
10
119.472
20
-104.044
11
119.121
21
-104.106
0
LINE
8
BLACK
6
CONTINUOUS
10
119.121
20
-104.106
11
118.77
21
-104.044
0
LINE
8
BLACK
6
CONTINUOUS
10
118.77
20
-104.044
11
118.462
21
-103.866
0
LINE
8
BLACK
6
CONTINUOUS
10
118.462
20
-103.866
11
118.233
21
-103.593
0
LINE
8
BLACK
6
CONTINUOUS
10
118.233
20
-103.593
11
118.111
21
-103.258
0
LINE
8
BLACK
6
CONTINUOUS
10
118.111
20
-103.258
11
118.111
21
-102.902
0
LINE
8
BLACK
6
CONTINUOUS
10
118.111
20
-102.902
11
118.233
21
-102.567
0
LINE
8
BLACK
6
CONTINUOUS
10
118.233
20
-102.567
11
118.306
21
-102.48
0
LINE
8
BLACK
6
CONTINUOUS
10
118.306
20
-102.48
11
116.943
21
-101.117
0
LINE
8
BLACK
6
CONTINUOUS
10
116.943
20
-101.117
11
113.626
21
-101.117
0
LINE
8
BLACK
6
CONTINUOUS
10
113.626
20
-101.117
11
113.626
21
-101.242
0
LINE
8
BLACK
6
CONTINUOUS
10
113.626
20
-101.242
11
113.523
21
-101.524
0
LINE
8
BLACK
6
CONTINUOUS
10
113.523
20
-101.524
11
113.331
21
-101.753
0
LINE
8
BLACK
6
CONTINUOUS
10
113.331
20
-101.753
11
113.071
21
-101.903
0
LINE
8
BLACK
6
CONTINUOUS
10
113.071
20
-101.903
11
112.85
21
-101.942
0
LINE
8
BLACK
6
CONTINUOUS
10
112.85
20
-101.942
11
112.702
21
-101.942
0
LINE
8
BLACK
6
CONTINUOUS
10
112.702
20
-101.942
11
112.481
21
-101.903
0
LINE
8
BLACK
6
CONTINUOUS
10
112.481
20
-101.903
11
112.221
21
-101.753
0
LINE
8
BLACK
6
CONTINUOUS
10
112.221
20
-101.753
11
112.029
21
-101.524
0
LINE
8
BLACK
6
CONTINUOUS
10
112.029
20
-101.524
11
111.926
21
-101.242
0
LINE
8
BLACK
6
CONTINUOUS
10
111.926
20
-101.242
11
111.926
21
-100.942
0
LINE
8
BLACK
6
CONTINUOUS
10
111.926
20
-100.942
11
112.029
21
-100.66
0
LINE
8
BLACK
6
CONTINUOUS
10
112.029
20
-100.66
11
112.221
21
-100.431
0
LINE
8
BLACK
6
CONTINUOUS
10
112.221
20
-100.431
11
112.481
21
-100.281
0
LINE
8
BLACK
6
CONTINUOUS
10
112.481
20
-100.281
11
112.702
21
-100.242
0
LINE
8
BLACK
6
CONTINUOUS
10
112.702
20
-100.242
11
112.85
21
-100.242
0
LINE
8
BLACK
6
CONTINUOUS
10
112.85
20
-100.242
11
113.071
21
-100.281
0
LINE
8
BLACK
6
CONTINUOUS
10
113.071
20
-97.7409
11
113.331
21
-97.8908
0
LINE
8
BLACK
6
CONTINUOUS
10
113.331
20
-97.8908
11
113.523
21
-98.1204
0
LINE
8
BLACK
6
CONTINUOUS
10
113.523
20
-98.1204
11
113.579
21
-98.2726
0
LINE
8
BLACK
6
CONTINUOUS
10
113.579
20
-98.2726
11
117.219
21
-98.2726
0
LINE
8
BLACK
6
CONTINUOUS
10
117.219
20
-98.2726
11
117.239
21
-98.2708
0
LINE
8
BLACK
6
CONTINUOUS
10
117.239
20
-98.2708
11
117.259
21
-98.2761
0
LINE
8
BLACK
6
CONTINUOUS
10
117.259
20
-98.2761
11
117.279
21
-98.2796
0
LINE
8
BLACK
6
CONTINUOUS
10
117.279
20
-98.2796
11
117.285
21
-98.283
0
LINE
8
BLACK
6
CONTINUOUS
10
117.285
20
-98.283
11
117.291
21
-98.2847
0
LINE
8
BLACK
6
CONTINUOUS
10
117.291
20
-98.2847
11
117.308
21
-98.2963
0
LINE
8
BLACK
6
CONTINUOUS
10
117.308
20
-98.2963
11
117.325
21
-98.3065
0
LINE
8
BLACK
6
CONTINUOUS
10
117.325
20
-98.3065
11
117.338
21
-98.3219
0
LINE
8
BLACK
6
CONTINUOUS
10
117.338
20
-98.3219
11
118.518
21
-99.5017
0
LINE
8
BLACK
6
CONTINUOUS
10
118.518
20
-99.5017
11
118.77
21
-99.3563
0
LINE
8
BLACK
6
CONTINUOUS
10
118.77
20
-99.3563
11
119.121
21
-99.2944
0
LINE
8
BLACK
6
CONTINUOUS
10
119.121
20
-99.2944
11
119.472
21
-99.3563
0
LINE
8
BLACK
6
CONTINUOUS
10
119.472
20
-99.3563
11
119.78
21
-99.5344
0
LINE
8
BLACK
6
CONTINUOUS
10
119.78
20
-99.5344
11
120.009
21
-99.8072
0
LINE
8
BLACK
6
CONTINUOUS
10
120.009
20
-99.8072
11
120.131
21
-100.142
0
LINE
8
BLACK
6
CONTINUOUS
10
120.131
20
-100.142
11
120.131
21
-100.498
0
LINE
8
BLACK
6
CONTINUOUS
10
120.131
20
-100.498
11
120.009
21
-100.833
0
LINE
8
BLACK
6
CONTINUOUS
10
120.009
20
-100.833
11
119.78
21
-101.106
0
LINE
8
BLACK
6
CONTINUOUS
10
119.78
20
-101.106
11
119.472
21
-101.284
0
LINE
8
BLACK
6
CONTINUOUS
10
119.472
20
-101.284
11
119.121
21
-101.346
0
LINE
8
BLACK
6
CONTINUOUS
10
119.121
20
-101.346
11
118.77
21
-101.284
0
LINE
8
BLACK
6
CONTINUOUS
10
118.77
20
-101.284
11
118.462
21
-101.106
0
LINE
8
BLACK
6
CONTINUOUS
10
118.462
20
-101.106
11
118.233
21
-100.833
0
LINE
8
BLACK
6
CONTINUOUS
10
118.233
20
-100.833
11
118.111
21
-100.498
0
LINE
8
BLACK
6
CONTINUOUS
10
118.111
20
-100.498
11
118.111
21
-100.142
0
LINE
8
BLACK
6
CONTINUOUS
10
118.111
20
-100.142
11
118.233
21
-99.8072
0
LINE
8
BLACK
6
CONTINUOUS
10
118.233
20
-99.8072
11
118.306
21
-99.7203
0
LINE
8
BLACK
6
CONTINUOUS
10
118.306
20
-99.7203
11
117.163
21
-98.5774
0
LINE
8
BLACK
6
CONTINUOUS
10
117.163
20
-98.5774
11
113.626
21
-98.5774
0
LINE
8
BLACK
6
CONTINUOUS
10
113.626
20
-98.5774
11
113.626
21
-98.7019
0
LINE
8
BLACK
6
CONTINUOUS
10
113.626
20
-98.7019
11
113.523
21
-98.9836
0
LINE
8
BLACK
6
CONTINUOUS
10
113.523
20
-98.9836
11
113.331
21
-99.2132
0
LINE
8
BLACK
6
CONTINUOUS
10
113.331
20
-99.2132
11
113.071
21
-99.3631
0
LINE
8
BLACK
6
CONTINUOUS
10
113.071
20
-99.3631
11
112.85
21
-99.402
0
LINE
8
BLACK
6
CONTINUOUS
10
112.85
20
-99.402
11
112.702
21
-99.402
0
LINE
8
BLACK
6
CONTINUOUS
10
112.702
20
-99.402
11
112.481
21
-99.3631
0
LINE
8
BLACK
6
CONTINUOUS
10
112.481
20
-99.3631
11
112.221
21
-99.2132
0
LINE
8
BLACK
6
CONTINUOUS
10
112.221
20
-99.2132
11
112.029
21
-98.9836
0
LINE
8
BLACK
6
CONTINUOUS
10
112.029
20
-98.9836
11
111.926
21
-98.7019
0
LINE
8
BLACK
6
CONTINUOUS
10
111.926
20
-98.7019
11
111.926
21
-98.4021
0
LINE
8
BLACK
6
CONTINUOUS
10
111.926
20
-98.4021
11
112.029
21
-98.1204
0
LINE
8
BLACK
6
CONTINUOUS
10
112.029
20
-98.1204
11
112.221
21
-97.8908
0
LINE
8
BLACK
6
CONTINUOUS
10
112.221
20
-97.8908
11
112.481
21
-97.7409
0
LINE
8
BLACK
6
CONTINUOUS
10
112.481
20
-97.7409
11
112.702
21
-97.702
0
LINE
8
BLACK
6
CONTINUOUS
10
112.702
20
-97.702
11
112.85
21
-97.702
0
LINE
8
BLACK
6
CONTINUOUS
10
112.85
20
-97.702
11
113.071
21
-97.7409
0
LINE
8
BLACK
6
CONTINUOUS
10
112.871
20
-86.4816
11
113.849
21
-87.0458
0
LINE
8
BLACK
6
CONTINUOUS
10
113.849
20
-87.0458
11
114.574
21
-87.9103
0
LINE
8
BLACK
6
CONTINUOUS
10
114.574
20
-87.9103
11
114.703
21
-88.265
0
LINE
8
BLACK
6
CONTINUOUS
10
114.703
20
-88.265
11
114.901
21
-88.265
0
LINE
8
BLACK
6
CONTINUOUS
10
114.901
20
-88.265
11
115.068
21
-88.2503
0
LINE
8
BLACK
6
CONTINUOUS
10
115.068
20
-88.2503
11
115.231
21
-88.2939
0
LINE
8
BLACK
6
CONTINUOUS
10
115.231
20
-88.2939
11
115.397
21
-88.3232
0
LINE
8
BLACK
6
CONTINUOUS
10
115.397
20
-88.3232
11
115.446
21
-88.3515
0
LINE
8
BLACK
6
CONTINUOUS
10
115.446
20
-88.3515
11
115.501
21
-88.3662
0
LINE
8
BLACK
6
CONTINUOUS
10
115.501
20
-88.3662
11
115.639
21
-88.4629
0
LINE
8
BLACK
6
CONTINUOUS
10
115.639
20
-88.4629
11
115.785
21
-88.5471
0
LINE
8
BLACK
6
CONTINUOUS
10
115.785
20
-88.5471
11
115.893
21
-88.6762
0
LINE
8
BLACK
6
CONTINUOUS
10
115.893
20
-88.6762
11
119.914
21
-92.6974
0
LINE
8
BLACK
6
CONTINUOUS
10
119.914
20
-92.6974
11
119.947
21
-92.716
0
LINE
8
BLACK
6
CONTINUOUS
10
119.947
20
-92.716
11
120.018
21
-92.8006
0
LINE
8
BLACK
6
CONTINUOUS
10
120.018
20
-92.8006
11
120.098
21
-92.8805
0
LINE
8
BLACK
6
CONTINUOUS
10
120.098
20
-92.8805
11
120.162
21
-92.9731
0
LINE
8
BLACK
6
CONTINUOUS
10
120.162
20
-92.9731
11
120.233
21
-93.0577
0
LINE
8
BLACK
6
CONTINUOUS
10
120.233
20
-93.0577
11
120.246
21
-93.0927
0
LINE
8
BLACK
6
CONTINUOUS
10
120.246
20
-93.0927
11
120.29
21
-93.155
0
LINE
8
BLACK
6
CONTINUOUS
10
120.29
20
-93.155
11
120.348
21
-93.3731
0
LINE
8
BLACK
6
CONTINUOUS
10
120.348
20
-93.3731
11
120.386
21
-93.4769
0
LINE
8
BLACK
6
CONTINUOUS
10
120.386
20
-93.4769
11
120.386
21
-93.5141
0
LINE
8
BLACK
6
CONTINUOUS
10
120.386
20
-93.5141
11
120.406
21
-93.5876
0
LINE
8
BLACK
6
CONTINUOUS
10
120.406
20
-93.5876
11
120.386
21
-93.8126
0
LINE
8
BLACK
6
CONTINUOUS
10
120.386
20
-93.8126
11
120.386
21
-93.9231
0
LINE
8
BLACK
6
CONTINUOUS
10
120.386
20
-93.9231
11
120.373
21
-93.958
0
LINE
8
BLACK
6
CONTINUOUS
10
120.373
20
-93.958
11
120.367
21
-94.0338
0
LINE
8
BLACK
6
CONTINUOUS
10
120.367
20
-94.0338
11
120.271
21
-94.2384
0
LINE
8
BLACK
6
CONTINUOUS
10
120.271
20
-94.2384
11
120.233
21
-94.3423
0
LINE
8
BLACK
6
CONTINUOUS
10
120.233
20
-94.3423
11
120.21
21
-94.3708
0
LINE
8
BLACK
6
CONTINUOUS
10
120.21
20
-94.3708
11
120.177
21
-94.4397
0
LINE
8
BLACK
6
CONTINUOUS
10
120.177
20
-94.4397
11
120.018
21
-94.5994
0
LINE
8
BLACK
6
CONTINUOUS
10
120.018
20
-94.5994
11
119.947
21
-94.684
0
LINE
8
BLACK
6
CONTINUOUS
10
119.947
20
-94.684
11
119.914
21
-94.7026
0
LINE
8
BLACK
6
CONTINUOUS
10
119.914
20
-94.7026
11
119.861
21
-94.7564
0
LINE
8
BLACK
6
CONTINUOUS
10
119.861
20
-94.7564
11
119.656
21
-94.8518
0
LINE
8
BLACK
6
CONTINUOUS
10
119.656
20
-94.8518
11
119.56
21
-94.907
0
LINE
8
BLACK
6
CONTINUOUS
10
119.56
20
-94.907
11
119.524
21
-94.9135
0
LINE
8
BLACK
6
CONTINUOUS
10
119.524
20
-94.9135
11
119.455
21
-94.9457
0
LINE
8
BLACK
6
CONTINUOUS
10
119.455
20
-94.9457
11
119.23
21
-94.9653
0
LINE
8
BLACK
6
CONTINUOUS
10
119.23
20
-94.9653
11
119.121
21
-94.9845
0
LINE
8
BLACK
6
CONTINUOUS
10
119.121
20
-94.9845
11
119.084
21
-94.9781
0
LINE
8
BLACK
6
CONTINUOUS
10
119.084
20
-94.9781
11
119.009
21
-94.9847
0
LINE
8
BLACK
6
CONTINUOUS
10
119.009
20
-94.9847
11
118.79
21
-94.9262
0
LINE
8
BLACK
6
CONTINUOUS
10
118.79
20
-94.9262
11
118.682
21
-94.907
0
LINE
8
BLACK
6
CONTINUOUS
10
118.682
20
-94.907
11
118.649
21
-94.8884
0
LINE
8
BLACK
6
CONTINUOUS
10
118.649
20
-94.8884
11
118.576
21
-94.8688
0
LINE
8
BLACK
6
CONTINUOUS
10
118.576
20
-94.8688
11
118.391
21
-94.7392
0
LINE
8
BLACK
6
CONTINUOUS
10
118.391
20
-94.7392
11
118.295
21
-94.684
0
LINE
8
BLACK
6
CONTINUOUS
10
118.295
20
-94.684
11
118.224
21
-94.5994
0
LINE
8
BLACK
6
CONTINUOUS
10
118.224
20
-94.5994
11
114.63
21
-91.0053
0
LINE
8
BLACK
6
CONTINUOUS
10
114.63
20
-91.0053
11
114.574
21
-91.1597
0
LINE
8
BLACK
6
CONTINUOUS
10
114.574
20
-91.1597
11
113.849
21
-92.0242
0
LINE
8
BLACK
6
CONTINUOUS
10
113.849
20
-92.0242
11
112.871
21
-92.5884
0
LINE
8
BLACK
6
CONTINUOUS
10
112.871
20
-92.5884
11
111.76
21
-92.7844
0
LINE
8
BLACK
6
CONTINUOUS
10
111.76
20
-92.7844
11
110.649
21
-92.5884
0
LINE
8
BLACK
6
CONTINUOUS
10
110.649
20
-92.5884
11
109.671
21
-92.0242
0
LINE
8
BLACK
6
CONTINUOUS
10
109.671
20
-92.0242
11
108.946
21
-91.1597
0
LINE
8
BLACK
6
CONTINUOUS
10
108.946
20
-91.1597
11
108.56
21
-90.0992
0
LINE
8
BLACK
6
CONTINUOUS
10
108.56
20
-90.0992
11
108.56
21
-88.9708
0
LINE
8
BLACK
6
CONTINUOUS
10
108.56
20
-88.9708
11
108.946
21
-87.9103
0
LINE
8
BLACK
6
CONTINUOUS
10
108.946
20
-87.9103
11
109.671
21
-87.0458
0
LINE
8
BLACK
6
CONTINUOUS
10
109.671
20
-87.0458
11
110.649
21
-86.4816
0
LINE
8
BLACK
6
CONTINUOUS
10
110.649
20
-86.4816
11
111.76
21
-86.2856
0
LINE
8
BLACK
6
CONTINUOUS
10
111.76
20
-86.2856
11
112.871
21
-86.4816
0
LINE
8
BLACK
6
CONTINUOUS
10
165.985
20
-92.1189
11
166.412
21
-92.3649
0
LINE
8
BLACK
6
CONTINUOUS
10
166.412
20
-92.3649
11
166.728
21
-92.7417
0
LINE
8
BLACK
6
CONTINUOUS
10
166.728
20
-92.7417
11
166.896
21
-93.204
0
LINE
8
BLACK
6
CONTINUOUS
10
166.896
20
-93.204
11
166.896
21
-93.696
0
LINE
8
BLACK
6
CONTINUOUS
10
166.896
20
-93.696
11
166.728
21
-94.1583
0
LINE
8
BLACK
6
CONTINUOUS
10
166.728
20
-94.1583
11
166.412
21
-94.5351
0
LINE
8
BLACK
6
CONTINUOUS
10
166.412
20
-94.5351
11
165.985
21
-94.7811
0
LINE
8
BLACK
6
CONTINUOUS
10
165.985
20
-94.7811
11
165.501
21
-94.8665
0
LINE
8
BLACK
6
CONTINUOUS
10
165.501
20
-94.8665
11
165.017
21
-94.7811
0
LINE
8
BLACK
6
CONTINUOUS
10
165.017
20
-94.7811
11
164.59
21
-94.5351
0
LINE
8
BLACK
6
CONTINUOUS
10
164.59
20
-94.5351
11
164.274
21
-94.1583
0
LINE
8
BLACK
6
CONTINUOUS
10
164.274
20
-94.1583
11
164.106
21
-93.696
0
LINE
8
BLACK
6
CONTINUOUS
10
164.106
20
-93.696
11
164.106
21
-93.204
0
LINE
8
BLACK
6
CONTINUOUS
10
164.106
20
-93.204
11
164.274
21
-92.7417
0
LINE
8
BLACK
6
CONTINUOUS
10
164.274
20
-92.7417
11
164.59
21
-92.3649
0
LINE
8
BLACK
6
CONTINUOUS
10
164.59
20
-92.3649
11
165.017
21
-92.1189
0
LINE
8
BLACK
6
CONTINUOUS
10
165.017
20
-92.1189
11
165.501
21
-92.0335
0
LINE
8
BLACK
6
CONTINUOUS
10
165.501
20
-92.0335
11
165.985
21
-92.1189
0
LINE
8
BLACK
6
CONTINUOUS
10
159.319
20
-86.251
11
159.793
21
-86.5243
0
LINE
8
BLACK
6
CONTINUOUS
10
159.793
20
-86.5243
11
160.144
21
-86.943
0
LINE
8
BLACK
6
CONTINUOUS
10
160.144
20
-86.943
11
160.331
21
-87.4567
0
LINE
8
BLACK
6
CONTINUOUS
10
160.331
20
-87.4567
11
160.331
21
-88.0033
0
LINE
8
BLACK
6
CONTINUOUS
10
160.331
20
-88.0033
11
160.144
21
-88.517
0
LINE
8
BLACK
6
CONTINUOUS
10
160.144
20
-88.517
11
159.793
21
-88.9357
0
LINE
8
BLACK
6
CONTINUOUS
10
159.793
20
-88.9357
11
159.319
21
-89.209
0
LINE
8
BLACK
6
CONTINUOUS
10
159.319
20
-89.209
11
158.781
21
-89.3039
0
LINE
8
BLACK
6
CONTINUOUS
10
158.781
20
-89.3039
11
158.243
21
-89.209
0
LINE
8
BLACK
6
CONTINUOUS
10
158.243
20
-89.209
11
157.769
21
-88.9357
0
LINE
8
BLACK
6
CONTINUOUS
10
157.769
20
-88.9357
11
157.418
21
-88.517
0
LINE
8
BLACK
6
CONTINUOUS
10
157.418
20
-88.517
11
157.231
21
-88.0033
0
LINE
8
BLACK
6
CONTINUOUS
10
157.231
20
-88.0033
11
157.231
21
-87.4567
0
LINE
8
BLACK
6
CONTINUOUS
10
157.231
20
-87.4567
11
157.418
21
-86.943
0
LINE
8
BLACK
6
CONTINUOUS
10
157.418
20
-86.943
11
157.769
21
-86.5243
0
LINE
8
BLACK
6
CONTINUOUS
10
157.769
20
-86.5243
11
158.243
21
-86.251
0
LINE
8
BLACK
6
CONTINUOUS
10
158.243
20
-86.251
11
158.781
21
-86.1561
0
LINE
8
BLACK
6
CONTINUOUS
10
158.781
20
-86.1561
11
159.319
21
-86.251
0
LINE
8
BLACK
6
CONTINUOUS
10
126.379
20
-86.251
11
126.853
21
-86.5243
0
LINE
8
BLACK
6
CONTINUOUS
10
126.853
20
-86.5243
11
127.204
21
-86.943
0
LINE
8
BLACK
6
CONTINUOUS
10
127.204
20
-86.943
11
127.391
21
-87.4567
0
LINE
8
BLACK
6
CONTINUOUS
10
127.391
20
-87.4567
11
127.391
21
-88.0033
0
LINE
8
BLACK
6
CONTINUOUS
10
127.391
20
-88.0033
11
127.204
21
-88.517
0
LINE
8
BLACK
6
CONTINUOUS
10
127.204
20
-88.517
11
126.853
21
-88.9357
0
LINE
8
BLACK
6
CONTINUOUS
10
126.853
20
-88.9357
11
126.379
21
-89.209
0
LINE
8
BLACK
6
CONTINUOUS
10
126.379
20
-89.209
11
125.841
21
-89.3039
0
LINE
8
BLACK
6
CONTINUOUS
10
125.841
20
-89.3039
11
125.303
21
-89.209
0
LINE
8
BLACK
6
CONTINUOUS
10
125.303
20
-89.209
11
124.829
21
-88.9357
0
LINE
8
BLACK
6
CONTINUOUS
10
124.829
20
-88.9357
11
124.478
21
-88.517
0
LINE
8
BLACK
6
CONTINUOUS
10
124.478
20
-88.517
11
124.291
21
-88.0033
0
LINE
8
BLACK
6
CONTINUOUS
10
124.291
20
-88.0033
11
124.291
21
-87.4567
0
LINE
8
BLACK
6
CONTINUOUS
10
124.291
20
-87.4567
11
124.478
21
-86.943
0
LINE
8
BLACK
6
CONTINUOUS
10
124.478
20
-86.943
11
124.829
21
-86.5243
0
LINE
8
BLACK
6
CONTINUOUS
10
124.829
20
-86.5243
11
125.303
21
-86.251
0
LINE
8
BLACK
6
CONTINUOUS
10
125.303
20
-86.251
11
125.841
21
-86.1561
0
LINE
8
BLACK
6
CONTINUOUS
10
125.841
20
-86.1561
11
126.379
21
-86.251
0
LINE
8
BLACK
6
CONTINUOUS
10
150.505
20
-86.3989
11
150.932
21
-86.6449
0
LINE
8
BLACK
6
CONTINUOUS
10
150.932
20
-86.6449
11
151.248
21
-87.0217
0
LINE
8
BLACK
6
CONTINUOUS
10
151.248
20
-87.0217
11
151.416
21
-87.484
0
LINE
8
BLACK
6
CONTINUOUS
10
151.416
20
-87.484
11
151.416
21
-87.976
0
LINE
8
BLACK
6
CONTINUOUS
10
151.416
20
-87.976
11
151.248
21
-88.4383
0
LINE
8
BLACK
6
CONTINUOUS
10
151.248
20
-88.4383
11
150.932
21
-88.8151
0
LINE
8
BLACK
6
CONTINUOUS
10
150.932
20
-88.8151
11
150.505
21
-89.0611
0
LINE
8
BLACK
6
CONTINUOUS
10
150.505
20
-89.0611
11
150.021
21
-89.1465
0
LINE
8
BLACK
6
CONTINUOUS
10
150.021
20
-89.1465
11
149.537
21
-89.0611
0
LINE
8
BLACK
6
CONTINUOUS
10
149.537
20
-89.0611
11
149.11
21
-88.8151
0
LINE
8
BLACK
6
CONTINUOUS
10
149.11
20
-88.8151
11
148.794
21
-88.4383
0
LINE
8
BLACK
6
CONTINUOUS
10
148.794
20
-88.4383
11
148.626
21
-87.976
0
LINE
8
BLACK
6
CONTINUOUS
10
148.626
20
-87.976
11
148.626
21
-87.484
0
LINE
8
BLACK
6
CONTINUOUS
10
148.626
20
-87.484
11
148.794
21
-87.0217
0
LINE
8
BLACK
6
CONTINUOUS
10
148.794
20
-87.0217
11
149.11
21
-86.6449
0
LINE
8
BLACK
6
CONTINUOUS
10
149.11
20
-86.6449
11
149.537
21
-86.3989
0
LINE
8
BLACK
6
CONTINUOUS
10
149.537
20
-86.3989
11
150.021
21
-86.3135
0
LINE
8
BLACK
6
CONTINUOUS
10
150.021
20
-86.3135
11
150.505
21
-86.3989
0
LINE
8
BLACK
6
CONTINUOUS
10
163.178
20
-82.7193
11
163.939
21
-83.1592
0
LINE
8
BLACK
6
CONTINUOUS
10
163.939
20
-83.1592
11
164.505
21
-83.8333
0
LINE
8
BLACK
6
CONTINUOUS
10
164.505
20
-83.8333
11
164.806
21
-84.6601
0
LINE
8
BLACK
6
CONTINUOUS
10
164.806
20
-84.6601
11
164.806
21
-85.5399
0
LINE
8
BLACK
6
CONTINUOUS
10
164.806
20
-85.5399
11
164.505
21
-86.3667
0
LINE
8
BLACK
6
CONTINUOUS
10
164.505
20
-86.3667
11
163.939
21
-87.0408
0
LINE
8
BLACK
6
CONTINUOUS
10
163.939
20
-87.0408
11
163.178
21
-87.4807
0
LINE
8
BLACK
6
CONTINUOUS
10
163.178
20
-87.4807
11
162.311
21
-87.6335
0
LINE
8
BLACK
6
CONTINUOUS
10
162.311
20
-87.6335
11
161.444
21
-87.4807
0
LINE
8
BLACK
6
CONTINUOUS
10
161.444
20
-87.4807
11
160.683
21
-87.0408
0
LINE
8
BLACK
6
CONTINUOUS
10
160.683
20
-87.0408
11
160.117
21
-86.3667
0
LINE
8
BLACK
6
CONTINUOUS
10
160.117
20
-86.3667
11
159.816
21
-85.5399
0
LINE
8
BLACK
6
CONTINUOUS
10
159.816
20
-85.5399
11
159.816
21
-84.6601
0
LINE
8
BLACK
6
CONTINUOUS
10
159.816
20
-84.6601
11
160.117
21
-83.8333
0
LINE
8
BLACK
6
CONTINUOUS
10
160.117
20
-83.8333
11
160.683
21
-83.1592
0
LINE
8
BLACK
6
CONTINUOUS
10
160.683
20
-83.1592
11
161.444
21
-82.7193
0
LINE
8
BLACK
6
CONTINUOUS
10
161.444
20
-82.7193
11
162.311
21
-82.5665
0
LINE
8
BLACK
6
CONTINUOUS
10
162.311
20
-82.5665
11
163.178
21
-82.7193
0
LINE
8
BLACK
6
CONTINUOUS
10
123.178
20
-82.7193
11
123.939
21
-83.1592
0
LINE
8
BLACK
6
CONTINUOUS
10
123.939
20
-83.1592
11
124.505
21
-83.8333
0
LINE
8
BLACK
6
CONTINUOUS
10
124.505
20
-83.8333
11
124.806
21
-84.6601
0
LINE
8
BLACK
6
CONTINUOUS
10
124.806
20
-84.6601
11
124.806
21
-85.5399
0
LINE
8
BLACK
6
CONTINUOUS
10
124.806
20
-85.5399
11
124.505
21
-86.3667
0
LINE
8
BLACK
6
CONTINUOUS
10
124.505
20
-86.3667
11
123.939
21
-87.0408
0
LINE
8
BLACK
6
CONTINUOUS
10
123.939
20
-87.0408
11
123.178
21
-87.4807
0
LINE
8
BLACK
6
CONTINUOUS
10
123.178
20
-87.4807
11
122.311
21
-87.6335
0
LINE
8
BLACK
6
CONTINUOUS
10
122.311
20
-87.6335
11
121.444
21
-87.4807
0
LINE
8
BLACK
6
CONTINUOUS
10
121.444
20
-87.4807
11
120.683
21
-87.0408
0
LINE
8
BLACK
6
CONTINUOUS
10
120.683
20
-87.0408
11
120.117
21
-86.3667
0
LINE
8
BLACK
6
CONTINUOUS
10
120.117
20
-86.3667
11
119.816
21
-85.5399
0
LINE
8
BLACK
6
CONTINUOUS
10
119.816
20
-85.5399
11
119.816
21
-84.6601
0
LINE
8
BLACK
6
CONTINUOUS
10
119.816
20
-84.6601
11
120.117
21
-83.8333
0
LINE
8
BLACK
6
CONTINUOUS
10
120.117
20
-83.8333
11
120.683
21
-83.1592
0
LINE
8
BLACK
6
CONTINUOUS
10
120.683
20
-83.1592
11
121.444
21
-82.7193
0
LINE
8
BLACK
6
CONTINUOUS
10
121.444
20
-82.7193
11
122.311
21
-82.5665
0
LINE
8
BLACK
6
CONTINUOUS
10
122.311
20
-82.5665
11
123.178
21
-82.7193
  0
ENDSEC
  0
EOF
