  0
SECTION
  2
HEADER
  9
$ANGBASE
  50
0.0
  9
$ANGDIR
  70
  1
  9
$MEASUREMENT
  70
0
  0
ENDSEC
  0
SECTION
  2
TABLES
  0
TABLE
  2
LTYPE
  70
4
  0
LTYPE
  5
40F
  2
CONTINUOUS
  70
0
  3
Solid line
  72
65
  73
0
  40
0.0
  0
LTYPE
  5
410
  2
DASHDOT
 70
0
  3
Dash Dot ____ _ ____ _
 72
65
 73
4
 40
2.0
 49
1.25
 49
-0.25
 49
0.25
 49
-0.25
  0
LTYPE
  5
411
  2
DASHED
 70
0
  3
Dashed __ __ __ __ __
 72
65
 73
2
 40
0.75
 49
0.5
 49
-0.25
  0
LTYPE
  5
43B
  2
DOTTED
 70
0
  3
Dotted .  .  .  .
 72
65
 73
2
 40
0.2
 49
0.0
 49
-0.2
  0
ENDTAB
  0
TABLE
  2
STYLE
  70
4
  0
STYLE
  2
KICAD
  70
0
  40
0
  41
1
  42
1
  50
0
  71
0
  3
isocp.shx
  0
STYLE
  2
KICADB
  70
0
  40
0
  41
1
  42
1
  50
0
  71
0
  3
isocp.shx
  0
STYLE
  2
KICADI
  70
0
  40
0
  41
1
  42
1
  50
15
  71
0
  3
isocp.shx
  0
STYLE
  2
KICADBI
  70
0
  40
0
  41
1
  42
1
  50
15
  71
0
  3
isocp.shx
  0
ENDTAB
  0
TABLE
  2
LAYER
  70
30
  0
LAYER
  2
BLACK
  70
0
  62
7
  6
CONTINUOUS
  0
LAYER
  2
GRAY1
  70
0
  62
251
  6
CONTINUOUS
  0
LAYER
  2
GRAY2
  70
0
  62
8
  6
CONTINUOUS
  0
LAYER
  2
GRAY3
  70
0
  62
9
  6
CONTINUOUS
  0
LAYER
  2
WHITE
  70
0
  62
7
  6
CONTINUOUS
  0
LAYER
  2
LYELLOW
  70
0
  62
51
  6
CONTINUOUS
  0
LAYER
  2
BLUE1
  70
0
  62
178
  6
CONTINUOUS
  0
LAYER
  2
GREEN1
  70
0
  62
98
  6
CONTINUOUS
  0
LAYER
  2
CYAN1
  70
0
  62
138
  6
CONTINUOUS
  0
LAYER
  2
RED1
  70
0
  62
18
  6
CONTINUOUS
  0
LAYER
  2
MAGENTA1
  70
0
  62
228
  6
CONTINUOUS
  0
LAYER
  2
BROWN1
  70
0
  62
58
  6
CONTINUOUS
  0
LAYER
  2
BLUE2
  70
0
  62
5
  6
CONTINUOUS
  0
LAYER
  2
GREEN2
  70
0
  62
3
  6
CONTINUOUS
  0
LAYER
  2
CYAN2
  70
0
  62
4
  6
CONTINUOUS
  0
LAYER
  2
RED2
  70
0
  62
1
  6
CONTINUOUS
  0
LAYER
  2
MAGENTA2
  70
0
  62
6
  6
CONTINUOUS
  0
LAYER
  2
BROWN2
  70
0
  62
54
  6
CONTINUOUS
  0
LAYER
  2
BLUE3
  70
0
  62
171
  6
CONTINUOUS
  0
LAYER
  2
GREEN3
  70
0
  62
91
  6
CONTINUOUS
  0
LAYER
  2
CYAN3
  70
0
  62
131
  6
CONTINUOUS
  0
LAYER
  2
RED3
  70
0
  62
11
  6
CONTINUOUS
  0
LAYER
  2
MAGENTA3
  70
0
  62
221
  6
CONTINUOUS
  0
LAYER
  2
YELLOW3
  70
0
  62
2
  6
CONTINUOUS
  0
LAYER
  2
BLUE4
  70
0
  62
5
  6
CONTINUOUS
  0
LAYER
  2
GREEN4
  70
0
  62
3
  6
CONTINUOUS
  0
LAYER
  2
CYAN4
  70
0
  62
4
  6
CONTINUOUS
  0
LAYER
  2
RED4
  70
0
  62
1
  6
CONTINUOUS
  0
LAYER
  2
MAGENTA4
  70
0
  62
6
  6
CONTINUOUS
  0
LAYER
  2
YELLOW4
  70
0
  62
2
  6
CONTINUOUS
  0
ENDTAB
  0
ENDSEC
  0
SECTION
  2
ENTITIES
0
LINE
8
BLACK
6
CONTINUOUS
10
123.178
20
-115.919
11
123.939
21
-116.359
0
LINE
8
BLACK
6
CONTINUOUS
10
123.939
20
-116.359
11
124.505
21
-117.033
0
LINE
8
BLACK
6
CONTINUOUS
10
124.505
20
-117.033
11
124.806
21
-117.86
0
LINE
8
BLACK
6
CONTINUOUS
10
124.806
20
-117.86
11
124.806
21
-118.74
0
LINE
8
BLACK
6
CONTINUOUS
10
124.806
20
-118.74
11
124.505
21
-119.567
0
LINE
8
BLACK
6
CONTINUOUS
10
124.505
20
-119.567
11
123.939
21
-120.241
0
LINE
8
BLACK
6
CONTINUOUS
10
123.939
20
-120.241
11
123.178
21
-120.681
0
LINE
8
BLACK
6
CONTINUOUS
10
123.178
20
-120.681
11
122.311
21
-120.833
0
LINE
8
BLACK
6
CONTINUOUS
10
122.311
20
-120.833
11
121.444
21
-120.681
0
LINE
8
BLACK
6
CONTINUOUS
10
121.444
20
-120.681
11
120.683
21
-120.241
0
LINE
8
BLACK
6
CONTINUOUS
10
120.683
20
-120.241
11
120.117
21
-119.567
0
LINE
8
BLACK
6
CONTINUOUS
10
120.117
20
-119.567
11
119.816
21
-118.74
0
LINE
8
BLACK
6
CONTINUOUS
10
119.816
20
-118.74
11
119.816
21
-117.86
0
LINE
8
BLACK
6
CONTINUOUS
10
119.816
20
-117.86
11
120.117
21
-117.033
0
LINE
8
BLACK
6
CONTINUOUS
10
120.117
20
-117.033
11
120.683
21
-116.359
0
LINE
8
BLACK
6
CONTINUOUS
10
120.683
20
-116.359
11
121.444
21
-115.919
0
LINE
8
BLACK
6
CONTINUOUS
10
121.444
20
-115.919
11
122.311
21
-115.767
0
LINE
8
BLACK
6
CONTINUOUS
10
122.311
20
-115.767
11
123.178
21
-115.919
0
LINE
8
BLACK
6
CONTINUOUS
10
163.178
20
-115.919
11
163.939
21
-116.359
0
LINE
8
BLACK
6
CONTINUOUS
10
163.939
20
-116.359
11
164.505
21
-117.033
0
LINE
8
BLACK
6
CONTINUOUS
10
164.505
20
-117.033
11
164.806
21
-117.86
0
LINE
8
BLACK
6
CONTINUOUS
10
164.806
20
-117.86
11
164.806
21
-118.74
0
LINE
8
BLACK
6
CONTINUOUS
10
164.806
20
-118.74
11
164.505
21
-119.567
0
LINE
8
BLACK
6
CONTINUOUS
10
164.505
20
-119.567
11
163.939
21
-120.241
0
LINE
8
BLACK
6
CONTINUOUS
10
163.939
20
-120.241
11
163.178
21
-120.681
0
LINE
8
BLACK
6
CONTINUOUS
10
163.178
20
-120.681
11
162.311
21
-120.833
0
LINE
8
BLACK
6
CONTINUOUS
10
162.311
20
-120.833
11
161.444
21
-120.681
0
LINE
8
BLACK
6
CONTINUOUS
10
161.444
20
-120.681
11
160.683
21
-120.241
0
LINE
8
BLACK
6
CONTINUOUS
10
160.683
20
-120.241
11
160.117
21
-119.567
0
LINE
8
BLACK
6
CONTINUOUS
10
160.117
20
-119.567
11
159.816
21
-118.74
0
LINE
8
BLACK
6
CONTINUOUS
10
159.816
20
-118.74
11
159.816
21
-117.86
0
LINE
8
BLACK
6
CONTINUOUS
10
159.816
20
-117.86
11
160.117
21
-117.033
0
LINE
8
BLACK
6
CONTINUOUS
10
160.117
20
-117.033
11
160.683
21
-116.359
0
LINE
8
BLACK
6
CONTINUOUS
10
160.683
20
-116.359
11
161.444
21
-115.919
0
LINE
8
BLACK
6
CONTINUOUS
10
161.444
20
-115.919
11
162.311
21
-115.767
0
LINE
8
BLACK
6
CONTINUOUS
10
162.311
20
-115.767
11
163.178
21
-115.919
0
LINE
8
BLACK
6
CONTINUOUS
10
126.379
20
-114.191
11
126.853
21
-114.464
0
LINE
8
BLACK
6
CONTINUOUS
10
126.853
20
-114.464
11
127.204
21
-114.883
0
LINE
8
BLACK
6
CONTINUOUS
10
127.204
20
-114.883
11
127.391
21
-115.397
0
LINE
8
BLACK
6
CONTINUOUS
10
127.391
20
-115.397
11
127.391
21
-115.943
0
LINE
8
BLACK
6
CONTINUOUS
10
127.391
20
-115.943
11
127.204
21
-116.457
0
LINE
8
BLACK
6
CONTINUOUS
10
127.204
20
-116.457
11
126.853
21
-116.876
0
LINE
8
BLACK
6
CONTINUOUS
10
126.853
20
-116.876
11
126.379
21
-117.149
0
LINE
8
BLACK
6
CONTINUOUS
10
126.379
20
-117.149
11
125.841
21
-117.244
0
LINE
8
BLACK
6
CONTINUOUS
10
125.841
20
-117.244
11
125.303
21
-117.149
0
LINE
8
BLACK
6
CONTINUOUS
10
125.303
20
-117.149
11
124.829
21
-116.876
0
LINE
8
BLACK
6
CONTINUOUS
10
124.829
20
-116.876
11
124.478
21
-116.457
0
LINE
8
BLACK
6
CONTINUOUS
10
124.478
20
-116.457
11
124.291
21
-115.943
0
LINE
8
BLACK
6
CONTINUOUS
10
124.291
20
-115.943
11
124.291
21
-115.397
0
LINE
8
BLACK
6
CONTINUOUS
10
124.291
20
-115.397
11
124.478
21
-114.883
0
LINE
8
BLACK
6
CONTINUOUS
10
124.478
20
-114.883
11
124.829
21
-114.464
0
LINE
8
BLACK
6
CONTINUOUS
10
124.829
20
-114.464
11
125.303
21
-114.191
0
LINE
8
BLACK
6
CONTINUOUS
10
125.303
20
-114.191
11
125.841
21
-114.096
0
LINE
8
BLACK
6
CONTINUOUS
10
125.841
20
-114.096
11
126.379
21
-114.191
0
LINE
8
BLACK
6
CONTINUOUS
10
159.319
20
-114.191
11
159.793
21
-114.464
0
LINE
8
BLACK
6
CONTINUOUS
10
159.793
20
-114.464
11
160.144
21
-114.883
0
LINE
8
BLACK
6
CONTINUOUS
10
160.144
20
-114.883
11
160.331
21
-115.397
0
LINE
8
BLACK
6
CONTINUOUS
10
160.331
20
-115.397
11
160.331
21
-115.943
0
LINE
8
BLACK
6
CONTINUOUS
10
160.331
20
-115.943
11
160.144
21
-116.457
0
LINE
8
BLACK
6
CONTINUOUS
10
160.144
20
-116.457
11
159.793
21
-116.876
0
LINE
8
BLACK
6
CONTINUOUS
10
159.793
20
-116.876
11
159.319
21
-117.149
0
LINE
8
BLACK
6
CONTINUOUS
10
159.319
20
-117.149
11
158.781
21
-117.244
0
LINE
8
BLACK
6
CONTINUOUS
10
158.781
20
-117.244
11
158.243
21
-117.149
0
LINE
8
BLACK
6
CONTINUOUS
10
158.243
20
-117.149
11
157.769
21
-116.876
0
LINE
8
BLACK
6
CONTINUOUS
10
157.769
20
-116.876
11
157.418
21
-116.457
0
LINE
8
BLACK
6
CONTINUOUS
10
157.418
20
-116.457
11
157.231
21
-115.943
0
LINE
8
BLACK
6
CONTINUOUS
10
157.231
20
-115.943
11
157.231
21
-115.397
0
LINE
8
BLACK
6
CONTINUOUS
10
157.231
20
-115.397
11
157.418
21
-114.883
0
LINE
8
BLACK
6
CONTINUOUS
10
157.418
20
-114.883
11
157.769
21
-114.464
0
LINE
8
BLACK
6
CONTINUOUS
10
157.769
20
-114.464
11
158.243
21
-114.191
0
LINE
8
BLACK
6
CONTINUOUS
10
158.243
20
-114.191
11
158.781
21
-114.096
0
LINE
8
BLACK
6
CONTINUOUS
10
158.781
20
-114.096
11
159.319
21
-114.191
0
LINE
8
BLACK
6
CONTINUOUS
10
135.085
20
-114.339
11
135.512
21
-114.585
0
LINE
8
BLACK
6
CONTINUOUS
10
135.512
20
-114.585
11
135.828
21
-114.962
0
LINE
8
BLACK
6
CONTINUOUS
10
135.828
20
-114.962
11
135.996
21
-115.424
0
LINE
8
BLACK
6
CONTINUOUS
10
135.996
20
-115.424
11
135.996
21
-115.916
0
LINE
8
BLACK
6
CONTINUOUS
10
135.996
20
-115.916
11
135.828
21
-116.378
0
LINE
8
BLACK
6
CONTINUOUS
10
135.828
20
-116.378
11
135.512
21
-116.755
0
LINE
8
BLACK
6
CONTINUOUS
10
135.512
20
-116.755
11
135.085
21
-117.001
0
LINE
8
BLACK
6
CONTINUOUS
10
135.085
20
-117.001
11
134.601
21
-117.087
0
LINE
8
BLACK
6
CONTINUOUS
10
134.601
20
-117.087
11
134.117
21
-117.001
0
LINE
8
BLACK
6
CONTINUOUS
10
134.117
20
-117.001
11
133.69
21
-116.755
0
LINE
8
BLACK
6
CONTINUOUS
10
133.69
20
-116.755
11
133.374
21
-116.378
0
LINE
8
BLACK
6
CONTINUOUS
10
133.374
20
-116.378
11
133.206
21
-115.916
0
LINE
8
BLACK
6
CONTINUOUS
10
133.206
20
-115.916
11
133.206
21
-115.424
0
LINE
8
BLACK
6
CONTINUOUS
10
133.206
20
-115.424
11
133.374
21
-114.962
0
LINE
8
BLACK
6
CONTINUOUS
10
133.374
20
-114.962
11
133.69
21
-114.585
0
LINE
8
BLACK
6
CONTINUOUS
10
133.69
20
-114.585
11
134.117
21
-114.339
0
LINE
8
BLACK
6
CONTINUOUS
10
134.117
20
-114.339
11
134.601
21
-114.253
0
LINE
8
BLACK
6
CONTINUOUS
10
134.601
20
-114.253
11
135.085
21
-114.339
0
LINE
8
BLACK
6
CONTINUOUS
10
112.871
20
-110.739
11
113.849
21
-111.303
0
LINE
8
BLACK
6
CONTINUOUS
10
113.849
20
-111.303
11
114.574
21
-112.167
0
LINE
8
BLACK
6
CONTINUOUS
10
114.574
20
-112.167
11
114.96
21
-113.228
0
LINE
8
BLACK
6
CONTINUOUS
10
114.96
20
-113.228
11
114.96
21
-114.356
0
LINE
8
BLACK
6
CONTINUOUS
10
114.96
20
-114.356
11
114.574
21
-115.417
0
LINE
8
BLACK
6
CONTINUOUS
10
114.574
20
-115.417
11
113.849
21
-116.281
0
LINE
8
BLACK
6
CONTINUOUS
10
113.849
20
-116.281
11
112.871
21
-116.845
0
LINE
8
BLACK
6
CONTINUOUS
10
112.871
20
-116.845
11
111.76
21
-117.041
0
LINE
8
BLACK
6
CONTINUOUS
10
111.76
20
-117.041
11
110.649
21
-116.845
0
LINE
8
BLACK
6
CONTINUOUS
10
110.649
20
-116.845
11
109.671
21
-116.281
0
LINE
8
BLACK
6
CONTINUOUS
10
109.671
20
-116.281
11
108.946
21
-115.417
0
LINE
8
BLACK
6
CONTINUOUS
10
108.946
20
-115.417
11
108.56
21
-114.356
0
LINE
8
BLACK
6
CONTINUOUS
10
108.56
20
-114.356
11
108.56
21
-113.228
0
LINE
8
BLACK
6
CONTINUOUS
10
108.56
20
-113.228
11
108.946
21
-112.167
0
LINE
8
BLACK
6
CONTINUOUS
10
108.946
20
-112.167
11
109.671
21
-111.303
0
LINE
8
BLACK
6
CONTINUOUS
10
109.671
20
-111.303
11
110.649
21
-110.739
0
LINE
8
BLACK
6
CONTINUOUS
10
110.649
20
-110.739
11
111.76
21
-110.543
0
LINE
8
BLACK
6
CONTINUOUS
10
111.76
20
-110.543
11
112.871
21
-110.739
0
LINE
8
BLACK
6
CONTINUOUS
10
172.441
20
-88.7469
11
172.446
21
-88.7464
0
LINE
8
BLACK
6
CONTINUOUS
10
172.446
20
-88.7464
11
173.31
21
-88.8174
0
LINE
8
BLACK
6
CONTINUOUS
10
173.31
20
-88.8174
11
173.32
21
-88.8201
0
LINE
8
BLACK
6
CONTINUOUS
10
173.32
20
-88.8201
11
173.331
21
-88.8208
0
LINE
8
BLACK
6
CONTINUOUS
10
173.331
20
-88.8208
11
174.142
21
-89.0246
0
LINE
8
BLACK
6
CONTINUOUS
10
174.142
20
-89.0246
11
174.151
21
-89.0289
0
LINE
8
BLACK
6
CONTINUOUS
10
174.151
20
-89.0289
11
174.162
21
-89.0313
0
LINE
8
BLACK
6
CONTINUOUS
10
174.162
20
-89.0313
11
174.929
21
-89.3649
0
LINE
8
BLACK
6
CONTINUOUS
10
174.929
20
-89.3649
11
174.938
21
-89.3707
0
LINE
8
BLACK
6
CONTINUOUS
10
174.938
20
-89.3707
11
174.947
21
-89.3747
0
LINE
8
BLACK
6
CONTINUOUS
10
174.947
20
-89.3747
11
175.649
21
-89.8291
0
LINE
8
BLACK
6
CONTINUOUS
10
175.649
20
-89.8291
11
175.657
21
-89.8362
0
LINE
8
BLACK
6
CONTINUOUS
10
175.657
20
-89.8362
11
175.666
21
-89.8418
0
LINE
8
BLACK
6
CONTINUOUS
10
175.666
20
-89.8418
11
176.285
21
-90.4048
0
LINE
8
BLACK
6
CONTINUOUS
10
176.285
20
-90.4048
11
176.291
21
-90.4131
0
LINE
8
BLACK
6
CONTINUOUS
10
176.291
20
-90.4131
11
176.299
21
-90.42
0
LINE
8
BLACK
6
CONTINUOUS
10
176.299
20
-90.42
11
176.817
21
-91.0765
0
LINE
8
BLACK
6
CONTINUOUS
10
176.817
20
-91.0765
11
176.822
21
-91.0857
0
LINE
8
BLACK
6
CONTINUOUS
10
176.822
20
-91.0857
11
176.829
21
-91.0938
0
LINE
8
BLACK
6
CONTINUOUS
10
176.829
20
-91.0938
11
177.233
21
-91.8262
0
LINE
8
BLACK
6
CONTINUOUS
10
177.233
20
-91.8262
11
177.237
21
-91.8361
0
LINE
8
BLACK
6
CONTINUOUS
10
177.237
20
-91.8361
11
177.242
21
-91.8451
0
LINE
8
BLACK
6
CONTINUOUS
10
177.242
20
-91.8451
11
177.521
21
-92.6337
0
LINE
8
BLACK
6
CONTINUOUS
10
177.521
20
-92.6337
11
177.523
21
-92.644
0
LINE
8
BLACK
6
CONTINUOUS
10
177.523
20
-92.644
11
177.526
21
-92.6538
0
LINE
8
BLACK
6
CONTINUOUS
10
177.526
20
-92.6538
11
177.675
21
-93.49
0
LINE
8
BLACK
6
CONTINUOUS
10
177.675
20
-93.49
11
177.675
21
-93.4983
0
LINE
8
BLACK
6
CONTINUOUS
10
177.675
20
-93.4983
11
177.677
21
-93.5063
0
LINE
8
BLACK
6
CONTINUOUS
10
177.677
20
-93.5063
11
177.7
21
-93.9913
0
LINE
8
BLACK
6
CONTINUOUS
10
177.7
20
-93.9913
11
177.699
21
-93.9943
0
LINE
8
BLACK
6
CONTINUOUS
10
177.699
20
-93.9943
11
177.7
21
-93.9973
0
LINE
8
BLACK
6
CONTINUOUS
10
177.7
20
-93.9973
11
177.7
21
-109.444
0
LINE
8
BLACK
6
CONTINUOUS
10
177.7
20
-109.444
11
177.699
21
-109.449
0
LINE
8
BLACK
6
CONTINUOUS
10
177.699
20
-109.449
11
177.7
21
-109.454
0
LINE
8
BLACK
6
CONTINUOUS
10
177.7
20
-109.454
11
177.629
21
-110.318
0
LINE
8
BLACK
6
CONTINUOUS
10
177.629
20
-110.318
11
177.626
21
-110.328
0
LINE
8
BLACK
6
CONTINUOUS
10
177.626
20
-110.328
11
177.625
21
-110.339
0
LINE
8
BLACK
6
CONTINUOUS
10
177.625
20
-110.339
11
177.421
21
-111.15
0
LINE
8
BLACK
6
CONTINUOUS
10
177.421
20
-111.15
11
177.417
21
-111.159
0
LINE
8
BLACK
6
CONTINUOUS
10
177.417
20
-111.159
11
177.415
21
-111.17
0
LINE
8
BLACK
6
CONTINUOUS
10
177.415
20
-111.17
11
177.081
21
-111.937
0
LINE
8
BLACK
6
CONTINUOUS
10
177.081
20
-111.937
11
177.075
21
-111.945
0
LINE
8
BLACK
6
CONTINUOUS
10
177.075
20
-111.945
11
177.071
21
-111.955
0
LINE
8
BLACK
6
CONTINUOUS
10
177.071
20
-111.955
11
176.617
21
-112.657
0
LINE
8
BLACK
6
CONTINUOUS
10
176.617
20
-112.657
11
176.61
21
-112.665
0
LINE
8
BLACK
6
CONTINUOUS
10
176.61
20
-112.665
11
176.604
21
-112.674
0
LINE
8
BLACK
6
CONTINUOUS
10
176.604
20
-112.674
11
176.041
21
-113.293
0
LINE
8
BLACK
6
CONTINUOUS
10
176.041
20
-113.293
11
176.033
21
-113.299
0
LINE
8
BLACK
6
CONTINUOUS
10
176.033
20
-113.299
11
176.026
21
-113.307
0
LINE
8
BLACK
6
CONTINUOUS
10
176.026
20
-113.307
11
175.37
21
-113.825
0
LINE
8
BLACK
6
CONTINUOUS
10
175.37
20
-113.825
11
175.36
21
-113.83
0
LINE
8
BLACK
6
CONTINUOUS
10
175.36
20
-113.83
11
175.352
21
-113.837
0
LINE
8
BLACK
6
CONTINUOUS
10
175.352
20
-113.837
11
174.62
21
-114.241
0
LINE
8
BLACK
6
CONTINUOUS
10
174.62
20
-114.241
11
174.61
21
-114.245
0
LINE
8
BLACK
6
CONTINUOUS
10
174.61
20
-114.245
11
174.601
21
-114.25
0
LINE
8
BLACK
6
CONTINUOUS
10
174.601
20
-114.25
11
173.812
21
-114.529
0
LINE
8
BLACK
6
CONTINUOUS
10
173.812
20
-114.529
11
173.802
21
-114.531
0
LINE
8
BLACK
6
CONTINUOUS
10
173.802
20
-114.531
11
173.792
21
-114.534
0
LINE
8
BLACK
6
CONTINUOUS
10
173.792
20
-114.534
11
172.956
21
-114.683
0
LINE
8
BLACK
6
CONTINUOUS
10
172.956
20
-114.683
11
172.948
21
-114.683
0
LINE
8
BLACK
6
CONTINUOUS
10
172.948
20
-114.683
11
172.94
21
-114.685
0
LINE
8
BLACK
6
CONTINUOUS
10
172.94
20
-114.685
11
172.455
21
-114.708
0
LINE
8
BLACK
6
CONTINUOUS
10
172.455
20
-114.708
11
172.452
21
-114.707
0
LINE
8
BLACK
6
CONTINUOUS
10
172.452
20
-114.707
11
172.449
21
-114.708
0
LINE
8
BLACK
6
CONTINUOUS
10
172.449
20
-114.708
11
165.934
21
-114.708
0
LINE
8
BLACK
6
CONTINUOUS
10
165.934
20
-114.708
11
165.922
21
-114.706
0
LINE
8
BLACK
6
CONTINUOUS
10
165.922
20
-114.706
11
165.91
21
-114.706
0
LINE
8
BLACK
6
CONTINUOUS
10
165.91
20
-114.706
11
165.859
21
-114.696
0
LINE
8
BLACK
6
CONTINUOUS
10
165.859
20
-114.696
11
165.848
21
-114.691
0
LINE
8
BLACK
6
CONTINUOUS
10
165.848
20
-114.691
11
165.837
21
-114.689
0
LINE
8
BLACK
6
CONTINUOUS
10
165.837
20
-114.689
11
165.828
21
-114.683
0
LINE
8
BLACK
6
CONTINUOUS
10
165.828
20
-114.683
11
165.818
21
-114.68
0
LINE
8
BLACK
6
CONTINUOUS
10
165.818
20
-114.68
11
165.809
21
-114.672
0
LINE
8
BLACK
6
CONTINUOUS
10
165.809
20
-114.672
11
165.799
21
-114.666
0
LINE
8
BLACK
6
CONTINUOUS
10
165.799
20
-114.666
11
165.793
21
-114.657
0
LINE
8
BLACK
6
CONTINUOUS
10
165.793
20
-114.657
11
165.785
21
-114.65
0
LINE
8
BLACK
6
CONTINUOUS
10
165.785
20
-114.65
11
165.779
21
-114.64
0
LINE
8
BLACK
6
CONTINUOUS
10
165.779
20
-114.64
11
165.772
21
-114.631
0
LINE
8
BLACK
6
CONTINUOUS
10
165.772
20
-114.631
11
165.769
21
-114.621
0
LINE
8
BLACK
6
CONTINUOUS
10
165.769
20
-114.621
11
165.764
21
-114.612
0
LINE
8
BLACK
6
CONTINUOUS
10
165.764
20
-114.612
11
165.762
21
-114.6
0
LINE
8
BLACK
6
CONTINUOUS
10
165.762
20
-114.6
11
165.758
21
-114.589
0
LINE
8
BLACK
6
CONTINUOUS
10
165.758
20
-114.589
11
165.388
21
-111.998
0
LINE
8
BLACK
6
CONTINUOUS
10
165.388
20
-111.998
11
165.389
21
-111.978
0
LINE
8
BLACK
6
CONTINUOUS
10
165.389
20
-111.978
11
165.389
21
-111.958
0
LINE
8
BLACK
6
CONTINUOUS
10
165.389
20
-111.958
11
165.389
21
-111.956
0
LINE
8
BLACK
6
CONTINUOUS
10
165.389
20
-111.956
11
165.389
21
-111.954
0
LINE
8
BLACK
6
CONTINUOUS
10
165.389
20
-111.954
11
165.397
21
-111.935
0
LINE
8
BLACK
6
CONTINUOUS
10
165.397
20
-111.935
11
165.404
21
-111.917
0
LINE
8
BLACK
6
CONTINUOUS
10
165.404
20
-111.917
11
165.405
21
-111.915
0
LINE
8
BLACK
6
CONTINUOUS
10
165.405
20
-111.915
11
165.406
21
-111.913
0
LINE
8
BLACK
6
CONTINUOUS
10
165.406
20
-111.913
11
165.419
21
-111.898
0
LINE
8
BLACK
6
CONTINUOUS
10
165.419
20
-111.898
11
165.432
21
-111.883
0
LINE
8
BLACK
6
CONTINUOUS
10
165.432
20
-111.883
11
165.434
21
-111.882
0
LINE
8
BLACK
6
CONTINUOUS
10
165.434
20
-111.882
11
165.435
21
-111.88
0
LINE
8
BLACK
6
CONTINUOUS
10
165.435
20
-111.88
11
165.453
21
-111.871
0
LINE
8
BLACK
6
CONTINUOUS
10
165.453
20
-111.871
11
165.47
21
-111.861
0
LINE
8
BLACK
6
CONTINUOUS
10
165.47
20
-111.861
11
165.472
21
-111.86
0
LINE
8
BLACK
6
CONTINUOUS
10
165.472
20
-111.86
11
165.474
21
-111.859
0
LINE
8
BLACK
6
CONTINUOUS
10
165.474
20
-111.859
11
165.494
21
-111.856
0
LINE
8
BLACK
6
CONTINUOUS
10
165.494
20
-111.856
11
165.514
21
-111.853
0
LINE
8
BLACK
6
CONTINUOUS
10
165.514
20
-111.853
11
165.88
21
-111.853
0
LINE
8
BLACK
6
CONTINUOUS
10
165.88
20
-111.853
11
166.579
21
-111.563
0
LINE
8
BLACK
6
CONTINUOUS
10
166.579
20
-111.563
11
167.114
21
-111.028
0
LINE
8
BLACK
6
CONTINUOUS
10
167.114
20
-111.028
11
167.404
21
-110.329
0
LINE
8
BLACK
6
CONTINUOUS
10
167.404
20
-110.329
11
167.404
21
-109.571
0
LINE
8
BLACK
6
CONTINUOUS
10
167.404
20
-109.571
11
167.114
21
-108.872
0
LINE
8
BLACK
6
CONTINUOUS
10
167.114
20
-108.872
11
166.579
21
-108.337
0
LINE
8
BLACK
6
CONTINUOUS
10
166.579
20
-108.337
11
165.88
21
-108.047
0
LINE
8
BLACK
6
CONTINUOUS
10
165.88
20
-108.047
11
165.122
21
-108.047
0
LINE
8
BLACK
6
CONTINUOUS
10
165.122
20
-108.047
11
164.423
21
-108.337
0
LINE
8
BLACK
6
CONTINUOUS
10
164.423
20
-108.337
11
164.047
21
-108.713
0
LINE
8
BLACK
6
CONTINUOUS
10
164.047
20
-108.713
11
164.033
21
-108.722
0
LINE
8
BLACK
6
CONTINUOUS
10
164.033
20
-108.722
11
164.02
21
-108.733
0
LINE
8
BLACK
6
CONTINUOUS
10
164.02
20
-108.733
11
164.015
21
-108.735
0
LINE
8
BLACK
6
CONTINUOUS
10
164.015
20
-108.735
11
164.011
21
-108.738
0
LINE
8
BLACK
6
CONTINUOUS
10
164.011
20
-108.738
11
163.995
21
-108.743
0
LINE
8
BLACK
6
CONTINUOUS
10
163.995
20
-108.743
11
163.979
21
-108.748
0
LINE
8
BLACK
6
CONTINUOUS
10
163.979
20
-108.748
11
163.973
21
-108.748
0
LINE
8
BLACK
6
CONTINUOUS
10
163.973
20
-108.748
11
163.968
21
-108.75
0
LINE
8
BLACK
6
CONTINUOUS
10
163.968
20
-108.75
11
163.952
21
-108.748
0
LINE
8
BLACK
6
CONTINUOUS
10
163.952
20
-108.748
11
163.935
21
-108.748
0
LINE
8
BLACK
6
CONTINUOUS
10
163.935
20
-108.748
11
163.93
21
-108.746
0
LINE
8
BLACK
6
CONTINUOUS
10
163.93
20
-108.746
11
163.924
21
-108.746
0
LINE
8
BLACK
6
CONTINUOUS
10
163.924
20
-108.746
11
163.909
21
-108.739
0
LINE
8
BLACK
6
CONTINUOUS
10
163.909
20
-108.739
11
163.893
21
-108.733
0
LINE
8
BLACK
6
CONTINUOUS
10
163.893
20
-108.733
11
163.889
21
-108.73
0
LINE
8
BLACK
6
CONTINUOUS
10
163.889
20
-108.73
11
163.884
21
-108.727
0
LINE
8
BLACK
6
CONTINUOUS
10
163.884
20
-108.727
11
163.872
21
-108.715
0
LINE
8
BLACK
6
CONTINUOUS
10
163.872
20
-108.715
11
163.86
21
-108.705
0
LINE
8
BLACK
6
CONTINUOUS
10
163.86
20
-108.705
11
163.857
21
-108.7
0
LINE
8
BLACK
6
CONTINUOUS
10
163.857
20
-108.7
11
163.853
21
-108.696
0
LINE
8
BLACK
6
CONTINUOUS
10
163.853
20
-108.696
11
163.846
21
-108.681
0
LINE
8
BLACK
6
CONTINUOUS
10
163.846
20
-108.681
11
163.838
21
-108.667
0
LINE
8
BLACK
6
CONTINUOUS
10
163.838
20
-108.667
11
163.837
21
-108.661
0
LINE
8
BLACK
6
CONTINUOUS
10
163.837
20
-108.661
11
163.834
21
-108.656
0
LINE
8
BLACK
6
CONTINUOUS
10
163.834
20
-108.656
11
163.833
21
-108.639
0
LINE
8
BLACK
6
CONTINUOUS
10
163.833
20
-108.639
11
163.83
21
-108.623
0
LINE
8
BLACK
6
CONTINUOUS
10
163.83
20
-108.623
11
163.83
21
-100.277
0
LINE
8
BLACK
6
CONTINUOUS
10
163.83
20
-100.277
11
163.833
21
-100.261
0
LINE
8
BLACK
6
CONTINUOUS
10
163.833
20
-100.261
11
163.834
21
-100.244
0
LINE
8
BLACK
6
CONTINUOUS
10
163.834
20
-100.244
11
163.837
21
-100.239
0
LINE
8
BLACK
6
CONTINUOUS
10
163.837
20
-100.239
11
163.838
21
-100.233
0
LINE
8
BLACK
6
CONTINUOUS
10
163.838
20
-100.233
11
163.846
21
-100.219
0
LINE
8
BLACK
6
CONTINUOUS
10
163.846
20
-100.219
11
163.853
21
-100.204
0
LINE
8
BLACK
6
CONTINUOUS
10
163.853
20
-100.204
11
163.857
21
-100.2
0
LINE
8
BLACK
6
CONTINUOUS
10
163.857
20
-100.2
11
163.86
21
-100.195
0
LINE
8
BLACK
6
CONTINUOUS
10
163.86
20
-100.195
11
163.872
21
-100.185
0
LINE
8
BLACK
6
CONTINUOUS
10
163.872
20
-100.185
11
163.884
21
-100.173
0
LINE
8
BLACK
6
CONTINUOUS
10
163.884
20
-100.173
11
163.889
21
-100.17
0
LINE
8
BLACK
6
CONTINUOUS
10
163.889
20
-100.17
11
163.893
21
-100.167
0
LINE
8
BLACK
6
CONTINUOUS
10
163.893
20
-100.167
11
163.909
21
-100.161
0
LINE
8
BLACK
6
CONTINUOUS
10
163.909
20
-100.161
11
163.924
21
-100.154
0
LINE
8
BLACK
6
CONTINUOUS
10
163.924
20
-100.154
11
163.93
21
-100.154
0
LINE
8
BLACK
6
CONTINUOUS
10
163.93
20
-100.154
11
163.935
21
-100.152
0
LINE
8
BLACK
6
CONTINUOUS
10
163.935
20
-100.152
11
163.952
21
-100.152
0
LINE
8
BLACK
6
CONTINUOUS
10
163.952
20
-100.152
11
163.968
21
-100.15
0
LINE
8
BLACK
6
CONTINUOUS
10
163.968
20
-100.15
11
163.973
21
-100.152
0
LINE
8
BLACK
6
CONTINUOUS
10
163.973
20
-100.152
11
163.979
21
-100.152
0
LINE
8
BLACK
6
CONTINUOUS
10
163.979
20
-100.152
11
163.995
21
-100.157
0
LINE
8
BLACK
6
CONTINUOUS
10
163.995
20
-100.157
11
164.011
21
-100.162
0
LINE
8
BLACK
6
CONTINUOUS
10
164.011
20
-100.162
11
164.015
21
-100.165
0
LINE
8
BLACK
6
CONTINUOUS
10
164.015
20
-100.165
11
164.02
21
-100.167
0
LINE
8
BLACK
6
CONTINUOUS
10
164.02
20
-100.167
11
164.033
21
-100.178
0
LINE
8
BLACK
6
CONTINUOUS
10
164.033
20
-100.178
11
164.047
21
-100.187
0
LINE
8
BLACK
6
CONTINUOUS
10
164.047
20
-100.187
11
164.423
21
-100.563
0
LINE
8
BLACK
6
CONTINUOUS
10
164.423
20
-100.563
11
165.122
21
-100.853
0
LINE
8
BLACK
6
CONTINUOUS
10
165.122
20
-100.853
11
165.88
21
-100.853
0
LINE
8
BLACK
6
CONTINUOUS
10
165.88
20
-100.853
11
166.579
21
-100.563
0
LINE
8
BLACK
6
CONTINUOUS
10
166.579
20
-100.563
11
167.114
21
-100.028
0
LINE
8
BLACK
6
CONTINUOUS
10
167.114
20
-100.028
11
167.404
21
-99.3285
0
LINE
8
BLACK
6
CONTINUOUS
10
167.404
20
-99.3285
11
167.404
21
-98.5715
0
LINE
8
BLACK
6
CONTINUOUS
10
167.404
20
-98.5715
11
167.114
21
-97.872
0
LINE
8
BLACK
6
CONTINUOUS
10
167.114
20
-97.872
11
166.579
21
-97.3367
0
LINE
8
BLACK
6
CONTINUOUS
10
166.579
20
-97.3367
11
165.88
21
-97.047
0
LINE
8
BLACK
6
CONTINUOUS
10
165.88
20
-97.047
11
165.122
21
-97.047
0
LINE
8
BLACK
6
CONTINUOUS
10
165.122
20
-97.047
11
164.423
21
-97.3367
0
LINE
8
BLACK
6
CONTINUOUS
10
164.423
20
-97.3367
11
164.047
21
-97.7129
0
LINE
8
BLACK
6
CONTINUOUS
10
164.047
20
-97.7129
11
164.033
21
-97.7225
0
LINE
8
BLACK
6
CONTINUOUS
10
164.033
20
-97.7225
11
164.02
21
-97.7331
0
LINE
8
BLACK
6
CONTINUOUS
10
164.02
20
-97.7331
11
164.015
21
-97.735
0
LINE
8
BLACK
6
CONTINUOUS
10
164.015
20
-97.735
11
164.011
21
-97.7382
0
LINE
8
BLACK
6
CONTINUOUS
10
164.011
20
-97.7382
11
163.995
21
-97.7425
0
LINE
8
BLACK
6
CONTINUOUS
10
163.995
20
-97.7425
11
163.979
21
-97.7482
0
LINE
8
BLACK
6
CONTINUOUS
10
163.979
20
-97.7482
11
163.973
21
-97.7482
0
LINE
8
BLACK
6
CONTINUOUS
10
163.973
20
-97.7482
11
163.968
21
-97.7497
0
LINE
8
BLACK
6
CONTINUOUS
10
163.968
20
-97.7497
11
163.952
21
-97.7482
0
LINE
8
BLACK
6
CONTINUOUS
10
163.952
20
-97.7482
11
163.935
21
-97.7482
0
LINE
8
BLACK
6
CONTINUOUS
10
163.935
20
-97.7482
11
163.93
21
-97.7463
0
LINE
8
BLACK
6
CONTINUOUS
10
163.93
20
-97.7463
11
163.924
21
-97.7458
0
LINE
8
BLACK
6
CONTINUOUS
10
163.924
20
-97.7458
11
163.909
21
-97.7388
0
LINE
8
BLACK
6
CONTINUOUS
10
163.909
20
-97.7388
11
163.893
21
-97.7331
0
LINE
8
BLACK
6
CONTINUOUS
10
163.893
20
-97.7331
11
163.889
21
-97.7295
0
LINE
8
BLACK
6
CONTINUOUS
10
163.889
20
-97.7295
11
163.884
21
-97.7272
0
LINE
8
BLACK
6
CONTINUOUS
10
163.884
20
-97.7272
11
163.872
21
-97.7154
0
LINE
8
BLACK
6
CONTINUOUS
10
163.872
20
-97.7154
11
163.86
21
-97.7048
0
LINE
8
BLACK
6
CONTINUOUS
10
163.86
20
-97.7048
11
163.857
21
-97.6999
0
LINE
8
BLACK
6
CONTINUOUS
10
163.857
20
-97.6999
11
163.853
21
-97.696
0
LINE
8
BLACK
6
CONTINUOUS
10
163.853
20
-97.696
11
163.846
21
-97.681
0
LINE
8
BLACK
6
CONTINUOUS
10
163.846
20
-97.681
11
163.838
21
-97.6666
0
LINE
8
BLACK
6
CONTINUOUS
10
163.838
20
-97.6666
11
163.837
21
-97.6611
0
LINE
8
BLACK
6
CONTINUOUS
10
163.837
20
-97.6611
11
163.834
21
-97.656
0
LINE
8
BLACK
6
CONTINUOUS
10
163.834
20
-97.656
11
163.833
21
-97.6395
0
LINE
8
BLACK
6
CONTINUOUS
10
163.833
20
-97.6395
11
163.83
21
-97.6231
0
LINE
8
BLACK
6
CONTINUOUS
10
163.83
20
-97.6231
11
163.83
21
-93.5246
0
LINE
8
BLACK
6
CONTINUOUS
10
163.83
20
-93.5246
11
163.831
21
-93.5191
0
LINE
8
BLACK
6
CONTINUOUS
10
163.831
20
-93.5191
11
163.83
21
-93.5135
0
LINE
8
BLACK
6
CONTINUOUS
10
163.83
20
-93.5135
11
163.835
21
-93.4975
0
LINE
8
BLACK
6
CONTINUOUS
10
163.835
20
-93.4975
11
163.838
21
-93.4812
0
LINE
8
BLACK
6
CONTINUOUS
10
163.838
20
-93.4812
11
163.84
21
-93.4763
0
LINE
8
BLACK
6
CONTINUOUS
10
163.84
20
-93.4763
11
163.842
21
-93.4709
0
LINE
8
BLACK
6
CONTINUOUS
10
163.842
20
-93.4709
11
163.851
21
-93.4573
0
LINE
8
BLACK
6
CONTINUOUS
10
163.851
20
-93.4573
11
163.86
21
-93.443
0
LINE
8
BLACK
6
CONTINUOUS
10
163.86
20
-93.443
11
163.864
21
-93.4394
0
LINE
8
BLACK
6
CONTINUOUS
10
163.864
20
-93.4394
11
163.867
21
-93.4348
0
LINE
8
BLACK
6
CONTINUOUS
10
163.867
20
-93.4348
11
164.111
21
-93.1914
0
LINE
8
BLACK
6
CONTINUOUS
10
164.111
20
-93.1914
11
164.274
21
-92.7417
0
LINE
8
BLACK
6
CONTINUOUS
10
164.274
20
-92.7417
11
164.59
21
-92.3649
0
LINE
8
BLACK
6
CONTINUOUS
10
164.59
20
-92.3649
11
165.017
21
-92.1189
0
LINE
8
BLACK
6
CONTINUOUS
10
165.017
20
-92.1189
11
165.219
21
-92.0832
0
LINE
8
BLACK
6
CONTINUOUS
10
165.219
20
-92.0832
11
165.599
21
-91.7028
0
LINE
8
BLACK
6
CONTINUOUS
10
165.599
20
-91.7028
11
165.607
21
-91.6911
0
LINE
8
BLACK
6
CONTINUOUS
10
165.607
20
-91.6911
11
165.609
21
-91.6838
0
LINE
8
BLACK
6
CONTINUOUS
10
165.609
20
-91.6838
11
165.81
21
-88.864
0
LINE
8
BLACK
6
CONTINUOUS
10
165.81
20
-88.864
11
165.812
21
-88.8576
0
LINE
8
BLACK
6
CONTINUOUS
10
165.812
20
-88.8576
11
165.812
21
-88.8509
0
LINE
8
BLACK
6
CONTINUOUS
10
165.812
20
-88.8509
11
165.817
21
-88.8363
0
LINE
8
BLACK
6
CONTINUOUS
10
165.817
20
-88.8363
11
165.821
21
-88.8212
0
LINE
8
BLACK
6
CONTINUOUS
10
165.821
20
-88.8212
11
165.825
21
-88.8157
0
LINE
8
BLACK
6
CONTINUOUS
10
165.825
20
-88.8157
11
165.827
21
-88.8095
0
LINE
8
BLACK
6
CONTINUOUS
10
165.827
20
-88.8095
11
165.837
21
-88.7976
0
LINE
8
BLACK
6
CONTINUOUS
10
165.837
20
-88.7976
11
165.846
21
-88.7846
0
LINE
8
BLACK
6
CONTINUOUS
10
165.846
20
-88.7846
11
165.851
21
-88.7808
0
LINE
8
BLACK
6
CONTINUOUS
10
165.851
20
-88.7808
11
165.855
21
-88.7757
0
LINE
8
BLACK
6
CONTINUOUS
10
165.855
20
-88.7757
11
165.869
21
-88.7679
0
LINE
8
BLACK
6
CONTINUOUS
10
165.869
20
-88.7679
11
165.881
21
-88.7588
0
LINE
8
BLACK
6
CONTINUOUS
10
165.881
20
-88.7588
11
165.888
21
-88.757
0
LINE
8
BLACK
6
CONTINUOUS
10
165.888
20
-88.757
11
165.893
21
-88.7537
0
LINE
8
BLACK
6
CONTINUOUS
10
165.893
20
-88.7537
11
165.909
21
-88.751
0
LINE
8
BLACK
6
CONTINUOUS
10
165.909
20
-88.751
11
165.924
21
-88.7467
0
LINE
8
BLACK
6
CONTINUOUS
10
165.924
20
-88.7467
11
165.93
21
-88.7471
0
LINE
8
BLACK
6
CONTINUOUS
10
165.93
20
-88.7471
11
165.937
21
-88.746
0
LINE
8
BLACK
6
CONTINUOUS
10
165.937
20
-88.746
11
172.436
21
-88.746
0
LINE
8
BLACK
6
CONTINUOUS
10
172.436
20
-88.746
11
172.441
21
-88.7469
0
LINE
8
BLACK
6
CONTINUOUS
10
171.728
20
-90.272
11
170.366
21
-90.8365
0
LINE
8
BLACK
6
CONTINUOUS
10
170.366
20
-90.8365
11
169.323
21
-91.8796
0
LINE
8
BLACK
6
CONTINUOUS
10
169.323
20
-91.8796
11
168.758
21
-93.2424
0
LINE
8
BLACK
6
CONTINUOUS
10
168.758
20
-93.2424
11
168.758
21
-94.7176
0
LINE
8
BLACK
6
CONTINUOUS
10
168.758
20
-94.7176
11
169.323
21
-96.0804
0
LINE
8
BLACK
6
CONTINUOUS
10
169.323
20
-96.0804
11
170.366
21
-97.1235
0
LINE
8
BLACK
6
CONTINUOUS
10
170.366
20
-97.1235
11
171.728
21
-97.688
0
LINE
8
BLACK
6
CONTINUOUS
10
171.728
20
-97.688
11
173.204
21
-97.688
0
LINE
8
BLACK
6
CONTINUOUS
10
173.204
20
-97.688
11
174.566
21
-97.1235
0
LINE
8
BLACK
6
CONTINUOUS
10
174.566
20
-97.1235
11
175.609
21
-96.0804
0
LINE
8
BLACK
6
CONTINUOUS
10
175.609
20
-96.0804
11
176.174
21
-94.7176
0
LINE
8
BLACK
6
CONTINUOUS
10
176.174
20
-94.7176
11
176.174
21
-93.2424
0
LINE
8
BLACK
6
CONTINUOUS
10
176.174
20
-93.2424
11
175.609
21
-91.8796
0
LINE
8
BLACK
6
CONTINUOUS
10
175.609
20
-91.8796
11
174.566
21
-90.8365
0
LINE
8
BLACK
6
CONTINUOUS
10
174.566
20
-90.8365
11
173.204
21
-90.272
0
LINE
8
BLACK
6
CONTINUOUS
10
173.204
20
-90.272
11
171.728
21
-90.272
0
LINE
8
BLACK
6
CONTINUOUS
10
173.577
20
-90.9266
11
174.555
21
-91.4908
0
LINE
8
BLACK
6
CONTINUOUS
10
174.555
20
-91.4908
11
175.28
21
-92.3553
0
LINE
8
BLACK
6
CONTINUOUS
10
175.28
20
-92.3553
11
175.666
21
-93.4158
0
LINE
8
BLACK
6
CONTINUOUS
10
175.666
20
-93.4158
11
175.666
21
-94.5442
0
LINE
8
BLACK
6
CONTINUOUS
10
175.666
20
-94.5442
11
175.28
21
-95.6047
0
LINE
8
BLACK
6
CONTINUOUS
10
175.28
20
-95.6047
11
174.555
21
-96.4692
0
LINE
8
BLACK
6
CONTINUOUS
10
174.555
20
-96.4692
11
173.577
21
-97.0334
0
LINE
8
BLACK
6
CONTINUOUS
10
173.577
20
-97.0334
11
172.466
21
-97.2294
0
LINE
8
BLACK
6
CONTINUOUS
10
172.466
20
-97.2294
11
171.355
21
-97.0334
0
LINE
8
BLACK
6
CONTINUOUS
10
171.355
20
-97.0334
11
170.377
21
-96.4692
0
LINE
8
BLACK
6
CONTINUOUS
10
170.377
20
-96.4692
11
169.652
21
-95.6047
0
LINE
8
BLACK
6
CONTINUOUS
10
169.652
20
-95.6047
11
169.266
21
-94.5442
0
LINE
8
BLACK
6
CONTINUOUS
10
169.266
20
-94.5442
11
169.266
21
-93.4158
0
LINE
8
BLACK
6
CONTINUOUS
10
169.266
20
-93.4158
11
169.652
21
-92.3553
0
LINE
8
BLACK
6
CONTINUOUS
10
169.652
20
-92.3553
11
170.377
21
-91.4908
0
LINE
8
BLACK
6
CONTINUOUS
10
170.377
20
-91.4908
11
171.355
21
-90.9266
0
LINE
8
BLACK
6
CONTINUOUS
10
171.355
20
-90.9266
11
172.466
21
-90.7306
0
LINE
8
BLACK
6
CONTINUOUS
10
172.466
20
-90.7306
11
173.577
21
-90.9266
0
LINE
8
BLACK
6
CONTINUOUS
10
165.985
20
-108.619
11
166.412
21
-108.865
0
LINE
8
BLACK
6
CONTINUOUS
10
166.412
20
-108.865
11
166.728
21
-109.242
0
LINE
8
BLACK
6
CONTINUOUS
10
166.728
20
-109.242
11
166.896
21
-109.704
0
LINE
8
BLACK
6
CONTINUOUS
10
166.896
20
-109.704
11
166.896
21
-110.196
0
LINE
8
BLACK
6
CONTINUOUS
10
166.896
20
-110.196
11
166.728
21
-110.658
0
LINE
8
BLACK
6
CONTINUOUS
10
166.728
20
-110.658
11
166.412
21
-111.035
0
LINE
8
BLACK
6
CONTINUOUS
10
166.412
20
-111.035
11
165.985
21
-111.281
0
LINE
8
BLACK
6
CONTINUOUS
10
165.985
20
-111.281
11
165.501
21
-111.367
0
LINE
8
BLACK
6
CONTINUOUS
10
165.501
20
-111.367
11
165.017
21
-111.281
0
LINE
8
BLACK
6
CONTINUOUS
10
165.017
20
-111.281
11
164.59
21
-111.035
0
LINE
8
BLACK
6
CONTINUOUS
10
164.59
20
-111.035
11
164.274
21
-110.658
0
LINE
8
BLACK
6
CONTINUOUS
10
164.274
20
-110.658
11
164.106
21
-110.196
0
LINE
8
BLACK
6
CONTINUOUS
10
164.106
20
-110.196
11
164.106
21
-109.704
0
LINE
8
BLACK
6
CONTINUOUS
10
164.106
20
-109.704
11
164.274
21
-109.242
0
LINE
8
BLACK
6
CONTINUOUS
10
164.274
20
-109.242
11
164.59
21
-108.865
0
LINE
8
BLACK
6
CONTINUOUS
10
164.59
20
-108.865
11
165.017
21
-108.619
0
LINE
8
BLACK
6
CONTINUOUS
10
165.017
20
-108.619
11
165.501
21
-108.533
0
LINE
8
BLACK
6
CONTINUOUS
10
165.501
20
-108.533
11
165.985
21
-108.619
0
LINE
8
BLACK
6
CONTINUOUS
10
119.56
20
-108.493
11
119.947
21
-108.716
0
LINE
8
BLACK
6
CONTINUOUS
10
119.947
20
-108.716
11
120.233
21
-109.058
0
LINE
8
BLACK
6
CONTINUOUS
10
120.233
20
-109.058
11
120.386
21
-109.477
0
LINE
8
BLACK
6
CONTINUOUS
10
120.386
20
-109.477
11
120.386
21
-109.923
0
LINE
8
BLACK
6
CONTINUOUS
10
120.386
20
-109.923
11
120.233
21
-110.342
0
LINE
8
BLACK
6
CONTINUOUS
10
120.233
20
-110.342
11
119.947
21
-110.684
0
LINE
8
BLACK
6
CONTINUOUS
10
119.947
20
-110.684
11
119.56
21
-110.907
0
LINE
8
BLACK
6
CONTINUOUS
10
119.56
20
-110.907
11
119.121
21
-110.985
0
LINE
8
BLACK
6
CONTINUOUS
10
119.121
20
-110.985
11
118.682
21
-110.907
0
LINE
8
BLACK
6
CONTINUOUS
10
118.682
20
-110.907
11
118.295
21
-110.684
0
LINE
8
BLACK
6
CONTINUOUS
10
118.295
20
-110.684
11
118.009
21
-110.342
0
LINE
8
BLACK
6
CONTINUOUS
10
118.009
20
-110.342
11
117.856
21
-109.923
0
LINE
8
BLACK
6
CONTINUOUS
10
117.856
20
-109.923
11
117.856
21
-109.477
0
LINE
8
BLACK
6
CONTINUOUS
10
117.856
20
-109.477
11
118.009
21
-109.058
0
LINE
8
BLACK
6
CONTINUOUS
10
118.009
20
-109.058
11
118.295
21
-108.716
0
LINE
8
BLACK
6
CONTINUOUS
10
118.295
20
-108.716
11
118.682
21
-108.493
0
LINE
8
BLACK
6
CONTINUOUS
10
118.682
20
-108.493
11
119.121
21
-108.415
0
LINE
8
BLACK
6
CONTINUOUS
10
119.121
20
-108.415
11
119.56
21
-108.493
0
LINE
8
BLACK
6
CONTINUOUS
10
119.472
20
-104.866
11
119.78
21
-105.044
0
LINE
8
BLACK
6
CONTINUOUS
10
119.78
20
-105.044
11
120.009
21
-105.317
0
LINE
8
BLACK
6
CONTINUOUS
10
120.009
20
-105.317
11
120.131
21
-105.652
0
LINE
8
BLACK
6
CONTINUOUS
10
120.131
20
-105.652
11
120.131
21
-106.008
0
LINE
8
BLACK
6
CONTINUOUS
10
120.131
20
-106.008
11
120.009
21
-106.343
0
LINE
8
BLACK
6
CONTINUOUS
10
120.009
20
-106.343
11
119.78
21
-106.616
0
LINE
8
BLACK
6
CONTINUOUS
10
119.78
20
-106.616
11
119.472
21
-106.794
0
LINE
8
BLACK
6
CONTINUOUS
10
119.472
20
-106.794
11
119.121
21
-106.856
0
LINE
8
BLACK
6
CONTINUOUS
10
119.121
20
-106.856
11
118.77
21
-106.794
0
LINE
8
BLACK
6
CONTINUOUS
10
118.77
20
-106.794
11
118.462
21
-106.616
0
LINE
8
BLACK
6
CONTINUOUS
10
118.462
20
-106.616
11
118.233
21
-106.343
0
LINE
8
BLACK
6
CONTINUOUS
10
118.233
20
-106.343
11
118.111
21
-106.008
0
LINE
8
BLACK
6
CONTINUOUS
10
118.111
20
-106.008
11
118.111
21
-105.652
0
LINE
8
BLACK
6
CONTINUOUS
10
118.111
20
-105.652
11
118.233
21
-105.317
0
LINE
8
BLACK
6
CONTINUOUS
10
118.233
20
-105.317
11
118.462
21
-105.044
0
LINE
8
BLACK
6
CONTINUOUS
10
118.462
20
-105.044
11
118.77
21
-104.866
0
LINE
8
BLACK
6
CONTINUOUS
10
118.77
20
-104.866
11
119.121
21
-104.804
0
LINE
8
BLACK
6
CONTINUOUS
10
119.121
20
-104.804
11
119.472
21
-104.866
0
LINE
8
BLACK
6
CONTINUOUS
10
113.626
20
-104.482
11
111.926
21
-104.482
0
LINE
8
BLACK
6
CONTINUOUS
10
111.926
20
-104.482
11
111.926
21
-102.782
0
LINE
8
BLACK
6
CONTINUOUS
10
111.926
20
-102.782
11
113.626
21
-102.782
0
LINE
8
BLACK
6
CONTINUOUS
10
113.626
20
-102.782
11
113.626
21
-104.482
0
LINE
8
BLACK
6
CONTINUOUS
10
119.472
20
-102.116
11
119.78
21
-102.294
0
LINE
8
BLACK
6
CONTINUOUS
10
119.78
20
-102.294
11
120.009
21
-102.567
0
LINE
8
BLACK
6
CONTINUOUS
10
120.009
20
-102.567
11
120.131
21
-102.902
0
LINE
8
BLACK
6
CONTINUOUS
10
120.131
20
-102.902
11
120.131
21
-103.258
0
LINE
8
BLACK
6
CONTINUOUS
10
120.131
20
-103.258
11
120.009
21
-103.593
0
LINE
8
BLACK
6
CONTINUOUS
10
120.009
20
-103.593
11
119.78
21
-103.866
0
LINE
8
BLACK
6
CONTINUOUS
10
119.78
20
-103.866
11
119.472
21
-104.044
0
LINE
8
BLACK
6
CONTINUOUS
10
119.472
20
-104.044
11
119.121
21
-104.106
0
LINE
8
BLACK
6
CONTINUOUS
10
119.121
20
-104.106
11
118.77
21
-104.044
0
LINE
8
BLACK
6
CONTINUOUS
10
118.77
20
-104.044
11
118.462
21
-103.866
0
LINE
8
BLACK
6
CONTINUOUS
10
118.462
20
-103.866
11
118.233
21
-103.593
0
LINE
8
BLACK
6
CONTINUOUS
10
118.233
20
-103.593
11
118.111
21
-103.258
0
LINE
8
BLACK
6
CONTINUOUS
10
118.111
20
-103.258
11
118.111
21
-102.902
0
LINE
8
BLACK
6
CONTINUOUS
10
118.111
20
-102.902
11
118.233
21
-102.567
0
LINE
8
BLACK
6
CONTINUOUS
10
118.233
20
-102.567
11
118.462
21
-102.294
0
LINE
8
BLACK
6
CONTINUOUS
10
118.462
20
-102.294
11
118.77
21
-102.116
0
LINE
8
BLACK
6
CONTINUOUS
10
118.77
20
-102.116
11
119.121
21
-102.054
0
LINE
8
BLACK
6
CONTINUOUS
10
119.121
20
-102.054
11
119.472
21
-102.116
0
LINE
8
BLACK
6
CONTINUOUS
10
113.071
20
-100.281
11
113.331
21
-100.431
0
LINE
8
BLACK
6
CONTINUOUS
10
113.331
20
-100.431
11
113.523
21
-100.66
0
LINE
8
BLACK
6
CONTINUOUS
10
113.523
20
-100.66
11
113.626
21
-100.942
0
LINE
8
BLACK
6
CONTINUOUS
10
113.626
20
-100.942
11
113.626
21
-101.242
0
LINE
8
BLACK
6
CONTINUOUS
10
113.626
20
-101.242
11
113.523
21
-101.524
0
LINE
8
BLACK
6
CONTINUOUS
10
113.523
20
-101.524
11
113.331
21
-101.753
0
LINE
8
BLACK
6
CONTINUOUS
10
113.331
20
-101.753
11
113.071
21
-101.903
0
LINE
8
BLACK
6
CONTINUOUS
10
113.071
20
-101.903
11
112.85
21
-101.942
0
LINE
8
BLACK
6
CONTINUOUS
10
112.85
20
-101.942
11
112.702
21
-101.942
0
LINE
8
BLACK
6
CONTINUOUS
10
112.702
20
-101.942
11
112.481
21
-101.903
0
LINE
8
BLACK
6
CONTINUOUS
10
112.481
20
-101.903
11
112.221
21
-101.753
0
LINE
8
BLACK
6
CONTINUOUS
10
112.221
20
-101.753
11
112.029
21
-101.524
0
LINE
8
BLACK
6
CONTINUOUS
10
112.029
20
-101.524
11
111.926
21
-101.242
0
LINE
8
BLACK
6
CONTINUOUS
10
111.926
20
-101.242
11
111.926
21
-100.942
0
LINE
8
BLACK
6
CONTINUOUS
10
111.926
20
-100.942
11
112.029
21
-100.66
0
LINE
8
BLACK
6
CONTINUOUS
10
112.029
20
-100.66
11
112.221
21
-100.431
0
LINE
8
BLACK
6
CONTINUOUS
10
112.221
20
-100.431
11
112.481
21
-100.281
0
LINE
8
BLACK
6
CONTINUOUS
10
112.481
20
-100.281
11
112.702
21
-100.242
0
LINE
8
BLACK
6
CONTINUOUS
10
112.702
20
-100.242
11
112.85
21
-100.242
0
LINE
8
BLACK
6
CONTINUOUS
10
112.85
20
-100.242
11
113.071
21
-100.281
0
LINE
8
BLACK
6
CONTINUOUS
10
119.472
20
-99.3563
11
119.78
21
-99.5344
0
LINE
8
BLACK
6
CONTINUOUS
10
119.78
20
-99.5344
11
120.009
21
-99.8072
0
LINE
8
BLACK
6
CONTINUOUS
10
120.009
20
-99.8072
11
120.131
21
-100.142
0
LINE
8
BLACK
6
CONTINUOUS
10
120.131
20
-100.142
11
120.131
21
-100.498
0
LINE
8
BLACK
6
CONTINUOUS
10
120.131
20
-100.498
11
120.009
21
-100.833
0
LINE
8
BLACK
6
CONTINUOUS
10
120.009
20
-100.833
11
119.78
21
-101.106
0
LINE
8
BLACK
6
CONTINUOUS
10
119.78
20
-101.106
11
119.472
21
-101.284
0
LINE
8
BLACK
6
CONTINUOUS
10
119.472
20
-101.284
11
119.121
21
-101.346
0
LINE
8
BLACK
6
CONTINUOUS
10
119.121
20
-101.346
11
118.77
21
-101.284
0
LINE
8
BLACK
6
CONTINUOUS
10
118.77
20
-101.284
11
118.462
21
-101.106
0
LINE
8
BLACK
6
CONTINUOUS
10
118.462
20
-101.106
11
118.233
21
-100.833
0
LINE
8
BLACK
6
CONTINUOUS
10
118.233
20
-100.833
11
118.111
21
-100.498
0
LINE
8
BLACK
6
CONTINUOUS
10
118.111
20
-100.498
11
118.111
21
-100.142
0
LINE
8
BLACK
6
CONTINUOUS
10
118.111
20
-100.142
11
118.233
21
-99.8072
0
LINE
8
BLACK
6
CONTINUOUS
10
118.233
20
-99.8072
11
118.462
21
-99.5344
0
LINE
8
BLACK
6
CONTINUOUS
10
118.462
20
-99.5344
11
118.77
21
-99.3563
0
LINE
8
BLACK
6
CONTINUOUS
10
118.77
20
-99.3563
11
119.121
21
-99.2944
0
LINE
8
BLACK
6
CONTINUOUS
10
119.121
20
-99.2944
11
119.472
21
-99.3563
0
LINE
8
BLACK
6
CONTINUOUS
10
165.985
20
-97.6189
11
166.412
21
-97.8649
0
LINE
8
BLACK
6
CONTINUOUS
10
166.412
20
-97.8649
11
166.728
21
-98.2417
0
LINE
8
BLACK
6
CONTINUOUS
10
166.728
20
-98.2417
11
166.896
21
-98.704
0
LINE
8
BLACK
6
CONTINUOUS
10
166.896
20
-98.704
11
166.896
21
-99.196
0
LINE
8
BLACK
6
CONTINUOUS
10
166.896
20
-99.196
11
166.728
21
-99.6583
0
LINE
8
BLACK
6
CONTINUOUS
10
166.728
20
-99.6583
11
166.412
21
-100.035
0
LINE
8
BLACK
6
CONTINUOUS
10
166.412
20
-100.035
11
165.985
21
-100.281
0
LINE
8
BLACK
6
CONTINUOUS
10
165.985
20
-100.281
11
165.501
21
-100.367
0
LINE
8
BLACK
6
CONTINUOUS
10
165.501
20
-100.367
11
165.017
21
-100.281
0
LINE
8
BLACK
6
CONTINUOUS
10
165.017
20
-100.281
11
164.59
21
-100.035
0
LINE
8
BLACK
6
CONTINUOUS
10
164.59
20
-100.035
11
164.274
21
-99.6583
0
LINE
8
BLACK
6
CONTINUOUS
10
164.274
20
-99.6583
11
164.106
21
-99.196
0
LINE
8
BLACK
6
CONTINUOUS
10
164.106
20
-99.196
11
164.106
21
-98.704
0
LINE
8
BLACK
6
CONTINUOUS
10
164.106
20
-98.704
11
164.274
21
-98.2417
0
LINE
8
BLACK
6
CONTINUOUS
10
164.274
20
-98.2417
11
164.59
21
-97.8649
0
LINE
8
BLACK
6
CONTINUOUS
10
164.59
20
-97.8649
11
165.017
21
-97.6189
0
LINE
8
BLACK
6
CONTINUOUS
10
165.017
20
-97.6189
11
165.501
21
-97.5335
0
LINE
8
BLACK
6
CONTINUOUS
10
165.501
20
-97.5335
11
165.985
21
-97.6189
0
LINE
8
BLACK
6
CONTINUOUS
10
113.071
20
-97.7409
11
113.331
21
-97.8908
0
LINE
8
BLACK
6
CONTINUOUS
10
113.331
20
-97.8908
11
113.523
21
-98.1204
0
LINE
8
BLACK
6
CONTINUOUS
10
113.523
20
-98.1204
11
113.626
21
-98.4021
0
LINE
8
BLACK
6
CONTINUOUS
10
113.626
20
-98.4021
11
113.626
21
-98.7019
0
LINE
8
BLACK
6
CONTINUOUS
10
113.626
20
-98.7019
11
113.523
21
-98.9836
0
LINE
8
BLACK
6
CONTINUOUS
10
113.523
20
-98.9836
11
113.331
21
-99.2132
0
LINE
8
BLACK
6
CONTINUOUS
10
113.331
20
-99.2132
11
113.071
21
-99.3631
0
LINE
8
BLACK
6
CONTINUOUS
10
113.071
20
-99.3631
11
112.85
21
-99.402
0
LINE
8
BLACK
6
CONTINUOUS
10
112.85
20
-99.402
11
112.702
21
-99.402
0
LINE
8
BLACK
6
CONTINUOUS
10
112.702
20
-99.402
11
112.481
21
-99.3631
0
LINE
8
BLACK
6
CONTINUOUS
10
112.481
20
-99.3631
11
112.221
21
-99.2132
0
LINE
8
BLACK
6
CONTINUOUS
10
112.221
20
-99.2132
11
112.029
21
-98.9836
0
LINE
8
BLACK
6
CONTINUOUS
10
112.029
20
-98.9836
11
111.926
21
-98.7019
0
LINE
8
BLACK
6
CONTINUOUS
10
111.926
20
-98.7019
11
111.926
21
-98.4021
0
LINE
8
BLACK
6
CONTINUOUS
10
111.926
20
-98.4021
11
112.029
21
-98.1204
0
LINE
8
BLACK
6
CONTINUOUS
10
112.029
20
-98.1204
11
112.221
21
-97.8908
0
LINE
8
BLACK
6
CONTINUOUS
10
112.221
20
-97.8908
11
112.481
21
-97.7409
0
LINE
8
BLACK
6
CONTINUOUS
10
112.481
20
-97.7409
11
112.702
21
-97.702
0
LINE
8
BLACK
6
CONTINUOUS
10
112.702
20
-97.702
11
112.85
21
-97.702
0
LINE
8
BLACK
6
CONTINUOUS
10
112.85
20
-97.702
11
113.071
21
-97.7409
0
LINE
8
BLACK
6
CONTINUOUS
10
119.56
20
-92.493
11
119.947
21
-92.716
0
LINE
8
BLACK
6
CONTINUOUS
10
119.947
20
-92.716
11
120.233
21
-93.0577
0
LINE
8
BLACK
6
CONTINUOUS
10
120.233
20
-93.0577
11
120.386
21
-93.4769
0
LINE
8
BLACK
6
CONTINUOUS
10
120.386
20
-93.4769
11
120.386
21
-93.9231
0
LINE
8
BLACK
6
CONTINUOUS
10
120.386
20
-93.9231
11
120.233
21
-94.3423
0
LINE
8
BLACK
6
CONTINUOUS
10
120.233
20
-94.3423
11
119.947
21
-94.684
0
LINE
8
BLACK
6
CONTINUOUS
10
119.947
20
-94.684
11
119.56
21
-94.907
0
LINE
8
BLACK
6
CONTINUOUS
10
119.56
20
-94.907
11
119.121
21
-94.9845
0
LINE
8
BLACK
6
CONTINUOUS
10
119.121
20
-94.9845
11
118.682
21
-94.907
0
LINE
8
BLACK
6
CONTINUOUS
10
118.682
20
-94.907
11
118.295
21
-94.684
0
LINE
8
BLACK
6
CONTINUOUS
10
118.295
20
-94.684
11
118.009
21
-94.3423
0
LINE
8
BLACK
6
CONTINUOUS
10
118.009
20
-94.3423
11
117.856
21
-93.9231
0
LINE
8
BLACK
6
CONTINUOUS
10
117.856
20
-93.9231
11
117.856
21
-93.4769
0
LINE
8
BLACK
6
CONTINUOUS
10
117.856
20
-93.4769
11
118.009
21
-93.0577
0
LINE
8
BLACK
6
CONTINUOUS
10
118.009
20
-93.0577
11
118.295
21
-92.716
0
LINE
8
BLACK
6
CONTINUOUS
10
118.295
20
-92.716
11
118.682
21
-92.493
0
LINE
8
BLACK
6
CONTINUOUS
10
118.682
20
-92.493
11
119.121
21
-92.4155
0
LINE
8
BLACK
6
CONTINUOUS
10
119.121
20
-92.4155
11
119.56
21
-92.493
0
LINE
8
BLACK
6
CONTINUOUS
10
112.871
20
-86.4816
11
113.849
21
-87.0458
0
LINE
8
BLACK
6
CONTINUOUS
10
113.849
20
-87.0458
11
114.574
21
-87.9103
0
LINE
8
BLACK
6
CONTINUOUS
10
114.574
20
-87.9103
11
114.96
21
-88.9708
0
LINE
8
BLACK
6
CONTINUOUS
10
114.96
20
-88.9708
11
114.96
21
-90.0992
0
LINE
8
BLACK
6
CONTINUOUS
10
114.96
20
-90.0992
11
114.574
21
-91.1597
0
LINE
8
BLACK
6
CONTINUOUS
10
114.574
20
-91.1597
11
113.849
21
-92.0242
0
LINE
8
BLACK
6
CONTINUOUS
10
113.849
20
-92.0242
11
112.871
21
-92.5884
0
LINE
8
BLACK
6
CONTINUOUS
10
112.871
20
-92.5884
11
111.76
21
-92.7844
0
LINE
8
BLACK
6
CONTINUOUS
10
111.76
20
-92.7844
11
110.649
21
-92.5884
0
LINE
8
BLACK
6
CONTINUOUS
10
110.649
20
-92.5884
11
109.671
21
-92.0242
0
LINE
8
BLACK
6
CONTINUOUS
10
109.671
20
-92.0242
11
108.946
21
-91.1597
0
LINE
8
BLACK
6
CONTINUOUS
10
108.946
20
-91.1597
11
108.56
21
-90.0992
0
LINE
8
BLACK
6
CONTINUOUS
10
108.56
20
-90.0992
11
108.56
21
-88.9708
0
LINE
8
BLACK
6
CONTINUOUS
10
108.56
20
-88.9708
11
108.946
21
-87.9103
0
LINE
8
BLACK
6
CONTINUOUS
10
108.946
20
-87.9103
11
109.671
21
-87.0458
0
LINE
8
BLACK
6
CONTINUOUS
10
109.671
20
-87.0458
11
110.649
21
-86.4816
0
LINE
8
BLACK
6
CONTINUOUS
10
110.649
20
-86.4816
11
111.76
21
-86.2856
0
LINE
8
BLACK
6
CONTINUOUS
10
111.76
20
-86.2856
11
112.871
21
-86.4816
0
LINE
8
BLACK
6
CONTINUOUS
10
159.319
20
-86.251
11
159.793
21
-86.5243
0
LINE
8
BLACK
6
CONTINUOUS
10
159.793
20
-86.5243
11
160.144
21
-86.943
0
LINE
8
BLACK
6
CONTINUOUS
10
160.144
20
-86.943
11
160.331
21
-87.4567
0
LINE
8
BLACK
6
CONTINUOUS
10
160.331
20
-87.4567
11
160.331
21
-88.0033
0
LINE
8
BLACK
6
CONTINUOUS
10
160.331
20
-88.0033
11
160.144
21
-88.517
0
LINE
8
BLACK
6
CONTINUOUS
10
160.144
20
-88.517
11
159.793
21
-88.9357
0
LINE
8
BLACK
6
CONTINUOUS
10
159.793
20
-88.9357
11
159.319
21
-89.209
0
LINE
8
BLACK
6
CONTINUOUS
10
159.319
20
-89.209
11
158.781
21
-89.3039
0
LINE
8
BLACK
6
CONTINUOUS
10
158.781
20
-89.3039
11
158.243
21
-89.209
0
LINE
8
BLACK
6
CONTINUOUS
10
158.243
20
-89.209
11
157.769
21
-88.9357
0
LINE
8
BLACK
6
CONTINUOUS
10
157.769
20
-88.9357
11
157.418
21
-88.517
0
LINE
8
BLACK
6
CONTINUOUS
10
157.418
20
-88.517
11
157.231
21
-88.0033
0
LINE
8
BLACK
6
CONTINUOUS
10
157.231
20
-88.0033
11
157.231
21
-87.4567
0
LINE
8
BLACK
6
CONTINUOUS
10
157.231
20
-87.4567
11
157.418
21
-86.943
0
LINE
8
BLACK
6
CONTINUOUS
10
157.418
20
-86.943
11
157.769
21
-86.5243
0
LINE
8
BLACK
6
CONTINUOUS
10
157.769
20
-86.5243
11
158.243
21
-86.251
0
LINE
8
BLACK
6
CONTINUOUS
10
158.243
20
-86.251
11
158.781
21
-86.1561
0
LINE
8
BLACK
6
CONTINUOUS
10
158.781
20
-86.1561
11
159.319
21
-86.251
0
LINE
8
BLACK
6
CONTINUOUS
10
126.379
20
-86.251
11
126.853
21
-86.5243
0
LINE
8
BLACK
6
CONTINUOUS
10
126.853
20
-86.5243
11
127.204
21
-86.943
0
LINE
8
BLACK
6
CONTINUOUS
10
127.204
20
-86.943
11
127.391
21
-87.4567
0
LINE
8
BLACK
6
CONTINUOUS
10
127.391
20
-87.4567
11
127.391
21
-88.0033
0
LINE
8
BLACK
6
CONTINUOUS
10
127.391
20
-88.0033
11
127.204
21
-88.517
0
LINE
8
BLACK
6
CONTINUOUS
10
127.204
20
-88.517
11
126.853
21
-88.9357
0
LINE
8
BLACK
6
CONTINUOUS
10
126.853
20
-88.9357
11
126.379
21
-89.209
0
LINE
8
BLACK
6
CONTINUOUS
10
126.379
20
-89.209
11
125.841
21
-89.3039
0
LINE
8
BLACK
6
CONTINUOUS
10
125.841
20
-89.3039
11
125.303
21
-89.209
0
LINE
8
BLACK
6
CONTINUOUS
10
125.303
20
-89.209
11
124.829
21
-88.9357
0
LINE
8
BLACK
6
CONTINUOUS
10
124.829
20
-88.9357
11
124.478
21
-88.517
0
LINE
8
BLACK
6
CONTINUOUS
10
124.478
20
-88.517
11
124.291
21
-88.0033
0
LINE
8
BLACK
6
CONTINUOUS
10
124.291
20
-88.0033
11
124.291
21
-87.4567
0
LINE
8
BLACK
6
CONTINUOUS
10
124.291
20
-87.4567
11
124.478
21
-86.943
0
LINE
8
BLACK
6
CONTINUOUS
10
124.478
20
-86.943
11
124.829
21
-86.5243
0
LINE
8
BLACK
6
CONTINUOUS
10
124.829
20
-86.5243
11
125.303
21
-86.251
0
LINE
8
BLACK
6
CONTINUOUS
10
125.303
20
-86.251
11
125.841
21
-86.1561
0
LINE
8
BLACK
6
CONTINUOUS
10
125.841
20
-86.1561
11
126.379
21
-86.251
0
LINE
8
BLACK
6
CONTINUOUS
10
150.505
20
-86.3989
11
150.932
21
-86.6449
0
LINE
8
BLACK
6
CONTINUOUS
10
150.932
20
-86.6449
11
151.248
21
-87.0217
0
LINE
8
BLACK
6
CONTINUOUS
10
151.248
20
-87.0217
11
151.416
21
-87.484
0
LINE
8
BLACK
6
CONTINUOUS
10
151.416
20
-87.484
11
151.416
21
-87.976
0
LINE
8
BLACK
6
CONTINUOUS
10
151.416
20
-87.976
11
151.248
21
-88.4383
0
LINE
8
BLACK
6
CONTINUOUS
10
151.248
20
-88.4383
11
150.932
21
-88.8151
0
LINE
8
BLACK
6
CONTINUOUS
10
150.932
20
-88.8151
11
150.505
21
-89.0611
0
LINE
8
BLACK
6
CONTINUOUS
10
150.505
20
-89.0611
11
150.021
21
-89.1465
0
LINE
8
BLACK
6
CONTINUOUS
10
150.021
20
-89.1465
11
149.537
21
-89.0611
0
LINE
8
BLACK
6
CONTINUOUS
10
149.537
20
-89.0611
11
149.11
21
-88.8151
0
LINE
8
BLACK
6
CONTINUOUS
10
149.11
20
-88.8151
11
148.794
21
-88.4383
0
LINE
8
BLACK
6
CONTINUOUS
10
148.794
20
-88.4383
11
148.626
21
-87.976
0
LINE
8
BLACK
6
CONTINUOUS
10
148.626
20
-87.976
11
148.626
21
-87.484
0
LINE
8
BLACK
6
CONTINUOUS
10
148.626
20
-87.484
11
148.794
21
-87.0217
0
LINE
8
BLACK
6
CONTINUOUS
10
148.794
20
-87.0217
11
149.11
21
-86.6449
0
LINE
8
BLACK
6
CONTINUOUS
10
149.11
20
-86.6449
11
149.537
21
-86.3989
0
LINE
8
BLACK
6
CONTINUOUS
10
149.537
20
-86.3989
11
150.021
21
-86.3135
0
LINE
8
BLACK
6
CONTINUOUS
10
150.021
20
-86.3135
11
150.505
21
-86.3989
0
LINE
8
BLACK
6
CONTINUOUS
10
163.178
20
-82.7193
11
163.939
21
-83.1592
0
LINE
8
BLACK
6
CONTINUOUS
10
163.939
20
-83.1592
11
164.505
21
-83.8333
0
LINE
8
BLACK
6
CONTINUOUS
10
164.505
20
-83.8333
11
164.806
21
-84.6601
0
LINE
8
BLACK
6
CONTINUOUS
10
164.806
20
-84.6601
11
164.806
21
-85.5399
0
LINE
8
BLACK
6
CONTINUOUS
10
164.806
20
-85.5399
11
164.505
21
-86.3667
0
LINE
8
BLACK
6
CONTINUOUS
10
164.505
20
-86.3667
11
163.939
21
-87.0408
0
LINE
8
BLACK
6
CONTINUOUS
10
163.939
20
-87.0408
11
163.178
21
-87.4807
0
LINE
8
BLACK
6
CONTINUOUS
10
163.178
20
-87.4807
11
162.311
21
-87.6335
0
LINE
8
BLACK
6
CONTINUOUS
10
162.311
20
-87.6335
11
161.444
21
-87.4807
0
LINE
8
BLACK
6
CONTINUOUS
10
161.444
20
-87.4807
11
160.683
21
-87.0408
0
LINE
8
BLACK
6
CONTINUOUS
10
160.683
20
-87.0408
11
160.117
21
-86.3667
0
LINE
8
BLACK
6
CONTINUOUS
10
160.117
20
-86.3667
11
159.816
21
-85.5399
0
LINE
8
BLACK
6
CONTINUOUS
10
159.816
20
-85.5399
11
159.816
21
-84.6601
0
LINE
8
BLACK
6
CONTINUOUS
10
159.816
20
-84.6601
11
160.117
21
-83.8333
0
LINE
8
BLACK
6
CONTINUOUS
10
160.117
20
-83.8333
11
160.683
21
-83.1592
0
LINE
8
BLACK
6
CONTINUOUS
10
160.683
20
-83.1592
11
161.444
21
-82.7193
0
LINE
8
BLACK
6
CONTINUOUS
10
161.444
20
-82.7193
11
162.311
21
-82.5665
0
LINE
8
BLACK
6
CONTINUOUS
10
162.311
20
-82.5665
11
163.178
21
-82.7193
0
LINE
8
BLACK
6
CONTINUOUS
10
123.178
20
-82.7193
11
123.939
21
-83.1592
0
LINE
8
BLACK
6
CONTINUOUS
10
123.939
20
-83.1592
11
124.505
21
-83.8333
0
LINE
8
BLACK
6
CONTINUOUS
10
124.505
20
-83.8333
11
124.806
21
-84.6601
0
LINE
8
BLACK
6
CONTINUOUS
10
124.806
20
-84.6601
11
124.806
21
-85.5399
0
LINE
8
BLACK
6
CONTINUOUS
10
124.806
20
-85.5399
11
124.505
21
-86.3667
0
LINE
8
BLACK
6
CONTINUOUS
10
124.505
20
-86.3667
11
123.939
21
-87.0408
0
LINE
8
BLACK
6
CONTINUOUS
10
123.939
20
-87.0408
11
123.178
21
-87.4807
0
LINE
8
BLACK
6
CONTINUOUS
10
123.178
20
-87.4807
11
122.311
21
-87.6335
0
LINE
8
BLACK
6
CONTINUOUS
10
122.311
20
-87.6335
11
121.444
21
-87.4807
0
LINE
8
BLACK
6
CONTINUOUS
10
121.444
20
-87.4807
11
120.683
21
-87.0408
0
LINE
8
BLACK
6
CONTINUOUS
10
120.683
20
-87.0408
11
120.117
21
-86.3667
0
LINE
8
BLACK
6
CONTINUOUS
10
120.117
20
-86.3667
11
119.816
21
-85.5399
0
LINE
8
BLACK
6
CONTINUOUS
10
119.816
20
-85.5399
11
119.816
21
-84.6601
0
LINE
8
BLACK
6
CONTINUOUS
10
119.816
20
-84.6601
11
120.117
21
-83.8333
0
LINE
8
BLACK
6
CONTINUOUS
10
120.117
20
-83.8333
11
120.683
21
-83.1592
0
LINE
8
BLACK
6
CONTINUOUS
10
120.683
20
-83.1592
11
121.444
21
-82.7193
0
LINE
8
BLACK
6
CONTINUOUS
10
121.444
20
-82.7193
11
122.311
21
-82.5665
0
LINE
8
BLACK
6
CONTINUOUS
10
122.311
20
-82.5665
11
123.178
21
-82.7193
  0
ENDSEC
  0
EOF
