  0
SECTION
  2
HEADER
  9
$ANGBASE
  50
0.0
  9
$ANGDIR
  70
  1
  9
$MEASUREMENT
  70
0
  0
ENDSEC
  0
SECTION
  2
TABLES
  0
TABLE
  2
LTYPE
  70
4
  0
LTYPE
  5
40F
  2
CONTINUOUS
  70
0
  3
Solid line
  72
65
  73
0
  40
0.0
  0
LTYPE
  5
410
  2
DASHDOT
 70
0
  3
Dash Dot ____ _ ____ _
 72
65
 73
4
 40
2.0
 49
1.25
 49
-0.25
 49
0.25
 49
-0.25
  0
LTYPE
  5
411
  2
DASHED
 70
0
  3
Dashed __ __ __ __ __
 72
65
 73
2
 40
0.75
 49
0.5
 49
-0.25
  0
LTYPE
  5
43B
  2
DOTTED
 70
0
  3
Dotted .  .  .  .
 72
65
 73
2
 40
0.2
 49
0.0
 49
-0.2
  0
ENDTAB
  0
TABLE
  2
STYLE
  70
4
  0
STYLE
  2
KICAD
  70
0
  40
0
  41
1
  42
1
  50
0
  71
0
  3
isocp.shx
  0
STYLE
  2
KICADB
  70
0
  40
0
  41
1
  42
1
  50
0
  71
0
  3
isocp.shx
  0
STYLE
  2
KICADI
  70
0
  40
0
  41
1
  42
1
  50
15
  71
0
  3
isocp.shx
  0
STYLE
  2
KICADBI
  70
0
  40
0
  41
1
  42
1
  50
15
  71
0
  3
isocp.shx
  0
ENDTAB
  0
TABLE
  2
LAYER
  70
30
  0
LAYER
  2
BLACK
  70
0
  62
7
  6
CONTINUOUS
  0
LAYER
  2
GRAY1
  70
0
  62
251
  6
CONTINUOUS
  0
LAYER
  2
GRAY2
  70
0
  62
8
  6
CONTINUOUS
  0
LAYER
  2
GRAY3
  70
0
  62
9
  6
CONTINUOUS
  0
LAYER
  2
WHITE
  70
0
  62
7
  6
CONTINUOUS
  0
LAYER
  2
LYELLOW
  70
0
  62
51
  6
CONTINUOUS
  0
LAYER
  2
BLUE1
  70
0
  62
178
  6
CONTINUOUS
  0
LAYER
  2
GREEN1
  70
0
  62
98
  6
CONTINUOUS
  0
LAYER
  2
CYAN1
  70
0
  62
138
  6
CONTINUOUS
  0
LAYER
  2
RED1
  70
0
  62
18
  6
CONTINUOUS
  0
LAYER
  2
MAGENTA1
  70
0
  62
228
  6
CONTINUOUS
  0
LAYER
  2
BROWN1
  70
0
  62
58
  6
CONTINUOUS
  0
LAYER
  2
BLUE2
  70
0
  62
5
  6
CONTINUOUS
  0
LAYER
  2
GREEN2
  70
0
  62
3
  6
CONTINUOUS
  0
LAYER
  2
CYAN2
  70
0
  62
4
  6
CONTINUOUS
  0
LAYER
  2
RED2
  70
0
  62
1
  6
CONTINUOUS
  0
LAYER
  2
MAGENTA2
  70
0
  62
6
  6
CONTINUOUS
  0
LAYER
  2
BROWN2
  70
0
  62
54
  6
CONTINUOUS
  0
LAYER
  2
BLUE3
  70
0
  62
171
  6
CONTINUOUS
  0
LAYER
  2
GREEN3
  70
0
  62
91
  6
CONTINUOUS
  0
LAYER
  2
CYAN3
  70
0
  62
131
  6
CONTINUOUS
  0
LAYER
  2
RED3
  70
0
  62
11
  6
CONTINUOUS
  0
LAYER
  2
MAGENTA3
  70
0
  62
221
  6
CONTINUOUS
  0
LAYER
  2
YELLOW3
  70
0
  62
2
  6
CONTINUOUS
  0
LAYER
  2
BLUE4
  70
0
  62
5
  6
CONTINUOUS
  0
LAYER
  2
GREEN4
  70
0
  62
3
  6
CONTINUOUS
  0
LAYER
  2
CYAN4
  70
0
  62
4
  6
CONTINUOUS
  0
LAYER
  2
RED4
  70
0
  62
1
  6
CONTINUOUS
  0
LAYER
  2
MAGENTA4
  70
0
  62
6
  6
CONTINUOUS
  0
LAYER
  2
YELLOW4
  70
0
  62
2
  6
CONTINUOUS
  0
ENDTAB
  0
ENDSEC
  0
SECTION
  2
ENTITIES
0
LINE
8
BLACK
6
CONTINUOUS
10
126.449
20
-114
11
126.983
21
-114.309
0
LINE
8
BLACK
6
CONTINUOUS
10
126.983
20
-114.309
11
127.38
21
-114.782
0
LINE
8
BLACK
6
CONTINUOUS
10
127.38
20
-114.782
11
127.591
21
-115.361
0
LINE
8
BLACK
6
CONTINUOUS
10
127.591
20
-115.361
11
127.591
21
-115.979
0
LINE
8
BLACK
6
CONTINUOUS
10
127.591
20
-115.979
11
127.38
21
-116.558
0
LINE
8
BLACK
6
CONTINUOUS
10
127.38
20
-116.558
11
126.983
21
-117.031
0
LINE
8
BLACK
6
CONTINUOUS
10
126.983
20
-117.031
11
126.449
21
-117.34
0
LINE
8
BLACK
6
CONTINUOUS
10
126.449
20
-117.34
11
125.841
21
-117.447
0
LINE
8
BLACK
6
CONTINUOUS
10
125.841
20
-117.447
11
125.233
21
-117.34
0
LINE
8
BLACK
6
CONTINUOUS
10
125.233
20
-117.34
11
124.722
21
-117.045
0
LINE
8
BLACK
6
CONTINUOUS
10
124.722
20
-117.045
11
125.006
21
-117.825
0
LINE
8
BLACK
6
CONTINUOUS
10
125.006
20
-117.825
11
125.006
21
-118.775
0
LINE
8
BLACK
6
CONTINUOUS
10
125.006
20
-118.775
11
124.681
21
-119.668
0
LINE
8
BLACK
6
CONTINUOUS
10
124.681
20
-119.668
11
124.07
21
-120.396
0
LINE
8
BLACK
6
CONTINUOUS
10
124.07
20
-120.396
11
123.247
21
-120.872
0
LINE
8
BLACK
6
CONTINUOUS
10
123.247
20
-120.872
11
122.311
21
-121.037
0
LINE
8
BLACK
6
CONTINUOUS
10
122.311
20
-121.037
11
121.375
21
-120.872
0
LINE
8
BLACK
6
CONTINUOUS
10
121.375
20
-120.872
11
120.552
21
-120.396
0
LINE
8
BLACK
6
CONTINUOUS
10
120.552
20
-120.396
11
119.941
21
-119.668
0
LINE
8
BLACK
6
CONTINUOUS
10
119.941
20
-119.668
11
119.616
21
-118.775
0
LINE
8
BLACK
6
CONTINUOUS
10
119.616
20
-118.775
11
119.616
21
-117.825
0
LINE
8
BLACK
6
CONTINUOUS
10
119.616
20
-117.825
11
119.941
21
-116.932
0
LINE
8
BLACK
6
CONTINUOUS
10
119.941
20
-116.932
11
120.552
21
-116.204
0
LINE
8
BLACK
6
CONTINUOUS
10
120.552
20
-116.204
11
121.375
21
-115.728
0
LINE
8
BLACK
6
CONTINUOUS
10
121.375
20
-115.728
11
122.311
21
-115.563
0
LINE
8
BLACK
6
CONTINUOUS
10
122.311
20
-115.563
11
123.247
21
-115.728
0
LINE
8
BLACK
6
CONTINUOUS
10
123.247
20
-115.728
11
124.07
21
-116.204
0
LINE
8
BLACK
6
CONTINUOUS
10
124.07
20
-116.204
11
124.252
21
-116.42
0
LINE
8
BLACK
6
CONTINUOUS
10
124.252
20
-116.42
11
124.091
21
-115.979
0
LINE
8
BLACK
6
CONTINUOUS
10
124.091
20
-115.979
11
124.091
21
-115.361
0
LINE
8
BLACK
6
CONTINUOUS
10
124.091
20
-115.361
11
124.302
21
-114.782
0
LINE
8
BLACK
6
CONTINUOUS
10
124.302
20
-114.782
11
124.699
21
-114.309
0
LINE
8
BLACK
6
CONTINUOUS
10
124.699
20
-114.309
11
125.233
21
-114
0
LINE
8
BLACK
6
CONTINUOUS
10
125.233
20
-114
11
125.841
21
-113.893
0
LINE
8
BLACK
6
CONTINUOUS
10
125.841
20
-113.893
11
126.449
21
-114
0
LINE
8
BLACK
6
CONTINUOUS
10
159.389
20
-114
11
159.923
21
-114.309
0
LINE
8
BLACK
6
CONTINUOUS
10
159.923
20
-114.309
11
160.32
21
-114.782
0
LINE
8
BLACK
6
CONTINUOUS
10
160.32
20
-114.782
11
160.531
21
-115.361
0
LINE
8
BLACK
6
CONTINUOUS
10
160.531
20
-115.361
11
160.531
21
-115.979
0
LINE
8
BLACK
6
CONTINUOUS
10
160.531
20
-115.979
11
160.37
21
-116.42
0
LINE
8
BLACK
6
CONTINUOUS
10
160.37
20
-116.42
11
160.552
21
-116.204
0
LINE
8
BLACK
6
CONTINUOUS
10
160.552
20
-116.204
11
161.375
21
-115.728
0
LINE
8
BLACK
6
CONTINUOUS
10
161.375
20
-115.728
11
162.311
21
-115.563
0
LINE
8
BLACK
6
CONTINUOUS
10
162.311
20
-115.563
11
163.247
21
-115.728
0
LINE
8
BLACK
6
CONTINUOUS
10
163.247
20
-115.728
11
164.07
21
-116.204
0
LINE
8
BLACK
6
CONTINUOUS
10
164.07
20
-116.204
11
164.681
21
-116.932
0
LINE
8
BLACK
6
CONTINUOUS
10
164.681
20
-116.932
11
165.006
21
-117.825
0
LINE
8
BLACK
6
CONTINUOUS
10
165.006
20
-117.825
11
165.006
21
-118.775
0
LINE
8
BLACK
6
CONTINUOUS
10
165.006
20
-118.775
11
164.681
21
-119.668
0
LINE
8
BLACK
6
CONTINUOUS
10
164.681
20
-119.668
11
164.07
21
-120.396
0
LINE
8
BLACK
6
CONTINUOUS
10
164.07
20
-120.396
11
163.247
21
-120.872
0
LINE
8
BLACK
6
CONTINUOUS
10
163.247
20
-120.872
11
162.311
21
-121.037
0
LINE
8
BLACK
6
CONTINUOUS
10
162.311
20
-121.037
11
161.375
21
-120.872
0
LINE
8
BLACK
6
CONTINUOUS
10
161.375
20
-120.872
11
160.552
21
-120.396
0
LINE
8
BLACK
6
CONTINUOUS
10
160.552
20
-120.396
11
159.941
21
-119.668
0
LINE
8
BLACK
6
CONTINUOUS
10
159.941
20
-119.668
11
159.616
21
-118.775
0
LINE
8
BLACK
6
CONTINUOUS
10
159.616
20
-118.775
11
159.616
21
-117.825
0
LINE
8
BLACK
6
CONTINUOUS
10
159.616
20
-117.825
11
159.9
21
-117.045
0
LINE
8
BLACK
6
CONTINUOUS
10
159.9
20
-117.045
11
159.389
21
-117.34
0
LINE
8
BLACK
6
CONTINUOUS
10
159.389
20
-117.34
11
158.781
21
-117.447
0
LINE
8
BLACK
6
CONTINUOUS
10
158.781
20
-117.447
11
158.173
21
-117.34
0
LINE
8
BLACK
6
CONTINUOUS
10
158.173
20
-117.34
11
157.639
21
-117.031
0
LINE
8
BLACK
6
CONTINUOUS
10
157.639
20
-117.031
11
157.242
21
-116.558
0
LINE
8
BLACK
6
CONTINUOUS
10
157.242
20
-116.558
11
157.031
21
-115.979
0
LINE
8
BLACK
6
CONTINUOUS
10
157.031
20
-115.979
11
157.031
21
-115.361
0
LINE
8
BLACK
6
CONTINUOUS
10
157.031
20
-115.361
11
157.242
21
-114.782
0
LINE
8
BLACK
6
CONTINUOUS
10
157.242
20
-114.782
11
157.639
21
-114.309
0
LINE
8
BLACK
6
CONTINUOUS
10
157.639
20
-114.309
11
158.173
21
-114
0
LINE
8
BLACK
6
CONTINUOUS
10
158.173
20
-114
11
158.781
21
-113.893
0
LINE
8
BLACK
6
CONTINUOUS
10
158.781
20
-113.893
11
159.389
21
-114
0
LINE
8
BLACK
6
CONTINUOUS
10
135.155
20
-114.148
11
135.642
21
-114.429
0
LINE
8
BLACK
6
CONTINUOUS
10
135.642
20
-114.429
11
136.004
21
-114.86
0
LINE
8
BLACK
6
CONTINUOUS
10
136.004
20
-114.86
11
136.196
21
-115.389
0
LINE
8
BLACK
6
CONTINUOUS
10
136.196
20
-115.389
11
136.196
21
-115.951
0
LINE
8
BLACK
6
CONTINUOUS
10
136.196
20
-115.951
11
136.004
21
-116.48
0
LINE
8
BLACK
6
CONTINUOUS
10
136.004
20
-116.48
11
135.642
21
-116.911
0
LINE
8
BLACK
6
CONTINUOUS
10
135.642
20
-116.911
11
135.155
21
-117.192
0
LINE
8
BLACK
6
CONTINUOUS
10
135.155
20
-117.192
11
134.601
21
-117.29
0
LINE
8
BLACK
6
CONTINUOUS
10
134.601
20
-117.29
11
134.047
21
-117.192
0
LINE
8
BLACK
6
CONTINUOUS
10
134.047
20
-117.192
11
133.56
21
-116.911
0
LINE
8
BLACK
6
CONTINUOUS
10
133.56
20
-116.911
11
133.198
21
-116.48
0
LINE
8
BLACK
6
CONTINUOUS
10
133.198
20
-116.48
11
133.006
21
-115.951
0
LINE
8
BLACK
6
CONTINUOUS
10
133.006
20
-115.951
11
133.006
21
-115.389
0
LINE
8
BLACK
6
CONTINUOUS
10
133.006
20
-115.389
11
133.198
21
-114.86
0
LINE
8
BLACK
6
CONTINUOUS
10
133.198
20
-114.86
11
133.56
21
-114.429
0
LINE
8
BLACK
6
CONTINUOUS
10
133.56
20
-114.429
11
134.047
21
-114.148
0
LINE
8
BLACK
6
CONTINUOUS
10
134.047
20
-114.148
11
134.601
21
-114.05
0
LINE
8
BLACK
6
CONTINUOUS
10
134.601
20
-114.05
11
135.155
21
-114.148
0
LINE
8
BLACK
6
CONTINUOUS
10
112.941
20
-110.548
11
113.979
21
-111.147
0
LINE
8
BLACK
6
CONTINUOUS
10
113.979
20
-111.147
11
114.75
21
-112.066
0
LINE
8
BLACK
6
CONTINUOUS
10
114.75
20
-112.066
11
115.16
21
-113.192
0
LINE
8
BLACK
6
CONTINUOUS
10
115.16
20
-113.192
11
115.16
21
-114.392
0
LINE
8
BLACK
6
CONTINUOUS
10
115.16
20
-114.392
11
114.75
21
-115.518
0
LINE
8
BLACK
6
CONTINUOUS
10
114.75
20
-115.518
11
113.979
21
-116.437
0
LINE
8
BLACK
6
CONTINUOUS
10
113.979
20
-116.437
11
112.941
21
-117.036
0
LINE
8
BLACK
6
CONTINUOUS
10
112.941
20
-117.036
11
111.76
21
-117.244
0
LINE
8
BLACK
6
CONTINUOUS
10
111.76
20
-117.244
11
110.579
21
-117.036
0
LINE
8
BLACK
6
CONTINUOUS
10
110.579
20
-117.036
11
109.541
21
-116.437
0
LINE
8
BLACK
6
CONTINUOUS
10
109.541
20
-116.437
11
108.77
21
-115.518
0
LINE
8
BLACK
6
CONTINUOUS
10
108.77
20
-115.518
11
108.36
21
-114.392
0
LINE
8
BLACK
6
CONTINUOUS
10
108.36
20
-114.392
11
108.36
21
-113.192
0
LINE
8
BLACK
6
CONTINUOUS
10
108.36
20
-113.192
11
108.77
21
-112.066
0
LINE
8
BLACK
6
CONTINUOUS
10
108.77
20
-112.066
11
109.541
21
-111.147
0
LINE
8
BLACK
6
CONTINUOUS
10
109.541
20
-111.147
11
110.579
21
-110.548
0
LINE
8
BLACK
6
CONTINUOUS
10
110.579
20
-110.548
11
111.76
21
-110.34
0
LINE
8
BLACK
6
CONTINUOUS
10
111.76
20
-110.34
11
112.941
21
-110.548
0
LINE
8
BLACK
6
CONTINUOUS
10
173.647
20
-106.23
11
174.685
21
-106.829
0
LINE
8
BLACK
6
CONTINUOUS
10
174.685
20
-106.829
11
175.456
21
-107.748
0
LINE
8
BLACK
6
CONTINUOUS
10
175.456
20
-107.748
11
175.866
21
-108.874
0
LINE
8
BLACK
6
CONTINUOUS
10
175.866
20
-108.874
11
175.866
21
-110.074
0
LINE
8
BLACK
6
CONTINUOUS
10
175.866
20
-110.074
11
175.456
21
-111.2
0
LINE
8
BLACK
6
CONTINUOUS
10
175.456
20
-111.2
11
174.685
21
-112.119
0
LINE
8
BLACK
6
CONTINUOUS
10
174.685
20
-112.119
11
173.647
21
-112.718
0
LINE
8
BLACK
6
CONTINUOUS
10
173.647
20
-112.718
11
172.466
21
-112.926
0
LINE
8
BLACK
6
CONTINUOUS
10
172.466
20
-112.926
11
171.285
21
-112.718
0
LINE
8
BLACK
6
CONTINUOUS
10
171.285
20
-112.718
11
170.247
21
-112.119
0
LINE
8
BLACK
6
CONTINUOUS
10
170.247
20
-112.119
11
169.476
21
-111.2
0
LINE
8
BLACK
6
CONTINUOUS
10
169.476
20
-111.2
11
169.066
21
-110.074
0
LINE
8
BLACK
6
CONTINUOUS
10
169.066
20
-110.074
11
169.066
21
-108.874
0
LINE
8
BLACK
6
CONTINUOUS
10
169.066
20
-108.874
11
169.476
21
-107.748
0
LINE
8
BLACK
6
CONTINUOUS
10
169.476
20
-107.748
11
170.247
21
-106.829
0
LINE
8
BLACK
6
CONTINUOUS
10
170.247
20
-106.829
11
171.285
21
-106.23
0
LINE
8
BLACK
6
CONTINUOUS
10
171.285
20
-106.23
11
172.466
21
-106.022
0
LINE
8
BLACK
6
CONTINUOUS
10
172.466
20
-106.022
11
173.647
21
-106.23
0
LINE
8
BLACK
6
CONTINUOUS
10
166.055
20
-108.428
11
166.542
21
-108.709
0
LINE
8
BLACK
6
CONTINUOUS
10
166.542
20
-108.709
11
166.904
21
-109.14
0
LINE
8
BLACK
6
CONTINUOUS
10
166.904
20
-109.14
11
167.096
21
-109.669
0
LINE
8
BLACK
6
CONTINUOUS
10
167.096
20
-109.669
11
167.096
21
-110.231
0
LINE
8
BLACK
6
CONTINUOUS
10
167.096
20
-110.231
11
166.904
21
-110.76
0
LINE
8
BLACK
6
CONTINUOUS
10
166.904
20
-110.76
11
166.542
21
-111.191
0
LINE
8
BLACK
6
CONTINUOUS
10
166.542
20
-111.191
11
166.055
21
-111.472
0
LINE
8
BLACK
6
CONTINUOUS
10
166.055
20
-111.472
11
165.501
21
-111.57
0
LINE
8
BLACK
6
CONTINUOUS
10
165.501
20
-111.57
11
164.947
21
-111.472
0
LINE
8
BLACK
6
CONTINUOUS
10
164.947
20
-111.472
11
164.46
21
-111.191
0
LINE
8
BLACK
6
CONTINUOUS
10
164.46
20
-111.191
11
164.098
21
-110.76
0
LINE
8
BLACK
6
CONTINUOUS
10
164.098
20
-110.76
11
163.906
21
-110.231
0
LINE
8
BLACK
6
CONTINUOUS
10
163.906
20
-110.231
11
163.906
21
-109.669
0
LINE
8
BLACK
6
CONTINUOUS
10
163.906
20
-109.669
11
164.098
21
-109.14
0
LINE
8
BLACK
6
CONTINUOUS
10
164.098
20
-109.14
11
164.46
21
-108.709
0
LINE
8
BLACK
6
CONTINUOUS
10
164.46
20
-108.709
11
164.947
21
-108.428
0
LINE
8
BLACK
6
CONTINUOUS
10
164.947
20
-108.428
11
165.501
21
-108.33
0
LINE
8
BLACK
6
CONTINUOUS
10
165.501
20
-108.33
11
166.055
21
-108.428
0
LINE
8
BLACK
6
CONTINUOUS
10
119.63
20
-108.302
11
120.077
21
-108.56
0
LINE
8
BLACK
6
CONTINUOUS
10
120.077
20
-108.56
11
120.409
21
-108.956
0
LINE
8
BLACK
6
CONTINUOUS
10
120.409
20
-108.956
11
120.586
21
-109.442
0
LINE
8
BLACK
6
CONTINUOUS
10
120.586
20
-109.442
11
120.586
21
-109.958
0
LINE
8
BLACK
6
CONTINUOUS
10
120.586
20
-109.958
11
120.409
21
-110.444
0
LINE
8
BLACK
6
CONTINUOUS
10
120.409
20
-110.444
11
120.077
21
-110.84
0
LINE
8
BLACK
6
CONTINUOUS
10
120.077
20
-110.84
11
119.63
21
-111.098
0
LINE
8
BLACK
6
CONTINUOUS
10
119.63
20
-111.098
11
119.121
21
-111.188
0
LINE
8
BLACK
6
CONTINUOUS
10
119.121
20
-111.188
11
118.612
21
-111.098
0
LINE
8
BLACK
6
CONTINUOUS
10
118.612
20
-111.098
11
118.165
21
-110.84
0
LINE
8
BLACK
6
CONTINUOUS
10
118.165
20
-110.84
11
117.833
21
-110.444
0
LINE
8
BLACK
6
CONTINUOUS
10
117.833
20
-110.444
11
117.656
21
-109.958
0
LINE
8
BLACK
6
CONTINUOUS
10
117.656
20
-109.958
11
117.656
21
-109.442
0
LINE
8
BLACK
6
CONTINUOUS
10
117.656
20
-109.442
11
117.833
21
-108.956
0
LINE
8
BLACK
6
CONTINUOUS
10
117.833
20
-108.956
11
118.165
21
-108.56
0
LINE
8
BLACK
6
CONTINUOUS
10
118.165
20
-108.56
11
118.612
21
-108.302
0
LINE
8
BLACK
6
CONTINUOUS
10
118.612
20
-108.302
11
119.121
21
-108.212
0
LINE
8
BLACK
6
CONTINUOUS
10
119.121
20
-108.212
11
119.63
21
-108.302
0
LINE
8
BLACK
6
CONTINUOUS
10
119.541
20
-104.675
11
119.911
21
-104.889
0
LINE
8
BLACK
6
CONTINUOUS
10
119.911
20
-104.889
11
120.185
21
-105.216
0
LINE
8
BLACK
6
CONTINUOUS
10
120.185
20
-105.216
11
120.331
21
-105.617
0
LINE
8
BLACK
6
CONTINUOUS
10
120.331
20
-105.617
11
120.331
21
-106.043
0
LINE
8
BLACK
6
CONTINUOUS
10
120.331
20
-106.043
11
120.185
21
-106.444
0
LINE
8
BLACK
6
CONTINUOUS
10
120.185
20
-106.444
11
119.911
21
-106.771
0
LINE
8
BLACK
6
CONTINUOUS
10
119.911
20
-106.771
11
119.541
21
-106.985
0
LINE
8
BLACK
6
CONTINUOUS
10
119.541
20
-106.985
11
119.121
21
-107.059
0
LINE
8
BLACK
6
CONTINUOUS
10
119.121
20
-107.059
11
118.701
21
-106.985
0
LINE
8
BLACK
6
CONTINUOUS
10
118.701
20
-106.985
11
118.331
21
-106.771
0
LINE
8
BLACK
6
CONTINUOUS
10
118.331
20
-106.771
11
118.057
21
-106.444
0
LINE
8
BLACK
6
CONTINUOUS
10
118.057
20
-106.444
11
117.911
21
-106.043
0
LINE
8
BLACK
6
CONTINUOUS
10
117.911
20
-106.043
11
117.911
21
-105.617
0
LINE
8
BLACK
6
CONTINUOUS
10
117.911
20
-105.617
11
118.057
21
-105.216
0
LINE
8
BLACK
6
CONTINUOUS
10
118.057
20
-105.216
11
118.331
21
-104.889
0
LINE
8
BLACK
6
CONTINUOUS
10
118.331
20
-104.889
11
118.701
21
-104.675
0
LINE
8
BLACK
6
CONTINUOUS
10
118.701
20
-104.675
11
119.121
21
-104.601
0
LINE
8
BLACK
6
CONTINUOUS
10
119.121
20
-104.601
11
119.541
21
-104.675
0
LINE
8
BLACK
6
CONTINUOUS
10
166.055
20
-102.928
11
166.542
21
-103.209
0
LINE
8
BLACK
6
CONTINUOUS
10
166.542
20
-103.209
11
166.904
21
-103.64
0
LINE
8
BLACK
6
CONTINUOUS
10
166.904
20
-103.64
11
167.096
21
-104.169
0
LINE
8
BLACK
6
CONTINUOUS
10
167.096
20
-104.169
11
167.096
21
-104.731
0
LINE
8
BLACK
6
CONTINUOUS
10
167.096
20
-104.731
11
166.904
21
-105.26
0
LINE
8
BLACK
6
CONTINUOUS
10
166.904
20
-105.26
11
166.542
21
-105.691
0
LINE
8
BLACK
6
CONTINUOUS
10
166.542
20
-105.691
11
166.055
21
-105.972
0
LINE
8
BLACK
6
CONTINUOUS
10
166.055
20
-105.972
11
165.501
21
-106.07
0
LINE
8
BLACK
6
CONTINUOUS
10
165.501
20
-106.07
11
164.947
21
-105.972
0
LINE
8
BLACK
6
CONTINUOUS
10
164.947
20
-105.972
11
164.46
21
-105.691
0
LINE
8
BLACK
6
CONTINUOUS
10
164.46
20
-105.691
11
164.098
21
-105.26
0
LINE
8
BLACK
6
CONTINUOUS
10
164.098
20
-105.26
11
163.906
21
-104.731
0
LINE
8
BLACK
6
CONTINUOUS
10
163.906
20
-104.731
11
163.906
21
-104.169
0
LINE
8
BLACK
6
CONTINUOUS
10
163.906
20
-104.169
11
164.098
21
-103.64
0
LINE
8
BLACK
6
CONTINUOUS
10
164.098
20
-103.64
11
164.46
21
-103.209
0
LINE
8
BLACK
6
CONTINUOUS
10
164.46
20
-103.209
11
164.947
21
-102.928
0
LINE
8
BLACK
6
CONTINUOUS
10
164.947
20
-102.928
11
165.501
21
-102.83
0
LINE
8
BLACK
6
CONTINUOUS
10
165.501
20
-102.83
11
166.055
21
-102.928
0
LINE
8
BLACK
6
CONTINUOUS
10
113.826
20
-104.682
11
111.726
21
-104.682
0
LINE
8
BLACK
6
CONTINUOUS
10
111.726
20
-104.682
11
111.726
21
-102.582
0
LINE
8
BLACK
6
CONTINUOUS
10
111.726
20
-102.582
11
113.826
21
-102.582
0
LINE
8
BLACK
6
CONTINUOUS
10
113.826
20
-102.582
11
113.826
21
-104.682
0
LINE
8
BLACK
6
CONTINUOUS
10
119.541
20
-101.925
11
119.911
21
-102.139
0
LINE
8
BLACK
6
CONTINUOUS
10
119.911
20
-102.139
11
120.185
21
-102.466
0
LINE
8
BLACK
6
CONTINUOUS
10
120.185
20
-102.466
11
120.331
21
-102.867
0
LINE
8
BLACK
6
CONTINUOUS
10
120.331
20
-102.867
11
120.331
21
-103.293
0
LINE
8
BLACK
6
CONTINUOUS
10
120.331
20
-103.293
11
120.185
21
-103.694
0
LINE
8
BLACK
6
CONTINUOUS
10
120.185
20
-103.694
11
119.911
21
-104.021
0
LINE
8
BLACK
6
CONTINUOUS
10
119.911
20
-104.021
11
119.541
21
-104.235
0
LINE
8
BLACK
6
CONTINUOUS
10
119.541
20
-104.235
11
119.121
21
-104.309
0
LINE
8
BLACK
6
CONTINUOUS
10
119.121
20
-104.309
11
118.701
21
-104.235
0
LINE
8
BLACK
6
CONTINUOUS
10
118.701
20
-104.235
11
118.331
21
-104.021
0
LINE
8
BLACK
6
CONTINUOUS
10
118.331
20
-104.021
11
118.057
21
-103.694
0
LINE
8
BLACK
6
CONTINUOUS
10
118.057
20
-103.694
11
117.911
21
-103.293
0
LINE
8
BLACK
6
CONTINUOUS
10
117.911
20
-103.293
11
117.911
21
-102.867
0
LINE
8
BLACK
6
CONTINUOUS
10
117.911
20
-102.867
11
118.057
21
-102.466
0
LINE
8
BLACK
6
CONTINUOUS
10
118.057
20
-102.466
11
118.331
21
-102.139
0
LINE
8
BLACK
6
CONTINUOUS
10
118.331
20
-102.139
11
118.701
21
-101.925
0
LINE
8
BLACK
6
CONTINUOUS
10
118.701
20
-101.925
11
119.121
21
-101.851
0
LINE
8
BLACK
6
CONTINUOUS
10
119.121
20
-101.851
11
119.541
21
-101.925
0
LINE
8
BLACK
6
CONTINUOUS
10
113.141
20
-100.09
11
113.461
21
-100.275
0
LINE
8
BLACK
6
CONTINUOUS
10
113.461
20
-100.275
11
113.699
21
-100.559
0
LINE
8
BLACK
6
CONTINUOUS
10
113.699
20
-100.559
11
113.826
21
-100.907
0
LINE
8
BLACK
6
CONTINUOUS
10
113.826
20
-100.907
11
113.826
21
-101.277
0
LINE
8
BLACK
6
CONTINUOUS
10
113.826
20
-101.277
11
113.699
21
-101.625
0
LINE
8
BLACK
6
CONTINUOUS
10
113.699
20
-101.625
11
113.461
21
-101.909
0
LINE
8
BLACK
6
CONTINUOUS
10
113.461
20
-101.909
11
113.141
21
-102.094
0
LINE
8
BLACK
6
CONTINUOUS
10
113.141
20
-102.094
11
112.868
21
-102.142
0
LINE
8
BLACK
6
CONTINUOUS
10
112.868
20
-102.142
11
112.684
21
-102.142
0
LINE
8
BLACK
6
CONTINUOUS
10
112.684
20
-102.142
11
112.411
21
-102.094
0
LINE
8
BLACK
6
CONTINUOUS
10
112.411
20
-102.094
11
112.091
21
-101.909
0
LINE
8
BLACK
6
CONTINUOUS
10
112.091
20
-101.909
11
111.853
21
-101.625
0
LINE
8
BLACK
6
CONTINUOUS
10
111.853
20
-101.625
11
111.726
21
-101.277
0
LINE
8
BLACK
6
CONTINUOUS
10
111.726
20
-101.277
11
111.726
21
-100.907
0
LINE
8
BLACK
6
CONTINUOUS
10
111.726
20
-100.907
11
111.853
21
-100.559
0
LINE
8
BLACK
6
CONTINUOUS
10
111.853
20
-100.559
11
112.091
21
-100.275
0
LINE
8
BLACK
6
CONTINUOUS
10
112.091
20
-100.275
11
112.411
21
-100.09
0
LINE
8
BLACK
6
CONTINUOUS
10
112.411
20
-100.09
11
112.684
21
-100.042
0
LINE
8
BLACK
6
CONTINUOUS
10
112.684
20
-100.042
11
112.868
21
-100.042
0
LINE
8
BLACK
6
CONTINUOUS
10
112.868
20
-100.042
11
113.141
21
-100.09
0
LINE
8
BLACK
6
CONTINUOUS
10
119.541
20
-99.1654
11
119.911
21
-99.3788
0
LINE
8
BLACK
6
CONTINUOUS
10
119.911
20
-99.3788
11
120.185
21
-99.7057
0
LINE
8
BLACK
6
CONTINUOUS
10
120.185
20
-99.7057
11
120.331
21
-100.107
0
LINE
8
BLACK
6
CONTINUOUS
10
120.331
20
-100.107
11
120.331
21
-100.533
0
LINE
8
BLACK
6
CONTINUOUS
10
120.331
20
-100.533
11
120.185
21
-100.934
0
LINE
8
BLACK
6
CONTINUOUS
10
120.185
20
-100.934
11
119.911
21
-101.261
0
LINE
8
BLACK
6
CONTINUOUS
10
119.911
20
-101.261
11
119.541
21
-101.475
0
LINE
8
BLACK
6
CONTINUOUS
10
119.541
20
-101.475
11
119.121
21
-101.549
0
LINE
8
BLACK
6
CONTINUOUS
10
119.121
20
-101.549
11
118.701
21
-101.475
0
LINE
8
BLACK
6
CONTINUOUS
10
118.701
20
-101.475
11
118.331
21
-101.261
0
LINE
8
BLACK
6
CONTINUOUS
10
118.331
20
-101.261
11
118.057
21
-100.934
0
LINE
8
BLACK
6
CONTINUOUS
10
118.057
20
-100.934
11
117.911
21
-100.533
0
LINE
8
BLACK
6
CONTINUOUS
10
117.911
20
-100.533
11
117.911
21
-100.107
0
LINE
8
BLACK
6
CONTINUOUS
10
117.911
20
-100.107
11
118.057
21
-99.7057
0
LINE
8
BLACK
6
CONTINUOUS
10
118.057
20
-99.7057
11
118.331
21
-99.3788
0
LINE
8
BLACK
6
CONTINUOUS
10
118.331
20
-99.3788
11
118.701
21
-99.1654
0
LINE
8
BLACK
6
CONTINUOUS
10
118.701
20
-99.1654
11
119.121
21
-99.0913
0
LINE
8
BLACK
6
CONTINUOUS
10
119.121
20
-99.0913
11
119.541
21
-99.1654
0
LINE
8
BLACK
6
CONTINUOUS
10
166.055
20
-97.4281
11
166.542
21
-97.7093
0
LINE
8
BLACK
6
CONTINUOUS
10
166.542
20
-97.7093
11
166.904
21
-98.1402
0
LINE
8
BLACK
6
CONTINUOUS
10
166.904
20
-98.1402
11
167.096
21
-98.6688
0
LINE
8
BLACK
6
CONTINUOUS
10
167.096
20
-98.6688
11
167.096
21
-99.2312
0
LINE
8
BLACK
6
CONTINUOUS
10
167.096
20
-99.2312
11
166.904
21
-99.7598
0
LINE
8
BLACK
6
CONTINUOUS
10
166.904
20
-99.7598
11
166.542
21
-100.191
0
LINE
8
BLACK
6
CONTINUOUS
10
166.542
20
-100.191
11
166.055
21
-100.472
0
LINE
8
BLACK
6
CONTINUOUS
10
166.055
20
-100.472
11
165.501
21
-100.57
0
LINE
8
BLACK
6
CONTINUOUS
10
165.501
20
-100.57
11
164.947
21
-100.472
0
LINE
8
BLACK
6
CONTINUOUS
10
164.947
20
-100.472
11
164.46
21
-100.191
0
LINE
8
BLACK
6
CONTINUOUS
10
164.46
20
-100.191
11
164.098
21
-99.7598
0
LINE
8
BLACK
6
CONTINUOUS
10
164.098
20
-99.7598
11
163.906
21
-99.2312
0
LINE
8
BLACK
6
CONTINUOUS
10
163.906
20
-99.2312
11
163.906
21
-98.6688
0
LINE
8
BLACK
6
CONTINUOUS
10
163.906
20
-98.6688
11
164.098
21
-98.1402
0
LINE
8
BLACK
6
CONTINUOUS
10
164.098
20
-98.1402
11
164.46
21
-97.7093
0
LINE
8
BLACK
6
CONTINUOUS
10
164.46
20
-97.7093
11
164.947
21
-97.4281
0
LINE
8
BLACK
6
CONTINUOUS
10
164.947
20
-97.4281
11
165.501
21
-97.3304
0
LINE
8
BLACK
6
CONTINUOUS
10
165.501
20
-97.3304
11
166.055
21
-97.4281
0
LINE
8
BLACK
6
CONTINUOUS
10
113.141
20
-97.5501
11
113.461
21
-97.7352
0
LINE
8
BLACK
6
CONTINUOUS
10
113.461
20
-97.7352
11
113.699
21
-98.0189
0
LINE
8
BLACK
6
CONTINUOUS
10
113.699
20
-98.0189
11
113.826
21
-98.3669
0
LINE
8
BLACK
6
CONTINUOUS
10
113.826
20
-98.3669
11
113.826
21
-98.7371
0
LINE
8
BLACK
6
CONTINUOUS
10
113.826
20
-98.7371
11
113.699
21
-99.0851
0
LINE
8
BLACK
6
CONTINUOUS
10
113.699
20
-99.0851
11
113.461
21
-99.3688
0
LINE
8
BLACK
6
CONTINUOUS
10
113.461
20
-99.3688
11
113.141
21
-99.5539
0
LINE
8
BLACK
6
CONTINUOUS
10
113.141
20
-99.5539
11
112.868
21
-99.602
0
LINE
8
BLACK
6
CONTINUOUS
10
112.868
20
-99.602
11
112.684
21
-99.602
0
LINE
8
BLACK
6
CONTINUOUS
10
112.684
20
-99.602
11
112.411
21
-99.5539
0
LINE
8
BLACK
6
CONTINUOUS
10
112.411
20
-99.5539
11
112.091
21
-99.3688
0
LINE
8
BLACK
6
CONTINUOUS
10
112.091
20
-99.3688
11
111.853
21
-99.0851
0
LINE
8
BLACK
6
CONTINUOUS
10
111.853
20
-99.0851
11
111.726
21
-98.7371
0
LINE
8
BLACK
6
CONTINUOUS
10
111.726
20
-98.7371
11
111.726
21
-98.3669
0
LINE
8
BLACK
6
CONTINUOUS
10
111.726
20
-98.3669
11
111.853
21
-98.0189
0
LINE
8
BLACK
6
CONTINUOUS
10
111.853
20
-98.0189
11
112.091
21
-97.7352
0
LINE
8
BLACK
6
CONTINUOUS
10
112.091
20
-97.7352
11
112.411
21
-97.5501
0
LINE
8
BLACK
6
CONTINUOUS
10
112.411
20
-97.5501
11
112.684
21
-97.502
0
LINE
8
BLACK
6
CONTINUOUS
10
112.684
20
-97.502
11
112.868
21
-97.502
0
LINE
8
BLACK
6
CONTINUOUS
10
112.868
20
-97.502
11
113.141
21
-97.5501
0
LINE
8
BLACK
6
CONTINUOUS
10
173.647
20
-90.7358
11
174.685
21
-91.3353
0
LINE
8
BLACK
6
CONTINUOUS
10
174.685
20
-91.3353
11
175.456
21
-92.2538
0
LINE
8
BLACK
6
CONTINUOUS
10
175.456
20
-92.2538
11
175.866
21
-93.3805
0
LINE
8
BLACK
6
CONTINUOUS
10
175.866
20
-93.3805
11
175.866
21
-94.5795
0
LINE
8
BLACK
6
CONTINUOUS
10
175.866
20
-94.5795
11
175.456
21
-95.7062
0
LINE
8
BLACK
6
CONTINUOUS
10
175.456
20
-95.7062
11
174.685
21
-96.6247
0
LINE
8
BLACK
6
CONTINUOUS
10
174.685
20
-96.6247
11
173.647
21
-97.2242
0
LINE
8
BLACK
6
CONTINUOUS
10
173.647
20
-97.2242
11
172.466
21
-97.4324
0
LINE
8
BLACK
6
CONTINUOUS
10
172.466
20
-97.4324
11
171.285
21
-97.2242
0
LINE
8
BLACK
6
CONTINUOUS
10
171.285
20
-97.2242
11
170.247
21
-96.6247
0
LINE
8
BLACK
6
CONTINUOUS
10
170.247
20
-96.6247
11
169.476
21
-95.7062
0
LINE
8
BLACK
6
CONTINUOUS
10
169.476
20
-95.7062
11
169.066
21
-94.5795
0
LINE
8
BLACK
6
CONTINUOUS
10
169.066
20
-94.5795
11
169.066
21
-93.3805
0
LINE
8
BLACK
6
CONTINUOUS
10
169.066
20
-93.3805
11
169.476
21
-92.2538
0
LINE
8
BLACK
6
CONTINUOUS
10
169.476
20
-92.2538
11
170.247
21
-91.3353
0
LINE
8
BLACK
6
CONTINUOUS
10
170.247
20
-91.3353
11
171.285
21
-90.7358
0
LINE
8
BLACK
6
CONTINUOUS
10
171.285
20
-90.7358
11
172.466
21
-90.5275
0
LINE
8
BLACK
6
CONTINUOUS
10
172.466
20
-90.5275
11
173.647
21
-90.7358
0
LINE
8
BLACK
6
CONTINUOUS
10
119.63
20
-92.3021
11
120.077
21
-92.5604
0
LINE
8
BLACK
6
CONTINUOUS
10
120.077
20
-92.5604
11
120.409
21
-92.9562
0
LINE
8
BLACK
6
CONTINUOUS
10
120.409
20
-92.9562
11
120.586
21
-93.4417
0
LINE
8
BLACK
6
CONTINUOUS
10
120.586
20
-93.4417
11
120.586
21
-93.9583
0
LINE
8
BLACK
6
CONTINUOUS
10
120.586
20
-93.9583
11
120.409
21
-94.4438
0
LINE
8
BLACK
6
CONTINUOUS
10
120.409
20
-94.4438
11
120.077
21
-94.8396
0
LINE
8
BLACK
6
CONTINUOUS
10
120.077
20
-94.8396
11
119.63
21
-95.0979
0
LINE
8
BLACK
6
CONTINUOUS
10
119.63
20
-95.0979
11
119.121
21
-95.1876
0
LINE
8
BLACK
6
CONTINUOUS
10
119.121
20
-95.1876
11
118.612
21
-95.0979
0
LINE
8
BLACK
6
CONTINUOUS
10
118.612
20
-95.0979
11
118.165
21
-94.8396
0
LINE
8
BLACK
6
CONTINUOUS
10
118.165
20
-94.8396
11
117.833
21
-94.4438
0
LINE
8
BLACK
6
CONTINUOUS
10
117.833
20
-94.4438
11
117.656
21
-93.9583
0
LINE
8
BLACK
6
CONTINUOUS
10
117.656
20
-93.9583
11
117.656
21
-93.4417
0
LINE
8
BLACK
6
CONTINUOUS
10
117.656
20
-93.4417
11
117.833
21
-92.9562
0
LINE
8
BLACK
6
CONTINUOUS
10
117.833
20
-92.9562
11
118.165
21
-92.5604
0
LINE
8
BLACK
6
CONTINUOUS
10
118.165
20
-92.5604
11
118.612
21
-92.3021
0
LINE
8
BLACK
6
CONTINUOUS
10
118.612
20
-92.3021
11
119.121
21
-92.2124
0
LINE
8
BLACK
6
CONTINUOUS
10
119.121
20
-92.2124
11
119.63
21
-92.3021
0
LINE
8
BLACK
6
CONTINUOUS
10
166.055
20
-91.9281
11
166.542
21
-92.2093
0
LINE
8
BLACK
6
CONTINUOUS
10
166.542
20
-92.2093
11
166.904
21
-92.6402
0
LINE
8
BLACK
6
CONTINUOUS
10
166.904
20
-92.6402
11
167.096
21
-93.1688
0
LINE
8
BLACK
6
CONTINUOUS
10
167.096
20
-93.1688
11
167.096
21
-93.7312
0
LINE
8
BLACK
6
CONTINUOUS
10
167.096
20
-93.7312
11
166.904
21
-94.2598
0
LINE
8
BLACK
6
CONTINUOUS
10
166.904
20
-94.2598
11
166.542
21
-94.6907
0
LINE
8
BLACK
6
CONTINUOUS
10
166.542
20
-94.6907
11
166.055
21
-94.9719
0
LINE
8
BLACK
6
CONTINUOUS
10
166.055
20
-94.9719
11
165.501
21
-95.0696
0
LINE
8
BLACK
6
CONTINUOUS
10
165.501
20
-95.0696
11
164.947
21
-94.9719
0
LINE
8
BLACK
6
CONTINUOUS
10
164.947
20
-94.9719
11
164.46
21
-94.6907
0
LINE
8
BLACK
6
CONTINUOUS
10
164.46
20
-94.6907
11
164.098
21
-94.2598
0
LINE
8
BLACK
6
CONTINUOUS
10
164.098
20
-94.2598
11
163.906
21
-93.7312
0
LINE
8
BLACK
6
CONTINUOUS
10
163.906
20
-93.7312
11
163.906
21
-93.1688
0
LINE
8
BLACK
6
CONTINUOUS
10
163.906
20
-93.1688
11
164.098
21
-92.6402
0
LINE
8
BLACK
6
CONTINUOUS
10
164.098
20
-92.6402
11
164.46
21
-92.2093
0
LINE
8
BLACK
6
CONTINUOUS
10
164.46
20
-92.2093
11
164.947
21
-91.9281
0
LINE
8
BLACK
6
CONTINUOUS
10
164.947
20
-91.9281
11
165.501
21
-91.8304
0
LINE
8
BLACK
6
CONTINUOUS
10
165.501
20
-91.8304
11
166.055
21
-91.9281
0
LINE
8
BLACK
6
CONTINUOUS
10
112.941
20
-86.2908
11
113.979
21
-86.8903
0
LINE
8
BLACK
6
CONTINUOUS
10
113.979
20
-86.8903
11
114.75
21
-87.8088
0
LINE
8
BLACK
6
CONTINUOUS
10
114.75
20
-87.8088
11
115.16
21
-88.9355
0
LINE
8
BLACK
6
CONTINUOUS
10
115.16
20
-88.9355
11
115.16
21
-90.1345
0
LINE
8
BLACK
6
CONTINUOUS
10
115.16
20
-90.1345
11
114.75
21
-91.2612
0
LINE
8
BLACK
6
CONTINUOUS
10
114.75
20
-91.2612
11
113.979
21
-92.1797
0
LINE
8
BLACK
6
CONTINUOUS
10
113.979
20
-92.1797
11
112.941
21
-92.7792
0
LINE
8
BLACK
6
CONTINUOUS
10
112.941
20
-92.7792
11
111.76
21
-92.9874
0
LINE
8
BLACK
6
CONTINUOUS
10
111.76
20
-92.9874
11
110.579
21
-92.7792
0
LINE
8
BLACK
6
CONTINUOUS
10
110.579
20
-92.7792
11
109.541
21
-92.1797
0
LINE
8
BLACK
6
CONTINUOUS
10
109.541
20
-92.1797
11
108.77
21
-91.2612
0
LINE
8
BLACK
6
CONTINUOUS
10
108.77
20
-91.2612
11
108.36
21
-90.1345
0
LINE
8
BLACK
6
CONTINUOUS
10
108.36
20
-90.1345
11
108.36
21
-88.9355
0
LINE
8
BLACK
6
CONTINUOUS
10
108.36
20
-88.9355
11
108.77
21
-87.8088
0
LINE
8
BLACK
6
CONTINUOUS
10
108.77
20
-87.8088
11
109.541
21
-86.8903
0
LINE
8
BLACK
6
CONTINUOUS
10
109.541
20
-86.8903
11
110.579
21
-86.2908
0
LINE
8
BLACK
6
CONTINUOUS
10
110.579
20
-86.2908
11
111.76
21
-86.0825
0
LINE
8
BLACK
6
CONTINUOUS
10
111.76
20
-86.0825
11
112.941
21
-86.2908
0
LINE
8
BLACK
6
CONTINUOUS
10
163.247
20
-82.5285
11
164.07
21
-83.0037
0
LINE
8
BLACK
6
CONTINUOUS
10
164.07
20
-83.0037
11
164.681
21
-83.7317
0
LINE
8
BLACK
6
CONTINUOUS
10
164.681
20
-83.7317
11
165.006
21
-84.6248
0
LINE
8
BLACK
6
CONTINUOUS
10
165.006
20
-84.6248
11
165.006
21
-85.5752
0
LINE
8
BLACK
6
CONTINUOUS
10
165.006
20
-85.5752
11
164.681
21
-86.4683
0
LINE
8
BLACK
6
CONTINUOUS
10
164.681
20
-86.4683
11
164.07
21
-87.1963
0
LINE
8
BLACK
6
CONTINUOUS
10
164.07
20
-87.1963
11
163.247
21
-87.6715
0
LINE
8
BLACK
6
CONTINUOUS
10
163.247
20
-87.6715
11
162.311
21
-87.8366
0
LINE
8
BLACK
6
CONTINUOUS
10
162.311
20
-87.8366
11
161.375
21
-87.6715
0
LINE
8
BLACK
6
CONTINUOUS
10
161.375
20
-87.6715
11
160.552
21
-87.1963
0
LINE
8
BLACK
6
CONTINUOUS
10
160.552
20
-87.1963
11
160.37
21
-86.9798
0
LINE
8
BLACK
6
CONTINUOUS
10
160.37
20
-86.9798
11
160.531
21
-87.4214
0
LINE
8
BLACK
6
CONTINUOUS
10
160.531
20
-87.4214
11
160.531
21
-88.0386
0
LINE
8
BLACK
6
CONTINUOUS
10
160.531
20
-88.0386
11
160.32
21
-88.6185
0
LINE
8
BLACK
6
CONTINUOUS
10
160.32
20
-88.6185
11
159.923
21
-89.0913
0
LINE
8
BLACK
6
CONTINUOUS
10
159.923
20
-89.0913
11
159.389
21
-89.3998
0
LINE
8
BLACK
6
CONTINUOUS
10
159.389
20
-89.3998
11
158.781
21
-89.507
0
LINE
8
BLACK
6
CONTINUOUS
10
158.781
20
-89.507
11
158.173
21
-89.3998
0
LINE
8
BLACK
6
CONTINUOUS
10
158.173
20
-89.3998
11
157.639
21
-89.0913
0
LINE
8
BLACK
6
CONTINUOUS
10
157.639
20
-89.0913
11
157.242
21
-88.6185
0
LINE
8
BLACK
6
CONTINUOUS
10
157.242
20
-88.6185
11
157.031
21
-88.0386
0
LINE
8
BLACK
6
CONTINUOUS
10
157.031
20
-88.0386
11
157.031
21
-87.4214
0
LINE
8
BLACK
6
CONTINUOUS
10
157.031
20
-87.4214
11
157.242
21
-86.8415
0
LINE
8
BLACK
6
CONTINUOUS
10
157.242
20
-86.8415
11
157.639
21
-86.3687
0
LINE
8
BLACK
6
CONTINUOUS
10
157.639
20
-86.3687
11
158.173
21
-86.0602
0
LINE
8
BLACK
6
CONTINUOUS
10
158.173
20
-86.0602
11
158.781
21
-85.953
0
LINE
8
BLACK
6
CONTINUOUS
10
158.781
20
-85.953
11
159.389
21
-86.0602
0
LINE
8
BLACK
6
CONTINUOUS
10
159.389
20
-86.0602
11
159.9
21
-86.3553
0
LINE
8
BLACK
6
CONTINUOUS
10
159.9
20
-86.3553
11
159.616
21
-85.5752
0
LINE
8
BLACK
6
CONTINUOUS
10
159.616
20
-85.5752
11
159.616
21
-84.6248
0
LINE
8
BLACK
6
CONTINUOUS
10
159.616
20
-84.6248
11
159.941
21
-83.7317
0
LINE
8
BLACK
6
CONTINUOUS
10
159.941
20
-83.7317
11
160.552
21
-83.0037
0
LINE
8
BLACK
6
CONTINUOUS
10
160.552
20
-83.0037
11
161.375
21
-82.5285
0
LINE
8
BLACK
6
CONTINUOUS
10
161.375
20
-82.5285
11
162.311
21
-82.3634
0
LINE
8
BLACK
6
CONTINUOUS
10
162.311
20
-82.3634
11
163.247
21
-82.5285
0
LINE
8
BLACK
6
CONTINUOUS
10
123.247
20
-82.5285
11
124.07
21
-83.0037
0
LINE
8
BLACK
6
CONTINUOUS
10
124.07
20
-83.0037
11
124.681
21
-83.7317
0
LINE
8
BLACK
6
CONTINUOUS
10
124.681
20
-83.7317
11
125.006
21
-84.6248
0
LINE
8
BLACK
6
CONTINUOUS
10
125.006
20
-84.6248
11
125.006
21
-85.5752
0
LINE
8
BLACK
6
CONTINUOUS
10
125.006
20
-85.5752
11
124.722
21
-86.3553
0
LINE
8
BLACK
6
CONTINUOUS
10
124.722
20
-86.3553
11
125.233
21
-86.0602
0
LINE
8
BLACK
6
CONTINUOUS
10
125.233
20
-86.0602
11
125.841
21
-85.953
0
LINE
8
BLACK
6
CONTINUOUS
10
125.841
20
-85.953
11
126.449
21
-86.0602
0
LINE
8
BLACK
6
CONTINUOUS
10
126.449
20
-86.0602
11
126.983
21
-86.3687
0
LINE
8
BLACK
6
CONTINUOUS
10
126.983
20
-86.3687
11
127.38
21
-86.8415
0
LINE
8
BLACK
6
CONTINUOUS
10
127.38
20
-86.8415
11
127.591
21
-87.4214
0
LINE
8
BLACK
6
CONTINUOUS
10
127.591
20
-87.4214
11
127.591
21
-88.0386
0
LINE
8
BLACK
6
CONTINUOUS
10
127.591
20
-88.0386
11
127.38
21
-88.6185
0
LINE
8
BLACK
6
CONTINUOUS
10
127.38
20
-88.6185
11
126.983
21
-89.0913
0
LINE
8
BLACK
6
CONTINUOUS
10
126.983
20
-89.0913
11
126.449
21
-89.3998
0
LINE
8
BLACK
6
CONTINUOUS
10
126.449
20
-89.3998
11
125.841
21
-89.507
0
LINE
8
BLACK
6
CONTINUOUS
10
125.841
20
-89.507
11
125.233
21
-89.3998
0
LINE
8
BLACK
6
CONTINUOUS
10
125.233
20
-89.3998
11
124.699
21
-89.0913
0
LINE
8
BLACK
6
CONTINUOUS
10
124.699
20
-89.0913
11
124.302
21
-88.6185
0
LINE
8
BLACK
6
CONTINUOUS
10
124.302
20
-88.6185
11
124.091
21
-88.0386
0
LINE
8
BLACK
6
CONTINUOUS
10
124.091
20
-88.0386
11
124.091
21
-87.4214
0
LINE
8
BLACK
6
CONTINUOUS
10
124.091
20
-87.4214
11
124.252
21
-86.9798
0
LINE
8
BLACK
6
CONTINUOUS
10
124.252
20
-86.9798
11
124.07
21
-87.1963
0
LINE
8
BLACK
6
CONTINUOUS
10
124.07
20
-87.1963
11
123.247
21
-87.6715
0
LINE
8
BLACK
6
CONTINUOUS
10
123.247
20
-87.6715
11
122.311
21
-87.8366
0
LINE
8
BLACK
6
CONTINUOUS
10
122.311
20
-87.8366
11
121.375
21
-87.6715
0
LINE
8
BLACK
6
CONTINUOUS
10
121.375
20
-87.6715
11
120.552
21
-87.1963
0
LINE
8
BLACK
6
CONTINUOUS
10
120.552
20
-87.1963
11
119.941
21
-86.4683
0
LINE
8
BLACK
6
CONTINUOUS
10
119.941
20
-86.4683
11
119.616
21
-85.5752
0
LINE
8
BLACK
6
CONTINUOUS
10
119.616
20
-85.5752
11
119.616
21
-84.6248
0
LINE
8
BLACK
6
CONTINUOUS
10
119.616
20
-84.6248
11
119.941
21
-83.7317
0
LINE
8
BLACK
6
CONTINUOUS
10
119.941
20
-83.7317
11
120.552
21
-83.0037
0
LINE
8
BLACK
6
CONTINUOUS
10
120.552
20
-83.0037
11
121.375
21
-82.5285
0
LINE
8
BLACK
6
CONTINUOUS
10
121.375
20
-82.5285
11
122.311
21
-82.3634
0
LINE
8
BLACK
6
CONTINUOUS
10
122.311
20
-82.3634
11
123.247
21
-82.5285
0
LINE
8
BLACK
6
CONTINUOUS
10
150.575
20
-86.2081
11
151.062
21
-86.4893
0
LINE
8
BLACK
6
CONTINUOUS
10
151.062
20
-86.4893
11
151.424
21
-86.9202
0
LINE
8
BLACK
6
CONTINUOUS
10
151.424
20
-86.9202
11
151.616
21
-87.4488
0
LINE
8
BLACK
6
CONTINUOUS
10
151.616
20
-87.4488
11
151.616
21
-88.0112
0
LINE
8
BLACK
6
CONTINUOUS
10
151.616
20
-88.0112
11
151.424
21
-88.5398
0
LINE
8
BLACK
6
CONTINUOUS
10
151.424
20
-88.5398
11
151.062
21
-88.9707
0
LINE
8
BLACK
6
CONTINUOUS
10
151.062
20
-88.9707
11
150.575
21
-89.2519
0
LINE
8
BLACK
6
CONTINUOUS
10
150.575
20
-89.2519
11
150.021
21
-89.3496
0
LINE
8
BLACK
6
CONTINUOUS
10
150.021
20
-89.3496
11
149.467
21
-89.2519
0
LINE
8
BLACK
6
CONTINUOUS
10
149.467
20
-89.2519
11
148.98
21
-88.9707
0
LINE
8
BLACK
6
CONTINUOUS
10
148.98
20
-88.9707
11
148.618
21
-88.5398
0
LINE
8
BLACK
6
CONTINUOUS
10
148.618
20
-88.5398
11
148.426
21
-88.0112
0
LINE
8
BLACK
6
CONTINUOUS
10
148.426
20
-88.0112
11
148.426
21
-87.4488
0
LINE
8
BLACK
6
CONTINUOUS
10
148.426
20
-87.4488
11
148.618
21
-86.9202
0
LINE
8
BLACK
6
CONTINUOUS
10
148.618
20
-86.9202
11
148.98
21
-86.4893
0
LINE
8
BLACK
6
CONTINUOUS
10
148.98
20
-86.4893
11
149.467
21
-86.2081
0
LINE
8
BLACK
6
CONTINUOUS
10
149.467
20
-86.2081
11
150.021
21
-86.1104
0
LINE
8
BLACK
6
CONTINUOUS
10
150.021
20
-86.1104
11
150.575
21
-86.2081
  0
ENDSEC
  0
EOF
