  0
SECTION
  2
HEADER
  9
$ANGBASE
  50
0.0
  9
$ANGDIR
  70
  1
  9
$MEASUREMENT
  70
0
  0
ENDSEC
  0
SECTION
  2
TABLES
  0
TABLE
  2
LTYPE
  70
4
  0
LTYPE
  5
40F
  2
CONTINUOUS
  70
0
  3
Solid line
  72
65
  73
0
  40
0.0
  0
LTYPE
  5
410
  2
DASHDOT
 70
0
  3
Dash Dot ____ _ ____ _
 72
65
 73
4
 40
2.0
 49
1.25
 49
-0.25
 49
0.25
 49
-0.25
  0
LTYPE
  5
411
  2
DASHED
 70
0
  3
Dashed __ __ __ __ __
 72
65
 73
2
 40
0.75
 49
0.5
 49
-0.25
  0
LTYPE
  5
43B
  2
DOTTED
 70
0
  3
Dotted .  .  .  .
 72
65
 73
2
 40
0.2
 49
0.0
 49
-0.2
  0
ENDTAB
  0
TABLE
  2
STYLE
  70
4
  0
STYLE
  2
KICAD
  70
0
  40
0
  41
1
  42
1
  50
0
  71
0
  3
isocp.shx
  0
STYLE
  2
KICADB
  70
0
  40
0
  41
1
  42
1
  50
0
  71
0
  3
isocp.shx
  0
STYLE
  2
KICADI
  70
0
  40
0
  41
1
  42
1
  50
15
  71
0
  3
isocp.shx
  0
STYLE
  2
KICADBI
  70
0
  40
0
  41
1
  42
1
  50
15
  71
0
  3
isocp.shx
  0
ENDTAB
  0
TABLE
  2
LAYER
  70
30
  0
LAYER
  2
BLACK
  70
0
  62
7
  6
CONTINUOUS
  0
LAYER
  2
GRAY1
  70
0
  62
251
  6
CONTINUOUS
  0
LAYER
  2
GRAY2
  70
0
  62
8
  6
CONTINUOUS
  0
LAYER
  2
GRAY3
  70
0
  62
9
  6
CONTINUOUS
  0
LAYER
  2
WHITE
  70
0
  62
7
  6
CONTINUOUS
  0
LAYER
  2
LYELLOW
  70
0
  62
51
  6
CONTINUOUS
  0
LAYER
  2
BLUE1
  70
0
  62
178
  6
CONTINUOUS
  0
LAYER
  2
GREEN1
  70
0
  62
98
  6
CONTINUOUS
  0
LAYER
  2
CYAN1
  70
0
  62
138
  6
CONTINUOUS
  0
LAYER
  2
RED1
  70
0
  62
18
  6
CONTINUOUS
  0
LAYER
  2
MAGENTA1
  70
0
  62
228
  6
CONTINUOUS
  0
LAYER
  2
BROWN1
  70
0
  62
58
  6
CONTINUOUS
  0
LAYER
  2
BLUE2
  70
0
  62
5
  6
CONTINUOUS
  0
LAYER
  2
GREEN2
  70
0
  62
3
  6
CONTINUOUS
  0
LAYER
  2
CYAN2
  70
0
  62
4
  6
CONTINUOUS
  0
LAYER
  2
RED2
  70
0
  62
1
  6
CONTINUOUS
  0
LAYER
  2
MAGENTA2
  70
0
  62
6
  6
CONTINUOUS
  0
LAYER
  2
BROWN2
  70
0
  62
54
  6
CONTINUOUS
  0
LAYER
  2
BLUE3
  70
0
  62
171
  6
CONTINUOUS
  0
LAYER
  2
GREEN3
  70
0
  62
91
  6
CONTINUOUS
  0
LAYER
  2
CYAN3
  70
0
  62
131
  6
CONTINUOUS
  0
LAYER
  2
RED3
  70
0
  62
11
  6
CONTINUOUS
  0
LAYER
  2
MAGENTA3
  70
0
  62
221
  6
CONTINUOUS
  0
LAYER
  2
YELLOW3
  70
0
  62
2
  6
CONTINUOUS
  0
LAYER
  2
BLUE4
  70
0
  62
5
  6
CONTINUOUS
  0
LAYER
  2
GREEN4
  70
0
  62
3
  6
CONTINUOUS
  0
LAYER
  2
CYAN4
  70
0
  62
4
  6
CONTINUOUS
  0
LAYER
  2
RED4
  70
0
  62
1
  6
CONTINUOUS
  0
LAYER
  2
MAGENTA4
  70
0
  62
6
  6
CONTINUOUS
  0
LAYER
  2
YELLOW4
  70
0
  62
2
  6
CONTINUOUS
  0
ENDTAB
  0
ENDSEC
  0
SECTION
  2
ENTITIES
0
LINE
8
BLACK
6
CONTINUOUS
10
165.411
20
-85.3088
11
165.411
21
-85.3176
0
LINE
8
BLACK
6
CONTINUOUS
10
165.411
20
-85.3176
11
165.408
21
-85.326
0
LINE
8
BLACK
6
CONTINUOUS
10
165.408
20
-85.326
11
165.406
21
-85.3347
0
LINE
8
BLACK
6
CONTINUOUS
10
165.406
20
-85.3347
11
165.402
21
-85.3424
0
LINE
8
BLACK
6
CONTINUOUS
10
165.402
20
-85.3424
11
165.399
21
-85.3508
0
LINE
8
BLACK
6
CONTINUOUS
10
165.399
20
-85.3508
11
165.393
21
-85.3576
0
LINE
8
BLACK
6
CONTINUOUS
10
165.393
20
-85.3576
11
165.389
21
-85.3653
0
LINE
8
BLACK
6
CONTINUOUS
10
165.389
20
-85.3653
11
165.382
21
-85.371
0
LINE
8
BLACK
6
CONTINUOUS
10
165.382
20
-85.371
11
165.382
21
-85.371
0
LINE
8
BLACK
6
CONTINUOUS
10
165.382
20
-85.371
11
163.501
21
-86.949
0
LINE
8
BLACK
6
CONTINUOUS
10
163.501
20
-86.949
11
163.501
21
-86.949
0
LINE
8
BLACK
6
CONTINUOUS
10
163.501
20
-86.949
11
163.35
21
-87.076
0
LINE
8
BLACK
6
CONTINUOUS
10
163.35
20
-87.076
11
163.35
21
-87.076
0
LINE
8
BLACK
6
CONTINUOUS
10
163.35
20
-87.076
11
159.658
21
-90.1738
0
LINE
8
BLACK
6
CONTINUOUS
10
159.658
20
-90.1738
11
165.117
21
-90.1738
0
LINE
8
BLACK
6
CONTINUOUS
10
165.117
20
-90.1738
11
165.117
21
-90.1738
0
LINE
8
BLACK
6
CONTINUOUS
10
165.117
20
-90.1738
11
165.125
21
-90.1738
0
LINE
8
BLACK
6
CONTINUOUS
10
165.125
20
-90.1738
11
165.134
21
-90.1768
0
LINE
8
BLACK
6
CONTINUOUS
10
165.134
20
-90.1768
11
165.143
21
-90.1784
0
LINE
8
BLACK
6
CONTINUOUS
10
165.143
20
-90.1784
11
165.15
21
-90.1828
0
LINE
8
BLACK
6
CONTINUOUS
10
165.15
20
-90.1828
11
165.159
21
-90.1859
0
LINE
8
BLACK
6
CONTINUOUS
10
165.159
20
-90.1859
11
165.165
21
-90.1916
0
LINE
8
BLACK
6
CONTINUOUS
10
165.165
20
-90.1916
11
165.173
21
-90.196
0
LINE
8
BLACK
6
CONTINUOUS
10
165.173
20
-90.196
11
165.179
21
-90.2028
0
LINE
8
BLACK
6
CONTINUOUS
10
165.179
20
-90.2028
11
165.186
21
-90.2085
0
LINE
8
BLACK
6
CONTINUOUS
10
165.186
20
-90.2085
11
165.19
21
-90.2162
0
LINE
8
BLACK
6
CONTINUOUS
10
165.19
20
-90.2162
11
165.196
21
-90.223
0
LINE
8
BLACK
6
CONTINUOUS
10
165.196
20
-90.223
11
165.199
21
-90.2314
0
LINE
8
BLACK
6
CONTINUOUS
10
165.199
20
-90.2314
11
165.203
21
-90.2391
0
LINE
8
BLACK
6
CONTINUOUS
10
165.203
20
-90.2391
11
165.205
21
-90.2478
0
LINE
8
BLACK
6
CONTINUOUS
10
165.205
20
-90.2478
11
165.206
21
-90.25
0
LINE
8
BLACK
6
CONTINUOUS
10
165.206
20
-90.25
11
165.32
21
-90.25
0
LINE
8
BLACK
6
CONTINUOUS
10
165.32
20
-90.25
11
165.328
21
-90.2515
0
LINE
8
BLACK
6
CONTINUOUS
10
165.328
20
-90.2515
11
165.328
21
-90.2515
0
LINE
8
BLACK
6
CONTINUOUS
10
165.328
20
-90.2515
11
165.658
21
-90.3097
0
LINE
8
BLACK
6
CONTINUOUS
10
165.658
20
-90.3097
11
165.691
21
-90.3216
0
LINE
8
BLACK
6
CONTINUOUS
10
165.691
20
-90.3216
11
165.981
21
-90.4892
0
LINE
8
BLACK
6
CONTINUOUS
10
165.981
20
-90.4892
11
166.008
21
-90.5115
0
LINE
8
BLACK
6
CONTINUOUS
10
166.008
20
-90.5115
11
166.223
21
-90.7683
0
LINE
8
BLACK
6
CONTINUOUS
10
166.223
20
-90.7683
11
166.235
21
-90.7888
0
LINE
8
BLACK
6
CONTINUOUS
10
166.235
20
-90.7888
11
166.241
21
-90.7984
0
LINE
8
BLACK
6
CONTINUOUS
10
166.241
20
-90.7984
11
166.356
21
-91.1134
0
LINE
8
BLACK
6
CONTINUOUS
10
166.356
20
-91.1134
11
166.358
21
-91.1263
0
LINE
8
BLACK
6
CONTINUOUS
10
166.358
20
-91.1263
11
166.361
21
-91.1389
0
LINE
8
BLACK
6
CONTINUOUS
10
166.361
20
-91.1389
11
166.375
21
-91.3021
0
LINE
8
BLACK
6
CONTINUOUS
10
166.375
20
-91.3021
11
166.376
21
-91.3065
0
LINE
8
BLACK
6
CONTINUOUS
10
166.376
20
-91.3065
11
166.376
21
-112.041
0
LINE
8
BLACK
6
CONTINUOUS
10
166.376
20
-112.041
11
166.375
21
-112.05
0
LINE
8
BLACK
6
CONTINUOUS
10
166.375
20
-112.05
11
166.375
21
-112.05
0
LINE
8
BLACK
6
CONTINUOUS
10
166.375
20
-112.05
11
166.316
21
-112.38
0
LINE
8
BLACK
6
CONTINUOUS
10
166.316
20
-112.38
11
166.305
21
-112.413
0
LINE
8
BLACK
6
CONTINUOUS
10
166.305
20
-112.413
11
166.137
21
-112.703
0
LINE
8
BLACK
6
CONTINUOUS
10
166.137
20
-112.703
11
166.133
21
-112.708
0
LINE
8
BLACK
6
CONTINUOUS
10
166.133
20
-112.708
11
166.115
21
-112.729
0
LINE
8
BLACK
6
CONTINUOUS
10
166.115
20
-112.729
11
165.858
21
-112.945
0
LINE
8
BLACK
6
CONTINUOUS
10
165.858
20
-112.945
11
165.828
21
-112.962
0
LINE
8
BLACK
6
CONTINUOUS
10
165.828
20
-112.962
11
165.828
21
-112.962
0
LINE
8
BLACK
6
CONTINUOUS
10
165.828
20
-112.962
11
165.513
21
-113.077
0
LINE
8
BLACK
6
CONTINUOUS
10
165.513
20
-113.077
11
165.5
21
-113.079
0
LINE
8
BLACK
6
CONTINUOUS
10
165.5
20
-113.079
11
165.487
21
-113.083
0
LINE
8
BLACK
6
CONTINUOUS
10
165.487
20
-113.083
11
165.324
21
-113.097
0
LINE
8
BLACK
6
CONTINUOUS
10
165.324
20
-113.097
11
165.32
21
-113.098
0
LINE
8
BLACK
6
CONTINUOUS
10
165.32
20
-113.098
11
165.206
21
-113.098
0
LINE
8
BLACK
6
CONTINUOUS
10
165.206
20
-113.098
11
165.205
21
-113.1
0
LINE
8
BLACK
6
CONTINUOUS
10
165.205
20
-113.1
11
165.203
21
-113.109
0
LINE
8
BLACK
6
CONTINUOUS
10
165.203
20
-113.109
11
165.199
21
-113.116
0
LINE
8
BLACK
6
CONTINUOUS
10
165.199
20
-113.116
11
165.196
21
-113.125
0
LINE
8
BLACK
6
CONTINUOUS
10
165.196
20
-113.125
11
165.19
21
-113.131
0
LINE
8
BLACK
6
CONTINUOUS
10
165.19
20
-113.131
11
165.186
21
-113.139
0
LINE
8
BLACK
6
CONTINUOUS
10
165.186
20
-113.139
11
165.179
21
-113.145
0
LINE
8
BLACK
6
CONTINUOUS
10
165.179
20
-113.145
11
165.173
21
-113.152
0
LINE
8
BLACK
6
CONTINUOUS
10
165.173
20
-113.152
11
165.165
21
-113.156
0
LINE
8
BLACK
6
CONTINUOUS
10
165.165
20
-113.156
11
165.159
21
-113.162
0
LINE
8
BLACK
6
CONTINUOUS
10
165.159
20
-113.162
11
165.15
21
-113.165
0
LINE
8
BLACK
6
CONTINUOUS
10
165.15
20
-113.165
11
165.143
21
-113.169
0
LINE
8
BLACK
6
CONTINUOUS
10
165.143
20
-113.169
11
165.134
21
-113.171
0
LINE
8
BLACK
6
CONTINUOUS
10
165.134
20
-113.171
11
165.125
21
-113.174
0
LINE
8
BLACK
6
CONTINUOUS
10
165.125
20
-113.174
11
165.117
21
-113.174
0
LINE
8
BLACK
6
CONTINUOUS
10
165.117
20
-113.174
11
165.117
21
-113.174
0
LINE
8
BLACK
6
CONTINUOUS
10
165.117
20
-113.174
11
159.608
21
-113.174
0
LINE
8
BLACK
6
CONTINUOUS
10
159.608
20
-113.174
11
159.645
21
-113.215
0
LINE
8
BLACK
6
CONTINUOUS
10
159.645
20
-113.215
11
163.35
21
-116.324
0
LINE
8
BLACK
6
CONTINUOUS
10
163.35
20
-116.324
11
163.35
21
-116.324
0
LINE
8
BLACK
6
CONTINUOUS
10
163.35
20
-116.324
11
163.501
21
-116.451
0
LINE
8
BLACK
6
CONTINUOUS
10
163.501
20
-116.451
11
163.501
21
-116.451
0
LINE
8
BLACK
6
CONTINUOUS
10
163.501
20
-116.451
11
165.382
21
-118.029
0
LINE
8
BLACK
6
CONTINUOUS
10
165.382
20
-118.029
11
165.382
21
-118.029
0
LINE
8
BLACK
6
CONTINUOUS
10
165.382
20
-118.029
11
165.389
21
-118.035
0
LINE
8
BLACK
6
CONTINUOUS
10
165.389
20
-118.035
11
165.393
21
-118.042
0
LINE
8
BLACK
6
CONTINUOUS
10
165.393
20
-118.042
11
165.399
21
-118.049
0
LINE
8
BLACK
6
CONTINUOUS
10
165.399
20
-118.049
11
165.402
21
-118.058
0
LINE
8
BLACK
6
CONTINUOUS
10
165.402
20
-118.058
11
165.406
21
-118.065
0
LINE
8
BLACK
6
CONTINUOUS
10
165.406
20
-118.065
11
165.408
21
-118.074
0
LINE
8
BLACK
6
CONTINUOUS
10
165.408
20
-118.074
11
165.411
21
-118.082
0
LINE
8
BLACK
6
CONTINUOUS
10
165.411
20
-118.082
11
165.411
21
-118.091
0
LINE
8
BLACK
6
CONTINUOUS
10
165.411
20
-118.091
11
165.411
21
-118.091
0
LINE
8
BLACK
6
CONTINUOUS
10
165.411
20
-118.091
11
165.411
21
-127.109
0
LINE
8
BLACK
6
CONTINUOUS
10
165.411
20
-127.109
11
165.411
21
-127.109
0
LINE
8
BLACK
6
CONTINUOUS
10
165.411
20
-127.109
11
165.411
21
-127.118
0
LINE
8
BLACK
6
CONTINUOUS
10
165.411
20
-127.118
11
165.408
21
-127.126
0
LINE
8
BLACK
6
CONTINUOUS
10
165.408
20
-127.126
11
165.406
21
-127.135
0
LINE
8
BLACK
6
CONTINUOUS
10
165.406
20
-127.135
11
165.402
21
-127.142
0
LINE
8
BLACK
6
CONTINUOUS
10
165.402
20
-127.142
11
165.399
21
-127.151
0
LINE
8
BLACK
6
CONTINUOUS
10
165.399
20
-127.151
11
165.393
21
-127.158
0
LINE
8
BLACK
6
CONTINUOUS
10
165.393
20
-127.158
11
165.389
21
-127.165
0
LINE
8
BLACK
6
CONTINUOUS
10
165.389
20
-127.165
11
165.382
21
-127.171
0
LINE
8
BLACK
6
CONTINUOUS
10
165.382
20
-127.171
11
165.376
21
-127.178
0
LINE
8
BLACK
6
CONTINUOUS
10
165.376
20
-127.178
11
165.369
21
-127.182
0
LINE
8
BLACK
6
CONTINUOUS
10
165.369
20
-127.182
11
165.362
21
-127.188
0
LINE
8
BLACK
6
CONTINUOUS
10
165.362
20
-127.188
11
165.353
21
-127.191
0
LINE
8
BLACK
6
CONTINUOUS
10
165.353
20
-127.191
11
165.346
21
-127.195
0
LINE
8
BLACK
6
CONTINUOUS
10
165.346
20
-127.195
11
165.337
21
-127.197
0
LINE
8
BLACK
6
CONTINUOUS
10
165.337
20
-127.197
11
165.329
21
-127.2
0
LINE
8
BLACK
6
CONTINUOUS
10
165.329
20
-127.2
11
165.32
21
-127.2
0
LINE
8
BLACK
6
CONTINUOUS
10
165.32
20
-127.2
11
165.32
21
-127.2
0
LINE
8
BLACK
6
CONTINUOUS
10
165.32
20
-127.2
11
119.302
21
-127.2
0
LINE
8
BLACK
6
CONTINUOUS
10
119.302
20
-127.2
11
119.302
21
-127.2
0
LINE
8
BLACK
6
CONTINUOUS
10
119.302
20
-127.2
11
119.293
21
-127.2
0
LINE
8
BLACK
6
CONTINUOUS
10
119.293
20
-127.2
11
119.285
21
-127.197
0
LINE
8
BLACK
6
CONTINUOUS
10
119.285
20
-127.197
11
119.276
21
-127.195
0
LINE
8
BLACK
6
CONTINUOUS
10
119.276
20
-127.195
11
119.269
21
-127.191
0
LINE
8
BLACK
6
CONTINUOUS
10
119.269
20
-127.191
11
119.26
21
-127.188
0
LINE
8
BLACK
6
CONTINUOUS
10
119.26
20
-127.188
11
119.253
21
-127.182
0
LINE
8
BLACK
6
CONTINUOUS
10
119.253
20
-127.182
11
119.246
21
-127.178
0
LINE
8
BLACK
6
CONTINUOUS
10
119.246
20
-127.178
11
119.24
21
-127.171
0
LINE
8
BLACK
6
CONTINUOUS
10
119.24
20
-127.171
11
119.233
21
-127.165
0
LINE
8
BLACK
6
CONTINUOUS
10
119.233
20
-127.165
11
119.229
21
-127.158
0
LINE
8
BLACK
6
CONTINUOUS
10
119.229
20
-127.158
11
119.223
21
-127.151
0
LINE
8
BLACK
6
CONTINUOUS
10
119.223
20
-127.151
11
119.22
21
-127.142
0
LINE
8
BLACK
6
CONTINUOUS
10
119.22
20
-127.142
11
119.216
21
-127.135
0
LINE
8
BLACK
6
CONTINUOUS
10
119.216
20
-127.135
11
119.214
21
-127.126
0
LINE
8
BLACK
6
CONTINUOUS
10
119.214
20
-127.126
11
119.211
21
-127.118
0
LINE
8
BLACK
6
CONTINUOUS
10
119.211
20
-127.118
11
119.211
21
-127.082
0
LINE
8
BLACK
6
CONTINUOUS
10
119.211
20
-127.082
11
119.211
21
-120.196
0
LINE
8
BLACK
6
CONTINUOUS
10
119.211
20
-120.196
11
119.211
21
-120.196
0
LINE
8
BLACK
6
CONTINUOUS
10
119.211
20
-120.196
11
119.211
21
-120.069
0
LINE
8
BLACK
6
CONTINUOUS
10
119.211
20
-120.069
11
119.211
21
-120.069
0
LINE
8
BLACK
6
CONTINUOUS
10
119.211
20
-120.069
11
119.211
21
-118.091
0
LINE
8
BLACK
6
CONTINUOUS
10
119.211
20
-118.091
11
119.211
21
-118.091
0
LINE
8
BLACK
6
CONTINUOUS
10
119.211
20
-118.091
11
119.211
21
-118.082
0
LINE
8
BLACK
6
CONTINUOUS
10
119.211
20
-118.082
11
119.214
21
-118.074
0
LINE
8
BLACK
6
CONTINUOUS
10
119.214
20
-118.074
11
119.216
21
-118.065
0
LINE
8
BLACK
6
CONTINUOUS
10
119.216
20
-118.065
11
119.22
21
-118.058
0
LINE
8
BLACK
6
CONTINUOUS
10
119.22
20
-118.058
11
119.223
21
-118.049
0
LINE
8
BLACK
6
CONTINUOUS
10
119.223
20
-118.049
11
119.229
21
-118.042
0
LINE
8
BLACK
6
CONTINUOUS
10
119.229
20
-118.042
11
119.233
21
-118.035
0
LINE
8
BLACK
6
CONTINUOUS
10
119.233
20
-118.035
11
119.24
21
-118.029
0
LINE
8
BLACK
6
CONTINUOUS
10
119.24
20
-118.029
11
121.134
21
-116.44
0
LINE
8
BLACK
6
CONTINUOUS
10
121.134
20
-116.44
11
121.134
21
-116.44
0
LINE
8
BLACK
6
CONTINUOUS
10
121.134
20
-116.44
11
121.285
21
-116.313
0
LINE
8
BLACK
6
CONTINUOUS
10
121.285
20
-116.313
11
121.285
21
-116.313
0
LINE
8
BLACK
6
CONTINUOUS
10
121.285
20
-116.313
11
124.982
21
-113.211
0
LINE
8
BLACK
6
CONTINUOUS
10
124.982
20
-113.211
11
125.005
21
-113.191
0
LINE
8
BLACK
6
CONTINUOUS
10
125.005
20
-113.191
11
125.02
21
-113.174
0
LINE
8
BLACK
6
CONTINUOUS
10
125.02
20
-113.174
11
119.524
21
-113.174
0
LINE
8
BLACK
6
CONTINUOUS
10
119.524
20
-113.174
11
119.524
21
-113.174
0
LINE
8
BLACK
6
CONTINUOUS
10
119.524
20
-113.174
11
119.515
21
-113.174
0
LINE
8
BLACK
6
CONTINUOUS
10
119.515
20
-113.174
11
119.507
21
-113.171
0
LINE
8
BLACK
6
CONTINUOUS
10
119.507
20
-113.171
11
119.498
21
-113.169
0
LINE
8
BLACK
6
CONTINUOUS
10
119.498
20
-113.169
11
119.49
21
-113.165
0
LINE
8
BLACK
6
CONTINUOUS
10
119.49
20
-113.165
11
119.482
21
-113.162
0
LINE
8
BLACK
6
CONTINUOUS
10
119.482
20
-113.162
11
119.475
21
-113.156
0
LINE
8
BLACK
6
CONTINUOUS
10
119.475
20
-113.156
11
119.468
21
-113.152
0
LINE
8
BLACK
6
CONTINUOUS
10
119.468
20
-113.152
11
119.462
21
-113.145
0
LINE
8
BLACK
6
CONTINUOUS
10
119.462
20
-113.145
11
119.455
21
-113.139
0
LINE
8
BLACK
6
CONTINUOUS
10
119.455
20
-113.139
11
119.451
21
-113.131
0
LINE
8
BLACK
6
CONTINUOUS
10
119.451
20
-113.131
11
119.445
21
-113.125
0
LINE
8
BLACK
6
CONTINUOUS
10
119.445
20
-113.125
11
119.442
21
-113.116
0
LINE
8
BLACK
6
CONTINUOUS
10
119.442
20
-113.116
11
119.437
21
-113.109
0
LINE
8
BLACK
6
CONTINUOUS
10
119.437
20
-113.109
11
119.436
21
-113.1
0
LINE
8
BLACK
6
CONTINUOUS
10
119.436
20
-113.1
11
119.435
21
-113.098
0
LINE
8
BLACK
6
CONTINUOUS
10
119.435
20
-113.098
11
119.321
21
-113.098
0
LINE
8
BLACK
6
CONTINUOUS
10
119.321
20
-113.098
11
119.312
21
-113.096
0
LINE
8
BLACK
6
CONTINUOUS
10
119.312
20
-113.096
11
119.312
21
-113.096
0
LINE
8
BLACK
6
CONTINUOUS
10
119.312
20
-113.096
11
118.982
21
-113.038
0
LINE
8
BLACK
6
CONTINUOUS
10
118.982
20
-113.038
11
118.969
21
-113.033
0
LINE
8
BLACK
6
CONTINUOUS
10
118.969
20
-113.033
11
118.949
21
-113.026
0
LINE
8
BLACK
6
CONTINUOUS
10
118.949
20
-113.026
11
118.659
21
-112.858
0
LINE
8
BLACK
6
CONTINUOUS
10
118.659
20
-112.858
11
118.645
21
-112.846
0
LINE
8
BLACK
6
CONTINUOUS
10
118.645
20
-112.846
11
118.633
21
-112.836
0
LINE
8
BLACK
6
CONTINUOUS
10
118.633
20
-112.836
11
118.417
21
-112.579
0
LINE
8
BLACK
6
CONTINUOUS
10
118.417
20
-112.579
11
118.4
21
-112.549
0
LINE
8
BLACK
6
CONTINUOUS
10
118.4
20
-112.549
11
118.4
21
-112.549
0
LINE
8
BLACK
6
CONTINUOUS
10
118.4
20
-112.549
11
118.285
21
-112.234
0
LINE
8
BLACK
6
CONTINUOUS
10
118.285
20
-112.234
11
118.283
21
-112.221
0
LINE
8
BLACK
6
CONTINUOUS
10
118.283
20
-112.221
11
118.279
21
-112.209
0
LINE
8
BLACK
6
CONTINUOUS
10
118.279
20
-112.209
11
118.265
21
-112.045
0
LINE
8
BLACK
6
CONTINUOUS
10
118.265
20
-112.045
11
118.264
21
-112.041
0
LINE
8
BLACK
6
CONTINUOUS
10
118.264
20
-112.041
11
118.264
21
-91.3065
0
LINE
8
BLACK
6
CONTINUOUS
10
118.264
20
-91.3065
11
118.266
21
-91.2978
0
LINE
8
BLACK
6
CONTINUOUS
10
118.266
20
-91.2978
11
118.266
21
-91.2978
0
LINE
8
BLACK
6
CONTINUOUS
10
118.266
20
-91.2978
11
118.324
21
-90.9677
0
LINE
8
BLACK
6
CONTINUOUS
10
118.324
20
-90.9677
11
118.326
21
-90.9618
0
LINE
8
BLACK
6
CONTINUOUS
10
118.326
20
-90.9618
11
118.336
21
-90.9351
0
LINE
8
BLACK
6
CONTINUOUS
10
118.336
20
-90.9351
11
118.504
21
-90.6448
0
LINE
8
BLACK
6
CONTINUOUS
10
118.504
20
-90.6448
11
118.515
21
-90.6307
0
LINE
8
BLACK
6
CONTINUOUS
10
118.515
20
-90.6307
11
118.526
21
-90.6182
0
LINE
8
BLACK
6
CONTINUOUS
10
118.526
20
-90.6182
11
118.783
21
-90.4027
0
LINE
8
BLACK
6
CONTINUOUS
10
118.783
20
-90.4027
11
118.813
21
-90.3853
0
LINE
8
BLACK
6
CONTINUOUS
10
118.813
20
-90.3853
11
119.128
21
-90.2707
0
LINE
8
BLACK
6
CONTINUOUS
10
119.128
20
-90.2707
11
119.141
21
-90.2684
0
LINE
8
BLACK
6
CONTINUOUS
10
119.141
20
-90.2684
11
119.153
21
-90.265
0
LINE
8
BLACK
6
CONTINUOUS
10
119.153
20
-90.265
11
119.317
21
-90.2508
0
LINE
8
BLACK
6
CONTINUOUS
10
119.317
20
-90.2508
11
119.321
21
-90.25
0
LINE
8
BLACK
6
CONTINUOUS
10
119.321
20
-90.25
11
119.435
21
-90.25
0
LINE
8
BLACK
6
CONTINUOUS
10
119.435
20
-90.25
11
119.436
21
-90.2478
0
LINE
8
BLACK
6
CONTINUOUS
10
119.436
20
-90.2478
11
119.437
21
-90.2391
0
LINE
8
BLACK
6
CONTINUOUS
10
119.437
20
-90.2391
11
119.442
21
-90.2314
0
LINE
8
BLACK
6
CONTINUOUS
10
119.442
20
-90.2314
11
119.445
21
-90.223
0
LINE
8
BLACK
6
CONTINUOUS
10
119.445
20
-90.223
11
119.451
21
-90.2162
0
LINE
8
BLACK
6
CONTINUOUS
10
119.451
20
-90.2162
11
119.455
21
-90.2085
0
LINE
8
BLACK
6
CONTINUOUS
10
119.455
20
-90.2085
11
119.462
21
-90.2028
0
LINE
8
BLACK
6
CONTINUOUS
10
119.462
20
-90.2028
11
119.468
21
-90.196
0
LINE
8
BLACK
6
CONTINUOUS
10
119.468
20
-90.196
11
119.475
21
-90.1916
0
LINE
8
BLACK
6
CONTINUOUS
10
119.475
20
-90.1916
11
119.482
21
-90.1859
0
LINE
8
BLACK
6
CONTINUOUS
10
119.482
20
-90.1859
11
119.49
21
-90.1828
0
LINE
8
BLACK
6
CONTINUOUS
10
119.49
20
-90.1828
11
119.498
21
-90.1784
0
LINE
8
BLACK
6
CONTINUOUS
10
119.498
20
-90.1784
11
119.507
21
-90.1768
0
LINE
8
BLACK
6
CONTINUOUS
10
119.507
20
-90.1768
11
119.515
21
-90.1738
0
LINE
8
BLACK
6
CONTINUOUS
10
119.515
20
-90.1738
11
119.524
21
-90.1738
0
LINE
8
BLACK
6
CONTINUOUS
10
119.524
20
-90.1738
11
119.524
21
-90.1738
0
LINE
8
BLACK
6
CONTINUOUS
10
119.524
20
-90.1738
11
124.964
21
-90.1738
0
LINE
8
BLACK
6
CONTINUOUS
10
124.964
20
-90.1738
11
121.285
21
-87.0872
0
LINE
8
BLACK
6
CONTINUOUS
10
121.285
20
-87.0872
11
121.285
21
-87.0872
0
LINE
8
BLACK
6
CONTINUOUS
10
121.285
20
-87.0872
11
121.134
21
-86.9602
0
LINE
8
BLACK
6
CONTINUOUS
10
121.134
20
-86.9602
11
121.134
21
-86.9602
0
LINE
8
BLACK
6
CONTINUOUS
10
121.134
20
-86.9602
11
119.24
21
-85.371
0
LINE
8
BLACK
6
CONTINUOUS
10
119.24
20
-85.371
11
119.24
21
-85.371
0
LINE
8
BLACK
6
CONTINUOUS
10
119.24
20
-85.371
11
119.233
21
-85.3653
0
LINE
8
BLACK
6
CONTINUOUS
10
119.233
20
-85.3653
11
119.229
21
-85.3576
0
LINE
8
BLACK
6
CONTINUOUS
10
119.229
20
-85.3576
11
119.223
21
-85.3508
0
LINE
8
BLACK
6
CONTINUOUS
10
119.223
20
-85.3508
11
119.22
21
-85.3424
0
LINE
8
BLACK
6
CONTINUOUS
10
119.22
20
-85.3424
11
119.216
21
-85.3347
0
LINE
8
BLACK
6
CONTINUOUS
10
119.216
20
-85.3347
11
119.214
21
-85.326
0
LINE
8
BLACK
6
CONTINUOUS
10
119.214
20
-85.326
11
119.211
21
-85.3176
0
LINE
8
BLACK
6
CONTINUOUS
10
119.211
20
-85.3176
11
119.211
21
-85.2824
0
LINE
8
BLACK
6
CONTINUOUS
10
119.211
20
-85.2824
11
119.211
21
-83.3133
0
LINE
8
BLACK
6
CONTINUOUS
10
119.211
20
-83.3133
11
119.211
21
-83.3133
0
LINE
8
BLACK
6
CONTINUOUS
10
119.211
20
-83.3133
11
119.211
21
-83.1863
0
LINE
8
BLACK
6
CONTINUOUS
10
119.211
20
-83.1863
11
119.211
21
-83.1863
0
LINE
8
BLACK
6
CONTINUOUS
10
119.211
20
-83.1863
11
119.211
21
-76.2913
0
LINE
8
BLACK
6
CONTINUOUS
10
119.211
20
-76.2913
11
119.211
21
-76.2913
0
LINE
8
BLACK
6
CONTINUOUS
10
119.211
20
-76.2913
11
119.211
21
-76.2824
0
LINE
8
BLACK
6
CONTINUOUS
10
119.211
20
-76.2824
11
119.214
21
-76.274
0
LINE
8
BLACK
6
CONTINUOUS
10
119.214
20
-76.274
11
119.216
21
-76.2653
0
LINE
8
BLACK
6
CONTINUOUS
10
119.216
20
-76.2653
11
119.22
21
-76.2576
0
LINE
8
BLACK
6
CONTINUOUS
10
119.22
20
-76.2576
11
119.223
21
-76.2492
0
LINE
8
BLACK
6
CONTINUOUS
10
119.223
20
-76.2492
11
119.229
21
-76.2424
0
LINE
8
BLACK
6
CONTINUOUS
10
119.229
20
-76.2424
11
119.233
21
-76.2347
0
LINE
8
BLACK
6
CONTINUOUS
10
119.233
20
-76.2347
11
119.24
21
-76.229
0
LINE
8
BLACK
6
CONTINUOUS
10
119.24
20
-76.229
11
119.246
21
-76.2222
0
LINE
8
BLACK
6
CONTINUOUS
10
119.246
20
-76.2222
11
119.253
21
-76.2178
0
LINE
8
BLACK
6
CONTINUOUS
10
119.253
20
-76.2178
11
119.26
21
-76.2121
0
LINE
8
BLACK
6
CONTINUOUS
10
119.26
20
-76.2121
11
119.269
21
-76.209
0
LINE
8
BLACK
6
CONTINUOUS
10
119.269
20
-76.209
11
119.276
21
-76.2046
0
LINE
8
BLACK
6
CONTINUOUS
10
119.276
20
-76.2046
11
119.285
21
-76.203
0
LINE
8
BLACK
6
CONTINUOUS
10
119.285
20
-76.203
11
119.293
21
-76.2
0
LINE
8
BLACK
6
CONTINUOUS
10
119.293
20
-76.2
11
119.302
21
-76.2
0
LINE
8
BLACK
6
CONTINUOUS
10
119.302
20
-76.2
11
119.302
21
-76.2
0
LINE
8
BLACK
6
CONTINUOUS
10
119.302
20
-76.2
11
165.32
21
-76.2
0
LINE
8
BLACK
6
CONTINUOUS
10
165.32
20
-76.2
11
165.32
21
-76.2
0
LINE
8
BLACK
6
CONTINUOUS
10
165.32
20
-76.2
11
165.329
21
-76.2
0
LINE
8
BLACK
6
CONTINUOUS
10
165.329
20
-76.2
11
165.337
21
-76.203
0
LINE
8
BLACK
6
CONTINUOUS
10
165.337
20
-76.203
11
165.346
21
-76.2046
0
LINE
8
BLACK
6
CONTINUOUS
10
165.346
20
-76.2046
11
165.353
21
-76.209
0
LINE
8
BLACK
6
CONTINUOUS
10
165.353
20
-76.209
11
165.362
21
-76.2121
0
LINE
8
BLACK
6
CONTINUOUS
10
165.362
20
-76.2121
11
165.369
21
-76.2178
0
LINE
8
BLACK
6
CONTINUOUS
10
165.369
20
-76.2178
11
165.376
21
-76.2222
0
LINE
8
BLACK
6
CONTINUOUS
10
165.376
20
-76.2222
11
165.382
21
-76.229
0
LINE
8
BLACK
6
CONTINUOUS
10
165.382
20
-76.229
11
165.389
21
-76.2347
0
LINE
8
BLACK
6
CONTINUOUS
10
165.389
20
-76.2347
11
165.393
21
-76.2424
0
LINE
8
BLACK
6
CONTINUOUS
10
165.393
20
-76.2424
11
165.399
21
-76.2492
0
LINE
8
BLACK
6
CONTINUOUS
10
165.399
20
-76.2492
11
165.402
21
-76.2576
0
LINE
8
BLACK
6
CONTINUOUS
10
165.402
20
-76.2576
11
165.406
21
-76.2653
0
LINE
8
BLACK
6
CONTINUOUS
10
165.406
20
-76.2653
11
165.408
21
-76.274
0
LINE
8
BLACK
6
CONTINUOUS
10
165.408
20
-76.274
11
165.411
21
-76.2824
0
LINE
8
BLACK
6
CONTINUOUS
10
165.411
20
-76.2824
11
165.411
21
-76.2912
0
LINE
8
BLACK
6
CONTINUOUS
10
165.411
20
-76.2912
11
165.411
21
-76.2913
0
LINE
8
BLACK
6
CONTINUOUS
10
165.411
20
-76.2913
11
165.411
21
-85.3087
0
LINE
8
BLACK
6
CONTINUOUS
10
165.411
20
-85.3087
11
165.411
21
-85.3088
0
LINE
8
BLACK
6
CONTINUOUS
10
165.211
20
-127
11
165.211
21
-120.214
0
LINE
8
BLACK
6
CONTINUOUS
10
165.211
20
-120.214
11
165.211
21
-120.214
0
LINE
8
BLACK
6
CONTINUOUS
10
165.211
20
-120.214
11
165.211
21
-120.087
0
LINE
8
BLACK
6
CONTINUOUS
10
165.211
20
-120.087
11
165.211
21
-120.087
0
LINE
8
BLACK
6
CONTINUOUS
10
165.211
20
-120.087
11
165.211
21
-118.147
0
LINE
8
BLACK
6
CONTINUOUS
10
165.211
20
-118.147
11
163.373
21
-116.604
0
LINE
8
BLACK
6
CONTINUOUS
10
163.373
20
-116.604
11
163.373
21
-116.604
0
LINE
8
BLACK
6
CONTINUOUS
10
163.373
20
-116.604
11
163.221
21
-116.477
0
LINE
8
BLACK
6
CONTINUOUS
10
163.221
20
-116.477
11
163.221
21
-116.477
0
LINE
8
BLACK
6
CONTINUOUS
10
163.221
20
-116.477
11
159.504
21
-113.358
0
LINE
8
BLACK
6
CONTINUOUS
10
159.504
20
-113.358
11
159.5
21
-113.353
0
LINE
8
BLACK
6
CONTINUOUS
10
159.5
20
-113.353
11
159.34
21
-113.174
0
LINE
8
BLACK
6
CONTINUOUS
10
159.34
20
-113.174
11
125.284
21
-113.174
0
LINE
8
BLACK
6
CONTINUOUS
10
125.284
20
-113.174
11
125.152
21
-113.328
0
LINE
8
BLACK
6
CONTINUOUS
10
125.152
20
-113.328
11
125.151
21
-113.329
0
LINE
8
BLACK
6
CONTINUOUS
10
125.151
20
-113.329
11
125.145
21
-113.333
0
LINE
8
BLACK
6
CONTINUOUS
10
125.145
20
-113.333
11
125.141
21
-113.338
0
LINE
8
BLACK
6
CONTINUOUS
10
125.141
20
-113.338
11
125.118
21
-113.358
0
LINE
8
BLACK
6
CONTINUOUS
10
125.118
20
-113.358
11
125.118
21
-113.358
0
LINE
8
BLACK
6
CONTINUOUS
10
125.118
20
-113.358
11
121.414
21
-116.466
0
LINE
8
BLACK
6
CONTINUOUS
10
121.414
20
-116.466
11
121.414
21
-116.466
0
LINE
8
BLACK
6
CONTINUOUS
10
121.414
20
-116.466
11
121.263
21
-116.593
0
LINE
8
BLACK
6
CONTINUOUS
10
121.263
20
-116.593
11
121.263
21
-116.593
0
LINE
8
BLACK
6
CONTINUOUS
10
121.263
20
-116.593
11
119.411
21
-118.147
0
LINE
8
BLACK
6
CONTINUOUS
10
119.411
20
-118.147
11
119.411
21
-127
0
LINE
8
BLACK
6
CONTINUOUS
10
119.411
20
-127
11
165.211
21
-127
0
LINE
8
BLACK
6
CONTINUOUS
10
119.631
20
-90.3738
11
119.63
21
-90.376
0
LINE
8
BLACK
6
CONTINUOUS
10
119.63
20
-90.376
11
119.628
21
-90.3847
0
LINE
8
BLACK
6
CONTINUOUS
10
119.628
20
-90.3847
11
119.624
21
-90.3924
0
LINE
8
BLACK
6
CONTINUOUS
10
119.624
20
-90.3924
11
119.621
21
-90.4008
0
LINE
8
BLACK
6
CONTINUOUS
10
119.621
20
-90.4008
11
119.615
21
-90.4076
0
LINE
8
BLACK
6
CONTINUOUS
10
119.615
20
-90.4076
11
119.611
21
-90.4153
0
LINE
8
BLACK
6
CONTINUOUS
10
119.611
20
-90.4153
11
119.604
21
-90.421
0
LINE
8
BLACK
6
CONTINUOUS
10
119.604
20
-90.421
11
119.598
21
-90.4278
0
LINE
8
BLACK
6
CONTINUOUS
10
119.598
20
-90.4278
11
119.59
21
-90.4322
0
LINE
8
BLACK
6
CONTINUOUS
10
119.59
20
-90.4322
11
119.584
21
-90.4379
0
LINE
8
BLACK
6
CONTINUOUS
10
119.584
20
-90.4379
11
119.575
21
-90.441
0
LINE
8
BLACK
6
CONTINUOUS
10
119.575
20
-90.441
11
119.568
21
-90.4454
0
LINE
8
BLACK
6
CONTINUOUS
10
119.568
20
-90.4454
11
119.559
21
-90.447
0
LINE
8
BLACK
6
CONTINUOUS
10
119.559
20
-90.447
11
119.55
21
-90.45
0
LINE
8
BLACK
6
CONTINUOUS
10
119.55
20
-90.45
11
119.542
21
-90.45
0
LINE
8
BLACK
6
CONTINUOUS
10
119.542
20
-90.45
11
119.542
21
-90.45
0
LINE
8
BLACK
6
CONTINUOUS
10
119.542
20
-90.45
11
119.334
21
-90.45
0
LINE
8
BLACK
6
CONTINUOUS
10
119.334
20
-90.45
11
119.184
21
-90.4631
0
LINE
8
BLACK
6
CONTINUOUS
10
119.184
20
-90.4631
11
118.898
21
-90.5673
0
LINE
8
BLACK
6
CONTINUOUS
10
118.898
20
-90.5673
11
118.668
21
-90.7601
0
LINE
8
BLACK
6
CONTINUOUS
10
118.668
20
-90.7601
11
118.518
21
-91.0198
0
LINE
8
BLACK
6
CONTINUOUS
10
118.518
20
-91.0198
11
118.464
21
-91.324
0
LINE
8
BLACK
6
CONTINUOUS
10
118.464
20
-91.324
11
118.464
21
-112.028
0
LINE
8
BLACK
6
CONTINUOUS
10
118.464
20
-112.028
11
118.478
21
-112.178
0
LINE
8
BLACK
6
CONTINUOUS
10
118.478
20
-112.178
11
118.582
21
-112.464
0
LINE
8
BLACK
6
CONTINUOUS
10
118.582
20
-112.464
11
118.774
21
-112.694
0
LINE
8
BLACK
6
CONTINUOUS
10
118.774
20
-112.694
11
119.034
21
-112.844
0
LINE
8
BLACK
6
CONTINUOUS
10
119.034
20
-112.844
11
119.338
21
-112.898
0
LINE
8
BLACK
6
CONTINUOUS
10
119.338
20
-112.898
11
119.542
21
-112.898
0
LINE
8
BLACK
6
CONTINUOUS
10
119.542
20
-112.898
11
119.542
21
-112.898
0
LINE
8
BLACK
6
CONTINUOUS
10
119.542
20
-112.898
11
119.55
21
-112.898
0
LINE
8
BLACK
6
CONTINUOUS
10
119.55
20
-112.898
11
119.559
21
-112.901
0
LINE
8
BLACK
6
CONTINUOUS
10
119.559
20
-112.901
11
119.568
21
-112.902
0
LINE
8
BLACK
6
CONTINUOUS
10
119.568
20
-112.902
11
119.575
21
-112.907
0
LINE
8
BLACK
6
CONTINUOUS
10
119.575
20
-112.907
11
119.584
21
-112.91
0
LINE
8
BLACK
6
CONTINUOUS
10
119.584
20
-112.91
11
119.59
21
-112.915
0
LINE
8
BLACK
6
CONTINUOUS
10
119.59
20
-112.915
11
119.598
21
-112.92
0
LINE
8
BLACK
6
CONTINUOUS
10
119.598
20
-112.92
11
119.604
21
-112.927
0
LINE
8
BLACK
6
CONTINUOUS
10
119.604
20
-112.927
11
119.611
21
-112.932
0
LINE
8
BLACK
6
CONTINUOUS
10
119.611
20
-112.932
11
119.615
21
-112.94
0
LINE
8
BLACK
6
CONTINUOUS
10
119.615
20
-112.94
11
119.621
21
-112.947
0
LINE
8
BLACK
6
CONTINUOUS
10
119.621
20
-112.947
11
119.624
21
-112.955
0
LINE
8
BLACK
6
CONTINUOUS
10
119.624
20
-112.955
11
119.628
21
-112.963
0
LINE
8
BLACK
6
CONTINUOUS
10
119.628
20
-112.963
11
119.63
21
-112.972
0
LINE
8
BLACK
6
CONTINUOUS
10
119.63
20
-112.972
11
119.631
21
-112.974
0
LINE
8
BLACK
6
CONTINUOUS
10
119.631
20
-112.974
11
125.192
21
-112.974
0
LINE
8
BLACK
6
CONTINUOUS
10
125.192
20
-112.974
11
125.361
21
-112.778
0
LINE
8
BLACK
6
CONTINUOUS
10
125.361
20
-112.778
11
125.584
21
-112.288
0
LINE
8
BLACK
6
CONTINUOUS
10
125.584
20
-112.288
11
125.661
21
-111.748
0
LINE
8
BLACK
6
CONTINUOUS
10
125.661
20
-111.748
11
125.661
21
-91.6452
0
LINE
8
BLACK
6
CONTINUOUS
10
125.661
20
-91.6452
11
125.661
21
-91.615
0
LINE
8
BLACK
6
CONTINUOUS
10
125.661
20
-91.615
11
125.573
21
-91.0769
0
LINE
8
BLACK
6
CONTINUOUS
10
125.573
20
-91.0769
11
125.341
21
-90.5912
0
LINE
8
BLACK
6
CONTINUOUS
10
125.341
20
-90.5912
11
125.146
21
-90.3738
0
LINE
8
BLACK
6
CONTINUOUS
10
125.146
20
-90.3738
11
119.631
21
-90.3738
0
LINE
8
BLACK
6
CONTINUOUS
10
125.415
20
-90.3738
11
125.499
21
-90.4684
0
LINE
8
BLACK
6
CONTINUOUS
10
125.499
20
-90.4684
11
125.499
21
-90.4684
0
LINE
8
BLACK
6
CONTINUOUS
10
125.499
20
-90.4684
11
125.499
21
-90.4684
0
LINE
8
BLACK
6
CONTINUOUS
10
125.499
20
-90.4684
11
125.5
21
-90.4693
0
LINE
8
BLACK
6
CONTINUOUS
10
125.5
20
-90.4693
11
125.508
21
-90.4807
0
LINE
8
BLACK
6
CONTINUOUS
10
125.508
20
-90.4807
11
125.515
21
-90.492
0
LINE
8
BLACK
6
CONTINUOUS
10
125.515
20
-90.492
11
125.76
21
-91.0036
0
LINE
8
BLACK
6
CONTINUOUS
10
125.76
20
-91.0036
11
125.76
21
-91.0047
0
LINE
8
BLACK
6
CONTINUOUS
10
125.76
20
-91.0047
11
125.764
21
-91.0177
0
LINE
8
BLACK
6
CONTINUOUS
10
125.764
20
-91.0177
11
125.768
21
-91.0307
0
LINE
8
BLACK
6
CONTINUOUS
10
125.768
20
-91.0307
11
125.859
21
-91.5903
0
LINE
8
BLACK
6
CONTINUOUS
10
125.859
20
-91.5903
11
125.86
21
-91.5915
0
LINE
8
BLACK
6
CONTINUOUS
10
125.86
20
-91.5915
11
125.86
21
-91.5985
0
LINE
8
BLACK
6
CONTINUOUS
10
125.86
20
-91.5985
11
125.861
21
-91.6055
0
LINE
8
BLACK
6
CONTINUOUS
10
125.861
20
-91.6055
11
125.861
21
-91.6356
0
LINE
8
BLACK
6
CONTINUOUS
10
125.861
20
-91.6356
11
125.861
21
-91.6361
0
LINE
8
BLACK
6
CONTINUOUS
10
125.861
20
-91.6361
11
125.861
21
-111.764
0
LINE
8
BLACK
6
CONTINUOUS
10
125.861
20
-111.764
11
125.86
21
-111.771
0
LINE
8
BLACK
6
CONTINUOUS
10
125.86
20
-111.771
11
125.78
21
-112.331
0
LINE
8
BLACK
6
CONTINUOUS
10
125.78
20
-112.331
11
125.779
21
-112.332
0
LINE
8
BLACK
6
CONTINUOUS
10
125.779
20
-112.332
11
125.775
21
-112.345
0
LINE
8
BLACK
6
CONTINUOUS
10
125.775
20
-112.345
11
125.772
21
-112.358
0
LINE
8
BLACK
6
CONTINUOUS
10
125.772
20
-112.358
11
125.537
21
-112.874
0
LINE
8
BLACK
6
CONTINUOUS
10
125.537
20
-112.874
11
125.537
21
-112.874
0
LINE
8
BLACK
6
CONTINUOUS
10
125.537
20
-112.874
11
125.537
21
-112.874
0
LINE
8
BLACK
6
CONTINUOUS
10
125.537
20
-112.874
11
125.536
21
-112.875
0
LINE
8
BLACK
6
CONTINUOUS
10
125.536
20
-112.875
11
125.529
21
-112.887
0
LINE
8
BLACK
6
CONTINUOUS
10
125.529
20
-112.887
11
125.522
21
-112.898
0
LINE
8
BLACK
6
CONTINUOUS
10
125.522
20
-112.898
11
125.456
21
-112.974
0
LINE
8
BLACK
6
CONTINUOUS
10
125.456
20
-112.974
11
159.16
21
-112.974
0
LINE
8
BLACK
6
CONTINUOUS
10
159.16
20
-112.974
11
159.123
21
-112.932
0
LINE
8
BLACK
6
CONTINUOUS
10
159.123
20
-112.932
11
159.123
21
-112.932
0
LINE
8
BLACK
6
CONTINUOUS
10
159.123
20
-112.932
11
159.123
21
-112.932
0
LINE
8
BLACK
6
CONTINUOUS
10
159.123
20
-112.932
11
159.122
21
-112.931
0
LINE
8
BLACK
6
CONTINUOUS
10
159.122
20
-112.931
11
159.114
21
-112.919
0
LINE
8
BLACK
6
CONTINUOUS
10
159.114
20
-112.919
11
159.107
21
-112.908
0
LINE
8
BLACK
6
CONTINUOUS
10
159.107
20
-112.908
11
158.862
21
-112.396
0
LINE
8
BLACK
6
CONTINUOUS
10
158.862
20
-112.396
11
158.862
21
-112.395
0
LINE
8
BLACK
6
CONTINUOUS
10
158.862
20
-112.395
11
158.858
21
-112.382
0
LINE
8
BLACK
6
CONTINUOUS
10
158.858
20
-112.382
11
158.854
21
-112.369
0
LINE
8
BLACK
6
CONTINUOUS
10
158.854
20
-112.369
11
158.763
21
-111.81
0
LINE
8
BLACK
6
CONTINUOUS
10
158.763
20
-111.81
11
158.762
21
-111.808
0
LINE
8
BLACK
6
CONTINUOUS
10
158.762
20
-111.808
11
158.762
21
-111.801
0
LINE
8
BLACK
6
CONTINUOUS
10
158.762
20
-111.801
11
158.761
21
-111.795
0
LINE
8
BLACK
6
CONTINUOUS
10
158.761
20
-111.795
11
158.761
21
-111.764
0
LINE
8
BLACK
6
CONTINUOUS
10
158.761
20
-111.764
11
158.761
21
-111.764
0
LINE
8
BLACK
6
CONTINUOUS
10
158.761
20
-111.764
11
158.761
21
-91.6361
0
LINE
8
BLACK
6
CONTINUOUS
10
158.761
20
-91.6361
11
158.762
21
-91.6291
0
LINE
8
BLACK
6
CONTINUOUS
10
158.762
20
-91.6291
11
158.842
21
-91.0693
0
LINE
8
BLACK
6
CONTINUOUS
10
158.842
20
-91.0693
11
158.842
21
-91.0693
0
LINE
8
BLACK
6
CONTINUOUS
10
158.842
20
-91.0693
11
158.842
21
-91.0693
0
LINE
8
BLACK
6
CONTINUOUS
10
158.842
20
-91.0693
11
158.843
21
-91.0681
0
LINE
8
BLACK
6
CONTINUOUS
10
158.843
20
-91.0681
11
158.847
21
-91.0551
0
LINE
8
BLACK
6
CONTINUOUS
10
158.847
20
-91.0551
11
158.85
21
-91.0421
0
LINE
8
BLACK
6
CONTINUOUS
10
158.85
20
-91.0421
11
159.085
21
-90.5259
0
LINE
8
BLACK
6
CONTINUOUS
10
159.085
20
-90.5259
11
159.085
21
-90.5259
0
LINE
8
BLACK
6
CONTINUOUS
10
159.085
20
-90.5259
11
159.085
21
-90.5259
0
LINE
8
BLACK
6
CONTINUOUS
10
159.085
20
-90.5259
11
159.086
21
-90.5248
0
LINE
8
BLACK
6
CONTINUOUS
10
159.086
20
-90.5248
11
159.093
21
-90.5134
0
LINE
8
BLACK
6
CONTINUOUS
10
159.093
20
-90.5134
11
159.1
21
-90.502
0
LINE
8
BLACK
6
CONTINUOUS
10
159.1
20
-90.502
11
159.211
21
-90.3738
0
LINE
8
BLACK
6
CONTINUOUS
10
159.211
20
-90.3738
11
125.415
21
-90.3738
0
LINE
8
BLACK
6
CONTINUOUS
10
159.475
20
-90.3738
11
159.261
21
-90.6217
0
LINE
8
BLACK
6
CONTINUOUS
10
159.261
20
-90.6217
11
159.038
21
-91.1118
0
LINE
8
BLACK
6
CONTINUOUS
10
159.038
20
-91.1118
11
158.961
21
-91.6519
0
LINE
8
BLACK
6
CONTINUOUS
10
158.961
20
-91.6519
11
158.961
21
-111.755
0
LINE
8
BLACK
6
CONTINUOUS
10
158.961
20
-111.755
11
158.961
21
-111.785
0
LINE
8
BLACK
6
CONTINUOUS
10
158.961
20
-111.785
11
159.049
21
-112.323
0
LINE
8
BLACK
6
CONTINUOUS
10
159.049
20
-112.323
11
159.281
21
-112.809
0
LINE
8
BLACK
6
CONTINUOUS
10
159.281
20
-112.809
11
159.429
21
-112.974
0
LINE
8
BLACK
6
CONTINUOUS
10
159.429
20
-112.974
11
165.01
21
-112.974
0
LINE
8
BLACK
6
CONTINUOUS
10
165.01
20
-112.974
11
165.011
21
-112.972
0
LINE
8
BLACK
6
CONTINUOUS
10
165.011
20
-112.972
11
165.012
21
-112.963
0
LINE
8
BLACK
6
CONTINUOUS
10
165.012
20
-112.963
11
165.017
21
-112.955
0
LINE
8
BLACK
6
CONTINUOUS
10
165.017
20
-112.955
11
165.02
21
-112.947
0
LINE
8
BLACK
6
CONTINUOUS
10
165.02
20
-112.947
11
165.026
21
-112.94
0
LINE
8
BLACK
6
CONTINUOUS
10
165.026
20
-112.94
11
165.03
21
-112.932
0
LINE
8
BLACK
6
CONTINUOUS
10
165.03
20
-112.932
11
165.037
21
-112.927
0
LINE
8
BLACK
6
CONTINUOUS
10
165.037
20
-112.927
11
165.043
21
-112.92
0
LINE
8
BLACK
6
CONTINUOUS
10
165.043
20
-112.92
11
165.05
21
-112.915
0
LINE
8
BLACK
6
CONTINUOUS
10
165.05
20
-112.915
11
165.057
21
-112.91
0
LINE
8
BLACK
6
CONTINUOUS
10
165.057
20
-112.91
11
165.065
21
-112.907
0
LINE
8
BLACK
6
CONTINUOUS
10
165.065
20
-112.907
11
165.073
21
-112.902
0
LINE
8
BLACK
6
CONTINUOUS
10
165.073
20
-112.902
11
165.082
21
-112.901
0
LINE
8
BLACK
6
CONTINUOUS
10
165.082
20
-112.901
11
165.09
21
-112.898
0
LINE
8
BLACK
6
CONTINUOUS
10
165.09
20
-112.898
11
165.099
21
-112.898
0
LINE
8
BLACK
6
CONTINUOUS
10
165.099
20
-112.898
11
165.099
21
-112.898
0
LINE
8
BLACK
6
CONTINUOUS
10
165.099
20
-112.898
11
165.307
21
-112.898
0
LINE
8
BLACK
6
CONTINUOUS
10
165.307
20
-112.898
11
165.457
21
-112.884
0
LINE
8
BLACK
6
CONTINUOUS
10
165.457
20
-112.884
11
165.743
21
-112.78
0
LINE
8
BLACK
6
CONTINUOUS
10
165.743
20
-112.78
11
165.973
21
-112.588
0
LINE
8
BLACK
6
CONTINUOUS
10
165.973
20
-112.588
11
166.123
21
-112.328
0
LINE
8
BLACK
6
CONTINUOUS
10
166.123
20
-112.328
11
166.176
21
-112.024
0
LINE
8
BLACK
6
CONTINUOUS
10
166.176
20
-112.024
11
166.176
21
-91.3196
0
LINE
8
BLACK
6
CONTINUOUS
10
166.176
20
-91.3196
11
166.163
21
-91.1694
0
LINE
8
BLACK
6
CONTINUOUS
10
166.163
20
-91.1694
11
166.059
21
-90.8834
0
LINE
8
BLACK
6
CONTINUOUS
10
166.059
20
-90.8834
11
165.866
21
-90.6536
0
LINE
8
BLACK
6
CONTINUOUS
10
165.866
20
-90.6536
11
165.606
21
-90.5036
0
LINE
8
BLACK
6
CONTINUOUS
10
165.606
20
-90.5036
11
165.302
21
-90.45
0
LINE
8
BLACK
6
CONTINUOUS
10
165.302
20
-90.45
11
165.099
21
-90.45
0
LINE
8
BLACK
6
CONTINUOUS
10
165.099
20
-90.45
11
165.099
21
-90.45
0
LINE
8
BLACK
6
CONTINUOUS
10
165.099
20
-90.45
11
165.09
21
-90.45
0
LINE
8
BLACK
6
CONTINUOUS
10
165.09
20
-90.45
11
165.082
21
-90.447
0
LINE
8
BLACK
6
CONTINUOUS
10
165.082
20
-90.447
11
165.073
21
-90.4454
0
LINE
8
BLACK
6
CONTINUOUS
10
165.073
20
-90.4454
11
165.065
21
-90.441
0
LINE
8
BLACK
6
CONTINUOUS
10
165.065
20
-90.441
11
165.057
21
-90.4379
0
LINE
8
BLACK
6
CONTINUOUS
10
165.057
20
-90.4379
11
165.05
21
-90.4322
0
LINE
8
BLACK
6
CONTINUOUS
10
165.05
20
-90.4322
11
165.043
21
-90.4278
0
LINE
8
BLACK
6
CONTINUOUS
10
165.043
20
-90.4278
11
165.037
21
-90.421
0
LINE
8
BLACK
6
CONTINUOUS
10
165.037
20
-90.421
11
165.03
21
-90.4153
0
LINE
8
BLACK
6
CONTINUOUS
10
165.03
20
-90.4153
11
165.026
21
-90.4076
0
LINE
8
BLACK
6
CONTINUOUS
10
165.026
20
-90.4076
11
165.02
21
-90.4008
0
LINE
8
BLACK
6
CONTINUOUS
10
165.02
20
-90.4008
11
165.017
21
-90.3924
0
LINE
8
BLACK
6
CONTINUOUS
10
165.017
20
-90.3924
11
165.012
21
-90.3847
0
LINE
8
BLACK
6
CONTINUOUS
10
165.012
20
-90.3847
11
165.011
21
-90.376
0
LINE
8
BLACK
6
CONTINUOUS
10
165.011
20
-90.376
11
165.01
21
-90.3738
0
LINE
8
BLACK
6
CONTINUOUS
10
165.01
20
-90.3738
11
159.475
21
-90.3738
0
LINE
8
BLACK
6
CONTINUOUS
10
121.263
20
-86.807
11
121.263
21
-86.807
0
LINE
8
BLACK
6
CONTINUOUS
10
121.263
20
-86.807
11
121.414
21
-86.934
0
LINE
8
BLACK
6
CONTINUOUS
10
121.414
20
-86.934
11
121.414
21
-86.934
0
LINE
8
BLACK
6
CONTINUOUS
10
121.414
20
-86.934
11
125.118
21
-90.0417
0
LINE
8
BLACK
6
CONTINUOUS
10
125.118
20
-90.0417
11
125.122
21
-90.0472
0
LINE
8
BLACK
6
CONTINUOUS
10
125.122
20
-90.0472
11
125.236
21
-90.1738
0
LINE
8
BLACK
6
CONTINUOUS
10
125.236
20
-90.1738
11
159.383
21
-90.1738
0
LINE
8
BLACK
6
CONTINUOUS
10
159.383
20
-90.1738
11
159.47
21
-90.0724
0
LINE
8
BLACK
6
CONTINUOUS
10
159.47
20
-90.0724
11
159.471
21
-90.0715
0
LINE
8
BLACK
6
CONTINUOUS
10
159.471
20
-90.0715
11
159.477
21
-90.067
0
LINE
8
BLACK
6
CONTINUOUS
10
159.477
20
-90.067
11
159.481
21
-90.0617
0
LINE
8
BLACK
6
CONTINUOUS
10
159.481
20
-90.0617
11
159.504
21
-90.0421
0
LINE
8
BLACK
6
CONTINUOUS
10
159.504
20
-90.0421
11
159.504
21
-90.0417
0
LINE
8
BLACK
6
CONTINUOUS
10
159.504
20
-90.0417
11
159.511
21
-90.0362
0
LINE
8
BLACK
6
CONTINUOUS
10
159.511
20
-90.0362
11
159.511
21
-90.0359
0
LINE
8
BLACK
6
CONTINUOUS
10
159.511
20
-90.0359
11
159.511
21
-90.0359
0
LINE
8
BLACK
6
CONTINUOUS
10
159.511
20
-90.0359
11
163.221
21
-86.9228
0
LINE
8
BLACK
6
CONTINUOUS
10
163.221
20
-86.9228
11
163.221
21
-86.9228
0
LINE
8
BLACK
6
CONTINUOUS
10
163.221
20
-86.9228
11
163.373
21
-86.7958
0
LINE
8
BLACK
6
CONTINUOUS
10
163.373
20
-86.7958
11
163.373
21
-86.7958
0
LINE
8
BLACK
6
CONTINUOUS
10
163.373
20
-86.7958
11
165.211
21
-85.2534
0
LINE
8
BLACK
6
CONTINUOUS
10
165.211
20
-85.2534
11
165.211
21
-83.3308
0
LINE
8
BLACK
6
CONTINUOUS
10
165.211
20
-83.3308
11
165.211
21
-83.3307
0
LINE
8
BLACK
6
CONTINUOUS
10
165.211
20
-83.3307
11
165.211
21
-83.2037
0
LINE
8
BLACK
6
CONTINUOUS
10
165.211
20
-83.2037
11
165.211
21
-83.2037
0
LINE
8
BLACK
6
CONTINUOUS
10
165.211
20
-83.2037
11
165.211
21
-76.4
0
LINE
8
BLACK
6
CONTINUOUS
10
165.211
20
-76.4
11
119.411
21
-76.4
0
LINE
8
BLACK
6
CONTINUOUS
10
119.411
20
-76.4
11
119.411
21
-85.2534
0
LINE
8
BLACK
6
CONTINUOUS
10
119.411
20
-85.2534
11
121.263
21
-86.807
0
LINE
8
BLACK
6
CONTINUOUS
10
123.188
20
-119.036
11
122.883
21
-119.292
0
LINE
8
BLACK
6
CONTINUOUS
10
122.883
20
-119.292
11
122.51
21
-119.428
0
LINE
8
BLACK
6
CONTINUOUS
10
122.51
20
-119.428
11
122.112
21
-119.428
0
LINE
8
BLACK
6
CONTINUOUS
10
122.112
20
-119.428
11
121.738
21
-119.292
0
LINE
8
BLACK
6
CONTINUOUS
10
121.738
20
-119.292
11
121.434
21
-119.036
0
LINE
8
BLACK
6
CONTINUOUS
10
121.434
20
-119.036
11
121.235
21
-118.692
0
LINE
8
BLACK
6
CONTINUOUS
10
121.235
20
-118.692
11
121.166
21
-118.3
0
LINE
8
BLACK
6
CONTINUOUS
10
121.166
20
-118.3
11
121.235
21
-117.908
0
LINE
8
BLACK
6
CONTINUOUS
10
121.235
20
-117.908
11
121.434
21
-117.564
0
LINE
8
BLACK
6
CONTINUOUS
10
121.434
20
-117.564
11
121.738
21
-117.308
0
LINE
8
BLACK
6
CONTINUOUS
10
121.738
20
-117.308
11
122.112
21
-117.172
0
LINE
8
BLACK
6
CONTINUOUS
10
122.112
20
-117.172
11
122.51
21
-117.172
0
LINE
8
BLACK
6
CONTINUOUS
10
122.51
20
-117.172
11
122.883
21
-117.308
0
LINE
8
BLACK
6
CONTINUOUS
10
122.883
20
-117.308
11
123.188
21
-117.564
0
LINE
8
BLACK
6
CONTINUOUS
10
123.188
20
-117.564
11
123.387
21
-117.908
0
LINE
8
BLACK
6
CONTINUOUS
10
123.387
20
-117.908
11
123.456
21
-118.3
0
LINE
8
BLACK
6
CONTINUOUS
10
123.456
20
-118.3
11
123.387
21
-118.692
0
LINE
8
BLACK
6
CONTINUOUS
10
123.387
20
-118.692
11
123.188
21
-119.036
0
LINE
8
BLACK
6
CONTINUOUS
10
123.02
20
-117.705
11
122.773
21
-117.499
0
LINE
8
BLACK
6
CONTINUOUS
10
122.773
20
-117.499
11
122.472
21
-117.389
0
LINE
8
BLACK
6
CONTINUOUS
10
122.472
20
-117.389
11
122.15
21
-117.389
0
LINE
8
BLACK
6
CONTINUOUS
10
122.15
20
-117.389
11
121.849
21
-117.499
0
LINE
8
BLACK
6
CONTINUOUS
10
121.849
20
-117.499
11
121.602
21
-117.705
0
LINE
8
BLACK
6
CONTINUOUS
10
121.602
20
-117.705
11
121.442
21
-117.984
0
LINE
8
BLACK
6
CONTINUOUS
10
121.442
20
-117.984
11
121.386
21
-118.3
0
LINE
8
BLACK
6
CONTINUOUS
10
121.386
20
-118.3
11
121.442
21
-118.616
0
LINE
8
BLACK
6
CONTINUOUS
10
121.442
20
-118.616
11
121.602
21
-118.895
0
LINE
8
BLACK
6
CONTINUOUS
10
121.602
20
-118.895
11
121.849
21
-119.101
0
LINE
8
BLACK
6
CONTINUOUS
10
121.849
20
-119.101
11
122.15
21
-119.211
0
LINE
8
BLACK
6
CONTINUOUS
10
122.15
20
-119.211
11
122.472
21
-119.211
0
LINE
8
BLACK
6
CONTINUOUS
10
122.472
20
-119.211
11
122.773
21
-119.101
0
LINE
8
BLACK
6
CONTINUOUS
10
122.773
20
-119.101
11
123.02
21
-118.895
0
LINE
8
BLACK
6
CONTINUOUS
10
123.02
20
-118.895
11
123.18
21
-118.616
0
LINE
8
BLACK
6
CONTINUOUS
10
123.18
20
-118.616
11
123.236
21
-118.3
0
LINE
8
BLACK
6
CONTINUOUS
10
123.236
20
-118.3
11
123.18
21
-117.984
0
LINE
8
BLACK
6
CONTINUOUS
10
123.18
20
-117.984
11
123.02
21
-117.705
0
LINE
8
BLACK
6
CONTINUOUS
10
163.188
20
-119.036
11
162.883
21
-119.292
0
LINE
8
BLACK
6
CONTINUOUS
10
162.883
20
-119.292
11
162.51
21
-119.428
0
LINE
8
BLACK
6
CONTINUOUS
10
162.51
20
-119.428
11
162.112
21
-119.428
0
LINE
8
BLACK
6
CONTINUOUS
10
162.112
20
-119.428
11
161.738
21
-119.292
0
LINE
8
BLACK
6
CONTINUOUS
10
161.738
20
-119.292
11
161.434
21
-119.036
0
LINE
8
BLACK
6
CONTINUOUS
10
161.434
20
-119.036
11
161.235
21
-118.692
0
LINE
8
BLACK
6
CONTINUOUS
10
161.235
20
-118.692
11
161.166
21
-118.3
0
LINE
8
BLACK
6
CONTINUOUS
10
161.166
20
-118.3
11
161.235
21
-117.908
0
LINE
8
BLACK
6
CONTINUOUS
10
161.235
20
-117.908
11
161.434
21
-117.564
0
LINE
8
BLACK
6
CONTINUOUS
10
161.434
20
-117.564
11
161.738
21
-117.308
0
LINE
8
BLACK
6
CONTINUOUS
10
161.738
20
-117.308
11
162.112
21
-117.172
0
LINE
8
BLACK
6
CONTINUOUS
10
162.112
20
-117.172
11
162.51
21
-117.172
0
LINE
8
BLACK
6
CONTINUOUS
10
162.51
20
-117.172
11
162.883
21
-117.308
0
LINE
8
BLACK
6
CONTINUOUS
10
162.883
20
-117.308
11
163.188
21
-117.564
0
LINE
8
BLACK
6
CONTINUOUS
10
163.188
20
-117.564
11
163.387
21
-117.908
0
LINE
8
BLACK
6
CONTINUOUS
10
163.387
20
-117.908
11
163.456
21
-118.3
0
LINE
8
BLACK
6
CONTINUOUS
10
163.456
20
-118.3
11
163.387
21
-118.692
0
LINE
8
BLACK
6
CONTINUOUS
10
163.387
20
-118.692
11
163.188
21
-119.036
0
LINE
8
BLACK
6
CONTINUOUS
10
163.02
20
-117.705
11
162.773
21
-117.499
0
LINE
8
BLACK
6
CONTINUOUS
10
162.773
20
-117.499
11
162.472
21
-117.389
0
LINE
8
BLACK
6
CONTINUOUS
10
162.472
20
-117.389
11
162.15
21
-117.389
0
LINE
8
BLACK
6
CONTINUOUS
10
162.15
20
-117.389
11
161.849
21
-117.499
0
LINE
8
BLACK
6
CONTINUOUS
10
161.849
20
-117.499
11
161.602
21
-117.705
0
LINE
8
BLACK
6
CONTINUOUS
10
161.602
20
-117.705
11
161.442
21
-117.984
0
LINE
8
BLACK
6
CONTINUOUS
10
161.442
20
-117.984
11
161.386
21
-118.3
0
LINE
8
BLACK
6
CONTINUOUS
10
161.386
20
-118.3
11
161.442
21
-118.616
0
LINE
8
BLACK
6
CONTINUOUS
10
161.442
20
-118.616
11
161.602
21
-118.895
0
LINE
8
BLACK
6
CONTINUOUS
10
161.602
20
-118.895
11
161.849
21
-119.101
0
LINE
8
BLACK
6
CONTINUOUS
10
161.849
20
-119.101
11
162.15
21
-119.211
0
LINE
8
BLACK
6
CONTINUOUS
10
162.15
20
-119.211
11
162.472
21
-119.211
0
LINE
8
BLACK
6
CONTINUOUS
10
162.472
20
-119.211
11
162.773
21
-119.101
0
LINE
8
BLACK
6
CONTINUOUS
10
162.773
20
-119.101
11
163.02
21
-118.895
0
LINE
8
BLACK
6
CONTINUOUS
10
163.02
20
-118.895
11
163.18
21
-118.616
0
LINE
8
BLACK
6
CONTINUOUS
10
163.18
20
-118.616
11
163.236
21
-118.3
0
LINE
8
BLACK
6
CONTINUOUS
10
163.236
20
-118.3
11
163.18
21
-117.984
0
LINE
8
BLACK
6
CONTINUOUS
10
163.18
20
-117.984
11
163.02
21
-117.705
0
LINE
8
BLACK
6
CONTINUOUS
10
125.46
20
-117.377
11
125.445
21
-117.373
0
LINE
8
BLACK
6
CONTINUOUS
10
125.445
20
-117.373
11
125.43
21
-117.37
0
LINE
8
BLACK
6
CONTINUOUS
10
125.43
20
-117.37
11
125.43
21
-117.37
0
LINE
8
BLACK
6
CONTINUOUS
10
125.43
20
-117.37
11
124.951
21
-117.176
0
LINE
8
BLACK
6
CONTINUOUS
10
124.951
20
-117.176
11
124.951
21
-117.176
0
LINE
8
BLACK
6
CONTINUOUS
10
124.951
20
-117.176
11
124.931
21
-117.163
0
LINE
8
BLACK
6
CONTINUOUS
10
124.931
20
-117.163
11
124.925
21
-117.16
0
LINE
8
BLACK
6
CONTINUOUS
10
124.925
20
-117.16
11
124.925
21
-117.16
0
LINE
8
BLACK
6
CONTINUOUS
10
124.925
20
-117.16
11
124.53
21
-116.827
0
LINE
8
BLACK
6
CONTINUOUS
10
124.53
20
-116.827
11
124.522
21
-116.818
0
LINE
8
BLACK
6
CONTINUOUS
10
124.522
20
-116.818
11
124.513
21
-116.809
0
LINE
8
BLACK
6
CONTINUOUS
10
124.513
20
-116.809
11
124.347
21
-116.581
0
LINE
8
BLACK
6
CONTINUOUS
10
124.347
20
-116.581
11
124.333
21
-116.553
0
LINE
8
BLACK
6
CONTINUOUS
10
124.333
20
-116.553
11
124.328
21
-116.522
0
LINE
8
BLACK
6
CONTINUOUS
10
124.328
20
-116.522
11
124.333
21
-116.491
0
LINE
8
BLACK
6
CONTINUOUS
10
124.333
20
-116.491
11
124.333
21
-116.491
0
LINE
8
BLACK
6
CONTINUOUS
10
124.333
20
-116.491
11
124.326
21
-116.49
0
LINE
8
BLACK
6
CONTINUOUS
10
124.326
20
-116.49
11
124.299
21
-116.475
0
LINE
8
BLACK
6
CONTINUOUS
10
124.299
20
-116.475
11
124.277
21
-116.452
0
LINE
8
BLACK
6
CONTINUOUS
10
124.277
20
-116.452
11
124.263
21
-116.424
0
LINE
8
BLACK
6
CONTINUOUS
10
124.263
20
-116.424
11
124.112
21
-115.931
0
LINE
8
BLACK
6
CONTINUOUS
10
124.112
20
-115.931
11
124.107
21
-115.9
0
LINE
8
BLACK
6
CONTINUOUS
10
124.107
20
-115.9
11
124.116
21
-115.384
0
LINE
8
BLACK
6
CONTINUOUS
10
124.116
20
-115.384
11
124.121
21
-115.353
0
LINE
8
BLACK
6
CONTINUOUS
10
124.121
20
-115.353
11
124.121
21
-115.353
0
LINE
8
BLACK
6
CONTINUOUS
10
124.121
20
-115.353
11
124.289
21
-114.865
0
LINE
8
BLACK
6
CONTINUOUS
10
124.289
20
-114.865
11
124.303
21
-114.837
0
LINE
8
BLACK
6
CONTINUOUS
10
124.303
20
-114.837
11
124.303
21
-114.837
0
LINE
8
BLACK
6
CONTINUOUS
10
124.303
20
-114.837
11
124.614
21
-114.424
0
LINE
8
BLACK
6
CONTINUOUS
10
124.614
20
-114.424
11
124.614
21
-114.424
0
LINE
8
BLACK
6
CONTINUOUS
10
124.614
20
-114.424
11
124.636
21
-114.403
0
LINE
8
BLACK
6
CONTINUOUS
10
124.636
20
-114.403
11
125.059
21
-114.106
0
LINE
8
BLACK
6
CONTINUOUS
10
125.059
20
-114.106
11
125.087
21
-114.092
0
LINE
8
BLACK
6
CONTINUOUS
10
125.087
20
-114.092
11
125.58
21
-113.941
0
LINE
8
BLACK
6
CONTINUOUS
10
125.58
20
-113.941
11
125.611
21
-113.936
0
LINE
8
BLACK
6
CONTINUOUS
10
125.611
20
-113.936
11
125.611
21
-113.936
0
LINE
8
BLACK
6
CONTINUOUS
10
125.611
20
-113.936
11
126.127
21
-113.945
0
LINE
8
BLACK
6
CONTINUOUS
10
126.127
20
-113.945
11
126.158
21
-113.95
0
LINE
8
BLACK
6
CONTINUOUS
10
126.158
20
-113.95
11
126.158
21
-113.95
0
LINE
8
BLACK
6
CONTINUOUS
10
126.158
20
-113.95
11
126.646
21
-114.118
0
LINE
8
BLACK
6
CONTINUOUS
10
126.646
20
-114.118
11
126.674
21
-114.132
0
LINE
8
BLACK
6
CONTINUOUS
10
126.674
20
-114.132
11
126.674
21
-114.132
0
LINE
8
BLACK
6
CONTINUOUS
10
126.674
20
-114.132
11
127.087
21
-114.443
0
LINE
8
BLACK
6
CONTINUOUS
10
127.087
20
-114.443
11
127.087
21
-114.443
0
LINE
8
BLACK
6
CONTINUOUS
10
127.087
20
-114.443
11
127.108
21
-114.465
0
LINE
8
BLACK
6
CONTINUOUS
10
127.108
20
-114.465
11
127.405
21
-114.888
0
LINE
8
BLACK
6
CONTINUOUS
10
127.405
20
-114.888
11
127.419
21
-114.916
0
LINE
8
BLACK
6
CONTINUOUS
10
127.419
20
-114.916
11
127.57
21
-115.409
0
LINE
8
BLACK
6
CONTINUOUS
10
127.57
20
-115.409
11
127.57
21
-115.409
0
LINE
8
BLACK
6
CONTINUOUS
10
127.57
20
-115.409
11
127.575
21
-115.44
0
LINE
8
BLACK
6
CONTINUOUS
10
127.575
20
-115.44
11
127.566
21
-115.956
0
LINE
8
BLACK
6
CONTINUOUS
10
127.566
20
-115.956
11
127.564
21
-115.971
0
LINE
8
BLACK
6
CONTINUOUS
10
127.564
20
-115.971
11
127.561
21
-115.986
0
LINE
8
BLACK
6
CONTINUOUS
10
127.561
20
-115.986
11
127.418
21
-116.426
0
LINE
8
BLACK
6
CONTINUOUS
10
127.418
20
-116.426
11
127.404
21
-116.454
0
LINE
8
BLACK
6
CONTINUOUS
10
127.404
20
-116.454
11
127.382
21
-116.476
0
LINE
8
BLACK
6
CONTINUOUS
10
127.382
20
-116.476
11
127.354
21
-116.49
0
LINE
8
BLACK
6
CONTINUOUS
10
127.354
20
-116.49
11
127.348
21
-116.491
0
LINE
8
BLACK
6
CONTINUOUS
10
127.348
20
-116.491
11
127.351
21
-116.498
0
LINE
8
BLACK
6
CONTINUOUS
10
127.351
20
-116.498
11
127.354
21
-116.529
0
LINE
8
BLACK
6
CONTINUOUS
10
127.354
20
-116.529
11
127.347
21
-116.56
0
LINE
8
BLACK
6
CONTINUOUS
10
127.347
20
-116.56
11
127.331
21
-116.586
0
LINE
8
BLACK
6
CONTINUOUS
10
127.331
20
-116.586
11
126.998
21
-116.981
0
LINE
8
BLACK
6
CONTINUOUS
10
126.998
20
-116.981
11
126.974
21
-117.002
0
LINE
8
BLACK
6
CONTINUOUS
10
126.974
20
-117.002
11
126.536
21
-117.275
0
LINE
8
BLACK
6
CONTINUOUS
10
126.536
20
-117.275
11
126.507
21
-117.287
0
LINE
8
BLACK
6
CONTINUOUS
10
126.507
20
-117.287
11
126.006
21
-117.411
0
LINE
8
BLACK
6
CONTINUOUS
10
126.006
20
-117.411
11
126.006
21
-117.411
0
LINE
8
BLACK
6
CONTINUOUS
10
126.006
20
-117.411
11
125.975
21
-117.414
0
LINE
8
BLACK
6
CONTINUOUS
10
125.975
20
-117.414
11
125.46
21
-117.377
0
LINE
8
BLACK
6
CONTINUOUS
10
125.46
20
-117.377
11
125.46
21
-117.377
0
LINE
8
BLACK
6
CONTINUOUS
10
125.16
20
-114.279
11
124.764
21
-114.557
0
LINE
8
BLACK
6
CONTINUOUS
10
124.764
20
-114.557
11
124.473
21
-114.944
0
LINE
8
BLACK
6
CONTINUOUS
10
124.473
20
-114.944
11
124.315
21
-115.403
0
LINE
8
BLACK
6
CONTINUOUS
10
124.315
20
-115.403
11
124.308
21
-115.887
0
LINE
8
BLACK
6
CONTINUOUS
10
124.308
20
-115.887
11
124.454
21
-116.366
0
LINE
8
BLACK
6
CONTINUOUS
10
124.454
20
-116.366
11
124.459
21
-116.397
0
LINE
8
BLACK
6
CONTINUOUS
10
124.459
20
-116.397
11
124.454
21
-116.426
0
LINE
8
BLACK
6
CONTINUOUS
10
124.454
20
-116.426
11
124.459
21
-116.427
0
LINE
8
BLACK
6
CONTINUOUS
10
124.459
20
-116.427
11
124.487
21
-116.441
0
LINE
8
BLACK
6
CONTINUOUS
10
124.487
20
-116.441
11
124.509
21
-116.463
0
LINE
8
BLACK
6
CONTINUOUS
10
124.509
20
-116.463
11
124.668
21
-116.682
0
LINE
8
BLACK
6
CONTINUOUS
10
124.668
20
-116.682
11
125.041
21
-116.996
0
LINE
8
BLACK
6
CONTINUOUS
10
125.041
20
-116.996
11
125.49
21
-117.179
0
LINE
8
BLACK
6
CONTINUOUS
10
125.49
20
-117.179
11
125.974
21
-117.213
0
LINE
8
BLACK
6
CONTINUOUS
10
125.974
20
-117.213
11
126.444
21
-117.097
0
LINE
8
BLACK
6
CONTINUOUS
10
126.444
20
-117.097
11
126.855
21
-116.84
0
LINE
8
BLACK
6
CONTINUOUS
10
126.855
20
-116.84
11
127.178
21
-116.458
0
LINE
8
BLACK
6
CONTINUOUS
10
127.178
20
-116.458
11
127.201
21
-116.437
0
LINE
8
BLACK
6
CONTINUOUS
10
127.201
20
-116.437
11
127.228
21
-116.426
0
LINE
8
BLACK
6
CONTINUOUS
10
127.228
20
-116.426
11
127.223
21
-116.395
0
LINE
8
BLACK
6
CONTINUOUS
10
127.223
20
-116.395
11
127.228
21
-116.364
0
LINE
8
BLACK
6
CONTINUOUS
10
127.228
20
-116.364
11
127.367
21
-115.938
0
LINE
8
BLACK
6
CONTINUOUS
10
127.367
20
-115.938
11
127.374
21
-115.453
0
LINE
8
BLACK
6
CONTINUOUS
10
127.374
20
-115.453
11
127.232
21
-114.989
0
LINE
8
BLACK
6
CONTINUOUS
10
127.232
20
-114.989
11
126.954
21
-114.593
0
LINE
8
BLACK
6
CONTINUOUS
10
126.954
20
-114.593
11
126.567
21
-114.302
0
LINE
8
BLACK
6
CONTINUOUS
10
126.567
20
-114.302
11
126.108
21
-114.144
0
LINE
8
BLACK
6
CONTINUOUS
10
126.108
20
-114.144
11
125.624
21
-114.137
0
LINE
8
BLACK
6
CONTINUOUS
10
125.624
20
-114.137
11
125.16
21
-114.279
0
LINE
8
BLACK
6
CONTINUOUS
10
158.4
20
-117.377
11
158.385
21
-117.373
0
LINE
8
BLACK
6
CONTINUOUS
10
158.385
20
-117.373
11
158.37
21
-117.37
0
LINE
8
BLACK
6
CONTINUOUS
10
158.37
20
-117.37
11
158.37
21
-117.37
0
LINE
8
BLACK
6
CONTINUOUS
10
158.37
20
-117.37
11
157.891
21
-117.176
0
LINE
8
BLACK
6
CONTINUOUS
10
157.891
20
-117.176
11
157.891
21
-117.176
0
LINE
8
BLACK
6
CONTINUOUS
10
157.891
20
-117.176
11
157.871
21
-117.163
0
LINE
8
BLACK
6
CONTINUOUS
10
157.871
20
-117.163
11
157.865
21
-117.16
0
LINE
8
BLACK
6
CONTINUOUS
10
157.865
20
-117.16
11
157.865
21
-117.16
0
LINE
8
BLACK
6
CONTINUOUS
10
157.865
20
-117.16
11
157.47
21
-116.827
0
LINE
8
BLACK
6
CONTINUOUS
10
157.47
20
-116.827
11
157.462
21
-116.818
0
LINE
8
BLACK
6
CONTINUOUS
10
157.462
20
-116.818
11
157.453
21
-116.809
0
LINE
8
BLACK
6
CONTINUOUS
10
157.453
20
-116.809
11
157.287
21
-116.581
0
LINE
8
BLACK
6
CONTINUOUS
10
157.287
20
-116.581
11
157.273
21
-116.553
0
LINE
8
BLACK
6
CONTINUOUS
10
157.273
20
-116.553
11
157.268
21
-116.522
0
LINE
8
BLACK
6
CONTINUOUS
10
157.268
20
-116.522
11
157.273
21
-116.491
0
LINE
8
BLACK
6
CONTINUOUS
10
157.273
20
-116.491
11
157.273
21
-116.491
0
LINE
8
BLACK
6
CONTINUOUS
10
157.273
20
-116.491
11
157.266
21
-116.49
0
LINE
8
BLACK
6
CONTINUOUS
10
157.266
20
-116.49
11
157.239
21
-116.475
0
LINE
8
BLACK
6
CONTINUOUS
10
157.239
20
-116.475
11
157.217
21
-116.452
0
LINE
8
BLACK
6
CONTINUOUS
10
157.217
20
-116.452
11
157.203
21
-116.424
0
LINE
8
BLACK
6
CONTINUOUS
10
157.203
20
-116.424
11
157.052
21
-115.931
0
LINE
8
BLACK
6
CONTINUOUS
10
157.052
20
-115.931
11
157.047
21
-115.9
0
LINE
8
BLACK
6
CONTINUOUS
10
157.047
20
-115.9
11
157.056
21
-115.384
0
LINE
8
BLACK
6
CONTINUOUS
10
157.056
20
-115.384
11
157.061
21
-115.353
0
LINE
8
BLACK
6
CONTINUOUS
10
157.061
20
-115.353
11
157.061
21
-115.353
0
LINE
8
BLACK
6
CONTINUOUS
10
157.061
20
-115.353
11
157.229
21
-114.865
0
LINE
8
BLACK
6
CONTINUOUS
10
157.229
20
-114.865
11
157.243
21
-114.837
0
LINE
8
BLACK
6
CONTINUOUS
10
157.243
20
-114.837
11
157.243
21
-114.837
0
LINE
8
BLACK
6
CONTINUOUS
10
157.243
20
-114.837
11
157.554
21
-114.424
0
LINE
8
BLACK
6
CONTINUOUS
10
157.554
20
-114.424
11
157.554
21
-114.424
0
LINE
8
BLACK
6
CONTINUOUS
10
157.554
20
-114.424
11
157.576
21
-114.403
0
LINE
8
BLACK
6
CONTINUOUS
10
157.576
20
-114.403
11
157.999
21
-114.106
0
LINE
8
BLACK
6
CONTINUOUS
10
157.999
20
-114.106
11
158.027
21
-114.092
0
LINE
8
BLACK
6
CONTINUOUS
10
158.027
20
-114.092
11
158.52
21
-113.941
0
LINE
8
BLACK
6
CONTINUOUS
10
158.52
20
-113.941
11
158.551
21
-113.936
0
LINE
8
BLACK
6
CONTINUOUS
10
158.551
20
-113.936
11
158.551
21
-113.936
0
LINE
8
BLACK
6
CONTINUOUS
10
158.551
20
-113.936
11
159.067
21
-113.945
0
LINE
8
BLACK
6
CONTINUOUS
10
159.067
20
-113.945
11
159.098
21
-113.95
0
LINE
8
BLACK
6
CONTINUOUS
10
159.098
20
-113.95
11
159.098
21
-113.95
0
LINE
8
BLACK
6
CONTINUOUS
10
159.098
20
-113.95
11
159.586
21
-114.118
0
LINE
8
BLACK
6
CONTINUOUS
10
159.586
20
-114.118
11
159.614
21
-114.132
0
LINE
8
BLACK
6
CONTINUOUS
10
159.614
20
-114.132
11
159.614
21
-114.132
0
LINE
8
BLACK
6
CONTINUOUS
10
159.614
20
-114.132
11
160.027
21
-114.443
0
LINE
8
BLACK
6
CONTINUOUS
10
160.027
20
-114.443
11
160.027
21
-114.443
0
LINE
8
BLACK
6
CONTINUOUS
10
160.027
20
-114.443
11
160.048
21
-114.465
0
LINE
8
BLACK
6
CONTINUOUS
10
160.048
20
-114.465
11
160.345
21
-114.888
0
LINE
8
BLACK
6
CONTINUOUS
10
160.345
20
-114.888
11
160.359
21
-114.916
0
LINE
8
BLACK
6
CONTINUOUS
10
160.359
20
-114.916
11
160.51
21
-115.409
0
LINE
8
BLACK
6
CONTINUOUS
10
160.51
20
-115.409
11
160.51
21
-115.409
0
LINE
8
BLACK
6
CONTINUOUS
10
160.51
20
-115.409
11
160.515
21
-115.44
0
LINE
8
BLACK
6
CONTINUOUS
10
160.515
20
-115.44
11
160.506
21
-115.956
0
LINE
8
BLACK
6
CONTINUOUS
10
160.506
20
-115.956
11
160.504
21
-115.971
0
LINE
8
BLACK
6
CONTINUOUS
10
160.504
20
-115.971
11
160.501
21
-115.986
0
LINE
8
BLACK
6
CONTINUOUS
10
160.501
20
-115.986
11
160.358
21
-116.426
0
LINE
8
BLACK
6
CONTINUOUS
10
160.358
20
-116.426
11
160.344
21
-116.454
0
LINE
8
BLACK
6
CONTINUOUS
10
160.344
20
-116.454
11
160.322
21
-116.476
0
LINE
8
BLACK
6
CONTINUOUS
10
160.322
20
-116.476
11
160.294
21
-116.49
0
LINE
8
BLACK
6
CONTINUOUS
10
160.294
20
-116.49
11
160.288
21
-116.491
0
LINE
8
BLACK
6
CONTINUOUS
10
160.288
20
-116.491
11
160.291
21
-116.498
0
LINE
8
BLACK
6
CONTINUOUS
10
160.291
20
-116.498
11
160.294
21
-116.529
0
LINE
8
BLACK
6
CONTINUOUS
10
160.294
20
-116.529
11
160.287
21
-116.56
0
LINE
8
BLACK
6
CONTINUOUS
10
160.287
20
-116.56
11
160.271
21
-116.586
0
LINE
8
BLACK
6
CONTINUOUS
10
160.271
20
-116.586
11
159.938
21
-116.981
0
LINE
8
BLACK
6
CONTINUOUS
10
159.938
20
-116.981
11
159.914
21
-117.002
0
LINE
8
BLACK
6
CONTINUOUS
10
159.914
20
-117.002
11
159.476
21
-117.275
0
LINE
8
BLACK
6
CONTINUOUS
10
159.476
20
-117.275
11
159.447
21
-117.287
0
LINE
8
BLACK
6
CONTINUOUS
10
159.447
20
-117.287
11
158.946
21
-117.411
0
LINE
8
BLACK
6
CONTINUOUS
10
158.946
20
-117.411
11
158.946
21
-117.411
0
LINE
8
BLACK
6
CONTINUOUS
10
158.946
20
-117.411
11
158.915
21
-117.414
0
LINE
8
BLACK
6
CONTINUOUS
10
158.915
20
-117.414
11
158.4
21
-117.377
0
LINE
8
BLACK
6
CONTINUOUS
10
158.4
20
-117.377
11
158.4
21
-117.377
0
LINE
8
BLACK
6
CONTINUOUS
10
158.1
20
-114.279
11
157.704
21
-114.557
0
LINE
8
BLACK
6
CONTINUOUS
10
157.704
20
-114.557
11
157.413
21
-114.944
0
LINE
8
BLACK
6
CONTINUOUS
10
157.413
20
-114.944
11
157.255
21
-115.403
0
LINE
8
BLACK
6
CONTINUOUS
10
157.255
20
-115.403
11
157.248
21
-115.887
0
LINE
8
BLACK
6
CONTINUOUS
10
157.248
20
-115.887
11
157.394
21
-116.366
0
LINE
8
BLACK
6
CONTINUOUS
10
157.394
20
-116.366
11
157.399
21
-116.397
0
LINE
8
BLACK
6
CONTINUOUS
10
157.399
20
-116.397
11
157.394
21
-116.426
0
LINE
8
BLACK
6
CONTINUOUS
10
157.394
20
-116.426
11
157.399
21
-116.427
0
LINE
8
BLACK
6
CONTINUOUS
10
157.399
20
-116.427
11
157.427
21
-116.441
0
LINE
8
BLACK
6
CONTINUOUS
10
157.427
20
-116.441
11
157.449
21
-116.463
0
LINE
8
BLACK
6
CONTINUOUS
10
157.449
20
-116.463
11
157.608
21
-116.682
0
LINE
8
BLACK
6
CONTINUOUS
10
157.608
20
-116.682
11
157.981
21
-116.996
0
LINE
8
BLACK
6
CONTINUOUS
10
157.981
20
-116.996
11
158.43
21
-117.179
0
LINE
8
BLACK
6
CONTINUOUS
10
158.43
20
-117.179
11
158.914
21
-117.213
0
LINE
8
BLACK
6
CONTINUOUS
10
158.914
20
-117.213
11
159.384
21
-117.097
0
LINE
8
BLACK
6
CONTINUOUS
10
159.384
20
-117.097
11
159.795
21
-116.84
0
LINE
8
BLACK
6
CONTINUOUS
10
159.795
20
-116.84
11
160.118
21
-116.458
0
LINE
8
BLACK
6
CONTINUOUS
10
160.118
20
-116.458
11
160.141
21
-116.437
0
LINE
8
BLACK
6
CONTINUOUS
10
160.141
20
-116.437
11
160.168
21
-116.426
0
LINE
8
BLACK
6
CONTINUOUS
10
160.168
20
-116.426
11
160.163
21
-116.395
0
LINE
8
BLACK
6
CONTINUOUS
10
160.163
20
-116.395
11
160.168
21
-116.364
0
LINE
8
BLACK
6
CONTINUOUS
10
160.168
20
-116.364
11
160.307
21
-115.938
0
LINE
8
BLACK
6
CONTINUOUS
10
160.307
20
-115.938
11
160.314
21
-115.453
0
LINE
8
BLACK
6
CONTINUOUS
10
160.314
20
-115.453
11
160.172
21
-114.989
0
LINE
8
BLACK
6
CONTINUOUS
10
160.172
20
-114.989
11
159.894
21
-114.593
0
LINE
8
BLACK
6
CONTINUOUS
10
159.894
20
-114.593
11
159.507
21
-114.302
0
LINE
8
BLACK
6
CONTINUOUS
10
159.507
20
-114.302
11
159.048
21
-114.144
0
LINE
8
BLACK
6
CONTINUOUS
10
159.048
20
-114.144
11
158.564
21
-114.137
0
LINE
8
BLACK
6
CONTINUOUS
10
158.564
20
-114.137
11
158.1
21
-114.279
0
LINE
8
BLACK
6
CONTINUOUS
10
134.875
20
-114.196
11
134.892
21
-114.198
0
LINE
8
BLACK
6
CONTINUOUS
10
134.892
20
-114.198
11
134.899
21
-114.201
0
LINE
8
BLACK
6
CONTINUOUS
10
134.899
20
-114.201
11
134.907
21
-114.203
0
LINE
8
BLACK
6
CONTINUOUS
10
134.907
20
-114.203
11
135.337
21
-114.364
0
LINE
8
BLACK
6
CONTINUOUS
10
135.337
20
-114.364
11
135.353
21
-114.372
0
LINE
8
BLACK
6
CONTINUOUS
10
135.353
20
-114.372
11
135.359
21
-114.377
0
LINE
8
BLACK
6
CONTINUOUS
10
135.359
20
-114.377
11
135.366
21
-114.38
0
LINE
8
BLACK
6
CONTINUOUS
10
135.366
20
-114.38
11
135.721
21
-114.673
0
LINE
8
BLACK
6
CONTINUOUS
10
135.721
20
-114.673
11
135.721
21
-114.673
0
LINE
8
BLACK
6
CONTINUOUS
10
135.721
20
-114.673
11
135.721
21
-114.673
0
LINE
8
BLACK
6
CONTINUOUS
10
135.721
20
-114.673
11
135.733
21
-114.685
0
LINE
8
BLACK
6
CONTINUOUS
10
135.733
20
-114.685
11
135.737
21
-114.691
0
LINE
8
BLACK
6
CONTINUOUS
10
135.737
20
-114.691
11
135.742
21
-114.697
0
LINE
8
BLACK
6
CONTINUOUS
10
135.742
20
-114.697
11
135.984
21
-115.089
0
LINE
8
BLACK
6
CONTINUOUS
10
135.984
20
-115.089
11
135.984
21
-115.089
0
LINE
8
BLACK
6
CONTINUOUS
10
135.984
20
-115.089
11
135.984
21
-115.089
0
LINE
8
BLACK
6
CONTINUOUS
10
135.984
20
-115.089
11
135.991
21
-115.104
0
LINE
8
BLACK
6
CONTINUOUS
10
135.991
20
-115.104
11
135.993
21
-115.112
0
LINE
8
BLACK
6
CONTINUOUS
10
135.993
20
-115.112
11
135.996
21
-115.119
0
LINE
8
BLACK
6
CONTINUOUS
10
135.996
20
-115.119
11
136.097
21
-115.568
0
LINE
8
BLACK
6
CONTINUOUS
10
136.097
20
-115.568
11
136.1
21
-115.585
0
LINE
8
BLACK
6
CONTINUOUS
10
136.1
20
-115.585
11
136.099
21
-115.593
0
LINE
8
BLACK
6
CONTINUOUS
10
136.099
20
-115.593
11
136.099
21
-115.6
0
LINE
8
BLACK
6
CONTINUOUS
10
136.099
20
-115.6
11
136.05
21
-116.057
0
LINE
8
BLACK
6
CONTINUOUS
10
136.05
20
-116.057
11
136.047
21
-116.074
0
LINE
8
BLACK
6
CONTINUOUS
10
136.047
20
-116.074
11
136.044
21
-116.08
0
LINE
8
BLACK
6
CONTINUOUS
10
136.044
20
-116.08
11
136.042
21
-116.086
0
LINE
8
BLACK
6
CONTINUOUS
10
136.042
20
-116.086
11
135.892
21
-116.435
0
LINE
8
BLACK
6
CONTINUOUS
10
135.892
20
-116.435
11
135.883
21
-116.45
0
LINE
8
BLACK
6
CONTINUOUS
10
135.883
20
-116.45
11
135.861
21
-116.474
0
LINE
8
BLACK
6
CONTINUOUS
10
135.861
20
-116.474
11
135.832
21
-116.49
0
LINE
8
BLACK
6
CONTINUOUS
10
135.832
20
-116.49
11
135.808
21
-116.494
0
LINE
8
BLACK
6
CONTINUOUS
10
135.808
20
-116.494
11
135.812
21
-116.505
0
LINE
8
BLACK
6
CONTINUOUS
10
135.812
20
-116.505
11
135.812
21
-116.538
0
LINE
8
BLACK
6
CONTINUOUS
10
135.812
20
-116.538
11
135.801
21
-116.569
0
LINE
8
BLACK
6
CONTINUOUS
10
135.801
20
-116.569
11
135.781
21
-116.595
0
LINE
8
BLACK
6
CONTINUOUS
10
135.781
20
-116.595
11
135.445
21
-116.909
0
LINE
8
BLACK
6
CONTINUOUS
10
135.445
20
-116.909
11
135.445
21
-116.909
0
LINE
8
BLACK
6
CONTINUOUS
10
135.445
20
-116.909
11
135.445
21
-116.909
0
LINE
8
BLACK
6
CONTINUOUS
10
135.445
20
-116.909
11
135.432
21
-116.92
0
LINE
8
BLACK
6
CONTINUOUS
10
135.432
20
-116.92
11
135.425
21
-116.923
0
LINE
8
BLACK
6
CONTINUOUS
10
135.425
20
-116.923
11
135.418
21
-116.927
0
LINE
8
BLACK
6
CONTINUOUS
10
135.418
20
-116.927
11
134.999
21
-117.115
0
LINE
8
BLACK
6
CONTINUOUS
10
134.999
20
-117.115
11
134.982
21
-117.121
0
LINE
8
BLACK
6
CONTINUOUS
10
134.982
20
-117.121
11
134.974
21
-117.122
0
LINE
8
BLACK
6
CONTINUOUS
10
134.974
20
-117.122
11
134.967
21
-117.124
0
LINE
8
BLACK
6
CONTINUOUS
10
134.967
20
-117.124
11
134.509
21
-117.166
0
LINE
8
BLACK
6
CONTINUOUS
10
134.509
20
-117.166
11
134.509
21
-117.166
0
LINE
8
BLACK
6
CONTINUOUS
10
134.509
20
-117.166
11
134.509
21
-117.166
0
LINE
8
BLACK
6
CONTINUOUS
10
134.509
20
-117.166
11
134.492
21
-117.166
0
LINE
8
BLACK
6
CONTINUOUS
10
134.492
20
-117.166
11
134.484
21
-117.164
0
LINE
8
BLACK
6
CONTINUOUS
10
134.484
20
-117.164
11
134.476
21
-117.163
0
LINE
8
BLACK
6
CONTINUOUS
10
134.476
20
-117.163
11
134.03
21
-117.055
0
LINE
8
BLACK
6
CONTINUOUS
10
134.03
20
-117.055
11
134.03
21
-117.055
0
LINE
8
BLACK
6
CONTINUOUS
10
134.03
20
-117.055
11
134.03
21
-117.055
0
LINE
8
BLACK
6
CONTINUOUS
10
134.03
20
-117.055
11
134.013
21
-117.05
0
LINE
8
BLACK
6
CONTINUOUS
10
134.013
20
-117.05
11
134.007
21
-117.045
0
LINE
8
BLACK
6
CONTINUOUS
10
134.007
20
-117.045
11
133.999
21
-117.042
0
LINE
8
BLACK
6
CONTINUOUS
10
133.999
20
-117.042
11
133.612
21
-116.795
0
LINE
8
BLACK
6
CONTINUOUS
10
133.612
20
-116.795
11
133.598
21
-116.784
0
LINE
8
BLACK
6
CONTINUOUS
10
133.598
20
-116.784
11
133.595
21
-116.781
0
LINE
8
BLACK
6
CONTINUOUS
10
133.595
20
-116.781
11
133.592
21
-116.779
0
LINE
8
BLACK
6
CONTINUOUS
10
133.592
20
-116.779
11
133.418
21
-116.59
0
LINE
8
BLACK
6
CONTINUOUS
10
133.418
20
-116.59
11
133.407
21
-116.576
0
LINE
8
BLACK
6
CONTINUOUS
10
133.407
20
-116.576
11
133.394
21
-116.546
0
LINE
8
BLACK
6
CONTINUOUS
10
133.394
20
-116.546
11
133.392
21
-116.513
0
LINE
8
BLACK
6
CONTINUOUS
10
133.392
20
-116.513
11
133.397
21
-116.493
0
LINE
8
BLACK
6
CONTINUOUS
10
133.397
20
-116.493
11
133.384
21
-116.493
0
LINE
8
BLACK
6
CONTINUOUS
10
133.384
20
-116.493
11
133.354
21
-116.481
0
LINE
8
BLACK
6
CONTINUOUS
10
133.354
20
-116.481
11
133.329
21
-116.46
0
LINE
8
BLACK
6
CONTINUOUS
10
133.329
20
-116.46
11
133.312
21
-116.432
0
LINE
8
BLACK
6
CONTINUOUS
10
133.312
20
-116.432
11
133.141
21
-116.005
0
LINE
8
BLACK
6
CONTINUOUS
10
133.141
20
-116.005
11
133.141
21
-116.005
0
LINE
8
BLACK
6
CONTINUOUS
10
133.141
20
-116.005
11
133.141
21
-116.005
0
LINE
8
BLACK
6
CONTINUOUS
10
133.141
20
-116.005
11
133.136
21
-115.988
0
LINE
8
BLACK
6
CONTINUOUS
10
133.136
20
-115.988
11
133.136
21
-115.981
0
LINE
8
BLACK
6
CONTINUOUS
10
133.136
20
-115.981
11
133.134
21
-115.973
0
LINE
8
BLACK
6
CONTINUOUS
10
133.134
20
-115.973
11
133.112
21
-115.514
0
LINE
8
BLACK
6
CONTINUOUS
10
133.112
20
-115.514
11
133.112
21
-115.514
0
LINE
8
BLACK
6
CONTINUOUS
10
133.112
20
-115.514
11
133.112
21
-115.514
0
LINE
8
BLACK
6
CONTINUOUS
10
133.112
20
-115.514
11
133.112
21
-115.497
0
LINE
8
BLACK
6
CONTINUOUS
10
133.112
20
-115.497
11
133.114
21
-115.489
0
LINE
8
BLACK
6
CONTINUOUS
10
133.114
20
-115.489
11
133.115
21
-115.481
0
LINE
8
BLACK
6
CONTINUOUS
10
133.115
20
-115.481
11
133.243
21
-115.039
0
LINE
8
BLACK
6
CONTINUOUS
10
133.243
20
-115.039
11
133.249
21
-115.023
0
LINE
8
BLACK
6
CONTINUOUS
10
133.249
20
-115.023
11
133.253
21
-115.017
0
LINE
8
BLACK
6
CONTINUOUS
10
133.253
20
-115.017
11
133.257
21
-115.01
0
LINE
8
BLACK
6
CONTINUOUS
10
133.257
20
-115.01
11
133.52
21
-114.633
0
LINE
8
BLACK
6
CONTINUOUS
10
133.52
20
-114.633
11
133.531
21
-114.62
0
LINE
8
BLACK
6
CONTINUOUS
10
133.531
20
-114.62
11
133.538
21
-114.615
0
LINE
8
BLACK
6
CONTINUOUS
10
133.538
20
-114.615
11
133.543
21
-114.61
0
LINE
8
BLACK
6
CONTINUOUS
10
133.543
20
-114.61
11
133.914
21
-114.338
0
LINE
8
BLACK
6
CONTINUOUS
10
133.914
20
-114.338
11
133.914
21
-114.338
0
LINE
8
BLACK
6
CONTINUOUS
10
133.914
20
-114.338
11
133.914
21
-114.338
0
LINE
8
BLACK
6
CONTINUOUS
10
133.914
20
-114.338
11
133.929
21
-114.329
0
LINE
8
BLACK
6
CONTINUOUS
10
133.929
20
-114.329
11
133.937
21
-114.327
0
LINE
8
BLACK
6
CONTINUOUS
10
133.937
20
-114.327
11
133.944
21
-114.324
0
LINE
8
BLACK
6
CONTINUOUS
10
133.944
20
-114.324
11
134.383
21
-114.187
0
LINE
8
BLACK
6
CONTINUOUS
10
134.383
20
-114.187
11
134.4
21
-114.184
0
LINE
8
BLACK
6
CONTINUOUS
10
134.4
20
-114.184
11
134.407
21
-114.184
0
LINE
8
BLACK
6
CONTINUOUS
10
134.407
20
-114.184
11
134.415
21
-114.183
0
LINE
8
BLACK
6
CONTINUOUS
10
134.415
20
-114.183
11
134.875
21
-114.196
0
LINE
8
BLACK
6
CONTINUOUS
10
134.019
20
-114.51
11
133.674
21
-114.761
0
LINE
8
BLACK
6
CONTINUOUS
10
133.674
20
-114.761
11
133.43
21
-115.111
0
LINE
8
BLACK
6
CONTINUOUS
10
133.43
20
-115.111
11
133.312
21
-115.52
0
LINE
8
BLACK
6
CONTINUOUS
10
133.312
20
-115.52
11
133.333
21
-115.946
0
LINE
8
BLACK
6
CONTINUOUS
10
133.333
20
-115.946
11
133.497
21
-116.358
0
LINE
8
BLACK
6
CONTINUOUS
10
133.497
20
-116.358
11
133.502
21
-116.374
0
LINE
8
BLACK
6
CONTINUOUS
10
133.502
20
-116.374
11
133.504
21
-116.407
0
LINE
8
BLACK
6
CONTINUOUS
10
133.504
20
-116.407
11
133.499
21
-116.423
0
LINE
8
BLACK
6
CONTINUOUS
10
133.499
20
-116.423
11
133.508
21
-116.423
0
LINE
8
BLACK
6
CONTINUOUS
10
133.508
20
-116.423
11
133.539
21
-116.434
0
LINE
8
BLACK
6
CONTINUOUS
10
133.539
20
-116.434
11
133.565
21
-116.454
0
LINE
8
BLACK
6
CONTINUOUS
10
133.565
20
-116.454
11
133.73
21
-116.633
0
LINE
8
BLACK
6
CONTINUOUS
10
133.73
20
-116.633
11
134.093
21
-116.865
0
LINE
8
BLACK
6
CONTINUOUS
10
134.093
20
-116.865
11
134.507
21
-116.965
0
LINE
8
BLACK
6
CONTINUOUS
10
134.507
20
-116.965
11
134.932
21
-116.926
0
LINE
8
BLACK
6
CONTINUOUS
10
134.932
20
-116.926
11
135.321
21
-116.751
0
LINE
8
BLACK
6
CONTINUOUS
10
135.321
20
-116.751
11
135.645
21
-116.449
0
LINE
8
BLACK
6
CONTINUOUS
10
135.645
20
-116.449
11
135.658
21
-116.438
0
LINE
8
BLACK
6
CONTINUOUS
10
135.658
20
-116.438
11
135.688
21
-116.425
0
LINE
8
BLACK
6
CONTINUOUS
10
135.688
20
-116.425
11
135.705
21
-116.424
0
LINE
8
BLACK
6
CONTINUOUS
10
135.705
20
-116.424
11
135.703
21
-116.42
0
LINE
8
BLACK
6
CONTINUOUS
10
135.703
20
-116.42
11
135.7
21
-116.387
0
LINE
8
BLACK
6
CONTINUOUS
10
135.7
20
-116.387
11
135.708
21
-116.355
0
LINE
8
BLACK
6
CONTINUOUS
10
135.708
20
-116.355
11
135.853
21
-116.021
0
LINE
8
BLACK
6
CONTINUOUS
10
135.853
20
-116.021
11
135.899
21
-115.596
0
LINE
8
BLACK
6
CONTINUOUS
10
135.899
20
-115.596
11
135.805
21
-115.18
0
LINE
8
BLACK
6
CONTINUOUS
10
135.805
20
-115.18
11
135.581
21
-114.817
0
LINE
8
BLACK
6
CONTINUOUS
10
135.581
20
-114.817
11
135.252
21
-114.545
0
LINE
8
BLACK
6
CONTINUOUS
10
135.252
20
-114.545
11
134.852
21
-114.396
0
LINE
8
BLACK
6
CONTINUOUS
10
134.852
20
-114.396
11
134.426
21
-114.383
0
LINE
8
BLACK
6
CONTINUOUS
10
134.426
20
-114.383
11
134.019
21
-114.51
0
LINE
8
BLACK
6
CONTINUOUS
10
158.464
20
-89.4498
11
157.976
21
-89.2823
0
LINE
8
BLACK
6
CONTINUOUS
10
157.976
20
-89.2823
11
157.948
21
-89.2677
0
LINE
8
BLACK
6
CONTINUOUS
10
157.948
20
-89.2677
11
157.535
21
-88.9575
0
LINE
8
BLACK
6
CONTINUOUS
10
157.535
20
-88.9575
11
157.535
21
-88.9575
0
LINE
8
BLACK
6
CONTINUOUS
10
157.535
20
-88.9575
11
157.514
21
-88.935
0
LINE
8
BLACK
6
CONTINUOUS
10
157.514
20
-88.935
11
157.217
21
-88.5125
0
LINE
8
BLACK
6
CONTINUOUS
10
157.217
20
-88.5125
11
157.203
21
-88.4843
0
LINE
8
BLACK
6
CONTINUOUS
10
157.203
20
-88.4843
11
157.203
21
-88.4843
0
LINE
8
BLACK
6
CONTINUOUS
10
157.203
20
-88.4843
11
157.052
21
-87.9908
0
LINE
8
BLACK
6
CONTINUOUS
10
157.052
20
-87.9908
11
157.047
21
-87.9599
0
LINE
8
BLACK
6
CONTINUOUS
10
157.047
20
-87.9599
11
157.056
21
-87.4437
0
LINE
8
BLACK
6
CONTINUOUS
10
157.056
20
-87.4437
11
157.058
21
-87.4291
0
LINE
8
BLACK
6
CONTINUOUS
10
157.058
20
-87.4291
11
157.061
21
-87.4144
0
LINE
8
BLACK
6
CONTINUOUS
10
157.061
20
-87.4144
11
157.204
21
-86.9741
0
LINE
8
BLACK
6
CONTINUOUS
10
157.204
20
-86.9741
11
157.218
21
-86.9462
0
LINE
8
BLACK
6
CONTINUOUS
10
157.218
20
-86.9462
11
157.24
21
-86.9241
0
LINE
8
BLACK
6
CONTINUOUS
10
157.24
20
-86.9241
11
157.268
21
-86.9099
0
LINE
8
BLACK
6
CONTINUOUS
10
157.268
20
-86.9099
11
157.274
21
-86.909
0
LINE
8
BLACK
6
CONTINUOUS
10
157.274
20
-86.909
11
157.271
21
-86.902
0
LINE
8
BLACK
6
CONTINUOUS
10
157.271
20
-86.902
11
157.268
21
-86.8709
0
LINE
8
BLACK
6
CONTINUOUS
10
157.268
20
-86.8709
11
157.275
21
-86.8404
0
LINE
8
BLACK
6
CONTINUOUS
10
157.275
20
-86.8404
11
157.291
21
-86.8136
0
LINE
8
BLACK
6
CONTINUOUS
10
157.291
20
-86.8136
11
157.624
21
-86.4187
0
LINE
8
BLACK
6
CONTINUOUS
10
157.624
20
-86.4187
11
157.638
21
-86.4066
0
LINE
8
BLACK
6
CONTINUOUS
10
157.638
20
-86.4066
11
157.648
21
-86.3982
0
LINE
8
BLACK
6
CONTINUOUS
10
157.648
20
-86.3982
11
158.086
21
-86.1253
0
LINE
8
BLACK
6
CONTINUOUS
10
158.086
20
-86.1253
11
158.115
21
-86.1131
0
LINE
8
BLACK
6
CONTINUOUS
10
158.115
20
-86.1131
11
158.616
21
-85.989
0
LINE
8
BLACK
6
CONTINUOUS
10
158.616
20
-85.989
11
158.647
21
-85.9863
0
LINE
8
BLACK
6
CONTINUOUS
10
158.647
20
-85.9863
11
158.647
21
-85.9863
0
LINE
8
BLACK
6
CONTINUOUS
10
158.647
20
-85.9863
11
159.162
21
-86.0231
0
LINE
8
BLACK
6
CONTINUOUS
10
159.162
20
-86.0231
11
159.162
21
-86.0231
0
LINE
8
BLACK
6
CONTINUOUS
10
159.162
20
-86.0231
11
159.177
21
-86.0267
0
LINE
8
BLACK
6
CONTINUOUS
10
159.177
20
-86.0267
11
159.192
21
-86.0302
0
LINE
8
BLACK
6
CONTINUOUS
10
159.192
20
-86.0302
11
159.192
21
-86.0302
0
LINE
8
BLACK
6
CONTINUOUS
10
159.192
20
-86.0302
11
159.671
21
-86.2243
0
LINE
8
BLACK
6
CONTINUOUS
10
159.671
20
-86.2243
11
159.671
21
-86.2243
0
LINE
8
BLACK
6
CONTINUOUS
10
159.671
20
-86.2243
11
159.683
21
-86.2321
0
LINE
8
BLACK
6
CONTINUOUS
10
159.683
20
-86.2321
11
159.697
21
-86.2405
0
LINE
8
BLACK
6
CONTINUOUS
10
159.697
20
-86.2405
11
159.697
21
-86.2405
0
LINE
8
BLACK
6
CONTINUOUS
10
159.697
20
-86.2405
11
160.092
21
-86.5729
0
LINE
8
BLACK
6
CONTINUOUS
10
160.092
20
-86.5729
11
160.1
21
-86.5821
0
LINE
8
BLACK
6
CONTINUOUS
10
160.1
20
-86.5821
11
160.109
21
-86.5907
0
LINE
8
BLACK
6
CONTINUOUS
10
160.109
20
-86.5907
11
160.275
21
-86.8192
0
LINE
8
BLACK
6
CONTINUOUS
10
160.275
20
-86.8192
11
160.289
21
-86.8471
0
LINE
8
BLACK
6
CONTINUOUS
10
160.289
20
-86.8471
11
160.294
21
-86.878
0
LINE
8
BLACK
6
CONTINUOUS
10
160.294
20
-86.878
11
160.289
21
-86.9089
0
LINE
8
BLACK
6
CONTINUOUS
10
160.289
20
-86.9089
11
160.289
21
-86.9092
0
LINE
8
BLACK
6
CONTINUOUS
10
160.289
20
-86.9092
11
160.296
21
-86.9104
0
LINE
8
BLACK
6
CONTINUOUS
10
160.296
20
-86.9104
11
160.323
21
-86.9251
0
LINE
8
BLACK
6
CONTINUOUS
10
160.323
20
-86.9251
11
160.345
21
-86.9475
0
LINE
8
BLACK
6
CONTINUOUS
10
160.345
20
-86.9475
11
160.359
21
-86.9757
0
LINE
8
BLACK
6
CONTINUOUS
10
160.359
20
-86.9757
11
160.51
21
-87.4692
0
LINE
8
BLACK
6
CONTINUOUS
10
160.51
20
-87.4692
11
160.51
21
-87.4692
0
LINE
8
BLACK
6
CONTINUOUS
10
160.51
20
-87.4692
11
160.515
21
-87.5001
0
LINE
8
BLACK
6
CONTINUOUS
10
160.515
20
-87.5001
11
160.506
21
-88.0163
0
LINE
8
BLACK
6
CONTINUOUS
10
160.506
20
-88.0163
11
160.506
21
-88.0163
0
LINE
8
BLACK
6
CONTINUOUS
10
160.506
20
-88.0163
11
160.501
21
-88.0471
0
LINE
8
BLACK
6
CONTINUOUS
10
160.501
20
-88.0471
11
160.333
21
-88.5354
0
LINE
8
BLACK
6
CONTINUOUS
10
160.333
20
-88.5354
11
160.319
21
-88.5631
0
LINE
8
BLACK
6
CONTINUOUS
10
160.319
20
-88.5631
11
160.008
21
-88.9757
0
LINE
8
BLACK
6
CONTINUOUS
10
160.008
20
-88.9757
11
160.008
21
-88.9757
0
LINE
8
BLACK
6
CONTINUOUS
10
160.008
20
-88.9757
11
159.986
21
-88.9975
0
LINE
8
BLACK
6
CONTINUOUS
10
159.986
20
-88.9975
11
159.563
21
-89.294
0
LINE
8
BLACK
6
CONTINUOUS
10
159.563
20
-89.294
11
159.535
21
-89.3078
0
LINE
8
BLACK
6
CONTINUOUS
10
159.535
20
-89.3078
11
159.535
21
-89.3078
0
LINE
8
BLACK
6
CONTINUOUS
10
159.535
20
-89.3078
11
159.042
21
-89.4593
0
LINE
8
BLACK
6
CONTINUOUS
10
159.042
20
-89.4593
11
159.042
21
-89.4593
0
LINE
8
BLACK
6
CONTINUOUS
10
159.042
20
-89.4593
11
159.011
21
-89.4637
0
LINE
8
BLACK
6
CONTINUOUS
10
159.011
20
-89.4637
11
159.011
21
-89.4637
0
LINE
8
BLACK
6
CONTINUOUS
10
159.011
20
-89.4637
11
158.495
21
-89.4552
0
LINE
8
BLACK
6
CONTINUOUS
10
158.495
20
-89.4552
11
158.495
21
-89.4552
0
LINE
8
BLACK
6
CONTINUOUS
10
158.495
20
-89.4552
11
158.464
21
-89.4498
0
LINE
8
BLACK
6
CONTINUOUS
10
158.178
20
-86.3034
11
157.767
21
-86.5596
0
LINE
8
BLACK
6
CONTINUOUS
10
157.767
20
-86.5596
11
157.444
21
-86.9424
0
LINE
8
BLACK
6
CONTINUOUS
10
157.444
20
-86.9424
11
157.421
21
-86.9629
0
LINE
8
BLACK
6
CONTINUOUS
10
157.421
20
-86.9629
11
157.394
21
-86.9743
0
LINE
8
BLACK
6
CONTINUOUS
10
157.394
20
-86.9743
11
157.399
21
-87.005
0
LINE
8
BLACK
6
CONTINUOUS
10
157.399
20
-87.005
11
157.394
21
-87.0359
0
LINE
8
BLACK
6
CONTINUOUS
10
157.394
20
-87.0359
11
157.255
21
-87.462
0
LINE
8
BLACK
6
CONTINUOUS
10
157.255
20
-87.462
11
157.248
21
-87.9473
0
LINE
8
BLACK
6
CONTINUOUS
10
157.248
20
-87.9473
11
157.39
21
-88.4105
0
LINE
8
BLACK
6
CONTINUOUS
10
157.39
20
-88.4105
11
157.668
21
-88.8071
0
LINE
8
BLACK
6
CONTINUOUS
10
157.668
20
-88.8071
11
158.055
21
-89.0983
0
LINE
8
BLACK
6
CONTINUOUS
10
158.055
20
-89.0983
11
158.514
21
-89.2555
0
LINE
8
BLACK
6
CONTINUOUS
10
158.514
20
-89.2555
11
158.998
21
-89.2634
0
LINE
8
BLACK
6
CONTINUOUS
10
158.998
20
-89.2634
11
159.462
21
-89.1212
0
LINE
8
BLACK
6
CONTINUOUS
10
159.462
20
-89.1212
11
159.858
21
-88.8429
0
LINE
8
BLACK
6
CONTINUOUS
10
159.858
20
-88.8429
11
160.149
21
-88.4555
0
LINE
8
BLACK
6
CONTINUOUS
10
160.149
20
-88.4555
11
160.307
21
-87.9972
0
LINE
8
BLACK
6
CONTINUOUS
10
160.307
20
-87.9972
11
160.314
21
-87.5127
0
LINE
8
BLACK
6
CONTINUOUS
10
160.314
20
-87.5127
11
160.168
21
-87.0343
0
LINE
8
BLACK
6
CONTINUOUS
10
160.168
20
-87.0343
11
160.163
21
-87.0034
0
LINE
8
BLACK
6
CONTINUOUS
10
160.163
20
-87.0034
11
160.168
21
-86.9739
0
LINE
8
BLACK
6
CONTINUOUS
10
160.168
20
-86.9739
11
160.163
21
-86.9731
0
LINE
8
BLACK
6
CONTINUOUS
10
160.163
20
-86.9731
11
160.135
21
-86.9589
0
LINE
8
BLACK
6
CONTINUOUS
10
160.135
20
-86.9589
11
160.113
21
-86.9368
0
LINE
8
BLACK
6
CONTINUOUS
10
160.113
20
-86.9368
11
159.954
21
-86.7181
0
LINE
8
BLACK
6
CONTINUOUS
10
159.954
20
-86.7181
11
159.581
21
-86.4037
0
LINE
8
BLACK
6
CONTINUOUS
10
159.581
20
-86.4037
11
159.132
21
-86.2215
0
LINE
8
BLACK
6
CONTINUOUS
10
159.132
20
-86.2215
11
158.648
21
-86.1869
0
LINE
8
BLACK
6
CONTINUOUS
10
158.648
20
-86.1869
11
158.178
21
-86.3034
0
LINE
8
BLACK
6
CONTINUOUS
10
125.524
20
-89.4498
11
125.036
21
-89.2823
0
LINE
8
BLACK
6
CONTINUOUS
10
125.036
20
-89.2823
11
125.008
21
-89.2677
0
LINE
8
BLACK
6
CONTINUOUS
10
125.008
20
-89.2677
11
124.595
21
-88.9575
0
LINE
8
BLACK
6
CONTINUOUS
10
124.595
20
-88.9575
11
124.595
21
-88.9575
0
LINE
8
BLACK
6
CONTINUOUS
10
124.595
20
-88.9575
11
124.574
21
-88.935
0
LINE
8
BLACK
6
CONTINUOUS
10
124.574
20
-88.935
11
124.277
21
-88.5125
0
LINE
8
BLACK
6
CONTINUOUS
10
124.277
20
-88.5125
11
124.263
21
-88.4843
0
LINE
8
BLACK
6
CONTINUOUS
10
124.263
20
-88.4843
11
124.263
21
-88.4843
0
LINE
8
BLACK
6
CONTINUOUS
10
124.263
20
-88.4843
11
124.112
21
-87.9908
0
LINE
8
BLACK
6
CONTINUOUS
10
124.112
20
-87.9908
11
124.107
21
-87.9599
0
LINE
8
BLACK
6
CONTINUOUS
10
124.107
20
-87.9599
11
124.116
21
-87.4437
0
LINE
8
BLACK
6
CONTINUOUS
10
124.116
20
-87.4437
11
124.118
21
-87.4291
0
LINE
8
BLACK
6
CONTINUOUS
10
124.118
20
-87.4291
11
124.121
21
-87.4144
0
LINE
8
BLACK
6
CONTINUOUS
10
124.121
20
-87.4144
11
124.264
21
-86.9741
0
LINE
8
BLACK
6
CONTINUOUS
10
124.264
20
-86.9741
11
124.278
21
-86.9462
0
LINE
8
BLACK
6
CONTINUOUS
10
124.278
20
-86.9462
11
124.3
21
-86.9241
0
LINE
8
BLACK
6
CONTINUOUS
10
124.3
20
-86.9241
11
124.328
21
-86.9099
0
LINE
8
BLACK
6
CONTINUOUS
10
124.328
20
-86.9099
11
124.334
21
-86.909
0
LINE
8
BLACK
6
CONTINUOUS
10
124.334
20
-86.909
11
124.331
21
-86.902
0
LINE
8
BLACK
6
CONTINUOUS
10
124.331
20
-86.902
11
124.328
21
-86.8709
0
LINE
8
BLACK
6
CONTINUOUS
10
124.328
20
-86.8709
11
124.335
21
-86.8404
0
LINE
8
BLACK
6
CONTINUOUS
10
124.335
20
-86.8404
11
124.351
21
-86.8136
0
LINE
8
BLACK
6
CONTINUOUS
10
124.351
20
-86.8136
11
124.684
21
-86.4187
0
LINE
8
BLACK
6
CONTINUOUS
10
124.684
20
-86.4187
11
124.698
21
-86.4066
0
LINE
8
BLACK
6
CONTINUOUS
10
124.698
20
-86.4066
11
124.708
21
-86.3982
0
LINE
8
BLACK
6
CONTINUOUS
10
124.708
20
-86.3982
11
125.146
21
-86.1253
0
LINE
8
BLACK
6
CONTINUOUS
10
125.146
20
-86.1253
11
125.175
21
-86.1131
0
LINE
8
BLACK
6
CONTINUOUS
10
125.175
20
-86.1131
11
125.676
21
-85.989
0
LINE
8
BLACK
6
CONTINUOUS
10
125.676
20
-85.989
11
125.707
21
-85.9863
0
LINE
8
BLACK
6
CONTINUOUS
10
125.707
20
-85.9863
11
125.707
21
-85.9863
0
LINE
8
BLACK
6
CONTINUOUS
10
125.707
20
-85.9863
11
126.222
21
-86.0231
0
LINE
8
BLACK
6
CONTINUOUS
10
126.222
20
-86.0231
11
126.222
21
-86.0231
0
LINE
8
BLACK
6
CONTINUOUS
10
126.222
20
-86.0231
11
126.237
21
-86.0267
0
LINE
8
BLACK
6
CONTINUOUS
10
126.237
20
-86.0267
11
126.252
21
-86.0302
0
LINE
8
BLACK
6
CONTINUOUS
10
126.252
20
-86.0302
11
126.252
21
-86.0302
0
LINE
8
BLACK
6
CONTINUOUS
10
126.252
20
-86.0302
11
126.731
21
-86.2243
0
LINE
8
BLACK
6
CONTINUOUS
10
126.731
20
-86.2243
11
126.731
21
-86.2243
0
LINE
8
BLACK
6
CONTINUOUS
10
126.731
20
-86.2243
11
126.743
21
-86.2321
0
LINE
8
BLACK
6
CONTINUOUS
10
126.743
20
-86.2321
11
126.757
21
-86.2405
0
LINE
8
BLACK
6
CONTINUOUS
10
126.757
20
-86.2405
11
126.757
21
-86.2405
0
LINE
8
BLACK
6
CONTINUOUS
10
126.757
20
-86.2405
11
127.152
21
-86.5729
0
LINE
8
BLACK
6
CONTINUOUS
10
127.152
20
-86.5729
11
127.16
21
-86.5821
0
LINE
8
BLACK
6
CONTINUOUS
10
127.16
20
-86.5821
11
127.169
21
-86.5907
0
LINE
8
BLACK
6
CONTINUOUS
10
127.169
20
-86.5907
11
127.335
21
-86.8192
0
LINE
8
BLACK
6
CONTINUOUS
10
127.335
20
-86.8192
11
127.349
21
-86.8471
0
LINE
8
BLACK
6
CONTINUOUS
10
127.349
20
-86.8471
11
127.354
21
-86.878
0
LINE
8
BLACK
6
CONTINUOUS
10
127.354
20
-86.878
11
127.349
21
-86.9089
0
LINE
8
BLACK
6
CONTINUOUS
10
127.349
20
-86.9089
11
127.349
21
-86.9092
0
LINE
8
BLACK
6
CONTINUOUS
10
127.349
20
-86.9092
11
127.356
21
-86.9104
0
LINE
8
BLACK
6
CONTINUOUS
10
127.356
20
-86.9104
11
127.383
21
-86.9251
0
LINE
8
BLACK
6
CONTINUOUS
10
127.383
20
-86.9251
11
127.405
21
-86.9475
0
LINE
8
BLACK
6
CONTINUOUS
10
127.405
20
-86.9475
11
127.419
21
-86.9757
0
LINE
8
BLACK
6
CONTINUOUS
10
127.419
20
-86.9757
11
127.57
21
-87.4692
0
LINE
8
BLACK
6
CONTINUOUS
10
127.57
20
-87.4692
11
127.57
21
-87.4692
0
LINE
8
BLACK
6
CONTINUOUS
10
127.57
20
-87.4692
11
127.575
21
-87.5001
0
LINE
8
BLACK
6
CONTINUOUS
10
127.575
20
-87.5001
11
127.566
21
-88.0163
0
LINE
8
BLACK
6
CONTINUOUS
10
127.566
20
-88.0163
11
127.566
21
-88.0163
0
LINE
8
BLACK
6
CONTINUOUS
10
127.566
20
-88.0163
11
127.561
21
-88.0471
0
LINE
8
BLACK
6
CONTINUOUS
10
127.561
20
-88.0471
11
127.393
21
-88.5354
0
LINE
8
BLACK
6
CONTINUOUS
10
127.393
20
-88.5354
11
127.379
21
-88.5631
0
LINE
8
BLACK
6
CONTINUOUS
10
127.379
20
-88.5631
11
127.068
21
-88.9757
0
LINE
8
BLACK
6
CONTINUOUS
10
127.068
20
-88.9757
11
127.068
21
-88.9757
0
LINE
8
BLACK
6
CONTINUOUS
10
127.068
20
-88.9757
11
127.046
21
-88.9975
0
LINE
8
BLACK
6
CONTINUOUS
10
127.046
20
-88.9975
11
126.623
21
-89.294
0
LINE
8
BLACK
6
CONTINUOUS
10
126.623
20
-89.294
11
126.595
21
-89.3078
0
LINE
8
BLACK
6
CONTINUOUS
10
126.595
20
-89.3078
11
126.595
21
-89.3078
0
LINE
8
BLACK
6
CONTINUOUS
10
126.595
20
-89.3078
11
126.102
21
-89.4593
0
LINE
8
BLACK
6
CONTINUOUS
10
126.102
20
-89.4593
11
126.102
21
-89.4593
0
LINE
8
BLACK
6
CONTINUOUS
10
126.102
20
-89.4593
11
126.071
21
-89.4637
0
LINE
8
BLACK
6
CONTINUOUS
10
126.071
20
-89.4637
11
126.071
21
-89.4637
0
LINE
8
BLACK
6
CONTINUOUS
10
126.071
20
-89.4637
11
125.555
21
-89.4552
0
LINE
8
BLACK
6
CONTINUOUS
10
125.555
20
-89.4552
11
125.555
21
-89.4552
0
LINE
8
BLACK
6
CONTINUOUS
10
125.555
20
-89.4552
11
125.524
21
-89.4498
0
LINE
8
BLACK
6
CONTINUOUS
10
125.238
20
-86.3034
11
124.827
21
-86.5596
0
LINE
8
BLACK
6
CONTINUOUS
10
124.827
20
-86.5596
11
124.504
21
-86.9424
0
LINE
8
BLACK
6
CONTINUOUS
10
124.504
20
-86.9424
11
124.481
21
-86.9629
0
LINE
8
BLACK
6
CONTINUOUS
10
124.481
20
-86.9629
11
124.454
21
-86.9743
0
LINE
8
BLACK
6
CONTINUOUS
10
124.454
20
-86.9743
11
124.459
21
-87.005
0
LINE
8
BLACK
6
CONTINUOUS
10
124.459
20
-87.005
11
124.454
21
-87.0359
0
LINE
8
BLACK
6
CONTINUOUS
10
124.454
20
-87.0359
11
124.315
21
-87.462
0
LINE
8
BLACK
6
CONTINUOUS
10
124.315
20
-87.462
11
124.308
21
-87.9473
0
LINE
8
BLACK
6
CONTINUOUS
10
124.308
20
-87.9473
11
124.45
21
-88.4105
0
LINE
8
BLACK
6
CONTINUOUS
10
124.45
20
-88.4105
11
124.728
21
-88.8071
0
LINE
8
BLACK
6
CONTINUOUS
10
124.728
20
-88.8071
11
125.115
21
-89.0983
0
LINE
8
BLACK
6
CONTINUOUS
10
125.115
20
-89.0983
11
125.574
21
-89.2555
0
LINE
8
BLACK
6
CONTINUOUS
10
125.574
20
-89.2555
11
126.058
21
-89.2634
0
LINE
8
BLACK
6
CONTINUOUS
10
126.058
20
-89.2634
11
126.522
21
-89.1212
0
LINE
8
BLACK
6
CONTINUOUS
10
126.522
20
-89.1212
11
126.918
21
-88.8429
0
LINE
8
BLACK
6
CONTINUOUS
10
126.918
20
-88.8429
11
127.209
21
-88.4555
0
LINE
8
BLACK
6
CONTINUOUS
10
127.209
20
-88.4555
11
127.367
21
-87.9972
0
LINE
8
BLACK
6
CONTINUOUS
10
127.367
20
-87.9972
11
127.374
21
-87.5127
0
LINE
8
BLACK
6
CONTINUOUS
10
127.374
20
-87.5127
11
127.228
21
-87.0343
0
LINE
8
BLACK
6
CONTINUOUS
10
127.228
20
-87.0343
11
127.223
21
-87.0034
0
LINE
8
BLACK
6
CONTINUOUS
10
127.223
20
-87.0034
11
127.228
21
-86.9739
0
LINE
8
BLACK
6
CONTINUOUS
10
127.228
20
-86.9739
11
127.223
21
-86.9731
0
LINE
8
BLACK
6
CONTINUOUS
10
127.223
20
-86.9731
11
127.195
21
-86.9589
0
LINE
8
BLACK
6
CONTINUOUS
10
127.195
20
-86.9589
11
127.173
21
-86.9368
0
LINE
8
BLACK
6
CONTINUOUS
10
127.173
20
-86.9368
11
127.014
21
-86.7181
0
LINE
8
BLACK
6
CONTINUOUS
10
127.014
20
-86.7181
11
126.641
21
-86.4037
0
LINE
8
BLACK
6
CONTINUOUS
10
126.641
20
-86.4037
11
126.192
21
-86.2215
0
LINE
8
BLACK
6
CONTINUOUS
10
126.192
20
-86.2215
11
125.708
21
-86.1869
0
LINE
8
BLACK
6
CONTINUOUS
10
125.708
20
-86.1869
11
125.238
21
-86.3034
0
LINE
8
BLACK
6
CONTINUOUS
10
150.138
20
-86.236
11
150.146
21
-86.2366
0
LINE
8
BLACK
6
CONTINUOUS
10
150.146
20
-86.2366
11
150.592
21
-86.3449
0
LINE
8
BLACK
6
CONTINUOUS
10
150.592
20
-86.3449
11
150.592
21
-86.3449
0
LINE
8
BLACK
6
CONTINUOUS
10
150.592
20
-86.3449
11
150.592
21
-86.3449
0
LINE
8
BLACK
6
CONTINUOUS
10
150.592
20
-86.3449
11
150.609
21
-86.3504
0
LINE
8
BLACK
6
CONTINUOUS
10
150.609
20
-86.3504
11
150.615
21
-86.3547
0
LINE
8
BLACK
6
CONTINUOUS
10
150.615
20
-86.3547
11
150.623
21
-86.3578
0
LINE
8
BLACK
6
CONTINUOUS
10
150.623
20
-86.3578
11
151.01
21
-86.6051
0
LINE
8
BLACK
6
CONTINUOUS
10
151.01
20
-86.6051
11
151.024
21
-86.6156
0
LINE
8
BLACK
6
CONTINUOUS
10
151.024
20
-86.6156
11
151.027
21
-86.6189
0
LINE
8
BLACK
6
CONTINUOUS
10
151.027
20
-86.6189
11
151.03
21
-86.6215
0
LINE
8
BLACK
6
CONTINUOUS
10
151.03
20
-86.6215
11
151.204
21
-86.8101
0
LINE
8
BLACK
6
CONTINUOUS
10
151.204
20
-86.8101
11
151.215
21
-86.8238
0
LINE
8
BLACK
6
CONTINUOUS
10
151.215
20
-86.8238
11
151.228
21
-86.8539
0
LINE
8
BLACK
6
CONTINUOUS
10
151.228
20
-86.8539
11
151.23
21
-86.8866
0
LINE
8
BLACK
6
CONTINUOUS
10
151.23
20
-86.8866
11
151.225
21
-86.9066
0
LINE
8
BLACK
6
CONTINUOUS
10
151.225
20
-86.9066
11
151.238
21
-86.907
0
LINE
8
BLACK
6
CONTINUOUS
10
151.238
20
-86.907
11
151.268
21
-86.9188
0
LINE
8
BLACK
6
CONTINUOUS
10
151.268
20
-86.9188
11
151.293
21
-86.9399
0
LINE
8
BLACK
6
CONTINUOUS
10
151.293
20
-86.9399
11
151.31
21
-86.968
0
LINE
8
BLACK
6
CONTINUOUS
10
151.31
20
-86.968
11
151.481
21
-87.395
0
LINE
8
BLACK
6
CONTINUOUS
10
151.481
20
-87.395
11
151.481
21
-87.395
0
LINE
8
BLACK
6
CONTINUOUS
10
151.481
20
-87.395
11
151.481
21
-87.395
0
LINE
8
BLACK
6
CONTINUOUS
10
151.481
20
-87.395
11
151.486
21
-87.4115
0
LINE
8
BLACK
6
CONTINUOUS
10
151.486
20
-87.4115
11
151.486
21
-87.4194
0
LINE
8
BLACK
6
CONTINUOUS
10
151.486
20
-87.4194
11
151.488
21
-87.4271
0
LINE
8
BLACK
6
CONTINUOUS
10
151.488
20
-87.4271
11
151.51
21
-87.8862
0
LINE
8
BLACK
6
CONTINUOUS
10
151.51
20
-87.8862
11
151.51
21
-87.8862
0
LINE
8
BLACK
6
CONTINUOUS
10
151.51
20
-87.8862
11
151.51
21
-87.8862
0
LINE
8
BLACK
6
CONTINUOUS
10
151.51
20
-87.8862
11
151.51
21
-87.9035
0
LINE
8
BLACK
6
CONTINUOUS
10
151.51
20
-87.9035
11
151.508
21
-87.911
0
LINE
8
BLACK
6
CONTINUOUS
10
151.508
20
-87.911
11
151.507
21
-87.9189
0
LINE
8
BLACK
6
CONTINUOUS
10
151.507
20
-87.9189
11
151.379
21
-88.3606
0
LINE
8
BLACK
6
CONTINUOUS
10
151.379
20
-88.3606
11
151.373
21
-88.3767
0
LINE
8
BLACK
6
CONTINUOUS
10
151.373
20
-88.3767
11
151.369
21
-88.3832
0
LINE
8
BLACK
6
CONTINUOUS
10
151.369
20
-88.3832
11
151.365
21
-88.3903
0
LINE
8
BLACK
6
CONTINUOUS
10
151.365
20
-88.3903
11
151.102
21
-88.767
0
LINE
8
BLACK
6
CONTINUOUS
10
151.102
20
-88.767
11
151.102
21
-88.767
0
LINE
8
BLACK
6
CONTINUOUS
10
151.102
20
-88.767
11
151.102
21
-88.767
0
LINE
8
BLACK
6
CONTINUOUS
10
151.102
20
-88.767
11
151.091
21
-88.7803
0
LINE
8
BLACK
6
CONTINUOUS
10
151.091
20
-88.7803
11
151.084
21
-88.7849
0
LINE
8
BLACK
6
CONTINUOUS
10
151.084
20
-88.7849
11
151.079
21
-88.7905
0
LINE
8
BLACK
6
CONTINUOUS
10
151.079
20
-88.7905
11
150.708
21
-89.0616
0
LINE
8
BLACK
6
CONTINUOUS
10
150.708
20
-89.0616
11
150.708
21
-89.0616
0
LINE
8
BLACK
6
CONTINUOUS
10
150.708
20
-89.0616
11
150.708
21
-89.0616
0
LINE
8
BLACK
6
CONTINUOUS
10
150.708
20
-89.0616
11
150.693
21
-89.0705
0
LINE
8
BLACK
6
CONTINUOUS
10
150.693
20
-89.0705
11
150.685
21
-89.0728
0
LINE
8
BLACK
6
CONTINUOUS
10
150.685
20
-89.0728
11
150.678
21
-89.0764
0
LINE
8
BLACK
6
CONTINUOUS
10
150.678
20
-89.0764
11
150.239
21
-89.2126
0
LINE
8
BLACK
6
CONTINUOUS
10
150.239
20
-89.2126
11
150.222
21
-89.2163
0
LINE
8
BLACK
6
CONTINUOUS
10
150.222
20
-89.2163
11
150.215
21
-89.216
0
LINE
8
BLACK
6
CONTINUOUS
10
150.215
20
-89.216
11
150.207
21
-89.217
0
LINE
8
BLACK
6
CONTINUOUS
10
150.207
20
-89.217
11
149.747
21
-89.2037
0
LINE
8
BLACK
6
CONTINUOUS
10
149.747
20
-89.2037
11
149.747
21
-89.2037
0
LINE
8
BLACK
6
CONTINUOUS
10
149.747
20
-89.2037
11
149.747
21
-89.2037
0
LINE
8
BLACK
6
CONTINUOUS
10
149.747
20
-89.2037
11
149.73
21
-89.2017
0
LINE
8
BLACK
6
CONTINUOUS
10
149.73
20
-89.2017
11
149.723
21
-89.1989
0
LINE
8
BLACK
6
CONTINUOUS
10
149.723
20
-89.1989
11
149.715
21
-89.1974
0
LINE
8
BLACK
6
CONTINUOUS
10
149.715
20
-89.1974
11
149.285
21
-89.0359
0
LINE
8
BLACK
6
CONTINUOUS
10
149.285
20
-89.0359
11
149.269
21
-89.0285
0
LINE
8
BLACK
6
CONTINUOUS
10
149.269
20
-89.0285
11
149.263
21
-89.0234
0
LINE
8
BLACK
6
CONTINUOUS
10
149.263
20
-89.0234
11
149.256
21
-89.0195
0
LINE
8
BLACK
6
CONTINUOUS
10
149.256
20
-89.0195
11
148.901
21
-88.7273
0
LINE
8
BLACK
6
CONTINUOUS
10
148.901
20
-88.7273
11
148.901
21
-88.7273
0
LINE
8
BLACK
6
CONTINUOUS
10
148.901
20
-88.7273
11
148.901
21
-88.7273
0
LINE
8
BLACK
6
CONTINUOUS
10
148.901
20
-88.7273
11
148.889
21
-88.7152
0
LINE
8
BLACK
6
CONTINUOUS
10
148.889
20
-88.7152
11
148.885
21
-88.7085
0
LINE
8
BLACK
6
CONTINUOUS
10
148.885
20
-88.7085
11
148.88
21
-88.7026
0
LINE
8
BLACK
6
CONTINUOUS
10
148.88
20
-88.7026
11
148.638
21
-88.3112
0
LINE
8
BLACK
6
CONTINUOUS
10
148.638
20
-88.3112
11
148.638
21
-88.3112
0
LINE
8
BLACK
6
CONTINUOUS
10
148.638
20
-88.3112
11
148.638
21
-88.3112
0
LINE
8
BLACK
6
CONTINUOUS
10
148.638
20
-88.3112
11
148.631
21
-88.2958
0
LINE
8
BLACK
6
CONTINUOUS
10
148.631
20
-88.2958
11
148.629
21
-88.2881
0
LINE
8
BLACK
6
CONTINUOUS
10
148.629
20
-88.2881
11
148.626
21
-88.2808
0
LINE
8
BLACK
6
CONTINUOUS
10
148.626
20
-88.2808
11
148.525
21
-87.8324
0
LINE
8
BLACK
6
CONTINUOUS
10
148.525
20
-87.8324
11
148.522
21
-87.8153
0
LINE
8
BLACK
6
CONTINUOUS
10
148.522
20
-87.8153
11
148.523
21
-87.8074
0
LINE
8
BLACK
6
CONTINUOUS
10
148.523
20
-87.8074
11
148.523
21
-87.7996
0
LINE
8
BLACK
6
CONTINUOUS
10
148.523
20
-87.7996
11
148.572
21
-87.3425
0
LINE
8
BLACK
6
CONTINUOUS
10
148.572
20
-87.3425
11
148.575
21
-87.3256
0
LINE
8
BLACK
6
CONTINUOUS
10
148.575
20
-87.3256
11
148.578
21
-87.3198
0
LINE
8
BLACK
6
CONTINUOUS
10
148.578
20
-87.3198
11
148.58
21
-87.3135
0
LINE
8
BLACK
6
CONTINUOUS
10
148.58
20
-87.3135
11
148.73
21
-86.9653
0
LINE
8
BLACK
6
CONTINUOUS
10
148.73
20
-86.9653
11
148.739
21
-86.9501
0
LINE
8
BLACK
6
CONTINUOUS
10
148.739
20
-86.9501
11
148.761
21
-86.926
0
LINE
8
BLACK
6
CONTINUOUS
10
148.761
20
-86.926
11
148.79
21
-86.9104
0
LINE
8
BLACK
6
CONTINUOUS
10
148.79
20
-86.9104
11
148.814
21
-86.9063
0
LINE
8
BLACK
6
CONTINUOUS
10
148.814
20
-86.9063
11
148.81
21
-86.895
0
LINE
8
BLACK
6
CONTINUOUS
10
148.81
20
-86.895
11
148.81
21
-86.8621
0
LINE
8
BLACK
6
CONTINUOUS
10
148.81
20
-86.8621
11
148.821
21
-86.831
0
LINE
8
BLACK
6
CONTINUOUS
10
148.821
20
-86.831
11
148.841
21
-86.8049
0
LINE
8
BLACK
6
CONTINUOUS
10
148.841
20
-86.8049
11
149.177
21
-86.491
0
LINE
8
BLACK
6
CONTINUOUS
10
149.177
20
-86.491
11
149.177
21
-86.491
0
LINE
8
BLACK
6
CONTINUOUS
10
149.177
20
-86.491
11
149.177
21
-86.491
0
LINE
8
BLACK
6
CONTINUOUS
10
149.177
20
-86.491
11
149.19
21
-86.4804
0
LINE
8
BLACK
6
CONTINUOUS
10
149.19
20
-86.4804
11
149.197
21
-86.4772
0
LINE
8
BLACK
6
CONTINUOUS
10
149.197
20
-86.4772
11
149.204
21
-86.4729
0
LINE
8
BLACK
6
CONTINUOUS
10
149.204
20
-86.4729
11
149.623
21
-86.2847
0
LINE
8
BLACK
6
CONTINUOUS
10
149.623
20
-86.2847
11
149.64
21
-86.279
0
LINE
8
BLACK
6
CONTINUOUS
10
149.64
20
-86.279
11
149.648
21
-86.2783
0
LINE
8
BLACK
6
CONTINUOUS
10
149.648
20
-86.2783
11
149.655
21
-86.2763
0
LINE
8
BLACK
6
CONTINUOUS
10
149.655
20
-86.2763
11
150.113
21
-86.2342
0
LINE
8
BLACK
6
CONTINUOUS
10
150.113
20
-86.2342
11
150.113
21
-86.2342
0
LINE
8
BLACK
6
CONTINUOUS
10
150.113
20
-86.2342
11
150.113
21
-86.2342
0
LINE
8
BLACK
6
CONTINUOUS
10
150.113
20
-86.2342
11
150.13
21
-86.2341
0
LINE
8
BLACK
6
CONTINUOUS
10
150.13
20
-86.2341
11
150.138
21
-86.236
0
LINE
8
BLACK
6
CONTINUOUS
10
149.69
20
-86.474
11
149.301
21
-86.6485
0
LINE
8
BLACK
6
CONTINUOUS
10
149.301
20
-86.6485
11
148.977
21
-86.9511
0
LINE
8
BLACK
6
CONTINUOUS
10
148.977
20
-86.9511
11
148.964
21
-86.9617
0
LINE
8
BLACK
6
CONTINUOUS
10
148.964
20
-86.9617
11
148.934
21
-86.9749
0
LINE
8
BLACK
6
CONTINUOUS
10
148.934
20
-86.9749
11
148.917
21
-86.9763
0
LINE
8
BLACK
6
CONTINUOUS
10
148.917
20
-86.9763
11
148.919
21
-86.9801
0
LINE
8
BLACK
6
CONTINUOUS
10
148.919
20
-86.9801
11
148.922
21
-87.0128
0
LINE
8
BLACK
6
CONTINUOUS
10
148.922
20
-87.0128
11
148.914
21
-87.0447
0
LINE
8
BLACK
6
CONTINUOUS
10
148.914
20
-87.0447
11
148.769
21
-87.379
0
LINE
8
BLACK
6
CONTINUOUS
10
148.769
20
-87.379
11
148.723
21
-87.8045
0
LINE
8
BLACK
6
CONTINUOUS
10
148.723
20
-87.8045
11
148.817
21
-88.2204
0
LINE
8
BLACK
6
CONTINUOUS
10
148.817
20
-88.2204
11
149.041
21
-88.5835
0
LINE
8
BLACK
6
CONTINUOUS
10
149.041
20
-88.5835
11
149.37
21
-88.8545
0
LINE
8
BLACK
6
CONTINUOUS
10
149.37
20
-88.8545
11
149.77
21
-89.0043
0
LINE
8
BLACK
6
CONTINUOUS
10
149.77
20
-89.0043
11
150.196
21
-89.0166
0
LINE
8
BLACK
6
CONTINUOUS
10
150.196
20
-89.0166
11
150.603
21
-88.8903
0
LINE
8
BLACK
6
CONTINUOUS
10
150.603
20
-88.8903
11
150.948
21
-88.6388
0
LINE
8
BLACK
6
CONTINUOUS
10
150.948
20
-88.6388
11
151.192
21
-88.2893
0
LINE
8
BLACK
6
CONTINUOUS
10
151.192
20
-88.2893
11
151.31
21
-87.8795
0
LINE
8
BLACK
6
CONTINUOUS
10
151.31
20
-87.8795
11
151.289
21
-87.4536
0
LINE
8
BLACK
6
CONTINUOUS
10
151.289
20
-87.4536
11
151.125
21
-87.042
0
LINE
8
BLACK
6
CONTINUOUS
10
151.125
20
-87.042
11
151.12
21
-87.0255
0
LINE
8
BLACK
6
CONTINUOUS
10
151.12
20
-87.0255
11
151.118
21
-86.9927
0
LINE
8
BLACK
6
CONTINUOUS
10
151.118
20
-86.9927
11
151.123
21
-86.9766
0
LINE
8
BLACK
6
CONTINUOUS
10
151.123
20
-86.9766
11
151.114
21
-86.9766
0
LINE
8
BLACK
6
CONTINUOUS
10
151.114
20
-86.9766
11
151.083
21
-86.966
0
LINE
8
BLACK
6
CONTINUOUS
10
151.083
20
-86.966
11
151.057
21
-86.9459
0
LINE
8
BLACK
6
CONTINUOUS
10
151.057
20
-86.9459
11
150.892
21
-86.7667
0
LINE
8
BLACK
6
CONTINUOUS
10
150.892
20
-86.7667
11
150.529
21
-86.5354
0
LINE
8
BLACK
6
CONTINUOUS
10
150.529
20
-86.5354
11
150.115
21
-86.4348
0
LINE
8
BLACK
6
CONTINUOUS
10
150.115
20
-86.4348
11
149.69
21
-86.474
0
LINE
8
BLACK
6
CONTINUOUS
10
123.188
20
-85.836
11
122.883
21
-86.0916
0
LINE
8
BLACK
6
CONTINUOUS
10
122.883
20
-86.0916
11
122.51
21
-86.2276
0
LINE
8
BLACK
6
CONTINUOUS
10
122.51
20
-86.2276
11
122.112
21
-86.2276
0
LINE
8
BLACK
6
CONTINUOUS
10
122.112
20
-86.2276
11
121.738
21
-86.0916
0
LINE
8
BLACK
6
CONTINUOUS
10
121.738
20
-86.0916
11
121.434
21
-85.836
0
LINE
8
BLACK
6
CONTINUOUS
10
121.434
20
-85.836
11
121.235
21
-85.4916
0
LINE
8
BLACK
6
CONTINUOUS
10
121.235
20
-85.4916
11
121.166
21
-85.1
0
LINE
8
BLACK
6
CONTINUOUS
10
121.166
20
-85.1
11
121.235
21
-84.7084
0
LINE
8
BLACK
6
CONTINUOUS
10
121.235
20
-84.7084
11
121.434
21
-84.364
0
LINE
8
BLACK
6
CONTINUOUS
10
121.434
20
-84.364
11
121.738
21
-84.1084
0
LINE
8
BLACK
6
CONTINUOUS
10
121.738
20
-84.1084
11
122.112
21
-83.9724
0
LINE
8
BLACK
6
CONTINUOUS
10
122.112
20
-83.9724
11
122.51
21
-83.9724
0
LINE
8
BLACK
6
CONTINUOUS
10
122.51
20
-83.9724
11
122.883
21
-84.1084
0
LINE
8
BLACK
6
CONTINUOUS
10
122.883
20
-84.1084
11
123.188
21
-84.364
0
LINE
8
BLACK
6
CONTINUOUS
10
123.188
20
-84.364
11
123.387
21
-84.7084
0
LINE
8
BLACK
6
CONTINUOUS
10
123.387
20
-84.7084
11
123.456
21
-85.1
0
LINE
8
BLACK
6
CONTINUOUS
10
123.456
20
-85.1
11
123.387
21
-85.4916
0
LINE
8
BLACK
6
CONTINUOUS
10
123.387
20
-85.4916
11
123.188
21
-85.836
0
LINE
8
BLACK
6
CONTINUOUS
10
123.02
20
-84.5054
11
122.773
21
-84.2989
0
LINE
8
BLACK
6
CONTINUOUS
10
122.773
20
-84.2989
11
122.472
21
-84.1891
0
LINE
8
BLACK
6
CONTINUOUS
10
122.472
20
-84.1891
11
122.15
21
-84.1891
0
LINE
8
BLACK
6
CONTINUOUS
10
122.15
20
-84.1891
11
121.849
21
-84.2989
0
LINE
8
BLACK
6
CONTINUOUS
10
121.849
20
-84.2989
11
121.602
21
-84.5054
0
LINE
8
BLACK
6
CONTINUOUS
10
121.602
20
-84.5054
11
121.442
21
-84.7836
0
LINE
8
BLACK
6
CONTINUOUS
10
121.442
20
-84.7836
11
121.386
21
-85.1
0
LINE
8
BLACK
6
CONTINUOUS
10
121.386
20
-85.1
11
121.442
21
-85.4164
0
LINE
8
BLACK
6
CONTINUOUS
10
121.442
20
-85.4164
11
121.602
21
-85.6946
0
LINE
8
BLACK
6
CONTINUOUS
10
121.602
20
-85.6946
11
121.849
21
-85.9011
0
LINE
8
BLACK
6
CONTINUOUS
10
121.849
20
-85.9011
11
122.15
21
-86.0109
0
LINE
8
BLACK
6
CONTINUOUS
10
122.15
20
-86.0109
11
122.472
21
-86.0109
0
LINE
8
BLACK
6
CONTINUOUS
10
122.472
20
-86.0109
11
122.773
21
-85.9011
0
LINE
8
BLACK
6
CONTINUOUS
10
122.773
20
-85.9011
11
123.02
21
-85.6946
0
LINE
8
BLACK
6
CONTINUOUS
10
123.02
20
-85.6946
11
123.18
21
-85.4164
0
LINE
8
BLACK
6
CONTINUOUS
10
123.18
20
-85.4164
11
123.236
21
-85.1
0
LINE
8
BLACK
6
CONTINUOUS
10
123.236
20
-85.1
11
123.18
21
-84.7836
0
LINE
8
BLACK
6
CONTINUOUS
10
123.18
20
-84.7836
11
123.02
21
-84.5054
0
LINE
8
BLACK
6
CONTINUOUS
10
163.188
20
-85.836
11
162.883
21
-86.0916
0
LINE
8
BLACK
6
CONTINUOUS
10
162.883
20
-86.0916
11
162.51
21
-86.2276
0
LINE
8
BLACK
6
CONTINUOUS
10
162.51
20
-86.2276
11
162.112
21
-86.2276
0
LINE
8
BLACK
6
CONTINUOUS
10
162.112
20
-86.2276
11
161.738
21
-86.0916
0
LINE
8
BLACK
6
CONTINUOUS
10
161.738
20
-86.0916
11
161.434
21
-85.836
0
LINE
8
BLACK
6
CONTINUOUS
10
161.434
20
-85.836
11
161.235
21
-85.4916
0
LINE
8
BLACK
6
CONTINUOUS
10
161.235
20
-85.4916
11
161.166
21
-85.1
0
LINE
8
BLACK
6
CONTINUOUS
10
161.166
20
-85.1
11
161.235
21
-84.7084
0
LINE
8
BLACK
6
CONTINUOUS
10
161.235
20
-84.7084
11
161.434
21
-84.364
0
LINE
8
BLACK
6
CONTINUOUS
10
161.434
20
-84.364
11
161.738
21
-84.1084
0
LINE
8
BLACK
6
CONTINUOUS
10
161.738
20
-84.1084
11
162.112
21
-83.9724
0
LINE
8
BLACK
6
CONTINUOUS
10
162.112
20
-83.9724
11
162.51
21
-83.9724
0
LINE
8
BLACK
6
CONTINUOUS
10
162.51
20
-83.9724
11
162.883
21
-84.1084
0
LINE
8
BLACK
6
CONTINUOUS
10
162.883
20
-84.1084
11
163.188
21
-84.364
0
LINE
8
BLACK
6
CONTINUOUS
10
163.188
20
-84.364
11
163.387
21
-84.7084
0
LINE
8
BLACK
6
CONTINUOUS
10
163.387
20
-84.7084
11
163.456
21
-85.1
0
LINE
8
BLACK
6
CONTINUOUS
10
163.456
20
-85.1
11
163.387
21
-85.4916
0
LINE
8
BLACK
6
CONTINUOUS
10
163.387
20
-85.4916
11
163.188
21
-85.836
0
LINE
8
BLACK
6
CONTINUOUS
10
163.02
20
-84.5054
11
162.773
21
-84.2989
0
LINE
8
BLACK
6
CONTINUOUS
10
162.773
20
-84.2989
11
162.472
21
-84.1891
0
LINE
8
BLACK
6
CONTINUOUS
10
162.472
20
-84.1891
11
162.15
21
-84.1891
0
LINE
8
BLACK
6
CONTINUOUS
10
162.15
20
-84.1891
11
161.849
21
-84.2989
0
LINE
8
BLACK
6
CONTINUOUS
10
161.849
20
-84.2989
11
161.602
21
-84.5054
0
LINE
8
BLACK
6
CONTINUOUS
10
161.602
20
-84.5054
11
161.442
21
-84.7836
0
LINE
8
BLACK
6
CONTINUOUS
10
161.442
20
-84.7836
11
161.386
21
-85.1
0
LINE
8
BLACK
6
CONTINUOUS
10
161.386
20
-85.1
11
161.442
21
-85.4164
0
LINE
8
BLACK
6
CONTINUOUS
10
161.442
20
-85.4164
11
161.602
21
-85.6946
0
LINE
8
BLACK
6
CONTINUOUS
10
161.602
20
-85.6946
11
161.849
21
-85.9011
0
LINE
8
BLACK
6
CONTINUOUS
10
161.849
20
-85.9011
11
162.15
21
-86.0109
0
LINE
8
BLACK
6
CONTINUOUS
10
162.15
20
-86.0109
11
162.472
21
-86.0109
0
LINE
8
BLACK
6
CONTINUOUS
10
162.472
20
-86.0109
11
162.773
21
-85.9011
0
LINE
8
BLACK
6
CONTINUOUS
10
162.773
20
-85.9011
11
163.02
21
-85.6946
0
LINE
8
BLACK
6
CONTINUOUS
10
163.02
20
-85.6946
11
163.18
21
-85.4164
0
LINE
8
BLACK
6
CONTINUOUS
10
163.18
20
-85.4164
11
163.236
21
-85.1
0
LINE
8
BLACK
6
CONTINUOUS
10
163.236
20
-85.1
11
163.18
21
-84.7836
0
LINE
8
BLACK
6
CONTINUOUS
10
163.18
20
-84.7836
11
163.02
21
-84.5054
0
LINE
8
BLACK
6
CONTINUOUS
10
111.464
20
-108.979
11
111.484
21
-108.996
0
LINE
8
BLACK
6
CONTINUOUS
10
111.484
20
-108.996
11
111.497
21
-109.019
0
LINE
8
BLACK
6
CONTINUOUS
10
111.497
20
-109.019
11
111.502
21
-109.044
0
LINE
8
BLACK
6
CONTINUOUS
10
111.502
20
-109.044
11
111.502
21
-109.759
0
LINE
8
BLACK
6
CONTINUOUS
10
111.502
20
-109.759
11
111.5
21
-109.771
0
LINE
8
BLACK
6
CONTINUOUS
10
111.5
20
-109.771
11
111.498
21
-109.782
0
LINE
8
BLACK
6
CONTINUOUS
10
111.498
20
-109.782
11
111.45
21
-109.925
0
LINE
8
BLACK
6
CONTINUOUS
10
111.45
20
-109.925
11
111.448
21
-109.929
0
LINE
8
BLACK
6
CONTINUOUS
10
111.448
20
-109.929
11
111.447
21
-109.933
0
LINE
8
BLACK
6
CONTINUOUS
10
111.447
20
-109.933
11
111.442
21
-109.94
0
LINE
8
BLACK
6
CONTINUOUS
10
111.442
20
-109.94
11
111.438
21
-109.948
0
LINE
8
BLACK
6
CONTINUOUS
10
111.438
20
-109.948
11
111.435
21
-109.951
0
LINE
8
BLACK
6
CONTINUOUS
10
111.435
20
-109.951
11
111.432
21
-109.955
0
LINE
8
BLACK
6
CONTINUOUS
10
111.432
20
-109.955
11
111.337
21
-110.05
0
LINE
8
BLACK
6
CONTINUOUS
10
111.337
20
-110.05
11
111.333
21
-110.052
0
LINE
8
BLACK
6
CONTINUOUS
10
111.333
20
-110.052
11
111.33
21
-110.056
0
LINE
8
BLACK
6
CONTINUOUS
10
111.33
20
-110.056
11
111.323
21
-110.06
0
LINE
8
BLACK
6
CONTINUOUS
10
111.323
20
-110.06
11
111.316
21
-110.065
0
LINE
8
BLACK
6
CONTINUOUS
10
111.316
20
-110.065
11
111.311
21
-110.066
0
LINE
8
BLACK
6
CONTINUOUS
10
111.311
20
-110.066
11
111.308
21
-110.068
0
LINE
8
BLACK
6
CONTINUOUS
10
111.308
20
-110.068
11
111.165
21
-110.116
0
LINE
8
BLACK
6
CONTINUOUS
10
111.165
20
-110.116
11
111.153
21
-110.117
0
LINE
8
BLACK
6
CONTINUOUS
10
111.153
20
-110.117
11
111.141
21
-110.119
0
LINE
8
BLACK
6
CONTINUOUS
10
111.141
20
-110.119
11
111.046
21
-110.119
0
LINE
8
BLACK
6
CONTINUOUS
10
111.046
20
-110.119
11
111.02
21
-110.115
0
LINE
8
BLACK
6
CONTINUOUS
10
111.02
20
-110.115
11
110.998
21
-110.102
0
LINE
8
BLACK
6
CONTINUOUS
10
110.998
20
-110.102
11
110.981
21
-110.082
0
LINE
8
BLACK
6
CONTINUOUS
10
110.981
20
-110.082
11
110.972
21
-110.057
0
LINE
8
BLACK
6
CONTINUOUS
10
110.972
20
-110.057
11
110.972
21
-110.031
0
LINE
8
BLACK
6
CONTINUOUS
10
110.972
20
-110.031
11
110.981
21
-110.007
0
LINE
8
BLACK
6
CONTINUOUS
10
110.981
20
-110.007
11
110.998
21
-109.987
0
LINE
8
BLACK
6
CONTINUOUS
10
110.998
20
-109.987
11
111.02
21
-109.974
0
LINE
8
BLACK
6
CONTINUOUS
10
111.02
20
-109.974
11
111.046
21
-109.969
0
LINE
8
BLACK
6
CONTINUOUS
10
111.046
20
-109.969
11
111.129
21
-109.969
0
LINE
8
BLACK
6
CONTINUOUS
10
111.129
20
-109.969
11
111.243
21
-109.931
0
LINE
8
BLACK
6
CONTINUOUS
10
111.243
20
-109.931
11
111.313
21
-109.861
0
LINE
8
BLACK
6
CONTINUOUS
10
111.313
20
-109.861
11
111.352
21
-109.746
0
LINE
8
BLACK
6
CONTINUOUS
10
111.352
20
-109.746
11
111.352
21
-109.044
0
LINE
8
BLACK
6
CONTINUOUS
10
111.352
20
-109.044
11
111.356
21
-109.019
0
LINE
8
BLACK
6
CONTINUOUS
10
111.356
20
-109.019
11
111.369
21
-108.996
0
LINE
8
BLACK
6
CONTINUOUS
10
111.369
20
-108.996
11
111.389
21
-108.979
0
LINE
8
BLACK
6
CONTINUOUS
10
111.389
20
-108.979
11
111.414
21
-108.971
0
LINE
8
BLACK
6
CONTINUOUS
10
111.414
20
-108.971
11
111.44
21
-108.971
0
LINE
8
BLACK
6
CONTINUOUS
10
111.44
20
-108.971
11
111.464
21
-108.979
0
LINE
8
BLACK
6
CONTINUOUS
10
112.434
20
-108.971
11
112.441
21
-108.971
0
LINE
8
BLACK
6
CONTINUOUS
10
112.441
20
-108.971
11
112.447
21
-108.973
0
LINE
8
BLACK
6
CONTINUOUS
10
112.447
20
-108.973
11
112.452
21
-108.974
0
LINE
8
BLACK
6
CONTINUOUS
10
112.452
20
-108.974
11
112.459
21
-108.978
0
LINE
8
BLACK
6
CONTINUOUS
10
112.459
20
-108.978
11
112.466
21
-108.98
0
LINE
8
BLACK
6
CONTINUOUS
10
112.466
20
-108.98
11
112.47
21
-108.984
0
LINE
8
BLACK
6
CONTINUOUS
10
112.47
20
-108.984
11
112.475
21
-108.987
0
LINE
8
BLACK
6
CONTINUOUS
10
112.475
20
-108.987
11
112.48
21
-108.993
0
LINE
8
BLACK
6
CONTINUOUS
10
112.48
20
-108.993
11
112.485
21
-108.997
0
LINE
8
BLACK
6
CONTINUOUS
10
112.485
20
-108.997
11
112.488
21
-109.002
0
LINE
8
BLACK
6
CONTINUOUS
10
112.488
20
-109.002
11
112.492
21
-109.007
0
LINE
8
BLACK
6
CONTINUOUS
10
112.492
20
-109.007
11
112.494
21
-109.014
0
LINE
8
BLACK
6
CONTINUOUS
10
112.494
20
-109.014
11
112.498
21
-109.02
0
LINE
8
BLACK
6
CONTINUOUS
10
112.498
20
-109.02
11
112.499
21
-109.026
0
LINE
8
BLACK
6
CONTINUOUS
10
112.499
20
-109.026
11
112.501
21
-109.031
0
LINE
8
BLACK
6
CONTINUOUS
10
112.501
20
-109.031
11
112.501
21
-109.039
0
LINE
8
BLACK
6
CONTINUOUS
10
112.501
20
-109.039
11
112.502
21
-109.046
0
LINE
8
BLACK
6
CONTINUOUS
10
112.502
20
-109.046
11
112.501
21
-109.052
0
LINE
8
BLACK
6
CONTINUOUS
10
112.501
20
-109.052
11
112.501
21
-109.057
0
LINE
8
BLACK
6
CONTINUOUS
10
112.501
20
-109.057
11
112.498
21
-109.064
0
LINE
8
BLACK
6
CONTINUOUS
10
112.498
20
-109.064
11
112.497
21
-109.071
0
LINE
8
BLACK
6
CONTINUOUS
10
112.497
20
-109.071
11
112.494
21
-109.076
0
LINE
8
BLACK
6
CONTINUOUS
10
112.494
20
-109.076
11
112.492
21
-109.082
0
LINE
8
BLACK
6
CONTINUOUS
10
112.492
20
-109.082
11
112.487
21
-109.087
0
LINE
8
BLACK
6
CONTINUOUS
10
112.487
20
-109.087
11
112.483
21
-109.094
0
LINE
8
BLACK
6
CONTINUOUS
10
112.483
20
-109.094
11
112.256
21
-109.354
0
LINE
8
BLACK
6
CONTINUOUS
10
112.256
20
-109.354
11
112.262
21
-109.355
0
LINE
8
BLACK
6
CONTINUOUS
10
112.262
20
-109.355
11
112.266
21
-109.357
0
LINE
8
BLACK
6
CONTINUOUS
10
112.266
20
-109.357
11
112.27
21
-109.358
0
LINE
8
BLACK
6
CONTINUOUS
10
112.27
20
-109.358
11
112.365
21
-109.406
0
LINE
8
BLACK
6
CONTINUOUS
10
112.365
20
-109.406
11
112.375
21
-109.413
0
LINE
8
BLACK
6
CONTINUOUS
10
112.375
20
-109.413
11
112.384
21
-109.42
0
LINE
8
BLACK
6
CONTINUOUS
10
112.384
20
-109.42
11
112.432
21
-109.468
0
LINE
8
BLACK
6
CONTINUOUS
10
112.432
20
-109.468
11
112.439
21
-109.477
0
LINE
8
BLACK
6
CONTINUOUS
10
112.439
20
-109.477
11
112.446
21
-109.487
0
LINE
8
BLACK
6
CONTINUOUS
10
112.446
20
-109.487
11
112.494
21
-109.582
0
LINE
8
BLACK
6
CONTINUOUS
10
112.494
20
-109.582
11
112.495
21
-109.586
0
LINE
8
BLACK
6
CONTINUOUS
10
112.495
20
-109.586
11
112.497
21
-109.59
0
LINE
8
BLACK
6
CONTINUOUS
10
112.497
20
-109.59
11
112.499
21
-109.599
0
LINE
8
BLACK
6
CONTINUOUS
10
112.499
20
-109.599
11
112.501
21
-109.607
0
LINE
8
BLACK
6
CONTINUOUS
10
112.501
20
-109.607
11
112.501
21
-109.612
0
LINE
8
BLACK
6
CONTINUOUS
10
112.501
20
-109.612
11
112.502
21
-109.616
0
LINE
8
BLACK
6
CONTINUOUS
10
112.502
20
-109.616
11
112.502
21
-109.854
0
LINE
8
BLACK
6
CONTINUOUS
10
112.502
20
-109.854
11
112.501
21
-109.858
0
LINE
8
BLACK
6
CONTINUOUS
10
112.501
20
-109.858
11
112.501
21
-109.862
0
LINE
8
BLACK
6
CONTINUOUS
10
112.501
20
-109.862
11
112.499
21
-109.871
0
LINE
8
BLACK
6
CONTINUOUS
10
112.499
20
-109.871
11
112.497
21
-109.88
0
LINE
8
BLACK
6
CONTINUOUS
10
112.497
20
-109.88
11
112.495
21
-109.883
0
LINE
8
BLACK
6
CONTINUOUS
10
112.495
20
-109.883
11
112.494
21
-109.887
0
LINE
8
BLACK
6
CONTINUOUS
10
112.494
20
-109.887
11
112.446
21
-109.983
0
LINE
8
BLACK
6
CONTINUOUS
10
112.446
20
-109.983
11
112.439
21
-109.992
0
LINE
8
BLACK
6
CONTINUOUS
10
112.439
20
-109.992
11
112.432
21
-110.002
0
LINE
8
BLACK
6
CONTINUOUS
10
112.432
20
-110.002
11
112.384
21
-110.05
0
LINE
8
BLACK
6
CONTINUOUS
10
112.384
20
-110.05
11
112.375
21
-110.057
0
LINE
8
BLACK
6
CONTINUOUS
10
112.375
20
-110.057
11
112.365
21
-110.064
0
LINE
8
BLACK
6
CONTINUOUS
10
112.365
20
-110.064
11
112.27
21
-110.111
0
LINE
8
BLACK
6
CONTINUOUS
10
112.27
20
-110.111
11
112.266
21
-110.113
0
LINE
8
BLACK
6
CONTINUOUS
10
112.266
20
-110.113
11
112.262
21
-110.115
0
LINE
8
BLACK
6
CONTINUOUS
10
112.262
20
-110.115
11
112.253
21
-110.116
0
LINE
8
BLACK
6
CONTINUOUS
10
112.253
20
-110.116
11
112.245
21
-110.119
0
LINE
8
BLACK
6
CONTINUOUS
10
112.245
20
-110.119
11
112.24
21
-110.119
0
LINE
8
BLACK
6
CONTINUOUS
10
112.24
20
-110.119
11
112.236
21
-110.119
0
LINE
8
BLACK
6
CONTINUOUS
10
112.236
20
-110.119
11
111.95
21
-110.119
0
LINE
8
BLACK
6
CONTINUOUS
10
111.95
20
-110.119
11
111.946
21
-110.119
0
LINE
8
BLACK
6
CONTINUOUS
10
111.946
20
-110.119
11
111.942
21
-110.119
0
LINE
8
BLACK
6
CONTINUOUS
10
111.942
20
-110.119
11
111.933
21
-110.116
0
LINE
8
BLACK
6
CONTINUOUS
10
111.933
20
-110.116
11
111.925
21
-110.115
0
LINE
8
BLACK
6
CONTINUOUS
10
111.925
20
-110.115
11
111.921
21
-110.113
0
LINE
8
BLACK
6
CONTINUOUS
10
111.921
20
-110.113
11
111.917
21
-110.111
0
LINE
8
BLACK
6
CONTINUOUS
10
111.917
20
-110.111
11
111.822
21
-110.064
0
LINE
8
BLACK
6
CONTINUOUS
10
111.822
20
-110.064
11
111.812
21
-110.057
0
LINE
8
BLACK
6
CONTINUOUS
10
111.812
20
-110.057
11
111.802
21
-110.05
0
LINE
8
BLACK
6
CONTINUOUS
10
111.802
20
-110.05
11
111.755
21
-110.002
0
LINE
8
BLACK
6
CONTINUOUS
10
111.755
20
-110.002
11
111.74
21
-109.981
0
LINE
8
BLACK
6
CONTINUOUS
10
111.74
20
-109.981
11
111.733
21
-109.956
0
LINE
8
BLACK
6
CONTINUOUS
10
111.733
20
-109.956
11
111.735
21
-109.93
0
LINE
8
BLACK
6
CONTINUOUS
10
111.735
20
-109.93
11
111.746
21
-109.906
0
LINE
8
BLACK
6
CONTINUOUS
10
111.746
20
-109.906
11
111.765
21
-109.888
0
LINE
8
BLACK
6
CONTINUOUS
10
111.765
20
-109.888
11
111.788
21
-109.877
0
LINE
8
BLACK
6
CONTINUOUS
10
111.788
20
-109.877
11
111.814
21
-109.874
0
LINE
8
BLACK
6
CONTINUOUS
10
111.814
20
-109.874
11
111.839
21
-109.881
0
LINE
8
BLACK
6
CONTINUOUS
10
111.839
20
-109.881
11
111.861
21
-109.896
0
LINE
8
BLACK
6
CONTINUOUS
10
111.861
20
-109.896
11
111.9
21
-109.935
0
LINE
8
BLACK
6
CONTINUOUS
10
111.9
20
-109.935
11
111.968
21
-109.969
0
LINE
8
BLACK
6
CONTINUOUS
10
111.968
20
-109.969
11
112.218
21
-109.969
0
LINE
8
BLACK
6
CONTINUOUS
10
112.218
20
-109.969
11
112.287
21
-109.935
0
LINE
8
BLACK
6
CONTINUOUS
10
112.287
20
-109.935
11
112.317
21
-109.905
0
LINE
8
BLACK
6
CONTINUOUS
10
112.317
20
-109.905
11
112.352
21
-109.836
0
LINE
8
BLACK
6
CONTINUOUS
10
112.352
20
-109.836
11
112.352
21
-109.634
0
LINE
8
BLACK
6
CONTINUOUS
10
112.352
20
-109.634
11
112.317
21
-109.565
0
LINE
8
BLACK
6
CONTINUOUS
10
112.317
20
-109.565
11
112.287
21
-109.535
0
LINE
8
BLACK
6
CONTINUOUS
10
112.287
20
-109.535
11
112.218
21
-109.5
0
LINE
8
BLACK
6
CONTINUOUS
10
112.218
20
-109.5
11
112.093
21
-109.5
0
LINE
8
BLACK
6
CONTINUOUS
10
112.093
20
-109.5
11
112.086
21
-109.499
0
LINE
8
BLACK
6
CONTINUOUS
10
112.086
20
-109.499
11
112.079
21
-109.499
0
LINE
8
BLACK
6
CONTINUOUS
10
112.079
20
-109.499
11
112.073
21
-109.497
0
LINE
8
BLACK
6
CONTINUOUS
10
112.073
20
-109.497
11
112.068
21
-109.496
0
LINE
8
BLACK
6
CONTINUOUS
10
112.068
20
-109.496
11
112.061
21
-109.492
0
LINE
8
BLACK
6
CONTINUOUS
10
112.061
20
-109.492
11
112.054
21
-109.489
0
LINE
8
BLACK
6
CONTINUOUS
10
112.054
20
-109.489
11
112.05
21
-109.486
0
LINE
8
BLACK
6
CONTINUOUS
10
112.05
20
-109.486
11
112.045
21
-109.483
0
LINE
8
BLACK
6
CONTINUOUS
10
112.045
20
-109.483
11
112.04
21
-109.477
0
LINE
8
BLACK
6
CONTINUOUS
10
112.04
20
-109.477
11
112.035
21
-109.472
0
LINE
8
BLACK
6
CONTINUOUS
10
112.035
20
-109.472
11
112.032
21
-109.467
0
LINE
8
BLACK
6
CONTINUOUS
10
112.032
20
-109.467
11
112.028
21
-109.463
0
LINE
8
BLACK
6
CONTINUOUS
10
112.028
20
-109.463
11
112.026
21
-109.456
0
LINE
8
BLACK
6
CONTINUOUS
10
112.026
20
-109.456
11
112.022
21
-109.45
0
LINE
8
BLACK
6
CONTINUOUS
10
112.022
20
-109.45
11
112.021
21
-109.444
0
LINE
8
BLACK
6
CONTINUOUS
10
112.021
20
-109.444
11
112.019
21
-109.438
0
LINE
8
BLACK
6
CONTINUOUS
10
112.019
20
-109.438
11
112.019
21
-109.431
0
LINE
8
BLACK
6
CONTINUOUS
10
112.019
20
-109.431
11
112.018
21
-109.424
0
LINE
8
BLACK
6
CONTINUOUS
10
112.018
20
-109.424
11
112.019
21
-109.418
0
LINE
8
BLACK
6
CONTINUOUS
10
112.019
20
-109.418
11
112.019
21
-109.412
0
LINE
8
BLACK
6
CONTINUOUS
10
112.019
20
-109.412
11
112.022
21
-109.405
0
LINE
8
BLACK
6
CONTINUOUS
10
112.022
20
-109.405
11
112.023
21
-109.398
0
LINE
8
BLACK
6
CONTINUOUS
10
112.023
20
-109.398
11
112.026
21
-109.393
0
LINE
8
BLACK
6
CONTINUOUS
10
112.026
20
-109.393
11
112.028
21
-109.388
0
LINE
8
BLACK
6
CONTINUOUS
10
112.028
20
-109.388
11
112.033
21
-109.382
0
LINE
8
BLACK
6
CONTINUOUS
10
112.033
20
-109.382
11
112.037
21
-109.376
0
LINE
8
BLACK
6
CONTINUOUS
10
112.037
20
-109.376
11
112.261
21
-109.119
0
LINE
8
BLACK
6
CONTINUOUS
10
112.261
20
-109.119
11
111.808
21
-109.119
0
LINE
8
BLACK
6
CONTINUOUS
10
111.808
20
-109.119
11
111.782
21
-109.115
0
LINE
8
BLACK
6
CONTINUOUS
10
111.782
20
-109.115
11
111.759
21
-109.102
0
LINE
8
BLACK
6
CONTINUOUS
10
111.759
20
-109.102
11
111.743
21
-109.082
0
LINE
8
BLACK
6
CONTINUOUS
10
111.743
20
-109.082
11
111.734
21
-109.057
0
LINE
8
BLACK
6
CONTINUOUS
10
111.734
20
-109.057
11
111.734
21
-109.031
0
LINE
8
BLACK
6
CONTINUOUS
10
111.734
20
-109.031
11
111.743
21
-109.007
0
LINE
8
BLACK
6
CONTINUOUS
10
111.743
20
-109.007
11
111.759
21
-108.987
0
LINE
8
BLACK
6
CONTINUOUS
10
111.759
20
-108.987
11
111.782
21
-108.974
0
LINE
8
BLACK
6
CONTINUOUS
10
111.782
20
-108.974
11
111.808
21
-108.969
0
LINE
8
BLACK
6
CONTINUOUS
10
111.808
20
-108.969
11
112.427
21
-108.969
0
LINE
8
BLACK
6
CONTINUOUS
10
112.427
20
-108.969
11
112.434
21
-108.971
0
LINE
8
BLACK
6
CONTINUOUS
10
172.17
20
-104.661
11
172.19
21
-104.678
0
LINE
8
BLACK
6
CONTINUOUS
10
172.19
20
-104.678
11
172.203
21
-104.701
0
LINE
8
BLACK
6
CONTINUOUS
10
172.203
20
-104.701
11
172.208
21
-104.726
0
LINE
8
BLACK
6
CONTINUOUS
10
172.208
20
-104.726
11
172.208
21
-105.441
0
LINE
8
BLACK
6
CONTINUOUS
10
172.208
20
-105.441
11
172.206
21
-105.453
0
LINE
8
BLACK
6
CONTINUOUS
10
172.206
20
-105.453
11
172.204
21
-105.464
0
LINE
8
BLACK
6
CONTINUOUS
10
172.204
20
-105.464
11
172.156
21
-105.607
0
LINE
8
BLACK
6
CONTINUOUS
10
172.156
20
-105.607
11
172.154
21
-105.611
0
LINE
8
BLACK
6
CONTINUOUS
10
172.154
20
-105.611
11
172.153
21
-105.615
0
LINE
8
BLACK
6
CONTINUOUS
10
172.153
20
-105.615
11
172.148
21
-105.622
0
LINE
8
BLACK
6
CONTINUOUS
10
172.148
20
-105.622
11
172.144
21
-105.63
0
LINE
8
BLACK
6
CONTINUOUS
10
172.144
20
-105.63
11
172.141
21
-105.633
0
LINE
8
BLACK
6
CONTINUOUS
10
172.141
20
-105.633
11
172.138
21
-105.637
0
LINE
8
BLACK
6
CONTINUOUS
10
172.138
20
-105.637
11
172.043
21
-105.732
0
LINE
8
BLACK
6
CONTINUOUS
10
172.043
20
-105.732
11
172.039
21
-105.734
0
LINE
8
BLACK
6
CONTINUOUS
10
172.039
20
-105.734
11
172.036
21
-105.738
0
LINE
8
BLACK
6
CONTINUOUS
10
172.036
20
-105.738
11
172.029
21
-105.742
0
LINE
8
BLACK
6
CONTINUOUS
10
172.029
20
-105.742
11
172.022
21
-105.747
0
LINE
8
BLACK
6
CONTINUOUS
10
172.022
20
-105.747
11
172.017
21
-105.748
0
LINE
8
BLACK
6
CONTINUOUS
10
172.017
20
-105.748
11
172.014
21
-105.75
0
LINE
8
BLACK
6
CONTINUOUS
10
172.014
20
-105.75
11
171.871
21
-105.798
0
LINE
8
BLACK
6
CONTINUOUS
10
171.871
20
-105.798
11
171.859
21
-105.799
0
LINE
8
BLACK
6
CONTINUOUS
10
171.859
20
-105.799
11
171.847
21
-105.801
0
LINE
8
BLACK
6
CONTINUOUS
10
171.847
20
-105.801
11
171.752
21
-105.801
0
LINE
8
BLACK
6
CONTINUOUS
10
171.752
20
-105.801
11
171.726
21
-105.797
0
LINE
8
BLACK
6
CONTINUOUS
10
171.726
20
-105.797
11
171.704
21
-105.784
0
LINE
8
BLACK
6
CONTINUOUS
10
171.704
20
-105.784
11
171.687
21
-105.764
0
LINE
8
BLACK
6
CONTINUOUS
10
171.687
20
-105.764
11
171.678
21
-105.739
0
LINE
8
BLACK
6
CONTINUOUS
10
171.678
20
-105.739
11
171.678
21
-105.713
0
LINE
8
BLACK
6
CONTINUOUS
10
171.678
20
-105.713
11
171.687
21
-105.689
0
LINE
8
BLACK
6
CONTINUOUS
10
171.687
20
-105.689
11
171.704
21
-105.669
0
LINE
8
BLACK
6
CONTINUOUS
10
171.704
20
-105.669
11
171.726
21
-105.656
0
LINE
8
BLACK
6
CONTINUOUS
10
171.726
20
-105.656
11
171.752
21
-105.651
0
LINE
8
BLACK
6
CONTINUOUS
10
171.752
20
-105.651
11
171.835
21
-105.651
0
LINE
8
BLACK
6
CONTINUOUS
10
171.835
20
-105.651
11
171.949
21
-105.613
0
LINE
8
BLACK
6
CONTINUOUS
10
171.949
20
-105.613
11
172.019
21
-105.543
0
LINE
8
BLACK
6
CONTINUOUS
10
172.019
20
-105.543
11
172.058
21
-105.428
0
LINE
8
BLACK
6
CONTINUOUS
10
172.058
20
-105.428
11
172.058
21
-104.726
0
LINE
8
BLACK
6
CONTINUOUS
10
172.058
20
-104.726
11
172.062
21
-104.701
0
LINE
8
BLACK
6
CONTINUOUS
10
172.062
20
-104.701
11
172.075
21
-104.678
0
LINE
8
BLACK
6
CONTINUOUS
10
172.075
20
-104.678
11
172.095
21
-104.661
0
LINE
8
BLACK
6
CONTINUOUS
10
172.095
20
-104.661
11
172.12
21
-104.653
0
LINE
8
BLACK
6
CONTINUOUS
10
172.12
20
-104.653
11
172.146
21
-104.653
0
LINE
8
BLACK
6
CONTINUOUS
10
172.146
20
-104.653
11
172.17
21
-104.661
0
LINE
8
BLACK
6
CONTINUOUS
10
172.835
20
-104.613
11
172.855
21
-104.629
0
LINE
8
BLACK
6
CONTINUOUS
10
172.855
20
-104.629
11
172.869
21
-104.651
0
LINE
8
BLACK
6
CONTINUOUS
10
172.869
20
-104.651
11
172.874
21
-104.677
0
LINE
8
BLACK
6
CONTINUOUS
10
172.874
20
-104.677
11
172.87
21
-104.702
0
LINE
8
BLACK
6
CONTINUOUS
10
172.87
20
-104.702
11
172.665
21
-105.318
0
LINE
8
BLACK
6
CONTINUOUS
10
172.665
20
-105.318
11
172.962
21
-105.318
0
LINE
8
BLACK
6
CONTINUOUS
10
172.962
20
-105.318
11
172.962
21
-105.06
0
LINE
8
BLACK
6
CONTINUOUS
10
172.962
20
-105.06
11
172.967
21
-105.034
0
LINE
8
BLACK
6
CONTINUOUS
10
172.967
20
-105.034
11
172.98
21
-105.012
0
LINE
8
BLACK
6
CONTINUOUS
10
172.98
20
-105.012
11
173
21
-104.995
0
LINE
8
BLACK
6
CONTINUOUS
10
173
20
-104.995
11
173.024
21
-104.986
0
LINE
8
BLACK
6
CONTINUOUS
10
173.024
20
-104.986
11
173.05
21
-104.986
0
LINE
8
BLACK
6
CONTINUOUS
10
173.05
20
-104.986
11
173.075
21
-104.995
0
LINE
8
BLACK
6
CONTINUOUS
10
173.075
20
-104.995
11
173.095
21
-105.012
0
LINE
8
BLACK
6
CONTINUOUS
10
173.095
20
-105.012
11
173.108
21
-105.034
0
LINE
8
BLACK
6
CONTINUOUS
10
173.108
20
-105.034
11
173.112
21
-105.06
0
LINE
8
BLACK
6
CONTINUOUS
10
173.112
20
-105.06
11
173.112
21
-105.318
0
LINE
8
BLACK
6
CONTINUOUS
10
173.112
20
-105.318
11
173.18
21
-105.318
0
LINE
8
BLACK
6
CONTINUOUS
10
173.18
20
-105.318
11
173.206
21
-105.323
0
LINE
8
BLACK
6
CONTINUOUS
10
173.206
20
-105.323
11
173.228
21
-105.336
0
LINE
8
BLACK
6
CONTINUOUS
10
173.228
20
-105.336
11
173.245
21
-105.356
0
LINE
8
BLACK
6
CONTINUOUS
10
173.245
20
-105.356
11
173.254
21
-105.38
0
LINE
8
BLACK
6
CONTINUOUS
10
173.254
20
-105.38
11
173.254
21
-105.406
0
LINE
8
BLACK
6
CONTINUOUS
10
173.254
20
-105.406
11
173.245
21
-105.431
0
LINE
8
BLACK
6
CONTINUOUS
10
173.245
20
-105.431
11
173.228
21
-105.45
0
LINE
8
BLACK
6
CONTINUOUS
10
173.228
20
-105.45
11
173.206
21
-105.464
0
LINE
8
BLACK
6
CONTINUOUS
10
173.206
20
-105.464
11
173.18
21
-105.468
0
LINE
8
BLACK
6
CONTINUOUS
10
173.18
20
-105.468
11
173.112
21
-105.468
0
LINE
8
BLACK
6
CONTINUOUS
10
173.112
20
-105.468
11
173.112
21
-105.726
0
LINE
8
BLACK
6
CONTINUOUS
10
173.112
20
-105.726
11
173.108
21
-105.752
0
LINE
8
BLACK
6
CONTINUOUS
10
173.108
20
-105.752
11
173.095
21
-105.775
0
LINE
8
BLACK
6
CONTINUOUS
10
173.095
20
-105.775
11
173.075
21
-105.791
0
LINE
8
BLACK
6
CONTINUOUS
10
173.075
20
-105.791
11
173.05
21
-105.8
0
LINE
8
BLACK
6
CONTINUOUS
10
173.05
20
-105.8
11
173.024
21
-105.8
0
LINE
8
BLACK
6
CONTINUOUS
10
173.024
20
-105.8
11
173
21
-105.791
0
LINE
8
BLACK
6
CONTINUOUS
10
173
20
-105.791
11
172.98
21
-105.775
0
LINE
8
BLACK
6
CONTINUOUS
10
172.98
20
-105.775
11
172.967
21
-105.752
0
LINE
8
BLACK
6
CONTINUOUS
10
172.967
20
-105.752
11
172.962
21
-105.726
0
LINE
8
BLACK
6
CONTINUOUS
10
172.962
20
-105.726
11
172.962
21
-105.468
0
LINE
8
BLACK
6
CONTINUOUS
10
172.962
20
-105.468
11
172.561
21
-105.468
0
LINE
8
BLACK
6
CONTINUOUS
10
172.561
20
-105.468
11
172.556
21
-105.467
0
LINE
8
BLACK
6
CONTINUOUS
10
172.556
20
-105.467
11
172.55
21
-105.467
0
LINE
8
BLACK
6
CONTINUOUS
10
172.55
20
-105.467
11
172.543
21
-105.465
0
LINE
8
BLACK
6
CONTINUOUS
10
172.543
20
-105.465
11
172.536
21
-105.464
0
LINE
8
BLACK
6
CONTINUOUS
10
172.536
20
-105.464
11
172.531
21
-105.461
0
LINE
8
BLACK
6
CONTINUOUS
10
172.531
20
-105.461
11
172.526
21
-105.459
0
LINE
8
BLACK
6
CONTINUOUS
10
172.526
20
-105.459
11
172.52
21
-105.454
0
LINE
8
BLACK
6
CONTINUOUS
10
172.52
20
-105.454
11
172.513
21
-105.45
0
LINE
8
BLACK
6
CONTINUOUS
10
172.513
20
-105.45
11
172.509
21
-105.446
0
LINE
8
BLACK
6
CONTINUOUS
10
172.509
20
-105.446
11
172.505
21
-105.443
0
LINE
8
BLACK
6
CONTINUOUS
10
172.505
20
-105.443
11
172.501
21
-105.436
0
LINE
8
BLACK
6
CONTINUOUS
10
172.501
20
-105.436
11
172.496
21
-105.431
0
LINE
8
BLACK
6
CONTINUOUS
10
172.496
20
-105.431
11
172.494
21
-105.425
0
LINE
8
BLACK
6
CONTINUOUS
10
172.494
20
-105.425
11
172.491
21
-105.421
0
LINE
8
BLACK
6
CONTINUOUS
10
172.491
20
-105.421
11
172.49
21
-105.413
0
LINE
8
BLACK
6
CONTINUOUS
10
172.49
20
-105.413
11
172.487
21
-105.406
0
LINE
8
BLACK
6
CONTINUOUS
10
172.487
20
-105.406
11
172.487
21
-105.401
0
LINE
8
BLACK
6
CONTINUOUS
10
172.487
20
-105.401
11
172.486
21
-105.395
0
LINE
8
BLACK
6
CONTINUOUS
10
172.486
20
-105.395
11
172.487
21
-105.388
0
LINE
8
BLACK
6
CONTINUOUS
10
172.487
20
-105.388
11
172.487
21
-105.38
0
LINE
8
BLACK
6
CONTINUOUS
10
172.487
20
-105.38
11
172.489
21
-105.375
0
LINE
8
BLACK
6
CONTINUOUS
10
172.489
20
-105.375
11
172.49
21
-105.369
0
LINE
8
BLACK
6
CONTINUOUS
10
172.49
20
-105.369
11
172.728
21
-104.655
0
LINE
8
BLACK
6
CONTINUOUS
10
172.728
20
-104.655
11
172.741
21
-104.632
0
LINE
8
BLACK
6
CONTINUOUS
10
172.741
20
-104.632
11
172.76
21
-104.615
0
LINE
8
BLACK
6
CONTINUOUS
10
172.76
20
-104.615
11
172.784
21
-104.605
0
LINE
8
BLACK
6
CONTINUOUS
10
172.784
20
-104.605
11
172.81
21
-104.605
0
LINE
8
BLACK
6
CONTINUOUS
10
172.81
20
-104.605
11
172.835
21
-104.613
0
LINE
8
BLACK
6
CONTINUOUS
10
111.427
20
-101.816
11
111.431
21
-101.816
0
LINE
8
BLACK
6
CONTINUOUS
10
111.431
20
-101.816
11
111.44
21
-101.818
0
LINE
8
BLACK
6
CONTINUOUS
10
111.44
20
-101.818
11
111.449
21
-101.82
0
LINE
8
BLACK
6
CONTINUOUS
10
111.449
20
-101.82
11
111.452
21
-101.822
0
LINE
8
BLACK
6
CONTINUOUS
10
111.452
20
-101.822
11
111.456
21
-101.823
0
LINE
8
BLACK
6
CONTINUOUS
10
111.456
20
-101.823
11
111.552
21
-101.871
0
LINE
8
BLACK
6
CONTINUOUS
10
111.552
20
-101.871
11
111.561
21
-101.878
0
LINE
8
BLACK
6
CONTINUOUS
10
111.561
20
-101.878
11
111.571
21
-101.885
0
LINE
8
BLACK
6
CONTINUOUS
10
111.571
20
-101.885
11
111.619
21
-101.933
0
LINE
8
BLACK
6
CONTINUOUS
10
111.619
20
-101.933
11
111.626
21
-101.943
0
LINE
8
BLACK
6
CONTINUOUS
10
111.626
20
-101.943
11
111.633
21
-101.952
0
LINE
8
BLACK
6
CONTINUOUS
10
111.633
20
-101.952
11
111.68
21
-102.047
0
LINE
8
BLACK
6
CONTINUOUS
10
111.68
20
-102.047
11
111.682
21
-102.052
0
LINE
8
BLACK
6
CONTINUOUS
10
111.682
20
-102.052
11
111.684
21
-102.055
0
LINE
8
BLACK
6
CONTINUOUS
10
111.684
20
-102.055
11
111.685
21
-102.064
0
LINE
8
BLACK
6
CONTINUOUS
10
111.685
20
-102.064
11
111.688
21
-102.072
0
LINE
8
BLACK
6
CONTINUOUS
10
111.688
20
-102.072
11
111.688
21
-102.077
0
LINE
8
BLACK
6
CONTINUOUS
10
111.688
20
-102.077
11
111.688
21
-102.081
0
LINE
8
BLACK
6
CONTINUOUS
10
111.688
20
-102.081
11
111.688
21
-102.271
0
LINE
8
BLACK
6
CONTINUOUS
10
111.688
20
-102.271
11
111.688
21
-102.276
0
LINE
8
BLACK
6
CONTINUOUS
10
111.688
20
-102.276
11
111.688
21
-102.28
0
LINE
8
BLACK
6
CONTINUOUS
10
111.688
20
-102.28
11
111.685
21
-102.288
0
LINE
8
BLACK
6
CONTINUOUS
10
111.685
20
-102.288
11
111.684
21
-102.297
0
LINE
8
BLACK
6
CONTINUOUS
10
111.684
20
-102.297
11
111.682
21
-102.301
0
LINE
8
BLACK
6
CONTINUOUS
10
111.682
20
-102.301
11
111.68
21
-102.305
0
LINE
8
BLACK
6
CONTINUOUS
10
111.68
20
-102.305
11
111.633
21
-102.4
0
LINE
8
BLACK
6
CONTINUOUS
10
111.633
20
-102.4
11
111.626
21
-102.41
0
LINE
8
BLACK
6
CONTINUOUS
10
111.626
20
-102.41
11
111.619
21
-102.42
0
LINE
8
BLACK
6
CONTINUOUS
10
111.619
20
-102.42
11
111.571
21
-102.467
0
LINE
8
BLACK
6
CONTINUOUS
10
111.571
20
-102.467
11
111.561
21
-102.474
0
LINE
8
BLACK
6
CONTINUOUS
10
111.561
20
-102.474
11
111.552
21
-102.481
0
LINE
8
BLACK
6
CONTINUOUS
10
111.552
20
-102.481
11
111.456
21
-102.529
0
LINE
8
BLACK
6
CONTINUOUS
10
111.456
20
-102.529
11
111.452
21
-102.53
0
LINE
8
BLACK
6
CONTINUOUS
10
111.452
20
-102.53
11
111.449
21
-102.532
0
LINE
8
BLACK
6
CONTINUOUS
10
111.449
20
-102.532
11
111.44
21
-102.534
0
LINE
8
BLACK
6
CONTINUOUS
10
111.44
20
-102.534
11
111.431
21
-102.536
0
LINE
8
BLACK
6
CONTINUOUS
10
111.431
20
-102.536
11
111.427
21
-102.536
0
LINE
8
BLACK
6
CONTINUOUS
10
111.427
20
-102.536
11
111.423
21
-102.537
0
LINE
8
BLACK
6
CONTINUOUS
10
111.423
20
-102.537
11
110.613
21
-102.537
0
LINE
8
BLACK
6
CONTINUOUS
10
110.613
20
-102.537
11
110.588
21
-102.532
0
LINE
8
BLACK
6
CONTINUOUS
10
110.588
20
-102.532
11
110.565
21
-102.519
0
LINE
8
BLACK
6
CONTINUOUS
10
110.565
20
-102.519
11
110.548
21
-102.499
0
LINE
8
BLACK
6
CONTINUOUS
10
110.548
20
-102.499
11
110.54
21
-102.475
0
LINE
8
BLACK
6
CONTINUOUS
10
110.54
20
-102.475
11
110.54
21
-102.449
0
LINE
8
BLACK
6
CONTINUOUS
10
110.54
20
-102.449
11
110.548
21
-102.424
0
LINE
8
BLACK
6
CONTINUOUS
10
110.548
20
-102.424
11
110.565
21
-102.404
0
LINE
8
BLACK
6
CONTINUOUS
10
110.565
20
-102.404
11
110.588
21
-102.391
0
LINE
8
BLACK
6
CONTINUOUS
10
110.588
20
-102.391
11
110.613
21
-102.387
0
LINE
8
BLACK
6
CONTINUOUS
10
110.613
20
-102.387
11
111.405
21
-102.387
0
LINE
8
BLACK
6
CONTINUOUS
10
111.405
20
-102.387
11
111.474
21
-102.353
0
LINE
8
BLACK
6
CONTINUOUS
10
111.474
20
-102.353
11
111.504
21
-102.322
0
LINE
8
BLACK
6
CONTINUOUS
10
111.504
20
-102.322
11
111.538
21
-102.254
0
LINE
8
BLACK
6
CONTINUOUS
10
111.538
20
-102.254
11
111.538
21
-102.099
0
LINE
8
BLACK
6
CONTINUOUS
10
111.538
20
-102.099
11
111.504
21
-102.03
0
LINE
8
BLACK
6
CONTINUOUS
10
111.504
20
-102.03
11
111.474
21
-102
0
LINE
8
BLACK
6
CONTINUOUS
10
111.474
20
-102
11
111.405
21
-101.965
0
LINE
8
BLACK
6
CONTINUOUS
10
111.405
20
-101.965
11
110.613
21
-101.965
0
LINE
8
BLACK
6
CONTINUOUS
10
110.613
20
-101.965
11
110.588
21
-101.961
0
LINE
8
BLACK
6
CONTINUOUS
10
110.588
20
-101.961
11
110.565
21
-101.948
0
LINE
8
BLACK
6
CONTINUOUS
10
110.565
20
-101.948
11
110.548
21
-101.928
0
LINE
8
BLACK
6
CONTINUOUS
10
110.548
20
-101.928
11
110.54
21
-101.904
0
LINE
8
BLACK
6
CONTINUOUS
10
110.54
20
-101.904
11
110.54
21
-101.877
0
LINE
8
BLACK
6
CONTINUOUS
10
110.54
20
-101.877
11
110.548
21
-101.853
0
LINE
8
BLACK
6
CONTINUOUS
10
110.548
20
-101.853
11
110.565
21
-101.833
0
LINE
8
BLACK
6
CONTINUOUS
10
110.565
20
-101.833
11
110.588
21
-101.82
0
LINE
8
BLACK
6
CONTINUOUS
10
110.588
20
-101.82
11
110.613
21
-101.815
0
LINE
8
BLACK
6
CONTINUOUS
10
110.613
20
-101.815
11
111.423
21
-101.815
0
LINE
8
BLACK
6
CONTINUOUS
10
111.423
20
-101.815
11
111.427
21
-101.816
0
LINE
8
BLACK
6
CONTINUOUS
10
111.651
20
-100.826
11
111.671
21
-100.842
0
LINE
8
BLACK
6
CONTINUOUS
10
111.671
20
-100.842
11
111.684
21
-100.865
0
LINE
8
BLACK
6
CONTINUOUS
10
111.684
20
-100.865
11
111.688
21
-100.89
0
LINE
8
BLACK
6
CONTINUOUS
10
111.688
20
-100.89
11
111.688
21
-101.462
0
LINE
8
BLACK
6
CONTINUOUS
10
111.688
20
-101.462
11
111.684
21
-101.488
0
LINE
8
BLACK
6
CONTINUOUS
10
111.684
20
-101.488
11
111.671
21
-101.51
0
LINE
8
BLACK
6
CONTINUOUS
10
111.671
20
-101.51
11
111.651
21
-101.527
0
LINE
8
BLACK
6
CONTINUOUS
10
111.651
20
-101.527
11
111.626
21
-101.536
0
LINE
8
BLACK
6
CONTINUOUS
10
111.626
20
-101.536
11
111.6
21
-101.536
0
LINE
8
BLACK
6
CONTINUOUS
10
111.6
20
-101.536
11
111.576
21
-101.527
0
LINE
8
BLACK
6
CONTINUOUS
10
111.576
20
-101.527
11
111.556
21
-101.51
0
LINE
8
BLACK
6
CONTINUOUS
10
111.556
20
-101.51
11
111.543
21
-101.488
0
LINE
8
BLACK
6
CONTINUOUS
10
111.543
20
-101.488
11
111.538
21
-101.462
0
LINE
8
BLACK
6
CONTINUOUS
10
111.538
20
-101.462
11
111.538
21
-101.251
0
LINE
8
BLACK
6
CONTINUOUS
10
111.538
20
-101.251
11
110.842
21
-101.251
0
LINE
8
BLACK
6
CONTINUOUS
10
110.842
20
-101.251
11
110.905
21
-101.314
0
LINE
8
BLACK
6
CONTINUOUS
10
110.905
20
-101.314
11
110.911
21
-101.323
0
LINE
8
BLACK
6
CONTINUOUS
10
110.911
20
-101.323
11
110.919
21
-101.333
0
LINE
8
BLACK
6
CONTINUOUS
10
110.919
20
-101.333
11
110.966
21
-101.428
0
LINE
8
BLACK
6
CONTINUOUS
10
110.966
20
-101.428
11
110.974
21
-101.453
0
LINE
8
BLACK
6
CONTINUOUS
10
110.974
20
-101.453
11
110.972
21
-101.479
0
LINE
8
BLACK
6
CONTINUOUS
10
110.972
20
-101.479
11
110.962
21
-101.503
0
LINE
8
BLACK
6
CONTINUOUS
10
110.962
20
-101.503
11
110.944
21
-101.522
0
LINE
8
BLACK
6
CONTINUOUS
10
110.944
20
-101.522
11
110.92
21
-101.534
0
LINE
8
BLACK
6
CONTINUOUS
10
110.92
20
-101.534
11
110.895
21
-101.537
0
LINE
8
BLACK
6
CONTINUOUS
10
110.895
20
-101.537
11
110.869
21
-101.531
0
LINE
8
BLACK
6
CONTINUOUS
10
110.869
20
-101.531
11
110.848
21
-101.516
0
LINE
8
BLACK
6
CONTINUOUS
10
110.848
20
-101.516
11
110.832
21
-101.495
0
LINE
8
BLACK
6
CONTINUOUS
10
110.832
20
-101.495
11
110.79
21
-101.411
0
LINE
8
BLACK
6
CONTINUOUS
10
110.79
20
-101.411
11
110.708
21
-101.33
0
LINE
8
BLACK
6
CONTINUOUS
10
110.708
20
-101.33
11
110.572
21
-101.239
0
LINE
8
BLACK
6
CONTINUOUS
10
110.572
20
-101.239
11
110.569
21
-101.236
0
LINE
8
BLACK
6
CONTINUOUS
10
110.569
20
-101.236
11
110.565
21
-101.234
0
LINE
8
BLACK
6
CONTINUOUS
10
110.565
20
-101.234
11
110.559
21
-101.227
0
LINE
8
BLACK
6
CONTINUOUS
10
110.559
20
-101.227
11
110.553
21
-101.221
0
LINE
8
BLACK
6
CONTINUOUS
10
110.553
20
-101.221
11
110.551
21
-101.217
0
LINE
8
BLACK
6
CONTINUOUS
10
110.551
20
-101.217
11
110.548
21
-101.214
0
LINE
8
BLACK
6
CONTINUOUS
10
110.548
20
-101.214
11
110.545
21
-101.205
0
LINE
8
BLACK
6
CONTINUOUS
10
110.545
20
-101.205
11
110.541
21
-101.197
0
LINE
8
BLACK
6
CONTINUOUS
10
110.541
20
-101.197
11
110.541
21
-101.193
0
LINE
8
BLACK
6
CONTINUOUS
10
110.541
20
-101.193
11
110.54
21
-101.189
0
LINE
8
BLACK
6
CONTINUOUS
10
110.54
20
-101.189
11
110.54
21
-101.18
0
LINE
8
BLACK
6
CONTINUOUS
10
110.54
20
-101.18
11
110.539
21
-101.171
0
LINE
8
BLACK
6
CONTINUOUS
10
110.539
20
-101.171
11
110.54
21
-101.167
0
LINE
8
BLACK
6
CONTINUOUS
10
110.54
20
-101.167
11
110.54
21
-101.163
0
LINE
8
BLACK
6
CONTINUOUS
10
110.54
20
-101.163
11
110.543
21
-101.155
0
LINE
8
BLACK
6
CONTINUOUS
10
110.543
20
-101.155
11
110.545
21
-101.146
0
LINE
8
BLACK
6
CONTINUOUS
10
110.545
20
-101.146
11
110.547
21
-101.143
0
LINE
8
BLACK
6
CONTINUOUS
10
110.547
20
-101.143
11
110.548
21
-101.139
0
LINE
8
BLACK
6
CONTINUOUS
10
110.548
20
-101.139
11
110.554
21
-101.132
0
LINE
8
BLACK
6
CONTINUOUS
10
110.554
20
-101.132
11
110.559
21
-101.124
0
LINE
8
BLACK
6
CONTINUOUS
10
110.559
20
-101.124
11
110.562
21
-101.122
0
LINE
8
BLACK
6
CONTINUOUS
10
110.562
20
-101.122
11
110.565
21
-101.119
0
LINE
8
BLACK
6
CONTINUOUS
10
110.565
20
-101.119
11
110.573
21
-101.114
0
LINE
8
BLACK
6
CONTINUOUS
10
110.573
20
-101.114
11
110.58
21
-101.109
0
LINE
8
BLACK
6
CONTINUOUS
10
110.58
20
-101.109
11
110.584
21
-101.108
0
LINE
8
BLACK
6
CONTINUOUS
10
110.584
20
-101.108
11
110.588
21
-101.106
0
LINE
8
BLACK
6
CONTINUOUS
10
110.588
20
-101.106
11
110.597
21
-101.104
0
LINE
8
BLACK
6
CONTINUOUS
10
110.597
20
-101.104
11
110.605
21
-101.102
0
LINE
8
BLACK
6
CONTINUOUS
10
110.605
20
-101.102
11
110.609
21
-101.102
0
LINE
8
BLACK
6
CONTINUOUS
10
110.609
20
-101.102
11
110.613
21
-101.101
0
LINE
8
BLACK
6
CONTINUOUS
10
110.613
20
-101.101
11
111.538
21
-101.101
0
LINE
8
BLACK
6
CONTINUOUS
10
111.538
20
-101.101
11
111.538
21
-100.89
0
LINE
8
BLACK
6
CONTINUOUS
10
111.538
20
-100.89
11
111.543
21
-100.865
0
LINE
8
BLACK
6
CONTINUOUS
10
111.543
20
-100.865
11
111.556
21
-100.842
0
LINE
8
BLACK
6
CONTINUOUS
10
111.556
20
-100.842
11
111.576
21
-100.826
0
LINE
8
BLACK
6
CONTINUOUS
10
111.576
20
-100.826
11
111.6
21
-100.817
0
LINE
8
BLACK
6
CONTINUOUS
10
111.6
20
-100.817
11
111.626
21
-100.817
0
LINE
8
BLACK
6
CONTINUOUS
10
111.626
20
-100.817
11
111.651
21
-100.826
0
LINE
8
BLACK
6
CONTINUOUS
10
173.111
20
-89.1619
11
173.133
21
-89.1749
0
LINE
8
BLACK
6
CONTINUOUS
10
173.133
20
-89.1749
11
173.15
21
-89.1949
0
LINE
8
BLACK
6
CONTINUOUS
10
173.15
20
-89.1949
11
173.159
21
-89.2194
0
LINE
8
BLACK
6
CONTINUOUS
10
173.159
20
-89.2194
11
173.159
21
-89.2454
0
LINE
8
BLACK
6
CONTINUOUS
10
173.159
20
-89.2454
11
173.15
21
-89.2699
0
LINE
8
BLACK
6
CONTINUOUS
10
173.15
20
-89.2699
11
173.133
21
-89.2898
0
LINE
8
BLACK
6
CONTINUOUS
10
173.133
20
-89.2898
11
173.111
21
-89.3029
0
LINE
8
BLACK
6
CONTINUOUS
10
173.111
20
-89.3029
11
173.085
21
-89.3074
0
LINE
8
BLACK
6
CONTINUOUS
10
173.085
20
-89.3074
11
172.677
21
-89.3074
0
LINE
8
BLACK
6
CONTINUOUS
10
172.677
20
-89.3074
11
172.652
21
-89.5556
0
LINE
8
BLACK
6
CONTINUOUS
10
172.652
20
-89.5556
11
172.671
21
-89.5463
0
LINE
8
BLACK
6
CONTINUOUS
10
172.671
20
-89.5463
11
172.675
21
-89.545
0
LINE
8
BLACK
6
CONTINUOUS
10
172.675
20
-89.545
11
172.678
21
-89.5429
0
LINE
8
BLACK
6
CONTINUOUS
10
172.678
20
-89.5429
11
172.687
21
-89.5413
0
LINE
8
BLACK
6
CONTINUOUS
10
172.687
20
-89.5413
11
172.696
21
-89.5388
0
LINE
8
BLACK
6
CONTINUOUS
10
172.696
20
-89.5388
11
172.7
21
-89.5391
0
LINE
8
BLACK
6
CONTINUOUS
10
172.7
20
-89.5391
11
172.704
21
-89.5383
0
LINE
8
BLACK
6
CONTINUOUS
10
172.704
20
-89.5383
11
172.942
21
-89.5383
0
LINE
8
BLACK
6
CONTINUOUS
10
172.942
20
-89.5383
11
172.946
21
-89.5391
0
LINE
8
BLACK
6
CONTINUOUS
10
172.946
20
-89.5391
11
172.951
21
-89.5388
0
LINE
8
BLACK
6
CONTINUOUS
10
172.951
20
-89.5388
11
172.959
21
-89.5413
0
LINE
8
BLACK
6
CONTINUOUS
10
172.959
20
-89.5413
11
172.968
21
-89.5429
0
LINE
8
BLACK
6
CONTINUOUS
10
172.968
20
-89.5429
11
172.972
21
-89.545
0
LINE
8
BLACK
6
CONTINUOUS
10
172.972
20
-89.545
11
172.976
21
-89.5463
0
LINE
8
BLACK
6
CONTINUOUS
10
172.976
20
-89.5463
11
173.071
21
-89.5939
0
LINE
8
BLACK
6
CONTINUOUS
10
173.071
20
-89.5939
11
173.081
21
-89.601
0
LINE
8
BLACK
6
CONTINUOUS
10
173.081
20
-89.601
11
173.09
21
-89.6079
0
LINE
8
BLACK
6
CONTINUOUS
10
173.09
20
-89.6079
11
173.138
21
-89.6555
0
LINE
8
BLACK
6
CONTINUOUS
10
173.138
20
-89.6555
11
173.145
21
-89.6654
0
LINE
8
BLACK
6
CONTINUOUS
10
173.145
20
-89.6654
11
173.152
21
-89.675
0
LINE
8
BLACK
6
CONTINUOUS
10
173.152
20
-89.675
11
173.2
21
-89.7703
0
LINE
8
BLACK
6
CONTINUOUS
10
173.2
20
-89.7703
11
173.201
21
-89.7744
0
LINE
8
BLACK
6
CONTINUOUS
10
173.201
20
-89.7744
11
173.203
21
-89.7782
0
LINE
8
BLACK
6
CONTINUOUS
10
173.203
20
-89.7782
11
173.205
21
-89.7868
0
LINE
8
BLACK
6
CONTINUOUS
10
173.205
20
-89.7868
11
173.207
21
-89.7952
0
LINE
8
BLACK
6
CONTINUOUS
10
173.207
20
-89.7952
11
173.207
21
-89.7995
0
LINE
8
BLACK
6
CONTINUOUS
10
173.207
20
-89.7995
11
173.208
21
-89.8038
0
LINE
8
BLACK
6
CONTINUOUS
10
173.208
20
-89.8038
11
173.208
21
-90.0419
0
LINE
8
BLACK
6
CONTINUOUS
10
173.208
20
-90.0419
11
173.207
21
-90.0462
0
LINE
8
BLACK
6
CONTINUOUS
10
173.207
20
-90.0462
11
173.207
21
-90.0505
0
LINE
8
BLACK
6
CONTINUOUS
10
173.207
20
-90.0505
11
173.205
21
-90.0589
0
LINE
8
BLACK
6
CONTINUOUS
10
173.205
20
-90.0589
11
173.203
21
-90.0676
0
LINE
8
BLACK
6
CONTINUOUS
10
173.203
20
-90.0676
11
173.201
21
-90.0713
0
LINE
8
BLACK
6
CONTINUOUS
10
173.201
20
-90.0713
11
173.2
21
-90.0754
0
LINE
8
BLACK
6
CONTINUOUS
10
173.2
20
-90.0754
11
173.152
21
-90.1707
0
LINE
8
BLACK
6
CONTINUOUS
10
173.152
20
-90.1707
11
173.145
21
-90.1803
0
LINE
8
BLACK
6
CONTINUOUS
10
173.145
20
-90.1803
11
173.138
21
-90.1902
0
LINE
8
BLACK
6
CONTINUOUS
10
173.138
20
-90.1902
11
173.09
21
-90.2378
0
LINE
8
BLACK
6
CONTINUOUS
10
173.09
20
-90.2378
11
173.081
21
-90.2447
0
LINE
8
BLACK
6
CONTINUOUS
10
173.081
20
-90.2447
11
173.071
21
-90.2518
0
LINE
8
BLACK
6
CONTINUOUS
10
173.071
20
-90.2518
11
172.976
21
-90.2995
0
LINE
8
BLACK
6
CONTINUOUS
10
172.976
20
-90.2995
11
172.972
21
-90.3007
0
LINE
8
BLACK
6
CONTINUOUS
10
172.972
20
-90.3007
11
172.968
21
-90.3029
0
LINE
8
BLACK
6
CONTINUOUS
10
172.968
20
-90.3029
11
172.959
21
-90.3044
0
LINE
8
BLACK
6
CONTINUOUS
10
172.959
20
-90.3044
11
172.951
21
-90.3069
0
LINE
8
BLACK
6
CONTINUOUS
10
172.951
20
-90.3069
11
172.946
21
-90.3066
0
LINE
8
BLACK
6
CONTINUOUS
10
172.946
20
-90.3066
11
172.942
21
-90.3074
0
LINE
8
BLACK
6
CONTINUOUS
10
172.942
20
-90.3074
11
172.704
21
-90.3074
0
LINE
8
BLACK
6
CONTINUOUS
10
172.704
20
-90.3074
11
172.7
21
-90.3066
0
LINE
8
BLACK
6
CONTINUOUS
10
172.7
20
-90.3066
11
172.696
21
-90.3069
0
LINE
8
BLACK
6
CONTINUOUS
10
172.696
20
-90.3069
11
172.687
21
-90.3044
0
LINE
8
BLACK
6
CONTINUOUS
10
172.687
20
-90.3044
11
172.678
21
-90.3029
0
LINE
8
BLACK
6
CONTINUOUS
10
172.678
20
-90.3029
11
172.675
21
-90.3007
0
LINE
8
BLACK
6
CONTINUOUS
10
172.675
20
-90.3007
11
172.671
21
-90.2995
0
LINE
8
BLACK
6
CONTINUOUS
10
172.671
20
-90.2995
11
172.575
21
-90.2518
0
LINE
8
BLACK
6
CONTINUOUS
10
172.575
20
-90.2518
11
172.566
21
-90.2447
0
LINE
8
BLACK
6
CONTINUOUS
10
172.566
20
-90.2447
11
172.556
21
-90.2378
0
LINE
8
BLACK
6
CONTINUOUS
10
172.556
20
-90.2378
11
172.508
21
-90.1902
0
LINE
8
BLACK
6
CONTINUOUS
10
172.508
20
-90.1902
11
172.493
21
-90.1688
0
LINE
8
BLACK
6
CONTINUOUS
10
172.493
20
-90.1688
11
172.487
21
-90.1437
0
LINE
8
BLACK
6
CONTINUOUS
10
172.487
20
-90.1437
11
172.489
21
-90.1177
0
LINE
8
BLACK
6
CONTINUOUS
10
172.489
20
-90.1177
11
172.5
21
-90.0941
0
LINE
8
BLACK
6
CONTINUOUS
10
172.5
20
-90.0941
11
172.518
21
-90.0757
0
LINE
8
BLACK
6
CONTINUOUS
10
172.518
20
-90.0757
11
172.542
21
-90.0647
0
LINE
8
BLACK
6
CONTINUOUS
10
172.542
20
-90.0647
11
172.568
21
-90.0624
0
LINE
8
BLACK
6
CONTINUOUS
10
172.568
20
-90.0624
11
172.593
21
-90.0692
0
LINE
8
BLACK
6
CONTINUOUS
10
172.593
20
-90.0692
11
172.614
21
-90.0841
0
LINE
8
BLACK
6
CONTINUOUS
10
172.614
20
-90.0841
11
172.653
21
-90.1231
0
LINE
8
BLACK
6
CONTINUOUS
10
172.653
20
-90.1231
11
172.722
21
-90.1574
0
LINE
8
BLACK
6
CONTINUOUS
10
172.722
20
-90.1574
11
172.924
21
-90.1574
0
LINE
8
BLACK
6
CONTINUOUS
10
172.924
20
-90.1574
11
172.993
21
-90.1231
0
LINE
8
BLACK
6
CONTINUOUS
10
172.993
20
-90.1231
11
173.023
21
-90.0927
0
LINE
8
BLACK
6
CONTINUOUS
10
173.023
20
-90.0927
11
173.058
21
-90.0242
0
LINE
8
BLACK
6
CONTINUOUS
10
173.058
20
-90.0242
11
173.058
21
-89.8215
0
LINE
8
BLACK
6
CONTINUOUS
10
173.058
20
-89.8215
11
173.023
21
-89.753
0
LINE
8
BLACK
6
CONTINUOUS
10
173.023
20
-89.753
11
172.993
21
-89.7226
0
LINE
8
BLACK
6
CONTINUOUS
10
172.993
20
-89.7226
11
172.924
21
-89.6883
0
LINE
8
BLACK
6
CONTINUOUS
10
172.924
20
-89.6883
11
172.722
21
-89.6883
0
LINE
8
BLACK
6
CONTINUOUS
10
172.722
20
-89.6883
11
172.653
21
-89.7226
0
LINE
8
BLACK
6
CONTINUOUS
10
172.653
20
-89.7226
11
172.614
21
-89.7616
0
LINE
8
BLACK
6
CONTINUOUS
10
172.614
20
-89.7616
11
172.614
21
-89.7619
0
LINE
8
BLACK
6
CONTINUOUS
10
172.614
20
-89.7619
11
172.614
21
-89.7623
0
LINE
8
BLACK
6
CONTINUOUS
10
172.614
20
-89.7623
11
172.603
21
-89.7693
0
LINE
8
BLACK
6
CONTINUOUS
10
172.603
20
-89.7693
11
172.593
21
-89.7765
0
LINE
8
BLACK
6
CONTINUOUS
10
172.593
20
-89.7765
11
172.592
21
-89.7767
0
LINE
8
BLACK
6
CONTINUOUS
10
172.592
20
-89.7767
11
172.592
21
-89.7769
0
LINE
8
BLACK
6
CONTINUOUS
10
172.592
20
-89.7769
11
172.58
21
-89.78
0
LINE
8
BLACK
6
CONTINUOUS
10
172.58
20
-89.78
11
172.568
21
-89.7833
0
LINE
8
BLACK
6
CONTINUOUS
10
172.568
20
-89.7833
11
172.567
21
-89.7832
0
LINE
8
BLACK
6
CONTINUOUS
10
172.567
20
-89.7832
11
172.567
21
-89.7834
0
LINE
8
BLACK
6
CONTINUOUS
10
172.567
20
-89.7834
11
172.554
21
-89.7821
0
LINE
8
BLACK
6
CONTINUOUS
10
172.554
20
-89.7821
11
172.542
21
-89.781
0
LINE
8
BLACK
6
CONTINUOUS
10
172.542
20
-89.781
11
172.541
21
-89.7808
0
LINE
8
BLACK
6
CONTINUOUS
10
172.541
20
-89.7808
11
172.541
21
-89.7808
0
LINE
8
BLACK
6
CONTINUOUS
10
172.541
20
-89.7808
11
172.53
21
-89.7753
0
LINE
8
BLACK
6
CONTINUOUS
10
172.53
20
-89.7753
11
172.518
21
-89.77
0
LINE
8
BLACK
6
CONTINUOUS
10
172.518
20
-89.77
11
172.518
21
-89.7697
0
LINE
8
BLACK
6
CONTINUOUS
10
172.518
20
-89.7697
11
172.517
21
-89.7695
0
LINE
8
BLACK
6
CONTINUOUS
10
172.517
20
-89.7695
11
172.509
21
-89.7605
0
LINE
8
BLACK
6
CONTINUOUS
10
172.509
20
-89.7605
11
172.5
21
-89.7516
0
LINE
8
BLACK
6
CONTINUOUS
10
172.5
20
-89.7516
11
172.5
21
-89.7512
0
LINE
8
BLACK
6
CONTINUOUS
10
172.5
20
-89.7512
11
172.499
21
-89.7508
0
LINE
8
BLACK
6
CONTINUOUS
10
172.499
20
-89.7508
11
172.494
21
-89.7394
0
LINE
8
BLACK
6
CONTINUOUS
10
172.494
20
-89.7394
11
172.489
21
-89.728
0
LINE
8
BLACK
6
CONTINUOUS
10
172.489
20
-89.728
11
172.489
21
-89.7275
0
LINE
8
BLACK
6
CONTINUOUS
10
172.489
20
-89.7275
11
172.489
21
-89.7271
0
LINE
8
BLACK
6
CONTINUOUS
10
172.489
20
-89.7271
11
172.488
21
-89.7145
0
LINE
8
BLACK
6
CONTINUOUS
10
172.488
20
-89.7145
11
172.487
21
-89.702
0
LINE
8
BLACK
6
CONTINUOUS
10
172.487
20
-89.702
11
172.487
21
-89.7016
0
LINE
8
BLACK
6
CONTINUOUS
10
172.487
20
-89.7016
11
172.487
21
-89.7011
0
LINE
8
BLACK
6
CONTINUOUS
10
172.487
20
-89.7011
11
172.534
21
-89.2249
0
LINE
8
BLACK
6
CONTINUOUS
10
172.534
20
-89.2249
11
172.535
21
-89.2222
0
LINE
8
BLACK
6
CONTINUOUS
10
172.535
20
-89.2222
11
172.535
21
-89.2194
0
LINE
8
BLACK
6
CONTINUOUS
10
172.535
20
-89.2194
11
172.539
21
-89.2097
0
LINE
8
BLACK
6
CONTINUOUS
10
172.539
20
-89.2097
11
172.541
21
-89.1998
0
LINE
8
BLACK
6
CONTINUOUS
10
172.541
20
-89.1998
11
172.543
21
-89.1975
0
LINE
8
BLACK
6
CONTINUOUS
10
172.543
20
-89.1975
11
172.544
21
-89.1949
0
LINE
8
BLACK
6
CONTINUOUS
10
172.544
20
-89.1949
11
172.55
21
-89.187
0
LINE
8
BLACK
6
CONTINUOUS
10
172.55
20
-89.187
11
172.556
21
-89.1787
0
LINE
8
BLACK
6
CONTINUOUS
10
172.556
20
-89.1787
11
172.559
21
-89.1771
0
LINE
8
BLACK
6
CONTINUOUS
10
172.559
20
-89.1771
11
172.561
21
-89.1749
0
LINE
8
BLACK
6
CONTINUOUS
10
172.561
20
-89.1749
11
172.57
21
-89.1698
0
LINE
8
BLACK
6
CONTINUOUS
10
172.57
20
-89.1698
11
172.578
21
-89.164
0
LINE
8
BLACK
6
CONTINUOUS
10
172.578
20
-89.164
11
172.581
21
-89.1633
0
LINE
8
BLACK
6
CONTINUOUS
10
172.581
20
-89.1633
11
172.583
21
-89.1619
0
LINE
8
BLACK
6
CONTINUOUS
10
172.583
20
-89.1619
11
172.593
21
-89.1601
0
LINE
8
BLACK
6
CONTINUOUS
10
172.593
20
-89.1601
11
172.603
21
-89.1576
0
LINE
8
BLACK
6
CONTINUOUS
10
172.603
20
-89.1576
11
172.606
21
-89.1579
0
LINE
8
BLACK
6
CONTINUOUS
10
172.606
20
-89.1579
11
172.609
21
-89.1574
0
LINE
8
BLACK
6
CONTINUOUS
10
172.609
20
-89.1574
11
173.085
21
-89.1574
0
LINE
8
BLACK
6
CONTINUOUS
10
173.085
20
-89.1574
11
173.111
21
-89.1619
0
LINE
8
BLACK
6
CONTINUOUS
10
172.17
20
-89.1674
11
172.19
21
-89.1842
0
LINE
8
BLACK
6
CONTINUOUS
10
172.19
20
-89.1842
11
172.203
21
-89.2067
0
LINE
8
BLACK
6
CONTINUOUS
10
172.203
20
-89.2067
11
172.208
21
-89.2324
0
LINE
8
BLACK
6
CONTINUOUS
10
172.208
20
-89.2324
11
172.208
21
-89.9467
0
LINE
8
BLACK
6
CONTINUOUS
10
172.208
20
-89.9467
11
172.206
21
-89.9585
0
LINE
8
BLACK
6
CONTINUOUS
10
172.206
20
-89.9585
11
172.204
21
-89.9704
0
LINE
8
BLACK
6
CONTINUOUS
10
172.204
20
-89.9704
11
172.156
21
-90.1132
0
LINE
8
BLACK
6
CONTINUOUS
10
172.156
20
-90.1132
11
172.154
21
-90.117
0
LINE
8
BLACK
6
CONTINUOUS
10
172.154
20
-90.117
11
172.153
21
-90.1212
0
LINE
8
BLACK
6
CONTINUOUS
10
172.153
20
-90.1212
11
172.148
21
-90.1284
0
LINE
8
BLACK
6
CONTINUOUS
10
172.148
20
-90.1284
11
172.144
21
-90.1361
0
LINE
8
BLACK
6
CONTINUOUS
10
172.144
20
-90.1361
11
172.141
21
-90.139
0
LINE
8
BLACK
6
CONTINUOUS
10
172.141
20
-90.139
11
172.138
21
-90.1426
0
LINE
8
BLACK
6
CONTINUOUS
10
172.138
20
-90.1426
11
172.043
21
-90.2378
0
LINE
8
BLACK
6
CONTINUOUS
10
172.043
20
-90.2378
11
172.039
21
-90.2403
0
LINE
8
BLACK
6
CONTINUOUS
10
172.039
20
-90.2403
11
172.036
21
-90.2435
0
LINE
8
BLACK
6
CONTINUOUS
10
172.036
20
-90.2435
11
172.029
21
-90.2477
0
LINE
8
BLACK
6
CONTINUOUS
10
172.029
20
-90.2477
11
172.022
21
-90.2527
0
LINE
8
BLACK
6
CONTINUOUS
10
172.022
20
-90.2527
11
172.017
21
-90.2539
0
LINE
8
BLACK
6
CONTINUOUS
10
172.017
20
-90.2539
11
172.014
21
-90.2559
0
LINE
8
BLACK
6
CONTINUOUS
10
172.014
20
-90.2559
11
171.871
21
-90.3035
0
LINE
8
BLACK
6
CONTINUOUS
10
171.871
20
-90.3035
11
171.859
21
-90.3053
0
LINE
8
BLACK
6
CONTINUOUS
10
171.859
20
-90.3053
11
171.847
21
-90.3074
0
LINE
8
BLACK
6
CONTINUOUS
10
171.847
20
-90.3074
11
171.752
21
-90.3074
0
LINE
8
BLACK
6
CONTINUOUS
10
171.752
20
-90.3074
11
171.726
21
-90.3029
0
LINE
8
BLACK
6
CONTINUOUS
10
171.726
20
-90.3029
11
171.704
21
-90.2898
0
LINE
8
BLACK
6
CONTINUOUS
10
171.704
20
-90.2898
11
171.687
21
-90.2699
0
LINE
8
BLACK
6
CONTINUOUS
10
171.687
20
-90.2699
11
171.678
21
-90.2454
0
LINE
8
BLACK
6
CONTINUOUS
10
171.678
20
-90.2454
11
171.678
21
-90.2194
0
LINE
8
BLACK
6
CONTINUOUS
10
171.678
20
-90.2194
11
171.687
21
-90.1949
0
LINE
8
BLACK
6
CONTINUOUS
10
171.687
20
-90.1949
11
171.704
21
-90.1749
0
LINE
8
BLACK
6
CONTINUOUS
10
171.704
20
-90.1749
11
171.726
21
-90.1619
0
LINE
8
BLACK
6
CONTINUOUS
10
171.726
20
-90.1619
11
171.752
21
-90.1574
0
LINE
8
BLACK
6
CONTINUOUS
10
171.752
20
-90.1574
11
171.835
21
-90.1574
0
LINE
8
BLACK
6
CONTINUOUS
10
171.835
20
-90.1574
11
171.949
21
-90.1192
0
LINE
8
BLACK
6
CONTINUOUS
10
171.949
20
-90.1192
11
172.019
21
-90.049
0
LINE
8
BLACK
6
CONTINUOUS
10
172.019
20
-90.049
11
172.058
21
-89.9345
0
LINE
8
BLACK
6
CONTINUOUS
10
172.058
20
-89.9345
11
172.058
21
-89.2324
0
LINE
8
BLACK
6
CONTINUOUS
10
172.058
20
-89.2324
11
172.062
21
-89.2067
0
LINE
8
BLACK
6
CONTINUOUS
10
172.062
20
-89.2067
11
172.075
21
-89.1842
0
LINE
8
BLACK
6
CONTINUOUS
10
172.075
20
-89.1842
11
172.095
21
-89.1674
0
LINE
8
BLACK
6
CONTINUOUS
10
172.095
20
-89.1674
11
172.12
21
-89.1585
0
LINE
8
BLACK
6
CONTINUOUS
10
172.12
20
-89.1585
11
172.146
21
-89.1585
0
LINE
8
BLACK
6
CONTINUOUS
10
172.146
20
-89.1585
11
172.17
21
-89.1674
0
LINE
8
BLACK
6
CONTINUOUS
10
112.24
20
-84.7131
11
112.245
21
-84.7129
0
LINE
8
BLACK
6
CONTINUOUS
10
112.245
20
-84.7129
11
112.253
21
-84.7154
0
LINE
8
BLACK
6
CONTINUOUS
10
112.253
20
-84.7154
11
112.262
21
-84.7169
0
LINE
8
BLACK
6
CONTINUOUS
10
112.262
20
-84.7169
11
112.266
21
-84.7191
0
LINE
8
BLACK
6
CONTINUOUS
10
112.266
20
-84.7191
11
112.27
21
-84.7203
0
LINE
8
BLACK
6
CONTINUOUS
10
112.27
20
-84.7203
11
112.365
21
-84.7679
0
LINE
8
BLACK
6
CONTINUOUS
10
112.365
20
-84.7679
11
112.375
21
-84.7751
0
LINE
8
BLACK
6
CONTINUOUS
10
112.375
20
-84.7751
11
112.384
21
-84.782
0
LINE
8
BLACK
6
CONTINUOUS
10
112.384
20
-84.782
11
112.432
21
-84.8296
0
LINE
8
BLACK
6
CONTINUOUS
10
112.432
20
-84.8296
11
112.439
21
-84.8394
0
LINE
8
BLACK
6
CONTINUOUS
10
112.439
20
-84.8394
11
112.446
21
-84.8491
0
LINE
8
BLACK
6
CONTINUOUS
10
112.446
20
-84.8491
11
112.494
21
-84.9443
0
LINE
8
BLACK
6
CONTINUOUS
10
112.494
20
-84.9443
11
112.495
21
-84.9485
0
LINE
8
BLACK
6
CONTINUOUS
10
112.495
20
-84.9485
11
112.497
21
-84.9522
0
LINE
8
BLACK
6
CONTINUOUS
10
112.497
20
-84.9522
11
112.499
21
-84.9609
0
LINE
8
BLACK
6
CONTINUOUS
10
112.499
20
-84.9609
11
112.501
21
-84.9693
0
LINE
8
BLACK
6
CONTINUOUS
10
112.501
20
-84.9693
11
112.501
21
-84.9736
0
LINE
8
BLACK
6
CONTINUOUS
10
112.501
20
-84.9736
11
112.502
21
-84.9779
0
LINE
8
BLACK
6
CONTINUOUS
10
112.502
20
-84.9779
11
112.502
21
-85.0731
0
LINE
8
BLACK
6
CONTINUOUS
10
112.502
20
-85.0731
11
112.5
21
-85.0849
0
LINE
8
BLACK
6
CONTINUOUS
10
112.5
20
-85.0849
11
112.498
21
-85.0968
0
LINE
8
BLACK
6
CONTINUOUS
10
112.498
20
-85.0968
11
112.45
21
-85.2397
0
LINE
8
BLACK
6
CONTINUOUS
10
112.45
20
-85.2397
11
112.448
21
-85.2435
0
LINE
8
BLACK
6
CONTINUOUS
10
112.448
20
-85.2435
11
112.447
21
-85.2476
0
LINE
8
BLACK
6
CONTINUOUS
10
112.447
20
-85.2476
11
112.442
21
-85.2548
0
LINE
8
BLACK
6
CONTINUOUS
10
112.442
20
-85.2548
11
112.438
21
-85.2626
0
LINE
8
BLACK
6
CONTINUOUS
10
112.438
20
-85.2626
11
112.435
21
-85.2654
0
LINE
8
BLACK
6
CONTINUOUS
10
112.435
20
-85.2654
11
112.432
21
-85.269
0
LINE
8
BLACK
6
CONTINUOUS
10
112.432
20
-85.269
11
111.989
21
-85.7124
0
LINE
8
BLACK
6
CONTINUOUS
10
111.989
20
-85.7124
11
112.427
21
-85.7124
0
LINE
8
BLACK
6
CONTINUOUS
10
112.427
20
-85.7124
11
112.452
21
-85.7169
0
LINE
8
BLACK
6
CONTINUOUS
10
112.452
20
-85.7169
11
112.475
21
-85.7299
0
LINE
8
BLACK
6
CONTINUOUS
10
112.475
20
-85.7299
11
112.492
21
-85.7499
0
LINE
8
BLACK
6
CONTINUOUS
10
112.492
20
-85.7499
11
112.501
21
-85.7744
0
LINE
8
BLACK
6
CONTINUOUS
10
112.501
20
-85.7744
11
112.501
21
-85.8004
0
LINE
8
BLACK
6
CONTINUOUS
10
112.501
20
-85.8004
11
112.492
21
-85.8249
0
LINE
8
BLACK
6
CONTINUOUS
10
112.492
20
-85.8249
11
112.475
21
-85.8448
0
LINE
8
BLACK
6
CONTINUOUS
10
112.475
20
-85.8448
11
112.452
21
-85.8579
0
LINE
8
BLACK
6
CONTINUOUS
10
112.452
20
-85.8579
11
112.427
21
-85.8624
0
LINE
8
BLACK
6
CONTINUOUS
10
112.427
20
-85.8624
11
111.808
21
-85.8624
0
LINE
8
BLACK
6
CONTINUOUS
10
111.808
20
-85.8624
11
111.798
21
-85.8607
0
LINE
8
BLACK
6
CONTINUOUS
10
111.798
20
-85.8607
11
111.788
21
-85.8598
0
LINE
8
BLACK
6
CONTINUOUS
10
111.788
20
-85.8598
11
111.785
21
-85.8584
0
LINE
8
BLACK
6
CONTINUOUS
10
111.785
20
-85.8584
11
111.782
21
-85.8579
0
LINE
8
BLACK
6
CONTINUOUS
10
111.782
20
-85.8579
11
111.773
21
-85.853
0
LINE
8
BLACK
6
CONTINUOUS
10
111.773
20
-85.853
11
111.765
21
-85.8488
0
LINE
8
BLACK
6
CONTINUOUS
10
111.765
20
-85.8488
11
111.762
21
-85.8465
0
LINE
8
BLACK
6
CONTINUOUS
10
111.762
20
-85.8465
11
111.759
21
-85.8448
0
LINE
8
BLACK
6
CONTINUOUS
10
111.759
20
-85.8448
11
111.753
21
-85.8373
0
LINE
8
BLACK
6
CONTINUOUS
10
111.753
20
-85.8373
11
111.746
21
-85.8304
0
LINE
8
BLACK
6
CONTINUOUS
10
111.746
20
-85.8304
11
111.745
21
-85.8274
0
LINE
8
BLACK
6
CONTINUOUS
10
111.745
20
-85.8274
11
111.743
21
-85.8249
0
LINE
8
BLACK
6
CONTINUOUS
10
111.743
20
-85.8249
11
111.739
21
-85.8157
0
LINE
8
BLACK
6
CONTINUOUS
10
111.739
20
-85.8157
11
111.735
21
-85.8068
0
LINE
8
BLACK
6
CONTINUOUS
10
111.735
20
-85.8068
11
111.735
21
-85.8035
0
LINE
8
BLACK
6
CONTINUOUS
10
111.735
20
-85.8035
11
111.734
21
-85.8004
0
LINE
8
BLACK
6
CONTINUOUS
10
111.734
20
-85.8004
11
111.734
21
-85.7906
0
LINE
8
BLACK
6
CONTINUOUS
10
111.734
20
-85.7906
11
111.733
21
-85.7808
0
LINE
8
BLACK
6
CONTINUOUS
10
111.733
20
-85.7808
11
111.734
21
-85.7777
0
LINE
8
BLACK
6
CONTINUOUS
10
111.734
20
-85.7777
11
111.734
21
-85.7744
0
LINE
8
BLACK
6
CONTINUOUS
10
111.734
20
-85.7744
11
111.737
21
-85.7651
0
LINE
8
BLACK
6
CONTINUOUS
10
111.737
20
-85.7651
11
111.74
21
-85.7557
0
LINE
8
BLACK
6
CONTINUOUS
10
111.74
20
-85.7557
11
111.742
21
-85.753
0
LINE
8
BLACK
6
CONTINUOUS
10
111.742
20
-85.753
11
111.743
21
-85.7499
0
LINE
8
BLACK
6
CONTINUOUS
10
111.743
20
-85.7499
11
111.749
21
-85.7424
0
LINE
8
BLACK
6
CONTINUOUS
10
111.749
20
-85.7424
11
111.755
21
-85.7343
0
LINE
8
BLACK
6
CONTINUOUS
10
111.755
20
-85.7343
11
112.313
21
-85.1754
0
LINE
8
BLACK
6
CONTINUOUS
10
112.313
20
-85.1754
11
112.352
21
-85.0609
0
LINE
8
BLACK
6
CONTINUOUS
10
112.352
20
-85.0609
11
112.352
21
-84.9956
0
LINE
8
BLACK
6
CONTINUOUS
10
112.352
20
-84.9956
11
112.317
21
-84.927
0
LINE
8
BLACK
6
CONTINUOUS
10
112.317
20
-84.927
11
112.287
21
-84.8966
0
LINE
8
BLACK
6
CONTINUOUS
10
112.287
20
-84.8966
11
112.218
21
-84.8624
0
LINE
8
BLACK
6
CONTINUOUS
10
112.218
20
-84.8624
11
112.016
21
-84.8624
0
LINE
8
BLACK
6
CONTINUOUS
10
112.016
20
-84.8624
11
111.947
21
-84.8966
0
LINE
8
BLACK
6
CONTINUOUS
10
111.947
20
-84.8966
11
111.908
21
-84.9357
0
LINE
8
BLACK
6
CONTINUOUS
10
111.908
20
-84.9357
11
111.887
21
-84.9506
0
LINE
8
BLACK
6
CONTINUOUS
10
111.887
20
-84.9506
11
111.862
21
-84.9573
0
LINE
8
BLACK
6
CONTINUOUS
10
111.862
20
-84.9573
11
111.836
21
-84.9551
0
LINE
8
BLACK
6
CONTINUOUS
10
111.836
20
-84.9551
11
111.812
21
-84.9441
0
LINE
8
BLACK
6
CONTINUOUS
10
111.812
20
-84.9441
11
111.794
21
-84.9256
0
LINE
8
BLACK
6
CONTINUOUS
10
111.794
20
-84.9256
11
111.783
21
-84.902
0
LINE
8
BLACK
6
CONTINUOUS
10
111.783
20
-84.902
11
111.781
21
-84.8761
0
LINE
8
BLACK
6
CONTINUOUS
10
111.781
20
-84.8761
11
111.787
21
-84.8509
0
LINE
8
BLACK
6
CONTINUOUS
10
111.787
20
-84.8509
11
111.802
21
-84.8296
0
LINE
8
BLACK
6
CONTINUOUS
10
111.802
20
-84.8296
11
111.85
21
-84.782
0
LINE
8
BLACK
6
CONTINUOUS
10
111.85
20
-84.782
11
111.86
21
-84.7751
0
LINE
8
BLACK
6
CONTINUOUS
10
111.86
20
-84.7751
11
111.869
21
-84.7679
0
LINE
8
BLACK
6
CONTINUOUS
10
111.869
20
-84.7679
11
111.965
21
-84.7203
0
LINE
8
BLACK
6
CONTINUOUS
10
111.965
20
-84.7203
11
111.969
21
-84.7191
0
LINE
8
BLACK
6
CONTINUOUS
10
111.969
20
-84.7191
11
111.972
21
-84.7169
0
LINE
8
BLACK
6
CONTINUOUS
10
111.972
20
-84.7169
11
111.981
21
-84.7154
0
LINE
8
BLACK
6
CONTINUOUS
10
111.981
20
-84.7154
11
111.99
21
-84.7129
0
LINE
8
BLACK
6
CONTINUOUS
10
111.99
20
-84.7129
11
111.994
21
-84.7131
0
LINE
8
BLACK
6
CONTINUOUS
10
111.994
20
-84.7131
11
111.998
21
-84.7124
0
LINE
8
BLACK
6
CONTINUOUS
10
111.998
20
-84.7124
11
112.236
21
-84.7124
0
LINE
8
BLACK
6
CONTINUOUS
10
112.236
20
-84.7124
11
112.24
21
-84.7131
0
LINE
8
BLACK
6
CONTINUOUS
10
111.464
20
-84.7224
11
111.484
21
-84.7392
0
LINE
8
BLACK
6
CONTINUOUS
10
111.484
20
-84.7392
11
111.497
21
-84.7617
0
LINE
8
BLACK
6
CONTINUOUS
10
111.497
20
-84.7617
11
111.502
21
-84.7874
0
LINE
8
BLACK
6
CONTINUOUS
10
111.502
20
-84.7874
11
111.502
21
-85.5017
0
LINE
8
BLACK
6
CONTINUOUS
10
111.502
20
-85.5017
11
111.5
21
-85.5135
0
LINE
8
BLACK
6
CONTINUOUS
10
111.5
20
-85.5135
11
111.498
21
-85.5254
0
LINE
8
BLACK
6
CONTINUOUS
10
111.498
20
-85.5254
11
111.45
21
-85.6682
0
LINE
8
BLACK
6
CONTINUOUS
10
111.45
20
-85.6682
11
111.448
21
-85.672
0
LINE
8
BLACK
6
CONTINUOUS
10
111.448
20
-85.672
11
111.447
21
-85.6762
0
LINE
8
BLACK
6
CONTINUOUS
10
111.447
20
-85.6762
11
111.442
21
-85.6834
0
LINE
8
BLACK
6
CONTINUOUS
10
111.442
20
-85.6834
11
111.438
21
-85.6911
0
LINE
8
BLACK
6
CONTINUOUS
10
111.438
20
-85.6911
11
111.435
21
-85.694
0
LINE
8
BLACK
6
CONTINUOUS
10
111.435
20
-85.694
11
111.432
21
-85.6976
0
LINE
8
BLACK
6
CONTINUOUS
10
111.432
20
-85.6976
11
111.337
21
-85.7928
0
LINE
8
BLACK
6
CONTINUOUS
10
111.337
20
-85.7928
11
111.333
21
-85.7953
0
LINE
8
BLACK
6
CONTINUOUS
10
111.333
20
-85.7953
11
111.33
21
-85.7985
0
LINE
8
BLACK
6
CONTINUOUS
10
111.33
20
-85.7985
11
111.323
21
-85.8027
0
LINE
8
BLACK
6
CONTINUOUS
10
111.323
20
-85.8027
11
111.316
21
-85.8077
0
LINE
8
BLACK
6
CONTINUOUS
10
111.316
20
-85.8077
11
111.311
21
-85.8089
0
LINE
8
BLACK
6
CONTINUOUS
10
111.311
20
-85.8089
11
111.308
21
-85.8109
0
LINE
8
BLACK
6
CONTINUOUS
10
111.308
20
-85.8109
11
111.165
21
-85.8585
0
LINE
8
BLACK
6
CONTINUOUS
10
111.165
20
-85.8585
11
111.153
21
-85.8603
0
LINE
8
BLACK
6
CONTINUOUS
10
111.153
20
-85.8603
11
111.141
21
-85.8624
0
LINE
8
BLACK
6
CONTINUOUS
10
111.141
20
-85.8624
11
111.046
21
-85.8624
0
LINE
8
BLACK
6
CONTINUOUS
10
111.046
20
-85.8624
11
111.02
21
-85.8579
0
LINE
8
BLACK
6
CONTINUOUS
10
111.02
20
-85.8579
11
110.998
21
-85.8448
0
LINE
8
BLACK
6
CONTINUOUS
10
110.998
20
-85.8448
11
110.981
21
-85.8249
0
LINE
8
BLACK
6
CONTINUOUS
10
110.981
20
-85.8249
11
110.972
21
-85.8004
0
LINE
8
BLACK
6
CONTINUOUS
10
110.972
20
-85.8004
11
110.972
21
-85.7744
0
LINE
8
BLACK
6
CONTINUOUS
10
110.972
20
-85.7744
11
110.981
21
-85.7499
0
LINE
8
BLACK
6
CONTINUOUS
10
110.981
20
-85.7499
11
110.998
21
-85.7299
0
LINE
8
BLACK
6
CONTINUOUS
10
110.998
20
-85.7299
11
111.02
21
-85.7169
0
LINE
8
BLACK
6
CONTINUOUS
10
111.02
20
-85.7169
11
111.046
21
-85.7124
0
LINE
8
BLACK
6
CONTINUOUS
10
111.046
20
-85.7124
11
111.129
21
-85.7124
0
LINE
8
BLACK
6
CONTINUOUS
10
111.129
20
-85.7124
11
111.243
21
-85.6742
0
LINE
8
BLACK
6
CONTINUOUS
10
111.243
20
-85.6742
11
111.313
21
-85.604
0
LINE
8
BLACK
6
CONTINUOUS
10
111.313
20
-85.604
11
111.352
21
-85.4895
0
LINE
8
BLACK
6
CONTINUOUS
10
111.352
20
-85.4895
11
111.352
21
-84.7874
0
LINE
8
BLACK
6
CONTINUOUS
10
111.352
20
-84.7874
11
111.356
21
-84.7617
0
LINE
8
BLACK
6
CONTINUOUS
10
111.356
20
-84.7617
11
111.369
21
-84.7392
0
LINE
8
BLACK
6
CONTINUOUS
10
111.369
20
-84.7392
11
111.389
21
-84.7224
0
LINE
8
BLACK
6
CONTINUOUS
10
111.389
20
-84.7224
11
111.414
21
-84.7135
0
LINE
8
BLACK
6
CONTINUOUS
10
111.414
20
-84.7135
11
111.44
21
-84.7135
0
LINE
8
BLACK
6
CONTINUOUS
10
111.44
20
-84.7135
11
111.464
21
-84.7224
  0
ENDSEC
  0
EOF
