  0
SECTION
  2
HEADER
  9
$ANGBASE
  50
0.0
  9
$ANGDIR
  70
  1
  9
$MEASUREMENT
  70
0
  0
ENDSEC
  0
SECTION
  2
TABLES
  0
TABLE
  2
LTYPE
  70
4
  0
LTYPE
  5
40F
  2
CONTINUOUS
  70
0
  3
Solid line
  72
65
  73
0
  40
0.0
  0
LTYPE
  5
410
  2
DASHDOT
 70
0
  3
Dash Dot ____ _ ____ _
 72
65
 73
4
 40
2.0
 49
1.25
 49
-0.25
 49
0.25
 49
-0.25
  0
LTYPE
  5
411
  2
DASHED
 70
0
  3
Dashed __ __ __ __ __
 72
65
 73
2
 40
0.75
 49
0.5
 49
-0.25
  0
LTYPE
  5
43B
  2
DOTTED
 70
0
  3
Dotted .  .  .  .
 72
65
 73
2
 40
0.2
 49
0.0
 49
-0.2
  0
ENDTAB
  0
TABLE
  2
STYLE
  70
4
  0
STYLE
  2
KICAD
  70
0
  40
0
  41
1
  42
1
  50
0
  71
0
  3
isocp.shx
  0
STYLE
  2
KICADB
  70
0
  40
0
  41
1
  42
1
  50
0
  71
0
  3
isocp.shx
  0
STYLE
  2
KICADI
  70
0
  40
0
  41
1
  42
1
  50
15
  71
0
  3
isocp.shx
  0
STYLE
  2
KICADBI
  70
0
  40
0
  41
1
  42
1
  50
15
  71
0
  3
isocp.shx
  0
ENDTAB
  0
TABLE
  2
LAYER
  70
30
  0
LAYER
  2
BLACK
  70
0
  62
7
  6
CONTINUOUS
  0
LAYER
  2
GRAY1
  70
0
  62
251
  6
CONTINUOUS
  0
LAYER
  2
GRAY2
  70
0
  62
8
  6
CONTINUOUS
  0
LAYER
  2
GRAY3
  70
0
  62
9
  6
CONTINUOUS
  0
LAYER
  2
WHITE
  70
0
  62
7
  6
CONTINUOUS
  0
LAYER
  2
LYELLOW
  70
0
  62
51
  6
CONTINUOUS
  0
LAYER
  2
BLUE1
  70
0
  62
178
  6
CONTINUOUS
  0
LAYER
  2
GREEN1
  70
0
  62
98
  6
CONTINUOUS
  0
LAYER
  2
CYAN1
  70
0
  62
138
  6
CONTINUOUS
  0
LAYER
  2
RED1
  70
0
  62
18
  6
CONTINUOUS
  0
LAYER
  2
MAGENTA1
  70
0
  62
228
  6
CONTINUOUS
  0
LAYER
  2
BROWN1
  70
0
  62
58
  6
CONTINUOUS
  0
LAYER
  2
BLUE2
  70
0
  62
5
  6
CONTINUOUS
  0
LAYER
  2
GREEN2
  70
0
  62
3
  6
CONTINUOUS
  0
LAYER
  2
CYAN2
  70
0
  62
4
  6
CONTINUOUS
  0
LAYER
  2
RED2
  70
0
  62
1
  6
CONTINUOUS
  0
LAYER
  2
MAGENTA2
  70
0
  62
6
  6
CONTINUOUS
  0
LAYER
  2
BROWN2
  70
0
  62
54
  6
CONTINUOUS
  0
LAYER
  2
BLUE3
  70
0
  62
171
  6
CONTINUOUS
  0
LAYER
  2
GREEN3
  70
0
  62
91
  6
CONTINUOUS
  0
LAYER
  2
CYAN3
  70
0
  62
131
  6
CONTINUOUS
  0
LAYER
  2
RED3
  70
0
  62
11
  6
CONTINUOUS
  0
LAYER
  2
MAGENTA3
  70
0
  62
221
  6
CONTINUOUS
  0
LAYER
  2
YELLOW3
  70
0
  62
2
  6
CONTINUOUS
  0
LAYER
  2
BLUE4
  70
0
  62
5
  6
CONTINUOUS
  0
LAYER
  2
GREEN4
  70
0
  62
3
  6
CONTINUOUS
  0
LAYER
  2
CYAN4
  70
0
  62
4
  6
CONTINUOUS
  0
LAYER
  2
RED4
  70
0
  62
1
  6
CONTINUOUS
  0
LAYER
  2
MAGENTA4
  70
0
  62
6
  6
CONTINUOUS
  0
LAYER
  2
YELLOW4
  70
0
  62
2
  6
CONTINUOUS
  0
ENDTAB
  0
ENDSEC
  0
SECTION
  2
ENTITIES
0
LINE
8
BLACK
6
CONTINUOUS
10
165.871
20
-76.1
11
165.88
21
-76.1
0
LINE
8
BLACK
6
CONTINUOUS
10
165.88
20
-76.1
11
165.888
21
-76.103
0
LINE
8
BLACK
6
CONTINUOUS
10
165.888
20
-76.103
11
165.897
21
-76.1046
0
LINE
8
BLACK
6
CONTINUOUS
10
165.897
20
-76.1046
11
165.904
21
-76.109
0
LINE
8
BLACK
6
CONTINUOUS
10
165.904
20
-76.109
11
165.913
21
-76.1121
0
LINE
8
BLACK
6
CONTINUOUS
10
165.913
20
-76.1121
11
165.92
21
-76.1178
0
LINE
8
BLACK
6
CONTINUOUS
10
165.92
20
-76.1178
11
165.927
21
-76.1222
0
LINE
8
BLACK
6
CONTINUOUS
10
165.927
20
-76.1222
11
165.933
21
-76.129
0
LINE
8
BLACK
6
CONTINUOUS
10
165.933
20
-76.129
11
165.94
21
-76.1347
0
LINE
8
BLACK
6
CONTINUOUS
10
165.94
20
-76.1347
11
165.944
21
-76.1424
0
LINE
8
BLACK
6
CONTINUOUS
10
165.944
20
-76.1424
11
165.95
21
-76.1492
0
LINE
8
BLACK
6
CONTINUOUS
10
165.95
20
-76.1492
11
165.953
21
-76.1576
0
LINE
8
BLACK
6
CONTINUOUS
10
165.953
20
-76.1576
11
165.957
21
-76.1653
0
LINE
8
BLACK
6
CONTINUOUS
10
165.957
20
-76.1653
11
165.959
21
-76.174
0
LINE
8
BLACK
6
CONTINUOUS
10
165.959
20
-76.174
11
165.962
21
-76.1824
0
LINE
8
BLACK
6
CONTINUOUS
10
165.962
20
-76.1824
11
165.962
21
-76.1912
0
LINE
8
BLACK
6
CONTINUOUS
10
165.962
20
-76.1912
11
165.962
21
-76.1913
0
LINE
8
BLACK
6
CONTINUOUS
10
165.962
20
-76.1913
11
165.962
21
-88.038
0
LINE
8
BLACK
6
CONTINUOUS
10
165.962
20
-88.038
11
172.475
21
-88.038
0
LINE
8
BLACK
6
CONTINUOUS
10
172.475
20
-88.038
11
172.479
21
-88.0387
0
LINE
8
BLACK
6
CONTINUOUS
10
172.479
20
-88.0387
11
173.428
21
-88.1168
0
LINE
8
BLACK
6
CONTINUOUS
10
173.428
20
-88.1168
11
173.431
21
-88.117
0
LINE
8
BLACK
6
CONTINUOUS
10
173.431
20
-88.117
11
173.438
21
-88.1183
0
LINE
8
BLACK
6
CONTINUOUS
10
173.438
20
-88.1183
11
173.445
21
-88.1195
0
LINE
8
BLACK
6
CONTINUOUS
10
173.445
20
-88.1195
11
174.373
21
-88.3527
0
LINE
8
BLACK
6
CONTINUOUS
10
174.373
20
-88.3527
11
174.375
21
-88.3533
0
LINE
8
BLACK
6
CONTINUOUS
10
174.375
20
-88.3533
11
174.382
21
-88.3557
0
LINE
8
BLACK
6
CONTINUOUS
10
174.382
20
-88.3557
11
174.389
21
-88.358
0
LINE
8
BLACK
6
CONTINUOUS
10
174.389
20
-88.358
11
175.267
21
-88.7397
0
LINE
8
BLACK
6
CONTINUOUS
10
175.267
20
-88.7397
11
175.269
21
-88.7407
0
LINE
8
BLACK
6
CONTINUOUS
10
175.269
20
-88.7407
11
175.275
21
-88.7442
0
LINE
8
BLACK
6
CONTINUOUS
10
175.275
20
-88.7442
11
175.281
21
-88.7475
0
LINE
8
BLACK
6
CONTINUOUS
10
175.281
20
-88.7475
11
176.085
21
-89.2675
0
LINE
8
BLACK
6
CONTINUOUS
10
176.085
20
-89.2675
11
176.087
21
-89.2688
0
LINE
8
BLACK
6
CONTINUOUS
10
176.087
20
-89.2688
11
176.092
21
-89.2732
0
LINE
8
BLACK
6
CONTINUOUS
10
176.092
20
-89.2732
11
176.098
21
-89.2775
0
LINE
8
BLACK
6
CONTINUOUS
10
176.098
20
-89.2775
11
176.806
21
-89.9218
0
LINE
8
BLACK
6
CONTINUOUS
10
176.806
20
-89.9218
11
176.808
21
-89.9235
0
LINE
8
BLACK
6
CONTINUOUS
10
176.808
20
-89.9235
11
176.812
21
-89.9287
0
LINE
8
BLACK
6
CONTINUOUS
10
176.812
20
-89.9287
11
176.817
21
-89.9338
0
LINE
8
BLACK
6
CONTINUOUS
10
176.817
20
-89.9338
11
177.41
21
-90.6851
0
LINE
8
BLACK
6
CONTINUOUS
10
177.41
20
-90.6851
11
177.412
21
-90.687
0
LINE
8
BLACK
6
CONTINUOUS
10
177.412
20
-90.687
11
177.416
21
-90.693
0
LINE
8
BLACK
6
CONTINUOUS
10
177.416
20
-90.693
11
177.419
21
-90.6988
0
LINE
8
BLACK
6
CONTINUOUS
10
177.419
20
-90.6988
11
177.882
21
-91.5369
0
LINE
8
BLACK
6
CONTINUOUS
10
177.882
20
-91.5369
11
177.883
21
-91.5391
0
LINE
8
BLACK
6
CONTINUOUS
10
177.883
20
-91.5391
11
177.886
21
-91.5455
0
LINE
8
BLACK
6
CONTINUOUS
10
177.886
20
-91.5455
11
177.889
21
-91.5518
0
LINE
8
BLACK
6
CONTINUOUS
10
177.889
20
-91.5518
11
178.208
21
-92.4543
0
LINE
8
BLACK
6
CONTINUOUS
10
178.208
20
-92.4543
11
178.209
21
-92.4566
0
LINE
8
BLACK
6
CONTINUOUS
10
178.209
20
-92.4566
11
178.211
21
-92.4634
0
LINE
8
BLACK
6
CONTINUOUS
10
178.211
20
-92.4634
11
178.213
21
-92.4701
0
LINE
8
BLACK
6
CONTINUOUS
10
178.213
20
-92.4701
11
178.381
21
-93.4127
0
LINE
8
BLACK
6
CONTINUOUS
10
178.381
20
-93.4127
11
178.381
21
-93.4151
0
LINE
8
BLACK
6
CONTINUOUS
10
178.381
20
-93.4151
11
178.381
21
-93.4203
0
LINE
8
BLACK
6
CONTINUOUS
10
178.381
20
-93.4203
11
178.382
21
-93.4255
0
LINE
8
BLACK
6
CONTINUOUS
10
178.382
20
-93.4255
11
178.408
21
-93.9689
0
LINE
8
BLACK
6
CONTINUOUS
10
178.408
20
-93.9689
11
178.408
21
-93.9713
0
LINE
8
BLACK
6
CONTINUOUS
10
178.408
20
-93.9713
11
178.408
21
-109.483
0
LINE
8
BLACK
6
CONTINUOUS
10
178.408
20
-109.483
11
178.407
21
-109.487
0
LINE
8
BLACK
6
CONTINUOUS
10
178.407
20
-109.487
11
178.329
21
-110.436
0
LINE
8
BLACK
6
CONTINUOUS
10
178.329
20
-110.436
11
178.329
21
-110.439
0
LINE
8
BLACK
6
CONTINUOUS
10
178.329
20
-110.439
11
178.328
21
-110.446
0
LINE
8
BLACK
6
CONTINUOUS
10
178.328
20
-110.446
11
178.327
21
-110.453
0
LINE
8
BLACK
6
CONTINUOUS
10
178.327
20
-110.453
11
178.093
21
-111.381
0
LINE
8
BLACK
6
CONTINUOUS
10
178.093
20
-111.381
11
178.093
21
-111.383
0
LINE
8
BLACK
6
CONTINUOUS
10
178.093
20
-111.383
11
178.09
21
-111.39
0
LINE
8
BLACK
6
CONTINUOUS
10
178.09
20
-111.39
11
178.088
21
-111.397
0
LINE
8
BLACK
6
CONTINUOUS
10
178.088
20
-111.397
11
177.706
21
-112.275
0
LINE
8
BLACK
6
CONTINUOUS
10
177.706
20
-112.275
11
177.705
21
-112.277
0
LINE
8
BLACK
6
CONTINUOUS
10
177.705
20
-112.277
11
177.702
21
-112.283
0
LINE
8
BLACK
6
CONTINUOUS
10
177.702
20
-112.283
11
177.699
21
-112.289
0
LINE
8
BLACK
6
CONTINUOUS
10
177.699
20
-112.289
11
177.179
21
-113.093
0
LINE
8
BLACK
6
CONTINUOUS
10
177.179
20
-113.093
11
177.177
21
-113.095
0
LINE
8
BLACK
6
CONTINUOUS
10
177.177
20
-113.095
11
177.173
21
-113.1
0
LINE
8
BLACK
6
CONTINUOUS
10
177.173
20
-113.1
11
177.169
21
-113.106
0
LINE
8
BLACK
6
CONTINUOUS
10
177.169
20
-113.106
11
176.524
21
-113.814
0
LINE
8
BLACK
6
CONTINUOUS
10
176.524
20
-113.814
11
176.523
21
-113.816
0
LINE
8
BLACK
6
CONTINUOUS
10
176.523
20
-113.816
11
176.517
21
-113.82
0
LINE
8
BLACK
6
CONTINUOUS
10
176.517
20
-113.82
11
176.512
21
-113.825
0
LINE
8
BLACK
6
CONTINUOUS
10
176.512
20
-113.825
11
175.761
21
-114.418
0
LINE
8
BLACK
6
CONTINUOUS
10
175.761
20
-114.418
11
175.759
21
-114.42
0
LINE
8
BLACK
6
CONTINUOUS
10
175.759
20
-114.42
11
175.753
21
-114.424
0
LINE
8
BLACK
6
CONTINUOUS
10
175.753
20
-114.424
11
175.747
21
-114.427
0
LINE
8
BLACK
6
CONTINUOUS
10
175.747
20
-114.427
11
174.909
21
-114.89
0
LINE
8
BLACK
6
CONTINUOUS
10
174.909
20
-114.89
11
174.907
21
-114.891
0
LINE
8
BLACK
6
CONTINUOUS
10
174.907
20
-114.891
11
174.9
21
-114.894
0
LINE
8
BLACK
6
CONTINUOUS
10
174.9
20
-114.894
11
174.894
21
-114.897
0
LINE
8
BLACK
6
CONTINUOUS
10
174.894
20
-114.897
11
173.992
21
-115.216
0
LINE
8
BLACK
6
CONTINUOUS
10
173.992
20
-115.216
11
173.989
21
-115.217
0
LINE
8
BLACK
6
CONTINUOUS
10
173.989
20
-115.217
11
173.983
21
-115.219
0
LINE
8
BLACK
6
CONTINUOUS
10
173.983
20
-115.219
11
173.976
21
-115.221
0
LINE
8
BLACK
6
CONTINUOUS
10
173.976
20
-115.221
11
173.033
21
-115.389
0
LINE
8
BLACK
6
CONTINUOUS
10
173.033
20
-115.389
11
173.031
21
-115.389
0
LINE
8
BLACK
6
CONTINUOUS
10
173.031
20
-115.389
11
173.026
21
-115.389
0
LINE
8
BLACK
6
CONTINUOUS
10
173.026
20
-115.389
11
173.02
21
-115.39
0
LINE
8
BLACK
6
CONTINUOUS
10
173.02
20
-115.39
11
172.477
21
-115.416
0
LINE
8
BLACK
6
CONTINUOUS
10
172.477
20
-115.416
11
172.475
21
-115.416
0
LINE
8
BLACK
6
CONTINUOUS
10
172.475
20
-115.416
11
165.962
21
-115.416
0
LINE
8
BLACK
6
CONTINUOUS
10
165.962
20
-115.416
11
165.962
21
-127.263
0
LINE
8
BLACK
6
CONTINUOUS
10
165.962
20
-127.263
11
165.962
21
-127.263
0
LINE
8
BLACK
6
CONTINUOUS
10
165.962
20
-127.263
11
165.962
21
-127.272
0
LINE
8
BLACK
6
CONTINUOUS
10
165.962
20
-127.272
11
165.959
21
-127.28
0
LINE
8
BLACK
6
CONTINUOUS
10
165.959
20
-127.28
11
165.957
21
-127.289
0
LINE
8
BLACK
6
CONTINUOUS
10
165.957
20
-127.289
11
165.953
21
-127.296
0
LINE
8
BLACK
6
CONTINUOUS
10
165.953
20
-127.296
11
165.95
21
-127.305
0
LINE
8
BLACK
6
CONTINUOUS
10
165.95
20
-127.305
11
165.944
21
-127.312
0
LINE
8
BLACK
6
CONTINUOUS
10
165.944
20
-127.312
11
165.94
21
-127.319
0
LINE
8
BLACK
6
CONTINUOUS
10
165.94
20
-127.319
11
165.933
21
-127.325
0
LINE
8
BLACK
6
CONTINUOUS
10
165.933
20
-127.325
11
165.927
21
-127.332
0
LINE
8
BLACK
6
CONTINUOUS
10
165.927
20
-127.332
11
165.92
21
-127.336
0
LINE
8
BLACK
6
CONTINUOUS
10
165.92
20
-127.336
11
165.913
21
-127.342
0
LINE
8
BLACK
6
CONTINUOUS
10
165.913
20
-127.342
11
165.904
21
-127.345
0
LINE
8
BLACK
6
CONTINUOUS
10
165.904
20
-127.345
11
165.897
21
-127.349
0
LINE
8
BLACK
6
CONTINUOUS
10
165.897
20
-127.349
11
165.888
21
-127.351
0
LINE
8
BLACK
6
CONTINUOUS
10
165.888
20
-127.351
11
165.88
21
-127.354
0
LINE
8
BLACK
6
CONTINUOUS
10
165.88
20
-127.354
11
165.871
21
-127.354
0
LINE
8
BLACK
6
CONTINUOUS
10
165.871
20
-127.354
11
165.871
21
-127.354
0
LINE
8
BLACK
6
CONTINUOUS
10
165.871
20
-127.354
11
118.609
21
-127.354
0
LINE
8
BLACK
6
CONTINUOUS
10
118.609
20
-127.354
11
118.583
21
-127.349
0
LINE
8
BLACK
6
CONTINUOUS
10
118.583
20
-127.349
11
118.553
21
-127.332
0
LINE
8
BLACK
6
CONTINUOUS
10
118.553
20
-127.332
11
118.53
21
-127.305
0
LINE
8
BLACK
6
CONTINUOUS
10
118.53
20
-127.305
11
118.518
21
-127.272
0
LINE
8
BLACK
6
CONTINUOUS
10
118.518
20
-127.272
11
118.518
21
-127.236
0
LINE
8
BLACK
6
CONTINUOUS
10
118.518
20
-127.236
11
118.53
21
-127.203
0
LINE
8
BLACK
6
CONTINUOUS
10
118.53
20
-127.203
11
118.543
21
-127.188
0
LINE
8
BLACK
6
CONTINUOUS
10
118.543
20
-127.188
11
118.543
21
-119.734
0
LINE
8
BLACK
6
CONTINUOUS
10
118.543
20
-119.734
11
112.005
21
-119.734
0
LINE
8
BLACK
6
CONTINUOUS
10
112.005
20
-119.734
11
112.001
21
-119.733
0
LINE
8
BLACK
6
CONTINUOUS
10
112.001
20
-119.733
11
111.052
21
-119.655
0
LINE
8
BLACK
6
CONTINUOUS
10
111.052
20
-119.655
11
111.049
21
-119.655
0
LINE
8
BLACK
6
CONTINUOUS
10
111.049
20
-119.655
11
111.042
21
-119.654
0
LINE
8
BLACK
6
CONTINUOUS
10
111.042
20
-119.654
11
111.035
21
-119.653
0
LINE
8
BLACK
6
CONTINUOUS
10
111.035
20
-119.653
11
110.107
21
-119.419
0
LINE
8
BLACK
6
CONTINUOUS
10
110.107
20
-119.419
11
110.105
21
-119.419
0
LINE
8
BLACK
6
CONTINUOUS
10
110.105
20
-119.419
11
110.098
21
-119.416
0
LINE
8
BLACK
6
CONTINUOUS
10
110.098
20
-119.416
11
110.091
21
-119.414
0
LINE
8
BLACK
6
CONTINUOUS
10
110.091
20
-119.414
11
109.213
21
-119.032
0
LINE
8
BLACK
6
CONTINUOUS
10
109.213
20
-119.032
11
109.211
21
-119.031
0
LINE
8
BLACK
6
CONTINUOUS
10
109.211
20
-119.031
11
109.205
21
-119.028
0
LINE
8
BLACK
6
CONTINUOUS
10
109.205
20
-119.028
11
109.199
21
-119.025
0
LINE
8
BLACK
6
CONTINUOUS
10
109.199
20
-119.025
11
108.395
21
-118.505
0
LINE
8
BLACK
6
CONTINUOUS
10
108.395
20
-118.505
11
108.393
21
-118.503
0
LINE
8
BLACK
6
CONTINUOUS
10
108.393
20
-118.503
11
108.388
21
-118.499
0
LINE
8
BLACK
6
CONTINUOUS
10
108.388
20
-118.499
11
108.382
21
-118.495
0
LINE
8
BLACK
6
CONTINUOUS
10
108.382
20
-118.495
11
107.674
21
-117.85
0
LINE
8
BLACK
6
CONTINUOUS
10
107.674
20
-117.85
11
107.672
21
-117.849
0
LINE
8
BLACK
6
CONTINUOUS
10
107.672
20
-117.849
11
107.668
21
-117.843
0
LINE
8
BLACK
6
CONTINUOUS
10
107.668
20
-117.843
11
107.663
21
-117.838
0
LINE
8
BLACK
6
CONTINUOUS
10
107.663
20
-117.838
11
107.07
21
-117.087
0
LINE
8
BLACK
6
CONTINUOUS
10
107.07
20
-117.087
11
107.068
21
-117.085
0
LINE
8
BLACK
6
CONTINUOUS
10
107.068
20
-117.085
11
107.064
21
-117.079
0
LINE
8
BLACK
6
CONTINUOUS
10
107.064
20
-117.079
11
107.061
21
-117.073
0
LINE
8
BLACK
6
CONTINUOUS
10
107.061
20
-117.073
11
106.598
21
-116.235
0
LINE
8
BLACK
6
CONTINUOUS
10
106.598
20
-116.235
11
106.597
21
-116.233
0
LINE
8
BLACK
6
CONTINUOUS
10
106.597
20
-116.233
11
106.594
21
-116.226
0
LINE
8
BLACK
6
CONTINUOUS
10
106.594
20
-116.226
11
106.591
21
-116.22
0
LINE
8
BLACK
6
CONTINUOUS
10
106.591
20
-116.22
11
106.272
21
-115.318
0
LINE
8
BLACK
6
CONTINUOUS
10
106.272
20
-115.318
11
106.271
21
-115.315
0
LINE
8
BLACK
6
CONTINUOUS
10
106.271
20
-115.315
11
106.269
21
-115.309
0
LINE
8
BLACK
6
CONTINUOUS
10
106.269
20
-115.309
11
106.267
21
-115.302
0
LINE
8
BLACK
6
CONTINUOUS
10
106.267
20
-115.302
11
106.099
21
-114.359
0
LINE
8
BLACK
6
CONTINUOUS
10
106.099
20
-114.359
11
106.099
21
-114.357
0
LINE
8
BLACK
6
CONTINUOUS
10
106.099
20
-114.357
11
106.099
21
-114.352
0
LINE
8
BLACK
6
CONTINUOUS
10
106.099
20
-114.352
11
106.098
21
-114.346
0
LINE
8
BLACK
6
CONTINUOUS
10
106.098
20
-114.346
11
106.072
21
-113.803
0
LINE
8
BLACK
6
CONTINUOUS
10
106.072
20
-113.803
11
106.072
21
-113.801
0
LINE
8
BLACK
6
CONTINUOUS
10
106.072
20
-113.801
11
106.072
21
-89.6533
0
LINE
8
BLACK
6
CONTINUOUS
10
106.072
20
-89.6533
11
106.073
21
-89.6492
0
LINE
8
BLACK
6
CONTINUOUS
10
106.073
20
-89.6492
11
106.151
21
-88.6997
0
LINE
8
BLACK
6
CONTINUOUS
10
106.151
20
-88.6997
11
106.151
21
-88.6972
0
LINE
8
BLACK
6
CONTINUOUS
10
106.151
20
-88.6972
11
106.152
21
-88.6904
0
LINE
8
BLACK
6
CONTINUOUS
10
106.152
20
-88.6904
11
106.153
21
-88.6835
0
LINE
8
BLACK
6
CONTINUOUS
10
106.153
20
-88.6835
11
106.387
21
-87.755
0
LINE
8
BLACK
6
CONTINUOUS
10
106.387
20
-87.755
11
106.387
21
-87.7526
0
LINE
8
BLACK
6
CONTINUOUS
10
106.387
20
-87.7526
11
106.39
21
-87.746
0
LINE
8
BLACK
6
CONTINUOUS
10
106.39
20
-87.746
11
106.392
21
-87.7394
0
LINE
8
BLACK
6
CONTINUOUS
10
106.392
20
-87.7394
11
106.774
21
-86.8615
0
LINE
8
BLACK
6
CONTINUOUS
10
106.774
20
-86.8615
11
106.775
21
-86.8593
0
LINE
8
BLACK
6
CONTINUOUS
10
106.775
20
-86.8593
11
106.778
21
-86.8532
0
LINE
8
BLACK
6
CONTINUOUS
10
106.778
20
-86.8532
11
106.781
21
-86.847
0
LINE
8
BLACK
6
CONTINUOUS
10
106.781
20
-86.847
11
107.301
21
-86.0432
0
LINE
8
BLACK
6
CONTINUOUS
10
107.301
20
-86.0432
11
107.303
21
-86.0412
0
LINE
8
BLACK
6
CONTINUOUS
10
107.303
20
-86.0412
11
107.307
21
-86.0358
0
LINE
8
BLACK
6
CONTINUOUS
10
107.307
20
-86.0358
11
107.311
21
-86.0302
0
LINE
8
BLACK
6
CONTINUOUS
10
107.311
20
-86.0302
11
107.956
21
-85.3221
0
LINE
8
BLACK
6
CONTINUOUS
10
107.956
20
-85.3221
11
107.957
21
-85.3203
0
LINE
8
BLACK
6
CONTINUOUS
10
107.957
20
-85.3203
11
107.963
21
-85.3157
0
LINE
8
BLACK
6
CONTINUOUS
10
107.963
20
-85.3157
11
107.968
21
-85.311
0
LINE
8
BLACK
6
CONTINUOUS
10
107.968
20
-85.311
11
108.719
21
-84.7176
0
LINE
8
BLACK
6
CONTINUOUS
10
108.719
20
-84.7176
11
108.721
21
-84.7161
0
LINE
8
BLACK
6
CONTINUOUS
10
108.721
20
-84.7161
11
108.727
21
-84.7124
0
LINE
8
BLACK
6
CONTINUOUS
10
108.727
20
-84.7124
11
108.733
21
-84.7085
0
LINE
8
BLACK
6
CONTINUOUS
10
108.733
20
-84.7085
11
109.571
21
-84.2458
0
LINE
8
BLACK
6
CONTINUOUS
10
109.571
20
-84.2458
11
109.573
21
-84.2447
0
LINE
8
BLACK
6
CONTINUOUS
10
109.573
20
-84.2447
11
109.579
21
-84.242
0
LINE
8
BLACK
6
CONTINUOUS
10
109.579
20
-84.242
11
109.586
21
-84.2391
0
LINE
8
BLACK
6
CONTINUOUS
10
109.586
20
-84.2391
11
110.488
21
-83.9196
0
LINE
8
BLACK
6
CONTINUOUS
10
110.488
20
-83.9196
11
110.491
21
-83.9188
0
LINE
8
BLACK
6
CONTINUOUS
10
110.491
20
-83.9188
11
110.497
21
-83.9171
0
LINE
8
BLACK
6
CONTINUOUS
10
110.497
20
-83.9171
11
110.504
21
-83.9154
0
LINE
8
BLACK
6
CONTINUOUS
10
110.504
20
-83.9154
11
111.447
21
-83.7475
0
LINE
8
BLACK
6
CONTINUOUS
10
111.447
20
-83.7475
11
111.449
21
-83.7471
0
LINE
8
BLACK
6
CONTINUOUS
10
111.449
20
-83.7471
11
111.454
21
-83.7467
0
LINE
8
BLACK
6
CONTINUOUS
10
111.454
20
-83.7467
11
111.46
21
-83.746
0
LINE
8
BLACK
6
CONTINUOUS
10
111.46
20
-83.746
11
112.003
21
-83.7204
0
LINE
8
BLACK
6
CONTINUOUS
10
112.003
20
-83.7204
11
112.005
21
-83.72
0
LINE
8
BLACK
6
CONTINUOUS
10
112.005
20
-83.72
11
118.543
21
-83.72
0
LINE
8
BLACK
6
CONTINUOUS
10
118.543
20
-83.72
11
118.543
21
-76.2662
0
LINE
8
BLACK
6
CONTINUOUS
10
118.543
20
-76.2662
11
118.53
21
-76.2508
0
LINE
8
BLACK
6
CONTINUOUS
10
118.53
20
-76.2508
11
118.518
21
-76.2176
0
LINE
8
BLACK
6
CONTINUOUS
10
118.518
20
-76.2176
11
118.518
21
-76.1824
0
LINE
8
BLACK
6
CONTINUOUS
10
118.518
20
-76.1824
11
118.53
21
-76.1492
0
LINE
8
BLACK
6
CONTINUOUS
10
118.53
20
-76.1492
11
118.553
21
-76.1222
0
LINE
8
BLACK
6
CONTINUOUS
10
118.553
20
-76.1222
11
118.583
21
-76.1046
0
LINE
8
BLACK
6
CONTINUOUS
10
118.583
20
-76.1046
11
118.609
21
-76.1
0
LINE
8
BLACK
6
CONTINUOUS
10
118.609
20
-76.1
11
165.871
21
-76.1
0
LINE
8
BLACK
6
CONTINUOUS
10
165.871
20
-76.1
11
165.871
21
-76.1
0
LINE
8
BLACK
6
CONTINUOUS
10
118.693
20
-76.3
11
118.693
21
-83.7538
0
LINE
8
BLACK
6
CONTINUOUS
10
118.693
20
-83.7538
11
118.706
21
-83.7692
0
LINE
8
BLACK
6
CONTINUOUS
10
118.706
20
-83.7692
11
118.718
21
-83.8024
0
LINE
8
BLACK
6
CONTINUOUS
10
118.718
20
-83.8024
11
118.718
21
-83.8376
0
LINE
8
BLACK
6
CONTINUOUS
10
118.718
20
-83.8376
11
118.706
21
-83.8708
0
LINE
8
BLACK
6
CONTINUOUS
10
118.706
20
-83.8708
11
118.683
21
-83.8978
0
LINE
8
BLACK
6
CONTINUOUS
10
118.683
20
-83.8978
11
118.653
21
-83.9154
0
LINE
8
BLACK
6
CONTINUOUS
10
118.653
20
-83.9154
11
118.627
21
-83.92
0
LINE
8
BLACK
6
CONTINUOUS
10
118.627
20
-83.92
11
112.016
21
-83.92
0
LINE
8
BLACK
6
CONTINUOUS
10
112.016
20
-83.92
11
111.475
21
-83.9455
0
LINE
8
BLACK
6
CONTINUOUS
10
111.475
20
-83.9455
11
110.547
21
-84.1108
0
LINE
8
BLACK
6
CONTINUOUS
10
110.547
20
-84.1108
11
109.66
21
-84.4249
0
LINE
8
BLACK
6
CONTINUOUS
10
109.66
20
-84.4249
11
108.837
21
-84.8796
0
LINE
8
BLACK
6
CONTINUOUS
10
108.837
20
-84.8796
11
108.098
21
-85.4628
0
LINE
8
BLACK
6
CONTINUOUS
10
108.098
20
-85.4628
11
107.465
21
-86.1587
0
LINE
8
BLACK
6
CONTINUOUS
10
107.465
20
-86.1587
11
106.954
21
-86.9488
0
LINE
8
BLACK
6
CONTINUOUS
10
106.954
20
-86.9488
11
106.579
21
-87.8117
0
LINE
8
BLACK
6
CONTINUOUS
10
106.579
20
-87.8117
11
106.349
21
-88.7242
0
LINE
8
BLACK
6
CONTINUOUS
10
106.349
20
-88.7242
11
106.272
21
-89.6661
0
LINE
8
BLACK
6
CONTINUOUS
10
106.272
20
-89.6661
11
106.272
21
-113.79
0
LINE
8
BLACK
6
CONTINUOUS
10
106.272
20
-113.79
11
106.298
21
-114.331
0
LINE
8
BLACK
6
CONTINUOUS
10
106.298
20
-114.331
11
106.463
21
-115.259
0
LINE
8
BLACK
6
CONTINUOUS
10
106.463
20
-115.259
11
106.777
21
-116.146
0
LINE
8
BLACK
6
CONTINUOUS
10
106.777
20
-116.146
11
107.232
21
-116.969
0
LINE
8
BLACK
6
CONTINUOUS
10
107.232
20
-116.969
11
107.815
21
-117.708
0
LINE
8
BLACK
6
CONTINUOUS
10
107.815
20
-117.708
11
108.511
21
-118.341
0
LINE
8
BLACK
6
CONTINUOUS
10
108.511
20
-118.341
11
109.301
21
-118.852
0
LINE
8
BLACK
6
CONTINUOUS
10
109.301
20
-118.852
11
110.164
21
-119.227
0
LINE
8
BLACK
6
CONTINUOUS
10
110.164
20
-119.227
11
111.076
21
-119.457
0
LINE
8
BLACK
6
CONTINUOUS
10
111.076
20
-119.457
11
112.018
21
-119.534
0
LINE
8
BLACK
6
CONTINUOUS
10
112.018
20
-119.534
11
118.627
21
-119.534
0
LINE
8
BLACK
6
CONTINUOUS
10
118.627
20
-119.534
11
118.653
21
-119.539
0
LINE
8
BLACK
6
CONTINUOUS
10
118.653
20
-119.539
11
118.683
21
-119.556
0
LINE
8
BLACK
6
CONTINUOUS
10
118.683
20
-119.556
11
118.706
21
-119.583
0
LINE
8
BLACK
6
CONTINUOUS
10
118.706
20
-119.583
11
118.718
21
-119.616
0
LINE
8
BLACK
6
CONTINUOUS
10
118.718
20
-119.616
11
118.718
21
-119.652
0
LINE
8
BLACK
6
CONTINUOUS
10
118.718
20
-119.652
11
118.706
21
-119.685
0
LINE
8
BLACK
6
CONTINUOUS
10
118.706
20
-119.685
11
118.693
21
-119.7
0
LINE
8
BLACK
6
CONTINUOUS
10
118.693
20
-119.7
11
118.693
21
-127.154
0
LINE
8
BLACK
6
CONTINUOUS
10
118.693
20
-127.154
11
165.762
21
-127.154
0
LINE
8
BLACK
6
CONTINUOUS
10
165.762
20
-127.154
11
165.762
21
-115.307
0
LINE
8
BLACK
6
CONTINUOUS
10
165.762
20
-115.307
11
165.762
21
-115.307
0
LINE
8
BLACK
6
CONTINUOUS
10
165.762
20
-115.307
11
165.762
21
-115.298
0
LINE
8
BLACK
6
CONTINUOUS
10
165.762
20
-115.298
11
165.765
21
-115.29
0
LINE
8
BLACK
6
CONTINUOUS
10
165.765
20
-115.29
11
165.767
21
-115.281
0
LINE
8
BLACK
6
CONTINUOUS
10
165.767
20
-115.281
11
165.771
21
-115.274
0
LINE
8
BLACK
6
CONTINUOUS
10
165.771
20
-115.274
11
165.774
21
-115.265
0
LINE
8
BLACK
6
CONTINUOUS
10
165.774
20
-115.265
11
165.78
21
-115.258
0
LINE
8
BLACK
6
CONTINUOUS
10
165.78
20
-115.258
11
165.784
21
-115.251
0
LINE
8
BLACK
6
CONTINUOUS
10
165.784
20
-115.251
11
165.791
21
-115.245
0
LINE
8
BLACK
6
CONTINUOUS
10
165.791
20
-115.245
11
165.797
21
-115.238
0
LINE
8
BLACK
6
CONTINUOUS
10
165.797
20
-115.238
11
165.804
21
-115.234
0
LINE
8
BLACK
6
CONTINUOUS
10
165.804
20
-115.234
11
165.811
21
-115.228
0
LINE
8
BLACK
6
CONTINUOUS
10
165.811
20
-115.228
11
165.82
21
-115.225
0
LINE
8
BLACK
6
CONTINUOUS
10
165.82
20
-115.225
11
165.827
21
-115.221
0
LINE
8
BLACK
6
CONTINUOUS
10
165.827
20
-115.221
11
165.836
21
-115.219
0
LINE
8
BLACK
6
CONTINUOUS
10
165.836
20
-115.219
11
165.844
21
-115.216
0
LINE
8
BLACK
6
CONTINUOUS
10
165.844
20
-115.216
11
165.853
21
-115.216
0
LINE
8
BLACK
6
CONTINUOUS
10
165.853
20
-115.216
11
165.853
21
-115.216
0
LINE
8
BLACK
6
CONTINUOUS
10
165.853
20
-115.216
11
172.464
21
-115.216
0
LINE
8
BLACK
6
CONTINUOUS
10
172.464
20
-115.216
11
173.005
21
-115.19
0
LINE
8
BLACK
6
CONTINUOUS
10
173.005
20
-115.19
11
173.933
21
-115.025
0
LINE
8
BLACK
6
CONTINUOUS
10
173.933
20
-115.025
11
174.82
21
-114.711
0
LINE
8
BLACK
6
CONTINUOUS
10
174.82
20
-114.711
11
175.643
21
-114.256
0
LINE
8
BLACK
6
CONTINUOUS
10
175.643
20
-114.256
11
176.382
21
-113.673
0
LINE
8
BLACK
6
CONTINUOUS
10
176.382
20
-113.673
11
177.015
21
-112.977
0
LINE
8
BLACK
6
CONTINUOUS
10
177.015
20
-112.977
11
177.526
21
-112.187
0
LINE
8
BLACK
6
CONTINUOUS
10
177.526
20
-112.187
11
177.901
21
-111.324
0
LINE
8
BLACK
6
CONTINUOUS
10
177.901
20
-111.324
11
178.131
21
-110.412
0
LINE
8
BLACK
6
CONTINUOUS
10
178.131
20
-110.412
11
178.208
21
-109.47
0
LINE
8
BLACK
6
CONTINUOUS
10
178.208
20
-109.47
11
178.208
21
-93.9824
0
LINE
8
BLACK
6
CONTINUOUS
10
178.208
20
-93.9824
11
178.182
21
-93.4414
0
LINE
8
BLACK
6
CONTINUOUS
10
178.182
20
-93.4414
11
178.017
21
-92.5133
0
LINE
8
BLACK
6
CONTINUOUS
10
178.017
20
-92.5133
11
177.703
21
-91.6264
0
LINE
8
BLACK
6
CONTINUOUS
10
177.703
20
-91.6264
11
177.248
21
-90.8026
0
LINE
8
BLACK
6
CONTINUOUS
10
177.248
20
-90.8026
11
176.665
21
-90.0642
0
LINE
8
BLACK
6
CONTINUOUS
10
176.665
20
-90.0642
11
175.969
21
-89.4309
0
LINE
8
BLACK
6
CONTINUOUS
10
175.969
20
-89.4309
11
175.179
21
-88.9199
0
LINE
8
BLACK
6
CONTINUOUS
10
175.179
20
-88.9199
11
174.316
21
-88.5447
0
LINE
8
BLACK
6
CONTINUOUS
10
174.316
20
-88.5447
11
173.404
21
-88.3154
0
LINE
8
BLACK
6
CONTINUOUS
10
173.404
20
-88.3154
11
172.462
21
-88.238
0
LINE
8
BLACK
6
CONTINUOUS
10
172.462
20
-88.238
11
165.853
21
-88.238
0
LINE
8
BLACK
6
CONTINUOUS
10
165.853
20
-88.238
11
165.853
21
-88.238
0
LINE
8
BLACK
6
CONTINUOUS
10
165.853
20
-88.238
11
165.844
21
-88.238
0
LINE
8
BLACK
6
CONTINUOUS
10
165.844
20
-88.238
11
165.836
21
-88.235
0
LINE
8
BLACK
6
CONTINUOUS
10
165.836
20
-88.235
11
165.827
21
-88.2334
0
LINE
8
BLACK
6
CONTINUOUS
10
165.827
20
-88.2334
11
165.82
21
-88.229
0
LINE
8
BLACK
6
CONTINUOUS
10
165.82
20
-88.229
11
165.811
21
-88.2259
0
LINE
8
BLACK
6
CONTINUOUS
10
165.811
20
-88.2259
11
165.804
21
-88.2202
0
LINE
8
BLACK
6
CONTINUOUS
10
165.804
20
-88.2202
11
165.797
21
-88.2158
0
LINE
8
BLACK
6
CONTINUOUS
10
165.797
20
-88.2158
11
165.791
21
-88.209
0
LINE
8
BLACK
6
CONTINUOUS
10
165.791
20
-88.209
11
165.784
21
-88.2033
0
LINE
8
BLACK
6
CONTINUOUS
10
165.784
20
-88.2033
11
165.78
21
-88.1956
0
LINE
8
BLACK
6
CONTINUOUS
10
165.78
20
-88.1956
11
165.774
21
-88.1888
0
LINE
8
BLACK
6
CONTINUOUS
10
165.774
20
-88.1888
11
165.771
21
-88.1804
0
LINE
8
BLACK
6
CONTINUOUS
10
165.771
20
-88.1804
11
165.767
21
-88.1727
0
LINE
8
BLACK
6
CONTINUOUS
10
165.767
20
-88.1727
11
165.765
21
-88.164
0
LINE
8
BLACK
6
CONTINUOUS
10
165.765
20
-88.164
11
165.762
21
-88.1556
0
LINE
8
BLACK
6
CONTINUOUS
10
165.762
20
-88.1556
11
165.762
21
-88.1204
0
LINE
8
BLACK
6
CONTINUOUS
10
165.762
20
-88.1204
11
165.762
21
-76.3
0
LINE
8
BLACK
6
CONTINUOUS
10
165.762
20
-76.3
11
118.693
21
-76.3
  0
ENDSEC
  0
EOF
