  0
SECTION
  2
HEADER
  9
$ANGBASE
  50
0.0
  9
$ANGDIR
  70
  1
  9
$MEASUREMENT
  70
0
  0
ENDSEC
  0
SECTION
  2
TABLES
  0
TABLE
  2
LTYPE
  70
4
  0
LTYPE
  5
40F
  2
CONTINUOUS
  70
0
  3
Solid line
  72
65
  73
0
  40
0.0
  0
LTYPE
  5
410
  2
DASHDOT
 70
0
  3
Dash Dot ____ _ ____ _
 72
65
 73
4
 40
2.0
 49
1.25
 49
-0.25
 49
0.25
 49
-0.25
  0
LTYPE
  5
411
  2
DASHED
 70
0
  3
Dashed __ __ __ __ __
 72
65
 73
2
 40
0.75
 49
0.5
 49
-0.25
  0
LTYPE
  5
43B
  2
DOTTED
 70
0
  3
Dotted .  .  .  .
 72
65
 73
2
 40
0.2
 49
0.0
 49
-0.2
  0
ENDTAB
  0
TABLE
  2
STYLE
  70
4
  0
STYLE
  2
KICAD
  70
0
  40
0
  41
1
  42
1
  50
0
  71
0
  3
isocp.shx
  0
STYLE
  2
KICADB
  70
0
  40
0
  41
1
  42
1
  50
0
  71
0
  3
isocp.shx
  0
STYLE
  2
KICADI
  70
0
  40
0
  41
1
  42
1
  50
15
  71
0
  3
isocp.shx
  0
STYLE
  2
KICADBI
  70
0
  40
0
  41
1
  42
1
  50
15
  71
0
  3
isocp.shx
  0
ENDTAB
  0
TABLE
  2
LAYER
  70
30
  0
LAYER
  2
BLACK
  70
0
  62
7
  6
CONTINUOUS
  0
LAYER
  2
GRAY1
  70
0
  62
251
  6
CONTINUOUS
  0
LAYER
  2
GRAY2
  70
0
  62
8
  6
CONTINUOUS
  0
LAYER
  2
GRAY3
  70
0
  62
9
  6
CONTINUOUS
  0
LAYER
  2
WHITE
  70
0
  62
7
  6
CONTINUOUS
  0
LAYER
  2
LYELLOW
  70
0
  62
51
  6
CONTINUOUS
  0
LAYER
  2
BLUE1
  70
0
  62
178
  6
CONTINUOUS
  0
LAYER
  2
GREEN1
  70
0
  62
98
  6
CONTINUOUS
  0
LAYER
  2
CYAN1
  70
0
  62
138
  6
CONTINUOUS
  0
LAYER
  2
RED1
  70
0
  62
18
  6
CONTINUOUS
  0
LAYER
  2
MAGENTA1
  70
0
  62
228
  6
CONTINUOUS
  0
LAYER
  2
BROWN1
  70
0
  62
58
  6
CONTINUOUS
  0
LAYER
  2
BLUE2
  70
0
  62
5
  6
CONTINUOUS
  0
LAYER
  2
GREEN2
  70
0
  62
3
  6
CONTINUOUS
  0
LAYER
  2
CYAN2
  70
0
  62
4
  6
CONTINUOUS
  0
LAYER
  2
RED2
  70
0
  62
1
  6
CONTINUOUS
  0
LAYER
  2
MAGENTA2
  70
0
  62
6
  6
CONTINUOUS
  0
LAYER
  2
BROWN2
  70
0
  62
54
  6
CONTINUOUS
  0
LAYER
  2
BLUE3
  70
0
  62
171
  6
CONTINUOUS
  0
LAYER
  2
GREEN3
  70
0
  62
91
  6
CONTINUOUS
  0
LAYER
  2
CYAN3
  70
0
  62
131
  6
CONTINUOUS
  0
LAYER
  2
RED3
  70
0
  62
11
  6
CONTINUOUS
  0
LAYER
  2
MAGENTA3
  70
0
  62
221
  6
CONTINUOUS
  0
LAYER
  2
YELLOW3
  70
0
  62
2
  6
CONTINUOUS
  0
LAYER
  2
BLUE4
  70
0
  62
5
  6
CONTINUOUS
  0
LAYER
  2
GREEN4
  70
0
  62
3
  6
CONTINUOUS
  0
LAYER
  2
CYAN4
  70
0
  62
4
  6
CONTINUOUS
  0
LAYER
  2
RED4
  70
0
  62
1
  6
CONTINUOUS
  0
LAYER
  2
MAGENTA4
  70
0
  62
6
  6
CONTINUOUS
  0
LAYER
  2
YELLOW4
  70
0
  62
2
  6
CONTINUOUS
  0
ENDTAB
  0
ENDSEC
  0
SECTION
  2
ENTITIES
0
LINE
8
BLACK
6
CONTINUOUS
10
165.411
20
-85.3088
11
165.411
21
-85.3176
0
LINE
8
BLACK
6
CONTINUOUS
10
165.411
20
-85.3176
11
165.408
21
-85.326
0
LINE
8
BLACK
6
CONTINUOUS
10
165.408
20
-85.326
11
165.406
21
-85.3347
0
LINE
8
BLACK
6
CONTINUOUS
10
165.406
20
-85.3347
11
165.402
21
-85.3424
0
LINE
8
BLACK
6
CONTINUOUS
10
165.402
20
-85.3424
11
165.399
21
-85.3508
0
LINE
8
BLACK
6
CONTINUOUS
10
165.399
20
-85.3508
11
165.393
21
-85.3576
0
LINE
8
BLACK
6
CONTINUOUS
10
165.393
20
-85.3576
11
165.389
21
-85.3653
0
LINE
8
BLACK
6
CONTINUOUS
10
165.389
20
-85.3653
11
165.382
21
-85.371
0
LINE
8
BLACK
6
CONTINUOUS
10
165.382
20
-85.371
11
165.382
21
-85.371
0
LINE
8
BLACK
6
CONTINUOUS
10
165.382
20
-85.371
11
163.501
21
-86.949
0
LINE
8
BLACK
6
CONTINUOUS
10
163.501
20
-86.949
11
163.501
21
-86.949
0
LINE
8
BLACK
6
CONTINUOUS
10
163.501
20
-86.949
11
163.35
21
-87.076
0
LINE
8
BLACK
6
CONTINUOUS
10
163.35
20
-87.076
11
163.35
21
-87.076
0
LINE
8
BLACK
6
CONTINUOUS
10
163.35
20
-87.076
11
159.64
21
-90.189
0
LINE
8
BLACK
6
CONTINUOUS
10
159.64
20
-90.189
11
159.617
21
-90.2087
0
LINE
8
BLACK
6
CONTINUOUS
10
159.617
20
-90.2087
11
159.261
21
-90.6217
0
LINE
8
BLACK
6
CONTINUOUS
10
159.261
20
-90.6217
11
159.038
21
-91.1118
0
LINE
8
BLACK
6
CONTINUOUS
10
159.038
20
-91.1118
11
158.961
21
-91.6519
0
LINE
8
BLACK
6
CONTINUOUS
10
158.961
20
-91.6519
11
158.961
21
-111.755
0
LINE
8
BLACK
6
CONTINUOUS
10
158.961
20
-111.755
11
158.961
21
-111.785
0
LINE
8
BLACK
6
CONTINUOUS
10
158.961
20
-111.785
11
159.049
21
-112.323
0
LINE
8
BLACK
6
CONTINUOUS
10
159.049
20
-112.323
11
159.281
21
-112.809
0
LINE
8
BLACK
6
CONTINUOUS
10
159.281
20
-112.809
11
159.645
21
-113.215
0
LINE
8
BLACK
6
CONTINUOUS
10
159.645
20
-113.215
11
163.35
21
-116.324
0
LINE
8
BLACK
6
CONTINUOUS
10
163.35
20
-116.324
11
163.35
21
-116.324
0
LINE
8
BLACK
6
CONTINUOUS
10
163.35
20
-116.324
11
163.501
21
-116.451
0
LINE
8
BLACK
6
CONTINUOUS
10
163.501
20
-116.451
11
163.501
21
-116.451
0
LINE
8
BLACK
6
CONTINUOUS
10
163.501
20
-116.451
11
165.382
21
-118.029
0
LINE
8
BLACK
6
CONTINUOUS
10
165.382
20
-118.029
11
165.382
21
-118.029
0
LINE
8
BLACK
6
CONTINUOUS
10
165.382
20
-118.029
11
165.389
21
-118.035
0
LINE
8
BLACK
6
CONTINUOUS
10
165.389
20
-118.035
11
165.393
21
-118.042
0
LINE
8
BLACK
6
CONTINUOUS
10
165.393
20
-118.042
11
165.399
21
-118.049
0
LINE
8
BLACK
6
CONTINUOUS
10
165.399
20
-118.049
11
165.402
21
-118.058
0
LINE
8
BLACK
6
CONTINUOUS
10
165.402
20
-118.058
11
165.406
21
-118.065
0
LINE
8
BLACK
6
CONTINUOUS
10
165.406
20
-118.065
11
165.408
21
-118.074
0
LINE
8
BLACK
6
CONTINUOUS
10
165.408
20
-118.074
11
165.411
21
-118.082
0
LINE
8
BLACK
6
CONTINUOUS
10
165.411
20
-118.082
11
165.411
21
-118.091
0
LINE
8
BLACK
6
CONTINUOUS
10
165.411
20
-118.091
11
165.411
21
-118.091
0
LINE
8
BLACK
6
CONTINUOUS
10
165.411
20
-118.091
11
165.411
21
-127.109
0
LINE
8
BLACK
6
CONTINUOUS
10
165.411
20
-127.109
11
165.411
21
-127.109
0
LINE
8
BLACK
6
CONTINUOUS
10
165.411
20
-127.109
11
165.411
21
-127.118
0
LINE
8
BLACK
6
CONTINUOUS
10
165.411
20
-127.118
11
165.408
21
-127.126
0
LINE
8
BLACK
6
CONTINUOUS
10
165.408
20
-127.126
11
165.406
21
-127.135
0
LINE
8
BLACK
6
CONTINUOUS
10
165.406
20
-127.135
11
165.402
21
-127.142
0
LINE
8
BLACK
6
CONTINUOUS
10
165.402
20
-127.142
11
165.399
21
-127.151
0
LINE
8
BLACK
6
CONTINUOUS
10
165.399
20
-127.151
11
165.393
21
-127.158
0
LINE
8
BLACK
6
CONTINUOUS
10
165.393
20
-127.158
11
165.389
21
-127.165
0
LINE
8
BLACK
6
CONTINUOUS
10
165.389
20
-127.165
11
165.382
21
-127.171
0
LINE
8
BLACK
6
CONTINUOUS
10
165.382
20
-127.171
11
165.376
21
-127.178
0
LINE
8
BLACK
6
CONTINUOUS
10
165.376
20
-127.178
11
165.369
21
-127.182
0
LINE
8
BLACK
6
CONTINUOUS
10
165.369
20
-127.182
11
165.362
21
-127.188
0
LINE
8
BLACK
6
CONTINUOUS
10
165.362
20
-127.188
11
165.353
21
-127.191
0
LINE
8
BLACK
6
CONTINUOUS
10
165.353
20
-127.191
11
165.346
21
-127.195
0
LINE
8
BLACK
6
CONTINUOUS
10
165.346
20
-127.195
11
165.337
21
-127.197
0
LINE
8
BLACK
6
CONTINUOUS
10
165.337
20
-127.197
11
165.329
21
-127.2
0
LINE
8
BLACK
6
CONTINUOUS
10
165.329
20
-127.2
11
165.32
21
-127.2
0
LINE
8
BLACK
6
CONTINUOUS
10
165.32
20
-127.2
11
165.32
21
-127.2
0
LINE
8
BLACK
6
CONTINUOUS
10
165.32
20
-127.2
11
119.302
21
-127.2
0
LINE
8
BLACK
6
CONTINUOUS
10
119.302
20
-127.2
11
119.302
21
-127.2
0
LINE
8
BLACK
6
CONTINUOUS
10
119.302
20
-127.2
11
119.293
21
-127.2
0
LINE
8
BLACK
6
CONTINUOUS
10
119.293
20
-127.2
11
119.285
21
-127.197
0
LINE
8
BLACK
6
CONTINUOUS
10
119.285
20
-127.197
11
119.276
21
-127.195
0
LINE
8
BLACK
6
CONTINUOUS
10
119.276
20
-127.195
11
119.269
21
-127.191
0
LINE
8
BLACK
6
CONTINUOUS
10
119.269
20
-127.191
11
119.26
21
-127.188
0
LINE
8
BLACK
6
CONTINUOUS
10
119.26
20
-127.188
11
119.253
21
-127.182
0
LINE
8
BLACK
6
CONTINUOUS
10
119.253
20
-127.182
11
119.246
21
-127.178
0
LINE
8
BLACK
6
CONTINUOUS
10
119.246
20
-127.178
11
119.24
21
-127.171
0
LINE
8
BLACK
6
CONTINUOUS
10
119.24
20
-127.171
11
119.233
21
-127.165
0
LINE
8
BLACK
6
CONTINUOUS
10
119.233
20
-127.165
11
119.229
21
-127.158
0
LINE
8
BLACK
6
CONTINUOUS
10
119.229
20
-127.158
11
119.223
21
-127.151
0
LINE
8
BLACK
6
CONTINUOUS
10
119.223
20
-127.151
11
119.22
21
-127.142
0
LINE
8
BLACK
6
CONTINUOUS
10
119.22
20
-127.142
11
119.216
21
-127.135
0
LINE
8
BLACK
6
CONTINUOUS
10
119.216
20
-127.135
11
119.214
21
-127.126
0
LINE
8
BLACK
6
CONTINUOUS
10
119.214
20
-127.126
11
119.211
21
-127.118
0
LINE
8
BLACK
6
CONTINUOUS
10
119.211
20
-127.118
11
119.211
21
-127.082
0
LINE
8
BLACK
6
CONTINUOUS
10
119.211
20
-127.082
11
119.211
21
-120.196
0
LINE
8
BLACK
6
CONTINUOUS
10
119.211
20
-120.196
11
119.211
21
-120.196
0
LINE
8
BLACK
6
CONTINUOUS
10
119.211
20
-120.196
11
119.211
21
-120.069
0
LINE
8
BLACK
6
CONTINUOUS
10
119.211
20
-120.069
11
119.211
21
-120.069
0
LINE
8
BLACK
6
CONTINUOUS
10
119.211
20
-120.069
11
119.211
21
-118.091
0
LINE
8
BLACK
6
CONTINUOUS
10
119.211
20
-118.091
11
119.211
21
-118.091
0
LINE
8
BLACK
6
CONTINUOUS
10
119.211
20
-118.091
11
119.211
21
-118.082
0
LINE
8
BLACK
6
CONTINUOUS
10
119.211
20
-118.082
11
119.214
21
-118.074
0
LINE
8
BLACK
6
CONTINUOUS
10
119.214
20
-118.074
11
119.216
21
-118.065
0
LINE
8
BLACK
6
CONTINUOUS
10
119.216
20
-118.065
11
119.22
21
-118.058
0
LINE
8
BLACK
6
CONTINUOUS
10
119.22
20
-118.058
11
119.223
21
-118.049
0
LINE
8
BLACK
6
CONTINUOUS
10
119.223
20
-118.049
11
119.229
21
-118.042
0
LINE
8
BLACK
6
CONTINUOUS
10
119.229
20
-118.042
11
119.233
21
-118.035
0
LINE
8
BLACK
6
CONTINUOUS
10
119.233
20
-118.035
11
119.24
21
-118.029
0
LINE
8
BLACK
6
CONTINUOUS
10
119.24
20
-118.029
11
121.134
21
-116.44
0
LINE
8
BLACK
6
CONTINUOUS
10
121.134
20
-116.44
11
121.134
21
-116.44
0
LINE
8
BLACK
6
CONTINUOUS
10
121.134
20
-116.44
11
121.285
21
-116.313
0
LINE
8
BLACK
6
CONTINUOUS
10
121.285
20
-116.313
11
121.285
21
-116.313
0
LINE
8
BLACK
6
CONTINUOUS
10
121.285
20
-116.313
11
124.982
21
-113.211
0
LINE
8
BLACK
6
CONTINUOUS
10
124.982
20
-113.211
11
125.005
21
-113.191
0
LINE
8
BLACK
6
CONTINUOUS
10
125.005
20
-113.191
11
125.361
21
-112.778
0
LINE
8
BLACK
6
CONTINUOUS
10
125.361
20
-112.778
11
125.584
21
-112.288
0
LINE
8
BLACK
6
CONTINUOUS
10
125.584
20
-112.288
11
125.661
21
-111.748
0
LINE
8
BLACK
6
CONTINUOUS
10
125.661
20
-111.748
11
125.661
21
-91.6452
0
LINE
8
BLACK
6
CONTINUOUS
10
125.661
20
-91.6452
11
125.661
21
-91.615
0
LINE
8
BLACK
6
CONTINUOUS
10
125.661
20
-91.615
11
125.573
21
-91.0769
0
LINE
8
BLACK
6
CONTINUOUS
10
125.573
20
-91.0769
11
125.341
21
-90.5912
0
LINE
8
BLACK
6
CONTINUOUS
10
125.341
20
-90.5912
11
124.977
21
-90.1847
0
LINE
8
BLACK
6
CONTINUOUS
10
124.977
20
-90.1847
11
121.285
21
-87.0872
0
LINE
8
BLACK
6
CONTINUOUS
10
121.285
20
-87.0872
11
121.285
21
-87.0872
0
LINE
8
BLACK
6
CONTINUOUS
10
121.285
20
-87.0872
11
121.134
21
-86.9602
0
LINE
8
BLACK
6
CONTINUOUS
10
121.134
20
-86.9602
11
121.134
21
-86.9602
0
LINE
8
BLACK
6
CONTINUOUS
10
121.134
20
-86.9602
11
119.24
21
-85.371
0
LINE
8
BLACK
6
CONTINUOUS
10
119.24
20
-85.371
11
119.24
21
-85.371
0
LINE
8
BLACK
6
CONTINUOUS
10
119.24
20
-85.371
11
119.233
21
-85.3653
0
LINE
8
BLACK
6
CONTINUOUS
10
119.233
20
-85.3653
11
119.229
21
-85.3576
0
LINE
8
BLACK
6
CONTINUOUS
10
119.229
20
-85.3576
11
119.223
21
-85.3508
0
LINE
8
BLACK
6
CONTINUOUS
10
119.223
20
-85.3508
11
119.22
21
-85.3424
0
LINE
8
BLACK
6
CONTINUOUS
10
119.22
20
-85.3424
11
119.216
21
-85.3347
0
LINE
8
BLACK
6
CONTINUOUS
10
119.216
20
-85.3347
11
119.214
21
-85.326
0
LINE
8
BLACK
6
CONTINUOUS
10
119.214
20
-85.326
11
119.211
21
-85.3176
0
LINE
8
BLACK
6
CONTINUOUS
10
119.211
20
-85.3176
11
119.211
21
-85.2824
0
LINE
8
BLACK
6
CONTINUOUS
10
119.211
20
-85.2824
11
119.211
21
-83.3133
0
LINE
8
BLACK
6
CONTINUOUS
10
119.211
20
-83.3133
11
119.211
21
-83.3133
0
LINE
8
BLACK
6
CONTINUOUS
10
119.211
20
-83.3133
11
119.211
21
-83.1863
0
LINE
8
BLACK
6
CONTINUOUS
10
119.211
20
-83.1863
11
119.211
21
-83.1863
0
LINE
8
BLACK
6
CONTINUOUS
10
119.211
20
-83.1863
11
119.211
21
-76.2913
0
LINE
8
BLACK
6
CONTINUOUS
10
119.211
20
-76.2913
11
119.211
21
-76.2913
0
LINE
8
BLACK
6
CONTINUOUS
10
119.211
20
-76.2913
11
119.211
21
-76.2824
0
LINE
8
BLACK
6
CONTINUOUS
10
119.211
20
-76.2824
11
119.214
21
-76.274
0
LINE
8
BLACK
6
CONTINUOUS
10
119.214
20
-76.274
11
119.216
21
-76.2653
0
LINE
8
BLACK
6
CONTINUOUS
10
119.216
20
-76.2653
11
119.22
21
-76.2576
0
LINE
8
BLACK
6
CONTINUOUS
10
119.22
20
-76.2576
11
119.223
21
-76.2492
0
LINE
8
BLACK
6
CONTINUOUS
10
119.223
20
-76.2492
11
119.229
21
-76.2424
0
LINE
8
BLACK
6
CONTINUOUS
10
119.229
20
-76.2424
11
119.233
21
-76.2347
0
LINE
8
BLACK
6
CONTINUOUS
10
119.233
20
-76.2347
11
119.24
21
-76.229
0
LINE
8
BLACK
6
CONTINUOUS
10
119.24
20
-76.229
11
119.246
21
-76.2222
0
LINE
8
BLACK
6
CONTINUOUS
10
119.246
20
-76.2222
11
119.253
21
-76.2178
0
LINE
8
BLACK
6
CONTINUOUS
10
119.253
20
-76.2178
11
119.26
21
-76.2121
0
LINE
8
BLACK
6
CONTINUOUS
10
119.26
20
-76.2121
11
119.269
21
-76.209
0
LINE
8
BLACK
6
CONTINUOUS
10
119.269
20
-76.209
11
119.276
21
-76.2046
0
LINE
8
BLACK
6
CONTINUOUS
10
119.276
20
-76.2046
11
119.285
21
-76.203
0
LINE
8
BLACK
6
CONTINUOUS
10
119.285
20
-76.203
11
119.293
21
-76.2
0
LINE
8
BLACK
6
CONTINUOUS
10
119.293
20
-76.2
11
119.302
21
-76.2
0
LINE
8
BLACK
6
CONTINUOUS
10
119.302
20
-76.2
11
119.302
21
-76.2
0
LINE
8
BLACK
6
CONTINUOUS
10
119.302
20
-76.2
11
165.32
21
-76.2
0
LINE
8
BLACK
6
CONTINUOUS
10
165.32
20
-76.2
11
165.32
21
-76.2
0
LINE
8
BLACK
6
CONTINUOUS
10
165.32
20
-76.2
11
165.329
21
-76.2
0
LINE
8
BLACK
6
CONTINUOUS
10
165.329
20
-76.2
11
165.337
21
-76.203
0
LINE
8
BLACK
6
CONTINUOUS
10
165.337
20
-76.203
11
165.346
21
-76.2046
0
LINE
8
BLACK
6
CONTINUOUS
10
165.346
20
-76.2046
11
165.353
21
-76.209
0
LINE
8
BLACK
6
CONTINUOUS
10
165.353
20
-76.209
11
165.362
21
-76.2121
0
LINE
8
BLACK
6
CONTINUOUS
10
165.362
20
-76.2121
11
165.369
21
-76.2178
0
LINE
8
BLACK
6
CONTINUOUS
10
165.369
20
-76.2178
11
165.376
21
-76.2222
0
LINE
8
BLACK
6
CONTINUOUS
10
165.376
20
-76.2222
11
165.382
21
-76.229
0
LINE
8
BLACK
6
CONTINUOUS
10
165.382
20
-76.229
11
165.389
21
-76.2347
0
LINE
8
BLACK
6
CONTINUOUS
10
165.389
20
-76.2347
11
165.393
21
-76.2424
0
LINE
8
BLACK
6
CONTINUOUS
10
165.393
20
-76.2424
11
165.399
21
-76.2492
0
LINE
8
BLACK
6
CONTINUOUS
10
165.399
20
-76.2492
11
165.402
21
-76.2576
0
LINE
8
BLACK
6
CONTINUOUS
10
165.402
20
-76.2576
11
165.406
21
-76.2653
0
LINE
8
BLACK
6
CONTINUOUS
10
165.406
20
-76.2653
11
165.408
21
-76.274
0
LINE
8
BLACK
6
CONTINUOUS
10
165.408
20
-76.274
11
165.411
21
-76.2824
0
LINE
8
BLACK
6
CONTINUOUS
10
165.411
20
-76.2824
11
165.411
21
-76.2912
0
LINE
8
BLACK
6
CONTINUOUS
10
165.411
20
-76.2912
11
165.411
21
-76.2913
0
LINE
8
BLACK
6
CONTINUOUS
10
165.411
20
-76.2913
11
165.411
21
-85.3087
0
LINE
8
BLACK
6
CONTINUOUS
10
165.411
20
-85.3087
11
165.411
21
-85.3088
0
LINE
8
BLACK
6
CONTINUOUS
10
121.263
20
-86.807
11
121.263
21
-86.807
0
LINE
8
BLACK
6
CONTINUOUS
10
121.263
20
-86.807
11
121.414
21
-86.934
0
LINE
8
BLACK
6
CONTINUOUS
10
121.414
20
-86.934
11
121.414
21
-86.934
0
LINE
8
BLACK
6
CONTINUOUS
10
121.414
20
-86.934
11
125.118
21
-90.0417
0
LINE
8
BLACK
6
CONTINUOUS
10
125.118
20
-90.0417
11
125.122
21
-90.0472
0
LINE
8
BLACK
6
CONTINUOUS
10
125.122
20
-90.0472
11
125.499
21
-90.4684
0
LINE
8
BLACK
6
CONTINUOUS
10
125.499
20
-90.4684
11
125.499
21
-90.4684
0
LINE
8
BLACK
6
CONTINUOUS
10
125.499
20
-90.4684
11
125.499
21
-90.4684
0
LINE
8
BLACK
6
CONTINUOUS
10
125.499
20
-90.4684
11
125.5
21
-90.4693
0
LINE
8
BLACK
6
CONTINUOUS
10
125.5
20
-90.4693
11
125.508
21
-90.4807
0
LINE
8
BLACK
6
CONTINUOUS
10
125.508
20
-90.4807
11
125.515
21
-90.492
0
LINE
8
BLACK
6
CONTINUOUS
10
125.515
20
-90.492
11
125.76
21
-91.0036
0
LINE
8
BLACK
6
CONTINUOUS
10
125.76
20
-91.0036
11
125.76
21
-91.0047
0
LINE
8
BLACK
6
CONTINUOUS
10
125.76
20
-91.0047
11
125.764
21
-91.0177
0
LINE
8
BLACK
6
CONTINUOUS
10
125.764
20
-91.0177
11
125.768
21
-91.0307
0
LINE
8
BLACK
6
CONTINUOUS
10
125.768
20
-91.0307
11
125.859
21
-91.5903
0
LINE
8
BLACK
6
CONTINUOUS
10
125.859
20
-91.5903
11
125.86
21
-91.5915
0
LINE
8
BLACK
6
CONTINUOUS
10
125.86
20
-91.5915
11
125.86
21
-91.5985
0
LINE
8
BLACK
6
CONTINUOUS
10
125.86
20
-91.5985
11
125.861
21
-91.6055
0
LINE
8
BLACK
6
CONTINUOUS
10
125.861
20
-91.6055
11
125.861
21
-91.6356
0
LINE
8
BLACK
6
CONTINUOUS
10
125.861
20
-91.6356
11
125.861
21
-91.6361
0
LINE
8
BLACK
6
CONTINUOUS
10
125.861
20
-91.6361
11
125.861
21
-111.764
0
LINE
8
BLACK
6
CONTINUOUS
10
125.861
20
-111.764
11
125.86
21
-111.771
0
LINE
8
BLACK
6
CONTINUOUS
10
125.86
20
-111.771
11
125.78
21
-112.331
0
LINE
8
BLACK
6
CONTINUOUS
10
125.78
20
-112.331
11
125.779
21
-112.332
0
LINE
8
BLACK
6
CONTINUOUS
10
125.779
20
-112.332
11
125.775
21
-112.345
0
LINE
8
BLACK
6
CONTINUOUS
10
125.775
20
-112.345
11
125.772
21
-112.358
0
LINE
8
BLACK
6
CONTINUOUS
10
125.772
20
-112.358
11
125.537
21
-112.874
0
LINE
8
BLACK
6
CONTINUOUS
10
125.537
20
-112.874
11
125.537
21
-112.874
0
LINE
8
BLACK
6
CONTINUOUS
10
125.537
20
-112.874
11
125.537
21
-112.874
0
LINE
8
BLACK
6
CONTINUOUS
10
125.537
20
-112.874
11
125.536
21
-112.875
0
LINE
8
BLACK
6
CONTINUOUS
10
125.536
20
-112.875
11
125.529
21
-112.887
0
LINE
8
BLACK
6
CONTINUOUS
10
125.529
20
-112.887
11
125.522
21
-112.898
0
LINE
8
BLACK
6
CONTINUOUS
10
125.522
20
-112.898
11
125.152
21
-113.328
0
LINE
8
BLACK
6
CONTINUOUS
10
125.152
20
-113.328
11
125.151
21
-113.329
0
LINE
8
BLACK
6
CONTINUOUS
10
125.151
20
-113.329
11
125.145
21
-113.333
0
LINE
8
BLACK
6
CONTINUOUS
10
125.145
20
-113.333
11
125.141
21
-113.338
0
LINE
8
BLACK
6
CONTINUOUS
10
125.141
20
-113.338
11
125.118
21
-113.358
0
LINE
8
BLACK
6
CONTINUOUS
10
125.118
20
-113.358
11
125.118
21
-113.358
0
LINE
8
BLACK
6
CONTINUOUS
10
125.118
20
-113.358
11
121.414
21
-116.466
0
LINE
8
BLACK
6
CONTINUOUS
10
121.414
20
-116.466
11
121.414
21
-116.466
0
LINE
8
BLACK
6
CONTINUOUS
10
121.414
20
-116.466
11
121.263
21
-116.593
0
LINE
8
BLACK
6
CONTINUOUS
10
121.263
20
-116.593
11
121.263
21
-116.593
0
LINE
8
BLACK
6
CONTINUOUS
10
121.263
20
-116.593
11
119.411
21
-118.147
0
LINE
8
BLACK
6
CONTINUOUS
10
119.411
20
-118.147
11
119.411
21
-127
0
LINE
8
BLACK
6
CONTINUOUS
10
119.411
20
-127
11
165.211
21
-127
0
LINE
8
BLACK
6
CONTINUOUS
10
165.211
20
-127
11
165.211
21
-120.214
0
LINE
8
BLACK
6
CONTINUOUS
10
165.211
20
-120.214
11
165.211
21
-120.214
0
LINE
8
BLACK
6
CONTINUOUS
10
165.211
20
-120.214
11
165.211
21
-120.087
0
LINE
8
BLACK
6
CONTINUOUS
10
165.211
20
-120.087
11
165.211
21
-120.087
0
LINE
8
BLACK
6
CONTINUOUS
10
165.211
20
-120.087
11
165.211
21
-118.147
0
LINE
8
BLACK
6
CONTINUOUS
10
165.211
20
-118.147
11
163.373
21
-116.604
0
LINE
8
BLACK
6
CONTINUOUS
10
163.373
20
-116.604
11
163.373
21
-116.604
0
LINE
8
BLACK
6
CONTINUOUS
10
163.373
20
-116.604
11
163.221
21
-116.477
0
LINE
8
BLACK
6
CONTINUOUS
10
163.221
20
-116.477
11
163.221
21
-116.477
0
LINE
8
BLACK
6
CONTINUOUS
10
163.221
20
-116.477
11
159.504
21
-113.358
0
LINE
8
BLACK
6
CONTINUOUS
10
159.504
20
-113.358
11
159.5
21
-113.353
0
LINE
8
BLACK
6
CONTINUOUS
10
159.5
20
-113.353
11
159.123
21
-112.932
0
LINE
8
BLACK
6
CONTINUOUS
10
159.123
20
-112.932
11
159.123
21
-112.932
0
LINE
8
BLACK
6
CONTINUOUS
10
159.123
20
-112.932
11
159.123
21
-112.932
0
LINE
8
BLACK
6
CONTINUOUS
10
159.123
20
-112.932
11
159.122
21
-112.931
0
LINE
8
BLACK
6
CONTINUOUS
10
159.122
20
-112.931
11
159.114
21
-112.919
0
LINE
8
BLACK
6
CONTINUOUS
10
159.114
20
-112.919
11
159.107
21
-112.908
0
LINE
8
BLACK
6
CONTINUOUS
10
159.107
20
-112.908
11
158.862
21
-112.396
0
LINE
8
BLACK
6
CONTINUOUS
10
158.862
20
-112.396
11
158.862
21
-112.395
0
LINE
8
BLACK
6
CONTINUOUS
10
158.862
20
-112.395
11
158.858
21
-112.382
0
LINE
8
BLACK
6
CONTINUOUS
10
158.858
20
-112.382
11
158.854
21
-112.369
0
LINE
8
BLACK
6
CONTINUOUS
10
158.854
20
-112.369
11
158.763
21
-111.81
0
LINE
8
BLACK
6
CONTINUOUS
10
158.763
20
-111.81
11
158.762
21
-111.808
0
LINE
8
BLACK
6
CONTINUOUS
10
158.762
20
-111.808
11
158.762
21
-111.801
0
LINE
8
BLACK
6
CONTINUOUS
10
158.762
20
-111.801
11
158.761
21
-111.795
0
LINE
8
BLACK
6
CONTINUOUS
10
158.761
20
-111.795
11
158.761
21
-111.764
0
LINE
8
BLACK
6
CONTINUOUS
10
158.761
20
-111.764
11
158.761
21
-111.764
0
LINE
8
BLACK
6
CONTINUOUS
10
158.761
20
-111.764
11
158.761
21
-91.6361
0
LINE
8
BLACK
6
CONTINUOUS
10
158.761
20
-91.6361
11
158.762
21
-91.6291
0
LINE
8
BLACK
6
CONTINUOUS
10
158.762
20
-91.6291
11
158.842
21
-91.0693
0
LINE
8
BLACK
6
CONTINUOUS
10
158.842
20
-91.0693
11
158.842
21
-91.0693
0
LINE
8
BLACK
6
CONTINUOUS
10
158.842
20
-91.0693
11
158.842
21
-91.0693
0
LINE
8
BLACK
6
CONTINUOUS
10
158.842
20
-91.0693
11
158.843
21
-91.0681
0
LINE
8
BLACK
6
CONTINUOUS
10
158.843
20
-91.0681
11
158.847
21
-91.0551
0
LINE
8
BLACK
6
CONTINUOUS
10
158.847
20
-91.0551
11
158.85
21
-91.0421
0
LINE
8
BLACK
6
CONTINUOUS
10
158.85
20
-91.0421
11
159.085
21
-90.5259
0
LINE
8
BLACK
6
CONTINUOUS
10
159.085
20
-90.5259
11
159.085
21
-90.5259
0
LINE
8
BLACK
6
CONTINUOUS
10
159.085
20
-90.5259
11
159.085
21
-90.5259
0
LINE
8
BLACK
6
CONTINUOUS
10
159.085
20
-90.5259
11
159.086
21
-90.5248
0
LINE
8
BLACK
6
CONTINUOUS
10
159.086
20
-90.5248
11
159.093
21
-90.5134
0
LINE
8
BLACK
6
CONTINUOUS
10
159.093
20
-90.5134
11
159.1
21
-90.502
0
LINE
8
BLACK
6
CONTINUOUS
10
159.1
20
-90.502
11
159.47
21
-90.0724
0
LINE
8
BLACK
6
CONTINUOUS
10
159.47
20
-90.0724
11
159.471
21
-90.0715
0
LINE
8
BLACK
6
CONTINUOUS
10
159.471
20
-90.0715
11
159.477
21
-90.067
0
LINE
8
BLACK
6
CONTINUOUS
10
159.477
20
-90.067
11
159.481
21
-90.0617
0
LINE
8
BLACK
6
CONTINUOUS
10
159.481
20
-90.0617
11
159.504
21
-90.0421
0
LINE
8
BLACK
6
CONTINUOUS
10
159.504
20
-90.0421
11
159.504
21
-90.0417
0
LINE
8
BLACK
6
CONTINUOUS
10
159.504
20
-90.0417
11
159.511
21
-90.0362
0
LINE
8
BLACK
6
CONTINUOUS
10
159.511
20
-90.0362
11
159.511
21
-90.0359
0
LINE
8
BLACK
6
CONTINUOUS
10
159.511
20
-90.0359
11
159.511
21
-90.0359
0
LINE
8
BLACK
6
CONTINUOUS
10
159.511
20
-90.0359
11
163.221
21
-86.9228
0
LINE
8
BLACK
6
CONTINUOUS
10
163.221
20
-86.9228
11
163.221
21
-86.9228
0
LINE
8
BLACK
6
CONTINUOUS
10
163.221
20
-86.9228
11
163.373
21
-86.7958
0
LINE
8
BLACK
6
CONTINUOUS
10
163.373
20
-86.7958
11
163.373
21
-86.7958
0
LINE
8
BLACK
6
CONTINUOUS
10
163.373
20
-86.7958
11
165.211
21
-85.2534
0
LINE
8
BLACK
6
CONTINUOUS
10
165.211
20
-85.2534
11
165.211
21
-83.3308
0
LINE
8
BLACK
6
CONTINUOUS
10
165.211
20
-83.3308
11
165.211
21
-83.3307
0
LINE
8
BLACK
6
CONTINUOUS
10
165.211
20
-83.3307
11
165.211
21
-83.2037
0
LINE
8
BLACK
6
CONTINUOUS
10
165.211
20
-83.2037
11
165.211
21
-83.2037
0
LINE
8
BLACK
6
CONTINUOUS
10
165.211
20
-83.2037
11
165.211
21
-76.4
0
LINE
8
BLACK
6
CONTINUOUS
10
165.211
20
-76.4
11
119.411
21
-76.4
0
LINE
8
BLACK
6
CONTINUOUS
10
119.411
20
-76.4
11
119.411
21
-85.2534
0
LINE
8
BLACK
6
CONTINUOUS
10
119.411
20
-85.2534
11
121.263
21
-86.807
0
LINE
8
BLACK
6
CONTINUOUS
10
123.188
20
-119.036
11
122.883
21
-119.292
0
LINE
8
BLACK
6
CONTINUOUS
10
122.883
20
-119.292
11
122.51
21
-119.428
0
LINE
8
BLACK
6
CONTINUOUS
10
122.51
20
-119.428
11
122.112
21
-119.428
0
LINE
8
BLACK
6
CONTINUOUS
10
122.112
20
-119.428
11
121.738
21
-119.292
0
LINE
8
BLACK
6
CONTINUOUS
10
121.738
20
-119.292
11
121.434
21
-119.036
0
LINE
8
BLACK
6
CONTINUOUS
10
121.434
20
-119.036
11
121.235
21
-118.692
0
LINE
8
BLACK
6
CONTINUOUS
10
121.235
20
-118.692
11
121.166
21
-118.3
0
LINE
8
BLACK
6
CONTINUOUS
10
121.166
20
-118.3
11
121.235
21
-117.908
0
LINE
8
BLACK
6
CONTINUOUS
10
121.235
20
-117.908
11
121.434
21
-117.564
0
LINE
8
BLACK
6
CONTINUOUS
10
121.434
20
-117.564
11
121.738
21
-117.308
0
LINE
8
BLACK
6
CONTINUOUS
10
121.738
20
-117.308
11
122.112
21
-117.172
0
LINE
8
BLACK
6
CONTINUOUS
10
122.112
20
-117.172
11
122.51
21
-117.172
0
LINE
8
BLACK
6
CONTINUOUS
10
122.51
20
-117.172
11
122.883
21
-117.308
0
LINE
8
BLACK
6
CONTINUOUS
10
122.883
20
-117.308
11
123.188
21
-117.564
0
LINE
8
BLACK
6
CONTINUOUS
10
123.188
20
-117.564
11
123.387
21
-117.908
0
LINE
8
BLACK
6
CONTINUOUS
10
123.387
20
-117.908
11
123.456
21
-118.3
0
LINE
8
BLACK
6
CONTINUOUS
10
123.456
20
-118.3
11
123.387
21
-118.692
0
LINE
8
BLACK
6
CONTINUOUS
10
123.387
20
-118.692
11
123.188
21
-119.036
0
LINE
8
BLACK
6
CONTINUOUS
10
123.02
20
-117.705
11
122.773
21
-117.499
0
LINE
8
BLACK
6
CONTINUOUS
10
122.773
20
-117.499
11
122.472
21
-117.389
0
LINE
8
BLACK
6
CONTINUOUS
10
122.472
20
-117.389
11
122.15
21
-117.389
0
LINE
8
BLACK
6
CONTINUOUS
10
122.15
20
-117.389
11
121.849
21
-117.499
0
LINE
8
BLACK
6
CONTINUOUS
10
121.849
20
-117.499
11
121.602
21
-117.705
0
LINE
8
BLACK
6
CONTINUOUS
10
121.602
20
-117.705
11
121.442
21
-117.984
0
LINE
8
BLACK
6
CONTINUOUS
10
121.442
20
-117.984
11
121.386
21
-118.3
0
LINE
8
BLACK
6
CONTINUOUS
10
121.386
20
-118.3
11
121.442
21
-118.616
0
LINE
8
BLACK
6
CONTINUOUS
10
121.442
20
-118.616
11
121.602
21
-118.895
0
LINE
8
BLACK
6
CONTINUOUS
10
121.602
20
-118.895
11
121.849
21
-119.101
0
LINE
8
BLACK
6
CONTINUOUS
10
121.849
20
-119.101
11
122.15
21
-119.211
0
LINE
8
BLACK
6
CONTINUOUS
10
122.15
20
-119.211
11
122.472
21
-119.211
0
LINE
8
BLACK
6
CONTINUOUS
10
122.472
20
-119.211
11
122.773
21
-119.101
0
LINE
8
BLACK
6
CONTINUOUS
10
122.773
20
-119.101
11
123.02
21
-118.895
0
LINE
8
BLACK
6
CONTINUOUS
10
123.02
20
-118.895
11
123.18
21
-118.616
0
LINE
8
BLACK
6
CONTINUOUS
10
123.18
20
-118.616
11
123.236
21
-118.3
0
LINE
8
BLACK
6
CONTINUOUS
10
123.236
20
-118.3
11
123.18
21
-117.984
0
LINE
8
BLACK
6
CONTINUOUS
10
123.18
20
-117.984
11
123.02
21
-117.705
0
LINE
8
BLACK
6
CONTINUOUS
10
163.188
20
-119.036
11
162.883
21
-119.292
0
LINE
8
BLACK
6
CONTINUOUS
10
162.883
20
-119.292
11
162.51
21
-119.428
0
LINE
8
BLACK
6
CONTINUOUS
10
162.51
20
-119.428
11
162.112
21
-119.428
0
LINE
8
BLACK
6
CONTINUOUS
10
162.112
20
-119.428
11
161.738
21
-119.292
0
LINE
8
BLACK
6
CONTINUOUS
10
161.738
20
-119.292
11
161.434
21
-119.036
0
LINE
8
BLACK
6
CONTINUOUS
10
161.434
20
-119.036
11
161.235
21
-118.692
0
LINE
8
BLACK
6
CONTINUOUS
10
161.235
20
-118.692
11
161.166
21
-118.3
0
LINE
8
BLACK
6
CONTINUOUS
10
161.166
20
-118.3
11
161.235
21
-117.908
0
LINE
8
BLACK
6
CONTINUOUS
10
161.235
20
-117.908
11
161.434
21
-117.564
0
LINE
8
BLACK
6
CONTINUOUS
10
161.434
20
-117.564
11
161.738
21
-117.308
0
LINE
8
BLACK
6
CONTINUOUS
10
161.738
20
-117.308
11
162.112
21
-117.172
0
LINE
8
BLACK
6
CONTINUOUS
10
162.112
20
-117.172
11
162.51
21
-117.172
0
LINE
8
BLACK
6
CONTINUOUS
10
162.51
20
-117.172
11
162.883
21
-117.308
0
LINE
8
BLACK
6
CONTINUOUS
10
162.883
20
-117.308
11
163.188
21
-117.564
0
LINE
8
BLACK
6
CONTINUOUS
10
163.188
20
-117.564
11
163.387
21
-117.908
0
LINE
8
BLACK
6
CONTINUOUS
10
163.387
20
-117.908
11
163.456
21
-118.3
0
LINE
8
BLACK
6
CONTINUOUS
10
163.456
20
-118.3
11
163.387
21
-118.692
0
LINE
8
BLACK
6
CONTINUOUS
10
163.387
20
-118.692
11
163.188
21
-119.036
0
LINE
8
BLACK
6
CONTINUOUS
10
163.02
20
-117.705
11
162.773
21
-117.499
0
LINE
8
BLACK
6
CONTINUOUS
10
162.773
20
-117.499
11
162.472
21
-117.389
0
LINE
8
BLACK
6
CONTINUOUS
10
162.472
20
-117.389
11
162.15
21
-117.389
0
LINE
8
BLACK
6
CONTINUOUS
10
162.15
20
-117.389
11
161.849
21
-117.499
0
LINE
8
BLACK
6
CONTINUOUS
10
161.849
20
-117.499
11
161.602
21
-117.705
0
LINE
8
BLACK
6
CONTINUOUS
10
161.602
20
-117.705
11
161.442
21
-117.984
0
LINE
8
BLACK
6
CONTINUOUS
10
161.442
20
-117.984
11
161.386
21
-118.3
0
LINE
8
BLACK
6
CONTINUOUS
10
161.386
20
-118.3
11
161.442
21
-118.616
0
LINE
8
BLACK
6
CONTINUOUS
10
161.442
20
-118.616
11
161.602
21
-118.895
0
LINE
8
BLACK
6
CONTINUOUS
10
161.602
20
-118.895
11
161.849
21
-119.101
0
LINE
8
BLACK
6
CONTINUOUS
10
161.849
20
-119.101
11
162.15
21
-119.211
0
LINE
8
BLACK
6
CONTINUOUS
10
162.15
20
-119.211
11
162.472
21
-119.211
0
LINE
8
BLACK
6
CONTINUOUS
10
162.472
20
-119.211
11
162.773
21
-119.101
0
LINE
8
BLACK
6
CONTINUOUS
10
162.773
20
-119.101
11
163.02
21
-118.895
0
LINE
8
BLACK
6
CONTINUOUS
10
163.02
20
-118.895
11
163.18
21
-118.616
0
LINE
8
BLACK
6
CONTINUOUS
10
163.18
20
-118.616
11
163.236
21
-118.3
0
LINE
8
BLACK
6
CONTINUOUS
10
163.236
20
-118.3
11
163.18
21
-117.984
0
LINE
8
BLACK
6
CONTINUOUS
10
163.18
20
-117.984
11
163.02
21
-117.705
0
LINE
8
BLACK
6
CONTINUOUS
10
159.067
20
-113.945
11
159.098
21
-113.95
0
LINE
8
BLACK
6
CONTINUOUS
10
159.098
20
-113.95
11
159.098
21
-113.95
0
LINE
8
BLACK
6
CONTINUOUS
10
159.098
20
-113.95
11
159.586
21
-114.118
0
LINE
8
BLACK
6
CONTINUOUS
10
159.586
20
-114.118
11
159.614
21
-114.132
0
LINE
8
BLACK
6
CONTINUOUS
10
159.614
20
-114.132
11
159.614
21
-114.132
0
LINE
8
BLACK
6
CONTINUOUS
10
159.614
20
-114.132
11
160.027
21
-114.443
0
LINE
8
BLACK
6
CONTINUOUS
10
160.027
20
-114.443
11
160.027
21
-114.443
0
LINE
8
BLACK
6
CONTINUOUS
10
160.027
20
-114.443
11
160.048
21
-114.465
0
LINE
8
BLACK
6
CONTINUOUS
10
160.048
20
-114.465
11
160.345
21
-114.888
0
LINE
8
BLACK
6
CONTINUOUS
10
160.345
20
-114.888
11
160.359
21
-114.916
0
LINE
8
BLACK
6
CONTINUOUS
10
160.359
20
-114.916
11
160.51
21
-115.409
0
LINE
8
BLACK
6
CONTINUOUS
10
160.51
20
-115.409
11
160.51
21
-115.409
0
LINE
8
BLACK
6
CONTINUOUS
10
160.51
20
-115.409
11
160.515
21
-115.44
0
LINE
8
BLACK
6
CONTINUOUS
10
160.515
20
-115.44
11
160.506
21
-115.956
0
LINE
8
BLACK
6
CONTINUOUS
10
160.506
20
-115.956
11
160.504
21
-115.971
0
LINE
8
BLACK
6
CONTINUOUS
10
160.504
20
-115.971
11
160.501
21
-115.986
0
LINE
8
BLACK
6
CONTINUOUS
10
160.501
20
-115.986
11
160.358
21
-116.426
0
LINE
8
BLACK
6
CONTINUOUS
10
160.358
20
-116.426
11
160.344
21
-116.454
0
LINE
8
BLACK
6
CONTINUOUS
10
160.344
20
-116.454
11
160.322
21
-116.476
0
LINE
8
BLACK
6
CONTINUOUS
10
160.322
20
-116.476
11
160.294
21
-116.49
0
LINE
8
BLACK
6
CONTINUOUS
10
160.294
20
-116.49
11
160.288
21
-116.491
0
LINE
8
BLACK
6
CONTINUOUS
10
160.288
20
-116.491
11
160.291
21
-116.498
0
LINE
8
BLACK
6
CONTINUOUS
10
160.291
20
-116.498
11
160.294
21
-116.529
0
LINE
8
BLACK
6
CONTINUOUS
10
160.294
20
-116.529
11
160.287
21
-116.56
0
LINE
8
BLACK
6
CONTINUOUS
10
160.287
20
-116.56
11
160.271
21
-116.586
0
LINE
8
BLACK
6
CONTINUOUS
10
160.271
20
-116.586
11
159.938
21
-116.981
0
LINE
8
BLACK
6
CONTINUOUS
10
159.938
20
-116.981
11
159.914
21
-117.002
0
LINE
8
BLACK
6
CONTINUOUS
10
159.914
20
-117.002
11
159.476
21
-117.275
0
LINE
8
BLACK
6
CONTINUOUS
10
159.476
20
-117.275
11
159.447
21
-117.287
0
LINE
8
BLACK
6
CONTINUOUS
10
159.447
20
-117.287
11
158.946
21
-117.411
0
LINE
8
BLACK
6
CONTINUOUS
10
158.946
20
-117.411
11
158.946
21
-117.411
0
LINE
8
BLACK
6
CONTINUOUS
10
158.946
20
-117.411
11
158.915
21
-117.414
0
LINE
8
BLACK
6
CONTINUOUS
10
158.915
20
-117.414
11
158.4
21
-117.377
0
LINE
8
BLACK
6
CONTINUOUS
10
158.4
20
-117.377
11
158.4
21
-117.377
0
LINE
8
BLACK
6
CONTINUOUS
10
158.4
20
-117.377
11
158.385
21
-117.373
0
LINE
8
BLACK
6
CONTINUOUS
10
158.385
20
-117.373
11
158.37
21
-117.37
0
LINE
8
BLACK
6
CONTINUOUS
10
158.37
20
-117.37
11
158.37
21
-117.37
0
LINE
8
BLACK
6
CONTINUOUS
10
158.37
20
-117.37
11
157.891
21
-117.176
0
LINE
8
BLACK
6
CONTINUOUS
10
157.891
20
-117.176
11
157.891
21
-117.176
0
LINE
8
BLACK
6
CONTINUOUS
10
157.891
20
-117.176
11
157.871
21
-117.163
0
LINE
8
BLACK
6
CONTINUOUS
10
157.871
20
-117.163
11
157.865
21
-117.16
0
LINE
8
BLACK
6
CONTINUOUS
10
157.865
20
-117.16
11
157.865
21
-117.16
0
LINE
8
BLACK
6
CONTINUOUS
10
157.865
20
-117.16
11
157.47
21
-116.827
0
LINE
8
BLACK
6
CONTINUOUS
10
157.47
20
-116.827
11
157.462
21
-116.818
0
LINE
8
BLACK
6
CONTINUOUS
10
157.462
20
-116.818
11
157.453
21
-116.809
0
LINE
8
BLACK
6
CONTINUOUS
10
157.453
20
-116.809
11
157.287
21
-116.581
0
LINE
8
BLACK
6
CONTINUOUS
10
157.287
20
-116.581
11
157.273
21
-116.553
0
LINE
8
BLACK
6
CONTINUOUS
10
157.273
20
-116.553
11
157.268
21
-116.522
0
LINE
8
BLACK
6
CONTINUOUS
10
157.268
20
-116.522
11
157.273
21
-116.491
0
LINE
8
BLACK
6
CONTINUOUS
10
157.273
20
-116.491
11
157.273
21
-116.491
0
LINE
8
BLACK
6
CONTINUOUS
10
157.273
20
-116.491
11
157.266
21
-116.49
0
LINE
8
BLACK
6
CONTINUOUS
10
157.266
20
-116.49
11
157.239
21
-116.475
0
LINE
8
BLACK
6
CONTINUOUS
10
157.239
20
-116.475
11
157.217
21
-116.452
0
LINE
8
BLACK
6
CONTINUOUS
10
157.217
20
-116.452
11
157.203
21
-116.424
0
LINE
8
BLACK
6
CONTINUOUS
10
157.203
20
-116.424
11
157.052
21
-115.931
0
LINE
8
BLACK
6
CONTINUOUS
10
157.052
20
-115.931
11
157.047
21
-115.9
0
LINE
8
BLACK
6
CONTINUOUS
10
157.047
20
-115.9
11
157.056
21
-115.384
0
LINE
8
BLACK
6
CONTINUOUS
10
157.056
20
-115.384
11
157.061
21
-115.353
0
LINE
8
BLACK
6
CONTINUOUS
10
157.061
20
-115.353
11
157.061
21
-115.353
0
LINE
8
BLACK
6
CONTINUOUS
10
157.061
20
-115.353
11
157.229
21
-114.865
0
LINE
8
BLACK
6
CONTINUOUS
10
157.229
20
-114.865
11
157.243
21
-114.837
0
LINE
8
BLACK
6
CONTINUOUS
10
157.243
20
-114.837
11
157.243
21
-114.837
0
LINE
8
BLACK
6
CONTINUOUS
10
157.243
20
-114.837
11
157.554
21
-114.424
0
LINE
8
BLACK
6
CONTINUOUS
10
157.554
20
-114.424
11
157.554
21
-114.424
0
LINE
8
BLACK
6
CONTINUOUS
10
157.554
20
-114.424
11
157.576
21
-114.403
0
LINE
8
BLACK
6
CONTINUOUS
10
157.576
20
-114.403
11
157.999
21
-114.106
0
LINE
8
BLACK
6
CONTINUOUS
10
157.999
20
-114.106
11
158.027
21
-114.092
0
LINE
8
BLACK
6
CONTINUOUS
10
158.027
20
-114.092
11
158.52
21
-113.941
0
LINE
8
BLACK
6
CONTINUOUS
10
158.52
20
-113.941
11
158.551
21
-113.936
0
LINE
8
BLACK
6
CONTINUOUS
10
158.551
20
-113.936
11
158.551
21
-113.936
0
LINE
8
BLACK
6
CONTINUOUS
10
158.551
20
-113.936
11
159.067
21
-113.945
0
LINE
8
BLACK
6
CONTINUOUS
10
158.1
20
-114.279
11
157.704
21
-114.557
0
LINE
8
BLACK
6
CONTINUOUS
10
157.704
20
-114.557
11
157.413
21
-114.944
0
LINE
8
BLACK
6
CONTINUOUS
10
157.413
20
-114.944
11
157.255
21
-115.403
0
LINE
8
BLACK
6
CONTINUOUS
10
157.255
20
-115.403
11
157.248
21
-115.887
0
LINE
8
BLACK
6
CONTINUOUS
10
157.248
20
-115.887
11
157.394
21
-116.366
0
LINE
8
BLACK
6
CONTINUOUS
10
157.394
20
-116.366
11
157.399
21
-116.397
0
LINE
8
BLACK
6
CONTINUOUS
10
157.399
20
-116.397
11
157.394
21
-116.426
0
LINE
8
BLACK
6
CONTINUOUS
10
157.394
20
-116.426
11
157.399
21
-116.427
0
LINE
8
BLACK
6
CONTINUOUS
10
157.399
20
-116.427
11
157.427
21
-116.441
0
LINE
8
BLACK
6
CONTINUOUS
10
157.427
20
-116.441
11
157.449
21
-116.463
0
LINE
8
BLACK
6
CONTINUOUS
10
157.449
20
-116.463
11
157.608
21
-116.682
0
LINE
8
BLACK
6
CONTINUOUS
10
157.608
20
-116.682
11
157.981
21
-116.996
0
LINE
8
BLACK
6
CONTINUOUS
10
157.981
20
-116.996
11
158.43
21
-117.179
0
LINE
8
BLACK
6
CONTINUOUS
10
158.43
20
-117.179
11
158.914
21
-117.213
0
LINE
8
BLACK
6
CONTINUOUS
10
158.914
20
-117.213
11
159.384
21
-117.097
0
LINE
8
BLACK
6
CONTINUOUS
10
159.384
20
-117.097
11
159.795
21
-116.84
0
LINE
8
BLACK
6
CONTINUOUS
10
159.795
20
-116.84
11
160.118
21
-116.458
0
LINE
8
BLACK
6
CONTINUOUS
10
160.118
20
-116.458
11
160.141
21
-116.437
0
LINE
8
BLACK
6
CONTINUOUS
10
160.141
20
-116.437
11
160.168
21
-116.426
0
LINE
8
BLACK
6
CONTINUOUS
10
160.168
20
-116.426
11
160.163
21
-116.395
0
LINE
8
BLACK
6
CONTINUOUS
10
160.163
20
-116.395
11
160.168
21
-116.364
0
LINE
8
BLACK
6
CONTINUOUS
10
160.168
20
-116.364
11
160.307
21
-115.938
0
LINE
8
BLACK
6
CONTINUOUS
10
160.307
20
-115.938
11
160.314
21
-115.453
0
LINE
8
BLACK
6
CONTINUOUS
10
160.314
20
-115.453
11
160.172
21
-114.989
0
LINE
8
BLACK
6
CONTINUOUS
10
160.172
20
-114.989
11
159.894
21
-114.593
0
LINE
8
BLACK
6
CONTINUOUS
10
159.894
20
-114.593
11
159.507
21
-114.302
0
LINE
8
BLACK
6
CONTINUOUS
10
159.507
20
-114.302
11
159.048
21
-114.144
0
LINE
8
BLACK
6
CONTINUOUS
10
159.048
20
-114.144
11
158.564
21
-114.137
0
LINE
8
BLACK
6
CONTINUOUS
10
158.564
20
-114.137
11
158.1
21
-114.279
0
LINE
8
BLACK
6
CONTINUOUS
10
125.46
20
-117.377
11
125.445
21
-117.373
0
LINE
8
BLACK
6
CONTINUOUS
10
125.445
20
-117.373
11
125.43
21
-117.37
0
LINE
8
BLACK
6
CONTINUOUS
10
125.43
20
-117.37
11
125.43
21
-117.37
0
LINE
8
BLACK
6
CONTINUOUS
10
125.43
20
-117.37
11
124.951
21
-117.176
0
LINE
8
BLACK
6
CONTINUOUS
10
124.951
20
-117.176
11
124.951
21
-117.176
0
LINE
8
BLACK
6
CONTINUOUS
10
124.951
20
-117.176
11
124.931
21
-117.163
0
LINE
8
BLACK
6
CONTINUOUS
10
124.931
20
-117.163
11
124.925
21
-117.16
0
LINE
8
BLACK
6
CONTINUOUS
10
124.925
20
-117.16
11
124.925
21
-117.16
0
LINE
8
BLACK
6
CONTINUOUS
10
124.925
20
-117.16
11
124.53
21
-116.827
0
LINE
8
BLACK
6
CONTINUOUS
10
124.53
20
-116.827
11
124.522
21
-116.818
0
LINE
8
BLACK
6
CONTINUOUS
10
124.522
20
-116.818
11
124.513
21
-116.809
0
LINE
8
BLACK
6
CONTINUOUS
10
124.513
20
-116.809
11
124.347
21
-116.581
0
LINE
8
BLACK
6
CONTINUOUS
10
124.347
20
-116.581
11
124.333
21
-116.553
0
LINE
8
BLACK
6
CONTINUOUS
10
124.333
20
-116.553
11
124.328
21
-116.522
0
LINE
8
BLACK
6
CONTINUOUS
10
124.328
20
-116.522
11
124.333
21
-116.491
0
LINE
8
BLACK
6
CONTINUOUS
10
124.333
20
-116.491
11
124.333
21
-116.491
0
LINE
8
BLACK
6
CONTINUOUS
10
124.333
20
-116.491
11
124.326
21
-116.49
0
LINE
8
BLACK
6
CONTINUOUS
10
124.326
20
-116.49
11
124.299
21
-116.475
0
LINE
8
BLACK
6
CONTINUOUS
10
124.299
20
-116.475
11
124.277
21
-116.452
0
LINE
8
BLACK
6
CONTINUOUS
10
124.277
20
-116.452
11
124.263
21
-116.424
0
LINE
8
BLACK
6
CONTINUOUS
10
124.263
20
-116.424
11
124.112
21
-115.931
0
LINE
8
BLACK
6
CONTINUOUS
10
124.112
20
-115.931
11
124.107
21
-115.9
0
LINE
8
BLACK
6
CONTINUOUS
10
124.107
20
-115.9
11
124.116
21
-115.384
0
LINE
8
BLACK
6
CONTINUOUS
10
124.116
20
-115.384
11
124.121
21
-115.353
0
LINE
8
BLACK
6
CONTINUOUS
10
124.121
20
-115.353
11
124.121
21
-115.353
0
LINE
8
BLACK
6
CONTINUOUS
10
124.121
20
-115.353
11
124.289
21
-114.865
0
LINE
8
BLACK
6
CONTINUOUS
10
124.289
20
-114.865
11
124.303
21
-114.837
0
LINE
8
BLACK
6
CONTINUOUS
10
124.303
20
-114.837
11
124.303
21
-114.837
0
LINE
8
BLACK
6
CONTINUOUS
10
124.303
20
-114.837
11
124.614
21
-114.424
0
LINE
8
BLACK
6
CONTINUOUS
10
124.614
20
-114.424
11
124.614
21
-114.424
0
LINE
8
BLACK
6
CONTINUOUS
10
124.614
20
-114.424
11
124.636
21
-114.403
0
LINE
8
BLACK
6
CONTINUOUS
10
124.636
20
-114.403
11
125.059
21
-114.106
0
LINE
8
BLACK
6
CONTINUOUS
10
125.059
20
-114.106
11
125.087
21
-114.092
0
LINE
8
BLACK
6
CONTINUOUS
10
125.087
20
-114.092
11
125.58
21
-113.941
0
LINE
8
BLACK
6
CONTINUOUS
10
125.58
20
-113.941
11
125.611
21
-113.936
0
LINE
8
BLACK
6
CONTINUOUS
10
125.611
20
-113.936
11
125.611
21
-113.936
0
LINE
8
BLACK
6
CONTINUOUS
10
125.611
20
-113.936
11
126.127
21
-113.945
0
LINE
8
BLACK
6
CONTINUOUS
10
126.127
20
-113.945
11
126.158
21
-113.95
0
LINE
8
BLACK
6
CONTINUOUS
10
126.158
20
-113.95
11
126.158
21
-113.95
0
LINE
8
BLACK
6
CONTINUOUS
10
126.158
20
-113.95
11
126.646
21
-114.118
0
LINE
8
BLACK
6
CONTINUOUS
10
126.646
20
-114.118
11
126.674
21
-114.132
0
LINE
8
BLACK
6
CONTINUOUS
10
126.674
20
-114.132
11
126.674
21
-114.132
0
LINE
8
BLACK
6
CONTINUOUS
10
126.674
20
-114.132
11
127.087
21
-114.443
0
LINE
8
BLACK
6
CONTINUOUS
10
127.087
20
-114.443
11
127.087
21
-114.443
0
LINE
8
BLACK
6
CONTINUOUS
10
127.087
20
-114.443
11
127.108
21
-114.465
0
LINE
8
BLACK
6
CONTINUOUS
10
127.108
20
-114.465
11
127.405
21
-114.888
0
LINE
8
BLACK
6
CONTINUOUS
10
127.405
20
-114.888
11
127.419
21
-114.916
0
LINE
8
BLACK
6
CONTINUOUS
10
127.419
20
-114.916
11
127.57
21
-115.409
0
LINE
8
BLACK
6
CONTINUOUS
10
127.57
20
-115.409
11
127.57
21
-115.409
0
LINE
8
BLACK
6
CONTINUOUS
10
127.57
20
-115.409
11
127.575
21
-115.44
0
LINE
8
BLACK
6
CONTINUOUS
10
127.575
20
-115.44
11
127.566
21
-115.956
0
LINE
8
BLACK
6
CONTINUOUS
10
127.566
20
-115.956
11
127.564
21
-115.971
0
LINE
8
BLACK
6
CONTINUOUS
10
127.564
20
-115.971
11
127.561
21
-115.986
0
LINE
8
BLACK
6
CONTINUOUS
10
127.561
20
-115.986
11
127.418
21
-116.426
0
LINE
8
BLACK
6
CONTINUOUS
10
127.418
20
-116.426
11
127.404
21
-116.454
0
LINE
8
BLACK
6
CONTINUOUS
10
127.404
20
-116.454
11
127.382
21
-116.476
0
LINE
8
BLACK
6
CONTINUOUS
10
127.382
20
-116.476
11
127.354
21
-116.49
0
LINE
8
BLACK
6
CONTINUOUS
10
127.354
20
-116.49
11
127.348
21
-116.491
0
LINE
8
BLACK
6
CONTINUOUS
10
127.348
20
-116.491
11
127.351
21
-116.498
0
LINE
8
BLACK
6
CONTINUOUS
10
127.351
20
-116.498
11
127.354
21
-116.529
0
LINE
8
BLACK
6
CONTINUOUS
10
127.354
20
-116.529
11
127.347
21
-116.56
0
LINE
8
BLACK
6
CONTINUOUS
10
127.347
20
-116.56
11
127.331
21
-116.586
0
LINE
8
BLACK
6
CONTINUOUS
10
127.331
20
-116.586
11
126.998
21
-116.981
0
LINE
8
BLACK
6
CONTINUOUS
10
126.998
20
-116.981
11
126.974
21
-117.002
0
LINE
8
BLACK
6
CONTINUOUS
10
126.974
20
-117.002
11
126.536
21
-117.275
0
LINE
8
BLACK
6
CONTINUOUS
10
126.536
20
-117.275
11
126.507
21
-117.287
0
LINE
8
BLACK
6
CONTINUOUS
10
126.507
20
-117.287
11
126.006
21
-117.411
0
LINE
8
BLACK
6
CONTINUOUS
10
126.006
20
-117.411
11
126.006
21
-117.411
0
LINE
8
BLACK
6
CONTINUOUS
10
126.006
20
-117.411
11
125.975
21
-117.414
0
LINE
8
BLACK
6
CONTINUOUS
10
125.975
20
-117.414
11
125.46
21
-117.377
0
LINE
8
BLACK
6
CONTINUOUS
10
125.46
20
-117.377
11
125.46
21
-117.377
0
LINE
8
BLACK
6
CONTINUOUS
10
125.16
20
-114.279
11
124.764
21
-114.557
0
LINE
8
BLACK
6
CONTINUOUS
10
124.764
20
-114.557
11
124.473
21
-114.944
0
LINE
8
BLACK
6
CONTINUOUS
10
124.473
20
-114.944
11
124.315
21
-115.403
0
LINE
8
BLACK
6
CONTINUOUS
10
124.315
20
-115.403
11
124.308
21
-115.887
0
LINE
8
BLACK
6
CONTINUOUS
10
124.308
20
-115.887
11
124.454
21
-116.366
0
LINE
8
BLACK
6
CONTINUOUS
10
124.454
20
-116.366
11
124.459
21
-116.397
0
LINE
8
BLACK
6
CONTINUOUS
10
124.459
20
-116.397
11
124.454
21
-116.426
0
LINE
8
BLACK
6
CONTINUOUS
10
124.454
20
-116.426
11
124.459
21
-116.427
0
LINE
8
BLACK
6
CONTINUOUS
10
124.459
20
-116.427
11
124.487
21
-116.441
0
LINE
8
BLACK
6
CONTINUOUS
10
124.487
20
-116.441
11
124.509
21
-116.463
0
LINE
8
BLACK
6
CONTINUOUS
10
124.509
20
-116.463
11
124.668
21
-116.682
0
LINE
8
BLACK
6
CONTINUOUS
10
124.668
20
-116.682
11
125.041
21
-116.996
0
LINE
8
BLACK
6
CONTINUOUS
10
125.041
20
-116.996
11
125.49
21
-117.179
0
LINE
8
BLACK
6
CONTINUOUS
10
125.49
20
-117.179
11
125.974
21
-117.213
0
LINE
8
BLACK
6
CONTINUOUS
10
125.974
20
-117.213
11
126.444
21
-117.097
0
LINE
8
BLACK
6
CONTINUOUS
10
126.444
20
-117.097
11
126.855
21
-116.84
0
LINE
8
BLACK
6
CONTINUOUS
10
126.855
20
-116.84
11
127.178
21
-116.458
0
LINE
8
BLACK
6
CONTINUOUS
10
127.178
20
-116.458
11
127.201
21
-116.437
0
LINE
8
BLACK
6
CONTINUOUS
10
127.201
20
-116.437
11
127.228
21
-116.426
0
LINE
8
BLACK
6
CONTINUOUS
10
127.228
20
-116.426
11
127.223
21
-116.395
0
LINE
8
BLACK
6
CONTINUOUS
10
127.223
20
-116.395
11
127.228
21
-116.364
0
LINE
8
BLACK
6
CONTINUOUS
10
127.228
20
-116.364
11
127.367
21
-115.938
0
LINE
8
BLACK
6
CONTINUOUS
10
127.367
20
-115.938
11
127.374
21
-115.453
0
LINE
8
BLACK
6
CONTINUOUS
10
127.374
20
-115.453
11
127.232
21
-114.989
0
LINE
8
BLACK
6
CONTINUOUS
10
127.232
20
-114.989
11
126.954
21
-114.593
0
LINE
8
BLACK
6
CONTINUOUS
10
126.954
20
-114.593
11
126.567
21
-114.302
0
LINE
8
BLACK
6
CONTINUOUS
10
126.567
20
-114.302
11
126.108
21
-114.144
0
LINE
8
BLACK
6
CONTINUOUS
10
126.108
20
-114.144
11
125.624
21
-114.137
0
LINE
8
BLACK
6
CONTINUOUS
10
125.624
20
-114.137
11
125.16
21
-114.279
0
LINE
8
BLACK
6
CONTINUOUS
10
134.875
20
-114.196
11
134.892
21
-114.198
0
LINE
8
BLACK
6
CONTINUOUS
10
134.892
20
-114.198
11
134.899
21
-114.201
0
LINE
8
BLACK
6
CONTINUOUS
10
134.899
20
-114.201
11
134.907
21
-114.203
0
LINE
8
BLACK
6
CONTINUOUS
10
134.907
20
-114.203
11
135.337
21
-114.364
0
LINE
8
BLACK
6
CONTINUOUS
10
135.337
20
-114.364
11
135.353
21
-114.372
0
LINE
8
BLACK
6
CONTINUOUS
10
135.353
20
-114.372
11
135.359
21
-114.377
0
LINE
8
BLACK
6
CONTINUOUS
10
135.359
20
-114.377
11
135.366
21
-114.38
0
LINE
8
BLACK
6
CONTINUOUS
10
135.366
20
-114.38
11
135.721
21
-114.673
0
LINE
8
BLACK
6
CONTINUOUS
10
135.721
20
-114.673
11
135.721
21
-114.673
0
LINE
8
BLACK
6
CONTINUOUS
10
135.721
20
-114.673
11
135.721
21
-114.673
0
LINE
8
BLACK
6
CONTINUOUS
10
135.721
20
-114.673
11
135.733
21
-114.685
0
LINE
8
BLACK
6
CONTINUOUS
10
135.733
20
-114.685
11
135.737
21
-114.691
0
LINE
8
BLACK
6
CONTINUOUS
10
135.737
20
-114.691
11
135.742
21
-114.697
0
LINE
8
BLACK
6
CONTINUOUS
10
135.742
20
-114.697
11
135.984
21
-115.089
0
LINE
8
BLACK
6
CONTINUOUS
10
135.984
20
-115.089
11
135.984
21
-115.089
0
LINE
8
BLACK
6
CONTINUOUS
10
135.984
20
-115.089
11
135.984
21
-115.089
0
LINE
8
BLACK
6
CONTINUOUS
10
135.984
20
-115.089
11
135.991
21
-115.104
0
LINE
8
BLACK
6
CONTINUOUS
10
135.991
20
-115.104
11
135.993
21
-115.112
0
LINE
8
BLACK
6
CONTINUOUS
10
135.993
20
-115.112
11
135.996
21
-115.119
0
LINE
8
BLACK
6
CONTINUOUS
10
135.996
20
-115.119
11
136.097
21
-115.568
0
LINE
8
BLACK
6
CONTINUOUS
10
136.097
20
-115.568
11
136.1
21
-115.585
0
LINE
8
BLACK
6
CONTINUOUS
10
136.1
20
-115.585
11
136.099
21
-115.593
0
LINE
8
BLACK
6
CONTINUOUS
10
136.099
20
-115.593
11
136.099
21
-115.6
0
LINE
8
BLACK
6
CONTINUOUS
10
136.099
20
-115.6
11
136.05
21
-116.057
0
LINE
8
BLACK
6
CONTINUOUS
10
136.05
20
-116.057
11
136.047
21
-116.074
0
LINE
8
BLACK
6
CONTINUOUS
10
136.047
20
-116.074
11
136.044
21
-116.08
0
LINE
8
BLACK
6
CONTINUOUS
10
136.044
20
-116.08
11
136.042
21
-116.086
0
LINE
8
BLACK
6
CONTINUOUS
10
136.042
20
-116.086
11
135.892
21
-116.435
0
LINE
8
BLACK
6
CONTINUOUS
10
135.892
20
-116.435
11
135.883
21
-116.45
0
LINE
8
BLACK
6
CONTINUOUS
10
135.883
20
-116.45
11
135.861
21
-116.474
0
LINE
8
BLACK
6
CONTINUOUS
10
135.861
20
-116.474
11
135.832
21
-116.49
0
LINE
8
BLACK
6
CONTINUOUS
10
135.832
20
-116.49
11
135.808
21
-116.494
0
LINE
8
BLACK
6
CONTINUOUS
10
135.808
20
-116.494
11
135.812
21
-116.505
0
LINE
8
BLACK
6
CONTINUOUS
10
135.812
20
-116.505
11
135.812
21
-116.538
0
LINE
8
BLACK
6
CONTINUOUS
10
135.812
20
-116.538
11
135.801
21
-116.569
0
LINE
8
BLACK
6
CONTINUOUS
10
135.801
20
-116.569
11
135.781
21
-116.595
0
LINE
8
BLACK
6
CONTINUOUS
10
135.781
20
-116.595
11
135.445
21
-116.909
0
LINE
8
BLACK
6
CONTINUOUS
10
135.445
20
-116.909
11
135.445
21
-116.909
0
LINE
8
BLACK
6
CONTINUOUS
10
135.445
20
-116.909
11
135.445
21
-116.909
0
LINE
8
BLACK
6
CONTINUOUS
10
135.445
20
-116.909
11
135.432
21
-116.92
0
LINE
8
BLACK
6
CONTINUOUS
10
135.432
20
-116.92
11
135.425
21
-116.923
0
LINE
8
BLACK
6
CONTINUOUS
10
135.425
20
-116.923
11
135.418
21
-116.927
0
LINE
8
BLACK
6
CONTINUOUS
10
135.418
20
-116.927
11
134.999
21
-117.115
0
LINE
8
BLACK
6
CONTINUOUS
10
134.999
20
-117.115
11
134.982
21
-117.121
0
LINE
8
BLACK
6
CONTINUOUS
10
134.982
20
-117.121
11
134.974
21
-117.122
0
LINE
8
BLACK
6
CONTINUOUS
10
134.974
20
-117.122
11
134.967
21
-117.124
0
LINE
8
BLACK
6
CONTINUOUS
10
134.967
20
-117.124
11
134.509
21
-117.166
0
LINE
8
BLACK
6
CONTINUOUS
10
134.509
20
-117.166
11
134.509
21
-117.166
0
LINE
8
BLACK
6
CONTINUOUS
10
134.509
20
-117.166
11
134.509
21
-117.166
0
LINE
8
BLACK
6
CONTINUOUS
10
134.509
20
-117.166
11
134.492
21
-117.166
0
LINE
8
BLACK
6
CONTINUOUS
10
134.492
20
-117.166
11
134.484
21
-117.164
0
LINE
8
BLACK
6
CONTINUOUS
10
134.484
20
-117.164
11
134.476
21
-117.163
0
LINE
8
BLACK
6
CONTINUOUS
10
134.476
20
-117.163
11
134.03
21
-117.055
0
LINE
8
BLACK
6
CONTINUOUS
10
134.03
20
-117.055
11
134.03
21
-117.055
0
LINE
8
BLACK
6
CONTINUOUS
10
134.03
20
-117.055
11
134.03
21
-117.055
0
LINE
8
BLACK
6
CONTINUOUS
10
134.03
20
-117.055
11
134.013
21
-117.05
0
LINE
8
BLACK
6
CONTINUOUS
10
134.013
20
-117.05
11
134.007
21
-117.045
0
LINE
8
BLACK
6
CONTINUOUS
10
134.007
20
-117.045
11
133.999
21
-117.042
0
LINE
8
BLACK
6
CONTINUOUS
10
133.999
20
-117.042
11
133.612
21
-116.795
0
LINE
8
BLACK
6
CONTINUOUS
10
133.612
20
-116.795
11
133.598
21
-116.784
0
LINE
8
BLACK
6
CONTINUOUS
10
133.598
20
-116.784
11
133.595
21
-116.781
0
LINE
8
BLACK
6
CONTINUOUS
10
133.595
20
-116.781
11
133.592
21
-116.779
0
LINE
8
BLACK
6
CONTINUOUS
10
133.592
20
-116.779
11
133.418
21
-116.59
0
LINE
8
BLACK
6
CONTINUOUS
10
133.418
20
-116.59
11
133.407
21
-116.576
0
LINE
8
BLACK
6
CONTINUOUS
10
133.407
20
-116.576
11
133.394
21
-116.546
0
LINE
8
BLACK
6
CONTINUOUS
10
133.394
20
-116.546
11
133.392
21
-116.513
0
LINE
8
BLACK
6
CONTINUOUS
10
133.392
20
-116.513
11
133.397
21
-116.493
0
LINE
8
BLACK
6
CONTINUOUS
10
133.397
20
-116.493
11
133.384
21
-116.493
0
LINE
8
BLACK
6
CONTINUOUS
10
133.384
20
-116.493
11
133.354
21
-116.481
0
LINE
8
BLACK
6
CONTINUOUS
10
133.354
20
-116.481
11
133.329
21
-116.46
0
LINE
8
BLACK
6
CONTINUOUS
10
133.329
20
-116.46
11
133.312
21
-116.432
0
LINE
8
BLACK
6
CONTINUOUS
10
133.312
20
-116.432
11
133.141
21
-116.005
0
LINE
8
BLACK
6
CONTINUOUS
10
133.141
20
-116.005
11
133.141
21
-116.005
0
LINE
8
BLACK
6
CONTINUOUS
10
133.141
20
-116.005
11
133.141
21
-116.005
0
LINE
8
BLACK
6
CONTINUOUS
10
133.141
20
-116.005
11
133.136
21
-115.988
0
LINE
8
BLACK
6
CONTINUOUS
10
133.136
20
-115.988
11
133.136
21
-115.981
0
LINE
8
BLACK
6
CONTINUOUS
10
133.136
20
-115.981
11
133.134
21
-115.973
0
LINE
8
BLACK
6
CONTINUOUS
10
133.134
20
-115.973
11
133.112
21
-115.514
0
LINE
8
BLACK
6
CONTINUOUS
10
133.112
20
-115.514
11
133.112
21
-115.514
0
LINE
8
BLACK
6
CONTINUOUS
10
133.112
20
-115.514
11
133.112
21
-115.514
0
LINE
8
BLACK
6
CONTINUOUS
10
133.112
20
-115.514
11
133.112
21
-115.497
0
LINE
8
BLACK
6
CONTINUOUS
10
133.112
20
-115.497
11
133.114
21
-115.489
0
LINE
8
BLACK
6
CONTINUOUS
10
133.114
20
-115.489
11
133.115
21
-115.481
0
LINE
8
BLACK
6
CONTINUOUS
10
133.115
20
-115.481
11
133.243
21
-115.039
0
LINE
8
BLACK
6
CONTINUOUS
10
133.243
20
-115.039
11
133.249
21
-115.023
0
LINE
8
BLACK
6
CONTINUOUS
10
133.249
20
-115.023
11
133.253
21
-115.017
0
LINE
8
BLACK
6
CONTINUOUS
10
133.253
20
-115.017
11
133.257
21
-115.01
0
LINE
8
BLACK
6
CONTINUOUS
10
133.257
20
-115.01
11
133.52
21
-114.633
0
LINE
8
BLACK
6
CONTINUOUS
10
133.52
20
-114.633
11
133.531
21
-114.62
0
LINE
8
BLACK
6
CONTINUOUS
10
133.531
20
-114.62
11
133.538
21
-114.615
0
LINE
8
BLACK
6
CONTINUOUS
10
133.538
20
-114.615
11
133.543
21
-114.61
0
LINE
8
BLACK
6
CONTINUOUS
10
133.543
20
-114.61
11
133.914
21
-114.338
0
LINE
8
BLACK
6
CONTINUOUS
10
133.914
20
-114.338
11
133.914
21
-114.338
0
LINE
8
BLACK
6
CONTINUOUS
10
133.914
20
-114.338
11
133.914
21
-114.338
0
LINE
8
BLACK
6
CONTINUOUS
10
133.914
20
-114.338
11
133.929
21
-114.329
0
LINE
8
BLACK
6
CONTINUOUS
10
133.929
20
-114.329
11
133.937
21
-114.327
0
LINE
8
BLACK
6
CONTINUOUS
10
133.937
20
-114.327
11
133.944
21
-114.324
0
LINE
8
BLACK
6
CONTINUOUS
10
133.944
20
-114.324
11
134.383
21
-114.187
0
LINE
8
BLACK
6
CONTINUOUS
10
134.383
20
-114.187
11
134.4
21
-114.184
0
LINE
8
BLACK
6
CONTINUOUS
10
134.4
20
-114.184
11
134.407
21
-114.184
0
LINE
8
BLACK
6
CONTINUOUS
10
134.407
20
-114.184
11
134.415
21
-114.183
0
LINE
8
BLACK
6
CONTINUOUS
10
134.415
20
-114.183
11
134.875
21
-114.196
0
LINE
8
BLACK
6
CONTINUOUS
10
134.019
20
-114.51
11
133.674
21
-114.761
0
LINE
8
BLACK
6
CONTINUOUS
10
133.674
20
-114.761
11
133.43
21
-115.111
0
LINE
8
BLACK
6
CONTINUOUS
10
133.43
20
-115.111
11
133.312
21
-115.52
0
LINE
8
BLACK
6
CONTINUOUS
10
133.312
20
-115.52
11
133.333
21
-115.946
0
LINE
8
BLACK
6
CONTINUOUS
10
133.333
20
-115.946
11
133.497
21
-116.358
0
LINE
8
BLACK
6
CONTINUOUS
10
133.497
20
-116.358
11
133.502
21
-116.374
0
LINE
8
BLACK
6
CONTINUOUS
10
133.502
20
-116.374
11
133.504
21
-116.407
0
LINE
8
BLACK
6
CONTINUOUS
10
133.504
20
-116.407
11
133.499
21
-116.423
0
LINE
8
BLACK
6
CONTINUOUS
10
133.499
20
-116.423
11
133.508
21
-116.423
0
LINE
8
BLACK
6
CONTINUOUS
10
133.508
20
-116.423
11
133.539
21
-116.434
0
LINE
8
BLACK
6
CONTINUOUS
10
133.539
20
-116.434
11
133.565
21
-116.454
0
LINE
8
BLACK
6
CONTINUOUS
10
133.565
20
-116.454
11
133.73
21
-116.633
0
LINE
8
BLACK
6
CONTINUOUS
10
133.73
20
-116.633
11
134.093
21
-116.865
0
LINE
8
BLACK
6
CONTINUOUS
10
134.093
20
-116.865
11
134.507
21
-116.965
0
LINE
8
BLACK
6
CONTINUOUS
10
134.507
20
-116.965
11
134.932
21
-116.926
0
LINE
8
BLACK
6
CONTINUOUS
10
134.932
20
-116.926
11
135.321
21
-116.751
0
LINE
8
BLACK
6
CONTINUOUS
10
135.321
20
-116.751
11
135.645
21
-116.449
0
LINE
8
BLACK
6
CONTINUOUS
10
135.645
20
-116.449
11
135.658
21
-116.438
0
LINE
8
BLACK
6
CONTINUOUS
10
135.658
20
-116.438
11
135.688
21
-116.425
0
LINE
8
BLACK
6
CONTINUOUS
10
135.688
20
-116.425
11
135.705
21
-116.424
0
LINE
8
BLACK
6
CONTINUOUS
10
135.705
20
-116.424
11
135.703
21
-116.42
0
LINE
8
BLACK
6
CONTINUOUS
10
135.703
20
-116.42
11
135.7
21
-116.387
0
LINE
8
BLACK
6
CONTINUOUS
10
135.7
20
-116.387
11
135.708
21
-116.355
0
LINE
8
BLACK
6
CONTINUOUS
10
135.708
20
-116.355
11
135.853
21
-116.021
0
LINE
8
BLACK
6
CONTINUOUS
10
135.853
20
-116.021
11
135.899
21
-115.596
0
LINE
8
BLACK
6
CONTINUOUS
10
135.899
20
-115.596
11
135.805
21
-115.18
0
LINE
8
BLACK
6
CONTINUOUS
10
135.805
20
-115.18
11
135.581
21
-114.817
0
LINE
8
BLACK
6
CONTINUOUS
10
135.581
20
-114.817
11
135.252
21
-114.545
0
LINE
8
BLACK
6
CONTINUOUS
10
135.252
20
-114.545
11
134.852
21
-114.396
0
LINE
8
BLACK
6
CONTINUOUS
10
134.852
20
-114.396
11
134.426
21
-114.383
0
LINE
8
BLACK
6
CONTINUOUS
10
134.426
20
-114.383
11
134.019
21
-114.51
0
LINE
8
BLACK
6
CONTINUOUS
10
125.524
20
-89.4498
11
125.036
21
-89.2823
0
LINE
8
BLACK
6
CONTINUOUS
10
125.036
20
-89.2823
11
125.008
21
-89.2677
0
LINE
8
BLACK
6
CONTINUOUS
10
125.008
20
-89.2677
11
124.595
21
-88.9575
0
LINE
8
BLACK
6
CONTINUOUS
10
124.595
20
-88.9575
11
124.595
21
-88.9575
0
LINE
8
BLACK
6
CONTINUOUS
10
124.595
20
-88.9575
11
124.574
21
-88.935
0
LINE
8
BLACK
6
CONTINUOUS
10
124.574
20
-88.935
11
124.277
21
-88.5125
0
LINE
8
BLACK
6
CONTINUOUS
10
124.277
20
-88.5125
11
124.263
21
-88.4843
0
LINE
8
BLACK
6
CONTINUOUS
10
124.263
20
-88.4843
11
124.263
21
-88.4843
0
LINE
8
BLACK
6
CONTINUOUS
10
124.263
20
-88.4843
11
124.112
21
-87.9908
0
LINE
8
BLACK
6
CONTINUOUS
10
124.112
20
-87.9908
11
124.107
21
-87.9599
0
LINE
8
BLACK
6
CONTINUOUS
10
124.107
20
-87.9599
11
124.116
21
-87.4437
0
LINE
8
BLACK
6
CONTINUOUS
10
124.116
20
-87.4437
11
124.118
21
-87.4291
0
LINE
8
BLACK
6
CONTINUOUS
10
124.118
20
-87.4291
11
124.121
21
-87.4144
0
LINE
8
BLACK
6
CONTINUOUS
10
124.121
20
-87.4144
11
124.264
21
-86.9741
0
LINE
8
BLACK
6
CONTINUOUS
10
124.264
20
-86.9741
11
124.278
21
-86.9462
0
LINE
8
BLACK
6
CONTINUOUS
10
124.278
20
-86.9462
11
124.3
21
-86.9241
0
LINE
8
BLACK
6
CONTINUOUS
10
124.3
20
-86.9241
11
124.328
21
-86.9099
0
LINE
8
BLACK
6
CONTINUOUS
10
124.328
20
-86.9099
11
124.334
21
-86.909
0
LINE
8
BLACK
6
CONTINUOUS
10
124.334
20
-86.909
11
124.331
21
-86.902
0
LINE
8
BLACK
6
CONTINUOUS
10
124.331
20
-86.902
11
124.328
21
-86.8709
0
LINE
8
BLACK
6
CONTINUOUS
10
124.328
20
-86.8709
11
124.335
21
-86.8404
0
LINE
8
BLACK
6
CONTINUOUS
10
124.335
20
-86.8404
11
124.351
21
-86.8136
0
LINE
8
BLACK
6
CONTINUOUS
10
124.351
20
-86.8136
11
124.684
21
-86.4187
0
LINE
8
BLACK
6
CONTINUOUS
10
124.684
20
-86.4187
11
124.698
21
-86.4066
0
LINE
8
BLACK
6
CONTINUOUS
10
124.698
20
-86.4066
11
124.708
21
-86.3982
0
LINE
8
BLACK
6
CONTINUOUS
10
124.708
20
-86.3982
11
125.146
21
-86.1253
0
LINE
8
BLACK
6
CONTINUOUS
10
125.146
20
-86.1253
11
125.175
21
-86.1131
0
LINE
8
BLACK
6
CONTINUOUS
10
125.175
20
-86.1131
11
125.676
21
-85.989
0
LINE
8
BLACK
6
CONTINUOUS
10
125.676
20
-85.989
11
125.707
21
-85.9863
0
LINE
8
BLACK
6
CONTINUOUS
10
125.707
20
-85.9863
11
125.707
21
-85.9863
0
LINE
8
BLACK
6
CONTINUOUS
10
125.707
20
-85.9863
11
126.222
21
-86.0231
0
LINE
8
BLACK
6
CONTINUOUS
10
126.222
20
-86.0231
11
126.222
21
-86.0231
0
LINE
8
BLACK
6
CONTINUOUS
10
126.222
20
-86.0231
11
126.237
21
-86.0267
0
LINE
8
BLACK
6
CONTINUOUS
10
126.237
20
-86.0267
11
126.252
21
-86.0302
0
LINE
8
BLACK
6
CONTINUOUS
10
126.252
20
-86.0302
11
126.252
21
-86.0302
0
LINE
8
BLACK
6
CONTINUOUS
10
126.252
20
-86.0302
11
126.731
21
-86.2243
0
LINE
8
BLACK
6
CONTINUOUS
10
126.731
20
-86.2243
11
126.731
21
-86.2243
0
LINE
8
BLACK
6
CONTINUOUS
10
126.731
20
-86.2243
11
126.743
21
-86.2321
0
LINE
8
BLACK
6
CONTINUOUS
10
126.743
20
-86.2321
11
126.757
21
-86.2405
0
LINE
8
BLACK
6
CONTINUOUS
10
126.757
20
-86.2405
11
126.757
21
-86.2405
0
LINE
8
BLACK
6
CONTINUOUS
10
126.757
20
-86.2405
11
127.152
21
-86.5729
0
LINE
8
BLACK
6
CONTINUOUS
10
127.152
20
-86.5729
11
127.16
21
-86.5821
0
LINE
8
BLACK
6
CONTINUOUS
10
127.16
20
-86.5821
11
127.169
21
-86.5907
0
LINE
8
BLACK
6
CONTINUOUS
10
127.169
20
-86.5907
11
127.335
21
-86.8192
0
LINE
8
BLACK
6
CONTINUOUS
10
127.335
20
-86.8192
11
127.349
21
-86.8471
0
LINE
8
BLACK
6
CONTINUOUS
10
127.349
20
-86.8471
11
127.354
21
-86.878
0
LINE
8
BLACK
6
CONTINUOUS
10
127.354
20
-86.878
11
127.349
21
-86.9089
0
LINE
8
BLACK
6
CONTINUOUS
10
127.349
20
-86.9089
11
127.349
21
-86.9092
0
LINE
8
BLACK
6
CONTINUOUS
10
127.349
20
-86.9092
11
127.356
21
-86.9104
0
LINE
8
BLACK
6
CONTINUOUS
10
127.356
20
-86.9104
11
127.383
21
-86.9251
0
LINE
8
BLACK
6
CONTINUOUS
10
127.383
20
-86.9251
11
127.405
21
-86.9475
0
LINE
8
BLACK
6
CONTINUOUS
10
127.405
20
-86.9475
11
127.419
21
-86.9757
0
LINE
8
BLACK
6
CONTINUOUS
10
127.419
20
-86.9757
11
127.57
21
-87.4692
0
LINE
8
BLACK
6
CONTINUOUS
10
127.57
20
-87.4692
11
127.57
21
-87.4692
0
LINE
8
BLACK
6
CONTINUOUS
10
127.57
20
-87.4692
11
127.575
21
-87.5001
0
LINE
8
BLACK
6
CONTINUOUS
10
127.575
20
-87.5001
11
127.566
21
-88.0163
0
LINE
8
BLACK
6
CONTINUOUS
10
127.566
20
-88.0163
11
127.566
21
-88.0163
0
LINE
8
BLACK
6
CONTINUOUS
10
127.566
20
-88.0163
11
127.561
21
-88.0471
0
LINE
8
BLACK
6
CONTINUOUS
10
127.561
20
-88.0471
11
127.393
21
-88.5354
0
LINE
8
BLACK
6
CONTINUOUS
10
127.393
20
-88.5354
11
127.379
21
-88.5631
0
LINE
8
BLACK
6
CONTINUOUS
10
127.379
20
-88.5631
11
127.068
21
-88.9757
0
LINE
8
BLACK
6
CONTINUOUS
10
127.068
20
-88.9757
11
127.068
21
-88.9757
0
LINE
8
BLACK
6
CONTINUOUS
10
127.068
20
-88.9757
11
127.046
21
-88.9975
0
LINE
8
BLACK
6
CONTINUOUS
10
127.046
20
-88.9975
11
126.623
21
-89.294
0
LINE
8
BLACK
6
CONTINUOUS
10
126.623
20
-89.294
11
126.595
21
-89.3078
0
LINE
8
BLACK
6
CONTINUOUS
10
126.595
20
-89.3078
11
126.595
21
-89.3078
0
LINE
8
BLACK
6
CONTINUOUS
10
126.595
20
-89.3078
11
126.102
21
-89.4593
0
LINE
8
BLACK
6
CONTINUOUS
10
126.102
20
-89.4593
11
126.102
21
-89.4593
0
LINE
8
BLACK
6
CONTINUOUS
10
126.102
20
-89.4593
11
126.071
21
-89.4637
0
LINE
8
BLACK
6
CONTINUOUS
10
126.071
20
-89.4637
11
126.071
21
-89.4637
0
LINE
8
BLACK
6
CONTINUOUS
10
126.071
20
-89.4637
11
125.555
21
-89.4552
0
LINE
8
BLACK
6
CONTINUOUS
10
125.555
20
-89.4552
11
125.555
21
-89.4552
0
LINE
8
BLACK
6
CONTINUOUS
10
125.555
20
-89.4552
11
125.524
21
-89.4498
0
LINE
8
BLACK
6
CONTINUOUS
10
125.238
20
-86.3034
11
124.827
21
-86.5596
0
LINE
8
BLACK
6
CONTINUOUS
10
124.827
20
-86.5596
11
124.504
21
-86.9424
0
LINE
8
BLACK
6
CONTINUOUS
10
124.504
20
-86.9424
11
124.481
21
-86.9629
0
LINE
8
BLACK
6
CONTINUOUS
10
124.481
20
-86.9629
11
124.454
21
-86.9743
0
LINE
8
BLACK
6
CONTINUOUS
10
124.454
20
-86.9743
11
124.459
21
-87.005
0
LINE
8
BLACK
6
CONTINUOUS
10
124.459
20
-87.005
11
124.454
21
-87.0359
0
LINE
8
BLACK
6
CONTINUOUS
10
124.454
20
-87.0359
11
124.315
21
-87.462
0
LINE
8
BLACK
6
CONTINUOUS
10
124.315
20
-87.462
11
124.308
21
-87.9473
0
LINE
8
BLACK
6
CONTINUOUS
10
124.308
20
-87.9473
11
124.45
21
-88.4105
0
LINE
8
BLACK
6
CONTINUOUS
10
124.45
20
-88.4105
11
124.728
21
-88.8071
0
LINE
8
BLACK
6
CONTINUOUS
10
124.728
20
-88.8071
11
125.115
21
-89.0983
0
LINE
8
BLACK
6
CONTINUOUS
10
125.115
20
-89.0983
11
125.574
21
-89.2555
0
LINE
8
BLACK
6
CONTINUOUS
10
125.574
20
-89.2555
11
126.058
21
-89.2634
0
LINE
8
BLACK
6
CONTINUOUS
10
126.058
20
-89.2634
11
126.522
21
-89.1212
0
LINE
8
BLACK
6
CONTINUOUS
10
126.522
20
-89.1212
11
126.918
21
-88.8429
0
LINE
8
BLACK
6
CONTINUOUS
10
126.918
20
-88.8429
11
127.209
21
-88.4555
0
LINE
8
BLACK
6
CONTINUOUS
10
127.209
20
-88.4555
11
127.367
21
-87.9972
0
LINE
8
BLACK
6
CONTINUOUS
10
127.367
20
-87.9972
11
127.374
21
-87.5127
0
LINE
8
BLACK
6
CONTINUOUS
10
127.374
20
-87.5127
11
127.228
21
-87.0343
0
LINE
8
BLACK
6
CONTINUOUS
10
127.228
20
-87.0343
11
127.223
21
-87.0034
0
LINE
8
BLACK
6
CONTINUOUS
10
127.223
20
-87.0034
11
127.228
21
-86.9739
0
LINE
8
BLACK
6
CONTINUOUS
10
127.228
20
-86.9739
11
127.223
21
-86.9731
0
LINE
8
BLACK
6
CONTINUOUS
10
127.223
20
-86.9731
11
127.195
21
-86.9589
0
LINE
8
BLACK
6
CONTINUOUS
10
127.195
20
-86.9589
11
127.173
21
-86.9368
0
LINE
8
BLACK
6
CONTINUOUS
10
127.173
20
-86.9368
11
127.014
21
-86.7181
0
LINE
8
BLACK
6
CONTINUOUS
10
127.014
20
-86.7181
11
126.641
21
-86.4037
0
LINE
8
BLACK
6
CONTINUOUS
10
126.641
20
-86.4037
11
126.192
21
-86.2215
0
LINE
8
BLACK
6
CONTINUOUS
10
126.192
20
-86.2215
11
125.708
21
-86.1869
0
LINE
8
BLACK
6
CONTINUOUS
10
125.708
20
-86.1869
11
125.238
21
-86.3034
0
LINE
8
BLACK
6
CONTINUOUS
10
158.464
20
-89.4498
11
157.976
21
-89.2823
0
LINE
8
BLACK
6
CONTINUOUS
10
157.976
20
-89.2823
11
157.948
21
-89.2677
0
LINE
8
BLACK
6
CONTINUOUS
10
157.948
20
-89.2677
11
157.535
21
-88.9575
0
LINE
8
BLACK
6
CONTINUOUS
10
157.535
20
-88.9575
11
157.535
21
-88.9575
0
LINE
8
BLACK
6
CONTINUOUS
10
157.535
20
-88.9575
11
157.514
21
-88.935
0
LINE
8
BLACK
6
CONTINUOUS
10
157.514
20
-88.935
11
157.217
21
-88.5125
0
LINE
8
BLACK
6
CONTINUOUS
10
157.217
20
-88.5125
11
157.203
21
-88.4843
0
LINE
8
BLACK
6
CONTINUOUS
10
157.203
20
-88.4843
11
157.203
21
-88.4843
0
LINE
8
BLACK
6
CONTINUOUS
10
157.203
20
-88.4843
11
157.052
21
-87.9908
0
LINE
8
BLACK
6
CONTINUOUS
10
157.052
20
-87.9908
11
157.047
21
-87.9599
0
LINE
8
BLACK
6
CONTINUOUS
10
157.047
20
-87.9599
11
157.056
21
-87.4437
0
LINE
8
BLACK
6
CONTINUOUS
10
157.056
20
-87.4437
11
157.058
21
-87.4291
0
LINE
8
BLACK
6
CONTINUOUS
10
157.058
20
-87.4291
11
157.061
21
-87.4144
0
LINE
8
BLACK
6
CONTINUOUS
10
157.061
20
-87.4144
11
157.204
21
-86.9741
0
LINE
8
BLACK
6
CONTINUOUS
10
157.204
20
-86.9741
11
157.218
21
-86.9462
0
LINE
8
BLACK
6
CONTINUOUS
10
157.218
20
-86.9462
11
157.24
21
-86.9241
0
LINE
8
BLACK
6
CONTINUOUS
10
157.24
20
-86.9241
11
157.268
21
-86.9099
0
LINE
8
BLACK
6
CONTINUOUS
10
157.268
20
-86.9099
11
157.274
21
-86.909
0
LINE
8
BLACK
6
CONTINUOUS
10
157.274
20
-86.909
11
157.271
21
-86.902
0
LINE
8
BLACK
6
CONTINUOUS
10
157.271
20
-86.902
11
157.268
21
-86.8709
0
LINE
8
BLACK
6
CONTINUOUS
10
157.268
20
-86.8709
11
157.275
21
-86.8404
0
LINE
8
BLACK
6
CONTINUOUS
10
157.275
20
-86.8404
11
157.291
21
-86.8136
0
LINE
8
BLACK
6
CONTINUOUS
10
157.291
20
-86.8136
11
157.624
21
-86.4187
0
LINE
8
BLACK
6
CONTINUOUS
10
157.624
20
-86.4187
11
157.638
21
-86.4066
0
LINE
8
BLACK
6
CONTINUOUS
10
157.638
20
-86.4066
11
157.648
21
-86.3982
0
LINE
8
BLACK
6
CONTINUOUS
10
157.648
20
-86.3982
11
158.086
21
-86.1253
0
LINE
8
BLACK
6
CONTINUOUS
10
158.086
20
-86.1253
11
158.115
21
-86.1131
0
LINE
8
BLACK
6
CONTINUOUS
10
158.115
20
-86.1131
11
158.616
21
-85.989
0
LINE
8
BLACK
6
CONTINUOUS
10
158.616
20
-85.989
11
158.647
21
-85.9863
0
LINE
8
BLACK
6
CONTINUOUS
10
158.647
20
-85.9863
11
158.647
21
-85.9863
0
LINE
8
BLACK
6
CONTINUOUS
10
158.647
20
-85.9863
11
159.162
21
-86.0231
0
LINE
8
BLACK
6
CONTINUOUS
10
159.162
20
-86.0231
11
159.162
21
-86.0231
0
LINE
8
BLACK
6
CONTINUOUS
10
159.162
20
-86.0231
11
159.177
21
-86.0267
0
LINE
8
BLACK
6
CONTINUOUS
10
159.177
20
-86.0267
11
159.192
21
-86.0302
0
LINE
8
BLACK
6
CONTINUOUS
10
159.192
20
-86.0302
11
159.192
21
-86.0302
0
LINE
8
BLACK
6
CONTINUOUS
10
159.192
20
-86.0302
11
159.671
21
-86.2243
0
LINE
8
BLACK
6
CONTINUOUS
10
159.671
20
-86.2243
11
159.671
21
-86.2243
0
LINE
8
BLACK
6
CONTINUOUS
10
159.671
20
-86.2243
11
159.683
21
-86.2321
0
LINE
8
BLACK
6
CONTINUOUS
10
159.683
20
-86.2321
11
159.697
21
-86.2405
0
LINE
8
BLACK
6
CONTINUOUS
10
159.697
20
-86.2405
11
159.697
21
-86.2405
0
LINE
8
BLACK
6
CONTINUOUS
10
159.697
20
-86.2405
11
160.092
21
-86.5729
0
LINE
8
BLACK
6
CONTINUOUS
10
160.092
20
-86.5729
11
160.1
21
-86.5821
0
LINE
8
BLACK
6
CONTINUOUS
10
160.1
20
-86.5821
11
160.109
21
-86.5907
0
LINE
8
BLACK
6
CONTINUOUS
10
160.109
20
-86.5907
11
160.275
21
-86.8192
0
LINE
8
BLACK
6
CONTINUOUS
10
160.275
20
-86.8192
11
160.289
21
-86.8471
0
LINE
8
BLACK
6
CONTINUOUS
10
160.289
20
-86.8471
11
160.294
21
-86.878
0
LINE
8
BLACK
6
CONTINUOUS
10
160.294
20
-86.878
11
160.289
21
-86.9089
0
LINE
8
BLACK
6
CONTINUOUS
10
160.289
20
-86.9089
11
160.289
21
-86.9092
0
LINE
8
BLACK
6
CONTINUOUS
10
160.289
20
-86.9092
11
160.296
21
-86.9104
0
LINE
8
BLACK
6
CONTINUOUS
10
160.296
20
-86.9104
11
160.323
21
-86.9251
0
LINE
8
BLACK
6
CONTINUOUS
10
160.323
20
-86.9251
11
160.345
21
-86.9475
0
LINE
8
BLACK
6
CONTINUOUS
10
160.345
20
-86.9475
11
160.359
21
-86.9757
0
LINE
8
BLACK
6
CONTINUOUS
10
160.359
20
-86.9757
11
160.51
21
-87.4692
0
LINE
8
BLACK
6
CONTINUOUS
10
160.51
20
-87.4692
11
160.51
21
-87.4692
0
LINE
8
BLACK
6
CONTINUOUS
10
160.51
20
-87.4692
11
160.515
21
-87.5001
0
LINE
8
BLACK
6
CONTINUOUS
10
160.515
20
-87.5001
11
160.506
21
-88.0163
0
LINE
8
BLACK
6
CONTINUOUS
10
160.506
20
-88.0163
11
160.506
21
-88.0163
0
LINE
8
BLACK
6
CONTINUOUS
10
160.506
20
-88.0163
11
160.501
21
-88.0471
0
LINE
8
BLACK
6
CONTINUOUS
10
160.501
20
-88.0471
11
160.333
21
-88.5354
0
LINE
8
BLACK
6
CONTINUOUS
10
160.333
20
-88.5354
11
160.319
21
-88.5631
0
LINE
8
BLACK
6
CONTINUOUS
10
160.319
20
-88.5631
11
160.008
21
-88.9757
0
LINE
8
BLACK
6
CONTINUOUS
10
160.008
20
-88.9757
11
160.008
21
-88.9757
0
LINE
8
BLACK
6
CONTINUOUS
10
160.008
20
-88.9757
11
159.986
21
-88.9975
0
LINE
8
BLACK
6
CONTINUOUS
10
159.986
20
-88.9975
11
159.563
21
-89.294
0
LINE
8
BLACK
6
CONTINUOUS
10
159.563
20
-89.294
11
159.535
21
-89.3078
0
LINE
8
BLACK
6
CONTINUOUS
10
159.535
20
-89.3078
11
159.535
21
-89.3078
0
LINE
8
BLACK
6
CONTINUOUS
10
159.535
20
-89.3078
11
159.042
21
-89.4593
0
LINE
8
BLACK
6
CONTINUOUS
10
159.042
20
-89.4593
11
159.042
21
-89.4593
0
LINE
8
BLACK
6
CONTINUOUS
10
159.042
20
-89.4593
11
159.011
21
-89.4637
0
LINE
8
BLACK
6
CONTINUOUS
10
159.011
20
-89.4637
11
159.011
21
-89.4637
0
LINE
8
BLACK
6
CONTINUOUS
10
159.011
20
-89.4637
11
158.495
21
-89.4552
0
LINE
8
BLACK
6
CONTINUOUS
10
158.495
20
-89.4552
11
158.495
21
-89.4552
0
LINE
8
BLACK
6
CONTINUOUS
10
158.495
20
-89.4552
11
158.464
21
-89.4498
0
LINE
8
BLACK
6
CONTINUOUS
10
158.178
20
-86.3034
11
157.767
21
-86.5596
0
LINE
8
BLACK
6
CONTINUOUS
10
157.767
20
-86.5596
11
157.444
21
-86.9424
0
LINE
8
BLACK
6
CONTINUOUS
10
157.444
20
-86.9424
11
157.421
21
-86.9629
0
LINE
8
BLACK
6
CONTINUOUS
10
157.421
20
-86.9629
11
157.394
21
-86.9743
0
LINE
8
BLACK
6
CONTINUOUS
10
157.394
20
-86.9743
11
157.399
21
-87.005
0
LINE
8
BLACK
6
CONTINUOUS
10
157.399
20
-87.005
11
157.394
21
-87.0359
0
LINE
8
BLACK
6
CONTINUOUS
10
157.394
20
-87.0359
11
157.255
21
-87.462
0
LINE
8
BLACK
6
CONTINUOUS
10
157.255
20
-87.462
11
157.248
21
-87.9473
0
LINE
8
BLACK
6
CONTINUOUS
10
157.248
20
-87.9473
11
157.39
21
-88.4105
0
LINE
8
BLACK
6
CONTINUOUS
10
157.39
20
-88.4105
11
157.668
21
-88.8071
0
LINE
8
BLACK
6
CONTINUOUS
10
157.668
20
-88.8071
11
158.055
21
-89.0983
0
LINE
8
BLACK
6
CONTINUOUS
10
158.055
20
-89.0983
11
158.514
21
-89.2555
0
LINE
8
BLACK
6
CONTINUOUS
10
158.514
20
-89.2555
11
158.998
21
-89.2634
0
LINE
8
BLACK
6
CONTINUOUS
10
158.998
20
-89.2634
11
159.462
21
-89.1212
0
LINE
8
BLACK
6
CONTINUOUS
10
159.462
20
-89.1212
11
159.858
21
-88.8429
0
LINE
8
BLACK
6
CONTINUOUS
10
159.858
20
-88.8429
11
160.149
21
-88.4555
0
LINE
8
BLACK
6
CONTINUOUS
10
160.149
20
-88.4555
11
160.307
21
-87.9972
0
LINE
8
BLACK
6
CONTINUOUS
10
160.307
20
-87.9972
11
160.314
21
-87.5127
0
LINE
8
BLACK
6
CONTINUOUS
10
160.314
20
-87.5127
11
160.168
21
-87.0343
0
LINE
8
BLACK
6
CONTINUOUS
10
160.168
20
-87.0343
11
160.163
21
-87.0034
0
LINE
8
BLACK
6
CONTINUOUS
10
160.163
20
-87.0034
11
160.168
21
-86.9739
0
LINE
8
BLACK
6
CONTINUOUS
10
160.168
20
-86.9739
11
160.163
21
-86.9731
0
LINE
8
BLACK
6
CONTINUOUS
10
160.163
20
-86.9731
11
160.135
21
-86.9589
0
LINE
8
BLACK
6
CONTINUOUS
10
160.135
20
-86.9589
11
160.113
21
-86.9368
0
LINE
8
BLACK
6
CONTINUOUS
10
160.113
20
-86.9368
11
159.954
21
-86.7181
0
LINE
8
BLACK
6
CONTINUOUS
10
159.954
20
-86.7181
11
159.581
21
-86.4037
0
LINE
8
BLACK
6
CONTINUOUS
10
159.581
20
-86.4037
11
159.132
21
-86.2215
0
LINE
8
BLACK
6
CONTINUOUS
10
159.132
20
-86.2215
11
158.648
21
-86.1869
0
LINE
8
BLACK
6
CONTINUOUS
10
158.648
20
-86.1869
11
158.178
21
-86.3034
0
LINE
8
BLACK
6
CONTINUOUS
10
150.138
20
-86.236
11
150.146
21
-86.2366
0
LINE
8
BLACK
6
CONTINUOUS
10
150.146
20
-86.2366
11
150.592
21
-86.3449
0
LINE
8
BLACK
6
CONTINUOUS
10
150.592
20
-86.3449
11
150.592
21
-86.3449
0
LINE
8
BLACK
6
CONTINUOUS
10
150.592
20
-86.3449
11
150.592
21
-86.3449
0
LINE
8
BLACK
6
CONTINUOUS
10
150.592
20
-86.3449
11
150.609
21
-86.3504
0
LINE
8
BLACK
6
CONTINUOUS
10
150.609
20
-86.3504
11
150.615
21
-86.3547
0
LINE
8
BLACK
6
CONTINUOUS
10
150.615
20
-86.3547
11
150.623
21
-86.3578
0
LINE
8
BLACK
6
CONTINUOUS
10
150.623
20
-86.3578
11
151.01
21
-86.6051
0
LINE
8
BLACK
6
CONTINUOUS
10
151.01
20
-86.6051
11
151.024
21
-86.6156
0
LINE
8
BLACK
6
CONTINUOUS
10
151.024
20
-86.6156
11
151.027
21
-86.6189
0
LINE
8
BLACK
6
CONTINUOUS
10
151.027
20
-86.6189
11
151.03
21
-86.6215
0
LINE
8
BLACK
6
CONTINUOUS
10
151.03
20
-86.6215
11
151.204
21
-86.8101
0
LINE
8
BLACK
6
CONTINUOUS
10
151.204
20
-86.8101
11
151.215
21
-86.8238
0
LINE
8
BLACK
6
CONTINUOUS
10
151.215
20
-86.8238
11
151.228
21
-86.8539
0
LINE
8
BLACK
6
CONTINUOUS
10
151.228
20
-86.8539
11
151.23
21
-86.8866
0
LINE
8
BLACK
6
CONTINUOUS
10
151.23
20
-86.8866
11
151.225
21
-86.9066
0
LINE
8
BLACK
6
CONTINUOUS
10
151.225
20
-86.9066
11
151.238
21
-86.907
0
LINE
8
BLACK
6
CONTINUOUS
10
151.238
20
-86.907
11
151.268
21
-86.9188
0
LINE
8
BLACK
6
CONTINUOUS
10
151.268
20
-86.9188
11
151.293
21
-86.9399
0
LINE
8
BLACK
6
CONTINUOUS
10
151.293
20
-86.9399
11
151.31
21
-86.968
0
LINE
8
BLACK
6
CONTINUOUS
10
151.31
20
-86.968
11
151.481
21
-87.395
0
LINE
8
BLACK
6
CONTINUOUS
10
151.481
20
-87.395
11
151.481
21
-87.395
0
LINE
8
BLACK
6
CONTINUOUS
10
151.481
20
-87.395
11
151.481
21
-87.395
0
LINE
8
BLACK
6
CONTINUOUS
10
151.481
20
-87.395
11
151.486
21
-87.4115
0
LINE
8
BLACK
6
CONTINUOUS
10
151.486
20
-87.4115
11
151.486
21
-87.4194
0
LINE
8
BLACK
6
CONTINUOUS
10
151.486
20
-87.4194
11
151.488
21
-87.4271
0
LINE
8
BLACK
6
CONTINUOUS
10
151.488
20
-87.4271
11
151.51
21
-87.8862
0
LINE
8
BLACK
6
CONTINUOUS
10
151.51
20
-87.8862
11
151.51
21
-87.8862
0
LINE
8
BLACK
6
CONTINUOUS
10
151.51
20
-87.8862
11
151.51
21
-87.8862
0
LINE
8
BLACK
6
CONTINUOUS
10
151.51
20
-87.8862
11
151.51
21
-87.9035
0
LINE
8
BLACK
6
CONTINUOUS
10
151.51
20
-87.9035
11
151.508
21
-87.911
0
LINE
8
BLACK
6
CONTINUOUS
10
151.508
20
-87.911
11
151.507
21
-87.9189
0
LINE
8
BLACK
6
CONTINUOUS
10
151.507
20
-87.9189
11
151.379
21
-88.3606
0
LINE
8
BLACK
6
CONTINUOUS
10
151.379
20
-88.3606
11
151.373
21
-88.3767
0
LINE
8
BLACK
6
CONTINUOUS
10
151.373
20
-88.3767
11
151.369
21
-88.3832
0
LINE
8
BLACK
6
CONTINUOUS
10
151.369
20
-88.3832
11
151.365
21
-88.3903
0
LINE
8
BLACK
6
CONTINUOUS
10
151.365
20
-88.3903
11
151.102
21
-88.767
0
LINE
8
BLACK
6
CONTINUOUS
10
151.102
20
-88.767
11
151.102
21
-88.767
0
LINE
8
BLACK
6
CONTINUOUS
10
151.102
20
-88.767
11
151.102
21
-88.767
0
LINE
8
BLACK
6
CONTINUOUS
10
151.102
20
-88.767
11
151.091
21
-88.7803
0
LINE
8
BLACK
6
CONTINUOUS
10
151.091
20
-88.7803
11
151.084
21
-88.7849
0
LINE
8
BLACK
6
CONTINUOUS
10
151.084
20
-88.7849
11
151.079
21
-88.7905
0
LINE
8
BLACK
6
CONTINUOUS
10
151.079
20
-88.7905
11
150.708
21
-89.0616
0
LINE
8
BLACK
6
CONTINUOUS
10
150.708
20
-89.0616
11
150.708
21
-89.0616
0
LINE
8
BLACK
6
CONTINUOUS
10
150.708
20
-89.0616
11
150.708
21
-89.0616
0
LINE
8
BLACK
6
CONTINUOUS
10
150.708
20
-89.0616
11
150.693
21
-89.0705
0
LINE
8
BLACK
6
CONTINUOUS
10
150.693
20
-89.0705
11
150.685
21
-89.0728
0
LINE
8
BLACK
6
CONTINUOUS
10
150.685
20
-89.0728
11
150.678
21
-89.0764
0
LINE
8
BLACK
6
CONTINUOUS
10
150.678
20
-89.0764
11
150.239
21
-89.2126
0
LINE
8
BLACK
6
CONTINUOUS
10
150.239
20
-89.2126
11
150.222
21
-89.2163
0
LINE
8
BLACK
6
CONTINUOUS
10
150.222
20
-89.2163
11
150.215
21
-89.216
0
LINE
8
BLACK
6
CONTINUOUS
10
150.215
20
-89.216
11
150.207
21
-89.217
0
LINE
8
BLACK
6
CONTINUOUS
10
150.207
20
-89.217
11
149.747
21
-89.2037
0
LINE
8
BLACK
6
CONTINUOUS
10
149.747
20
-89.2037
11
149.747
21
-89.2037
0
LINE
8
BLACK
6
CONTINUOUS
10
149.747
20
-89.2037
11
149.747
21
-89.2037
0
LINE
8
BLACK
6
CONTINUOUS
10
149.747
20
-89.2037
11
149.73
21
-89.2017
0
LINE
8
BLACK
6
CONTINUOUS
10
149.73
20
-89.2017
11
149.723
21
-89.1989
0
LINE
8
BLACK
6
CONTINUOUS
10
149.723
20
-89.1989
11
149.715
21
-89.1974
0
LINE
8
BLACK
6
CONTINUOUS
10
149.715
20
-89.1974
11
149.285
21
-89.0359
0
LINE
8
BLACK
6
CONTINUOUS
10
149.285
20
-89.0359
11
149.269
21
-89.0285
0
LINE
8
BLACK
6
CONTINUOUS
10
149.269
20
-89.0285
11
149.263
21
-89.0234
0
LINE
8
BLACK
6
CONTINUOUS
10
149.263
20
-89.0234
11
149.256
21
-89.0195
0
LINE
8
BLACK
6
CONTINUOUS
10
149.256
20
-89.0195
11
148.901
21
-88.7273
0
LINE
8
BLACK
6
CONTINUOUS
10
148.901
20
-88.7273
11
148.901
21
-88.7273
0
LINE
8
BLACK
6
CONTINUOUS
10
148.901
20
-88.7273
11
148.901
21
-88.7273
0
LINE
8
BLACK
6
CONTINUOUS
10
148.901
20
-88.7273
11
148.889
21
-88.7152
0
LINE
8
BLACK
6
CONTINUOUS
10
148.889
20
-88.7152
11
148.885
21
-88.7085
0
LINE
8
BLACK
6
CONTINUOUS
10
148.885
20
-88.7085
11
148.88
21
-88.7026
0
LINE
8
BLACK
6
CONTINUOUS
10
148.88
20
-88.7026
11
148.638
21
-88.3112
0
LINE
8
BLACK
6
CONTINUOUS
10
148.638
20
-88.3112
11
148.638
21
-88.3112
0
LINE
8
BLACK
6
CONTINUOUS
10
148.638
20
-88.3112
11
148.638
21
-88.3112
0
LINE
8
BLACK
6
CONTINUOUS
10
148.638
20
-88.3112
11
148.631
21
-88.2958
0
LINE
8
BLACK
6
CONTINUOUS
10
148.631
20
-88.2958
11
148.629
21
-88.2881
0
LINE
8
BLACK
6
CONTINUOUS
10
148.629
20
-88.2881
11
148.626
21
-88.2808
0
LINE
8
BLACK
6
CONTINUOUS
10
148.626
20
-88.2808
11
148.525
21
-87.8324
0
LINE
8
BLACK
6
CONTINUOUS
10
148.525
20
-87.8324
11
148.522
21
-87.8153
0
LINE
8
BLACK
6
CONTINUOUS
10
148.522
20
-87.8153
11
148.523
21
-87.8074
0
LINE
8
BLACK
6
CONTINUOUS
10
148.523
20
-87.8074
11
148.523
21
-87.7996
0
LINE
8
BLACK
6
CONTINUOUS
10
148.523
20
-87.7996
11
148.572
21
-87.3425
0
LINE
8
BLACK
6
CONTINUOUS
10
148.572
20
-87.3425
11
148.575
21
-87.3256
0
LINE
8
BLACK
6
CONTINUOUS
10
148.575
20
-87.3256
11
148.578
21
-87.3198
0
LINE
8
BLACK
6
CONTINUOUS
10
148.578
20
-87.3198
11
148.58
21
-87.3135
0
LINE
8
BLACK
6
CONTINUOUS
10
148.58
20
-87.3135
11
148.73
21
-86.9653
0
LINE
8
BLACK
6
CONTINUOUS
10
148.73
20
-86.9653
11
148.739
21
-86.9501
0
LINE
8
BLACK
6
CONTINUOUS
10
148.739
20
-86.9501
11
148.761
21
-86.926
0
LINE
8
BLACK
6
CONTINUOUS
10
148.761
20
-86.926
11
148.79
21
-86.9104
0
LINE
8
BLACK
6
CONTINUOUS
10
148.79
20
-86.9104
11
148.814
21
-86.9063
0
LINE
8
BLACK
6
CONTINUOUS
10
148.814
20
-86.9063
11
148.81
21
-86.895
0
LINE
8
BLACK
6
CONTINUOUS
10
148.81
20
-86.895
11
148.81
21
-86.8621
0
LINE
8
BLACK
6
CONTINUOUS
10
148.81
20
-86.8621
11
148.821
21
-86.831
0
LINE
8
BLACK
6
CONTINUOUS
10
148.821
20
-86.831
11
148.841
21
-86.8049
0
LINE
8
BLACK
6
CONTINUOUS
10
148.841
20
-86.8049
11
149.177
21
-86.491
0
LINE
8
BLACK
6
CONTINUOUS
10
149.177
20
-86.491
11
149.177
21
-86.491
0
LINE
8
BLACK
6
CONTINUOUS
10
149.177
20
-86.491
11
149.177
21
-86.491
0
LINE
8
BLACK
6
CONTINUOUS
10
149.177
20
-86.491
11
149.19
21
-86.4804
0
LINE
8
BLACK
6
CONTINUOUS
10
149.19
20
-86.4804
11
149.197
21
-86.4772
0
LINE
8
BLACK
6
CONTINUOUS
10
149.197
20
-86.4772
11
149.204
21
-86.4729
0
LINE
8
BLACK
6
CONTINUOUS
10
149.204
20
-86.4729
11
149.623
21
-86.2847
0
LINE
8
BLACK
6
CONTINUOUS
10
149.623
20
-86.2847
11
149.64
21
-86.279
0
LINE
8
BLACK
6
CONTINUOUS
10
149.64
20
-86.279
11
149.648
21
-86.2783
0
LINE
8
BLACK
6
CONTINUOUS
10
149.648
20
-86.2783
11
149.655
21
-86.2763
0
LINE
8
BLACK
6
CONTINUOUS
10
149.655
20
-86.2763
11
150.113
21
-86.2342
0
LINE
8
BLACK
6
CONTINUOUS
10
150.113
20
-86.2342
11
150.113
21
-86.2342
0
LINE
8
BLACK
6
CONTINUOUS
10
150.113
20
-86.2342
11
150.113
21
-86.2342
0
LINE
8
BLACK
6
CONTINUOUS
10
150.113
20
-86.2342
11
150.13
21
-86.2341
0
LINE
8
BLACK
6
CONTINUOUS
10
150.13
20
-86.2341
11
150.138
21
-86.236
0
LINE
8
BLACK
6
CONTINUOUS
10
149.69
20
-86.474
11
149.301
21
-86.6485
0
LINE
8
BLACK
6
CONTINUOUS
10
149.301
20
-86.6485
11
148.977
21
-86.9511
0
LINE
8
BLACK
6
CONTINUOUS
10
148.977
20
-86.9511
11
148.964
21
-86.9617
0
LINE
8
BLACK
6
CONTINUOUS
10
148.964
20
-86.9617
11
148.934
21
-86.9749
0
LINE
8
BLACK
6
CONTINUOUS
10
148.934
20
-86.9749
11
148.917
21
-86.9763
0
LINE
8
BLACK
6
CONTINUOUS
10
148.917
20
-86.9763
11
148.919
21
-86.9801
0
LINE
8
BLACK
6
CONTINUOUS
10
148.919
20
-86.9801
11
148.922
21
-87.0128
0
LINE
8
BLACK
6
CONTINUOUS
10
148.922
20
-87.0128
11
148.914
21
-87.0447
0
LINE
8
BLACK
6
CONTINUOUS
10
148.914
20
-87.0447
11
148.769
21
-87.379
0
LINE
8
BLACK
6
CONTINUOUS
10
148.769
20
-87.379
11
148.723
21
-87.8045
0
LINE
8
BLACK
6
CONTINUOUS
10
148.723
20
-87.8045
11
148.817
21
-88.2204
0
LINE
8
BLACK
6
CONTINUOUS
10
148.817
20
-88.2204
11
149.041
21
-88.5835
0
LINE
8
BLACK
6
CONTINUOUS
10
149.041
20
-88.5835
11
149.37
21
-88.8545
0
LINE
8
BLACK
6
CONTINUOUS
10
149.37
20
-88.8545
11
149.77
21
-89.0043
0
LINE
8
BLACK
6
CONTINUOUS
10
149.77
20
-89.0043
11
150.196
21
-89.0166
0
LINE
8
BLACK
6
CONTINUOUS
10
150.196
20
-89.0166
11
150.603
21
-88.8903
0
LINE
8
BLACK
6
CONTINUOUS
10
150.603
20
-88.8903
11
150.948
21
-88.6388
0
LINE
8
BLACK
6
CONTINUOUS
10
150.948
20
-88.6388
11
151.192
21
-88.2893
0
LINE
8
BLACK
6
CONTINUOUS
10
151.192
20
-88.2893
11
151.31
21
-87.8795
0
LINE
8
BLACK
6
CONTINUOUS
10
151.31
20
-87.8795
11
151.289
21
-87.4536
0
LINE
8
BLACK
6
CONTINUOUS
10
151.289
20
-87.4536
11
151.125
21
-87.042
0
LINE
8
BLACK
6
CONTINUOUS
10
151.125
20
-87.042
11
151.12
21
-87.0255
0
LINE
8
BLACK
6
CONTINUOUS
10
151.12
20
-87.0255
11
151.118
21
-86.9927
0
LINE
8
BLACK
6
CONTINUOUS
10
151.118
20
-86.9927
11
151.123
21
-86.9766
0
LINE
8
BLACK
6
CONTINUOUS
10
151.123
20
-86.9766
11
151.114
21
-86.9766
0
LINE
8
BLACK
6
CONTINUOUS
10
151.114
20
-86.9766
11
151.083
21
-86.966
0
LINE
8
BLACK
6
CONTINUOUS
10
151.083
20
-86.966
11
151.057
21
-86.9459
0
LINE
8
BLACK
6
CONTINUOUS
10
151.057
20
-86.9459
11
150.892
21
-86.7667
0
LINE
8
BLACK
6
CONTINUOUS
10
150.892
20
-86.7667
11
150.529
21
-86.5354
0
LINE
8
BLACK
6
CONTINUOUS
10
150.529
20
-86.5354
11
150.115
21
-86.4348
0
LINE
8
BLACK
6
CONTINUOUS
10
150.115
20
-86.4348
11
149.69
21
-86.474
0
LINE
8
BLACK
6
CONTINUOUS
10
163.188
20
-85.836
11
162.883
21
-86.0916
0
LINE
8
BLACK
6
CONTINUOUS
10
162.883
20
-86.0916
11
162.51
21
-86.2276
0
LINE
8
BLACK
6
CONTINUOUS
10
162.51
20
-86.2276
11
162.112
21
-86.2276
0
LINE
8
BLACK
6
CONTINUOUS
10
162.112
20
-86.2276
11
161.738
21
-86.0916
0
LINE
8
BLACK
6
CONTINUOUS
10
161.738
20
-86.0916
11
161.434
21
-85.836
0
LINE
8
BLACK
6
CONTINUOUS
10
161.434
20
-85.836
11
161.235
21
-85.4916
0
LINE
8
BLACK
6
CONTINUOUS
10
161.235
20
-85.4916
11
161.166
21
-85.1
0
LINE
8
BLACK
6
CONTINUOUS
10
161.166
20
-85.1
11
161.235
21
-84.7084
0
LINE
8
BLACK
6
CONTINUOUS
10
161.235
20
-84.7084
11
161.434
21
-84.364
0
LINE
8
BLACK
6
CONTINUOUS
10
161.434
20
-84.364
11
161.738
21
-84.1084
0
LINE
8
BLACK
6
CONTINUOUS
10
161.738
20
-84.1084
11
162.112
21
-83.9724
0
LINE
8
BLACK
6
CONTINUOUS
10
162.112
20
-83.9724
11
162.51
21
-83.9724
0
LINE
8
BLACK
6
CONTINUOUS
10
162.51
20
-83.9724
11
162.883
21
-84.1084
0
LINE
8
BLACK
6
CONTINUOUS
10
162.883
20
-84.1084
11
163.188
21
-84.364
0
LINE
8
BLACK
6
CONTINUOUS
10
163.188
20
-84.364
11
163.387
21
-84.7084
0
LINE
8
BLACK
6
CONTINUOUS
10
163.387
20
-84.7084
11
163.456
21
-85.1
0
LINE
8
BLACK
6
CONTINUOUS
10
163.456
20
-85.1
11
163.387
21
-85.4916
0
LINE
8
BLACK
6
CONTINUOUS
10
163.387
20
-85.4916
11
163.188
21
-85.836
0
LINE
8
BLACK
6
CONTINUOUS
10
163.02
20
-84.5054
11
162.773
21
-84.2989
0
LINE
8
BLACK
6
CONTINUOUS
10
162.773
20
-84.2989
11
162.472
21
-84.1891
0
LINE
8
BLACK
6
CONTINUOUS
10
162.472
20
-84.1891
11
162.15
21
-84.1891
0
LINE
8
BLACK
6
CONTINUOUS
10
162.15
20
-84.1891
11
161.849
21
-84.2989
0
LINE
8
BLACK
6
CONTINUOUS
10
161.849
20
-84.2989
11
161.602
21
-84.5054
0
LINE
8
BLACK
6
CONTINUOUS
10
161.602
20
-84.5054
11
161.442
21
-84.7836
0
LINE
8
BLACK
6
CONTINUOUS
10
161.442
20
-84.7836
11
161.386
21
-85.1
0
LINE
8
BLACK
6
CONTINUOUS
10
161.386
20
-85.1
11
161.442
21
-85.4164
0
LINE
8
BLACK
6
CONTINUOUS
10
161.442
20
-85.4164
11
161.602
21
-85.6946
0
LINE
8
BLACK
6
CONTINUOUS
10
161.602
20
-85.6946
11
161.849
21
-85.9011
0
LINE
8
BLACK
6
CONTINUOUS
10
161.849
20
-85.9011
11
162.15
21
-86.0109
0
LINE
8
BLACK
6
CONTINUOUS
10
162.15
20
-86.0109
11
162.472
21
-86.0109
0
LINE
8
BLACK
6
CONTINUOUS
10
162.472
20
-86.0109
11
162.773
21
-85.9011
0
LINE
8
BLACK
6
CONTINUOUS
10
162.773
20
-85.9011
11
163.02
21
-85.6946
0
LINE
8
BLACK
6
CONTINUOUS
10
163.02
20
-85.6946
11
163.18
21
-85.4164
0
LINE
8
BLACK
6
CONTINUOUS
10
163.18
20
-85.4164
11
163.236
21
-85.1
0
LINE
8
BLACK
6
CONTINUOUS
10
163.236
20
-85.1
11
163.18
21
-84.7836
0
LINE
8
BLACK
6
CONTINUOUS
10
163.18
20
-84.7836
11
163.02
21
-84.5054
0
LINE
8
BLACK
6
CONTINUOUS
10
123.188
20
-85.836
11
122.883
21
-86.0916
0
LINE
8
BLACK
6
CONTINUOUS
10
122.883
20
-86.0916
11
122.51
21
-86.2276
0
LINE
8
BLACK
6
CONTINUOUS
10
122.51
20
-86.2276
11
122.112
21
-86.2276
0
LINE
8
BLACK
6
CONTINUOUS
10
122.112
20
-86.2276
11
121.738
21
-86.0916
0
LINE
8
BLACK
6
CONTINUOUS
10
121.738
20
-86.0916
11
121.434
21
-85.836
0
LINE
8
BLACK
6
CONTINUOUS
10
121.434
20
-85.836
11
121.235
21
-85.4916
0
LINE
8
BLACK
6
CONTINUOUS
10
121.235
20
-85.4916
11
121.166
21
-85.1
0
LINE
8
BLACK
6
CONTINUOUS
10
121.166
20
-85.1
11
121.235
21
-84.7084
0
LINE
8
BLACK
6
CONTINUOUS
10
121.235
20
-84.7084
11
121.434
21
-84.364
0
LINE
8
BLACK
6
CONTINUOUS
10
121.434
20
-84.364
11
121.738
21
-84.1084
0
LINE
8
BLACK
6
CONTINUOUS
10
121.738
20
-84.1084
11
122.112
21
-83.9724
0
LINE
8
BLACK
6
CONTINUOUS
10
122.112
20
-83.9724
11
122.51
21
-83.9724
0
LINE
8
BLACK
6
CONTINUOUS
10
122.51
20
-83.9724
11
122.883
21
-84.1084
0
LINE
8
BLACK
6
CONTINUOUS
10
122.883
20
-84.1084
11
123.188
21
-84.364
0
LINE
8
BLACK
6
CONTINUOUS
10
123.188
20
-84.364
11
123.387
21
-84.7084
0
LINE
8
BLACK
6
CONTINUOUS
10
123.387
20
-84.7084
11
123.456
21
-85.1
0
LINE
8
BLACK
6
CONTINUOUS
10
123.456
20
-85.1
11
123.387
21
-85.4916
0
LINE
8
BLACK
6
CONTINUOUS
10
123.387
20
-85.4916
11
123.188
21
-85.836
0
LINE
8
BLACK
6
CONTINUOUS
10
123.02
20
-84.5054
11
122.773
21
-84.2989
0
LINE
8
BLACK
6
CONTINUOUS
10
122.773
20
-84.2989
11
122.472
21
-84.1891
0
LINE
8
BLACK
6
CONTINUOUS
10
122.472
20
-84.1891
11
122.15
21
-84.1891
0
LINE
8
BLACK
6
CONTINUOUS
10
122.15
20
-84.1891
11
121.849
21
-84.2989
0
LINE
8
BLACK
6
CONTINUOUS
10
121.849
20
-84.2989
11
121.602
21
-84.5054
0
LINE
8
BLACK
6
CONTINUOUS
10
121.602
20
-84.5054
11
121.442
21
-84.7836
0
LINE
8
BLACK
6
CONTINUOUS
10
121.442
20
-84.7836
11
121.386
21
-85.1
0
LINE
8
BLACK
6
CONTINUOUS
10
121.386
20
-85.1
11
121.442
21
-85.4164
0
LINE
8
BLACK
6
CONTINUOUS
10
121.442
20
-85.4164
11
121.602
21
-85.6946
0
LINE
8
BLACK
6
CONTINUOUS
10
121.602
20
-85.6946
11
121.849
21
-85.9011
0
LINE
8
BLACK
6
CONTINUOUS
10
121.849
20
-85.9011
11
122.15
21
-86.0109
0
LINE
8
BLACK
6
CONTINUOUS
10
122.15
20
-86.0109
11
122.472
21
-86.0109
0
LINE
8
BLACK
6
CONTINUOUS
10
122.472
20
-86.0109
11
122.773
21
-85.9011
0
LINE
8
BLACK
6
CONTINUOUS
10
122.773
20
-85.9011
11
123.02
21
-85.6946
0
LINE
8
BLACK
6
CONTINUOUS
10
123.02
20
-85.6946
11
123.18
21
-85.4164
0
LINE
8
BLACK
6
CONTINUOUS
10
123.18
20
-85.4164
11
123.236
21
-85.1
0
LINE
8
BLACK
6
CONTINUOUS
10
123.236
20
-85.1
11
123.18
21
-84.7836
0
LINE
8
BLACK
6
CONTINUOUS
10
123.18
20
-84.7836
11
123.02
21
-84.5054
0
LINE
8
BLACK
6
CONTINUOUS
10
113.147
20
-105.349
11
113.167
21
-105.366
0
LINE
8
BLACK
6
CONTINUOUS
10
113.167
20
-105.366
11
113.18
21
-105.389
0
LINE
8
BLACK
6
CONTINUOUS
10
113.18
20
-105.389
11
113.184
21
-105.414
0
LINE
8
BLACK
6
CONTINUOUS
10
113.184
20
-105.414
11
113.184
21
-106.116
0
LINE
8
BLACK
6
CONTINUOUS
10
113.184
20
-106.116
11
113.223
21
-106.231
0
LINE
8
BLACK
6
CONTINUOUS
10
113.223
20
-106.231
11
113.293
21
-106.301
0
LINE
8
BLACK
6
CONTINUOUS
10
113.293
20
-106.301
11
113.407
21
-106.339
0
LINE
8
BLACK
6
CONTINUOUS
10
113.407
20
-106.339
11
113.49
21
-106.339
0
LINE
8
BLACK
6
CONTINUOUS
10
113.49
20
-106.339
11
113.516
21
-106.344
0
LINE
8
BLACK
6
CONTINUOUS
10
113.516
20
-106.344
11
113.538
21
-106.357
0
LINE
8
BLACK
6
CONTINUOUS
10
113.538
20
-106.357
11
113.555
21
-106.377
0
LINE
8
BLACK
6
CONTINUOUS
10
113.555
20
-106.377
11
113.564
21
-106.401
0
LINE
8
BLACK
6
CONTINUOUS
10
113.564
20
-106.401
11
113.564
21
-106.427
0
LINE
8
BLACK
6
CONTINUOUS
10
113.564
20
-106.427
11
113.555
21
-106.452
0
LINE
8
BLACK
6
CONTINUOUS
10
113.555
20
-106.452
11
113.538
21
-106.472
0
LINE
8
BLACK
6
CONTINUOUS
10
113.538
20
-106.472
11
113.516
21
-106.485
0
LINE
8
BLACK
6
CONTINUOUS
10
113.516
20
-106.485
11
113.49
21
-106.489
0
LINE
8
BLACK
6
CONTINUOUS
10
113.49
20
-106.489
11
113.395
21
-106.489
0
LINE
8
BLACK
6
CONTINUOUS
10
113.395
20
-106.489
11
113.383
21
-106.487
0
LINE
8
BLACK
6
CONTINUOUS
10
113.383
20
-106.487
11
113.371
21
-106.486
0
LINE
8
BLACK
6
CONTINUOUS
10
113.371
20
-106.486
11
113.228
21
-106.438
0
LINE
8
BLACK
6
CONTINUOUS
10
113.228
20
-106.438
11
113.225
21
-106.436
0
LINE
8
BLACK
6
CONTINUOUS
10
113.225
20
-106.436
11
113.22
21
-106.435
0
LINE
8
BLACK
6
CONTINUOUS
10
113.22
20
-106.435
11
113.213
21
-106.43
0
LINE
8
BLACK
6
CONTINUOUS
10
113.213
20
-106.43
11
113.206
21
-106.426
0
LINE
8
BLACK
6
CONTINUOUS
10
113.206
20
-106.426
11
113.203
21
-106.422
0
LINE
8
BLACK
6
CONTINUOUS
10
113.203
20
-106.422
11
113.199
21
-106.42
0
LINE
8
BLACK
6
CONTINUOUS
10
113.199
20
-106.42
11
113.104
21
-106.325
0
LINE
8
BLACK
6
CONTINUOUS
10
113.104
20
-106.325
11
113.101
21
-106.321
0
LINE
8
BLACK
6
CONTINUOUS
10
113.101
20
-106.321
11
113.098
21
-106.318
0
LINE
8
BLACK
6
CONTINUOUS
10
113.098
20
-106.318
11
113.094
21
-106.31
0
LINE
8
BLACK
6
CONTINUOUS
10
113.094
20
-106.31
11
113.089
21
-106.303
0
LINE
8
BLACK
6
CONTINUOUS
10
113.089
20
-106.303
11
113.088
21
-106.299
0
LINE
8
BLACK
6
CONTINUOUS
10
113.088
20
-106.299
11
113.086
21
-106.295
0
LINE
8
BLACK
6
CONTINUOUS
10
113.086
20
-106.295
11
113.038
21
-106.152
0
LINE
8
BLACK
6
CONTINUOUS
10
113.038
20
-106.152
11
113.036
21
-106.141
0
LINE
8
BLACK
6
CONTINUOUS
10
113.036
20
-106.141
11
113.034
21
-106.129
0
LINE
8
BLACK
6
CONTINUOUS
10
113.034
20
-106.129
11
113.034
21
-105.414
0
LINE
8
BLACK
6
CONTINUOUS
10
113.034
20
-105.414
11
113.039
21
-105.389
0
LINE
8
BLACK
6
CONTINUOUS
10
113.039
20
-105.389
11
113.052
21
-105.366
0
LINE
8
BLACK
6
CONTINUOUS
10
113.052
20
-105.366
11
113.072
21
-105.349
0
LINE
8
BLACK
6
CONTINUOUS
10
113.072
20
-105.349
11
113.096
21
-105.341
0
LINE
8
BLACK
6
CONTINUOUS
10
113.096
20
-105.341
11
113.122
21
-105.341
0
LINE
8
BLACK
6
CONTINUOUS
10
113.122
20
-105.341
11
113.147
21
-105.349
0
LINE
8
BLACK
6
CONTINUOUS
10
112.399
20
-105.341
11
112.408
21
-105.341
0
LINE
8
BLACK
6
CONTINUOUS
10
112.408
20
-105.341
11
112.412
21
-105.342
0
LINE
8
BLACK
6
CONTINUOUS
10
112.412
20
-105.342
11
112.416
21
-105.342
0
LINE
8
BLACK
6
CONTINUOUS
10
112.416
20
-105.342
11
112.424
21
-105.346
0
LINE
8
BLACK
6
CONTINUOUS
10
112.424
20
-105.346
11
112.433
21
-105.349
0
LINE
8
BLACK
6
CONTINUOUS
10
112.433
20
-105.349
11
112.436
21
-105.352
0
LINE
8
BLACK
6
CONTINUOUS
10
112.436
20
-105.352
11
112.439
21
-105.354
0
LINE
8
BLACK
6
CONTINUOUS
10
112.439
20
-105.354
11
112.446
21
-105.36
0
LINE
8
BLACK
6
CONTINUOUS
10
112.446
20
-105.36
11
112.453
21
-105.366
0
LINE
8
BLACK
6
CONTINUOUS
10
112.453
20
-105.366
11
112.455
21
-105.37
0
LINE
8
BLACK
6
CONTINUOUS
10
112.455
20
-105.37
11
112.457
21
-105.373
0
LINE
8
BLACK
6
CONTINUOUS
10
112.457
20
-105.373
11
112.549
21
-105.509
0
LINE
8
BLACK
6
CONTINUOUS
10
112.549
20
-105.509
11
112.63
21
-105.591
0
LINE
8
BLACK
6
CONTINUOUS
10
112.63
20
-105.591
11
112.714
21
-105.633
0
LINE
8
BLACK
6
CONTINUOUS
10
112.714
20
-105.633
11
112.735
21
-105.649
0
LINE
8
BLACK
6
CONTINUOUS
10
112.735
20
-105.649
11
112.75
21
-105.67
0
LINE
8
BLACK
6
CONTINUOUS
10
112.75
20
-105.67
11
112.756
21
-105.696
0
LINE
8
BLACK
6
CONTINUOUS
10
112.756
20
-105.696
11
112.753
21
-105.721
0
LINE
8
BLACK
6
CONTINUOUS
10
112.753
20
-105.721
11
112.741
21
-105.745
0
LINE
8
BLACK
6
CONTINUOUS
10
112.741
20
-105.745
11
112.722
21
-105.763
0
LINE
8
BLACK
6
CONTINUOUS
10
112.722
20
-105.763
11
112.698
21
-105.773
0
LINE
8
BLACK
6
CONTINUOUS
10
112.698
20
-105.773
11
112.672
21
-105.775
0
LINE
8
BLACK
6
CONTINUOUS
10
112.672
20
-105.775
11
112.647
21
-105.767
0
LINE
8
BLACK
6
CONTINUOUS
10
112.647
20
-105.767
11
112.552
21
-105.72
0
LINE
8
BLACK
6
CONTINUOUS
10
112.552
20
-105.72
11
112.542
21
-105.712
0
LINE
8
BLACK
6
CONTINUOUS
10
112.542
20
-105.712
11
112.532
21
-105.706
0
LINE
8
BLACK
6
CONTINUOUS
10
112.532
20
-105.706
11
112.47
21
-105.643
0
LINE
8
BLACK
6
CONTINUOUS
10
112.47
20
-105.643
11
112.47
21
-106.339
0
LINE
8
BLACK
6
CONTINUOUS
10
112.47
20
-106.339
11
112.681
21
-106.339
0
LINE
8
BLACK
6
CONTINUOUS
10
112.681
20
-106.339
11
112.706
21
-106.344
0
LINE
8
BLACK
6
CONTINUOUS
10
112.706
20
-106.344
11
112.729
21
-106.357
0
LINE
8
BLACK
6
CONTINUOUS
10
112.729
20
-106.357
11
112.746
21
-106.377
0
LINE
8
BLACK
6
CONTINUOUS
10
112.746
20
-106.377
11
112.755
21
-106.401
0
LINE
8
BLACK
6
CONTINUOUS
10
112.755
20
-106.401
11
112.755
21
-106.427
0
LINE
8
BLACK
6
CONTINUOUS
10
112.755
20
-106.427
11
112.746
21
-106.452
0
LINE
8
BLACK
6
CONTINUOUS
10
112.746
20
-106.452
11
112.729
21
-106.472
0
LINE
8
BLACK
6
CONTINUOUS
10
112.729
20
-106.472
11
112.706
21
-106.485
0
LINE
8
BLACK
6
CONTINUOUS
10
112.706
20
-106.485
11
112.681
21
-106.489
0
LINE
8
BLACK
6
CONTINUOUS
10
112.681
20
-106.489
11
112.109
21
-106.489
0
LINE
8
BLACK
6
CONTINUOUS
10
112.109
20
-106.489
11
112.084
21
-106.485
0
LINE
8
BLACK
6
CONTINUOUS
10
112.084
20
-106.485
11
112.061
21
-106.472
0
LINE
8
BLACK
6
CONTINUOUS
10
112.061
20
-106.472
11
112.044
21
-106.452
0
LINE
8
BLACK
6
CONTINUOUS
10
112.044
20
-106.452
11
112.035
21
-106.427
0
LINE
8
BLACK
6
CONTINUOUS
10
112.035
20
-106.427
11
112.035
21
-106.401
0
LINE
8
BLACK
6
CONTINUOUS
10
112.035
20
-106.401
11
112.044
21
-106.377
0
LINE
8
BLACK
6
CONTINUOUS
10
112.044
20
-106.377
11
112.061
21
-106.357
0
LINE
8
BLACK
6
CONTINUOUS
10
112.061
20
-106.357
11
112.084
21
-106.344
0
LINE
8
BLACK
6
CONTINUOUS
10
112.084
20
-106.344
11
112.109
21
-106.339
0
LINE
8
BLACK
6
CONTINUOUS
10
112.109
20
-106.339
11
112.32
21
-106.339
0
LINE
8
BLACK
6
CONTINUOUS
10
112.32
20
-106.339
11
112.32
21
-105.414
0
LINE
8
BLACK
6
CONTINUOUS
10
112.32
20
-105.414
11
112.321
21
-105.41
0
LINE
8
BLACK
6
CONTINUOUS
10
112.321
20
-105.41
11
112.321
21
-105.406
0
LINE
8
BLACK
6
CONTINUOUS
10
112.321
20
-105.406
11
112.323
21
-105.398
0
LINE
8
BLACK
6
CONTINUOUS
10
112.323
20
-105.398
11
112.325
21
-105.389
0
LINE
8
BLACK
6
CONTINUOUS
10
112.325
20
-105.389
11
112.327
21
-105.385
0
LINE
8
BLACK
6
CONTINUOUS
10
112.327
20
-105.385
11
112.328
21
-105.381
0
LINE
8
BLACK
6
CONTINUOUS
10
112.328
20
-105.381
11
112.333
21
-105.374
0
LINE
8
BLACK
6
CONTINUOUS
10
112.333
20
-105.374
11
112.338
21
-105.366
0
LINE
8
BLACK
6
CONTINUOUS
10
112.338
20
-105.366
11
112.341
21
-105.364
0
LINE
8
BLACK
6
CONTINUOUS
10
112.341
20
-105.364
11
112.343
21
-105.36
0
LINE
8
BLACK
6
CONTINUOUS
10
112.343
20
-105.36
11
112.351
21
-105.355
0
LINE
8
BLACK
6
CONTINUOUS
10
112.351
20
-105.355
11
112.358
21
-105.349
0
LINE
8
BLACK
6
CONTINUOUS
10
112.358
20
-105.349
11
112.361
21
-105.348
0
LINE
8
BLACK
6
CONTINUOUS
10
112.361
20
-105.348
11
112.365
21
-105.346
0
LINE
8
BLACK
6
CONTINUOUS
10
112.365
20
-105.346
11
112.374
21
-105.344
0
LINE
8
BLACK
6
CONTINUOUS
10
112.374
20
-105.344
11
112.382
21
-105.341
0
LINE
8
BLACK
6
CONTINUOUS
10
112.382
20
-105.341
11
112.386
21
-105.341
0
LINE
8
BLACK
6
CONTINUOUS
10
112.386
20
-105.341
11
112.39
21
-105.34
0
LINE
8
BLACK
6
CONTINUOUS
10
112.39
20
-105.34
11
112.399
21
-105.341
0
LINE
8
BLACK
6
CONTINUOUS
10
111.476
20
-103.579
11
111.493
21
-103.593
0
LINE
8
BLACK
6
CONTINUOUS
10
111.493
20
-103.593
11
111.503
21
-103.611
0
LINE
8
BLACK
6
CONTINUOUS
10
111.503
20
-103.611
11
111.506
21
-103.627
0
LINE
8
BLACK
6
CONTINUOUS
10
111.506
20
-103.627
11
111.506
21
-104.902
0
LINE
8
BLACK
6
CONTINUOUS
10
111.506
20
-104.902
11
112.781
21
-104.902
0
LINE
8
BLACK
6
CONTINUOUS
10
112.781
20
-104.902
11
112.797
21
-104.905
0
LINE
8
BLACK
6
CONTINUOUS
10
112.797
20
-104.905
11
112.815
21
-104.915
0
LINE
8
BLACK
6
CONTINUOUS
10
112.815
20
-104.915
11
112.829
21
-104.932
0
LINE
8
BLACK
6
CONTINUOUS
10
112.829
20
-104.932
11
112.836
21
-104.951
0
LINE
8
BLACK
6
CONTINUOUS
10
112.836
20
-104.951
11
112.836
21
-104.973
0
LINE
8
BLACK
6
CONTINUOUS
10
112.836
20
-104.973
11
112.829
21
-104.992
0
LINE
8
BLACK
6
CONTINUOUS
10
112.829
20
-104.992
11
112.815
21
-105.009
0
LINE
8
BLACK
6
CONTINUOUS
10
112.815
20
-105.009
11
112.797
21
-105.019
0
LINE
8
BLACK
6
CONTINUOUS
10
112.797
20
-105.019
11
112.781
21
-105.022
0
LINE
8
BLACK
6
CONTINUOUS
10
112.781
20
-105.022
11
111.441
21
-105.022
0
LINE
8
BLACK
6
CONTINUOUS
10
111.441
20
-105.022
11
111.441
21
-105.022
0
LINE
8
BLACK
6
CONTINUOUS
10
111.441
20
-105.022
11
111.435
21
-105.022
0
LINE
8
BLACK
6
CONTINUOUS
10
111.435
20
-105.022
11
111.43
21
-105.02
0
LINE
8
BLACK
6
CONTINUOUS
10
111.43
20
-105.02
11
111.425
21
-105.019
0
LINE
8
BLACK
6
CONTINUOUS
10
111.425
20
-105.019
11
111.421
21
-105.017
0
LINE
8
BLACK
6
CONTINUOUS
10
111.421
20
-105.017
11
111.416
21
-105.015
0
LINE
8
BLACK
6
CONTINUOUS
10
111.416
20
-105.015
11
111.411
21
-105.011
0
LINE
8
BLACK
6
CONTINUOUS
10
111.411
20
-105.011
11
111.407
21
-105.009
0
LINE
8
BLACK
6
CONTINUOUS
10
111.407
20
-105.009
11
111.403
21
-105.005
0
LINE
8
BLACK
6
CONTINUOUS
10
111.403
20
-105.005
11
111.399
21
-105.001
0
LINE
8
BLACK
6
CONTINUOUS
10
111.399
20
-105.001
11
111.397
21
-104.997
0
LINE
8
BLACK
6
CONTINUOUS
10
111.397
20
-104.997
11
111.393
21
-104.992
0
LINE
8
BLACK
6
CONTINUOUS
10
111.393
20
-104.992
11
111.391
21
-104.987
0
LINE
8
BLACK
6
CONTINUOUS
10
111.391
20
-104.987
11
111.389
21
-104.983
0
LINE
8
BLACK
6
CONTINUOUS
10
111.389
20
-104.983
11
111.388
21
-104.978
0
LINE
8
BLACK
6
CONTINUOUS
10
111.388
20
-104.978
11
111.386
21
-104.973
0
LINE
8
BLACK
6
CONTINUOUS
10
111.386
20
-104.973
11
111.386
21
-104.951
0
LINE
8
BLACK
6
CONTINUOUS
10
111.386
20
-104.951
11
111.386
21
-103.627
0
LINE
8
BLACK
6
CONTINUOUS
10
111.386
20
-103.627
11
111.389
21
-103.611
0
LINE
8
BLACK
6
CONTINUOUS
10
111.389
20
-103.611
11
111.399
21
-103.593
0
LINE
8
BLACK
6
CONTINUOUS
10
111.399
20
-103.593
11
111.416
21
-103.579
0
LINE
8
BLACK
6
CONTINUOUS
10
111.416
20
-103.579
11
111.435
21
-103.572
0
LINE
8
BLACK
6
CONTINUOUS
10
111.435
20
-103.572
11
111.457
21
-103.572
0
LINE
8
BLACK
6
CONTINUOUS
10
111.457
20
-103.572
11
111.476
21
-103.579
0
LINE
8
BLACK
6
CONTINUOUS
10
114.111
20
-97.162
11
114.117
21
-97.162
0
LINE
8
BLACK
6
CONTINUOUS
10
114.117
20
-97.162
11
114.122
21
-97.1638
0
LINE
8
BLACK
6
CONTINUOUS
10
114.122
20
-97.1638
11
114.127
21
-97.1647
0
LINE
8
BLACK
6
CONTINUOUS
10
114.127
20
-97.1647
11
114.131
21
-97.1674
0
LINE
8
BLACK
6
CONTINUOUS
10
114.131
20
-97.1674
11
114.136
21
-97.1692
0
LINE
8
BLACK
6
CONTINUOUS
10
114.136
20
-97.1692
11
114.141
21
-97.1727
0
LINE
8
BLACK
6
CONTINUOUS
10
114.141
20
-97.1727
11
114.145
21
-97.1753
0
LINE
8
BLACK
6
CONTINUOUS
10
114.145
20
-97.1753
11
114.149
21
-97.1794
0
LINE
8
BLACK
6
CONTINUOUS
10
114.149
20
-97.1794
11
114.153
21
-97.1828
0
LINE
8
BLACK
6
CONTINUOUS
10
114.153
20
-97.1828
11
114.155
21
-97.1875
0
LINE
8
BLACK
6
CONTINUOUS
10
114.155
20
-97.1875
11
114.159
21
-97.1915
0
LINE
8
BLACK
6
CONTINUOUS
10
114.159
20
-97.1915
11
114.161
21
-97.1965
0
LINE
8
BLACK
6
CONTINUOUS
10
114.161
20
-97.1965
11
114.163
21
-97.2012
0
LINE
8
BLACK
6
CONTINUOUS
10
114.163
20
-97.2012
11
114.164
21
-97.2064
0
LINE
8
BLACK
6
CONTINUOUS
10
114.164
20
-97.2064
11
114.166
21
-97.2114
0
LINE
8
BLACK
6
CONTINUOUS
10
114.166
20
-97.2114
11
114.166
21
-97.2167
0
LINE
8
BLACK
6
CONTINUOUS
10
114.166
20
-97.2167
11
114.166
21
-97.2168
0
LINE
8
BLACK
6
CONTINUOUS
10
114.166
20
-97.2168
11
114.166
21
-102.367
0
LINE
8
BLACK
6
CONTINUOUS
10
114.166
20
-102.367
11
114.166
21
-102.367
0
LINE
8
BLACK
6
CONTINUOUS
10
114.166
20
-102.367
11
114.166
21
-102.373
0
LINE
8
BLACK
6
CONTINUOUS
10
114.166
20
-102.373
11
114.164
21
-102.378
0
LINE
8
BLACK
6
CONTINUOUS
10
114.164
20
-102.378
11
114.163
21
-102.383
0
LINE
8
BLACK
6
CONTINUOUS
10
114.163
20
-102.383
11
114.161
21
-102.387
0
LINE
8
BLACK
6
CONTINUOUS
10
114.161
20
-102.387
11
114.159
21
-102.392
0
LINE
8
BLACK
6
CONTINUOUS
10
114.159
20
-102.392
11
114.155
21
-102.397
0
LINE
8
BLACK
6
CONTINUOUS
10
114.155
20
-102.397
11
114.153
21
-102.401
0
LINE
8
BLACK
6
CONTINUOUS
10
114.153
20
-102.401
11
114.149
21
-102.405
0
LINE
8
BLACK
6
CONTINUOUS
10
114.149
20
-102.405
11
114.145
21
-102.409
0
LINE
8
BLACK
6
CONTINUOUS
10
114.145
20
-102.409
11
114.141
21
-102.411
0
LINE
8
BLACK
6
CONTINUOUS
10
114.141
20
-102.411
11
114.136
21
-102.415
0
LINE
8
BLACK
6
CONTINUOUS
10
114.136
20
-102.415
11
114.131
21
-102.417
0
LINE
8
BLACK
6
CONTINUOUS
10
114.131
20
-102.417
11
114.127
21
-102.419
0
LINE
8
BLACK
6
CONTINUOUS
10
114.127
20
-102.419
11
114.122
21
-102.42
0
LINE
8
BLACK
6
CONTINUOUS
10
114.122
20
-102.42
11
114.117
21
-102.422
0
LINE
8
BLACK
6
CONTINUOUS
10
114.117
20
-102.422
11
114.111
21
-102.422
0
LINE
8
BLACK
6
CONTINUOUS
10
114.111
20
-102.422
11
114.111
21
-102.422
0
LINE
8
BLACK
6
CONTINUOUS
10
114.111
20
-102.422
11
111.441
21
-102.422
0
LINE
8
BLACK
6
CONTINUOUS
10
111.441
20
-102.422
11
111.441
21
-102.422
0
LINE
8
BLACK
6
CONTINUOUS
10
111.441
20
-102.422
11
111.435
21
-102.422
0
LINE
8
BLACK
6
CONTINUOUS
10
111.435
20
-102.422
11
111.43
21
-102.42
0
LINE
8
BLACK
6
CONTINUOUS
10
111.43
20
-102.42
11
111.425
21
-102.419
0
LINE
8
BLACK
6
CONTINUOUS
10
111.425
20
-102.419
11
111.421
21
-102.417
0
LINE
8
BLACK
6
CONTINUOUS
10
111.421
20
-102.417
11
111.416
21
-102.415
0
LINE
8
BLACK
6
CONTINUOUS
10
111.416
20
-102.415
11
111.411
21
-102.411
0
LINE
8
BLACK
6
CONTINUOUS
10
111.411
20
-102.411
11
111.407
21
-102.409
0
LINE
8
BLACK
6
CONTINUOUS
10
111.407
20
-102.409
11
111.403
21
-102.405
0
LINE
8
BLACK
6
CONTINUOUS
10
111.403
20
-102.405
11
111.399
21
-102.401
0
LINE
8
BLACK
6
CONTINUOUS
10
111.399
20
-102.401
11
111.397
21
-102.397
0
LINE
8
BLACK
6
CONTINUOUS
10
111.397
20
-102.397
11
111.393
21
-102.392
0
LINE
8
BLACK
6
CONTINUOUS
10
111.393
20
-102.392
11
111.391
21
-102.387
0
LINE
8
BLACK
6
CONTINUOUS
10
111.391
20
-102.387
11
111.389
21
-102.383
0
LINE
8
BLACK
6
CONTINUOUS
10
111.389
20
-102.383
11
111.388
21
-102.378
0
LINE
8
BLACK
6
CONTINUOUS
10
111.388
20
-102.378
11
111.386
21
-102.373
0
LINE
8
BLACK
6
CONTINUOUS
10
111.386
20
-102.373
11
111.386
21
-102.367
0
LINE
8
BLACK
6
CONTINUOUS
10
111.386
20
-102.367
11
111.386
21
-102.367
0
LINE
8
BLACK
6
CONTINUOUS
10
111.386
20
-102.367
11
111.386
21
-97.2168
0
LINE
8
BLACK
6
CONTINUOUS
10
111.386
20
-97.2168
11
111.386
21
-97.2114
0
LINE
8
BLACK
6
CONTINUOUS
10
111.386
20
-97.2114
11
111.388
21
-97.2064
0
LINE
8
BLACK
6
CONTINUOUS
10
111.388
20
-97.2064
11
111.389
21
-97.2012
0
LINE
8
BLACK
6
CONTINUOUS
10
111.389
20
-97.2012
11
111.391
21
-97.1966
0
LINE
8
BLACK
6
CONTINUOUS
10
111.391
20
-97.1966
11
111.393
21
-97.1915
0
LINE
8
BLACK
6
CONTINUOUS
10
111.393
20
-97.1915
11
111.397
21
-97.1874
0
LINE
8
BLACK
6
CONTINUOUS
10
111.397
20
-97.1874
11
111.399
21
-97.1828
0
LINE
8
BLACK
6
CONTINUOUS
10
111.399
20
-97.1828
11
111.403
21
-97.1794
0
LINE
8
BLACK
6
CONTINUOUS
10
111.403
20
-97.1794
11
111.407
21
-97.1753
0
LINE
8
BLACK
6
CONTINUOUS
10
111.407
20
-97.1753
11
111.411
21
-97.1727
0
LINE
8
BLACK
6
CONTINUOUS
10
111.411
20
-97.1727
11
111.416
21
-97.1692
0
LINE
8
BLACK
6
CONTINUOUS
10
111.416
20
-97.1692
11
111.421
21
-97.1674
0
LINE
8
BLACK
6
CONTINUOUS
10
111.421
20
-97.1674
11
111.425
21
-97.1647
0
LINE
8
BLACK
6
CONTINUOUS
10
111.425
20
-97.1647
11
111.43
21
-97.1638
0
LINE
8
BLACK
6
CONTINUOUS
10
111.43
20
-97.1638
11
111.435
21
-97.162
0
LINE
8
BLACK
6
CONTINUOUS
10
111.435
20
-97.162
11
111.441
21
-97.162
0
LINE
8
BLACK
6
CONTINUOUS
10
111.441
20
-97.162
11
111.441
21
-97.162
0
LINE
8
BLACK
6
CONTINUOUS
10
111.441
20
-97.162
11
114.111
21
-97.162
0
LINE
8
BLACK
6
CONTINUOUS
10
114.111
20
-97.162
11
114.111
21
-97.162
0
LINE
8
BLACK
6
CONTINUOUS
10
111.506
20
-97.282
11
111.506
21
-102.302
0
LINE
8
BLACK
6
CONTINUOUS
10
111.506
20
-102.302
11
114.046
21
-102.302
0
LINE
8
BLACK
6
CONTINUOUS
10
114.046
20
-102.302
11
114.046
21
-97.282
0
LINE
8
BLACK
6
CONTINUOUS
10
114.046
20
-97.282
11
111.506
21
-97.282
  0
ENDSEC
  0
EOF
