<?xml version="1.0" encoding="UTF-8" standalone="no"?>
<!-- Created with Inkscape (http://www.inkscape.org/) -->

<svg
   xmlns:dc="http://purl.org/dc/elements/1.1/"
   xmlns:cc="http://creativecommons.org/ns#"
   xmlns:rdf="http://www.w3.org/1999/02/22-rdf-syntax-ns#"
   xmlns:svg="http://www.w3.org/2000/svg"
   xmlns="http://www.w3.org/2000/svg"
   xmlns:sodipodi="http://sodipodi.sourceforge.net/DTD/sodipodi-0.dtd"
   xmlns:inkscape="http://www.inkscape.org/namespaces/inkscape"
   width="192.34178mm"
   height="179.94276mm"
   viewBox="0 0 681.52599 637.59247"
   id="svg2"
   version="1.1"
   inkscape:version="0.91 r13725"
   sodipodi:docname="Афт blades by Rones.svg">
  <defs
     id="defs4" />
  <sodipodi:namedview
     id="base"
     pagecolor="#ffffff"
     bordercolor="#666666"
     borderopacity="1.0"
     inkscape:pageopacity="0.0"
     inkscape:pageshadow="2"
     inkscape:zoom="1.1300388"
     inkscape:cx="335.09649"
     inkscape:cy="267.67342"
     inkscape:document-units="px"
     inkscape:current-layer="layer1"
     showgrid="false"
     inkscape:window-width="1920"
     inkscape:window-height="1018"
     inkscape:window-x="1272"
     inkscape:window-y="-8"
     inkscape:window-maximized="1"
     inkscape:snap-global="true"
     showguides="true"
     inkscape:guide-bbox="true"
     inkscape:snap-object-midpoints="true"
     inkscape:snap-center="true"
     inkscape:object-nodes="true"
     fit-margin-top="0"
     fit-margin-left="0"
     fit-margin-right="0"
     fit-margin-bottom="0">
    <sodipodi:guide
       position="336.0359,279.10399"
       orientation="0,1"
       id="guide8218" />
    <sodipodi:guide
       position="336.0359,279.10399"
       orientation="1,0"
       id="guide8220" />
  </sodipodi:namedview>
  <metadata
     id="metadata7">
    <rdf:RDF>
      <cc:Work
         rdf:about="">
        <dc:format>image/svg+xml</dc:format>
        <dc:type
           rdf:resource="http://purl.org/dc/dcmitype/StillImage" />
        <dc:title></dc:title>
      </cc:Work>
    </rdf:RDF>
  </metadata>
  <g
     inkscape:label="Layer 1"
     inkscape:groupmode="layer"
     id="layer1"
     transform="translate(-163.21109,-271.14319)">
    <path
       style="opacity:1;fill:#000000;fill-opacity:1;fill-rule:nonzero;stroke:none;stroke-width:1;stroke-linecap:round;stroke-linejoin:round;stroke-miterlimit:4;stroke-dasharray:none;stroke-dashoffset:0;stroke-opacity:1"
       d="m 277.8726,899.1788 c 42.53007,16.54338 98.33277,11.22953 134.8355,-13.00108 47.77189,-31.71086 92.4159,-74.36246 87.3951,-189.91355 a 66.6869,66.6869 0 0 0 29.93367,-7.52619 c 9.70119,37.80117 9.25185,76.02357 11.15857,114.28889 2.44577,49.08419 19.17236,90.75909 81.7874,102.82122 33.04898,6.3666 70.65607,0.21985 99.50961,-17.1074 70.76798,-42.49777 111.99507,-101.99531 121.36373,-171.36026 7.21756,-53.43846 -30.87459,-117.08068 -79.16472,-141.07711 -51.35301,-25.51846 -110.61835,-42.85589 -208.194,19.28785 a 66.6869,66.6869 0 0 0 -21.44764,-22.18753 c 27.88407,-27.29651 61.20647,-46.01672 93.3878,-66.79799 41.2853,-26.66023 69.01293,-61.98327 48.15153,-122.24066 -11.01088,-31.80449 -35.13748,-61.29992 -64.57006,-77.62423 -72.18815,-40.03796 -144.32771,-45.99302 -209.08385,-19.42411 -49.88777,20.46865 -85.95788,85.27899 -82.59433,139.09761 3.57686,57.23155 18.19437,117.22455 120.79651,170.65514 a 66.6869,66.6869 0 0 0 -3.91924,8.07667 66.6869,66.6869 0 0 0 -4.51729,21.6078 C 395.0984,616.25711 362.2112,596.7496 328.10817,579.26259 284.37713,556.8386 239.9223,550.48706 198.16858,598.68225 c -22.0381,25.43791 -35.51859,61.08006 -34.93956,94.73165 1.42018,82.53571 32.33286,147.98789 87.72036,190.78392 8.0006,6.18181 17.10867,11.1633 26.92322,14.98098 z M 480.4631,677.21577 a 51.157075,51.157075 0 0 1 -28.80007,-66.36767 51.157075,51.157075 0 0 1 66.36719,-28.80027 51.157075,51.157075 0 0 1 28.80076,66.36741 51.157075,51.157075 0 0 1 -66.36788,28.80053 z m 6.54079,-16.56971 a 33.34345,33.34345 0 0 0 43.25736,-18.77166 33.34345,33.34345 0 0 0 -18.77158,-43.25733 33.34345,33.34345 0 0 0 -43.257,18.77182 33.34345,33.34345 0 0 0 18.77122,43.25717 z"
       id="path4410"
       inkscape:connector-curvature="0"
       inkscape:transform-center-x="-4.7270843"
       inkscape:transform-center-y="-39.692233" />
  </g>
</svg>
