0
SECTION
2
HEADER
9
$INSUNITS
70
4
9
$ACADVER
1
AC1014
9
$HANDSEED
5
FFFF
0
ENDSEC
0
SECTION
2
TABLES
0
TABLE
2
VPORT
5
8
100
AcDbSymbolTable
0
ENDTAB
0
TABLE
2
LTYPE
5
5
100
AcDbSymbolTable
0
LTYPE
5
14
100
AcDbSymbolTableRecord
100
AcDbLinetypeTableRecord
2
BYBLOCK
70
0
0
LTYPE
5
15
100
AcDbSymbolTableRecord
100
AcDbLinetypeTableRecord
2
BYLAYER
70
0
0
ENDTAB
0
TABLE
2
LAYER
5
2
100
AcDbSymbolTable
70
2
0
LAYER
5
50
100
AcDbSymbolTableRecord
100
AcDbLayerTableRecord
2
0
70
0
6
CONTINUOUS
0
ENDTAB
0
TABLE
2
STYLE
5
3
100
AcDbSymbolTable
70
1
0
STYLE
5
11
100
AcDbSymbolTableRecord
100
AcDbTextStyleTableRecord
2
STANDARD
70
0
0
ENDTAB
0
TABLE
2
VIEW
5
6
100
AcDbSymbolTable
70
0
0
ENDTAB
0
TABLE
2
UCS
5
7
100
AcDbSymbolTable
70
0
0
ENDTAB
0
TABLE
2
APPID
5
9
100
AcDbSymbolTable
70
2
0
APPID
5
12
100
AcDbSymbolTableRecord
100
AcDbRegAppTableRecord
2
ACAD
70
0
0
ENDTAB
0
TABLE
2
DIMSTYLE
5
A
100
AcDbSymbolTable
70
1
0
ENDTAB
0
TABLE
2
BLOCK_RECORD
5
1
100
AcDbSymbolTable
70
1
0
BLOCK_RECORD
5
1F
100
AcDbSymbolTableRecord
100
AcDbBlockTableRecord
2
*MODEL_SPACE
0
BLOCK_RECORD
5
1B
100
AcDbSymbolTableRecord
100
AcDbBlockTableRecord
2
*PAPER_SPACE
0
ENDTAB
0
ENDSEC
0
SECTION
2
BLOCKS
0
BLOCK
5
20
100
AcDbEntity
100
AcDbBlockBegin
2
*MODEL_SPACE
0
ENDBLK
5
21
100
AcDbEntity
100
AcDbBlockEnd
0
BLOCK
5
1C
100
AcDbEntity
100
AcDbBlockBegin
2
*PAPER_SPACE
0
ENDBLK
5
1D
100
AcDbEntity
100
AcDbBlockEnd
0
ENDSEC
0
SECTION
2
ENTITIES
0
LINE
5
100
100
AcDbEntity
8
0
100
AcDbLine
10
137.33144737269998
20
23.510010353800048
30
0
11
147.43275082349999
21
31.986010353800047
31
0
0
LINE
5
101
100
AcDbEntity
8
0
100
AcDbLine
10
136.42333113510003
20
22.748010353800048
30
0
11
137.33144737269998
21
23.510010353800048
31
0
0
LINE
5
102
100
AcDbEntity
8
0
100
AcDbLine
10
136.12062572260004
20
22.494010353800036
30
0
11
136.42333113510003
21
22.748010353800048
31
0
0
LINE
5
103
100
AcDbEntity
8
0
100
AcDbLine
10
135.96160038475387
20
22.360572251475936
30
0
11
136.12062572260004
21
22.494010353800036
31
0
0
ARC
5
104
100
AcDbEntity
8
0
100
AcDbCircle
10
138.53275082349998
20
19.296394479000014
30
0
40
3.9999999999999907
100
AcDbArc
50
129.99999999999946
51
180
0
LINE
5
105
100
AcDbEntity
8
0
100
AcDbLine
10
134.53275082350001
20
-20.924373771399978
30
0
11
134.53275082350001
21
19.296394479000014
31
0
0
LINE
5
106
100
AcDbEntity
8
0
100
AcDbLine
10
147.43275082349999
20
-33.613989646199975
30
0
11
137.33144737269998
21
-25.137989646199976
31
0
0
LINE
5
107
100
AcDbEntity
8
0
100
AcDbLine
10
137.33144737269998
20
-25.137989646199976
30
0
11
136.42333113510003
21
-24.375989646199976
31
0
0
LINE
5
108
100
AcDbEntity
8
0
100
AcDbLine
10
136.42333113510003
20
-24.375989646199976
30
0
11
136.12062572260004
21
-24.121989646199964
31
0
0
ARC
5
109
100
AcDbEntity
8
0
100
AcDbCircle
10
138.53275082349998
20
-20.924373771399978
30
0
40
3.9999999999999858
100
AcDbArc
50
180
51
230.00000000000048
0
LINE
5
110
100
AcDbEntity
8
0
100
AcDbLine
10
136.12062572260004
20
-24.121989646199964
30
0
11
135.96160038475387
21
-23.988551543875896
31
0
0
LINE
5
111
100
AcDbEntity
8
0
100
AcDbLine
10
55.432750823499966
20
-51.613989646199983
30
0
11
147.43275082349999
21
-51.613989646199983
31
0
0
LINE
5
112
100
AcDbEntity
8
0
100
AcDbLine
10
55.432750823499966
20
-33.613989646199975
30
0
11
65.534054274400006
21
-25.137989646199976
31
0
0
LINE
5
113
100
AcDbEntity
8
0
100
AcDbLine
10
65.534054274400006
20
-25.137989646199976
30
0
11
66.442170511900002
21
-24.375989646199976
31
0
0
LINE
5
114
100
AcDbEntity
8
0
100
AcDbLine
10
66.442170511900002
20
-24.375989646199976
30
0
11
66.744875924399992
21
-24.121989646199964
31
0
0
ARC
5
115
100
AcDbEntity
8
0
100
AcDbCircle
10
64.332750823499964
20
-20.924373771399978
30
0
40
4.0000000000000364
100
AcDbArc
50
-49.999999999999588
51
0
0
LINE
5
116
100
AcDbEntity
8
0
100
AcDbLine
10
66.744875924399992
20
-24.121989646199964
30
0
11
66.903901262246166
21
-23.9885515438759
31
0
0
LINE
5
117
100
AcDbEntity
8
0
100
AcDbLine
10
68.332750823500007
20
-20.924373771399978
30
0
11
68.332750823499964
21
19.296394479000014
31
0
0
LINE
5
118
100
AcDbEntity
8
0
100
AcDbLine
10
65.534054274400006
20
23.510010353800048
30
0
11
55.432750823499966
21
31.986010353800047
31
0
0
LINE
5
119
100
AcDbEntity
8
0
100
AcDbLine
10
66.442170511900002
20
22.748010353800048
30
0
11
65.534054274400006
21
23.510010353800048
31
0
0
LINE
5
120
100
AcDbEntity
8
0
100
AcDbLine
10
66.744875924399992
20
22.494010353800036
30
0
11
66.442170511900002
21
22.748010353800048
31
0
0
LINE
5
121
100
AcDbEntity
8
0
100
AcDbLine
10
66.903901262246166
20
22.360572251475936
30
0
11
66.744875924399992
21
22.494010353800036
31
0
0
ARC
5
122
100
AcDbEntity
8
0
100
AcDbCircle
10
64.332750823499964
20
19.296394479000014
30
0
40
3.9999999999999858
100
AcDbArc
50
0
51
49.999999999999602
0
LINE
5
123
100
AcDbEntity
8
0
100
AcDbLine
10
55.432750823499966
20
49.986010353800054
30
0
11
147.43275082349999
21
49.986010353800054
31
0
0
LINE
5
124
100
AcDbEntity
8
0
100
AcDbLine
10
147.43275082349999
20
49.986010353800054
30
0
11
147.43275082349999
21
31.986010353800047
31
0
0
LINE
5
125
100
AcDbEntity
8
0
100
AcDbLine
10
55.432750823499966
20
31.986010353800047
30
0
11
55.432750823499966
21
49.986010353800054
31
0
0
LINE
5
126
100
AcDbEntity
8
0
100
AcDbLine
10
55.432750823499966
20
-33.613989646199975
30
0
11
55.432750823499966
21
-51.613989646199983
31
0
0
LINE
5
127
100
AcDbEntity
8
0
100
AcDbLine
10
147.43275082349999
20
-51.613989646199983
30
0
11
147.43275082349999
21
-33.613989646199975
31
0
0
CIRCLE
5
128
100
AcDbEntity
8
0
100
AcDbCircle
10
61.43275082349998
20
32.386010353800039
30
0
40
2.5
0
CIRCLE
5
129
100
AcDbEntity
8
0
100
AcDbCircle
10
68.492750823500018
20
27.126010353800041
30
0
40
3.3000000000000402
0
CIRCLE
5
130
100
AcDbEntity
8
0
100
AcDbCircle
10
116.85055082350001
20
27.126010353800041
30
0
40
2.7999999879999962
0
CIRCLE
5
131
100
AcDbEntity
8
0
100
AcDbCircle
10
134.37275082350001
20
27.126010353800041
30
0
40
3.3000000000000118
0
CIRCLE
5
132
100
AcDbEntity
8
0
100
AcDbCircle
10
141.43275082349999
20
32.386010353800039
30
0
40
2.5
0
CIRCLE
5
133
100
AcDbEntity
8
0
100
AcDbCircle
10
141.43275082349999
20
-34.013989646199967
30
0
40
2.5
0
CIRCLE
5
134
100
AcDbEntity
8
0
100
AcDbCircle
10
134.37275082350001
20
-28.753989646199969
30
0
40
3.2999999999999829
0
CIRCLE
5
135
100
AcDbEntity
8
0
100
AcDbCircle
10
86.014950823500016
20
-28.753989646199969
30
0
40
2.7999999879999962
0
CIRCLE
5
136
100
AcDbEntity
8
0
100
AcDbCircle
10
68.492750823500018
20
-28.753989646199969
30
0
40
3.2999999999999829
0
CIRCLE
5
137
100
AcDbEntity
8
0
100
AcDbCircle
10
61.43275082349998
20
-34.013989646199967
30
0
40
2.5
0
ENDSEC
0
SECTION
2
OBJECTS
0
DICTIONARY
5
C
100
AcDbDictionary
3
ACAD_GROUP
350
D
3
ACAD_MLINESTYLE
350
17
0
DICTIONARY
5
D
100
AcDbDictionary
0
DICTIONARY
5
1A
330
C
100
AcDbDictionary
0
DICTIONARY
5
17
100
AcDbDictionary
0
ENDSEC
0
EOF
